G04*
G04 #@! TF.GenerationSoftware,Altium Limited,Altium Designer,23.6.0 (18)*
G04*
G04 Layer_Color=32896*
%FSLAX44Y44*%
%MOMM*%
G71*
G04*
G04 #@! TF.SameCoordinates,1B3FBE08-8921-405D-8673-E2F24B904F06*
G04*
G04*
G04 #@! TF.FilePolarity,Positive*
G04*
G01*
G75*
%ADD10C,0.1500*%
%ADD11C,0.2000*%
%ADD12C,0.1270*%
%ADD88C,0.2500*%
%ADD89R,4.0000X0.5000*%
D10*
X398749Y376337D02*
X390751D01*
Y380336D01*
X392084Y381668D01*
X394750D01*
X396083Y380336D01*
Y376337D01*
Y379002D02*
X398749Y381668D01*
X392084Y384334D02*
X390751Y385667D01*
Y388333D01*
X392084Y389666D01*
X393417D01*
X394750Y388333D01*
Y387000D01*
Y388333D01*
X396083Y389666D01*
X397416D01*
X398749Y388333D01*
Y385667D01*
X397416Y384334D01*
X390751Y392332D02*
Y397663D01*
X392084D01*
X397416Y392332D01*
X398749D01*
X370001Y439753D02*
X375999D01*
Y442752D01*
X374999Y443751D01*
X373000D01*
X372000Y442752D01*
Y439753D01*
Y441752D02*
X370001Y443751D01*
X374999Y445751D02*
X375999Y446750D01*
Y448750D01*
X374999Y449749D01*
X374000D01*
X373000Y448750D01*
Y447750D01*
Y448750D01*
X372000Y449749D01*
X371001D01*
X370001Y448750D01*
Y446750D01*
X371001Y445751D01*
X375999Y455747D02*
Y451749D01*
X373000D01*
X374000Y453748D01*
Y454748D01*
X373000Y455747D01*
X371001D01*
X370001Y454748D01*
Y452748D01*
X371001Y451749D01*
X407663Y329001D02*
Y336999D01*
X403665D01*
X402332Y335666D01*
Y333000D01*
X403665Y331667D01*
X407663D01*
X404997D02*
X402332Y329001D01*
X399666Y335666D02*
X398333Y336999D01*
X395667D01*
X394334Y335666D01*
Y334333D01*
X395667Y333000D01*
X397000D01*
X395667D01*
X394334Y331667D01*
Y330334D01*
X395667Y329001D01*
X398333D01*
X399666Y330334D01*
X387670Y329001D02*
Y336999D01*
X391668Y333000D01*
X386337D01*
X369751Y484753D02*
X375749D01*
Y487752D01*
X374749Y488751D01*
X372750D01*
X371750Y487752D01*
Y484753D01*
Y486752D02*
X369751Y488751D01*
X374749Y490751D02*
X375749Y491750D01*
Y493750D01*
X374749Y494749D01*
X373750D01*
X372750Y493750D01*
Y492750D01*
Y493750D01*
X371750Y494749D01*
X370751D01*
X369751Y493750D01*
Y491750D01*
X370751Y490751D01*
X374749Y496749D02*
X375749Y497748D01*
Y499748D01*
X374749Y500747D01*
X373750D01*
X372750Y499748D01*
Y498748D01*
Y499748D01*
X371750Y500747D01*
X370751D01*
X369751Y499748D01*
Y497748D01*
X370751Y496749D01*
X474337Y584749D02*
Y576751D01*
X478335D01*
X479668Y578084D01*
Y580750D01*
X478335Y582083D01*
X474337D01*
X477002D02*
X479668Y584749D01*
X482334Y578084D02*
X483667Y576751D01*
X486333D01*
X487666Y578084D01*
Y579417D01*
X486333Y580750D01*
X485000D01*
X486333D01*
X487666Y582083D01*
Y583416D01*
X486333Y584749D01*
X483667D01*
X482334Y583416D01*
X495663Y584749D02*
X490331D01*
X495663Y579417D01*
Y578084D01*
X494330Y576751D01*
X491664D01*
X490331Y578084D01*
X500420Y585499D02*
Y577501D01*
X504418D01*
X505751Y578834D01*
Y581500D01*
X504418Y582833D01*
X500420D01*
X503085D02*
X505751Y585499D01*
X508417Y578834D02*
X509750Y577501D01*
X512416D01*
X513749Y578834D01*
Y580167D01*
X512416Y581500D01*
X511083D01*
X512416D01*
X513749Y582833D01*
Y584166D01*
X512416Y585499D01*
X509750D01*
X508417Y584166D01*
X516414Y585499D02*
X519080D01*
X517747D01*
Y577501D01*
X516414Y578834D01*
X377499Y633163D02*
X369501D01*
Y629165D01*
X370834Y627832D01*
X373500D01*
X374833Y629165D01*
Y633163D01*
Y630498D02*
X377499Y627832D01*
X370834Y625166D02*
X369501Y623833D01*
Y621167D01*
X370834Y619834D01*
X372167D01*
X373500Y621167D01*
Y622500D01*
Y621167D01*
X374833Y619834D01*
X376166D01*
X377499Y621167D01*
Y623833D01*
X376166Y625166D01*
X370834Y617168D02*
X369501Y615835D01*
Y613170D01*
X370834Y611837D01*
X376166D01*
X377499Y613170D01*
Y615835D01*
X376166Y617168D01*
X370834D01*
X422587Y585499D02*
Y577501D01*
X426585D01*
X427918Y578834D01*
Y581500D01*
X426585Y582833D01*
X422587D01*
X425252D02*
X427918Y585499D01*
X435916D02*
X430584D01*
X435916Y580167D01*
Y578834D01*
X434583Y577501D01*
X431917D01*
X430584Y578834D01*
X438582Y584166D02*
X439914Y585499D01*
X442580D01*
X443913Y584166D01*
Y578834D01*
X442580Y577501D01*
X439914D01*
X438582Y578834D01*
Y580167D01*
X439914Y581500D01*
X443913D01*
X460251Y342087D02*
X468249D01*
Y346086D01*
X466916Y347418D01*
X464250D01*
X462917Y346086D01*
Y342087D01*
Y344753D02*
X460251Y347418D01*
Y355416D02*
Y350084D01*
X465583Y355416D01*
X466916D01*
X468249Y354083D01*
Y351417D01*
X466916Y350084D01*
Y358082D02*
X468249Y359414D01*
Y362080D01*
X466916Y363413D01*
X465583D01*
X464250Y362080D01*
X462917Y363413D01*
X461584D01*
X460251Y362080D01*
Y359414D01*
X461584Y358082D01*
X462917D01*
X464250Y359414D01*
X465583Y358082D01*
X466916D01*
X464250Y359414D02*
Y362080D01*
X369501Y529503D02*
X375499D01*
Y532502D01*
X374499Y533501D01*
X372500D01*
X371500Y532502D01*
Y529503D01*
Y531502D02*
X369501Y533501D01*
Y539499D02*
Y535501D01*
X373500Y539499D01*
X374499D01*
X375499Y538500D01*
Y536500D01*
X374499Y535501D01*
X375499Y541499D02*
Y545497D01*
X374499D01*
X370501Y541499D01*
X369501D01*
X369251Y579253D02*
X375249D01*
Y582252D01*
X374249Y583251D01*
X372250D01*
X371250Y582252D01*
Y579253D01*
Y581252D02*
X369251Y583251D01*
Y589249D02*
Y585251D01*
X373250Y589249D01*
X374249D01*
X375249Y588250D01*
Y586250D01*
X374249Y585251D01*
X375249Y595247D02*
X374249Y593248D01*
X372250Y591249D01*
X370251D01*
X369251Y592248D01*
Y594248D01*
X370251Y595247D01*
X371250D01*
X372250Y594248D01*
Y591249D01*
X506749Y376663D02*
X498751D01*
Y372664D01*
X500084Y371332D01*
X502750D01*
X504083Y372664D01*
Y376663D01*
Y373997D02*
X506749Y371332D01*
Y363334D02*
Y368666D01*
X501417Y363334D01*
X500084D01*
X498751Y364667D01*
Y367333D01*
X500084Y368666D01*
X498751Y355337D02*
Y360668D01*
X502750D01*
X501417Y358003D01*
Y356670D01*
X502750Y355337D01*
X505416D01*
X506749Y356670D01*
Y359336D01*
X505416Y360668D01*
X594413Y770501D02*
Y778499D01*
X590415D01*
X589082Y777166D01*
Y774500D01*
X590415Y773167D01*
X594413D01*
X591747D02*
X589082Y770501D01*
X581084D02*
X586416D01*
X581084Y775833D01*
Y777166D01*
X582417Y778499D01*
X585083D01*
X586416Y777166D01*
X578418D02*
X577085Y778499D01*
X574420D01*
X573087Y777166D01*
Y775833D01*
X574420Y774500D01*
X575753D01*
X574420D01*
X573087Y773167D01*
Y771834D01*
X574420Y770501D01*
X577085D01*
X578418Y771834D01*
X556413Y770751D02*
Y778749D01*
X552415D01*
X551082Y777416D01*
Y774750D01*
X552415Y773417D01*
X556413D01*
X553747D02*
X551082Y770751D01*
X543084D02*
X548416D01*
X543084Y776083D01*
Y777416D01*
X544417Y778749D01*
X547083D01*
X548416Y777416D01*
X535087Y770751D02*
X540418D01*
X535087Y776083D01*
Y777416D01*
X536420Y778749D01*
X539086D01*
X540418Y777416D01*
X524749Y373830D02*
X516751D01*
Y369832D01*
X518084Y368499D01*
X520750D01*
X522083Y369832D01*
Y373830D01*
Y371164D02*
X524749Y368499D01*
Y360501D02*
Y365833D01*
X519417Y360501D01*
X518084D01*
X516751Y361834D01*
Y364500D01*
X518084Y365833D01*
X524749Y357835D02*
Y355170D01*
Y356502D01*
X516751D01*
X518084Y357835D01*
X544749Y375663D02*
X536751D01*
Y371665D01*
X538084Y370332D01*
X540750D01*
X542083Y371665D01*
Y375663D01*
Y372997D02*
X544749Y370332D01*
Y362334D02*
Y367666D01*
X539417Y362334D01*
X538084D01*
X536751Y363667D01*
Y366333D01*
X538084Y367666D01*
Y359668D02*
X536751Y358335D01*
Y355670D01*
X538084Y354337D01*
X543416D01*
X544749Y355670D01*
Y358335D01*
X543416Y359668D01*
X538084D01*
X564249Y374747D02*
X556251D01*
Y370748D01*
X557584Y369415D01*
X560250D01*
X561583Y370748D01*
Y374747D01*
Y372081D02*
X564249Y369415D01*
Y366749D02*
Y364084D01*
Y365416D01*
X556251D01*
X557584Y366749D01*
X562916Y360085D02*
X564249Y358752D01*
Y356086D01*
X562916Y354753D01*
X557584D01*
X556251Y356086D01*
Y358752D01*
X557584Y360085D01*
X558917D01*
X560250Y358752D01*
Y354753D01*
X473501Y359753D02*
X481499D01*
Y363752D01*
X480166Y365085D01*
X477500D01*
X476167Y363752D01*
Y359753D01*
Y362419D02*
X473501Y365085D01*
Y367751D02*
Y370416D01*
Y369084D01*
X481499D01*
X480166Y367751D01*
Y374415D02*
X481499Y375748D01*
Y378414D01*
X480166Y379747D01*
X478833D01*
X477500Y378414D01*
X476167Y379747D01*
X474834D01*
X473501Y378414D01*
Y375748D01*
X474834Y374415D01*
X476167D01*
X477500Y375748D01*
X478833Y374415D01*
X480166D01*
X477500Y375748D02*
Y378414D01*
X591251Y388503D02*
X599249D01*
Y392502D01*
X597916Y393835D01*
X595250D01*
X593917Y392502D01*
Y388503D01*
Y391169D02*
X591251Y393835D01*
Y396501D02*
Y399166D01*
Y397834D01*
X599249D01*
X597916Y396501D01*
X599249Y403165D02*
Y408497D01*
X597916D01*
X592584Y403165D01*
X591251D01*
X628501Y389003D02*
X636499D01*
Y393002D01*
X635166Y394335D01*
X632500D01*
X631167Y393002D01*
Y389003D01*
Y391669D02*
X628501Y394335D01*
Y397001D02*
Y399666D01*
Y398334D01*
X636499D01*
X635166Y397001D01*
X636499Y408997D02*
X635166Y406331D01*
X632500Y403665D01*
X629834D01*
X628501Y404998D01*
Y407664D01*
X629834Y408997D01*
X631167D01*
X632500Y407664D01*
Y403665D01*
X610251Y389003D02*
X618249D01*
Y393002D01*
X616916Y394335D01*
X614250D01*
X612917Y393002D01*
Y389003D01*
Y391669D02*
X610251Y394335D01*
Y397001D02*
Y399666D01*
Y398334D01*
X618249D01*
X616916Y397001D01*
X618249Y408997D02*
Y403665D01*
X614250D01*
X615583Y406331D01*
Y407664D01*
X614250Y408997D01*
X611584D01*
X610251Y407664D01*
Y404998D01*
X611584Y403665D01*
X646751Y389003D02*
X654749D01*
Y393002D01*
X653416Y394335D01*
X650750D01*
X649417Y393002D01*
Y389003D01*
Y391669D02*
X646751Y394335D01*
Y397001D02*
Y399666D01*
Y398334D01*
X654749D01*
X653416Y397001D01*
X646751Y407664D02*
X654749D01*
X650750Y403665D01*
Y408997D01*
X453918Y579084D02*
X452585Y577751D01*
X449920D01*
X448587Y579084D01*
Y584416D01*
X449920Y585749D01*
X452585D01*
X453918Y584416D01*
X456584Y579084D02*
X457917Y577751D01*
X460583D01*
X461916Y579084D01*
Y580417D01*
X460583Y581750D01*
X459250D01*
X460583D01*
X461916Y583083D01*
Y584416D01*
X460583Y585749D01*
X457917D01*
X456584Y584416D01*
X464581Y579084D02*
X465914Y577751D01*
X468580D01*
X469913Y579084D01*
Y580417D01*
X468580Y581750D01*
X467247D01*
X468580D01*
X469913Y583083D01*
Y584416D01*
X468580Y585749D01*
X465914D01*
X464581Y584416D01*
X568332Y706666D02*
X569664Y707999D01*
X572330D01*
X573663Y706666D01*
Y701334D01*
X572330Y700001D01*
X569664D01*
X568332Y701334D01*
X565666Y706666D02*
X564333Y707999D01*
X561667D01*
X560334Y706666D01*
Y705333D01*
X561667Y704000D01*
X563000D01*
X561667D01*
X560334Y702667D01*
Y701334D01*
X561667Y700001D01*
X564333D01*
X565666Y701334D01*
X552337Y700001D02*
X557668D01*
X552337Y705333D01*
Y706666D01*
X553670Y707999D01*
X556335D01*
X557668Y706666D01*
X596249Y495166D02*
X597582Y496499D01*
X600247D01*
X601580Y495166D01*
Y489834D01*
X600247Y488501D01*
X597582D01*
X596249Y489834D01*
X593583Y495166D02*
X592250Y496499D01*
X589584D01*
X588251Y495166D01*
Y493833D01*
X589584Y492500D01*
X590917D01*
X589584D01*
X588251Y491167D01*
Y489834D01*
X589584Y488501D01*
X592250D01*
X593583Y489834D01*
X585586Y488501D02*
X582920D01*
X584253D01*
Y496499D01*
X585586Y495166D01*
X700832Y489084D02*
X702165Y487751D01*
X704830D01*
X706163Y489084D01*
Y494416D01*
X704830Y495749D01*
X702165D01*
X700832Y494416D01*
X698166Y489084D02*
X696833Y487751D01*
X694167D01*
X692834Y489084D01*
Y490417D01*
X694167Y491750D01*
X695500D01*
X694167D01*
X692834Y493083D01*
Y494416D01*
X694167Y495749D01*
X696833D01*
X698166Y494416D01*
X690168Y489084D02*
X688836Y487751D01*
X686170D01*
X684837Y489084D01*
Y494416D01*
X686170Y495749D01*
X688836D01*
X690168Y494416D01*
Y489084D01*
X594166Y693418D02*
X595499Y692085D01*
Y689420D01*
X594166Y688087D01*
X588834D01*
X587501Y689420D01*
Y692085D01*
X588834Y693418D01*
X587501Y701416D02*
Y696084D01*
X592833Y701416D01*
X594166D01*
X595499Y700083D01*
Y697417D01*
X594166Y696084D01*
X588834Y704082D02*
X587501Y705415D01*
Y708080D01*
X588834Y709413D01*
X594166D01*
X595499Y708080D01*
Y705415D01*
X594166Y704082D01*
X592833D01*
X591500Y705415D01*
Y709413D01*
X601582Y664916D02*
X602915Y666249D01*
X605580D01*
X606913Y664916D01*
Y659584D01*
X605580Y658251D01*
X602915D01*
X601582Y659584D01*
X593584Y658251D02*
X598916D01*
X593584Y663583D01*
Y664916D01*
X594917Y666249D01*
X597583D01*
X598916Y664916D01*
X590918D02*
X589585Y666249D01*
X586920D01*
X585587Y664916D01*
Y663583D01*
X586920Y662250D01*
X585587Y660917D01*
Y659584D01*
X586920Y658251D01*
X589585D01*
X590918Y659584D01*
Y660917D01*
X589585Y662250D01*
X590918Y663583D01*
Y664916D01*
X589585Y662250D02*
X586920D01*
X697582Y667166D02*
X698914Y668499D01*
X701580D01*
X702913Y667166D01*
Y661834D01*
X701580Y660501D01*
X698914D01*
X697582Y661834D01*
X689584Y660501D02*
X694916D01*
X689584Y665833D01*
Y667166D01*
X690917Y668499D01*
X693583D01*
X694916Y667166D01*
X686918Y668499D02*
X681587D01*
Y667166D01*
X686918Y661834D01*
Y660501D01*
X402832Y388166D02*
X404165Y389499D01*
X406830D01*
X408163Y388166D01*
Y382834D01*
X406830Y381501D01*
X404165D01*
X402832Y382834D01*
X394834Y381501D02*
X400166D01*
X394834Y386833D01*
Y388166D01*
X396167Y389499D01*
X398833D01*
X400166Y388166D01*
X386837Y389499D02*
X389503Y388166D01*
X392168Y385500D01*
Y382834D01*
X390835Y381501D01*
X388170D01*
X386837Y382834D01*
Y384167D01*
X388170Y385500D01*
X392168D01*
X428500Y474278D02*
X429833Y475611D01*
X432499D01*
X433832Y474278D01*
Y468947D01*
X432499Y467614D01*
X429833D01*
X428500Y468947D01*
X425835Y474278D02*
X424502Y475611D01*
X421836D01*
X420503Y474278D01*
Y472946D01*
X421836Y471613D01*
X420503Y470280D01*
Y468947D01*
X421836Y467614D01*
X424502D01*
X425835Y468947D01*
Y470280D01*
X424502Y471613D01*
X425835Y472946D01*
Y474278D01*
X424502Y471613D02*
X421836D01*
X427583Y427666D02*
X428916Y428999D01*
X431582D01*
X432915Y427666D01*
Y422334D01*
X431582Y421001D01*
X428916D01*
X427583Y422334D01*
X424917Y428999D02*
X419585D01*
Y427666D01*
X424917Y422334D01*
Y421001D01*
D11*
X495300Y316351D02*
G03*
X511200Y316351I7950J16149D01*
G01*
Y348649D02*
G03*
X495300Y348649I-7950J-16149D01*
G01*
X380550Y474351D02*
G03*
X396450Y474351I7950J16149D01*
G01*
Y506649D02*
G03*
X380550Y506649I-7950J-16149D01*
G01*
X380300Y519101D02*
G03*
X396200Y519101I7950J16149D01*
G01*
Y551399D02*
G03*
X380300Y551399I-7950J-16149D01*
G01*
X380550Y429601D02*
G03*
X396450Y429601I7950J16149D01*
G01*
Y461899D02*
G03*
X380550Y461899I-7950J-16149D01*
G01*
X379800Y563101D02*
G03*
X395700Y563101I7950J16149D01*
G01*
Y595399D02*
G03*
X379800Y595399I-7950J-16149D01*
G01*
X529351Y765700D02*
G03*
X529351Y749800I16149J-7950D01*
G01*
X561649D02*
G03*
X561649Y765700I-16149J7950D01*
G01*
X600149Y750050D02*
G03*
X600149Y765950I-16149J7950D01*
G01*
X567851D02*
G03*
X567851Y750050I16149J-7950D01*
G01*
X677000Y345250D02*
G03*
X677000Y345250I-1000J0D01*
G01*
X603200Y382149D02*
G03*
X587300Y382149I-7950J-16149D01*
G01*
Y349851D02*
G03*
X603200Y349851I7950J16149D01*
G01*
X642800Y350101D02*
G03*
X658700Y350101I7950J16149D01*
G01*
Y382399D02*
G03*
X642800Y382399I-7950J-16149D01*
G01*
X640200Y382149D02*
G03*
X624300Y382149I-7950J-16149D01*
G01*
Y349851D02*
G03*
X640200Y349851I7950J16149D01*
G01*
X621700Y381899D02*
G03*
X605800Y381899I-7950J-16149D01*
G01*
Y349601D02*
G03*
X621700Y349601I7950J16149D01*
G01*
X414649Y342300D02*
G03*
X414649Y358200I-16149J7950D01*
G01*
X382351D02*
G03*
X382351Y342300I16149J-7950D01*
G01*
X406351Y395950D02*
G03*
X406351Y380050I16149J-7950D01*
G01*
X438649D02*
G03*
X438649Y395950I-16149J7950D01*
G01*
X420851Y376700D02*
G03*
X420851Y360800I16149J-7950D01*
G01*
X453149D02*
G03*
X453149Y376700I-16149J7950D01*
G01*
X453149Y342550D02*
G03*
X453149Y358450I-16149J7950D01*
G01*
X420851D02*
G03*
X420851Y342550I16149J-7950D01*
G01*
X549200Y348149D02*
G03*
X533300Y348149I-7950J-16149D01*
G01*
Y315851D02*
G03*
X549200Y315851I7950J16149D01*
G01*
X530200Y348399D02*
G03*
X514300Y348399I-7950J-16149D01*
G01*
Y316101D02*
G03*
X530200Y316101I7950J16149D01*
G01*
X568200Y348399D02*
G03*
X552300Y348399I-7950J-16149D01*
G01*
Y316101D02*
G03*
X568200Y316101I7950J16149D01*
G01*
X416149Y611550D02*
G03*
X416149Y627450I-16149J7950D01*
G01*
X383851D02*
G03*
X383851Y611550I16149J-7950D01*
G01*
X437700Y624649D02*
G03*
X421800Y624649I-7950J-16149D01*
G01*
Y592351D02*
G03*
X437700Y592351I7950J16149D01*
G01*
X492700Y623649D02*
G03*
X476800Y623649I-7950J-16149D01*
G01*
Y591351D02*
G03*
X492700Y591351I7950J16149D01*
G01*
X511700Y623899D02*
G03*
X495800Y623899I-7950J-16149D01*
G01*
Y591601D02*
G03*
X511700Y591601I7950J16149D01*
G01*
X495250Y316500D02*
Y348500D01*
X511250Y316500D02*
Y348500D01*
X380500Y474500D02*
Y506500D01*
X396500Y474500D02*
Y506500D01*
X380250Y519250D02*
Y551250D01*
X396250Y519250D02*
Y551250D01*
X380500Y429750D02*
Y461750D01*
X396500Y429750D02*
Y461750D01*
X379750Y563250D02*
Y595250D01*
X395750Y563250D02*
Y595250D01*
X529500Y765750D02*
X561500D01*
X529500Y749750D02*
X561500D01*
X568000Y750000D02*
X600000D01*
X568000Y766000D02*
X600000D01*
X545750Y729250D02*
X579750D01*
X545750Y713250D02*
Y729250D01*
Y713250D02*
X579750D01*
Y729250D01*
X582750Y713750D02*
Y747750D01*
Y713750D02*
X598750D01*
Y747750D01*
X582750D02*
X598750D01*
X603250Y350000D02*
Y382000D01*
X587250Y350000D02*
Y382000D01*
X642750Y350250D02*
Y382250D01*
X658750Y350250D02*
Y382250D01*
X640250Y350000D02*
Y382000D01*
X624250Y350000D02*
Y382000D01*
X621750Y349750D02*
Y381750D01*
X605750Y349750D02*
Y381750D01*
X382500Y342250D02*
X414500D01*
X382500Y358250D02*
X414500D01*
X406500Y380000D02*
X438500D01*
X406500Y396000D02*
X438500D01*
X421000Y376750D02*
X453000D01*
X421000Y360750D02*
X453000D01*
X421000Y342500D02*
X453000D01*
X421000Y358500D02*
X453000D01*
X382000Y361000D02*
Y377000D01*
X416000D01*
Y361000D02*
Y377000D01*
X382000Y361000D02*
X416000D01*
X686500Y653250D02*
X702500D01*
Y619250D02*
Y653250D01*
X686500Y619250D02*
X702500D01*
X686500D02*
Y653250D01*
X587750Y652500D02*
X603750D01*
Y618500D02*
Y652500D01*
X587750Y618500D02*
X603750D01*
X587750D02*
Y652500D01*
X586000Y483500D02*
X602000D01*
Y449500D02*
Y483500D01*
X586000Y449500D02*
X602000D01*
X586000D02*
Y483500D01*
X688250Y483250D02*
X704250D01*
Y449250D02*
Y483250D01*
X688250Y449250D02*
X704250D01*
X688250D02*
Y483250D01*
X549250Y316000D02*
Y348000D01*
X533250Y316000D02*
Y348000D01*
X530250Y316250D02*
Y348250D01*
X514250Y316250D02*
Y348250D01*
X568250Y316250D02*
Y348250D01*
X552250Y316250D02*
Y348250D01*
X384000Y611500D02*
X416000D01*
X384000Y627500D02*
X416000D01*
X437750Y592500D02*
Y624500D01*
X421750Y592500D02*
Y624500D01*
X492750Y591500D02*
Y623500D01*
X476750Y591500D02*
Y623500D01*
X457000Y590750D02*
X473000D01*
X457000D02*
Y624750D01*
X473000D01*
Y590750D02*
Y624750D01*
X511750Y591750D02*
Y623750D01*
X495750Y591750D02*
Y623750D01*
X400500Y400000D02*
Y416000D01*
X434500D01*
Y400000D02*
Y416000D01*
X400500Y400000D02*
X434500D01*
X400250Y444000D02*
Y460000D01*
X434250D01*
Y444000D02*
Y460000D01*
X400250Y444000D02*
X434250D01*
D12*
X599300Y259250D02*
X688700D01*
Y273550D01*
Y296950D02*
Y313750D01*
X599300Y259250D02*
Y273550D01*
Y296950D02*
Y313750D01*
X473250Y400750D02*
Y460750D01*
X438250Y400750D02*
Y460750D01*
D88*
X694750Y426500D02*
X702250D01*
X662250D02*
X669750D01*
X662250Y351500D02*
X669750D01*
X694750D02*
X702250D01*
X672250Y382000D02*
X682250Y392000D01*
X672250Y382000D02*
X692250D01*
X682250Y392000D02*
X692250Y382000D01*
X662250Y351500D02*
Y426500D01*
X702250Y351500D02*
Y426500D01*
D89*
X682250Y393997D02*
D03*
M02*
