M48
;Layer_Color=9474304
;FILE_FORMAT=4:4
METRIC,LZ
;TYPE=PLATED
T1F00S00C0.4000
T2F00S00C0.5000
;TYPE=NON_PLATED
T4F00S00C0.6000
%
T01
X00321048Y00265347
Y00278047
Y00290747
Y00328847
Y00341547
X00319435Y00355859
X00319285Y00368709
X00360048Y00366947
Y00354247
Y00341547
Y00328847
Y00316147
Y00290747
Y00278047
Y0026585
X003856Y0028775
X00417407Y00260676
X00424407Y00311675
X00433788Y00339178
X00417907Y00351175
X00433681Y00378
X00403Y00385
X00402Y00393
X0046175Y0039525
X0046925Y003875
X00472657Y00374925
X00483407Y00376925
X00482907Y00391925
X00509212Y00377288
X00507Y00343
X0051275Y0032275
X0053175Y0032325
X00572Y00328914
X00591376Y00325518
X00588126Y00312017
X005806Y00313
X0056475Y0031025
X00556393Y00274
X005456Y00269
X00503907Y00263925
X004845Y00282
X004781Y00322
X00544907Y00383925
X00594907Y00387925
X0060125Y0039375
X00631907Y0039475
X00645157Y00390175
X0066025Y00351196
X00657Y00298
X0064485Y00305
X0062524Y00291511
X00628764Y00277954
X00712326Y00277661
X00712576Y00290161
X00712048Y00303447
Y00316147
X00711376Y00328768
X00750626Y00328268
X00751048Y00316147
Y00303447
X00752326Y00290661
X00751825Y00278161
X00751333Y00264739
X00712825Y00265161
X00722365Y00384108
X00732796Y0038713
X00751048Y00379647
X00750886Y0036925
X00751048Y00417747
Y00429647
Y00443147
Y00455847
X00727Y00446
X00729Y00428
X00711Y0041825
X00714951Y00403225
X00721166Y00397975
X00710644Y00456069
X0071175Y00463487
X00712Y00481247
X00712048Y00493246
X00712093Y00507127
X00728656Y00506925
X00728377Y00519127
X0073575Y005205
X00739577Y0052695
X00751048Y00533947
Y00546647
X0073Y00545
X00709Y0054605
X00712209Y0053255
X00712048Y00584747
Y00597447
Y0060915
X00723Y0061
X007285Y0062025
X00712048Y00622047
Y00635547
Y00648247
Y00660947
Y00673647
Y00686347
Y00699047
Y00711747
Y00724447
Y00737147
Y00749847
Y00762547
Y00775422
X00729376Y00777268
X00751048Y00775247
Y00762547
Y00749847
X00727376Y00709017
X00726876Y00663268
X00751048Y00660947
Y00635547
Y00622847
Y00610147
Y00597447
X00752657Y00518675
X00751048Y00506647
Y00493947
X00730157Y00494925
X00734645Y0048735
X00649518Y00490527
X00639239Y00494206
X00629Y005015
X00629758Y00513258
X00628157Y00522425
X00638657
X00649157Y00522675
X006471Y005085
X00620409Y00507758
X00617657Y0052325
X00607157Y00521182
X00587Y005345
X00587157Y00548925
X0058972Y00555974
X00576657Y005515
X00567604Y00545265
X00562925Y0055685
X005445Y0055725
X00534157Y00549675
X00528088Y00554082
X00521407Y00549175
X005175Y00556
X0050425
X00508471Y00549759
X00491535Y00549036
X00484802Y00552339
X00478562Y005565
X00461453Y00571221
X00452281Y00582074
X00442Y0058575
X00426
X00427876Y00567267
X0043875Y00554097
X00436944Y00533675
X00430149Y00536851
X00422407Y00537
X00420695Y00544302
X00402407Y00526175
X00403Y00509
X003995Y00482
X00402032Y004373
X0041Y00423
X00437157Y00432425
X00435907Y00442925
X004365Y00398495
X0047325Y004095
X00475124Y00417699
X00471606Y00424394
X00471657Y00431925
X00489587Y00435733
X00484Y004505
X00483157Y00461425
X00490157Y00475
X00486157Y00484175
X00474Y0048375
X00464763Y00497884
X0046385Y005085
X00488907Y00511384
X0051025Y005055
X00516657Y0049925
X00521032Y00484447
X005055Y0047675
X00506157Y0046025
X0050725Y0044675
X00535719Y00459168
X00543213Y00459481
X00542392Y00479941
X0054475Y004925
X005431Y005085
X0053889Y00529375
X0051285Y0053
X0055175Y0054375
X00547Y00583
X00564407Y00586425
X0056982Y00581234
X00588126Y0059825
X00595462Y00596689
X0059025Y006115
X0055375Y006185
X005515Y00603
X0052435Y0062
X00527626Y00648268
X0051825Y006535
X00518126Y00670518
X00528907Y00689925
X0054335Y0068775
X00548236Y00667008
X0059385Y006715
X0060085Y00679349
X0059522Y00686075
X00609909Y00687298
X0061585Y0068164
X00622744Y00684594
X00631242Y00674
X006126Y00661396
X005976Y00649
X00607521Y00585
X00654407Y00613629
X00672Y0064725
X00581262Y00733422
X00564Y0075775
X0057155Y00767745
X0049985Y007675
X0050735Y0072975
X0052425Y00716925
X005385Y0071925
X00490376Y00694268
X0046475Y006975
X00468Y006765
X004691Y00659
X00462195Y00650055
X0044475Y00634
X00447716Y0059625
X004741Y00589
X004985Y0058825
X00494Y0060825
X00494891Y00624065
X0047525Y00613985
X0051625Y005815
X00402157Y00570925
X0040335Y0059625
X0040535Y006615
X00419626Y00658767
X0043085Y0067025
X004465Y006815
X00438657Y00723675
X005751Y0050025
X0057115Y004923
X005651Y004835
X0058425Y0048
X00617Y0049075
X00644407Y00480925
X00641657Y00466925
X00651264Y00464873
X00646612Y00454675
X00636112Y0045175
X00637973Y0044125
X00643118Y00435792
X0064993Y0043893
X00650363Y00426064
X00650657Y00404425
X0062675Y004005
X006265Y004095
X0061185Y004035
X00611121Y00434726
X006206Y004345
X005996Y004315
X00578907Y00430925
X00485657Y00405425
X00360048Y00430447
Y00443147
Y00455847
Y00468547
Y00481247
Y00493947
Y00506647
Y00533947
Y00546647
Y00559347
Y00572047
X00321048
Y00584747
Y00597447
Y00610147
Y0062275
Y00660947
Y00673647
X003215Y007115
X00321048Y00724447
Y00737147
X00322147Y00749413
X00321397Y00762413
X00322147Y00774913
X00361147Y00775163
Y00762163
X00360897Y00749163
X003605Y007369
X00360048Y00724447
X0036025Y0071125
X0039385Y006825
X00342575Y00646911
X00321048Y00546647
Y00533947
Y00506647
Y00493947
Y00455847
Y00443147
X003785Y0047425
X00379238Y00488945
T02
X00322Y00303
Y00316
X0036Y00303
Y00379
Y00392
X00321
Y0038
X00602Y00376
X0066225Y0034345
X00713Y00341
X00712Y00354
Y00367
Y00379
Y00392
X00751
X00752Y00354
Y00341
X00638Y0026
X00637Y0041
X00712Y0043
X00714Y00443
X006925Y00481425
X00751Y00481
Y00468
Y00405
X00752Y00559
Y00572
Y00585
X00711Y00572
Y00559
X0067Y0062
X0066Y00648
X00753Y00648
Y00673
Y00686
Y00699
Y00711
X00752Y00724
X00751Y00737
X00632Y00732
X0059935Y00703475
X00577Y00721131
X00578254Y00740903
X00557Y00732
X00487908Y00755516
X0055025Y00468
X00594Y00476
X00322Y00481
Y00468
Y0043
X00321Y00418
Y00405
X0036
Y00418
Y00584
Y00597
Y0061
Y00623
X00359Y00635
X00361Y00648
Y00661
Y00673
X0036Y00686
Y00699
X00321
Y00686
Y00648
Y00635
Y00559
T04
X006151Y0032205
X006729
M30
