G04*
G04 #@! TF.GenerationSoftware,Altium Limited,Altium Designer,23.6.0 (18)*
G04*
G04 Layer_Color=65535*
%FSLAX44Y44*%
%MOMM*%
G71*
G04*
G04 #@! TF.SameCoordinates,1B3FBE08-8921-405D-8673-E2F24B904F06*
G04*
G04*
G04 #@! TF.FilePolarity,Positive*
G04*
G01*
G75*
%ADD10C,0.1500*%
%ADD11C,0.2000*%
%ADD12C,0.1270*%
%ADD13C,0.3500*%
%ADD14C,0.2540*%
%ADD15C,0.1000*%
%ADD16C,0.1524*%
D10*
X556680Y746570D02*
G03*
X556680Y746570I-750J0D01*
G01*
X424500Y643000D02*
G03*
X424500Y643000I-750J0D01*
G01*
X447499Y591587D02*
X439501D01*
Y595586D01*
X440834Y596918D01*
X443500D01*
X444833Y595586D01*
Y591587D01*
Y594253D02*
X447499Y596918D01*
Y603583D02*
X439501D01*
X443500Y599584D01*
Y604916D01*
X447499Y612913D02*
Y607582D01*
X442167Y612913D01*
X440834D01*
X439501Y611580D01*
Y608914D01*
X440834Y607582D01*
X380670Y607501D02*
Y615499D01*
X384668D01*
X386001Y614166D01*
Y611500D01*
X384668Y610167D01*
X380670D01*
X383335D02*
X386001Y607501D01*
X392666D02*
Y615499D01*
X388667Y611500D01*
X393999D01*
X396665Y607501D02*
X399330D01*
X397998D01*
Y615499D01*
X396665Y614166D01*
X381087Y660501D02*
Y668499D01*
X385085D01*
X386418Y667166D01*
Y664500D01*
X385085Y663167D01*
X381087D01*
X383753D02*
X386418Y660501D01*
X393083D02*
Y668499D01*
X389084Y664500D01*
X394416D01*
X397082Y667166D02*
X398414Y668499D01*
X401080D01*
X402413Y667166D01*
Y661834D01*
X401080Y660501D01*
X398414D01*
X397082Y661834D01*
Y667166D01*
X428087Y670501D02*
Y678499D01*
X432085D01*
X433418Y677166D01*
Y674500D01*
X432085Y673167D01*
X428087D01*
X430753D02*
X433418Y670501D01*
X436084Y677166D02*
X437417Y678499D01*
X440083D01*
X441416Y677166D01*
Y675833D01*
X440083Y674500D01*
X438750D01*
X440083D01*
X441416Y673167D01*
Y671834D01*
X440083Y670501D01*
X437417D01*
X436084Y671834D01*
X444082D02*
X445415Y670501D01*
X448080D01*
X449413Y671834D01*
Y677166D01*
X448080Y678499D01*
X445415D01*
X444082Y677166D01*
Y675833D01*
X445415Y674500D01*
X449413D01*
X503837Y642251D02*
Y650249D01*
X507836D01*
X509168Y648916D01*
Y646250D01*
X507836Y644917D01*
X503837D01*
X506503D02*
X509168Y642251D01*
X511834Y648916D02*
X513167Y650249D01*
X515833D01*
X517166Y648916D01*
Y647583D01*
X515833Y646250D01*
X514500D01*
X515833D01*
X517166Y644917D01*
Y643584D01*
X515833Y642251D01*
X513167D01*
X511834Y643584D01*
X519832Y648916D02*
X521165Y650249D01*
X523830D01*
X525163Y648916D01*
Y647583D01*
X523830Y646250D01*
X525163Y644917D01*
Y643584D01*
X523830Y642251D01*
X521165D01*
X519832Y643584D01*
Y644917D01*
X521165Y646250D01*
X519832Y647583D01*
Y648916D01*
X521165Y646250D02*
X523830D01*
X557087Y603751D02*
Y611749D01*
X561086D01*
X562418Y610416D01*
Y607750D01*
X561086Y606417D01*
X557087D01*
X559753D02*
X562418Y603751D01*
X565084Y610416D02*
X566417Y611749D01*
X569083D01*
X570416Y610416D01*
Y609083D01*
X569083Y607750D01*
X567750D01*
X569083D01*
X570416Y606417D01*
Y605084D01*
X569083Y603751D01*
X566417D01*
X565084Y605084D01*
X578413Y611749D02*
X575747Y610416D01*
X573082Y607750D01*
Y605084D01*
X574414Y603751D01*
X577080D01*
X578413Y605084D01*
Y606417D01*
X577080Y607750D01*
X573082D01*
X490837Y741001D02*
Y748999D01*
X494836D01*
X496168Y747666D01*
Y745000D01*
X494836Y743667D01*
X490837D01*
X493503D02*
X496168Y741001D01*
X504166D02*
X498834D01*
X504166Y746333D01*
Y747666D01*
X502833Y748999D01*
X500167D01*
X498834Y747666D01*
X510830Y741001D02*
Y748999D01*
X506832Y745000D01*
X512163D01*
X533003Y277501D02*
Y285499D01*
X537002D01*
X538335Y284166D01*
Y281500D01*
X537002Y280167D01*
X533003D01*
X535669D02*
X538335Y277501D01*
X541001D02*
X543666D01*
X542334D01*
Y285499D01*
X541001Y284166D01*
X547665D02*
X548998Y285499D01*
X551664D01*
X552997Y284166D01*
Y282833D01*
X551664Y281500D01*
X550331D01*
X551664D01*
X552997Y280167D01*
Y278834D01*
X551664Y277501D01*
X548998D01*
X547665Y278834D01*
X533003Y296251D02*
Y304249D01*
X537002D01*
X538335Y302916D01*
Y300250D01*
X537002Y298917D01*
X533003D01*
X535669D02*
X538335Y296251D01*
X541001D02*
X543666D01*
X542333D01*
Y304249D01*
X541001Y302916D01*
X552997Y296251D02*
X547665D01*
X552997Y301583D01*
Y302916D01*
X551664Y304249D01*
X548998D01*
X547665Y302916D01*
X536336Y259501D02*
Y267499D01*
X540335D01*
X541668Y266166D01*
Y263500D01*
X540335Y262167D01*
X536336D01*
X539002D02*
X541668Y259501D01*
X544334D02*
X546999D01*
X545667D01*
Y267499D01*
X544334Y266166D01*
X550998Y259501D02*
X553664D01*
X552331D01*
Y267499D01*
X550998Y266166D01*
X387749Y709503D02*
X379751D01*
Y713502D01*
X381084Y714835D01*
X383750D01*
X385083Y713502D01*
Y709503D01*
Y712169D02*
X387749Y714835D01*
Y717501D02*
Y720166D01*
Y718834D01*
X379751D01*
X381084Y717501D01*
Y724165D02*
X379751Y725498D01*
Y728164D01*
X381084Y729497D01*
X386416D01*
X387749Y728164D01*
Y725498D01*
X386416Y724165D01*
X381084D01*
X387502Y733835D02*
X379505D01*
Y737834D01*
X380837Y739167D01*
X383503D01*
X384836Y737834D01*
Y733835D01*
Y736501D02*
X387502Y739167D01*
X386169Y741833D02*
X387502Y743166D01*
Y745832D01*
X386169Y747164D01*
X380837D01*
X379505Y745832D01*
Y743166D01*
X380837Y741833D01*
X382170D01*
X383503Y743166D01*
Y747164D01*
X387749Y752085D02*
X379751D01*
Y756084D01*
X381084Y757417D01*
X383750D01*
X385083Y756084D01*
Y752085D01*
Y754751D02*
X387749Y757417D01*
X381084Y760083D02*
X379751Y761416D01*
Y764082D01*
X381084Y765415D01*
X382417D01*
X383750Y764082D01*
X385083Y765415D01*
X386416D01*
X387749Y764082D01*
Y761416D01*
X386416Y760083D01*
X385083D01*
X383750Y761416D01*
X382417Y760083D01*
X381084D01*
X383750Y761416D02*
Y764082D01*
X672586Y707001D02*
Y714999D01*
X676584D01*
X677917Y713666D01*
Y711000D01*
X676584Y709667D01*
X672586D01*
X675251D02*
X677917Y707001D01*
X680583Y714999D02*
X685915D01*
Y713666D01*
X680583Y708334D01*
Y707001D01*
X672085Y687501D02*
Y695499D01*
X676084D01*
X677417Y694166D01*
Y691500D01*
X676084Y690167D01*
X672085D01*
X674751D02*
X677417Y687501D01*
X685415Y695499D02*
X682749Y694166D01*
X680083Y691500D01*
Y688834D01*
X681416Y687501D01*
X684082D01*
X685415Y688834D01*
Y690167D01*
X684082Y691500D01*
X680083D01*
X598335Y701001D02*
Y708999D01*
X602334D01*
X603667Y707666D01*
Y705000D01*
X602334Y703667D01*
X598335D01*
X601001D02*
X603667Y701001D01*
X611665Y708999D02*
X606333D01*
Y705000D01*
X608999Y706333D01*
X610332D01*
X611665Y705000D01*
Y702334D01*
X610332Y701001D01*
X607666D01*
X606333Y702334D01*
X597836Y682001D02*
Y689999D01*
X601834D01*
X603167Y688666D01*
Y686000D01*
X601834Y684667D01*
X597836D01*
X600501D02*
X603167Y682001D01*
X609832D02*
Y689999D01*
X605833Y686000D01*
X611165D01*
X597085Y662501D02*
Y670499D01*
X601084D01*
X602417Y669166D01*
Y666500D01*
X601084Y665167D01*
X597085D01*
X599751D02*
X602417Y662501D01*
X605083Y669166D02*
X606416Y670499D01*
X609082D01*
X610415Y669166D01*
Y667833D01*
X609082Y666500D01*
X607749D01*
X609082D01*
X610415Y665167D01*
Y663834D01*
X609082Y662501D01*
X606416D01*
X605083Y663834D01*
X468335Y304501D02*
Y312499D01*
X472334D01*
X473667Y311166D01*
Y308500D01*
X472334Y307167D01*
X468335D01*
X471001D02*
X473667Y304501D01*
X481665D02*
X476333D01*
X481665Y309833D01*
Y311166D01*
X480332Y312499D01*
X477666D01*
X476333Y311166D01*
X489918Y304751D02*
Y312749D01*
X493917D01*
X495250Y311416D01*
Y308750D01*
X493917Y307417D01*
X489918D01*
X492584D02*
X495250Y304751D01*
X497916D02*
X500582D01*
X499249D01*
Y312749D01*
X497916Y311416D01*
X509168Y631416D02*
X507836Y632749D01*
X505170D01*
X503837Y631416D01*
Y626084D01*
X505170Y624751D01*
X507836D01*
X509168Y626084D01*
X511834Y631416D02*
X513167Y632749D01*
X515833D01*
X517166Y631416D01*
Y630083D01*
X515833Y628750D01*
X514500D01*
X515833D01*
X517166Y627417D01*
Y626084D01*
X515833Y624751D01*
X513167D01*
X511834Y626084D01*
X525163Y632749D02*
X519832D01*
Y628750D01*
X522497Y630083D01*
X523830D01*
X525163Y628750D01*
Y626084D01*
X523830Y624751D01*
X521165D01*
X519832Y626084D01*
X406834Y595668D02*
X405501Y594336D01*
Y591670D01*
X406834Y590337D01*
X412166D01*
X413499Y591670D01*
Y594336D01*
X412166Y595668D01*
X406834Y598334D02*
X405501Y599667D01*
Y602333D01*
X406834Y603666D01*
X408167D01*
X409500Y602333D01*
Y601000D01*
Y602333D01*
X410833Y603666D01*
X412166D01*
X413499Y602333D01*
Y599667D01*
X412166Y598334D01*
X413499Y610330D02*
X405501D01*
X409500Y606332D01*
Y611663D01*
X657418Y302166D02*
X656086Y303499D01*
X653420D01*
X652087Y302166D01*
Y296834D01*
X653420Y295501D01*
X656086D01*
X657418Y296834D01*
X665416Y295501D02*
X660084D01*
X665416Y300833D01*
Y302166D01*
X664083Y303499D01*
X661417D01*
X660084Y302166D01*
X673413Y303499D02*
X668082D01*
Y299500D01*
X670747Y300833D01*
X672080D01*
X673413Y299500D01*
Y296834D01*
X672080Y295501D01*
X669415D01*
X668082Y296834D01*
X561918Y590166D02*
X560586Y591499D01*
X557920D01*
X556587Y590166D01*
Y584834D01*
X557920Y583501D01*
X560586D01*
X561918Y584834D01*
X569916Y583501D02*
X564584D01*
X569916Y588833D01*
Y590166D01*
X568583Y591499D01*
X565917D01*
X564584Y590166D01*
X576580Y583501D02*
Y591499D01*
X572582Y587500D01*
X577913D01*
X657418Y314666D02*
X656086Y315999D01*
X653420D01*
X652087Y314666D01*
Y309334D01*
X653420Y308001D01*
X656086D01*
X657418Y309334D01*
X665416Y308001D02*
X660084D01*
X665416Y313333D01*
Y314666D01*
X664083Y315999D01*
X661417D01*
X660084Y314666D01*
X668082D02*
X669415Y315999D01*
X672080D01*
X673413Y314666D01*
Y313333D01*
X672080Y312000D01*
X670747D01*
X672080D01*
X673413Y310667D01*
Y309334D01*
X672080Y308001D01*
X669415D01*
X668082Y309334D01*
X573918Y322416D02*
X572585Y323749D01*
X569920D01*
X568587Y322416D01*
Y317084D01*
X569920Y315751D01*
X572585D01*
X573918Y317084D01*
X581916Y315751D02*
X576584D01*
X581916Y321083D01*
Y322416D01*
X580583Y323749D01*
X577917D01*
X576584Y322416D01*
X589913Y315751D02*
X584582D01*
X589913Y321083D01*
Y322416D01*
X588580Y323749D01*
X585914D01*
X584582Y322416D01*
X538501Y321916D02*
X537168Y323249D01*
X534503D01*
X533170Y321916D01*
Y316584D01*
X534503Y315251D01*
X537168D01*
X538501Y316584D01*
X546499Y315251D02*
X541167D01*
X546499Y320583D01*
Y321916D01*
X545166Y323249D01*
X542500D01*
X541167Y321916D01*
X549165Y315251D02*
X551830D01*
X550497D01*
Y323249D01*
X549165Y321916D01*
X470418Y322666D02*
X469085Y323999D01*
X466420D01*
X465087Y322666D01*
Y317334D01*
X466420Y316001D01*
X469085D01*
X470418Y317334D01*
X478416Y316001D02*
X473084D01*
X478416Y321333D01*
Y322666D01*
X477083Y323999D01*
X474417D01*
X473084Y322666D01*
X481082D02*
X482415Y323999D01*
X485080D01*
X486413Y322666D01*
Y317334D01*
X485080Y316001D01*
X482415D01*
X481082Y317334D01*
Y322666D01*
X588190Y609537D02*
X586857Y610869D01*
X584191D01*
X582858Y609537D01*
Y604205D01*
X584191Y602872D01*
X586857D01*
X588190Y604205D01*
X590855Y602872D02*
X593521D01*
X592188D01*
Y610869D01*
X590855Y609537D01*
X597520Y604205D02*
X598853Y602872D01*
X601519D01*
X602851Y604205D01*
Y609537D01*
X601519Y610869D01*
X598853D01*
X597520Y609537D01*
Y608204D01*
X598853Y606871D01*
X602851D01*
X678154Y591684D02*
X676821Y593017D01*
X674155D01*
X672822Y591684D01*
Y586353D01*
X674155Y585020D01*
X676821D01*
X678154Y586353D01*
X680819Y585020D02*
X683485D01*
X682152D01*
Y593017D01*
X680819Y591684D01*
X687484D02*
X688817Y593017D01*
X691483D01*
X692815Y591684D01*
Y590352D01*
X691483Y589019D01*
X692815Y587686D01*
Y586353D01*
X691483Y585020D01*
X688817D01*
X687484Y586353D01*
Y587686D01*
X688817Y589019D01*
X687484Y590352D01*
Y591684D01*
X688817Y589019D02*
X691483D01*
X678916Y519548D02*
X677583Y520881D01*
X674917D01*
X673584Y519548D01*
Y514217D01*
X674917Y512884D01*
X677583D01*
X678916Y514217D01*
X681581Y512884D02*
X684247D01*
X682914D01*
Y520881D01*
X681581Y519548D01*
X688246Y520881D02*
X693577D01*
Y519548D01*
X688246Y514217D01*
Y512884D01*
X679932Y459096D02*
X678599Y460429D01*
X675933D01*
X674600Y459096D01*
Y453765D01*
X675933Y452432D01*
X678599D01*
X679932Y453765D01*
X682597Y452432D02*
X685263D01*
X683930D01*
Y460429D01*
X682597Y459096D01*
X694594Y460429D02*
X691928Y459096D01*
X689262Y456431D01*
Y453765D01*
X690595Y452432D01*
X693261D01*
X694594Y453765D01*
Y455098D01*
X693261Y456431D01*
X689262D01*
X664835Y357416D02*
X663502Y358749D01*
X660836D01*
X659503Y357416D01*
Y352084D01*
X660836Y350751D01*
X663502D01*
X664835Y352084D01*
X667501Y350751D02*
X670166D01*
X668834D01*
Y358749D01*
X667501Y357416D01*
X679497Y358749D02*
X674165D01*
Y354750D01*
X676831Y356083D01*
X678164D01*
X679497Y354750D01*
Y352084D01*
X678164Y350751D01*
X675498D01*
X674165Y352084D01*
X404334Y377585D02*
X403001Y376252D01*
Y373586D01*
X404334Y372253D01*
X409666D01*
X410999Y373586D01*
Y376252D01*
X409666Y377585D01*
X410999Y380251D02*
Y382916D01*
Y381584D01*
X403001D01*
X404334Y380251D01*
X410999Y390914D02*
X403001D01*
X407000Y386915D01*
Y392247D01*
X478584Y730585D02*
X477251Y729252D01*
Y726586D01*
X478584Y725253D01*
X483916D01*
X485249Y726586D01*
Y729252D01*
X483916Y730585D01*
X485249Y733251D02*
Y735917D01*
Y734584D01*
X477251D01*
X478584Y733251D01*
Y739915D02*
X477251Y741248D01*
Y743914D01*
X478584Y745247D01*
X479917D01*
X481250Y743914D01*
Y742581D01*
Y743914D01*
X482583Y745247D01*
X483916D01*
X485249Y743914D01*
Y741248D01*
X483916Y739915D01*
X494585Y765416D02*
X493252Y766749D01*
X490586D01*
X489253Y765416D01*
Y760084D01*
X490586Y758751D01*
X493252D01*
X494585Y760084D01*
X497251Y758751D02*
X499916D01*
X498584D01*
Y766749D01*
X497251Y765416D01*
X509247Y758751D02*
X503915D01*
X509247Y764083D01*
Y765416D01*
X507914Y766749D01*
X505248D01*
X503915Y765416D01*
X403834Y420168D02*
X402501Y418835D01*
Y416169D01*
X403834Y414836D01*
X409166D01*
X410499Y416169D01*
Y418835D01*
X409166Y420168D01*
X410499Y422834D02*
Y425499D01*
Y424166D01*
X402501D01*
X403834Y422834D01*
X410499Y429498D02*
Y432164D01*
Y430831D01*
X402501D01*
X403834Y429498D01*
X404834Y455085D02*
X403501Y453752D01*
Y451086D01*
X404834Y449753D01*
X410166D01*
X411499Y451086D01*
Y453752D01*
X410166Y455085D01*
X411499Y457751D02*
Y460416D01*
Y459084D01*
X403501D01*
X404834Y457751D01*
Y464415D02*
X403501Y465748D01*
Y468414D01*
X404834Y469747D01*
X410166D01*
X411499Y468414D01*
Y465748D01*
X410166Y464415D01*
X404834D01*
X421084Y488667D02*
X419751Y487334D01*
Y484668D01*
X421084Y483335D01*
X426416D01*
X427749Y484668D01*
Y487334D01*
X426416Y488667D01*
Y491333D02*
X427749Y492666D01*
Y495332D01*
X426416Y496665D01*
X421084D01*
X419751Y495332D01*
Y492666D01*
X421084Y491333D01*
X422417D01*
X423750Y492666D01*
Y496665D01*
X618417Y606916D02*
X617084Y608249D01*
X614418D01*
X613086Y606916D01*
Y601584D01*
X614418Y600251D01*
X617084D01*
X618417Y601584D01*
X626414Y608249D02*
X623749Y606916D01*
X621083Y604250D01*
Y601584D01*
X622416Y600251D01*
X625082D01*
X626414Y601584D01*
Y602917D01*
X625082Y604250D01*
X621083D01*
X572917Y645666D02*
X571584Y646999D01*
X568918D01*
X567585Y645666D01*
Y640334D01*
X568918Y639001D01*
X571584D01*
X572917Y640334D01*
X580914Y646999D02*
X575583D01*
Y643000D01*
X578249Y644333D01*
X579582D01*
X580914Y643000D01*
Y640334D01*
X579582Y639001D01*
X576916D01*
X575583Y640334D01*
X481917Y682916D02*
X480584Y684249D01*
X477918D01*
X476586Y682916D01*
Y677584D01*
X477918Y676251D01*
X480584D01*
X481917Y677584D01*
X488582Y676251D02*
Y684249D01*
X484583Y680250D01*
X489915D01*
X481667Y701666D02*
X480334Y702999D01*
X477668D01*
X476335Y701666D01*
Y696334D01*
X477668Y695001D01*
X480334D01*
X481667Y696334D01*
X484333Y701666D02*
X485666Y702999D01*
X488332D01*
X489664Y701666D01*
Y700333D01*
X488332Y699000D01*
X486999D01*
X488332D01*
X489664Y697667D01*
Y696334D01*
X488332Y695001D01*
X485666D01*
X484333Y696334D01*
X589667Y732166D02*
X588334Y733499D01*
X585668D01*
X584336Y732166D01*
Y726834D01*
X585668Y725501D01*
X588334D01*
X589667Y726834D01*
X597664Y725501D02*
X592333D01*
X597664Y730833D01*
Y732166D01*
X596332Y733499D01*
X593666D01*
X592333Y732166D01*
X511808Y311719D02*
X510475Y313051D01*
X507809D01*
X506476Y311719D01*
Y306387D01*
X507809Y305054D01*
X510475D01*
X511808Y306387D01*
X514473Y305054D02*
X517139D01*
X515806D01*
Y313051D01*
X514473Y311719D01*
D11*
X656101Y670700D02*
G03*
X656101Y654800I16149J-7950D01*
G01*
X688399D02*
G03*
X688399Y670700I-16149J7950D01*
G01*
X434100Y549500D02*
G03*
X434100Y549500I-1000J0D01*
G01*
X464851Y654700D02*
G03*
X464851Y638800I16149J-7950D01*
G01*
X497149D02*
G03*
X497149Y654700I-16149J7950D01*
G01*
X550899Y736050D02*
G03*
X550899Y751950I-16149J7950D01*
G01*
X518601D02*
G03*
X518601Y736050I16149J-7950D01*
G01*
X467950Y616649D02*
G03*
X452050Y616649I-7950J-16149D01*
G01*
Y584351D02*
G03*
X467950Y584351I7950J16149D01*
G01*
X424851Y665700D02*
G03*
X424851Y649800I16149J-7950D01*
G01*
X457149D02*
G03*
X457149Y665700I-16149J7950D01*
G01*
X385601Y636450D02*
G03*
X385601Y620550I16149J-7950D01*
G01*
X417899D02*
G03*
X417899Y636450I-16149J7950D01*
G01*
X385601Y654950D02*
G03*
X385601Y639050I16149J-7950D01*
G01*
X417899D02*
G03*
X417899Y654950I-16149J7950D01*
G01*
X656851Y683950D02*
G03*
X656851Y668050I16149J-7950D01*
G01*
X689149D02*
G03*
X689149Y683950I-16149J7950D01*
G01*
X592149Y274300D02*
G03*
X592149Y290200I-16149J7950D01*
G01*
X559851D02*
G03*
X559851Y274300I16149J-7950D01*
G01*
X592149Y256050D02*
G03*
X592149Y271950I-16149J7950D01*
G01*
X559851D02*
G03*
X559851Y256050I16149J-7950D01*
G01*
X646400Y301290D02*
G03*
X646400Y301290I-1000J0D01*
G01*
X559851Y308700D02*
G03*
X559851Y292800I16149J-7950D01*
G01*
X592149D02*
G03*
X592149Y308700I-16149J7950D01*
G01*
X445503Y754500D02*
G03*
X445503Y754500I-1000J0D01*
G01*
X426402Y731550D02*
G03*
X426402Y747450I-16149J7950D01*
G01*
X394104D02*
G03*
X394104Y731550I16149J-7950D01*
G01*
X426399Y712800D02*
G03*
X426399Y728700I-16149J7950D01*
G01*
X394101D02*
G03*
X394101Y712800I16149J-7950D01*
G01*
X426399Y750300D02*
G03*
X426399Y766200I-16149J7950D01*
G01*
X394101D02*
G03*
X394101Y750300I16149J-7950D01*
G01*
X591399Y695550D02*
G03*
X591399Y711450I-16149J7950D01*
G01*
X559101D02*
G03*
X559101Y695550I16149J-7950D01*
G01*
X590899Y658550D02*
G03*
X590899Y674450I-16149J7950D01*
G01*
X558601D02*
G03*
X558601Y658550I16149J-7950D01*
G01*
X591149Y677050D02*
G03*
X591149Y692950I-16149J7950D01*
G01*
X558851D02*
G03*
X558851Y677050I16149J-7950D01*
G01*
X549149Y598800D02*
G03*
X549149Y614700I-16149J7950D01*
G01*
X516851D02*
G03*
X516851Y598800I16149J-7950D01*
G01*
X501950Y297149D02*
G03*
X486050Y297149I-7950J-16149D01*
G01*
Y264851D02*
G03*
X501950Y264851I7950J16149D01*
G01*
X482450Y297149D02*
G03*
X466550Y297149I-7950J-16149D01*
G01*
Y264851D02*
G03*
X482450Y264851I7950J16149D01*
G01*
X656250Y654750D02*
X688250D01*
X656250Y670750D02*
X688250D01*
X583000Y739000D02*
X599000D01*
Y773000D01*
X583000D02*
X599000D01*
X583000Y739000D02*
Y773000D01*
X416000Y501500D02*
Y535500D01*
X432000D01*
Y501500D02*
Y535500D01*
X416000Y501500D02*
X432000D01*
X456250Y715000D02*
Y749000D01*
X472250D01*
Y715000D02*
Y749000D01*
X456250Y715000D02*
X472250D01*
X379000Y558750D02*
X397000D01*
X379000D02*
Y588750D01*
X397000Y558750D02*
Y588750D01*
X379500Y469750D02*
X397500D01*
X379500D02*
Y499750D01*
X397500Y469750D02*
Y499750D01*
X379250Y514250D02*
X397250D01*
X379250D02*
Y544250D01*
X397250Y514250D02*
Y544250D01*
X379500Y425000D02*
X397500D01*
X379500D02*
Y455000D01*
X397500Y425000D02*
Y455000D01*
X465000Y638750D02*
X497000D01*
X465000Y654750D02*
X497000D01*
X464250Y620500D02*
X498250D01*
X464250D02*
Y636500D01*
X498250D01*
Y620500D02*
Y636500D01*
X518750Y752000D02*
X550750D01*
X518750Y736000D02*
X550750D01*
X419000Y584250D02*
Y618250D01*
X435000D01*
Y584250D02*
Y618250D01*
X419000Y584250D02*
X435000D01*
X452000Y584500D02*
Y616500D01*
X468000Y584500D02*
Y616500D01*
X425000Y649750D02*
X457000D01*
X425000Y665750D02*
X457000D01*
X385750Y620500D02*
X417750D01*
X385750Y636500D02*
X417750D01*
X385750Y639000D02*
X417750D01*
X385750Y655000D02*
X417750D01*
X657000Y668000D02*
X689000D01*
X657000Y684000D02*
X689000D01*
X647500Y256250D02*
X681500D01*
X647500D02*
Y272250D01*
X681500D01*
Y256250D02*
Y272250D01*
X647250Y275000D02*
X681250D01*
X647250D02*
Y291000D01*
X681250D01*
Y275000D02*
Y291000D01*
X560000Y290250D02*
X592000D01*
X560000Y274250D02*
X592000D01*
X560000Y272000D02*
X592000D01*
X560000Y256000D02*
X592000D01*
X560000Y292750D02*
X592000D01*
X560000Y308750D02*
X592000D01*
X484250Y752500D02*
Y768500D01*
X450250D02*
X484250D01*
X450250Y752500D02*
Y768500D01*
Y752500D02*
X484250D01*
X394253Y747500D02*
X426253D01*
X394253Y731500D02*
X426253D01*
X394250Y728750D02*
X426250D01*
X394250Y712750D02*
X426250D01*
X394250Y766250D02*
X426250D01*
X394250Y750250D02*
X426250D01*
X559250Y711500D02*
X591250D01*
X559250Y695500D02*
X591250D01*
X494500Y672500D02*
Y688500D01*
Y672500D02*
X528500D01*
Y688500D01*
X494500D02*
X528500D01*
X494500Y690750D02*
Y706750D01*
Y690750D02*
X528500D01*
Y706750D01*
X494500D02*
X528500D01*
X558750Y674500D02*
X590750D01*
X558750Y658500D02*
X590750D01*
X559000Y693000D02*
X591000D01*
X559000Y677000D02*
X591000D01*
X585500Y636500D02*
Y652500D01*
Y636500D02*
X619500D01*
Y652500D01*
X585500D02*
X619500D01*
X613000Y613000D02*
Y629000D01*
Y613000D02*
X647000D01*
Y629000D01*
X613000D02*
X647000D01*
X517000Y614750D02*
X549000D01*
X517000Y598750D02*
X549000D01*
X551750Y579500D02*
Y595500D01*
X517750D02*
X551750D01*
X517750Y579500D02*
Y595500D01*
Y579500D02*
X551750D01*
X616250Y579250D02*
Y595250D01*
X582250D02*
X616250D01*
X582250Y579250D02*
Y595250D01*
Y579250D02*
X616250D01*
X459500Y328750D02*
Y344750D01*
Y328750D02*
X493500D01*
Y344750D01*
X459500D02*
X493500D01*
X416000Y367500D02*
X432000D01*
Y401500D01*
X416000D02*
X432000D01*
X416000Y367500D02*
Y401500D01*
X671250Y329500D02*
Y345500D01*
X637250D02*
X671250D01*
X637250Y329500D02*
Y345500D01*
Y329500D02*
X671250D01*
X560000Y328250D02*
Y344250D01*
Y328250D02*
X594000D01*
Y344250D01*
X560000D02*
X594000D01*
X523750Y328250D02*
Y344250D01*
Y328250D02*
X557750D01*
Y344250D01*
X523750D02*
X557750D01*
X674000Y410750D02*
X690000D01*
Y444750D01*
X674000D02*
X690000D01*
X674000Y410750D02*
Y444750D01*
X673000Y471250D02*
X689000D01*
Y505250D01*
X673000D02*
X689000D01*
X673000Y471250D02*
Y505250D01*
X672250Y543500D02*
X688250D01*
Y577500D01*
X672250D02*
X688250D01*
X672250Y543500D02*
Y577500D01*
X416000Y476500D02*
X432000D01*
X416000Y442500D02*
Y476500D01*
Y442500D02*
X432000D01*
Y476500D01*
X416250Y405250D02*
X432250D01*
Y439250D01*
X416250D02*
X432250D01*
X416250Y405250D02*
Y439250D01*
X620500Y774500D02*
X670000D01*
Y721500D02*
Y774500D01*
X620500Y721500D02*
X670000D01*
X620500D02*
Y774500D01*
X486000Y265000D02*
Y297000D01*
X502000Y265000D02*
Y297000D01*
X466500Y265000D02*
Y297000D01*
X482500Y265000D02*
Y297000D01*
X522000Y263500D02*
Y297500D01*
X506000Y263500D02*
X522000D01*
X506000D02*
Y297500D01*
X522000D01*
D12*
X630412Y767000D02*
G03*
X630412Y767000I-3162J0D01*
G01*
X629486D02*
G03*
X629486Y767000I-2236J0D01*
G01*
X628664D02*
G03*
X628664Y767000I-1414J0D01*
G01*
X628250D02*
G03*
X628250Y767000I-1000J0D01*
G01*
Y766000D02*
G03*
X628250Y766000I-1000J0D01*
G01*
X611486Y774000D02*
G03*
X611486Y774000I-2236J0D01*
G01*
X611250D02*
G03*
X611250Y774000I-1000J0D01*
G01*
X610250D02*
G03*
X610250Y774000I-1000J0D01*
G01*
X558720Y746770D02*
Y750780D01*
X562730D01*
X579140Y730360D02*
Y734370D01*
X575130Y730360D02*
X579140D01*
X558720D02*
Y734370D01*
Y730360D02*
X562730D01*
X579140Y746770D02*
Y750780D01*
X575130D02*
X579140D01*
X456500Y554100D02*
Y562000D01*
Y362000D02*
Y369900D01*
X656500Y554100D02*
Y562000D01*
Y362000D02*
Y369900D01*
X456500Y562000D02*
X464400D01*
X456500Y362000D02*
X464400D01*
X648600Y562000D02*
X656500D01*
X648600Y362000D02*
X656500D01*
X428750Y646500D02*
X434300D01*
X453200D02*
X458750D01*
X453200Y621500D02*
X458750D01*
X428750D02*
X434300D01*
X428750Y645950D02*
Y646500D01*
X458750Y645950D02*
Y646500D01*
Y621500D02*
Y622050D01*
X428750Y621500D02*
Y622050D01*
X639400Y305000D02*
Y307500D01*
X629400D02*
X639400D01*
X609400D02*
X619400D01*
X609400Y305000D02*
Y307500D01*
Y262500D02*
Y265000D01*
Y262500D02*
X619400D01*
X639400D02*
Y265000D01*
X629400Y262500D02*
X639400D01*
X431203Y729200D02*
X435203D01*
X431203D02*
Y731000D01*
X447803Y729200D02*
X451803D01*
Y731000D01*
Y748000D02*
Y749800D01*
X447803D02*
X451803D01*
X431203D02*
X435203D01*
X431203Y748000D02*
Y749800D01*
D13*
X397000Y588750D02*
Y598750D01*
X379000Y588750D02*
Y598750D01*
X379000D02*
X397000D01*
X397500Y499750D02*
Y509750D01*
X379500Y499750D02*
Y509750D01*
X379500D02*
X397500D01*
X397250Y544250D02*
Y554250D01*
X379250Y544250D02*
Y554250D01*
X379250D02*
X397250D01*
X397500Y455000D02*
Y465000D01*
X379500Y455000D02*
Y465000D01*
X379500D02*
X397500D01*
D14*
X553000Y674250D02*
Y674500D01*
X648250Y658250D02*
Y658500D01*
D15*
X555000Y670500D02*
Y700500D01*
X530000Y670500D02*
X555000D01*
X530000D02*
Y700500D01*
X555000D01*
X621250Y631250D02*
Y661250D01*
Y631250D02*
X651250D01*
X621250Y661250D02*
X651250D01*
Y631250D02*
Y661250D01*
D16*
X404914Y262334D02*
X447586D01*
X404914Y315166D02*
X447586D01*
M02*
