G04*
G04 #@! TF.GenerationSoftware,Altium Limited,Altium Designer,23.6.0 (18)*
G04*
G04 Layer_Color=16711935*
%FSLAX44Y44*%
%MOMM*%
G71*
G04*
G04 #@! TF.SameCoordinates,1B3FBE08-8921-405D-8673-E2F24B904F06*
G04*
G04*
G04 #@! TF.FilePolarity,Negative*
G04*
G01*
G75*
%ADD36R,1.3032X1.2032*%
%ADD37R,1.2032X1.3032*%
%ADD53O,1.1032X1.9032*%
%ADD54O,1.1032X2.2032*%
%ADD55C,0.8032*%
%ADD56C,0.9032*%
%ADD76R,8.3332X8.3332*%
%ADD77R,1.1932X2.9932*%
%ADD78R,1.6032X2.9932*%
%ADD79R,1.2032X1.7032*%
%ADD80R,0.9032X1.8032*%
%ADD81R,0.7000X1.2400*%
%ADD82R,0.4000X1.2400*%
%ADD83R,3.0032X2.4032*%
%ADD84R,1.0032X1.8032*%
%ADD85R,2.3032X3.2032*%
%ADD86R,2.8032X2.1032*%
%ADD87R,1.4032X0.6532*%
D36*
X554000Y757750D02*
D03*
X537000D02*
D03*
X575500Y758000D02*
D03*
X592500D02*
D03*
X571250Y721250D02*
D03*
X554250D02*
D03*
X390000Y350250D02*
D03*
X407000D02*
D03*
X431000Y388000D02*
D03*
X414000D02*
D03*
X445500Y368750D02*
D03*
X428500D02*
D03*
X428500Y350500D02*
D03*
X445500D02*
D03*
X407500Y369000D02*
D03*
X390500D02*
D03*
X391500Y619500D02*
D03*
X408500D02*
D03*
X426000Y408000D02*
D03*
X409000D02*
D03*
X425750Y452000D02*
D03*
X408750D02*
D03*
D37*
X503250Y341000D02*
D03*
Y324000D02*
D03*
X388500Y499000D02*
D03*
Y482000D02*
D03*
X388250Y543750D02*
D03*
Y526750D02*
D03*
X388500Y454250D02*
D03*
Y437250D02*
D03*
X387750Y587750D02*
D03*
Y570750D02*
D03*
X590750Y739250D02*
D03*
Y722250D02*
D03*
X595250Y357500D02*
D03*
Y374500D02*
D03*
X650750Y374750D02*
D03*
Y357750D02*
D03*
X632250Y357500D02*
D03*
Y374500D02*
D03*
X613750Y357250D02*
D03*
Y374250D02*
D03*
X694500Y627750D02*
D03*
Y644750D02*
D03*
X595750Y627000D02*
D03*
Y644000D02*
D03*
X594000Y458000D02*
D03*
Y475000D02*
D03*
X696250Y457750D02*
D03*
Y474750D02*
D03*
X541250Y323500D02*
D03*
Y340500D02*
D03*
X522250Y323750D02*
D03*
Y340750D02*
D03*
X560250Y323750D02*
D03*
Y340750D02*
D03*
X429750Y600000D02*
D03*
Y617000D02*
D03*
X484750Y599000D02*
D03*
Y616000D02*
D03*
X465000Y616250D02*
D03*
Y599250D02*
D03*
X503750D02*
D03*
Y616250D02*
D03*
D53*
X600750Y285250D02*
D03*
X687250D02*
D03*
D54*
X600750Y326950D02*
D03*
X687250D02*
D03*
D55*
X615100Y322050D02*
D03*
X672900D02*
D03*
X727000Y446000D02*
D03*
X710644Y456069D02*
D03*
X711750Y463487D02*
D03*
X711000Y418250D02*
D03*
X714951Y403225D02*
D03*
X721166Y397975D02*
D03*
X645157Y390175D02*
D03*
X712209Y532550D02*
D03*
X709000Y546050D02*
D03*
X649157Y522675D02*
D03*
X660250Y351196D02*
D03*
X750886Y369250D02*
D03*
X732796Y387130D02*
D03*
X722365Y384108D02*
D03*
X475250Y613985D02*
D03*
X447716Y596250D02*
D03*
X442000Y585750D02*
D03*
X403350Y596250D02*
D03*
X452281Y582074D02*
D03*
X426000Y585750D02*
D03*
X402032Y437300D02*
D03*
X319285Y368709D02*
D03*
X319435Y355859D02*
D03*
X581262Y733422D02*
D03*
X751048Y429647D02*
D03*
X650363Y426064D02*
D03*
X649930Y438930D02*
D03*
X595220Y686075D02*
D03*
X531750Y323250D02*
D03*
X475124Y417699D02*
D03*
X471606Y424394D02*
D03*
X543213Y459481D02*
D03*
X542392Y479941D02*
D03*
X535719Y459168D02*
D03*
X612600Y661396D02*
D03*
X597600Y649000D02*
D03*
X622744Y684594D02*
D03*
X615850Y681640D02*
D03*
X609909Y687298D02*
D03*
X607521Y585000D02*
D03*
X628157Y522425D02*
D03*
X617657Y523250D02*
D03*
X607157Y521182D02*
D03*
X507350Y729750D02*
D03*
X524250Y716925D02*
D03*
X628764Y277954D02*
D03*
X625240Y291511D02*
D03*
X379238Y488945D02*
D03*
X672000Y647250D02*
D03*
X631242Y674000D02*
D03*
X600850Y679349D02*
D03*
X593850Y671500D02*
D03*
X595462Y596689D02*
D03*
X589720Y555974D02*
D03*
X571550Y767745D02*
D03*
X564000Y757750D02*
D03*
X499850Y767500D02*
D03*
X729000Y428000D02*
D03*
X637973Y441250D02*
D03*
X643118Y435792D02*
D03*
X651264Y464873D02*
D03*
X712000Y481247D02*
D03*
X636112Y451750D02*
D03*
X641657Y466925D02*
D03*
X723000Y610000D02*
D03*
X436500Y398495D02*
D03*
X403000Y385000D02*
D03*
X402000Y393000D02*
D03*
X564750Y310250D02*
D03*
X657000Y298000D02*
D03*
X433681Y378000D02*
D03*
X528907Y689925D02*
D03*
X553750Y618500D02*
D03*
X547000Y583000D02*
D03*
X494891Y624065D02*
D03*
X444750Y634000D02*
D03*
X403000Y509000D02*
D03*
X402407Y526175D02*
D03*
X410000Y423000D02*
D03*
X420695Y544302D02*
D03*
X482907Y391925D02*
D03*
X503907Y263925D02*
D03*
X507000Y343000D02*
D03*
X544907Y383925D02*
D03*
X572000Y328914D02*
D03*
X730000Y545000D02*
D03*
X712048Y622047D02*
D03*
X484802Y552339D02*
D03*
X491535Y549036D02*
D03*
X478562Y556500D02*
D03*
X654407Y613629D02*
D03*
X728377Y519127D02*
D03*
X590250Y611500D02*
D03*
X588126Y598250D02*
D03*
X567604Y545265D02*
D03*
X551750Y543750D02*
D03*
X562925Y556850D02*
D03*
X576657Y551500D02*
D03*
X538890Y529375D02*
D03*
X528088Y554082D02*
D03*
X544500Y557250D02*
D03*
X360048Y265850D02*
D03*
X342575Y646911D02*
D03*
X751333Y264739D02*
D03*
X751825Y278161D02*
D03*
X752326Y290661D02*
D03*
X712825Y265161D02*
D03*
X712326Y277661D02*
D03*
X712576Y290161D02*
D03*
X360897Y749163D02*
D03*
X361147Y762163D02*
D03*
Y775163D02*
D03*
X322147Y749413D02*
D03*
X321397Y762413D02*
D03*
X322147Y774913D02*
D03*
X321500Y711500D02*
D03*
X360250Y711250D02*
D03*
X750626Y328268D02*
D03*
X711376Y328768D02*
D03*
X461750Y395250D02*
D03*
X469250Y387500D02*
D03*
X433788Y339178D02*
D03*
X712048Y762547D02*
D03*
X446500Y681500D02*
D03*
X468000Y676500D02*
D03*
X729376Y777268D02*
D03*
X728656Y506925D02*
D03*
X734645Y487350D02*
D03*
X739577Y526950D02*
D03*
X735750Y520500D02*
D03*
X712048Y493246D02*
D03*
X518126Y670518D02*
D03*
X548236Y667008D02*
D03*
X727376Y709017D02*
D03*
X726876Y663268D02*
D03*
X419626Y658767D02*
D03*
X490376Y694268D02*
D03*
X751048Y533947D02*
D03*
X427876Y567267D02*
D03*
X521032Y484447D02*
D03*
X516657Y499250D02*
D03*
X505500Y476750D02*
D03*
X506157Y460250D02*
D03*
X507250Y446750D02*
D03*
X483157Y461425D02*
D03*
X490157Y475000D02*
D03*
X591376Y325518D02*
D03*
X588126Y312017D02*
D03*
X469100Y659000D02*
D03*
X498500Y588250D02*
D03*
X524350Y620000D02*
D03*
X494000Y608250D02*
D03*
X518250Y653500D02*
D03*
X527626Y648268D02*
D03*
X474100Y589000D02*
D03*
X462195Y650055D02*
D03*
X489587Y435733D02*
D03*
X484000Y450500D02*
D03*
X509212Y377288D02*
D03*
X385600Y287750D02*
D03*
X611850Y403500D02*
D03*
X626500Y409500D02*
D03*
X601250Y393750D02*
D03*
X631907Y394750D02*
D03*
X626750Y400500D02*
D03*
X510250Y505500D02*
D03*
X461453Y571221D02*
D03*
X521407Y549175D02*
D03*
X516250Y581500D02*
D03*
X473250Y409500D02*
D03*
X712093Y507127D02*
D03*
X712048Y609150D02*
D03*
X751048Y379647D02*
D03*
X584250Y480000D02*
D03*
X620409Y507758D02*
D03*
X629758Y513258D02*
D03*
X638657Y522425D02*
D03*
X649518Y490527D02*
D03*
X639239Y494206D02*
D03*
X629000Y501500D02*
D03*
X464763Y497884D02*
D03*
X488907Y511384D02*
D03*
X575100Y500250D02*
D03*
X571150Y492300D02*
D03*
X565100Y483500D02*
D03*
X620600Y434500D02*
D03*
X644850Y305000D02*
D03*
X646612Y454675D02*
D03*
X544750Y492500D02*
D03*
X712048Y648247D02*
D03*
X751048Y622847D02*
D03*
Y635547D02*
D03*
X438750Y554097D02*
D03*
X617000Y490750D02*
D03*
X647100Y508500D02*
D03*
X611121Y434726D02*
D03*
X599600Y431500D02*
D03*
X578907Y430925D02*
D03*
X569820Y581234D02*
D03*
X587000Y534500D02*
D03*
X474000Y483750D02*
D03*
X463850Y508500D02*
D03*
X471657Y431925D02*
D03*
X478100Y322000D02*
D03*
X543350Y687750D02*
D03*
X551500Y603000D02*
D03*
X430850Y670250D02*
D03*
X728500Y620250D02*
D03*
X430149Y536851D02*
D03*
X436944Y533675D02*
D03*
X422407Y537000D02*
D03*
X587157Y548925D02*
D03*
X543100Y508500D02*
D03*
X512750Y322750D02*
D03*
X484500Y282000D02*
D03*
X508471Y549759D02*
D03*
X512850Y530000D02*
D03*
X321048Y622750D02*
D03*
X393850Y682500D02*
D03*
X405350Y661500D02*
D03*
X545600Y269000D02*
D03*
X556393Y274000D02*
D03*
X580600Y313000D02*
D03*
X464750Y697500D02*
D03*
X424407Y311675D02*
D03*
X417407Y260676D02*
D03*
X399500Y482000D02*
D03*
X360048Y468547D02*
D03*
X378500Y474250D02*
D03*
X486157Y484175D02*
D03*
X472657Y374925D02*
D03*
X321048Y673647D02*
D03*
X360048Y341547D02*
D03*
Y354247D02*
D03*
X417907Y351175D02*
D03*
X483407Y376925D02*
D03*
X485657Y405425D02*
D03*
X438657Y723675D02*
D03*
X594907Y387925D02*
D03*
X650657Y404425D02*
D03*
X752657Y518675D02*
D03*
X644407Y480925D02*
D03*
X730157Y494925D02*
D03*
X712048Y597447D02*
D03*
X564407Y586425D02*
D03*
X534157Y549675D02*
D03*
X517500Y556000D02*
D03*
X504250D02*
D03*
X437157Y432425D02*
D03*
X435907Y442925D02*
D03*
X402157Y570925D02*
D03*
X712048Y775422D02*
D03*
X538500Y719250D02*
D03*
X751048Y775247D02*
D03*
Y762547D02*
D03*
Y749847D02*
D03*
X712048D02*
D03*
Y737147D02*
D03*
Y724447D02*
D03*
Y711747D02*
D03*
Y699047D02*
D03*
Y686347D02*
D03*
Y673647D02*
D03*
X751048Y660947D02*
D03*
X712048D02*
D03*
Y635547D02*
D03*
X751048Y610147D02*
D03*
Y597447D02*
D03*
X712048Y584747D02*
D03*
X751048Y546647D02*
D03*
Y506647D02*
D03*
Y493947D02*
D03*
Y455847D02*
D03*
Y443147D02*
D03*
Y417747D02*
D03*
Y316147D02*
D03*
X712048D02*
D03*
X751048Y303447D02*
D03*
X712048D02*
D03*
X321048Y265347D02*
D03*
X360048Y278047D02*
D03*
X321048D02*
D03*
X360048Y290747D02*
D03*
X321048D02*
D03*
X360048Y316147D02*
D03*
Y328847D02*
D03*
X321048D02*
D03*
Y341547D02*
D03*
X360048Y366947D02*
D03*
Y430447D02*
D03*
Y443147D02*
D03*
X321048D02*
D03*
X360048Y455847D02*
D03*
X321048D02*
D03*
X360048Y481247D02*
D03*
Y493947D02*
D03*
X321048D02*
D03*
X360048Y506647D02*
D03*
X321048D02*
D03*
X360048Y533947D02*
D03*
X321048D02*
D03*
Y546647D02*
D03*
X360048D02*
D03*
Y559347D02*
D03*
Y572047D02*
D03*
X321048D02*
D03*
Y584747D02*
D03*
Y597447D02*
D03*
Y610147D02*
D03*
Y660947D02*
D03*
X360048Y724447D02*
D03*
X321048D02*
D03*
X360500Y736900D02*
D03*
X321048Y737147D02*
D03*
D56*
X714000Y443000D02*
D03*
X753000Y648000D02*
D03*
Y673000D02*
D03*
Y686000D02*
D03*
Y699000D02*
D03*
Y711000D02*
D03*
X752000Y724000D02*
D03*
X751000Y737000D02*
D03*
X711000Y572000D02*
D03*
Y559000D02*
D03*
X752000Y585000D02*
D03*
Y572000D02*
D03*
Y559000D02*
D03*
X751000Y481000D02*
D03*
Y468000D02*
D03*
X712000Y430000D02*
D03*
Y354000D02*
D03*
X713000Y341000D02*
D03*
X712000Y367000D02*
D03*
Y379000D02*
D03*
Y392000D02*
D03*
X751000Y405000D02*
D03*
Y392000D02*
D03*
X752000Y354000D02*
D03*
Y341000D02*
D03*
X321000Y699000D02*
D03*
Y686000D02*
D03*
X360000Y699000D02*
D03*
Y686000D02*
D03*
X361000Y673000D02*
D03*
Y661000D02*
D03*
Y648000D02*
D03*
X321000D02*
D03*
Y635000D02*
D03*
X359000D02*
D03*
X360000Y623000D02*
D03*
Y610000D02*
D03*
Y597000D02*
D03*
Y584000D02*
D03*
X321000Y559000D02*
D03*
X360000Y418000D02*
D03*
Y405000D02*
D03*
Y392000D02*
D03*
Y379000D02*
D03*
Y303000D02*
D03*
X322000D02*
D03*
Y316000D02*
D03*
X321000Y380000D02*
D03*
Y392000D02*
D03*
Y405000D02*
D03*
Y418000D02*
D03*
X322000Y430000D02*
D03*
Y468000D02*
D03*
Y481000D02*
D03*
X577000Y721131D02*
D03*
X578254Y740903D02*
D03*
X557000Y732000D02*
D03*
X632000D02*
D03*
X487908Y755516D02*
D03*
X594000Y476000D02*
D03*
X599350Y703475D02*
D03*
X662250Y343450D02*
D03*
X660000Y648000D02*
D03*
X550250Y468000D02*
D03*
X670000Y620000D02*
D03*
X638000Y260000D02*
D03*
X602000Y376000D02*
D03*
X637000Y410000D02*
D03*
X692500Y481425D02*
D03*
D76*
X645000Y733000D02*
D03*
X645171Y568479D02*
D03*
D77*
X619600Y628800D02*
D03*
X619771Y464279D02*
D03*
D78*
X670400Y628800D02*
D03*
X670571Y464279D02*
D03*
D79*
X376250Y718250D02*
D03*
X524750D02*
D03*
D80*
X502750Y637000D02*
D03*
X491750D02*
D03*
X414750D02*
D03*
X425750D02*
D03*
X436750D02*
D03*
X447750D02*
D03*
X458750D02*
D03*
X469750D02*
D03*
X480750D02*
D03*
X403750D02*
D03*
D81*
X612000Y332750D02*
D03*
X620000D02*
D03*
X668000D02*
D03*
X676000D02*
D03*
D82*
X626500D02*
D03*
X631500D02*
D03*
X636500D02*
D03*
X641500D02*
D03*
X661500D02*
D03*
X656500D02*
D03*
X651500D02*
D03*
X646500D02*
D03*
D83*
X682250Y366500D02*
D03*
Y411500D02*
D03*
D84*
X552500Y302500D02*
D03*
X540000D02*
D03*
X527500D02*
D03*
X515000D02*
D03*
X502500D02*
D03*
X490000D02*
D03*
X477500D02*
D03*
X465000D02*
D03*
D85*
X578000Y273500D02*
D03*
X439500D02*
D03*
D86*
X455750Y409250D02*
D03*
Y452250D02*
D03*
D87*
X360500Y506400D02*
D03*
Y493700D02*
D03*
Y481000D02*
D03*
Y468300D02*
D03*
Y430200D02*
D03*
Y442900D02*
D03*
Y455600D02*
D03*
Y417500D02*
D03*
Y404800D02*
D03*
Y392100D02*
D03*
Y379400D02*
D03*
Y366700D02*
D03*
Y328600D02*
D03*
Y341300D02*
D03*
Y354000D02*
D03*
Y315900D02*
D03*
Y303200D02*
D03*
Y290500D02*
D03*
Y277800D02*
D03*
Y265100D02*
D03*
X321500Y506400D02*
D03*
Y493700D02*
D03*
Y481000D02*
D03*
Y468300D02*
D03*
Y430200D02*
D03*
Y442900D02*
D03*
Y455600D02*
D03*
Y417500D02*
D03*
Y404800D02*
D03*
Y392100D02*
D03*
Y379400D02*
D03*
Y366700D02*
D03*
Y328600D02*
D03*
Y341300D02*
D03*
Y354000D02*
D03*
Y315900D02*
D03*
Y303200D02*
D03*
Y290500D02*
D03*
Y277800D02*
D03*
Y265100D02*
D03*
X751500Y506400D02*
D03*
Y493700D02*
D03*
Y481000D02*
D03*
Y468300D02*
D03*
Y430200D02*
D03*
Y442900D02*
D03*
Y455600D02*
D03*
Y417500D02*
D03*
Y404800D02*
D03*
Y392100D02*
D03*
Y379400D02*
D03*
Y366700D02*
D03*
Y328600D02*
D03*
Y341300D02*
D03*
Y354000D02*
D03*
Y315900D02*
D03*
Y303200D02*
D03*
Y290500D02*
D03*
Y277800D02*
D03*
Y265100D02*
D03*
X712500Y506400D02*
D03*
Y493700D02*
D03*
Y481000D02*
D03*
Y468300D02*
D03*
Y430200D02*
D03*
Y442900D02*
D03*
Y455600D02*
D03*
Y417500D02*
D03*
Y404800D02*
D03*
Y392100D02*
D03*
Y379400D02*
D03*
Y366700D02*
D03*
Y328600D02*
D03*
Y341300D02*
D03*
Y354000D02*
D03*
Y315900D02*
D03*
Y303200D02*
D03*
Y290500D02*
D03*
Y277800D02*
D03*
Y265100D02*
D03*
X360500Y775000D02*
D03*
Y762300D02*
D03*
Y749600D02*
D03*
Y736900D02*
D03*
Y698800D02*
D03*
Y711500D02*
D03*
Y724200D02*
D03*
Y686100D02*
D03*
Y673400D02*
D03*
Y660700D02*
D03*
Y648000D02*
D03*
Y635300D02*
D03*
Y597200D02*
D03*
Y609900D02*
D03*
Y622600D02*
D03*
Y584500D02*
D03*
Y571800D02*
D03*
Y559100D02*
D03*
Y546400D02*
D03*
Y533700D02*
D03*
X321500Y775000D02*
D03*
Y762300D02*
D03*
Y749600D02*
D03*
Y736900D02*
D03*
Y698800D02*
D03*
Y711500D02*
D03*
Y724200D02*
D03*
Y686100D02*
D03*
Y673400D02*
D03*
Y660700D02*
D03*
Y648000D02*
D03*
Y635300D02*
D03*
Y597200D02*
D03*
Y609900D02*
D03*
Y622600D02*
D03*
Y584500D02*
D03*
Y571800D02*
D03*
Y559100D02*
D03*
Y546400D02*
D03*
Y533700D02*
D03*
X751500Y775000D02*
D03*
Y762300D02*
D03*
Y749600D02*
D03*
Y736900D02*
D03*
Y698800D02*
D03*
Y711500D02*
D03*
Y724200D02*
D03*
Y686100D02*
D03*
Y673400D02*
D03*
Y660700D02*
D03*
Y648000D02*
D03*
Y635300D02*
D03*
Y597200D02*
D03*
Y609900D02*
D03*
Y622600D02*
D03*
Y584500D02*
D03*
Y571800D02*
D03*
Y559100D02*
D03*
Y546400D02*
D03*
Y533700D02*
D03*
X712500Y775000D02*
D03*
Y762300D02*
D03*
Y749600D02*
D03*
Y736900D02*
D03*
Y698800D02*
D03*
Y711500D02*
D03*
Y724200D02*
D03*
Y686100D02*
D03*
Y673400D02*
D03*
Y660700D02*
D03*
Y648000D02*
D03*
Y635300D02*
D03*
Y597200D02*
D03*
Y609900D02*
D03*
Y622600D02*
D03*
Y584500D02*
D03*
Y571800D02*
D03*
Y559100D02*
D03*
Y546400D02*
D03*
Y533700D02*
D03*
M02*
