G04*
G04 #@! TF.GenerationSoftware,Altium Limited,Altium Designer,23.6.0 (18)*
G04*
G04 Layer_Color=8421504*
%FSLAX44Y44*%
%MOMM*%
G71*
G04*
G04 #@! TF.SameCoordinates,1B3FBE08-8921-405D-8673-E2F24B904F06*
G04*
G04*
G04 #@! TF.FilePolarity,Positive*
G04*
G01*
G75*
%ADD17C,0.2000*%
%ADD18R,1.1000X1.0000*%
%ADD19R,1.0000X1.1000*%
G04:AMPARAMS|DCode=20|XSize=1.47mm|YSize=0.28mm|CornerRadius=0.035mm|HoleSize=0mm|Usage=FLASHONLY|Rotation=0.000|XOffset=0mm|YOffset=0mm|HoleType=Round|Shape=RoundedRectangle|*
%AMROUNDEDRECTD20*
21,1,1.4700,0.2100,0,0,0.0*
21,1,1.4000,0.2800,0,0,0.0*
1,1,0.0700,0.7000,-0.1050*
1,1,0.0700,-0.7000,-0.1050*
1,1,0.0700,-0.7000,0.1050*
1,1,0.0700,0.7000,0.1050*
%
%ADD20ROUNDEDRECTD20*%
G04:AMPARAMS|DCode=21|XSize=1.47mm|YSize=0.28mm|CornerRadius=0.035mm|HoleSize=0mm|Usage=FLASHONLY|Rotation=90.000|XOffset=0mm|YOffset=0mm|HoleType=Round|Shape=RoundedRectangle|*
%AMROUNDEDRECTD21*
21,1,1.4700,0.2100,0,0,90.0*
21,1,1.4000,0.2800,0,0,90.0*
1,1,0.0700,0.1050,0.7000*
1,1,0.0700,0.1050,-0.7000*
1,1,0.0700,-0.1050,-0.7000*
1,1,0.0700,-0.1050,0.7000*
%
%ADD21ROUNDEDRECTD21*%
%ADD22R,1.1000X1.1000*%
%ADD23R,0.4750X0.2500*%
%ADD24R,0.2500X0.4750*%
%ADD25R,0.3500X0.5900*%
%ADD26R,0.5900X0.3500*%
G04:AMPARAMS|DCode=27|XSize=0.38mm|YSize=0.35mm|CornerRadius=0.0158mm|HoleSize=0mm|Usage=FLASHONLY|Rotation=0.000|XOffset=0mm|YOffset=0mm|HoleType=Round|Shape=RoundedRectangle|*
%AMROUNDEDRECTD27*
21,1,0.3800,0.3185,0,0,0.0*
21,1,0.3485,0.3500,0,0,0.0*
1,1,0.0315,0.1743,-0.1593*
1,1,0.0315,-0.1743,-0.1593*
1,1,0.0315,-0.1743,0.1593*
1,1,0.0315,0.1743,0.1593*
%
%ADD27ROUNDEDRECTD27*%
%ADD28R,0.3000X0.5000*%
%ADD29R,0.5000X0.3000*%
%ADD30R,0.4000X0.3000*%
%ADD31R,0.3000X0.4000*%
%ADD32O,1.6000X0.6000*%
%ADD33R,1.9812X0.5334*%
%ADD34R,2.0000X0.4500*%
D17*
X574240Y740920D02*
D03*
X568580Y746580D02*
D03*
X562920D02*
D03*
Y740920D02*
D03*
Y735260D02*
D03*
X568580D02*
D03*
X565750Y743750D02*
D03*
Y738090D02*
D03*
X574240Y746580D02*
D03*
Y735260D02*
D03*
X571410Y743750D02*
D03*
Y738090D02*
D03*
D18*
X680750Y662750D02*
D03*
X663750D02*
D03*
X489500Y646750D02*
D03*
X472500D02*
D03*
X489750Y628500D02*
D03*
X472750D02*
D03*
X526250Y744000D02*
D03*
X543250D02*
D03*
X449500Y657750D02*
D03*
X432500D02*
D03*
X410250Y628500D02*
D03*
X393250D02*
D03*
X410250Y647000D02*
D03*
X393250D02*
D03*
X681500Y676000D02*
D03*
X664500D02*
D03*
X673000Y264250D02*
D03*
X656000D02*
D03*
X672750Y283000D02*
D03*
X655750D02*
D03*
X567500Y282250D02*
D03*
X584500D02*
D03*
X567500Y264000D02*
D03*
X584500D02*
D03*
X584500Y300750D02*
D03*
X567500D02*
D03*
X458750Y760500D02*
D03*
X475750D02*
D03*
X401753Y739500D02*
D03*
X418753D02*
D03*
X401750Y720750D02*
D03*
X418750D02*
D03*
X401750Y758250D02*
D03*
X418750D02*
D03*
X566750Y703500D02*
D03*
X583750D02*
D03*
X520000Y680500D02*
D03*
X503000D02*
D03*
X520000Y698750D02*
D03*
X503000D02*
D03*
X566250Y666500D02*
D03*
X583250D02*
D03*
X566500Y685000D02*
D03*
X583500D02*
D03*
X611000Y644500D02*
D03*
X594000D02*
D03*
X638500Y621000D02*
D03*
X621500D02*
D03*
X524500Y606750D02*
D03*
X541500D02*
D03*
X526250Y587500D02*
D03*
X543250D02*
D03*
X590750Y587250D02*
D03*
X607750D02*
D03*
X485000Y336750D02*
D03*
X468000D02*
D03*
X645750Y337500D02*
D03*
X662750D02*
D03*
X585500Y336250D02*
D03*
X568500D02*
D03*
X549250D02*
D03*
X532250D02*
D03*
D19*
X591000Y764500D02*
D03*
Y747500D02*
D03*
X424000Y510000D02*
D03*
Y527000D02*
D03*
X464250Y723500D02*
D03*
Y740500D02*
D03*
X427000Y592750D02*
D03*
Y609750D02*
D03*
X460000Y592000D02*
D03*
Y609000D02*
D03*
X424000Y393000D02*
D03*
Y376000D02*
D03*
X682000Y436250D02*
D03*
Y419250D02*
D03*
X681000Y496750D02*
D03*
Y479750D02*
D03*
X680250Y569000D02*
D03*
Y552000D02*
D03*
X424000Y451000D02*
D03*
Y468000D02*
D03*
X424250Y430750D02*
D03*
Y413750D02*
D03*
X494000Y272500D02*
D03*
Y289500D02*
D03*
X474500Y272500D02*
D03*
Y289500D02*
D03*
X514000Y289000D02*
D03*
Y272000D02*
D03*
D20*
X663200Y549500D02*
D03*
Y544500D02*
D03*
Y539500D02*
D03*
Y534500D02*
D03*
Y529500D02*
D03*
Y524500D02*
D03*
Y519500D02*
D03*
Y514500D02*
D03*
Y509500D02*
D03*
Y504500D02*
D03*
Y499500D02*
D03*
Y494500D02*
D03*
Y489500D02*
D03*
Y484500D02*
D03*
Y479500D02*
D03*
Y474500D02*
D03*
Y469500D02*
D03*
Y464500D02*
D03*
Y459500D02*
D03*
Y454500D02*
D03*
Y449500D02*
D03*
Y444500D02*
D03*
Y439500D02*
D03*
Y434500D02*
D03*
Y429500D02*
D03*
Y424500D02*
D03*
Y419500D02*
D03*
Y414500D02*
D03*
Y409500D02*
D03*
Y404500D02*
D03*
Y399500D02*
D03*
Y394500D02*
D03*
Y389500D02*
D03*
Y384500D02*
D03*
Y379500D02*
D03*
Y374500D02*
D03*
X449800D02*
D03*
Y379500D02*
D03*
Y384500D02*
D03*
Y389500D02*
D03*
Y394500D02*
D03*
Y399500D02*
D03*
Y404500D02*
D03*
Y409500D02*
D03*
Y414500D02*
D03*
Y419500D02*
D03*
Y424500D02*
D03*
Y429500D02*
D03*
Y434500D02*
D03*
Y439500D02*
D03*
Y444500D02*
D03*
Y449500D02*
D03*
Y454500D02*
D03*
Y459500D02*
D03*
Y464500D02*
D03*
Y469500D02*
D03*
Y474500D02*
D03*
Y479500D02*
D03*
Y484500D02*
D03*
Y489500D02*
D03*
Y494500D02*
D03*
Y499500D02*
D03*
Y504500D02*
D03*
Y509500D02*
D03*
Y514500D02*
D03*
Y519500D02*
D03*
Y524500D02*
D03*
Y529500D02*
D03*
Y534500D02*
D03*
Y539500D02*
D03*
Y544500D02*
D03*
Y549500D02*
D03*
D21*
X469000Y568700D02*
D03*
X474000D02*
D03*
X479000D02*
D03*
X484000D02*
D03*
X489000D02*
D03*
X494000D02*
D03*
X499000D02*
D03*
X504000D02*
D03*
X509000D02*
D03*
X514000D02*
D03*
X519000D02*
D03*
X524000D02*
D03*
X529000D02*
D03*
X534000D02*
D03*
X539000D02*
D03*
X544000D02*
D03*
X549000D02*
D03*
X554000D02*
D03*
X559000D02*
D03*
X564000D02*
D03*
X569000D02*
D03*
X574000D02*
D03*
X579000D02*
D03*
X584000D02*
D03*
X589000D02*
D03*
X594000D02*
D03*
X599000D02*
D03*
X604000D02*
D03*
X609000D02*
D03*
X614000D02*
D03*
X619000D02*
D03*
X624000D02*
D03*
X629000D02*
D03*
X634000D02*
D03*
X639000D02*
D03*
X644000D02*
D03*
Y355300D02*
D03*
X639000D02*
D03*
X634000D02*
D03*
X629000D02*
D03*
X624000D02*
D03*
X619000D02*
D03*
X614000D02*
D03*
X609000D02*
D03*
X604000D02*
D03*
X599000D02*
D03*
X594000D02*
D03*
X589000D02*
D03*
X584000D02*
D03*
X579000D02*
D03*
X574000D02*
D03*
X569000D02*
D03*
X564000D02*
D03*
X559000D02*
D03*
X554000D02*
D03*
X549000D02*
D03*
X544000D02*
D03*
X539000D02*
D03*
X534000D02*
D03*
X529000D02*
D03*
X524000D02*
D03*
X519000D02*
D03*
X514000D02*
D03*
X509000D02*
D03*
X504000D02*
D03*
X499000D02*
D03*
X494000D02*
D03*
X489000D02*
D03*
X484000D02*
D03*
X479000D02*
D03*
X474000D02*
D03*
X469000D02*
D03*
D22*
X388000Y589750D02*
D03*
X388000Y567750D02*
D03*
X388500Y500750D02*
D03*
X388500Y478750D02*
D03*
X388250Y545250D02*
D03*
X388250Y523250D02*
D03*
X388500Y456000D02*
D03*
X388500Y434000D02*
D03*
D23*
X432125Y636500D02*
D03*
Y631500D02*
D03*
Y626500D02*
D03*
Y641500D02*
D03*
X455375Y636500D02*
D03*
Y631500D02*
D03*
Y626500D02*
D03*
Y641500D02*
D03*
D24*
X443750Y643125D02*
D03*
X438750D02*
D03*
X448750D02*
D03*
X443750Y624875D02*
D03*
X438750D02*
D03*
X448750D02*
D03*
D25*
X624400Y265850D02*
D03*
Y304150D02*
D03*
D26*
X612750Y270000D02*
D03*
Y275000D02*
D03*
Y280000D02*
D03*
Y285000D02*
D03*
Y290000D02*
D03*
Y295000D02*
D03*
Y300000D02*
D03*
X636050D02*
D03*
Y295000D02*
D03*
Y290000D02*
D03*
Y285000D02*
D03*
Y280000D02*
D03*
Y275000D02*
D03*
Y270000D02*
D03*
D27*
X449153Y744500D02*
D03*
Y739500D02*
D03*
Y734500D02*
D03*
X444003Y731850D02*
D03*
X439003D02*
D03*
X433853Y734500D02*
D03*
Y739500D02*
D03*
Y744500D02*
D03*
X439003Y747150D02*
D03*
X444003D02*
D03*
D28*
X550000Y674000D02*
D03*
X545000D02*
D03*
X540000D02*
D03*
X535000D02*
D03*
X550000Y697000D02*
D03*
X545000D02*
D03*
X540000D02*
D03*
X535000D02*
D03*
D29*
X551500Y680500D02*
D03*
Y685500D02*
D03*
Y690500D02*
D03*
X533500Y680500D02*
D03*
Y685500D02*
D03*
Y690500D02*
D03*
D30*
X624000Y653750D02*
D03*
Y648750D02*
D03*
Y643750D02*
D03*
Y638750D02*
D03*
X648500D02*
D03*
Y643750D02*
D03*
Y648750D02*
D03*
Y653750D02*
D03*
D31*
X643750Y658500D02*
D03*
X638750D02*
D03*
X633750D02*
D03*
X628750D02*
D03*
Y634000D02*
D03*
X633750D02*
D03*
X638750D02*
D03*
X643750D02*
D03*
D32*
X609250Y767050D02*
D03*
Y754350D02*
D03*
Y741650D02*
D03*
Y728950D02*
D03*
X681250D02*
D03*
Y741650D02*
D03*
Y754350D02*
D03*
Y767050D02*
D03*
D33*
X401612Y307800D02*
D03*
Y295100D02*
D03*
Y282400D02*
D03*
Y269700D02*
D03*
X450888D02*
D03*
Y282400D02*
D03*
Y295100D02*
D03*
Y307800D02*
D03*
D34*
X365500Y775000D02*
D03*
Y762300D02*
D03*
Y749600D02*
D03*
Y736900D02*
D03*
Y698800D02*
D03*
Y711500D02*
D03*
Y724200D02*
D03*
Y686100D02*
D03*
Y673400D02*
D03*
Y660700D02*
D03*
Y648000D02*
D03*
Y635300D02*
D03*
Y597200D02*
D03*
Y609900D02*
D03*
Y622600D02*
D03*
Y584500D02*
D03*
Y571800D02*
D03*
Y559100D02*
D03*
Y546400D02*
D03*
Y533700D02*
D03*
X326500Y775000D02*
D03*
Y762300D02*
D03*
Y749600D02*
D03*
Y736900D02*
D03*
Y698800D02*
D03*
Y711500D02*
D03*
Y724200D02*
D03*
Y686100D02*
D03*
Y673400D02*
D03*
Y660700D02*
D03*
Y648000D02*
D03*
Y635300D02*
D03*
Y597200D02*
D03*
Y609900D02*
D03*
Y622600D02*
D03*
Y584500D02*
D03*
Y571800D02*
D03*
Y559100D02*
D03*
Y546400D02*
D03*
Y533700D02*
D03*
X746500Y775000D02*
D03*
Y762300D02*
D03*
Y749600D02*
D03*
Y736900D02*
D03*
Y698800D02*
D03*
Y711500D02*
D03*
Y724200D02*
D03*
Y686100D02*
D03*
Y673400D02*
D03*
Y660700D02*
D03*
Y648000D02*
D03*
Y635300D02*
D03*
Y597200D02*
D03*
Y609900D02*
D03*
Y622600D02*
D03*
Y584500D02*
D03*
Y571800D02*
D03*
Y559100D02*
D03*
Y546400D02*
D03*
Y533700D02*
D03*
X707500Y775000D02*
D03*
Y762300D02*
D03*
Y749600D02*
D03*
Y736900D02*
D03*
Y698800D02*
D03*
Y711500D02*
D03*
Y724200D02*
D03*
Y686100D02*
D03*
Y673400D02*
D03*
Y660700D02*
D03*
Y648000D02*
D03*
Y635300D02*
D03*
Y597200D02*
D03*
Y609900D02*
D03*
Y622600D02*
D03*
Y584500D02*
D03*
Y571800D02*
D03*
Y559100D02*
D03*
Y546400D02*
D03*
Y533700D02*
D03*
X365500Y506400D02*
D03*
Y493700D02*
D03*
Y481000D02*
D03*
Y468300D02*
D03*
Y430200D02*
D03*
Y442900D02*
D03*
Y455600D02*
D03*
Y417500D02*
D03*
Y404800D02*
D03*
Y392100D02*
D03*
Y379400D02*
D03*
Y366700D02*
D03*
Y328600D02*
D03*
Y341300D02*
D03*
Y354000D02*
D03*
Y315900D02*
D03*
Y303200D02*
D03*
Y290500D02*
D03*
Y277800D02*
D03*
Y265100D02*
D03*
X326500Y506400D02*
D03*
Y493700D02*
D03*
Y481000D02*
D03*
Y468300D02*
D03*
Y430200D02*
D03*
Y442900D02*
D03*
Y455600D02*
D03*
Y417500D02*
D03*
Y404800D02*
D03*
Y392100D02*
D03*
Y379400D02*
D03*
Y366700D02*
D03*
Y328600D02*
D03*
Y341300D02*
D03*
Y354000D02*
D03*
Y315900D02*
D03*
Y303200D02*
D03*
Y290500D02*
D03*
Y277800D02*
D03*
Y265100D02*
D03*
X746500Y506400D02*
D03*
Y493700D02*
D03*
Y481000D02*
D03*
Y468300D02*
D03*
Y430200D02*
D03*
Y442900D02*
D03*
Y455600D02*
D03*
Y417500D02*
D03*
Y404800D02*
D03*
Y392100D02*
D03*
Y379400D02*
D03*
Y366700D02*
D03*
Y328600D02*
D03*
Y341300D02*
D03*
Y354000D02*
D03*
Y315900D02*
D03*
Y303200D02*
D03*
Y290500D02*
D03*
Y277800D02*
D03*
Y265100D02*
D03*
X707500Y506400D02*
D03*
Y493700D02*
D03*
Y481000D02*
D03*
Y468300D02*
D03*
Y430200D02*
D03*
Y442900D02*
D03*
Y455600D02*
D03*
Y417500D02*
D03*
Y404800D02*
D03*
Y392100D02*
D03*
Y379400D02*
D03*
Y366700D02*
D03*
Y328600D02*
D03*
Y341300D02*
D03*
Y354000D02*
D03*
Y315900D02*
D03*
Y303200D02*
D03*
Y290500D02*
D03*
Y277800D02*
D03*
Y265100D02*
D03*
M02*
