G04*
G04 #@! TF.GenerationSoftware,Altium Limited,Altium Designer,23.6.0 (18)*
G04*
G04 Layer_Physical_Order=2*
G04 Layer_Color=36540*
%FSLAX44Y44*%
%MOMM*%
G71*
G04*
G04 #@! TF.SameCoordinates,1B3FBE08-8921-405D-8673-E2F24B904F06*
G04*
G04*
G04 #@! TF.FilePolarity,Positive*
G04*
G01*
G75*
%ADD10C,0.1500*%
%ADD58C,0.3000*%
%ADD62C,0.6000*%
%ADD63C,0.7000*%
G36*
X760409Y251850D02*
X311409D01*
Y780436D01*
X312409Y780850D01*
X360051D01*
X360252Y779663D01*
X358598Y778978D01*
X357332Y777712D01*
X356647Y776059D01*
Y774268D01*
X357332Y772614D01*
X358598Y771348D01*
X360252Y770663D01*
X362042D01*
X363696Y771348D01*
X364962Y772614D01*
X365647Y774268D01*
Y776059D01*
X364962Y777712D01*
X363696Y778978D01*
X362042Y779663D01*
X362242Y780850D01*
X724936D01*
X725463Y779580D01*
X724876Y778163D01*
Y776372D01*
X725561Y774718D01*
X726827Y773453D01*
X728481Y772767D01*
X730271D01*
X730778Y772978D01*
X742533Y761223D01*
Y531971D01*
X741263Y531122D01*
X740472Y531450D01*
X738682D01*
X737028Y530765D01*
X735762Y529499D01*
X735077Y527845D01*
Y526055D01*
X734810Y525564D01*
X734247Y525428D01*
X733201Y526232D01*
Y531662D01*
X739872Y538333D01*
X740369Y539077D01*
X740544Y539955D01*
Y698500D01*
X740369Y699378D01*
X739872Y700122D01*
X739872Y700122D01*
X731875Y708119D01*
X731876Y708122D01*
Y709913D01*
X731191Y711567D01*
X729925Y712832D01*
X728271Y713518D01*
X726481D01*
X724827Y712832D01*
X723561Y711567D01*
X722876Y709913D01*
Y708122D01*
X723561Y706469D01*
X724827Y705203D01*
X726481Y704518D01*
X728271D01*
X728778Y704727D01*
X735956Y697550D01*
Y540905D01*
X729285Y534235D01*
X728788Y533490D01*
X728613Y532613D01*
Y523825D01*
X728415Y523627D01*
X727482D01*
X726691Y523299D01*
X725421Y524148D01*
Y541419D01*
X726691Y541945D01*
X727451Y541185D01*
X729105Y540500D01*
X730895D01*
X732549Y541185D01*
X733815Y542451D01*
X734500Y544105D01*
Y545895D01*
X733815Y547549D01*
X732549Y548815D01*
X730895Y549500D01*
X729105D01*
X727451Y548815D01*
X726691Y548055D01*
X725421Y548581D01*
Y571191D01*
X729872Y575643D01*
X730369Y576387D01*
X730544Y577265D01*
X730544Y577265D01*
Y612775D01*
X730369Y613652D01*
X729872Y614397D01*
X729692Y614577D01*
X730046Y616019D01*
X731049Y616435D01*
X732315Y617701D01*
X733000Y619355D01*
Y621145D01*
X732315Y622799D01*
X731049Y624065D01*
X729395Y624750D01*
X727605D01*
X726564Y624319D01*
X725294Y625067D01*
Y637049D01*
X728498Y640254D01*
X728996Y640998D01*
X729170Y641876D01*
Y659347D01*
X729425Y659453D01*
X730691Y660719D01*
X731376Y662372D01*
Y664163D01*
X730691Y665817D01*
X729425Y667082D01*
X727771Y667767D01*
X725981D01*
X724327Y667082D01*
X723061Y665817D01*
X722376Y664163D01*
Y662372D01*
X723061Y660719D01*
X724327Y659453D01*
X724582Y659347D01*
Y642826D01*
X721378Y639622D01*
X720881Y638877D01*
X720706Y637999D01*
Y618025D01*
X720881Y617147D01*
X721378Y616403D01*
X722107Y615673D01*
X721666Y614318D01*
X720451Y613815D01*
X719185Y612549D01*
X718500Y610895D01*
Y609105D01*
X719185Y607451D01*
X720451Y606185D01*
X720706Y606079D01*
Y577208D01*
X718505Y575006D01*
X718007Y574262D01*
X717833Y573384D01*
Y494444D01*
X718007Y493566D01*
X718505Y492822D01*
X720609Y490717D01*
X720123Y489544D01*
X688225D01*
X688225Y489544D01*
X687347Y489369D01*
X686603Y488872D01*
X680950Y483219D01*
X648328D01*
X648222Y483475D01*
X646991Y484706D01*
X646996Y484761D01*
X648368Y486133D01*
X648623Y486027D01*
X650414D01*
X652067Y486712D01*
X653333Y487978D01*
X654018Y489632D01*
Y491423D01*
X653333Y493076D01*
X652067Y494342D01*
X650414Y495027D01*
X648623D01*
X646969Y494342D01*
X645704Y493076D01*
X645018Y491423D01*
Y489632D01*
X644165Y488677D01*
X642441D01*
X642440Y488677D01*
X641563Y488503D01*
X640818Y488005D01*
X640818Y488005D01*
X637553Y484740D01*
X636283Y485266D01*
Y489185D01*
X637553Y490034D01*
X638343Y489706D01*
X640134D01*
X641788Y490391D01*
X643053Y491657D01*
X643738Y493311D01*
Y495101D01*
X643053Y496755D01*
X641788Y498021D01*
X640134Y498706D01*
X638343D01*
X637659Y498423D01*
X636544Y499325D01*
Y502124D01*
X641460Y507040D01*
X642958Y506742D01*
X643285Y505951D01*
X644551Y504685D01*
X646205Y504000D01*
X647995D01*
X649649Y504685D01*
X650915Y505951D01*
X651600Y507605D01*
Y509395D01*
X650915Y511049D01*
X649649Y512315D01*
X647995Y513000D01*
X646205D01*
X646201Y513002D01*
Y517654D01*
X647471Y518503D01*
X648262Y518175D01*
X650052D01*
X651706Y518861D01*
X652972Y520126D01*
X653657Y521780D01*
Y523571D01*
X652972Y525224D01*
X651706Y526490D01*
X650052Y527175D01*
X648262D01*
X647471Y526848D01*
X646201Y527696D01*
Y579156D01*
X710898Y643852D01*
X711153Y643747D01*
X712943D01*
X714597Y644432D01*
X715863Y645697D01*
X716548Y647352D01*
Y649142D01*
X715863Y650796D01*
X714597Y652061D01*
X712943Y652747D01*
X711153D01*
X709499Y652061D01*
X708233Y650796D01*
X707548Y649142D01*
Y647352D01*
X707653Y647096D01*
X689317Y628760D01*
X688144Y629246D01*
Y704723D01*
X706407Y722986D01*
X707905Y722688D01*
X708233Y721898D01*
X709499Y720632D01*
X711153Y719947D01*
X712943D01*
X714597Y720632D01*
X715863Y721898D01*
X716548Y723551D01*
Y725342D01*
X715863Y726996D01*
X714597Y728261D01*
X713806Y728589D01*
X713508Y730087D01*
X713670Y730249D01*
X713670Y730249D01*
X714167Y730993D01*
X714342Y731871D01*
X714342Y731871D01*
Y733226D01*
X714597Y733332D01*
X715863Y734597D01*
X716548Y736252D01*
Y738042D01*
X715863Y739696D01*
X714597Y740962D01*
X712943Y741646D01*
X711153D01*
X709499Y740962D01*
X708233Y739696D01*
X707548Y738042D01*
Y736252D01*
X708233Y734597D01*
X709036Y733794D01*
X709135Y732320D01*
X709068Y732135D01*
X684228Y707296D01*
X683731Y706551D01*
X683556Y705673D01*
Y627242D01*
X676270Y619956D01*
X675000Y620482D01*
Y620995D01*
X674239Y622832D01*
X672832Y624239D01*
X670995Y625000D01*
X669005D01*
X667168Y624239D01*
X665761Y622832D01*
X665000Y620995D01*
Y619005D01*
X665761Y617168D01*
X667168Y615761D01*
X669005Y615000D01*
X669518D01*
X670044Y613730D01*
X631785Y575471D01*
X631288Y574727D01*
X631113Y573849D01*
Y527446D01*
X629843Y526598D01*
X629052Y526925D01*
X627262D01*
X626471Y526598D01*
X625201Y527446D01*
Y601654D01*
X646527Y622979D01*
X650023D01*
X650901Y623154D01*
X651645Y623651D01*
X670850Y642856D01*
X671105Y642750D01*
X672895D01*
X674549Y643435D01*
X675815Y644701D01*
X676500Y646355D01*
Y648145D01*
X675815Y649799D01*
X674549Y651065D01*
X672895Y651750D01*
X671105D01*
X669451Y651065D01*
X668185Y649799D01*
X667500Y648145D01*
Y646355D01*
X667606Y646100D01*
X649073Y627567D01*
X645576D01*
X644699Y627393D01*
X643954Y626895D01*
X621414Y604355D01*
X620879Y604432D01*
X620144Y604804D01*
Y663571D01*
X619969Y664449D01*
X619472Y665193D01*
X612894Y671771D01*
Y676619D01*
X614164Y677468D01*
X614955Y677140D01*
X616745D01*
X618399Y677825D01*
X619665Y679091D01*
X620339Y680719D01*
X621849Y680094D01*
X623639D01*
X625293Y680779D01*
X626559Y682045D01*
X626880Y682821D01*
X628378Y683119D01*
X631727Y679770D01*
X631201Y678500D01*
X630347D01*
X628693Y677815D01*
X627427Y676549D01*
X626742Y674895D01*
Y673105D01*
X627427Y671451D01*
X628693Y670185D01*
X630347Y669500D01*
X632137D01*
X633791Y670185D01*
X635057Y671451D01*
X635742Y673105D01*
Y673959D01*
X637012Y674485D01*
X656764Y654733D01*
Y651835D01*
X655761Y650832D01*
X655000Y648995D01*
Y647005D01*
X655761Y645168D01*
X657168Y643761D01*
X659005Y643000D01*
X660995D01*
X662832Y643761D01*
X664239Y645168D01*
X665000Y647005D01*
Y648995D01*
X664239Y650832D01*
X662882Y652189D01*
Y656000D01*
X662649Y657170D01*
X661986Y658163D01*
X620986Y699163D01*
X619994Y699826D01*
X618823Y700059D01*
X618823Y700059D01*
X604664D01*
X603873Y701329D01*
X604350Y702481D01*
Y704470D01*
X603589Y706308D01*
X602182Y707714D01*
X600345Y708475D01*
X598355D01*
X596518Y707714D01*
X595111Y706308D01*
X594350Y704470D01*
Y703284D01*
X594094Y702389D01*
X593177Y702059D01*
X578132D01*
X503270Y776920D01*
X502278Y777583D01*
X501107Y777816D01*
X501107Y777816D01*
X498622D01*
X498622Y777816D01*
X497452Y777583D01*
X496459Y776920D01*
X496459Y776920D01*
X491687Y772148D01*
X491024Y771156D01*
X490791Y769985D01*
X490791Y769985D01*
Y761108D01*
X489521Y760259D01*
X488902Y760516D01*
X486913D01*
X485075Y759755D01*
X483669Y758348D01*
X482908Y756510D01*
Y754521D01*
X483669Y752683D01*
X485075Y751277D01*
X485614Y751054D01*
Y749192D01*
X485788Y748315D01*
X486286Y747570D01*
X502956Y730900D01*
X502850Y730645D01*
Y728855D01*
X503535Y727201D01*
X504801Y725935D01*
X505056Y725829D01*
Y662098D01*
X503883Y661612D01*
X500872Y664622D01*
X469144Y696350D01*
X469250Y696605D01*
Y698395D01*
X468565Y700049D01*
X467299Y701315D01*
X465645Y702000D01*
X463855D01*
X462201Y701315D01*
X460935Y700049D01*
X460250Y698395D01*
Y696605D01*
X460935Y694951D01*
X462201Y693685D01*
X463855Y693000D01*
X465645D01*
X465900Y693106D01*
X492538Y666467D01*
X492052Y665294D01*
X482450D01*
X472394Y675350D01*
X472500Y675605D01*
Y677395D01*
X471815Y679049D01*
X470549Y680315D01*
X468895Y681000D01*
X467105D01*
X465451Y680315D01*
X464185Y679049D01*
X463500Y677395D01*
Y675605D01*
X464185Y673951D01*
X465451Y672685D01*
X467105Y672000D01*
X468895D01*
X469150Y672106D01*
X479878Y661378D01*
X480622Y660881D01*
X481500Y660706D01*
X498300D01*
X504956Y654050D01*
Y618544D01*
X481360D01*
X479047Y620857D01*
X478302Y621355D01*
X477425Y621529D01*
X473075D01*
X472197Y621355D01*
X471453Y620857D01*
X469140Y618544D01*
X364411D01*
X363885Y619814D01*
X364239Y620168D01*
X365000Y622005D01*
Y623995D01*
X364332Y625606D01*
X364299Y626015D01*
X364683Y627184D01*
X364972Y627378D01*
X399580Y661986D01*
X400850Y661460D01*
Y660605D01*
X401535Y658951D01*
X402801Y657685D01*
X404455Y657000D01*
X406245D01*
X407899Y657685D01*
X409165Y658951D01*
X409850Y660605D01*
Y662395D01*
X409165Y664049D01*
X407899Y665315D01*
X407644Y665421D01*
Y671000D01*
X407644Y671000D01*
X407469Y671878D01*
X406972Y672622D01*
X398244Y681350D01*
X398350Y681605D01*
Y683395D01*
X397665Y685049D01*
X396399Y686315D01*
X394745Y687000D01*
X392955D01*
X391301Y686315D01*
X390035Y685049D01*
X389350Y683395D01*
Y681605D01*
X390035Y679951D01*
X391301Y678685D01*
X392955Y678000D01*
X394745D01*
X395000Y678106D01*
X402106Y671000D01*
X365270Y634164D01*
X364000Y634690D01*
Y635995D01*
X363239Y637832D01*
X361832Y639239D01*
X359995Y640000D01*
X358005D01*
X356168Y639239D01*
X354761Y637832D01*
X354000Y635995D01*
Y634005D01*
X354597Y632564D01*
X353975Y631294D01*
X326025D01*
X325403Y632564D01*
X326000Y634005D01*
Y635995D01*
X325239Y637832D01*
X323832Y639239D01*
X321995Y640000D01*
X320005D01*
X318168Y639239D01*
X316761Y637832D01*
X316000Y635995D01*
Y634005D01*
X316597Y632564D01*
X315975Y631294D01*
X315879D01*
X315001Y631119D01*
X314256Y630622D01*
X313378Y629743D01*
X312881Y628999D01*
X312706Y628121D01*
Y604379D01*
X312881Y603501D01*
X313378Y602757D01*
X314256Y601878D01*
X315001Y601381D01*
X315879Y601206D01*
X316784D01*
X317270Y600033D01*
X317233Y599996D01*
X316548Y598342D01*
Y596552D01*
X317233Y594897D01*
X318499Y593632D01*
X320153Y592947D01*
X321943D01*
X323597Y593632D01*
X324863Y594897D01*
X325548Y596552D01*
Y598342D01*
X324863Y599996D01*
X324826Y600033D01*
X325312Y601206D01*
X355476D01*
X355961Y600033D01*
X355761Y599832D01*
X355000Y597995D01*
Y596005D01*
X355761Y594168D01*
X357168Y592761D01*
X359005Y592000D01*
X360995D01*
X362832Y592761D01*
X364239Y594168D01*
X365000Y596005D01*
Y597995D01*
X364239Y599832D01*
X364038Y600033D01*
X364524Y601206D01*
X400283D01*
X400585Y600540D01*
X400672Y599936D01*
X399535Y598799D01*
X398850Y597145D01*
Y595355D01*
X399535Y593701D01*
X400801Y592435D01*
X401056Y592329D01*
Y577157D01*
X401157Y576652D01*
X401194Y576221D01*
X400488Y575105D01*
X399608Y574740D01*
X398342Y573475D01*
X397657Y571820D01*
Y570030D01*
X398342Y568376D01*
X399608Y567110D01*
X401262Y566426D01*
X403052D01*
X404706Y567110D01*
X405972Y568376D01*
X406300Y569167D01*
X407798Y569465D01*
X413456Y563807D01*
Y547550D01*
X413325Y547354D01*
X413151Y546477D01*
Y405434D01*
X413325Y404556D01*
X413823Y403812D01*
X415006Y402628D01*
X415751Y402131D01*
X416629Y401956D01*
X431938D01*
X432537Y400686D01*
X432000Y399390D01*
Y397600D01*
X432685Y395946D01*
X433951Y394680D01*
X435605Y393995D01*
X437395D01*
X439049Y394680D01*
X440315Y395946D01*
X440643Y396737D01*
X442141Y397035D01*
X458547Y380628D01*
X459291Y380131D01*
X460169Y379956D01*
X469724D01*
X470037Y378966D01*
X470054Y378686D01*
X468842Y377475D01*
X468157Y375821D01*
Y374030D01*
X468842Y372376D01*
X470108Y371110D01*
X471762Y370425D01*
X473552D01*
X475206Y371110D01*
X476472Y372376D01*
X477157Y374030D01*
Y375821D01*
X476472Y377475D01*
X475206Y378740D01*
X473552Y379425D01*
X473533D01*
X473136Y380407D01*
X473114Y380695D01*
X478483Y386064D01*
X478980Y386808D01*
X479155Y387686D01*
Y395678D01*
X484507Y401031D01*
X484762Y400925D01*
X486552D01*
X488206Y401610D01*
X489472Y402876D01*
X490157Y404530D01*
Y406320D01*
X489472Y407975D01*
X488206Y409240D01*
X486552Y409925D01*
X484762D01*
X483108Y409240D01*
X481842Y407975D01*
X481157Y406320D01*
Y404530D01*
X481263Y404275D01*
X475238Y398251D01*
X474741Y397506D01*
X474566Y396629D01*
Y389743D01*
X473296Y389490D01*
X473065Y390049D01*
X471799Y391315D01*
X470145Y392000D01*
X468355D01*
X466701Y391315D01*
X465435Y390049D01*
X465330Y389794D01*
X464004D01*
X463941Y389934D01*
X464299Y391435D01*
X465565Y392701D01*
X466250Y394355D01*
Y396145D01*
X465565Y397799D01*
X464299Y399065D01*
X462645Y399750D01*
X460855D01*
X460120Y399445D01*
X458850Y400294D01*
Y505494D01*
X459718Y505829D01*
X460120Y505867D01*
X461301Y504685D01*
X462955Y504000D01*
X464745D01*
X466399Y504685D01*
X466449Y504735D01*
X467719Y504209D01*
Y502905D01*
X466449Y502056D01*
X465658Y502384D01*
X463868D01*
X462214Y501698D01*
X460948Y500433D01*
X460263Y498779D01*
Y496988D01*
X460948Y495335D01*
X462214Y494069D01*
X463868Y493384D01*
X465658D01*
X465770Y493430D01*
X467045Y492648D01*
X467128Y491807D01*
X466631Y491063D01*
X466456Y490185D01*
Y481575D01*
X466631Y480698D01*
X467128Y479953D01*
X473703Y473378D01*
X474448Y472881D01*
X475325Y472706D01*
X486237D01*
X486342Y472451D01*
X487608Y471185D01*
X489262Y470500D01*
X491052D01*
X491843Y470828D01*
X493113Y469979D01*
Y461425D01*
X487728Y456040D01*
X487234Y455301D01*
X487228Y455292D01*
X485820Y454617D01*
X484895Y455000D01*
X483105D01*
X481451Y454315D01*
X480185Y453049D01*
X479500Y451395D01*
Y449605D01*
X480185Y447951D01*
X481451Y446685D01*
X483105Y446000D01*
X484895D01*
X485786Y446369D01*
X487056Y445533D01*
Y439556D01*
X487038Y439548D01*
X485772Y438282D01*
X485087Y436628D01*
Y434838D01*
X485772Y433184D01*
X487038Y431918D01*
X488691Y431233D01*
X490482D01*
X492136Y431918D01*
X493401Y433184D01*
X494087Y434838D01*
Y436628D01*
X493401Y438282D01*
X492136Y439548D01*
X491644Y439752D01*
Y453467D01*
X496686Y458509D01*
X497956Y458023D01*
Y314350D01*
X498131Y313472D01*
X498628Y312728D01*
X541206Y270150D01*
X541100Y269895D01*
Y268105D01*
X541785Y266451D01*
X543051Y265185D01*
X544705Y264500D01*
X546495D01*
X548149Y265185D01*
X549415Y266451D01*
X550100Y268105D01*
Y269895D01*
X549415Y271549D01*
X548149Y272815D01*
X546495Y273500D01*
X544705D01*
X544450Y273394D01*
X502544Y315300D01*
Y443296D01*
X503814Y443822D01*
X504701Y442935D01*
X506355Y442250D01*
X508145D01*
X509799Y442935D01*
X511065Y444201D01*
X511750Y445855D01*
Y447645D01*
X511065Y449299D01*
X509799Y450565D01*
X508145Y451250D01*
X506355D01*
X504701Y450565D01*
X503814Y449678D01*
X502544Y450204D01*
Y455840D01*
X503814Y456350D01*
X505262Y455750D01*
X507052D01*
X508706Y456435D01*
X509972Y457701D01*
X510657Y459355D01*
Y461145D01*
X509972Y462799D01*
X508706Y464065D01*
X507052Y464750D01*
X505262D01*
X503814Y464150D01*
X502544Y464660D01*
Y471729D01*
X503814Y472578D01*
X504605Y472250D01*
X506395D01*
X508049Y472935D01*
X509315Y474201D01*
X510000Y475855D01*
Y477645D01*
X509315Y479299D01*
X508049Y480565D01*
X506395Y481250D01*
X504605D01*
X503814Y480922D01*
X502544Y481771D01*
Y533125D01*
X509305Y539887D01*
X510556Y539341D01*
Y533921D01*
X510301Y533815D01*
X509035Y532549D01*
X508350Y530895D01*
Y529105D01*
X509035Y527451D01*
X510301Y526185D01*
X511955Y525500D01*
X513745D01*
X515399Y526185D01*
X516665Y527451D01*
X517350Y529105D01*
Y530895D01*
X516665Y532549D01*
X515399Y533815D01*
X515144Y533921D01*
Y538900D01*
X515619Y539611D01*
X515794Y540489D01*
Y547259D01*
X515869Y547372D01*
X515882Y547436D01*
X517203Y547567D01*
X517592Y546626D01*
X518858Y545360D01*
X520512Y544675D01*
X522302D01*
X522557Y544781D01*
X528175Y539163D01*
Y363020D01*
X528350Y362142D01*
X528847Y361398D01*
X571220Y319025D01*
X571220Y319025D01*
X571553Y318803D01*
X576206Y314150D01*
X576100Y313895D01*
Y312105D01*
X576785Y310451D01*
X578051Y309185D01*
X579705Y308500D01*
X581495D01*
X583068Y309151D01*
X584311Y309468D01*
X585577Y308203D01*
X587231Y307518D01*
X589021D01*
X590675Y308203D01*
X591941Y309468D01*
X592263Y310245D01*
X593761Y310543D01*
X610661Y293643D01*
Y284281D01*
X610661Y284280D01*
X610894Y283110D01*
X611557Y282118D01*
X633000Y260674D01*
Y259005D01*
X633761Y257168D01*
X635168Y255761D01*
X637005Y255000D01*
X638995D01*
X640832Y255761D01*
X642239Y257168D01*
X643000Y259005D01*
Y260995D01*
X642239Y262832D01*
X640832Y264239D01*
X638995Y265000D01*
X637326D01*
X630045Y272281D01*
X630372Y273750D01*
X631313Y274139D01*
X632579Y275405D01*
X633264Y277059D01*
Y278849D01*
X632579Y280503D01*
X631313Y281769D01*
X629659Y282454D01*
X627869D01*
X626215Y281769D01*
X624949Y280503D01*
X624560Y279562D01*
X623091Y279235D01*
X616778Y285548D01*
Y294909D01*
X616778Y294909D01*
X616545Y296080D01*
X615882Y297072D01*
X615882Y297073D01*
X598462Y314493D01*
X599088Y315663D01*
X600750Y315332D01*
X603091Y315798D01*
X605076Y317124D01*
X606402Y319109D01*
X606867Y321450D01*
Y332450D01*
X606402Y334791D01*
X605076Y336776D01*
X603091Y338102D01*
X600750Y338568D01*
X598409Y338102D01*
X596424Y336776D01*
X595098Y334791D01*
X594632Y332450D01*
Y330285D01*
X593362Y329566D01*
X592271Y330018D01*
X590481D01*
X588827Y329332D01*
X587561Y328067D01*
X587240Y327290D01*
X585742Y326992D01*
X581059Y331675D01*
Y358000D01*
X581059Y358000D01*
X580826Y359171D01*
X580163Y360163D01*
X580163Y360163D01*
X554309Y386017D01*
Y457908D01*
X555579Y458434D01*
X577447Y436566D01*
X577149Y435068D01*
X576358Y434740D01*
X575092Y433475D01*
X574407Y431820D01*
Y430030D01*
X575092Y428376D01*
X576358Y427110D01*
X578012Y426425D01*
X579802D01*
X581456Y427110D01*
X582722Y428376D01*
X583050Y429167D01*
X584548Y429465D01*
X592613Y421400D01*
Y391846D01*
X592358Y391740D01*
X591092Y390475D01*
X590407Y388820D01*
Y387030D01*
X591092Y385376D01*
X592358Y384110D01*
X594012Y383425D01*
X595802D01*
X597456Y384110D01*
X598722Y385376D01*
X599407Y387030D01*
Y388268D01*
X600232Y389122D01*
X600581Y389250D01*
X602145D01*
X603799Y389935D01*
X605065Y391201D01*
X605750Y392855D01*
Y394645D01*
X605065Y396299D01*
X603799Y397565D01*
X602145Y398250D01*
X600355D01*
X598701Y397565D01*
X598471Y397335D01*
X597201Y397861D01*
Y422350D01*
X597201Y422350D01*
X597027Y423228D01*
X596530Y423972D01*
X596529Y423972D01*
X558294Y462208D01*
Y487456D01*
X560896D01*
X561422Y486186D01*
X561285Y486049D01*
X560600Y484395D01*
Y482605D01*
X561285Y480951D01*
X562206Y480030D01*
Y467425D01*
X562381Y466548D01*
X562878Y465803D01*
X583803Y444878D01*
X584548Y444381D01*
X585425Y444206D01*
X585425Y444206D01*
X632952D01*
X633801Y442936D01*
X633473Y442145D01*
Y440355D01*
X634159Y438701D01*
X635424Y437435D01*
X637078Y436750D01*
X638576D01*
X638618Y436687D01*
Y434897D01*
X639303Y433243D01*
X640569Y431977D01*
X642223Y431292D01*
X644013D01*
X645667Y431977D01*
X646933Y433243D01*
X647174Y433826D01*
X648791Y434531D01*
X649035Y434430D01*
X650825D01*
X652479Y435115D01*
X653745Y436381D01*
X654430Y438035D01*
Y439825D01*
X653745Y441479D01*
X652479Y442745D01*
X651308Y443230D01*
X651078Y444603D01*
X651115Y444628D01*
X651339Y444852D01*
X651482Y444881D01*
X652226Y445378D01*
X653979Y447131D01*
X704091D01*
X704617Y445861D01*
X693378Y434622D01*
X692881Y433878D01*
X692706Y433000D01*
Y422950D01*
X623978Y354222D01*
X623480Y353478D01*
X623306Y352600D01*
Y295581D01*
X622691Y295326D01*
X621425Y294060D01*
X620740Y292406D01*
Y290616D01*
X621425Y288962D01*
X622691Y287696D01*
X624345Y287011D01*
X626135D01*
X627789Y287696D01*
X629055Y288962D01*
X629740Y290616D01*
Y292406D01*
X629055Y294060D01*
X627894Y295220D01*
Y351650D01*
X696622Y420378D01*
X696622Y420378D01*
X697119Y421122D01*
X697294Y422000D01*
X697294Y422000D01*
Y432050D01*
X707827Y442582D01*
X709000Y442096D01*
Y442005D01*
X709761Y440168D01*
X711168Y438761D01*
X713005Y438000D01*
X714995D01*
X716436Y438597D01*
X717706Y437976D01*
Y435950D01*
X716128Y434372D01*
X714832Y434239D01*
X712995Y435000D01*
X711005D01*
X709168Y434239D01*
X707761Y432832D01*
X707000Y430995D01*
Y429005D01*
X707717Y427275D01*
X707761Y427168D01*
X707628Y425872D01*
X643228Y361472D01*
X642731Y360728D01*
X642556Y359850D01*
Y308920D01*
X642301Y308815D01*
X641035Y307549D01*
X640350Y305895D01*
Y304105D01*
X641035Y302451D01*
X642301Y301185D01*
X643955Y300500D01*
X645745D01*
X647399Y301185D01*
X648665Y302451D01*
X649350Y304105D01*
Y305895D01*
X648665Y307549D01*
X647399Y308815D01*
X647144Y308920D01*
Y358900D01*
X656783Y368538D01*
X657956Y368052D01*
Y355117D01*
X657701Y355011D01*
X656435Y353745D01*
X655750Y352091D01*
Y350301D01*
X656435Y348647D01*
X657701Y347381D01*
X659355Y346696D01*
X661145D01*
X662799Y347381D01*
X664065Y348647D01*
X664750Y350301D01*
Y352091D01*
X664065Y353745D01*
X662799Y355011D01*
X662544Y355117D01*
Y370057D01*
X702943Y410456D01*
X709716D01*
X710242Y409186D01*
X708079Y407022D01*
X707581Y406278D01*
X707407Y405400D01*
Y398783D01*
X704628Y396004D01*
X704363Y395607D01*
X678878Y370122D01*
X678381Y369378D01*
X678206Y368500D01*
Y324318D01*
X676936Y324065D01*
X676715Y324599D01*
X675449Y325865D01*
X673795Y326550D01*
X672005D01*
X670351Y325865D01*
X669085Y324599D01*
X668400Y322945D01*
Y321155D01*
X669085Y319501D01*
X670351Y318235D01*
X672005Y317550D01*
X672610D01*
X673136Y316280D01*
X658928Y302072D01*
X657895Y302500D01*
X656105D01*
X654451Y301815D01*
X653185Y300549D01*
X652500Y298895D01*
Y297105D01*
X653185Y295451D01*
X654451Y294185D01*
X656105Y293500D01*
X657895D01*
X659549Y294185D01*
X660815Y295451D01*
X661500Y297105D01*
Y298156D01*
X681233Y317889D01*
X682497Y317764D01*
X682924Y317124D01*
X684909Y315798D01*
X687250Y315332D01*
X689591Y315798D01*
X691576Y317124D01*
X692902Y319109D01*
X693367Y321450D01*
Y332450D01*
X692902Y334791D01*
X691576Y336776D01*
X689591Y338102D01*
X687250Y338568D01*
X684909Y338102D01*
X684064Y337537D01*
X682794Y338216D01*
Y367550D01*
X705827Y390582D01*
X707306Y390266D01*
X707761Y389168D01*
X709168Y387761D01*
X711005Y387000D01*
X712995D01*
X714832Y387761D01*
X716239Y389168D01*
X717000Y391005D01*
Y392995D01*
X716239Y394832D01*
X714832Y396239D01*
X712995Y397000D01*
X712781Y398023D01*
X714004Y398747D01*
X714056Y398725D01*
X715846D01*
X716666Y397690D01*
Y397080D01*
X717351Y395426D01*
X718617Y394160D01*
X720271Y393475D01*
X722061D01*
X723715Y394160D01*
X724981Y395426D01*
X725666Y397080D01*
Y398871D01*
X725560Y399126D01*
X737768Y411333D01*
X738941Y410847D01*
Y325195D01*
X738941Y325194D01*
X739174Y324024D01*
X739837Y323032D01*
X746548Y316321D01*
Y315252D01*
X747233Y313598D01*
X748499Y312332D01*
X750153Y311647D01*
X751943D01*
X753597Y312332D01*
X754863Y313598D01*
X755548Y315252D01*
Y317042D01*
X754863Y318696D01*
X753597Y319961D01*
X751943Y320647D01*
X750874D01*
X748700Y322820D01*
X749420Y323896D01*
X749731Y323768D01*
X751521D01*
X753175Y324453D01*
X754441Y325718D01*
X755126Y327372D01*
Y329163D01*
X754441Y330817D01*
X753175Y332082D01*
X751521Y332767D01*
X749731D01*
X748077Y332082D01*
X746811Y330817D01*
X746329Y329651D01*
X745059Y329904D01*
Y389959D01*
X746329Y390212D01*
X746761Y389168D01*
X748168Y387761D01*
X750005Y387000D01*
X751995D01*
X753832Y387761D01*
X755239Y389168D01*
X756000Y391005D01*
Y392995D01*
X755239Y394832D01*
X753832Y396239D01*
X751995Y397000D01*
X750005D01*
X748168Y396239D01*
X746761Y394832D01*
X746329Y393788D01*
X745059Y394041D01*
Y402959D01*
X746329Y403212D01*
X746761Y402168D01*
X748168Y400761D01*
X750005Y400000D01*
X751995D01*
X753832Y400761D01*
X755239Y402168D01*
X756000Y404005D01*
Y405995D01*
X755239Y407832D01*
X753832Y409239D01*
X751995Y410000D01*
X750005D01*
X748168Y409239D01*
X746761Y407832D01*
X746329Y406788D01*
X745059Y407041D01*
Y465959D01*
X746329Y466212D01*
X746761Y465168D01*
X748168Y463761D01*
X750005Y463000D01*
X751995D01*
X753832Y463761D01*
X755239Y465168D01*
X756000Y467005D01*
Y468995D01*
X755239Y470832D01*
X753832Y472239D01*
X751995Y473000D01*
X750005D01*
X748168Y472239D01*
X746761Y470832D01*
X746329Y469788D01*
X745059Y470041D01*
Y478959D01*
X746329Y479212D01*
X746761Y478168D01*
X748168Y476761D01*
X750005Y476000D01*
X751995D01*
X753832Y476761D01*
X755239Y478168D01*
X756000Y480005D01*
Y481995D01*
X755239Y483832D01*
X753832Y485239D01*
X751995Y486000D01*
X750005D01*
X748168Y485239D01*
X746761Y483832D01*
X746000Y481995D01*
X744818Y481307D01*
X744730Y481309D01*
X744163Y482158D01*
X739145Y487176D01*
Y488245D01*
X738460Y489899D01*
X737194Y491165D01*
X735540Y491850D01*
X735105D01*
X734280Y493120D01*
X734657Y494030D01*
Y495821D01*
X734552Y496076D01*
X746449Y507973D01*
X746947Y508717D01*
X747121Y509595D01*
Y516963D01*
X748391Y517216D01*
X748842Y516126D01*
X750108Y514860D01*
X751762Y514175D01*
X753552D01*
X755206Y514860D01*
X756472Y516126D01*
X757157Y517780D01*
Y519571D01*
X756472Y521225D01*
X755206Y522490D01*
X753552Y523175D01*
X751762D01*
X750108Y522490D01*
X748842Y521225D01*
X748391Y520135D01*
X747121Y520388D01*
Y555012D01*
X748391Y555538D01*
X749168Y554761D01*
X751005Y554000D01*
X752995D01*
X754832Y554761D01*
X756239Y556168D01*
X757000Y558005D01*
Y559995D01*
X756239Y561832D01*
X754832Y563239D01*
X752995Y564000D01*
X751005D01*
X749168Y563239D01*
X748391Y562462D01*
X747121Y562988D01*
Y568012D01*
X748391Y568538D01*
X749168Y567761D01*
X751005Y567000D01*
X752995D01*
X754832Y567761D01*
X756239Y569168D01*
X757000Y571005D01*
Y572995D01*
X756239Y574832D01*
X754832Y576239D01*
X752995Y577000D01*
X751005D01*
X749168Y576239D01*
X748391Y575462D01*
X747121Y575988D01*
Y581012D01*
X748391Y581538D01*
X749168Y580761D01*
X751005Y580000D01*
X752995D01*
X754832Y580761D01*
X756239Y582168D01*
X757000Y584005D01*
Y585995D01*
X756239Y587832D01*
X754832Y589239D01*
X752995Y590000D01*
X751005D01*
X749168Y589239D01*
X748391Y588462D01*
X747121Y588988D01*
Y593213D01*
X748391Y593739D01*
X748499Y593632D01*
X750153Y592947D01*
X751943D01*
X753597Y593632D01*
X754863Y594897D01*
X755548Y596552D01*
Y598342D01*
X754863Y599996D01*
X753597Y601261D01*
X751943Y601946D01*
X750153D01*
X748499Y601261D01*
X748391Y601154D01*
X747121Y601680D01*
Y605913D01*
X748391Y606439D01*
X748499Y606332D01*
X750153Y605647D01*
X751943D01*
X753597Y606332D01*
X754863Y607598D01*
X755548Y609252D01*
Y611042D01*
X754863Y612696D01*
X753597Y613961D01*
X751943Y614646D01*
X750153D01*
X748499Y613961D01*
X748391Y613854D01*
X747121Y614380D01*
Y618613D01*
X748391Y619139D01*
X748499Y619032D01*
X750153Y618347D01*
X751943D01*
X753597Y619032D01*
X754863Y620298D01*
X755548Y621951D01*
Y623742D01*
X754863Y625396D01*
X753597Y626661D01*
X751943Y627346D01*
X750153D01*
X748499Y626661D01*
X748391Y626554D01*
X747121Y627080D01*
Y631313D01*
X748391Y631839D01*
X748499Y631732D01*
X750153Y631047D01*
X751943D01*
X753597Y631732D01*
X754863Y632998D01*
X755548Y634651D01*
Y636442D01*
X754863Y638096D01*
X753597Y639361D01*
X751943Y640046D01*
X750153D01*
X748499Y639361D01*
X748391Y639254D01*
X747121Y639780D01*
Y645808D01*
X748391Y646061D01*
X748761Y645168D01*
X750168Y643761D01*
X752005Y643000D01*
X753995D01*
X755832Y643761D01*
X757239Y645168D01*
X758000Y647005D01*
Y648995D01*
X757239Y650832D01*
X755832Y652239D01*
X753995Y653000D01*
X752005D01*
X750168Y652239D01*
X748761Y650832D01*
X748391Y649939D01*
X747121Y650192D01*
Y656713D01*
X748391Y657239D01*
X748499Y657132D01*
X750153Y656447D01*
X751943D01*
X753597Y657132D01*
X754863Y658398D01*
X755548Y660051D01*
Y661842D01*
X754863Y663496D01*
X753597Y664762D01*
X751943Y665446D01*
X750153D01*
X748499Y664762D01*
X748391Y664654D01*
X747121Y665180D01*
Y670808D01*
X748391Y671061D01*
X748761Y670168D01*
X750168Y668761D01*
X752005Y668000D01*
X753995D01*
X755832Y668761D01*
X757239Y670168D01*
X758000Y672005D01*
Y673995D01*
X757239Y675832D01*
X755832Y677239D01*
X753995Y678000D01*
X752005D01*
X750168Y677239D01*
X748761Y675832D01*
X748391Y674939D01*
X747121Y675192D01*
Y683808D01*
X748391Y684061D01*
X748761Y683168D01*
X750168Y681761D01*
X752005Y681000D01*
X753995D01*
X755832Y681761D01*
X757239Y683168D01*
X758000Y685005D01*
Y686995D01*
X757239Y688832D01*
X755832Y690239D01*
X753995Y691000D01*
X752005D01*
X750168Y690239D01*
X748761Y688832D01*
X748391Y687939D01*
X747121Y688192D01*
Y696808D01*
X748391Y697061D01*
X748761Y696168D01*
X750168Y694761D01*
X752005Y694000D01*
X753995D01*
X755832Y694761D01*
X757239Y696168D01*
X758000Y698005D01*
Y699995D01*
X757239Y701832D01*
X755832Y703239D01*
X753995Y704000D01*
X752005D01*
X750168Y703239D01*
X748761Y701832D01*
X748391Y700939D01*
X747121Y701192D01*
Y708808D01*
X748391Y709061D01*
X748761Y708168D01*
X750168Y706761D01*
X752005Y706000D01*
X753995D01*
X755832Y706761D01*
X757239Y708168D01*
X758000Y710005D01*
Y711995D01*
X757239Y713832D01*
X755832Y715239D01*
X753995Y716000D01*
X752005D01*
X750168Y715239D01*
X748761Y713832D01*
X748391Y712939D01*
X747121Y713192D01*
Y720012D01*
X748391Y720538D01*
X749168Y719761D01*
X751005Y719000D01*
X752995D01*
X754832Y719761D01*
X756239Y721168D01*
X757000Y723005D01*
Y724995D01*
X756239Y726832D01*
X754832Y728239D01*
X752995Y729000D01*
X751005D01*
X749168Y728239D01*
X748391Y727462D01*
X747121Y727988D01*
Y732148D01*
X748391Y732669D01*
X750005Y732000D01*
X751995D01*
X753832Y732761D01*
X755239Y734168D01*
X756000Y736005D01*
Y737995D01*
X755239Y739832D01*
X753832Y741239D01*
X751995Y742000D01*
X750005D01*
X748391Y741331D01*
X747121Y741852D01*
Y762173D01*
X746947Y763051D01*
X746449Y763795D01*
X733875Y776369D01*
X733876Y776372D01*
Y778163D01*
X733289Y779580D01*
X733817Y780850D01*
X760409D01*
Y251850D01*
D02*
G37*
G36*
X574702Y696837D02*
X574702Y696837D01*
X575694Y696174D01*
X576865Y695941D01*
X576865Y695941D01*
X592733D01*
X597155Y691519D01*
X596436Y690443D01*
X596115Y690575D01*
X594325D01*
X592671Y689890D01*
X591405Y688624D01*
X590720Y686971D01*
Y685180D01*
X589816Y684044D01*
X569526D01*
X539960Y713609D01*
X540258Y715107D01*
X541049Y715435D01*
X542315Y716701D01*
X543000Y718355D01*
Y720145D01*
X542315Y721799D01*
X541049Y723065D01*
X539395Y723750D01*
X537605D01*
X536814Y723422D01*
X535544Y724271D01*
Y734100D01*
X535519Y734223D01*
X536690Y734849D01*
X574702Y696837D01*
D02*
G37*
G36*
X596806Y666479D02*
Y664950D01*
X562478Y630622D01*
X561981Y629878D01*
X561806Y629000D01*
Y622900D01*
X561981Y622022D01*
X562478Y621278D01*
X564491Y619265D01*
X552629Y607403D01*
X552395Y607500D01*
X550605D01*
X548951Y606815D01*
X547685Y605549D01*
X547000Y603895D01*
Y602105D01*
X547097Y601871D01*
X526518Y581292D01*
X526314Y580987D01*
X525044Y581372D01*
Y599450D01*
X592700Y667106D01*
X592955Y667000D01*
X594745D01*
X595536Y667328D01*
X596806Y666479D01*
D02*
G37*
G36*
X615556Y656375D02*
Y588855D01*
X607662Y580960D01*
X607164Y580216D01*
X606990Y579338D01*
Y526481D01*
X606335Y525682D01*
X606262D01*
X604608Y524997D01*
X603342Y523731D01*
X602657Y522077D01*
Y520287D01*
X603342Y518633D01*
X604608Y517368D01*
X606262Y516682D01*
X608052D01*
X608843Y517010D01*
X610113Y516161D01*
Y507238D01*
X609631Y506515D01*
X609456Y505638D01*
Y488575D01*
X609631Y487697D01*
X610128Y486953D01*
X625975Y471106D01*
Y468646D01*
X626150Y467768D01*
X626647Y467024D01*
X636151Y457520D01*
X635625Y456250D01*
X635217D01*
X633563Y455565D01*
X632297Y454299D01*
X631612Y452645D01*
Y450855D01*
X631940Y450064D01*
X631091Y448794D01*
X586376D01*
X566794Y468376D01*
Y479331D01*
X567649Y479685D01*
X568915Y480951D01*
X569600Y482605D01*
Y484395D01*
X569841Y484756D01*
X576250D01*
X579856Y481150D01*
X579750Y480895D01*
Y479105D01*
X580435Y477451D01*
X581701Y476185D01*
X583355Y475500D01*
X585145D01*
X586799Y476185D01*
X588065Y477451D01*
X588750Y479105D01*
Y480895D01*
X588065Y482549D01*
X586799Y483815D01*
X585145Y484500D01*
X583355D01*
X583100Y484394D01*
X578823Y488672D01*
X578078Y489169D01*
X577200Y489344D01*
X576171D01*
X575322Y490614D01*
X575650Y491404D01*
Y493195D01*
X575117Y494480D01*
X575596Y495485D01*
X575859Y495750D01*
X575995D01*
X577649Y496435D01*
X578915Y497701D01*
X579600Y499355D01*
Y501145D01*
X578915Y502799D01*
X577649Y504065D01*
X575995Y504750D01*
X574205D01*
X572551Y504065D01*
X571285Y502799D01*
X570600Y501145D01*
Y499355D01*
X571132Y498070D01*
X570653Y497065D01*
X570390Y496800D01*
X570255D01*
X568601Y496115D01*
X567335Y494849D01*
X566650Y493195D01*
Y492601D01*
X565485Y491886D01*
X565380Y491885D01*
X564580Y492044D01*
X556879D01*
X556001Y491869D01*
X555257Y491372D01*
X555079Y491194D01*
X553809Y491721D01*
Y493483D01*
X568161Y507835D01*
X585894D01*
X585894Y507835D01*
X587064Y508068D01*
X588057Y508731D01*
X599950Y520625D01*
X599951Y520625D01*
X600614Y521617D01*
X600846Y522788D01*
Y582485D01*
X612738Y594377D01*
X613401Y595369D01*
X613634Y596540D01*
X613634Y596540D01*
Y626424D01*
X613634Y626424D01*
X613401Y627595D01*
X612738Y628587D01*
X612738Y628587D01*
X609659Y631667D01*
Y656369D01*
X610929Y657218D01*
X611705Y656896D01*
X613495D01*
X614286Y657224D01*
X615556Y656375D01*
D02*
G37*
G36*
X498955Y763000D02*
X500745D01*
X501000Y763106D01*
X530956Y733150D01*
Y717075D01*
X531131Y716198D01*
X531628Y715453D01*
X566953Y680128D01*
X567697Y679631D01*
X568575Y679456D01*
X590074D01*
X592390Y677141D01*
X592092Y675642D01*
X591301Y675315D01*
X590035Y674049D01*
X589350Y672395D01*
Y670605D01*
X589456Y670350D01*
X522425Y603319D01*
X509644Y616100D01*
Y655000D01*
Y725829D01*
X509899Y725935D01*
X511165Y727201D01*
X511850Y728855D01*
Y730645D01*
X511165Y732299D01*
X509899Y733565D01*
X508245Y734250D01*
X506455D01*
X506200Y734144D01*
X490464Y749881D01*
X490635Y751233D01*
X490740Y751277D01*
X492146Y752683D01*
X492453Y753425D01*
X493952Y753723D01*
X515191Y732483D01*
Y673947D01*
X514311Y673067D01*
X513626Y671413D01*
Y669622D01*
X514311Y667969D01*
X515191Y667089D01*
Y656805D01*
X514435Y656049D01*
X513750Y654395D01*
Y652605D01*
X514435Y650951D01*
X515701Y649685D01*
X517355Y649000D01*
X519145D01*
X520799Y649685D01*
X522065Y650951D01*
X522750Y652605D01*
Y654395D01*
X522065Y656049D01*
X521309Y656805D01*
Y667336D01*
X521941Y667969D01*
X522626Y669622D01*
Y671413D01*
X521941Y673067D01*
X521309Y673699D01*
Y733750D01*
X521076Y734921D01*
X520413Y735913D01*
X496909Y759417D01*
Y762473D01*
X498179Y763322D01*
X498955Y763000D01*
D02*
G37*
G36*
X355597Y625436D02*
X355000Y623995D01*
Y622005D01*
X355761Y620168D01*
X356115Y619814D01*
X355589Y618544D01*
X328498D01*
X325442Y621600D01*
X325548Y621855D01*
Y623645D01*
X324863Y625299D01*
X324726Y625436D01*
X325252Y626706D01*
X354976D01*
X355597Y625436D01*
D02*
G37*
G36*
X318499Y618935D02*
X320153Y618250D01*
X321943D01*
X322198Y618356D01*
X325926Y614628D01*
X326670Y614131D01*
X327548Y613956D01*
X355225D01*
X355701Y612686D01*
X355000Y610995D01*
Y609005D01*
X355761Y607168D01*
X355961Y606967D01*
X355476Y605794D01*
X328645D01*
X325442Y608997D01*
X325548Y609252D01*
Y611042D01*
X324863Y612696D01*
X323597Y613961D01*
X321943Y614646D01*
X320153D01*
X318499Y613961D01*
X318467Y613930D01*
X317294Y614416D01*
Y618480D01*
X318467Y618966D01*
X318499Y618935D01*
D02*
G37*
G36*
X505728Y613528D02*
X520456Y598800D01*
Y585454D01*
X519186Y584928D01*
X518799Y585315D01*
X517145Y586000D01*
X515355D01*
X513701Y585315D01*
X512435Y584049D01*
X511750Y582395D01*
Y580605D01*
X512435Y578951D01*
X513701Y577685D01*
X515355Y577000D01*
X517145D01*
X518799Y577685D01*
X519186Y578072D01*
X520456Y577546D01*
Y561021D01*
X519186Y560172D01*
X518395Y560500D01*
X516605D01*
X516350Y560394D01*
X471622Y605122D01*
X470878Y605619D01*
X470000Y605794D01*
X364524D01*
X364039Y606967D01*
X364239Y607168D01*
X365000Y609005D01*
Y610995D01*
X364299Y612686D01*
X364775Y613956D01*
X470090D01*
X470750Y613414D01*
Y613090D01*
X471435Y611436D01*
X472701Y610170D01*
X474355Y609485D01*
X476145D01*
X477799Y610170D01*
X479065Y611436D01*
X479750Y613090D01*
Y613414D01*
X480410Y613956D01*
X492950D01*
X493105Y612750D01*
X491451Y612065D01*
X490185Y610799D01*
X489500Y609145D01*
Y607355D01*
X490185Y605701D01*
X491451Y604435D01*
X493105Y603750D01*
X494895D01*
X496549Y604435D01*
X497815Y605701D01*
X498500Y607355D01*
Y609145D01*
X497815Y610799D01*
X496549Y612065D01*
X494895Y612750D01*
X495050Y613956D01*
X505442D01*
X505728Y613528D01*
D02*
G37*
G36*
X600556Y660552D02*
Y633243D01*
X556053Y588740D01*
X555556Y587996D01*
X555381Y587118D01*
Y548142D01*
X554111Y547643D01*
X552645Y548250D01*
X550855D01*
X549201Y547565D01*
X547935Y546299D01*
X547250Y544645D01*
Y542855D01*
X547935Y541201D01*
X549201Y539935D01*
X550855Y539250D01*
X552645D01*
X554111Y539857D01*
X555381Y539358D01*
Y537626D01*
X549425Y531669D01*
X542811D01*
X542705Y531924D01*
X541439Y533190D01*
X539785Y533875D01*
X537995D01*
X536341Y533190D01*
X535075Y531924D01*
X534390Y530270D01*
Y528480D01*
X535075Y526826D01*
X536341Y525560D01*
X537995Y524875D01*
X539785D01*
X541439Y525560D01*
X542705Y526826D01*
X542811Y527081D01*
X550375D01*
X551253Y527255D01*
X551997Y527753D01*
X559298Y535053D01*
X559795Y535798D01*
X559969Y536675D01*
Y551829D01*
X561240Y552678D01*
X562030Y552350D01*
X563821D01*
X565475Y553035D01*
X566740Y554301D01*
X567425Y555955D01*
Y557745D01*
X566740Y559399D01*
X565475Y560665D01*
X563821Y561350D01*
X562030D01*
X561240Y561022D01*
X559969Y561871D01*
Y582703D01*
X561240Y583229D01*
X561858Y582611D01*
X563512Y581926D01*
X565302D01*
X565320Y581914D01*
Y580339D01*
X566005Y578685D01*
X567271Y577419D01*
X568925Y576734D01*
X570715D01*
X572369Y577419D01*
X573635Y578685D01*
X574320Y580339D01*
Y582129D01*
X573635Y583783D01*
X572369Y585049D01*
X570715Y585734D01*
X568925D01*
X568907Y585746D01*
Y587321D01*
X568222Y588974D01*
X566956Y590240D01*
X566166Y590568D01*
X565868Y592066D01*
X583881Y610080D01*
X585269Y609672D01*
X585390Y609113D01*
X580285Y604008D01*
X579788Y603264D01*
X579613Y602386D01*
Y556521D01*
X578343Y555672D01*
X577552Y556000D01*
X575762D01*
X574108Y555315D01*
X572842Y554049D01*
X572157Y552395D01*
Y550605D01*
X572842Y548951D01*
X574108Y547685D01*
X575762Y547000D01*
X575960D01*
X576486Y545730D01*
X543756Y513000D01*
X542205D01*
X540551Y512315D01*
X539285Y511049D01*
X538600Y509395D01*
Y507605D01*
X539285Y505951D01*
X540551Y504685D01*
X542205Y504000D01*
X543995D01*
X545649Y504685D01*
X546915Y505951D01*
X547600Y507605D01*
Y509395D01*
X547319Y510074D01*
X583482Y546237D01*
X584608Y545111D01*
X586262Y544426D01*
X588052D01*
X589706Y545111D01*
X590972Y546376D01*
X591657Y548030D01*
Y549821D01*
X591406Y550427D01*
X592042Y552065D01*
X592270Y552159D01*
X593459Y553348D01*
X593830Y553317D01*
X594729Y552988D01*
Y524055D01*
X584627Y513953D01*
X566894D01*
X565723Y513720D01*
X564731Y513057D01*
X564731Y513057D01*
X548587Y496913D01*
X548551Y496859D01*
X547299Y496315D01*
X545645Y497000D01*
X543855D01*
X542201Y496315D01*
X540935Y495049D01*
X540250Y493395D01*
Y491605D01*
X540935Y489951D01*
X542201Y488685D01*
X543855Y488000D01*
X545645D01*
X546421Y488321D01*
X547691Y487473D01*
Y482225D01*
X546421Y481972D01*
X546207Y482490D01*
X544941Y483756D01*
X543287Y484441D01*
X541497D01*
X539843Y483756D01*
X538577Y482490D01*
X537892Y480836D01*
Y479046D01*
X538577Y477392D01*
X539843Y476126D01*
X541497Y475441D01*
X543287D01*
X544941Y476126D01*
X546207Y477392D01*
X546421Y477910D01*
X547691Y477657D01*
Y472352D01*
X547418Y472239D01*
X546011Y470832D01*
X545250Y468995D01*
Y467005D01*
X546011Y465168D01*
X547418Y463761D01*
X547637Y463670D01*
X547640Y463214D01*
X546372Y462685D01*
X545762Y463296D01*
X544108Y463981D01*
X542318D01*
X540664Y463296D01*
X539398Y462030D01*
X539250Y462001D01*
X538268Y462982D01*
X536614Y463668D01*
X534824D01*
X534033Y463340D01*
X532763Y464189D01*
Y540113D01*
X532589Y540991D01*
X532091Y541736D01*
X526221Y547606D01*
X526348Y548759D01*
X527193Y549582D01*
X528983D01*
X529761Y548530D01*
X530342Y547126D01*
X531608Y545860D01*
X533262Y545175D01*
X535052D01*
X536706Y545860D01*
X537972Y547126D01*
X538657Y548780D01*
Y550570D01*
X537972Y552225D01*
X536706Y553490D01*
X535052Y554175D01*
X533262D01*
X532484Y555228D01*
X531903Y556631D01*
X530637Y557897D01*
X530434Y557981D01*
Y578720D01*
X550328Y598614D01*
X550605Y598500D01*
X552395D01*
X554049Y599185D01*
X555315Y600451D01*
X556000Y602105D01*
Y603895D01*
X555886Y604171D01*
X569857Y618143D01*
X570354Y618887D01*
X570529Y619765D01*
X570354Y620643D01*
X569857Y621387D01*
X569716Y621481D01*
X569622Y621622D01*
X568878Y622119D01*
X568000Y622294D01*
X567950D01*
X566394Y623850D01*
Y628050D01*
X599383Y661038D01*
X600556Y660552D01*
D02*
G37*
G36*
X604196Y628598D02*
X604437Y628237D01*
X607517Y625158D01*
Y597807D01*
X595625Y585915D01*
X594962Y584922D01*
X594729Y583752D01*
X594729Y583752D01*
Y558960D01*
X593830Y558631D01*
X593459Y558599D01*
X592270Y559789D01*
X590616Y560474D01*
X588825D01*
X587171Y559789D01*
X585906Y558523D01*
X585471Y557475D01*
X584201Y557727D01*
Y594015D01*
X585471Y594541D01*
X585577Y594435D01*
X587231Y593750D01*
X589021D01*
X590227Y594249D01*
X591647Y594140D01*
X592913Y592874D01*
X594567Y592189D01*
X596357D01*
X598011Y592874D01*
X599277Y594140D01*
X599962Y595794D01*
Y597584D01*
X599277Y599238D01*
X598011Y600504D01*
X596357Y601189D01*
X594567D01*
X593361Y600690D01*
X591941Y600799D01*
X590675Y602065D01*
X589021Y602750D01*
X587311D01*
X587118Y602969D01*
X586649Y603884D01*
X589765Y607000D01*
X591145D01*
X592799Y607685D01*
X594065Y608951D01*
X594750Y610605D01*
Y612395D01*
X594065Y614049D01*
X592799Y615315D01*
X591465Y615867D01*
X590975Y617173D01*
X602653Y628851D01*
X604196Y628598D01*
D02*
G37*
G36*
X475654Y594602D02*
X475056Y593602D01*
X474960Y593500D01*
X473205D01*
X471551Y592815D01*
X470285Y591549D01*
X469600Y589895D01*
Y588105D01*
X469896Y587390D01*
X466878Y584372D01*
X466381Y583628D01*
X466206Y582750D01*
Y574572D01*
X464936Y574103D01*
X464002Y575036D01*
X462348Y575721D01*
X460558D01*
X458904Y575036D01*
X457638Y573770D01*
X456953Y572117D01*
Y570326D01*
X457638Y568672D01*
X458904Y567407D01*
X460558Y566721D01*
X462348D01*
X464002Y567407D01*
X464936Y568340D01*
X466206Y567870D01*
Y525993D01*
X466381Y525115D01*
X466878Y524371D01*
X467719Y523530D01*
Y512791D01*
X466449Y512265D01*
X466399Y512315D01*
X464745Y513000D01*
X462955D01*
X461301Y512315D01*
X460120Y511133D01*
X459718Y511171D01*
X458850Y511506D01*
Y536291D01*
X458675Y537169D01*
X458178Y537913D01*
X443144Y552947D01*
X443250Y553201D01*
Y554992D01*
X442565Y556646D01*
X441299Y557911D01*
X439645Y558596D01*
X437855D01*
X436201Y557911D01*
X434935Y556646D01*
X434250Y554992D01*
Y553201D01*
X434935Y551548D01*
X436201Y550282D01*
X437855Y549597D01*
X439645D01*
X439900Y549702D01*
X454262Y535341D01*
Y397918D01*
X454206Y397639D01*
Y393254D01*
X453783Y392935D01*
X452991Y392673D01*
X439792Y405872D01*
X439047Y406369D01*
X438169Y406544D01*
X417739D01*
Y533509D01*
X419009Y534035D01*
X419858Y533185D01*
X421512Y532500D01*
X423302D01*
X424956Y533185D01*
X425374Y533603D01*
X426334Y534302D01*
X427600Y533036D01*
X429254Y532351D01*
X431044D01*
X431270Y532444D01*
X432876Y531735D01*
X433129Y531126D01*
X434394Y529860D01*
X436048Y529175D01*
X437839D01*
X439492Y529860D01*
X440758Y531126D01*
X441443Y532780D01*
Y534570D01*
X440758Y536224D01*
X439492Y537490D01*
X437839Y538175D01*
X436048D01*
X435822Y538081D01*
X434216Y538791D01*
X433964Y539400D01*
X432698Y540666D01*
X431044Y541351D01*
X429254D01*
X427600Y540666D01*
X427183Y540248D01*
X426222Y539549D01*
X424956Y540815D01*
X424729Y542284D01*
X425195Y543407D01*
Y545197D01*
X424510Y546851D01*
X423244Y548117D01*
X421590Y548802D01*
X419799D01*
X419314Y548601D01*
X418044Y549449D01*
Y564757D01*
X417869Y565635D01*
X417372Y566380D01*
X405644Y578108D01*
Y592329D01*
X405899Y592435D01*
X407165Y593701D01*
X407850Y595355D01*
Y597145D01*
X407165Y598799D01*
X406028Y599936D01*
X406115Y600540D01*
X406417Y601206D01*
X444648D01*
X444951Y600540D01*
X445038Y599936D01*
X443901Y598799D01*
X443216Y597145D01*
Y595355D01*
X443901Y593701D01*
X445167Y592435D01*
X446821Y591750D01*
X448611D01*
X450265Y592435D01*
X451531Y593701D01*
X452216Y595355D01*
Y597145D01*
X451531Y598799D01*
X450394Y599936D01*
X450480Y600540D01*
X450783Y601206D01*
X469050D01*
X475654Y594602D01*
D02*
G37*
G36*
X513106Y557150D02*
X513000Y556895D01*
Y555105D01*
X513106Y554850D01*
X512128Y553872D01*
X511020Y553573D01*
X509714Y554114D01*
X508750Y555105D01*
Y556895D01*
X508065Y558549D01*
X506799Y559815D01*
X505145Y560500D01*
X503355D01*
X501701Y559815D01*
X500435Y558549D01*
X499750Y556895D01*
Y555105D01*
X499980Y554550D01*
X499128Y553698D01*
X498631Y552953D01*
X498456Y552076D01*
Y549026D01*
X497209Y547778D01*
X496777Y547912D01*
X496035Y548401D01*
Y549931D01*
X495350Y551585D01*
X494085Y552851D01*
X492430Y553536D01*
X490640D01*
X490475Y553468D01*
X488905Y554192D01*
X488617Y554888D01*
X487351Y556154D01*
X485697Y556839D01*
X483907D01*
X482896Y557795D01*
X482377Y559049D01*
X481111Y560315D01*
X479457Y561000D01*
X477667D01*
X476013Y560315D01*
X474747Y559049D01*
X474062Y557395D01*
Y555605D01*
X474747Y553951D01*
X476013Y552685D01*
X477667Y552000D01*
X479457D01*
X480468Y551044D01*
X480987Y549790D01*
X482253Y548524D01*
X483907Y547839D01*
X485697D01*
X485862Y547908D01*
X487432Y547183D01*
X487720Y546487D01*
X488986Y545221D01*
X490640Y544536D01*
X492170D01*
X492660Y543795D01*
X492793Y543363D01*
X473577Y524147D01*
X472737Y524367D01*
X472275Y524641D01*
X472133Y525358D01*
X471635Y526102D01*
X471635Y526102D01*
X470794Y526943D01*
Y581800D01*
X473494Y584500D01*
X474995D01*
X476649Y585185D01*
X477915Y586451D01*
X478600Y588105D01*
Y589860D01*
X478702Y589956D01*
X479702Y590554D01*
X513106Y557150D01*
D02*
G37*
G36*
X619878Y586077D02*
X620613Y585704D01*
Y528271D01*
X619343Y527422D01*
X618552Y527750D01*
X616762D01*
X615108Y527065D01*
X614424Y526381D01*
X612759Y526250D01*
X611578Y527431D01*
Y578388D01*
X619343Y586153D01*
X619878Y586077D01*
D02*
G37*
G36*
X641613Y577151D02*
Y527446D01*
X640343Y526598D01*
X639552Y526925D01*
X637762D01*
X636971Y526598D01*
X635701Y527446D01*
Y572898D01*
X640440Y577637D01*
X641613Y577151D01*
D02*
G37*
G36*
X742533Y521673D02*
Y510546D01*
X731307Y499320D01*
X731052Y499425D01*
X729262D01*
X727608Y498740D01*
X726342Y497475D01*
X725657Y495821D01*
Y494030D01*
X725712Y493899D01*
X724635Y493180D01*
X722421Y495394D01*
Y507439D01*
X723472Y508083D01*
X723691Y508102D01*
X724156Y507646D01*
Y506030D01*
X724842Y504376D01*
X726107Y503111D01*
X727761Y502425D01*
X729552D01*
X731206Y503111D01*
X732471Y504376D01*
X733157Y506030D01*
Y507821D01*
X732471Y509474D01*
X731206Y510740D01*
X729552Y511425D01*
X727761D01*
X727506Y511320D01*
X725835Y512992D01*
X725917Y514069D01*
X727070Y514797D01*
X727482Y514627D01*
X729272D01*
X730926Y515312D01*
X732192Y516578D01*
X733551Y516540D01*
X734855Y516000D01*
X736645D01*
X738299Y516685D01*
X739565Y517951D01*
X740250Y519605D01*
Y521395D01*
X741188Y522378D01*
X741479Y522450D01*
X742533Y521673D01*
D02*
G37*
G36*
X625608Y518610D02*
X626654Y518177D01*
X626749Y517988D01*
X626888Y516752D01*
X625943Y515807D01*
X625258Y514153D01*
Y512363D01*
X625943Y510709D01*
X627209Y509443D01*
X628863Y508758D01*
X630653D01*
X632307Y509443D01*
X633573Y510709D01*
X634258Y512363D01*
Y514153D01*
X634116Y514498D01*
X635029Y515411D01*
X635029Y515412D01*
X635527Y516156D01*
X635701Y517034D01*
X635701Y517034D01*
Y517405D01*
X636971Y518253D01*
X637762Y517925D01*
X639552D01*
X640343Y518253D01*
X641613Y517405D01*
Y513682D01*
X632628Y504697D01*
X632209Y504655D01*
X631549Y505315D01*
X629895Y506000D01*
X628105D01*
X626451Y505315D01*
X625185Y504049D01*
X624500Y502395D01*
Y500605D01*
X625185Y498951D01*
X626451Y497685D01*
X628105Y497000D01*
X629895D01*
X630424Y497219D01*
X631694Y496371D01*
Y472880D01*
X630424Y472755D01*
X630389Y472934D01*
X629892Y473678D01*
X618460Y485109D01*
X618758Y486608D01*
X619549Y486935D01*
X620815Y488201D01*
X621500Y489855D01*
Y491645D01*
X620815Y493299D01*
X619549Y494565D01*
X617895Y495250D01*
X616105D01*
X615314Y494922D01*
X614044Y495771D01*
Y504695D01*
X614527Y505417D01*
X614701Y506295D01*
Y506713D01*
X615909Y506863D01*
X616594Y505209D01*
X617860Y503943D01*
X619514Y503258D01*
X621304D01*
X622958Y503943D01*
X624224Y505209D01*
X624909Y506863D01*
Y508653D01*
X624224Y510307D01*
X622958Y511573D01*
X622703Y511679D01*
Y517627D01*
X624529Y519453D01*
X624744Y519474D01*
X625608Y518610D01*
D02*
G37*
G36*
X504306Y548056D02*
X504656Y547210D01*
X505922Y545944D01*
X506740Y545605D01*
X507037Y544107D01*
X498628Y535698D01*
X498131Y534953D01*
X497956Y534075D01*
Y479626D01*
X496686Y479140D01*
X490890Y484937D01*
X490645Y485100D01*
X489972Y486725D01*
X488706Y487990D01*
X487052Y488675D01*
X485262D01*
X483608Y487990D01*
X482342Y486725D01*
X481657Y485070D01*
Y483280D01*
X482342Y481626D01*
X483608Y480360D01*
X485262Y479675D01*
X486673D01*
X487289Y478534D01*
X487295Y478502D01*
X486342Y477549D01*
X486237Y477294D01*
X476326D01*
X475485Y478237D01*
X475758Y479608D01*
X476549Y479935D01*
X477815Y481201D01*
X478500Y482855D01*
Y484645D01*
X477815Y486299D01*
X476549Y487565D01*
X476294Y487671D01*
Y520375D01*
X502372Y546453D01*
X502869Y547197D01*
X503005Y547878D01*
X503489Y548068D01*
X504306Y548056D01*
D02*
G37*
G36*
X708140Y483686D02*
X707500Y482142D01*
Y480351D01*
X707828Y479561D01*
X706979Y478291D01*
X697878D01*
X697000Y478116D01*
X696256Y477619D01*
X693932Y475294D01*
X675505D01*
X673502Y477298D01*
X673406Y477361D01*
X673791Y478631D01*
X681900D01*
X682778Y478806D01*
X683522Y479303D01*
X689175Y484956D01*
X707686D01*
X708140Y483686D01*
D02*
G37*
G36*
X547415Y456767D02*
X548191Y456436D01*
Y384750D01*
X548191Y384750D01*
X548424Y383579D01*
X549087Y382587D01*
X574941Y356733D01*
Y330409D01*
X574941Y330409D01*
X575174Y329238D01*
X575837Y328246D01*
X586495Y317587D01*
X586197Y316089D01*
X585658Y315866D01*
X584415Y315549D01*
X583149Y316815D01*
X581495Y317500D01*
X579705D01*
X579450Y317394D01*
X574575Y322270D01*
X574242Y322492D01*
X532763Y363971D01*
Y454147D01*
X534033Y454995D01*
X534824Y454668D01*
X536614D01*
X538268Y455353D01*
X539534Y456618D01*
X539682Y456648D01*
X540664Y455666D01*
X542318Y454981D01*
X544108D01*
X545762Y455666D01*
X546921Y456825D01*
X547415Y456767D01*
D02*
G37*
G36*
X707361Y464650D02*
X707250Y464382D01*
Y462592D01*
X707935Y460938D01*
X708243Y460629D01*
X708095Y459883D01*
X706829Y458618D01*
X706144Y456964D01*
Y455174D01*
X706415Y454519D01*
X705592Y453696D01*
X705095Y452952D01*
X704920Y452074D01*
Y451963D01*
X704677Y451720D01*
X655295D01*
X654156Y452501D01*
X654156Y452501D01*
Y456850D01*
X653981Y457728D01*
X653484Y458472D01*
X652724Y459232D01*
X653022Y460731D01*
X653813Y461058D01*
X655079Y462324D01*
X655184Y462579D01*
X695240D01*
X696118Y462754D01*
X696862Y463251D01*
X699317Y465706D01*
X706656D01*
X707361Y464650D01*
D02*
G37*
%LPC*%
G36*
X323042Y779413D02*
X321252D01*
X319598Y778728D01*
X318332Y777462D01*
X317647Y775808D01*
Y774018D01*
X318332Y772364D01*
X319598Y771098D01*
X321252Y770413D01*
X323042D01*
X324696Y771098D01*
X325962Y772364D01*
X326647Y774018D01*
Y775808D01*
X325962Y777462D01*
X324696Y778728D01*
X323042Y779413D01*
D02*
G37*
G36*
X572445Y772245D02*
X570655D01*
X569001Y771560D01*
X567735Y770294D01*
X567051Y768640D01*
Y766850D01*
X567735Y765196D01*
X569001Y763930D01*
X570655Y763245D01*
X572445D01*
X574100Y763930D01*
X575365Y765196D01*
X576050Y766850D01*
Y768640D01*
X575365Y770294D01*
X574100Y771560D01*
X572445Y772245D01*
D02*
G37*
G36*
X322292Y766913D02*
X320502D01*
X318848Y766228D01*
X317582Y764962D01*
X316897Y763308D01*
Y761518D01*
X317582Y759864D01*
X318848Y758598D01*
X320502Y757913D01*
X322292D01*
X323946Y758598D01*
X325212Y759864D01*
X325897Y761518D01*
Y763308D01*
X325212Y764962D01*
X323946Y766228D01*
X322292Y766913D01*
D02*
G37*
G36*
X362042Y766663D02*
X360252D01*
X358598Y765978D01*
X357332Y764712D01*
X356647Y763058D01*
Y761268D01*
X357332Y759614D01*
X358598Y758348D01*
X360252Y757663D01*
X362042D01*
X363696Y758348D01*
X364962Y759614D01*
X365647Y761268D01*
Y763058D01*
X364962Y764712D01*
X363696Y765978D01*
X362042Y766663D01*
D02*
G37*
G36*
X564895Y762250D02*
X563105D01*
X561451Y761565D01*
X560185Y760299D01*
X559500Y758645D01*
Y756855D01*
X560185Y755201D01*
X561451Y753935D01*
X563105Y753250D01*
X564895D01*
X566549Y753935D01*
X567815Y755201D01*
X568500Y756855D01*
Y758645D01*
X567815Y760299D01*
X566549Y761565D01*
X564895Y762250D01*
D02*
G37*
G36*
X323042Y753913D02*
X321252D01*
X319598Y753228D01*
X318332Y751962D01*
X317647Y750309D01*
Y748518D01*
X318332Y746864D01*
X319598Y745599D01*
X321252Y744913D01*
X323042D01*
X324696Y745599D01*
X325962Y746864D01*
X326647Y748518D01*
Y750309D01*
X325962Y751962D01*
X324696Y753228D01*
X323042Y753913D01*
D02*
G37*
G36*
X361792Y753663D02*
X360002D01*
X358348Y752978D01*
X357082Y751712D01*
X356397Y750059D01*
Y748268D01*
X357082Y746614D01*
X358348Y745349D01*
X360002Y744663D01*
X361792D01*
X363446Y745349D01*
X364712Y746614D01*
X365397Y748268D01*
Y750059D01*
X364712Y751712D01*
X363446Y752978D01*
X361792Y753663D01*
D02*
G37*
G36*
X321943Y741646D02*
X320153D01*
X318499Y740962D01*
X317233Y739696D01*
X316548Y738042D01*
Y736252D01*
X317233Y734597D01*
X318499Y733332D01*
X320153Y732647D01*
X321943D01*
X323597Y733332D01*
X324863Y734597D01*
X325548Y736252D01*
Y738042D01*
X324863Y739696D01*
X323597Y740962D01*
X321943Y741646D01*
D02*
G37*
G36*
X361395Y741400D02*
X359605D01*
X357951Y740715D01*
X356685Y739449D01*
X356000Y737795D01*
Y736005D01*
X356685Y734351D01*
X357951Y733085D01*
X359605Y732400D01*
X361395D01*
X363049Y733085D01*
X364315Y734351D01*
X365000Y736005D01*
Y737795D01*
X364315Y739449D01*
X363049Y740715D01*
X361395Y741400D01*
D02*
G37*
G36*
X582157Y737922D02*
X580367D01*
X578713Y737237D01*
X577447Y735971D01*
X576762Y734317D01*
Y732527D01*
X577447Y730873D01*
X578713Y729607D01*
X580367Y728922D01*
X582157D01*
X583811Y729607D01*
X585077Y730873D01*
X585762Y732527D01*
Y734317D01*
X585077Y735971D01*
X583811Y737237D01*
X582157Y737922D01*
D02*
G37*
G36*
X360943Y728947D02*
X359153D01*
X357499Y728261D01*
X356233Y726996D01*
X355548Y725342D01*
Y723551D01*
X356233Y721898D01*
X357499Y720632D01*
X359153Y719947D01*
X360943D01*
X362597Y720632D01*
X363863Y721898D01*
X364548Y723551D01*
Y725342D01*
X363863Y726996D01*
X362597Y728261D01*
X360943Y728947D01*
D02*
G37*
G36*
X321943D02*
X320153D01*
X318499Y728261D01*
X317233Y726996D01*
X316548Y725342D01*
Y723551D01*
X317233Y721898D01*
X318499Y720632D01*
X320153Y719947D01*
X321943D01*
X323597Y720632D01*
X324863Y721898D01*
X325548Y723551D01*
Y725342D01*
X324863Y726996D01*
X323597Y728261D01*
X321943Y728947D01*
D02*
G37*
G36*
X439552Y728175D02*
X437762D01*
X436108Y727490D01*
X434842Y726225D01*
X434157Y724570D01*
Y722780D01*
X434842Y721126D01*
X436108Y719861D01*
X437762Y719175D01*
X439552D01*
X441206Y719861D01*
X442472Y721126D01*
X443157Y722780D01*
Y724570D01*
X442472Y726225D01*
X441206Y727490D01*
X439552Y728175D01*
D02*
G37*
G36*
X712943Y716246D02*
X711153D01*
X709499Y715562D01*
X708233Y714296D01*
X707548Y712642D01*
Y710852D01*
X708233Y709197D01*
X709499Y707932D01*
X711153Y707247D01*
X712943D01*
X714597Y707932D01*
X715863Y709197D01*
X716548Y710852D01*
Y712642D01*
X715863Y714296D01*
X714597Y715562D01*
X712943Y716246D01*
D02*
G37*
G36*
X322395Y716000D02*
X320605D01*
X318951Y715315D01*
X317685Y714049D01*
X317000Y712395D01*
Y710605D01*
X317685Y708951D01*
X318951Y707685D01*
X320605Y707000D01*
X322395D01*
X324049Y707685D01*
X325315Y708951D01*
X326000Y710605D01*
Y712395D01*
X325315Y714049D01*
X324049Y715315D01*
X322395Y716000D01*
D02*
G37*
G36*
X361145Y715750D02*
X359355D01*
X357701Y715065D01*
X356435Y713799D01*
X355750Y712145D01*
Y710355D01*
X356435Y708701D01*
X357701Y707435D01*
X359355Y706750D01*
X361145D01*
X362799Y707435D01*
X364065Y708701D01*
X364750Y710355D01*
Y712145D01*
X364065Y713799D01*
X362799Y715065D01*
X361145Y715750D01*
D02*
G37*
G36*
X712943Y703547D02*
X711153D01*
X709499Y702861D01*
X708233Y701596D01*
X707548Y699942D01*
Y698151D01*
X708233Y696497D01*
X709499Y695232D01*
X711153Y694547D01*
X712943D01*
X714597Y695232D01*
X715863Y696497D01*
X716548Y698151D01*
Y699942D01*
X715863Y701596D01*
X714597Y702861D01*
X712943Y703547D01*
D02*
G37*
G36*
X360995Y704000D02*
X359005D01*
X357168Y703239D01*
X355761Y701832D01*
X355000Y699995D01*
Y698005D01*
X355761Y696168D01*
X357168Y694761D01*
X359005Y694000D01*
X360995D01*
X362832Y694761D01*
X364239Y696168D01*
X365000Y698005D01*
Y699995D01*
X364239Y701832D01*
X362832Y703239D01*
X360995Y704000D01*
D02*
G37*
G36*
X321995D02*
X320005D01*
X318168Y703239D01*
X316761Y701832D01*
X316000Y699995D01*
Y698005D01*
X316761Y696168D01*
X318168Y694761D01*
X320005Y694000D01*
X321995D01*
X323832Y694761D01*
X325239Y696168D01*
X326000Y698005D01*
Y699995D01*
X325239Y701832D01*
X323832Y703239D01*
X321995Y704000D01*
D02*
G37*
G36*
X491271Y698767D02*
X489481D01*
X487827Y698082D01*
X486561Y696817D01*
X485876Y695163D01*
Y693372D01*
X486561Y691719D01*
X487827Y690453D01*
X489481Y689768D01*
X491271D01*
X492925Y690453D01*
X494191Y691719D01*
X494876Y693372D01*
Y695163D01*
X494191Y696817D01*
X492925Y698082D01*
X491271Y698767D01*
D02*
G37*
G36*
X712943Y690846D02*
X711153D01*
X709499Y690162D01*
X708233Y688896D01*
X707548Y687242D01*
Y685452D01*
X708233Y683798D01*
X709499Y682532D01*
X711153Y681847D01*
X712943D01*
X714597Y682532D01*
X715863Y683798D01*
X716548Y685452D01*
Y687242D01*
X715863Y688896D01*
X714597Y690162D01*
X712943Y690846D01*
D02*
G37*
G36*
X360995Y691000D02*
X359005D01*
X357168Y690239D01*
X355761Y688832D01*
X355000Y686995D01*
Y685005D01*
X355761Y683168D01*
X357168Y681761D01*
X359005Y681000D01*
X360995D01*
X362832Y681761D01*
X364239Y683168D01*
X365000Y685005D01*
Y686995D01*
X364239Y688832D01*
X362832Y690239D01*
X360995Y691000D01*
D02*
G37*
G36*
X321995D02*
X320005D01*
X318168Y690239D01*
X316761Y688832D01*
X316000Y686995D01*
Y685005D01*
X316761Y683168D01*
X318168Y681761D01*
X320005Y681000D01*
X321995D01*
X323832Y681761D01*
X325239Y683168D01*
X326000Y685005D01*
Y686995D01*
X325239Y688832D01*
X323832Y690239D01*
X321995Y691000D01*
D02*
G37*
G36*
X447395Y686000D02*
X445605D01*
X443951Y685315D01*
X442685Y684049D01*
X442000Y682395D01*
Y680605D01*
X442685Y678951D01*
X443951Y677685D01*
X445605Y677000D01*
X447395D01*
X449049Y677685D01*
X450315Y678951D01*
X451000Y680605D01*
Y682395D01*
X450315Y684049D01*
X449049Y685315D01*
X447395Y686000D01*
D02*
G37*
G36*
X712943Y678147D02*
X711153D01*
X709499Y677461D01*
X708233Y676196D01*
X707548Y674542D01*
Y672751D01*
X708233Y671097D01*
X709499Y669832D01*
X711153Y669147D01*
X712943D01*
X714597Y669832D01*
X715863Y671097D01*
X716548Y672751D01*
Y674542D01*
X715863Y676196D01*
X714597Y677461D01*
X712943Y678147D01*
D02*
G37*
G36*
X321943D02*
X320153D01*
X318499Y677461D01*
X317233Y676196D01*
X316548Y674542D01*
Y672751D01*
X317233Y671097D01*
X318499Y669832D01*
X320153Y669147D01*
X321943D01*
X323597Y669832D01*
X324863Y671097D01*
X325548Y672751D01*
Y674542D01*
X324863Y676196D01*
X323597Y677461D01*
X321943Y678147D01*
D02*
G37*
G36*
X361995Y678000D02*
X360005D01*
X358168Y677239D01*
X356761Y675832D01*
X356000Y673995D01*
Y672005D01*
X356761Y670168D01*
X358168Y668761D01*
X360005Y668000D01*
X361995D01*
X363832Y668761D01*
X365239Y670168D01*
X366000Y672005D01*
Y673995D01*
X365239Y675832D01*
X363832Y677239D01*
X361995Y678000D01*
D02*
G37*
G36*
X431745Y674750D02*
X429955D01*
X428301Y674065D01*
X427035Y672799D01*
X426350Y671145D01*
Y669355D01*
X427035Y667701D01*
X428301Y666435D01*
X429955Y665750D01*
X431745D01*
X433399Y666435D01*
X434665Y667701D01*
X435350Y669355D01*
Y671145D01*
X434665Y672799D01*
X433399Y674065D01*
X431745Y674750D01*
D02*
G37*
G36*
X712943Y665446D02*
X711153D01*
X709499Y664762D01*
X708233Y663496D01*
X707548Y661842D01*
Y660051D01*
X708233Y658398D01*
X709499Y657132D01*
X711153Y656447D01*
X712943D01*
X714597Y657132D01*
X715863Y658398D01*
X716548Y660051D01*
Y661842D01*
X715863Y663496D01*
X714597Y664762D01*
X712943Y665446D01*
D02*
G37*
G36*
X321943D02*
X320153D01*
X318499Y664762D01*
X317233Y663496D01*
X316548Y661842D01*
Y660051D01*
X317233Y658398D01*
X318499Y657132D01*
X320153Y656447D01*
X321943D01*
X323597Y657132D01*
X324863Y658398D01*
X325548Y660051D01*
Y661842D01*
X324863Y663496D01*
X323597Y664762D01*
X321943Y665446D01*
D02*
G37*
G36*
X361995Y666000D02*
X360005D01*
X358168Y665239D01*
X356761Y663832D01*
X356000Y661995D01*
Y660005D01*
X356761Y658168D01*
X358168Y656761D01*
X360005Y656000D01*
X361995D01*
X363832Y656761D01*
X365239Y658168D01*
X366000Y660005D01*
Y661995D01*
X365239Y663832D01*
X363832Y665239D01*
X361995Y666000D01*
D02*
G37*
G36*
X469995Y663500D02*
X468205D01*
X466551Y662815D01*
X465285Y661549D01*
X464600Y659895D01*
Y658105D01*
X465285Y656451D01*
X466551Y655185D01*
X468205Y654500D01*
X469995D01*
X471649Y655185D01*
X472915Y656451D01*
X473600Y658105D01*
Y659895D01*
X472915Y661549D01*
X471649Y662815D01*
X469995Y663500D01*
D02*
G37*
G36*
X420521Y663268D02*
X418731D01*
X417077Y662582D01*
X415811Y661317D01*
X415126Y659663D01*
Y657872D01*
X415811Y656218D01*
X417077Y654953D01*
X418731Y654268D01*
X420521D01*
X422175Y654953D01*
X423441Y656218D01*
X424126Y657872D01*
Y659663D01*
X423441Y661317D01*
X422175Y662582D01*
X420521Y663268D01*
D02*
G37*
G36*
X463090Y654555D02*
X461300D01*
X459646Y653870D01*
X458380Y652604D01*
X457695Y650950D01*
Y649160D01*
X458380Y647506D01*
X459646Y646240D01*
X461300Y645555D01*
X463090D01*
X464744Y646240D01*
X466010Y647506D01*
X466695Y649160D01*
Y650950D01*
X466010Y652604D01*
X464744Y653870D01*
X463090Y654555D01*
D02*
G37*
G36*
X361995Y653000D02*
X360005D01*
X358168Y652239D01*
X356761Y650832D01*
X356000Y648995D01*
Y647005D01*
X356761Y645168D01*
X358168Y643761D01*
X360005Y643000D01*
X361995D01*
X363832Y643761D01*
X365239Y645168D01*
X366000Y647005D01*
Y648995D01*
X365239Y650832D01*
X363832Y652239D01*
X361995Y653000D01*
D02*
G37*
G36*
X321995D02*
X320005D01*
X318168Y652239D01*
X316761Y650832D01*
X316000Y648995D01*
Y647005D01*
X316761Y645168D01*
X318168Y643761D01*
X320005Y643000D01*
X321995D01*
X323832Y643761D01*
X325239Y645168D01*
X326000Y647005D01*
Y648995D01*
X325239Y650832D01*
X323832Y652239D01*
X321995Y653000D01*
D02*
G37*
G36*
X343471Y651411D02*
X341680D01*
X340026Y650726D01*
X338761Y649460D01*
X338075Y647806D01*
Y646016D01*
X338761Y644362D01*
X340026Y643096D01*
X341680Y642411D01*
X343471D01*
X345125Y643096D01*
X346390Y644362D01*
X347076Y646016D01*
Y647806D01*
X346390Y649460D01*
X345125Y650726D01*
X343471Y651411D01*
D02*
G37*
G36*
X712943Y640046D02*
X711153D01*
X709499Y639361D01*
X708233Y638096D01*
X707548Y636442D01*
Y634651D01*
X708233Y632998D01*
X709499Y631732D01*
X711153Y631047D01*
X712943D01*
X714597Y631732D01*
X715863Y632998D01*
X716548Y634651D01*
Y636442D01*
X715863Y638096D01*
X714597Y639361D01*
X712943Y640046D01*
D02*
G37*
G36*
Y626547D02*
X711153D01*
X709499Y625862D01*
X708233Y624596D01*
X707548Y622942D01*
Y621152D01*
X708233Y619497D01*
X709499Y618232D01*
X711153Y617547D01*
X712943D01*
X714597Y618232D01*
X715863Y619497D01*
X716548Y621152D01*
Y622942D01*
X715863Y624596D01*
X714597Y625862D01*
X712943Y626547D01*
D02*
G37*
G36*
X655302Y618129D02*
X653512D01*
X651858Y617444D01*
X650592Y616178D01*
X649907Y614524D01*
Y612734D01*
X650592Y611080D01*
X651858Y609814D01*
X653512Y609129D01*
X655302D01*
X656956Y609814D01*
X658222Y611080D01*
X658907Y612734D01*
Y614524D01*
X658222Y616178D01*
X656956Y617444D01*
X655302Y618129D01*
D02*
G37*
G36*
X712943Y613650D02*
X711153D01*
X709499Y612965D01*
X708233Y611699D01*
X707548Y610045D01*
Y608255D01*
X708233Y606601D01*
X709499Y605335D01*
X711153Y604650D01*
X712943D01*
X714597Y605335D01*
X715863Y606601D01*
X716548Y608255D01*
Y610045D01*
X715863Y611699D01*
X714597Y612965D01*
X712943Y613650D01*
D02*
G37*
G36*
Y601946D02*
X711153D01*
X709499Y601261D01*
X708233Y599996D01*
X707548Y598342D01*
Y596552D01*
X708233Y594897D01*
X709499Y593632D01*
X711153Y592947D01*
X712943D01*
X714597Y593632D01*
X715863Y594897D01*
X716548Y596552D01*
Y598342D01*
X715863Y599996D01*
X714597Y601261D01*
X712943Y601946D01*
D02*
G37*
G36*
Y589246D02*
X711153D01*
X709499Y588562D01*
X708233Y587296D01*
X707548Y585642D01*
Y583852D01*
X708233Y582197D01*
X709499Y580932D01*
X711153Y580247D01*
X712943D01*
X714597Y580932D01*
X715863Y582197D01*
X716548Y583852D01*
Y585642D01*
X715863Y587296D01*
X714597Y588562D01*
X712943Y589246D01*
D02*
G37*
G36*
X321943D02*
X320153D01*
X318499Y588562D01*
X317233Y587296D01*
X316548Y585642D01*
Y583852D01*
X317233Y582197D01*
X318499Y580932D01*
X320153Y580247D01*
X321943D01*
X323597Y580932D01*
X324863Y582197D01*
X325548Y583852D01*
Y585642D01*
X324863Y587296D01*
X323597Y588562D01*
X321943Y589246D01*
D02*
G37*
G36*
X360995Y589000D02*
X359005D01*
X357168Y588239D01*
X355761Y586832D01*
X355000Y584995D01*
Y583005D01*
X355761Y581168D01*
X357168Y579761D01*
X359005Y579000D01*
X360995D01*
X362832Y579761D01*
X364239Y581168D01*
X365000Y583005D01*
Y584995D01*
X364239Y586832D01*
X362832Y588239D01*
X360995Y589000D01*
D02*
G37*
G36*
X360943Y576547D02*
X359153D01*
X357499Y575862D01*
X356233Y574596D01*
X355548Y572942D01*
Y571152D01*
X356233Y569497D01*
X357499Y568232D01*
X359153Y567547D01*
X360943D01*
X362597Y568232D01*
X363863Y569497D01*
X364548Y571152D01*
Y572942D01*
X363863Y574596D01*
X362597Y575862D01*
X360943Y576547D01*
D02*
G37*
G36*
X321943D02*
X320153D01*
X318499Y575862D01*
X317233Y574596D01*
X316548Y572942D01*
Y571152D01*
X317233Y569497D01*
X318499Y568232D01*
X320153Y567547D01*
X321943D01*
X323597Y568232D01*
X324863Y569497D01*
X325548Y571152D01*
Y572942D01*
X324863Y574596D01*
X323597Y575862D01*
X321943Y576547D01*
D02*
G37*
G36*
X711995Y577000D02*
X710005D01*
X708168Y576239D01*
X706761Y574832D01*
X706000Y572995D01*
Y571005D01*
X706761Y569168D01*
X708168Y567761D01*
X710005Y567000D01*
X711995D01*
X713832Y567761D01*
X715239Y569168D01*
X716000Y571005D01*
Y572995D01*
X715239Y574832D01*
X713832Y576239D01*
X711995Y577000D01*
D02*
G37*
G36*
X360943Y563847D02*
X359153D01*
X357499Y563162D01*
X356233Y561896D01*
X355548Y560242D01*
Y558451D01*
X356233Y556797D01*
X357499Y555532D01*
X359153Y554847D01*
X360943D01*
X362597Y555532D01*
X363863Y556797D01*
X364548Y558451D01*
Y560242D01*
X363863Y561896D01*
X362597Y563162D01*
X360943Y563847D01*
D02*
G37*
G36*
X711995Y564000D02*
X710005D01*
X708168Y563239D01*
X706761Y561832D01*
X706000Y559995D01*
Y558005D01*
X706761Y556168D01*
X708168Y554761D01*
X710005Y554000D01*
X711995D01*
X713832Y554761D01*
X715239Y556168D01*
X716000Y558005D01*
Y559995D01*
X715239Y561832D01*
X713832Y563239D01*
X711995Y564000D01*
D02*
G37*
G36*
X321995D02*
X320005D01*
X318168Y563239D01*
X316761Y561832D01*
X316000Y559995D01*
Y558005D01*
X316761Y556168D01*
X318168Y554761D01*
X320005Y554000D01*
X321995D01*
X323832Y554761D01*
X325239Y556168D01*
X326000Y558005D01*
Y559995D01*
X325239Y561832D01*
X323832Y563239D01*
X321995Y564000D01*
D02*
G37*
G36*
X403302Y530675D02*
X401512D01*
X399858Y529990D01*
X398592Y528725D01*
X397907Y527071D01*
Y525280D01*
X398592Y523626D01*
X399858Y522360D01*
X401512Y521675D01*
X403302D01*
X404956Y522360D01*
X406222Y523626D01*
X406907Y525280D01*
Y527071D01*
X406222Y528725D01*
X404956Y529990D01*
X403302Y530675D01*
D02*
G37*
G36*
X511145Y510000D02*
X509355D01*
X507701Y509315D01*
X506435Y508049D01*
X505750Y506395D01*
Y504605D01*
X506435Y502951D01*
X507701Y501685D01*
X509355Y501000D01*
X511145D01*
X511261Y501048D01*
X512159Y500150D01*
X512157Y500145D01*
Y498355D01*
X512842Y496701D01*
X514108Y495435D01*
X515762Y494750D01*
X517552D01*
X519206Y495435D01*
X520472Y496701D01*
X521157Y498355D01*
Y500145D01*
X520472Y501799D01*
X519206Y503065D01*
X517552Y503750D01*
X515762D01*
X515646Y503702D01*
X514748Y504600D01*
X514750Y504605D01*
Y506395D01*
X514065Y508049D01*
X512799Y509315D01*
X511145Y510000D01*
D02*
G37*
G36*
X380133Y493445D02*
X378343D01*
X376689Y492760D01*
X375423Y491494D01*
X374738Y489840D01*
Y488050D01*
X375423Y486396D01*
X376689Y485130D01*
X378343Y484445D01*
X380133D01*
X381787Y485130D01*
X383053Y486396D01*
X383738Y488050D01*
Y489840D01*
X383053Y491494D01*
X381787Y492760D01*
X380133Y493445D01*
D02*
G37*
G36*
X521927Y488947D02*
X520137D01*
X518483Y488262D01*
X517217Y486996D01*
X516532Y485342D01*
Y483552D01*
X517217Y481898D01*
X518483Y480632D01*
X520137Y479947D01*
X521927D01*
X523581Y480632D01*
X524847Y481898D01*
X525532Y483552D01*
Y485342D01*
X524847Y486996D01*
X523581Y488262D01*
X521927Y488947D01*
D02*
G37*
G36*
X400395Y486500D02*
X398605D01*
X396951Y485815D01*
X395685Y484549D01*
X395000Y482895D01*
Y481105D01*
X395685Y479451D01*
X396951Y478185D01*
X398605Y477500D01*
X400395D01*
X402049Y478185D01*
X403315Y479451D01*
X404000Y481105D01*
Y482895D01*
X403315Y484549D01*
X402049Y485815D01*
X400395Y486500D01*
D02*
G37*
G36*
X360943Y485747D02*
X359153D01*
X357499Y485061D01*
X356233Y483796D01*
X355548Y482142D01*
Y480351D01*
X356233Y478698D01*
X357499Y477432D01*
X359153Y476747D01*
X360943D01*
X362597Y477432D01*
X363863Y478698D01*
X364548Y480351D01*
Y482142D01*
X363863Y483796D01*
X362597Y485061D01*
X360943Y485747D01*
D02*
G37*
G36*
X322995Y486000D02*
X321005D01*
X319168Y485239D01*
X317761Y483832D01*
X317000Y481995D01*
Y480005D01*
X317761Y478168D01*
X319168Y476761D01*
X321005Y476000D01*
X322995D01*
X324832Y476761D01*
X326239Y478168D01*
X327000Y480005D01*
Y481995D01*
X326239Y483832D01*
X324832Y485239D01*
X322995Y486000D01*
D02*
G37*
G36*
X379395Y478750D02*
X377605D01*
X375951Y478065D01*
X374685Y476799D01*
X374000Y475145D01*
Y473355D01*
X374685Y471701D01*
X375951Y470435D01*
X377605Y469750D01*
X379395D01*
X381049Y470435D01*
X382315Y471701D01*
X383000Y473355D01*
Y475145D01*
X382315Y476799D01*
X381049Y478065D01*
X379395Y478750D01*
D02*
G37*
G36*
X360943Y473047D02*
X359153D01*
X357499Y472361D01*
X356233Y471096D01*
X355548Y469442D01*
Y467651D01*
X356233Y465998D01*
X357499Y464732D01*
X359153Y464047D01*
X360943D01*
X362597Y464732D01*
X363863Y465998D01*
X364548Y467651D01*
Y469442D01*
X363863Y471096D01*
X362597Y472361D01*
X360943Y473047D01*
D02*
G37*
G36*
X322995Y473000D02*
X321005D01*
X319168Y472239D01*
X317761Y470832D01*
X317000Y468995D01*
Y467005D01*
X317761Y465168D01*
X319168Y463761D01*
X321005Y463000D01*
X322995D01*
X324832Y463761D01*
X326239Y465168D01*
X327000Y467005D01*
Y468995D01*
X326239Y470832D01*
X324832Y472239D01*
X322995Y473000D01*
D02*
G37*
G36*
X484052Y465925D02*
X482262D01*
X480608Y465240D01*
X479342Y463974D01*
X478657Y462321D01*
Y460530D01*
X479342Y458876D01*
X480608Y457611D01*
X482262Y456926D01*
X484052D01*
X485706Y457611D01*
X486972Y458876D01*
X487657Y460530D01*
Y462321D01*
X486972Y463974D01*
X485706Y465240D01*
X484052Y465925D01*
D02*
G37*
G36*
X751943Y460347D02*
X750153D01*
X748499Y459661D01*
X747233Y458396D01*
X746548Y456742D01*
Y454952D01*
X747233Y453298D01*
X748499Y452032D01*
X750153Y451347D01*
X751943D01*
X753597Y452032D01*
X754863Y453298D01*
X755548Y454952D01*
Y456742D01*
X754863Y458396D01*
X753597Y459661D01*
X751943Y460347D01*
D02*
G37*
G36*
X360943D02*
X359153D01*
X357499Y459661D01*
X356233Y458396D01*
X355548Y456742D01*
Y454952D01*
X356233Y453298D01*
X357499Y452032D01*
X359153Y451347D01*
X360943D01*
X362597Y452032D01*
X363863Y453298D01*
X364548Y454952D01*
Y456742D01*
X363863Y458396D01*
X362597Y459661D01*
X360943Y460347D01*
D02*
G37*
G36*
X321943D02*
X320153D01*
X318499Y459661D01*
X317233Y458396D01*
X316548Y456742D01*
Y454952D01*
X317233Y453298D01*
X318499Y452032D01*
X320153Y451347D01*
X321943D01*
X323597Y452032D01*
X324863Y453298D01*
X325548Y454952D01*
Y456742D01*
X324863Y458396D01*
X323597Y459661D01*
X321943Y460347D01*
D02*
G37*
G36*
X751943Y447647D02*
X750153D01*
X748499Y446962D01*
X747233Y445696D01*
X746548Y444042D01*
Y442252D01*
X747233Y440597D01*
X748499Y439332D01*
X750153Y438647D01*
X751943D01*
X753597Y439332D01*
X754863Y440597D01*
X755548Y442252D01*
Y444042D01*
X754863Y445696D01*
X753597Y446962D01*
X751943Y447647D01*
D02*
G37*
G36*
X360943D02*
X359153D01*
X357499Y446962D01*
X356233Y445696D01*
X355548Y444042D01*
Y442252D01*
X356233Y440597D01*
X357499Y439332D01*
X359153Y438647D01*
X360943D01*
X362597Y439332D01*
X363863Y440597D01*
X364548Y442252D01*
Y444042D01*
X363863Y445696D01*
X362597Y446962D01*
X360943Y447647D01*
D02*
G37*
G36*
X321943D02*
X320153D01*
X318499Y446962D01*
X317233Y445696D01*
X316548Y444042D01*
Y442252D01*
X317233Y440597D01*
X318499Y439332D01*
X320153Y438647D01*
X321943D01*
X323597Y439332D01*
X324863Y440597D01*
X325548Y442252D01*
Y444042D01*
X324863Y445696D01*
X323597Y446962D01*
X321943Y447647D01*
D02*
G37*
G36*
X402927Y441800D02*
X401137D01*
X399483Y441115D01*
X398217Y439850D01*
X397532Y438195D01*
Y436405D01*
X398217Y434751D01*
X399483Y433485D01*
X401137Y432800D01*
X402927D01*
X404581Y433485D01*
X405847Y434751D01*
X406532Y436405D01*
Y438195D01*
X405847Y439850D01*
X404581Y441115D01*
X402927Y441800D01*
D02*
G37*
G36*
X612017Y439226D02*
X610226D01*
X608572Y438541D01*
X607307Y437276D01*
X606622Y435622D01*
Y433831D01*
X607307Y432178D01*
X608572Y430912D01*
X610226Y430227D01*
X612017D01*
X613671Y430912D01*
X614936Y432178D01*
X615126Y432636D01*
X616501D01*
X616785Y431951D01*
X618051Y430685D01*
X619705Y430000D01*
X621495D01*
X623149Y430685D01*
X624415Y431951D01*
X625100Y433605D01*
Y435395D01*
X624415Y437049D01*
X623149Y438315D01*
X621495Y439000D01*
X619705D01*
X618051Y438315D01*
X616785Y437049D01*
X616595Y436590D01*
X615220D01*
X614936Y437276D01*
X613671Y438541D01*
X612017Y439226D01*
D02*
G37*
G36*
X600495Y436000D02*
X598705D01*
X597051Y435315D01*
X595785Y434049D01*
X595100Y432395D01*
Y430605D01*
X595785Y428951D01*
X597051Y427685D01*
X598705Y427000D01*
X600495D01*
X602149Y427685D01*
X603415Y428951D01*
X604100Y430605D01*
Y432395D01*
X603415Y434049D01*
X602149Y435315D01*
X600495Y436000D01*
D02*
G37*
G36*
X360943Y434947D02*
X359153D01*
X357499Y434262D01*
X356233Y432996D01*
X355548Y431342D01*
Y429552D01*
X356233Y427897D01*
X357499Y426632D01*
X359153Y425947D01*
X360943D01*
X362597Y426632D01*
X363863Y427897D01*
X364548Y429552D01*
Y431342D01*
X363863Y432996D01*
X362597Y434262D01*
X360943Y434947D01*
D02*
G37*
G36*
X751943Y434147D02*
X750153D01*
X748499Y433461D01*
X747233Y432196D01*
X746548Y430542D01*
Y428751D01*
X747233Y427098D01*
X748499Y425832D01*
X750153Y425147D01*
X751943D01*
X753597Y425832D01*
X754863Y427098D01*
X755548Y428751D01*
Y430542D01*
X754863Y432196D01*
X753597Y433461D01*
X751943Y434147D01*
D02*
G37*
G36*
X322995Y435000D02*
X321005D01*
X319168Y434239D01*
X317761Y432832D01*
X317000Y430995D01*
Y429005D01*
X317761Y427168D01*
X319168Y425761D01*
X321005Y425000D01*
X322995D01*
X324832Y425761D01*
X326239Y427168D01*
X327000Y429005D01*
Y430995D01*
X326239Y432832D01*
X324832Y434239D01*
X322995Y435000D01*
D02*
G37*
G36*
X651258Y430564D02*
X649468D01*
X647814Y429879D01*
X646548Y428613D01*
X645863Y426959D01*
Y425169D01*
X646548Y423515D01*
X647814Y422249D01*
X649468Y421564D01*
X651258D01*
X652912Y422249D01*
X654178Y423515D01*
X654863Y425169D01*
Y426959D01*
X654178Y428613D01*
X652912Y429879D01*
X651258Y430564D01*
D02*
G37*
G36*
X751943Y422247D02*
X750153D01*
X748499Y421562D01*
X747233Y420296D01*
X746548Y418642D01*
Y416852D01*
X747233Y415197D01*
X748499Y413932D01*
X750153Y413247D01*
X751943D01*
X753597Y413932D01*
X754863Y415197D01*
X755548Y416852D01*
Y418642D01*
X754863Y420296D01*
X753597Y421562D01*
X751943Y422247D01*
D02*
G37*
G36*
X360995Y423000D02*
X359005D01*
X357168Y422239D01*
X355761Y420832D01*
X355000Y418995D01*
Y417005D01*
X355761Y415168D01*
X357168Y413761D01*
X359005Y413000D01*
X360995D01*
X362832Y413761D01*
X364239Y415168D01*
X365000Y417005D01*
Y418995D01*
X364239Y420832D01*
X362832Y422239D01*
X360995Y423000D01*
D02*
G37*
G36*
X321995D02*
X320005D01*
X318168Y422239D01*
X316761Y420832D01*
X316000Y418995D01*
Y417005D01*
X316761Y415168D01*
X318168Y413761D01*
X320005Y413000D01*
X321995D01*
X323832Y413761D01*
X325239Y415168D01*
X326000Y417005D01*
Y418995D01*
X325239Y420832D01*
X323832Y422239D01*
X321995Y423000D01*
D02*
G37*
G36*
X472552Y436425D02*
X470762D01*
X469108Y435740D01*
X467842Y434474D01*
X467157Y432821D01*
Y431030D01*
X467842Y429376D01*
X469033Y428186D01*
X467791Y426943D01*
X467106Y425289D01*
Y423499D01*
X467791Y421845D01*
X469057Y420579D01*
X470710Y419894D01*
X470989Y419477D01*
X470624Y418594D01*
Y416804D01*
X471309Y415150D01*
X471456Y415002D01*
X471158Y413504D01*
X470701Y413315D01*
X469435Y412049D01*
X468750Y410395D01*
Y408605D01*
X469435Y406951D01*
X470701Y405685D01*
X472355Y405000D01*
X474145D01*
X475799Y405685D01*
X477065Y406951D01*
X477750Y408605D01*
Y410395D01*
X477065Y412049D01*
X476917Y412197D01*
X477215Y413695D01*
X477673Y413884D01*
X478939Y415150D01*
X479624Y416804D01*
Y418594D01*
X478939Y420248D01*
X477673Y421514D01*
X476019Y422199D01*
X475740Y422617D01*
X476106Y423499D01*
Y425289D01*
X475420Y426943D01*
X474230Y428134D01*
X475472Y429376D01*
X476157Y431030D01*
Y432821D01*
X475472Y434474D01*
X474206Y435740D01*
X472552Y436425D01*
D02*
G37*
G36*
X360995Y410000D02*
X359005D01*
X357168Y409239D01*
X355761Y407832D01*
X355000Y405995D01*
Y404005D01*
X355761Y402168D01*
X357168Y400761D01*
X359005Y400000D01*
X360995D01*
X362832Y400761D01*
X364239Y402168D01*
X365000Y404005D01*
Y405995D01*
X364239Y407832D01*
X362832Y409239D01*
X360995Y410000D01*
D02*
G37*
G36*
X321995D02*
X320005D01*
X318168Y409239D01*
X316761Y407832D01*
X316000Y405995D01*
Y404005D01*
X316761Y402168D01*
X318168Y400761D01*
X320005Y400000D01*
X321995D01*
X323832Y400761D01*
X325239Y402168D01*
X326000Y404005D01*
Y405995D01*
X325239Y407832D01*
X323832Y409239D01*
X321995Y410000D01*
D02*
G37*
G36*
X651552Y408925D02*
X649762D01*
X648108Y408240D01*
X646842Y406974D01*
X646157Y405321D01*
Y403530D01*
X646842Y401876D01*
X648108Y400611D01*
X649762Y399925D01*
X651552D01*
X653206Y400611D01*
X654472Y401876D01*
X655157Y403530D01*
Y405321D01*
X654472Y406974D01*
X653206Y408240D01*
X651552Y408925D01*
D02*
G37*
G36*
X612745Y408000D02*
X610955D01*
X609301Y407315D01*
X608035Y406049D01*
X607350Y404395D01*
Y402605D01*
X608035Y400951D01*
X609301Y399685D01*
X610955Y399000D01*
X612745D01*
X614399Y399685D01*
X615665Y400951D01*
X616350Y402605D01*
Y404395D01*
X615665Y406049D01*
X614399Y407315D01*
X612745Y408000D01*
D02*
G37*
G36*
X627395Y414000D02*
X625605D01*
X623951Y413315D01*
X622685Y412049D01*
X622000Y410395D01*
Y408605D01*
X622685Y406951D01*
X623951Y405685D01*
X624071Y405635D01*
X624154Y404789D01*
X624125Y404239D01*
X622935Y403049D01*
X622250Y401395D01*
Y399605D01*
X622935Y397951D01*
X624201Y396685D01*
X625855Y396000D01*
X627170D01*
X627407Y395645D01*
Y393855D01*
X628092Y392201D01*
X629358Y390935D01*
X631012Y390250D01*
X632802D01*
X634456Y390935D01*
X635722Y392201D01*
X636407Y393855D01*
Y395645D01*
X635722Y397299D01*
X634456Y398565D01*
X632802Y399250D01*
X631487D01*
X631250Y399605D01*
Y401395D01*
X630565Y403049D01*
X629299Y404315D01*
X629179Y404365D01*
X629096Y405211D01*
X629125Y405761D01*
X630315Y406951D01*
X631000Y408605D01*
Y410395D01*
X630315Y412049D01*
X629049Y413315D01*
X627395Y414000D01*
D02*
G37*
G36*
X360995Y397000D02*
X359005D01*
X357168Y396239D01*
X355761Y394832D01*
X355000Y392995D01*
Y391005D01*
X355761Y389168D01*
X357168Y387761D01*
X359005Y387000D01*
X360995D01*
X362832Y387761D01*
X364239Y389168D01*
X365000Y391005D01*
Y392995D01*
X364239Y394832D01*
X362832Y396239D01*
X360995Y397000D01*
D02*
G37*
G36*
X321995D02*
X320005D01*
X318168Y396239D01*
X316761Y394832D01*
X316000Y392995D01*
Y391005D01*
X316761Y389168D01*
X318168Y387761D01*
X320005Y387000D01*
X321995D01*
X323832Y387761D01*
X325239Y389168D01*
X326000Y391005D01*
Y392995D01*
X325239Y394832D01*
X323832Y396239D01*
X321995Y397000D01*
D02*
G37*
G36*
X646052Y394675D02*
X644262D01*
X642608Y393990D01*
X641342Y392724D01*
X640657Y391071D01*
Y389280D01*
X641342Y387626D01*
X642608Y386361D01*
X644262Y385676D01*
X646052D01*
X647706Y386361D01*
X648972Y387626D01*
X649657Y389280D01*
Y391071D01*
X648972Y392724D01*
X647706Y393990D01*
X646052Y394675D01*
D02*
G37*
G36*
X733691Y391630D02*
X731901D01*
X730247Y390945D01*
X728981Y389679D01*
X728296Y388025D01*
Y386235D01*
X728981Y384581D01*
X730247Y383315D01*
X731901Y382630D01*
X733691D01*
X735345Y383315D01*
X736611Y384581D01*
X737296Y386235D01*
Y388025D01*
X736611Y389679D01*
X735345Y390945D01*
X733691Y391630D01*
D02*
G37*
G36*
X402895Y397500D02*
X401105D01*
X399451Y396815D01*
X398185Y395549D01*
X397500Y393895D01*
Y392105D01*
X398185Y390451D01*
X399451Y389185D01*
X399678Y388042D01*
X399185Y387549D01*
X398500Y385895D01*
Y384105D01*
X399185Y382451D01*
X400451Y381185D01*
X402105Y380500D01*
X403895D01*
X405549Y381185D01*
X406815Y382451D01*
X407500Y384105D01*
Y385895D01*
X406815Y387549D01*
X405549Y388815D01*
X405322Y389958D01*
X405815Y390451D01*
X406500Y392105D01*
Y393895D01*
X405815Y395549D01*
X404549Y396815D01*
X402895Y397500D01*
D02*
G37*
G36*
X723260Y388608D02*
X721469D01*
X719816Y387923D01*
X718550Y386657D01*
X717865Y385003D01*
Y383213D01*
X718550Y381559D01*
X719816Y380293D01*
X721469Y379608D01*
X723260D01*
X724914Y380293D01*
X726179Y381559D01*
X726864Y383213D01*
Y385003D01*
X726179Y386657D01*
X724914Y387923D01*
X723260Y388608D01*
D02*
G37*
G36*
X751943Y384147D02*
X750153D01*
X748499Y383461D01*
X747233Y382196D01*
X746548Y380542D01*
Y378751D01*
X747233Y377098D01*
X748499Y375832D01*
X750153Y375147D01*
X751943D01*
X753597Y375832D01*
X754863Y377098D01*
X755548Y378751D01*
Y380542D01*
X754863Y382196D01*
X753597Y383461D01*
X751943Y384147D01*
D02*
G37*
G36*
X321995Y385000D02*
X320005D01*
X318168Y384239D01*
X316761Y382832D01*
X316000Y380995D01*
Y379005D01*
X316761Y377168D01*
X318168Y375761D01*
X320005Y375000D01*
X321995D01*
X323832Y375761D01*
X325239Y377168D01*
X326000Y379005D01*
Y380995D01*
X325239Y382832D01*
X323832Y384239D01*
X321995Y385000D01*
D02*
G37*
G36*
X712995Y384000D02*
X711005D01*
X709168Y383239D01*
X707761Y381832D01*
X707000Y379995D01*
Y378005D01*
X707761Y376168D01*
X709168Y374761D01*
X711005Y374000D01*
X712995D01*
X714832Y374761D01*
X716239Y376168D01*
X717000Y378005D01*
Y379995D01*
X716239Y381832D01*
X714832Y383239D01*
X712995Y384000D01*
D02*
G37*
G36*
X360995D02*
X359005D01*
X357168Y383239D01*
X355761Y381832D01*
X355000Y379995D01*
Y378005D01*
X355761Y376168D01*
X357168Y374761D01*
X359005Y374000D01*
X360995D01*
X362832Y374761D01*
X364239Y376168D01*
X365000Y378005D01*
Y379995D01*
X364239Y381832D01*
X362832Y383239D01*
X360995Y384000D01*
D02*
G37*
G36*
X434576Y382500D02*
X432786D01*
X431132Y381815D01*
X429866Y380549D01*
X429181Y378895D01*
Y377105D01*
X429866Y375451D01*
X431132Y374185D01*
X432786Y373500D01*
X434576D01*
X436230Y374185D01*
X437496Y375451D01*
X438181Y377105D01*
Y378895D01*
X437496Y380549D01*
X436230Y381815D01*
X434576Y382500D01*
D02*
G37*
G36*
X510107Y381788D02*
X508317D01*
X506663Y381102D01*
X505397Y379837D01*
X504712Y378183D01*
Y376393D01*
X505397Y374739D01*
X506663Y373473D01*
X508317Y372788D01*
X510107D01*
X511761Y373473D01*
X513027Y374739D01*
X513712Y376393D01*
Y378183D01*
X513027Y379837D01*
X511761Y381102D01*
X510107Y381788D01*
D02*
G37*
G36*
X484302Y381425D02*
X482512D01*
X480858Y380740D01*
X479592Y379474D01*
X478907Y377821D01*
Y376030D01*
X479592Y374376D01*
X480858Y373111D01*
X482512Y372425D01*
X484302D01*
X485956Y373111D01*
X487222Y374376D01*
X487907Y376030D01*
Y377821D01*
X487222Y379474D01*
X485956Y380740D01*
X484302Y381425D01*
D02*
G37*
G36*
X751781Y373750D02*
X749991D01*
X748337Y373065D01*
X747071Y371799D01*
X746386Y370145D01*
Y368355D01*
X747071Y366701D01*
X748337Y365435D01*
X749991Y364750D01*
X751781D01*
X753435Y365435D01*
X754701Y366701D01*
X755386Y368355D01*
Y370145D01*
X754701Y371799D01*
X753435Y373065D01*
X751781Y373750D01*
D02*
G37*
G36*
X320180Y373209D02*
X318390D01*
X316736Y372524D01*
X315470Y371259D01*
X314785Y369605D01*
Y367814D01*
X315470Y366161D01*
X316736Y364895D01*
X318390Y364210D01*
X320180D01*
X321834Y364895D01*
X323100Y366161D01*
X323785Y367814D01*
Y369605D01*
X323100Y371259D01*
X321834Y372524D01*
X320180Y373209D01*
D02*
G37*
G36*
X360943Y371447D02*
X359153D01*
X357499Y370761D01*
X356233Y369496D01*
X355548Y367842D01*
Y366051D01*
X356233Y364398D01*
X357499Y363132D01*
X359153Y362447D01*
X360943D01*
X362597Y363132D01*
X363863Y364398D01*
X364548Y366051D01*
Y367842D01*
X363863Y369496D01*
X362597Y370761D01*
X360943Y371447D01*
D02*
G37*
G36*
X712995Y372000D02*
X711005D01*
X709168Y371239D01*
X707761Y369832D01*
X707000Y367995D01*
Y366005D01*
X707761Y364168D01*
X709168Y362761D01*
X711005Y362000D01*
X712995D01*
X714832Y362761D01*
X716239Y364168D01*
X717000Y366005D01*
Y367995D01*
X716239Y369832D01*
X714832Y371239D01*
X712995Y372000D01*
D02*
G37*
G36*
X320330Y360359D02*
X318540D01*
X316886Y359674D01*
X315620Y358409D01*
X314935Y356755D01*
Y354964D01*
X315620Y353310D01*
X316886Y352045D01*
X318540Y351359D01*
X320330D01*
X321984Y352045D01*
X323250Y353310D01*
X323935Y354964D01*
Y356755D01*
X323250Y358409D01*
X321984Y359674D01*
X320330Y360359D01*
D02*
G37*
G36*
X360943Y358747D02*
X359153D01*
X357499Y358061D01*
X356233Y356796D01*
X355548Y355142D01*
Y353352D01*
X356233Y351698D01*
X357499Y350432D01*
X359153Y349747D01*
X360943D01*
X362597Y350432D01*
X363863Y351698D01*
X364548Y353352D01*
Y355142D01*
X363863Y356796D01*
X362597Y358061D01*
X360943Y358747D01*
D02*
G37*
G36*
X752995Y359000D02*
X751005D01*
X749168Y358239D01*
X747761Y356832D01*
X747000Y354995D01*
Y353005D01*
X747761Y351168D01*
X749168Y349761D01*
X751005Y349000D01*
X752995D01*
X754832Y349761D01*
X756239Y351168D01*
X757000Y353005D01*
Y354995D01*
X756239Y356832D01*
X754832Y358239D01*
X752995Y359000D01*
D02*
G37*
G36*
X712995D02*
X711005D01*
X709168Y358239D01*
X707761Y356832D01*
X707000Y354995D01*
Y353005D01*
X707761Y351168D01*
X709168Y349761D01*
X711005Y349000D01*
X712995D01*
X714832Y349761D01*
X716239Y351168D01*
X717000Y353005D01*
Y354995D01*
X716239Y356832D01*
X714832Y358239D01*
X712995Y359000D01*
D02*
G37*
G36*
X418802Y355675D02*
X417012D01*
X415358Y354990D01*
X414092Y353725D01*
X413407Y352071D01*
Y350280D01*
X414092Y348626D01*
X415358Y347360D01*
X417012Y346675D01*
X418802D01*
X420456Y347360D01*
X421722Y348626D01*
X422407Y350280D01*
Y352071D01*
X421722Y353725D01*
X420456Y354990D01*
X418802Y355675D01*
D02*
G37*
G36*
X360943Y346047D02*
X359153D01*
X357499Y345362D01*
X356233Y344096D01*
X355548Y342442D01*
Y340652D01*
X356233Y338997D01*
X357499Y337732D01*
X359153Y337047D01*
X360943D01*
X362597Y337732D01*
X363863Y338997D01*
X364548Y340652D01*
Y342442D01*
X363863Y344096D01*
X362597Y345362D01*
X360943Y346047D01*
D02*
G37*
G36*
X321943D02*
X320153D01*
X318499Y345362D01*
X317233Y344096D01*
X316548Y342442D01*
Y340652D01*
X317233Y338997D01*
X318499Y337732D01*
X320153Y337047D01*
X321943D01*
X323597Y337732D01*
X324863Y338997D01*
X325548Y340652D01*
Y342442D01*
X324863Y344096D01*
X323597Y345362D01*
X321943Y346047D01*
D02*
G37*
G36*
X752995Y346000D02*
X751005D01*
X749168Y345239D01*
X747761Y343832D01*
X747000Y341995D01*
Y340005D01*
X747761Y338168D01*
X749168Y336761D01*
X751005Y336000D01*
X752995D01*
X754832Y336761D01*
X756239Y338168D01*
X757000Y340005D01*
Y341995D01*
X756239Y343832D01*
X754832Y345239D01*
X752995Y346000D01*
D02*
G37*
G36*
X713995D02*
X712005D01*
X710168Y345239D01*
X708761Y343832D01*
X708000Y341995D01*
Y340005D01*
X708761Y338168D01*
X710168Y336761D01*
X712005Y336000D01*
X713995D01*
X715832Y336761D01*
X717239Y338168D01*
X718000Y340005D01*
Y341995D01*
X717239Y343832D01*
X715832Y345239D01*
X713995Y346000D01*
D02*
G37*
G36*
X434683Y343678D02*
X432893D01*
X431239Y342993D01*
X429973Y341727D01*
X429288Y340073D01*
Y338283D01*
X429973Y336629D01*
X431239Y335363D01*
X432893Y334678D01*
X434683D01*
X436337Y335363D01*
X437603Y336629D01*
X438288Y338283D01*
Y340073D01*
X437603Y341727D01*
X436337Y342993D01*
X434683Y343678D01*
D02*
G37*
G36*
X360943Y333347D02*
X359153D01*
X357499Y332662D01*
X356233Y331396D01*
X355548Y329742D01*
Y327952D01*
X356233Y326297D01*
X357499Y325032D01*
X359153Y324347D01*
X360943D01*
X362597Y325032D01*
X363863Y326297D01*
X364548Y327952D01*
Y329742D01*
X363863Y331396D01*
X362597Y332662D01*
X360943Y333347D01*
D02*
G37*
G36*
X321943D02*
X320153D01*
X318499Y332662D01*
X317233Y331396D01*
X316548Y329742D01*
Y327952D01*
X317233Y326297D01*
X318499Y325032D01*
X320153Y324347D01*
X321943D01*
X323597Y325032D01*
X324863Y326297D01*
X325548Y327952D01*
Y329742D01*
X324863Y331396D01*
X323597Y332662D01*
X321943Y333347D01*
D02*
G37*
G36*
X712271Y333268D02*
X710481D01*
X708827Y332582D01*
X707561Y331317D01*
X706876Y329663D01*
Y327872D01*
X707561Y326218D01*
X708827Y324953D01*
X710481Y324268D01*
X712271D01*
X713925Y324953D01*
X715191Y326218D01*
X715876Y327872D01*
Y329663D01*
X715191Y331317D01*
X713925Y332582D01*
X712271Y333268D01*
D02*
G37*
G36*
X513645Y327250D02*
X511855D01*
X510201Y326565D01*
X508935Y325299D01*
X508250Y323645D01*
Y321855D01*
X508935Y320201D01*
X510201Y318935D01*
X511855Y318250D01*
X513645D01*
X515299Y318935D01*
X516565Y320201D01*
X517250Y321855D01*
Y323645D01*
X516565Y325299D01*
X515299Y326565D01*
X513645Y327250D01*
D02*
G37*
G36*
X615995Y326550D02*
X614205D01*
X612551Y325865D01*
X611285Y324599D01*
X610600Y322945D01*
Y321155D01*
X611285Y319501D01*
X612551Y318235D01*
X614205Y317550D01*
X615995D01*
X617649Y318235D01*
X618915Y319501D01*
X619600Y321155D01*
Y322945D01*
X618915Y324599D01*
X617649Y325865D01*
X615995Y326550D01*
D02*
G37*
G36*
X478995Y326500D02*
X477205D01*
X475551Y325815D01*
X474285Y324549D01*
X473600Y322895D01*
Y321105D01*
X474285Y319451D01*
X475551Y318185D01*
X477205Y317500D01*
X478995D01*
X480649Y318185D01*
X481915Y319451D01*
X482600Y321105D01*
Y322895D01*
X481915Y324549D01*
X480649Y325815D01*
X478995Y326500D01*
D02*
G37*
G36*
X712943Y320647D02*
X711153D01*
X709499Y319961D01*
X708233Y318696D01*
X707548Y317042D01*
Y315252D01*
X708233Y313598D01*
X709499Y312332D01*
X711153Y311647D01*
X712943D01*
X714597Y312332D01*
X715863Y313598D01*
X716548Y315252D01*
Y317042D01*
X715863Y318696D01*
X714597Y319961D01*
X712943Y320647D01*
D02*
G37*
G36*
X360943D02*
X359153D01*
X357499Y319961D01*
X356233Y318696D01*
X355548Y317042D01*
Y315252D01*
X356233Y313598D01*
X357499Y312332D01*
X359153Y311647D01*
X360943D01*
X362597Y312332D01*
X363863Y313598D01*
X364548Y315252D01*
Y317042D01*
X363863Y318696D01*
X362597Y319961D01*
X360943Y320647D01*
D02*
G37*
G36*
X322995Y321000D02*
X321005D01*
X319168Y320239D01*
X317761Y318832D01*
X317000Y316995D01*
Y315005D01*
X317761Y313168D01*
X319168Y311761D01*
X321005Y311000D01*
X322995D01*
X324832Y311761D01*
X326239Y313168D01*
X327000Y315005D01*
Y316995D01*
X326239Y318832D01*
X324832Y320239D01*
X322995Y321000D01*
D02*
G37*
G36*
X425302Y316175D02*
X423512D01*
X421858Y315490D01*
X420592Y314224D01*
X419907Y312570D01*
Y310780D01*
X420592Y309126D01*
X421858Y307861D01*
X423512Y307176D01*
X425302D01*
X426956Y307861D01*
X428222Y309126D01*
X428907Y310780D01*
Y312570D01*
X428222Y314224D01*
X426956Y315490D01*
X425302Y316175D01*
D02*
G37*
G36*
X532645Y327750D02*
X530855D01*
X529201Y327065D01*
X527935Y325799D01*
X527250Y324145D01*
Y322355D01*
X527935Y320701D01*
X529201Y319435D01*
X530855Y318750D01*
X531924D01*
X535276Y315398D01*
X535446Y314545D01*
X536109Y313552D01*
X542056Y307605D01*
X542056Y307605D01*
X543049Y306942D01*
X544219Y306709D01*
X561927D01*
X562201Y306435D01*
X563855Y305750D01*
X565645D01*
X567299Y306435D01*
X568565Y307701D01*
X569250Y309355D01*
Y311145D01*
X568565Y312799D01*
X567299Y314065D01*
X565645Y314750D01*
X563855D01*
X562201Y314065D01*
X560962Y312826D01*
X545486D01*
X541267Y317045D01*
X541098Y317899D01*
X540434Y318891D01*
X540434Y318891D01*
X536250Y323076D01*
Y324145D01*
X535565Y325799D01*
X534299Y327065D01*
X532645Y327750D01*
D02*
G37*
G36*
X751943Y307947D02*
X750153D01*
X748499Y307262D01*
X747233Y305996D01*
X746548Y304342D01*
Y302551D01*
X747233Y300898D01*
X748499Y299632D01*
X750153Y298947D01*
X751943D01*
X753597Y299632D01*
X754863Y300898D01*
X755548Y302551D01*
Y304342D01*
X754863Y305996D01*
X753597Y307262D01*
X751943Y307947D01*
D02*
G37*
G36*
X712943D02*
X711153D01*
X709499Y307262D01*
X708233Y305996D01*
X707548Y304342D01*
Y302551D01*
X708233Y300898D01*
X709499Y299632D01*
X711153Y298947D01*
X712943D01*
X714597Y299632D01*
X715863Y300898D01*
X716548Y302551D01*
Y304342D01*
X715863Y305996D01*
X714597Y307262D01*
X712943Y307947D01*
D02*
G37*
G36*
X360995Y308000D02*
X359005D01*
X357168Y307239D01*
X355761Y305832D01*
X355000Y303995D01*
Y302005D01*
X355761Y300168D01*
X357168Y298761D01*
X359005Y298000D01*
X360995D01*
X362832Y298761D01*
X364239Y300168D01*
X365000Y302005D01*
Y303995D01*
X364239Y305832D01*
X362832Y307239D01*
X360995Y308000D01*
D02*
G37*
G36*
X322995D02*
X321005D01*
X319168Y307239D01*
X317761Y305832D01*
X317000Y303995D01*
Y302005D01*
X317761Y300168D01*
X319168Y298761D01*
X321005Y298000D01*
X322995D01*
X324832Y298761D01*
X326239Y300168D01*
X327000Y302005D01*
Y303995D01*
X326239Y305832D01*
X324832Y307239D01*
X322995Y308000D01*
D02*
G37*
G36*
X753221Y295161D02*
X751430D01*
X749776Y294476D01*
X748511Y293210D01*
X747825Y291556D01*
Y289766D01*
X748511Y288112D01*
X749776Y286846D01*
X751430Y286161D01*
X753221D01*
X754874Y286846D01*
X756140Y288112D01*
X756825Y289766D01*
Y291556D01*
X756140Y293210D01*
X754874Y294476D01*
X753221Y295161D01*
D02*
G37*
G36*
X713471Y294661D02*
X711680D01*
X710026Y293976D01*
X708761Y292710D01*
X708075Y291056D01*
Y289266D01*
X708761Y287612D01*
X710026Y286346D01*
X711680Y285661D01*
X713471D01*
X715125Y286346D01*
X716390Y287612D01*
X717076Y289266D01*
Y291056D01*
X716390Y292710D01*
X715125Y293976D01*
X713471Y294661D01*
D02*
G37*
G36*
X386495Y292250D02*
X384705D01*
X383051Y291565D01*
X381785Y290299D01*
X381100Y288645D01*
Y286855D01*
X381785Y285201D01*
X383051Y283935D01*
X384705Y283250D01*
X386495D01*
X388149Y283935D01*
X389415Y285201D01*
X390100Y286855D01*
Y288645D01*
X389415Y290299D01*
X388149Y291565D01*
X386495Y292250D01*
D02*
G37*
G36*
X485395Y286500D02*
X483605D01*
X481951Y285815D01*
X480685Y284549D01*
X480000Y282895D01*
Y281105D01*
X480685Y279451D01*
X481951Y278185D01*
X483605Y277500D01*
X485395D01*
X487049Y278185D01*
X488315Y279451D01*
X489000Y281105D01*
Y282895D01*
X488315Y284549D01*
X487049Y285815D01*
X485395Y286500D01*
D02*
G37*
G36*
X687250Y295368D02*
X684909Y294902D01*
X682924Y293576D01*
X681598Y291591D01*
X681133Y289250D01*
Y281250D01*
X681598Y278909D01*
X682924Y276924D01*
X684909Y275598D01*
X687250Y275133D01*
X689591Y275598D01*
X691576Y276924D01*
X692902Y278909D01*
X693367Y281250D01*
Y289250D01*
X692902Y291591D01*
X691576Y293576D01*
X689591Y294902D01*
X687250Y295368D01*
D02*
G37*
G36*
X600750D02*
X598409Y294902D01*
X596424Y293576D01*
X595098Y291591D01*
X594632Y289250D01*
Y281250D01*
X595098Y278909D01*
X596424Y276924D01*
X598409Y275598D01*
X600750Y275133D01*
X603091Y275598D01*
X605076Y276924D01*
X606402Y278909D01*
X606867Y281250D01*
Y289250D01*
X606402Y291591D01*
X605076Y293576D01*
X603091Y294902D01*
X600750Y295368D01*
D02*
G37*
G36*
X752721Y282661D02*
X750930D01*
X749276Y281976D01*
X748011Y280710D01*
X747326Y279056D01*
Y277266D01*
X748011Y275612D01*
X749276Y274346D01*
X750930Y273661D01*
X752721D01*
X754374Y274346D01*
X755640Y275612D01*
X756326Y277266D01*
Y279056D01*
X755640Y280710D01*
X754374Y281976D01*
X752721Y282661D01*
D02*
G37*
G36*
X713221Y282161D02*
X711430D01*
X709776Y281476D01*
X708511Y280210D01*
X707825Y278556D01*
Y276766D01*
X708511Y275112D01*
X709776Y273846D01*
X711430Y273161D01*
X713221D01*
X714874Y273846D01*
X716140Y275112D01*
X716825Y276766D01*
Y278556D01*
X716140Y280210D01*
X714874Y281476D01*
X713221Y282161D01*
D02*
G37*
G36*
X557289Y278500D02*
X555498D01*
X553844Y277815D01*
X552579Y276549D01*
X551893Y274895D01*
Y273105D01*
X552579Y271451D01*
X553844Y270185D01*
X555498Y269500D01*
X557289D01*
X558942Y270185D01*
X560208Y271451D01*
X560893Y273105D01*
Y274895D01*
X560208Y276549D01*
X558942Y277815D01*
X557289Y278500D01*
D02*
G37*
G36*
X713721Y269661D02*
X711930D01*
X710276Y268976D01*
X709011Y267710D01*
X708326Y266056D01*
Y264266D01*
X709011Y262612D01*
X710276Y261346D01*
X711930Y260661D01*
X713721D01*
X715375Y261346D01*
X716640Y262612D01*
X717326Y264266D01*
Y266056D01*
X716640Y267710D01*
X715375Y268976D01*
X713721Y269661D01*
D02*
G37*
G36*
X752228Y269239D02*
X750438D01*
X748784Y268554D01*
X747518Y267288D01*
X746833Y265634D01*
Y263844D01*
X747518Y262190D01*
X748784Y260924D01*
X750438Y260239D01*
X752228D01*
X753882Y260924D01*
X755148Y262190D01*
X755833Y263844D01*
Y265634D01*
X755148Y267288D01*
X753882Y268554D01*
X752228Y269239D01*
D02*
G37*
G36*
X418302Y265175D02*
X416512D01*
X414858Y264490D01*
X413592Y263225D01*
X412907Y261570D01*
Y259780D01*
X413592Y258126D01*
X414858Y256861D01*
X416512Y256175D01*
X418302D01*
X419956Y256861D01*
X421222Y258126D01*
X421907Y259780D01*
Y261570D01*
X421222Y263225D01*
X419956Y264490D01*
X418302Y265175D01*
D02*
G37*
G36*
X554645Y623000D02*
X552855D01*
X551201Y622315D01*
X549935Y621049D01*
X549250Y619395D01*
Y617605D01*
X549935Y615951D01*
X551201Y614685D01*
X552855Y614000D01*
X554645D01*
X556299Y614685D01*
X557565Y615951D01*
X558250Y617605D01*
Y619395D01*
X557565Y621049D01*
X556299Y622315D01*
X554645Y623000D01*
D02*
G37*
G36*
X544245Y692250D02*
X542455D01*
X540801Y691565D01*
X539535Y690299D01*
X538850Y688645D01*
Y686855D01*
X539535Y685201D01*
X540801Y683935D01*
X542455Y683250D01*
X544245D01*
X545899Y683935D01*
X547165Y685201D01*
X547850Y686855D01*
Y688645D01*
X547165Y690299D01*
X545899Y691565D01*
X544245Y692250D01*
D02*
G37*
G36*
X549131Y671508D02*
X547341D01*
X545687Y670823D01*
X544421Y669557D01*
X543736Y667903D01*
Y666113D01*
X544421Y664459D01*
X545687Y663193D01*
X547341Y662508D01*
X549131D01*
X550785Y663193D01*
X552051Y664459D01*
X552736Y666113D01*
Y667903D01*
X552051Y669557D01*
X550785Y670823D01*
X549131Y671508D01*
D02*
G37*
G36*
X528521Y652767D02*
X526731D01*
X525077Y652082D01*
X523811Y650817D01*
X523126Y649163D01*
Y647372D01*
X523811Y645719D01*
X525077Y644453D01*
X526731Y643767D01*
X528521D01*
X530175Y644453D01*
X531441Y645719D01*
X532126Y647372D01*
Y649163D01*
X531441Y650817D01*
X530175Y652082D01*
X528521Y652767D01*
D02*
G37*
G36*
X525245Y624500D02*
X523455D01*
X521801Y623815D01*
X520535Y622549D01*
X519850Y620895D01*
Y619105D01*
X520535Y617451D01*
X521801Y616185D01*
X523455Y615500D01*
X525245D01*
X526899Y616185D01*
X528165Y617451D01*
X528850Y619105D01*
Y620895D01*
X528165Y622549D01*
X526899Y623815D01*
X525245Y624500D01*
D02*
G37*
G36*
X499395Y592750D02*
X497605D01*
X495951Y592065D01*
X494685Y590799D01*
X494000Y589145D01*
Y587355D01*
X494685Y585701D01*
X495951Y584435D01*
X497605Y583750D01*
X499395D01*
X501049Y584435D01*
X502315Y585701D01*
X503000Y587355D01*
Y589145D01*
X502315Y590799D01*
X501049Y592065D01*
X499395Y592750D01*
D02*
G37*
G36*
X545395Y561750D02*
X543605D01*
X541951Y561065D01*
X540685Y559799D01*
X540000Y558145D01*
Y556355D01*
X540685Y554701D01*
X541951Y553435D01*
X543605Y552750D01*
X545395D01*
X547049Y553435D01*
X548315Y554701D01*
X549000Y556355D01*
Y558145D01*
X548315Y559799D01*
X547049Y561065D01*
X545395Y561750D01*
D02*
G37*
G36*
X568499Y549765D02*
X566708D01*
X565055Y549080D01*
X563789Y547814D01*
X563104Y546160D01*
Y544370D01*
X563789Y542716D01*
X565055Y541450D01*
X566708Y540765D01*
X568499D01*
X570153Y541450D01*
X571418Y542716D01*
X572104Y544370D01*
Y546160D01*
X571418Y547814D01*
X570153Y549080D01*
X568499Y549765D01*
D02*
G37*
G36*
X587895Y539000D02*
X586105D01*
X584451Y538315D01*
X583185Y537049D01*
X582500Y535395D01*
Y533605D01*
X583185Y531951D01*
X584451Y530685D01*
X586105Y530000D01*
X587895D01*
X589549Y530685D01*
X590815Y531951D01*
X591500Y533605D01*
Y535395D01*
X590815Y537049D01*
X589549Y538315D01*
X587895Y539000D01*
D02*
G37*
G36*
X453176Y586574D02*
X451386D01*
X449732Y585889D01*
X448466Y584623D01*
X447781Y582969D01*
Y581179D01*
X448466Y579525D01*
X449732Y578259D01*
X451386Y577574D01*
X453176D01*
X454830Y578259D01*
X456096Y579525D01*
X456781Y581179D01*
Y582969D01*
X456096Y584623D01*
X454830Y585889D01*
X453176Y586574D01*
D02*
G37*
G36*
X442895Y590250D02*
X441105D01*
X439451Y589565D01*
X438185Y588299D01*
X437500Y586645D01*
Y584855D01*
X438185Y583201D01*
X438845Y582541D01*
Y581480D01*
X429026Y571662D01*
X428771Y571768D01*
X426981D01*
X425327Y571082D01*
X424061Y569817D01*
X423376Y568163D01*
Y566372D01*
X424061Y564719D01*
X425327Y563453D01*
X426981Y562767D01*
X428771D01*
X430425Y563453D01*
X431691Y564719D01*
X432376Y566372D01*
Y568163D01*
X432271Y568418D01*
X442761Y578908D01*
X443258Y579652D01*
X443433Y580530D01*
Y581473D01*
X444549Y581935D01*
X445815Y583201D01*
X446500Y584855D01*
Y586645D01*
X445815Y588299D01*
X444549Y589565D01*
X442895Y590250D01*
D02*
G37*
G36*
X436802Y447425D02*
X435012D01*
X433358Y446740D01*
X432092Y445475D01*
X431407Y443820D01*
Y442030D01*
X432092Y440376D01*
X433358Y439110D01*
X435012Y438425D01*
X436802D01*
X438456Y439110D01*
X439722Y440376D01*
X440407Y442030D01*
Y443820D01*
X439722Y445475D01*
X438456Y446740D01*
X436802Y447425D01*
D02*
G37*
G36*
X438052Y436925D02*
X436262D01*
X434608Y436240D01*
X433342Y434975D01*
X432657Y433321D01*
Y431530D01*
X433342Y429876D01*
X434608Y428610D01*
X436262Y427925D01*
X438052D01*
X439706Y428610D01*
X440972Y429876D01*
X441657Y431530D01*
Y433321D01*
X440972Y434975D01*
X439706Y436240D01*
X438052Y436925D01*
D02*
G37*
G36*
X489802Y515884D02*
X488012D01*
X486358Y515199D01*
X485092Y513933D01*
X484407Y512279D01*
Y510489D01*
X485092Y508835D01*
X486358Y507569D01*
X488012Y506884D01*
X489802D01*
X491456Y507569D01*
X492722Y508835D01*
X493407Y510489D01*
Y512279D01*
X492722Y513933D01*
X491456Y515199D01*
X489802Y515884D01*
D02*
G37*
%LPD*%
D10*
X723078Y487250D02*
X735250Y475078D01*
X721166Y397975D02*
X738250Y415060D01*
X720127Y494444D02*
X738250Y476321D01*
X723750Y416750D02*
Y435325D01*
X719750Y412750D02*
X723750Y416750D01*
X734500Y441833D02*
X735250Y442583D01*
X738250Y441340D02*
X738250Y441340D01*
X717750Y432750D02*
X720000Y435000D01*
X723750Y435325D02*
X732250Y443825D01*
X730500Y456925D02*
X732250Y455175D01*
X720000Y435000D02*
Y450667D01*
X738250Y441340D02*
Y476321D01*
X735250Y442583D02*
Y475078D01*
X732250Y443825D02*
Y455175D01*
X738250Y415060D02*
Y441340D01*
X720000Y450667D02*
X724629Y455296D01*
X734500Y422500D02*
Y441833D01*
X717750Y427618D02*
Y432750D01*
X707214Y451013D02*
Y452074D01*
X710644Y455504D01*
X705627Y449425D02*
X707214Y451013D01*
X709575Y468737D02*
X713925D01*
X717000Y465661D01*
Y465175D02*
Y465661D01*
X695000Y422000D02*
Y433000D01*
X718000Y456000D02*
Y464175D01*
X710644Y455504D02*
Y456069D01*
X708839Y468000D02*
X709575Y468737D01*
X695000Y433000D02*
X718000Y456000D01*
X698367Y468000D02*
X708839D01*
X717000Y465175D02*
X718000Y464175D01*
X625600Y352600D02*
X695000Y422000D01*
X724629Y455296D02*
Y463390D01*
X730500Y456925D02*
Y472121D01*
X660250Y371007D02*
X701993Y412750D01*
X719750D01*
X714382Y424250D02*
X717750Y427618D01*
X709250Y424250D02*
X714382D01*
X644850Y359850D02*
X709250Y424250D01*
X660250Y351196D02*
Y371007D01*
X644850Y305000D02*
Y359850D01*
X706250Y394382D02*
X709701Y397833D01*
X706250Y394250D02*
Y394382D01*
X712776Y408475D02*
X720475D01*
X680500Y368500D02*
X706250Y394250D01*
X680500Y320400D02*
Y368500D01*
X709701Y405400D02*
X712776Y408475D01*
X709701Y397833D02*
Y405400D01*
X720475Y408475D02*
X734500Y422500D01*
X625600Y291871D02*
Y352600D01*
X653029Y449425D02*
X705627D01*
X723127Y512455D02*
X728332Y507250D01*
X720127Y494444D02*
Y573384D01*
X723127Y572142D02*
X728250Y577265D01*
X723127Y512455D02*
Y572142D01*
X720127Y573384D02*
X723000Y576258D01*
X634250Y503075D02*
X643907Y512732D01*
Y580106D02*
X712048Y648247D01*
X643907Y512732D02*
Y580106D01*
X363350Y629000D02*
X405350Y671000D01*
X315879Y629000D02*
X363350D01*
X315000Y628121D02*
X315879Y629000D01*
X315000Y604379D02*
Y628121D01*
X477425Y619235D02*
X480410Y616250D01*
X507350D02*
Y655000D01*
Y615150D02*
Y616250D01*
X480410D02*
X506750D01*
X321048Y622750D02*
X327548Y616250D01*
X470090D01*
X473075Y619235D02*
X477425D01*
X470090Y616250D02*
X473075Y619235D01*
X507350Y655000D02*
Y729750D01*
X321048Y610147D02*
X327694Y603500D01*
X470000D01*
X315879D02*
X327694D01*
X441139Y584889D02*
X442000Y585750D01*
X427876Y567267D02*
X441139Y580530D01*
Y584889D01*
X403350Y577157D02*
Y596250D01*
X487908Y755516D02*
Y755908D01*
Y749192D02*
Y755516D01*
Y755908D02*
X488000Y756000D01*
X487908Y749192D02*
X507350Y729750D01*
X533250Y717075D02*
Y734100D01*
X499850Y767500D02*
X533250Y734100D01*
X595512Y677262D02*
Y685783D01*
X595220Y686075D02*
X595512Y685783D01*
X556000Y461257D02*
Y488871D01*
X530469Y363020D02*
X572842Y320648D01*
X556879Y489750D02*
X564580D01*
X556000Y461257D02*
X594907Y422350D01*
X530469Y363020D02*
Y540113D01*
X522083Y548500D02*
X530469Y540113D01*
X556000Y488871D02*
X556879Y489750D01*
X625240Y291511D02*
X625600Y291871D01*
X572842Y320648D02*
X572952D01*
X609284Y579338D02*
X617850Y587904D01*
X610600Y670821D02*
X617850Y663571D01*
X602850Y632221D02*
Y674167D01*
X617850Y587904D02*
Y663571D01*
X610600Y670821D02*
Y686607D01*
X557676Y587118D02*
X602779Y632221D01*
X601711Y675306D02*
X602850Y674167D01*
X609909Y687298D02*
X610600Y686607D01*
X622907Y521075D02*
Y602604D01*
X645576Y625273D01*
X633407Y517034D02*
Y573849D01*
X685850Y626291D01*
X609284Y526480D02*
Y579338D01*
Y526480D02*
X612407Y523357D01*
X611750Y488575D02*
X628270Y472056D01*
X612407Y506295D02*
Y523357D01*
X611750Y505638D02*
X612407Y506295D01*
X611750Y488575D02*
Y505638D01*
X645576Y625273D02*
X650023D01*
X507350Y615150D02*
X522500Y600000D01*
X650023Y625273D02*
X672000Y647250D01*
X601711Y675306D02*
Y678488D01*
X600850Y679349D02*
X601711Y678488D01*
X595512Y677262D02*
X599100Y673675D01*
Y664000D02*
Y673675D01*
X564100Y629000D02*
X599100Y664000D01*
X522750Y600400D02*
X593850Y671500D01*
X638040Y441317D02*
X644134D01*
X637973Y441250D02*
X638040Y441317D01*
X695240Y464873D02*
X698367Y468000D01*
X651264Y464873D02*
X695240D01*
X638250Y477750D02*
X640325Y475675D01*
X694882Y473000D02*
X697878Y475997D01*
X671879Y475676D02*
X674555Y473000D01*
X726625Y475997D02*
X730500Y472121D01*
X638250Y482193D02*
X642440Y486383D01*
X699121Y472997D02*
X715022D01*
X640325Y475675D02*
X646582D01*
X697878Y475997D02*
X726625D01*
X715022Y472997D02*
X724629Y463390D01*
X674555Y473000D02*
X694882D01*
X638250Y477750D02*
Y482193D01*
X696124Y470000D02*
X699121Y472997D01*
X585425Y446500D02*
X639656D01*
X564500Y467425D02*
X585425Y446500D01*
X639656D02*
X642406Y449250D01*
X641750Y467750D02*
X642518Y468518D01*
Y471211D01*
X643983Y472675D02*
X647825D01*
X642518Y471211D02*
X643983Y472675D01*
X647825Y472676D02*
X670637D01*
X647825Y472675D02*
X647825Y472676D01*
X670637D02*
X673312Y470000D01*
X646582Y475676D02*
X671879D01*
X673312Y470000D02*
X696124D01*
X646582Y475675D02*
X646582Y475676D01*
X639483Y461675D02*
X647037D01*
X651862Y456850D01*
Y452501D02*
Y456850D01*
X644134Y441317D02*
X649067Y446250D01*
X728250Y577265D02*
Y612775D01*
X723000Y576258D02*
Y610000D01*
Y618025D02*
X728250Y612775D01*
X415445Y405434D02*
X416629Y404250D01*
X460169Y382250D02*
X471425D01*
X415445Y405434D02*
Y546477D01*
X438169Y404250D02*
X460169Y382250D01*
X416629Y404250D02*
X438169D01*
X658100Y298000D02*
X680500Y320400D01*
X657000Y298000D02*
X658100D01*
X551485Y603015D02*
X568235Y619765D01*
X567000Y620000D02*
X568000D01*
X564100Y622900D02*
Y629000D01*
Y622900D02*
X567000Y620000D01*
X507250Y616500D02*
Y655000D01*
X415445Y546477D02*
X415750Y546782D01*
X403350Y577157D02*
X415750Y564757D01*
Y546782D02*
Y564757D01*
X572952Y320648D02*
X580600Y313000D01*
X727250Y709500D02*
X738250Y698500D01*
Y539955D02*
Y698500D01*
X730907Y532613D02*
X738250Y539955D01*
X723000Y618025D02*
Y637999D01*
X726876Y641876D01*
X685850Y626291D02*
Y705673D01*
X728377Y519127D02*
Y520345D01*
X730907Y522875D02*
Y532613D01*
X728377Y520345D02*
X730907Y522875D01*
X590250Y610729D02*
Y611500D01*
X581907Y602386D02*
X590250Y610729D01*
X581907Y547907D02*
Y602386D01*
X557676Y536675D02*
Y587118D01*
X550375Y529375D02*
X557676Y536675D01*
X542500Y508500D02*
X581907Y547907D01*
X538890Y529375D02*
X550375D01*
X528140Y554134D02*
Y579670D01*
X528088Y554082D02*
X528140Y554134D01*
X456500Y397639D02*
X456555Y397695D01*
X456500Y393075D02*
Y397639D01*
X462075Y387500D02*
X469250D01*
X456500Y393075D02*
X462075Y387500D01*
X456555Y397695D02*
Y536291D01*
X476861Y387686D02*
Y396629D01*
X471425Y382250D02*
X476861Y387686D01*
X468000Y676500D02*
X481500Y663000D01*
X730000Y777000D02*
X744827Y762173D01*
X730157Y494925D02*
X744827Y509595D01*
Y762173D01*
X728332Y507250D02*
X728500D01*
X688225Y487250D02*
X723078D01*
X726876Y641876D02*
Y663268D01*
X500250Y314350D02*
X545600Y269000D01*
X500250Y314350D02*
Y534075D01*
X513500Y547325D01*
X489350Y454417D02*
X495407Y460475D01*
Y477175D01*
X486250Y484250D02*
X487186Y483314D01*
X475325Y475000D02*
X490157D01*
X489268Y483314D02*
X495407Y477175D01*
X487186Y483314D02*
X489268D01*
X645374Y486383D02*
X649518Y490527D01*
X642440Y486383D02*
X645374D01*
X468500Y582750D02*
X474000Y588250D01*
X489350Y435970D02*
Y454417D01*
Y435970D02*
X489587Y435733D01*
X633988Y467170D02*
X639483Y461675D01*
X628270Y468646D02*
X638240Y458675D01*
X642612D01*
X628270Y468646D02*
Y472056D01*
X633988Y467170D02*
Y499064D01*
X642406Y449250D02*
X648250D01*
X521750Y549250D02*
X522268Y549768D01*
Y553344D02*
X522750Y553825D01*
X521250Y548500D02*
X522083D01*
X522268Y549768D02*
Y553344D01*
X522750Y553825D02*
Y600000D01*
X476861Y396629D02*
X485250Y405018D01*
Y405250D01*
X438750Y554097D02*
X456555Y536291D01*
X681900Y480925D02*
X688225Y487250D01*
X644407Y480925D02*
X681900D01*
X583750Y480500D02*
Y480500D01*
X565580Y488750D02*
X567275D01*
X568975Y487050D01*
X577200D01*
X583750Y480500D01*
X564580Y489750D02*
X565580Y488750D01*
X594907Y387925D02*
Y422350D01*
X564500Y467425D02*
Y483500D01*
X620409Y518577D02*
X622907Y521075D01*
X620409Y507758D02*
Y518577D01*
X629758Y513258D02*
Y513385D01*
X633407Y517034D01*
X685850Y705673D02*
X712048Y731871D01*
Y737147D01*
X634250Y499325D02*
Y503075D01*
X633988Y499064D02*
X634250Y499325D01*
X468500Y525993D02*
Y582750D01*
X470013Y491448D02*
Y524480D01*
X468750Y481575D02*
Y490185D01*
X470013Y491448D01*
X468500Y525993D02*
X470013Y524480D01*
X468750Y481575D02*
X475325Y475000D01*
X650604Y447000D02*
X653029Y449425D01*
X650243Y447000D02*
X650604D01*
X649493Y446250D02*
X650243Y447000D01*
X649067Y446250D02*
X649493D01*
X648250Y449250D02*
X649000Y450000D01*
X649361D02*
X651862Y452501D01*
X642612Y458675D02*
X646612Y454675D01*
X649000Y450000D02*
X649361D01*
X504250Y556000D02*
Y556250D01*
Y555575D02*
Y556000D01*
X474000Y483750D02*
Y521325D01*
X500750Y548075D01*
Y552076D01*
X504250Y555575D01*
X528140Y579670D02*
X551470Y603000D01*
X591025Y681750D02*
X595512Y677262D01*
X568575Y681750D02*
X591025D01*
X533250Y717075D02*
X568575Y681750D01*
X513750Y548250D02*
Y552250D01*
X513500Y547325D02*
Y548250D01*
Y540489D02*
Y547325D01*
X512850Y530000D02*
Y539839D01*
X513500Y540489D01*
X470000Y603500D02*
X517250Y556250D01*
X315000Y604379D02*
X315879Y603500D01*
X393850Y682500D02*
X405350Y671000D01*
Y662400D02*
Y671000D01*
Y662400D02*
X405750Y662000D01*
X481500Y663000D02*
X499250D01*
X517250Y556250D02*
Y556250D01*
X513750Y552250D02*
X517250Y555750D01*
X499250Y663000D02*
X507250Y655000D01*
X464750Y697500D02*
X499250Y663000D01*
D58*
X493850Y758150D02*
Y769985D01*
Y758150D02*
X518250Y733750D01*
Y670518D02*
Y733750D01*
Y653500D02*
Y670518D01*
X735000Y486995D02*
Y488000D01*
Y486995D02*
X742000Y479995D01*
Y325194D02*
Y479995D01*
Y325194D02*
X751048Y316147D01*
X596000Y697000D02*
X601000Y692000D01*
X596000Y697000D02*
X599000D01*
X599350D02*
Y703475D01*
X618823Y697000D02*
X659823Y656000D01*
X594000Y699000D02*
X596000Y697000D01*
X599350D02*
X618823D01*
X538272Y315715D02*
X544219Y309767D01*
X538272Y315715D02*
Y316728D01*
X531750Y323250D02*
X538272Y316728D01*
X576865Y699000D02*
X594000D01*
X659823Y648177D02*
Y656000D01*
Y648177D02*
X660000Y648000D01*
X550750Y494750D02*
X566894Y510894D01*
X550750Y468500D02*
Y494750D01*
X551250Y384750D02*
Y468000D01*
X637000Y260000D02*
Y261000D01*
X590391Y318018D02*
X590611D01*
X613719Y294909D01*
Y284280D02*
Y294909D01*
Y284280D02*
X637000Y261000D01*
X578000Y330409D02*
X590391Y318018D01*
X578000Y330409D02*
Y358000D01*
X551250Y384750D02*
X578000Y358000D01*
X566894Y510894D02*
X585894D01*
X597788Y522788D01*
Y583752D01*
X610575Y596540D01*
Y626424D01*
X606600Y630400D02*
X610575Y626424D01*
X606600Y630400D02*
Y674292D01*
X601000Y687684D02*
Y692000D01*
X606600Y674292D02*
X606850Y674542D01*
X601000Y687684D02*
X606850Y681834D01*
Y674542D02*
Y681834D01*
X493850Y769985D02*
X498622Y774757D01*
X501107D01*
X576865Y699000D01*
X544219Y309767D02*
X564268D01*
X564750Y310250D01*
D62*
X710644Y456069D02*
D03*
X721166Y397975D02*
D03*
X712209Y532550D02*
D03*
X709000Y546050D02*
D03*
X660250Y351196D02*
D03*
X442000Y585750D02*
D03*
X403350Y596250D02*
D03*
X426000Y585750D02*
D03*
X595220Y686075D02*
D03*
X531750Y323250D02*
D03*
X597600Y649000D02*
D03*
X609909Y687298D02*
D03*
X607521Y585000D02*
D03*
X507350Y729750D02*
D03*
X524250Y716925D02*
D03*
X625240Y291511D02*
D03*
X672000Y647250D02*
D03*
X600850Y679349D02*
D03*
X593850Y671500D02*
D03*
X499850Y767500D02*
D03*
X637973Y441250D02*
D03*
X651264Y464873D02*
D03*
X641657Y466925D02*
D03*
X723000Y610000D02*
D03*
X564750Y310250D02*
D03*
X657000Y298000D02*
D03*
X528907Y689925D02*
D03*
X547000Y583000D02*
D03*
X494891Y624065D02*
D03*
X444750Y634000D02*
D03*
X403000Y509000D02*
D03*
X410000Y423000D02*
D03*
X482907Y391925D02*
D03*
X503907Y263925D02*
D03*
X507000Y343000D02*
D03*
X544907Y383925D02*
D03*
X572000Y328914D02*
D03*
X728377Y519127D02*
D03*
X590250Y611500D02*
D03*
X538890Y529375D02*
D03*
X528088Y554082D02*
D03*
X360048Y265850D02*
D03*
X469250Y387500D02*
D03*
X712048Y762547D02*
D03*
X468000Y676500D02*
D03*
X729376Y777268D02*
D03*
X728656Y506925D02*
D03*
X734645Y487350D02*
D03*
X712048Y493246D02*
D03*
X518126Y670518D02*
D03*
X727376Y709017D02*
D03*
X726876Y663268D02*
D03*
X751048Y533947D02*
D03*
X427876Y567267D02*
D03*
X490157Y475000D02*
D03*
X518250Y653500D02*
D03*
X474100Y589000D02*
D03*
X489587Y435733D02*
D03*
X521407Y549175D02*
D03*
X712093Y507127D02*
D03*
X584250Y480000D02*
D03*
X620409Y507758D02*
D03*
X629758Y513258D02*
D03*
X649518Y490527D02*
D03*
X565100Y483500D02*
D03*
X644850Y305000D02*
D03*
X646612Y454675D02*
D03*
X712048Y648247D02*
D03*
X438750Y554097D02*
D03*
X474000Y483750D02*
D03*
X551500Y603000D02*
D03*
X543100Y508500D02*
D03*
X512850Y530000D02*
D03*
X321048Y622750D02*
D03*
X393850Y682500D02*
D03*
X405350Y661500D02*
D03*
X545600Y269000D02*
D03*
X580600Y313000D02*
D03*
X464750Y697500D02*
D03*
X486157Y484175D02*
D03*
X485657Y405425D02*
D03*
X594907Y387925D02*
D03*
X644407Y480925D02*
D03*
X730157Y494925D02*
D03*
X517500Y556000D02*
D03*
X504250D02*
D03*
X712048Y775422D02*
D03*
X751048Y775247D02*
D03*
Y762547D02*
D03*
Y749847D02*
D03*
X712048D02*
D03*
Y737147D02*
D03*
X751048Y546647D02*
D03*
Y506647D02*
D03*
Y493947D02*
D03*
Y316147D02*
D03*
X321048Y265347D02*
D03*
X360048Y278047D02*
D03*
X321048D02*
D03*
X360048Y290747D02*
D03*
X321048D02*
D03*
X360048Y493947D02*
D03*
X321048D02*
D03*
X360048Y506647D02*
D03*
X321048D02*
D03*
X360048Y533947D02*
D03*
X321048D02*
D03*
Y546647D02*
D03*
X360048D02*
D03*
X321048Y610147D02*
D03*
D63*
X577000Y721131D02*
D03*
X578254Y740903D02*
D03*
X557000Y732000D02*
D03*
X632000D02*
D03*
X487908Y755516D02*
D03*
X594000Y476000D02*
D03*
X599350Y703475D02*
D03*
X662250Y343450D02*
D03*
X660000Y648000D02*
D03*
X550250Y468000D02*
D03*
X638000Y260000D02*
D03*
X602000Y376000D02*
D03*
X637000Y410000D02*
D03*
X692500Y481425D02*
D03*
M02*
