G04*
G04 #@! TF.GenerationSoftware,Altium Limited,Altium Designer,23.6.0 (18)*
G04*
G04 Layer_Physical_Order=4*
G04 Layer_Color=16711680*
%FSLAX44Y44*%
%MOMM*%
G71*
G04*
G04 #@! TF.SameCoordinates,1B3FBE08-8921-405D-8673-E2F24B904F06*
G04*
G04*
G04 #@! TF.FilePolarity,Positive*
G04*
G01*
G75*
%ADD10C,0.1500*%
%ADD18R,1.1000X1.0000*%
%ADD19R,1.0000X1.1000*%
%ADD58C,0.3000*%
%ADD59C,0.6000*%
%ADD60O,0.9000X1.7000*%
%ADD61O,0.9000X2.0000*%
%ADD62C,0.6000*%
%ADD63C,0.7000*%
%ADD64R,8.1300X8.1300*%
%ADD65R,0.9900X2.7900*%
%ADD66R,1.4000X2.7900*%
%ADD67R,1.0000X1.5000*%
%ADD68R,0.7000X1.6000*%
%ADD69R,0.6000X1.1400*%
%ADD70R,0.3000X1.1400*%
%ADD71R,2.8000X2.2000*%
%ADD72R,0.8000X1.6000*%
%ADD73R,2.1000X3.0000*%
%ADD74R,2.6000X1.9000*%
%ADD75R,1.2000X0.4500*%
G36*
X761409Y461803D02*
X760139Y461277D01*
X758877Y462538D01*
X758216Y462980D01*
X757435Y463136D01*
X755737D01*
X755066Y464406D01*
X755335Y464800D01*
X758750D01*
Y471800D01*
X753917D01*
X753691Y472027D01*
X751945Y472750D01*
X750055D01*
X748309Y472027D01*
X748083Y471800D01*
X744250D01*
Y464800D01*
X746665D01*
X746934Y464406D01*
X746263Y463136D01*
X745565D01*
X745564Y463136D01*
X744784Y462980D01*
X744123Y462538D01*
X744123Y462538D01*
X736808Y455224D01*
X736366Y454562D01*
X736211Y453782D01*
Y425845D01*
X724974Y414608D01*
X724532Y413946D01*
X724377Y413166D01*
Y402434D01*
X723107Y401772D01*
X722011Y402225D01*
X720320D01*
X719750Y402607D01*
Y408300D01*
X705789D01*
Y414000D01*
X710155D01*
X710155Y414000D01*
X711845D01*
X711845Y414000D01*
X719750D01*
Y421000D01*
X714260D01*
X713407Y421853D01*
X711845Y422500D01*
X710155D01*
X708593Y421853D01*
X707740Y421000D01*
X705789D01*
Y426700D01*
X708583D01*
X709309Y425973D01*
X711055Y425250D01*
X712945D01*
X714691Y425973D01*
X715417Y426700D01*
X719750D01*
Y432153D01*
X721020Y432679D01*
X724780Y428919D01*
X724750Y428845D01*
Y427155D01*
X725397Y425593D01*
X726593Y424397D01*
X728155Y423750D01*
X729845D01*
X731407Y424397D01*
X732603Y425593D01*
X733250Y427155D01*
Y428845D01*
X732603Y430407D01*
X731407Y431603D01*
X729845Y432250D01*
X728155D01*
X727491Y431975D01*
X723789Y435677D01*
Y441541D01*
X725059Y442204D01*
X726155Y441750D01*
X727845D01*
X729408Y442397D01*
X730603Y443593D01*
X731250Y445155D01*
Y446845D01*
X730603Y448407D01*
X729789Y449221D01*
Y471702D01*
X741337Y483250D01*
X741337Y483250D01*
X741779Y483912D01*
X741935Y484692D01*
Y503111D01*
X741779Y503892D01*
X741337Y504553D01*
X741337Y504553D01*
X732173Y513718D01*
X731511Y514160D01*
X731037Y514254D01*
X730801Y515392D01*
X730812Y515551D01*
X731980Y516719D01*
X731994Y516753D01*
X733039Y516960D01*
X733416Y516867D01*
X734905Y516250D01*
X736595D01*
X738157Y516897D01*
X739353Y518093D01*
X739868Y519336D01*
X740890Y519597D01*
X741237Y519574D01*
X741277Y519514D01*
X743557Y517234D01*
X743557Y517234D01*
X744219Y516791D01*
X744999Y516636D01*
X748902D01*
X749054Y516268D01*
X750250Y515073D01*
X751812Y514425D01*
X753503D01*
X755065Y515073D01*
X756260Y516268D01*
X756907Y517830D01*
Y519521D01*
X756260Y521083D01*
X755065Y522278D01*
X753503Y522925D01*
X751812D01*
X750250Y522278D01*
X749054Y521083D01*
X748902Y520715D01*
X745844D01*
X744758Y521801D01*
Y522667D01*
X744758Y522667D01*
X744603Y523447D01*
X744161Y524109D01*
X744161Y524109D01*
X743340Y524929D01*
X743827Y526105D01*
Y527795D01*
X743180Y529357D01*
X741985Y530553D01*
X740423Y531200D01*
X738732D01*
X737170Y530553D01*
X735974Y529357D01*
X735327Y527795D01*
Y526105D01*
X735411Y525904D01*
X734571Y524612D01*
X733343Y524103D01*
X732147Y522907D01*
X732133Y522874D01*
X731088Y522666D01*
X730711Y522760D01*
X729222Y523377D01*
X727531D01*
X726436Y522923D01*
X725166Y523586D01*
Y527808D01*
X725192Y527833D01*
X725192Y527834D01*
X725634Y528495D01*
X725789Y529275D01*
X725789Y529276D01*
Y541404D01*
X727059Y541930D01*
X727593Y541397D01*
X729155Y540750D01*
X730845D01*
X732407Y541397D01*
X733603Y542593D01*
X734250Y544155D01*
Y545845D01*
X733809Y546910D01*
X735192Y548293D01*
X735192Y548293D01*
X735634Y548955D01*
X735789Y549735D01*
X735789Y549735D01*
Y688982D01*
X735789Y688982D01*
X735634Y689762D01*
X735192Y690424D01*
X719789Y705827D01*
Y710000D01*
X719750Y710197D01*
Y715000D01*
X714805D01*
X714455Y715350D01*
X712893Y715997D01*
X711202D01*
X709966Y715484D01*
X709778Y715580D01*
X709134Y716902D01*
X709289Y717682D01*
X709289Y717682D01*
Y719738D01*
X710559Y720463D01*
X711202Y720197D01*
X712893D01*
X714109Y720700D01*
X719750D01*
Y727700D01*
X714805D01*
X714455Y728049D01*
X712893Y728697D01*
X711202D01*
X709640Y728049D01*
X709291Y727700D01*
X705250D01*
Y722897D01*
X705211Y722700D01*
Y718527D01*
X702308Y715624D01*
X701866Y714962D01*
X701711Y714182D01*
Y636661D01*
X701250Y636353D01*
X689816D01*
X689078Y637623D01*
X689333Y638907D01*
Y679541D01*
X693214Y683422D01*
X694153Y684828D01*
X694483Y686486D01*
Y694235D01*
X694483Y694235D01*
Y775514D01*
X694154Y777172D01*
X693214Y778578D01*
X692115Y779677D01*
X692601Y780850D01*
X725289D01*
X725775Y779677D01*
X725773Y779675D01*
X725126Y778113D01*
Y776422D01*
X725773Y774860D01*
X726969Y773664D01*
X728531Y773018D01*
X730222D01*
X731784Y773664D01*
X732979Y774860D01*
X733626Y776422D01*
Y778113D01*
X732979Y779675D01*
X732977Y779677D01*
X733463Y780850D01*
X761409D01*
Y461803D01*
D02*
G37*
G36*
X685817Y773719D02*
Y694235D01*
X685817Y694235D01*
Y688281D01*
X681936Y684400D01*
X680997Y682994D01*
X680667Y681336D01*
Y650132D01*
X680250Y649853D01*
X676737D01*
X676526Y649817D01*
X676473Y649827D01*
X675603Y649658D01*
X674407Y650853D01*
X672845Y651500D01*
X671155D01*
X669593Y650853D01*
X668397Y649658D01*
X667527Y649827D01*
X667474Y649817D01*
X667263Y649853D01*
X665000D01*
X664244Y650166D01*
X664027Y650691D01*
X662691Y652027D01*
X660945Y652750D01*
X659055D01*
X657559Y652130D01*
X656289Y652666D01*
Y665750D01*
X656134Y666530D01*
X655692Y667192D01*
X637592Y685292D01*
X636930Y685734D01*
X636150Y685889D01*
X626808D01*
X626347Y687001D01*
X625151Y688197D01*
X623589Y688844D01*
X621898D01*
X620336Y688197D01*
X619141Y687001D01*
X618839Y686272D01*
X618379Y685458D01*
X617306Y685637D01*
X616695Y685890D01*
X615301D01*
X614802Y686136D01*
X614159Y686915D01*
Y688143D01*
X613512Y689705D01*
X612317Y690901D01*
X610755Y691548D01*
X609064D01*
X607502Y690901D01*
X606306Y689705D01*
X605659Y688143D01*
Y686452D01*
X606306Y684890D01*
X607502Y683695D01*
X609064Y683048D01*
X610458D01*
X610958Y682802D01*
X611600Y682023D01*
Y680795D01*
X611640Y680698D01*
X595750Y664809D01*
X594620D01*
X594619Y664809D01*
X593839Y664653D01*
X593178Y664211D01*
X593177Y664211D01*
X574808Y645842D01*
X574366Y645180D01*
X574211Y644400D01*
Y584650D01*
X572941Y584123D01*
X572228Y584837D01*
X570665Y585484D01*
X569831D01*
X568955Y585556D01*
X568657Y586657D01*
Y587271D01*
X568010Y588833D01*
X566815Y590028D01*
X566446Y590181D01*
Y607842D01*
X566446Y607843D01*
X566291Y608623D01*
X565849Y609285D01*
X565849Y609285D01*
X557848Y617286D01*
X558000Y617655D01*
Y619345D01*
X557353Y620907D01*
X556157Y622103D01*
X554595Y622750D01*
X552905D01*
X551545Y622187D01*
X550275Y622695D01*
Y663252D01*
X550643Y663405D01*
X551839Y664600D01*
X552486Y666162D01*
Y667853D01*
X551839Y669415D01*
X550643Y670611D01*
X549081Y671258D01*
X547390D01*
X546295Y670804D01*
X545025Y671467D01*
Y674341D01*
X545234Y674654D01*
X545389Y675434D01*
Y683995D01*
X545757Y684147D01*
X546953Y685343D01*
X547600Y686905D01*
Y688595D01*
X546953Y690157D01*
X545757Y691353D01*
X544195Y692000D01*
X542505D01*
X540943Y691353D01*
X539747Y690157D01*
X539100Y688595D01*
Y686905D01*
X539747Y685343D01*
X540943Y684147D01*
X541311Y683995D01*
Y676163D01*
X541102Y675851D01*
X540947Y675070D01*
Y604090D01*
X541102Y603309D01*
X541544Y602648D01*
X550211Y593981D01*
Y547713D01*
X549343Y547353D01*
X548147Y546157D01*
X547500Y544595D01*
Y542905D01*
X548147Y541343D01*
X549343Y540147D01*
X550905Y539500D01*
X552595D01*
X554157Y540147D01*
X555353Y541343D01*
X556000Y542905D01*
Y544595D01*
X555353Y546157D01*
X554289Y547221D01*
Y594825D01*
X554289Y594825D01*
X554134Y595606D01*
X553692Y596267D01*
X553692Y596267D01*
X552383Y597577D01*
X552812Y598943D01*
X553907Y599397D01*
X554366Y599856D01*
X555636Y599330D01*
Y554675D01*
X555792Y553895D01*
X556233Y553233D01*
X563354Y546113D01*
X563354Y546111D01*
Y544420D01*
X564001Y542858D01*
X565196Y541662D01*
X566758Y541015D01*
X568449D01*
X570011Y541662D01*
X571207Y542858D01*
X571789Y544264D01*
X572634Y544645D01*
X573124Y544753D01*
X573702Y544366D01*
X574483Y544211D01*
X574483Y544211D01*
X578832D01*
X579612Y544366D01*
X580274Y544808D01*
X581646Y546180D01*
X583195Y545948D01*
X583513Y545373D01*
X583383Y544894D01*
X582767Y544483D01*
X582767Y544483D01*
X561331Y523046D01*
X559919D01*
X538483Y544483D01*
X537573Y545090D01*
X537362Y545132D01*
X536993Y546501D01*
X537760Y547268D01*
X538407Y548830D01*
Y550521D01*
X537760Y552083D01*
X536565Y553278D01*
X536197Y553431D01*
Y617617D01*
X536041Y618398D01*
X535599Y619059D01*
X535599Y619059D01*
X529665Y624993D01*
Y644512D01*
X530034Y644665D01*
X531229Y645860D01*
X531876Y647422D01*
Y649113D01*
X531229Y650675D01*
X530034Y651870D01*
X528472Y652517D01*
X526781D01*
X525219Y651870D01*
X524023Y650675D01*
X523376Y649113D01*
Y647422D01*
X524023Y645860D01*
X525219Y644665D01*
X525587Y644512D01*
Y625423D01*
X525195Y624250D01*
X524411Y624250D01*
X523505D01*
X521943Y623603D01*
X520747Y622407D01*
X520100Y620845D01*
Y619155D01*
X520747Y617593D01*
X521943Y616397D01*
X523505Y615750D01*
X525195D01*
X526758Y616397D01*
X527953Y617593D01*
X528407Y618688D01*
X529773Y619117D01*
X532118Y616773D01*
Y557859D01*
X530848Y557333D01*
X530496Y557685D01*
X528934Y558332D01*
X527243D01*
X525681Y557685D01*
X524485Y556489D01*
X523838Y554927D01*
X522609Y554045D01*
X522577Y554054D01*
X521750Y555155D01*
Y556845D01*
X521103Y558407D01*
X519907Y559603D01*
X518345Y560250D01*
X516655D01*
X515093Y559603D01*
X513897Y558407D01*
X513250Y556845D01*
Y555155D01*
X513897Y553593D01*
X515093Y552397D01*
X516655Y551750D01*
X517347Y550480D01*
X517157Y550021D01*
Y548330D01*
X517804Y546768D01*
X517999Y546574D01*
X517472Y545304D01*
X511823D01*
X511297Y546574D01*
X512074Y547351D01*
X512721Y548913D01*
Y550604D01*
X512074Y552166D01*
X510879Y553362D01*
X509317Y554009D01*
X509168D01*
X508463Y555065D01*
X508500Y555155D01*
Y556845D01*
X507853Y558407D01*
X506657Y559603D01*
X505562Y560057D01*
X505133Y561423D01*
X508197Y564488D01*
X508724Y564840D01*
X517692Y573808D01*
X518134Y574470D01*
X518289Y575250D01*
Y577744D01*
X518657Y577897D01*
X519853Y579093D01*
X520500Y580655D01*
Y582345D01*
X519853Y583907D01*
X518657Y585103D01*
X517095Y585750D01*
X515405D01*
X514309Y585296D01*
X514129Y585375D01*
X513603Y586620D01*
X513634Y586666D01*
X513789Y587447D01*
X513789Y587447D01*
Y650154D01*
X515059Y650680D01*
X515843Y649897D01*
X517405Y649250D01*
X519095D01*
X520657Y649897D01*
X521853Y651093D01*
X522500Y652655D01*
Y654345D01*
X521853Y655907D01*
X520657Y657103D01*
X519095Y657750D01*
X517405D01*
X515843Y657103D01*
X515059Y656320D01*
X513789Y656846D01*
Y667048D01*
X515059Y667574D01*
X515719Y666915D01*
X517281Y666267D01*
X518972D01*
X520534Y666915D01*
X521729Y668110D01*
X522376Y669672D01*
Y671363D01*
X521729Y672925D01*
X520534Y674120D01*
X518972Y674768D01*
X517281D01*
X515719Y674120D01*
X515059Y673461D01*
X513789Y673987D01*
Y706621D01*
X513634Y707402D01*
X513192Y708063D01*
X511563Y709692D01*
X510902Y710134D01*
X510121Y710289D01*
X444095D01*
X441539Y712845D01*
Y720547D01*
X442260Y721268D01*
X442907Y722830D01*
Y724521D01*
X442260Y726083D01*
X441065Y727278D01*
X439503Y727925D01*
X437812D01*
X436250Y727278D01*
X435054Y726083D01*
X434407Y724521D01*
Y722830D01*
X435054Y721268D01*
X436250Y720072D01*
X437461Y719571D01*
Y712000D01*
X437616Y711220D01*
X438058Y710558D01*
X441808Y706808D01*
X441808Y706808D01*
X442470Y706366D01*
X443250Y706211D01*
X443250Y706211D01*
X509277D01*
X509711Y705777D01*
Y623000D01*
X505789D01*
Y627750D01*
X507500D01*
Y646250D01*
X504789D01*
Y682000D01*
X504789Y682000D01*
X504634Y682781D01*
X504192Y683442D01*
X504192Y683442D01*
X494505Y693129D01*
X494626Y693422D01*
Y695113D01*
X493979Y696675D01*
X492784Y697870D01*
X491222Y698518D01*
X489531D01*
X487969Y697870D01*
X486773Y696675D01*
X486126Y695113D01*
Y693422D01*
X486773Y691860D01*
X487969Y690665D01*
X489531Y690017D01*
X491222D01*
X491665Y690201D01*
X500711Y681155D01*
Y646250D01*
X498000D01*
Y627750D01*
X501711D01*
Y623000D01*
X497500D01*
Y612420D01*
X496230Y611926D01*
X494845Y612500D01*
X493155D01*
X492270Y612133D01*
X491000Y612920D01*
Y622750D01*
X486789D01*
Y624655D01*
X489884Y627750D01*
X496500D01*
Y646250D01*
X487000D01*
Y631547D01*
X486770Y631393D01*
X485500Y632072D01*
Y646250D01*
X476000D01*
Y634447D01*
X475961Y634250D01*
Y623777D01*
X473808Y621624D01*
X473366Y620962D01*
X473211Y620182D01*
Y618234D01*
X472506Y617759D01*
X471250Y618361D01*
Y623000D01*
X467804D01*
Y626589D01*
X468965Y627750D01*
X474500D01*
Y646250D01*
X472554D01*
Y650003D01*
X477983Y655432D01*
X478590Y656342D01*
X478804Y657415D01*
X478804Y657415D01*
Y682000D01*
X478590Y683073D01*
X477983Y683983D01*
X477983Y683983D01*
X468483Y693483D01*
X468353Y695093D01*
X469000Y696655D01*
Y698345D01*
X468353Y699907D01*
X467157Y701103D01*
X465595Y701750D01*
X463905D01*
X462343Y701103D01*
X461147Y699907D01*
X460500Y698345D01*
Y696655D01*
X460948Y695574D01*
X460276Y694304D01*
X381454D01*
X375725Y700033D01*
X374816Y700640D01*
X373743Y700854D01*
X371258D01*
X371257Y700854D01*
X370184Y700640D01*
X369275Y700033D01*
X368923Y699681D01*
X367750Y700167D01*
Y702300D01*
X363418D01*
X362691Y703027D01*
X360945Y703750D01*
X359055D01*
X357309Y703027D01*
X356582Y702300D01*
X353250D01*
Y699182D01*
X352077Y698696D01*
X348554Y702219D01*
Y712039D01*
X352309Y715793D01*
X353250Y714939D01*
X353250Y713755D01*
Y708000D01*
X357490D01*
X357843Y707647D01*
X359405Y707000D01*
X361095D01*
X362657Y707647D01*
X363010Y708000D01*
X367750D01*
Y715000D01*
X362303D01*
X361095Y715500D01*
X359405D01*
X358197Y715000D01*
X354519D01*
X353311Y715000D01*
X352457Y715941D01*
X357215Y720700D01*
X357987D01*
X359202Y720197D01*
X360893D01*
X362109Y720700D01*
X367750D01*
Y727700D01*
X362805D01*
X362455Y728049D01*
X360893Y728697D01*
X359202D01*
X357640Y728049D01*
X357430Y728155D01*
X357179Y729701D01*
X360045Y732567D01*
X410585D01*
X412243Y732897D01*
X413649Y733836D01*
X417164Y737351D01*
X418103Y738756D01*
X418433Y740415D01*
Y769690D01*
X420410Y771667D01*
X496210D01*
X496736Y770397D01*
X496247Y769908D01*
X495600Y768345D01*
Y766655D01*
X496247Y765093D01*
X497443Y763897D01*
X499005Y763250D01*
X500695D01*
X502257Y763897D01*
X503321Y764961D01*
X504255D01*
X512908Y756308D01*
X513570Y755866D01*
X514350Y755711D01*
X514350Y755711D01*
X530250D01*
Y751500D01*
X543750D01*
Y764000D01*
X530250D01*
Y759789D01*
X515195D01*
X506542Y768442D01*
X505880Y768884D01*
X505100Y769039D01*
X503813D01*
X503453Y769908D01*
X502964Y770397D01*
X503490Y771667D01*
X521000D01*
X522658Y771997D01*
X523661Y772667D01*
X569008D01*
X569261Y771397D01*
X569143Y771348D01*
X567948Y770152D01*
X567300Y768590D01*
Y766900D01*
X567948Y765338D01*
X568075Y765210D01*
X568750Y764250D01*
X568750D01*
X568750Y764250D01*
Y760670D01*
X568054Y760359D01*
X567480Y760280D01*
X566407Y761353D01*
X564845Y762000D01*
X563155D01*
X562020Y761530D01*
X560750Y762170D01*
Y764000D01*
X547250D01*
Y751500D01*
X560750D01*
Y753330D01*
X562020Y753970D01*
X563155Y753500D01*
X564845D01*
X566407Y754147D01*
X567480Y755220D01*
X568054Y755141D01*
X568750Y754830D01*
Y751750D01*
X578389D01*
X578875Y750577D01*
X578014Y749715D01*
X563676D01*
X563676Y749715D01*
X562896Y749560D01*
X562234Y749118D01*
X562234Y749118D01*
X539655Y726539D01*
X536325D01*
X535545Y726384D01*
X534883Y725942D01*
X531808Y722867D01*
X531366Y722205D01*
X531211Y721425D01*
Y717075D01*
X531366Y716295D01*
X531808Y715633D01*
X534883Y712558D01*
X535545Y712116D01*
X536325Y711961D01*
X543359D01*
X550512Y704808D01*
X551174Y704366D01*
X551954Y704211D01*
X564566D01*
X590869Y677907D01*
X590869Y677907D01*
X591531Y677465D01*
X592312Y677310D01*
X597094D01*
X597247Y676942D01*
X598443Y675746D01*
X600005Y675099D01*
X601695D01*
X603257Y675746D01*
X604453Y676942D01*
X605100Y678504D01*
Y680195D01*
X604453Y681757D01*
X603257Y682952D01*
X601695Y683599D01*
X600169D01*
X599643Y684092D01*
X599231Y684653D01*
X599470Y685230D01*
Y686921D01*
X598823Y688483D01*
X597627Y689678D01*
X596065Y690325D01*
X594374D01*
X592812Y689678D01*
X591617Y688483D01*
X590970Y686921D01*
Y685371D01*
X590608Y685082D01*
X589796Y684748D01*
X568522Y706023D01*
X569008Y707196D01*
X579000D01*
X580073Y707410D01*
X580983Y708017D01*
X588465Y715500D01*
X597000D01*
Y729000D01*
X584646D01*
X583852Y730002D01*
X584865Y731015D01*
X585512Y732577D01*
Y734267D01*
X584865Y735829D01*
X583669Y737025D01*
X582107Y737672D01*
X582297Y738864D01*
X588253D01*
X589308Y737808D01*
X589308Y737808D01*
X589970Y737366D01*
X590750Y737211D01*
X623905D01*
X630558Y730558D01*
X631220Y730116D01*
X632000Y729961D01*
X632780Y730116D01*
X633442Y730558D01*
X633884Y731220D01*
X634039Y732000D01*
X633884Y732780D01*
X633442Y733442D01*
X626192Y740692D01*
X625530Y741134D01*
X624750Y741289D01*
X591595D01*
X590539Y742345D01*
X589878Y742787D01*
X589097Y742942D01*
X578903D01*
X578578Y742877D01*
X578254Y742942D01*
X577474Y742787D01*
X576812Y742345D01*
X576370Y741683D01*
X576215Y740903D01*
Y740259D01*
X574558Y738602D01*
X574116Y737941D01*
X573961Y737160D01*
Y726345D01*
X572655Y725039D01*
X571000D01*
X570220Y724884D01*
X570088Y724796D01*
X562435Y732449D01*
X561774Y732891D01*
X560993Y733046D01*
X558838D01*
X558442Y733442D01*
X557780Y733884D01*
X557000Y734039D01*
X556220Y733884D01*
X555558Y733442D01*
X555116Y732780D01*
X554961Y732000D01*
X555116Y731220D01*
X555558Y730558D01*
X556551Y729565D01*
X557213Y729123D01*
X557993Y728968D01*
X559053D01*
X559185Y728770D01*
X558507Y727500D01*
X548180D01*
X547654Y728770D01*
X564521Y745637D01*
X578858D01*
X579639Y745792D01*
X580300Y746234D01*
X584692Y750626D01*
X584849Y750860D01*
X585750Y751750D01*
X599250D01*
Y764250D01*
X585750D01*
Y760039D01*
X584339D01*
X583559Y759884D01*
X583520Y759858D01*
X582250Y760537D01*
Y764250D01*
X575725D01*
X575229Y765520D01*
X575800Y766900D01*
Y768590D01*
X575153Y770152D01*
X573958Y771348D01*
X573840Y771397D01*
X574093Y772667D01*
X601336D01*
X602994Y772997D01*
X604222Y773817D01*
X685719D01*
X685817Y773719D01*
D02*
G37*
G36*
X584172Y729259D02*
X584500Y728893D01*
Y719465D01*
X577839Y712804D01*
X554669D01*
X554554Y712919D01*
Y715000D01*
X561000D01*
Y726320D01*
X562270Y726846D01*
X569308Y719808D01*
X569970Y719366D01*
X570750Y719211D01*
X571250D01*
X572030Y719366D01*
X572692Y719808D01*
X573134Y720470D01*
X573232Y720961D01*
X573500D01*
X574280Y721116D01*
X574942Y721558D01*
X577442Y724058D01*
X577884Y724720D01*
X578039Y725500D01*
X578039Y725500D01*
Y728975D01*
X579309Y729631D01*
X580417Y729172D01*
X582107D01*
X583549Y729769D01*
X584172Y729259D01*
D02*
G37*
G36*
X731711Y688137D02*
Y666020D01*
X730648Y665722D01*
X730441Y665713D01*
X729284Y666870D01*
X727722Y667517D01*
X726031D01*
X724469Y666870D01*
X723273Y665675D01*
X722626Y664113D01*
Y662422D01*
X723273Y660860D01*
X724469Y659665D01*
X726031Y659017D01*
X727722D01*
X729284Y659665D01*
X730441Y660822D01*
X730648Y660813D01*
X731711Y660515D01*
Y624709D01*
X730441Y624046D01*
X729345Y624500D01*
X727655D01*
X726093Y623853D01*
X724897Y622657D01*
X724250Y621095D01*
Y619405D01*
X724897Y617843D01*
X726093Y616647D01*
X726811Y616349D01*
Y613996D01*
X725541Y613470D01*
X725407Y613603D01*
X723845Y614250D01*
X722155D01*
X720948Y613750D01*
X719750Y613400D01*
X719750Y613400D01*
X719750Y613400D01*
X712893D01*
X712893Y613400D01*
X711202D01*
X711202Y613400D01*
X705789D01*
Y619100D01*
X708984D01*
X709640Y618444D01*
X711202Y617797D01*
X712893D01*
X714455Y618444D01*
X715112Y619100D01*
X719750D01*
Y626100D01*
X713368D01*
X712893Y626297D01*
X711202D01*
X710728Y626100D01*
X705789D01*
Y631800D01*
X709987D01*
X711202Y631297D01*
X712893D01*
X714109Y631800D01*
X719750D01*
Y638800D01*
X714805D01*
X714455Y639150D01*
X712893Y639797D01*
X711202D01*
X709640Y639150D01*
X709291Y638800D01*
X705789D01*
Y644500D01*
X709987D01*
X711202Y643997D01*
X712893D01*
X714109Y644500D01*
X719750D01*
Y651500D01*
X714805D01*
X714455Y651850D01*
X712893Y652497D01*
X711202D01*
X709640Y651850D01*
X709291Y651500D01*
X705789D01*
Y657200D01*
X709987D01*
X711202Y656697D01*
X712893D01*
X714109Y657200D01*
X719750D01*
Y664200D01*
X714805D01*
X714455Y664549D01*
X712893Y665197D01*
X711202D01*
X709640Y664549D01*
X709291Y664200D01*
X705789D01*
Y669900D01*
X709987D01*
X711202Y669397D01*
X712893D01*
X714109Y669900D01*
X719750D01*
Y676900D01*
X714805D01*
X714455Y677250D01*
X712893Y677897D01*
X711202D01*
X709640Y677250D01*
X709291Y676900D01*
X705789D01*
Y682600D01*
X709987D01*
X711202Y682097D01*
X712893D01*
X714109Y682600D01*
X719750D01*
Y689600D01*
X714805D01*
X714455Y689949D01*
X712893Y690597D01*
X711202D01*
X709640Y689949D01*
X709291Y689600D01*
X705789D01*
Y695300D01*
X709987D01*
X711202Y694797D01*
X712893D01*
X714109Y695300D01*
X719750D01*
Y698439D01*
X720923Y698925D01*
X731711Y688137D01*
D02*
G37*
G36*
X652211Y664905D02*
Y624075D01*
X652366Y623295D01*
X652368Y623292D01*
Y617385D01*
X652000Y617232D01*
X650804Y616036D01*
X650157Y614474D01*
Y612784D01*
X650804Y611222D01*
X652000Y610026D01*
X653562Y609379D01*
X655253D01*
X656815Y610026D01*
X658010Y611222D01*
X658657Y612784D01*
Y613520D01*
X659927Y613988D01*
X660750Y613647D01*
X662150D01*
Y613600D01*
X678650D01*
Y613647D01*
X686147D01*
Y498603D01*
X658808D01*
X658553Y498773D01*
Y506511D01*
X658553Y506511D01*
X658398Y507291D01*
X657956Y507953D01*
X657955Y507953D01*
X651197Y514712D01*
Y518920D01*
X651565Y519072D01*
X652760Y520268D01*
X653407Y521830D01*
Y523521D01*
X652760Y525083D01*
X651565Y526278D01*
X650003Y526925D01*
X648312D01*
X646750Y526278D01*
X645554Y525083D01*
X644907Y523521D01*
Y521830D01*
X645554Y520268D01*
X646750Y519072D01*
X647118Y518920D01*
Y513867D01*
X646255Y512750D01*
X644693Y512103D01*
X643497Y510907D01*
X643043Y509812D01*
X641677Y509383D01*
X640696Y510363D01*
Y518670D01*
X641065Y518823D01*
X642260Y520018D01*
X642907Y521580D01*
Y523271D01*
X642260Y524833D01*
X641065Y526028D01*
X639503Y526675D01*
X637812D01*
X636250Y526028D01*
X635054Y524833D01*
X634407Y523271D01*
Y521580D01*
X634920Y520343D01*
X633843Y519623D01*
X632255Y521212D01*
X632407Y521580D01*
Y523271D01*
X631760Y524833D01*
X630565Y526028D01*
X629003Y526675D01*
X627312D01*
X625750Y526028D01*
X624554Y524833D01*
X623907Y523271D01*
Y521580D01*
X624554Y520018D01*
X625750Y518823D01*
X627258Y518198D01*
X627333Y517991D01*
X627458Y516905D01*
X627351Y516861D01*
X626155Y515666D01*
X625508Y514104D01*
Y512413D01*
X625661Y512045D01*
X624217Y510601D01*
X623634Y510544D01*
X622816Y511361D01*
X621254Y512008D01*
X619564D01*
X618002Y511361D01*
X616806Y510166D01*
X616159Y508604D01*
Y506913D01*
X616174Y506876D01*
X615087Y505789D01*
X604740D01*
X604254Y506963D01*
X616444Y519152D01*
X616812Y519000D01*
X618503D01*
X620065Y519647D01*
X621260Y520843D01*
X621907Y522405D01*
Y524095D01*
X621260Y525657D01*
X620065Y526853D01*
X618503Y527500D01*
X616812D01*
X615250Y526853D01*
X614054Y525657D01*
X613407Y524095D01*
Y522405D01*
X613560Y522036D01*
X612677Y521154D01*
X611407Y521680D01*
Y522028D01*
X610760Y523590D01*
X609565Y524785D01*
X608003Y525432D01*
X606312D01*
X604750Y524785D01*
X603554Y523590D01*
X602907Y522028D01*
Y520337D01*
X603554Y518775D01*
X604750Y517579D01*
X606312Y516932D01*
X606660D01*
X607186Y515662D01*
X593845Y502321D01*
X592865D01*
X592865Y502321D01*
X592085Y502166D01*
X591423Y501724D01*
X591423Y501724D01*
X570575Y480876D01*
X570011Y480970D01*
X569238Y482384D01*
X569350Y482655D01*
Y484345D01*
X568703Y485907D01*
X567508Y487103D01*
X565945Y487750D01*
X564255D01*
X562737Y487122D01*
X562191Y487230D01*
X546452D01*
X546199Y488500D01*
X547157Y488897D01*
X548353Y490093D01*
X548506Y490461D01*
X565788D01*
X566940Y489308D01*
X566940Y489308D01*
X567602Y488866D01*
X568382Y488711D01*
X568671Y488768D01*
X568742Y488697D01*
X570304Y488050D01*
X571995D01*
X573557Y488697D01*
X574753Y489892D01*
X575400Y491454D01*
Y493145D01*
X574753Y494707D01*
X574730Y494730D01*
X575256Y496000D01*
X575945D01*
X577508Y496647D01*
X578703Y497843D01*
X579350Y499405D01*
Y501095D01*
X578703Y502657D01*
X577508Y503853D01*
X575945Y504500D01*
X574255D01*
X572693Y503853D01*
X571497Y502657D01*
X571344Y502289D01*
X542402D01*
X541506Y503186D01*
X542225Y504262D01*
X542255Y504250D01*
X543945D01*
X545508Y504897D01*
X546703Y506093D01*
X547350Y507655D01*
Y509345D01*
X546703Y510907D01*
X545508Y512103D01*
X543945Y512750D01*
X542255D01*
X541886Y512598D01*
X535292Y519192D01*
X534630Y519634D01*
X533850Y519789D01*
X510370D01*
X509590Y519634D01*
X508928Y519192D01*
X497909Y508173D01*
X493366D01*
X492704Y509443D01*
X493157Y510538D01*
Y512229D01*
X492510Y513791D01*
X491315Y514987D01*
X489753Y515634D01*
X488062D01*
X486500Y514987D01*
X485304Y513791D01*
X485200Y513539D01*
X476594D01*
X474941Y515192D01*
X474280Y515634D01*
X473499Y515789D01*
X460000D01*
X460000Y515789D01*
X459220Y515634D01*
X458558Y515192D01*
X458558Y515192D01*
X452679Y509313D01*
X452237Y508652D01*
X452082Y507871D01*
Y506629D01*
X452237Y505848D01*
X452679Y505187D01*
X456174Y501692D01*
X456836Y501250D01*
X457616Y501094D01*
X457617Y501095D01*
X460304D01*
X460967Y499824D01*
X460513Y498729D01*
Y497038D01*
X461160Y495476D01*
X462356Y494281D01*
X463918Y493634D01*
X465608D01*
X467171Y494281D01*
X468366Y495476D01*
X468519Y495844D01*
X480511D01*
X481292Y496000D01*
X481953Y496442D01*
X482972Y497461D01*
X494906D01*
X520059Y472308D01*
X520720Y471866D01*
X521501Y471711D01*
X544289D01*
X544971Y470441D01*
X544830Y470229D01*
X493056D01*
X492721Y471026D01*
X492667Y471499D01*
X493760Y472593D01*
X494407Y474155D01*
Y475845D01*
X493760Y477407D01*
X492565Y478603D01*
X491003Y479250D01*
X489312D01*
X487750Y478603D01*
X486554Y477407D01*
X485907Y475845D01*
Y474155D01*
X486554Y472593D01*
X487648Y471499D01*
X487594Y471026D01*
X487258Y470229D01*
X409433D01*
X408360Y470016D01*
X407594Y469504D01*
X406784Y470491D01*
X437849Y501555D01*
X437849Y501556D01*
X438291Y502217D01*
X438447Y502998D01*
X438447Y502998D01*
Y529697D01*
X439351Y530072D01*
X440546Y531267D01*
X441194Y532829D01*
Y534520D01*
X440546Y536082D01*
X439351Y537278D01*
X437789Y537925D01*
X436098D01*
X435651Y537740D01*
X435154Y537722D01*
X434707Y538525D01*
X435432Y539696D01*
X535339D01*
X540247Y534787D01*
X539874Y533940D01*
X539614Y533625D01*
X538045D01*
X536483Y532978D01*
X535287Y531782D01*
X535264Y531727D01*
X516735D01*
X516453Y532407D01*
X515257Y533603D01*
X513695Y534250D01*
X512005D01*
X510443Y533603D01*
X509247Y532407D01*
X508600Y530845D01*
Y529155D01*
X509247Y527593D01*
X510443Y526397D01*
X512005Y525750D01*
X513695D01*
X515257Y526397D01*
X516453Y527593D01*
X516476Y527648D01*
X535005D01*
X535287Y526967D01*
X536483Y525772D01*
X538045Y525125D01*
X539735D01*
X541297Y525772D01*
X542493Y526967D01*
X543140Y528529D01*
Y530099D01*
X543456Y530359D01*
X544303Y530732D01*
X557017Y518017D01*
X557017Y518017D01*
X557927Y517410D01*
X559000Y517196D01*
X559000Y517196D01*
X562250D01*
X563323Y517410D01*
X564233Y518017D01*
X581480Y535265D01*
X582750Y534739D01*
Y533655D01*
X583397Y532093D01*
X584593Y530897D01*
X586155Y530250D01*
X587845D01*
X589407Y530897D01*
X590603Y532093D01*
X591250Y533655D01*
Y535345D01*
X590603Y536907D01*
X589407Y538103D01*
X588627Y538426D01*
X588880Y539696D01*
X589217D01*
X590290Y539910D01*
X591200Y540517D01*
X597504Y546821D01*
X598111Y547731D01*
X598325Y548804D01*
X598325Y548804D01*
Y552486D01*
X598524Y553489D01*
Y593741D01*
X599065Y594282D01*
X599712Y595844D01*
Y597534D01*
X599065Y599096D01*
X598266Y599896D01*
Y603756D01*
X598840Y604616D01*
X599054Y605689D01*
X599054Y605689D01*
Y614727D01*
X599309Y614897D01*
X613400D01*
Y613600D01*
X625800D01*
Y614897D01*
X628750D01*
X629707Y615293D01*
X630103Y616250D01*
Y650000D01*
X629707Y650957D01*
X628750Y651353D01*
X622559D01*
X622304Y651523D01*
Y667482D01*
X625444Y670622D01*
X628609D01*
X628834Y670397D01*
X630396Y669750D01*
X632087D01*
X633649Y670397D01*
X634845Y671592D01*
X635492Y673155D01*
Y674845D01*
X634845Y676407D01*
X633649Y677603D01*
X632087Y678250D01*
X630396D01*
X628834Y677603D01*
X627639Y676407D01*
X627565Y676230D01*
X624282D01*
X623209Y676016D01*
X622300Y675409D01*
X617517Y670626D01*
X616910Y669716D01*
X616696Y668643D01*
Y665107D01*
X615426Y664580D01*
X615008Y664999D01*
X613445Y665646D01*
X611755D01*
X610193Y664999D01*
X609233Y664039D01*
X604339D01*
X604186Y664192D01*
X603524Y664634D01*
X603203Y664698D01*
X602683Y665973D01*
X614365Y677655D01*
X615005Y677390D01*
X616695D01*
X618257Y678037D01*
X619453Y679233D01*
X619755Y679962D01*
X620215Y680776D01*
X621288Y680597D01*
X621898Y680344D01*
X623589D01*
X625151Y680991D01*
X625971Y681811D01*
X635305D01*
X652211Y664905D01*
D02*
G37*
G36*
X442930Y683941D02*
X442897Y683907D01*
X442250Y682345D01*
Y680655D01*
X442897Y679093D01*
X444093Y677897D01*
X444461Y677745D01*
Y668345D01*
X435308Y659192D01*
X434866Y658530D01*
X434711Y657750D01*
Y646250D01*
X432000D01*
Y631547D01*
X431770Y631393D01*
X430500Y632072D01*
Y646250D01*
X423884D01*
X421539Y648595D01*
Y654960D01*
X422034Y655164D01*
X423229Y656360D01*
X423876Y657922D01*
Y659613D01*
X423229Y661175D01*
X422034Y662371D01*
X420472Y663018D01*
X419765D01*
X419239Y664287D01*
X423163Y668211D01*
X427094D01*
X427247Y667843D01*
X428443Y666647D01*
X430005Y666000D01*
X431695D01*
X433257Y666647D01*
X434453Y667843D01*
X435100Y669405D01*
Y671095D01*
X434453Y672657D01*
X433257Y673853D01*
X432889Y674006D01*
Y685211D01*
X442404D01*
X442930Y683941D01*
D02*
G37*
G36*
X416323Y779580D02*
X415551Y779064D01*
X411036Y774549D01*
X410097Y773143D01*
X409767Y771485D01*
Y742210D01*
X408790Y741233D01*
X358250D01*
X356592Y740903D01*
X355838Y740400D01*
X353250D01*
Y738028D01*
X336686Y721464D01*
X335747Y720058D01*
X335417Y718400D01*
Y650000D01*
X335747Y648342D01*
X336686Y646936D01*
X338870Y644752D01*
X338973Y644504D01*
X340168Y643308D01*
X341730Y642661D01*
X343421D01*
X344983Y643308D01*
X346179Y644504D01*
X346825Y646066D01*
Y647211D01*
X346833Y647250D01*
X346825Y647289D01*
Y647757D01*
X346647Y648189D01*
X346503Y648908D01*
X345564Y650314D01*
X344083Y651795D01*
Y697099D01*
X345257Y697585D01*
X352325Y690517D01*
X352353Y690499D01*
X353250Y689600D01*
Y682600D01*
X356682D01*
X357309Y681973D01*
X359055Y681250D01*
X360945D01*
X362691Y681973D01*
X363317Y682600D01*
X367750D01*
Y689600D01*
X367750Y689600D01*
X367950Y690787D01*
X368816Y690960D01*
X369725Y691567D01*
X371483Y693325D01*
X371973Y694058D01*
X372755Y694321D01*
X373420Y694408D01*
X378310Y689517D01*
X379220Y688910D01*
X380293Y688696D01*
X428504D01*
X428696Y688508D01*
X429149Y687426D01*
X428966Y687152D01*
X428811Y686371D01*
Y674006D01*
X428443Y673853D01*
X427247Y672657D01*
X427094Y672289D01*
X422318D01*
X421538Y672134D01*
X420876Y671692D01*
X420876Y671692D01*
X410870Y661686D01*
X409600Y662212D01*
Y662345D01*
X408953Y663907D01*
X407757Y665103D01*
X406195Y665750D01*
X404505D01*
X402943Y665103D01*
X401747Y663907D01*
X401100Y662345D01*
Y660655D01*
X401747Y659093D01*
X402943Y657897D01*
X404505Y657250D01*
X404638D01*
X405164Y655980D01*
X382308Y633124D01*
X381866Y632462D01*
X381711Y631682D01*
Y623223D01*
X377527Y619039D01*
X368995D01*
X367750Y619100D01*
Y626100D01*
X363618D01*
X362691Y627027D01*
X360945Y627750D01*
X359055D01*
X357309Y627027D01*
X356382Y626100D01*
X353250D01*
Y619100D01*
X353588D01*
X354114Y617830D01*
X335770Y599486D01*
X328750D01*
Y600700D01*
X323805D01*
X323455Y601049D01*
X321893Y601697D01*
X320202D01*
X318640Y601049D01*
X318291Y600700D01*
X314250D01*
Y593700D01*
X318987D01*
X320202Y593197D01*
X321893D01*
X323109Y593700D01*
X328750D01*
Y595407D01*
X336614D01*
X337395Y595563D01*
X338056Y596005D01*
X352077Y610025D01*
X353250Y609539D01*
Y606400D01*
X356882D01*
X357309Y605973D01*
X359055Y605250D01*
X360945D01*
X362691Y605973D01*
X363117Y606400D01*
X367750D01*
Y613400D01*
X364274D01*
X364072Y613691D01*
X364737Y614961D01*
X378371D01*
X379152Y615116D01*
X379813Y615558D01*
X383577Y619322D01*
X384750Y618835D01*
Y613250D01*
X394285D01*
X409517Y598017D01*
X410427Y597410D01*
X411500Y597196D01*
X414446D01*
Y584007D01*
X414660Y582934D01*
X415267Y582025D01*
X425171Y572122D01*
X425255Y571766D01*
X425163Y570565D01*
X424273Y569675D01*
X423626Y568113D01*
Y566422D01*
X424273Y564860D01*
X425469Y563665D01*
X427031Y563018D01*
X428722D01*
X430284Y563665D01*
X431479Y564860D01*
X432126Y566422D01*
Y568113D01*
X431479Y569675D01*
X431228Y569926D01*
X431754Y571196D01*
X440421D01*
X440908Y570023D01*
X421123Y550238D01*
X420515Y549328D01*
X420408Y548792D01*
X420168Y548552D01*
X419849D01*
X418287Y547905D01*
X417092Y546709D01*
X417018Y546532D01*
X415923D01*
X415922Y546532D01*
X414849Y546318D01*
X414324Y545967D01*
X413248Y546416D01*
X413054Y546614D01*
Y585993D01*
X413054Y585993D01*
X412840Y587066D01*
X412233Y587975D01*
X410475Y589733D01*
X409566Y590340D01*
X408493Y590554D01*
X394000D01*
Y594500D01*
X381500D01*
Y581000D01*
X394000D01*
Y584946D01*
X407331D01*
X407446Y584831D01*
Y572582D01*
X406176Y572329D01*
X405760Y573333D01*
X404565Y574528D01*
X403003Y575176D01*
X401312D01*
X399750Y574528D01*
X398554Y573333D01*
X398329Y572789D01*
X394000D01*
Y577500D01*
X381500D01*
Y564000D01*
X394000D01*
Y568711D01*
X398475D01*
X398554Y568518D01*
X399750Y567323D01*
X401312Y566675D01*
X403003D01*
X404565Y567323D01*
X405760Y568518D01*
X406176Y569522D01*
X407446Y569269D01*
Y546554D01*
X394500D01*
Y550500D01*
X382000D01*
Y537000D01*
X394500D01*
Y540946D01*
X406196D01*
Y530193D01*
X404926Y529667D01*
X404815Y529778D01*
X403253Y530425D01*
X401562D01*
X400000Y529778D01*
X399011Y528789D01*
X394500D01*
Y533500D01*
X382000D01*
Y520000D01*
X394500D01*
Y524711D01*
X398414D01*
X398804Y523768D01*
X400000Y522572D01*
X401562Y521925D01*
X403253D01*
X404815Y522572D01*
X404926Y522684D01*
X406196Y522158D01*
Y505411D01*
X402589Y501804D01*
X394750D01*
Y505750D01*
X382250D01*
Y493603D01*
X380980Y492824D01*
X380084Y493195D01*
X378393D01*
X376831Y492548D01*
X375635Y491352D01*
X374988Y489790D01*
Y488100D01*
X375328Y487280D01*
X368923Y480875D01*
X367750Y481361D01*
Y484500D01*
X362805D01*
X362455Y484850D01*
X360893Y485497D01*
X359202D01*
X357640Y484850D01*
X357291Y484500D01*
X353250D01*
Y477500D01*
X357791D01*
X358239Y477106D01*
X357759Y475836D01*
X354565D01*
X354565Y475836D01*
X353784Y475681D01*
X353123Y475238D01*
X335770Y457886D01*
X328750D01*
Y459100D01*
X323805D01*
X323455Y459450D01*
X321893Y460097D01*
X320202D01*
X318640Y459450D01*
X318291Y459100D01*
X314250D01*
Y452100D01*
X318987D01*
X320202Y451597D01*
X321893D01*
X323109Y452100D01*
X328750D01*
Y453807D01*
X336614D01*
X337395Y453963D01*
X338056Y454405D01*
X352077Y468425D01*
X353250Y467939D01*
Y464800D01*
X353588D01*
X354114Y463530D01*
X335770Y445186D01*
X328750D01*
Y446400D01*
X323805D01*
X323455Y446750D01*
X321893Y447397D01*
X320202D01*
X318640Y446750D01*
X318291Y446400D01*
X314250D01*
Y439400D01*
X318987D01*
X320202Y438897D01*
X321893D01*
X323109Y439400D01*
X328750D01*
Y441107D01*
X336614D01*
X337395Y441263D01*
X338056Y441705D01*
X352077Y455725D01*
X353250Y455239D01*
Y452100D01*
X357987D01*
X359202Y451597D01*
X360893D01*
X362109Y452100D01*
X367750D01*
Y453807D01*
X367929D01*
X368710Y453963D01*
X369371Y454405D01*
X370325Y455359D01*
X371498Y454873D01*
Y453032D01*
X364866Y446400D01*
X362805D01*
X362455Y446750D01*
X360893Y447397D01*
X359202D01*
X357640Y446750D01*
X357291Y446400D01*
X353250D01*
Y439400D01*
X357987D01*
X359202Y438897D01*
X360893D01*
X362109Y439400D01*
X367750D01*
Y443516D01*
X373325Y449091D01*
X374498Y448605D01*
Y443332D01*
X364866Y433700D01*
X362805D01*
X362455Y434050D01*
X360893Y434697D01*
X359202D01*
X357640Y434050D01*
X357291Y433700D01*
X353250D01*
Y426700D01*
X357987D01*
X359202Y426197D01*
X360893D01*
X362109Y426700D01*
X367750D01*
Y430816D01*
X377980Y441046D01*
X377980Y441046D01*
X378422Y441707D01*
X378577Y442488D01*
Y455125D01*
X381077Y457625D01*
X382250Y457139D01*
Y447500D01*
X394750D01*
Y455446D01*
X400257D01*
X401330Y455660D01*
X402240Y456267D01*
X410594Y464622D01*
X478684D01*
X479355Y463352D01*
X478907Y462271D01*
Y460580D01*
X479554Y459018D01*
X480750Y457822D01*
X482312Y457175D01*
X484003D01*
X485565Y457822D01*
X486760Y459018D01*
X487407Y460580D01*
Y462271D01*
X486960Y463352D01*
X487631Y464622D01*
X502722D01*
X503248Y463352D01*
X502554Y462657D01*
X501907Y461095D01*
Y459405D01*
X502554Y457843D01*
X503750Y456647D01*
X505312Y456000D01*
X507003D01*
X508565Y456647D01*
X509760Y457843D01*
X510407Y459405D01*
Y461095D01*
X509760Y462657D01*
X509066Y463352D01*
X509592Y464622D01*
X534715D01*
X534874Y463418D01*
X533312Y462771D01*
X532116Y461575D01*
X531469Y460013D01*
Y458322D01*
X531534Y458167D01*
X494808Y421442D01*
X494366Y420780D01*
X494211Y420000D01*
Y377791D01*
X476058Y359638D01*
X475616Y358976D01*
X475461Y358196D01*
Y325371D01*
X474497Y324407D01*
X473850Y322845D01*
Y321155D01*
X474497Y319593D01*
X475461Y318629D01*
Y311750D01*
X472250D01*
Y293250D01*
X482750D01*
Y311750D01*
X479539D01*
Y317996D01*
X480508Y318397D01*
X481703Y319593D01*
X482350Y321155D01*
Y322845D01*
X481703Y324407D01*
X480508Y325603D01*
X479539Y326004D01*
Y357351D01*
X482537Y360350D01*
X483711Y359864D01*
Y318197D01*
X483866Y317416D01*
X484308Y316755D01*
X486505Y314558D01*
X486505Y314558D01*
X487166Y314116D01*
X487947Y313961D01*
X495750D01*
X496530Y314116D01*
X497192Y314558D01*
X499191Y316557D01*
X500461Y316031D01*
Y311750D01*
X497250D01*
Y293250D01*
X507750D01*
Y311750D01*
X504539D01*
Y317250D01*
X509500D01*
Y318330D01*
X510770Y318970D01*
X511905Y318500D01*
X512820D01*
X513192Y317967D01*
X513416Y317230D01*
X513116Y316780D01*
X512961Y316000D01*
Y311750D01*
X509750D01*
Y293250D01*
X520250D01*
Y311750D01*
X517039D01*
Y315155D01*
X518884Y317000D01*
X528500D01*
Y318830D01*
X529770Y319470D01*
X530905Y319000D01*
X532595D01*
X533721Y319466D01*
X533890Y319437D01*
X534817Y318878D01*
X534961Y318710D01*
Y316845D01*
X529866Y311750D01*
X522250D01*
Y293250D01*
X532750D01*
Y308860D01*
X533641Y309595D01*
X534750Y309121D01*
Y293250D01*
X545250D01*
Y308860D01*
X546141Y309595D01*
X547250Y309121D01*
Y293250D01*
X553889D01*
X554375Y292077D01*
X548134Y285836D01*
X502956D01*
X500100Y288692D01*
X499439Y289134D01*
X498658Y289289D01*
X465913D01*
X463125Y292077D01*
X463611Y293250D01*
X470250D01*
Y311750D01*
X467039D01*
Y366423D01*
X471444Y370828D01*
X471812Y370675D01*
X473503D01*
X475065Y371322D01*
X476260Y372518D01*
X476907Y374080D01*
Y375771D01*
X476260Y377333D01*
X475065Y378528D01*
X473503Y379175D01*
X473030D01*
X472504Y380445D01*
X475942Y383884D01*
X476384Y384545D01*
X476539Y385325D01*
X476539Y385326D01*
Y396179D01*
X476384Y396959D01*
X475942Y397621D01*
X475942Y397621D01*
X475289Y398274D01*
Y405745D01*
X475657Y405897D01*
X476853Y407093D01*
X477500Y408655D01*
Y410345D01*
X476853Y411907D01*
X476476Y412284D01*
X476774Y413783D01*
X477531Y414096D01*
X478727Y415292D01*
X479374Y416854D01*
Y418545D01*
X478727Y420107D01*
X477531Y421302D01*
X476391Y421774D01*
X475969Y421949D01*
X475719Y423219D01*
X475856Y423549D01*
Y425240D01*
X475209Y426802D01*
X474706Y427304D01*
X474150Y428188D01*
X474706Y428964D01*
X475260Y429518D01*
X475907Y431080D01*
Y432771D01*
X475260Y434333D01*
X474065Y435528D01*
X472503Y436175D01*
X470812D01*
X470444Y436023D01*
X467349Y439117D01*
X466688Y439559D01*
X465907Y439715D01*
X440366D01*
X439704Y440985D01*
X440157Y442080D01*
Y443771D01*
X439510Y445333D01*
X438315Y446528D01*
X436753Y447175D01*
X435062D01*
X434282Y446852D01*
X432500Y448634D01*
Y449961D01*
X441500D01*
Y441500D01*
X470000D01*
Y463000D01*
X441500D01*
Y454039D01*
X432500D01*
Y458250D01*
X419000D01*
Y445750D01*
X429616D01*
X431657Y443709D01*
Y442080D01*
X432304Y440518D01*
X432759Y440064D01*
X432776Y438352D01*
X425962Y431539D01*
X394750D01*
Y435211D01*
X398298D01*
X398429Y434893D01*
X399625Y433698D01*
X401187Y433050D01*
X402878D01*
X404440Y433698D01*
X405635Y434893D01*
X406282Y436455D01*
Y438146D01*
X405635Y439708D01*
X404440Y440903D01*
X402878Y441550D01*
X401187D01*
X399625Y440903D01*
X398429Y439708D01*
X398256Y439289D01*
X394750D01*
Y444000D01*
X382250D01*
Y430500D01*
X390457D01*
X390943Y429327D01*
X389558Y427942D01*
X389116Y427280D01*
X388961Y426500D01*
Y399313D01*
X368923Y379275D01*
X367750Y379761D01*
Y382900D01*
X362817D01*
X362691Y383027D01*
X360945Y383750D01*
X359055D01*
X357309Y383027D01*
X357182Y382900D01*
X353250D01*
Y375900D01*
X356382D01*
X357309Y374973D01*
X359055Y374250D01*
X360945D01*
X362691Y374973D01*
X362837Y375120D01*
X363096Y375132D01*
X363636Y374507D01*
X363866Y373998D01*
X363711Y373218D01*
Y371079D01*
X362455Y370550D01*
X360893Y371197D01*
X359202D01*
X357640Y370550D01*
X357291Y370200D01*
X353250D01*
Y363200D01*
X357987D01*
X359202Y362697D01*
X360893D01*
X362109Y363200D01*
X367750D01*
Y368003D01*
X367789Y368200D01*
X367789Y368200D01*
Y372373D01*
X392442Y397026D01*
X392442Y397026D01*
X392884Y397688D01*
X393039Y398468D01*
X393039Y398468D01*
Y425655D01*
X394845Y427461D01*
X426807D01*
X427588Y427616D01*
X428249Y428058D01*
X431734Y431543D01*
X433101Y431113D01*
X433554Y430018D01*
X434750Y428823D01*
X435118Y428670D01*
Y420002D01*
X429366Y414250D01*
X419250D01*
Y401750D01*
X431978D01*
X432178Y401566D01*
X432722Y400480D01*
X432250Y399340D01*
Y397649D01*
X432815Y396286D01*
X432755Y396196D01*
X432741Y396125D01*
X430866Y394250D01*
X424250D01*
Y381750D01*
X428240D01*
X428919Y380480D01*
X428831Y380348D01*
X419129D01*
X418348Y380193D01*
X417687Y379751D01*
X417687Y379751D01*
X416808Y378872D01*
X416366Y378210D01*
X416211Y377430D01*
Y371668D01*
X414250D01*
Y375250D01*
X401789D01*
Y379981D01*
X402558Y380750D01*
X403845D01*
X405407Y381397D01*
X406603Y382593D01*
X407250Y384155D01*
Y385845D01*
X406603Y387407D01*
X405407Y388603D01*
X405111Y390101D01*
X405603Y390593D01*
X406250Y392155D01*
Y393845D01*
X405603Y395407D01*
X404407Y396603D01*
X402845Y397250D01*
X401155D01*
X399593Y396603D01*
X398397Y395407D01*
X397750Y393845D01*
Y392816D01*
X374715Y369781D01*
X374273Y369120D01*
X374118Y368339D01*
Y363002D01*
X368946Y357830D01*
X367750Y357500D01*
Y357500D01*
X367750Y357500D01*
X362805D01*
X362455Y357850D01*
X360893Y358497D01*
X359202D01*
X357640Y357850D01*
X357291Y357500D01*
X353250D01*
Y350500D01*
X357987D01*
X359202Y349997D01*
X360893D01*
X362109Y350500D01*
X367750D01*
Y352207D01*
X368247D01*
X369027Y352363D01*
X369688Y352805D01*
X377599Y360715D01*
X377599Y360715D01*
X378041Y361377D01*
X378196Y362157D01*
X378196Y362157D01*
Y367495D01*
X397961Y387259D01*
X399038Y386540D01*
X398750Y385845D01*
Y384155D01*
X399173Y383133D01*
X398308Y382267D01*
X397866Y381606D01*
X397711Y380826D01*
Y365413D01*
X391837Y359539D01*
X383568D01*
X382788Y359384D01*
X382126Y358942D01*
X382126Y358942D01*
X368023Y344839D01*
X362766D01*
X362455Y345150D01*
X360893Y345797D01*
X359202D01*
X357640Y345150D01*
X357291Y344800D01*
X353250D01*
Y337800D01*
X357987D01*
X359202Y337297D01*
X360893D01*
X362109Y337800D01*
X367750D01*
Y340761D01*
X368868D01*
X369648Y340916D01*
X370310Y341358D01*
X384413Y355461D01*
X392682D01*
X393462Y355616D01*
X394124Y356058D01*
X400816Y362750D01*
X414250D01*
Y367590D01*
X417405D01*
X417687Y367308D01*
X417687Y367308D01*
X418348Y366866D01*
X419129Y366711D01*
X421750D01*
Y362500D01*
X431923D01*
X432602Y361230D01*
X432451Y361005D01*
X402034D01*
X402034Y361005D01*
X401254Y360850D01*
X400592Y360408D01*
X400592Y360408D01*
X397808Y357624D01*
X397366Y356962D01*
X397211Y356182D01*
Y346663D01*
X395058Y344510D01*
X394616Y343848D01*
X394461Y343068D01*
Y338345D01*
X392155Y336039D01*
X377000D01*
X377000Y336039D01*
X376220Y335884D01*
X375558Y335442D01*
X375558Y335442D01*
X369020Y328904D01*
X367750Y329430D01*
Y332100D01*
X362805D01*
X362455Y332450D01*
X360893Y333097D01*
X359202D01*
X357640Y332450D01*
X357291Y332100D01*
X353250D01*
Y330886D01*
X347998D01*
X347442Y331442D01*
X346780Y331884D01*
X346000Y332039D01*
X345220Y331884D01*
X344558Y331442D01*
X344116Y330780D01*
X343961Y330000D01*
Y312000D01*
X344116Y311220D01*
X344558Y310558D01*
X347558Y307558D01*
X348220Y307116D01*
X349000Y306961D01*
X352088D01*
X353250Y306700D01*
Y299700D01*
X356582D01*
X357309Y298973D01*
X359055Y298250D01*
X360945D01*
X362691Y298973D01*
X363418Y299700D01*
X367750D01*
Y306700D01*
X368912Y306961D01*
X378121D01*
X378902Y307116D01*
X379563Y307558D01*
X380442Y308437D01*
X380442Y308437D01*
X380884Y309098D01*
X381039Y309879D01*
Y326002D01*
X381845Y326807D01*
X437528D01*
X438309Y326963D01*
X438970Y327405D01*
X461787Y350222D01*
X462961Y349736D01*
Y311750D01*
X459750D01*
Y297111D01*
X458577Y296625D01*
X442085Y313117D01*
X441423Y313559D01*
X440643Y313715D01*
X428163D01*
X428010Y314083D01*
X426815Y315278D01*
X425253Y315926D01*
X423562D01*
X422000Y315278D01*
X420804Y314083D01*
X420157Y312521D01*
Y310830D01*
X420804Y309268D01*
X422000Y308072D01*
X423562Y307425D01*
X425253D01*
X426815Y308072D01*
X428010Y309268D01*
X428163Y309636D01*
X439798D01*
X454136Y295298D01*
X453511Y294127D01*
X453444Y294141D01*
X429420D01*
X428639Y293985D01*
X427977Y293543D01*
X427977Y293543D01*
X415965Y281531D01*
X415523Y280870D01*
X415368Y280089D01*
Y264431D01*
X415000Y264278D01*
X413804Y263083D01*
X413157Y261521D01*
Y259830D01*
X413804Y258268D01*
X415000Y257073D01*
X416562Y256425D01*
X418253D01*
X419815Y257073D01*
X421010Y258268D01*
X421657Y259830D01*
Y261521D01*
X421010Y263083D01*
X419815Y264278D01*
X419446Y264431D01*
Y279245D01*
X426577Y286375D01*
X427750Y285889D01*
Y257250D01*
X451250D01*
Y289750D01*
X452391Y290062D01*
X452599D01*
X467603Y275058D01*
X468265Y274616D01*
X469045Y274461D01*
X469045Y274461D01*
X544612D01*
X544755Y273250D01*
X543193Y272603D01*
X541997Y271407D01*
X541350Y269845D01*
Y268155D01*
X541997Y266593D01*
X543193Y265397D01*
X544755Y264750D01*
X546445D01*
X548008Y265397D01*
X549203Y266593D01*
X549850Y268155D01*
Y269845D01*
X549203Y271407D01*
X548008Y272603D01*
X546445Y273250D01*
X546347D01*
X546222Y274520D01*
X546705Y274616D01*
X547367Y275058D01*
X553719Y281411D01*
X554162Y281329D01*
X554961Y280856D01*
Y278007D01*
X553986Y277603D01*
X552790Y276407D01*
X552143Y274845D01*
Y273155D01*
X552790Y271593D01*
X553986Y270397D01*
X555548Y269750D01*
X557239D01*
X558801Y270397D01*
X559996Y271593D01*
X560643Y273155D01*
Y274845D01*
X559996Y276407D01*
X559039Y277365D01*
Y280337D01*
X565077Y286375D01*
X566250Y285889D01*
Y257250D01*
X589750D01*
Y289750D01*
X570111D01*
X569625Y290923D01*
X572663Y293961D01*
X595455D01*
X596134Y292691D01*
X595334Y291493D01*
X594887Y289250D01*
Y281250D01*
X595334Y279007D01*
X596604Y277104D01*
X598507Y275834D01*
X600750Y275387D01*
X602994Y275834D01*
X604896Y277104D01*
X606166Y279007D01*
X606613Y281250D01*
Y289250D01*
X606166Y291493D01*
X605366Y292691D01*
X606045Y293961D01*
X611905D01*
X623498Y282368D01*
Y282152D01*
X623653Y281372D01*
X624095Y280710D01*
X624951Y279854D01*
X624514Y278800D01*
Y277109D01*
X625161Y275547D01*
X626357Y274351D01*
X627919Y273704D01*
X629609D01*
X631171Y274351D01*
X632367Y275547D01*
X633014Y277109D01*
Y278800D01*
X632367Y280362D01*
X631171Y281557D01*
X629609Y282204D01*
X628369D01*
X627576Y282997D01*
Y283213D01*
X627421Y283993D01*
X626979Y284655D01*
X625643Y285991D01*
X626085Y287261D01*
X627647Y287908D01*
X628843Y289103D01*
X629490Y290665D01*
Y292356D01*
X629042Y293437D01*
X629713Y294707D01*
X641328D01*
X653017Y283017D01*
X653927Y282409D01*
X655000Y282196D01*
X671500D01*
X672573Y282409D01*
X673483Y283017D01*
X680298Y289832D01*
X680956Y289480D01*
X681387Y289126D01*
Y281250D01*
X681834Y279007D01*
X683104Y277104D01*
X685006Y275834D01*
X687250Y275387D01*
X689493Y275834D01*
X691395Y277104D01*
X692666Y279007D01*
X693113Y281250D01*
Y289250D01*
X692666Y291493D01*
X691395Y293396D01*
X689493Y294666D01*
X687353Y295092D01*
X686768Y296015D01*
X686668Y296202D01*
X703661Y313196D01*
X705250D01*
Y312400D01*
X709987D01*
X711202Y311897D01*
X712893D01*
X714109Y312400D01*
X719750D01*
Y319400D01*
X714805D01*
X714455Y319750D01*
X712893Y320397D01*
X711202D01*
X709640Y319750D01*
X709291Y319400D01*
X705250D01*
Y318804D01*
X702500D01*
X701427Y318590D01*
X700517Y317983D01*
X700517Y317983D01*
X670339Y287804D01*
X656161D01*
X644485Y299480D01*
X644486Y299538D01*
X644877Y300750D01*
X645695D01*
X647258Y301397D01*
X648453Y302593D01*
X649100Y304155D01*
Y305845D01*
X648453Y307407D01*
X648233Y307627D01*
X648760Y308897D01*
X672500D01*
X673457Y309293D01*
X673853Y310250D01*
Y317550D01*
X674000Y317906D01*
X675307Y318447D01*
X676503Y319643D01*
X677150Y321205D01*
Y322895D01*
X676503Y324457D01*
X676430Y324530D01*
X676956Y325800D01*
X680117D01*
X680250Y325800D01*
X681387Y325480D01*
Y321450D01*
X681834Y319206D01*
X683104Y317304D01*
X685006Y316034D01*
X687250Y315587D01*
X689493Y316034D01*
X691395Y317304D01*
X692666Y319206D01*
X693113Y321450D01*
Y332450D01*
X692666Y334693D01*
X691395Y336595D01*
X690226Y337377D01*
X690611Y338647D01*
X701000D01*
X701249Y338750D01*
X701518Y338750D01*
X701768Y338854D01*
X701958Y339044D01*
X702207Y339147D01*
X702310Y339395D01*
X702500Y339586D01*
X702500Y339855D01*
X702603Y340104D01*
Y344500D01*
Y389846D01*
X702500Y390095D01*
Y390364D01*
X702310Y390554D01*
X702207Y390803D01*
X701958Y390906D01*
X701768Y391096D01*
X701554Y392170D01*
X703980Y394596D01*
X705250Y394070D01*
Y388600D01*
X708682D01*
X709309Y387973D01*
X711055Y387250D01*
X712945D01*
X714691Y387973D01*
X715318Y388600D01*
X719050D01*
X719576Y387330D01*
X718762Y386515D01*
X718114Y384953D01*
Y383263D01*
X717872Y382900D01*
X714818D01*
X714691Y383027D01*
X712945Y383750D01*
X711055D01*
X709309Y383027D01*
X709183Y382900D01*
X705250D01*
Y375900D01*
X708382D01*
X709309Y374973D01*
X711055Y374250D01*
X712945D01*
X714691Y374973D01*
X715618Y375900D01*
X719750D01*
Y379216D01*
X721020Y380065D01*
X721519Y379858D01*
X723210D01*
X724772Y380505D01*
X725967Y381701D01*
X726615Y383262D01*
Y384953D01*
X725967Y386515D01*
X724772Y387711D01*
X724404Y387863D01*
Y390905D01*
X727858Y394359D01*
X727858Y394359D01*
X728300Y395020D01*
X728455Y395801D01*
Y412321D01*
X739691Y423557D01*
X739696Y423557D01*
X740961Y423171D01*
Y413595D01*
X730558Y403192D01*
X730116Y402530D01*
X729961Y401750D01*
Y390306D01*
X729193Y389538D01*
X728546Y387976D01*
Y386285D01*
X729193Y384723D01*
X730388Y383527D01*
X731950Y382880D01*
X733641D01*
X735203Y383527D01*
X736399Y384723D01*
X737046Y386285D01*
Y387976D01*
X736399Y389538D01*
X735203Y390733D01*
X734039Y391215D01*
Y400905D01*
X744442Y411308D01*
X744884Y411970D01*
X745039Y412750D01*
X745039Y412750D01*
Y414000D01*
X748987D01*
X750202Y413497D01*
X751893D01*
X753109Y414000D01*
X758750D01*
Y421000D01*
X753805D01*
X753455Y421350D01*
X751893Y421997D01*
X750202D01*
X748640Y421350D01*
X748291Y421000D01*
X745039D01*
Y426700D01*
X747984D01*
X748640Y426044D01*
X750202Y425397D01*
X751893D01*
X753455Y426044D01*
X754112Y426700D01*
X758750D01*
Y433700D01*
X752368D01*
X751893Y433897D01*
X750202D01*
X749728Y433700D01*
X745039D01*
Y439400D01*
X748987D01*
X750202Y438897D01*
X751893D01*
X753109Y439400D01*
X758750D01*
Y441107D01*
X758871D01*
X759652Y441263D01*
X760139Y441588D01*
X760773Y441411D01*
X761409Y441004D01*
Y251850D01*
X312409D01*
Y780436D01*
X313409Y780850D01*
X415938D01*
X416323Y779580D01*
D02*
G37*
G36*
X467061Y666555D02*
Y662756D01*
X466693Y662603D01*
X465497Y661407D01*
X464850Y659845D01*
Y658155D01*
X465497Y656593D01*
X466693Y655397D01*
X467773Y654949D01*
X468197Y653577D01*
X467767Y653147D01*
X467225Y652336D01*
X466727Y652252D01*
X465873Y652281D01*
X465798Y652462D01*
X464603Y653658D01*
X463041Y654305D01*
X461350D01*
X459788Y653658D01*
X458592Y652462D01*
X457945Y650900D01*
Y649210D01*
X458592Y647647D01*
X458720Y647520D01*
X458194Y646250D01*
X454000D01*
Y627750D01*
X456711D01*
Y626345D01*
X444715Y614349D01*
X444273Y613688D01*
X444118Y612907D01*
Y605490D01*
X444273Y604710D01*
X444715Y604049D01*
X445677Y603087D01*
Y600005D01*
X445308Y599853D01*
X444113Y598657D01*
X443466Y597095D01*
Y595405D01*
X444113Y593843D01*
X445308Y592647D01*
X446870Y592000D01*
X448561D01*
X450123Y592647D01*
X451319Y593843D01*
X451966Y595405D01*
Y597095D01*
X451319Y598657D01*
X450123Y599853D01*
X449755Y600005D01*
Y603932D01*
X449600Y604712D01*
X449158Y605374D01*
X449158Y605374D01*
X448196Y606335D01*
Y612063D01*
X457577Y621443D01*
X458750Y620957D01*
Y609500D01*
X467285D01*
X475767Y601017D01*
X476677Y600410D01*
X477750Y600196D01*
X478500D01*
Y592407D01*
X477491Y591619D01*
X476507Y592603D01*
X474945Y593250D01*
X473255D01*
X471693Y592603D01*
X470497Y591407D01*
X469850Y589845D01*
Y588155D01*
X470497Y586593D01*
X471141Y585949D01*
X470615Y584679D01*
X455686D01*
X454688Y585677D01*
X453126Y586324D01*
X451435D01*
X449873Y585677D01*
X448678Y584482D01*
X448031Y582919D01*
Y581229D01*
X448104Y581051D01*
X447268Y580215D01*
X446660Y579305D01*
X446447Y578232D01*
Y577412D01*
X445839Y576804D01*
X428419D01*
X420054Y585169D01*
Y597196D01*
X423500D01*
Y593250D01*
X436000D01*
Y606750D01*
X423500D01*
Y602804D01*
X412661D01*
X403389Y612077D01*
X403875Y613250D01*
X415250D01*
Y622866D01*
X417095Y624711D01*
X420000D01*
X420780Y624866D01*
X421442Y625308D01*
X423884Y627750D01*
X427406D01*
X427999Y626480D01*
X427866Y626280D01*
X427711Y625500D01*
Y623750D01*
X423500D01*
Y610250D01*
X436000D01*
Y623750D01*
X432670D01*
X432154Y625020D01*
X434884Y627750D01*
X441500D01*
Y646250D01*
X438789D01*
Y656905D01*
X447942Y666058D01*
X447942Y666058D01*
X448384Y666720D01*
X448539Y667500D01*
X448539Y667500D01*
Y677745D01*
X448907Y677897D01*
X450103Y679093D01*
X450750Y680655D01*
Y681070D01*
X452020Y681596D01*
X467061Y666555D01*
D02*
G37*
G36*
X680250Y640646D02*
X679585Y639981D01*
X674400D01*
X672644Y639632D01*
X671156Y638637D01*
X666756Y634237D01*
X665761Y632748D01*
X665412Y630993D01*
Y620000D01*
X665761Y618244D01*
X666756Y616756D01*
X667483Y616270D01*
X667097Y615000D01*
X660750D01*
Y643000D01*
X660995D01*
X662832Y643761D01*
X664239Y645168D01*
X665000Y647005D01*
Y648500D01*
X667263D01*
X667500Y648145D01*
Y646355D01*
X668185Y644701D01*
X669451Y643435D01*
X671105Y642750D01*
X672895D01*
X674549Y643435D01*
X675815Y644701D01*
X676500Y646355D01*
Y648145D01*
X676737Y648500D01*
X680250D01*
Y640646D01*
D02*
G37*
G36*
X602714Y660116D02*
X603494Y659961D01*
X603494Y659961D01*
X608594D01*
X608997Y658989D01*
X610193Y657793D01*
X611755Y657146D01*
X613445D01*
X615008Y657793D01*
X615426Y658212D01*
X616696Y657686D01*
Y651523D01*
X616441Y651353D01*
X606250D01*
X605293Y650957D01*
X604897Y650000D01*
Y636353D01*
X589559D01*
X589304Y636523D01*
Y648352D01*
X600964Y660012D01*
X602052Y660558D01*
X602714Y660116D01*
D02*
G37*
G36*
X628750Y616250D02*
X599309D01*
Y626500D01*
X599309Y626500D01*
X599076Y627671D01*
X598413Y628663D01*
X597913Y629163D01*
X596921Y629826D01*
X595750Y630059D01*
X594580Y629826D01*
X593587Y629163D01*
X592924Y628171D01*
X592691Y627000D01*
X592924Y625830D01*
X593191Y625430D01*
Y616250D01*
X589559D01*
Y635000D01*
X606250D01*
Y650000D01*
X616441D01*
Y633000D01*
X616674Y631829D01*
X617337Y630837D01*
X618330Y630174D01*
X619500Y629941D01*
X620671Y630174D01*
X621663Y630837D01*
X622326Y631829D01*
X622559Y633000D01*
Y650000D01*
X628750D01*
Y616250D01*
D02*
G37*
G36*
X415376Y658628D02*
Y657922D01*
X416023Y656360D01*
X417219Y655164D01*
X417461Y655064D01*
Y647750D01*
X417507Y647520D01*
X416779Y646394D01*
X416569Y646250D01*
X410000D01*
Y627750D01*
X412621D01*
X413095Y626641D01*
X412360Y625750D01*
X401750D01*
Y615375D01*
X400577Y614889D01*
X398250Y617215D01*
Y625750D01*
X385789D01*
Y630837D01*
X397827Y642875D01*
X399000Y642389D01*
Y627750D01*
X408500D01*
Y646250D01*
X402861D01*
X402375Y647423D01*
X414106Y659154D01*
X415376Y658628D01*
D02*
G37*
G36*
X726811Y606004D02*
Y569208D01*
X723962Y566359D01*
X722789Y566845D01*
Y587682D01*
X722634Y588462D01*
X722192Y589124D01*
X719789Y591527D01*
Y595700D01*
X719750Y595897D01*
Y600700D01*
X714805D01*
X714455Y601049D01*
X712893Y601697D01*
X711202D01*
X709640Y601049D01*
X709291Y600700D01*
X705789D01*
Y606400D01*
X708787D01*
X709640Y605547D01*
X711202Y604900D01*
X712893D01*
X714455Y605547D01*
X715308Y606400D01*
X719750D01*
X719750Y606400D01*
X720956Y606246D01*
X722155Y605750D01*
X723845D01*
X725407Y606397D01*
X725541Y606530D01*
X726811Y606004D01*
D02*
G37*
G36*
X509711Y588291D02*
X509558Y588139D01*
X509116Y587477D01*
X508961Y586697D01*
Y575087D01*
X506588Y572715D01*
X465435D01*
X465056Y573629D01*
X463869Y574816D01*
X463870Y574866D01*
X464134Y576086D01*
X491875D01*
X492655Y576241D01*
X493317Y576683D01*
X497449Y580815D01*
X497891Y581477D01*
X498047Y582257D01*
X498047Y582257D01*
Y583695D01*
X498352Y584000D01*
X499345D01*
X500907Y584647D01*
X502103Y585843D01*
X502750Y587405D01*
Y589095D01*
X502103Y590657D01*
X501530Y591230D01*
X502057Y592500D01*
X509711D01*
Y588291D01*
D02*
G37*
G36*
X585226Y648696D02*
Y616784D01*
X583558Y615117D01*
X583116Y614455D01*
X582961Y613675D01*
Y609325D01*
X583116Y608545D01*
X583558Y607883D01*
X585226Y606216D01*
Y601360D01*
X584523Y600657D01*
X583876Y599095D01*
Y597405D01*
X584523Y595843D01*
X585718Y594647D01*
X587281Y594000D01*
X588971D01*
X590362Y594576D01*
X590882Y594604D01*
X591801Y594421D01*
X591859Y594282D01*
X592917Y593224D01*
Y560448D01*
X591646Y559776D01*
X590566Y560224D01*
X588875D01*
X587313Y559577D01*
X586118Y558381D01*
X585580Y557085D01*
X585140Y556997D01*
X584478Y556555D01*
X584478Y556555D01*
X581529Y553605D01*
X580283Y553853D01*
X580260Y553908D01*
X579065Y555103D01*
X578289Y555424D01*
Y643555D01*
X583973Y649240D01*
X585226Y648696D01*
D02*
G37*
G36*
X562000Y582822D02*
X563562Y582175D01*
X564397D01*
X565272Y582104D01*
X565570Y581002D01*
Y580388D01*
X566217Y578826D01*
X567413Y577631D01*
X567781Y577478D01*
Y559553D01*
X566612Y559277D01*
X566511Y559275D01*
X565333Y560453D01*
X563771Y561100D01*
X562080D01*
X560985Y560646D01*
X559715Y561309D01*
Y583448D01*
X560132Y583666D01*
X560985Y583838D01*
X562000Y582822D01*
D02*
G37*
G36*
X718711Y531363D02*
X718685Y531337D01*
X718243Y530675D01*
X718088Y529895D01*
Y510205D01*
X718243Y509425D01*
X718685Y508763D01*
X719711Y507737D01*
Y484500D01*
X714757D01*
X714407Y484850D01*
X712845Y485497D01*
X711155D01*
X709593Y484850D01*
X709243Y484500D01*
X705789D01*
Y555600D01*
X707682D01*
X708309Y554973D01*
X710055Y554250D01*
X711945D01*
X713691Y554973D01*
X714317Y555600D01*
X718711D01*
Y531363D01*
D02*
G37*
G36*
X457397Y569909D02*
X457850Y568814D01*
X459046Y567618D01*
X460608Y566971D01*
X462299D01*
X463861Y567618D01*
X464879Y568636D01*
X504802D01*
X505308Y567366D01*
X493499Y555558D01*
X493057Y554896D01*
X492902Y554116D01*
Y553900D01*
X492288Y553286D01*
X490690D01*
X490322Y553134D01*
X489052Y553185D01*
X488807Y553776D01*
X488405Y554747D01*
X487210Y555942D01*
X485648Y556589D01*
X483957D01*
X483868Y556553D01*
X482812Y557258D01*
Y557345D01*
X482165Y558907D01*
X480969Y560103D01*
X479407Y560750D01*
X477717D01*
X476155Y560103D01*
X474959Y558907D01*
X474312Y557345D01*
Y555655D01*
X474959Y554093D01*
X476155Y552897D01*
X477717Y552250D01*
X479407D01*
X479496Y552287D01*
X480552Y551581D01*
Y551494D01*
X481199Y549932D01*
X482395Y548736D01*
X483957Y548089D01*
X485648D01*
X486015Y548242D01*
X487285Y548191D01*
X487530Y547599D01*
X487932Y546629D01*
X487987Y546574D01*
X487461Y545304D01*
X433913D01*
X433707Y545441D01*
X432634Y545655D01*
X426779D01*
X426723Y545710D01*
X426363Y545970D01*
X426245Y547419D01*
X426252Y547436D01*
X433230Y554415D01*
X434500Y553889D01*
Y553251D01*
X435147Y551689D01*
X436343Y550494D01*
X437905Y549847D01*
X439595D01*
X441157Y550494D01*
X442353Y551689D01*
X443000Y553251D01*
Y554721D01*
X445442Y557163D01*
X445884Y557825D01*
X446039Y558605D01*
Y560348D01*
X456030Y570339D01*
X457397Y569909D01*
D02*
G37*
G36*
X737856Y502267D02*
Y491809D01*
X736586Y491146D01*
X735491Y491600D01*
X734638D01*
X734370Y491880D01*
X733906Y492870D01*
X734407Y494080D01*
Y495771D01*
X733760Y497333D01*
X732565Y498528D01*
X731003Y499175D01*
X729312D01*
X727750Y498528D01*
X726554Y497333D01*
X725907Y495771D01*
Y494080D01*
X726554Y492518D01*
X727750Y491322D01*
X729312Y490675D01*
X730164D01*
X730432Y490395D01*
X730897Y489405D01*
X730395Y488195D01*
Y486505D01*
X731042Y484943D01*
X732238Y483747D01*
X733675Y483152D01*
X734246Y481927D01*
X726308Y473989D01*
X725866Y473327D01*
X725711Y472547D01*
Y450846D01*
X725059Y450473D01*
X723789Y451194D01*
Y504252D01*
X725026Y504512D01*
X725059Y504512D01*
X726249Y503322D01*
X727811Y502675D01*
X729502D01*
X731064Y503322D01*
X732260Y504518D01*
X732713Y505613D01*
X734080Y506043D01*
X737856Y502267D01*
D02*
G37*
G36*
X540116Y498808D02*
X540116Y498808D01*
X540777Y498366D01*
X541558Y498211D01*
X570307D01*
X570569Y497820D01*
X570488Y497432D01*
X569980Y496415D01*
X568742Y495903D01*
X567547Y494707D01*
X567413Y494384D01*
X567413Y494384D01*
X566632Y494539D01*
X548506D01*
X548353Y494907D01*
X547157Y496103D01*
X545595Y496750D01*
X543905D01*
X542343Y496103D01*
X541147Y494907D01*
X540500Y493345D01*
Y491655D01*
X541147Y490093D01*
X542343Y488897D01*
X543301Y488500D01*
X543048Y487230D01*
X524260D01*
X523440Y488050D01*
X521878Y488697D01*
X520187D01*
X518625Y488050D01*
X517429Y486854D01*
X516782Y485292D01*
Y483601D01*
X517103Y482828D01*
X516026Y482108D01*
X498310Y499824D01*
X498836Y501095D01*
X499996D01*
X500777Y501250D01*
X501438Y501692D01*
X504827Y505080D01*
X506058Y504515D01*
X506647Y503093D01*
X507843Y501897D01*
X509405Y501250D01*
X511095D01*
X511597Y501458D01*
X512569Y500486D01*
X512407Y500095D01*
Y498405D01*
X513054Y496843D01*
X514250Y495647D01*
X515812Y495000D01*
X517503D01*
X519065Y495647D01*
X520260Y496843D01*
X520907Y498405D01*
Y500095D01*
X520260Y501657D01*
X519065Y502853D01*
X517503Y503500D01*
X515812D01*
X515310Y503292D01*
X514338Y504264D01*
X514500Y504655D01*
Y506345D01*
X513853Y507907D01*
X512657Y509103D01*
X511842Y509441D01*
X512094Y510711D01*
X528213D01*
X540116Y498808D01*
D02*
G37*
G36*
X624943Y500188D02*
X625397Y499093D01*
X626593Y497897D01*
X628155Y497250D01*
X629845D01*
X630413Y497485D01*
X631132Y496408D01*
X629420Y494696D01*
X628978Y494035D01*
X628823Y493254D01*
Y482773D01*
X628568Y482603D01*
X607500D01*
X606543Y482207D01*
X606147Y481250D01*
Y467603D01*
X592235D01*
X591987Y467500D01*
X591717D01*
X591527Y467310D01*
X591278Y467207D01*
X591175Y466958D01*
X590985Y466768D01*
X589911Y466554D01*
X587057Y469408D01*
X586148Y470016D01*
X585075Y470229D01*
X555670D01*
X555529Y470441D01*
X556211Y471711D01*
X570575D01*
X571356Y471866D01*
X572017Y472308D01*
X578827Y479117D01*
X580193Y478688D01*
X580647Y477593D01*
X581843Y476397D01*
X583405Y475750D01*
X585095D01*
X586657Y476397D01*
X587853Y477593D01*
X588500Y479155D01*
Y480845D01*
X588348Y481214D01*
X601095Y493961D01*
X612541D01*
X613204Y492691D01*
X612750Y491595D01*
Y489905D01*
X613397Y488343D01*
X614593Y487147D01*
X616155Y486500D01*
X617845D01*
X619407Y487147D01*
X620603Y488343D01*
X621250Y489905D01*
Y491595D01*
X620603Y493157D01*
X619407Y494353D01*
X618982Y494529D01*
X618734Y495775D01*
X623577Y500617D01*
X624943Y500188D01*
D02*
G37*
G36*
X701250Y485000D02*
X695996D01*
X695332Y485664D01*
X693494Y486425D01*
X691505D01*
X689668Y485664D01*
X689004Y485000D01*
X686250D01*
Y466250D01*
X701250D01*
Y398000D01*
X655000D01*
Y403151D01*
X655157Y403530D01*
Y405321D01*
X655000Y405700D01*
Y427457D01*
X658136Y430592D01*
X658633Y431337D01*
X658808Y432215D01*
Y484217D01*
Y497250D01*
X687500D01*
Y615000D01*
X672903D01*
X672517Y616270D01*
X673244Y616756D01*
X674239Y618244D01*
X674588Y620000D01*
Y629092D01*
X676301Y630804D01*
X681485D01*
X683241Y631154D01*
X684730Y632148D01*
X687581Y635000D01*
X701250D01*
Y485000D01*
D02*
G37*
G36*
X418287Y540699D02*
X418571Y540581D01*
X418804Y539408D01*
X418157Y537845D01*
Y536155D01*
X418804Y534593D01*
X420000Y533397D01*
X420368Y533245D01*
Y498327D01*
X404923Y482883D01*
X403557Y483312D01*
X403103Y484407D01*
X401907Y485603D01*
X400345Y486250D01*
X398655D01*
X397093Y485603D01*
X396020Y484530D01*
X395445Y484609D01*
X394750Y484920D01*
Y488750D01*
X383488D01*
Y489790D01*
X382995Y490980D01*
X383478Y491989D01*
X383740Y492250D01*
X394750D01*
Y496196D01*
X403750D01*
X404823Y496410D01*
X405733Y497017D01*
X410983Y502267D01*
X411590Y503177D01*
X411804Y504250D01*
X411804Y504250D01*
Y539696D01*
X414695D01*
X415768Y539910D01*
X416677Y540517D01*
X417084Y540924D01*
X418062D01*
X418287Y540699D01*
D02*
G37*
G36*
X645723Y488586D02*
X645915Y488120D01*
X647111Y486924D01*
X648673Y486277D01*
X650364D01*
X651926Y486924D01*
X653121Y488120D01*
X653204Y488320D01*
X654474Y488068D01*
Y469332D01*
X653204Y468669D01*
X652109Y469123D01*
X650418D01*
X648856Y468476D01*
X647661Y467281D01*
X647177Y466114D01*
X645907Y466366D01*
Y467771D01*
X645260Y469333D01*
X644065Y470528D01*
X642503Y471175D01*
X640812D01*
X639716Y470722D01*
X638447Y471384D01*
Y483106D01*
X644224Y488884D01*
X645723Y488586D01*
D02*
G37*
G36*
X694566Y484517D02*
X695040Y484043D01*
X695996Y483647D01*
X701250D01*
X701711Y483339D01*
Y467911D01*
X701250Y467603D01*
X687603D01*
Y483647D01*
X689004D01*
X689960Y484043D01*
X690434Y484517D01*
X691775Y485072D01*
X693225D01*
X694566Y484517D01*
D02*
G37*
G36*
X582697Y463352D02*
X582690Y463336D01*
X582500Y463146D01*
Y462877D01*
X582397Y462628D01*
Y447500D01*
X582793Y446543D01*
X583750Y446147D01*
X622334D01*
X622991Y444877D01*
X622752Y444539D01*
X581849D01*
X581069Y444384D01*
X580407Y443942D01*
X514636Y378170D01*
X513269Y378600D01*
X512815Y379695D01*
X511620Y380891D01*
X510058Y381538D01*
X508367D01*
X506805Y380891D01*
X505609Y379695D01*
X504962Y378133D01*
Y376442D01*
X505609Y374880D01*
X506805Y373685D01*
X508367Y373038D01*
X508987D01*
X510074Y372916D01*
X510211Y371864D01*
Y331726D01*
X509500Y330750D01*
X497000D01*
Y320134D01*
X494905Y318039D01*
X488791D01*
X487789Y319041D01*
Y361359D01*
X500904Y374473D01*
X500904Y374474D01*
X501346Y375135D01*
X501502Y375915D01*
Y414461D01*
X542299Y455259D01*
X542367Y455231D01*
X544058D01*
X545620Y455878D01*
X546816Y457073D01*
X547463Y458635D01*
Y460326D01*
X546816Y461888D01*
X545620Y463084D01*
X544974Y463352D01*
X545227Y464622D01*
X546911D01*
X547559Y463973D01*
X549305Y463250D01*
X551195D01*
X552941Y463973D01*
X553589Y464622D01*
X582170D01*
X582697Y463352D01*
D02*
G37*
G36*
X628568Y449955D02*
X626113Y447500D01*
X583750D01*
Y462628D01*
X585020Y463154D01*
X589941Y458233D01*
Y458000D01*
X590174Y456829D01*
X590837Y455837D01*
X591829Y455174D01*
X593000Y454941D01*
X594170Y455174D01*
X595163Y455837D01*
X595826Y456829D01*
X596059Y458000D01*
Y459500D01*
X595826Y460671D01*
X595163Y461663D01*
X591749Y465077D01*
X592235Y466250D01*
X607500D01*
Y481250D01*
X628568D01*
Y449955D01*
D02*
G37*
G36*
X641868Y449005D02*
Y445162D01*
X640598Y444636D01*
X640381Y444853D01*
X638819Y445500D01*
X637128D01*
X635566Y444853D01*
X634370Y443657D01*
X633723Y442095D01*
Y440405D01*
X633810Y440195D01*
X633105Y439139D01*
X628166D01*
X627386Y438984D01*
X626724Y438542D01*
X625411Y437229D01*
X624203Y436908D01*
X623008Y438103D01*
X621445Y438750D01*
X619755D01*
X618193Y438103D01*
X616997Y436907D01*
X616545Y435816D01*
X615220Y435937D01*
X614725Y437134D01*
X613529Y438330D01*
X611967Y438977D01*
X610276D01*
X608714Y438330D01*
X607519Y437134D01*
X606871Y435572D01*
Y433881D01*
X607519Y432319D01*
X608714Y431124D01*
X610276Y430476D01*
X611967D01*
X613529Y431124D01*
X614725Y432319D01*
X615177Y433411D01*
X616501Y433290D01*
X616997Y432093D01*
X617992Y431097D01*
X618406Y429715D01*
X575808Y387117D01*
X575366Y386456D01*
X575211Y385675D01*
Y327095D01*
X568558Y320442D01*
X568116Y319780D01*
X567961Y319000D01*
Y314709D01*
X566691Y314046D01*
X565595Y314500D01*
X563905D01*
X562342Y313853D01*
X561147Y312657D01*
X560793Y311804D01*
X555000D01*
X554729Y311750D01*
X549793D01*
X549307Y312923D01*
X553345Y316961D01*
X556000D01*
X556197Y317000D01*
X566500D01*
Y329461D01*
X567075D01*
X567856Y329616D01*
X568517Y330058D01*
X573196Y334736D01*
X573196Y334736D01*
X573638Y335398D01*
X573793Y336178D01*
X573793Y336178D01*
Y423409D01*
X577353Y426969D01*
X578062Y426675D01*
X579753D01*
X581315Y427322D01*
X582510Y428518D01*
X583157Y430080D01*
Y431771D01*
X582510Y433333D01*
X581315Y434528D01*
X579753Y435175D01*
X579205D01*
X578679Y436445D01*
X582694Y440461D01*
X624357D01*
X625138Y440616D01*
X625799Y441058D01*
X632304Y447563D01*
X632304Y447563D01*
X632380Y447676D01*
X633558Y448095D01*
X634001Y448024D01*
X635267Y447500D01*
X636957D01*
X638519Y448147D01*
X639715Y449343D01*
X639779Y449496D01*
X641014Y449763D01*
X641868Y449005D01*
D02*
G37*
G36*
X467560Y433139D02*
X467407Y432771D01*
Y431080D01*
X468054Y429518D01*
X468557Y429016D01*
X469113Y428132D01*
X468557Y427356D01*
X468003Y426802D01*
X467356Y425240D01*
Y423549D01*
X468003Y421987D01*
X468720Y421270D01*
X468194Y420000D01*
X441500D01*
Y410039D01*
X432750D01*
Y411866D01*
X438599Y417715D01*
X439041Y418377D01*
X439197Y419157D01*
X439197Y419157D01*
Y428670D01*
X439565Y428823D01*
X440760Y430018D01*
X441407Y431580D01*
Y433271D01*
X440954Y434366D01*
X441616Y435636D01*
X465063D01*
X467560Y433139D01*
D02*
G37*
G36*
X457970Y397230D02*
X457500Y396095D01*
Y394405D01*
X458147Y392842D01*
X459343Y391647D01*
X459520Y391573D01*
Y388926D01*
X459734Y387853D01*
X459946Y387535D01*
Y386662D01*
X448284Y375000D01*
X442094D01*
X440970Y375863D01*
X440970Y375864D01*
Y380175D01*
X440815Y380955D01*
X440373Y381617D01*
X437750Y384240D01*
Y394250D01*
X437750Y394250D01*
X437750D01*
X438814Y394853D01*
X438908Y394892D01*
X440103Y396087D01*
X440712Y397557D01*
X441500Y398500D01*
X441569Y398500D01*
X457330D01*
X457970Y397230D01*
D02*
G37*
G36*
X643118Y416998D02*
Y393931D01*
X642750Y393778D01*
X641554Y392583D01*
X641257Y391865D01*
X639881Y391467D01*
X639197Y391997D01*
Y400603D01*
X639197Y400603D01*
X639041Y401384D01*
X638599Y402045D01*
X638599Y402045D01*
X634581Y406063D01*
X633920Y406505D01*
X633139Y406660D01*
X632223D01*
X630597Y408286D01*
X630750Y408655D01*
Y410345D01*
X630103Y411907D01*
X628907Y413103D01*
X627345Y413750D01*
X625655D01*
X624093Y413103D01*
X622897Y411907D01*
X622250Y410345D01*
Y408655D01*
X622897Y407093D01*
X624093Y405897D01*
X624724Y405635D01*
Y404261D01*
X624343Y404103D01*
X623147Y402907D01*
X622500Y401345D01*
Y399655D01*
X623147Y398093D01*
X624343Y396897D01*
X625905Y396250D01*
X626554D01*
X627629Y395612D01*
X627657Y395077D01*
Y393905D01*
X628304Y392343D01*
X629500Y391147D01*
X631062Y390500D01*
X632753D01*
X633848Y390954D01*
X634376Y390804D01*
X634990Y390445D01*
X635188Y390239D01*
X635273Y389812D01*
X635715Y389151D01*
X641158Y383708D01*
X641308Y383484D01*
X641970Y383041D01*
X642750Y382886D01*
X662602D01*
X662772Y382631D01*
Y356126D01*
X661502Y355278D01*
X661095Y355446D01*
X659405D01*
X658270Y354976D01*
X657000Y355616D01*
Y364500D01*
X644500D01*
Y351000D01*
X650961D01*
Y347725D01*
X651116Y346945D01*
X651558Y346283D01*
X654461Y343380D01*
Y341745D01*
X653191Y341433D01*
X652942Y341806D01*
X652942Y341806D01*
X646749Y347999D01*
X646087Y348441D01*
X645307Y348596D01*
X643538D01*
X638500Y353634D01*
Y364250D01*
X639374Y365058D01*
X642277Y367961D01*
X646500D01*
X647280Y368116D01*
X647942Y368558D01*
X652192Y372808D01*
X652192Y372808D01*
X652634Y373470D01*
X652789Y374250D01*
Y374750D01*
X652634Y375530D01*
X652192Y376192D01*
X651530Y376634D01*
X650750Y376789D01*
X649970Y376634D01*
X649308Y376192D01*
X648866Y375530D01*
X648796Y375180D01*
X645655Y372039D01*
X641432D01*
X641432Y372039D01*
X640652Y371884D01*
X639990Y371442D01*
X639990Y371442D01*
X639673Y371125D01*
X638500Y371611D01*
Y381250D01*
X628884D01*
X614039Y396095D01*
Y399807D01*
X614258Y399897D01*
X615453Y401093D01*
X616100Y402655D01*
Y404345D01*
X615453Y405907D01*
X614258Y407103D01*
X612695Y407750D01*
X611987D01*
X611461Y409020D01*
X631279Y428838D01*
X643118Y416998D01*
D02*
G37*
G36*
X649812Y400175D02*
X651503D01*
X652377Y400538D01*
X653647Y399745D01*
Y398000D01*
X654043Y397043D01*
X655000Y396647D01*
X698604D01*
X699090Y395474D01*
X690581Y386965D01*
X649616D01*
X648954Y388235D01*
X649407Y389330D01*
Y391021D01*
X648760Y392583D01*
X647565Y393778D01*
X647197Y393931D01*
Y400216D01*
X648466Y400733D01*
X649812Y400175D01*
D02*
G37*
G36*
X574009Y429980D02*
X574100Y429484D01*
X570312Y425696D01*
X569870Y425034D01*
X569715Y424254D01*
Y374495D01*
X568457Y373957D01*
X567500Y374353D01*
X518246D01*
X517759Y375526D01*
X572638Y430405D01*
X574009Y429980D01*
D02*
G37*
G36*
X591304Y385518D02*
X592500Y384322D01*
X594062Y383675D01*
X595753D01*
X597315Y384322D01*
X598489Y385496D01*
X598511Y385518D01*
X599249Y385683D01*
X599947Y385669D01*
X607500Y378116D01*
Y369029D01*
X606230Y368742D01*
X605530Y369442D01*
X604869Y369884D01*
X604807Y369896D01*
X604442Y370442D01*
X604420Y370464D01*
X603758Y370906D01*
X602978Y371061D01*
X601073D01*
X597204Y374930D01*
X597134Y375280D01*
X596692Y375942D01*
X596030Y376384D01*
X595250Y376539D01*
X594470Y376384D01*
X593808Y375942D01*
X593366Y375280D01*
X593211Y374500D01*
Y374000D01*
X593366Y373220D01*
X593808Y372558D01*
X598786Y367580D01*
X599448Y367138D01*
X600228Y366983D01*
X601274D01*
X601558Y366558D01*
X602220Y366116D01*
X603000Y365961D01*
X603243D01*
X604146Y365058D01*
X604808Y364616D01*
X605588Y364461D01*
X605588Y364461D01*
X606421D01*
X607500Y364000D01*
Y350500D01*
X620000D01*
Y352532D01*
X621270Y352657D01*
X621400Y352004D01*
X621842Y351342D01*
X624625Y348559D01*
X624099Y347289D01*
X608345D01*
X601500Y354134D01*
Y364250D01*
X589789D01*
Y385857D01*
X591059Y386110D01*
X591304Y385518D01*
D02*
G37*
G36*
X607600Y403363D02*
Y402655D01*
X608247Y401093D01*
X609443Y399897D01*
X609961Y399682D01*
Y395250D01*
X610116Y394470D01*
X610558Y393808D01*
X626000Y378366D01*
Y368539D01*
X620000D01*
Y381000D01*
X610384D01*
X603289Y388095D01*
Y389995D01*
X603657Y390147D01*
X604853Y391343D01*
X605500Y392905D01*
Y394595D01*
X604853Y396157D01*
X603657Y397353D01*
X602196Y397958D01*
X601614Y399173D01*
X606330Y403889D01*
X607600Y403363D01*
D02*
G37*
G36*
X466576Y384164D02*
X466843Y383897D01*
X467938Y383443D01*
X468367Y382077D01*
X460558Y374267D01*
X460116Y373606D01*
X459961Y372825D01*
Y354163D01*
X453423Y347625D01*
X452250Y348111D01*
Y356750D01*
X448304D01*
Y362500D01*
X452250D01*
Y371035D01*
X464733Y383518D01*
X465010Y383933D01*
X466357Y384211D01*
X466576Y384164D01*
D02*
G37*
G36*
X621442Y426565D02*
X621865Y425192D01*
X586308Y389635D01*
X585866Y388973D01*
X585711Y388193D01*
Y351845D01*
X580462Y346596D01*
X579289Y347082D01*
Y384831D01*
X621090Y426632D01*
X621442Y426565D01*
D02*
G37*
G36*
X568000Y372500D02*
Y335669D01*
X566125Y333794D01*
X554318D01*
X553440Y333619D01*
X553261Y333500D01*
X534634D01*
Y340559D01*
X535229Y341153D01*
X536521D01*
X538834Y338840D01*
X539337Y338087D01*
X540330Y337424D01*
X541500Y337191D01*
X542671Y337424D01*
X543663Y338087D01*
X544326Y339080D01*
X544559Y340250D01*
Y340500D01*
X544326Y341670D01*
X543663Y342663D01*
X539913Y346413D01*
X538921Y347076D01*
X537750Y347309D01*
X537750Y347309D01*
X534000D01*
X532829Y347076D01*
X531837Y346413D01*
X531837Y346413D01*
X529413Y343988D01*
X528750Y342996D01*
X528517Y341825D01*
X528517Y341825D01*
Y333500D01*
X514750D01*
X514544Y333585D01*
Y371950D01*
X515593Y373000D01*
X567500D01*
X568000Y372500D01*
D02*
G37*
G36*
X606058Y343808D02*
X606058Y343808D01*
X606720Y343366D01*
X607500Y343211D01*
X614477D01*
X614647Y342956D01*
Y339950D01*
X614480Y339700D01*
X607750D01*
Y333242D01*
X606480Y333117D01*
X606166Y334693D01*
X604896Y336595D01*
X602994Y337866D01*
X600750Y338313D01*
X598507Y337866D01*
X596604Y336595D01*
X595334Y334693D01*
X594887Y332450D01*
Y329676D01*
X593617Y329189D01*
X592222Y329767D01*
X590531D01*
X588969Y329120D01*
X587773Y327925D01*
X587126Y326363D01*
Y325841D01*
X586144Y324859D01*
X585536Y323949D01*
X585322Y322876D01*
Y315947D01*
X584762Y315677D01*
X584052Y315558D01*
X583008Y316603D01*
X581445Y317250D01*
X579755D01*
X578659Y316796D01*
X577389Y317459D01*
Y319263D01*
X581692Y323565D01*
X581692Y323565D01*
X582134Y324227D01*
X582289Y325007D01*
X582289Y325008D01*
Y342655D01*
X589192Y349558D01*
X589634Y350220D01*
X589739Y350750D01*
X599116D01*
X606058Y343808D01*
D02*
G37*
G36*
X415500Y347573D02*
X417062Y346925D01*
X418753D01*
X420315Y347573D01*
X420480Y347738D01*
X421750Y347212D01*
Y344250D01*
X431607D01*
X431860Y342980D01*
X431380Y342781D01*
X430185Y341586D01*
X429538Y340024D01*
Y338333D01*
X430185Y336771D01*
X431380Y335575D01*
X432942Y334928D01*
X434633D01*
X436195Y335575D01*
X437391Y336771D01*
X438038Y338333D01*
Y339573D01*
X442715Y344250D01*
X448389D01*
X448875Y343077D01*
X436684Y330886D01*
X394273D01*
X393823Y332061D01*
X393840Y332156D01*
X394442Y332558D01*
X397942Y336058D01*
X397942Y336058D01*
X398384Y336720D01*
X398539Y337500D01*
Y342223D01*
X400316Y344000D01*
X413750D01*
Y347526D01*
X415020Y348052D01*
X415500Y347573D01*
D02*
G37*
G36*
X701250Y389846D02*
Y344500D01*
Y340104D01*
X701000Y340000D01*
X672500D01*
Y339950D01*
X671500D01*
Y326341D01*
X670351Y325865D01*
X669085Y324599D01*
X668400Y322945D01*
Y321155D01*
X669085Y319501D01*
X670351Y318235D01*
X672005Y317550D01*
X672500D01*
Y310250D01*
X616000D01*
Y317552D01*
X617649Y318235D01*
X618915Y319501D01*
X619600Y321155D01*
Y322945D01*
X618915Y324599D01*
X617649Y325865D01*
X616500Y326341D01*
Y339950D01*
X616000D01*
Y342956D01*
X623750D01*
Y339950D01*
X623500D01*
Y325550D01*
X639206D01*
Y322879D01*
X639381Y322001D01*
X639878Y321256D01*
X640757Y320378D01*
X641501Y319881D01*
X642379Y319706D01*
X650621D01*
X651499Y319881D01*
X652243Y320378D01*
X653122Y321256D01*
X653619Y322001D01*
X653794Y322879D01*
Y325550D01*
X664500D01*
Y338970D01*
X665082Y339211D01*
X666489Y340618D01*
X667250Y342455D01*
Y344445D01*
X666489Y346282D01*
X665082Y347689D01*
X664799Y347806D01*
X664318Y349259D01*
X664750Y350301D01*
Y352091D01*
X664125Y353600D01*
Y382631D01*
X691425D01*
X692303Y382806D01*
X693048Y383303D01*
X700077Y390332D01*
X701250Y389846D01*
D02*
G37*
G36*
X353250Y325100D02*
X357987D01*
X359202Y324597D01*
X360893D01*
X362109Y325100D01*
X367750D01*
X367961Y323917D01*
Y320583D01*
X367750Y319400D01*
X362805D01*
X362455Y319750D01*
X360893Y320397D01*
X359202D01*
X357640Y319750D01*
X357291Y319400D01*
X353250D01*
Y312400D01*
X356929D01*
X357004Y312309D01*
X356403Y311039D01*
X349845D01*
X348039Y312845D01*
Y326807D01*
X353250D01*
Y325100D01*
D02*
G37*
G36*
X584523Y309610D02*
X585719Y308414D01*
X587281Y307768D01*
X588972D01*
X590534Y308414D01*
X591333Y309214D01*
X606321D01*
X620007Y295528D01*
X620872Y294950D01*
X620929Y294903D01*
X621014Y294784D01*
X621470Y293515D01*
X620990Y292356D01*
X619720Y291914D01*
X614192Y297442D01*
X613530Y297884D01*
X612750Y298039D01*
X572144D01*
X571671Y298838D01*
X571590Y299281D01*
X576792Y304483D01*
X576792Y304483D01*
X577234Y305145D01*
X577389Y305925D01*
X577389Y305926D01*
Y308541D01*
X578659Y309204D01*
X579755Y308750D01*
X581445D01*
X583008Y309397D01*
X583437Y309826D01*
X584523Y309610D01*
D02*
G37*
G36*
X641467Y307627D02*
X641247Y307407D01*
X640600Y305845D01*
Y304155D01*
X641247Y302593D01*
X642255Y301585D01*
X642069Y300697D01*
X641866Y300315D01*
X623151D01*
X615742Y307724D01*
X615760Y307806D01*
X616364Y308897D01*
X640940D01*
X641467Y307627D01*
D02*
G37*
G36*
X500670Y282355D02*
X501331Y281913D01*
X502111Y281758D01*
X546639D01*
X547125Y280584D01*
X545080Y278539D01*
X488709D01*
X488193Y279809D01*
X488750Y281155D01*
Y282845D01*
X488296Y283941D01*
X488959Y285211D01*
X497813D01*
X500670Y282355D01*
D02*
G37*
%LPC*%
G36*
X712893Y741397D02*
X711202D01*
X709640Y740750D01*
X709291Y740400D01*
X705250D01*
Y733400D01*
X709987D01*
X711202Y732897D01*
X712893D01*
X714109Y733400D01*
X719750D01*
Y740400D01*
X714805D01*
X714455Y740750D01*
X712893Y741397D01*
D02*
G37*
G36*
X751945Y741750D02*
X750055D01*
X748309Y741027D01*
X747682Y740400D01*
X744250D01*
Y733400D01*
X747883D01*
X748309Y732973D01*
X750055Y732250D01*
X751945D01*
X753691Y732973D01*
X754118Y733400D01*
X758750D01*
Y740400D01*
X754317D01*
X753691Y741027D01*
X751945Y741750D01*
D02*
G37*
G36*
X752945Y728750D02*
X751055D01*
X749309Y728027D01*
X748982Y727700D01*
X744250D01*
Y720700D01*
X748582D01*
X749309Y719973D01*
X751055Y719250D01*
X752945D01*
X754691Y719973D01*
X755417Y720700D01*
X758750D01*
Y727700D01*
X755017D01*
X754691Y728027D01*
X752945Y728750D01*
D02*
G37*
G36*
X753945Y715750D02*
X752055D01*
X750309Y715027D01*
X750282Y715000D01*
X744250D01*
Y708000D01*
X749282D01*
X750309Y706973D01*
X752055Y706250D01*
X753945D01*
X755691Y706973D01*
X756718Y708000D01*
X758750D01*
Y715000D01*
X755717D01*
X755691Y715027D01*
X753945Y715750D01*
D02*
G37*
G36*
X728222Y713268D02*
X726531D01*
X724969Y712620D01*
X723773Y711425D01*
X723126Y709863D01*
Y708172D01*
X723773Y706610D01*
X724969Y705415D01*
X726531Y704768D01*
X728222D01*
X729784Y705415D01*
X730979Y706610D01*
X731626Y708172D01*
Y709863D01*
X730979Y711425D01*
X729784Y712620D01*
X728222Y713268D01*
D02*
G37*
G36*
X753945Y703750D02*
X752055D01*
X750309Y703027D01*
X749582Y702300D01*
X744250D01*
Y695300D01*
X749982D01*
X750309Y694973D01*
X752055Y694250D01*
X753945D01*
X755691Y694973D01*
X756018Y695300D01*
X758750D01*
Y702300D01*
X756417D01*
X755691Y703027D01*
X753945Y703750D01*
D02*
G37*
G36*
Y690750D02*
X752055D01*
X750309Y690027D01*
X749882Y689600D01*
X744250D01*
Y682600D01*
X749682D01*
X750309Y681973D01*
X752055Y681250D01*
X753945D01*
X755691Y681973D01*
X756318Y682600D01*
X758750D01*
Y689600D01*
X756117D01*
X755691Y690027D01*
X753945Y690750D01*
D02*
G37*
G36*
Y677750D02*
X752055D01*
X750309Y677027D01*
X750182Y676900D01*
X744250D01*
Y669900D01*
X749382D01*
X750309Y668973D01*
X752055Y668250D01*
X753945D01*
X755691Y668973D01*
X756618Y669900D01*
X758750D01*
Y676900D01*
X755817D01*
X755691Y677027D01*
X753945Y677750D01*
D02*
G37*
G36*
X751893Y665197D02*
X750202D01*
X748640Y664549D01*
X748291Y664200D01*
X744250D01*
Y657200D01*
X748987D01*
X750202Y656697D01*
X751893D01*
X753109Y657200D01*
X758750D01*
Y664200D01*
X753805D01*
X753455Y664549D01*
X751893Y665197D01*
D02*
G37*
G36*
X753945Y652750D02*
X752055D01*
X750309Y652027D01*
X749782Y651500D01*
X744250D01*
Y644500D01*
X749782D01*
X750309Y643973D01*
X752055Y643250D01*
X753945D01*
X755691Y643973D01*
X756217Y644500D01*
X758750D01*
Y651500D01*
X756217D01*
X755691Y652027D01*
X753945Y652750D01*
D02*
G37*
G36*
X751893Y639797D02*
X750202D01*
X748640Y639150D01*
X748291Y638800D01*
X744250D01*
Y631800D01*
X748987D01*
X750202Y631297D01*
X751893D01*
X753109Y631800D01*
X758750D01*
Y638800D01*
X753805D01*
X753455Y639150D01*
X751893Y639797D01*
D02*
G37*
G36*
Y627097D02*
X750202D01*
X748640Y626450D01*
X748291Y626100D01*
X744250D01*
Y619100D01*
X748987D01*
X750202Y618597D01*
X751893D01*
X753109Y619100D01*
X758750D01*
Y626100D01*
X753805D01*
X753455Y626450D01*
X751893Y627097D01*
D02*
G37*
G36*
Y614397D02*
X750202D01*
X748640Y613750D01*
X748291Y613400D01*
X744250D01*
Y606400D01*
X748987D01*
X750202Y605897D01*
X751893D01*
X753109Y606400D01*
X758750D01*
Y613400D01*
X753805D01*
X753455Y613750D01*
X751893Y614397D01*
D02*
G37*
G36*
Y601697D02*
X750202D01*
X748640Y601049D01*
X748291Y600700D01*
X744250D01*
Y593700D01*
X748987D01*
X750202Y593197D01*
X751893D01*
X753109Y593700D01*
X758750D01*
Y600700D01*
X753805D01*
X753455Y601049D01*
X751893Y601697D01*
D02*
G37*
G36*
X752945Y589750D02*
X751055D01*
X749309Y589027D01*
X748282Y588000D01*
X744250D01*
Y581000D01*
X749282D01*
X749309Y580973D01*
X751055Y580250D01*
X752945D01*
X754691Y580973D01*
X754717Y581000D01*
X758750D01*
Y588000D01*
X755717D01*
X754691Y589027D01*
X752945Y589750D01*
D02*
G37*
G36*
Y576750D02*
X751055D01*
X749309Y576027D01*
X748582Y575300D01*
X744250D01*
Y568300D01*
X748982D01*
X749309Y567973D01*
X751055Y567250D01*
X752945D01*
X754691Y567973D01*
X755017Y568300D01*
X758750D01*
Y575300D01*
X755417D01*
X754691Y576027D01*
X752945Y576750D01*
D02*
G37*
G36*
Y563750D02*
X751055D01*
X749309Y563027D01*
X748882Y562600D01*
X744250D01*
Y555600D01*
X748682D01*
X749309Y554973D01*
X751055Y554250D01*
X752945D01*
X754691Y554973D01*
X755318Y555600D01*
X758750D01*
Y562600D01*
X755117D01*
X754691Y563027D01*
X752945Y563750D01*
D02*
G37*
G36*
X751945Y485750D02*
X750055D01*
X748309Y485027D01*
X747783Y484500D01*
X744250D01*
Y477500D01*
X747783D01*
X748309Y476973D01*
X750055Y476250D01*
X751945D01*
X753691Y476973D01*
X754218Y477500D01*
X758750D01*
Y484500D01*
X754218D01*
X753691Y485027D01*
X751945Y485750D01*
D02*
G37*
G36*
X488853Y760266D02*
X486963D01*
X485217Y759543D01*
X483881Y758206D01*
X483158Y756461D01*
Y754571D01*
X483881Y752825D01*
X485217Y751489D01*
X486963Y750766D01*
X488853D01*
X490598Y751489D01*
X491935Y752825D01*
X492658Y754571D01*
Y756461D01*
X491935Y758206D01*
X490598Y759543D01*
X488853Y760266D01*
D02*
G37*
G36*
X508195Y734000D02*
X506505D01*
X504943Y733353D01*
X503747Y732158D01*
X503100Y730595D01*
Y728905D01*
X503747Y727343D01*
X504943Y726147D01*
X506505Y725500D01*
X508195D01*
X509757Y726147D01*
X510953Y727343D01*
X511600Y728905D01*
Y730595D01*
X510953Y732158D01*
X509757Y733353D01*
X508195Y734000D01*
D02*
G37*
G36*
X600295Y708225D02*
X598405D01*
X596659Y707502D01*
X595323Y706166D01*
X594600Y704420D01*
Y702530D01*
X595323Y700785D01*
X596659Y699448D01*
X598405Y698725D01*
X600295D01*
X602041Y699448D01*
X603377Y700785D01*
X604100Y702530D01*
Y704420D01*
X603377Y706166D01*
X602041Y707502D01*
X600295Y708225D01*
D02*
G37*
G36*
X594695Y675750D02*
X593005D01*
X591443Y675103D01*
X590247Y673907D01*
X589600Y672345D01*
Y670655D01*
X590247Y669093D01*
X591443Y667897D01*
X593005Y667250D01*
X594695D01*
X596258Y667897D01*
X597453Y669093D01*
X598100Y670655D01*
Y672345D01*
X597453Y673907D01*
X596258Y675103D01*
X594695Y675750D01*
D02*
G37*
G36*
X545345Y561500D02*
X543655D01*
X542093Y560853D01*
X540897Y559657D01*
X540250Y558095D01*
Y556405D01*
X540897Y554843D01*
X542093Y553647D01*
X543655Y553000D01*
X545345D01*
X546907Y553647D01*
X548103Y554843D01*
X548750Y556405D01*
Y558095D01*
X548103Y559657D01*
X546907Y560853D01*
X545345Y561500D01*
D02*
G37*
G36*
X487003Y488425D02*
X485312D01*
X483750Y487778D01*
X482554Y486583D01*
X481907Y485021D01*
Y483330D01*
X482554Y481768D01*
X483750Y480572D01*
X485312Y479925D01*
X487003D01*
X488565Y480572D01*
X489760Y481768D01*
X490407Y483330D01*
Y485021D01*
X489760Y486583D01*
X488565Y487778D01*
X487003Y488425D01*
D02*
G37*
G36*
X474845Y488000D02*
X473155D01*
X471593Y487353D01*
X470397Y486157D01*
X469750Y484595D01*
Y482905D01*
X470397Y481343D01*
X471593Y480147D01*
X473155Y479500D01*
X474845D01*
X476407Y480147D01*
X477603Y481343D01*
X478250Y482905D01*
Y484595D01*
X477603Y486157D01*
X476407Y487353D01*
X474845Y488000D01*
D02*
G37*
G36*
X506345Y481000D02*
X504655D01*
X503093Y480353D01*
X501897Y479157D01*
X501250Y477595D01*
Y475905D01*
X501897Y474343D01*
X503093Y473147D01*
X504655Y472500D01*
X506345D01*
X507907Y473147D01*
X509103Y474343D01*
X509750Y475905D01*
Y477595D01*
X509103Y479157D01*
X507907Y480353D01*
X506345Y481000D01*
D02*
G37*
G36*
X361992Y779413D02*
X360301D01*
X358739Y778766D01*
X358473Y778500D01*
X353250D01*
Y771500D01*
X358885D01*
X360301Y770913D01*
X361992D01*
X363408Y771500D01*
X367750D01*
Y778500D01*
X363820D01*
X363554Y778766D01*
X361992Y779413D01*
D02*
G37*
G36*
X322992Y779163D02*
X321301D01*
X319739Y778516D01*
X319723Y778500D01*
X314250D01*
Y771500D01*
X319550D01*
X319739Y771310D01*
X321301Y770663D01*
X322992D01*
X324554Y771310D01*
X324744Y771500D01*
X328750D01*
Y778500D01*
X324571D01*
X324554Y778516D01*
X322992Y779163D01*
D02*
G37*
G36*
X322242Y766663D02*
X320551D01*
X318989Y766016D01*
X318773Y765800D01*
X314250D01*
Y758800D01*
X319014D01*
X320551Y758163D01*
X322242D01*
X323779Y758800D01*
X328750D01*
Y765800D01*
X324021D01*
X323804Y766016D01*
X322242Y766663D01*
D02*
G37*
G36*
X361992Y766413D02*
X360301D01*
X358820Y765800D01*
X353250D01*
Y758800D01*
X358500D01*
X358739Y758560D01*
X360301Y757913D01*
X361992D01*
X363554Y758560D01*
X363794Y758800D01*
X367750D01*
Y765800D01*
X363473D01*
X361992Y766413D01*
D02*
G37*
G36*
X322992Y753663D02*
X321301D01*
X319941Y753100D01*
X314250D01*
Y746100D01*
X319450D01*
X319739Y745810D01*
X321301Y745163D01*
X322992D01*
X324554Y745810D01*
X324844Y746100D01*
X328750D01*
Y753100D01*
X324352D01*
X322992Y753663D01*
D02*
G37*
G36*
X361742Y753413D02*
X360051D01*
X359295Y753100D01*
X353250D01*
Y746100D01*
X357950D01*
X358489Y745560D01*
X360051Y744913D01*
X361742D01*
X363304Y745560D01*
X363844Y746100D01*
X367750D01*
Y753100D01*
X362499D01*
X361742Y753413D01*
D02*
G37*
G36*
X321893Y741397D02*
X320202D01*
X318640Y740750D01*
X318291Y740400D01*
X314250D01*
Y733400D01*
X318987D01*
X320202Y732897D01*
X321893D01*
X323109Y733400D01*
X328750D01*
Y740400D01*
X323805D01*
X323455Y740750D01*
X321893Y741397D01*
D02*
G37*
G36*
Y728697D02*
X320202D01*
X318640Y728049D01*
X318291Y727700D01*
X314250D01*
Y720700D01*
X318987D01*
X320202Y720197D01*
X321893D01*
X323109Y720700D01*
X328750D01*
Y727700D01*
X323805D01*
X323455Y728049D01*
X321893Y728697D01*
D02*
G37*
G36*
X322345Y715750D02*
X320655D01*
X319093Y715103D01*
X318990Y715000D01*
X314250D01*
Y708000D01*
X318990D01*
X319093Y707897D01*
X320655Y707250D01*
X322345D01*
X323907Y707897D01*
X324010Y708000D01*
X328750D01*
Y715000D01*
X324010D01*
X323907Y715103D01*
X322345Y715750D01*
D02*
G37*
G36*
X321945Y703750D02*
X320055D01*
X318309Y703027D01*
X317582Y702300D01*
X314250D01*
Y695300D01*
X317982D01*
X318309Y694973D01*
X320055Y694250D01*
X321945D01*
X323691Y694973D01*
X324017Y695300D01*
X328750D01*
Y702300D01*
X324417D01*
X323691Y703027D01*
X321945Y703750D01*
D02*
G37*
G36*
Y690750D02*
X320055D01*
X318309Y690027D01*
X317882Y689600D01*
X314250D01*
Y682600D01*
X317682D01*
X318309Y681973D01*
X320055Y681250D01*
X321945D01*
X323691Y681973D01*
X324318Y682600D01*
X328750D01*
Y689600D01*
X324118D01*
X323691Y690027D01*
X321945Y690750D01*
D02*
G37*
G36*
X394695Y686750D02*
X393005D01*
X391443Y686103D01*
X390247Y684907D01*
X389600Y683345D01*
Y681655D01*
X390247Y680093D01*
X391443Y678897D01*
X393005Y678250D01*
X394695D01*
X396257Y678897D01*
X397453Y680093D01*
X398100Y681655D01*
Y683345D01*
X397453Y684907D01*
X396257Y686103D01*
X394695Y686750D01*
D02*
G37*
G36*
X321893Y677897D02*
X320202D01*
X318640Y677250D01*
X318291Y676900D01*
X314250D01*
Y669900D01*
X318987D01*
X320202Y669397D01*
X321893D01*
X323109Y669900D01*
X328750D01*
Y676900D01*
X323805D01*
X323455Y677250D01*
X321893Y677897D01*
D02*
G37*
G36*
X361945Y677750D02*
X360055D01*
X358309Y677027D01*
X358182Y676900D01*
X353250D01*
Y669900D01*
X357382D01*
X358309Y668973D01*
X360055Y668250D01*
X361945D01*
X363691Y668973D01*
X364618Y669900D01*
X367750D01*
Y676900D01*
X363817D01*
X363691Y677027D01*
X361945Y677750D01*
D02*
G37*
G36*
X321893Y665197D02*
X320202D01*
X318640Y664549D01*
X318291Y664200D01*
X314250D01*
Y657200D01*
X318987D01*
X320202Y656697D01*
X321893D01*
X323109Y657200D01*
X328750D01*
Y664200D01*
X323805D01*
X323455Y664549D01*
X321893Y665197D01*
D02*
G37*
G36*
X361945Y665750D02*
X360055D01*
X358309Y665027D01*
X357482Y664200D01*
X353250D01*
Y657200D01*
X358082D01*
X358309Y656973D01*
X360055Y656250D01*
X361945D01*
X363691Y656973D01*
X363918Y657200D01*
X367750D01*
Y664200D01*
X364518D01*
X363691Y665027D01*
X361945Y665750D01*
D02*
G37*
G36*
Y652750D02*
X360055D01*
X358309Y652027D01*
X357782Y651500D01*
X353250D01*
Y644500D01*
X357782D01*
X358309Y643973D01*
X360055Y643250D01*
X361945D01*
X363691Y643973D01*
X364217Y644500D01*
X367750D01*
Y651500D01*
X364217D01*
X363691Y652027D01*
X361945Y652750D01*
D02*
G37*
G36*
X321945D02*
X320055D01*
X318309Y652027D01*
X317782Y651500D01*
X314250D01*
Y644500D01*
X317782D01*
X318309Y643973D01*
X320055Y643250D01*
X321945D01*
X323691Y643973D01*
X324217Y644500D01*
X328750D01*
Y651500D01*
X324217D01*
X323691Y652027D01*
X321945Y652750D01*
D02*
G37*
G36*
X359945Y639750D02*
X358055D01*
X356309Y639027D01*
X356082Y638800D01*
X353250D01*
Y631800D01*
X355482D01*
X356309Y630973D01*
X358055Y630250D01*
X359945D01*
X361691Y630973D01*
X362518Y631800D01*
X367750D01*
Y638800D01*
X361917D01*
X361691Y639027D01*
X359945Y639750D01*
D02*
G37*
G36*
X321945D02*
X320055D01*
X318309Y639027D01*
X318082Y638800D01*
X314250D01*
Y631800D01*
X317482D01*
X318309Y630973D01*
X320055Y630250D01*
X321945D01*
X323691Y630973D01*
X324518Y631800D01*
X328750D01*
Y638800D01*
X323918D01*
X323691Y639027D01*
X321945Y639750D01*
D02*
G37*
G36*
X321893Y627000D02*
X320202D01*
X318640Y626353D01*
X318387Y626100D01*
X314250D01*
Y619100D01*
X318754D01*
X320202Y618500D01*
X321893D01*
X323342Y619100D01*
X328750D01*
Y626100D01*
X323708D01*
X323455Y626353D01*
X321893Y627000D01*
D02*
G37*
G36*
Y614397D02*
X320202D01*
X318640Y613750D01*
X318291Y613400D01*
X314250D01*
Y606400D01*
X318987D01*
X320202Y605897D01*
X321893D01*
X323109Y606400D01*
X328750D01*
Y613400D01*
X323805D01*
X323455Y613750D01*
X321893Y614397D01*
D02*
G37*
G36*
X360945Y601750D02*
X359055D01*
X357309Y601027D01*
X356982Y600700D01*
X353250D01*
Y593700D01*
X356582D01*
X357309Y592973D01*
X359055Y592250D01*
X360945D01*
X362691Y592973D01*
X363418Y593700D01*
X367750D01*
Y600700D01*
X363018D01*
X362691Y601027D01*
X360945Y601750D01*
D02*
G37*
G36*
X404195Y600500D02*
X402505D01*
X400943Y599853D01*
X399747Y598657D01*
X399100Y597095D01*
Y595405D01*
X399747Y593843D01*
X400943Y592647D01*
X402505Y592000D01*
X404195D01*
X405757Y592647D01*
X406953Y593843D01*
X407600Y595405D01*
Y597095D01*
X406953Y598657D01*
X405757Y599853D01*
X404195Y600500D01*
D02*
G37*
G36*
X321893Y588997D02*
X320202D01*
X318640Y588349D01*
X318291Y588000D01*
X314250D01*
Y581000D01*
X318987D01*
X320202Y580497D01*
X321893D01*
X323109Y581000D01*
X328750D01*
Y588000D01*
X323805D01*
X323455Y588349D01*
X321893Y588997D01*
D02*
G37*
G36*
X360945Y588750D02*
X359055D01*
X357309Y588027D01*
X357282Y588000D01*
X353250D01*
Y581000D01*
X356282D01*
X357309Y579973D01*
X359055Y579250D01*
X360945D01*
X362691Y579973D01*
X363717Y581000D01*
X367750D01*
Y588000D01*
X362718D01*
X362691Y588027D01*
X360945Y588750D01*
D02*
G37*
G36*
X360893Y576297D02*
X359202D01*
X357640Y575649D01*
X357291Y575300D01*
X353250D01*
Y568300D01*
X357987D01*
X359202Y567797D01*
X360893D01*
X362109Y568300D01*
X367750D01*
Y575300D01*
X362805D01*
X362455Y575649D01*
X360893Y576297D01*
D02*
G37*
G36*
X321893D02*
X320202D01*
X318640Y575649D01*
X318291Y575300D01*
X314250D01*
Y568300D01*
X318987D01*
X320202Y567797D01*
X321893D01*
X323109Y568300D01*
X328750D01*
Y575300D01*
X323805D01*
X323455Y575649D01*
X321893Y576297D01*
D02*
G37*
G36*
X360893Y563597D02*
X359202D01*
X357640Y562949D01*
X357291Y562600D01*
X353250D01*
Y555600D01*
X357987D01*
X359202Y555097D01*
X360893D01*
X362109Y555600D01*
X367750D01*
Y562600D01*
X362805D01*
X362455Y562949D01*
X360893Y563597D01*
D02*
G37*
G36*
X321945Y563750D02*
X320055D01*
X318309Y563027D01*
X317882Y562600D01*
X314250D01*
Y555600D01*
X317682D01*
X318309Y554973D01*
X320055Y554250D01*
X321945D01*
X323691Y554973D01*
X324318Y555600D01*
X328750D01*
Y562600D01*
X324118D01*
X323691Y563027D01*
X321945Y563750D01*
D02*
G37*
G36*
X322945Y485750D02*
X321055D01*
X319309Y485027D01*
X318782Y484500D01*
X314250D01*
Y477500D01*
X318782D01*
X319309Y476973D01*
X321055Y476250D01*
X322945D01*
X324691Y476973D01*
X325218Y477500D01*
X328750D01*
Y484500D01*
X325218D01*
X324691Y485027D01*
X322945Y485750D01*
D02*
G37*
G36*
Y472750D02*
X321055D01*
X319309Y472027D01*
X319082Y471800D01*
X314250D01*
Y464800D01*
X318482D01*
X319309Y463973D01*
X321055Y463250D01*
X322945D01*
X324691Y463973D01*
X325518Y464800D01*
X328750D01*
Y471800D01*
X324917D01*
X324691Y472027D01*
X322945Y472750D01*
D02*
G37*
G36*
X484845Y454750D02*
X483155D01*
X481593Y454103D01*
X480397Y452907D01*
X479750Y451345D01*
Y449655D01*
X480397Y448093D01*
X481593Y446897D01*
X483155Y446250D01*
X484845D01*
X486407Y446897D01*
X487603Y448093D01*
X488250Y449655D01*
Y451345D01*
X487603Y452907D01*
X486407Y454103D01*
X484845Y454750D01*
D02*
G37*
G36*
X508095Y451000D02*
X506405D01*
X504843Y450353D01*
X503647Y449157D01*
X503000Y447595D01*
Y445905D01*
X503647Y444343D01*
X504843Y443147D01*
X506405Y442500D01*
X508095D01*
X509657Y443147D01*
X510853Y444343D01*
X511500Y445905D01*
Y447595D01*
X510853Y449157D01*
X509657Y450353D01*
X508095Y451000D01*
D02*
G37*
G36*
X490432Y439983D02*
X488741D01*
X487179Y439336D01*
X485984Y438141D01*
X485337Y436579D01*
Y434888D01*
X485984Y433326D01*
X487179Y432130D01*
X488741Y431483D01*
X490432D01*
X491994Y432130D01*
X493190Y433326D01*
X493837Y434888D01*
Y436579D01*
X493190Y438141D01*
X491994Y439336D01*
X490432Y439983D01*
D02*
G37*
G36*
X322945Y434750D02*
X321055D01*
X319309Y434027D01*
X318982Y433700D01*
X314250D01*
Y426700D01*
X318582D01*
X319309Y425973D01*
X321055Y425250D01*
X322945D01*
X324691Y425973D01*
X325418Y426700D01*
X328750D01*
Y433700D01*
X325018D01*
X324691Y434027D01*
X322945Y434750D01*
D02*
G37*
G36*
X360945Y422750D02*
X359055D01*
X357309Y422027D01*
X356282Y421000D01*
X353250D01*
Y414000D01*
X357282D01*
X357309Y413973D01*
X359055Y413250D01*
X360945D01*
X362691Y413973D01*
X362718Y414000D01*
X367750D01*
Y421000D01*
X363717D01*
X362691Y422027D01*
X360945Y422750D01*
D02*
G37*
G36*
X321945D02*
X320055D01*
X318309Y422027D01*
X317282Y421000D01*
X314250D01*
Y414000D01*
X318282D01*
X318309Y413973D01*
X320055Y413250D01*
X321945D01*
X323691Y413973D01*
X323717Y414000D01*
X328750D01*
Y421000D01*
X324717D01*
X323691Y422027D01*
X321945Y422750D01*
D02*
G37*
G36*
X486503Y409675D02*
X484812D01*
X483250Y409028D01*
X482054Y407833D01*
X481407Y406271D01*
Y404580D01*
X482054Y403018D01*
X483250Y401822D01*
X484812Y401175D01*
X486503D01*
X488065Y401822D01*
X489260Y403018D01*
X489907Y404580D01*
Y406271D01*
X489260Y407833D01*
X488065Y409028D01*
X486503Y409675D01*
D02*
G37*
G36*
X751945Y409750D02*
X750055D01*
X748309Y409027D01*
X747582Y408300D01*
X744250D01*
Y401300D01*
X747982D01*
X748309Y400973D01*
X750055Y400250D01*
X751945D01*
X753691Y400973D01*
X754017Y401300D01*
X758750D01*
Y408300D01*
X754417D01*
X753691Y409027D01*
X751945Y409750D01*
D02*
G37*
G36*
X360945D02*
X359055D01*
X357309Y409027D01*
X356582Y408300D01*
X353250D01*
Y401300D01*
X356982D01*
X357309Y400973D01*
X359055Y400250D01*
X360945D01*
X362691Y400973D01*
X363018Y401300D01*
X367750D01*
Y408300D01*
X363418D01*
X362691Y409027D01*
X360945Y409750D01*
D02*
G37*
G36*
X321945D02*
X320055D01*
X318309Y409027D01*
X317582Y408300D01*
X314250D01*
Y401300D01*
X317982D01*
X318309Y400973D01*
X320055Y400250D01*
X321945D01*
X323691Y400973D01*
X324017Y401300D01*
X328750D01*
Y408300D01*
X324417D01*
X323691Y409027D01*
X321945Y409750D01*
D02*
G37*
G36*
X751945Y396750D02*
X750055D01*
X748309Y396027D01*
X747883Y395600D01*
X744250D01*
Y388600D01*
X747682D01*
X748309Y387973D01*
X750055Y387250D01*
X751945D01*
X753691Y387973D01*
X754317Y388600D01*
X758750D01*
Y395600D01*
X754118D01*
X753691Y396027D01*
X751945Y396750D01*
D02*
G37*
G36*
X360945D02*
X359055D01*
X357309Y396027D01*
X356882Y395600D01*
X353250D01*
Y388600D01*
X356682D01*
X357309Y387973D01*
X359055Y387250D01*
X360945D01*
X362691Y387973D01*
X363317Y388600D01*
X367750D01*
Y395600D01*
X363117D01*
X362691Y396027D01*
X360945Y396750D01*
D02*
G37*
G36*
X321945D02*
X320055D01*
X318309Y396027D01*
X317882Y395600D01*
X314250D01*
Y388600D01*
X317682D01*
X318309Y387973D01*
X320055Y387250D01*
X321945D01*
X323691Y387973D01*
X324318Y388600D01*
X328750D01*
Y395600D01*
X324118D01*
X323691Y396027D01*
X321945Y396750D01*
D02*
G37*
G36*
X751893Y383897D02*
X750202D01*
X748640Y383250D01*
X748291Y382900D01*
X744250D01*
Y375900D01*
X748987D01*
X750202Y375397D01*
X751893D01*
X753109Y375900D01*
X758750D01*
Y382900D01*
X753805D01*
X753455Y383250D01*
X751893Y383897D01*
D02*
G37*
G36*
X321945Y384750D02*
X320055D01*
X318309Y384027D01*
X317182Y382900D01*
X314250D01*
Y375900D01*
X318486D01*
X320055Y375250D01*
X321945D01*
X323514Y375900D01*
X328750D01*
Y382900D01*
X324818D01*
X323691Y384027D01*
X321945Y384750D01*
D02*
G37*
G36*
X484253Y381175D02*
X482562D01*
X481000Y380528D01*
X479804Y379333D01*
X479157Y377771D01*
Y376080D01*
X479804Y374518D01*
X481000Y373322D01*
X482562Y372675D01*
X484253D01*
X485815Y373322D01*
X487010Y374518D01*
X487657Y376080D01*
Y377771D01*
X487010Y379333D01*
X485815Y380528D01*
X484253Y381175D01*
D02*
G37*
G36*
X751731Y373500D02*
X750041D01*
X748479Y372853D01*
X747283Y371657D01*
X746680Y370200D01*
X744250D01*
Y363200D01*
X758750D01*
Y370200D01*
X755093D01*
X754489Y371657D01*
X753294Y372853D01*
X751731Y373500D01*
D02*
G37*
G36*
X320130Y372960D02*
X318440D01*
X316877Y372313D01*
X315682Y371117D01*
X315302Y370200D01*
X314250D01*
Y363200D01*
X328750D01*
Y370200D01*
X323268D01*
X322888Y371117D01*
X321692Y372313D01*
X320130Y372960D01*
D02*
G37*
G36*
X712945Y371750D02*
X711055D01*
X709309Y371027D01*
X708483Y370200D01*
X705250D01*
Y363200D01*
X709082D01*
X709309Y362973D01*
X711055Y362250D01*
X712945D01*
X714691Y362973D01*
X714918Y363200D01*
X719750D01*
Y370200D01*
X715518D01*
X714691Y371027D01*
X712945Y371750D01*
D02*
G37*
G36*
X320280Y360109D02*
X318589D01*
X317027Y359463D01*
X315832Y358267D01*
X315514Y357500D01*
X314250D01*
Y350500D01*
X328750D01*
Y357500D01*
X323355D01*
X323038Y358267D01*
X321842Y359463D01*
X320280Y360109D01*
D02*
G37*
G36*
X752945Y358750D02*
X751055D01*
X749309Y358027D01*
X748782Y357500D01*
X744250D01*
Y350500D01*
X748782D01*
X749309Y349973D01*
X751055Y349250D01*
X752945D01*
X754691Y349973D01*
X755218Y350500D01*
X758750D01*
Y357500D01*
X755218D01*
X754691Y358027D01*
X752945Y358750D01*
D02*
G37*
G36*
X712945D02*
X711055D01*
X709309Y358027D01*
X708783Y357500D01*
X705250D01*
Y350500D01*
X708783D01*
X709309Y349973D01*
X711055Y349250D01*
X712945D01*
X714691Y349973D01*
X715218Y350500D01*
X719750D01*
Y357500D01*
X715218D01*
X714691Y358027D01*
X712945Y358750D01*
D02*
G37*
G36*
X321893Y345797D02*
X320202D01*
X318640Y345150D01*
X318291Y344800D01*
X314250D01*
Y337800D01*
X318987D01*
X320202Y337297D01*
X321893D01*
X323109Y337800D01*
X328750D01*
Y344800D01*
X323805D01*
X323455Y345150D01*
X321893Y345797D01*
D02*
G37*
G36*
X752945Y345750D02*
X751055D01*
X749309Y345027D01*
X749082Y344800D01*
X744250D01*
Y337800D01*
X748483D01*
X749309Y336973D01*
X751055Y336250D01*
X752945D01*
X754691Y336973D01*
X755518Y337800D01*
X758750D01*
Y344800D01*
X754918D01*
X754691Y345027D01*
X752945Y345750D01*
D02*
G37*
G36*
X713945D02*
X712055D01*
X710309Y345027D01*
X710082Y344800D01*
X705250D01*
Y337800D01*
X709482D01*
X710309Y336973D01*
X712055Y336250D01*
X713945D01*
X715691Y336973D01*
X716517Y337800D01*
X719750D01*
Y344800D01*
X715918D01*
X715691Y345027D01*
X713945Y345750D01*
D02*
G37*
G36*
X321893Y333097D02*
X320202D01*
X318640Y332450D01*
X318291Y332100D01*
X314250D01*
Y325100D01*
X318987D01*
X320202Y324597D01*
X321893D01*
X323109Y325100D01*
X328750D01*
Y332100D01*
X323805D01*
X323455Y332450D01*
X321893Y333097D01*
D02*
G37*
G36*
X712222Y333018D02*
X710531D01*
X708969Y332370D01*
X708698Y332100D01*
X705250D01*
Y325100D01*
X709125D01*
X710531Y324518D01*
X712222D01*
X713628Y325100D01*
X719750D01*
Y332100D01*
X714054D01*
X713784Y332370D01*
X712222Y333018D01*
D02*
G37*
G36*
X751472Y332518D02*
X749781D01*
X748773Y332100D01*
X744250D01*
Y325100D01*
X747783D01*
X748219Y324664D01*
X749781Y324017D01*
X751472D01*
X753034Y324664D01*
X753469Y325100D01*
X758750D01*
Y332100D01*
X752480D01*
X751472Y332518D01*
D02*
G37*
G36*
X751893Y320397D02*
X750202D01*
X748640Y319750D01*
X748291Y319400D01*
X744250D01*
Y312400D01*
X748987D01*
X750202Y311897D01*
X751893D01*
X753109Y312400D01*
X758750D01*
Y319400D01*
X753805D01*
X753455Y319750D01*
X751893Y320397D01*
D02*
G37*
G36*
X322945Y320750D02*
X321055D01*
X319309Y320027D01*
X318682Y319400D01*
X314250D01*
Y312400D01*
X318882D01*
X319309Y311973D01*
X321055Y311250D01*
X322945D01*
X324691Y311973D01*
X325117Y312400D01*
X328750D01*
Y319400D01*
X325317D01*
X324691Y320027D01*
X322945Y320750D01*
D02*
G37*
G36*
X751893Y307697D02*
X750202D01*
X748640Y307050D01*
X748291Y306700D01*
X744250D01*
Y299700D01*
X748987D01*
X750202Y299197D01*
X751893D01*
X753109Y299700D01*
X758750D01*
Y306700D01*
X753805D01*
X753455Y307050D01*
X751893Y307697D01*
D02*
G37*
G36*
X712893D02*
X711202D01*
X709640Y307050D01*
X709291Y306700D01*
X705250D01*
Y299700D01*
X709987D01*
X711202Y299197D01*
X712893D01*
X714109Y299700D01*
X719750D01*
Y306700D01*
X714805D01*
X714455Y307050D01*
X712893Y307697D01*
D02*
G37*
G36*
X322945Y307750D02*
X321055D01*
X319309Y307027D01*
X318982Y306700D01*
X314250D01*
Y299700D01*
X318582D01*
X319309Y298973D01*
X321055Y298250D01*
X322945D01*
X324691Y298973D01*
X325418Y299700D01*
X328750D01*
Y306700D01*
X325018D01*
X324691Y307027D01*
X322945Y307750D01*
D02*
G37*
G36*
X657845Y302250D02*
X656155D01*
X654593Y301603D01*
X653397Y300407D01*
X652750Y298845D01*
Y297155D01*
X653397Y295593D01*
X654593Y294397D01*
X656155Y293750D01*
X657845D01*
X659407Y294397D01*
X660603Y295593D01*
X661250Y297155D01*
Y298845D01*
X660603Y300407D01*
X659407Y301603D01*
X657845Y302250D01*
D02*
G37*
G36*
X753171Y294911D02*
X751480D01*
X749918Y294264D01*
X749654Y294000D01*
X744250D01*
Y287000D01*
X750059D01*
X751480Y286411D01*
X753171D01*
X754592Y287000D01*
X758750D01*
Y294000D01*
X754997D01*
X754733Y294264D01*
X753171Y294911D01*
D02*
G37*
G36*
X713421Y294411D02*
X711730D01*
X710737Y294000D01*
X705250D01*
Y287000D01*
X709726D01*
X710168Y286558D01*
X711730Y285911D01*
X713421D01*
X714983Y286558D01*
X715425Y287000D01*
X719750D01*
Y294000D01*
X714414D01*
X713421Y294411D01*
D02*
G37*
G36*
X386445Y292000D02*
X384755D01*
X383193Y291353D01*
X381997Y290157D01*
X381350Y288595D01*
Y286905D01*
X381997Y285343D01*
X383193Y284147D01*
X384755Y283500D01*
X386445D01*
X388008Y284147D01*
X389203Y285343D01*
X389850Y286905D01*
Y288595D01*
X389203Y290157D01*
X388008Y291353D01*
X386445Y292000D01*
D02*
G37*
G36*
X752671Y282411D02*
X750980D01*
X749418Y281764D01*
X748954Y281300D01*
X744250D01*
Y274300D01*
X750042D01*
X750980Y273911D01*
X752671D01*
X753609Y274300D01*
X758750D01*
Y281300D01*
X754697D01*
X754233Y281764D01*
X752671Y282411D01*
D02*
G37*
G36*
X713171Y281911D02*
X711480D01*
X710004Y281300D01*
X705250D01*
Y274300D01*
X709676D01*
X709918Y274058D01*
X711480Y273411D01*
X713171D01*
X714733Y274058D01*
X714975Y274300D01*
X719750D01*
Y281300D01*
X714647D01*
X713171Y281911D01*
D02*
G37*
G36*
X713671Y269411D02*
X711980D01*
X710418Y268764D01*
X710254Y268600D01*
X705250D01*
Y261600D01*
X710376D01*
X710418Y261558D01*
X711980Y260911D01*
X713671D01*
X715233Y261558D01*
X715275Y261600D01*
X719750D01*
Y268600D01*
X715397D01*
X715233Y268764D01*
X713671Y269411D01*
D02*
G37*
G36*
X752178Y268989D02*
X750487D01*
X749549Y268600D01*
X744250D01*
Y261600D01*
X748461D01*
X748925Y261136D01*
X750487Y260489D01*
X752178D01*
X753740Y261136D01*
X754205Y261600D01*
X758750D01*
Y268600D01*
X753117D01*
X752178Y268989D01*
D02*
G37*
G36*
X638945Y264750D02*
X637055D01*
X635309Y264027D01*
X633973Y262691D01*
X633250Y260945D01*
Y259055D01*
X633973Y257309D01*
X635309Y255973D01*
X637055Y255250D01*
X638945D01*
X640691Y255973D01*
X642027Y257309D01*
X642750Y259055D01*
Y260945D01*
X642027Y262691D01*
X640691Y264027D01*
X638945Y264750D01*
D02*
G37*
G36*
X442845Y590000D02*
X441155D01*
X439593Y589353D01*
X438397Y588157D01*
X437750Y586595D01*
Y584905D01*
X438397Y583343D01*
X439593Y582147D01*
X441155Y581500D01*
X442845D01*
X444407Y582147D01*
X445603Y583343D01*
X446250Y584905D01*
Y586595D01*
X445603Y588157D01*
X444407Y589353D01*
X442845Y590000D01*
D02*
G37*
G36*
X645253Y485175D02*
X643562D01*
X642000Y484528D01*
X640804Y483333D01*
X640157Y481771D01*
Y480080D01*
X640804Y478518D01*
X642000Y477322D01*
X643562Y476675D01*
X645253D01*
X646815Y477322D01*
X648010Y478518D01*
X648657Y480080D01*
Y481771D01*
X648010Y483333D01*
X646815Y484528D01*
X645253Y485175D01*
D02*
G37*
G36*
X619771Y467338D02*
X618601Y467105D01*
X617608Y466442D01*
X616945Y465450D01*
X616712Y464279D01*
Y461450D01*
X616945Y460280D01*
X617608Y459287D01*
X618601Y458624D01*
X619771Y458391D01*
X620942Y458624D01*
X621934Y459287D01*
X622597Y460280D01*
X622830Y461450D01*
Y464279D01*
X622597Y465450D01*
X621934Y466442D01*
X620942Y467105D01*
X619771Y467338D01*
D02*
G37*
G36*
X600445Y435750D02*
X598755D01*
X597193Y435103D01*
X595997Y433907D01*
X595350Y432345D01*
Y430655D01*
X595997Y429093D01*
X597193Y427897D01*
X598755Y427250D01*
X600445D01*
X602007Y427897D01*
X603203Y429093D01*
X603850Y430655D01*
Y432345D01*
X603203Y433907D01*
X602007Y435103D01*
X600445Y435750D01*
D02*
G37*
%LPD*%
D10*
X573500Y723000D02*
X576000Y725500D01*
X571000Y723000D02*
X573500D01*
X578578Y740578D02*
X578903Y740903D01*
X727750Y446750D02*
Y472547D01*
X727000Y446000D02*
X727750Y446750D01*
X711750Y463487D02*
Y467550D01*
X722365Y391750D02*
X726416Y395801D01*
Y413166D02*
X738250Y425000D01*
X722365Y384108D02*
Y391750D01*
X726416Y395801D02*
Y413166D01*
X645157Y390175D02*
Y417843D01*
X691425Y384925D02*
X703750Y397250D01*
Y714182D02*
X707250Y717682D01*
X703750Y397250D02*
Y714182D01*
X649157Y513867D02*
Y522675D01*
X711750Y467550D02*
X712500Y468300D01*
X732000Y387926D02*
Y401750D01*
Y387926D02*
X732796Y387130D01*
X475250Y613985D02*
Y620182D01*
X447716Y596250D02*
Y603932D01*
X388500Y437250D02*
X401250D01*
X401500Y437000D01*
X426807Y429500D02*
X434983Y437676D01*
X391000Y426500D02*
X394000Y429500D01*
X426807D01*
X576000Y725500D02*
Y737160D01*
X578903Y740903D02*
X589097D01*
X578254Y739414D02*
Y740903D01*
X576000Y737160D02*
X578254Y739414D01*
X589097Y740903D02*
X590750Y739250D01*
X560993Y731007D02*
X570750Y721250D01*
X557000Y732000D02*
X557993Y731007D01*
X570750Y721250D02*
X571250D01*
X557993Y731007D02*
X560993D01*
X563676Y747676D02*
X578858D01*
X540500Y724500D02*
X563676Y747676D01*
X536325Y724500D02*
X540500D01*
X624750Y739250D02*
X632000Y732000D01*
X590750Y739250D02*
X624750D01*
X650363Y426064D02*
X656514Y432215D01*
X649069Y438069D02*
X649930Y438930D01*
X578858Y747676D02*
X583250Y752068D01*
Y756911D01*
X732000Y401750D02*
X743000Y412750D01*
X653000Y347725D02*
Y355500D01*
X650750Y357750D02*
X653000Y355500D01*
Y347725D02*
X656500Y344225D01*
X654250Y624075D02*
Y665750D01*
Y624075D02*
X654407Y623918D01*
X636150Y683850D02*
X654250Y665750D01*
X496250Y420000D02*
X535418Y459168D01*
X499462Y415306D02*
X543213Y459056D01*
X563882Y483500D02*
X565100D01*
X548392Y478175D02*
X570758D01*
X547487Y479080D02*
X548392Y478175D01*
X521501Y473750D02*
X570575D01*
X495751Y499500D02*
X521501Y473750D01*
X543253Y479080D02*
X547487D01*
X570575Y473750D02*
X585163Y488338D01*
X543213Y459056D02*
Y459481D01*
X542392Y479941D02*
X543253Y479080D01*
X521776Y485191D02*
X562191D01*
X535418Y459168D02*
X535719D01*
X521032Y484447D02*
X521776Y485191D01*
X562191D02*
X563882Y483500D01*
X495750Y316000D02*
X502500Y322750D01*
X603494Y662000D02*
X611996D01*
X612600Y661396D01*
X622744Y684594D02*
X623488Y683850D01*
X636150D01*
X615466Y681640D02*
X615850D01*
X602744Y662750D02*
X603494Y662000D01*
X596595Y662769D02*
X615466Y681640D01*
X600818Y662750D02*
X602744D01*
X635008Y497401D02*
Y515574D01*
X630862Y493254D02*
X635008Y497401D01*
X628157Y522425D02*
X635008Y515574D01*
X594689Y500282D02*
X617657Y523250D01*
X625537Y282152D02*
Y283213D01*
X628764Y277954D02*
Y278925D01*
X612750Y296000D02*
X625537Y283213D01*
Y282152D02*
X628764Y278925D01*
X354565Y473797D02*
X364729D01*
X379238Y488306D02*
Y488945D01*
X364729Y473797D02*
X379238Y488306D01*
X603000Y368000D02*
X604088D01*
X600228Y369022D02*
X602978D01*
X603000Y369000D01*
X595250Y374000D02*
Y374500D01*
Y374000D02*
X600228Y369022D01*
X605588Y366500D02*
X637932D01*
X641432Y370000D02*
X646500D01*
X604088Y368000D02*
X605588Y366500D01*
X646500Y370000D02*
X650750Y374250D01*
Y374750D01*
X637932Y366500D02*
X641432Y370000D01*
X321048Y443147D02*
X336614D01*
X565411Y706250D02*
X592312Y679349D01*
X600850D01*
X594619Y662769D02*
X596595D01*
X576250Y644400D02*
X594619Y662769D01*
X576250Y551907D02*
X576657Y551500D01*
X576250Y551907D02*
Y644400D01*
X587265Y599111D02*
Y607060D01*
X585000Y609325D02*
X587265Y607060D01*
X585000Y613675D02*
X587265Y615940D01*
Y649197D02*
X600818Y662750D01*
X587265Y615940D02*
Y649197D01*
X585000Y609325D02*
Y613675D01*
X581907Y551100D02*
X585920Y555113D01*
X588859D01*
X589720Y555974D01*
X707250Y717682D02*
Y722700D01*
X708997Y724447D01*
X551954Y706250D02*
X565411D01*
X533250Y717075D02*
Y721425D01*
X536325Y714000D02*
X544204D01*
X584339Y758000D02*
X592500D01*
X533250Y721425D02*
X536325Y724500D01*
X583250Y756911D02*
X584339Y758000D01*
X533250Y717075D02*
X536325Y714000D01*
X544204D02*
X551954Y706250D01*
X554000Y757750D02*
X564000D01*
X571550Y761950D02*
X575500Y758000D01*
X571550Y761950D02*
Y767745D01*
X499850Y767500D02*
X500350Y767000D01*
X505100D01*
X514350Y757750D01*
X537000D01*
X728583Y428000D02*
X729000D01*
X721750Y434833D02*
X728583Y428000D01*
X577250Y385675D02*
X620825Y429250D01*
X625850Y434784D02*
X628166Y437100D01*
X634385D02*
X640943Y430542D01*
X628166Y437100D02*
X634385D01*
X633143Y434100D02*
X641900Y425343D01*
X629409Y434100D02*
X633143D01*
X624558Y429250D02*
X629409Y434100D01*
X620825Y429250D02*
X624558D01*
X630657Y431100D02*
X631900D01*
X620884Y434784D02*
X625850D01*
X645292Y430542D02*
X649069Y434319D01*
X641900Y425343D02*
X650657Y416585D01*
Y404425D02*
Y416585D01*
X587750Y388193D02*
X630657Y431100D01*
X640943Y430542D02*
X645292D01*
X631900Y431100D02*
X645157Y417843D01*
X620600Y434500D02*
X620884Y434784D01*
X641900Y425343D02*
X641900D01*
X649069Y434319D02*
Y438069D01*
X643118Y435792D02*
X643361Y436036D01*
Y440205D01*
X656514Y432215D02*
Y506511D01*
X649157Y513867D02*
X656514Y506511D01*
X434639Y395139D02*
Y395416D01*
X436500Y397277D02*
Y398495D01*
X434639Y395416D02*
X436500Y397277D01*
X403000Y384076D02*
Y385000D01*
X399750Y380826D02*
X403000Y384076D01*
X399750Y364568D02*
Y380826D01*
X400818Y393000D02*
X402000D01*
X376157Y368339D02*
X400818Y393000D01*
X570000Y304818D02*
Y319000D01*
X577250Y326250D01*
X548979Y283797D02*
X570000Y304818D01*
X571818Y296000D02*
X612750D01*
X437750Y362500D02*
Y374682D01*
X419129Y378309D02*
X433372D01*
X433681Y378000D01*
X437750Y374682D02*
X438931Y375863D01*
X435856Y383250D02*
X438931Y380175D01*
Y375863D02*
Y380175D01*
X548236Y613689D02*
Y667008D01*
Y613689D02*
X557676Y604249D01*
X553750Y618500D02*
X564407Y607843D01*
Y586343D02*
X564500Y586250D01*
X564407Y586343D02*
Y586425D01*
X551750Y543750D02*
X552250Y544250D01*
Y594825D01*
X542986Y604090D02*
X552250Y594825D01*
X511000Y586697D02*
X511750Y587447D01*
Y706621D01*
X446157Y612907D02*
X458750Y625500D01*
X446157Y605490D02*
Y612907D01*
Y605490D02*
X447716Y603932D01*
X401000Y526750D02*
X401750Y526000D01*
X388250Y526750D02*
X401000D01*
X347153Y328847D02*
X360048D01*
X346000Y330000D02*
X347153Y328847D01*
X360000Y317000D02*
X361000Y316000D01*
X377000Y334000D02*
X393000D01*
X370000Y316879D02*
Y327000D01*
X361000Y316000D02*
X369121D01*
X370000Y316879D01*
Y327000D02*
X377000Y334000D01*
X381000Y328847D02*
X437528D01*
X346000Y312000D02*
Y330000D01*
X379000Y309879D02*
Y326847D01*
X378121Y309000D02*
X379000Y309879D01*
X349000Y309000D02*
X378121D01*
X346000Y312000D02*
X349000Y309000D01*
X379000Y326847D02*
X381000Y328847D01*
X393000Y334000D02*
X396500Y337500D01*
X512250Y329129D02*
Y372901D01*
X513129Y328250D02*
X518000D01*
X512250Y372901D02*
X581849Y442500D01*
X512250Y329129D02*
X513129Y328250D01*
X575350Y320107D02*
X580250Y325007D01*
X577250Y326250D02*
Y385675D01*
X580250Y325007D02*
Y343500D01*
X567075Y331500D02*
X571754Y336178D01*
Y424254D01*
X580250Y343500D02*
X587750Y351000D01*
X554318Y331500D02*
X567075D01*
X575350Y305925D02*
Y320107D01*
X545925Y276500D02*
X575350Y305925D01*
X601250Y387250D02*
X613750Y374750D01*
X601250Y387250D02*
Y393750D01*
X730000Y545985D02*
X733750Y549735D01*
X730000Y545000D02*
Y545985D01*
X494941Y554116D02*
X507107Y566282D01*
X491535Y549036D02*
Y549649D01*
X494941Y553055D02*
Y554116D01*
X491535Y549649D02*
X494941Y553055D01*
X654407Y613629D02*
Y623918D01*
X723127Y516952D02*
X727803Y512276D01*
X723750Y563263D02*
X728850Y568363D01*
X739895Y484692D02*
Y503111D01*
X730731Y512276D02*
X739895Y503111D01*
X727803Y512276D02*
X730731D01*
X723127Y516952D02*
Y528652D01*
X587265Y599111D02*
X588126Y598250D01*
X567086Y545265D02*
X567604D01*
X557676Y554675D02*
X567086Y545265D01*
X557676Y554675D02*
Y604249D01*
X512250Y530000D02*
X512563Y529687D01*
X538577D01*
X538890Y529375D01*
X473250Y397429D02*
Y409500D01*
X474500Y385325D02*
Y396179D01*
X462000Y353318D02*
Y372825D01*
X474500Y385325D01*
X473250Y397429D02*
X474500Y396179D01*
X446500Y667500D02*
Y681500D01*
X436750Y657750D02*
X446500Y667500D01*
X436750Y637000D02*
Y657750D01*
Y632500D02*
Y637000D01*
X431729Y687250D02*
X449250D01*
X469100Y659000D02*
Y667400D01*
X449250Y687250D02*
X469100Y667400D01*
X430850Y670250D02*
Y686371D01*
X431729Y687250D01*
X727750Y472547D02*
X739895Y484692D01*
X739577Y525808D02*
X742719Y522667D01*
X720750Y530518D02*
Y587682D01*
X723127Y528652D02*
X723750Y529275D01*
Y563263D01*
X744999Y518675D02*
X752657D01*
X742719Y520956D02*
Y522667D01*
X720127Y529895D02*
X720750Y530518D01*
X717750Y590682D02*
X720750Y587682D01*
X720127Y510205D02*
Y529895D01*
Y510205D02*
X721750Y508582D01*
Y434833D02*
Y508582D01*
X742719Y520956D02*
X744999Y518675D01*
X739577Y525808D02*
Y526950D01*
X490250Y694500D02*
X502750Y682000D01*
X543350Y675434D02*
Y687400D01*
X542986Y604090D02*
Y675070D01*
X543350Y675434D01*
X419500Y647750D02*
Y659250D01*
X425750Y637000D02*
Y641500D01*
X419500Y647750D02*
X425750Y641500D01*
X502750Y637000D02*
Y682000D01*
X475250Y620182D02*
X478000Y622932D01*
X460932Y578125D02*
X491875D01*
X496007Y582257D01*
X444000Y561193D02*
X460932Y578125D01*
X420000Y626750D02*
X425750Y632500D01*
X416250Y626750D02*
X420000D01*
X409000Y619500D02*
X416250Y626750D01*
X408500Y619500D02*
X409000D01*
X425750Y632500D02*
Y637000D01*
X383750Y631682D02*
X422318Y670250D01*
X383750Y622379D02*
Y631682D01*
X496007Y582257D02*
Y584540D01*
X498500Y587032D01*
Y588250D01*
X510121Y708250D02*
X511750Y706621D01*
X511000Y574243D02*
Y586697D01*
X507433Y570675D02*
X511000Y574243D01*
X443250Y708250D02*
X510121D01*
X461999Y570675D02*
X507433D01*
X533750Y549500D02*
X534157Y549907D01*
Y617617D01*
X527626Y624148D02*
X534157Y617617D01*
X527626Y624148D02*
Y648268D01*
X477500Y302500D02*
Y358196D01*
X496250Y376946D01*
X485750Y318197D02*
X487947Y316000D01*
X495750D01*
X485750Y318197D02*
Y362203D01*
X499462Y375915D01*
Y415306D01*
X496250Y376946D02*
Y420000D01*
X522250Y323750D02*
Y324000D01*
X518000Y328250D02*
X522250Y324000D01*
Y323250D02*
Y323750D01*
X581849Y442500D02*
X624357D01*
X564407Y586425D02*
Y607843D01*
X636407Y460555D02*
X641362Y455600D01*
Y452501D02*
Y455600D01*
X636407Y460555D02*
Y483950D01*
X643907Y440751D02*
Y449955D01*
X643361Y440205D02*
X643907Y440751D01*
X630862Y449005D02*
Y493254D01*
X624357Y442500D02*
X630862Y449005D01*
X641362Y452501D02*
X643907Y449955D01*
X644489Y492032D02*
Y503687D01*
X638657Y509518D02*
Y522093D01*
X636407Y483950D02*
X644489Y492032D01*
X638657Y509518D02*
X644489Y503687D01*
X612000Y395250D02*
Y403500D01*
X632250Y374500D02*
Y375000D01*
X612000Y395250D02*
X632250Y375000D01*
X631379Y404621D02*
X633139D01*
X626500Y409500D02*
X631379Y404621D01*
X633139D02*
X637157Y400603D01*
X642750Y384925D02*
X691425D01*
X637157Y390593D02*
Y400603D01*
Y390593D02*
X642750Y385000D01*
X613750Y374250D02*
Y374750D01*
X529058Y512750D02*
X541558Y500250D01*
X499996Y503134D02*
X509613Y512750D01*
X529058D01*
X498754Y506134D02*
X510370Y517750D01*
X533850D02*
X543100Y508500D01*
X510370Y517750D02*
X533850D01*
X461453Y571221D02*
X461999Y570675D01*
X482128Y499500D02*
X495751D01*
X454121Y507871D02*
X460000Y513750D01*
X457616Y503134D02*
X499996D01*
X454121Y506629D02*
X457616Y503134D01*
X454121Y506629D02*
Y507871D01*
X483904Y506134D02*
X498754D01*
X516250Y580750D02*
X516500Y581000D01*
X516250Y575250D02*
Y580750D01*
X507282Y566282D02*
X516250Y575250D01*
X507107Y566282D02*
X507282D01*
X516250Y581250D02*
Y581500D01*
Y581250D02*
X516500Y581000D01*
X717750Y704982D02*
X733750Y688982D01*
X717750Y704982D02*
Y710000D01*
X733750Y549735D02*
Y688982D01*
X716003Y711747D02*
X717750Y710000D01*
X712048Y711747D02*
X716003D01*
X708997Y724447D02*
X712048D01*
X587080Y488338D02*
X602493Y503750D01*
X600250Y496000D02*
X616075D01*
X584250Y480000D02*
X600250Y496000D01*
X592865Y500282D02*
X594689D01*
X570758Y478175D02*
X592865Y500282D01*
X585163Y488338D02*
X587080D01*
X625659Y505584D02*
Y509159D01*
X616075Y496000D02*
X625659Y505584D01*
X602493Y503750D02*
X615932D01*
X619940Y507758D02*
X620409D01*
X615932Y503750D02*
X619940Y507758D01*
X625659Y509159D02*
X629758Y513258D01*
X488750Y511250D02*
X489000D01*
X488500Y511000D02*
X488750Y511250D01*
X488000Y511500D02*
X488500Y511000D01*
X475749Y511500D02*
X488000D01*
X473499Y513750D02*
X475749Y511500D01*
X460000Y513750D02*
X473499D01*
X463250Y508500D02*
X481538D01*
X483904Y506134D01*
X464763Y497884D02*
X480511D01*
X541558Y500250D02*
X575100D01*
X480511Y497884D02*
X482128Y499500D01*
X569932Y492300D02*
X571150D01*
X568382Y490750D02*
X569932Y492300D01*
X566632Y492500D02*
X568382Y490750D01*
X544750Y492500D02*
X566632D01*
X438750Y554097D02*
X439492D01*
X444000Y558605D01*
Y561193D01*
X571754Y424254D02*
X578250Y430750D01*
X581907Y549325D02*
Y551100D01*
X569820Y550913D02*
Y581234D01*
Y550913D02*
X574483Y546250D01*
X578832D02*
X581907Y549325D01*
X574483Y546250D02*
X578832D01*
X465907Y437676D02*
X471657Y431925D01*
X422318Y670250D02*
X429600D01*
X321048Y597447D02*
X336614D01*
X356168Y617000D02*
X378371D01*
X383750Y622379D01*
X336614Y597447D02*
X356168Y617000D01*
X728850Y568363D02*
Y619900D01*
X728500Y620250D02*
X728850Y619900D01*
X422407Y497483D02*
Y537000D01*
X430157Y500990D02*
Y536843D01*
X436407Y533139D02*
X436944Y533675D01*
X430149Y536851D02*
X430157Y536843D01*
X436407Y502998D02*
Y533139D01*
X515000Y302500D02*
Y316000D01*
X522250Y323250D01*
X498658Y287250D02*
X502111Y283797D01*
X465068Y287250D02*
X498658D01*
X502111Y283797D02*
X548979D01*
X440643Y311675D02*
X465068Y287250D01*
X453444Y292101D02*
X469045Y276500D01*
X545925D01*
X557000Y274607D02*
Y281182D01*
X556393Y274000D02*
X557000Y274607D01*
Y281182D02*
X571818Y296000D01*
X656500Y334250D02*
X657250Y333500D01*
X656500Y334250D02*
Y344225D01*
X632250Y357000D02*
Y357500D01*
Y357000D02*
X642693Y346557D01*
X645307D01*
X651500Y340364D01*
Y333500D02*
Y340364D01*
X637500Y341500D02*
X646121D01*
X636500Y340621D02*
X636879Y341000D01*
X637500D01*
X635068D02*
X636879D01*
X613750Y357250D02*
X620250D01*
X623284Y354216D01*
Y352784D02*
Y354216D01*
Y352784D02*
X635068Y341000D01*
X626000Y333250D02*
X626500Y333750D01*
X607500Y345250D02*
X625121D01*
X626500Y333750D02*
Y343871D01*
X625121Y345250D02*
X626500Y343871D01*
X595250Y357000D02*
Y357500D01*
Y357000D02*
X599500Y352750D01*
X600000D01*
X607500Y345250D01*
X646250Y333000D02*
X647000Y333750D01*
Y340621D01*
X646121Y341500D02*
X647000Y340621D01*
X636500Y332750D02*
Y340621D01*
X642379Y322000D02*
X650621D01*
X651500Y322879D02*
Y332750D01*
X650621Y322000D02*
X651500Y322879D01*
X641500D02*
Y332750D01*
Y322879D02*
X642379Y322000D01*
X434216Y358966D02*
X437750Y362500D01*
X428500Y387500D02*
X432750Y383250D01*
X435856D01*
X402034Y358966D02*
X434216D01*
X399250Y356182D02*
X402034Y358966D01*
X396500Y343068D02*
X399250Y345818D01*
X396500Y337500D02*
Y343068D01*
X399250Y345818D02*
Y356182D01*
X437528Y328847D02*
X462000Y353318D01*
X360048Y341547D02*
X361301Y342800D01*
X392682Y357500D02*
X399750Y364568D01*
X368868Y342800D02*
X383568Y357500D01*
X392682D01*
X361301Y342800D02*
X368868D01*
X360048Y354247D02*
X368247D01*
X376157Y362157D01*
Y368339D01*
X428000Y388500D02*
X434639Y395139D01*
X428500Y387500D02*
X429000D01*
X360048Y366947D02*
X364497D01*
X434983Y437676D02*
X465907D01*
X391000Y398468D02*
Y426500D01*
X364497Y366947D02*
X365750Y368200D01*
Y373218D01*
X391000Y398468D01*
X548500Y323500D02*
X551409Y326409D01*
Y328591D01*
X541250Y323500D02*
X548500D01*
X551409Y328591D02*
X554318Y331500D01*
X502500Y323250D02*
X503250Y324000D01*
X465000Y302500D02*
Y367268D01*
X472657Y374925D01*
X587750Y351000D02*
Y388193D01*
X424407Y311675D02*
X440643D01*
X417407Y280089D02*
X429420Y292101D01*
X453444D01*
X417407Y260676D02*
Y280089D01*
X360048Y455847D02*
X367929D01*
X374365Y470115D02*
X378500Y474250D01*
X374365Y466524D02*
Y470115D01*
X371090Y463250D02*
X374365Y466524D01*
X356718Y463250D02*
X371090D01*
X400417Y471250D02*
X430157Y500990D01*
X364497Y430447D02*
X376538Y442488D01*
Y455970D01*
X367929Y455847D02*
X386333Y474250D01*
X399175D01*
X422407Y497483D01*
X373538Y457212D02*
X387575Y471250D01*
X400417D01*
X373538Y452188D02*
Y457212D01*
X376538Y455970D02*
X388818Y468250D01*
X401660D01*
X436407Y502998D01*
X364497Y443147D02*
X373538Y452188D01*
X388500Y482000D02*
X399500D01*
X388500Y482000D02*
X388500Y482000D01*
X360048Y443147D02*
X364497D01*
X336614D02*
X356718Y463250D01*
X336614Y455847D02*
X354565Y473797D01*
X360048Y430447D02*
X364497D01*
X321048Y455847D02*
X336614D01*
X407925Y351175D02*
X417907D01*
X407000Y350250D02*
X407925Y351175D01*
X478000Y634250D02*
X480750Y637000D01*
X478000Y622932D02*
Y634250D01*
X458750Y625500D02*
Y637000D01*
X438000Y723500D02*
X439500Y722000D01*
Y712000D02*
Y722000D01*
Y712000D02*
X443250Y708250D01*
X751048Y443147D02*
X758871D01*
X759750Y444025D01*
Y458782D01*
X757435Y461097D02*
X759750Y458782D01*
X745564Y461097D02*
X757435D01*
X738250Y453782D02*
X745564Y461097D01*
X738250Y425000D02*
Y453782D01*
X747997Y455847D02*
X751048D01*
X746250Y454100D02*
X747997Y455847D01*
X746250Y449082D02*
Y454100D01*
X743000Y445832D02*
X746250Y449082D01*
X743000Y412750D02*
Y445832D01*
X712048Y597447D02*
X716003D01*
X717750Y590682D02*
Y595700D01*
X716003Y597447D02*
X717750Y595700D01*
X427825Y351175D02*
X428500Y350500D01*
X417907Y351175D02*
X427825D01*
X407500Y369000D02*
X408129Y369629D01*
X418250D01*
Y377430D01*
X419129Y368750D02*
X428500D01*
X418250Y369629D02*
X419129Y368750D01*
X418250Y377430D02*
X419129Y378309D01*
X426250Y452000D02*
X455500D01*
X425750D02*
X426250D01*
X455500D02*
X455750Y452250D01*
X426500Y408000D02*
X454500D01*
X426000D02*
X426500D01*
X454500D02*
X455750Y409250D01*
X426500Y408000D02*
X430750Y412250D01*
Y412750D01*
X437157Y419157D01*
Y432425D01*
X426250Y452000D02*
X435325Y442925D01*
X435907D01*
X387750Y570750D02*
X401500D01*
X401500Y570750D01*
X540000Y302500D02*
Y306500D01*
X552500Y319000D01*
X556000D01*
X560250Y323250D01*
Y323750D01*
X527500Y302500D02*
Y306500D01*
X537000Y316000D01*
Y319250D01*
X541250Y323500D01*
X502500Y302500D02*
Y323250D01*
X503750Y616250D02*
Y636000D01*
X502750Y637000D02*
X503750Y636000D01*
X484750Y616000D02*
Y625500D01*
X491750Y632500D01*
Y637000D01*
X429750Y617000D02*
Y625500D01*
X436750Y632500D01*
D18*
X554000Y757750D02*
D03*
X537000D02*
D03*
X575500Y758000D02*
D03*
X592500D02*
D03*
X571250Y721250D02*
D03*
X554250D02*
D03*
X390000Y350250D02*
D03*
X407000D02*
D03*
X431000Y388000D02*
D03*
X414000D02*
D03*
X445500Y368750D02*
D03*
X428500D02*
D03*
X428500Y350500D02*
D03*
X445500D02*
D03*
X407500Y369000D02*
D03*
X390500D02*
D03*
X391500Y619500D02*
D03*
X408500D02*
D03*
X426000Y408000D02*
D03*
X409000D02*
D03*
X425750Y452000D02*
D03*
X408750D02*
D03*
D19*
X503250Y341000D02*
D03*
Y324000D02*
D03*
X388500Y499000D02*
D03*
Y482000D02*
D03*
X388250Y543750D02*
D03*
Y526750D02*
D03*
X388500Y454250D02*
D03*
Y437250D02*
D03*
X387750Y587750D02*
D03*
Y570750D02*
D03*
X590750Y739250D02*
D03*
Y722250D02*
D03*
X595250Y357500D02*
D03*
Y374500D02*
D03*
X650750Y374750D02*
D03*
Y357750D02*
D03*
X632250Y357500D02*
D03*
Y374500D02*
D03*
X613750Y357250D02*
D03*
Y374250D02*
D03*
X694500Y627750D02*
D03*
Y644750D02*
D03*
X595750Y627000D02*
D03*
Y644000D02*
D03*
X594000Y458000D02*
D03*
Y475000D02*
D03*
X696250Y457750D02*
D03*
Y474750D02*
D03*
X541250Y323500D02*
D03*
Y340500D02*
D03*
X522250Y323750D02*
D03*
Y340750D02*
D03*
X560250Y323750D02*
D03*
Y340750D02*
D03*
X429750Y600000D02*
D03*
Y617000D02*
D03*
X484750Y599000D02*
D03*
Y616000D02*
D03*
X465000Y616250D02*
D03*
Y599250D02*
D03*
X503750D02*
D03*
Y616250D02*
D03*
D58*
X371257Y698050D02*
X373743D01*
X362692Y692500D02*
X363742Y693550D01*
X373743Y698050D02*
X380293Y691500D01*
X357308Y692500D02*
X357308Y692500D01*
X345750Y701057D02*
X354307Y692500D01*
X345750Y701057D02*
Y713200D01*
X367743Y693550D02*
X369500Y695307D01*
X354307Y692500D02*
X357308D01*
X369500Y695307D02*
Y696293D01*
X363742Y693550D02*
X367743D01*
X357308Y692500D02*
X362692D01*
X369500Y696293D02*
X371257Y698050D01*
X595462Y596689D02*
Y604901D01*
X447000Y574000D02*
X449251Y576251D01*
X423105Y548255D02*
X447925Y573075D01*
X450176Y575326D02*
Y577176D01*
X596250Y605689D02*
Y626500D01*
X447925Y573075D02*
X450176Y575326D01*
X449251Y576251D02*
Y578232D01*
X421269Y543882D02*
Y545688D01*
X595462Y604901D02*
X596250Y605689D01*
X417250Y600000D02*
X429750D01*
X421269Y543882D02*
X421422Y543728D01*
X421269Y545688D02*
X423105Y547524D01*
Y548255D01*
X452281Y581262D02*
Y582074D01*
X449251Y578232D02*
X452281Y581262D01*
X416000Y600000D02*
X417250D01*
X531576Y323424D02*
X531750Y323250D01*
X531576Y323424D02*
Y341825D01*
X409433Y467425D02*
X549675D01*
X550250D02*
X585075D01*
X593000Y458000D02*
Y459500D01*
X585075Y467425D02*
X593000Y459500D01*
X400257Y458250D02*
X409433Y467425D01*
X392000Y458250D02*
X400257D01*
X388500Y454750D02*
X392000Y458250D01*
X388500Y454250D02*
Y454750D01*
X607482Y312017D02*
X621989Y297511D01*
X642489D01*
X655000Y285000D01*
X630668Y673426D02*
X631242Y674000D01*
X624282Y673426D02*
X630668D01*
X619500Y668643D02*
X624282Y673426D01*
X619500Y633000D02*
Y668643D01*
X595720Y553489D02*
Y596430D01*
X595521Y553289D02*
X595720Y553489D01*
X589217Y542500D02*
X595521Y548804D01*
Y553289D01*
X563938Y310250D02*
X564750D01*
X562688Y309000D02*
X563938Y310250D01*
X555000Y309000D02*
X562688D01*
X445500Y350500D02*
Y368750D01*
X462324Y388926D02*
Y394676D01*
Y388926D02*
X462750Y388500D01*
X461750Y395250D02*
X462324Y394676D01*
X445500Y368750D02*
X446000D01*
X462750Y385500D02*
Y388500D01*
X446000Y368750D02*
X462750Y385500D01*
X427257Y574000D02*
X447000D01*
X417250Y584007D02*
X427257Y574000D01*
X415922Y543728D02*
X420121D01*
X432634Y542851D02*
X432985Y542500D01*
X420121Y543728D02*
X420695Y544302D01*
X414695Y542500D02*
X415922Y543728D01*
X424740D02*
X425617Y542851D01*
X409000Y542500D02*
X414695D01*
X421422Y543728D02*
X424740D01*
X425617Y542851D02*
X432634D01*
X595750Y627000D02*
X596250Y626500D01*
X562250Y520000D02*
X584750Y542500D01*
X536500D02*
X559000Y520000D01*
X562250D01*
X432985Y542500D02*
X536500D01*
X584750D02*
X589217D01*
X537750Y344250D02*
X541500Y340500D01*
Y340250D02*
Y340500D01*
X534000Y344250D02*
X537750D01*
X531576Y341825D02*
X534000Y344250D01*
X702500Y316000D02*
X712000D01*
X671500Y285000D02*
X702500Y316000D01*
X655000Y285000D02*
X671500D01*
X588126Y312017D02*
X607482D01*
X444750Y350250D02*
X445250D01*
X433788Y339288D02*
X444750Y350250D01*
X433788Y339178D02*
Y339288D01*
X588126Y322876D02*
X591250Y326000D01*
X588126Y312017D02*
Y322876D01*
X552500Y302500D02*
Y306500D01*
X555000Y309000D01*
X357050Y724500D02*
X360250D01*
X345750Y713200D02*
X357050Y724500D01*
X380293Y691500D02*
X466500D01*
X476000Y682000D01*
Y657415D02*
Y682000D01*
X469750Y637000D02*
Y651165D01*
X476000Y657415D01*
X485750Y599000D02*
X494125D01*
X482500Y603000D02*
X485750Y599750D01*
X465000Y615750D02*
Y616250D01*
X477750Y603000D02*
X482500D01*
X465000Y615750D02*
X477750Y603000D01*
X451125Y581875D02*
X488125D01*
X492500Y586250D01*
Y591300D01*
X494125Y592925D01*
Y599000D01*
X503500D02*
X503750Y599250D01*
X494125Y599000D02*
X503500D01*
X388250Y543750D02*
X409000D01*
X403750Y499000D02*
X409000Y504250D01*
X388500Y499000D02*
X403750D01*
X409000Y504250D02*
Y542500D01*
X387750Y587750D02*
X408493D01*
X410250Y585993D01*
Y543750D02*
Y585993D01*
X619771Y461450D02*
Y464279D01*
X411500Y600000D02*
X416000D01*
X417250Y584007D02*
Y598750D01*
X416000Y600000D02*
X417250Y598750D01*
X391500Y619500D02*
X392000D01*
X411500Y600000D01*
X465000Y616250D02*
Y627750D01*
X469750Y632500D01*
Y637000D01*
X552250Y719250D02*
X554250Y721250D01*
X551750Y718750D02*
X552250Y719250D01*
X553507Y710000D02*
X579000D01*
X551750Y711757D02*
Y718750D01*
Y711757D02*
X553507Y710000D01*
X579000D02*
X590750Y721750D01*
X538500Y719250D02*
X552250D01*
D59*
X670000Y620000D02*
Y630993D01*
X601336Y777000D02*
X602486Y778150D01*
X690150Y694235D02*
Y775514D01*
X687514Y778150D02*
X690150Y775514D01*
X522000Y777000D02*
X601336D01*
X602486Y778150D02*
X687514D01*
X685000Y681336D02*
X690150Y686486D01*
X681485Y635393D02*
X685000Y638907D01*
Y681336D01*
X674400Y635393D02*
X681485D01*
X690150Y686486D02*
Y694235D01*
X690150Y694235D01*
X670000Y630993D02*
X674400Y635393D01*
X521000Y776000D02*
X522000Y777000D01*
X418615Y776000D02*
X521000D01*
X414100Y771485D02*
X418615Y776000D01*
X414100Y740415D02*
Y771485D01*
X410585Y736900D02*
X414100Y740415D01*
X360500Y736900D02*
X410585D01*
X339750Y650000D02*
X342500Y647250D01*
X339750Y650000D02*
Y718400D01*
X358250Y736900D01*
X360500D01*
D60*
X600750Y285250D02*
D03*
X687250D02*
D03*
D61*
X600750Y326950D02*
D03*
X687250D02*
D03*
D62*
X615100Y322050D02*
D03*
X672900D02*
D03*
X727000Y446000D02*
D03*
X710644Y456069D02*
D03*
X711750Y463487D02*
D03*
X711000Y418250D02*
D03*
X714951Y403225D02*
D03*
X721166Y397975D02*
D03*
X645157Y390175D02*
D03*
X712209Y532550D02*
D03*
X709000Y546050D02*
D03*
X649157Y522675D02*
D03*
X660250Y351196D02*
D03*
X750886Y369250D02*
D03*
X732796Y387130D02*
D03*
X722365Y384108D02*
D03*
X475250Y613985D02*
D03*
X447716Y596250D02*
D03*
X442000Y585750D02*
D03*
X403350Y596250D02*
D03*
X452281Y582074D02*
D03*
X426000Y585750D02*
D03*
X402032Y437300D02*
D03*
X319285Y368709D02*
D03*
X319435Y355859D02*
D03*
X581262Y733422D02*
D03*
X751048Y429647D02*
D03*
X650363Y426064D02*
D03*
X649930Y438930D02*
D03*
X595220Y686075D02*
D03*
X531750Y323250D02*
D03*
X475124Y417699D02*
D03*
X471606Y424394D02*
D03*
X543213Y459481D02*
D03*
X542392Y479941D02*
D03*
X535719Y459168D02*
D03*
X612600Y661396D02*
D03*
X597600Y649000D02*
D03*
X622744Y684594D02*
D03*
X615850Y681640D02*
D03*
X609909Y687298D02*
D03*
X607521Y585000D02*
D03*
X628157Y522425D02*
D03*
X617657Y523250D02*
D03*
X607157Y521182D02*
D03*
X507350Y729750D02*
D03*
X524250Y716925D02*
D03*
X628764Y277954D02*
D03*
X625240Y291511D02*
D03*
X379238Y488945D02*
D03*
X672000Y647250D02*
D03*
X631242Y674000D02*
D03*
X600850Y679349D02*
D03*
X593850Y671500D02*
D03*
X595462Y596689D02*
D03*
X589720Y555974D02*
D03*
X571550Y767745D02*
D03*
X564000Y757750D02*
D03*
X499850Y767500D02*
D03*
X729000Y428000D02*
D03*
X637973Y441250D02*
D03*
X643118Y435792D02*
D03*
X651264Y464873D02*
D03*
X712000Y481247D02*
D03*
X636112Y451750D02*
D03*
X641657Y466925D02*
D03*
X723000Y610000D02*
D03*
X436500Y398495D02*
D03*
X403000Y385000D02*
D03*
X402000Y393000D02*
D03*
X564750Y310250D02*
D03*
X657000Y298000D02*
D03*
X433681Y378000D02*
D03*
X528907Y689925D02*
D03*
X553750Y618500D02*
D03*
X547000Y583000D02*
D03*
X494891Y624065D02*
D03*
X444750Y634000D02*
D03*
X403000Y509000D02*
D03*
X402407Y526175D02*
D03*
X410000Y423000D02*
D03*
X420695Y544302D02*
D03*
X482907Y391925D02*
D03*
X503907Y263925D02*
D03*
X507000Y343000D02*
D03*
X544907Y383925D02*
D03*
X572000Y328914D02*
D03*
X730000Y545000D02*
D03*
X712048Y622047D02*
D03*
X484802Y552339D02*
D03*
X491535Y549036D02*
D03*
X478562Y556500D02*
D03*
X654407Y613629D02*
D03*
X728377Y519127D02*
D03*
X590250Y611500D02*
D03*
X588126Y598250D02*
D03*
X567604Y545265D02*
D03*
X551750Y543750D02*
D03*
X562925Y556850D02*
D03*
X576657Y551500D02*
D03*
X538890Y529375D02*
D03*
X528088Y554082D02*
D03*
X544500Y557250D02*
D03*
X360048Y265850D02*
D03*
X342575Y646911D02*
D03*
X751333Y264739D02*
D03*
X751825Y278161D02*
D03*
X752326Y290661D02*
D03*
X712825Y265161D02*
D03*
X712326Y277661D02*
D03*
X712576Y290161D02*
D03*
X360897Y749163D02*
D03*
X361147Y762163D02*
D03*
Y775163D02*
D03*
X322147Y749413D02*
D03*
X321397Y762413D02*
D03*
X322147Y774913D02*
D03*
X321500Y711500D02*
D03*
X360250Y711250D02*
D03*
X750626Y328268D02*
D03*
X711376Y328768D02*
D03*
X461750Y395250D02*
D03*
X469250Y387500D02*
D03*
X433788Y339178D02*
D03*
X712048Y762547D02*
D03*
X446500Y681500D02*
D03*
X468000Y676500D02*
D03*
X729376Y777268D02*
D03*
X728656Y506925D02*
D03*
X734645Y487350D02*
D03*
X739577Y526950D02*
D03*
X735750Y520500D02*
D03*
X712048Y493246D02*
D03*
X518126Y670518D02*
D03*
X548236Y667008D02*
D03*
X727376Y709017D02*
D03*
X726876Y663268D02*
D03*
X419626Y658767D02*
D03*
X490376Y694268D02*
D03*
X751048Y533947D02*
D03*
X427876Y567267D02*
D03*
X521032Y484447D02*
D03*
X516657Y499250D02*
D03*
X505500Y476750D02*
D03*
X506157Y460250D02*
D03*
X507250Y446750D02*
D03*
X483157Y461425D02*
D03*
X490157Y475000D02*
D03*
X591376Y325518D02*
D03*
X588126Y312017D02*
D03*
X469100Y659000D02*
D03*
X498500Y588250D02*
D03*
X524350Y620000D02*
D03*
X494000Y608250D02*
D03*
X518250Y653500D02*
D03*
X527626Y648268D02*
D03*
X474100Y589000D02*
D03*
X462195Y650055D02*
D03*
X489587Y435733D02*
D03*
X484000Y450500D02*
D03*
X509212Y377288D02*
D03*
X385600Y287750D02*
D03*
X611850Y403500D02*
D03*
X626500Y409500D02*
D03*
X601250Y393750D02*
D03*
X631907Y394750D02*
D03*
X626750Y400500D02*
D03*
X510250Y505500D02*
D03*
X461453Y571221D02*
D03*
X521407Y549175D02*
D03*
X516250Y581500D02*
D03*
X473250Y409500D02*
D03*
X712093Y507127D02*
D03*
X712048Y609150D02*
D03*
X751048Y379647D02*
D03*
X584250Y480000D02*
D03*
X620409Y507758D02*
D03*
X629758Y513258D02*
D03*
X638657Y522425D02*
D03*
X649518Y490527D02*
D03*
X639239Y494206D02*
D03*
X629000Y501500D02*
D03*
X464763Y497884D02*
D03*
X488907Y511384D02*
D03*
X575100Y500250D02*
D03*
X571150Y492300D02*
D03*
X565100Y483500D02*
D03*
X620600Y434500D02*
D03*
X644850Y305000D02*
D03*
X646612Y454675D02*
D03*
X544750Y492500D02*
D03*
X712048Y648247D02*
D03*
X751048Y622847D02*
D03*
Y635547D02*
D03*
X438750Y554097D02*
D03*
X617000Y490750D02*
D03*
X647100Y508500D02*
D03*
X611121Y434726D02*
D03*
X599600Y431500D02*
D03*
X578907Y430925D02*
D03*
X569820Y581234D02*
D03*
X587000Y534500D02*
D03*
X474000Y483750D02*
D03*
X463850Y508500D02*
D03*
X471657Y431925D02*
D03*
X478100Y322000D02*
D03*
X543350Y687750D02*
D03*
X551500Y603000D02*
D03*
X430850Y670250D02*
D03*
X728500Y620250D02*
D03*
X430149Y536851D02*
D03*
X436944Y533675D02*
D03*
X422407Y537000D02*
D03*
X587157Y548925D02*
D03*
X543100Y508500D02*
D03*
X512750Y322750D02*
D03*
X484500Y282000D02*
D03*
X508471Y549759D02*
D03*
X512850Y530000D02*
D03*
X321048Y622750D02*
D03*
X393850Y682500D02*
D03*
X405350Y661500D02*
D03*
X545600Y269000D02*
D03*
X556393Y274000D02*
D03*
X580600Y313000D02*
D03*
X464750Y697500D02*
D03*
X424407Y311675D02*
D03*
X417407Y260676D02*
D03*
X399500Y482000D02*
D03*
X360048Y468547D02*
D03*
X378500Y474250D02*
D03*
X486157Y484175D02*
D03*
X472657Y374925D02*
D03*
X321048Y673647D02*
D03*
X360048Y341547D02*
D03*
Y354247D02*
D03*
X417907Y351175D02*
D03*
X483407Y376925D02*
D03*
X485657Y405425D02*
D03*
X438657Y723675D02*
D03*
X594907Y387925D02*
D03*
X650657Y404425D02*
D03*
X752657Y518675D02*
D03*
X644407Y480925D02*
D03*
X730157Y494925D02*
D03*
X712048Y597447D02*
D03*
X564407Y586425D02*
D03*
X534157Y549675D02*
D03*
X517500Y556000D02*
D03*
X504250D02*
D03*
X437157Y432425D02*
D03*
X435907Y442925D02*
D03*
X402157Y570925D02*
D03*
X712048Y775422D02*
D03*
X538500Y719250D02*
D03*
X751048Y775247D02*
D03*
Y762547D02*
D03*
Y749847D02*
D03*
X712048D02*
D03*
Y737147D02*
D03*
Y724447D02*
D03*
Y711747D02*
D03*
Y699047D02*
D03*
Y686347D02*
D03*
Y673647D02*
D03*
X751048Y660947D02*
D03*
X712048D02*
D03*
Y635547D02*
D03*
X751048Y610147D02*
D03*
Y597447D02*
D03*
X712048Y584747D02*
D03*
X751048Y546647D02*
D03*
Y506647D02*
D03*
Y493947D02*
D03*
Y455847D02*
D03*
Y443147D02*
D03*
Y417747D02*
D03*
Y316147D02*
D03*
X712048D02*
D03*
X751048Y303447D02*
D03*
X712048D02*
D03*
X321048Y265347D02*
D03*
X360048Y278047D02*
D03*
X321048D02*
D03*
X360048Y290747D02*
D03*
X321048D02*
D03*
X360048Y316147D02*
D03*
Y328847D02*
D03*
X321048D02*
D03*
Y341547D02*
D03*
X360048Y366947D02*
D03*
Y430447D02*
D03*
Y443147D02*
D03*
X321048D02*
D03*
X360048Y455847D02*
D03*
X321048D02*
D03*
X360048Y481247D02*
D03*
Y493947D02*
D03*
X321048D02*
D03*
X360048Y506647D02*
D03*
X321048D02*
D03*
X360048Y533947D02*
D03*
X321048D02*
D03*
Y546647D02*
D03*
X360048D02*
D03*
Y559347D02*
D03*
Y572047D02*
D03*
X321048D02*
D03*
Y584747D02*
D03*
Y597447D02*
D03*
Y610147D02*
D03*
Y660947D02*
D03*
X360048Y724447D02*
D03*
X321048D02*
D03*
X360500Y736900D02*
D03*
X321048Y737147D02*
D03*
D63*
X714000Y443000D02*
D03*
X753000Y648000D02*
D03*
Y673000D02*
D03*
Y686000D02*
D03*
Y699000D02*
D03*
Y711000D02*
D03*
X752000Y724000D02*
D03*
X751000Y737000D02*
D03*
X711000Y572000D02*
D03*
Y559000D02*
D03*
X752000Y585000D02*
D03*
Y572000D02*
D03*
Y559000D02*
D03*
X751000Y481000D02*
D03*
Y468000D02*
D03*
X712000Y430000D02*
D03*
Y354000D02*
D03*
X713000Y341000D02*
D03*
X712000Y367000D02*
D03*
Y379000D02*
D03*
Y392000D02*
D03*
X751000Y405000D02*
D03*
Y392000D02*
D03*
X752000Y354000D02*
D03*
Y341000D02*
D03*
X321000Y699000D02*
D03*
Y686000D02*
D03*
X360000Y699000D02*
D03*
Y686000D02*
D03*
X361000Y673000D02*
D03*
Y661000D02*
D03*
Y648000D02*
D03*
X321000D02*
D03*
Y635000D02*
D03*
X359000D02*
D03*
X360000Y623000D02*
D03*
Y610000D02*
D03*
Y597000D02*
D03*
Y584000D02*
D03*
X321000Y559000D02*
D03*
X360000Y418000D02*
D03*
Y405000D02*
D03*
Y392000D02*
D03*
Y379000D02*
D03*
Y303000D02*
D03*
X322000D02*
D03*
Y316000D02*
D03*
X321000Y380000D02*
D03*
Y392000D02*
D03*
Y405000D02*
D03*
Y418000D02*
D03*
X322000Y430000D02*
D03*
Y468000D02*
D03*
Y481000D02*
D03*
X577000Y721131D02*
D03*
X578254Y740903D02*
D03*
X557000Y732000D02*
D03*
X632000D02*
D03*
X487908Y755516D02*
D03*
X594000Y476000D02*
D03*
X599350Y703475D02*
D03*
X662250Y343450D02*
D03*
X660000Y648000D02*
D03*
X550250Y468000D02*
D03*
X670000Y620000D02*
D03*
X638000Y260000D02*
D03*
X602000Y376000D02*
D03*
X637000Y410000D02*
D03*
X692500Y481425D02*
D03*
D64*
X645000Y733000D02*
D03*
X645171Y568479D02*
D03*
D65*
X619600Y628800D02*
D03*
X619771Y464279D02*
D03*
D66*
X670400Y628800D02*
D03*
X670571Y464279D02*
D03*
D67*
X376250Y718250D02*
D03*
X524750D02*
D03*
D68*
X502750Y637000D02*
D03*
X491750D02*
D03*
X414750D02*
D03*
X425750D02*
D03*
X436750D02*
D03*
X447750D02*
D03*
X458750D02*
D03*
X469750D02*
D03*
X480750D02*
D03*
X403750D02*
D03*
D69*
X612000Y332750D02*
D03*
X620000D02*
D03*
X668000D02*
D03*
X676000D02*
D03*
D70*
X626500D02*
D03*
X631500D02*
D03*
X636500D02*
D03*
X641500D02*
D03*
X661500D02*
D03*
X656500D02*
D03*
X651500D02*
D03*
X646500D02*
D03*
D71*
X682250Y366500D02*
D03*
Y411500D02*
D03*
D72*
X552500Y302500D02*
D03*
X540000D02*
D03*
X527500D02*
D03*
X515000D02*
D03*
X502500D02*
D03*
X490000D02*
D03*
X477500D02*
D03*
X465000D02*
D03*
D73*
X578000Y273500D02*
D03*
X439500D02*
D03*
D74*
X455750Y409250D02*
D03*
Y452250D02*
D03*
D75*
X360500Y506400D02*
D03*
Y493700D02*
D03*
Y481000D02*
D03*
Y468300D02*
D03*
Y430200D02*
D03*
Y442900D02*
D03*
Y455600D02*
D03*
Y417500D02*
D03*
Y404800D02*
D03*
Y392100D02*
D03*
Y379400D02*
D03*
Y366700D02*
D03*
Y328600D02*
D03*
Y341300D02*
D03*
Y354000D02*
D03*
Y315900D02*
D03*
Y303200D02*
D03*
Y290500D02*
D03*
Y277800D02*
D03*
Y265100D02*
D03*
X321500Y506400D02*
D03*
Y493700D02*
D03*
Y481000D02*
D03*
Y468300D02*
D03*
Y430200D02*
D03*
Y442900D02*
D03*
Y455600D02*
D03*
Y417500D02*
D03*
Y404800D02*
D03*
Y392100D02*
D03*
Y379400D02*
D03*
Y366700D02*
D03*
Y328600D02*
D03*
Y341300D02*
D03*
Y354000D02*
D03*
Y315900D02*
D03*
Y303200D02*
D03*
Y290500D02*
D03*
Y277800D02*
D03*
Y265100D02*
D03*
X751500Y506400D02*
D03*
Y493700D02*
D03*
Y481000D02*
D03*
Y468300D02*
D03*
Y430200D02*
D03*
Y442900D02*
D03*
Y455600D02*
D03*
Y417500D02*
D03*
Y404800D02*
D03*
Y392100D02*
D03*
Y379400D02*
D03*
Y366700D02*
D03*
Y328600D02*
D03*
Y341300D02*
D03*
Y354000D02*
D03*
Y315900D02*
D03*
Y303200D02*
D03*
Y290500D02*
D03*
Y277800D02*
D03*
Y265100D02*
D03*
X712500Y506400D02*
D03*
Y493700D02*
D03*
Y481000D02*
D03*
Y468300D02*
D03*
Y430200D02*
D03*
Y442900D02*
D03*
Y455600D02*
D03*
Y417500D02*
D03*
Y404800D02*
D03*
Y392100D02*
D03*
Y379400D02*
D03*
Y366700D02*
D03*
Y328600D02*
D03*
Y341300D02*
D03*
Y354000D02*
D03*
Y315900D02*
D03*
Y303200D02*
D03*
Y290500D02*
D03*
Y277800D02*
D03*
Y265100D02*
D03*
X360500Y775000D02*
D03*
Y762300D02*
D03*
Y749600D02*
D03*
Y736900D02*
D03*
Y698800D02*
D03*
Y711500D02*
D03*
Y724200D02*
D03*
Y686100D02*
D03*
Y673400D02*
D03*
Y660700D02*
D03*
Y648000D02*
D03*
Y635300D02*
D03*
Y597200D02*
D03*
Y609900D02*
D03*
Y622600D02*
D03*
Y584500D02*
D03*
Y571800D02*
D03*
Y559100D02*
D03*
Y546400D02*
D03*
Y533700D02*
D03*
X321500Y775000D02*
D03*
Y762300D02*
D03*
Y749600D02*
D03*
Y736900D02*
D03*
Y698800D02*
D03*
Y711500D02*
D03*
Y724200D02*
D03*
Y686100D02*
D03*
Y673400D02*
D03*
Y660700D02*
D03*
Y648000D02*
D03*
Y635300D02*
D03*
Y597200D02*
D03*
Y609900D02*
D03*
Y622600D02*
D03*
Y584500D02*
D03*
Y571800D02*
D03*
Y559100D02*
D03*
Y546400D02*
D03*
Y533700D02*
D03*
X751500Y775000D02*
D03*
Y762300D02*
D03*
Y749600D02*
D03*
Y736900D02*
D03*
Y698800D02*
D03*
Y711500D02*
D03*
Y724200D02*
D03*
Y686100D02*
D03*
Y673400D02*
D03*
Y660700D02*
D03*
Y648000D02*
D03*
Y635300D02*
D03*
Y597200D02*
D03*
Y609900D02*
D03*
Y622600D02*
D03*
Y584500D02*
D03*
Y571800D02*
D03*
Y559100D02*
D03*
Y546400D02*
D03*
Y533700D02*
D03*
X712500Y775000D02*
D03*
Y762300D02*
D03*
Y749600D02*
D03*
Y736900D02*
D03*
Y698800D02*
D03*
Y711500D02*
D03*
Y724200D02*
D03*
Y686100D02*
D03*
Y673400D02*
D03*
Y660700D02*
D03*
Y648000D02*
D03*
Y635300D02*
D03*
Y597200D02*
D03*
Y609900D02*
D03*
Y622600D02*
D03*
Y584500D02*
D03*
Y571800D02*
D03*
Y559100D02*
D03*
Y546400D02*
D03*
Y533700D02*
D03*
M02*
