G04*
G04 #@! TF.GenerationSoftware,Altium Limited,Altium Designer,24.4.1 (13)*
G04*
G04 Layer_Color=16711935*
%FSLAX44Y44*%
%MOMM*%
G71*
G04*
G04 #@! TF.SameCoordinates,044CC30A-6F31-4426-BCA9-A8A858A33F02*
G04*
G04*
G04 #@! TF.FilePolarity,Negative*
G04*
G01*
G75*
%ADD10C,0.2000*%
%ADD11C,0.1270*%
%ADD12C,0.2540*%
%ADD14C,0.1500*%
%ADD15C,0.2500*%
%ADD16C,0.1524*%
%ADD17C,0.1520*%
%ADD18C,0.1000*%
%ADD19C,0.1250*%
%ADD42R,1.3032X1.2032*%
%ADD43R,1.2032X1.3032*%
%ADD44R,12.2032X0.7032*%
%ADD47R,1.8032X3.5032*%
%ADD48R,0.7032X12.2032*%
%ADD52R,0.6532X1.4032*%
%ADD64C,0.8032*%
%ADD65O,2.2032X1.1032*%
%ADD66O,1.9032X1.1032*%
%ADD67C,1.0032*%
%ADD84R,1.7032X1.2032*%
%ADD85R,1.8032X0.9032*%
%ADD86R,1.2032X1.2032*%
%ADD87R,1.2032X1.2032*%
%ADD88R,1.7032X1.4032*%
%ADD89R,6.7032X5.7032*%
%ADD90R,0.6782X0.4532*%
%ADD91R,0.4532X0.6782*%
%ADD92R,2.2032X2.6032*%
%ADD93C,0.4032*%
%ADD94R,1.3032X1.3032*%
D10*
X289000Y1352250D02*
G03*
X289000Y1352250I-1000J0D01*
G01*
X265000Y1135000D02*
G03*
X265000Y1135000I-1000J0D01*
G01*
X480400Y1303650D02*
G03*
X480400Y1303650I-1000J0D01*
G01*
X330250Y1067650D02*
G03*
X330250Y1067650I-1000J0D01*
G01*
X605210Y1234250D02*
G03*
X605210Y1234250I-1000J0D01*
G01*
D11*
X202000Y1275550D02*
Y1364950D01*
Y1275550D02*
X275500D01*
Y1364950D01*
X202000D02*
X275500D01*
X206900Y1230250D02*
Y1375250D01*
X256700Y1160300D02*
X277300D01*
X256700Y1139700D02*
Y1160300D01*
Y1139700D02*
X277300D01*
Y1160300D01*
X473950Y1324150D02*
Y1363150D01*
X522950D01*
Y1324150D02*
Y1363150D01*
X473950Y1324150D02*
X522950D01*
X516750Y1091049D02*
Y1291049D01*
X316750Y1091049D02*
Y1291049D01*
X516750D01*
X316750Y1091049D02*
X516750D01*
X598000Y1228250D02*
X643000D01*
X598000Y1198250D02*
Y1228250D01*
Y1198250D02*
X643000D01*
Y1228250D01*
X654000Y1200250D02*
Y1225250D01*
X624000Y1200250D02*
X654000D01*
X624000D02*
Y1225250D01*
X654000D01*
X427750Y1090000D02*
X477750D01*
X427750Y1058000D02*
X477750D01*
Y1090000D01*
X427750Y1058000D02*
Y1090000D01*
X683800Y1204950D02*
Y1220550D01*
X668200D02*
X683800D01*
X668200Y1204950D02*
Y1220550D01*
Y1204950D02*
X683800D01*
X584500Y1225250D02*
X614500D01*
X584500Y1200250D02*
Y1225250D01*
Y1200250D02*
X614500D01*
Y1225250D01*
D12*
X1574749Y967678D02*
X1581820Y981820D01*
X1567678Y974749D02*
X1581820Y981820D01*
X1550000Y950000D02*
X1695964Y1095964D01*
X1727251D01*
X1518180Y918180D02*
X1525251Y932322D01*
X1518180Y918180D02*
X1532322Y925251D01*
X1518180Y918180D02*
X1550000Y950000D01*
X209000Y1268250D02*
X215094D01*
Y1265203D01*
X214078Y1264187D01*
X212047D01*
X211031Y1265203D01*
Y1268250D01*
X214078Y1258093D02*
X215094Y1259109D01*
Y1261140D01*
X214078Y1262156D01*
X210016D01*
X209000Y1261140D01*
Y1259109D01*
X210016Y1258093D01*
X215094Y1256062D02*
X209000D01*
Y1253015D01*
X210016Y1251999D01*
X211031D01*
X212047Y1253015D01*
Y1256062D01*
Y1253015D01*
X213063Y1251999D01*
X214078D01*
X215094Y1253015D01*
Y1256062D01*
Y1239811D02*
Y1243874D01*
X209000D01*
Y1239811D01*
X212047Y1243874D02*
Y1241843D01*
X215094Y1237780D02*
X209000D01*
Y1234733D01*
X210016Y1233717D01*
X214078D01*
X215094Y1234733D01*
Y1237780D01*
X214078Y1227623D02*
X215094Y1228639D01*
Y1230670D01*
X214078Y1231686D01*
X210016D01*
X209000Y1230670D01*
Y1228639D01*
X210016Y1227623D01*
X212047D01*
Y1229654D01*
X215094Y1221529D02*
Y1225592D01*
X209000D01*
Y1221529D01*
X212047Y1225592D02*
Y1223560D01*
D14*
X659750Y1221750D02*
G03*
X659750Y1221750I-750J0D01*
G01*
X689750Y1218750D02*
G03*
X689750Y1218750I-750J0D01*
G01*
X620250Y1221750D02*
G03*
X620250Y1221750I-750J0D01*
G01*
D15*
X0Y-0D02*
X1600000D01*
Y1000000D01*
X0D02*
X1600000D01*
X0Y-0D02*
Y1000000D01*
X1800000D02*
X1805667Y983000D01*
X1794333D02*
X1800000Y1000000D01*
X1794333Y17000D02*
X1800000Y-0D01*
X1805667Y17000D01*
X1800000Y500000D02*
Y1000000D01*
Y-0D02*
Y500000D01*
X1603750Y1000000D02*
X1802500D01*
X1603750Y-0D02*
X1802500D01*
X0Y1100000D02*
X17000Y1105667D01*
X0Y1100000D02*
X17000Y1094333D01*
X1583000D02*
X1600000Y1100000D01*
X1583000Y1105667D02*
X1600000Y1100000D01*
X0D02*
X800000D01*
X1600000D01*
X0Y1003750D02*
Y1102500D01*
X1600000Y1003750D02*
Y1102500D01*
D16*
X1732290Y1084443D02*
X1737288D01*
X1739787Y1086942D01*
Y1091941D01*
X1737288Y1094440D01*
X1732290D01*
X1729791Y1091941D01*
Y1086942D01*
X1732290Y1084443D01*
X1759781Y1086942D02*
X1762280Y1084443D01*
X1767279D01*
X1769778Y1086942D01*
Y1096939D01*
X1767279Y1099438D01*
X1762280D01*
X1759781Y1096939D01*
Y1094440D01*
X1762280Y1091941D01*
X1769778D01*
X1777275Y1081944D02*
X1779775Y1084443D01*
Y1086942D01*
X1777275D01*
Y1084443D01*
X1779775D01*
X1777275Y1081944D01*
X1774776Y1079445D01*
X1789771Y1096939D02*
X1792271Y1099438D01*
X1797269D01*
X1799768Y1096939D01*
Y1086942D01*
X1797269Y1084443D01*
X1792271D01*
X1789771Y1086942D01*
Y1096939D01*
X1804767D02*
X1807266Y1099438D01*
X1812264D01*
X1814763Y1096939D01*
Y1086942D01*
X1812264Y1084443D01*
X1807266D01*
X1804767Y1086942D01*
Y1096939D01*
X1819762Y1084443D02*
Y1094440D01*
X1822261D01*
X1824760Y1091941D01*
Y1084443D01*
Y1091941D01*
X1827259Y1094440D01*
X1829758Y1091941D01*
Y1084443D01*
X1834757D02*
Y1094440D01*
X1837256D01*
X1839755Y1091941D01*
Y1084443D01*
Y1091941D01*
X1842254Y1094440D01*
X1844754Y1091941D01*
Y1084443D01*
X754040Y1123361D02*
X759118D01*
X756579D01*
Y1138596D01*
X754040Y1136057D01*
X776892Y1138596D02*
X771814Y1136057D01*
X766736Y1130979D01*
Y1125901D01*
X769275Y1123361D01*
X774353D01*
X776892Y1125901D01*
Y1128440D01*
X774353Y1130979D01*
X766736D01*
X781971Y1136057D02*
X784510Y1138596D01*
X789588D01*
X792127Y1136057D01*
Y1125901D01*
X789588Y1123361D01*
X784510D01*
X781971Y1125901D01*
Y1136057D01*
X799745Y1120822D02*
X802284Y1123361D01*
Y1125901D01*
X799745D01*
Y1123361D01*
X802284D01*
X799745Y1120822D01*
X797206Y1118283D01*
X812441Y1136057D02*
X814980Y1138596D01*
X820058D01*
X822598Y1136057D01*
Y1125901D01*
X820058Y1123361D01*
X814980D01*
X812441Y1125901D01*
Y1136057D01*
X827676D02*
X830215Y1138596D01*
X835293D01*
X837833Y1136057D01*
Y1125901D01*
X835293Y1123361D01*
X830215D01*
X827676Y1125901D01*
Y1136057D01*
D17*
X1776647Y454044D02*
Y459122D01*
Y456583D01*
X1761411D01*
X1763951Y454044D01*
Y466739D02*
X1761411Y469278D01*
Y474357D01*
X1763951Y476896D01*
X1774107D01*
X1776647Y474357D01*
Y469278D01*
X1774107Y466739D01*
X1763951D01*
Y481974D02*
X1761411Y484514D01*
Y489592D01*
X1763951Y492131D01*
X1774107D01*
X1776647Y489592D01*
Y484514D01*
X1774107Y481974D01*
X1763951D01*
X1779186Y499749D02*
X1776647Y502288D01*
X1774107D01*
Y499749D01*
X1776647D01*
Y502288D01*
X1779186Y499749D01*
X1781725Y497210D01*
X1763951Y512445D02*
X1761411Y514984D01*
Y520062D01*
X1763951Y522601D01*
X1774107D01*
X1776647Y520062D01*
Y514984D01*
X1774107Y512445D01*
X1763951D01*
Y527680D02*
X1761411Y530219D01*
Y535297D01*
X1763951Y537836D01*
X1774107D01*
X1776647Y535297D01*
Y530219D01*
X1774107Y527680D01*
X1763951D01*
D18*
X345250Y1058250D02*
Y1066250D01*
Y1058250D02*
X361250D01*
Y1066250D01*
X345250D02*
X361250D01*
X643750Y1348250D02*
Y1364250D01*
X651750D01*
Y1348250D02*
Y1364250D01*
X643750Y1348250D02*
X651750D01*
X283750Y1303750D02*
X291750D01*
Y1319750D01*
X283750D02*
X291750D01*
X283750Y1303750D02*
Y1319750D01*
X608500Y1100750D02*
X672500D01*
X608500D02*
Y1130750D01*
X672500D01*
Y1100750D02*
Y1130750D01*
X608500Y1290000D02*
X672500D01*
X608500D02*
Y1320000D01*
X672500D01*
Y1290000D02*
Y1320000D01*
X544000Y1127750D02*
Y1135750D01*
Y1127750D02*
X560000D01*
Y1135750D01*
X544000D02*
X560000D01*
X734250Y1079000D02*
Y1129000D01*
X699250Y1079000D02*
Y1129000D01*
X734250D01*
X699250Y1079000D02*
X734250D01*
X701500Y1304500D02*
X736500D01*
X701500Y1354500D02*
X736500D01*
X701500Y1304500D02*
Y1354500D01*
X736500Y1304500D02*
Y1354500D01*
X397750Y1058250D02*
Y1066250D01*
X381750D02*
X397750D01*
X381750Y1058250D02*
Y1066250D01*
Y1058250D02*
X397750D01*
X560250Y1109750D02*
Y1117750D01*
X544250D02*
X560250D01*
X544250Y1109750D02*
Y1117750D01*
Y1109750D02*
X560250D01*
X631750Y1252500D02*
X647750D01*
X631750D02*
Y1260500D01*
X647750D01*
Y1252500D02*
Y1260500D01*
X417000Y1366750D02*
X433000D01*
X417000Y1374750D02*
X433000D01*
X417000Y1366750D02*
Y1374750D01*
X433000Y1366750D02*
Y1374750D01*
X538750Y1339750D02*
X554750D01*
X538750Y1331750D02*
X554750D01*
Y1339750D01*
X538750Y1331750D02*
Y1339750D01*
Y1315750D02*
X554750D01*
X538750Y1323750D02*
X554750D01*
X538750Y1315750D02*
Y1323750D01*
X554750Y1315750D02*
Y1323750D01*
X539250Y1364250D02*
X555250D01*
X539250D02*
Y1372250D01*
X555250D01*
Y1364250D02*
Y1372250D01*
X538750Y1355750D02*
X554750D01*
Y1347750D02*
Y1355750D01*
X538750Y1347750D02*
X554750D01*
X538750D02*
Y1355750D01*
X288750Y1340000D02*
X304750D01*
Y1332000D02*
Y1340000D01*
X288750Y1332000D02*
X304750D01*
X288750D02*
Y1340000D01*
X276000Y1167000D02*
X292000D01*
X276000Y1175000D02*
X292000D01*
X276000Y1167000D02*
Y1175000D01*
X292000Y1167000D02*
Y1175000D01*
X588250Y1271750D02*
X596250D01*
X588250Y1255750D02*
X596250D01*
X588250D02*
Y1271750D01*
X596250Y1255750D02*
Y1271750D01*
X604250D02*
X612250D01*
X604250Y1255750D02*
X612250D01*
X604250D02*
Y1271750D01*
X612250Y1255750D02*
Y1271750D01*
X647000Y1163000D02*
Y1171000D01*
X631000D02*
X647000D01*
X631000Y1163000D02*
Y1171000D01*
Y1163000D02*
X647000D01*
X685250Y1274500D02*
X693250D01*
X685250Y1258500D02*
X693250D01*
X685250D02*
Y1274500D01*
X693250Y1258500D02*
Y1274500D01*
X668750D02*
X676750D01*
X668750Y1258500D02*
X676750D01*
X668750D02*
Y1274500D01*
X676750Y1258500D02*
Y1274500D01*
X543750Y1144500D02*
Y1152500D01*
Y1144500D02*
X559750D01*
Y1152500D01*
X543750D02*
X559750D01*
X544500Y1159750D02*
Y1167750D01*
Y1159750D02*
X560500D01*
Y1167750D01*
X544500D02*
X560500D01*
X544250Y1175750D02*
Y1183750D01*
Y1175750D02*
X560250D01*
Y1183750D01*
X544250D02*
X560250D01*
X677500Y1176000D02*
X693500D01*
X677500Y1144000D02*
X693500D01*
X677500D02*
Y1176000D01*
X693500Y1144000D02*
Y1176000D01*
X661750Y1167000D02*
X669750D01*
X661750Y1151000D02*
X669750D01*
X661750D02*
Y1167000D01*
X669750Y1151000D02*
Y1167000D01*
X691750Y1364750D02*
X699750D01*
X691750Y1348750D02*
Y1364750D01*
Y1348750D02*
X699750D01*
Y1364750D01*
X262250Y1102750D02*
X270250D01*
X262250Y1118750D02*
X270250D01*
Y1102750D02*
Y1118750D01*
X262250Y1102750D02*
Y1118750D01*
X278500Y1102750D02*
X286500D01*
X278500Y1118750D02*
X286500D01*
Y1102750D02*
Y1118750D01*
X278500Y1102750D02*
Y1118750D01*
X651750Y1080250D02*
X659750D01*
X651750Y1064250D02*
Y1080250D01*
Y1064250D02*
X659750D01*
Y1080250D01*
X682750Y1064750D02*
X690750D01*
Y1080750D01*
X682750D02*
X690750D01*
X682750Y1064750D02*
Y1080750D01*
X543500Y1344750D02*
X573500D01*
X543500Y1356750D02*
X573500D01*
Y1344750D02*
Y1356750D01*
X543500Y1344750D02*
Y1356750D01*
X560975Y1362750D02*
X560975Y1356750D01*
X555975Y1362750D02*
X560975D01*
X555975Y1356750D02*
X555975Y1362750D01*
X546450Y1344750D02*
X546450Y1338750D01*
X551450D01*
X551450Y1344750D01*
X570500Y1338750D02*
X570500Y1344750D01*
X565500Y1338750D02*
X570500D01*
X565500Y1344750D02*
X565500Y1338750D01*
X680500Y1058250D02*
Y1088250D01*
X668500Y1058250D02*
Y1088250D01*
X680500D01*
X668500Y1058250D02*
X680500D01*
X662500Y1075725D02*
X668500Y1075725D01*
X662500Y1070725D02*
Y1075725D01*
Y1070725D02*
X668500Y1070725D01*
X680500Y1061200D02*
X686500Y1061200D01*
Y1066200D01*
X680500Y1066200D02*
X686500Y1066200D01*
X680500Y1085250D02*
X686500Y1085250D01*
Y1080250D02*
Y1085250D01*
X680500Y1080250D02*
X686500Y1080250D01*
X574250Y1055750D02*
Y1085750D01*
X586250Y1055750D02*
Y1085750D01*
X574250Y1055750D02*
X586250D01*
X574250Y1085750D02*
X586250D01*
Y1068275D02*
X592250Y1068275D01*
Y1073275D01*
X586250Y1073275D02*
X592250Y1073275D01*
X568250Y1082800D02*
X574250Y1082800D01*
X568250Y1077800D02*
Y1082800D01*
Y1077800D02*
X574250Y1077800D01*
X568250Y1058750D02*
X574250Y1058750D01*
X568250Y1058750D02*
Y1063750D01*
X574250Y1063750D01*
X653750Y1345500D02*
Y1375500D01*
X665750Y1345500D02*
Y1375500D01*
X653750Y1345500D02*
X665750D01*
X653750Y1375500D02*
X665750D01*
Y1358025D02*
X671750Y1358025D01*
Y1363025D01*
X665750Y1363025D02*
X671750Y1363025D01*
X647750Y1372550D02*
X653750Y1372550D01*
X647750Y1367550D02*
Y1372550D01*
Y1367550D02*
X653750Y1367550D01*
X647750Y1348500D02*
X653750Y1348500D01*
X647750Y1348500D02*
Y1353500D01*
X653750Y1353500D01*
X298250Y1370250D02*
X326250D01*
X298250Y1354250D02*
X326250D01*
X331250Y1366250D02*
X331250Y1358250D01*
X326250D02*
X331250D01*
X326250Y1366250D02*
X331250D01*
X303250Y1359250D02*
Y1365250D01*
X300250Y1362250D02*
X306250D01*
X298250Y1354250D02*
Y1370250D01*
X326250Y1354250D02*
Y1370250D01*
X293250Y1358250D02*
X298250D01*
X293250Y1366250D02*
X298250D01*
X293250D02*
X293250Y1358250D01*
X608500Y1130750D02*
X672500D01*
X608500Y1100750D02*
Y1130750D01*
Y1100750D02*
X672500D01*
Y1130750D01*
X608500Y1320000D02*
X672500D01*
X608500Y1290000D02*
Y1320000D01*
Y1290000D02*
X672500D01*
Y1320000D01*
X409250Y1081750D02*
X417250D01*
X409250Y1065750D02*
X417250D01*
Y1081750D01*
X409250Y1065750D02*
Y1081750D01*
X233750Y1244250D02*
X241750D01*
X233750D02*
Y1260250D01*
X241750D01*
Y1244250D02*
Y1260250D01*
X250000Y1244750D02*
X258000D01*
X250000D02*
Y1260750D01*
X258000D01*
Y1244750D02*
Y1260750D01*
X480750Y1269000D02*
Y1277000D01*
X496750Y1269000D02*
Y1277000D01*
X480750D02*
X496750D01*
X480750Y1269000D02*
X496750D01*
X364300Y1251250D02*
X441800D01*
X364300Y1316250D02*
X441800D01*
X364300Y1251250D02*
Y1316250D01*
X441800Y1251250D02*
Y1316250D01*
X407750Y1117000D02*
X415750D01*
Y1101000D02*
Y1117000D01*
X407750Y1101000D02*
X415750D01*
X407750D02*
Y1117000D01*
X647750Y1252500D02*
Y1260500D01*
X631750Y1252500D02*
X647750D01*
X631750D02*
Y1260500D01*
X647750D01*
X647000Y1163000D02*
Y1171000D01*
X631000Y1163000D02*
X647000D01*
X631000D02*
Y1171000D01*
X647000D01*
X281750Y1260500D02*
X289750D01*
X281750Y1244500D02*
X289750D01*
Y1260500D01*
X281750Y1244500D02*
Y1260500D01*
X488500Y1065750D02*
Y1081750D01*
X496500Y1065750D02*
Y1081750D01*
X488500Y1065750D02*
X496500D01*
X488500Y1081750D02*
X496500D01*
X420500Y1245500D02*
X436500D01*
X420500Y1237500D02*
Y1245500D01*
Y1237500D02*
X436500D01*
Y1245500D01*
X402000Y1101500D02*
Y1117500D01*
X394000D02*
X402000D01*
X394000Y1101500D02*
Y1117500D01*
Y1101500D02*
X402000D01*
X387750Y1101500D02*
Y1117500D01*
X379750D02*
X387750D01*
X379750Y1101500D02*
Y1117500D01*
Y1101500D02*
X387750D01*
X373000Y1101250D02*
Y1117250D01*
X365000D02*
X373000D01*
X365000Y1101250D02*
Y1117250D01*
Y1101250D02*
X373000D01*
X612750Y1155500D02*
Y1171500D01*
X604750Y1155500D02*
Y1171500D01*
X612750D01*
X604750Y1155500D02*
X612750D01*
X596250D02*
Y1171500D01*
X588250Y1155500D02*
Y1171500D01*
X596250D01*
X588250Y1155500D02*
X596250D01*
X542250Y1224500D02*
X558250D01*
X542250Y1232500D02*
X558250D01*
Y1224500D02*
Y1232500D01*
X542250Y1224500D02*
Y1232500D01*
X481000Y1230750D02*
X497000D01*
X481000Y1222750D02*
X497000D01*
X481000D02*
Y1230750D01*
X497000Y1222750D02*
Y1230750D01*
X669000Y1258500D02*
Y1274500D01*
X677000Y1258500D02*
Y1274500D01*
X669000Y1258500D02*
X677000D01*
X669000Y1274500D02*
X677000D01*
X684925Y1258476D02*
Y1274477D01*
X692925Y1258476D02*
Y1274477D01*
X684925Y1258476D02*
X692925D01*
X684925Y1274477D02*
X692925D01*
X266000Y1244750D02*
Y1260750D01*
Y1244750D02*
X274000D01*
Y1260750D01*
X266000D02*
X274000D01*
X225500Y1244750D02*
Y1260750D01*
X217500D02*
X225500D01*
X217500Y1244750D02*
Y1260750D01*
Y1244750D02*
X225500D01*
X222750Y1317000D02*
X238750D01*
X222750Y1309000D02*
Y1317000D01*
Y1309000D02*
X238750D01*
Y1317000D01*
X222500Y1349500D02*
X238500D01*
X222500Y1341500D02*
Y1349500D01*
Y1341500D02*
X238500D01*
Y1349500D01*
X222750Y1301000D02*
X238750D01*
X222750Y1293000D02*
Y1301000D01*
Y1293000D02*
X238750D01*
Y1301000D01*
X222750Y1333250D02*
X238750D01*
X222750Y1325250D02*
Y1333250D01*
Y1325250D02*
X238750D01*
Y1333250D01*
X339500Y1101250D02*
Y1117250D01*
X347500Y1101250D02*
Y1117250D01*
X339500Y1101250D02*
X347500D01*
X339500Y1117250D02*
X347500D01*
X487250Y1174750D02*
X503250D01*
X487250Y1182750D02*
X503250D01*
Y1174750D02*
Y1182750D01*
X487250Y1174750D02*
Y1182750D01*
X485500Y1347500D02*
X501500D01*
X485500Y1339500D02*
X501500D01*
X485500D02*
Y1347500D01*
X501500Y1339500D02*
Y1347500D01*
X481250Y1301750D02*
X497250D01*
X481250Y1293750D02*
X497250D01*
X481250D02*
Y1301750D01*
X497250Y1293750D02*
Y1301750D01*
X450000Y1102000D02*
Y1118000D01*
X442000Y1102000D02*
Y1118000D01*
X450000D01*
X442000Y1102000D02*
X450000D01*
X543999Y1117750D02*
X560000D01*
X543999Y1109750D02*
X560000D01*
X543999D02*
Y1117750D01*
X560000Y1109750D02*
Y1117750D01*
X330750Y1321250D02*
X346750D01*
X330750Y1329250D02*
X346750D01*
Y1321250D02*
Y1329250D01*
X330750Y1321250D02*
Y1329250D01*
X328500Y1223000D02*
Y1239000D01*
X320500Y1223000D02*
Y1239000D01*
X328500D01*
X320500Y1223000D02*
X328500D01*
X419000Y1327500D02*
Y1343500D01*
X411000Y1327500D02*
Y1343500D01*
X419000D01*
X411000Y1327500D02*
X419000D01*
X320250Y1259750D02*
Y1275750D01*
X328250Y1259750D02*
Y1275750D01*
X320250Y1259750D02*
X328250D01*
X320250Y1275750D02*
X328250D01*
X469750Y1102000D02*
Y1118000D01*
X477750Y1102000D02*
Y1118000D01*
X469750Y1102000D02*
X477750D01*
X469750Y1118000D02*
X477750D01*
X677000Y1155750D02*
Y1171750D01*
X669000Y1155750D02*
Y1171750D01*
X677000D01*
X669000Y1155750D02*
X677000D01*
X485250Y1102000D02*
Y1118000D01*
X493250Y1102000D02*
Y1118000D01*
X485250Y1102000D02*
X493250D01*
X485250Y1118000D02*
X493250D01*
X692750Y1155500D02*
Y1171500D01*
X684750Y1155500D02*
Y1171500D01*
X692750D01*
X684750Y1155500D02*
X692750D01*
X714500Y1188250D02*
Y1204250D01*
Y1188250D02*
X722500D01*
Y1204250D01*
X714500D02*
X722500D01*
X722000Y1238500D02*
Y1254500D01*
X714000D02*
X722000D01*
X714000Y1238500D02*
Y1254500D01*
Y1238500D02*
X722000D01*
X421000Y1221750D02*
X437000D01*
X421000Y1213750D02*
Y1221750D01*
Y1213750D02*
X437000D01*
Y1221750D01*
D19*
X570000Y1348750D02*
G03*
X570000Y1348750I-500J0D01*
G01*
X677000Y1084250D02*
G03*
X677000Y1084250I-500J0D01*
G01*
X578750Y1059750D02*
G03*
X578750Y1059750I-500J0D01*
G01*
X658250Y1349500D02*
G03*
X658250Y1349500I-500J0D01*
G01*
D42*
X497250Y1273000D02*
D03*
X480250D02*
D03*
X631250Y1256500D02*
D03*
X648250D02*
D03*
X630500Y1167000D02*
D03*
X647500D02*
D03*
X437000Y1241500D02*
D03*
X420000D02*
D03*
X541750Y1228500D02*
D03*
X558750D02*
D03*
X497500Y1226750D02*
D03*
X480500D02*
D03*
X239250Y1313000D02*
D03*
X222250D02*
D03*
X239000Y1345500D02*
D03*
X222000D02*
D03*
X239250Y1297000D02*
D03*
X222250D02*
D03*
X239250Y1329250D02*
D03*
X222250D02*
D03*
X486750Y1178750D02*
D03*
X503750D02*
D03*
X502000Y1343500D02*
D03*
X485000D02*
D03*
X497750Y1297750D02*
D03*
X480750D02*
D03*
X560500Y1113750D02*
D03*
X543500D02*
D03*
X330250Y1325250D02*
D03*
X347250D02*
D03*
X437500Y1217750D02*
D03*
X420500D02*
D03*
D43*
X413250Y1065250D02*
D03*
Y1082250D02*
D03*
X237750Y1260750D02*
D03*
Y1243750D02*
D03*
X254000Y1261250D02*
D03*
Y1244250D02*
D03*
X411750Y1100500D02*
D03*
Y1117500D02*
D03*
X285750Y1244000D02*
D03*
Y1261000D02*
D03*
X492500Y1082250D02*
D03*
Y1065250D02*
D03*
X398000Y1101000D02*
D03*
Y1118000D02*
D03*
X383750Y1101000D02*
D03*
Y1118000D02*
D03*
X369000Y1100750D02*
D03*
Y1117750D02*
D03*
X608750Y1155000D02*
D03*
Y1172000D02*
D03*
X592250Y1155000D02*
D03*
Y1172000D02*
D03*
X673000Y1275000D02*
D03*
Y1258000D02*
D03*
X688925Y1274977D02*
D03*
Y1257976D02*
D03*
X270000Y1261250D02*
D03*
Y1244250D02*
D03*
X221500D02*
D03*
Y1261250D02*
D03*
X343500Y1117750D02*
D03*
Y1100750D02*
D03*
X446000Y1101500D02*
D03*
Y1118500D02*
D03*
X324500Y1222500D02*
D03*
Y1239500D02*
D03*
X415000Y1327000D02*
D03*
Y1344000D02*
D03*
X324250Y1276250D02*
D03*
Y1259250D02*
D03*
X473750Y1118500D02*
D03*
Y1101500D02*
D03*
X673000Y1155250D02*
D03*
Y1172250D02*
D03*
X489250Y1118500D02*
D03*
Y1101500D02*
D03*
X688750Y1155000D02*
D03*
Y1172000D02*
D03*
X718500Y1204750D02*
D03*
Y1187750D02*
D03*
X718000Y1238000D02*
D03*
Y1255000D02*
D03*
D44*
X640611Y1330315D02*
D03*
X640000Y1092750D02*
D03*
D47*
X609500Y1115750D02*
D03*
X671500D02*
D03*
X609500Y1305000D02*
D03*
X671500D02*
D03*
D48*
X703161Y1150451D02*
D03*
X703180Y1270295D02*
D03*
X577431Y1150020D02*
D03*
X577450Y1269864D02*
D03*
D52*
X451150Y1000000D02*
D03*
X438450D02*
D03*
X425750D02*
D03*
X413050D02*
D03*
X400350D02*
D03*
X362250D02*
D03*
X374950D02*
D03*
X387650D02*
D03*
X349550D02*
D03*
X336850D02*
D03*
X324150D02*
D03*
X311450D02*
D03*
X298750D02*
D03*
X260650D02*
D03*
X273350D02*
D03*
X286050D02*
D03*
X247950D02*
D03*
X235250D02*
D03*
X222550D02*
D03*
X209850D02*
D03*
X451150Y1039000D02*
D03*
X438450D02*
D03*
X425750D02*
D03*
X413050D02*
D03*
X400350D02*
D03*
X362250D02*
D03*
X374950D02*
D03*
X387650D02*
D03*
X349550D02*
D03*
X336850D02*
D03*
X324150D02*
D03*
X311450D02*
D03*
X298750D02*
D03*
X260650D02*
D03*
X273350D02*
D03*
X286050D02*
D03*
X247950D02*
D03*
X235250D02*
D03*
X222550D02*
D03*
X209850D02*
D03*
X451499Y1391750D02*
D03*
X438800D02*
D03*
X426100D02*
D03*
X413400D02*
D03*
X400700D02*
D03*
X362599D02*
D03*
X375299D02*
D03*
X387999D02*
D03*
X349899D02*
D03*
X337200D02*
D03*
X324500D02*
D03*
X311800D02*
D03*
X299100D02*
D03*
X261000D02*
D03*
X273699D02*
D03*
X286399D02*
D03*
X248300D02*
D03*
X235599D02*
D03*
X222899D02*
D03*
X210200D02*
D03*
X451499Y1430750D02*
D03*
X438800D02*
D03*
X426100D02*
D03*
X413400D02*
D03*
X400700D02*
D03*
X362599D02*
D03*
X375299D02*
D03*
X387999D02*
D03*
X349899D02*
D03*
X337200D02*
D03*
X324500D02*
D03*
X311800D02*
D03*
X299100D02*
D03*
X261000D02*
D03*
X273699D02*
D03*
X286399D02*
D03*
X248300D02*
D03*
X235599D02*
D03*
X222899D02*
D03*
X210200D02*
D03*
X720099Y1000000D02*
D03*
X707399D02*
D03*
X694699D02*
D03*
X681999D02*
D03*
X669299D02*
D03*
X631199D02*
D03*
X643899D02*
D03*
X656599D02*
D03*
X618499D02*
D03*
X605799D02*
D03*
X593099D02*
D03*
X580399D02*
D03*
X567699D02*
D03*
X529599D02*
D03*
X542299D02*
D03*
X554999D02*
D03*
X516899D02*
D03*
X504199D02*
D03*
X491499D02*
D03*
X478799D02*
D03*
X720099Y1039000D02*
D03*
X707399D02*
D03*
X694699D02*
D03*
X681999D02*
D03*
X669299D02*
D03*
X631199D02*
D03*
X643899D02*
D03*
X656599D02*
D03*
X618499D02*
D03*
X605799D02*
D03*
X593099D02*
D03*
X580399D02*
D03*
X567699D02*
D03*
X529599D02*
D03*
X542299D02*
D03*
X554999D02*
D03*
X516899D02*
D03*
X504199D02*
D03*
X491499D02*
D03*
X478799D02*
D03*
X719900Y1391750D02*
D03*
X707200D02*
D03*
X694500D02*
D03*
X681800D02*
D03*
X669100D02*
D03*
X631000D02*
D03*
X643700D02*
D03*
X656400D02*
D03*
X618300D02*
D03*
X605600D02*
D03*
X592900D02*
D03*
X580200D02*
D03*
X567500D02*
D03*
X529400D02*
D03*
X542100D02*
D03*
X554800D02*
D03*
X516700D02*
D03*
X504000D02*
D03*
X491300D02*
D03*
X478600D02*
D03*
X719900Y1430750D02*
D03*
X707200D02*
D03*
X694500D02*
D03*
X681800D02*
D03*
X669100D02*
D03*
X631000D02*
D03*
X643700D02*
D03*
X656400D02*
D03*
X618300D02*
D03*
X605600D02*
D03*
X592900D02*
D03*
X580200D02*
D03*
X567500D02*
D03*
X529400D02*
D03*
X542100D02*
D03*
X554800D02*
D03*
X516700D02*
D03*
X504000D02*
D03*
X491300D02*
D03*
X478600D02*
D03*
D64*
X264800Y1349150D02*
D03*
Y1291350D02*
D03*
X606250Y1409875D02*
D03*
X618750D02*
D03*
X340000Y1405000D02*
D03*
X349700Y1386000D02*
D03*
X400280Y1005250D02*
D03*
X400000Y1025000D02*
D03*
X391053Y1027053D02*
D03*
X321000Y1020125D02*
D03*
X336483D02*
D03*
X329233Y1020125D02*
D03*
X665000Y1025000D02*
D03*
X669875Y1045222D02*
D03*
X657269Y1015250D02*
D03*
X642838Y1014838D02*
D03*
X650000Y1025000D02*
D03*
X523150Y1030611D02*
D03*
X504080Y1045222D02*
D03*
X529430Y1045472D02*
D03*
X516780Y1045222D02*
D03*
X535000Y1025000D02*
D03*
X545000D02*
D03*
X299056Y1386168D02*
D03*
X618250Y1352000D02*
D03*
X343250Y1134625D02*
D03*
X292500Y1170750D02*
D03*
X345000Y1062500D02*
D03*
X398524Y1062401D02*
D03*
X374880Y1045722D02*
D03*
X617500Y1070750D02*
D03*
X624250Y1082750D02*
D03*
X629750Y1369250D02*
D03*
X602500Y1342000D02*
D03*
X423742Y1334515D02*
D03*
X576564Y1334114D02*
D03*
X569000Y1091000D02*
D03*
X588250Y1057750D02*
D03*
X295250Y1361750D02*
D03*
X645000Y1334250D02*
D03*
X336497Y1166747D02*
D03*
X660750Y1193000D02*
D03*
X644250Y1194000D02*
D03*
X317500Y1081000D02*
D03*
X323125Y1240000D02*
D03*
Y1258500D02*
D03*
X333500Y1264356D02*
D03*
X340608Y1262928D02*
D03*
X325000Y1275500D02*
D03*
X334250Y1313250D02*
D03*
X413180Y1425222D02*
D03*
X425880D02*
D03*
X438580D02*
D03*
X451280D02*
D03*
X464750Y1412000D02*
D03*
X462000Y1400500D02*
D03*
X504150Y1425000D02*
D03*
X491200Y1385000D02*
D03*
X478500D02*
D03*
X478750Y1425000D02*
D03*
X491450D02*
D03*
X283225Y1280489D02*
D03*
X320500Y1340750D02*
D03*
X328000Y1346750D02*
D03*
X323125Y1325750D02*
D03*
X316750Y1361000D02*
D03*
X317250Y1351250D02*
D03*
X302250Y1309000D02*
D03*
X302000Y1284874D02*
D03*
X235450Y1005750D02*
D03*
X308750Y1091500D02*
D03*
X576500Y1347875D02*
D03*
X280000Y1101750D02*
D03*
X299125Y1044972D02*
D03*
X311930Y1045222D02*
D03*
X606000Y1137250D02*
D03*
X597250Y1115625D02*
D03*
X593500Y1306000D02*
D03*
X628500Y1303250D02*
D03*
X498125Y1331250D02*
D03*
X671000Y1307500D02*
D03*
X671500Y1115750D02*
D03*
X623375Y1267000D02*
D03*
Y1277750D02*
D03*
Y1244875D02*
D03*
X608625Y1242750D02*
D03*
X633125Y1256000D02*
D03*
X570250Y1057750D02*
D03*
X580430Y1045722D02*
D03*
X631000Y1071500D02*
D03*
X630750Y1061750D02*
D03*
X580180Y1005722D02*
D03*
X258236Y1220824D02*
D03*
X294844Y1143840D02*
D03*
X286160Y1134276D02*
D03*
X294625Y1127836D02*
D03*
X292940Y1136844D02*
D03*
X343782Y1118282D02*
D03*
X335489Y1109250D02*
D03*
X266750Y1149750D02*
D03*
X537750Y1209000D02*
D03*
X605250Y1232100D02*
D03*
X598472Y1235028D02*
D03*
X669200Y1425000D02*
D03*
X626000Y1188250D02*
D03*
X337750Y1195250D02*
D03*
X246500Y1195500D02*
D03*
X266750Y1102250D02*
D03*
X443735Y1257765D02*
D03*
X245500Y1174750D02*
D03*
X275750Y1174250D02*
D03*
X294250Y1219000D02*
D03*
X237750Y1242750D02*
D03*
X237750Y1260750D02*
D03*
X254000Y1241625D02*
D03*
X254000Y1261250D02*
D03*
X685500Y1146000D02*
D03*
X689250Y1275000D02*
D03*
X672750D02*
D03*
X592250Y1272250D02*
D03*
X608250D02*
D03*
X592500Y1257250D02*
D03*
X537000Y1253000D02*
D03*
X547625Y1288625D02*
D03*
Y1258750D02*
D03*
X541750Y1228500D02*
D03*
X547000Y1214250D02*
D03*
X485000Y1343500D02*
D03*
X504183Y1355325D02*
D03*
X324500Y1222500D02*
D03*
X285737Y1241639D02*
D03*
X480750Y1223375D02*
D03*
X291000Y1233125D02*
D03*
X418750Y1286149D02*
D03*
X635250Y1358250D02*
D03*
X668500Y1385500D02*
D03*
X679000Y1348750D02*
D03*
X695750Y1348250D02*
D03*
X416250Y1371250D02*
D03*
X433250Y1370500D02*
D03*
X559625Y1180375D02*
D03*
X543250Y1081000D02*
D03*
X474250Y1118500D02*
D03*
X481320Y1128755D02*
D03*
X488000Y1118000D02*
D03*
X474250Y1102000D02*
D03*
X464000Y1041500D02*
D03*
X399500Y1285250D02*
D03*
X399250Y1269250D02*
D03*
X412750Y1268750D02*
D03*
X464250Y1200125D02*
D03*
X351750Y1134625D02*
D03*
X446750Y1117500D02*
D03*
X446250Y1103000D02*
D03*
X488000Y1102750D02*
D03*
X343500Y1100250D02*
D03*
X356250Y1107500D02*
D03*
Y1115110D02*
D03*
X355751Y1122343D02*
D03*
X352750Y1095927D02*
D03*
X244250Y1129500D02*
D03*
X244500Y1091750D02*
D03*
X266000Y1120000D02*
D03*
X282000Y1118250D02*
D03*
X284000Y1068250D02*
D03*
X280547Y1061875D02*
D03*
X330076Y1068875D02*
D03*
X400254Y1130004D02*
D03*
X406967Y1136980D02*
D03*
X407500Y1129750D02*
D03*
X414730Y1130286D02*
D03*
X339750Y1071750D02*
D03*
X483750Y1155500D02*
D03*
X357500Y1153750D02*
D03*
X359000Y1144000D02*
D03*
X437250Y1217875D02*
D03*
X396875Y1252000D02*
D03*
X384625Y1251000D02*
D03*
X371875Y1251167D02*
D03*
X364250Y1251000D02*
D03*
X414250Y1328000D02*
D03*
X510250Y1275750D02*
D03*
X497750Y1272750D02*
D03*
X480250Y1272500D02*
D03*
X468000Y1285375D02*
D03*
X497000Y1258250D02*
D03*
X464750Y1247625D02*
D03*
X497500Y1242250D02*
D03*
X496750Y1227000D02*
D03*
Y1217500D02*
D03*
X486463Y1178713D02*
D03*
X464750Y1154500D02*
D03*
X503750Y1178750D02*
D03*
X688500Y1187750D02*
D03*
X721500Y1103500D02*
D03*
X706750Y1024500D02*
D03*
X436500Y1131500D02*
D03*
X509250Y1150675D02*
D03*
X543126Y1148883D02*
D03*
X502248Y1121108D02*
D03*
X422250Y1251250D02*
D03*
X434000Y1338750D02*
D03*
X439750Y1344750D02*
D03*
X430500Y1271000D02*
D03*
X438250Y1266125D02*
D03*
X459000Y1271775D02*
D03*
X535042Y1264875D02*
D03*
X549250Y1270500D02*
D03*
X556500Y1276750D02*
D03*
X552000Y1103750D02*
D03*
X555500Y1086250D02*
D03*
X536250Y1076375D02*
D03*
X449500Y1067250D02*
D03*
X437875Y1066125D02*
D03*
X570500Y1134500D02*
D03*
Y1126750D02*
D03*
X476500Y1149500D02*
D03*
X714500Y1219250D02*
D03*
X721500Y1224000D02*
D03*
X559000Y1219250D02*
D03*
X567691Y1210296D02*
D03*
X568750Y1218250D02*
D03*
X590250Y1196000D02*
D03*
X324500Y1209500D02*
D03*
X670000Y1188500D02*
D03*
X597000Y1182500D02*
D03*
X338875Y1182725D02*
D03*
X338740Y1175476D02*
D03*
X594750Y1242000D02*
D03*
X563500Y1244250D02*
D03*
X286500Y1204750D02*
D03*
X283250Y1212250D02*
D03*
X347750Y1158250D02*
D03*
X499250Y1158750D02*
D03*
X338250Y1150250D02*
D03*
X506750Y1133425D02*
D03*
X510929Y1227197D02*
D03*
X509477Y1123204D02*
D03*
X535690Y1123051D02*
D03*
X591500Y1108750D02*
D03*
X565750Y1102000D02*
D03*
X550000Y1060500D02*
D03*
X631180Y1045222D02*
D03*
X484750Y1054000D02*
D03*
X642750Y1080250D02*
D03*
X471911Y1046443D02*
D03*
X479045Y1045156D02*
D03*
X470250Y1053500D02*
D03*
X459250Y1026375D02*
D03*
X565625Y1292000D02*
D03*
X393400Y1144000D02*
D03*
X558000Y1284500D02*
D03*
X511000Y1097750D02*
D03*
X505674Y1106207D02*
D03*
X504080Y1005275D02*
D03*
X505475Y1017525D02*
D03*
X382000Y1143888D02*
D03*
X349500Y1285000D02*
D03*
X353826Y1371757D02*
D03*
X347250Y1410500D02*
D03*
X512000Y1353500D02*
D03*
X386250Y1240750D02*
D03*
X371250Y1142500D02*
D03*
X647500Y1148750D02*
D03*
X289250Y1061978D02*
D03*
X300500Y1018750D02*
D03*
X629500Y1021750D02*
D03*
X279482Y1158482D02*
D03*
X293000Y1017500D02*
D03*
X337330Y1045222D02*
D03*
X523500Y1089250D02*
D03*
X511000Y1086000D02*
D03*
X362180Y1045722D02*
D03*
X344500Y1367750D02*
D03*
X443750Y1285250D02*
D03*
X260906Y1233651D02*
D03*
X509250Y1234250D02*
D03*
X356000Y1259000D02*
D03*
X512085Y1111050D02*
D03*
X299000Y1062750D02*
D03*
X274130Y1044972D02*
D03*
X286830D02*
D03*
X331552Y1059125D02*
D03*
X466000Y1066125D02*
D03*
X620000Y1165500D02*
D03*
X543500Y1163250D02*
D03*
X561000Y1163750D02*
D03*
X543500Y1131750D02*
D03*
X635000Y1123750D02*
D03*
X639000Y1236250D02*
D03*
X560250Y1148500D02*
D03*
X560499Y1131750D02*
D03*
X560750Y1113750D02*
D03*
X671750Y1062000D02*
D03*
X655750Y1063750D02*
D03*
X260000Y1425000D02*
D03*
X247500Y1424250D02*
D03*
X554700Y1385000D02*
D03*
X567400D02*
D03*
X719500Y1184500D02*
D03*
X718000Y1255000D02*
D03*
X347500Y1203750D02*
D03*
X369000Y1117750D02*
D03*
X383750Y1118000D02*
D03*
X555250Y1070750D02*
D03*
X542500Y1058750D02*
D03*
X530750Y1063500D02*
D03*
X306625Y1323875D02*
D03*
X458750Y1318750D02*
D03*
X269000Y1241625D02*
D03*
X459000Y1331150D02*
D03*
Y1343850D02*
D03*
X387000Y1318450D02*
D03*
Y1356550D02*
D03*
Y1343850D02*
D03*
Y1331150D02*
D03*
X413430Y1045472D02*
D03*
X270000Y1261250D02*
D03*
X221500D02*
D03*
X222000Y1244250D02*
D03*
X355750Y1313250D02*
D03*
X491380Y1045222D02*
D03*
X567530Y1045472D02*
D03*
X542130D02*
D03*
X554830D02*
D03*
X618530Y1045722D02*
D03*
X593130D02*
D03*
X605830D02*
D03*
X643880Y1045222D02*
D03*
X656580D02*
D03*
X720280Y1045722D02*
D03*
X682180D02*
D03*
X694880D02*
D03*
X707580D02*
D03*
X720280Y1005722D02*
D03*
X682180D02*
D03*
X694880D02*
D03*
X707580D02*
D03*
X669030D02*
D03*
X630930D02*
D03*
X643630D02*
D03*
X656330D02*
D03*
X592880D02*
D03*
X605580D02*
D03*
X567530Y1006222D02*
D03*
X529430D02*
D03*
X542130D02*
D03*
X554830D02*
D03*
X516780Y1005972D02*
D03*
X478680D02*
D03*
X491380D02*
D03*
X248280Y1045722D02*
D03*
X210180D02*
D03*
X222880D02*
D03*
X235580D02*
D03*
X261430Y1044972D02*
D03*
X350030Y1045222D02*
D03*
X324630D02*
D03*
X400280Y1045722D02*
D03*
X387580D02*
D03*
X451530Y1045472D02*
D03*
X426130D02*
D03*
X438830D02*
D03*
X451530Y1005722D02*
D03*
X413430D02*
D03*
X426130D02*
D03*
X438830D02*
D03*
X362180Y1006722D02*
D03*
X374880D02*
D03*
X387580D02*
D03*
X349530Y1005972D02*
D03*
X311430D02*
D03*
X324130D02*
D03*
X336830D02*
D03*
X299280D02*
D03*
X261180D02*
D03*
X273880D02*
D03*
X286580D02*
D03*
X248280Y1006222D02*
D03*
X210180D02*
D03*
X222880D02*
D03*
X451030Y1386222D02*
D03*
X412930D02*
D03*
X425630D02*
D03*
X438330D02*
D03*
X516850Y1425000D02*
D03*
X529550D02*
D03*
X542250D02*
D03*
X554950D02*
D03*
X567650D02*
D03*
X580350D02*
D03*
X593050D02*
D03*
X605750D02*
D03*
X618450D02*
D03*
X631150D02*
D03*
X503900Y1385000D02*
D03*
X516600D02*
D03*
X529300D02*
D03*
X542000D02*
D03*
X580100D02*
D03*
X592800D02*
D03*
X605500D02*
D03*
X618200D02*
D03*
X630900D02*
D03*
X643600D02*
D03*
X273500Y1425000D02*
D03*
X286200D02*
D03*
X298900D02*
D03*
X311600D02*
D03*
X324300D02*
D03*
X337000D02*
D03*
X400500D02*
D03*
X387800D02*
D03*
X375100D02*
D03*
X362400D02*
D03*
X349700D02*
D03*
X400500Y1386000D02*
D03*
X387800D02*
D03*
X375100D02*
D03*
X362400D02*
D03*
X337000D02*
D03*
X324300D02*
D03*
X311600D02*
D03*
X286200D02*
D03*
X273500D02*
D03*
X260800D02*
D03*
X248100D02*
D03*
X210000D02*
D03*
X222700D02*
D03*
X235400D02*
D03*
Y1425000D02*
D03*
X222700D02*
D03*
X210000D02*
D03*
X221750Y1345500D02*
D03*
X222250Y1329250D02*
D03*
X222000Y1312750D02*
D03*
X222250Y1296750D02*
D03*
X239000Y1345500D02*
D03*
X239250Y1329250D02*
D03*
Y1313000D02*
D03*
Y1297000D02*
D03*
X716750Y1066500D02*
D03*
Y1141500D02*
D03*
X630500Y1167000D02*
D03*
X648750Y1277750D02*
D03*
X543750Y1179750D02*
D03*
X647500Y1182250D02*
D03*
X656500Y1425000D02*
D03*
X643800D02*
D03*
X656500Y1386000D02*
D03*
X681900Y1425000D02*
D03*
Y1386000D02*
D03*
X720000Y1425000D02*
D03*
X707300D02*
D03*
X694600D02*
D03*
Y1386000D02*
D03*
X707300D02*
D03*
X720000D02*
D03*
X689250Y1258000D02*
D03*
X672750D02*
D03*
X608250Y1255000D02*
D03*
X669250Y1243500D02*
D03*
X660000Y1235500D02*
D03*
X691750Y1242500D02*
D03*
X676750Y1243500D02*
D03*
X644000Y1230500D02*
D03*
X650750Y1243500D02*
D03*
D65*
X269700Y1363500D02*
D03*
Y1277000D02*
D03*
D66*
X228000Y1363500D02*
D03*
Y1277000D02*
D03*
D67*
X609500Y1360750D02*
D03*
X492971Y1353132D02*
D03*
X482500Y1238500D02*
D03*
X618400Y1006000D02*
D03*
X287750Y1320250D02*
D03*
X305250Y1336000D02*
D03*
D84*
X241750Y1065250D02*
D03*
Y1213750D02*
D03*
D85*
X323000Y1191750D02*
D03*
Y1180750D02*
D03*
Y1103750D02*
D03*
Y1114750D02*
D03*
Y1125750D02*
D03*
Y1136750D02*
D03*
Y1147750D02*
D03*
Y1158750D02*
D03*
Y1169750D02*
D03*
Y1092750D02*
D03*
D86*
X558500Y1362750D02*
D03*
X567500Y1338750D02*
D03*
X549500D02*
D03*
D87*
X662500Y1073250D02*
D03*
X686500Y1082250D02*
D03*
Y1064250D02*
D03*
X592250Y1070750D02*
D03*
X568250Y1061750D02*
D03*
Y1079750D02*
D03*
X671750Y1360500D02*
D03*
X647750Y1351500D02*
D03*
Y1369500D02*
D03*
X329250Y1362250D02*
D03*
X295250D02*
D03*
D88*
X459425Y1305975D02*
D03*
Y1261525D02*
D03*
D89*
X392750Y1283750D02*
D03*
D90*
X650625Y1215250D02*
D03*
Y1210250D02*
D03*
Y1205250D02*
D03*
Y1220250D02*
D03*
X627375Y1215250D02*
D03*
Y1210250D02*
D03*
Y1205250D02*
D03*
Y1220250D02*
D03*
X587875D02*
D03*
Y1205250D02*
D03*
Y1210250D02*
D03*
Y1215250D02*
D03*
X611125Y1220250D02*
D03*
Y1205250D02*
D03*
Y1210250D02*
D03*
Y1215250D02*
D03*
D91*
X639000Y1221875D02*
D03*
X644000D02*
D03*
X634000D02*
D03*
X639000Y1203625D02*
D03*
X644000D02*
D03*
X634000D02*
D03*
X594500D02*
D03*
X604500D02*
D03*
X599500D02*
D03*
X594500Y1221875D02*
D03*
X604500D02*
D03*
X599500D02*
D03*
D92*
X472750Y1074000D02*
D03*
X432750D02*
D03*
D93*
X673520Y1210270D02*
D03*
Y1215930D02*
D03*
X670690Y1207440D02*
D03*
Y1213100D02*
D03*
Y1218760D02*
D03*
X679180Y1210270D02*
D03*
Y1215930D02*
D03*
X676350Y1207440D02*
D03*
X682010D02*
D03*
Y1213100D02*
D03*
Y1218760D02*
D03*
X676350D02*
D03*
D94*
X398500Y1241000D02*
D03*
X376500D02*
D03*
X398750Y1217750D02*
D03*
X376750D02*
D03*
M02*
