G04*
G04 #@! TF.GenerationSoftware,Altium Limited,Altium Designer,24.4.1 (13)*
G04*
G04 Layer_Color=32896*
%FSLAX44Y44*%
%MOMM*%
G71*
G04*
G04 #@! TF.SameCoordinates,044CC30A-6F31-4426-BCA9-A8A858A33F02*
G04*
G04*
G04 #@! TF.FilePolarity,Positive*
G04*
G01*
G75*
%ADD10C,0.2000*%
%ADD11C,0.1270*%
%ADD12C,0.2540*%
%ADD13C,0.3500*%
%ADD14C,0.1500*%
%ADD15C,0.2500*%
%ADD16C,0.1524*%
%ADD17C,0.1520*%
%ADD18C,0.1000*%
%ADD19C,0.1250*%
G36*
X397686Y1194142D02*
X398107D01*
Y1193932D01*
X398318D01*
Y1193721D01*
X398528D01*
Y1193299D01*
X398739D01*
Y1193089D01*
X398950D01*
Y1192667D01*
X399160D01*
Y1192246D01*
X399371D01*
Y1191614D01*
X399582D01*
Y1189928D01*
X402532D01*
Y1189717D01*
X404639D01*
Y1189507D01*
X406325D01*
Y1189296D01*
X407589D01*
Y1189085D01*
X408642D01*
Y1188875D01*
X409696D01*
Y1188664D01*
X410749D01*
Y1188453D01*
X411592D01*
Y1188242D01*
X412435D01*
Y1188032D01*
X413278D01*
Y1187821D01*
X413910D01*
Y1187610D01*
X414753D01*
Y1187400D01*
X415385D01*
Y1187189D01*
X416017D01*
Y1186978D01*
X416649D01*
Y1186768D01*
X417281D01*
Y1186557D01*
X417702D01*
Y1186346D01*
X418335D01*
Y1186135D01*
X418967D01*
Y1185925D01*
X419388D01*
Y1185714D01*
X419809D01*
Y1185503D01*
X420442D01*
Y1185293D01*
X421074D01*
Y1185082D01*
X421495D01*
Y1184871D01*
X421917D01*
Y1184660D01*
X422338D01*
Y1184450D01*
X422759D01*
Y1184239D01*
X423391D01*
Y1184028D01*
X423813D01*
Y1183818D01*
X424234D01*
Y1183607D01*
X424445D01*
Y1183396D01*
X425077D01*
Y1183186D01*
X425288D01*
Y1182975D01*
X425709D01*
Y1182764D01*
X426131D01*
Y1182553D01*
X426552D01*
Y1182343D01*
X426973D01*
Y1182132D01*
X427395D01*
Y1181921D01*
X427606D01*
Y1181711D01*
X428027D01*
Y1181500D01*
X428238D01*
Y1181289D01*
X428659D01*
Y1181079D01*
X429081D01*
Y1180868D01*
X429502D01*
Y1180657D01*
X429713D01*
Y1180446D01*
X430134D01*
Y1180236D01*
X430345D01*
Y1180025D01*
X430766D01*
Y1179814D01*
X430977D01*
Y1179604D01*
X431398D01*
Y1179393D01*
X431609D01*
Y1179182D01*
X432030D01*
Y1178972D01*
X431398D01*
Y1179182D01*
X431188D01*
Y1179393D01*
X430766D01*
Y1179604D01*
X430555D01*
Y1179814D01*
X430134D01*
Y1180025D01*
X429923D01*
Y1180236D01*
X429502D01*
Y1180446D01*
X429081D01*
Y1180657D01*
X428870D01*
Y1180868D01*
X428448D01*
Y1181079D01*
X428027D01*
Y1181289D01*
X427816D01*
Y1181500D01*
X427395D01*
Y1181711D01*
X426973D01*
Y1181921D01*
X426552D01*
Y1182132D01*
X426341D01*
Y1182343D01*
X425920D01*
Y1182553D01*
X425499D01*
Y1182764D01*
X425077D01*
Y1182975D01*
X424656D01*
Y1183186D01*
X424234D01*
Y1183396D01*
X423813D01*
Y1183607D01*
X423391D01*
Y1183818D01*
X422970D01*
Y1184028D01*
X422549D01*
Y1184239D01*
X422127D01*
Y1184450D01*
X421706D01*
Y1184660D01*
X421074D01*
Y1184871D01*
X420652D01*
Y1185082D01*
X420231D01*
Y1185293D01*
X419599D01*
Y1185503D01*
X419177D01*
Y1185714D01*
X418545D01*
Y1185925D01*
X418124D01*
Y1186135D01*
X417492D01*
Y1186346D01*
X416860D01*
Y1186557D01*
X416227D01*
Y1186768D01*
X415595D01*
Y1186978D01*
X414963D01*
Y1187189D01*
X414331D01*
Y1187400D01*
X413488D01*
Y1187610D01*
X412856D01*
Y1187821D01*
X412014D01*
Y1188032D01*
X411171D01*
Y1188242D01*
X410328D01*
Y1188453D01*
X409274D01*
Y1188664D01*
X408221D01*
Y1188875D01*
X406957D01*
Y1189085D01*
X405482D01*
Y1189296D01*
X403796D01*
Y1189507D01*
X401268D01*
Y1189717D01*
X399582D01*
Y1188664D01*
X399371D01*
Y1188032D01*
X399160D01*
Y1187610D01*
X398950D01*
Y1187189D01*
X398739D01*
Y1186978D01*
X398528D01*
Y1186557D01*
X398318D01*
Y1186135D01*
X398107D01*
Y1185925D01*
X398739D01*
Y1186135D01*
X399582D01*
Y1185714D01*
X399793D01*
Y1185503D01*
X399582D01*
Y1184871D01*
X399371D01*
Y1184450D01*
X399160D01*
Y1184239D01*
X398950D01*
Y1183818D01*
X398739D01*
Y1183607D01*
X398528D01*
Y1183396D01*
X398318D01*
Y1183186D01*
X398107D01*
Y1182975D01*
X397896D01*
Y1182764D01*
X397686D01*
Y1182553D01*
X397475D01*
Y1182343D01*
X397264D01*
Y1182132D01*
X397053D01*
Y1181921D01*
X396632D01*
Y1181711D01*
X396421D01*
Y1181500D01*
X396000D01*
Y1181289D01*
X395789D01*
Y1181079D01*
X395368D01*
Y1180868D01*
X395789D01*
Y1180657D01*
X396000D01*
Y1180446D01*
X396211D01*
Y1179604D01*
X396000D01*
Y1179182D01*
X395789D01*
Y1178972D01*
X395579D01*
Y1178761D01*
X395368D01*
Y1178550D01*
X395157D01*
Y1178339D01*
X394947D01*
Y1178129D01*
X394736D01*
Y1177918D01*
X394525D01*
Y1177707D01*
X394314D01*
Y1177497D01*
X394104D01*
Y1177286D01*
X393682D01*
Y1177075D01*
X393472D01*
Y1176864D01*
X393050D01*
Y1176654D01*
X392629D01*
Y1176443D01*
X392207D01*
Y1176232D01*
X391786D01*
Y1176022D01*
X390732D01*
Y1175811D01*
X389890D01*
Y1174758D01*
X389679D01*
Y1174125D01*
X389468D01*
Y1173704D01*
X389258D01*
Y1173283D01*
X389047D01*
Y1172861D01*
X388836D01*
Y1172650D01*
X388625D01*
Y1172440D01*
X388415D01*
Y1172229D01*
X388204D01*
Y1172018D01*
X387993D01*
Y1171597D01*
X387572D01*
Y1171386D01*
X387361D01*
Y1171176D01*
X387150D01*
Y1170965D01*
X386729D01*
Y1171386D01*
X386940D01*
Y1171808D01*
X386729D01*
Y1172861D01*
X386518D01*
Y1173283D01*
X386308D01*
Y1173704D01*
X386097D01*
Y1173915D01*
X385886D01*
Y1174125D01*
X385465D01*
Y1174336D01*
X385254D01*
Y1174547D01*
X384622D01*
Y1174758D01*
X383568D01*
Y1174968D01*
X383358D01*
Y1175179D01*
X383147D01*
Y1175390D01*
X382936D01*
Y1175600D01*
X382726D01*
Y1175811D01*
X382515D01*
Y1176022D01*
X382304D01*
Y1176232D01*
X382094D01*
Y1176443D01*
X381883D01*
Y1176654D01*
X381672D01*
Y1176864D01*
X381251D01*
Y1177075D01*
X381040D01*
Y1177286D01*
X380829D01*
Y1177497D01*
X380408D01*
Y1177707D01*
X379986D01*
Y1177918D01*
X379354D01*
Y1178129D01*
X378933D01*
Y1178339D01*
X378301D01*
Y1178550D01*
X377247D01*
Y1178761D01*
X376405D01*
Y1178972D01*
X374719D01*
Y1179182D01*
X373244D01*
Y1179393D01*
X370294D01*
Y1179604D01*
X369662D01*
Y1179393D01*
X369451D01*
Y1179182D01*
X369030D01*
Y1178972D01*
X368819D01*
Y1178761D01*
X368609D01*
Y1178550D01*
X368398D01*
Y1178339D01*
X368187D01*
Y1178129D01*
X367976D01*
Y1177918D01*
X367766D01*
Y1177707D01*
X367555D01*
Y1177497D01*
X367344D01*
Y1177286D01*
X367134D01*
Y1177075D01*
X366923D01*
Y1176864D01*
X366712D01*
Y1176443D01*
X366502D01*
Y1176232D01*
X366291D01*
Y1176022D01*
X366080D01*
Y1175811D01*
X365869D01*
Y1175600D01*
X365659D01*
Y1175390D01*
X365448D01*
Y1175811D01*
X365659D01*
Y1176022D01*
X365869D01*
Y1176232D01*
X366080D01*
Y1176443D01*
X366291D01*
Y1176864D01*
X366502D01*
Y1177075D01*
X366712D01*
Y1177286D01*
X366923D01*
Y1177497D01*
X367134D01*
Y1177707D01*
X367344D01*
Y1177918D01*
X367555D01*
Y1178129D01*
X367766D01*
Y1178339D01*
X367976D01*
Y1178550D01*
X368187D01*
Y1178761D01*
X368398D01*
Y1178972D01*
X368609D01*
Y1179182D01*
X368819D01*
Y1179393D01*
X369241D01*
Y1179814D01*
X369662D01*
Y1180446D01*
X369451D01*
Y1181289D01*
X369662D01*
Y1181711D01*
X369873D01*
Y1182132D01*
X370084D01*
Y1182343D01*
X370294D01*
Y1182553D01*
X370505D01*
Y1182764D01*
X370926D01*
Y1182975D01*
X371348D01*
Y1183186D01*
X370084D01*
Y1183396D01*
X369241D01*
Y1183818D01*
X369030D01*
Y1184028D01*
X369241D01*
Y1184239D01*
X369662D01*
Y1184450D01*
X370084D01*
Y1184660D01*
X369873D01*
Y1184871D01*
X368819D01*
Y1185082D01*
X367134D01*
Y1185293D01*
X366080D01*
Y1185503D01*
X365448D01*
Y1185714D01*
X364816D01*
Y1185925D01*
X364394D01*
Y1186135D01*
X364184D01*
Y1186346D01*
X363973D01*
Y1187189D01*
X364605D01*
Y1187400D01*
X367134D01*
Y1187610D01*
X368819D01*
Y1187400D01*
X369873D01*
Y1187821D01*
X369662D01*
Y1188032D01*
X369451D01*
Y1188453D01*
X369241D01*
Y1188664D01*
X369030D01*
Y1188875D01*
X368819D01*
Y1189296D01*
X368609D01*
Y1189507D01*
X368398D01*
Y1189717D01*
X368187D01*
Y1189928D01*
X367976D01*
Y1190139D01*
X367766D01*
Y1190560D01*
X367555D01*
Y1190771D01*
X367344D01*
Y1190982D01*
X367134D01*
Y1191192D01*
X366923D01*
Y1191403D01*
X366712D01*
Y1191614D01*
X366502D01*
Y1191824D01*
X366291D01*
Y1192035D01*
X366080D01*
Y1192246D01*
X365869D01*
Y1192667D01*
X365659D01*
Y1193089D01*
X365448D01*
Y1193932D01*
X365869D01*
Y1194142D01*
X367134D01*
Y1193932D01*
X368187D01*
Y1193721D01*
X369030D01*
Y1193510D01*
X369662D01*
Y1193299D01*
X370084D01*
Y1193089D01*
X370716D01*
Y1192878D01*
X371137D01*
Y1192667D01*
X371558D01*
Y1192457D01*
X371980D01*
Y1192246D01*
X372191D01*
Y1192035D01*
X372612D01*
Y1191824D01*
X373033D01*
Y1191614D01*
X373244D01*
Y1191403D01*
X373665D01*
Y1191192D01*
X373876D01*
Y1190982D01*
X374087D01*
Y1190771D01*
X374297D01*
Y1190560D01*
X374508D01*
Y1190350D01*
X374930D01*
Y1190139D01*
X375140D01*
Y1189928D01*
X375351D01*
Y1189717D01*
X375562D01*
Y1189507D01*
X375773D01*
Y1189296D01*
X375983D01*
Y1188875D01*
X376194D01*
Y1188664D01*
X376405D01*
Y1188453D01*
X376615D01*
Y1188242D01*
X376826D01*
Y1187821D01*
X377037D01*
Y1187610D01*
X377247D01*
Y1187189D01*
X377458D01*
Y1186978D01*
X377669D01*
Y1186557D01*
X377879D01*
Y1186135D01*
X378090D01*
Y1185714D01*
X378722D01*
Y1185925D01*
X379144D01*
Y1186135D01*
X379565D01*
Y1186346D01*
X380197D01*
Y1186557D01*
X380619D01*
Y1186768D01*
X381251D01*
Y1186978D01*
X381672D01*
Y1187189D01*
X382304D01*
Y1187400D01*
X382936D01*
Y1187610D01*
X383568D01*
Y1187821D01*
X384201D01*
Y1188032D01*
X384833D01*
Y1188242D01*
X385676D01*
Y1188453D01*
X386518D01*
Y1188664D01*
X387361D01*
Y1188875D01*
X388415D01*
Y1189085D01*
X389468D01*
Y1189296D01*
X390732D01*
Y1189507D01*
X392207D01*
Y1189717D01*
X394525D01*
Y1189928D01*
X394736D01*
Y1190139D01*
X394947D01*
Y1190560D01*
X395157D01*
Y1190771D01*
X395368D01*
Y1190982D01*
X395579D01*
Y1191403D01*
X395789D01*
Y1191614D01*
X396000D01*
Y1192035D01*
X396211D01*
Y1192457D01*
X396421D01*
Y1192878D01*
X396632D01*
Y1193932D01*
X396843D01*
Y1194353D01*
X397686D01*
Y1194142D01*
D02*
G37*
G36*
X458579Y1178761D02*
X458790D01*
Y1168015D01*
X458579D01*
Y1167804D01*
X457736D01*
Y1168436D01*
X457525D01*
Y1168647D01*
X457736D01*
Y1173283D01*
X453101D01*
Y1167804D01*
X452679D01*
Y1167594D01*
X452469D01*
Y1167804D01*
X452047D01*
Y1176654D01*
Y1176864D01*
Y1178761D01*
X452258D01*
Y1178972D01*
X452890D01*
Y1178761D01*
X453101D01*
Y1174547D01*
X453311D01*
Y1174336D01*
X453733D01*
Y1174547D01*
X453943D01*
Y1174336D01*
X454786D01*
Y1174547D01*
X456472D01*
Y1174336D01*
X456893D01*
Y1174547D01*
X457104D01*
Y1174336D01*
X457525D01*
Y1174758D01*
X457736D01*
Y1174968D01*
X457525D01*
Y1175179D01*
X457736D01*
Y1175390D01*
X457525D01*
Y1175600D01*
X457736D01*
Y1175811D01*
X457525D01*
Y1176022D01*
X457736D01*
Y1178761D01*
X457947D01*
Y1178972D01*
X458579D01*
Y1178761D01*
D02*
G37*
G36*
X409274Y1175390D02*
X409696D01*
Y1169279D01*
X409485D01*
Y1168858D01*
X409274D01*
Y1168436D01*
X408853D01*
Y1168226D01*
X408642D01*
Y1168015D01*
X408432D01*
Y1167804D01*
X405903D01*
Y1167594D01*
X405692D01*
Y1167804D01*
X405482D01*
Y1167594D01*
X405060D01*
Y1167804D01*
X404217D01*
Y1168015D01*
X404007D01*
Y1174125D01*
Y1174336D01*
Y1175179D01*
X404217D01*
Y1175600D01*
X405060D01*
Y1174968D01*
X405271D01*
Y1174547D01*
X405060D01*
Y1169279D01*
X405271D01*
Y1169069D01*
X405060D01*
Y1168858D01*
X408010D01*
Y1169069D01*
X408221D01*
Y1169279D01*
X408432D01*
Y1170965D01*
X408642D01*
Y1175390D01*
X408853D01*
Y1175600D01*
X409274D01*
Y1175390D01*
D02*
G37*
G36*
X440248D02*
X440669D01*
Y1175179D01*
X441091D01*
Y1174968D01*
X441301D01*
Y1174758D01*
X441512D01*
Y1174336D01*
X441723D01*
Y1173915D01*
X441933D01*
Y1172861D01*
X441723D01*
Y1172229D01*
X441512D01*
Y1172018D01*
X441301D01*
Y1171808D01*
X441091D01*
Y1171597D01*
X440880D01*
Y1171386D01*
X440669D01*
Y1171176D01*
X440248D01*
Y1170754D01*
X440458D01*
Y1170543D01*
X440669D01*
Y1170122D01*
X440880D01*
Y1169701D01*
X441091D01*
Y1169490D01*
X441301D01*
Y1169069D01*
X441512D01*
Y1168858D01*
X441723D01*
Y1168436D01*
X441933D01*
Y1168015D01*
X441723D01*
Y1167804D01*
X440880D01*
Y1168015D01*
X440669D01*
Y1168436D01*
X440458D01*
Y1168647D01*
X440248D01*
Y1169069D01*
X440037D01*
Y1169279D01*
X439826D01*
Y1169701D01*
X439616D01*
Y1169911D01*
X439405D01*
Y1170333D01*
X439194D01*
Y1170543D01*
X438983D01*
Y1170965D01*
X438351D01*
Y1171176D01*
X437719D01*
Y1170965D01*
X437298D01*
Y1169279D01*
X437509D01*
Y1168858D01*
X437298D01*
Y1167804D01*
X436244D01*
Y1168015D01*
Y1168226D01*
Y1175390D01*
X436455D01*
Y1175600D01*
X440248D01*
Y1175390D01*
D02*
G37*
G36*
X421495D02*
X421706D01*
Y1172861D01*
Y1172650D01*
Y1168015D01*
X421495D01*
Y1167804D01*
X420652D01*
Y1168436D01*
X420442D01*
Y1168647D01*
X420652D01*
Y1169279D01*
X420442D01*
Y1174336D01*
X420652D01*
Y1174758D01*
X420442D01*
Y1174968D01*
X420652D01*
Y1175390D01*
X420863D01*
Y1175600D01*
X421495D01*
Y1175390D01*
D02*
G37*
G36*
X447622D02*
X448255D01*
Y1175179D01*
X448465D01*
Y1174968D01*
X448887D01*
Y1174758D01*
X449097D01*
Y1174336D01*
X449308D01*
Y1174125D01*
X449519D01*
Y1173704D01*
X449729D01*
Y1173493D01*
Y1169069D01*
X449519D01*
Y1168647D01*
X449308D01*
Y1168436D01*
X449097D01*
Y1168226D01*
X448676D01*
Y1168015D01*
X448465D01*
Y1167804D01*
X447412D01*
Y1167594D01*
X446358D01*
Y1167804D01*
X444251D01*
Y1168647D01*
X444462D01*
Y1168858D01*
X448044D01*
Y1169069D01*
X448255D01*
Y1169279D01*
X448465D01*
Y1169701D01*
X448676D01*
Y1170965D01*
X448255D01*
Y1171176D01*
X445937D01*
Y1170965D01*
X445726D01*
Y1171176D01*
X445515D01*
Y1170965D01*
X445305D01*
Y1171176D01*
X445094D01*
Y1170965D01*
X444883D01*
Y1171176D01*
X444251D01*
Y1171808D01*
X444040D01*
Y1172018D01*
X444251D01*
Y1173915D01*
X444462D01*
Y1174336D01*
X444673D01*
Y1174547D01*
X444883D01*
Y1174758D01*
X445094D01*
Y1174968D01*
X445305D01*
Y1175179D01*
X445726D01*
Y1175390D01*
X446358D01*
Y1175600D01*
X447622D01*
Y1175390D01*
D02*
G37*
G36*
X432452D02*
X432873D01*
Y1175179D01*
X433084D01*
Y1174968D01*
X433294D01*
Y1174758D01*
X433505D01*
Y1174547D01*
X433716D01*
Y1174336D01*
X433927D01*
Y1169069D01*
X433716D01*
Y1168647D01*
X433505D01*
Y1168436D01*
X433294D01*
Y1168226D01*
X433084D01*
Y1168015D01*
X432662D01*
Y1167804D01*
X431820D01*
Y1167594D01*
X431609D01*
Y1167804D01*
X430977D01*
Y1167594D01*
X430766D01*
Y1167804D01*
X430134D01*
Y1167594D01*
X429923D01*
Y1167804D01*
X429502D01*
Y1168647D01*
X429713D01*
Y1168858D01*
X432241D01*
Y1169069D01*
X432662D01*
Y1169490D01*
X432873D01*
Y1173915D01*
X432662D01*
Y1174125D01*
X432452D01*
Y1174336D01*
X431609D01*
Y1174547D01*
X431398D01*
Y1174336D01*
X431188D01*
Y1174547D01*
X430977D01*
Y1174336D01*
X430766D01*
Y1174547D01*
X430134D01*
Y1174336D01*
X429923D01*
Y1174547D01*
X429502D01*
Y1175390D01*
X429713D01*
Y1175600D01*
X432452D01*
Y1175390D01*
D02*
G37*
G36*
X426973D02*
X427184D01*
Y1174968D01*
X427395D01*
Y1174547D01*
X427184D01*
Y1169069D01*
X427395D01*
Y1168858D01*
X427184D01*
Y1167804D01*
X426341D01*
Y1167594D01*
X426131D01*
Y1167804D01*
X425709D01*
Y1167594D01*
X425077D01*
Y1167804D01*
X424024D01*
Y1168015D01*
X423813D01*
Y1168226D01*
X423602D01*
Y1168436D01*
X423391D01*
Y1168647D01*
X423181D01*
Y1168858D01*
X422970D01*
Y1169279D01*
X422759D01*
Y1170543D01*
X422970D01*
Y1170965D01*
X423181D01*
Y1171386D01*
X423391D01*
Y1171597D01*
X423602D01*
Y1171808D01*
X424024D01*
Y1172018D01*
X424445D01*
Y1172229D01*
X426131D01*
Y1175390D01*
X426341D01*
Y1175600D01*
X426973D01*
Y1175390D01*
D02*
G37*
G36*
X418124D02*
X418335D01*
Y1174547D01*
X415595D01*
Y1168015D01*
X415385D01*
Y1167804D01*
X415174D01*
Y1167594D01*
X414753D01*
Y1167804D01*
X414542D01*
Y1168015D01*
X414331D01*
Y1174547D01*
X411592D01*
Y1175390D01*
X411803D01*
Y1175600D01*
X418124D01*
Y1175390D01*
D02*
G37*
G36*
X379144Y1173283D02*
X379354D01*
Y1173072D01*
X379565D01*
Y1172229D01*
Y1172018D01*
Y1171176D01*
X379354D01*
Y1170754D01*
X379144D01*
Y1170333D01*
X378933D01*
Y1169911D01*
X378722D01*
Y1169701D01*
X379565D01*
Y1169279D01*
X379776D01*
Y1168858D01*
X379986D01*
Y1168647D01*
X379776D01*
Y1168015D01*
X379565D01*
Y1167594D01*
X379354D01*
Y1167383D01*
X379144D01*
Y1166961D01*
X378933D01*
Y1166751D01*
X378722D01*
Y1166540D01*
X378512D01*
Y1166329D01*
X378301D01*
Y1165908D01*
X377879D01*
Y1165697D01*
X377669D01*
Y1165487D01*
X377458D01*
Y1165276D01*
X377247D01*
Y1165065D01*
X377037D01*
Y1164854D01*
X376826D01*
Y1164644D01*
X376194D01*
Y1164854D01*
X375983D01*
Y1165065D01*
X375773D01*
Y1165487D01*
X375562D01*
Y1166119D01*
X374930D01*
Y1166329D01*
X374719D01*
Y1166540D01*
X374297D01*
Y1166751D01*
X373665D01*
Y1166961D01*
X373033D01*
Y1167172D01*
X372823D01*
Y1167383D01*
X372612D01*
Y1167594D01*
X372823D01*
Y1168015D01*
X373033D01*
Y1168226D01*
X372191D01*
Y1168436D01*
X371980D01*
Y1168647D01*
X371769D01*
Y1168858D01*
X371558D01*
Y1169069D01*
X371348D01*
Y1169279D01*
X371137D01*
Y1169490D01*
X370926D01*
Y1169701D01*
X370716D01*
Y1170122D01*
X370505D01*
Y1170965D01*
X370716D01*
Y1171176D01*
X372401D01*
Y1171386D01*
X373455D01*
Y1171597D01*
X373876D01*
Y1171808D01*
X374930D01*
Y1172018D01*
X375773D01*
Y1172229D01*
X376826D01*
Y1172440D01*
X377247D01*
Y1172650D01*
X377458D01*
Y1172861D01*
X377879D01*
Y1173072D01*
X378090D01*
Y1173283D01*
X378722D01*
Y1173493D01*
X379144D01*
Y1173283D01*
D02*
G37*
G36*
X386518Y1168226D02*
X387150D01*
Y1168015D01*
X387361D01*
Y1167804D01*
X387572D01*
Y1167594D01*
X387783D01*
Y1167383D01*
X387993D01*
Y1167172D01*
X388204D01*
Y1166751D01*
X388415D01*
Y1165908D01*
X388625D01*
Y1164222D01*
X388415D01*
Y1164433D01*
X388204D01*
Y1164854D01*
X387993D01*
Y1165487D01*
X387783D01*
Y1165908D01*
X387572D01*
Y1166119D01*
X387361D01*
Y1166540D01*
X387150D01*
Y1166751D01*
X386940D01*
Y1166961D01*
X386729D01*
Y1167172D01*
X386518D01*
Y1167594D01*
X386308D01*
Y1167804D01*
X386097D01*
Y1168226D01*
X386308D01*
Y1168436D01*
X386518D01*
Y1168226D01*
D02*
G37*
G36*
X384201Y1167804D02*
X384833D01*
Y1167594D01*
X385043D01*
Y1167383D01*
X385254D01*
Y1167172D01*
X385465D01*
Y1166961D01*
X385676D01*
Y1166540D01*
X385886D01*
Y1166329D01*
X386097D01*
Y1165908D01*
Y1165697D01*
X386308D01*
Y1164012D01*
X385886D01*
Y1164433D01*
X385676D01*
Y1164854D01*
X385465D01*
Y1165276D01*
X385254D01*
Y1165487D01*
X385043D01*
Y1165908D01*
X384833D01*
Y1166119D01*
X384622D01*
Y1166540D01*
X384411D01*
Y1166751D01*
X384201D01*
Y1167172D01*
X383990D01*
Y1168015D01*
X384201D01*
Y1167804D01*
D02*
G37*
G36*
X433927Y1163590D02*
X434348D01*
Y1163380D01*
X434559D01*
Y1163169D01*
X434770D01*
Y1162747D01*
X434980D01*
Y1161694D01*
X434770D01*
Y1161273D01*
X434559D01*
Y1161062D01*
X434348D01*
Y1160851D01*
X433927D01*
Y1160640D01*
X433084D01*
Y1160851D01*
X432662D01*
Y1161062D01*
X432241D01*
Y1160851D01*
X431820D01*
Y1161905D01*
Y1162115D01*
Y1163590D01*
X432030D01*
Y1163801D01*
X432241D01*
Y1163380D01*
X432452D01*
Y1163590D01*
X432873D01*
Y1163801D01*
X433927D01*
Y1163590D01*
D02*
G37*
G36*
X415385Y1159587D02*
X414963D01*
Y1161062D01*
X414542D01*
Y1160851D01*
X414120D01*
Y1160640D01*
X413278D01*
Y1160851D01*
X412856D01*
Y1161062D01*
X412646D01*
Y1161273D01*
X412435D01*
Y1161694D01*
X412224D01*
Y1162747D01*
X412435D01*
Y1163169D01*
X412646D01*
Y1163380D01*
X412856D01*
Y1163590D01*
X413278D01*
Y1163801D01*
X414331D01*
Y1163590D01*
X414753D01*
Y1163380D01*
X414963D01*
Y1163590D01*
X415174D01*
Y1163801D01*
X415385D01*
Y1159587D01*
D02*
G37*
G36*
X424234Y1163590D02*
X424656D01*
Y1163380D01*
X424866D01*
Y1163169D01*
X425077D01*
Y1162747D01*
X424656D01*
Y1162958D01*
X424445D01*
Y1163169D01*
X424234D01*
Y1163380D01*
X422970D01*
Y1163169D01*
X422759D01*
Y1162958D01*
X422549D01*
Y1162537D01*
X422759D01*
Y1162326D01*
X422970D01*
Y1162537D01*
X423181D01*
Y1162326D01*
X423813D01*
Y1162115D01*
X422549D01*
Y1161483D01*
X422759D01*
Y1161273D01*
X423181D01*
Y1161062D01*
X424234D01*
Y1161273D01*
X424445D01*
Y1161483D01*
X424656D01*
Y1161694D01*
X425077D01*
Y1161483D01*
X424866D01*
Y1161062D01*
X424445D01*
Y1160851D01*
X424024D01*
Y1160640D01*
X423181D01*
Y1160851D01*
X422759D01*
Y1161062D01*
X422549D01*
Y1161273D01*
X422338D01*
Y1161694D01*
X422127D01*
Y1162958D01*
X422338D01*
Y1163169D01*
X422549D01*
Y1163380D01*
X422759D01*
Y1163590D01*
X423181D01*
Y1163801D01*
X424234D01*
Y1163590D01*
D02*
G37*
G36*
X447622Y1164433D02*
X447833D01*
Y1164222D01*
X448044D01*
Y1164012D01*
X448255D01*
Y1163590D01*
X448465D01*
Y1163380D01*
X448676D01*
Y1163169D01*
X448887D01*
Y1162958D01*
X449097D01*
Y1162537D01*
X449308D01*
Y1162326D01*
X449519D01*
Y1162115D01*
X449729D01*
Y1161694D01*
X449940D01*
Y1161483D01*
X450151D01*
Y1161273D01*
X449729D01*
Y1161483D01*
X449519D01*
Y1161905D01*
X449308D01*
Y1162115D01*
X449097D01*
Y1162326D01*
X448887D01*
Y1162537D01*
X448676D01*
Y1162747D01*
Y1162958D01*
X448465D01*
Y1163169D01*
X448255D01*
Y1163380D01*
X448044D01*
Y1163590D01*
X447833D01*
Y1164012D01*
X447622D01*
Y1164222D01*
X447412D01*
Y1164433D01*
X447201D01*
Y1164644D01*
X447622D01*
Y1164433D01*
D02*
G37*
G36*
X404639Y1163590D02*
X405060D01*
Y1163380D01*
X405271D01*
Y1163169D01*
X405482D01*
Y1162747D01*
X405692D01*
Y1161694D01*
X405482D01*
Y1161273D01*
X405271D01*
Y1161062D01*
X405060D01*
Y1160851D01*
X404428D01*
Y1160640D01*
X403796D01*
Y1160851D01*
X403164D01*
Y1161062D01*
X402953D01*
Y1161273D01*
X402743D01*
Y1161905D01*
X402532D01*
Y1162747D01*
X402743D01*
Y1163169D01*
X402953D01*
Y1163380D01*
X403164D01*
Y1163590D01*
X403585D01*
Y1163801D01*
X404639D01*
Y1163590D01*
D02*
G37*
%LPC*%
G36*
X398107Y1185925D02*
X397896D01*
Y1185714D01*
X398107D01*
Y1185925D01*
D02*
G37*
G36*
X394104Y1189507D02*
X393050D01*
Y1189296D01*
X391365D01*
Y1189085D01*
X390100D01*
Y1188875D01*
X388836D01*
Y1188664D01*
X387783D01*
Y1188453D01*
X386940D01*
Y1188242D01*
X386097D01*
Y1188032D01*
X385254D01*
Y1187821D01*
X384622D01*
Y1187610D01*
X383990D01*
Y1187400D01*
X383147D01*
Y1187189D01*
X382726D01*
Y1186978D01*
X382094D01*
Y1186768D01*
X381461D01*
Y1186557D01*
X381040D01*
Y1186346D01*
X380408D01*
Y1186135D01*
X379986D01*
Y1185925D01*
X379354D01*
Y1185714D01*
X378933D01*
Y1185503D01*
X378512D01*
Y1185082D01*
X378722D01*
Y1184660D01*
X378933D01*
Y1184028D01*
X379144D01*
Y1183607D01*
X379354D01*
Y1183186D01*
X379565D01*
Y1182764D01*
X379986D01*
Y1182553D01*
X380829D01*
Y1182343D01*
X381040D01*
Y1182132D01*
X381461D01*
Y1181921D01*
X381883D01*
Y1181711D01*
X382094D01*
Y1181500D01*
X382304D01*
Y1181289D01*
X382515D01*
Y1181079D01*
X382936D01*
Y1180868D01*
X383147D01*
Y1180446D01*
X383358D01*
Y1180236D01*
X383568D01*
Y1180025D01*
X383779D01*
Y1179604D01*
X383990D01*
Y1179393D01*
X384201D01*
Y1179604D01*
X384622D01*
Y1179814D01*
X385043D01*
Y1180025D01*
X385676D01*
Y1180236D01*
X386729D01*
Y1180025D01*
X387572D01*
Y1180657D01*
X387783D01*
Y1181079D01*
X387993D01*
Y1181500D01*
X388204D01*
Y1182132D01*
X388415D01*
Y1182553D01*
X388625D01*
Y1182764D01*
X388836D01*
Y1183186D01*
X389047D01*
Y1183607D01*
X389258D01*
Y1184028D01*
X389468D01*
Y1184450D01*
X389679D01*
Y1184660D01*
X389890D01*
Y1185082D01*
X390100D01*
Y1185293D01*
X390311D01*
Y1185503D01*
X390522D01*
Y1185714D01*
X390732D01*
Y1186135D01*
X390943D01*
Y1186346D01*
X391154D01*
Y1186557D01*
X391365D01*
Y1186768D01*
X391575D01*
Y1186978D01*
X391786D01*
Y1187189D01*
X391997D01*
Y1187400D01*
X392207D01*
Y1187610D01*
X392418D01*
Y1187821D01*
X392629D01*
Y1188032D01*
X392839D01*
Y1188242D01*
X393050D01*
Y1188453D01*
X393261D01*
Y1188664D01*
X393472D01*
Y1188875D01*
X393682D01*
Y1189085D01*
X393893D01*
Y1189296D01*
X394104D01*
Y1189507D01*
D02*
G37*
G36*
X439616Y1174547D02*
X437719D01*
Y1174336D01*
X437298D01*
Y1172650D01*
X437509D01*
Y1172440D01*
X437298D01*
Y1172229D01*
X440248D01*
Y1172440D01*
X440458D01*
Y1172650D01*
X440669D01*
Y1173915D01*
X440458D01*
Y1174125D01*
X440248D01*
Y1174336D01*
X439616D01*
Y1174547D01*
D02*
G37*
G36*
X446990D02*
X446780D01*
Y1174336D01*
X446147D01*
Y1174125D01*
X445726D01*
Y1173704D01*
X445515D01*
Y1173493D01*
X445305D01*
Y1172229D01*
X448676D01*
Y1172650D01*
Y1172861D01*
Y1173072D01*
X448465D01*
Y1173704D01*
X448255D01*
Y1173915D01*
X448044D01*
Y1174125D01*
X447833D01*
Y1174336D01*
X446990D01*
Y1174547D01*
D02*
G37*
G36*
X426131Y1171176D02*
X425077D01*
Y1170965D01*
X424445D01*
Y1170754D01*
X424234D01*
Y1170543D01*
X424024D01*
Y1170333D01*
Y1170122D01*
X423813D01*
Y1169911D01*
X424024D01*
Y1169279D01*
X424234D01*
Y1169069D01*
X424445D01*
Y1168858D01*
X426131D01*
Y1171176D01*
D02*
G37*
G36*
X434137Y1163380D02*
X432873D01*
Y1163169D01*
X432452D01*
Y1162958D01*
X432241D01*
Y1161694D01*
X432452D01*
Y1161483D01*
X432662D01*
Y1161273D01*
X432873D01*
Y1161062D01*
X433927D01*
Y1161273D01*
X434348D01*
Y1161483D01*
X434559D01*
Y1162537D01*
Y1162747D01*
Y1162958D01*
X434348D01*
Y1163169D01*
X434137D01*
Y1163380D01*
D02*
G37*
G36*
X414542D02*
X413067D01*
Y1163169D01*
X412856D01*
Y1162958D01*
X412646D01*
Y1161694D01*
X412856D01*
Y1161273D01*
X413278D01*
Y1161062D01*
X414331D01*
Y1161273D01*
X414753D01*
Y1161483D01*
X414963D01*
Y1162958D01*
X414753D01*
Y1163169D01*
X414542D01*
Y1163380D01*
D02*
G37*
G36*
X404850D02*
X403375D01*
Y1163169D01*
X403164D01*
Y1162747D01*
X402953D01*
Y1161694D01*
X403164D01*
Y1161483D01*
X403375D01*
Y1161273D01*
X403585D01*
Y1161062D01*
X404850D01*
Y1161273D01*
X405060D01*
Y1161694D01*
X405271D01*
Y1162958D01*
X405060D01*
Y1163169D01*
X404850D01*
Y1163380D01*
D02*
G37*
%LPD*%
D10*
X598395Y1135674D02*
G03*
X598395Y1095826I38105J-19924D01*
G01*
X682654Y1095920D02*
G03*
X682605Y1135674I-38154J19830D01*
G01*
X598395Y1324924D02*
G03*
X598395Y1285076I38105J-19924D01*
G01*
X682654Y1285170D02*
G03*
X682605Y1324924I-38154J19830D01*
G01*
X229800Y1236101D02*
G03*
X245700Y1236101I7950J16149D01*
G01*
Y1268399D02*
G03*
X229800Y1268399I-7950J-16149D01*
G01*
X246050Y1236601D02*
G03*
X261950Y1236601I7950J16149D01*
G01*
Y1268899D02*
G03*
X246050Y1268899I-7950J-16149D01*
G01*
X419700Y1125149D02*
G03*
X403800Y1125149I-7950J-16149D01*
G01*
Y1092851D02*
G03*
X419700Y1092851I7950J16149D01*
G01*
X655899Y1248550D02*
G03*
X655899Y1264451I-16149J7950D01*
G01*
X623601D02*
G03*
X623601Y1248550I16149J-7950D01*
G01*
X655149Y1159050D02*
G03*
X655149Y1174950I-16149J7950D01*
G01*
X622851D02*
G03*
X622851Y1159050I16149J-7950D01*
G01*
X412351Y1249450D02*
G03*
X412351Y1233550I16149J-7950D01*
G01*
X444649D02*
G03*
X444649Y1249450I-16149J7950D01*
G01*
X405950Y1125649D02*
G03*
X390050Y1125649I-7950J-16149D01*
G01*
Y1093351D02*
G03*
X405950Y1093351I7950J16149D01*
G01*
X391700Y1125649D02*
G03*
X375800Y1125649I-7950J-16149D01*
G01*
Y1093351D02*
G03*
X391700Y1093351I7950J16149D01*
G01*
X376950Y1125399D02*
G03*
X361050Y1125399I-7950J-16149D01*
G01*
Y1093101D02*
G03*
X376950Y1093101I7950J16149D01*
G01*
X262050Y1236601D02*
G03*
X277950Y1236601I7950J16149D01*
G01*
Y1268899D02*
G03*
X262050Y1268899I-7950J-16149D01*
G01*
X229450Y1268899D02*
G03*
X213550Y1268899I-7950J-16149D01*
G01*
Y1236601D02*
G03*
X229450Y1236601I7950J16149D01*
G01*
X214601Y1320950D02*
G03*
X214601Y1305050I16149J-7950D01*
G01*
X246899D02*
G03*
X246899Y1320950I-16149J7950D01*
G01*
X214351Y1353450D02*
G03*
X214351Y1337550I16149J-7950D01*
G01*
X246649D02*
G03*
X246649Y1353450I-16149J7950D01*
G01*
X214601Y1304950D02*
G03*
X214601Y1289050I16149J-7950D01*
G01*
X246899D02*
G03*
X246899Y1304950I-16149J7950D01*
G01*
X214601Y1337200D02*
G03*
X214601Y1321300I16149J-7950D01*
G01*
X246899D02*
G03*
X246899Y1337200I-16149J7950D01*
G01*
X710550Y1180101D02*
G03*
X726450Y1180101I7950J16149D01*
G01*
Y1212399D02*
G03*
X710550Y1212399I-7950J-16149D01*
G01*
X725950Y1262649D02*
G03*
X710050Y1262649I-7950J-16149D01*
G01*
Y1230351D02*
G03*
X725950Y1230351I7950J16149D01*
G01*
X412851Y1225700D02*
G03*
X412851Y1209800I16149J-7950D01*
G01*
X445149D02*
G03*
X445149Y1225700I-16149J7950D01*
G01*
X543500Y1355750D02*
X573500D01*
Y1345750D02*
Y1355750D01*
X543500Y1345750D02*
X573500D01*
X543500D02*
Y1355750D01*
X573500D01*
X669500Y1058250D02*
Y1088250D01*
X679500D01*
Y1058250D02*
Y1088250D01*
X669500Y1058250D02*
X679500D01*
X669500D02*
Y1088250D01*
X585250Y1055750D02*
Y1085750D01*
X575250Y1055750D02*
X585250D01*
X575250D02*
Y1085750D01*
X585250D01*
Y1055750D02*
Y1085750D01*
X664750Y1345500D02*
Y1375500D01*
X654750Y1345500D02*
X664750D01*
X654750D02*
Y1375500D01*
X664750D01*
Y1345500D02*
Y1375500D01*
X309750Y1357250D02*
Y1367250D01*
Y1357250D02*
X314750Y1362250D01*
X309750Y1367250D02*
X314750Y1362250D01*
Y1357250D02*
Y1367250D01*
X320250Y1353250D02*
Y1371250D01*
X294750D02*
X329750D01*
X294750Y1353250D02*
X329750D01*
X329750Y1354750D01*
X329750Y1371250D02*
X329750Y1369750D01*
X294750Y1353250D02*
Y1354750D01*
Y1369750D02*
Y1371250D01*
X598500Y1095750D02*
X682500D01*
X598500Y1135750D02*
X682500D01*
X598500Y1285000D02*
X682500D01*
X598500Y1325000D02*
X682500D01*
X421250Y1056750D02*
Y1090750D01*
X405250D02*
X421250D01*
X405250Y1056750D02*
Y1090750D01*
Y1056750D02*
X421250D01*
X229750Y1236250D02*
Y1268250D01*
X245750Y1236250D02*
Y1268250D01*
X246000Y1236750D02*
Y1268750D01*
X262000Y1236750D02*
Y1268750D01*
X471750Y1281000D02*
X505750D01*
X471750Y1265000D02*
Y1281000D01*
Y1265000D02*
X505750D01*
Y1281000D01*
X419750Y1093000D02*
Y1125000D01*
X403750Y1093000D02*
Y1125000D01*
X623750Y1248500D02*
X655750D01*
X623750Y1264500D02*
X655750D01*
X623000Y1159000D02*
X655000D01*
X623000Y1175000D02*
X655000D01*
X293750Y1235500D02*
Y1269500D01*
X277750D02*
X293750D01*
X277750Y1235500D02*
Y1269500D01*
Y1235500D02*
X293750D01*
X484500Y1056750D02*
X500500D01*
X484500D02*
Y1090750D01*
X500500D01*
Y1056750D02*
Y1090750D01*
X412500Y1249500D02*
X444500D01*
X412500Y1233500D02*
X444500D01*
X406000Y1093500D02*
Y1125500D01*
X390000Y1093500D02*
Y1125500D01*
X391750Y1093500D02*
Y1125500D01*
X375750Y1093500D02*
Y1125500D01*
X377000Y1093250D02*
Y1125250D01*
X361000Y1093250D02*
Y1125250D01*
X600750Y1180500D02*
X616750D01*
Y1146500D02*
Y1180500D01*
X600750Y1146500D02*
X616750D01*
X600750D02*
Y1180500D01*
X584250D02*
X600250D01*
Y1146500D02*
Y1180500D01*
X584250Y1146500D02*
X600250D01*
X584250D02*
Y1180500D01*
X567250Y1220500D02*
Y1236500D01*
X533250Y1220500D02*
X567250D01*
X533250D02*
Y1236500D01*
X567250D01*
X472000Y1218750D02*
Y1234750D01*
X506000D01*
Y1218750D02*
Y1234750D01*
X472000Y1218750D02*
X506000D01*
X665000Y1249500D02*
X681000D01*
X665000D02*
Y1283500D01*
X681000D01*
Y1249500D02*
Y1283500D01*
X680925Y1249476D02*
X696925D01*
X680925D02*
Y1283477D01*
X696925D01*
Y1249476D02*
Y1283477D01*
X262000Y1236750D02*
Y1268750D01*
X278000Y1236750D02*
Y1268750D01*
X229500Y1236750D02*
Y1268750D01*
X213500Y1236750D02*
Y1268750D01*
X214750Y1321000D02*
X246750D01*
X214750Y1305000D02*
X246750D01*
X214500Y1353500D02*
X246500D01*
X214500Y1337500D02*
X246500D01*
X214750Y1305000D02*
X246750D01*
X214750Y1289000D02*
X246750D01*
X214750Y1337250D02*
X246750D01*
X214750Y1321250D02*
X246750D01*
X335500Y1092250D02*
X351500D01*
X335500D02*
Y1126250D01*
X351500D01*
Y1092250D02*
Y1126250D01*
X512250Y1170750D02*
Y1186750D01*
X478250Y1170750D02*
X512250D01*
X478250D02*
Y1186750D01*
X512250D01*
X476500Y1335500D02*
Y1351500D01*
X510500D01*
Y1335500D02*
Y1351500D01*
X476500Y1335500D02*
X510500D01*
X472250Y1289750D02*
Y1305750D01*
X506250D01*
Y1289750D02*
Y1305750D01*
X472250Y1289750D02*
X506250D01*
X438000Y1127000D02*
X454000D01*
Y1093000D02*
Y1127000D01*
X438000Y1093000D02*
X454000D01*
X438000D02*
Y1127000D01*
X535000Y1105750D02*
Y1121750D01*
X569000D01*
Y1105750D02*
Y1121750D01*
X535000Y1105750D02*
X569000D01*
X355750Y1317250D02*
Y1333250D01*
X321750Y1317250D02*
X355750D01*
X321750D02*
Y1333250D01*
X355750D01*
X316500Y1248000D02*
X332500D01*
Y1214000D02*
Y1248000D01*
X316500Y1214000D02*
X332500D01*
X316500D02*
Y1248000D01*
X407000Y1352500D02*
X423000D01*
Y1318500D02*
Y1352500D01*
X407000Y1318500D02*
X423000D01*
X407000D02*
Y1352500D01*
X316250Y1250750D02*
X332250D01*
X316250D02*
Y1284750D01*
X332250D01*
Y1250750D02*
Y1284750D01*
X465750Y1093000D02*
X481750D01*
X465750D02*
Y1127000D01*
X481750D01*
Y1093000D02*
Y1127000D01*
X665000Y1180750D02*
X681000D01*
Y1146750D02*
Y1180750D01*
X665000Y1146750D02*
X681000D01*
X665000D02*
Y1180750D01*
X481250Y1093000D02*
X497250D01*
X481250D02*
Y1127000D01*
X497250D01*
Y1093000D02*
Y1127000D01*
X680750Y1180500D02*
X696750D01*
Y1146500D02*
Y1180500D01*
X680750Y1146500D02*
X696750D01*
X680750D02*
Y1180500D01*
X710500Y1180250D02*
Y1212250D01*
X726500Y1180250D02*
Y1212250D01*
X726000Y1230500D02*
Y1262500D01*
X710000Y1230500D02*
Y1262500D01*
X377500Y1232000D02*
X407500D01*
X377500Y1250000D02*
X407500D01*
Y1232000D02*
Y1250000D01*
X413000Y1225750D02*
X445000D01*
X413000Y1209750D02*
X445000D01*
X377750Y1208750D02*
X407750D01*
X377750Y1226750D02*
X407750D01*
Y1208750D02*
Y1226750D01*
X289000Y1352250D02*
G03*
X289000Y1352250I-1000J0D01*
G01*
X265000Y1135000D02*
G03*
X265000Y1135000I-1000J0D01*
G01*
X480400Y1303650D02*
G03*
X480400Y1303650I-1000J0D01*
G01*
X330250Y1067650D02*
G03*
X330250Y1067650I-1000J0D01*
G01*
X605210Y1234250D02*
G03*
X605210Y1234250I-1000J0D01*
G01*
D11*
X648450Y1225250D02*
X654000D01*
X624000D02*
X629550D01*
X624000Y1200250D02*
X629550D01*
X648450D02*
X654000D01*
Y1224700D02*
Y1225250D01*
X624000Y1224700D02*
Y1225250D01*
Y1200250D02*
Y1200800D01*
X654000Y1200250D02*
Y1200800D01*
X427750Y1089200D02*
Y1090000D01*
Y1058000D02*
Y1058800D01*
X477750Y1089200D02*
Y1090000D01*
Y1058000D02*
Y1058800D01*
X427750Y1090000D02*
X477750D01*
X427750Y1058000D02*
X477750D01*
X665790Y1222960D02*
X669800D01*
X665790Y1218950D02*
Y1222960D01*
X682200Y1202540D02*
X686210D01*
Y1206550D01*
X665790Y1202540D02*
X669800D01*
X665790D02*
Y1206550D01*
X682200Y1222960D02*
X686210D01*
Y1218950D02*
Y1222960D01*
X614500Y1200250D02*
Y1200800D01*
X584500Y1200250D02*
Y1200800D01*
Y1224700D02*
Y1225250D01*
X614500Y1224700D02*
Y1225250D01*
X608950Y1200250D02*
X614500D01*
X584500D02*
X590050D01*
X584500Y1225250D02*
X590050D01*
X608950D02*
X614500D01*
X202000Y1275550D02*
Y1364950D01*
Y1275550D02*
X275500D01*
Y1364950D01*
X202000D02*
X275500D01*
X206900Y1230250D02*
Y1375250D01*
X256700Y1160300D02*
X277300D01*
X256700Y1139700D02*
Y1160300D01*
Y1139700D02*
X277300D01*
Y1160300D01*
X473950Y1324150D02*
Y1363150D01*
X522950D01*
Y1324150D02*
Y1363150D01*
X473950Y1324150D02*
X522950D01*
X516750Y1091049D02*
Y1291049D01*
X316750Y1091049D02*
Y1291049D01*
X516750D01*
X316750Y1091049D02*
X516750D01*
X598000Y1228250D02*
X643000D01*
X598000Y1198250D02*
Y1228250D01*
Y1198250D02*
X643000D01*
Y1228250D01*
X654000Y1200250D02*
Y1225250D01*
X624000Y1200250D02*
X654000D01*
X624000D02*
Y1225250D01*
X654000D01*
X427750Y1090000D02*
X477750D01*
X427750Y1058000D02*
X477750D01*
Y1090000D01*
X427750Y1058000D02*
Y1090000D01*
X683800Y1204950D02*
Y1220550D01*
X668200D02*
X683800D01*
X668200Y1204950D02*
Y1220550D01*
Y1204950D02*
X683800D01*
X584500Y1225250D02*
X614500D01*
X584500Y1200250D02*
Y1225250D01*
Y1200250D02*
X614500D01*
Y1225250D01*
D12*
X635682Y1144244D02*
Y1159479D01*
X628064D01*
X625525Y1156940D01*
Y1151861D01*
X628064Y1149322D01*
X635682D01*
X630604D02*
X625525Y1144244D01*
X610290D02*
X620447D01*
X610290Y1154401D01*
Y1156940D01*
X612829Y1159479D01*
X617908D01*
X620447Y1156940D01*
X595055Y1144244D02*
X605212D01*
X595055Y1154401D01*
Y1156940D01*
X597594Y1159479D01*
X602673D01*
X605212Y1156940D01*
X1574749Y967678D02*
X1581820Y981820D01*
X1567678Y974749D02*
X1581820Y981820D01*
X1550000Y950000D02*
X1695964Y1095964D01*
X1727251D01*
X1518180Y918180D02*
X1525251Y932322D01*
X1518180Y918180D02*
X1532322Y925251D01*
X1518180Y918180D02*
X1550000Y950000D01*
X209000Y1268250D02*
X215094D01*
Y1265203D01*
X214078Y1264187D01*
X212047D01*
X211031Y1265203D01*
Y1268250D01*
X214078Y1258093D02*
X215094Y1259109D01*
Y1261140D01*
X214078Y1262156D01*
X210016D01*
X209000Y1261140D01*
Y1259109D01*
X210016Y1258093D01*
X215094Y1256062D02*
X209000D01*
Y1253015D01*
X210016Y1251999D01*
X211031D01*
X212047Y1253015D01*
Y1256062D01*
Y1253015D01*
X213063Y1251999D01*
X214078D01*
X215094Y1253015D01*
Y1256062D01*
Y1239811D02*
Y1243874D01*
X209000D01*
Y1239811D01*
X212047Y1243874D02*
Y1241843D01*
X215094Y1237780D02*
X209000D01*
Y1234733D01*
X210016Y1233717D01*
X214078D01*
X215094Y1234733D01*
Y1237780D01*
X214078Y1227623D02*
X215094Y1228639D01*
Y1230670D01*
X214078Y1231686D01*
X210016D01*
X209000Y1230670D01*
Y1228639D01*
X210016Y1227623D01*
X212047D01*
Y1229654D01*
X215094Y1221529D02*
Y1225592D01*
X209000D01*
Y1221529D01*
X212047Y1225592D02*
Y1223560D01*
D13*
X367500Y1232000D02*
Y1250000D01*
X377500D01*
X367500Y1232000D02*
X377500D01*
X367750Y1208750D02*
Y1226750D01*
X377750D01*
X367750Y1208750D02*
X377750D01*
D14*
X659750Y1221750D02*
G03*
X659750Y1221750I-750J0D01*
G01*
X689750Y1218750D02*
G03*
X689750Y1218750I-750J0D01*
G01*
X620250Y1221750D02*
G03*
X620250Y1221750I-750J0D01*
G01*
X659750D02*
G03*
X659750Y1221750I-750J0D01*
G01*
X689750Y1218750D02*
G03*
X689750Y1218750I-750J0D01*
G01*
X620250Y1221750D02*
G03*
X620250Y1221750I-750J0D01*
G01*
D15*
X380050Y1315500D02*
X441800D01*
Y1252000D02*
Y1315500D01*
X380050Y1252000D02*
X441800D01*
X0Y-0D02*
X1600000D01*
Y1000000D01*
X0D02*
X1600000D01*
X0Y-0D02*
Y1000000D01*
X1800000D02*
X1805667Y983000D01*
X1794333D02*
X1800000Y1000000D01*
X1794333Y17000D02*
X1800000Y-0D01*
X1805667Y17000D01*
X1800000Y500000D02*
Y1000000D01*
Y-0D02*
Y500000D01*
X1603750Y1000000D02*
X1802500D01*
X1603750Y-0D02*
X1802500D01*
X0Y1100000D02*
X17000Y1105667D01*
X0Y1100000D02*
X17000Y1094333D01*
X1583000D02*
X1600000Y1100000D01*
X1583000Y1105667D02*
X1600000Y1100000D01*
X0D02*
X800000D01*
X1600000D01*
X0Y1003750D02*
Y1102500D01*
X1600000Y1003750D02*
Y1102500D01*
D16*
X1732290Y1084443D02*
X1737288D01*
X1739787Y1086942D01*
Y1091941D01*
X1737288Y1094440D01*
X1732290D01*
X1729791Y1091941D01*
Y1086942D01*
X1732290Y1084443D01*
X1759781Y1086942D02*
X1762280Y1084443D01*
X1767279D01*
X1769778Y1086942D01*
Y1096939D01*
X1767279Y1099438D01*
X1762280D01*
X1759781Y1096939D01*
Y1094440D01*
X1762280Y1091941D01*
X1769778D01*
X1777275Y1081944D02*
X1779775Y1084443D01*
Y1086942D01*
X1777275D01*
Y1084443D01*
X1779775D01*
X1777275Y1081944D01*
X1774776Y1079445D01*
X1789771Y1096939D02*
X1792271Y1099438D01*
X1797269D01*
X1799768Y1096939D01*
Y1086942D01*
X1797269Y1084443D01*
X1792271D01*
X1789771Y1086942D01*
Y1096939D01*
X1804767D02*
X1807266Y1099438D01*
X1812264D01*
X1814763Y1096939D01*
Y1086942D01*
X1812264Y1084443D01*
X1807266D01*
X1804767Y1086942D01*
Y1096939D01*
X1819762Y1084443D02*
Y1094440D01*
X1822261D01*
X1824760Y1091941D01*
Y1084443D01*
Y1091941D01*
X1827259Y1094440D01*
X1829758Y1091941D01*
Y1084443D01*
X1834757D02*
Y1094440D01*
X1837256D01*
X1839755Y1091941D01*
Y1084443D01*
Y1091941D01*
X1842254Y1094440D01*
X1844754Y1091941D01*
Y1084443D01*
X754040Y1123361D02*
X759118D01*
X756579D01*
Y1138596D01*
X754040Y1136057D01*
X776892Y1138596D02*
X771814Y1136057D01*
X766736Y1130979D01*
Y1125901D01*
X769275Y1123361D01*
X774353D01*
X776892Y1125901D01*
Y1128440D01*
X774353Y1130979D01*
X766736D01*
X781971Y1136057D02*
X784510Y1138596D01*
X789588D01*
X792127Y1136057D01*
Y1125901D01*
X789588Y1123361D01*
X784510D01*
X781971Y1125901D01*
Y1136057D01*
X799745Y1120822D02*
X802284Y1123361D01*
Y1125901D01*
X799745D01*
Y1123361D01*
X802284D01*
X799745Y1120822D01*
X797206Y1118283D01*
X812441Y1136057D02*
X814980Y1138596D01*
X820058D01*
X822598Y1136057D01*
Y1125901D01*
X820058Y1123361D01*
X814980D01*
X812441Y1125901D01*
Y1136057D01*
X827676D02*
X830215Y1138596D01*
X835293D01*
X837833Y1136057D01*
Y1125901D01*
X835293Y1123361D01*
X830215D01*
X827676Y1125901D01*
Y1136057D01*
D17*
X1776647Y454044D02*
Y459122D01*
Y456583D01*
X1761411D01*
X1763951Y454044D01*
Y466739D02*
X1761411Y469278D01*
Y474357D01*
X1763951Y476896D01*
X1774107D01*
X1776647Y474357D01*
Y469278D01*
X1774107Y466739D01*
X1763951D01*
Y481974D02*
X1761411Y484514D01*
Y489592D01*
X1763951Y492131D01*
X1774107D01*
X1776647Y489592D01*
Y484514D01*
X1774107Y481974D01*
X1763951D01*
X1779186Y499749D02*
X1776647Y502288D01*
X1774107D01*
Y499749D01*
X1776647D01*
Y502288D01*
X1779186Y499749D01*
X1781725Y497210D01*
X1763951Y512445D02*
X1761411Y514984D01*
Y520062D01*
X1763951Y522601D01*
X1774107D01*
X1776647Y520062D01*
Y514984D01*
X1774107Y512445D01*
X1763951D01*
Y527680D02*
X1761411Y530219D01*
Y535297D01*
X1763951Y537836D01*
X1774107D01*
X1776647Y535297D01*
Y530219D01*
X1774107Y527680D01*
X1763951D01*
D18*
X345250Y1058250D02*
Y1066250D01*
Y1058250D02*
X361250D01*
Y1066250D01*
X345250D02*
X361250D01*
X643750Y1348250D02*
Y1364250D01*
X651750D01*
Y1348250D02*
Y1364250D01*
X643750Y1348250D02*
X651750D01*
X283750Y1303750D02*
X291750D01*
Y1319750D01*
X283750D02*
X291750D01*
X283750Y1303750D02*
Y1319750D01*
X608500Y1100750D02*
X672500D01*
X608500D02*
Y1130750D01*
X672500D01*
Y1100750D02*
Y1130750D01*
X608500Y1290000D02*
X672500D01*
X608500D02*
Y1320000D01*
X672500D01*
Y1290000D02*
Y1320000D01*
X544000Y1127750D02*
Y1135750D01*
Y1127750D02*
X560000D01*
Y1135750D01*
X544000D02*
X560000D01*
X734250Y1079000D02*
Y1129000D01*
X699250Y1079000D02*
Y1129000D01*
X734250D01*
X699250Y1079000D02*
X734250D01*
X701500Y1304500D02*
X736500D01*
X701500Y1354500D02*
X736500D01*
X701500Y1304500D02*
Y1354500D01*
X736500Y1304500D02*
Y1354500D01*
X397750Y1058250D02*
Y1066250D01*
X381750D02*
X397750D01*
X381750Y1058250D02*
Y1066250D01*
Y1058250D02*
X397750D01*
X560250Y1109750D02*
Y1117750D01*
X544250D02*
X560250D01*
X544250Y1109750D02*
Y1117750D01*
Y1109750D02*
X560250D01*
X631750Y1252500D02*
X647750D01*
X631750D02*
Y1260500D01*
X647750D01*
Y1252500D02*
Y1260500D01*
X417000Y1366750D02*
X433000D01*
X417000Y1374750D02*
X433000D01*
X417000Y1366750D02*
Y1374750D01*
X433000Y1366750D02*
Y1374750D01*
X538750Y1339750D02*
X554750D01*
X538750Y1331750D02*
X554750D01*
Y1339750D01*
X538750Y1331750D02*
Y1339750D01*
Y1315750D02*
X554750D01*
X538750Y1323750D02*
X554750D01*
X538750Y1315750D02*
Y1323750D01*
X554750Y1315750D02*
Y1323750D01*
X539250Y1364250D02*
X555250D01*
X539250D02*
Y1372250D01*
X555250D01*
Y1364250D02*
Y1372250D01*
X538750Y1355750D02*
X554750D01*
Y1347750D02*
Y1355750D01*
X538750Y1347750D02*
X554750D01*
X538750D02*
Y1355750D01*
X288750Y1340000D02*
X304750D01*
Y1332000D02*
Y1340000D01*
X288750Y1332000D02*
X304750D01*
X288750D02*
Y1340000D01*
X276000Y1167000D02*
X292000D01*
X276000Y1175000D02*
X292000D01*
X276000Y1167000D02*
Y1175000D01*
X292000Y1167000D02*
Y1175000D01*
X588250Y1271750D02*
X596250D01*
X588250Y1255750D02*
X596250D01*
X588250D02*
Y1271750D01*
X596250Y1255750D02*
Y1271750D01*
X604250D02*
X612250D01*
X604250Y1255750D02*
X612250D01*
X604250D02*
Y1271750D01*
X612250Y1255750D02*
Y1271750D01*
X647000Y1163000D02*
Y1171000D01*
X631000D02*
X647000D01*
X631000Y1163000D02*
Y1171000D01*
Y1163000D02*
X647000D01*
X685250Y1274500D02*
X693250D01*
X685250Y1258500D02*
X693250D01*
X685250D02*
Y1274500D01*
X693250Y1258500D02*
Y1274500D01*
X668750D02*
X676750D01*
X668750Y1258500D02*
X676750D01*
X668750D02*
Y1274500D01*
X676750Y1258500D02*
Y1274500D01*
X543750Y1144500D02*
Y1152500D01*
Y1144500D02*
X559750D01*
Y1152500D01*
X543750D02*
X559750D01*
X544500Y1159750D02*
Y1167750D01*
Y1159750D02*
X560500D01*
Y1167750D01*
X544500D02*
X560500D01*
X544250Y1175750D02*
Y1183750D01*
Y1175750D02*
X560250D01*
Y1183750D01*
X544250D02*
X560250D01*
X677500Y1176000D02*
X693500D01*
X677500Y1144000D02*
X693500D01*
X677500D02*
Y1176000D01*
X693500Y1144000D02*
Y1176000D01*
X661750Y1167000D02*
X669750D01*
X661750Y1151000D02*
X669750D01*
X661750D02*
Y1167000D01*
X669750Y1151000D02*
Y1167000D01*
X691750Y1364750D02*
X699750D01*
X691750Y1348750D02*
Y1364750D01*
Y1348750D02*
X699750D01*
Y1364750D01*
X262250Y1102750D02*
X270250D01*
X262250Y1118750D02*
X270250D01*
Y1102750D02*
Y1118750D01*
X262250Y1102750D02*
Y1118750D01*
X278500Y1102750D02*
X286500D01*
X278500Y1118750D02*
X286500D01*
Y1102750D02*
Y1118750D01*
X278500Y1102750D02*
Y1118750D01*
X651750Y1080250D02*
X659750D01*
X651750Y1064250D02*
Y1080250D01*
Y1064250D02*
X659750D01*
Y1080250D01*
X682750Y1064750D02*
X690750D01*
Y1080750D01*
X682750D02*
X690750D01*
X682750Y1064750D02*
Y1080750D01*
X543500Y1344750D02*
X573500D01*
X543500Y1356750D02*
X573500D01*
Y1344750D02*
Y1356750D01*
X543500Y1344750D02*
Y1356750D01*
X560975Y1362750D02*
X560975Y1356750D01*
X555975Y1362750D02*
X560975D01*
X555975Y1356750D02*
X555975Y1362750D01*
X546450Y1344750D02*
X546450Y1338750D01*
X551450D01*
X551450Y1344750D01*
X570500Y1338750D02*
X570500Y1344750D01*
X565500Y1338750D02*
X570500D01*
X565500Y1344750D02*
X565500Y1338750D01*
X680500Y1058250D02*
Y1088250D01*
X668500Y1058250D02*
Y1088250D01*
X680500D01*
X668500Y1058250D02*
X680500D01*
X662500Y1075725D02*
X668500Y1075725D01*
X662500Y1070725D02*
Y1075725D01*
Y1070725D02*
X668500Y1070725D01*
X680500Y1061200D02*
X686500Y1061200D01*
Y1066200D01*
X680500Y1066200D02*
X686500Y1066200D01*
X680500Y1085250D02*
X686500Y1085250D01*
Y1080250D02*
Y1085250D01*
X680500Y1080250D02*
X686500Y1080250D01*
X574250Y1055750D02*
Y1085750D01*
X586250Y1055750D02*
Y1085750D01*
X574250Y1055750D02*
X586250D01*
X574250Y1085750D02*
X586250D01*
Y1068275D02*
X592250Y1068275D01*
Y1073275D01*
X586250Y1073275D02*
X592250Y1073275D01*
X568250Y1082800D02*
X574250Y1082800D01*
X568250Y1077800D02*
Y1082800D01*
Y1077800D02*
X574250Y1077800D01*
X568250Y1058750D02*
X574250Y1058750D01*
X568250Y1058750D02*
Y1063750D01*
X574250Y1063750D01*
X653750Y1345500D02*
Y1375500D01*
X665750Y1345500D02*
Y1375500D01*
X653750Y1345500D02*
X665750D01*
X653750Y1375500D02*
X665750D01*
Y1358025D02*
X671750Y1358025D01*
Y1363025D01*
X665750Y1363025D02*
X671750Y1363025D01*
X647750Y1372550D02*
X653750Y1372550D01*
X647750Y1367550D02*
Y1372550D01*
Y1367550D02*
X653750Y1367550D01*
X647750Y1348500D02*
X653750Y1348500D01*
X647750Y1348500D02*
Y1353500D01*
X653750Y1353500D01*
X298250Y1370250D02*
X326250D01*
X298250Y1354250D02*
X326250D01*
X331250Y1366250D02*
X331250Y1358250D01*
X326250D02*
X331250D01*
X326250Y1366250D02*
X331250D01*
X303250Y1359250D02*
Y1365250D01*
X300250Y1362250D02*
X306250D01*
X298250Y1354250D02*
Y1370250D01*
X326250Y1354250D02*
Y1370250D01*
X293250Y1358250D02*
X298250D01*
X293250Y1366250D02*
X298250D01*
X293250D02*
X293250Y1358250D01*
X608500Y1130750D02*
X672500D01*
X608500Y1100750D02*
Y1130750D01*
Y1100750D02*
X672500D01*
Y1130750D01*
X608500Y1320000D02*
X672500D01*
X608500Y1290000D02*
Y1320000D01*
Y1290000D02*
X672500D01*
Y1320000D01*
X409250Y1081750D02*
X417250D01*
X409250Y1065750D02*
X417250D01*
Y1081750D01*
X409250Y1065750D02*
Y1081750D01*
X233750Y1244250D02*
X241750D01*
X233750D02*
Y1260250D01*
X241750D01*
Y1244250D02*
Y1260250D01*
X250000Y1244750D02*
X258000D01*
X250000D02*
Y1260750D01*
X258000D01*
Y1244750D02*
Y1260750D01*
X480750Y1269000D02*
Y1277000D01*
X496750Y1269000D02*
Y1277000D01*
X480750D02*
X496750D01*
X480750Y1269000D02*
X496750D01*
X364300Y1251250D02*
X441800D01*
X364300Y1316250D02*
X441800D01*
X364300Y1251250D02*
Y1316250D01*
X441800Y1251250D02*
Y1316250D01*
X407750Y1117000D02*
X415750D01*
Y1101000D02*
Y1117000D01*
X407750Y1101000D02*
X415750D01*
X407750D02*
Y1117000D01*
X647750Y1252500D02*
Y1260500D01*
X631750Y1252500D02*
X647750D01*
X631750D02*
Y1260500D01*
X647750D01*
X647000Y1163000D02*
Y1171000D01*
X631000Y1163000D02*
X647000D01*
X631000D02*
Y1171000D01*
X647000D01*
X281750Y1260500D02*
X289750D01*
X281750Y1244500D02*
X289750D01*
Y1260500D01*
X281750Y1244500D02*
Y1260500D01*
X488500Y1065750D02*
Y1081750D01*
X496500Y1065750D02*
Y1081750D01*
X488500Y1065750D02*
X496500D01*
X488500Y1081750D02*
X496500D01*
X420500Y1245500D02*
X436500D01*
X420500Y1237500D02*
Y1245500D01*
Y1237500D02*
X436500D01*
Y1245500D01*
X402000Y1101500D02*
Y1117500D01*
X394000D02*
X402000D01*
X394000Y1101500D02*
Y1117500D01*
Y1101500D02*
X402000D01*
X387750Y1101500D02*
Y1117500D01*
X379750D02*
X387750D01*
X379750Y1101500D02*
Y1117500D01*
Y1101500D02*
X387750D01*
X373000Y1101250D02*
Y1117250D01*
X365000D02*
X373000D01*
X365000Y1101250D02*
Y1117250D01*
Y1101250D02*
X373000D01*
X612750Y1155500D02*
Y1171500D01*
X604750Y1155500D02*
Y1171500D01*
X612750D01*
X604750Y1155500D02*
X612750D01*
X596250D02*
Y1171500D01*
X588250Y1155500D02*
Y1171500D01*
X596250D01*
X588250Y1155500D02*
X596250D01*
X542250Y1224500D02*
X558250D01*
X542250Y1232500D02*
X558250D01*
Y1224500D02*
Y1232500D01*
X542250Y1224500D02*
Y1232500D01*
X481000Y1230750D02*
X497000D01*
X481000Y1222750D02*
X497000D01*
X481000D02*
Y1230750D01*
X497000Y1222750D02*
Y1230750D01*
X669000Y1258500D02*
Y1274500D01*
X677000Y1258500D02*
Y1274500D01*
X669000Y1258500D02*
X677000D01*
X669000Y1274500D02*
X677000D01*
X684925Y1258476D02*
Y1274477D01*
X692925Y1258476D02*
Y1274477D01*
X684925Y1258476D02*
X692925D01*
X684925Y1274477D02*
X692925D01*
X266000Y1244750D02*
Y1260750D01*
Y1244750D02*
X274000D01*
Y1260750D01*
X266000D02*
X274000D01*
X225500Y1244750D02*
Y1260750D01*
X217500D02*
X225500D01*
X217500Y1244750D02*
Y1260750D01*
Y1244750D02*
X225500D01*
X222750Y1317000D02*
X238750D01*
X222750Y1309000D02*
Y1317000D01*
Y1309000D02*
X238750D01*
Y1317000D01*
X222500Y1349500D02*
X238500D01*
X222500Y1341500D02*
Y1349500D01*
Y1341500D02*
X238500D01*
Y1349500D01*
X222750Y1301000D02*
X238750D01*
X222750Y1293000D02*
Y1301000D01*
Y1293000D02*
X238750D01*
Y1301000D01*
X222750Y1333250D02*
X238750D01*
X222750Y1325250D02*
Y1333250D01*
Y1325250D02*
X238750D01*
Y1333250D01*
X339500Y1101250D02*
Y1117250D01*
X347500Y1101250D02*
Y1117250D01*
X339500Y1101250D02*
X347500D01*
X339500Y1117250D02*
X347500D01*
X487250Y1174750D02*
X503250D01*
X487250Y1182750D02*
X503250D01*
Y1174750D02*
Y1182750D01*
X487250Y1174750D02*
Y1182750D01*
X485500Y1347500D02*
X501500D01*
X485500Y1339500D02*
X501500D01*
X485500D02*
Y1347500D01*
X501500Y1339500D02*
Y1347500D01*
X481250Y1301750D02*
X497250D01*
X481250Y1293750D02*
X497250D01*
X481250D02*
Y1301750D01*
X497250Y1293750D02*
Y1301750D01*
X450000Y1102000D02*
Y1118000D01*
X442000Y1102000D02*
Y1118000D01*
X450000D01*
X442000Y1102000D02*
X450000D01*
X543999Y1117750D02*
X560000D01*
X543999Y1109750D02*
X560000D01*
X543999D02*
Y1117750D01*
X560000Y1109750D02*
Y1117750D01*
X330750Y1321250D02*
X346750D01*
X330750Y1329250D02*
X346750D01*
Y1321250D02*
Y1329250D01*
X330750Y1321250D02*
Y1329250D01*
X328500Y1223000D02*
Y1239000D01*
X320500Y1223000D02*
Y1239000D01*
X328500D01*
X320500Y1223000D02*
X328500D01*
X419000Y1327500D02*
Y1343500D01*
X411000Y1327500D02*
Y1343500D01*
X419000D01*
X411000Y1327500D02*
X419000D01*
X320250Y1259750D02*
Y1275750D01*
X328250Y1259750D02*
Y1275750D01*
X320250Y1259750D02*
X328250D01*
X320250Y1275750D02*
X328250D01*
X469750Y1102000D02*
Y1118000D01*
X477750Y1102000D02*
Y1118000D01*
X469750Y1102000D02*
X477750D01*
X469750Y1118000D02*
X477750D01*
X677000Y1155750D02*
Y1171750D01*
X669000Y1155750D02*
Y1171750D01*
X677000D01*
X669000Y1155750D02*
X677000D01*
X485250Y1102000D02*
Y1118000D01*
X493250Y1102000D02*
Y1118000D01*
X485250Y1102000D02*
X493250D01*
X485250Y1118000D02*
X493250D01*
X692750Y1155500D02*
Y1171500D01*
X684750Y1155500D02*
Y1171500D01*
X692750D01*
X684750Y1155500D02*
X692750D01*
X714500Y1188250D02*
Y1204250D01*
Y1188250D02*
X722500D01*
Y1204250D01*
X714500D02*
X722500D01*
X722000Y1238500D02*
Y1254500D01*
X714000D02*
X722000D01*
X714000Y1238500D02*
Y1254500D01*
Y1238500D02*
X722000D01*
X421000Y1221750D02*
X437000D01*
X421000Y1213750D02*
Y1221750D01*
Y1213750D02*
X437000D01*
Y1221750D01*
D19*
X570000Y1348750D02*
G03*
X570000Y1348750I-500J0D01*
G01*
X677000Y1084250D02*
G03*
X677000Y1084250I-500J0D01*
G01*
X578750Y1059750D02*
G03*
X578750Y1059750I-500J0D01*
G01*
X658250Y1349500D02*
G03*
X658250Y1349500I-500J0D01*
G01*
M02*
