G04*
G04 #@! TF.GenerationSoftware,Altium Limited,Altium Designer,24.4.1 (13)*
G04*
G04 Layer_Color=8421504*
%FSLAX44Y44*%
%MOMM*%
G71*
G04*
G04 #@! TF.SameCoordinates,9A945CEE-F102-44BA-A3C3-DB53B066AAF5*
G04*
G04*
G04 #@! TF.FilePolarity,Positive*
G04*
G01*
G75*
%ADD15R,1.0000X1.1000*%
%ADD16R,1.1400X0.6000*%
%ADD17R,1.1400X0.3000*%
%ADD18R,12.0000X0.5000*%
%ADD19R,1.6000X3.3000*%
%ADD20R,0.5000X12.0000*%
%ADD21R,3.0000X2.1000*%
%ADD22R,1.6000X0.8000*%
G04:AMPARAMS|DCode=23|XSize=0.38mm|YSize=0.35mm|CornerRadius=0.0158mm|HoleSize=0mm|Usage=FLASHONLY|Rotation=180.000|XOffset=0mm|YOffset=0mm|HoleType=Round|Shape=RoundedRectangle|*
%AMROUNDEDRECTD23*
21,1,0.3800,0.3185,0,0,180.0*
21,1,0.3485,0.3500,0,0,180.0*
1,1,0.0315,-0.1743,0.1593*
1,1,0.0315,0.1743,0.1593*
1,1,0.0315,0.1743,-0.1593*
1,1,0.0315,-0.1743,-0.1593*
%
%ADD23ROUNDEDRECTD23*%
%ADD24R,0.4500X1.2000*%
%ADD25O,1.6000X0.6000*%
%ADD26R,0.5900X1.7500*%
G04:AMPARAMS|DCode=27|XSize=1.47mm|YSize=0.28mm|CornerRadius=0.035mm|HoleSize=0mm|Usage=FLASHONLY|Rotation=180.000|XOffset=0mm|YOffset=0mm|HoleType=Round|Shape=RoundedRectangle|*
%AMROUNDEDRECTD27*
21,1,1.4700,0.2100,0,0,180.0*
21,1,1.4000,0.2800,0,0,180.0*
1,1,0.0700,-0.7000,0.1050*
1,1,0.0700,0.7000,0.1050*
1,1,0.0700,0.7000,-0.1050*
1,1,0.0700,-0.7000,-0.1050*
%
%ADD27ROUNDEDRECTD27*%
G04:AMPARAMS|DCode=28|XSize=1.47mm|YSize=0.28mm|CornerRadius=0.035mm|HoleSize=0mm|Usage=FLASHONLY|Rotation=90.000|XOffset=0mm|YOffset=0mm|HoleType=Round|Shape=RoundedRectangle|*
%AMROUNDEDRECTD28*
21,1,1.4700,0.2100,0,0,90.0*
21,1,1.4000,0.2800,0,0,90.0*
1,1,0.0700,0.1050,0.7000*
1,1,0.0700,0.1050,-0.7000*
1,1,0.0700,-0.1050,-0.7000*
1,1,0.0700,-0.1050,0.7000*
%
%ADD28ROUNDEDRECTD28*%
%ADD29R,1.1000X1.0000*%
%ADD30R,1.0000X1.0000*%
%ADD31R,1.5000X2.0000*%
%ADD32R,0.5900X0.3500*%
%ADD33R,0.3500X0.5900*%
%ADD34R,0.3000X0.7000*%
%ADD35R,0.7000X0.3000*%
%ADD36R,1.8000X1.6000*%
%ADD37R,1.1000X1.1000*%
D15*
X287750Y1320250D02*
D03*
Y1303250D02*
D03*
X663000Y1348250D02*
D03*
Y1365250D02*
D03*
X680000D02*
D03*
Y1348250D02*
D03*
X592250Y1255250D02*
D03*
Y1272250D02*
D03*
X608250Y1255250D02*
D03*
Y1272250D02*
D03*
X689250Y1258000D02*
D03*
Y1275000D02*
D03*
X672750Y1258000D02*
D03*
Y1275000D02*
D03*
X665750Y1150500D02*
D03*
Y1167500D02*
D03*
X695750Y1348250D02*
D03*
Y1365250D02*
D03*
X266250Y1119250D02*
D03*
Y1102250D02*
D03*
X282500Y1119250D02*
D03*
Y1102250D02*
D03*
X647500Y1365000D02*
D03*
Y1348000D02*
D03*
X671500Y1063750D02*
D03*
Y1080750D02*
D03*
X655750Y1063750D02*
D03*
Y1080750D02*
D03*
X686750Y1081250D02*
D03*
Y1064250D02*
D03*
X643250Y1080750D02*
D03*
Y1063750D02*
D03*
D16*
X275500Y1352250D02*
D03*
Y1344250D02*
D03*
Y1296250D02*
D03*
Y1288250D02*
D03*
D17*
Y1322750D02*
D03*
Y1327750D02*
D03*
Y1332750D02*
D03*
Y1337750D02*
D03*
Y1317750D02*
D03*
Y1312750D02*
D03*
Y1307750D02*
D03*
Y1302750D02*
D03*
D18*
X640000Y1093000D02*
D03*
X640611Y1330315D02*
D03*
D19*
X609500Y1115750D02*
D03*
X671500D02*
D03*
X609500Y1305000D02*
D03*
X671500D02*
D03*
D20*
X703255Y1269983D02*
D03*
X703161Y1150451D02*
D03*
X577450Y1269864D02*
D03*
X577431Y1150020D02*
D03*
D21*
X216250Y1066250D02*
D03*
Y1154750D02*
D03*
D22*
X245250Y1091750D02*
D03*
Y1104250D02*
D03*
Y1116750D02*
D03*
Y1129250D02*
D03*
D23*
X259350Y1145000D02*
D03*
Y1150000D02*
D03*
Y1155000D02*
D03*
X264500Y1157650D02*
D03*
X269500D02*
D03*
X274650Y1155000D02*
D03*
Y1150000D02*
D03*
Y1145000D02*
D03*
X269500Y1142350D02*
D03*
X264500D02*
D03*
D24*
X478700Y1045000D02*
D03*
X491400D02*
D03*
X504100D02*
D03*
X516800D02*
D03*
X554900D02*
D03*
X542200D02*
D03*
X529500D02*
D03*
X567600D02*
D03*
X580300D02*
D03*
X593000D02*
D03*
X605700D02*
D03*
X618400D02*
D03*
X656500D02*
D03*
X643800D02*
D03*
X631100D02*
D03*
X669200D02*
D03*
X681900D02*
D03*
X694600D02*
D03*
X707300D02*
D03*
X720000D02*
D03*
X478700Y1006000D02*
D03*
X491400D02*
D03*
X504100D02*
D03*
X516800D02*
D03*
X554900D02*
D03*
X542200D02*
D03*
X529500D02*
D03*
X567600D02*
D03*
X580300D02*
D03*
X593000D02*
D03*
X605700D02*
D03*
X618400D02*
D03*
X656500D02*
D03*
X643800D02*
D03*
X631100D02*
D03*
X669200D02*
D03*
X681900D02*
D03*
X694600D02*
D03*
X707300D02*
D03*
X720000D02*
D03*
X451350Y1005750D02*
D03*
X438650D02*
D03*
X425950D02*
D03*
X413250D02*
D03*
X400550D02*
D03*
X362450D02*
D03*
X375150D02*
D03*
X387850D02*
D03*
X349750D02*
D03*
X337050D02*
D03*
X324350D02*
D03*
X311650D02*
D03*
X298950D02*
D03*
X260850D02*
D03*
X273550D02*
D03*
X286250D02*
D03*
X248150D02*
D03*
X235450D02*
D03*
X222750D02*
D03*
X210050D02*
D03*
X451350Y1044750D02*
D03*
X438650D02*
D03*
X425950D02*
D03*
X413250D02*
D03*
X400550D02*
D03*
X362450D02*
D03*
X375150D02*
D03*
X387850D02*
D03*
X349750D02*
D03*
X337050D02*
D03*
X324350D02*
D03*
X311650D02*
D03*
X298950D02*
D03*
X260850D02*
D03*
X273550D02*
D03*
X286250D02*
D03*
X248150D02*
D03*
X235450D02*
D03*
X222750D02*
D03*
X210050D02*
D03*
X210000Y1425000D02*
D03*
X222700D02*
D03*
X235400D02*
D03*
X248100D02*
D03*
X286200D02*
D03*
X273500D02*
D03*
X260800D02*
D03*
X298900D02*
D03*
X311600D02*
D03*
X324300D02*
D03*
X337000D02*
D03*
X349700D02*
D03*
X387800D02*
D03*
X375100D02*
D03*
X362400D02*
D03*
X400500D02*
D03*
X413200D02*
D03*
X425900D02*
D03*
X438600D02*
D03*
X451300D02*
D03*
X210000Y1386000D02*
D03*
X222700D02*
D03*
X235400D02*
D03*
X248100D02*
D03*
X286200D02*
D03*
X273500D02*
D03*
X260800D02*
D03*
X298900D02*
D03*
X311600D02*
D03*
X324300D02*
D03*
X337000D02*
D03*
X349700D02*
D03*
X387800D02*
D03*
X375100D02*
D03*
X362400D02*
D03*
X400500D02*
D03*
X413200D02*
D03*
X425900D02*
D03*
X438600D02*
D03*
X451300D02*
D03*
X720000Y1386000D02*
D03*
X707300D02*
D03*
X694600D02*
D03*
X681900D02*
D03*
X669200D02*
D03*
X631100D02*
D03*
X643800D02*
D03*
X656500D02*
D03*
X618400D02*
D03*
X605700D02*
D03*
X593000D02*
D03*
X580300D02*
D03*
X567600D02*
D03*
X529500D02*
D03*
X542200D02*
D03*
X554900D02*
D03*
X516800D02*
D03*
X504100D02*
D03*
X491400D02*
D03*
X478700D02*
D03*
X720000Y1425000D02*
D03*
X707300D02*
D03*
X694600D02*
D03*
X681900D02*
D03*
X669200D02*
D03*
X631100D02*
D03*
X643800D02*
D03*
X656500D02*
D03*
X618400D02*
D03*
X605700D02*
D03*
X593000D02*
D03*
X580300D02*
D03*
X567600D02*
D03*
X529500D02*
D03*
X542200D02*
D03*
X554900D02*
D03*
X516800D02*
D03*
X504100D02*
D03*
X491400D02*
D03*
X478700D02*
D03*
D25*
X387000Y1356550D02*
D03*
Y1343850D02*
D03*
Y1331150D02*
D03*
Y1318450D02*
D03*
X459000D02*
D03*
Y1331150D02*
D03*
Y1343850D02*
D03*
Y1356550D02*
D03*
D26*
X479400Y1317800D02*
D03*
X492100D02*
D03*
X504800D02*
D03*
X517500D02*
D03*
Y1369500D02*
D03*
X504800D02*
D03*
X492100D02*
D03*
X479400D02*
D03*
D27*
X523451Y1103550D02*
D03*
Y1108549D02*
D03*
Y1113550D02*
D03*
Y1118549D02*
D03*
Y1123550D02*
D03*
Y1128549D02*
D03*
Y1133550D02*
D03*
Y1138549D02*
D03*
Y1143550D02*
D03*
Y1148549D02*
D03*
Y1153550D02*
D03*
Y1158549D02*
D03*
Y1163550D02*
D03*
Y1168549D02*
D03*
Y1173550D02*
D03*
Y1178549D02*
D03*
Y1183550D02*
D03*
Y1188549D02*
D03*
Y1193550D02*
D03*
Y1198549D02*
D03*
Y1203550D02*
D03*
Y1208549D02*
D03*
Y1213550D02*
D03*
Y1218549D02*
D03*
Y1223549D02*
D03*
Y1228550D02*
D03*
Y1233549D02*
D03*
Y1238550D02*
D03*
Y1243549D02*
D03*
Y1248550D02*
D03*
Y1253549D02*
D03*
Y1258550D02*
D03*
Y1263549D02*
D03*
Y1268550D02*
D03*
Y1273549D02*
D03*
Y1278550D02*
D03*
X310050D02*
D03*
Y1273549D02*
D03*
Y1268550D02*
D03*
Y1263549D02*
D03*
Y1258550D02*
D03*
Y1253549D02*
D03*
Y1248550D02*
D03*
Y1243549D02*
D03*
Y1238550D02*
D03*
Y1233549D02*
D03*
Y1228550D02*
D03*
Y1223549D02*
D03*
Y1218549D02*
D03*
Y1213550D02*
D03*
Y1208549D02*
D03*
Y1203550D02*
D03*
Y1198549D02*
D03*
Y1193550D02*
D03*
Y1188549D02*
D03*
Y1183550D02*
D03*
Y1178549D02*
D03*
Y1173550D02*
D03*
Y1168549D02*
D03*
Y1163550D02*
D03*
Y1158549D02*
D03*
Y1153550D02*
D03*
Y1148549D02*
D03*
Y1143550D02*
D03*
Y1138549D02*
D03*
Y1133550D02*
D03*
Y1128549D02*
D03*
Y1123550D02*
D03*
Y1118549D02*
D03*
Y1113550D02*
D03*
Y1108549D02*
D03*
Y1103550D02*
D03*
D28*
X329250Y1084349D02*
D03*
X334250D02*
D03*
X339250D02*
D03*
X344250D02*
D03*
X349250D02*
D03*
X354250D02*
D03*
X359250D02*
D03*
X364250D02*
D03*
X369250D02*
D03*
X374250D02*
D03*
X379250D02*
D03*
X384250D02*
D03*
X389250D02*
D03*
X394250D02*
D03*
X399251D02*
D03*
X404250D02*
D03*
X409250D02*
D03*
X414250D02*
D03*
X419250D02*
D03*
X424250D02*
D03*
X429250D02*
D03*
X434250D02*
D03*
X439250D02*
D03*
X444250D02*
D03*
X449250D02*
D03*
X454250D02*
D03*
X459250D02*
D03*
X464250D02*
D03*
X469250D02*
D03*
X474250D02*
D03*
X479250D02*
D03*
X484250D02*
D03*
X489250D02*
D03*
X494250D02*
D03*
X499250D02*
D03*
X504250D02*
D03*
Y1297750D02*
D03*
X499250D02*
D03*
X494250D02*
D03*
X489250D02*
D03*
X484250D02*
D03*
X479250D02*
D03*
X474250D02*
D03*
X469250D02*
D03*
X464250D02*
D03*
X459250D02*
D03*
X454250D02*
D03*
X449250D02*
D03*
X444250D02*
D03*
X439250D02*
D03*
X434250D02*
D03*
X429250D02*
D03*
X424250D02*
D03*
X419250D02*
D03*
X414250D02*
D03*
X409250D02*
D03*
X404250D02*
D03*
X399251D02*
D03*
X394250D02*
D03*
X389250D02*
D03*
X384250D02*
D03*
X379250D02*
D03*
X374250D02*
D03*
X369250D02*
D03*
X364250D02*
D03*
X359250D02*
D03*
X354250D02*
D03*
X349250D02*
D03*
X344250D02*
D03*
X339250D02*
D03*
X334250D02*
D03*
X329250D02*
D03*
D29*
X560499Y1131750D02*
D03*
X543500D02*
D03*
X381250Y1062250D02*
D03*
X398250D02*
D03*
X361750Y1062000D02*
D03*
X344750D02*
D03*
X543750Y1113750D02*
D03*
X560750D02*
D03*
X648250Y1256500D02*
D03*
X631250D02*
D03*
X433500Y1370750D02*
D03*
X416500D02*
D03*
X538250Y1335750D02*
D03*
X555250D02*
D03*
X555250Y1319750D02*
D03*
X538250D02*
D03*
X555750Y1368250D02*
D03*
X538750D02*
D03*
X538250Y1351750D02*
D03*
X555250D02*
D03*
X288250Y1336000D02*
D03*
X305250D02*
D03*
X294500Y1173750D02*
D03*
X277500D02*
D03*
X630500Y1167000D02*
D03*
X647500D02*
D03*
X560250Y1148500D02*
D03*
X543250D02*
D03*
X561000Y1163750D02*
D03*
X544000D02*
D03*
X560750Y1179750D02*
D03*
X543750D02*
D03*
D30*
X628250Y1343000D02*
D03*
X610250D02*
D03*
X619250Y1367000D02*
D03*
X615250Y1058750D02*
D03*
X624250Y1082750D02*
D03*
X606250D02*
D03*
X579250Y1081750D02*
D03*
X570250Y1057750D02*
D03*
X588250D02*
D03*
X587750Y1342500D02*
D03*
X596750Y1366500D02*
D03*
X578750D02*
D03*
D31*
X716750Y1141500D02*
D03*
Y1066500D02*
D03*
X719000Y1292000D02*
D03*
Y1367000D02*
D03*
D32*
X639650Y1213250D02*
D03*
X601350D02*
D03*
D33*
X635500Y1201600D02*
D03*
X630500D02*
D03*
X625500D02*
D03*
X620500D02*
D03*
X615500D02*
D03*
X610500D02*
D03*
X605500D02*
D03*
Y1224900D02*
D03*
X610500D02*
D03*
X615500D02*
D03*
X620500D02*
D03*
X625500D02*
D03*
X630500D02*
D03*
X635500D02*
D03*
D34*
X667000Y1228250D02*
D03*
X672000D02*
D03*
X677000D02*
D03*
X682000D02*
D03*
Y1198250D02*
D03*
X677000D02*
D03*
X672000D02*
D03*
X667000D02*
D03*
D35*
X689500Y1220750D02*
D03*
Y1215750D02*
D03*
Y1210750D02*
D03*
Y1205750D02*
D03*
X659500D02*
D03*
Y1210750D02*
D03*
Y1215750D02*
D03*
Y1220750D02*
D03*
D36*
X685500Y1174000D02*
D03*
Y1146000D02*
D03*
D37*
X717750Y1235500D02*
D03*
Y1257500D02*
D03*
X718500Y1206250D02*
D03*
X718500Y1184250D02*
D03*
M02*
