G04*
G04 #@! TF.GenerationSoftware,Altium Limited,Altium Designer,24.4.1 (13)*
G04*
G04 Layer_Physical_Order=1*
G04 Layer_Color=255*
%FSLAX44Y44*%
%MOMM*%
G71*
G04*
G04 #@! TF.SameCoordinates,9A945CEE-F102-44BA-A3C3-DB53B066AAF5*
G04*
G04*
G04 #@! TF.FilePolarity,Positive*
G04*
G01*
G75*
%ADD15R,1.0000X1.1000*%
%ADD16R,1.1400X0.6000*%
%ADD17R,1.1400X0.3000*%
%ADD18R,12.0000X0.5000*%
%ADD19R,1.6000X3.3000*%
%ADD20R,0.5000X12.0000*%
%ADD21R,3.0000X2.1000*%
%ADD22R,1.6000X0.8000*%
G04:AMPARAMS|DCode=23|XSize=0.38mm|YSize=0.35mm|CornerRadius=0.0158mm|HoleSize=0mm|Usage=FLASHONLY|Rotation=180.000|XOffset=0mm|YOffset=0mm|HoleType=Round|Shape=RoundedRectangle|*
%AMROUNDEDRECTD23*
21,1,0.3800,0.3185,0,0,180.0*
21,1,0.3485,0.3500,0,0,180.0*
1,1,0.0315,-0.1743,0.1593*
1,1,0.0315,0.1743,0.1593*
1,1,0.0315,0.1743,-0.1593*
1,1,0.0315,-0.1743,-0.1593*
%
%ADD23ROUNDEDRECTD23*%
%ADD24R,0.4500X1.2000*%
%ADD25O,1.6000X0.6000*%
%ADD26R,0.5900X1.7500*%
G04:AMPARAMS|DCode=27|XSize=1.47mm|YSize=0.28mm|CornerRadius=0.035mm|HoleSize=0mm|Usage=FLASHONLY|Rotation=180.000|XOffset=0mm|YOffset=0mm|HoleType=Round|Shape=RoundedRectangle|*
%AMROUNDEDRECTD27*
21,1,1.4700,0.2100,0,0,180.0*
21,1,1.4000,0.2800,0,0,180.0*
1,1,0.0700,-0.7000,0.1050*
1,1,0.0700,0.7000,0.1050*
1,1,0.0700,0.7000,-0.1050*
1,1,0.0700,-0.7000,-0.1050*
%
%ADD27ROUNDEDRECTD27*%
G04:AMPARAMS|DCode=28|XSize=1.47mm|YSize=0.28mm|CornerRadius=0.035mm|HoleSize=0mm|Usage=FLASHONLY|Rotation=90.000|XOffset=0mm|YOffset=0mm|HoleType=Round|Shape=RoundedRectangle|*
%AMROUNDEDRECTD28*
21,1,1.4700,0.2100,0,0,90.0*
21,1,1.4000,0.2800,0,0,90.0*
1,1,0.0700,0.1050,0.7000*
1,1,0.0700,0.1050,-0.7000*
1,1,0.0700,-0.1050,-0.7000*
1,1,0.0700,-0.1050,0.7000*
%
%ADD28ROUNDEDRECTD28*%
%ADD29R,1.1000X1.0000*%
%ADD30R,1.0000X1.0000*%
%ADD31R,1.5000X2.0000*%
%ADD32R,0.5900X0.3500*%
%ADD33R,0.3500X0.5900*%
%ADD34R,0.3000X0.7000*%
%ADD35R,0.7000X0.3000*%
%ADD36R,1.8000X1.6000*%
%ADD37R,1.1000X1.1000*%
%ADD65C,0.1250*%
%ADD66C,0.6000*%
%ADD67O,2.0000X0.9000*%
%ADD68O,1.7000X0.9000*%
%ADD69C,0.8000*%
G36*
X729435Y989088D02*
X199685D01*
Y1053381D01*
X200000Y1054500D01*
X200935Y1054500D01*
X232500D01*
Y1078000D01*
X200935D01*
X200000Y1078000D01*
X199685Y1079119D01*
Y1141881D01*
X200000Y1143000D01*
X200935Y1143000D01*
X232500D01*
Y1166500D01*
X200935D01*
X200000Y1166500D01*
X199685Y1167619D01*
Y1438837D01*
X199788Y1439088D01*
X729435D01*
Y989088D01*
D02*
G37*
%LPC*%
G36*
X723500Y1432250D02*
X716500D01*
Y1427510D01*
X716397Y1427407D01*
X716191Y1426912D01*
X711108D01*
X710903Y1427407D01*
X710800Y1427510D01*
Y1432250D01*
X703800D01*
Y1427510D01*
X703697Y1427407D01*
X703492Y1426912D01*
X698408D01*
X698203Y1427407D01*
X698100Y1427510D01*
Y1432250D01*
X691100D01*
Y1427510D01*
X690997Y1427407D01*
X690350Y1425845D01*
Y1424155D01*
X690997Y1422592D01*
X691100Y1422489D01*
Y1417750D01*
X698100D01*
Y1422489D01*
X698203Y1422592D01*
X698408Y1423088D01*
X703492D01*
X703697Y1422592D01*
X703800Y1422489D01*
Y1417750D01*
X710800D01*
Y1422489D01*
X710903Y1422592D01*
X711108Y1423088D01*
X716191D01*
X716397Y1422592D01*
X716500Y1422489D01*
Y1417750D01*
X718088D01*
Y1393250D01*
X716500D01*
Y1388511D01*
X716397Y1388408D01*
X716191Y1387912D01*
X711108D01*
X710903Y1388408D01*
X710800Y1388511D01*
Y1393250D01*
X703800D01*
Y1388511D01*
X703697Y1388408D01*
X703492Y1387912D01*
X698408D01*
X698203Y1388408D01*
X698100Y1388511D01*
Y1393250D01*
X691100D01*
Y1388511D01*
X690997Y1388408D01*
X690350Y1386846D01*
Y1385155D01*
X690997Y1383593D01*
X691100Y1383490D01*
Y1378750D01*
X698100D01*
Y1383490D01*
X698203Y1383593D01*
X698408Y1384088D01*
X703492D01*
X703697Y1383593D01*
X703800Y1383490D01*
Y1378750D01*
X709207D01*
X710250Y1378250D01*
X710250Y1377634D01*
Y1367162D01*
X702000D01*
Y1372000D01*
X691560D01*
X691375Y1372036D01*
X688715D01*
X687025Y1373727D01*
X686405Y1374141D01*
X685673Y1374286D01*
X667991D01*
X667260Y1374141D01*
X666639Y1373727D01*
X665907Y1372994D01*
X665493Y1372374D01*
X665418Y1372000D01*
X658954D01*
X653976Y1376977D01*
X653356Y1377391D01*
X652625Y1377537D01*
X647388D01*
X647300Y1378750D01*
X647300Y1378787D01*
Y1382826D01*
X647408Y1383088D01*
X653000D01*
Y1378750D01*
X660000D01*
Y1383490D01*
X660103Y1383593D01*
X660750Y1385155D01*
Y1386846D01*
X660103Y1388408D01*
X660000Y1388511D01*
Y1393250D01*
X658412D01*
Y1417750D01*
X660000D01*
Y1422489D01*
X660103Y1422592D01*
X660750Y1424155D01*
Y1425845D01*
X660103Y1427407D01*
X660000Y1427510D01*
Y1432250D01*
X653000D01*
Y1427510D01*
X652897Y1427407D01*
X652691Y1426912D01*
X647608D01*
X647403Y1427407D01*
X647300Y1427510D01*
Y1432250D01*
X640300D01*
Y1427510D01*
X640197Y1427407D01*
X639550Y1425845D01*
Y1424155D01*
X640197Y1422592D01*
X640300Y1422489D01*
Y1417750D01*
X647300D01*
Y1422489D01*
X647403Y1422592D01*
X647608Y1423088D01*
X652691D01*
X652897Y1422592D01*
X653000Y1422489D01*
Y1417750D01*
X654588D01*
Y1393250D01*
X653000D01*
Y1388511D01*
X652897Y1388408D01*
X652277Y1386911D01*
X647408D01*
X647300Y1387173D01*
Y1393250D01*
X640300D01*
Y1387710D01*
X639997Y1387407D01*
X639350Y1385845D01*
Y1384154D01*
X639997Y1382592D01*
X640300Y1382289D01*
Y1378787D01*
X640300Y1378750D01*
X640211Y1377537D01*
X634688D01*
X634600Y1378750D01*
X634600Y1378787D01*
Y1382826D01*
X635150Y1384154D01*
Y1385845D01*
X634600Y1387173D01*
Y1393250D01*
X627600D01*
Y1387710D01*
X627297Y1387407D01*
X626650Y1385845D01*
Y1384154D01*
X627297Y1382592D01*
X627600Y1382289D01*
Y1378787D01*
X627600Y1378750D01*
X627511Y1377537D01*
X621988D01*
X621900Y1378750D01*
X621900Y1378787D01*
Y1382826D01*
X622450Y1384154D01*
Y1385845D01*
X621900Y1387173D01*
Y1393250D01*
X614900D01*
Y1387710D01*
X614597Y1387407D01*
X613950Y1385845D01*
Y1384154D01*
X614597Y1382592D01*
X614900Y1382289D01*
Y1378787D01*
X614900Y1378750D01*
X614811Y1377537D01*
X609288D01*
X609200Y1378750D01*
X609200Y1378787D01*
Y1382826D01*
X609750Y1384154D01*
Y1385845D01*
X609200Y1387173D01*
Y1393250D01*
X602200D01*
Y1387710D01*
X601897Y1387407D01*
X601250Y1385845D01*
Y1384154D01*
X601897Y1382592D01*
X602200Y1382289D01*
Y1378787D01*
X602200Y1378750D01*
X602111Y1377537D01*
X596588D01*
X596500Y1378750D01*
X596500Y1378787D01*
Y1382826D01*
X597050Y1384154D01*
Y1385845D01*
X596500Y1387173D01*
Y1393250D01*
X589500D01*
Y1387710D01*
X589197Y1387407D01*
X588550Y1385845D01*
Y1384154D01*
X589197Y1382592D01*
X589500Y1382289D01*
Y1379438D01*
X589186Y1379159D01*
X588257Y1378734D01*
X587001Y1379254D01*
X585310D01*
X585050Y1379146D01*
X583800Y1379981D01*
Y1382826D01*
X584350Y1384154D01*
Y1385845D01*
X583800Y1387173D01*
Y1393250D01*
X576800D01*
Y1387710D01*
X576497Y1387407D01*
X575850Y1385845D01*
Y1384154D01*
X576497Y1382592D01*
X576800Y1382289D01*
Y1378750D01*
X582124D01*
X582642Y1377500D01*
X582553Y1377411D01*
X581906Y1375849D01*
Y1374158D01*
X582058Y1373789D01*
X581364Y1372750D01*
X572500D01*
Y1360250D01*
X580753D01*
X581231Y1359095D01*
X576057Y1353921D01*
X575643Y1353301D01*
X575497Y1352569D01*
Y1352060D01*
X574093Y1351478D01*
X572897Y1350282D01*
X572250Y1348721D01*
Y1347030D01*
X572897Y1345468D01*
X574093Y1344272D01*
X575655Y1343625D01*
X577345D01*
X578907Y1344272D01*
X580103Y1345468D01*
X580750Y1347030D01*
Y1348721D01*
X580103Y1350282D01*
X579701Y1350685D01*
Y1352157D01*
X589250Y1361707D01*
X590500Y1361189D01*
Y1360250D01*
X601463D01*
Y1358806D01*
X600394Y1357980D01*
X600345Y1358000D01*
X598655D01*
X597093Y1357353D01*
X595897Y1356157D01*
X595250Y1354595D01*
Y1352905D01*
X595897Y1351343D01*
X597093Y1350147D01*
X598655Y1349500D01*
X600345D01*
X601907Y1350147D01*
X603103Y1351343D01*
X603750Y1352905D01*
Y1354595D01*
X603545Y1355091D01*
X604727Y1356273D01*
X605141Y1356893D01*
X605287Y1357625D01*
Y1372173D01*
X605229Y1372463D01*
X605870Y1373517D01*
X606104Y1373713D01*
X651627D01*
X652276Y1372897D01*
X651775Y1371750D01*
X641250D01*
Y1358250D01*
X651046D01*
X652523Y1356773D01*
X653143Y1356358D01*
X653875Y1356213D01*
X668673D01*
X669405Y1356358D01*
X670025Y1356773D01*
X671715Y1358463D01*
X675625D01*
X675810Y1358500D01*
X684046D01*
X686329Y1356217D01*
X685778Y1355000D01*
X685195Y1355000D01*
X673750D01*
Y1341500D01*
X686250D01*
Y1353859D01*
X686250Y1354528D01*
X687467Y1355079D01*
X688523Y1354023D01*
X689143Y1353609D01*
X689500Y1353538D01*
Y1341500D01*
X702000D01*
Y1350461D01*
X703155Y1350940D01*
X717088Y1337006D01*
Y1303250D01*
X710250D01*
Y1280750D01*
X727750D01*
Y1303250D01*
X720912D01*
Y1337798D01*
X720766Y1338530D01*
X720352Y1339150D01*
X702775Y1356727D01*
X702155Y1357141D01*
X701609Y1357250D01*
X701733Y1358500D01*
X702000D01*
Y1363338D01*
X710250D01*
Y1355750D01*
X727750D01*
Y1378250D01*
X724543D01*
X723500Y1378750D01*
X723500Y1379500D01*
Y1383490D01*
X723603Y1383593D01*
X724250Y1385155D01*
Y1386846D01*
X723603Y1388408D01*
X723500Y1388511D01*
Y1393250D01*
X721912D01*
Y1417750D01*
X723500D01*
Y1422489D01*
X723603Y1422592D01*
X724250Y1424155D01*
Y1425845D01*
X723603Y1427407D01*
X723500Y1427510D01*
Y1432250D01*
D02*
G37*
G36*
X685400D02*
X678400D01*
Y1427510D01*
X678297Y1427407D01*
X677650Y1425845D01*
Y1424155D01*
X678297Y1422592D01*
X678400Y1422489D01*
Y1417750D01*
X685400D01*
Y1422489D01*
X685503Y1422592D01*
X686150Y1424155D01*
Y1425845D01*
X685503Y1427407D01*
X685400Y1427510D01*
Y1432250D01*
D02*
G37*
G36*
X634600D02*
X627600D01*
Y1427460D01*
X627547Y1427407D01*
X626900Y1425845D01*
Y1424154D01*
X627547Y1422592D01*
X627600Y1422539D01*
Y1417750D01*
X634600D01*
Y1422439D01*
X634753Y1422592D01*
X635400Y1424154D01*
Y1425845D01*
X634753Y1427407D01*
X634600Y1427560D01*
Y1432250D01*
D02*
G37*
G36*
X596500D02*
X589500D01*
Y1427460D01*
X589447Y1427407D01*
X588800Y1425845D01*
Y1424154D01*
X589447Y1422592D01*
X589500Y1422539D01*
Y1417750D01*
X596500D01*
Y1422439D01*
X596653Y1422592D01*
X597300Y1424154D01*
Y1425845D01*
X596653Y1427407D01*
X596500Y1427560D01*
Y1432250D01*
D02*
G37*
G36*
X583800D02*
X576800D01*
Y1427460D01*
X576747Y1427407D01*
X576100Y1425845D01*
Y1424154D01*
X576747Y1422592D01*
X576800Y1422539D01*
Y1417750D01*
X583800D01*
Y1422439D01*
X583953Y1422592D01*
X584600Y1424154D01*
Y1425845D01*
X583953Y1427407D01*
X583800Y1427560D01*
Y1432250D01*
D02*
G37*
G36*
X571100D02*
X564100D01*
Y1427460D01*
X564047Y1427407D01*
X563400Y1425845D01*
Y1424154D01*
X564047Y1422592D01*
X564100Y1422539D01*
Y1417750D01*
X571100D01*
Y1422439D01*
X571253Y1422592D01*
X571900Y1424154D01*
Y1425845D01*
X571253Y1427407D01*
X571100Y1427560D01*
Y1432250D01*
D02*
G37*
G36*
X558400D02*
X551400D01*
Y1427460D01*
X551347Y1427407D01*
X550700Y1425845D01*
Y1424154D01*
X551347Y1422592D01*
X551400Y1422539D01*
Y1417750D01*
X558400D01*
Y1422439D01*
X558553Y1422592D01*
X559200Y1424154D01*
Y1425845D01*
X558553Y1427407D01*
X558400Y1427560D01*
Y1432250D01*
D02*
G37*
G36*
X545700D02*
X538700D01*
Y1427460D01*
X538647Y1427407D01*
X538000Y1425845D01*
Y1424154D01*
X538647Y1422592D01*
X538700Y1422539D01*
Y1417750D01*
X545700D01*
Y1422439D01*
X545853Y1422592D01*
X546500Y1424154D01*
Y1425845D01*
X545853Y1427407D01*
X545700Y1427560D01*
Y1432250D01*
D02*
G37*
G36*
X533000D02*
X526000D01*
Y1427460D01*
X525947Y1427407D01*
X525300Y1425845D01*
Y1424154D01*
X525947Y1422592D01*
X526000Y1422539D01*
Y1417750D01*
X533000D01*
Y1422439D01*
X533153Y1422592D01*
X533800Y1424154D01*
Y1425845D01*
X533153Y1427407D01*
X533000Y1427560D01*
Y1432250D01*
D02*
G37*
G36*
X520300D02*
X513300D01*
Y1427460D01*
X513247Y1427407D01*
X512600Y1425845D01*
Y1424154D01*
X513247Y1422592D01*
X513300Y1422539D01*
Y1417750D01*
X520300D01*
Y1422439D01*
X520453Y1422592D01*
X521100Y1424154D01*
Y1425845D01*
X520453Y1427407D01*
X520300Y1427560D01*
Y1432250D01*
D02*
G37*
G36*
X507600D02*
X500600D01*
Y1427460D01*
X500547Y1427407D01*
X499900Y1425845D01*
Y1424154D01*
X500547Y1422592D01*
X500600Y1422539D01*
Y1417750D01*
X507600D01*
Y1422439D01*
X507753Y1422592D01*
X508400Y1424154D01*
Y1425845D01*
X507753Y1427407D01*
X507600Y1427560D01*
Y1432250D01*
D02*
G37*
G36*
X429400D02*
X422400D01*
Y1427753D01*
X422277Y1427630D01*
X421630Y1426067D01*
Y1424377D01*
X422277Y1422815D01*
X422400Y1422691D01*
Y1417750D01*
X429400D01*
Y1422732D01*
X429483Y1422815D01*
X430130Y1424377D01*
Y1426067D01*
X429483Y1427630D01*
X429400Y1427712D01*
Y1432250D01*
D02*
G37*
G36*
X416700D02*
X409700D01*
Y1427753D01*
X409577Y1427630D01*
X408930Y1426067D01*
Y1424377D01*
X409577Y1422815D01*
X409700Y1422691D01*
Y1417750D01*
X416700D01*
Y1422732D01*
X416783Y1422815D01*
X417430Y1424377D01*
Y1426067D01*
X416783Y1427630D01*
X416700Y1427712D01*
Y1432250D01*
D02*
G37*
G36*
X404000D02*
X397000D01*
Y1427510D01*
X396897Y1427407D01*
X396250Y1425845D01*
Y1424155D01*
X396897Y1422592D01*
X397000Y1422489D01*
Y1417750D01*
X404000D01*
Y1422489D01*
X404103Y1422592D01*
X404750Y1424155D01*
Y1425845D01*
X404103Y1427407D01*
X404000Y1427510D01*
Y1432250D01*
D02*
G37*
G36*
X391300D02*
X384300D01*
Y1427510D01*
X384197Y1427407D01*
X383550Y1425845D01*
Y1424155D01*
X384197Y1422592D01*
X384300Y1422489D01*
Y1417750D01*
X391300D01*
Y1422489D01*
X391403Y1422592D01*
X392050Y1424155D01*
Y1425845D01*
X391403Y1427407D01*
X391300Y1427510D01*
Y1432250D01*
D02*
G37*
G36*
X378600D02*
X371600D01*
Y1427510D01*
X371497Y1427407D01*
X370850Y1425845D01*
Y1424155D01*
X371497Y1422592D01*
X371600Y1422489D01*
Y1417750D01*
X378600D01*
Y1422489D01*
X378703Y1422592D01*
X379350Y1424155D01*
Y1425845D01*
X378703Y1427407D01*
X378600Y1427510D01*
Y1432250D01*
D02*
G37*
G36*
X365900D02*
X358900D01*
Y1427510D01*
X358797Y1427407D01*
X358150Y1425845D01*
Y1424155D01*
X358797Y1422592D01*
X358900Y1422489D01*
Y1417750D01*
X365900D01*
Y1422489D01*
X366003Y1422592D01*
X366650Y1424155D01*
Y1425845D01*
X366003Y1427407D01*
X365900Y1427510D01*
Y1432250D01*
D02*
G37*
G36*
X353200D02*
X346200D01*
Y1427510D01*
X346097Y1427407D01*
X345450Y1425845D01*
Y1424155D01*
X346097Y1422592D01*
X346200Y1422489D01*
Y1417750D01*
X353200D01*
Y1422489D01*
X353303Y1422592D01*
X353950Y1424155D01*
Y1425845D01*
X353303Y1427407D01*
X353200Y1427510D01*
Y1432250D01*
D02*
G37*
G36*
X340500D02*
X333500D01*
Y1427510D01*
X333397Y1427407D01*
X332750Y1425845D01*
Y1424155D01*
X333397Y1422592D01*
X333500Y1422489D01*
Y1417750D01*
X340500D01*
Y1422489D01*
X340603Y1422592D01*
X341250Y1424155D01*
Y1425845D01*
X340603Y1427407D01*
X340500Y1427510D01*
Y1432250D01*
D02*
G37*
G36*
X327800D02*
X320800D01*
Y1427510D01*
X320697Y1427407D01*
X320050Y1425845D01*
Y1424155D01*
X320697Y1422592D01*
X320800Y1422489D01*
Y1417750D01*
X327800D01*
Y1422489D01*
X327903Y1422592D01*
X328550Y1424155D01*
Y1425845D01*
X327903Y1427407D01*
X327800Y1427510D01*
Y1432250D01*
D02*
G37*
G36*
X315100D02*
X308100D01*
Y1427510D01*
X307997Y1427407D01*
X307350Y1425845D01*
Y1424155D01*
X307997Y1422592D01*
X308100Y1422489D01*
Y1417750D01*
X315100D01*
Y1422489D01*
X315203Y1422592D01*
X315850Y1424155D01*
Y1425845D01*
X315203Y1427407D01*
X315100Y1427510D01*
Y1432250D01*
D02*
G37*
G36*
X302400D02*
X295400D01*
Y1427510D01*
X295297Y1427407D01*
X294650Y1425845D01*
Y1424155D01*
X295297Y1422592D01*
X295400Y1422489D01*
Y1417750D01*
X302400D01*
Y1422489D01*
X302503Y1422592D01*
X303150Y1424155D01*
Y1425845D01*
X302503Y1427407D01*
X302400Y1427510D01*
Y1432250D01*
D02*
G37*
G36*
X289700D02*
X282700D01*
Y1427510D01*
X282597Y1427407D01*
X281950Y1425845D01*
Y1424155D01*
X282597Y1422592D01*
X282700Y1422489D01*
Y1417750D01*
X289700D01*
Y1422489D01*
X289803Y1422592D01*
X290450Y1424155D01*
Y1425845D01*
X289803Y1427407D01*
X289700Y1427510D01*
Y1432250D01*
D02*
G37*
G36*
X277000D02*
X270000D01*
Y1427510D01*
X269897Y1427407D01*
X269250Y1425845D01*
Y1424155D01*
X269897Y1422592D01*
X270000Y1422489D01*
Y1417750D01*
X277000D01*
Y1422489D01*
X277103Y1422592D01*
X277750Y1424155D01*
Y1425845D01*
X277103Y1427407D01*
X277000Y1427510D01*
Y1432250D01*
D02*
G37*
G36*
X264300D02*
X257300D01*
Y1428310D01*
X256397Y1427407D01*
X255750Y1425845D01*
Y1424155D01*
X256397Y1422593D01*
X257300Y1421690D01*
Y1417750D01*
X264300D01*
Y1432250D01*
D02*
G37*
G36*
X251600D02*
X244600D01*
Y1427360D01*
X243897Y1426657D01*
X243250Y1425095D01*
Y1423405D01*
X243897Y1421843D01*
X244600Y1421140D01*
Y1417750D01*
X251600D01*
Y1423042D01*
X251750Y1423405D01*
Y1425095D01*
X251600Y1425458D01*
Y1432250D01*
D02*
G37*
G36*
X348095Y1414750D02*
X346405D01*
X344843Y1414103D01*
X343647Y1412907D01*
X343000Y1411345D01*
Y1409655D01*
X343647Y1408093D01*
X344843Y1406897D01*
X346405Y1406250D01*
X348095D01*
X349657Y1406897D01*
X350853Y1408093D01*
X351500Y1409655D01*
Y1411345D01*
X350853Y1412907D01*
X349657Y1414103D01*
X348095Y1414750D01*
D02*
G37*
G36*
X609200Y1432250D02*
X602200D01*
Y1427460D01*
X602147Y1427407D01*
X601500Y1425845D01*
Y1424154D01*
X602147Y1422592D01*
X602200Y1422539D01*
Y1417750D01*
X603838D01*
Y1412849D01*
X602647Y1411657D01*
X602000Y1410095D01*
Y1408405D01*
X602647Y1406843D01*
X603843Y1405647D01*
X605405Y1405000D01*
X607095D01*
X608657Y1405647D01*
X609853Y1406843D01*
X610500Y1408405D01*
Y1410095D01*
X609853Y1411657D01*
X608657Y1412853D01*
X607662Y1413266D01*
Y1417750D01*
X609200D01*
Y1422439D01*
X609353Y1422592D01*
X610000Y1424154D01*
Y1425845D01*
X609353Y1427407D01*
X609200Y1427560D01*
Y1432250D01*
D02*
G37*
G36*
X621900D02*
X614900D01*
Y1427460D01*
X614847Y1427407D01*
X614200Y1425845D01*
Y1424154D01*
X614847Y1422592D01*
X614900Y1422539D01*
Y1417750D01*
X616838D01*
Y1407308D01*
X616343Y1407103D01*
X615147Y1405907D01*
X614500Y1404345D01*
Y1402655D01*
X615147Y1401093D01*
X616343Y1399897D01*
X617905Y1399250D01*
X619595D01*
X621157Y1399897D01*
X622353Y1401093D01*
X623000Y1402655D01*
Y1404345D01*
X622353Y1405907D01*
X621157Y1407103D01*
X620662Y1407308D01*
Y1417750D01*
X621900D01*
Y1422439D01*
X622053Y1422592D01*
X622700Y1424154D01*
Y1425845D01*
X622053Y1427407D01*
X621900Y1427560D01*
Y1432250D01*
D02*
G37*
G36*
X342595Y1405250D02*
X340905D01*
X339343Y1404603D01*
X338147Y1403407D01*
X337500Y1401845D01*
Y1400155D01*
X338147Y1398593D01*
X339343Y1397397D01*
X340905Y1396750D01*
X342595D01*
X344157Y1397397D01*
X345353Y1398593D01*
X346000Y1400155D01*
Y1401845D01*
X345353Y1403407D01*
X344157Y1404603D01*
X342595Y1405250D01*
D02*
G37*
G36*
X465595Y1416250D02*
X463905D01*
X462343Y1415603D01*
X461147Y1414407D01*
X460500Y1412845D01*
Y1411155D01*
X461147Y1409593D01*
X462343Y1408397D01*
X463905Y1407750D01*
X465595D01*
X467157Y1408397D01*
X468353Y1409593D01*
X468558Y1410088D01*
X494458D01*
X508338Y1396208D01*
Y1394194D01*
X507600Y1393250D01*
X500600D01*
Y1390934D01*
X499350Y1390811D01*
X499266Y1391232D01*
X498852Y1391852D01*
X488852Y1401852D01*
X488232Y1402266D01*
X487500Y1402412D01*
X465808D01*
X465603Y1402907D01*
X464407Y1404103D01*
X462845Y1404750D01*
X461155D01*
X459593Y1404103D01*
X458397Y1402907D01*
X457750Y1401345D01*
Y1399655D01*
X458397Y1398093D01*
X459593Y1396897D01*
X461155Y1396250D01*
X462845D01*
X464407Y1396897D01*
X465603Y1398093D01*
X465808Y1398588D01*
X486708D01*
X495588Y1389708D01*
Y1381542D01*
X493546Y1379500D01*
X487900D01*
Y1359500D01*
X493246D01*
X494746Y1358000D01*
X494229Y1356750D01*
X493655D01*
X492093Y1356103D01*
X490897Y1354907D01*
X490250Y1353345D01*
Y1351655D01*
X490897Y1350092D01*
X492093Y1348897D01*
X493655Y1348250D01*
X495345D01*
X496907Y1348897D01*
X498000Y1349990D01*
X498392Y1350210D01*
X499356Y1350402D01*
X506609Y1343148D01*
X507230Y1342734D01*
X507961Y1342588D01*
X511115D01*
X511847Y1342734D01*
X512467Y1343148D01*
X519157Y1349838D01*
X531500D01*
Y1345500D01*
X544029D01*
X544546Y1344250D01*
X542296Y1342000D01*
X531500D01*
Y1330472D01*
X530653Y1330014D01*
X530250Y1329920D01*
X529732Y1330266D01*
X529000Y1330412D01*
X514152D01*
X513420Y1330266D01*
X512800Y1329852D01*
X510635Y1327687D01*
X509000D01*
Y1327800D01*
X503304D01*
X501884Y1329219D01*
X502375Y1330404D01*
Y1332095D01*
X501728Y1333657D01*
X500532Y1334853D01*
X498970Y1335500D01*
X497280D01*
X495718Y1334853D01*
X494522Y1333657D01*
X493875Y1332095D01*
Y1330404D01*
X494522Y1328842D01*
X495718Y1327647D01*
X497280Y1327000D01*
X498697D01*
X500600Y1325096D01*
Y1307800D01*
X506861D01*
X507486Y1306550D01*
X507102Y1306036D01*
X506254D01*
X505924Y1306257D01*
X505300Y1306381D01*
X503200D01*
X502576Y1306257D01*
X501750Y1305997D01*
X500925Y1306257D01*
X500300Y1306381D01*
X499273D01*
X497302Y1308352D01*
X496682Y1308766D01*
X495950Y1308911D01*
X484842D01*
X483600Y1310153D01*
Y1327800D01*
X475209D01*
Y1332006D01*
X482952Y1339748D01*
X484155Y1339250D01*
X485846D01*
X487408Y1339897D01*
X488603Y1341092D01*
X489250Y1342654D01*
Y1344345D01*
X488603Y1345907D01*
X487408Y1347103D01*
X485846Y1347750D01*
X484155D01*
X483659Y1347544D01*
X473302Y1357902D01*
X472682Y1358316D01*
X471950Y1358462D01*
X467834D01*
X467064Y1359614D01*
X465658Y1360553D01*
X464000Y1360883D01*
X454000D01*
X452342Y1360553D01*
X450936Y1359614D01*
X450213Y1358532D01*
X448989Y1358465D01*
X440250Y1367204D01*
Y1377000D01*
X426750D01*
Y1364500D01*
X431338D01*
Y1358122D01*
X412898Y1339682D01*
X412484Y1339062D01*
X412338Y1338330D01*
Y1331808D01*
X411843Y1331603D01*
X410647Y1330407D01*
X410442Y1329912D01*
X397072D01*
X396279Y1330878D01*
X396334Y1331150D01*
X396004Y1332808D01*
X395064Y1334214D01*
X393658Y1335153D01*
X392000Y1335483D01*
X382000D01*
X380342Y1335153D01*
X378936Y1334214D01*
X377997Y1332808D01*
X377667Y1331150D01*
X377997Y1329492D01*
X378384Y1328912D01*
X377716Y1327662D01*
X330000D01*
X329268Y1327516D01*
X328925Y1327287D01*
X327089D01*
X326728Y1328158D01*
X325532Y1329353D01*
X323970Y1330000D01*
X322280D01*
X320718Y1329353D01*
X319522Y1328158D01*
X319162Y1327288D01*
X317912Y1327536D01*
Y1329715D01*
X317766Y1330446D01*
X317352Y1331067D01*
X316787Y1331632D01*
Y1334833D01*
X318805Y1336852D01*
X319655Y1336500D01*
X321345D01*
X322907Y1337147D01*
X324103Y1338343D01*
X324750Y1339905D01*
Y1341595D01*
X324307Y1342665D01*
X325367Y1343373D01*
X325593Y1343147D01*
X327155Y1342500D01*
X328845D01*
X330407Y1343147D01*
X331603Y1344343D01*
X332250Y1345905D01*
Y1347595D01*
X332045Y1348091D01*
X334102Y1350148D01*
X334516Y1350768D01*
X334589Y1351136D01*
X338092Y1354638D01*
X378166D01*
X378936Y1353486D01*
X380342Y1352547D01*
X382000Y1352217D01*
X392000D01*
X393658Y1352547D01*
X395064Y1353486D01*
X396004Y1354892D01*
X396334Y1356550D01*
X396004Y1358208D01*
X395064Y1359614D01*
X393658Y1360553D01*
X392000Y1360883D01*
X382000D01*
X380342Y1360553D01*
X378936Y1359614D01*
X378166Y1358462D01*
X337300D01*
X336568Y1358316D01*
X335948Y1357902D01*
X331398Y1353352D01*
X330984Y1352732D01*
X330911Y1352364D01*
X329341Y1350795D01*
X328845Y1351000D01*
X327155D01*
X325593Y1350353D01*
X324397Y1349157D01*
X323750Y1347595D01*
Y1345905D01*
X324193Y1344835D01*
X323133Y1344127D01*
X322907Y1344353D01*
X321345Y1345000D01*
X319655D01*
X318604Y1345766D01*
X318554Y1345897D01*
X318874Y1346376D01*
X319019Y1347107D01*
Y1347383D01*
X319657Y1347647D01*
X320853Y1348843D01*
X321500Y1350405D01*
Y1352095D01*
X320853Y1353657D01*
X319657Y1354853D01*
X318095Y1355500D01*
X316405D01*
X314843Y1354853D01*
X313647Y1353657D01*
X313000Y1352095D01*
Y1350405D01*
X313647Y1348843D01*
X314842Y1347647D01*
X314859Y1347563D01*
X311023Y1343727D01*
X310609Y1343107D01*
X310463Y1342375D01*
Y1331275D01*
X309788Y1331141D01*
X309168Y1330727D01*
X308435Y1329995D01*
X308021Y1329374D01*
X307998Y1329259D01*
X307470Y1328125D01*
X305780D01*
X304218Y1327478D01*
X303022Y1326282D01*
X302375Y1324720D01*
Y1323030D01*
X303022Y1321468D01*
X304218Y1320272D01*
X305780Y1319625D01*
X307470D01*
X307966Y1319830D01*
X309088Y1318708D01*
Y1303494D01*
X305273Y1299679D01*
X304859Y1299059D01*
X304713Y1298327D01*
Y1297787D01*
X299036D01*
X298304Y1297641D01*
X298162Y1297546D01*
X297784Y1297636D01*
X296912Y1298150D01*
Y1307515D01*
X298162Y1307764D01*
X298647Y1306593D01*
X299843Y1305397D01*
X301405Y1304750D01*
X303095D01*
X304657Y1305397D01*
X305853Y1306593D01*
X306500Y1308155D01*
Y1309845D01*
X305853Y1311407D01*
X304657Y1312603D01*
X303095Y1313250D01*
X301405D01*
X299843Y1312603D01*
X298647Y1311407D01*
X298162Y1310236D01*
X296912Y1310485D01*
Y1325952D01*
X296766Y1326684D01*
X296352Y1327304D01*
X296588Y1328836D01*
X296727Y1328975D01*
X297141Y1329595D01*
X297287Y1330327D01*
Y1342375D01*
X297141Y1343106D01*
X296727Y1343727D01*
X294893Y1345560D01*
X294893Y1346940D01*
X295280Y1347326D01*
X295864Y1347843D01*
X296943Y1347297D01*
X297343Y1346897D01*
X298905Y1346250D01*
X300595D01*
X302157Y1346897D01*
X303353Y1348093D01*
X304000Y1349655D01*
Y1351345D01*
X303353Y1352907D01*
X302586Y1353674D01*
X302542Y1353988D01*
X302712Y1355072D01*
X302752Y1355141D01*
X303032Y1355328D01*
X305409Y1357705D01*
X305905Y1357500D01*
X307595D01*
X309157Y1358147D01*
X310353Y1359343D01*
X311000Y1360905D01*
X312250Y1361499D01*
X312500Y1361297D01*
Y1360155D01*
X313147Y1358593D01*
X314343Y1357397D01*
X315905Y1356750D01*
X317595D01*
X319157Y1357397D01*
X320353Y1358593D01*
X321000Y1360155D01*
Y1361845D01*
X320353Y1363407D01*
X319157Y1364603D01*
X317595Y1365250D01*
X315905D01*
X315232Y1364971D01*
X313512Y1366692D01*
Y1378750D01*
X315100D01*
Y1383489D01*
X315203Y1383592D01*
X315850Y1385154D01*
Y1386845D01*
X315203Y1388407D01*
X315100Y1388510D01*
Y1393250D01*
X308100D01*
Y1388510D01*
X307997Y1388407D01*
X307350Y1386845D01*
Y1385154D01*
X307997Y1383592D01*
X308100Y1383489D01*
Y1378750D01*
X309688D01*
Y1366456D01*
X308674Y1365684D01*
X308465Y1365640D01*
X307595Y1366000D01*
X305905D01*
X304343Y1365353D01*
X303147Y1364157D01*
X302500Y1362595D01*
Y1360905D01*
X302705Y1360409D01*
X300888Y1358592D01*
X299036D01*
X298304Y1358446D01*
X297684Y1358032D01*
X293116Y1353464D01*
X292701Y1352843D01*
X292556Y1352112D01*
Y1350009D01*
X291409Y1348862D01*
X291408Y1348862D01*
X289724Y1347177D01*
X289173Y1347287D01*
X282450D01*
Y1348500D01*
X269050D01*
Y1349995D01*
X268403Y1351557D01*
X267208Y1352753D01*
X265645Y1353400D01*
X263955D01*
X262393Y1352753D01*
X261197Y1351557D01*
X260550Y1349995D01*
Y1348304D01*
X261197Y1346743D01*
X262393Y1345547D01*
X263955Y1344900D01*
X265645D01*
X265751Y1344944D01*
X266847Y1344045D01*
X266838Y1344000D01*
X266984Y1343269D01*
X267398Y1342648D01*
X268018Y1342234D01*
X268550Y1342128D01*
Y1329412D01*
X257792D01*
X243045Y1344159D01*
X243250Y1344655D01*
Y1346345D01*
X242603Y1347907D01*
X241408Y1349103D01*
X239845Y1349750D01*
X238155D01*
X236593Y1349103D01*
X235397Y1347907D01*
X234750Y1346345D01*
Y1344655D01*
X235397Y1343092D01*
X236593Y1341897D01*
X238155Y1341250D01*
X239845D01*
X240341Y1341455D01*
X255648Y1326148D01*
X256268Y1325734D01*
X256629Y1325662D01*
X256506Y1324412D01*
X246792D01*
X243295Y1327909D01*
X243500Y1328405D01*
Y1330095D01*
X242853Y1331657D01*
X241657Y1332853D01*
X240095Y1333500D01*
X238405D01*
X236842Y1332853D01*
X235647Y1331657D01*
X235000Y1330095D01*
Y1328405D01*
X235647Y1326842D01*
X236842Y1325647D01*
X238405Y1325000D01*
X240095D01*
X240591Y1325205D01*
X244648Y1321148D01*
X245268Y1320734D01*
X245632Y1320662D01*
X245508Y1319412D01*
X243750D01*
X243018Y1319266D01*
X242398Y1318852D01*
X240591Y1317045D01*
X240095Y1317250D01*
X238405D01*
X236842Y1316603D01*
X235647Y1315408D01*
X235000Y1313846D01*
Y1312155D01*
X235647Y1310593D01*
X236842Y1309397D01*
X238405Y1308750D01*
X240095D01*
X241657Y1309397D01*
X242853Y1310593D01*
X243500Y1312155D01*
Y1313846D01*
X243295Y1314341D01*
X244542Y1315588D01*
X254256D01*
X254379Y1314338D01*
X254018Y1314266D01*
X253398Y1313852D01*
X240591Y1301045D01*
X240095Y1301250D01*
X238405D01*
X236842Y1300603D01*
X235647Y1299408D01*
X235000Y1297845D01*
Y1296155D01*
X235647Y1294593D01*
X236842Y1293397D01*
X238405Y1292750D01*
X240095D01*
X241657Y1293397D01*
X242853Y1294593D01*
X243500Y1296155D01*
Y1297845D01*
X243295Y1298341D01*
X255542Y1310589D01*
X268550D01*
Y1304372D01*
X268018Y1304266D01*
X267398Y1303852D01*
X266984Y1303232D01*
X266838Y1302500D01*
X266984Y1301769D01*
X267398Y1301148D01*
X268018Y1300734D01*
X268550Y1300628D01*
Y1297872D01*
X268018Y1297766D01*
X267398Y1297352D01*
X266984Y1296731D01*
X266923Y1296424D01*
X265941Y1295699D01*
X265645Y1295600D01*
X263955D01*
X262393Y1294953D01*
X261197Y1293758D01*
X260550Y1292196D01*
Y1290505D01*
X261197Y1288943D01*
X262393Y1287747D01*
X263955Y1287100D01*
X265645D01*
X267208Y1287747D01*
X268403Y1288943D01*
X269050Y1290505D01*
Y1292000D01*
X282450D01*
Y1293713D01*
X288550D01*
X289028Y1292558D01*
X286748Y1290278D01*
X286334Y1289658D01*
X286188Y1288927D01*
Y1285169D01*
X284938Y1284379D01*
X284070Y1284739D01*
X282379D01*
X280817Y1284092D01*
X279622Y1282896D01*
X279371Y1282291D01*
X278175Y1281928D01*
X277444Y1282417D01*
X275200Y1282863D01*
X264200D01*
X261957Y1282417D01*
X260055Y1281146D01*
X258784Y1279244D01*
X258337Y1277000D01*
X258784Y1274757D01*
X260055Y1272855D01*
X261957Y1271584D01*
X264200Y1271137D01*
X275200D01*
X277444Y1271584D01*
X279346Y1272855D01*
X280617Y1274757D01*
X280831Y1275834D01*
X281933Y1276423D01*
X282379Y1276239D01*
X284070D01*
X284838Y1275725D01*
Y1255900D01*
X284984Y1255169D01*
X285398Y1254548D01*
X301419Y1238528D01*
Y1237500D01*
X301543Y1236876D01*
X301897Y1236346D01*
Y1235753D01*
X301543Y1235224D01*
X301419Y1234600D01*
Y1232499D01*
X301543Y1231875D01*
X301803Y1231050D01*
X301543Y1230224D01*
X301419Y1229600D01*
Y1227500D01*
X301543Y1226876D01*
X301897Y1226346D01*
X302426Y1225993D01*
X303050Y1225868D01*
X317050D01*
X317675Y1225993D01*
X318204Y1226346D01*
X318557Y1226876D01*
X318682Y1227500D01*
Y1229600D01*
X318557Y1230224D01*
X318297Y1231050D01*
X318557Y1231875D01*
X318682Y1232499D01*
Y1234600D01*
X318557Y1235224D01*
X318204Y1235753D01*
Y1236346D01*
X318557Y1236876D01*
X318682Y1237500D01*
Y1239600D01*
X318557Y1240224D01*
X318481Y1240468D01*
X318923Y1241551D01*
X319002Y1241638D01*
X319780D01*
X320512Y1241783D01*
X321132Y1242198D01*
X321898Y1242963D01*
X337358D01*
X339139Y1241182D01*
X339759Y1240768D01*
X340491Y1240622D01*
X359389D01*
X361613Y1238398D01*
X362233Y1237984D01*
X362965Y1237838D01*
X373465D01*
X374196Y1237984D01*
X374816Y1238398D01*
X375257Y1238838D01*
X382442D01*
X382647Y1238343D01*
X383843Y1237147D01*
X385405Y1236500D01*
X387095D01*
X388657Y1237147D01*
X389853Y1238343D01*
X390500Y1239905D01*
Y1241595D01*
X389853Y1243157D01*
X388657Y1244353D01*
X387095Y1245000D01*
X385405D01*
X383843Y1244353D01*
X382647Y1243157D01*
X382442Y1242662D01*
X374465D01*
X373733Y1242516D01*
X373113Y1242102D01*
X372673Y1241662D01*
X363756D01*
X361533Y1243886D01*
X360912Y1244300D01*
X360181Y1244445D01*
X341283D01*
X339501Y1246227D01*
X338881Y1246641D01*
X338150Y1246787D01*
X321106D01*
X320374Y1246641D01*
X319754Y1246227D01*
X319156Y1246465D01*
X318557Y1246876D01*
X318682Y1247500D01*
Y1249600D01*
X318557Y1250224D01*
X318482Y1250465D01*
X318866Y1251230D01*
X319307Y1251381D01*
X320296Y1251511D01*
X320711Y1251234D01*
X321443Y1251088D01*
X337144D01*
X337876Y1251234D01*
X338496Y1251648D01*
X343079Y1256231D01*
X343359Y1256287D01*
X343979Y1256701D01*
X345116Y1257838D01*
X351881D01*
X352397Y1256593D01*
X353592Y1255397D01*
X355155Y1254750D01*
X356845D01*
X358407Y1255397D01*
X359603Y1256593D01*
X360250Y1258155D01*
Y1259845D01*
X359603Y1261407D01*
X358407Y1262603D01*
X356845Y1263250D01*
X355155D01*
X353592Y1262603D01*
X352651Y1261662D01*
X345139D01*
X344858Y1262083D01*
Y1263773D01*
X344211Y1265335D01*
X343016Y1266531D01*
X341453Y1267178D01*
X339763D01*
X338264Y1266557D01*
X337103Y1266763D01*
X335907Y1267959D01*
X334345Y1268606D01*
X332655D01*
X332159Y1268400D01*
X330658Y1269902D01*
X330037Y1270316D01*
X329306Y1270461D01*
X327208D01*
X326959Y1271712D01*
X327407Y1271897D01*
X328603Y1273093D01*
X329250Y1274655D01*
Y1276345D01*
X329045Y1276841D01*
X330602Y1278398D01*
X331016Y1279019D01*
X331162Y1279750D01*
Y1289401D01*
X331454Y1289596D01*
X331807Y1290125D01*
X331931Y1290750D01*
Y1304749D01*
X331807Y1305374D01*
X331454Y1305903D01*
X331162Y1306098D01*
Y1308694D01*
X332412Y1309411D01*
X333405Y1309000D01*
X335095D01*
X335909Y1309337D01*
X337692Y1307554D01*
X337648Y1307057D01*
X337364Y1306115D01*
X337047Y1305903D01*
X336693Y1305374D01*
X336569Y1304749D01*
Y1290750D01*
X336693Y1290125D01*
X337047Y1289596D01*
X337576Y1289242D01*
X338200Y1289118D01*
X340300D01*
X340924Y1289242D01*
X341750Y1289503D01*
X342576Y1289242D01*
X343200Y1289118D01*
X345300D01*
X345925Y1289242D01*
X345980Y1289260D01*
X346791Y1288385D01*
X346768Y1288279D01*
X345897Y1287407D01*
X345250Y1285845D01*
Y1284155D01*
X345897Y1282593D01*
X347093Y1281397D01*
X348655Y1280750D01*
X350345D01*
X351907Y1281397D01*
X353103Y1282593D01*
X353750Y1284155D01*
Y1285845D01*
X353103Y1287407D01*
X352534Y1287976D01*
X353150Y1289128D01*
X353200Y1289118D01*
X355300D01*
X355925Y1289242D01*
X356750Y1289503D01*
X357576Y1289242D01*
X358200Y1289118D01*
X360300D01*
X360924Y1289242D01*
X361088Y1289352D01*
X362251Y1288877D01*
X362338Y1288798D01*
Y1254808D01*
X361843Y1254603D01*
X360647Y1253407D01*
X360000Y1251845D01*
Y1250155D01*
X360647Y1248593D01*
X361843Y1247397D01*
X363405Y1246750D01*
X365095D01*
X366657Y1247397D01*
X367329Y1248069D01*
X367969Y1248538D01*
X368963Y1248069D01*
X369468Y1247564D01*
X371030Y1246917D01*
X372720D01*
X374282Y1247564D01*
X375478Y1248759D01*
X376125Y1250322D01*
Y1252012D01*
X375478Y1253574D01*
X374828Y1254224D01*
X374352Y1255315D01*
X374766Y1255935D01*
X374912Y1256667D01*
Y1258285D01*
X374766Y1259017D01*
X374352Y1259637D01*
X371287Y1262702D01*
Y1288655D01*
X372520Y1289260D01*
X372576Y1289242D01*
X373200Y1289118D01*
X375300D01*
X375925Y1289242D01*
X376168Y1289319D01*
X377251Y1288877D01*
X377338Y1288798D01*
Y1259035D01*
X377484Y1258304D01*
X377898Y1257683D01*
X379865Y1255717D01*
X379747Y1255124D01*
Y1254752D01*
X379893Y1254020D01*
X380307Y1253400D01*
X380810Y1252896D01*
X380375Y1251845D01*
Y1250155D01*
X381022Y1248593D01*
X382218Y1247397D01*
X383780Y1246750D01*
X385470D01*
X387033Y1247397D01*
X388228Y1248593D01*
X388875Y1250155D01*
Y1251845D01*
X388228Y1253407D01*
X387033Y1254603D01*
X385470Y1255250D01*
X383864D01*
X383697Y1255417D01*
Y1256500D01*
X383551Y1257232D01*
X383137Y1257852D01*
X381162Y1259827D01*
Y1288798D01*
X381250Y1288878D01*
X382412Y1289352D01*
X382576Y1289242D01*
X383200Y1289118D01*
X385300D01*
X385925Y1289242D01*
X386750Y1289503D01*
X387576Y1289242D01*
X388200Y1289118D01*
X390300D01*
X390924Y1289242D01*
X391750Y1289503D01*
X392576Y1289242D01*
X393200Y1289118D01*
X395300D01*
X395925Y1289242D01*
X396454Y1289596D01*
X396808Y1290125D01*
X396932Y1290750D01*
Y1303677D01*
X415028Y1321773D01*
X415442Y1322393D01*
X415567Y1323020D01*
X415663Y1323162D01*
X416089Y1323369D01*
X417339Y1322586D01*
Y1306701D01*
X417251Y1306621D01*
X416089Y1306147D01*
X415925Y1306257D01*
X415300Y1306381D01*
X413200D01*
X412576Y1306257D01*
X411750Y1305997D01*
X410925Y1306257D01*
X410300Y1306381D01*
X408201D01*
X407576Y1306257D01*
X406750Y1305997D01*
X405925Y1306257D01*
X405300Y1306381D01*
X403200D01*
X402576Y1306257D01*
X402047Y1305903D01*
X401693Y1305374D01*
X401569Y1304749D01*
Y1290750D01*
X401693Y1290125D01*
X402047Y1289596D01*
X402576Y1289242D01*
X403200Y1289118D01*
X404228D01*
X420588Y1272758D01*
Y1255162D01*
X419843Y1254853D01*
X418647Y1253657D01*
X418000Y1252095D01*
Y1250405D01*
X418647Y1248843D01*
X419843Y1247647D01*
X421405Y1247000D01*
X423095D01*
X424657Y1247647D01*
X425853Y1248843D01*
X426500Y1250405D01*
Y1252095D01*
X425853Y1253657D01*
X424657Y1254853D01*
X424412Y1254955D01*
Y1273550D01*
X424266Y1274281D01*
X423852Y1274902D01*
X411207Y1287546D01*
X411437Y1288934D01*
X412269Y1289339D01*
X412576Y1289242D01*
X413200Y1289118D01*
X415300D01*
X415925Y1289242D01*
X416454Y1289596D01*
X417047D01*
X417576Y1289242D01*
X418200Y1289118D01*
X420300D01*
X420925Y1289242D01*
X421750Y1289503D01*
X422576Y1289242D01*
X423200Y1289118D01*
X424228D01*
X428588Y1284758D01*
Y1274808D01*
X428093Y1274603D01*
X426897Y1273407D01*
X426250Y1271845D01*
Y1270155D01*
X426897Y1268593D01*
X428093Y1267397D01*
X429655Y1266750D01*
X431345D01*
X432845Y1267371D01*
X433226Y1267239D01*
X434000Y1266722D01*
Y1265280D01*
X434647Y1263717D01*
X435843Y1262522D01*
X437405Y1261875D01*
X439095D01*
X440657Y1262522D01*
X441853Y1263717D01*
X442500Y1265280D01*
Y1266970D01*
X441853Y1268532D01*
X440657Y1269728D01*
X440162Y1269933D01*
Y1281060D01*
X441343Y1281647D01*
X442905Y1281000D01*
X444595D01*
X446157Y1281647D01*
X447353Y1282843D01*
X448000Y1284405D01*
Y1286095D01*
X447353Y1287657D01*
X446732Y1288279D01*
X446710Y1288383D01*
X447522Y1289259D01*
X447576Y1289242D01*
X448200Y1289118D01*
X450300D01*
X450925Y1289242D01*
X451454Y1289596D01*
X451808Y1290125D01*
X451932Y1290750D01*
Y1303677D01*
X456847Y1308593D01*
X462595D01*
X463327Y1308738D01*
X463947Y1309153D01*
X473950Y1319155D01*
X475200Y1318638D01*
Y1307800D01*
X479535D01*
X479658Y1307631D01*
X479024Y1306381D01*
X478200D01*
X477576Y1306257D01*
X476750Y1305997D01*
X475924Y1306257D01*
X475300Y1306381D01*
X473200D01*
X472576Y1306257D01*
X471750Y1305997D01*
X470925Y1306257D01*
X470300Y1306381D01*
X468200D01*
X467576Y1306257D01*
X466750Y1305997D01*
X465924Y1306257D01*
X465300Y1306381D01*
X463200D01*
X462576Y1306257D01*
X461750Y1305997D01*
X460925Y1306257D01*
X460300Y1306381D01*
X458200D01*
X457576Y1306257D01*
X457047Y1305903D01*
X456693Y1305374D01*
X456569Y1304749D01*
Y1290750D01*
X456693Y1290125D01*
X457047Y1289596D01*
X457576Y1289242D01*
X458200Y1289118D01*
X460300D01*
X460925Y1289242D01*
X461750Y1289503D01*
X462576Y1289242D01*
X463200Y1289118D01*
X463965D01*
X464483Y1287868D01*
X464397Y1287782D01*
X463750Y1286220D01*
Y1284530D01*
X464397Y1282968D01*
X465593Y1281772D01*
X467155Y1281125D01*
X468845D01*
X470407Y1281772D01*
X471603Y1282968D01*
X472191Y1284387D01*
X473405Y1284942D01*
X475948Y1282398D01*
X476568Y1281984D01*
X477300Y1281838D01*
X513443D01*
X514116Y1281001D01*
X514165Y1280588D01*
X513941Y1280405D01*
X513494Y1280316D01*
X512874Y1279902D01*
X512422Y1279450D01*
X511095Y1280000D01*
X509405D01*
X507843Y1279353D01*
X506647Y1278157D01*
X506000Y1276595D01*
Y1274905D01*
X506647Y1273343D01*
X507843Y1272147D01*
X509405Y1271500D01*
X511095D01*
X512657Y1272147D01*
X513569Y1273059D01*
X514819Y1272657D01*
Y1272499D01*
X514943Y1271875D01*
X515204Y1271050D01*
X514943Y1270224D01*
X514819Y1269600D01*
Y1267500D01*
X514943Y1266875D01*
X515053Y1266711D01*
X514579Y1265549D01*
X514499Y1265461D01*
X468017D01*
X463045Y1270434D01*
X463250Y1270930D01*
Y1272620D01*
X462603Y1274183D01*
X461407Y1275378D01*
X459845Y1276025D01*
X458155D01*
X456593Y1275378D01*
X455397Y1274183D01*
X454750Y1272620D01*
Y1270930D01*
X455397Y1269368D01*
X456593Y1268172D01*
X458155Y1267525D01*
X459845D01*
X460341Y1267730D01*
X465874Y1262198D01*
X466494Y1261783D01*
X467226Y1261638D01*
X492744D01*
X493285Y1260388D01*
X492750Y1259095D01*
Y1257405D01*
X493397Y1255843D01*
X493578Y1255662D01*
X493060Y1254412D01*
X449792D01*
X447780Y1256424D01*
X447985Y1256920D01*
Y1258610D01*
X447338Y1260172D01*
X446143Y1261368D01*
X444580Y1262015D01*
X442890D01*
X441328Y1261368D01*
X440132Y1260172D01*
X439485Y1258610D01*
Y1256920D01*
X440132Y1255358D01*
X441328Y1254162D01*
X442890Y1253515D01*
X444580D01*
X445076Y1253720D01*
X447648Y1251148D01*
X448268Y1250734D01*
X449000Y1250588D01*
X460070D01*
X460859Y1249338D01*
X460500Y1248470D01*
Y1246780D01*
X461147Y1245218D01*
X462343Y1244022D01*
X463905Y1243375D01*
X465595D01*
X467157Y1244022D01*
X468353Y1245218D01*
X468828Y1246363D01*
X493835D01*
X494353Y1245113D01*
X493897Y1244657D01*
X493250Y1243095D01*
Y1241405D01*
X493897Y1239843D01*
X495093Y1238647D01*
X495213Y1238597D01*
Y1230964D01*
X494343Y1230603D01*
X493147Y1229407D01*
X492500Y1227845D01*
Y1226155D01*
X493147Y1224593D01*
X494343Y1223397D01*
X495531Y1222905D01*
Y1221595D01*
X494343Y1221103D01*
X493147Y1219907D01*
X492500Y1218345D01*
Y1216654D01*
X493147Y1215092D01*
X494343Y1213897D01*
X495905Y1213250D01*
X497595D01*
X499157Y1213897D01*
X500353Y1215092D01*
X500776Y1216113D01*
X514034D01*
X514297Y1215855D01*
X514871Y1214863D01*
X514819Y1214600D01*
Y1212500D01*
X514943Y1211875D01*
X515297Y1211346D01*
Y1210753D01*
X514943Y1210224D01*
X514819Y1209599D01*
Y1207499D01*
X514943Y1206875D01*
X515204Y1206049D01*
X514943Y1205224D01*
X514819Y1204600D01*
Y1202500D01*
X514943Y1201875D01*
X515297Y1201346D01*
Y1200753D01*
X514943Y1200224D01*
X514819Y1199599D01*
Y1197499D01*
X514943Y1196875D01*
X515204Y1196049D01*
X514943Y1195224D01*
X514819Y1194600D01*
Y1192500D01*
X514943Y1191875D01*
X515297Y1191346D01*
Y1190753D01*
X514943Y1190224D01*
X514819Y1189599D01*
Y1187499D01*
X514943Y1186875D01*
X515204Y1186049D01*
X514943Y1185224D01*
X514819Y1184600D01*
Y1182500D01*
X514943Y1181875D01*
X514986Y1181811D01*
X514393Y1180561D01*
X507600D01*
X507353Y1181157D01*
X506157Y1182353D01*
X504595Y1183000D01*
X502905D01*
X501343Y1182353D01*
X500147Y1181157D01*
X499500Y1179595D01*
Y1177905D01*
X500147Y1176343D01*
X501343Y1175147D01*
X502905Y1174500D01*
X504595D01*
X506157Y1175147D01*
X507353Y1176343D01*
X507517Y1176738D01*
X515035D01*
X515297Y1176346D01*
X515826Y1175992D01*
X516451Y1175868D01*
X530451D01*
X531075Y1175992D01*
X531604Y1176346D01*
X531958Y1176875D01*
X531964Y1176907D01*
X532268Y1177556D01*
X533200Y1177838D01*
X537000D01*
Y1173500D01*
X550500D01*
Y1186000D01*
X537000D01*
Y1181662D01*
X533992D01*
X532082Y1183572D01*
Y1184600D01*
X531958Y1185224D01*
X531697Y1186049D01*
X531958Y1186875D01*
X532082Y1187499D01*
Y1189599D01*
X531958Y1190224D01*
X531604Y1190753D01*
Y1191346D01*
X531958Y1191875D01*
X532082Y1192500D01*
Y1194600D01*
X531958Y1195224D01*
X531881Y1195467D01*
X532323Y1196551D01*
X532402Y1196638D01*
X555944D01*
X556675Y1196783D01*
X557295Y1197198D01*
X566349Y1206252D01*
X566845Y1206046D01*
X568536D01*
X570098Y1206693D01*
X571293Y1207889D01*
X571940Y1209451D01*
Y1211142D01*
X571293Y1212704D01*
X570836Y1213161D01*
X571129Y1214635D01*
X571157Y1214647D01*
X572353Y1215843D01*
X573000Y1217405D01*
Y1219095D01*
X572353Y1220657D01*
X571157Y1221853D01*
X569595Y1222500D01*
X567905D01*
X566343Y1221853D01*
X565147Y1220657D01*
X564500Y1219095D01*
Y1217405D01*
X564705Y1216909D01*
X553258Y1205461D01*
X541855D01*
X541402Y1206711D01*
X542000Y1208155D01*
Y1209845D01*
X541708Y1210549D01*
X542345Y1211656D01*
X542516Y1211687D01*
X543530Y1211709D01*
X544593Y1210647D01*
X546155Y1210000D01*
X547845D01*
X549407Y1210647D01*
X550603Y1211843D01*
X551250Y1213405D01*
Y1215095D01*
X550603Y1216657D01*
X549407Y1217853D01*
X547845Y1218500D01*
X546155D01*
X544593Y1217853D01*
X543397Y1216657D01*
X543047Y1215811D01*
X532750D01*
X532233Y1216505D01*
X531995Y1217061D01*
X532082Y1217499D01*
Y1219599D01*
X531958Y1220224D01*
X531604Y1220753D01*
X531075Y1221106D01*
X530451Y1221231D01*
X516451D01*
X515826Y1221106D01*
X515297Y1220753D01*
X514943Y1220224D01*
X514886Y1219936D01*
X500324D01*
X499157Y1221103D01*
X497969Y1221595D01*
Y1222905D01*
X499157Y1223397D01*
X500353Y1224593D01*
X501000Y1226155D01*
Y1227845D01*
X500353Y1229407D01*
X499157Y1230603D01*
X499037Y1230653D01*
Y1238286D01*
X499907Y1238647D01*
X501103Y1239843D01*
X501750Y1241405D01*
Y1243095D01*
X501103Y1244657D01*
X500647Y1245113D01*
X501165Y1246363D01*
X514201D01*
X514897Y1245296D01*
X514921Y1245113D01*
X514819Y1244600D01*
Y1242499D01*
X514943Y1241875D01*
X515020Y1241632D01*
X514577Y1240549D01*
X514499Y1240462D01*
X513550D01*
X512818Y1240316D01*
X512198Y1239902D01*
X510591Y1238295D01*
X510095Y1238500D01*
X508405D01*
X506843Y1237853D01*
X505647Y1236657D01*
X505000Y1235095D01*
Y1233405D01*
X505647Y1231843D01*
X506842Y1230647D01*
X507146Y1229168D01*
X506679Y1228043D01*
Y1226352D01*
X507326Y1224790D01*
X508522Y1223594D01*
X510084Y1222947D01*
X511775D01*
X513337Y1223594D01*
X514532Y1224790D01*
X514715Y1225232D01*
X515826Y1225993D01*
X516451Y1225868D01*
X530451D01*
X531075Y1225993D01*
X531604Y1226346D01*
X531782Y1226613D01*
X537931D01*
X538147Y1226093D01*
X539342Y1224897D01*
X540904Y1224250D01*
X542595D01*
X544157Y1224897D01*
X545353Y1226093D01*
X546000Y1227655D01*
Y1229345D01*
X545353Y1230908D01*
X544157Y1232103D01*
X542595Y1232750D01*
X540904D01*
X540409Y1232545D01*
X538912Y1234042D01*
Y1249192D01*
X539407Y1249397D01*
X540603Y1250593D01*
X541250Y1252155D01*
Y1253845D01*
X540734Y1255090D01*
X541269Y1255625D01*
X541683Y1256245D01*
X541829Y1256977D01*
Y1268033D01*
X541683Y1268764D01*
X541269Y1269385D01*
X532082Y1278572D01*
Y1279600D01*
X531958Y1280224D01*
X531714Y1280588D01*
X531902Y1281270D01*
X532230Y1281838D01*
X553486D01*
X553721Y1281552D01*
X554092Y1280353D01*
X552897Y1279157D01*
X552250Y1277595D01*
Y1275905D01*
X552693Y1274835D01*
X551710Y1274140D01*
X551640Y1274110D01*
X550095Y1274750D01*
X548405D01*
X546842Y1274103D01*
X545647Y1272907D01*
X545000Y1271345D01*
Y1269655D01*
X545647Y1268093D01*
X546842Y1266897D01*
X548405Y1266250D01*
X550095D01*
X551657Y1266897D01*
X552853Y1268093D01*
X553500Y1269655D01*
Y1271345D01*
X553057Y1272415D01*
X554040Y1273110D01*
X554110Y1273140D01*
X555655Y1272500D01*
X557345D01*
X558907Y1273147D01*
X560103Y1274343D01*
X560750Y1275905D01*
Y1277595D01*
X560103Y1279157D01*
X559758Y1279503D01*
X560001Y1280729D01*
X560407Y1280897D01*
X561603Y1282093D01*
X562250Y1283655D01*
Y1285345D01*
X561603Y1286907D01*
X560407Y1288103D01*
X558845Y1288750D01*
X557155D01*
X555593Y1288103D01*
X554397Y1286907D01*
X553881Y1285662D01*
X552305D01*
X551516Y1286912D01*
X551875Y1287780D01*
Y1289470D01*
X551516Y1290338D01*
X552305Y1291588D01*
X555656D01*
X556596Y1290648D01*
X557216Y1290234D01*
X557948Y1290088D01*
X561817D01*
X562022Y1289593D01*
X563218Y1288397D01*
X564780Y1287750D01*
X566470D01*
X568032Y1288397D01*
X569228Y1289593D01*
X569875Y1291155D01*
Y1292845D01*
X569228Y1294407D01*
X568032Y1295603D01*
X566470Y1296250D01*
X564780D01*
X563218Y1295603D01*
X562022Y1294407D01*
X561817Y1293912D01*
X558740D01*
X557799Y1294852D01*
X557179Y1295266D01*
X556448Y1295412D01*
X510844D01*
X510112Y1295266D01*
X509492Y1294852D01*
X508086Y1293446D01*
X506931Y1293925D01*
Y1302213D01*
X508500D01*
X509231Y1302358D01*
X509851Y1302773D01*
X511942Y1304863D01*
X514975D01*
X515706Y1305009D01*
X516326Y1305423D01*
X518703Y1307800D01*
X521700D01*
Y1326588D01*
X528208D01*
X531500Y1323296D01*
Y1313500D01*
X545000D01*
Y1326000D01*
X534204D01*
X531954Y1328250D01*
X532472Y1329500D01*
X545000D01*
Y1339296D01*
X551203Y1345500D01*
X562000D01*
Y1358000D01*
X557662D01*
Y1362000D01*
X562500D01*
Y1374500D01*
X549000D01*
Y1374500D01*
X547824Y1374678D01*
X546275Y1376227D01*
X545655Y1376641D01*
X544924Y1376787D01*
X532577D01*
X531846Y1376641D01*
X531226Y1376227D01*
X526260Y1371262D01*
X521700D01*
Y1379500D01*
X520300D01*
Y1382826D01*
X520850Y1384154D01*
Y1385845D01*
X520300Y1387173D01*
Y1393250D01*
X513300D01*
Y1393250D01*
X512162Y1393520D01*
Y1397000D01*
X512016Y1397732D01*
X511602Y1398352D01*
X496602Y1413352D01*
X495982Y1413766D01*
X495250Y1413912D01*
X468558D01*
X468353Y1414407D01*
X467157Y1415603D01*
X465595Y1416250D01*
D02*
G37*
G36*
X353200Y1393250D02*
X346200D01*
Y1388510D01*
X346097Y1388407D01*
X345450Y1386845D01*
Y1385154D01*
X346097Y1383592D01*
X346200Y1383489D01*
Y1380887D01*
X345045Y1380409D01*
X343477Y1381976D01*
X342857Y1382391D01*
X342125Y1382536D01*
X341217D01*
X341100Y1382737D01*
X340683Y1383786D01*
X341250Y1385154D01*
Y1386845D01*
X340603Y1388407D01*
X340500Y1388510D01*
Y1393250D01*
X333500D01*
Y1388510D01*
X333397Y1388407D01*
X332750Y1386845D01*
Y1385154D01*
X333397Y1383592D01*
X333101Y1383101D01*
X332107Y1382391D01*
X331375Y1382536D01*
X328517D01*
X328400Y1382737D01*
X327983Y1383786D01*
X328550Y1385154D01*
Y1386845D01*
X327903Y1388407D01*
X327800Y1388510D01*
Y1393250D01*
X320800D01*
Y1388510D01*
X320697Y1388407D01*
X320050Y1386845D01*
Y1385154D01*
X320697Y1383592D01*
X320800Y1383489D01*
Y1378750D01*
X325740D01*
X325925Y1378713D01*
X330583D01*
X340382Y1368914D01*
X340250Y1368595D01*
Y1366905D01*
X340897Y1365343D01*
X342093Y1364147D01*
X343655Y1363500D01*
X345345D01*
X346907Y1364147D01*
X348103Y1365343D01*
X348750Y1366905D01*
Y1368595D01*
X348103Y1370157D01*
X346907Y1371353D01*
X345345Y1372000D01*
X343655D01*
X342982Y1371721D01*
X337109Y1377595D01*
X337587Y1378750D01*
X338440D01*
X338625Y1378713D01*
X341334D01*
X347009Y1373037D01*
X347629Y1372623D01*
X348361Y1372477D01*
X349117D01*
X349576Y1372018D01*
Y1370912D01*
X350223Y1369350D01*
X351419Y1368154D01*
X352981Y1367507D01*
X354672D01*
X356234Y1368154D01*
X357429Y1369350D01*
X358076Y1370912D01*
Y1372603D01*
X357429Y1374165D01*
X356234Y1375360D01*
X354672Y1376007D01*
X352981D01*
X351576Y1375426D01*
X351261Y1375741D01*
X350641Y1376155D01*
X349909Y1376301D01*
X349153D01*
X347859Y1377595D01*
X348337Y1378750D01*
X353200D01*
Y1383489D01*
X353303Y1383592D01*
X353950Y1385154D01*
Y1386845D01*
X353303Y1388407D01*
X353200Y1388510D01*
Y1393250D01*
D02*
G37*
G36*
X685400Y1393250D02*
X678400D01*
Y1388511D01*
X678297Y1388408D01*
X677650Y1386846D01*
Y1385155D01*
X678297Y1383593D01*
X678400Y1383490D01*
Y1378750D01*
X685400D01*
Y1383490D01*
X685503Y1383593D01*
X686150Y1385155D01*
Y1386846D01*
X685503Y1388408D01*
X685400Y1388511D01*
Y1393250D01*
D02*
G37*
G36*
X672700Y1432250D02*
X665700D01*
Y1427510D01*
X665597Y1427407D01*
X664950Y1425845D01*
Y1424155D01*
X665597Y1422592D01*
X665700Y1422489D01*
Y1417750D01*
X666588D01*
Y1393250D01*
X665700D01*
Y1388710D01*
X664897Y1387907D01*
X664250Y1386345D01*
Y1384655D01*
X664897Y1383093D01*
X665700Y1382290D01*
Y1378750D01*
X672700D01*
Y1384533D01*
X672750Y1384655D01*
Y1386345D01*
X672700Y1386467D01*
Y1393250D01*
X670412D01*
Y1417750D01*
X672700D01*
Y1422489D01*
X672803Y1422592D01*
X673450Y1424155D01*
Y1425845D01*
X672803Y1427407D01*
X672700Y1427510D01*
Y1432250D01*
D02*
G37*
G36*
X571100Y1393250D02*
X564100D01*
Y1387710D01*
X563797Y1387407D01*
X563150Y1385845D01*
Y1384154D01*
X563797Y1382592D01*
X564100Y1382289D01*
Y1378750D01*
X571100D01*
Y1382826D01*
X571650Y1384154D01*
Y1385845D01*
X571100Y1387173D01*
Y1393250D01*
D02*
G37*
G36*
X558400D02*
X551400D01*
Y1387710D01*
X551097Y1387407D01*
X550450Y1385845D01*
Y1384154D01*
X551097Y1382592D01*
X551400Y1382289D01*
Y1378750D01*
X558400D01*
Y1382826D01*
X558950Y1384154D01*
Y1385845D01*
X558400Y1387173D01*
Y1393250D01*
D02*
G37*
G36*
X545700D02*
X538700D01*
Y1387710D01*
X538397Y1387407D01*
X537750Y1385845D01*
Y1384154D01*
X538397Y1382592D01*
X538700Y1382289D01*
Y1378750D01*
X545700D01*
Y1382826D01*
X546250Y1384154D01*
Y1385845D01*
X545700Y1387173D01*
Y1393250D01*
D02*
G37*
G36*
X533000D02*
X526000D01*
Y1387710D01*
X525697Y1387407D01*
X525050Y1385845D01*
Y1384154D01*
X525697Y1382592D01*
X526000Y1382289D01*
Y1378750D01*
X533000D01*
Y1382826D01*
X533550Y1384154D01*
Y1385845D01*
X533000Y1387173D01*
Y1393250D01*
D02*
G37*
G36*
X429400Y1393250D02*
X422400D01*
Y1389003D01*
X422027Y1388629D01*
X421380Y1387067D01*
Y1385377D01*
X422027Y1383815D01*
X422400Y1383441D01*
Y1378750D01*
X429400D01*
Y1384218D01*
X429880Y1385377D01*
Y1387067D01*
X429400Y1388226D01*
Y1393250D01*
D02*
G37*
G36*
X416700D02*
X409700D01*
Y1389003D01*
X409327Y1388629D01*
X408680Y1387067D01*
Y1385377D01*
X409327Y1383815D01*
X409700Y1383441D01*
Y1378750D01*
X416700D01*
Y1384218D01*
X417180Y1385377D01*
Y1387067D01*
X416700Y1388226D01*
Y1393250D01*
D02*
G37*
G36*
X404000D02*
X397000D01*
Y1388510D01*
X396897Y1388407D01*
X396250Y1386845D01*
Y1385154D01*
X396897Y1383592D01*
X397000Y1383489D01*
Y1378750D01*
X404000D01*
Y1383489D01*
X404103Y1383592D01*
X404750Y1385154D01*
Y1386845D01*
X404103Y1388407D01*
X404000Y1388510D01*
Y1393250D01*
D02*
G37*
G36*
X391300D02*
X384300D01*
Y1388510D01*
X384197Y1388407D01*
X383550Y1386845D01*
Y1385154D01*
X384197Y1383592D01*
X384300Y1383489D01*
Y1378750D01*
X391300D01*
Y1383489D01*
X391403Y1383592D01*
X392050Y1385154D01*
Y1386845D01*
X391403Y1388407D01*
X391300Y1388510D01*
Y1393250D01*
D02*
G37*
G36*
X378600D02*
X371600D01*
Y1388510D01*
X371497Y1388407D01*
X370850Y1386845D01*
Y1385154D01*
X371497Y1383592D01*
X371600Y1383489D01*
Y1378750D01*
X378600D01*
Y1383489D01*
X378703Y1383592D01*
X379350Y1385154D01*
Y1386845D01*
X378703Y1388407D01*
X378600Y1388510D01*
Y1393250D01*
D02*
G37*
G36*
X365900D02*
X358900D01*
Y1388510D01*
X358797Y1388407D01*
X358150Y1386845D01*
Y1385154D01*
X358797Y1383592D01*
X358900Y1383489D01*
Y1378750D01*
X365900D01*
Y1383489D01*
X366003Y1383592D01*
X366650Y1385154D01*
Y1386845D01*
X366003Y1388407D01*
X365900Y1388510D01*
Y1393250D01*
D02*
G37*
G36*
X302400D02*
X295400D01*
Y1388510D01*
X295297Y1388407D01*
X294650Y1386845D01*
Y1385154D01*
X295297Y1383592D01*
X295400Y1383489D01*
Y1378750D01*
X302400D01*
Y1383489D01*
X302503Y1383592D01*
X303150Y1385154D01*
Y1386845D01*
X302503Y1388407D01*
X302400Y1388510D01*
Y1393250D01*
D02*
G37*
G36*
X289700D02*
X282700D01*
Y1388510D01*
X282597Y1388407D01*
X281950Y1386845D01*
Y1385154D01*
X282597Y1383592D01*
X282700Y1383489D01*
Y1378750D01*
X289700D01*
Y1383489D01*
X289803Y1383592D01*
X290450Y1385154D01*
Y1386845D01*
X289803Y1388407D01*
X289700Y1388510D01*
Y1393250D01*
D02*
G37*
G36*
X277000D02*
X270000D01*
Y1388510D01*
X269897Y1388407D01*
X269250Y1386845D01*
Y1385154D01*
X269897Y1383592D01*
X270000Y1383489D01*
Y1378750D01*
X277000D01*
Y1383489D01*
X277103Y1383592D01*
X277750Y1385154D01*
Y1386845D01*
X277103Y1388407D01*
X277000Y1388510D01*
Y1393250D01*
D02*
G37*
G36*
X264300D02*
X257300D01*
Y1388510D01*
X257197Y1388407D01*
X256550Y1386845D01*
Y1385154D01*
X257197Y1383592D01*
X257300Y1383489D01*
Y1378750D01*
X264300D01*
Y1383489D01*
X264403Y1383592D01*
X265050Y1385154D01*
Y1386845D01*
X264403Y1388407D01*
X264300Y1388510D01*
Y1393250D01*
D02*
G37*
G36*
X251600D02*
X244600D01*
Y1388510D01*
X244497Y1388407D01*
X243850Y1386845D01*
Y1385154D01*
X244497Y1383592D01*
X244600Y1383489D01*
Y1378750D01*
X251600D01*
Y1383489D01*
X251703Y1383592D01*
X252350Y1385154D01*
Y1386845D01*
X251703Y1388407D01*
X251600Y1388510D01*
Y1393250D01*
D02*
G37*
G36*
X275200Y1369362D02*
X264200D01*
X261957Y1368916D01*
X260055Y1367645D01*
X258784Y1365743D01*
X258337Y1363500D01*
X258784Y1361256D01*
X260055Y1359354D01*
X261957Y1358083D01*
X264200Y1357637D01*
X275200D01*
X277444Y1358083D01*
X279346Y1359354D01*
X280617Y1361256D01*
X281063Y1363500D01*
X280617Y1365743D01*
X279346Y1367645D01*
X277444Y1368916D01*
X275200Y1369362D01*
D02*
G37*
G36*
X232000D02*
X224000D01*
X221756Y1368916D01*
X219855Y1367645D01*
X218584Y1365743D01*
X218137Y1363500D01*
X218584Y1361256D01*
X219855Y1359354D01*
X221756Y1358083D01*
X224000Y1357637D01*
X232000D01*
X234244Y1358083D01*
X236145Y1359354D01*
X237416Y1361256D01*
X237863Y1363500D01*
X237416Y1365743D01*
X236145Y1367645D01*
X234244Y1368916D01*
X232000Y1369362D01*
D02*
G37*
G36*
X636095Y1362500D02*
X634405D01*
X632843Y1361853D01*
X631647Y1360657D01*
X631000Y1359095D01*
Y1357405D01*
X631647Y1355843D01*
X632843Y1354647D01*
X634405Y1354000D01*
X636095D01*
X637657Y1354647D01*
X638853Y1355843D01*
X639500Y1357405D01*
Y1359095D01*
X638853Y1360657D01*
X637657Y1361853D01*
X636095Y1362500D01*
D02*
G37*
G36*
X392000Y1348183D02*
X382000D01*
X380342Y1347853D01*
X378936Y1346914D01*
X377997Y1345508D01*
X377667Y1343850D01*
X377997Y1342192D01*
X378936Y1340786D01*
X380342Y1339846D01*
X382000Y1339517D01*
X392000D01*
X393658Y1339846D01*
X395064Y1340786D01*
X396004Y1342192D01*
X396334Y1343850D01*
X396004Y1345508D01*
X395064Y1346914D01*
X393658Y1347853D01*
X392000Y1348183D01*
D02*
G37*
G36*
X634500Y1349250D02*
X622000D01*
Y1336750D01*
X634500D01*
Y1349250D01*
D02*
G37*
G36*
X616500D02*
X604000D01*
Y1336750D01*
X616500D01*
Y1349250D01*
D02*
G37*
G36*
X222595Y1349750D02*
X220905D01*
X219343Y1349103D01*
X218147Y1347907D01*
X217500Y1346345D01*
Y1344655D01*
X218147Y1343093D01*
X219343Y1341897D01*
X220905Y1341250D01*
X222595D01*
X223091Y1341455D01*
X225213Y1339333D01*
Y1333930D01*
X223963Y1333141D01*
X223095Y1333500D01*
X221405D01*
X219843Y1332853D01*
X218647Y1331657D01*
X218000Y1330095D01*
Y1328405D01*
X218205Y1327909D01*
X215773Y1325477D01*
X215359Y1324857D01*
X215213Y1324125D01*
Y1301875D01*
X215359Y1301143D01*
X215773Y1300523D01*
X218205Y1298091D01*
X218000Y1297595D01*
Y1295905D01*
X218647Y1294343D01*
X219843Y1293147D01*
X221405Y1292500D01*
X223095D01*
X224657Y1293147D01*
X225853Y1294343D01*
X226500Y1295905D01*
Y1297595D01*
X225853Y1299157D01*
X224657Y1300353D01*
X223095Y1301000D01*
X221405D01*
X220909Y1300795D01*
X219037Y1302667D01*
Y1308070D01*
X220287Y1308860D01*
X221155Y1308500D01*
X222845D01*
X224407Y1309147D01*
X225603Y1310343D01*
X226250Y1311905D01*
Y1313595D01*
X225603Y1315157D01*
X224407Y1316353D01*
X223912Y1316558D01*
Y1319298D01*
X228477Y1323863D01*
X228891Y1324483D01*
X229037Y1325215D01*
Y1340125D01*
X228891Y1340857D01*
X228477Y1341477D01*
X225795Y1344159D01*
X226000Y1344655D01*
Y1346345D01*
X225353Y1347907D01*
X224157Y1349103D01*
X222595Y1349750D01*
D02*
G37*
G36*
X618750Y1322750D02*
X600250D01*
Y1307912D01*
X597308D01*
X597103Y1308407D01*
X595907Y1309603D01*
X594345Y1310250D01*
X592655D01*
X591093Y1309603D01*
X589897Y1308407D01*
X589250Y1306845D01*
Y1305155D01*
X589897Y1303593D01*
X591093Y1302397D01*
X592655Y1301750D01*
X594345D01*
X595907Y1302397D01*
X597103Y1303593D01*
X597308Y1304088D01*
X600250D01*
Y1287250D01*
X618750D01*
Y1322750D01*
D02*
G37*
G36*
X629345Y1307500D02*
X627655D01*
X626093Y1306853D01*
X624897Y1305657D01*
X624250Y1304095D01*
Y1302405D01*
X624897Y1300843D01*
X626093Y1299647D01*
X627655Y1299000D01*
X629345D01*
X630907Y1299647D01*
X632103Y1300843D01*
X632750Y1302405D01*
Y1304095D01*
X632103Y1305657D01*
X630907Y1306853D01*
X629345Y1307500D01*
D02*
G37*
G36*
X680750Y1322750D02*
X662250D01*
Y1287250D01*
X680750D01*
Y1322750D01*
D02*
G37*
G36*
X624221Y1282000D02*
X622530D01*
X620968Y1281353D01*
X619772Y1280157D01*
X619125Y1278595D01*
Y1276905D01*
X619772Y1275343D01*
X620968Y1274147D01*
X622530Y1273500D01*
X624221D01*
X625783Y1274147D01*
X626978Y1275343D01*
X627625Y1276905D01*
Y1278595D01*
X626978Y1280157D01*
X625783Y1281353D01*
X624221Y1282000D01*
D02*
G37*
G36*
X232000Y1282863D02*
X224000D01*
X221756Y1282417D01*
X219855Y1281146D01*
X218584Y1279244D01*
X218137Y1277000D01*
X218584Y1274757D01*
X219855Y1272855D01*
X221756Y1271584D01*
X224000Y1271137D01*
X232000D01*
X234244Y1271584D01*
X236145Y1272855D01*
X237416Y1274757D01*
X237863Y1277000D01*
X237416Y1279244D01*
X236145Y1281146D01*
X234244Y1282417D01*
X232000Y1282863D01*
D02*
G37*
G36*
X498595Y1277000D02*
X496905D01*
X495343Y1276353D01*
X494147Y1275157D01*
X493500Y1273595D01*
Y1271905D01*
X494147Y1270343D01*
X495343Y1269147D01*
X496905Y1268500D01*
X498595D01*
X500157Y1269147D01*
X501353Y1270343D01*
X502000Y1271905D01*
Y1273595D01*
X501353Y1275157D01*
X500157Y1276353D01*
X498595Y1277000D01*
D02*
G37*
G36*
X695500Y1264750D02*
X683000D01*
Y1259912D01*
X679000D01*
Y1264750D01*
X666500D01*
Y1251250D01*
X679000D01*
Y1256088D01*
X683000D01*
Y1253954D01*
X680648Y1251602D01*
X680234Y1250982D01*
X680088Y1250250D01*
Y1247805D01*
X678838Y1247235D01*
X677595Y1247750D01*
X675905D01*
X674343Y1247103D01*
X673817Y1246577D01*
X673000Y1246010D01*
X672183Y1246577D01*
X671657Y1247103D01*
X670095Y1247750D01*
X668405D01*
X666843Y1247103D01*
X665647Y1245907D01*
X665000Y1244345D01*
Y1242655D01*
X665647Y1241093D01*
X666843Y1239897D01*
X668405Y1239250D01*
X670095D01*
X671657Y1239897D01*
X672183Y1240423D01*
X673000Y1240990D01*
X673817Y1240423D01*
X674343Y1239897D01*
X675905Y1239250D01*
X677595D01*
X678838Y1239765D01*
X680088Y1239194D01*
Y1233000D01*
X664918D01*
X664048Y1234166D01*
X664250Y1234655D01*
Y1236345D01*
X663603Y1237907D01*
X662407Y1239103D01*
X660845Y1239750D01*
X659155D01*
X657593Y1239103D01*
X656397Y1237907D01*
X655750Y1236345D01*
Y1234655D01*
X656397Y1233093D01*
X657593Y1231897D01*
X659029Y1231302D01*
X659053Y1231216D01*
X658970Y1230016D01*
X658350Y1229602D01*
X653817Y1225068D01*
X652662Y1225546D01*
Y1239692D01*
X653157Y1239897D01*
X654353Y1241093D01*
X655000Y1242655D01*
Y1244345D01*
X654353Y1245907D01*
X653157Y1247103D01*
X651595Y1247750D01*
X649905D01*
X648343Y1247103D01*
X647147Y1245907D01*
X646500Y1244345D01*
Y1242655D01*
X647147Y1241093D01*
X648343Y1239897D01*
X648838Y1239692D01*
Y1233192D01*
X647673Y1232924D01*
X647588Y1232922D01*
X646407Y1234103D01*
X644845Y1234750D01*
X644332D01*
X643250Y1235405D01*
Y1237095D01*
X642603Y1238657D01*
X641407Y1239853D01*
X639845Y1240500D01*
X638155D01*
X636593Y1239853D01*
X635397Y1238657D01*
X634750Y1237095D01*
Y1235405D01*
X635397Y1233843D01*
X636593Y1232647D01*
X637088Y1232442D01*
Y1224603D01*
X637234Y1223871D01*
X637648Y1223251D01*
X637738Y1223161D01*
Y1216250D01*
X635450D01*
Y1210250D01*
X638924D01*
X639023Y1209989D01*
X639132Y1209000D01*
X638724Y1208728D01*
X635797Y1205800D01*
X627412D01*
Y1207688D01*
X627266Y1208419D01*
X626852Y1209040D01*
X617412Y1218480D01*
Y1220700D01*
X618500D01*
Y1229100D01*
X612500D01*
Y1220700D01*
X612500D01*
X612140Y1219599D01*
X608861D01*
X608500Y1220700D01*
X608500D01*
Y1229100D01*
X608758Y1229598D01*
X608853Y1229693D01*
X609500Y1231255D01*
Y1232946D01*
X608853Y1234508D01*
X607657Y1235703D01*
X606095Y1236350D01*
X604405D01*
X603867Y1236127D01*
X602760Y1235882D01*
X602358Y1236752D01*
X602075Y1237436D01*
X600879Y1238631D01*
X599317Y1239278D01*
X598741Y1240528D01*
X599000Y1241155D01*
Y1242845D01*
X598353Y1244407D01*
X597157Y1245603D01*
X595595Y1246250D01*
X593905D01*
X593037Y1245891D01*
X591787Y1246680D01*
Y1248500D01*
X598500D01*
Y1252838D01*
X602000D01*
Y1248500D01*
X614500D01*
Y1262000D01*
X602000D01*
Y1256662D01*
X598500D01*
Y1262000D01*
X586000D01*
Y1248500D01*
X587963D01*
Y1233527D01*
X588109Y1232796D01*
X588523Y1232176D01*
X603198Y1217500D01*
X602681Y1216250D01*
X597150D01*
Y1210250D01*
X605550D01*
Y1215641D01*
X605715Y1215776D01*
X614708D01*
X623434Y1207050D01*
X623216Y1205800D01*
X610911D01*
X610727Y1206075D01*
X609275Y1207527D01*
X608655Y1207942D01*
X607923Y1208087D01*
X600925D01*
X600194Y1207942D01*
X599574Y1207527D01*
X591945Y1199898D01*
X591095Y1200250D01*
X589405D01*
X587843Y1199603D01*
X586647Y1198407D01*
X586000Y1196845D01*
Y1195155D01*
X586647Y1193593D01*
X587843Y1192397D01*
X589405Y1191750D01*
X591095D01*
X592657Y1192397D01*
X593853Y1193593D01*
X594500Y1195155D01*
Y1196845D01*
X594441Y1196988D01*
X601250Y1203797D01*
X602500Y1203279D01*
Y1197400D01*
X605089D01*
X605273Y1197125D01*
X606725Y1195673D01*
X607345Y1195259D01*
X608077Y1195114D01*
X627923D01*
X628655Y1195259D01*
X629275Y1195673D01*
X630500Y1196898D01*
X631725Y1195673D01*
X632345Y1195259D01*
X633077Y1195114D01*
X637923D01*
X638655Y1195259D01*
X639275Y1195673D01*
X648809Y1205207D01*
X649963Y1204728D01*
Y1193500D01*
X649405D01*
X647843Y1192853D01*
X646647Y1191657D01*
X646000Y1190095D01*
Y1188405D01*
X646327Y1187615D01*
X646571Y1186784D01*
X645702Y1186106D01*
X645093Y1185853D01*
X643897Y1184657D01*
X643250Y1183095D01*
Y1181405D01*
X643897Y1179843D01*
X645093Y1178647D01*
X646655Y1178000D01*
X648345D01*
X649907Y1178647D01*
X651103Y1179843D01*
X651750Y1181405D01*
Y1183095D01*
X651423Y1183885D01*
X651179Y1184716D01*
X652048Y1185395D01*
X652657Y1185647D01*
X653853Y1186843D01*
X654500Y1188405D01*
Y1190095D01*
X653853Y1191657D01*
X654833Y1192310D01*
X654942Y1192355D01*
X656132Y1191164D01*
X656000Y1190845D01*
Y1189155D01*
X656647Y1187593D01*
X657843Y1186397D01*
X659405Y1185750D01*
X661095D01*
X662657Y1186397D01*
X663853Y1187593D01*
X664500Y1189155D01*
Y1190845D01*
X663972Y1192120D01*
X663853Y1192407D01*
Y1192408D01*
X663857Y1192446D01*
X664515Y1193478D01*
X664632Y1193500D01*
X665385Y1193500D01*
X667699D01*
X667947Y1192250D01*
X667593Y1192103D01*
X666397Y1190907D01*
X665750Y1189345D01*
Y1187655D01*
X666397Y1186093D01*
X667593Y1184897D01*
X669155Y1184250D01*
X669341D01*
X669859Y1183000D01*
X664398Y1177539D01*
X663984Y1176919D01*
X663838Y1176188D01*
Y1174250D01*
X659500D01*
Y1160750D01*
X672000D01*
Y1174250D01*
X667914D01*
X667766Y1175500D01*
X674095Y1181829D01*
X675250Y1181351D01*
Y1164750D01*
X691565D01*
X692043Y1163595D01*
X690135Y1161686D01*
X679623D01*
X678891Y1161541D01*
X678271Y1161126D01*
X673250Y1156105D01*
X672000Y1156623D01*
Y1157250D01*
X659500D01*
Y1143750D01*
X672000D01*
Y1148588D01*
X672625D01*
X673357Y1148734D01*
X673977Y1149148D01*
X675526Y1150697D01*
X675940Y1151318D01*
X676086Y1152049D01*
Y1153534D01*
X680415Y1157863D01*
X690926D01*
X691658Y1158008D01*
X692278Y1158423D01*
X698727Y1164872D01*
X699141Y1165492D01*
X699287Y1166223D01*
Y1215527D01*
X699141Y1216258D01*
X698727Y1216879D01*
X694379Y1221227D01*
X694250Y1221313D01*
Y1223500D01*
X686000D01*
X684750Y1223500D01*
X684750Y1224750D01*
Y1233000D01*
X683912D01*
Y1249458D01*
X685704Y1251250D01*
X695500D01*
Y1264750D01*
D02*
G37*
G36*
X270845Y1265500D02*
X269154D01*
X267592Y1264853D01*
X266397Y1263658D01*
X265750Y1262095D01*
Y1260405D01*
X266397Y1258843D01*
X267592Y1257647D01*
X269154Y1257000D01*
X270845D01*
X272407Y1257647D01*
X273603Y1258843D01*
X274250Y1260405D01*
Y1262095D01*
X273603Y1263658D01*
X272407Y1264853D01*
X270845Y1265500D01*
D02*
G37*
G36*
X254846D02*
X253155D01*
X251593Y1264853D01*
X250397Y1263658D01*
X249750Y1262095D01*
Y1260405D01*
X250397Y1258843D01*
X251593Y1257647D01*
X253155Y1257000D01*
X254846D01*
X256408Y1257647D01*
X257603Y1258843D01*
X258250Y1260405D01*
Y1262095D01*
X257603Y1263658D01*
X256408Y1264853D01*
X254846Y1265500D01*
D02*
G37*
G36*
X222346D02*
X220655D01*
X219093Y1264853D01*
X217897Y1263658D01*
X217250Y1262095D01*
Y1260405D01*
X217897Y1258843D01*
X219093Y1257647D01*
X220655Y1257000D01*
X222346D01*
X223908Y1257647D01*
X225103Y1258843D01*
X225751Y1260405D01*
Y1262095D01*
X225103Y1263658D01*
X223908Y1264853D01*
X222346Y1265500D01*
D02*
G37*
G36*
X238596Y1265000D02*
X236905D01*
X235343Y1264353D01*
X234147Y1263158D01*
X233500Y1261596D01*
Y1259905D01*
X234147Y1258343D01*
X235343Y1257147D01*
X236905Y1256500D01*
X238596D01*
X240158Y1257147D01*
X241353Y1258343D01*
X242000Y1259905D01*
Y1261596D01*
X241353Y1263158D01*
X240158Y1264353D01*
X238596Y1265000D01*
D02*
G37*
G36*
X548470Y1263000D02*
X546780D01*
X545218Y1262353D01*
X544022Y1261157D01*
X543375Y1259595D01*
Y1257905D01*
X544022Y1256343D01*
X545218Y1255147D01*
X546780Y1254500D01*
X548470D01*
X550033Y1255147D01*
X551228Y1256343D01*
X551875Y1257905D01*
Y1259595D01*
X551228Y1261157D01*
X550033Y1262353D01*
X548470Y1263000D01*
D02*
G37*
G36*
X724500Y1264250D02*
X711000D01*
Y1250750D01*
X724500D01*
Y1264250D01*
D02*
G37*
G36*
X649596Y1282000D02*
X647905D01*
X646343Y1281353D01*
X645147Y1280157D01*
X644500Y1278595D01*
Y1276904D01*
X645147Y1275342D01*
X646338Y1274151D01*
Y1262750D01*
X641500D01*
Y1250250D01*
X655000D01*
Y1262750D01*
X650162D01*
Y1273734D01*
X651158Y1274147D01*
X652353Y1275342D01*
X653000Y1276904D01*
Y1278595D01*
X652353Y1280157D01*
X651158Y1281353D01*
X649596Y1282000D01*
D02*
G37*
G36*
X397720Y1256250D02*
X396030D01*
X394468Y1255603D01*
X393272Y1254407D01*
X392625Y1252845D01*
Y1251155D01*
X393272Y1249593D01*
X394468Y1248397D01*
X396030Y1247750D01*
X397720D01*
X399282Y1248397D01*
X400478Y1249593D01*
X401125Y1251155D01*
Y1252845D01*
X400478Y1254407D01*
X399282Y1255603D01*
X397720Y1256250D01*
D02*
G37*
G36*
X564345Y1248500D02*
X562655D01*
X561093Y1247853D01*
X559897Y1246657D01*
X559250Y1245095D01*
Y1243405D01*
X559897Y1241843D01*
X561093Y1240647D01*
X562655Y1240000D01*
X564345D01*
X565907Y1240647D01*
X567103Y1241843D01*
X567750Y1243405D01*
Y1245095D01*
X567103Y1246657D01*
X565907Y1247853D01*
X564345Y1248500D01*
D02*
G37*
G36*
X609470Y1247000D02*
X607780D01*
X606218Y1246353D01*
X605022Y1245157D01*
X604375Y1243595D01*
Y1241905D01*
X605022Y1240342D01*
X606218Y1239147D01*
X607780Y1238500D01*
X609470D01*
X611033Y1239147D01*
X612228Y1240342D01*
X612875Y1241905D01*
Y1243595D01*
X612228Y1245157D01*
X611033Y1246353D01*
X609470Y1247000D01*
D02*
G37*
G36*
X692595Y1246750D02*
X690905D01*
X689343Y1246103D01*
X688147Y1244907D01*
X687500Y1243345D01*
Y1241655D01*
X688147Y1240093D01*
X689343Y1238897D01*
X690905Y1238250D01*
X692595D01*
X694157Y1238897D01*
X695353Y1240093D01*
X696000Y1241655D01*
Y1243345D01*
X695353Y1244907D01*
X694157Y1246103D01*
X692595Y1246750D01*
D02*
G37*
G36*
X222845Y1248500D02*
X221155D01*
X219593Y1247853D01*
X218397Y1246657D01*
X217750Y1245095D01*
Y1243405D01*
X218397Y1241843D01*
X219593Y1240647D01*
X221155Y1240000D01*
X222845D01*
X224407Y1240647D01*
X225599Y1241838D01*
X233528D01*
X234147Y1240343D01*
X235343Y1239147D01*
X236905Y1238500D01*
X238595D01*
X240157Y1239147D01*
X241353Y1240343D01*
X241973Y1241838D01*
X249750D01*
Y1240780D01*
X250397Y1239218D01*
X251593Y1238022D01*
X253155Y1237375D01*
X254845D01*
X256407Y1238022D01*
X257603Y1239218D01*
X257814Y1239728D01*
X265186D01*
X265397Y1239218D01*
X266593Y1238022D01*
X268155Y1237375D01*
X269845D01*
X271407Y1238022D01*
X272603Y1239218D01*
X272814Y1239728D01*
X281929D01*
X282134Y1239232D01*
X283330Y1238036D01*
X284892Y1237389D01*
X286583D01*
X288145Y1238036D01*
X289340Y1239232D01*
X289987Y1240794D01*
Y1242485D01*
X289340Y1244047D01*
X288145Y1245242D01*
X286583Y1245889D01*
X284892D01*
X283330Y1245242D01*
X282134Y1244047D01*
X281929Y1243551D01*
X272802D01*
X272603Y1244032D01*
X271407Y1245228D01*
X269845Y1245875D01*
X268155D01*
X266593Y1245228D01*
X265397Y1244032D01*
X265198Y1243551D01*
X257802D01*
X257603Y1244032D01*
X256407Y1245228D01*
X254845Y1245875D01*
X253155D01*
X251879Y1245346D01*
X251624Y1245516D01*
X250893Y1245662D01*
X240857D01*
X240850Y1245660D01*
X240157Y1246353D01*
X238595Y1247000D01*
X236905D01*
X235343Y1246353D01*
X234650Y1245660D01*
X234643Y1245662D01*
X226015D01*
X225603Y1246657D01*
X224407Y1247853D01*
X222845Y1248500D01*
D02*
G37*
G36*
X261752Y1237901D02*
X260061D01*
X258499Y1237254D01*
X257303Y1236058D01*
X256656Y1234496D01*
Y1232806D01*
X257303Y1231244D01*
X258499Y1230048D01*
X260061Y1229401D01*
X261752D01*
X263314Y1230048D01*
X264509Y1231244D01*
X265156Y1232806D01*
Y1234496D01*
X264509Y1236058D01*
X263314Y1237254D01*
X261752Y1237901D01*
D02*
G37*
G36*
X722345Y1228250D02*
X720655D01*
X719093Y1227603D01*
X717897Y1226407D01*
X717250Y1224845D01*
Y1224064D01*
X716000Y1223229D01*
X715345Y1223500D01*
X713655D01*
X712093Y1222853D01*
X710897Y1221657D01*
X710250Y1220095D01*
Y1218405D01*
X710897Y1216843D01*
X712093Y1215647D01*
X713655Y1215000D01*
X715345D01*
X716907Y1215647D01*
X718103Y1216843D01*
X718750Y1218405D01*
Y1219186D01*
X720000Y1220021D01*
X720655Y1219750D01*
X722345D01*
X723907Y1220397D01*
X725103Y1221593D01*
X725750Y1223155D01*
Y1224845D01*
X725103Y1226407D01*
X723907Y1227603D01*
X722345Y1228250D01*
D02*
G37*
G36*
X624221Y1271250D02*
X622530D01*
X620968Y1270603D01*
X619772Y1269407D01*
X619125Y1267845D01*
Y1266155D01*
X619772Y1264593D01*
X620968Y1263397D01*
X621464Y1263192D01*
Y1251576D01*
X621609Y1250845D01*
X622023Y1250225D01*
X621699Y1248781D01*
X620968Y1248478D01*
X619772Y1247282D01*
X619125Y1245720D01*
Y1244030D01*
X619772Y1242468D01*
X620968Y1241272D01*
X622530Y1240625D01*
X624221D01*
X625053Y1240970D01*
X626071Y1240334D01*
X626165Y1239053D01*
X624148Y1237037D01*
X623734Y1236416D01*
X623588Y1235685D01*
Y1229100D01*
X622500D01*
Y1220700D01*
X628500D01*
Y1229100D01*
X627412D01*
Y1234893D01*
X629602Y1237083D01*
X630016Y1237703D01*
X630162Y1238435D01*
Y1246894D01*
X630016Y1247626D01*
X629602Y1248246D01*
X628753Y1249095D01*
X629231Y1250250D01*
X638000D01*
Y1262750D01*
X626903D01*
X626385Y1264000D01*
X626978Y1264593D01*
X627625Y1266155D01*
Y1267845D01*
X626978Y1269407D01*
X625783Y1270603D01*
X624221Y1271250D01*
D02*
G37*
G36*
X291845Y1237375D02*
X290155D01*
X288593Y1236728D01*
X287397Y1235533D01*
X286750Y1233970D01*
Y1232280D01*
X285735Y1231982D01*
X285114Y1231568D01*
X251973Y1198427D01*
X251559Y1197807D01*
X251539Y1197707D01*
X250239Y1197579D01*
X250103Y1197907D01*
X248907Y1199103D01*
X247345Y1199750D01*
X245655D01*
X244093Y1199103D01*
X242897Y1197907D01*
X242250Y1196345D01*
Y1194655D01*
X242897Y1193093D01*
X244093Y1191897D01*
X245655Y1191250D01*
X247345D01*
X248907Y1191897D01*
X250103Y1193093D01*
X250163Y1193238D01*
X251413Y1192989D01*
Y1141634D01*
X251559Y1140902D01*
X251973Y1140282D01*
X253913Y1138342D01*
Y1134500D01*
X236000D01*
Y1124000D01*
X252163D01*
X252641Y1122845D01*
X251796Y1122000D01*
X236000D01*
Y1111500D01*
X254500D01*
Y1119296D01*
X257177Y1121973D01*
X257591Y1122594D01*
X257737Y1123325D01*
Y1139134D01*
X257591Y1139865D01*
X257177Y1140485D01*
X256794Y1140868D01*
X257502Y1141927D01*
X257607Y1141884D01*
X260031D01*
X260293Y1141709D01*
X261025Y1141563D01*
X261234D01*
Y1140758D01*
X261680Y1139680D01*
X262588Y1139304D01*
Y1126000D01*
X260000D01*
Y1112500D01*
X272500D01*
Y1117338D01*
X276250D01*
Y1112500D01*
X288750D01*
Y1126000D01*
X289860Y1126338D01*
X290645D01*
X291022Y1125429D01*
X292218Y1124233D01*
X293780Y1123586D01*
X295470D01*
X297032Y1124233D01*
X298228Y1125429D01*
X298875Y1126991D01*
Y1128682D01*
X298228Y1130244D01*
X297032Y1131439D01*
X295648Y1132013D01*
X295454Y1132803D01*
X295442Y1133336D01*
X296543Y1134437D01*
X297125Y1135842D01*
X297781D01*
X298513Y1135987D01*
X299133Y1136402D01*
X299232Y1136500D01*
X300936D01*
X301555Y1135262D01*
X301543Y1135224D01*
X301419Y1134600D01*
Y1132500D01*
X301543Y1131875D01*
X301803Y1131050D01*
X301543Y1130224D01*
X301419Y1129600D01*
Y1127499D01*
X301543Y1126875D01*
X301803Y1126050D01*
X301543Y1125224D01*
X301419Y1124600D01*
Y1122500D01*
X301543Y1121876D01*
X301897Y1121346D01*
Y1120753D01*
X301543Y1120224D01*
X301419Y1119600D01*
Y1117499D01*
X301543Y1116875D01*
X301803Y1116050D01*
X301543Y1115224D01*
X301419Y1114600D01*
Y1112500D01*
X301543Y1111876D01*
X301897Y1111346D01*
Y1110753D01*
X301543Y1110224D01*
X301419Y1109600D01*
Y1107499D01*
X301543Y1106875D01*
X301803Y1106050D01*
X301543Y1105224D01*
X301419Y1104600D01*
Y1102500D01*
X301543Y1101876D01*
X301897Y1101346D01*
X302426Y1100993D01*
X303050Y1100868D01*
X317050D01*
X317675Y1100993D01*
X318204Y1101346D01*
X318399Y1101638D01*
X322895D01*
X323627Y1101784D01*
X324247Y1102198D01*
X330084Y1108036D01*
X331527Y1107710D01*
X331886Y1106842D01*
X332736Y1105993D01*
Y1102208D01*
X332881Y1101476D01*
X333296Y1100856D01*
X339921Y1094231D01*
X339731Y1093423D01*
X339439Y1092981D01*
X338200D01*
X337576Y1092857D01*
X336750Y1092596D01*
X335925Y1092857D01*
X335300Y1092981D01*
X333200D01*
X332576Y1092857D01*
X331750Y1092596D01*
X330924Y1092857D01*
X330300Y1092981D01*
X328200D01*
X327576Y1092857D01*
X327047Y1092503D01*
X326693Y1091974D01*
X326569Y1091349D01*
Y1077349D01*
X326693Y1076725D01*
X327047Y1076196D01*
X327576Y1075842D01*
X327829Y1075792D01*
Y1072545D01*
X327668Y1072478D01*
X326473Y1071283D01*
X325826Y1069721D01*
Y1068030D01*
X326473Y1066468D01*
X327668Y1065272D01*
X329230Y1064625D01*
X330921D01*
X330932Y1064630D01*
X331997Y1064034D01*
X331435Y1063375D01*
X330707D01*
X329145Y1062728D01*
X327949Y1061533D01*
X327302Y1059970D01*
Y1058280D01*
X327949Y1056718D01*
X329145Y1055522D01*
X330707Y1054875D01*
X332397D01*
X333959Y1055522D01*
X335155Y1056718D01*
X335802Y1058280D01*
Y1059970D01*
X335401Y1060938D01*
X336459Y1061996D01*
X336750Y1062432D01*
X337532Y1062387D01*
X338000Y1062224D01*
Y1055750D01*
X351500D01*
Y1068250D01*
X343894D01*
X343418Y1069500D01*
X344000Y1070905D01*
Y1072595D01*
X343353Y1074157D01*
X343008Y1074502D01*
X343056Y1074807D01*
X343560Y1075718D01*
X345300D01*
X345925Y1075842D01*
X346750Y1076103D01*
X347576Y1075842D01*
X348200Y1075718D01*
X350300D01*
X350924Y1075842D01*
X351750Y1076102D01*
X352576Y1075842D01*
X353200Y1075718D01*
X355300D01*
X355925Y1075842D01*
X356750Y1076103D01*
X357576Y1075842D01*
X358200Y1075718D01*
X360300D01*
X360924Y1075842D01*
X361750Y1076102D01*
X362576Y1075842D01*
X363200Y1075718D01*
X365300D01*
X365925Y1075842D01*
X366750Y1076103D01*
X367576Y1075842D01*
X368200Y1075718D01*
X370300D01*
X370428Y1075743D01*
X371599Y1075082D01*
X371762Y1074898D01*
X371867Y1074321D01*
X365796Y1068250D01*
X355000D01*
Y1055750D01*
X365796D01*
X368093Y1053453D01*
Y1039347D01*
X368238Y1038616D01*
X368653Y1037995D01*
X389000Y1017648D01*
X389620Y1017234D01*
X390352Y1017088D01*
X500055D01*
X501099Y1016724D01*
X501430Y1016184D01*
X501872Y1015118D01*
X502490Y1014500D01*
X501972Y1013250D01*
X500600D01*
Y1007806D01*
X500477Y1007683D01*
X499830Y1006121D01*
Y1004430D01*
X500477Y1002868D01*
X500600Y1002745D01*
Y998750D01*
X507600D01*
Y1002785D01*
X507683Y1002868D01*
X508330Y1004430D01*
Y1006121D01*
X507683Y1007683D01*
X507600Y1007766D01*
X507600Y1012789D01*
X507794Y1013569D01*
X508208Y1014248D01*
X509078Y1015118D01*
X509725Y1016680D01*
Y1018371D01*
X510597Y1019531D01*
X511061Y1019583D01*
X516240Y1014405D01*
X515761Y1013250D01*
X513300D01*
Y1008503D01*
X513177Y1008380D01*
X512530Y1006817D01*
Y1005127D01*
X513177Y1003565D01*
X513300Y1003441D01*
Y998750D01*
X520300D01*
Y1003482D01*
X520383Y1003565D01*
X521030Y1005127D01*
Y1006817D01*
X520383Y1008379D01*
X521186Y1009344D01*
X521550Y1009547D01*
X521973Y1009463D01*
X524922D01*
X525118Y1009283D01*
X525654Y1008213D01*
X525180Y1007067D01*
Y1005377D01*
X525827Y1003815D01*
X526000Y1003642D01*
Y998750D01*
X533000D01*
Y1003782D01*
X533033Y1003815D01*
X533680Y1005377D01*
Y1007067D01*
X533033Y1008630D01*
X533000Y1008662D01*
Y1013250D01*
X528060D01*
X527875Y1013287D01*
X522765D01*
X514218Y1021834D01*
X514696Y1022989D01*
X526258D01*
X538700Y1010546D01*
Y1008802D01*
X538527Y1008630D01*
X537880Y1007067D01*
Y1005377D01*
X538527Y1003815D01*
X538700Y1003642D01*
Y998750D01*
X545700D01*
Y1003782D01*
X545733Y1003815D01*
X546380Y1005377D01*
Y1007067D01*
X545733Y1008630D01*
X545700Y1008662D01*
Y1013250D01*
X541403D01*
X533946Y1020708D01*
X534464Y1021958D01*
X534770D01*
X536332Y1022605D01*
X537527Y1023800D01*
X537925Y1024760D01*
X539329Y1025531D01*
X539405Y1025500D01*
X541095D01*
X542657Y1026147D01*
X543853Y1027343D01*
X544500Y1028905D01*
Y1030595D01*
X543853Y1032157D01*
X542657Y1033353D01*
X541095Y1034000D01*
X539405D01*
X537843Y1033353D01*
X536647Y1032157D01*
X536250Y1031198D01*
X534845Y1030426D01*
X534770Y1030458D01*
X533079D01*
X531517Y1029811D01*
X530321Y1028615D01*
X529674Y1027053D01*
Y1026747D01*
X528424Y1026229D01*
X528401Y1026252D01*
X527781Y1026667D01*
X527049Y1026812D01*
X502420D01*
X501750Y1026679D01*
X501669Y1026675D01*
X500716Y1027081D01*
X500449Y1027342D01*
X499853Y1028782D01*
X498657Y1029978D01*
X497095Y1030625D01*
X495405D01*
X493843Y1029978D01*
X492647Y1028782D01*
X492000Y1027220D01*
Y1025530D01*
X492360Y1024662D01*
X491570Y1023412D01*
X463930D01*
X463140Y1024662D01*
X463500Y1025530D01*
Y1027220D01*
X462853Y1028782D01*
X461657Y1029978D01*
X460095Y1030625D01*
X458405D01*
X456843Y1029978D01*
X455647Y1028782D01*
X455000Y1027220D01*
Y1025530D01*
X455359Y1024662D01*
X454570Y1023412D01*
X397398D01*
X395714Y1025095D01*
X396040Y1026537D01*
X396907Y1026897D01*
X398103Y1028093D01*
X398750Y1029655D01*
Y1031345D01*
X398742Y1031365D01*
X399792Y1032095D01*
X400500Y1031520D01*
Y1030405D01*
X401147Y1028843D01*
X402343Y1027647D01*
X403905Y1027000D01*
X405595D01*
X407157Y1027647D01*
X408353Y1028843D01*
X409000Y1030405D01*
Y1032095D01*
X408353Y1033657D01*
X407157Y1034853D01*
X405595Y1035500D01*
X403905D01*
X402526Y1034929D01*
X401110Y1036345D01*
X401589Y1037500D01*
X404050D01*
Y1043718D01*
X404530Y1044877D01*
Y1046567D01*
X404050Y1047726D01*
Y1052000D01*
X397050D01*
Y1050395D01*
X395800Y1050016D01*
X395728Y1050124D01*
X392227Y1053625D01*
Y1054190D01*
X392641Y1054810D01*
X392787Y1055541D01*
Y1056000D01*
X405000D01*
Y1068500D01*
X396038D01*
X395748Y1069200D01*
X395638Y1069750D01*
X396017Y1070317D01*
X396162Y1071049D01*
Y1075398D01*
X396250Y1075478D01*
X397412Y1075952D01*
X397576Y1075842D01*
X398201Y1075718D01*
X400300D01*
X400925Y1075842D01*
X401454Y1076196D01*
X401808Y1076725D01*
X401932Y1077349D01*
Y1091349D01*
X401912Y1091449D01*
Y1126091D01*
X402662Y1126402D01*
X403652Y1127391D01*
X403897Y1127343D01*
X405093Y1126147D01*
X406655Y1125500D01*
X408345D01*
X409907Y1126147D01*
X411103Y1127343D01*
X411388Y1127399D01*
X412338Y1126560D01*
Y1093301D01*
X412252Y1093223D01*
X411168Y1092780D01*
X410925Y1092857D01*
X410300Y1092981D01*
X408201D01*
X407576Y1092857D01*
X407047Y1092503D01*
X406693Y1091974D01*
X406569Y1091349D01*
Y1077349D01*
X406693Y1076725D01*
X407047Y1076196D01*
X407576Y1075842D01*
X408201Y1075718D01*
X409514D01*
X409874Y1075180D01*
X411030Y1074023D01*
X411651Y1073608D01*
X412322Y1073475D01*
X427398Y1058398D01*
X428018Y1057984D01*
X428750Y1057838D01*
X446106D01*
X460292Y1043653D01*
X459750Y1042345D01*
Y1040655D01*
X460397Y1039093D01*
X461593Y1037897D01*
X463155Y1037250D01*
X464845D01*
X466407Y1037897D01*
X467603Y1039093D01*
X468250Y1040655D01*
Y1042325D01*
X468310Y1042383D01*
X469324Y1043019D01*
X469503Y1042840D01*
X471065Y1042193D01*
X472756D01*
X474318Y1042840D01*
X475513Y1044035D01*
X476161Y1045597D01*
Y1047288D01*
X475513Y1048850D01*
X474446Y1049918D01*
X473853Y1051093D01*
X474500Y1052655D01*
Y1054345D01*
X473853Y1055907D01*
X472657Y1057103D01*
X472627Y1057115D01*
X472452Y1058463D01*
X474727Y1060738D01*
X475141Y1061358D01*
X475287Y1062089D01*
Y1067892D01*
X476537Y1068409D01*
X482838Y1062108D01*
Y1057808D01*
X482343Y1057603D01*
X481147Y1056407D01*
X480500Y1054845D01*
Y1053155D01*
X481147Y1051593D01*
X482343Y1050397D01*
X483905Y1049750D01*
X485595D01*
X487157Y1050397D01*
X488353Y1051593D01*
X489000Y1053155D01*
Y1054845D01*
X488353Y1056407D01*
X487157Y1057603D01*
X486662Y1057808D01*
Y1062900D01*
X486516Y1063631D01*
X486102Y1064252D01*
X475862Y1074492D01*
X476123Y1075665D01*
X477293Y1076031D01*
X477576Y1075842D01*
X478200Y1075718D01*
X480300D01*
X480925Y1075842D01*
X481750Y1076103D01*
X482576Y1075842D01*
X483200Y1075718D01*
X485300D01*
X485924Y1075842D01*
X486750Y1076102D01*
X487576Y1075842D01*
X488200Y1075718D01*
X490300D01*
X490925Y1075842D01*
X491750Y1076103D01*
X492576Y1075842D01*
X493200Y1075718D01*
X494228D01*
X499733Y1070213D01*
X499596Y1068958D01*
X499343Y1068853D01*
X498147Y1067657D01*
X497500Y1066095D01*
Y1064405D01*
X498147Y1062843D01*
X499343Y1061647D01*
X500905Y1061000D01*
X502596D01*
X504158Y1061647D01*
X505353Y1062843D01*
X506000Y1064405D01*
Y1066095D01*
X505353Y1067657D01*
X504158Y1068853D01*
X503662Y1069058D01*
Y1070899D01*
X503516Y1071631D01*
X503102Y1072251D01*
X501207Y1074146D01*
X501437Y1075534D01*
X502269Y1075939D01*
X502576Y1075842D01*
X503200Y1075718D01*
X505300D01*
X505924Y1075842D01*
X506454Y1076196D01*
X506807Y1076725D01*
X506931Y1077349D01*
Y1082290D01*
X508181Y1082808D01*
X508593Y1082397D01*
X510155Y1081750D01*
X511845D01*
X513407Y1082397D01*
X514603Y1083593D01*
X515250Y1085155D01*
Y1086845D01*
X514603Y1088407D01*
X513407Y1089603D01*
X511845Y1090250D01*
X510155D01*
X508593Y1089603D01*
X508181Y1089192D01*
X506931Y1089710D01*
Y1091349D01*
X506807Y1091974D01*
X506454Y1092503D01*
X505924Y1092857D01*
X505300Y1092981D01*
X503200D01*
X502576Y1092857D01*
X502332Y1092780D01*
X501249Y1093222D01*
X501162Y1093301D01*
Y1102977D01*
X502412Y1103459D01*
X503267Y1102604D01*
X504829Y1101957D01*
X506520D01*
X508082Y1102604D01*
X509277Y1103800D01*
X509924Y1105362D01*
Y1105992D01*
X511174Y1106827D01*
X511240Y1106800D01*
X512930D01*
X514492Y1107447D01*
X515688Y1108642D01*
X516335Y1110204D01*
Y1110774D01*
X516451Y1110868D01*
X529378D01*
X529809Y1110438D01*
X530024Y1110115D01*
X530514Y1109626D01*
Y1106283D01*
X530450Y1106231D01*
X516451D01*
X515826Y1106107D01*
X515297Y1105753D01*
X514943Y1105224D01*
X514819Y1104600D01*
Y1102500D01*
X514943Y1101876D01*
X515297Y1101346D01*
X515826Y1100993D01*
X516451Y1100868D01*
X521588D01*
Y1093058D01*
X521093Y1092853D01*
X519897Y1091657D01*
X519250Y1090095D01*
Y1088405D01*
X519897Y1086843D01*
X521093Y1085647D01*
X522655Y1085000D01*
X524345D01*
X525907Y1085647D01*
X527103Y1086843D01*
X527750Y1088405D01*
Y1090095D01*
X527103Y1091657D01*
X525907Y1092853D01*
X525412Y1093058D01*
Y1100868D01*
X530450D01*
X530514Y1100816D01*
Y1091824D01*
X530659Y1091093D01*
X531074Y1090473D01*
X539150Y1082396D01*
X539113Y1082118D01*
X539000Y1081845D01*
Y1081271D01*
X538988Y1081181D01*
X537750Y1080354D01*
X537095Y1080625D01*
X535405D01*
X533843Y1079978D01*
X532647Y1078783D01*
X532000Y1077220D01*
Y1075530D01*
X532647Y1073968D01*
X533843Y1072772D01*
X535405Y1072125D01*
X537095D01*
X538657Y1072772D01*
X539853Y1073968D01*
X540500Y1075530D01*
Y1076186D01*
X541750Y1077021D01*
X542405Y1076750D01*
X544095D01*
X545657Y1077397D01*
X546853Y1078593D01*
X547500Y1080155D01*
Y1081845D01*
X546853Y1083407D01*
X545657Y1084603D01*
X544095Y1085250D01*
X542405D01*
X541909Y1085045D01*
X534337Y1092616D01*
Y1106028D01*
X535492Y1106506D01*
X544475Y1097523D01*
X545095Y1097109D01*
X545827Y1096963D01*
X562625D01*
X563357Y1097109D01*
X563977Y1097523D01*
X564409Y1097955D01*
X564905Y1097750D01*
X566595D01*
X568157Y1098397D01*
X569353Y1099593D01*
X570000Y1101155D01*
Y1102845D01*
X569353Y1104407D01*
X568157Y1105603D01*
X566595Y1106250D01*
X564905D01*
X563343Y1105603D01*
X562147Y1104407D01*
X561500Y1102845D01*
Y1101155D01*
X561254Y1100787D01*
X556680D01*
X555891Y1102037D01*
X556250Y1102905D01*
Y1104595D01*
X555603Y1106157D01*
X554407Y1107353D01*
X553662Y1107662D01*
Y1136750D01*
X553516Y1137482D01*
X553102Y1138102D01*
X551302Y1139901D01*
X550682Y1140316D01*
X549951Y1140461D01*
X532402D01*
X532322Y1140549D01*
X531848Y1141711D01*
X531958Y1141875D01*
X532082Y1142500D01*
Y1144600D01*
X531958Y1145224D01*
X531697Y1146050D01*
X531958Y1146875D01*
X532082Y1147499D01*
Y1149599D01*
X531958Y1150224D01*
X531604Y1150753D01*
Y1151346D01*
X531958Y1151875D01*
X532082Y1152500D01*
Y1154600D01*
X532020Y1154912D01*
X533197Y1155400D01*
X533298Y1155248D01*
X536500Y1152047D01*
Y1142250D01*
X550000D01*
Y1154750D01*
X539204D01*
X537704Y1156250D01*
X538222Y1157500D01*
X550750D01*
Y1170000D01*
X537250D01*
Y1165662D01*
X534991D01*
X532082Y1168572D01*
Y1169599D01*
X531958Y1170224D01*
X531604Y1170753D01*
X531075Y1171107D01*
X530451Y1171231D01*
X516451D01*
X515826Y1171107D01*
X515297Y1170753D01*
X514943Y1170224D01*
X514819Y1169599D01*
Y1167499D01*
X514943Y1166875D01*
X515204Y1166049D01*
X514943Y1165224D01*
X514819Y1164600D01*
Y1162500D01*
X514943Y1161875D01*
X515053Y1161711D01*
X514579Y1160549D01*
X514499Y1160461D01*
X503141D01*
X502853Y1161157D01*
X501657Y1162353D01*
X500095Y1163000D01*
X498405D01*
X496843Y1162353D01*
X495647Y1161157D01*
X495000Y1159595D01*
Y1157905D01*
X495359Y1157037D01*
X494570Y1155787D01*
X490042D01*
X489886Y1155943D01*
X489266Y1156357D01*
X488534Y1156503D01*
X487935D01*
X487353Y1157907D01*
X486157Y1159103D01*
X484595Y1159750D01*
X482905D01*
X481343Y1159103D01*
X480147Y1157907D01*
X479500Y1156345D01*
Y1154655D01*
X479773Y1153994D01*
X479208Y1153413D01*
X478765Y1153162D01*
X477345Y1153750D01*
X475655D01*
X474093Y1153103D01*
X472897Y1151907D01*
X472250Y1150345D01*
Y1148655D01*
X472897Y1147093D01*
X474093Y1145897D01*
X475655Y1145250D01*
X477345D01*
X478907Y1145897D01*
X480103Y1147093D01*
X480308Y1147588D01*
X485264D01*
X494909Y1137943D01*
X494584Y1136500D01*
X493716Y1136141D01*
X492520Y1134945D01*
X491873Y1133383D01*
Y1131693D01*
X492520Y1130130D01*
X493716Y1128935D01*
X494713Y1128522D01*
Y1127663D01*
X494859Y1126931D01*
X495273Y1126311D01*
X495338Y1126246D01*
Y1115650D01*
X495484Y1114918D01*
X495898Y1114298D01*
X497339Y1112858D01*
Y1093301D01*
X497251Y1093221D01*
X496089Y1092747D01*
X495924Y1092857D01*
X495300Y1092981D01*
X493200D01*
X492576Y1092857D01*
X491750Y1092596D01*
X490925Y1092857D01*
X490537Y1092934D01*
Y1099277D01*
X491603Y1100343D01*
X492250Y1101905D01*
Y1103595D01*
X491603Y1105157D01*
X490407Y1106353D01*
X488845Y1107000D01*
X487155D01*
X485593Y1106353D01*
X484397Y1105157D01*
X483750Y1103595D01*
Y1101905D01*
X484397Y1100343D01*
X485593Y1099147D01*
X486713Y1098683D01*
Y1093833D01*
X486529Y1093605D01*
X485463Y1092948D01*
X485300Y1092981D01*
X483200D01*
X482576Y1092857D01*
X482332Y1092780D01*
X481249Y1093222D01*
X481162Y1093301D01*
Y1124504D01*
X482165D01*
X483727Y1125152D01*
X484923Y1126347D01*
X485570Y1127909D01*
Y1129600D01*
X484923Y1131162D01*
X483727Y1132357D01*
X482165Y1133005D01*
X480474D01*
X478912Y1132357D01*
X477717Y1131162D01*
X477070Y1129600D01*
Y1127909D01*
X477683Y1126429D01*
X477484Y1126132D01*
X477339Y1125400D01*
Y1106555D01*
X476089Y1105839D01*
X475095Y1106250D01*
X473405D01*
X471843Y1105603D01*
X470647Y1104407D01*
X470000Y1102845D01*
Y1101155D01*
X470647Y1099593D01*
X471843Y1098397D01*
X472338Y1098192D01*
Y1093301D01*
X472251Y1093222D01*
X471168Y1092780D01*
X470925Y1092857D01*
X470300Y1092981D01*
X468200D01*
X467576Y1092857D01*
X467047Y1092503D01*
X466454D01*
X465924Y1092857D01*
X465300Y1092981D01*
X463200D01*
X462576Y1092857D01*
X461750Y1092596D01*
X460925Y1092857D01*
X460300Y1092981D01*
X458200D01*
X457576Y1092857D01*
X457047Y1092503D01*
X456454D01*
X455924Y1092857D01*
X455300Y1092981D01*
X453200D01*
X452576Y1092857D01*
X451750Y1092596D01*
X450925Y1092857D01*
X450300Y1092981D01*
X448200D01*
X447576Y1092857D01*
X446750Y1092596D01*
X445924Y1092857D01*
X445300Y1092981D01*
X443200D01*
X442576Y1092857D01*
X441750Y1092596D01*
X440925Y1092857D01*
X440300Y1092981D01*
X438200D01*
X437576Y1092857D01*
X437332Y1092780D01*
X436250Y1093221D01*
X436162Y1093301D01*
Y1125208D01*
X436943Y1125989D01*
X437357Y1126609D01*
X437497Y1127313D01*
X438907Y1127897D01*
X440103Y1129093D01*
X440750Y1130655D01*
Y1132345D01*
X440103Y1133907D01*
X438907Y1135103D01*
X437345Y1135750D01*
X435655D01*
X434387Y1135225D01*
X433137Y1135781D01*
Y1145825D01*
X432991Y1146556D01*
X432577Y1147176D01*
X431546Y1148207D01*
X430926Y1148622D01*
X430194Y1148767D01*
X397438D01*
X396706Y1148622D01*
X396086Y1148207D01*
X395577Y1147698D01*
X394245Y1148250D01*
X392554D01*
X390992Y1147603D01*
X389797Y1146407D01*
X389150Y1144845D01*
Y1143154D01*
X389509Y1142286D01*
X388771Y1141119D01*
X387548Y1141043D01*
X386045Y1142547D01*
X386250Y1143043D01*
Y1144733D01*
X385603Y1146295D01*
X384407Y1147491D01*
X382845Y1148138D01*
X381155D01*
X379593Y1147491D01*
X378397Y1146295D01*
X377750Y1144733D01*
Y1143043D01*
X378397Y1141481D01*
X379593Y1140285D01*
X380796Y1139786D01*
X380548Y1138536D01*
X377917D01*
X375295Y1141159D01*
X375500Y1141655D01*
Y1143345D01*
X374853Y1144907D01*
X373657Y1146103D01*
X372095Y1146750D01*
X370405D01*
X368843Y1146103D01*
X367647Y1144907D01*
X367000Y1143345D01*
Y1141655D01*
X367647Y1140093D01*
X368843Y1138897D01*
X370405Y1138250D01*
X372095D01*
X372591Y1138455D01*
X375135Y1135912D01*
X374617Y1134662D01*
X361981D01*
X361412Y1135356D01*
Y1140401D01*
X362603Y1141592D01*
X363250Y1143155D01*
Y1144845D01*
X362603Y1146407D01*
X361407Y1147603D01*
X359845Y1148250D01*
X358155D01*
X356593Y1147603D01*
X355397Y1146407D01*
X354750Y1144845D01*
Y1143155D01*
X355397Y1141592D01*
X356593Y1140397D01*
X357588Y1139985D01*
Y1136833D01*
X356904Y1136275D01*
X355522Y1136625D01*
X355353Y1137032D01*
X354157Y1138228D01*
X352595Y1138875D01*
X350905D01*
X349343Y1138228D01*
X348147Y1137032D01*
X348125Y1136979D01*
X346875D01*
X346853Y1137032D01*
X345657Y1138228D01*
X344095Y1138875D01*
X342530D01*
X342112Y1139191D01*
X341500Y1139853D01*
Y1141345D01*
X340853Y1142907D01*
X339657Y1144103D01*
X338095Y1144750D01*
X336405D01*
X334843Y1144103D01*
X333647Y1142907D01*
X333000Y1141345D01*
Y1139655D01*
X333571Y1138275D01*
X330758Y1135462D01*
X319002D01*
X318923Y1135548D01*
X318481Y1136632D01*
X318557Y1136875D01*
X318682Y1137499D01*
Y1139599D01*
X318557Y1140224D01*
X318204Y1140753D01*
Y1141346D01*
X318557Y1141875D01*
X318682Y1142500D01*
Y1144600D01*
X318557Y1145224D01*
X318297Y1146050D01*
X318557Y1146875D01*
X318682Y1147499D01*
Y1149599D01*
X318557Y1150224D01*
X318204Y1150753D01*
Y1151346D01*
X318557Y1151875D01*
X318682Y1152500D01*
Y1154600D01*
X318557Y1155224D01*
X318297Y1156050D01*
X318557Y1156875D01*
X318682Y1157499D01*
Y1159599D01*
X318557Y1160224D01*
X318204Y1160753D01*
X318293Y1161037D01*
X318780Y1161871D01*
X339645D01*
X339753Y1161609D01*
X340949Y1160414D01*
X342511Y1159767D01*
X343051D01*
X343500Y1159095D01*
Y1157405D01*
X344147Y1155843D01*
X345343Y1154647D01*
X346905Y1154000D01*
X348595D01*
X350157Y1154647D01*
X351353Y1155843D01*
X352000Y1157405D01*
Y1159095D01*
X351353Y1160657D01*
X350157Y1161853D01*
X348595Y1162500D01*
X348055D01*
X347606Y1163171D01*
Y1164862D01*
X346959Y1166424D01*
X345764Y1167620D01*
X344202Y1168267D01*
X342511D01*
X340949Y1167620D01*
X339753Y1166424D01*
X339451Y1165695D01*
X319272D01*
X318570Y1166855D01*
X318571Y1166945D01*
X318682Y1167499D01*
Y1169599D01*
X318557Y1170224D01*
X318204Y1170753D01*
X317675Y1171107D01*
X317050Y1171231D01*
X303050D01*
X302500Y1171121D01*
X302403Y1171121D01*
X301250Y1171824D01*
Y1175275D01*
X302403Y1175978D01*
X302500Y1175977D01*
X303050Y1175868D01*
X317050D01*
X317675Y1175992D01*
X318204Y1176346D01*
X318399Y1176638D01*
X334128D01*
X334490Y1176275D01*
Y1174631D01*
X335137Y1173069D01*
X336333Y1171873D01*
X337895Y1171226D01*
X339586D01*
X341148Y1171873D01*
X342343Y1173069D01*
X342990Y1174631D01*
Y1176321D01*
X342343Y1177884D01*
X341253Y1178974D01*
X341283Y1179122D01*
X342478Y1180317D01*
X343125Y1181879D01*
Y1183570D01*
X342478Y1185132D01*
X341282Y1186328D01*
X339720Y1186975D01*
X338030D01*
X336468Y1186328D01*
X335272Y1185132D01*
X335238Y1185049D01*
X318965D01*
X318343Y1186196D01*
X318557Y1186875D01*
X318682Y1187499D01*
Y1189599D01*
X318557Y1190224D01*
X318448Y1190388D01*
X318922Y1191550D01*
X319002Y1191638D01*
X334764D01*
X335254Y1191735D01*
X335342Y1191647D01*
X336905Y1191000D01*
X338595D01*
X340157Y1191647D01*
X341353Y1192843D01*
X342000Y1194405D01*
Y1196095D01*
X341353Y1197657D01*
X340157Y1198853D01*
X338595Y1199500D01*
X336905D01*
X335342Y1198853D01*
X334147Y1197657D01*
X333500Y1196095D01*
Y1195461D01*
X319002D01*
X318923Y1195548D01*
X318481Y1196631D01*
X318557Y1196875D01*
X318682Y1197499D01*
Y1199599D01*
X318557Y1200224D01*
X318448Y1200388D01*
X318922Y1201550D01*
X319002Y1201638D01*
X343775D01*
X343897Y1201343D01*
X345093Y1200147D01*
X346655Y1199500D01*
X348345D01*
X349907Y1200147D01*
X351103Y1201343D01*
X351750Y1202905D01*
Y1204595D01*
X351103Y1206157D01*
X349907Y1207353D01*
X348345Y1208000D01*
X346655D01*
X345093Y1207353D01*
X343897Y1206157D01*
X343609Y1205461D01*
X328240D01*
X327722Y1206711D01*
X328103Y1207093D01*
X328750Y1208655D01*
Y1210345D01*
X328103Y1211907D01*
X326907Y1213103D01*
X325345Y1213750D01*
X323655D01*
X322093Y1213103D01*
X320897Y1211907D01*
X320585Y1211154D01*
X319340Y1211037D01*
X319147Y1211243D01*
X318619Y1212186D01*
X318682Y1212500D01*
Y1214600D01*
X318557Y1215224D01*
X318481Y1215467D01*
X318923Y1216551D01*
X319002Y1216638D01*
X320549D01*
X321281Y1216783D01*
X321901Y1217197D01*
X323159Y1218455D01*
X323655Y1218250D01*
X325345D01*
X326907Y1218897D01*
X328103Y1220092D01*
X328750Y1221655D01*
Y1223345D01*
X328103Y1224907D01*
X326907Y1226103D01*
X325345Y1226750D01*
X323655D01*
X322093Y1226103D01*
X320897Y1224907D01*
X320250Y1223345D01*
Y1221655D01*
X320324Y1221477D01*
X319565Y1220518D01*
X318343Y1220545D01*
X318204Y1220753D01*
X317675Y1221106D01*
X317050Y1221231D01*
X303050D01*
X302426Y1221106D01*
X301897Y1220753D01*
X301852Y1220686D01*
X298152D01*
X297853Y1221407D01*
X296657Y1222603D01*
X295095Y1223250D01*
X293405D01*
X291843Y1222603D01*
X290647Y1221407D01*
X290000Y1219845D01*
Y1218155D01*
X290647Y1216593D01*
X291843Y1215397D01*
X293405Y1214750D01*
X295095D01*
X296657Y1215397D01*
X297853Y1216593D01*
X297965Y1216863D01*
X301010D01*
X301719Y1215783D01*
X301543Y1215224D01*
X301419Y1214600D01*
Y1212500D01*
X301543Y1211875D01*
X301897Y1211346D01*
Y1210753D01*
X301543Y1210224D01*
X301419Y1209599D01*
Y1207499D01*
X301543Y1206875D01*
X301803Y1206049D01*
X301543Y1205224D01*
X301419Y1204600D01*
Y1202500D01*
X301543Y1201875D01*
X301653Y1201711D01*
X301178Y1200549D01*
X301099Y1200461D01*
X289989D01*
X289471Y1201711D01*
X290103Y1202343D01*
X290750Y1203905D01*
Y1205595D01*
X290103Y1207157D01*
X288907Y1208353D01*
X287651Y1208873D01*
X287253Y1209357D01*
X287022Y1210250D01*
X287500Y1211405D01*
Y1213095D01*
X286853Y1214657D01*
X285657Y1215853D01*
X284095Y1216500D01*
X282405D01*
X280843Y1215853D01*
X279647Y1214657D01*
X279000Y1213095D01*
Y1211405D01*
X279647Y1209843D01*
X280843Y1208647D01*
X282099Y1208127D01*
X282497Y1207643D01*
X282728Y1206750D01*
X282250Y1205595D01*
Y1203905D01*
X282897Y1202343D01*
X283528Y1201711D01*
X283011Y1200461D01*
X279799D01*
X279068Y1200316D01*
X278448Y1199901D01*
X268148Y1189602D01*
X267734Y1188981D01*
X267588Y1188250D01*
Y1161497D01*
X266338Y1160726D01*
X266243Y1160766D01*
X262758D01*
X261680Y1160320D01*
X261234Y1159243D01*
Y1156058D01*
X261680Y1154980D01*
X262758Y1154534D01*
X266243D01*
X267000Y1154848D01*
X267757Y1154534D01*
X271242D01*
X271377Y1153522D01*
X271384Y1153408D01*
Y1153407D01*
X271760Y1152500D01*
X271384Y1151593D01*
Y1148408D01*
X271830Y1147330D01*
X272908Y1146884D01*
X276392D01*
X277470Y1147330D01*
X278231Y1147482D01*
X280190Y1145523D01*
X280810Y1145109D01*
X281542Y1144963D01*
X287088D01*
Y1143247D01*
X285398Y1141557D01*
X284984Y1140937D01*
X284838Y1140205D01*
Y1138329D01*
X283752Y1137879D01*
X282557Y1136684D01*
X281910Y1135122D01*
Y1134562D01*
X280660Y1134044D01*
X272766Y1141938D01*
Y1143943D01*
X272320Y1145020D01*
X271242Y1145466D01*
X267757D01*
X267000Y1145152D01*
X266243Y1145466D01*
X262758D01*
X262623Y1146478D01*
X262616Y1146592D01*
Y1146592D01*
X262170Y1147670D01*
X261092Y1148116D01*
X257607D01*
X256530Y1147670D01*
X256487Y1147565D01*
X255237Y1147813D01*
Y1196283D01*
X287258Y1228305D01*
X290091D01*
X290823Y1228450D01*
X291443Y1228864D01*
X291450Y1228875D01*
X291845D01*
X293407Y1229522D01*
X294603Y1230718D01*
X295250Y1232280D01*
Y1233970D01*
X294603Y1235533D01*
X293407Y1236728D01*
X291845Y1237375D01*
D02*
G37*
G36*
X259082Y1225074D02*
X257391D01*
X255829Y1224427D01*
X254633Y1223232D01*
X253986Y1221670D01*
Y1219979D01*
X254633Y1218417D01*
X255829Y1217221D01*
X257391Y1216574D01*
X259082D01*
X260644Y1217221D01*
X261839Y1218417D01*
X262486Y1219979D01*
Y1221670D01*
X261839Y1223232D01*
X260644Y1224427D01*
X259082Y1225074D01*
D02*
G37*
G36*
X559845Y1223500D02*
X558155D01*
X556592Y1222853D01*
X555397Y1221658D01*
X554750Y1220096D01*
Y1218405D01*
X555397Y1216843D01*
X556592Y1215647D01*
X558155Y1215000D01*
X559845D01*
X561407Y1215647D01*
X562603Y1216843D01*
X563250Y1218405D01*
Y1220096D01*
X562603Y1221658D01*
X561407Y1222853D01*
X559845Y1223500D01*
D02*
G37*
G36*
X626845Y1192500D02*
X625155D01*
X623593Y1191853D01*
X622397Y1190657D01*
X621750Y1189095D01*
Y1187405D01*
X622397Y1185843D01*
X623593Y1184647D01*
X625155Y1184000D01*
X626845D01*
X628407Y1184647D01*
X629603Y1185843D01*
X630250Y1187405D01*
Y1189095D01*
X629603Y1190657D01*
X628407Y1191853D01*
X626845Y1192500D01*
D02*
G37*
G36*
X597845Y1186750D02*
X596155D01*
X594593Y1186103D01*
X593397Y1184907D01*
X592750Y1183345D01*
Y1181655D01*
X593397Y1180093D01*
X594593Y1178897D01*
X596155Y1178250D01*
X597845D01*
X599407Y1178897D01*
X600603Y1180093D01*
X601250Y1181655D01*
Y1183345D01*
X600603Y1184907D01*
X599407Y1186103D01*
X597845Y1186750D01*
D02*
G37*
G36*
X725250Y1191000D02*
X711750D01*
Y1177500D01*
X725250D01*
Y1191000D01*
D02*
G37*
G36*
X246345Y1179000D02*
X244655D01*
X243093Y1178353D01*
X241897Y1177157D01*
X241250Y1175595D01*
Y1173905D01*
X241897Y1172343D01*
X243093Y1171147D01*
X244655Y1170500D01*
X246345D01*
X247907Y1171147D01*
X249103Y1172343D01*
X249750Y1173905D01*
Y1175595D01*
X249103Y1177157D01*
X247907Y1178353D01*
X246345Y1179000D01*
D02*
G37*
G36*
X637250Y1173250D02*
X623750D01*
Y1169528D01*
X622500Y1169010D01*
X622407Y1169103D01*
X620845Y1169750D01*
X619155D01*
X617593Y1169103D01*
X616397Y1167907D01*
X615750Y1166345D01*
Y1164655D01*
X616397Y1163093D01*
X617593Y1161897D01*
X619155Y1161250D01*
X620845D01*
X622407Y1161897D01*
X622500Y1161990D01*
X623750Y1161472D01*
Y1160750D01*
X637250D01*
Y1173250D01*
D02*
G37*
G36*
X438095Y1222125D02*
X436405D01*
X434843Y1221478D01*
X433647Y1220282D01*
X433000Y1218720D01*
Y1217030D01*
X433647Y1215468D01*
X434843Y1214272D01*
X436405Y1213625D01*
X438095D01*
X438680Y1213867D01*
X462838Y1189708D01*
Y1158308D01*
X462343Y1158103D01*
X461147Y1156907D01*
X460500Y1155345D01*
Y1153655D01*
X461147Y1152093D01*
X462343Y1150897D01*
X463905Y1150250D01*
X465595D01*
X467157Y1150897D01*
X468353Y1152093D01*
X469000Y1153655D01*
Y1155345D01*
X468353Y1156907D01*
X467157Y1158103D01*
X466662Y1158308D01*
Y1190500D01*
X466516Y1191232D01*
X466102Y1191852D01*
X463275Y1194679D01*
X463846Y1195875D01*
X465095D01*
X466657Y1196522D01*
X467853Y1197718D01*
X468500Y1199280D01*
Y1200970D01*
X467853Y1202533D01*
X466657Y1203728D01*
X465095Y1204375D01*
X463405D01*
X461843Y1203728D01*
X460647Y1202533D01*
X460000Y1200970D01*
Y1199721D01*
X458804Y1199150D01*
X441331Y1216622D01*
X441500Y1217030D01*
Y1218720D01*
X440853Y1220282D01*
X439657Y1221478D01*
X438095Y1222125D01*
D02*
G37*
G36*
X358345Y1158000D02*
X356655D01*
X355093Y1157353D01*
X353897Y1156157D01*
X353250Y1154595D01*
Y1152905D01*
X353897Y1151343D01*
X355093Y1150147D01*
X356655Y1149500D01*
X358345D01*
X359907Y1150147D01*
X361103Y1151343D01*
X361750Y1152905D01*
Y1154595D01*
X361103Y1156157D01*
X359907Y1157353D01*
X358345Y1158000D01*
D02*
G37*
G36*
X339095Y1154500D02*
X337405D01*
X335843Y1153853D01*
X334647Y1152657D01*
X334000Y1151095D01*
Y1149405D01*
X334647Y1147843D01*
X335843Y1146647D01*
X337405Y1146000D01*
X339095D01*
X340657Y1146647D01*
X341853Y1147843D01*
X342500Y1149405D01*
Y1151095D01*
X341853Y1152657D01*
X340657Y1153853D01*
X339095Y1154500D01*
D02*
G37*
G36*
X654250Y1173250D02*
X640750D01*
Y1160750D01*
X645588D01*
Y1152558D01*
X645092Y1152353D01*
X643897Y1151157D01*
X643250Y1149595D01*
Y1147904D01*
X643897Y1146342D01*
X645092Y1145147D01*
X646655Y1144500D01*
X648345D01*
X649907Y1145147D01*
X651103Y1146342D01*
X651750Y1147904D01*
Y1149595D01*
X651103Y1151157D01*
X649907Y1152353D01*
X649617Y1152473D01*
X649516Y1152981D01*
X649411Y1153138D01*
Y1160750D01*
X654250D01*
Y1173250D01*
D02*
G37*
G36*
X586595Y1144500D02*
X584905D01*
X583343Y1143853D01*
X582147Y1142657D01*
X581500Y1141095D01*
Y1139405D01*
X582147Y1137843D01*
X583343Y1136647D01*
X584905Y1136000D01*
X586595D01*
X588157Y1136647D01*
X589353Y1137843D01*
X590000Y1139405D01*
Y1141095D01*
X589353Y1142657D01*
X588157Y1143853D01*
X586595Y1144500D01*
D02*
G37*
G36*
X571345Y1138750D02*
X569655D01*
X568093Y1138103D01*
X566897Y1136907D01*
X566250Y1135345D01*
Y1133655D01*
X566897Y1132093D01*
X567548Y1131442D01*
X567957Y1130625D01*
X567548Y1129808D01*
X566897Y1129157D01*
X566250Y1127595D01*
Y1125905D01*
X566897Y1124343D01*
X568093Y1123147D01*
X569655Y1122500D01*
X571345D01*
X572907Y1123147D01*
X574103Y1124343D01*
X574750Y1125905D01*
Y1127595D01*
X574103Y1129157D01*
X573452Y1129808D01*
X573044Y1130625D01*
X573452Y1131442D01*
X574103Y1132093D01*
X574750Y1133655D01*
Y1135345D01*
X574103Y1136907D01*
X572907Y1138103D01*
X571345Y1138750D01*
D02*
G37*
G36*
X606845Y1141500D02*
X605155D01*
X603593Y1140853D01*
X602397Y1139657D01*
X601750Y1138095D01*
Y1136405D01*
X602397Y1134843D01*
X602490Y1134750D01*
X601972Y1133500D01*
X600250D01*
Y1120269D01*
X599000Y1119500D01*
X598095Y1119875D01*
X596405D01*
X594843Y1119228D01*
X593647Y1118032D01*
X593000Y1116470D01*
Y1114780D01*
X593349Y1113937D01*
X592392Y1112981D01*
X592345Y1113000D01*
X590655D01*
X589093Y1112353D01*
X587897Y1111157D01*
X587250Y1109595D01*
Y1107905D01*
X587897Y1106343D01*
X589093Y1105147D01*
X590655Y1104500D01*
X592345D01*
X593907Y1105147D01*
X595103Y1106343D01*
X595750Y1107905D01*
Y1109595D01*
X595401Y1110438D01*
X596358Y1111394D01*
X596405Y1111375D01*
X598095D01*
X599000Y1111750D01*
X600250Y1110981D01*
Y1098000D01*
X618750D01*
Y1133500D01*
X610028D01*
X609510Y1134750D01*
X609603Y1134843D01*
X610250Y1136405D01*
Y1138095D01*
X609603Y1139657D01*
X608407Y1140853D01*
X606845Y1141500D01*
D02*
G37*
G36*
X635845Y1128000D02*
X634155D01*
X632593Y1127353D01*
X631397Y1126157D01*
X630750Y1124595D01*
Y1122905D01*
X631397Y1121343D01*
X632593Y1120147D01*
X634155Y1119500D01*
X635845D01*
X637407Y1120147D01*
X638603Y1121343D01*
X639250Y1122905D01*
Y1124595D01*
X638603Y1126157D01*
X637407Y1127353D01*
X635845Y1128000D01*
D02*
G37*
G36*
X447095Y1107250D02*
X445405D01*
X443843Y1106603D01*
X442647Y1105407D01*
X442000Y1103845D01*
Y1102155D01*
X442647Y1100593D01*
X443843Y1099397D01*
X445405Y1098750D01*
X447095D01*
X448657Y1099397D01*
X449853Y1100593D01*
X450500Y1102155D01*
Y1103845D01*
X449853Y1105407D01*
X448657Y1106603D01*
X447095Y1107250D01*
D02*
G37*
G36*
X680750Y1133500D02*
X662250D01*
Y1098000D01*
X680750D01*
Y1133500D01*
D02*
G37*
G36*
X511845Y1102000D02*
X510155D01*
X508593Y1101353D01*
X507397Y1100157D01*
X506750Y1098595D01*
Y1096905D01*
X507397Y1095343D01*
X508593Y1094147D01*
X510155Y1093500D01*
X511845D01*
X513407Y1094147D01*
X514603Y1095343D01*
X515250Y1096905D01*
Y1098595D01*
X514603Y1100157D01*
X513407Y1101353D01*
X511845Y1102000D01*
D02*
G37*
G36*
X309595Y1095750D02*
X307905D01*
X306343Y1095103D01*
X305147Y1093907D01*
X304500Y1092345D01*
Y1090655D01*
X305147Y1089093D01*
X306343Y1087897D01*
X307905Y1087250D01*
X309595D01*
X311157Y1087897D01*
X312353Y1089093D01*
X313000Y1090655D01*
Y1092345D01*
X312353Y1093907D01*
X311157Y1095103D01*
X309595Y1095750D01*
D02*
G37*
G36*
X725500Y1152750D02*
X708000D01*
Y1134810D01*
X707963Y1134625D01*
Y1093159D01*
X705406Y1090602D01*
X705406Y1090602D01*
X704091Y1089287D01*
X694107D01*
X693375Y1089141D01*
X692755Y1088727D01*
X692029Y1088000D01*
X680500D01*
Y1080911D01*
X677750D01*
Y1087500D01*
X665250D01*
Y1087029D01*
X664143Y1086037D01*
X662000D01*
Y1087500D01*
X650750D01*
X649500Y1087500D01*
X649500Y1087500D01*
X649500Y1087500D01*
X637000D01*
X637000Y1087500D01*
X636159Y1087851D01*
X636158Y1087852D01*
X636157Y1087853D01*
X634595Y1088500D01*
X632905D01*
X631750Y1088022D01*
X630500Y1088643D01*
Y1089000D01*
X618000D01*
Y1084662D01*
X617375D01*
X616643Y1084517D01*
X616023Y1084102D01*
X613750Y1081829D01*
X612500Y1082347D01*
Y1089000D01*
X600000D01*
Y1081039D01*
X598845Y1080561D01*
X595303Y1084102D01*
X594683Y1084517D01*
X593951Y1084662D01*
X592548D01*
X591817Y1084517D01*
X591197Y1084102D01*
X584131Y1077036D01*
X574368D01*
X570475Y1080929D01*
Y1082465D01*
X571103Y1083093D01*
X571750Y1084655D01*
Y1086345D01*
X571103Y1087907D01*
X569907Y1089103D01*
X568345Y1089750D01*
X566655D01*
X565093Y1089103D01*
X563897Y1087907D01*
X563250Y1086345D01*
Y1084655D01*
X563897Y1083093D01*
X565093Y1081897D01*
X566164Y1081453D01*
Y1080625D01*
X566310Y1079893D01*
X565303Y1079151D01*
X559545Y1084909D01*
X559750Y1085405D01*
Y1087095D01*
X559103Y1088657D01*
X557907Y1089853D01*
X556345Y1090500D01*
X554655D01*
X553093Y1089853D01*
X551897Y1088657D01*
X551250Y1087095D01*
Y1085405D01*
X551897Y1083843D01*
X553093Y1082647D01*
X554655Y1082000D01*
X556345D01*
X556841Y1082205D01*
X565357Y1073689D01*
X565978Y1073275D01*
X566709Y1073129D01*
X569333D01*
X571189Y1071273D01*
X571809Y1070858D01*
X572541Y1070713D01*
X572583D01*
X579713Y1063583D01*
Y1062452D01*
X577750Y1060489D01*
X576500Y1061006D01*
Y1064000D01*
X564000D01*
Y1051500D01*
X564100D01*
Y1048053D01*
X563927Y1047879D01*
X563280Y1046317D01*
Y1044627D01*
X563927Y1043065D01*
X564100Y1042891D01*
Y1037750D01*
X571100D01*
Y1043032D01*
X571133Y1043065D01*
X571780Y1044627D01*
Y1046317D01*
X571133Y1047879D01*
X571100Y1047912D01*
Y1051500D01*
X575861D01*
X576500Y1051500D01*
X576612Y1051078D01*
X576800Y1050374D01*
Y1048064D01*
X576180Y1046567D01*
Y1044877D01*
X576800Y1043380D01*
Y1037750D01*
X583800D01*
Y1043082D01*
X584033Y1043315D01*
X584680Y1044877D01*
Y1046567D01*
X584033Y1048130D01*
X583800Y1048362D01*
Y1051500D01*
X589500D01*
Y1048064D01*
X588880Y1046567D01*
Y1044877D01*
X589500Y1043380D01*
Y1037750D01*
X596500D01*
Y1043082D01*
X596733Y1043315D01*
X597380Y1044877D01*
Y1046567D01*
X596733Y1048130D01*
X596500Y1048362D01*
Y1052250D01*
X594500D01*
Y1064000D01*
X583537D01*
Y1064375D01*
X583391Y1065106D01*
X582977Y1065726D01*
X576645Y1072058D01*
X577123Y1073213D01*
X584923D01*
X585654Y1073358D01*
X586275Y1073773D01*
X593250Y1080748D01*
X599225Y1074773D01*
X599845Y1074359D01*
X600577Y1074213D01*
X611923D01*
X612654Y1074359D01*
X613274Y1074773D01*
X616000Y1077499D01*
X616415Y1078120D01*
X616456Y1078325D01*
X616750Y1078530D01*
X618000Y1077877D01*
Y1076500D01*
X628700D01*
X628948Y1075250D01*
X628593Y1075103D01*
X627397Y1073907D01*
X626750Y1072345D01*
Y1070655D01*
X627397Y1069093D01*
X628593Y1067897D01*
X630155Y1067250D01*
X631845D01*
X631882Y1067265D01*
X631972Y1067155D01*
X631850Y1066780D01*
X631303Y1066000D01*
X629905D01*
X628343Y1065353D01*
X627147Y1064157D01*
X626500Y1062595D01*
Y1060905D01*
X627147Y1059342D01*
X628343Y1058147D01*
X629905Y1057500D01*
X631595D01*
X632239Y1056413D01*
X632359Y1055810D01*
X632773Y1055190D01*
X634463Y1053500D01*
X633945Y1052250D01*
X633608Y1052250D01*
X633608Y1052250D01*
X633601Y1052250D01*
X627600D01*
Y1047653D01*
X627577Y1047629D01*
X626930Y1046067D01*
Y1044377D01*
X627577Y1042815D01*
X627600Y1042792D01*
Y1037750D01*
X634600D01*
Y1042632D01*
X634783Y1042815D01*
X635430Y1044377D01*
Y1046067D01*
X634783Y1047629D01*
X634600Y1047812D01*
X634600Y1051271D01*
Y1051272D01*
Y1051272D01*
X634600Y1051645D01*
X635814Y1052337D01*
X635868Y1052301D01*
X636600Y1052155D01*
X640300D01*
Y1047653D01*
X640277Y1047629D01*
X639630Y1046067D01*
Y1044377D01*
X640277Y1042815D01*
X640300Y1042792D01*
Y1037750D01*
X645222D01*
X645740Y1036500D01*
X645147Y1035907D01*
X644500Y1034345D01*
Y1032655D01*
X645147Y1031093D01*
X646343Y1029897D01*
X647905Y1029250D01*
X649595D01*
X651157Y1029897D01*
X652353Y1031093D01*
X653000Y1032655D01*
Y1034345D01*
X652353Y1035907D01*
X651157Y1037103D01*
X649595Y1037750D01*
X648550D01*
X647905Y1037750D01*
X647300Y1038852D01*
Y1042632D01*
X647483Y1042815D01*
X648130Y1044377D01*
Y1044996D01*
X649380Y1045514D01*
X651023Y1043870D01*
X651643Y1043456D01*
X652375Y1043310D01*
X652771D01*
X652977Y1042815D01*
X653000Y1042792D01*
Y1037750D01*
X660000D01*
Y1042632D01*
X660183Y1042815D01*
X660830Y1044377D01*
Y1046067D01*
X660183Y1047629D01*
X660622Y1048197D01*
X661250Y1048548D01*
X661673Y1048463D01*
X664772D01*
X664968Y1048283D01*
X665504Y1047213D01*
X665030Y1046067D01*
Y1044377D01*
X665677Y1042815D01*
X665700Y1042792D01*
Y1037750D01*
X672700D01*
Y1042632D01*
X672883Y1042815D01*
X673530Y1044377D01*
Y1046067D01*
X672883Y1047629D01*
X672700Y1047812D01*
Y1052250D01*
X667759D01*
X667575Y1052287D01*
X662465D01*
X660400Y1054352D01*
X659780Y1054766D01*
X659048Y1054912D01*
X650676D01*
X649837Y1055750D01*
X650355Y1057000D01*
X662000D01*
Y1070500D01*
X649500D01*
Y1057855D01*
X648250Y1057337D01*
X647669Y1057919D01*
X647048Y1058333D01*
X646317Y1058478D01*
X638537D01*
Y1065875D01*
X638391Y1066607D01*
X637977Y1067227D01*
X635045Y1070159D01*
X635250Y1070655D01*
Y1072345D01*
X634603Y1073907D01*
X633407Y1075103D01*
X631845Y1075750D01*
X631439D01*
X630500Y1076500D01*
X630500Y1077000D01*
Y1079857D01*
X631750Y1080478D01*
X632905Y1080000D01*
X634595D01*
X635750Y1080478D01*
X637000Y1079856D01*
Y1074000D01*
X649500D01*
X649500Y1074000D01*
Y1074000D01*
X662000D01*
X662000Y1074000D01*
Y1074000D01*
X663191Y1073723D01*
X663523Y1073225D01*
X664475Y1072273D01*
X665095Y1071859D01*
X665641Y1071750D01*
X665518Y1070500D01*
X665250D01*
Y1057000D01*
X677750D01*
Y1070463D01*
X677750Y1070500D01*
X677840Y1071713D01*
X705713D01*
Y1055827D01*
X705859Y1055095D01*
X706273Y1054475D01*
X707225Y1053523D01*
X707845Y1053109D01*
X708577Y1052963D01*
X724923D01*
X725655Y1053109D01*
X726275Y1053523D01*
X727227Y1054475D01*
X727641Y1055095D01*
X727787Y1055827D01*
Y1077173D01*
X727641Y1077905D01*
X727227Y1078525D01*
X722900Y1082851D01*
X722280Y1083266D01*
X721548Y1083411D01*
X695287D01*
Y1085463D01*
X704883D01*
X705614Y1085609D01*
X706235Y1086023D01*
X708110Y1087898D01*
X708110Y1087898D01*
X711227Y1091015D01*
X711641Y1091636D01*
X711787Y1092367D01*
Y1130250D01*
X725500D01*
Y1152750D01*
D02*
G37*
G36*
X254500Y1109500D02*
X236000D01*
Y1099000D01*
X254500D01*
Y1102338D01*
X255838D01*
Y1097952D01*
X255984Y1097220D01*
X256398Y1096600D01*
X273350Y1079648D01*
X273970Y1079234D01*
X274702Y1079088D01*
X313692D01*
X313897Y1078593D01*
X315093Y1077397D01*
X316655Y1076750D01*
X318345D01*
X319907Y1077397D01*
X321103Y1078593D01*
X321750Y1080155D01*
Y1081845D01*
X321103Y1083407D01*
X319907Y1084603D01*
X318345Y1085250D01*
X316655D01*
X315093Y1084603D01*
X313897Y1083407D01*
X313692Y1082912D01*
X275494D01*
X259662Y1098744D01*
Y1104250D01*
X259516Y1104982D01*
X259102Y1105602D01*
X258482Y1106016D01*
X257750Y1106162D01*
X254500D01*
Y1109500D01*
D02*
G37*
G36*
X556095Y1075000D02*
X554405D01*
X552843Y1074353D01*
X551647Y1073157D01*
X551000Y1071595D01*
Y1069905D01*
X551647Y1068343D01*
X552843Y1067147D01*
X553338Y1066942D01*
Y1064805D01*
X552088Y1064235D01*
X550845Y1064750D01*
X549155D01*
X547593Y1064103D01*
X546397Y1062907D01*
X546229Y1062502D01*
X545206Y1062298D01*
X544828Y1062386D01*
X543345Y1063000D01*
X541655D01*
X540093Y1062353D01*
X538897Y1061157D01*
X538250Y1059595D01*
Y1057905D01*
X538897Y1056343D01*
X540093Y1055147D01*
X540218Y1055095D01*
Y1052250D01*
X538700D01*
Y1048053D01*
X538527Y1047879D01*
X537880Y1046317D01*
Y1044627D01*
X538527Y1043065D01*
X538700Y1042891D01*
Y1037750D01*
X545700D01*
Y1043032D01*
X545733Y1043065D01*
X546380Y1044627D01*
Y1046317D01*
X545733Y1047879D01*
X545700Y1047912D01*
Y1052250D01*
X544041D01*
Y1054788D01*
X544907Y1055147D01*
X546103Y1056343D01*
X546271Y1056749D01*
X547294Y1056952D01*
X547672Y1056864D01*
X549155Y1056250D01*
X550845D01*
X552088Y1056765D01*
X553338Y1056195D01*
Y1052250D01*
X551400D01*
Y1048053D01*
X551227Y1047879D01*
X550580Y1046317D01*
Y1044627D01*
X551227Y1043065D01*
X551400Y1042891D01*
Y1037750D01*
X558400D01*
Y1043032D01*
X558433Y1043065D01*
X559080Y1044627D01*
Y1046317D01*
X558433Y1047879D01*
X558400Y1047912D01*
Y1052250D01*
X557162D01*
Y1066942D01*
X557657Y1067147D01*
X558853Y1068343D01*
X559500Y1069905D01*
Y1071595D01*
X558853Y1073157D01*
X557657Y1074353D01*
X556095Y1075000D01*
D02*
G37*
G36*
X284845Y1072500D02*
X283155D01*
X281593Y1071853D01*
X280397Y1070657D01*
X279750Y1069095D01*
Y1067405D01*
X279802Y1067280D01*
X279177Y1065908D01*
X278139Y1065478D01*
X276944Y1064283D01*
X276297Y1062720D01*
Y1061030D01*
X276944Y1059468D01*
X278139Y1058272D01*
X278505Y1058121D01*
Y1049657D01*
X277255Y1048989D01*
X277050Y1049126D01*
Y1052000D01*
X270050D01*
Y1046228D01*
X269880Y1045817D01*
Y1044127D01*
X270050Y1043716D01*
Y1037500D01*
X277050D01*
Y1040818D01*
X277255Y1040955D01*
X278505Y1040287D01*
Y1030066D01*
X278650Y1029334D01*
X279065Y1028714D01*
X280731Y1027048D01*
X281351Y1026633D01*
X282083Y1026488D01*
X337057D01*
X337948Y1025596D01*
X337410Y1024645D01*
X337276Y1024500D01*
X335637D01*
X334075Y1023853D01*
X333674Y1023452D01*
X332858Y1022678D01*
X332041Y1023452D01*
X331640Y1023853D01*
X330078Y1024500D01*
X328387D01*
X326825Y1023853D01*
X325999Y1023026D01*
X324684Y1023124D01*
X324536Y1023197D01*
X323407Y1024325D01*
X321845Y1024972D01*
X320155D01*
X318593Y1024325D01*
X317397Y1023130D01*
X316750Y1021568D01*
Y1019877D01*
X317245Y1018682D01*
X316695Y1018133D01*
X316281Y1017512D01*
X316135Y1016781D01*
Y1016689D01*
X312446Y1013000D01*
X308150D01*
Y1008703D01*
X307827Y1008380D01*
X307180Y1006817D01*
Y1005127D01*
X307827Y1003565D01*
X308150Y1003241D01*
Y998500D01*
X315150D01*
Y1003848D01*
X315680Y1005127D01*
Y1006817D01*
X315150Y1008096D01*
Y1010296D01*
X319399Y1014545D01*
X319813Y1015165D01*
X319959Y1015897D01*
Y1015989D01*
X320442Y1016472D01*
X321845D01*
X323407Y1017119D01*
X324234Y1017946D01*
X325549Y1017849D01*
X325697Y1017775D01*
X326825Y1016647D01*
X327178Y1016501D01*
X327422Y1015275D01*
X325146Y1013000D01*
X320850D01*
Y1008703D01*
X320527Y1008380D01*
X319880Y1006817D01*
Y1005127D01*
X320527Y1003565D01*
X320850Y1003241D01*
Y998500D01*
X327850D01*
Y1003848D01*
X328380Y1005127D01*
Y1006817D01*
X327850Y1008096D01*
Y1010296D01*
X330513Y1012960D01*
X331604D01*
X332336Y1013105D01*
X332347Y1013112D01*
X333550Y1012413D01*
X333550Y1012021D01*
Y1008703D01*
X333227Y1008380D01*
X332580Y1006817D01*
Y1005127D01*
X333227Y1003565D01*
X333550Y1003241D01*
Y998500D01*
X340550D01*
Y1003848D01*
X341080Y1005127D01*
Y1006817D01*
X340550Y1008096D01*
Y1013000D01*
X334557Y1013000D01*
X334555D01*
X334555D01*
X334204Y1013000D01*
X333686Y1014250D01*
X335495Y1016059D01*
X335637Y1016000D01*
X337328D01*
X338890Y1016647D01*
X340086Y1017843D01*
X340733Y1019405D01*
Y1021044D01*
X340878Y1021178D01*
X341829Y1021715D01*
X349390Y1014155D01*
X348911Y1013000D01*
X346250D01*
Y1008703D01*
X345927Y1008380D01*
X345280Y1006817D01*
Y1005127D01*
X345927Y1003565D01*
X346250Y1003241D01*
Y998500D01*
X353250D01*
Y1003848D01*
X353780Y1005127D01*
Y1006817D01*
X353250Y1008096D01*
Y1008701D01*
X353510Y1008965D01*
X354500Y1009537D01*
X354873Y1009463D01*
X357362D01*
X358197Y1008213D01*
X357930Y1007567D01*
Y1005877D01*
X358577Y1004315D01*
X358950Y1003941D01*
Y998500D01*
X365950D01*
Y1004718D01*
X366430Y1005877D01*
Y1007567D01*
X365950Y1008726D01*
X366167Y1008941D01*
X367200Y1009537D01*
X367573Y1009463D01*
X370062D01*
X370897Y1008213D01*
X370630Y1007567D01*
Y1005877D01*
X371277Y1004315D01*
X371650Y1003941D01*
Y998500D01*
X378650D01*
Y1004718D01*
X379130Y1005877D01*
Y1007567D01*
X378788Y1008392D01*
X379320Y1009032D01*
X379900Y1009297D01*
X380323Y1009213D01*
X382658D01*
X383494Y1007963D01*
X383330Y1007567D01*
Y1005877D01*
X383977Y1004315D01*
X384350Y1003941D01*
Y998500D01*
X391350D01*
Y1004718D01*
X391830Y1005877D01*
Y1007567D01*
X391350Y1008726D01*
Y1013000D01*
X386410D01*
X386225Y1013037D01*
X381115D01*
X359400Y1034751D01*
X358780Y1035166D01*
X358048Y1035311D01*
X313244D01*
X312210Y1036345D01*
X312689Y1037500D01*
X315150D01*
Y1042432D01*
X315533Y1042815D01*
X316180Y1044377D01*
Y1046067D01*
X315533Y1047629D01*
X315150Y1048012D01*
Y1052000D01*
X308150D01*
Y1047203D01*
X307680Y1046067D01*
Y1044377D01*
X308150Y1043241D01*
Y1042039D01*
X307077Y1041594D01*
X306208Y1042406D01*
X306317Y1042953D01*
Y1049843D01*
X306171Y1050575D01*
X305756Y1051195D01*
X300912Y1056040D01*
Y1058942D01*
X301407Y1059147D01*
X302603Y1060343D01*
X303250Y1061905D01*
Y1063595D01*
X302603Y1065157D01*
X301407Y1066353D01*
X299845Y1067000D01*
X298155D01*
X296593Y1066353D01*
X295397Y1065157D01*
X294750Y1063595D01*
Y1061905D01*
X295397Y1060343D01*
X296593Y1059147D01*
X297088Y1058942D01*
Y1055248D01*
X297234Y1054517D01*
X297648Y1053896D01*
X298390Y1053155D01*
X297911Y1052000D01*
X295450D01*
Y1047206D01*
X294875Y1045817D01*
Y1044127D01*
X295450Y1042738D01*
Y1038726D01*
X295221Y1038520D01*
X294200Y1038108D01*
X293617Y1038553D01*
Y1047766D01*
X293471Y1048498D01*
X293057Y1049118D01*
X292037Y1050138D01*
Y1058754D01*
X292853Y1059570D01*
X293500Y1061132D01*
Y1062823D01*
X292853Y1064385D01*
X291657Y1065581D01*
X290095Y1066228D01*
X289116D01*
X288250Y1067405D01*
Y1069095D01*
X287603Y1070657D01*
X286407Y1071853D01*
X284845Y1072500D01*
D02*
G37*
G36*
X238950Y1052000D02*
X231950D01*
Y1048065D01*
X231771Y1047634D01*
X226688D01*
X226483Y1048130D01*
X226250Y1048362D01*
Y1052000D01*
X219250D01*
Y1048065D01*
X219071Y1047634D01*
X213988D01*
X213783Y1048130D01*
X213550Y1048362D01*
Y1052000D01*
X206550D01*
Y1048065D01*
X205930Y1046567D01*
Y1044877D01*
X206550Y1043379D01*
Y1037500D01*
X213550D01*
Y1043082D01*
X213783Y1043315D01*
X213988Y1043810D01*
X219071D01*
X219250Y1043379D01*
Y1037500D01*
X226250D01*
Y1043082D01*
X226483Y1043315D01*
X226688Y1043810D01*
X231771D01*
X231950Y1043379D01*
Y1037500D01*
X233668D01*
Y1013000D01*
X231950D01*
Y1008260D01*
X231847Y1008157D01*
X231837Y1008134D01*
X226688D01*
X226483Y1008630D01*
X226250Y1008862D01*
Y1013000D01*
X219250D01*
Y1008565D01*
X219071Y1008134D01*
X213988D01*
X213783Y1008630D01*
X213550Y1008862D01*
Y1013000D01*
X206550D01*
Y1008565D01*
X205930Y1007067D01*
Y1005377D01*
X206550Y1003879D01*
Y998500D01*
X213550D01*
Y1003582D01*
X213783Y1003815D01*
X213988Y1004310D01*
X219071D01*
X219250Y1003879D01*
Y998500D01*
X226250D01*
Y1003582D01*
X226483Y1003815D01*
X226688Y1004310D01*
X231446D01*
X231847Y1003342D01*
X231950Y1003239D01*
Y998500D01*
X238950D01*
Y1003239D01*
X239053Y1003342D01*
X239700Y1004904D01*
Y1006595D01*
X239053Y1008157D01*
X238950Y1008260D01*
Y1013000D01*
X237491D01*
Y1037500D01*
X238950D01*
Y1043082D01*
X239183Y1043315D01*
X239830Y1044877D01*
Y1046567D01*
X239183Y1048130D01*
X238950Y1048362D01*
Y1052000D01*
D02*
G37*
G36*
X531595Y1067750D02*
X529905D01*
X528343Y1067103D01*
X527147Y1065907D01*
X526500Y1064345D01*
Y1062655D01*
X527147Y1061093D01*
X528343Y1059897D01*
X529088Y1059588D01*
Y1052250D01*
X526000D01*
Y1048053D01*
X525827Y1047879D01*
X525180Y1046317D01*
Y1044627D01*
X525827Y1043065D01*
X525201Y1041972D01*
X524750Y1041670D01*
X524045Y1041962D01*
X522354D01*
X521550Y1041629D01*
X521198Y1041862D01*
X520383Y1042815D01*
X521030Y1044377D01*
Y1046067D01*
X520383Y1047629D01*
X520300Y1047712D01*
Y1052250D01*
X513300D01*
Y1047753D01*
X513177Y1047629D01*
X512530Y1046067D01*
Y1044377D01*
X513177Y1042815D01*
X513300Y1042691D01*
Y1037750D01*
X518950D01*
Y1036867D01*
X519597Y1035305D01*
X520792Y1034109D01*
X522354Y1033462D01*
X524045D01*
X525607Y1034109D01*
X526803Y1035305D01*
X527450Y1036867D01*
Y1037750D01*
X533000D01*
Y1043032D01*
X533033Y1043065D01*
X533680Y1044627D01*
Y1046317D01*
X533033Y1047879D01*
X533000Y1047912D01*
Y1052250D01*
X532912D01*
Y1059795D01*
X533157Y1059897D01*
X534353Y1061093D01*
X535000Y1062655D01*
Y1064345D01*
X534353Y1065907D01*
X533157Y1067103D01*
X531595Y1067750D01*
D02*
G37*
G36*
X685400Y1052250D02*
X678400D01*
Y1047702D01*
X677930Y1046567D01*
Y1044877D01*
X678400Y1043742D01*
Y1037750D01*
X685400D01*
Y1042932D01*
X685783Y1043315D01*
X686430Y1044877D01*
Y1046567D01*
X685783Y1048130D01*
X685400Y1048512D01*
Y1052250D01*
D02*
G37*
G36*
X621900D02*
X614900D01*
Y1048064D01*
X614280Y1046567D01*
Y1044877D01*
X614900Y1043380D01*
Y1037750D01*
X621900D01*
Y1043082D01*
X622133Y1043315D01*
X622780Y1044877D01*
Y1046567D01*
X622133Y1048130D01*
X621900Y1048362D01*
Y1052250D01*
D02*
G37*
G36*
X609200D02*
X602200D01*
Y1048064D01*
X601580Y1046567D01*
Y1044877D01*
X602200Y1043380D01*
Y1037750D01*
X609200D01*
Y1043082D01*
X609433Y1043315D01*
X610080Y1044877D01*
Y1046567D01*
X609433Y1048130D01*
X609200Y1048362D01*
Y1052250D01*
D02*
G37*
G36*
X507600D02*
X500600D01*
Y1047753D01*
X500477Y1047629D01*
X499830Y1046067D01*
Y1044377D01*
X500477Y1042815D01*
X500600Y1042691D01*
Y1037750D01*
X507600D01*
Y1042732D01*
X507683Y1042815D01*
X508330Y1044377D01*
Y1046067D01*
X507683Y1047629D01*
X507600Y1047712D01*
Y1052250D01*
D02*
G37*
G36*
X429450Y1052000D02*
X422450D01*
Y1047694D01*
X421880Y1046317D01*
Y1044627D01*
X422450Y1043250D01*
Y1037500D01*
X429450D01*
Y1042782D01*
X429733Y1043065D01*
X430380Y1044627D01*
Y1046317D01*
X429733Y1047879D01*
X429450Y1048162D01*
Y1052000D01*
D02*
G37*
G36*
X416750D02*
X409750D01*
Y1047694D01*
X409180Y1046317D01*
Y1044627D01*
X409750Y1043250D01*
Y1037500D01*
X416750D01*
Y1042782D01*
X417033Y1043065D01*
X417680Y1044627D01*
Y1046317D01*
X417033Y1047879D01*
X416750Y1048162D01*
Y1052000D01*
D02*
G37*
G36*
X365950D02*
X358950D01*
Y1048503D01*
X358577Y1048130D01*
X357930Y1046567D01*
Y1044877D01*
X358577Y1043315D01*
X358950Y1042941D01*
Y1037500D01*
X365950D01*
Y1043718D01*
X366430Y1044877D01*
Y1046567D01*
X365950Y1047726D01*
Y1052000D01*
D02*
G37*
G36*
X353250D02*
X346250D01*
Y1047203D01*
X345780Y1046067D01*
Y1044377D01*
X346250Y1043241D01*
Y1037500D01*
X353250D01*
Y1042432D01*
X353633Y1042815D01*
X354280Y1044377D01*
Y1046067D01*
X353633Y1047629D01*
X353250Y1048012D01*
Y1052000D01*
D02*
G37*
G36*
X340550D02*
X333550D01*
Y1047203D01*
X333080Y1046067D01*
Y1044377D01*
X333550Y1043241D01*
Y1037500D01*
X340550D01*
Y1042432D01*
X340933Y1042815D01*
X341580Y1044377D01*
Y1046067D01*
X340933Y1047629D01*
X340550Y1048012D01*
Y1052000D01*
D02*
G37*
G36*
X327850D02*
X320850D01*
Y1047203D01*
X320380Y1046067D01*
Y1044377D01*
X320850Y1043241D01*
Y1037500D01*
X327850D01*
Y1042432D01*
X328233Y1042815D01*
X328880Y1044377D01*
Y1046067D01*
X328233Y1047629D01*
X327850Y1048012D01*
Y1052000D01*
D02*
G37*
G36*
X264350D02*
X257350D01*
Y1046228D01*
X257180Y1045817D01*
Y1044127D01*
X257350Y1043716D01*
Y1037500D01*
X264350D01*
Y1041882D01*
X265033Y1042565D01*
X265680Y1044127D01*
Y1045817D01*
X265033Y1047380D01*
X264350Y1048062D01*
Y1052000D01*
D02*
G37*
G36*
X251650D02*
X244650D01*
Y1048065D01*
X244030Y1046567D01*
Y1044877D01*
X244650Y1043379D01*
Y1037500D01*
X251650D01*
Y1043082D01*
X251883Y1043315D01*
X252530Y1044877D01*
Y1046567D01*
X251883Y1048130D01*
X251650Y1048362D01*
Y1052000D01*
D02*
G37*
G36*
X663345Y1035250D02*
X661655D01*
X660093Y1034603D01*
X658897Y1033407D01*
X658250Y1031845D01*
Y1030155D01*
X658897Y1028593D01*
X660093Y1027397D01*
X661655Y1026750D01*
X663345D01*
X664907Y1027397D01*
X666103Y1028593D01*
X666750Y1030155D01*
Y1031845D01*
X666103Y1033407D01*
X664907Y1034603D01*
X663345Y1035250D01*
D02*
G37*
G36*
X301345Y1023000D02*
X299655D01*
X298093Y1022353D01*
X296897Y1021157D01*
X296875Y1021105D01*
X295649Y1020861D01*
X295407Y1021103D01*
X293845Y1021750D01*
X292155D01*
X290593Y1021103D01*
X289397Y1019907D01*
X288750Y1018345D01*
Y1016655D01*
X289397Y1015093D01*
X290586Y1013904D01*
X289741Y1013000D01*
X288523Y1013000D01*
X288518Y1013000D01*
X288502Y1013000D01*
X282750D01*
Y1007832D01*
X282330Y1006817D01*
Y1005127D01*
X282750Y1004112D01*
Y998500D01*
X289750D01*
Y1003132D01*
X290183Y1003565D01*
X290830Y1005127D01*
Y1006817D01*
X290183Y1008380D01*
X289750Y1008812D01*
Y1011754D01*
X289750Y1011763D01*
X289750Y1011765D01*
X289750Y1012996D01*
X290593Y1013897D01*
X292155Y1013250D01*
X293664D01*
X294895Y1013046D01*
X295450Y1012562D01*
X295450Y1012176D01*
X295450Y1012085D01*
Y1007832D01*
X295030Y1006817D01*
Y1005127D01*
X295450Y1004112D01*
Y998500D01*
X302450D01*
Y1003132D01*
X302883Y1003565D01*
X303530Y1005127D01*
Y1006817D01*
X302883Y1008380D01*
X302450Y1008812D01*
Y1013000D01*
X296522D01*
X296259Y1013000D01*
X295944Y1013790D01*
X296386Y1014876D01*
X296603Y1015093D01*
X296625Y1015145D01*
X297851Y1015389D01*
X298093Y1015147D01*
X299655Y1014500D01*
X301345D01*
X302907Y1015147D01*
X304103Y1016343D01*
X304750Y1017905D01*
Y1019595D01*
X304103Y1021157D01*
X302907Y1022353D01*
X301345Y1023000D01*
D02*
G37*
G36*
X685400Y1013250D02*
X678400D01*
Y1007702D01*
X677930Y1006567D01*
Y1004877D01*
X678400Y1003742D01*
Y998750D01*
X685400D01*
Y1002932D01*
X685783Y1003315D01*
X686430Y1004877D01*
Y1006567D01*
X685783Y1008130D01*
X685400Y1008512D01*
Y1013250D01*
D02*
G37*
G36*
X672700D02*
X665700D01*
Y1008402D01*
X665427Y1008130D01*
X664780Y1006567D01*
Y1004877D01*
X665427Y1003315D01*
X665700Y1003042D01*
Y998750D01*
X672700D01*
Y1003476D01*
X673280Y1004877D01*
Y1006567D01*
X672700Y1007968D01*
Y1013250D01*
D02*
G37*
G36*
X656845Y1024000D02*
X655155D01*
X653593Y1023353D01*
X652397Y1022157D01*
X651750Y1020595D01*
Y1018905D01*
X652397Y1017343D01*
X653593Y1016147D01*
X654088Y1015942D01*
Y1013250D01*
X653000D01*
Y1008402D01*
X652727Y1008130D01*
X652080Y1006567D01*
Y1004877D01*
X652727Y1003315D01*
X653000Y1003042D01*
Y998750D01*
X660000D01*
Y1003476D01*
X660580Y1004877D01*
Y1006567D01*
X660000Y1007968D01*
Y1013250D01*
X657912D01*
Y1015942D01*
X658407Y1016147D01*
X659603Y1017343D01*
X660250Y1018905D01*
Y1020595D01*
X659603Y1022157D01*
X658407Y1023353D01*
X656845Y1024000D01*
D02*
G37*
G36*
X644845Y1020250D02*
X643155D01*
X641593Y1019603D01*
X640397Y1018407D01*
X639750Y1016845D01*
Y1015155D01*
X640037Y1014461D01*
X640300Y1013250D01*
X640300D01*
X640300Y1013250D01*
Y1008402D01*
X640027Y1008130D01*
X639380Y1006567D01*
Y1004877D01*
X640027Y1003315D01*
X640300Y1003042D01*
Y998750D01*
X647300D01*
Y1003476D01*
X647880Y1004877D01*
Y1006567D01*
X647300Y1007968D01*
Y1013250D01*
X647300Y1013250D01*
X647300D01*
X647499Y1013475D01*
X647603Y1013593D01*
X647876Y1014251D01*
X648250Y1015155D01*
Y1016845D01*
X647603Y1018407D01*
X646407Y1019603D01*
X644845Y1020250D01*
D02*
G37*
G36*
X630345Y1026000D02*
X628655D01*
X627093Y1025353D01*
X625897Y1024157D01*
X625250Y1022595D01*
Y1020905D01*
X625838Y1019484D01*
Y1017500D01*
X625984Y1016768D01*
X626398Y1016148D01*
X628046Y1014500D01*
X627600Y1013250D01*
X627600D01*
Y1008402D01*
X627327Y1008130D01*
X626680Y1006567D01*
Y1004877D01*
X627327Y1003315D01*
X627600Y1003042D01*
Y998750D01*
X634600D01*
Y1003476D01*
X635180Y1004877D01*
Y1006567D01*
X634600Y1007968D01*
Y1013250D01*
X632841D01*
Y1014320D01*
X632696Y1015052D01*
X632281Y1015672D01*
X631217Y1016736D01*
X631461Y1017962D01*
X631907Y1018147D01*
X633103Y1019343D01*
X633750Y1020905D01*
Y1022595D01*
X633103Y1024157D01*
X631907Y1025353D01*
X630345Y1026000D01*
D02*
G37*
G36*
X619095Y1032166D02*
X617405D01*
X615843Y1031519D01*
X614647Y1030324D01*
X614000Y1028762D01*
Y1027071D01*
X614647Y1025509D01*
X615843Y1024313D01*
X616338Y1024108D01*
Y1013250D01*
X614900D01*
Y1008353D01*
X614677Y1008130D01*
X614030Y1006567D01*
Y1004877D01*
X614677Y1003315D01*
X614900Y1003092D01*
Y998750D01*
X621900D01*
Y1003356D01*
X622530Y1004877D01*
Y1006567D01*
X621900Y1008088D01*
Y1013250D01*
X620162D01*
Y1024108D01*
X620657Y1024313D01*
X621853Y1025509D01*
X622500Y1027071D01*
Y1028762D01*
X621853Y1030324D01*
X620657Y1031519D01*
X619095Y1032166D01*
D02*
G37*
G36*
X609200Y1013250D02*
X602200D01*
Y1008353D01*
X601977Y1008130D01*
X601330Y1006567D01*
Y1004877D01*
X601977Y1003315D01*
X602200Y1003092D01*
Y998750D01*
X609200D01*
Y1003356D01*
X609830Y1004877D01*
Y1006567D01*
X609200Y1008088D01*
Y1013250D01*
D02*
G37*
G36*
X596500D02*
X589500D01*
Y1008353D01*
X589277Y1008130D01*
X588630Y1006567D01*
Y1004877D01*
X589277Y1003315D01*
X589500Y1003092D01*
Y998750D01*
X596500D01*
Y1003356D01*
X597130Y1004877D01*
Y1006567D01*
X596500Y1008088D01*
Y1013250D01*
D02*
G37*
G36*
X583800D02*
X576800D01*
Y1008353D01*
X576577Y1008130D01*
X575930Y1006567D01*
Y1004877D01*
X576577Y1003315D01*
X576800Y1003092D01*
Y998750D01*
X583800D01*
Y1003356D01*
X584430Y1004877D01*
Y1006567D01*
X583800Y1008088D01*
Y1013250D01*
D02*
G37*
G36*
X571100D02*
X564100D01*
Y1008802D01*
X563927Y1008630D01*
X563280Y1007067D01*
Y1005377D01*
X563927Y1003815D01*
X564100Y1003642D01*
Y998750D01*
X571100D01*
Y1003782D01*
X571133Y1003815D01*
X571780Y1005377D01*
Y1007067D01*
X571133Y1008630D01*
X571100Y1008662D01*
Y1013250D01*
D02*
G37*
G36*
X558400D02*
X551400D01*
Y1008802D01*
X551227Y1008630D01*
X550580Y1007067D01*
Y1005377D01*
X551227Y1003815D01*
X551400Y1003642D01*
Y998750D01*
X558400D01*
Y1003782D01*
X558433Y1003815D01*
X559080Y1005377D01*
Y1007067D01*
X558433Y1008630D01*
X558400Y1008662D01*
Y1013250D01*
D02*
G37*
G36*
X429450Y1013000D02*
X422450D01*
Y1007944D01*
X421880Y1006567D01*
Y1004877D01*
X422450Y1003500D01*
Y998500D01*
X429450D01*
Y1003032D01*
X429733Y1003315D01*
X430380Y1004877D01*
Y1006567D01*
X429733Y1008130D01*
X429450Y1008412D01*
Y1013000D01*
D02*
G37*
G36*
X416750D02*
X409750D01*
Y1007944D01*
X409180Y1006567D01*
Y1004877D01*
X409750Y1003500D01*
Y998500D01*
X416750D01*
Y1003032D01*
X417033Y1003315D01*
X417680Y1004877D01*
Y1006567D01*
X417033Y1008130D01*
X416750Y1008412D01*
Y1013000D01*
D02*
G37*
G36*
X404050D02*
X397050D01*
Y1009503D01*
X396677Y1009129D01*
X396030Y1007567D01*
Y1005877D01*
X396677Y1004315D01*
X397050Y1003941D01*
Y998500D01*
X404050D01*
Y1004718D01*
X404530Y1005877D01*
Y1007567D01*
X404050Y1008726D01*
Y1013000D01*
D02*
G37*
G36*
X277050D02*
X270050D01*
Y1007832D01*
X269630Y1006817D01*
Y1005127D01*
X270050Y1004112D01*
Y998500D01*
X277050D01*
Y1003132D01*
X277483Y1003565D01*
X278130Y1005127D01*
Y1006817D01*
X277483Y1008380D01*
X277050Y1008812D01*
Y1013000D01*
D02*
G37*
G36*
X264350D02*
X257350D01*
Y1007832D01*
X256930Y1006817D01*
Y1005127D01*
X257350Y1004112D01*
Y998500D01*
X264350D01*
Y1003132D01*
X264783Y1003565D01*
X265430Y1005127D01*
Y1006817D01*
X264783Y1008380D01*
X264350Y1008812D01*
Y1013000D01*
D02*
G37*
G36*
X251650D02*
X244650D01*
Y1008565D01*
X244030Y1007067D01*
Y1005377D01*
X244650Y1003879D01*
Y998500D01*
X251650D01*
Y1003582D01*
X251883Y1003815D01*
X252530Y1005377D01*
Y1007067D01*
X251883Y1008630D01*
X251650Y1008862D01*
Y1013000D01*
D02*
G37*
%LPD*%
G36*
X547023Y1366898D02*
X547644Y1366484D01*
X548375Y1366338D01*
X549000D01*
Y1362000D01*
X553839D01*
Y1358000D01*
X548500D01*
Y1348203D01*
X546250Y1345954D01*
X545000Y1346472D01*
Y1358000D01*
X531500D01*
Y1353661D01*
X518365D01*
X517634Y1353516D01*
X517500Y1353427D01*
X516250Y1354038D01*
Y1354345D01*
X515603Y1355907D01*
X515602Y1355909D01*
X516080Y1357063D01*
X521475D01*
X522207Y1357209D01*
X522827Y1357623D01*
X530751Y1365547D01*
X532001Y1365029D01*
Y1362000D01*
X545500D01*
Y1366788D01*
X546655Y1367266D01*
X547023Y1366898D01*
D02*
G37*
G36*
X446848Y1355198D02*
X447469Y1354784D01*
X448200Y1354638D01*
X450166D01*
X450936Y1353486D01*
X452342Y1352547D01*
X454000Y1352217D01*
X464000D01*
X465658Y1352547D01*
X467064Y1353486D01*
X467834Y1354638D01*
X471158D01*
X480956Y1344841D01*
X480750Y1344345D01*
Y1342954D01*
X471946Y1334149D01*
X471531Y1333529D01*
X471386Y1332798D01*
Y1321999D01*
X469185Y1319798D01*
X467893Y1320273D01*
X467064Y1321514D01*
X465658Y1322453D01*
X464000Y1322783D01*
X460119D01*
X459595Y1323000D01*
X457905D01*
X457381Y1322783D01*
X454000D01*
X452342Y1322453D01*
X450936Y1321514D01*
X449997Y1320108D01*
X449667Y1318450D01*
X449997Y1316792D01*
X450936Y1315386D01*
X451001Y1315343D01*
X451126Y1313829D01*
X443677Y1306381D01*
X443200D01*
X442662Y1306274D01*
X442541Y1306279D01*
X441412Y1306982D01*
Y1340838D01*
X442157Y1341147D01*
X443353Y1342343D01*
X444000Y1343905D01*
Y1345595D01*
X443353Y1347157D01*
X442157Y1348353D01*
X440595Y1349000D01*
X438905D01*
X437343Y1348353D01*
X436147Y1347157D01*
X435500Y1345595D01*
Y1344082D01*
X435257Y1343680D01*
X434522Y1343000D01*
X433155D01*
X431593Y1342353D01*
X430397Y1341157D01*
X429750Y1339595D01*
Y1337905D01*
X430397Y1336343D01*
X431593Y1335147D01*
X432213Y1334890D01*
Y1306845D01*
X430980Y1306239D01*
X430925Y1306257D01*
X430300Y1306381D01*
X428200D01*
X427576Y1306257D01*
X427047Y1305903D01*
X426454D01*
X425924Y1306257D01*
X425300Y1306381D01*
X423200D01*
X422576Y1306257D01*
X422332Y1306180D01*
X421249Y1306622D01*
X421162Y1306701D01*
Y1328673D01*
X422796Y1330307D01*
X422897Y1330265D01*
X424587D01*
X426149Y1330912D01*
X427345Y1332107D01*
X427992Y1333669D01*
Y1335360D01*
X427345Y1336922D01*
X426149Y1338118D01*
X424587Y1338765D01*
X422897D01*
X421334Y1338118D01*
X420139Y1336922D01*
X419492Y1335360D01*
Y1333669D01*
X419861Y1332779D01*
X418555Y1331473D01*
X417242Y1331399D01*
X416162Y1332314D01*
Y1337538D01*
X434602Y1355978D01*
X435016Y1356599D01*
X435162Y1357330D01*
Y1364500D01*
X437546D01*
X446848Y1355198D01*
D02*
G37*
G36*
X291433Y1328643D02*
Y1327607D01*
X291579Y1326876D01*
X291993Y1326255D01*
X293088Y1325160D01*
Y1310000D01*
X282450D01*
Y1320000D01*
Y1329750D01*
X290441D01*
X291433Y1328643D01*
D02*
G37*
G36*
X410647Y1325593D02*
X411764Y1324476D01*
Y1323917D01*
X394228Y1306381D01*
X393200D01*
X392576Y1306257D01*
X391750Y1305997D01*
X390924Y1306257D01*
X390300Y1306381D01*
X388200D01*
X387576Y1306257D01*
X386750Y1305997D01*
X385925Y1306257D01*
X385300Y1306381D01*
X383200D01*
X382576Y1306257D01*
X382047Y1305903D01*
X381454D01*
X380924Y1306257D01*
X380300Y1306381D01*
X378200D01*
X377576Y1306257D01*
X376750Y1305997D01*
X375925Y1306257D01*
X375300Y1306381D01*
X373200D01*
X372576Y1306257D01*
X371750Y1305997D01*
X370924Y1306257D01*
X370300Y1306381D01*
X368200D01*
X367576Y1306257D01*
X366750Y1305997D01*
X365925Y1306257D01*
X365300Y1306381D01*
X363200D01*
X362576Y1306257D01*
X362047Y1305903D01*
X361454D01*
X360924Y1306257D01*
X360300Y1306381D01*
X358200D01*
X358162Y1306373D01*
X357022Y1307129D01*
X356912Y1307302D01*
Y1309131D01*
X358157Y1309647D01*
X359353Y1310843D01*
X360000Y1312405D01*
Y1314095D01*
X359353Y1315657D01*
X358157Y1316853D01*
X356595Y1317500D01*
X354905D01*
X353343Y1316853D01*
X352147Y1315657D01*
X351500Y1314095D01*
Y1312405D01*
X352147Y1310843D01*
X353088Y1309901D01*
Y1306359D01*
X352576Y1306257D01*
X352047Y1305903D01*
X351454D01*
X350924Y1306257D01*
X350300Y1306381D01*
X348200D01*
X347576Y1306257D01*
X346750Y1305997D01*
X345925Y1306257D01*
X345300Y1306381D01*
X344273D01*
X338427Y1312227D01*
X338500Y1312405D01*
Y1314095D01*
X337853Y1315657D01*
X336657Y1316853D01*
X335095Y1317500D01*
X333405D01*
X332787Y1317244D01*
X331537Y1318079D01*
Y1323838D01*
X393141D01*
X393873Y1323984D01*
X394493Y1324398D01*
X396183Y1326088D01*
X410442D01*
X410647Y1325593D01*
D02*
G37*
G36*
X319522Y1323343D02*
X320718Y1322147D01*
X322280Y1321500D01*
X323970D01*
X325532Y1322147D01*
X326463Y1323078D01*
X327688Y1322711D01*
X327713Y1322695D01*
Y1316219D01*
X327484Y1315876D01*
X327338Y1315145D01*
Y1306098D01*
X327047Y1305903D01*
X326693Y1305374D01*
X326569Y1304749D01*
Y1290750D01*
X326693Y1290125D01*
X327047Y1289596D01*
X327338Y1289401D01*
Y1280542D01*
X326341Y1279545D01*
X325845Y1279750D01*
X324155D01*
X322593Y1279103D01*
X321397Y1277907D01*
X320750Y1276345D01*
Y1274655D01*
X321397Y1273093D01*
X322593Y1271897D01*
X323041Y1271712D01*
X322792Y1270461D01*
X319002D01*
X318923Y1270548D01*
X318481Y1271632D01*
X318557Y1271875D01*
X318682Y1272499D01*
Y1274599D01*
X318557Y1275224D01*
X318204Y1275753D01*
Y1276346D01*
X318557Y1276875D01*
X318682Y1277500D01*
Y1279600D01*
X318557Y1280224D01*
X318204Y1280753D01*
X317675Y1281107D01*
X317050Y1281231D01*
X314012D01*
X313730Y1281575D01*
X313584Y1282306D01*
X313170Y1282926D01*
X312550Y1283341D01*
X311818Y1283486D01*
X309544D01*
X308812Y1283341D01*
X308192Y1282926D01*
X307778Y1282306D01*
X307632Y1281575D01*
X307350Y1281231D01*
X305698D01*
X305603Y1282467D01*
X306250Y1284029D01*
Y1285719D01*
X305735Y1286963D01*
X306304Y1288213D01*
X307375D01*
X308107Y1288359D01*
X308727Y1288773D01*
X317352Y1297398D01*
X317766Y1298018D01*
X317912Y1298750D01*
Y1323964D01*
X319162Y1324212D01*
X319522Y1323343D01*
D02*
G37*
%LPC*%
G36*
X464000Y1348183D02*
X454000D01*
X452342Y1347853D01*
X450936Y1346914D01*
X449997Y1345508D01*
X449667Y1343850D01*
X449997Y1342192D01*
X450936Y1340786D01*
X452342Y1339846D01*
X454000Y1339517D01*
X464000D01*
X465658Y1339846D01*
X467064Y1340786D01*
X468004Y1342192D01*
X468333Y1343850D01*
X468004Y1345508D01*
X467064Y1346914D01*
X465658Y1347853D01*
X464000Y1348183D01*
D02*
G37*
G36*
Y1335483D02*
X454000D01*
X452342Y1335153D01*
X450936Y1334214D01*
X449997Y1332808D01*
X449667Y1331150D01*
X449997Y1329492D01*
X450936Y1328086D01*
X452342Y1327146D01*
X454000Y1326817D01*
X464000D01*
X465658Y1327146D01*
X467064Y1328086D01*
X468004Y1329492D01*
X468333Y1331150D01*
X468004Y1332808D01*
X467064Y1334214D01*
X465658Y1335153D01*
X464000Y1335483D01*
D02*
G37*
%LPD*%
G36*
X683500Y1223500D02*
X684750Y1223500D01*
X684750Y1222250D01*
Y1218000D01*
X687298D01*
X687796Y1216750D01*
X687273Y1216227D01*
X686859Y1215607D01*
X686713Y1214875D01*
X686738Y1214750D01*
X685963Y1213594D01*
X685809Y1213500D01*
X684750D01*
Y1208000D01*
X691546D01*
X691773Y1207773D01*
X692393Y1207359D01*
X692950Y1207248D01*
X692963Y1207235D01*
Y1183250D01*
X677149D01*
X676671Y1184405D01*
X683352Y1191086D01*
X683766Y1191706D01*
X683912Y1192438D01*
Y1193500D01*
X684750D01*
Y1203000D01*
X664250D01*
Y1194715D01*
X664250Y1194201D01*
X663195Y1193309D01*
X662935Y1193325D01*
X662657Y1193603D01*
X661095Y1194250D01*
X659405D01*
X658732Y1193971D01*
X656287Y1196417D01*
Y1208000D01*
X664250D01*
Y1213838D01*
X672152D01*
X672884Y1213984D01*
X673504Y1214398D01*
X681727Y1222621D01*
X682141Y1223242D01*
X682193Y1223500D01*
X683500D01*
D02*
G37*
G36*
X301177Y1196551D02*
X301620Y1195467D01*
X301543Y1195224D01*
X301419Y1194600D01*
Y1192500D01*
X301543Y1191875D01*
X301897Y1191346D01*
Y1190753D01*
X301543Y1190224D01*
X301419Y1189599D01*
Y1187499D01*
X301543Y1186875D01*
X301803Y1186049D01*
X301543Y1185224D01*
X301419Y1184600D01*
Y1182500D01*
X301543Y1181875D01*
X301897Y1181346D01*
Y1180982D01*
X300959Y1180000D01*
X287750D01*
Y1167500D01*
X298547D01*
X298849Y1167198D01*
X299469Y1166783D01*
X300201Y1166638D01*
X301099D01*
X301177Y1166551D01*
X301620Y1165468D01*
X301543Y1165224D01*
X301419Y1164600D01*
Y1162500D01*
X301543Y1161875D01*
X301897Y1161346D01*
Y1160753D01*
X301543Y1160224D01*
X301419Y1159599D01*
Y1157499D01*
X301543Y1156875D01*
X301620Y1156632D01*
X301177Y1155548D01*
X301099Y1155461D01*
X289542D01*
X285709Y1159294D01*
X285089Y1159709D01*
X284357Y1159854D01*
X283514D01*
X283085Y1160890D01*
X281890Y1162085D01*
X280328Y1162732D01*
X278637D01*
X277075Y1162085D01*
X275879Y1160890D01*
X275232Y1159328D01*
Y1158116D01*
X272908D01*
X272773Y1159128D01*
X272766Y1159242D01*
Y1159243D01*
X272320Y1160320D01*
X271412Y1160696D01*
Y1187458D01*
X280591Y1196638D01*
X301099D01*
X301177Y1196551D01*
D02*
G37*
G36*
X489250Y1151963D02*
X503461D01*
X503864Y1152043D01*
X504203Y1151887D01*
X504718Y1151481D01*
X505000Y1151145D01*
Y1149829D01*
X505647Y1148267D01*
X506843Y1147072D01*
X508405Y1146425D01*
X510095D01*
X511559Y1147031D01*
X511929Y1146783D01*
X512660Y1146638D01*
X514499D01*
X514577Y1146551D01*
X515020Y1145468D01*
X514943Y1145224D01*
X514819Y1144600D01*
Y1142500D01*
X514943Y1141875D01*
X515297Y1141346D01*
Y1140753D01*
X514943Y1140224D01*
X514819Y1139599D01*
Y1137499D01*
X514943Y1136875D01*
X515020Y1136632D01*
X514577Y1135548D01*
X514499Y1135462D01*
X510507D01*
X510353Y1135832D01*
X509157Y1137028D01*
X507595Y1137674D01*
X505905D01*
X504343Y1137028D01*
X503601Y1136286D01*
X502684Y1136010D01*
X501979Y1136280D01*
X487407Y1150852D01*
X487091Y1151063D01*
X487066Y1151159D01*
X487267Y1151489D01*
X488518Y1152109D01*
X489250Y1151963D01*
D02*
G37*
G36*
X351501Y1121497D02*
X352148Y1119935D01*
X353344Y1118740D01*
X353431Y1118301D01*
X352647Y1117517D01*
X352000Y1115955D01*
Y1115318D01*
X342554D01*
X339896Y1117977D01*
X339276Y1118391D01*
X338544Y1118537D01*
X320459D01*
X319941Y1119787D01*
X322993Y1122838D01*
X351501D01*
Y1121497D01*
D02*
G37*
G36*
X377293Y1094553D02*
X377063Y1093165D01*
X376232Y1092760D01*
X375925Y1092857D01*
X375300Y1092981D01*
X373200D01*
X372576Y1092857D01*
X372047Y1092503D01*
X371454D01*
X370924Y1092857D01*
X370300Y1092981D01*
X368200D01*
X367576Y1092857D01*
X366750Y1092596D01*
X365925Y1092857D01*
X365300Y1092981D01*
X363200D01*
X362576Y1092857D01*
X361750Y1092596D01*
X360924Y1092857D01*
X360300Y1092981D01*
X360106D01*
X359537Y1093674D01*
Y1099018D01*
X359391Y1099749D01*
X358977Y1100370D01*
X358245Y1101102D01*
X357624Y1101516D01*
X357443Y1101552D01*
X357126Y1102013D01*
X357121Y1102235D01*
X357562Y1103443D01*
X358657Y1103897D01*
X359853Y1105093D01*
X360058Y1105588D01*
X366258D01*
X377293Y1094553D01*
D02*
G37*
G36*
X396004Y1129159D02*
X396651Y1127597D01*
X397847Y1126402D01*
X398089Y1126301D01*
Y1092959D01*
X397576Y1092857D01*
X397047Y1092503D01*
X396454D01*
X395925Y1092857D01*
X395300Y1092981D01*
X393200D01*
X392576Y1092857D01*
X391750Y1092596D01*
X390924Y1092857D01*
X390300Y1092981D01*
X388200D01*
X387576Y1092857D01*
X386750Y1092596D01*
X385925Y1092857D01*
X385300Y1092981D01*
X384273D01*
X368401Y1108852D01*
X367781Y1109266D01*
X367050Y1109412D01*
X360058D01*
X359853Y1109907D01*
X359272Y1110488D01*
X358779Y1111305D01*
X359272Y1112122D01*
X359853Y1112702D01*
X360500Y1114264D01*
Y1115955D01*
X359853Y1117517D01*
X358657Y1118713D01*
X358570Y1119151D01*
X359354Y1119935D01*
X360001Y1121497D01*
Y1123188D01*
X359354Y1124750D01*
X358159Y1125946D01*
X357904Y1126051D01*
X357660Y1127277D01*
X361222Y1130838D01*
X396004D01*
Y1129159D01*
D02*
G37*
G36*
X427576Y1075842D02*
X428200Y1075718D01*
X430300D01*
X430925Y1075842D01*
X431750Y1076103D01*
X432576Y1075842D01*
X433200Y1075718D01*
X435300D01*
X435924Y1075842D01*
X435981Y1075860D01*
X437214Y1075254D01*
Y1072417D01*
X437148Y1072352D01*
X436734Y1071732D01*
X436589Y1071000D01*
Y1070192D01*
X435467Y1069728D01*
X434272Y1068532D01*
X433625Y1066970D01*
Y1065280D01*
X434272Y1063717D01*
X435078Y1062912D01*
X434560Y1061662D01*
X429542D01*
X417258Y1073946D01*
X417333Y1075639D01*
X417507Y1075784D01*
X417699Y1075818D01*
X418200Y1075718D01*
X420300D01*
X420925Y1075842D01*
X421750Y1076103D01*
X422576Y1075842D01*
X423200Y1075718D01*
X425300D01*
X425924Y1075842D01*
X426454Y1076196D01*
X427047D01*
X427576Y1075842D01*
D02*
G37*
%LPC*%
G36*
X384595Y1122250D02*
X382905D01*
X381343Y1121603D01*
X380147Y1120408D01*
X379500Y1118846D01*
Y1117155D01*
X380147Y1115593D01*
X381343Y1114397D01*
X382905Y1113750D01*
X384595D01*
X386157Y1114397D01*
X387353Y1115593D01*
X388000Y1117155D01*
Y1118846D01*
X387353Y1120408D01*
X386157Y1121603D01*
X384595Y1122250D01*
D02*
G37*
G36*
X369845Y1122000D02*
X368155D01*
X366593Y1121353D01*
X365397Y1120158D01*
X364750Y1118596D01*
Y1116905D01*
X365397Y1115343D01*
X366593Y1114147D01*
X368155Y1113500D01*
X369845D01*
X371407Y1114147D01*
X372603Y1115343D01*
X373250Y1116905D01*
Y1118596D01*
X372603Y1120158D01*
X371407Y1121353D01*
X369845Y1122000D01*
D02*
G37*
%LPD*%
D15*
X287750Y1320250D02*
D03*
Y1303250D02*
D03*
X663000Y1348250D02*
D03*
Y1365250D02*
D03*
X680000D02*
D03*
Y1348250D02*
D03*
X592250Y1255250D02*
D03*
Y1272250D02*
D03*
X608250Y1255250D02*
D03*
Y1272250D02*
D03*
X689250Y1258000D02*
D03*
Y1275000D02*
D03*
X672750Y1258000D02*
D03*
Y1275000D02*
D03*
X665750Y1150500D02*
D03*
Y1167500D02*
D03*
X695750Y1348250D02*
D03*
Y1365250D02*
D03*
X266250Y1119250D02*
D03*
Y1102250D02*
D03*
X282500Y1119250D02*
D03*
Y1102250D02*
D03*
X647500Y1365000D02*
D03*
Y1348000D02*
D03*
X671500Y1063750D02*
D03*
Y1080750D02*
D03*
X655750Y1063750D02*
D03*
Y1080750D02*
D03*
X686750Y1081250D02*
D03*
Y1064250D02*
D03*
X643250Y1080750D02*
D03*
Y1063750D02*
D03*
D16*
X275500Y1352250D02*
D03*
Y1344250D02*
D03*
Y1296250D02*
D03*
Y1288250D02*
D03*
D17*
Y1322750D02*
D03*
Y1327750D02*
D03*
Y1332750D02*
D03*
Y1337750D02*
D03*
Y1317750D02*
D03*
Y1312750D02*
D03*
Y1307750D02*
D03*
Y1302750D02*
D03*
D18*
X640000Y1093000D02*
D03*
X640611Y1330315D02*
D03*
D19*
X609500Y1115750D02*
D03*
X671500D02*
D03*
X609500Y1305000D02*
D03*
X671500D02*
D03*
D20*
X703255Y1269983D02*
D03*
X703161Y1150451D02*
D03*
X577450Y1269864D02*
D03*
X577431Y1150020D02*
D03*
D21*
X216250Y1066250D02*
D03*
Y1154750D02*
D03*
D22*
X245250Y1091750D02*
D03*
Y1104250D02*
D03*
Y1116750D02*
D03*
Y1129250D02*
D03*
D23*
X259350Y1145000D02*
D03*
Y1150000D02*
D03*
Y1155000D02*
D03*
X264500Y1157650D02*
D03*
X269500D02*
D03*
X274650Y1155000D02*
D03*
Y1150000D02*
D03*
Y1145000D02*
D03*
X269500Y1142350D02*
D03*
X264500D02*
D03*
D24*
X478700Y1045000D02*
D03*
X491400D02*
D03*
X504100D02*
D03*
X516800D02*
D03*
X554900D02*
D03*
X542200D02*
D03*
X529500D02*
D03*
X567600D02*
D03*
X580300D02*
D03*
X593000D02*
D03*
X605700D02*
D03*
X618400D02*
D03*
X656500D02*
D03*
X643800D02*
D03*
X631100D02*
D03*
X669200D02*
D03*
X681900D02*
D03*
X694600D02*
D03*
X707300D02*
D03*
X720000D02*
D03*
X478700Y1006000D02*
D03*
X491400D02*
D03*
X504100D02*
D03*
X516800D02*
D03*
X554900D02*
D03*
X542200D02*
D03*
X529500D02*
D03*
X567600D02*
D03*
X580300D02*
D03*
X593000D02*
D03*
X605700D02*
D03*
X618400D02*
D03*
X656500D02*
D03*
X643800D02*
D03*
X631100D02*
D03*
X669200D02*
D03*
X681900D02*
D03*
X694600D02*
D03*
X707300D02*
D03*
X720000D02*
D03*
X451350Y1005750D02*
D03*
X438650D02*
D03*
X425950D02*
D03*
X413250D02*
D03*
X400550D02*
D03*
X362450D02*
D03*
X375150D02*
D03*
X387850D02*
D03*
X349750D02*
D03*
X337050D02*
D03*
X324350D02*
D03*
X311650D02*
D03*
X298950D02*
D03*
X260850D02*
D03*
X273550D02*
D03*
X286250D02*
D03*
X248150D02*
D03*
X235450D02*
D03*
X222750D02*
D03*
X210050D02*
D03*
X451350Y1044750D02*
D03*
X438650D02*
D03*
X425950D02*
D03*
X413250D02*
D03*
X400550D02*
D03*
X362450D02*
D03*
X375150D02*
D03*
X387850D02*
D03*
X349750D02*
D03*
X337050D02*
D03*
X324350D02*
D03*
X311650D02*
D03*
X298950D02*
D03*
X260850D02*
D03*
X273550D02*
D03*
X286250D02*
D03*
X248150D02*
D03*
X235450D02*
D03*
X222750D02*
D03*
X210050D02*
D03*
X210000Y1425000D02*
D03*
X222700D02*
D03*
X235400D02*
D03*
X248100D02*
D03*
X286200D02*
D03*
X273500D02*
D03*
X260800D02*
D03*
X298900D02*
D03*
X311600D02*
D03*
X324300D02*
D03*
X337000D02*
D03*
X349700D02*
D03*
X387800D02*
D03*
X375100D02*
D03*
X362400D02*
D03*
X400500D02*
D03*
X413200D02*
D03*
X425900D02*
D03*
X438600D02*
D03*
X451300D02*
D03*
X210000Y1386000D02*
D03*
X222700D02*
D03*
X235400D02*
D03*
X248100D02*
D03*
X286200D02*
D03*
X273500D02*
D03*
X260800D02*
D03*
X298900D02*
D03*
X311600D02*
D03*
X324300D02*
D03*
X337000D02*
D03*
X349700D02*
D03*
X387800D02*
D03*
X375100D02*
D03*
X362400D02*
D03*
X400500D02*
D03*
X413200D02*
D03*
X425900D02*
D03*
X438600D02*
D03*
X451300D02*
D03*
X720000Y1386000D02*
D03*
X707300D02*
D03*
X694600D02*
D03*
X681900D02*
D03*
X669200D02*
D03*
X631100D02*
D03*
X643800D02*
D03*
X656500D02*
D03*
X618400D02*
D03*
X605700D02*
D03*
X593000D02*
D03*
X580300D02*
D03*
X567600D02*
D03*
X529500D02*
D03*
X542200D02*
D03*
X554900D02*
D03*
X516800D02*
D03*
X504100D02*
D03*
X491400D02*
D03*
X478700D02*
D03*
X720000Y1425000D02*
D03*
X707300D02*
D03*
X694600D02*
D03*
X681900D02*
D03*
X669200D02*
D03*
X631100D02*
D03*
X643800D02*
D03*
X656500D02*
D03*
X618400D02*
D03*
X605700D02*
D03*
X593000D02*
D03*
X580300D02*
D03*
X567600D02*
D03*
X529500D02*
D03*
X542200D02*
D03*
X554900D02*
D03*
X516800D02*
D03*
X504100D02*
D03*
X491400D02*
D03*
X478700D02*
D03*
D25*
X387000Y1356550D02*
D03*
Y1343850D02*
D03*
Y1331150D02*
D03*
Y1318450D02*
D03*
X459000D02*
D03*
Y1331150D02*
D03*
Y1343850D02*
D03*
Y1356550D02*
D03*
D26*
X479400Y1317800D02*
D03*
X492100D02*
D03*
X504800D02*
D03*
X517500D02*
D03*
Y1369500D02*
D03*
X504800D02*
D03*
X492100D02*
D03*
X479400D02*
D03*
D27*
X523451Y1103550D02*
D03*
Y1108549D02*
D03*
Y1113550D02*
D03*
Y1118549D02*
D03*
Y1123550D02*
D03*
Y1128549D02*
D03*
Y1133550D02*
D03*
Y1138549D02*
D03*
Y1143550D02*
D03*
Y1148549D02*
D03*
Y1153550D02*
D03*
Y1158549D02*
D03*
Y1163550D02*
D03*
Y1168549D02*
D03*
Y1173550D02*
D03*
Y1178549D02*
D03*
Y1183550D02*
D03*
Y1188549D02*
D03*
Y1193550D02*
D03*
Y1198549D02*
D03*
Y1203550D02*
D03*
Y1208549D02*
D03*
Y1213550D02*
D03*
Y1218549D02*
D03*
Y1223549D02*
D03*
Y1228550D02*
D03*
Y1233549D02*
D03*
Y1238550D02*
D03*
Y1243549D02*
D03*
Y1248550D02*
D03*
Y1253549D02*
D03*
Y1258550D02*
D03*
Y1263549D02*
D03*
Y1268550D02*
D03*
Y1273549D02*
D03*
Y1278550D02*
D03*
X310050D02*
D03*
Y1273549D02*
D03*
Y1268550D02*
D03*
Y1263549D02*
D03*
Y1258550D02*
D03*
Y1253549D02*
D03*
Y1248550D02*
D03*
Y1243549D02*
D03*
Y1238550D02*
D03*
Y1233549D02*
D03*
Y1228550D02*
D03*
Y1223549D02*
D03*
Y1218549D02*
D03*
Y1213550D02*
D03*
Y1208549D02*
D03*
Y1203550D02*
D03*
Y1198549D02*
D03*
Y1193550D02*
D03*
Y1188549D02*
D03*
Y1183550D02*
D03*
Y1178549D02*
D03*
Y1173550D02*
D03*
Y1168549D02*
D03*
Y1163550D02*
D03*
Y1158549D02*
D03*
Y1153550D02*
D03*
Y1148549D02*
D03*
Y1143550D02*
D03*
Y1138549D02*
D03*
Y1133550D02*
D03*
Y1128549D02*
D03*
Y1123550D02*
D03*
Y1118549D02*
D03*
Y1113550D02*
D03*
Y1108549D02*
D03*
Y1103550D02*
D03*
D28*
X329250Y1084349D02*
D03*
X334250D02*
D03*
X339250D02*
D03*
X344250D02*
D03*
X349250D02*
D03*
X354250D02*
D03*
X359250D02*
D03*
X364250D02*
D03*
X369250D02*
D03*
X374250D02*
D03*
X379250D02*
D03*
X384250D02*
D03*
X389250D02*
D03*
X394250D02*
D03*
X399251D02*
D03*
X404250D02*
D03*
X409250D02*
D03*
X414250D02*
D03*
X419250D02*
D03*
X424250D02*
D03*
X429250D02*
D03*
X434250D02*
D03*
X439250D02*
D03*
X444250D02*
D03*
X449250D02*
D03*
X454250D02*
D03*
X459250D02*
D03*
X464250D02*
D03*
X469250D02*
D03*
X474250D02*
D03*
X479250D02*
D03*
X484250D02*
D03*
X489250D02*
D03*
X494250D02*
D03*
X499250D02*
D03*
X504250D02*
D03*
Y1297750D02*
D03*
X499250D02*
D03*
X494250D02*
D03*
X489250D02*
D03*
X484250D02*
D03*
X479250D02*
D03*
X474250D02*
D03*
X469250D02*
D03*
X464250D02*
D03*
X459250D02*
D03*
X454250D02*
D03*
X449250D02*
D03*
X444250D02*
D03*
X439250D02*
D03*
X434250D02*
D03*
X429250D02*
D03*
X424250D02*
D03*
X419250D02*
D03*
X414250D02*
D03*
X409250D02*
D03*
X404250D02*
D03*
X399251D02*
D03*
X394250D02*
D03*
X389250D02*
D03*
X384250D02*
D03*
X379250D02*
D03*
X374250D02*
D03*
X369250D02*
D03*
X364250D02*
D03*
X359250D02*
D03*
X354250D02*
D03*
X349250D02*
D03*
X344250D02*
D03*
X339250D02*
D03*
X334250D02*
D03*
X329250D02*
D03*
D29*
X560499Y1131750D02*
D03*
X543500D02*
D03*
X381250Y1062250D02*
D03*
X398250D02*
D03*
X361750Y1062000D02*
D03*
X344750D02*
D03*
X543750Y1113750D02*
D03*
X560750D02*
D03*
X648250Y1256500D02*
D03*
X631250D02*
D03*
X433500Y1370750D02*
D03*
X416500D02*
D03*
X538250Y1335750D02*
D03*
X555250D02*
D03*
X555250Y1319750D02*
D03*
X538250D02*
D03*
X555750Y1368250D02*
D03*
X538750D02*
D03*
X538250Y1351750D02*
D03*
X555250D02*
D03*
X288250Y1336000D02*
D03*
X305250D02*
D03*
X294500Y1173750D02*
D03*
X277500D02*
D03*
X630500Y1167000D02*
D03*
X647500D02*
D03*
X560250Y1148500D02*
D03*
X543250D02*
D03*
X561000Y1163750D02*
D03*
X544000D02*
D03*
X560750Y1179750D02*
D03*
X543750D02*
D03*
D30*
X628250Y1343000D02*
D03*
X610250D02*
D03*
X619250Y1367000D02*
D03*
X615250Y1058750D02*
D03*
X624250Y1082750D02*
D03*
X606250D02*
D03*
X579250Y1081750D02*
D03*
X570250Y1057750D02*
D03*
X588250D02*
D03*
X587750Y1342500D02*
D03*
X596750Y1366500D02*
D03*
X578750D02*
D03*
D31*
X716750Y1141500D02*
D03*
Y1066500D02*
D03*
X719000Y1292000D02*
D03*
Y1367000D02*
D03*
D32*
X639650Y1213250D02*
D03*
X601350D02*
D03*
D33*
X635500Y1201600D02*
D03*
X630500D02*
D03*
X625500D02*
D03*
X620500D02*
D03*
X615500D02*
D03*
X610500D02*
D03*
X605500D02*
D03*
Y1224900D02*
D03*
X610500D02*
D03*
X615500D02*
D03*
X620500D02*
D03*
X625500D02*
D03*
X630500D02*
D03*
X635500D02*
D03*
D34*
X667000Y1228250D02*
D03*
X672000D02*
D03*
X677000D02*
D03*
X682000D02*
D03*
Y1198250D02*
D03*
X677000D02*
D03*
X672000D02*
D03*
X667000D02*
D03*
D35*
X689500Y1220750D02*
D03*
Y1215750D02*
D03*
Y1210750D02*
D03*
Y1205750D02*
D03*
X659500D02*
D03*
Y1210750D02*
D03*
Y1215750D02*
D03*
Y1220750D02*
D03*
D36*
X685500Y1174000D02*
D03*
Y1146000D02*
D03*
D37*
X717750Y1235500D02*
D03*
Y1257500D02*
D03*
X718500Y1206250D02*
D03*
X718500Y1184250D02*
D03*
D65*
X257750Y1097952D02*
Y1104250D01*
X274702Y1081000D02*
X317500D01*
X257750Y1097952D02*
X274702Y1081000D01*
X321106Y1244875D02*
X338150D01*
X310050Y1243549D02*
X319780D01*
X321106Y1244875D01*
X326345Y1263549D02*
X330414Y1259481D01*
X337161D01*
X342627Y1258053D02*
X344324Y1259750D01*
X342197Y1258053D02*
X342627D01*
X337144Y1253000D02*
X342197Y1258053D01*
X337161Y1259481D02*
X340608Y1262928D01*
X329306Y1268550D02*
X333500Y1264356D01*
X344324Y1259750D02*
X355250D01*
X310050Y1268550D02*
X329306D01*
X310050Y1263549D02*
X326345D01*
X325000Y1275500D02*
X329250Y1279750D01*
Y1315145D01*
X329625Y1315519D01*
X334700Y1313250D02*
X344250Y1303700D01*
X329625Y1315519D02*
Y1325375D01*
X334250Y1313250D02*
X334700D01*
X344250Y1297750D02*
Y1303700D01*
X292250Y1265400D02*
X304100Y1253549D01*
X292250Y1265400D02*
Y1275549D01*
X296303Y1279602D01*
X289250Y1276084D02*
X293803Y1280638D01*
X286750Y1255900D02*
X304100Y1238550D01*
X289250Y1263400D02*
Y1276084D01*
X286750Y1277120D02*
X288100Y1278469D01*
X289250Y1263400D02*
X304100Y1248550D01*
X286750Y1255900D02*
Y1277120D01*
X309544Y1281575D02*
X311818D01*
X304100Y1253549D02*
X310050D01*
X304100Y1248550D02*
X310050D01*
X464750Y1412000D02*
X495250D01*
X510250Y1397000D01*
X462000Y1400500D02*
X487500D01*
X497500Y1390500D01*
X510250Y1380800D02*
Y1397000D01*
X497500Y1380750D02*
Y1390500D01*
X491900Y1375150D02*
X497500Y1380750D01*
X491900Y1363550D02*
Y1375150D01*
X257000Y1327500D02*
X275250D01*
X275500Y1327750D01*
X246000Y1322500D02*
X275250D01*
X275500Y1322750D01*
X243750Y1317500D02*
X275250D01*
X275500Y1317750D01*
X239250Y1313000D02*
X243750Y1317500D01*
X254750Y1312500D02*
X275250D01*
X275500Y1312750D01*
X287750Y1304000D02*
X288250Y1304500D01*
X288100Y1288927D02*
X292298Y1293125D01*
X300071Y1293375D02*
X306709D01*
X288100Y1278469D02*
Y1288927D01*
X296303Y1279602D02*
Y1286072D01*
X300357Y1290125D02*
X307375D01*
X293803Y1287107D02*
X300071Y1293375D01*
X293803Y1280638D02*
Y1287107D01*
X296303Y1286072D02*
X300357Y1290125D01*
X309787Y1328643D02*
X310519Y1329375D01*
X312375Y1330327D02*
Y1342375D01*
X317107Y1351107D02*
X317250Y1351250D01*
X309787Y1327607D02*
Y1328643D01*
X310519Y1329375D02*
X311423D01*
X309787Y1327607D02*
X313500Y1323894D01*
X314875Y1335625D02*
X320000Y1340750D01*
X314875Y1330840D02*
Y1335625D01*
X316000Y1298750D02*
Y1329715D01*
X311423Y1329375D02*
X312375Y1330327D01*
X317107Y1347107D02*
Y1351107D01*
X312375Y1342375D02*
X317107Y1347107D01*
X314875Y1330840D02*
X316000Y1329715D01*
X294423Y1329375D02*
X295375Y1330327D01*
X292760Y1344990D02*
X295375Y1342375D01*
X293345Y1327607D02*
Y1328643D01*
X294077Y1329375D01*
X293345Y1327607D02*
X295000Y1325952D01*
X292760Y1344990D02*
Y1347510D01*
X295375Y1330327D02*
Y1342375D01*
X294077Y1329375D02*
X294423D01*
X289899Y1344649D02*
X292760Y1347510D01*
X294468Y1349218D01*
X320000Y1340750D02*
X320500D01*
X413676Y1328000D02*
X414250D01*
X395391D02*
X413676D01*
X323500Y1325375D02*
X329625D01*
X332750Y1351500D02*
Y1352000D01*
X323125Y1325750D02*
X323500Y1325375D01*
X328000Y1346750D02*
X332750Y1351500D01*
X307375Y1290125D02*
X316000Y1298750D01*
X332750Y1352000D02*
X337300Y1356550D01*
X313500Y1300167D02*
Y1323894D01*
X306709Y1293375D02*
X313500Y1300167D01*
X311600Y1365900D02*
X316500Y1361000D01*
X316750D01*
X275500Y1295625D02*
X294268D01*
X295000Y1296357D01*
Y1325952D01*
X299036Y1295875D02*
X305673D01*
X306625Y1296827D01*
X296285Y1293125D02*
X299036Y1295875D01*
X302000Y1283965D02*
Y1284874D01*
X303675Y1279325D02*
Y1282289D01*
X302000Y1283965D02*
X303675Y1282289D01*
X292298Y1293125D02*
X296285D01*
X311000Y1302702D02*
Y1319500D01*
X306625Y1296827D02*
Y1298327D01*
X311000Y1302702D01*
X269125Y1295625D02*
X275500D01*
Y1302500D02*
X283250D01*
X304450Y1278550D02*
X310050D01*
X303675Y1279325D02*
X304450Y1278550D01*
X306625Y1323875D02*
X311000Y1319500D01*
X609375Y1115625D02*
X609500Y1115750D01*
X597250Y1115625D02*
X609375D01*
X577409Y1352569D02*
X588595Y1363756D01*
X577409Y1348784D02*
Y1352569D01*
X576500Y1347875D02*
X577409Y1348784D01*
X222880Y1045722D02*
X235580D01*
Y1006222D02*
Y1045722D01*
X210180D02*
X222880D01*
Y1006222D02*
X235580D01*
X210180D02*
X222880D01*
X608500Y1306000D02*
X609500Y1305000D01*
X593500Y1306000D02*
X608500D01*
X603375Y1357625D02*
Y1372173D01*
X590125D02*
X591077Y1373125D01*
X590125Y1372078D02*
Y1372173D01*
X591077Y1373125D02*
X602423D01*
X603375Y1372173D01*
X588175Y1370129D02*
X590125Y1372078D01*
X582379Y1370129D02*
X588175D01*
X578750Y1366500D02*
X582379Y1370129D01*
X599500Y1353750D02*
X603375Y1357625D01*
X589754Y1366500D02*
X596750D01*
X588595Y1365341D02*
X589754Y1366500D01*
X588595Y1363756D02*
Y1365341D01*
X498125Y1330275D02*
Y1331250D01*
X413126Y1075374D02*
X428750Y1059750D01*
X412382Y1075374D02*
X413126D01*
X428750Y1059750D02*
X446898D01*
X409250Y1078399D02*
X410025Y1077624D01*
X410493D02*
X411225Y1076892D01*
X410025Y1077624D02*
X410493D01*
X411225Y1076531D02*
Y1076892D01*
X409250Y1078399D02*
Y1084349D01*
X411225Y1076531D02*
X412382Y1075374D01*
X389759Y1053390D02*
Y1054425D01*
X390875Y1067673D02*
X394250Y1071049D01*
X389759Y1054425D02*
X390875Y1055541D01*
X389759Y1053390D02*
X394376Y1048772D01*
X388375Y1056577D02*
Y1068709D01*
X390875Y1055541D02*
Y1067673D01*
X383750Y1051952D02*
X388375Y1056577D01*
X383750Y1048787D02*
Y1051952D01*
X586777Y1375625D02*
X652625D01*
X586156Y1375004D02*
X586777Y1375625D01*
X652625D02*
X658125Y1370125D01*
X625395Y1249750D02*
X628250Y1246894D01*
X623375Y1251576D02*
Y1267000D01*
Y1251576D02*
X625201Y1249750D01*
X628250Y1238435D02*
Y1246894D01*
X625500Y1235685D02*
X628250Y1238435D01*
X625201Y1249750D02*
X625395D01*
X625500Y1224900D02*
Y1235685D01*
X592548Y1082750D02*
X593951D01*
X600577Y1076125D01*
X611923D02*
X614649Y1078851D01*
Y1080024D01*
X617375Y1082750D01*
X624250D01*
X600577Y1076125D02*
X611923D01*
X584923Y1075125D02*
X592548Y1082750D01*
X573577Y1075125D02*
X584923D01*
X570250Y1057750D02*
X577715D01*
X581625Y1061660D01*
Y1064375D01*
X573375Y1072625D02*
X581625Y1064375D01*
X634125Y1056542D02*
Y1058327D01*
X630750Y1061702D02*
X634125Y1058327D01*
X631000Y1071500D02*
X636625Y1065875D01*
X630750Y1061702D02*
Y1061750D01*
X566709Y1075041D02*
X570125D01*
X572541Y1072625D01*
X573375D01*
X555500Y1086250D02*
X566709Y1075041D01*
X504750Y1317500D02*
Y1323300D01*
X293849Y1137753D02*
X297781D01*
X289000Y1146875D02*
X290840Y1148715D01*
X286750Y1134867D02*
Y1140205D01*
X292940Y1136844D02*
X293849Y1137753D01*
X294844Y1143840D02*
X295266Y1143418D01*
X283750Y1128250D02*
X294211D01*
X295266Y1143418D02*
X309919D01*
X297000Y1148715D02*
X297165Y1148549D01*
X290840Y1148715D02*
X297000D01*
X294211Y1128250D02*
X294625Y1127836D01*
X297165Y1148549D02*
X310050D01*
X298440Y1138412D02*
X309913D01*
X297781Y1137753D02*
X298440Y1138412D01*
X286160Y1134276D02*
X286750Y1134867D01*
X334648Y1108408D02*
X335489Y1109250D01*
X337509Y1114125D02*
X343500Y1108134D01*
X322895Y1103550D02*
X333470Y1114125D01*
X334648Y1102208D02*
Y1108408D01*
X354965Y1115110D02*
X356250D01*
X338544Y1116625D02*
X341762Y1113407D01*
X333470Y1114125D02*
X337509D01*
X319076Y1116625D02*
X338544D01*
X353261Y1113407D02*
X354965Y1115110D01*
X316000Y1113550D02*
X319076Y1116625D01*
X310050Y1103550D02*
X322895D01*
X343500Y1100250D02*
Y1108134D01*
X341762Y1113407D02*
X353261D01*
X694107Y1087375D02*
X704883D01*
X694107Y1081500D02*
X721548D01*
X693375Y1086643D02*
X694107Y1087375D01*
X693375Y1082232D02*
Y1086643D01*
Y1082232D02*
X694107Y1081500D01*
X721548D02*
X725875Y1077173D01*
X724923Y1054875D02*
X725875Y1055827D01*
X706893Y1073625D02*
X707625Y1072893D01*
Y1055827D02*
X708577Y1054875D01*
X664875Y1074577D02*
Y1083393D01*
X706758Y1089250D02*
X706758D01*
X704883Y1087375D02*
X706758Y1089250D01*
X664143Y1084125D02*
X664875Y1083393D01*
X706758Y1089250D02*
X709875Y1092367D01*
X708577Y1054875D02*
X724923D01*
X665827Y1073625D02*
X706893D01*
X725875Y1055827D02*
Y1077173D01*
X707625Y1055827D02*
Y1072893D01*
X664875Y1074577D02*
X665827Y1073625D01*
X659875Y1084125D02*
X664143D01*
X523676Y1208775D02*
X537525D01*
X523451Y1208549D02*
X523676Y1208775D01*
X537525D02*
X537750Y1209000D01*
X523451Y1203550D02*
X554050D01*
X568750Y1218250D01*
X668500Y1385500D02*
Y1424300D01*
X669200Y1425000D01*
X656500Y1386000D02*
Y1425000D01*
X643800D02*
X656500D01*
X643600Y1385000D02*
X655499D01*
X656500Y1386000D01*
X706500Y1385200D02*
X707300Y1386000D01*
Y1425000D02*
X720000D01*
X694600D02*
X707300D01*
X720000Y1386000D02*
Y1425000D01*
X707300Y1386000D02*
X720000D01*
X694600D02*
X707300D01*
X310050Y1193550D02*
X334764D01*
X336465Y1195250D02*
X337750D01*
X334764Y1193550D02*
X336465Y1195250D01*
X443735Y1257765D02*
X449000Y1252500D01*
X592500Y1254750D02*
X608000D01*
X592125Y1255125D02*
Y1256875D01*
X310050Y1113550D02*
X316000D01*
X498125Y1330275D02*
X504600Y1323800D01*
Y1323450D02*
Y1323800D01*
X330000Y1325750D02*
X393141D01*
X395391Y1328000D01*
X433250Y1370500D02*
X434250D01*
X414250Y1328000D02*
Y1338330D01*
X433250Y1357330D01*
Y1370500D01*
X423742Y1333956D02*
Y1334515D01*
X419250Y1329465D02*
X423742Y1333956D01*
X419250Y1297750D02*
Y1329465D01*
X459000Y1356550D02*
X471950D01*
X485000Y1343500D01*
X294475Y1218775D02*
X309825D01*
X294250Y1219000D02*
X294475Y1218775D01*
X309825D02*
X310050Y1218549D01*
X253003Y1241639D02*
X285737D01*
X240766Y1243659D02*
X240857Y1243750D01*
X238659Y1243659D02*
X240766D01*
X236841D02*
X237750Y1242750D01*
X238659Y1243659D01*
X234643Y1243750D02*
X234734Y1243659D01*
X236841D01*
X240857Y1243750D02*
X250893D01*
X222500D02*
X234643D01*
X250893D02*
X253003Y1241639D01*
X222000Y1244250D02*
X222500Y1243750D01*
X537000Y1254060D02*
X539917Y1256977D01*
Y1268033D01*
X529400Y1278550D02*
X539917Y1268033D01*
X537000Y1253000D02*
Y1254060D01*
X523451Y1278550D02*
X529400D01*
X592125Y1256875D02*
X592500Y1257250D01*
X537000Y1233250D02*
Y1253000D01*
Y1233250D02*
X541725Y1228525D01*
X509504Y1288625D02*
X547625D01*
X541725Y1228525D02*
X541750Y1228500D01*
X523451Y1228550D02*
X523475Y1228525D01*
X541725D01*
X523801Y1213900D02*
X546650D01*
X547000Y1214250D01*
X523451Y1213550D02*
X523801Y1213900D01*
X473298Y1332798D02*
X484000Y1343500D01*
X485000D01*
X499178Y1354716D02*
Y1356272D01*
X499375Y1353086D02*
Y1354519D01*
Y1353086D02*
X507961Y1344500D01*
X499178Y1354716D02*
X499375Y1354519D01*
X473298Y1321207D02*
Y1332798D01*
X462595Y1310504D02*
X473298Y1321207D01*
X456055Y1310504D02*
X462595D01*
X449250Y1303700D02*
X456055Y1310504D01*
X449250Y1297750D02*
Y1303700D01*
X320549Y1218549D02*
X324500Y1222500D01*
X310050Y1218549D02*
X320549D01*
X290091Y1230216D02*
Y1232216D01*
X291000Y1233125D01*
X286466Y1230216D02*
X290091D01*
X253325Y1197075D02*
X286466Y1230216D01*
X294500Y1173750D02*
X295000D01*
X300201Y1168549D02*
X310050D01*
X295000Y1173750D02*
X300201Y1168549D01*
X448200Y1356550D02*
X459000D01*
X434250Y1370500D02*
X448200Y1356550D01*
X532425Y1091824D02*
X543250Y1081000D01*
X532425Y1091824D02*
Y1110418D01*
X531376Y1111467D02*
X532425Y1110418D01*
X531376Y1111467D02*
Y1111574D01*
X529400Y1113550D02*
X531376Y1111574D01*
X523451Y1113550D02*
X529400D01*
X533876Y1112503D02*
X534925Y1111453D01*
X533876Y1112503D02*
Y1114074D01*
X534925Y1109776D02*
X545827Y1098875D01*
X534925Y1109776D02*
Y1111453D01*
X481320Y1127469D02*
Y1128755D01*
X479250Y1125400D02*
X481320Y1127469D01*
X479250Y1084349D02*
Y1125400D01*
X484250Y1084349D02*
X489250D01*
X488625Y1084975D02*
X489250Y1084349D01*
X488625Y1084975D02*
Y1102125D01*
X488000Y1102750D02*
X488625Y1102125D01*
X474250Y1084349D02*
Y1102750D01*
X464250Y1041500D02*
Y1042398D01*
X446898Y1059750D02*
X464250Y1042398D01*
X443482Y1062250D02*
X462125D01*
X442750Y1062982D02*
Y1076899D01*
X444250Y1078399D01*
Y1084349D01*
X442750Y1062982D02*
X443482Y1062250D01*
X321165Y1127250D02*
X354930D01*
X320130Y1129750D02*
X353894D01*
X318929Y1128549D02*
X320130Y1129750D01*
X355051Y1122343D02*
X355751D01*
X316000Y1123550D02*
X318500Y1126049D01*
X354930Y1127250D02*
X360430Y1132750D01*
X310050Y1128549D02*
X318929D01*
X353894Y1129750D02*
X359500Y1135356D01*
X319965Y1126049D02*
X321165Y1127250D01*
X318500Y1126049D02*
X319965D01*
X316000Y1118549D02*
X322201Y1124750D01*
X352644D01*
X355051Y1122343D01*
X310050Y1123550D02*
X316000D01*
X310050Y1118549D02*
X316000D01*
X334648Y1102208D02*
X341481Y1095375D01*
X343500Y1100250D02*
X344250D01*
X347322Y1103322D02*
X352249D01*
X344250Y1100250D02*
X347322Y1103322D01*
X341481Y1095375D02*
X342450D01*
X344250Y1093574D01*
Y1084349D02*
Y1093574D01*
X352249Y1103322D02*
X355822Y1099750D01*
X367050Y1107500D02*
X384250Y1090299D01*
X356250Y1107500D02*
X367050D01*
X359500Y1135356D02*
Y1143500D01*
X355822Y1099750D02*
X356893D01*
X357625Y1093674D02*
Y1099018D01*
X356893Y1099750D02*
X357625Y1099018D01*
X354250Y1084349D02*
Y1090299D01*
X357625Y1093674D01*
X349250Y1084349D02*
Y1093500D01*
X351677Y1095927D02*
X352750D01*
X349250Y1093500D02*
X351677Y1095927D01*
X266000Y1119500D02*
Y1120000D01*
X264500Y1121000D02*
X265750Y1119750D01*
X266000Y1119500D02*
X266250Y1119250D01*
X282500D01*
Y1118750D02*
Y1119250D01*
X282000Y1118250D02*
X282500Y1118750D01*
X280416Y1030066D02*
Y1061745D01*
X280547Y1061875D01*
X334875Y1069731D02*
X335107Y1069499D01*
X334250Y1071751D02*
Y1084349D01*
X334875Y1069731D02*
Y1071126D01*
X329741Y1069210D02*
X330076Y1068875D01*
X334250Y1071751D02*
X334875Y1071126D01*
X329741Y1069210D02*
Y1083858D01*
X405681Y1136980D02*
X406967D01*
X400000Y1129750D02*
X400254Y1130004D01*
X414250Y1084350D02*
Y1129806D01*
X430194Y1146855D02*
X431225Y1145825D01*
X397670Y1140375D02*
X401651Y1144355D01*
X400000Y1085099D02*
Y1129750D01*
X393400Y1144000D02*
X394582D01*
X401651Y1144355D02*
X421388D01*
X386763Y1139125D02*
X395409D01*
X402686Y1141855D02*
X415151D01*
X397695Y1137875D02*
X398706D01*
X403005Y1135139D02*
X403840D01*
X397438Y1146855D02*
X430194D01*
X396660Y1140375D02*
X397670D01*
X415151Y1141855D02*
X421225Y1135781D01*
X382000Y1143888D02*
X386763Y1139125D01*
X414250Y1129806D02*
X414730Y1130286D01*
X421388Y1144355D02*
X426226Y1139518D01*
X394582Y1144000D02*
X397438Y1146855D01*
X403840Y1135139D02*
X405681Y1136980D01*
X398706Y1137875D02*
X402686Y1141855D01*
X339250Y1071250D02*
X339250Y1071250D01*
X339250Y1071000D02*
Y1071250D01*
X339250Y1071250D02*
Y1084349D01*
X488534Y1154591D02*
X489250Y1153875D01*
X503461D01*
X484659Y1154591D02*
X488534D01*
X483750Y1155500D02*
X484659Y1154591D01*
X503461Y1153875D02*
X505135Y1155550D01*
X511366D02*
X513366Y1153550D01*
X505135Y1155550D02*
X511366D01*
X513366Y1153550D02*
X523451D01*
X359000Y1144000D02*
X359500Y1143500D01*
X514152Y1328500D02*
X529000D01*
X511427Y1325775D02*
X514152Y1328500D01*
X529000D02*
X537750Y1319750D01*
X521475Y1358975D02*
X530750Y1368250D01*
X538750D01*
X509175Y1358975D02*
X521475D01*
X504600Y1323450D02*
X506925Y1325775D01*
X504600Y1323450D02*
X504750Y1323300D01*
X497125Y1241875D02*
X497500Y1242250D01*
X496750Y1227000D02*
X497125Y1227375D01*
Y1241875D01*
X437375Y1217875D02*
X464750Y1190500D01*
X437250Y1217875D02*
X437375D01*
X464750Y1154500D02*
Y1190500D01*
X381659Y1254752D02*
X384625Y1251785D01*
Y1251000D02*
Y1251785D01*
X372375Y1256042D02*
X373000Y1256667D01*
X364250Y1251000D02*
Y1297749D01*
X364250Y1251000D02*
X364250Y1251000D01*
X372375Y1251667D02*
Y1256042D01*
X371875Y1251167D02*
X372375Y1251667D01*
X338150Y1244875D02*
X340491Y1242534D01*
X316000Y1258550D02*
X316775Y1257775D01*
Y1257307D02*
X317508Y1256574D01*
X317868D02*
X321443Y1253000D01*
X310050Y1258550D02*
X316000D01*
X317508Y1256574D02*
X317868D01*
X316775Y1257307D02*
Y1257775D01*
X321443Y1253000D02*
X337144D01*
X329625Y1325375D02*
X330000Y1325750D01*
X413676Y1327426D02*
X414250Y1328000D01*
X394250Y1297750D02*
Y1303700D01*
X413676Y1323125D01*
Y1327426D01*
X511426Y1275750D02*
X514226Y1278550D01*
X510250Y1275750D02*
X511426D01*
X514226Y1278550D02*
X523451D01*
X488925Y1287125D02*
X495496D01*
X496347Y1286275D01*
X496532Y1289625D02*
X497382Y1288775D01*
X484250Y1291800D02*
X488925Y1287125D01*
X496347Y1286275D02*
X507154D01*
X509504Y1288625D01*
X497382Y1288775D02*
X506118D01*
X506969Y1289625D01*
X469250Y1291800D02*
X477300Y1283750D01*
X496425Y1289625D02*
X496532D01*
X477300Y1283750D02*
X557750D01*
X506969Y1289625D02*
X510844Y1293500D01*
X494250Y1291800D02*
X496425Y1289625D01*
X449000Y1252500D02*
X515993D01*
X516268Y1252775D01*
X522676D01*
X465400Y1248275D02*
X523176D01*
X464750Y1247625D02*
X465400Y1248275D01*
X522676Y1252775D02*
X523451Y1253549D01*
X497275Y1218025D02*
X522926D01*
X496750Y1217500D02*
X497275Y1218025D01*
X522926D02*
X523451Y1218549D01*
X503850Y1178650D02*
X523350D01*
X503750Y1178750D02*
X503850Y1178650D01*
X523350D02*
X523451Y1178549D01*
X639000Y1224603D02*
X639650Y1223953D01*
X639000Y1224603D02*
Y1236250D01*
X639650Y1213250D02*
Y1223953D01*
X589875Y1252875D02*
X592125Y1255125D01*
X435591Y1130591D02*
X436500Y1131500D01*
X434250Y1084349D02*
Y1126000D01*
X435591Y1127341D01*
Y1130591D01*
X543000Y1148757D02*
X543126Y1148883D01*
X543000Y1148500D02*
Y1148757D01*
X522500Y1148549D02*
X522975Y1149025D01*
X542750Y1148500D02*
X543250D01*
X534650Y1156600D02*
X542750Y1148500D01*
X510535Y1150675D02*
X512660Y1148549D01*
X522500D01*
X509250Y1150675D02*
X510535D01*
X422250Y1251250D02*
X422500Y1251500D01*
Y1273550D01*
X404250Y1291800D02*
Y1297750D01*
Y1291800D02*
X422500Y1273550D01*
X434000Y1338750D02*
X434125Y1338625D01*
Y1297875D02*
Y1338625D01*
Y1297875D02*
X434250Y1297750D01*
X439500Y1297999D02*
Y1344500D01*
X439250Y1297750D02*
X439500Y1297999D01*
Y1344500D02*
X439750Y1344750D01*
X429250Y1291800D02*
Y1297750D01*
Y1291800D02*
X438250Y1282800D01*
Y1266125D02*
Y1282800D01*
X424250Y1291800D02*
X430500Y1285550D01*
Y1271000D02*
Y1285550D01*
X424250Y1291800D02*
Y1297750D01*
X459000Y1271775D02*
X467226Y1263549D01*
X523451D01*
X534133Y1265784D02*
X535042Y1264875D01*
X532676Y1268550D02*
X534133Y1267092D01*
Y1265784D02*
Y1267092D01*
X523451Y1268550D02*
X532676D01*
X551750Y1103750D02*
Y1136750D01*
X567500Y1085500D02*
X568076Y1084924D01*
Y1080625D02*
Y1084924D01*
Y1080625D02*
X573577Y1075125D01*
X655500Y1079750D02*
X659875Y1084125D01*
X449375Y1067625D02*
X449500Y1067500D01*
X449375Y1067625D02*
X449375Y1067625D01*
Y1084225D01*
X449250Y1084349D02*
X449375Y1084225D01*
X449500Y1067250D02*
Y1067500D01*
X438500Y1071000D02*
X439125Y1071625D01*
X438500Y1066750D02*
Y1071000D01*
X462125Y1062250D02*
X466000Y1066125D01*
X439125Y1071625D02*
Y1084224D01*
X437875Y1066125D02*
X438500Y1066750D01*
X658625Y1370125D02*
X663000Y1365750D01*
X658125Y1370125D02*
X658625D01*
X663000Y1365250D02*
Y1365750D01*
X522975Y1149025D02*
X523451Y1148549D01*
X476500Y1149500D02*
X486055D01*
X500998Y1134557D01*
X337250Y1139250D02*
Y1140500D01*
X331550Y1133550D02*
X337250Y1139250D01*
X310050Y1133550D02*
X331550D01*
X523451Y1198549D02*
X555944D01*
X567691Y1210296D01*
X590250Y1195500D02*
X600925Y1206175D01*
X337300Y1356550D02*
X387000D01*
X310526Y1209025D02*
X324025D01*
X310050Y1208549D02*
X310526Y1209025D01*
X324025D02*
X324500Y1209500D01*
X310050Y1183550D02*
X310463Y1183137D01*
X338463D02*
X338875Y1182725D01*
X334919Y1178549D02*
X337993Y1175476D01*
X338740D01*
X310050Y1178549D02*
X334919D01*
X310463Y1183137D02*
X338463D01*
X269500Y1188250D02*
X279799Y1198549D01*
X310050D01*
X343123Y1163783D02*
X343356Y1164017D01*
X310050Y1163550D02*
X310284Y1163783D01*
X343123D01*
X499250Y1158750D02*
X499451Y1158549D01*
X523451D01*
X545827Y1098875D02*
X562625D01*
X506875Y1133550D02*
X523451D01*
X500998Y1132282D02*
Y1134557D01*
X496123Y1132538D02*
X496625Y1132036D01*
Y1127663D02*
X497250Y1127038D01*
X504731Y1128549D02*
X523451D01*
X506750Y1133425D02*
X506875Y1133550D01*
X496625Y1127663D02*
Y1132036D01*
X497250Y1115650D02*
Y1127038D01*
X500998Y1132282D02*
X504731Y1128549D01*
X497250Y1115650D02*
X499250Y1113650D01*
X509477Y1123204D02*
X509650Y1123377D01*
X523278D02*
X523451Y1123550D01*
X509650Y1123377D02*
X523278D01*
X549951Y1138549D02*
X551750Y1136750D01*
X523451Y1138549D02*
X549951D01*
X535690Y1123051D02*
X535959Y1122782D01*
Y1121040D02*
X543250Y1113750D01*
X535959Y1121040D02*
Y1122782D01*
X562625Y1098875D02*
X565750Y1102000D01*
X529400Y1118549D02*
X533876Y1114074D01*
X523451Y1118549D02*
X529400D01*
X637635Y1056567D02*
X646317D01*
X636625Y1057577D02*
X637635Y1056567D01*
X646317D02*
X649884Y1053000D01*
X645281Y1054067D02*
X649549Y1049799D01*
X634125Y1056542D02*
X636600Y1054067D01*
X649884Y1053000D02*
X659048D01*
X636625Y1057577D02*
Y1065875D01*
X636600Y1054067D02*
X645281D01*
X649549Y1048048D02*
X652375Y1045222D01*
X649549Y1048048D02*
Y1049799D01*
X659048Y1053000D02*
X661673Y1050375D01*
X669280Y1045222D02*
Y1048670D01*
X667575Y1050375D02*
X669280Y1048670D01*
X661673Y1050375D02*
X667575D01*
X652375Y1045222D02*
X656580D01*
X484750Y1054000D02*
Y1062900D01*
X469250Y1078399D02*
X484750Y1062900D01*
X469250Y1078399D02*
Y1084349D01*
X654750Y1078500D02*
X655500Y1079250D01*
X643750Y1078500D02*
X654750D01*
X642750Y1080250D02*
X643250Y1080750D01*
X642750Y1080250D02*
X642750D01*
X643250Y1079000D02*
X643750Y1078500D01*
X618250Y1005752D02*
Y1027916D01*
X496250Y1026375D02*
Y1026750D01*
X501750Y1065250D02*
Y1070899D01*
X494250Y1078399D02*
X501750Y1070899D01*
X494250Y1078399D02*
Y1084349D01*
X465375Y1057625D02*
X470875Y1063125D01*
X465375Y1051481D02*
X468231Y1048625D01*
X465375Y1051481D02*
Y1057625D01*
X468231Y1048625D02*
X468443D01*
X470625Y1046443D01*
X471911D01*
X470875Y1063125D02*
Y1068144D01*
X470250Y1053500D02*
Y1058964D01*
X473375Y1062089D02*
Y1069275D01*
X470250Y1058964D02*
X473375Y1062089D01*
X464250Y1078399D02*
X473375Y1069275D01*
X396606Y1021500D02*
X499019D01*
X390352Y1019000D02*
X500055D01*
X370005Y1039347D02*
X390352Y1019000D01*
X500055D02*
X503455Y1022400D01*
X383891Y1034214D02*
X396606Y1021500D01*
X499019D02*
X502420Y1024900D01*
X557948Y1292000D02*
X565625D01*
X396106Y1132750D02*
X398731Y1135375D01*
X402769D02*
X403005Y1135139D01*
X398731Y1135375D02*
X402769D01*
X377125Y1136625D02*
X396445D01*
X371250Y1142500D02*
X377125Y1136625D01*
X399251Y1084349D02*
X400000Y1085099D01*
X396445Y1136625D02*
X397695Y1137875D01*
X360430Y1132750D02*
X396106D01*
X395409Y1139125D02*
X396660Y1140375D01*
X414250Y1084350D02*
X414250Y1084349D01*
X557750Y1283750D02*
X558500Y1284500D01*
X543250Y1113750D02*
X543750D01*
X527049Y1024900D02*
X542130Y1009820D01*
X503455Y1022400D02*
X510947D01*
X521973Y1011375D01*
X502420Y1024900D02*
X527049D01*
X403502Y1031250D02*
X404750D01*
X394376Y1040376D02*
X403502Y1031250D01*
X389875Y1037125D02*
X391733Y1035267D01*
Y1034552D02*
Y1035267D01*
X394500Y1030500D02*
Y1031785D01*
X391733Y1034552D02*
X394500Y1031785D01*
X383891Y1034214D02*
Y1034625D01*
X380205Y1048777D02*
X381250Y1049822D01*
X383975Y1038077D02*
X384927Y1037125D01*
X382705Y1043703D02*
X383975Y1042432D01*
X382705Y1043703D02*
Y1047741D01*
X384927Y1037125D02*
X389875D01*
X381250Y1040802D02*
X381475Y1040577D01*
X382705Y1047741D02*
X383750Y1048787D01*
X381250Y1040802D02*
Y1041622D01*
X381475Y1037041D02*
X383891Y1034625D01*
X389250Y1069584D02*
Y1084349D01*
X388375Y1068709D02*
X389250Y1069584D01*
X380205Y1042667D02*
X381250Y1041622D01*
X383975Y1038077D02*
Y1042432D01*
X381250Y1049822D02*
Y1062250D01*
X381475Y1037041D02*
Y1040577D01*
X380205Y1042667D02*
Y1048777D01*
X394376Y1040376D02*
Y1048772D01*
X394250Y1071049D02*
Y1084349D01*
X419250Y1090299D02*
X420025Y1091074D01*
X419250Y1084349D02*
Y1090299D01*
X420025Y1091074D02*
X420493D01*
X421225Y1091807D02*
Y1135781D01*
X420493Y1091074D02*
X421225Y1091807D01*
X426226D02*
Y1139518D01*
X424250Y1090299D02*
X425025Y1091074D01*
X424250Y1084349D02*
Y1090299D01*
X425493Y1091074D02*
X426226Y1091807D01*
X425025Y1091074D02*
X425493D01*
X429250Y1084349D02*
Y1090299D01*
X430025Y1091074D02*
X430493D01*
X431225Y1091807D02*
Y1145825D01*
X430493Y1091074D02*
X431225Y1091807D01*
X429250Y1090299D02*
X430025Y1091074D01*
X349250Y1297750D02*
X349375Y1297625D01*
Y1285125D02*
X349500Y1285000D01*
X349375Y1285125D02*
Y1297625D01*
X348361Y1374389D02*
X349909D01*
X352541Y1371757D02*
X353826D01*
X349909Y1374389D02*
X352541Y1371757D01*
X618750Y1403500D02*
Y1424700D01*
X618450Y1425000D02*
X618750Y1424700D01*
X605750Y1409250D02*
Y1425000D01*
X605250Y1408750D02*
X605750Y1409250D01*
X381659Y1254752D02*
Y1255124D01*
X374465Y1240750D02*
X386250D01*
X647750Y1149000D02*
Y1152250D01*
X647500Y1148750D02*
X647750Y1149000D01*
X651875Y1191125D02*
Y1218959D01*
X650250Y1189500D02*
X651875Y1191125D01*
X653250Y1220334D02*
Y1221798D01*
X659702Y1228250D01*
X667000D01*
X649375Y1219994D02*
X650750Y1221369D01*
X637923Y1197025D02*
X649375Y1208477D01*
Y1219994D01*
X651875Y1218959D02*
X653250Y1220334D01*
X650750Y1221369D02*
Y1243500D01*
X654375Y1195625D02*
X660000Y1190000D01*
X654375Y1217923D02*
X655327Y1218875D01*
X654375Y1195625D02*
Y1217923D01*
X655327Y1218875D02*
X655625D01*
X657500Y1220750D02*
X659500D01*
X655625Y1218875D02*
X657500Y1220750D01*
X682000Y1250250D02*
X689250Y1257500D01*
X682000Y1226250D02*
Y1228250D01*
Y1250250D01*
X280416Y1030066D02*
X282083Y1028400D01*
X290125Y1049346D02*
Y1061103D01*
X289250Y1061978D02*
X290125Y1061103D01*
X309919Y1143418D02*
X310050Y1143550D01*
X309913Y1138412D02*
X310050Y1138549D01*
X331604Y1014871D02*
X336483Y1019750D01*
X318047Y1015897D02*
Y1016781D01*
X321000Y1019734D01*
Y1020722D01*
X311430Y1009280D02*
X318047Y1015897D01*
X336483Y1019750D02*
Y1020250D01*
X628482Y1021250D02*
X631000D01*
X627750Y1020518D02*
X628482Y1021250D01*
X627750Y1017500D02*
Y1020518D01*
X656000Y1006052D02*
X656330Y1005722D01*
X656000Y1006052D02*
Y1019750D01*
X286750Y1140205D02*
X289000Y1142455D01*
Y1146875D01*
X284357Y1157943D02*
X288750Y1153550D01*
X280022Y1157943D02*
X284357D01*
X279482Y1158482D02*
X280022Y1157943D01*
X290125Y1049346D02*
X291705Y1047766D01*
Y1037295D02*
Y1047766D01*
X324130Y1009280D02*
X329721Y1014871D01*
X331604D01*
X311430Y1005972D02*
Y1009280D01*
X630930Y1005722D02*
Y1014320D01*
X627750Y1017500D02*
X630930Y1014320D01*
X618250Y1005752D02*
X618280Y1005722D01*
X523451Y1103550D02*
X523500Y1103500D01*
Y1089250D02*
Y1103500D01*
X504250Y1085225D02*
X505025Y1086000D01*
X504250Y1084349D02*
Y1085225D01*
X505025Y1086000D02*
X511000D01*
X324130Y1005972D02*
Y1009280D01*
X361750Y1062000D02*
X362250D01*
X370005Y1054245D01*
Y1039347D02*
Y1054245D01*
X521973Y1011375D02*
X527875D01*
X529430Y1009820D01*
Y1006222D02*
Y1009820D01*
X542130Y1006222D02*
Y1009820D01*
X491900Y1363550D02*
X499178Y1356272D01*
X507961Y1344500D02*
X511115D01*
X518365Y1351750D01*
X342125Y1380625D02*
X348361Y1374389D01*
X338625Y1380625D02*
X342125D01*
X337000Y1382250D02*
Y1386000D01*
Y1382250D02*
X338625Y1380625D01*
X331375D02*
X344250Y1367750D01*
X324300Y1382250D02*
Y1386000D01*
Y1382250D02*
X325925Y1380625D01*
X331375D01*
X311600Y1365900D02*
Y1386000D01*
X518365Y1351750D02*
X538250D01*
X504600Y1363550D02*
Y1369350D01*
Y1375150D01*
Y1363550D02*
X509175Y1358975D01*
X294468Y1349218D02*
Y1352112D01*
X299036Y1356680D01*
X301680D01*
X306750Y1361750D01*
X499250Y1084349D02*
Y1113650D01*
X268750Y1296000D02*
X269125Y1295625D01*
X289173Y1345375D02*
X289899Y1344649D01*
X277827Y1345375D02*
X289173D01*
X276452Y1344000D02*
X277827Y1345375D01*
X268750Y1344000D02*
X276452D01*
X523176Y1248275D02*
X523451Y1248550D01*
X513550Y1238550D02*
X523451D01*
X509250Y1234250D02*
X513550Y1238550D01*
X373000Y1256667D02*
Y1258285D01*
X373465Y1239750D02*
X374465Y1240750D01*
X362965Y1239750D02*
X373465D01*
X360181Y1242534D02*
X362965Y1239750D01*
X340491Y1242534D02*
X360181D01*
X355250Y1259750D02*
X356000Y1259000D01*
X299000Y1055248D02*
Y1062750D01*
Y1055248D02*
X304405Y1049843D01*
Y1042953D02*
Y1049843D01*
X304170Y1042718D02*
X304405Y1042953D01*
X304170Y1041682D02*
Y1042718D01*
Y1041682D02*
X312452Y1033400D01*
X269650Y1142350D02*
X283750Y1128250D01*
X269500Y1142350D02*
X269650D01*
X281542Y1146875D02*
X289000D01*
X288750Y1153550D02*
X310050D01*
X278402D02*
X288750D01*
X278077Y1153875D02*
X278402Y1153550D01*
X269500Y1157650D02*
Y1188250D01*
X312452Y1033400D02*
X358048D01*
X380323Y1011125D02*
X386225D01*
X358048Y1033400D02*
X380323Y1011125D01*
X386225D02*
X387580Y1009770D01*
Y1006722D02*
Y1009770D01*
X291705Y1037295D02*
X298100Y1030900D01*
X348048D01*
X337848Y1028400D02*
X354873Y1011375D01*
X348048Y1030900D02*
X367573Y1011375D01*
X282083Y1028400D02*
X337848D01*
X367573Y1011375D02*
X373475D01*
X374880Y1009970D01*
Y1006722D02*
Y1009970D01*
X354873Y1011375D02*
X360775D01*
X362180Y1009970D01*
Y1006722D02*
Y1009970D01*
X331552Y1059793D02*
X335107Y1063348D01*
Y1069499D01*
X331552Y1059125D02*
Y1059793D01*
X329250Y1084349D02*
X329741Y1083858D01*
X466135Y1072884D02*
X470875Y1068144D01*
X459250Y1078399D02*
X464766Y1072884D01*
X466135D01*
X464250Y1078399D02*
Y1084349D01*
X459250Y1078399D02*
Y1084349D01*
X384250D02*
Y1090299D01*
X534200Y1163750D02*
X544000D01*
X671500Y1062250D02*
X671750Y1062000D01*
X504600Y1375150D02*
X510250Y1380800D01*
X537750Y1319750D02*
X538250D01*
X506925Y1325775D02*
X511427D01*
X445025Y1298524D02*
Y1305025D01*
X453575Y1313575D01*
Y1316256D01*
X456069Y1318750D01*
X458750D01*
X444250Y1297750D02*
X445025Y1298524D01*
X510844Y1293500D02*
X556448D01*
X557948Y1292000D01*
X469250Y1291800D02*
Y1297750D01*
X484250Y1291800D02*
Y1297750D01*
X494250Y1291800D02*
Y1297750D01*
X546649Y1369976D02*
X548375Y1368250D01*
X546649Y1369976D02*
Y1373149D01*
X544924Y1374875D02*
X546649Y1373149D01*
X532577Y1374875D02*
X544924D01*
X527052Y1369350D02*
X532577Y1374875D01*
X548375Y1368250D02*
X555750D01*
X517300Y1369350D02*
X527052D01*
X554750Y1351750D02*
X555250D01*
X543125Y1340125D02*
X554750Y1351750D01*
X542625Y1340125D02*
X543125D01*
X538250Y1335750D02*
X542625Y1340125D01*
X555250Y1351750D02*
X555750Y1352250D01*
Y1368250D01*
X479200Y1311850D02*
Y1317650D01*
Y1311850D02*
X484050Y1307000D01*
X495950D01*
X499250Y1303700D01*
Y1297750D02*
Y1303700D01*
X505025Y1304124D02*
X508500D01*
X518000Y1309800D02*
Y1313500D01*
X514975Y1306775D02*
X518000Y1309800D01*
X511150Y1306775D02*
X514975D01*
X508500Y1304124D02*
X511150Y1306775D01*
X504250Y1303349D02*
X505025Y1304124D01*
X504250Y1297750D02*
Y1303349D01*
X517300Y1314200D02*
Y1314900D01*
Y1314200D02*
X518000Y1313500D01*
X347300Y1203550D02*
X347500Y1203750D01*
X310050Y1203550D02*
X347300D01*
X555250Y1045892D02*
Y1070750D01*
X554830Y1045472D02*
X555250Y1045892D01*
X531000Y1047042D02*
Y1064000D01*
X529430Y1045472D02*
X531000Y1047042D01*
X542130Y1045472D02*
Y1058620D01*
X542000Y1058750D02*
X542130Y1058620D01*
X379250Y1064250D02*
Y1084349D01*
Y1064250D02*
X381250Y1062250D01*
X362250Y1062000D02*
X374250Y1074000D01*
Y1084349D01*
X304100Y1238550D02*
X310050D01*
X364250Y1297749D02*
X364250Y1297750D01*
X369375Y1261910D02*
X373000Y1258285D01*
X379250Y1259035D02*
X381785Y1256500D01*
X381659Y1255124D02*
X381785Y1255250D01*
Y1256500D01*
X379250Y1259035D02*
Y1297750D01*
X369375Y1261910D02*
Y1297625D01*
X253325Y1141634D02*
Y1197075D01*
X439125Y1084224D02*
X439250Y1084349D01*
X369250Y1297750D02*
X369375Y1297625D01*
X255825Y1123325D02*
Y1139134D01*
X253325Y1141634D02*
X255825Y1139134D01*
X253750Y1104250D02*
X257750D01*
X249250Y1116750D02*
X255825Y1123325D01*
X245250Y1116750D02*
X249250D01*
X264500Y1121000D02*
Y1142350D01*
X259500Y1145000D02*
X261025Y1143475D01*
X259350Y1145000D02*
X259500D01*
X263375Y1143475D02*
X264500Y1142350D01*
X261025Y1143475D02*
X263375D01*
X274650Y1155000D02*
X275775Y1153875D01*
X274650Y1150000D02*
X278416D01*
X281542Y1146875D01*
X275775Y1153875D02*
X278077D01*
X355000Y1312500D02*
X355750Y1313250D01*
X355000Y1298499D02*
Y1312500D01*
X354250Y1297750D02*
X355000Y1298499D01*
X272000Y1331750D02*
X276200D01*
X290499Y1338250D02*
Y1338750D01*
X286124Y1333875D02*
X290499Y1338250D01*
X277075Y1332625D02*
X282375D01*
X276200Y1331750D02*
X277075Y1332625D01*
X268750Y1302500D02*
X275500D01*
X227125Y1325215D02*
Y1340125D01*
X221750Y1345500D02*
X227125Y1340125D01*
X222000Y1312750D02*
Y1320090D01*
X227125Y1325215D01*
X217125Y1324125D02*
X222250Y1329250D01*
X217125Y1301875D02*
Y1324125D01*
Y1301875D02*
X222250Y1296750D01*
X239000Y1345500D02*
X257000Y1327500D01*
X239250Y1329250D02*
X246000Y1322500D01*
X239250Y1297000D02*
X254750Y1312500D01*
X663000Y1365250D02*
X667259Y1369509D01*
X667991Y1372375D02*
X685673D01*
X667259Y1369509D02*
Y1371642D01*
X667991Y1372375D01*
X648250Y1256500D02*
Y1277000D01*
X648750Y1277500D01*
X647500Y1152500D02*
Y1167000D01*
Y1152500D02*
X647750Y1152250D01*
X709875Y1092367D02*
Y1134625D01*
X716750Y1141500D01*
X655500Y1079250D02*
Y1079750D01*
X671750Y1079000D02*
X706750D01*
X716750Y1069000D01*
Y1066500D02*
Y1069000D01*
X680000Y1364750D02*
X684375Y1360375D01*
X684875D02*
X689875Y1355375D01*
X701423D02*
X719000Y1337798D01*
X680000Y1364750D02*
Y1365250D01*
X684375Y1360375D02*
X684875D01*
X689875Y1355375D02*
X701423D01*
X719000Y1292000D02*
Y1337798D01*
X668673Y1358125D02*
X670923Y1360375D01*
X653875Y1358125D02*
X668673D01*
X647500Y1364500D02*
X653875Y1358125D01*
X675625Y1360375D02*
X680000Y1364750D01*
X670923Y1360375D02*
X675625D01*
X647500Y1364500D02*
Y1365000D01*
X717249Y1365250D02*
X719000Y1367000D01*
X695750Y1365250D02*
X717249D01*
X685673Y1372375D02*
X687923Y1370125D01*
X691375D01*
X695750Y1365750D01*
Y1365250D02*
Y1365750D01*
X529400Y1183550D02*
X533200Y1179750D01*
X543750D01*
X523451Y1183550D02*
X529400D01*
X523451Y1163550D02*
X529400D01*
X534650Y1156600D02*
Y1158300D01*
X529400Y1163550D02*
X534650Y1158300D01*
X529400Y1168549D02*
X534200Y1163750D01*
X523451Y1168549D02*
X529400D01*
X608000Y1254750D02*
X608250Y1255000D01*
X605714Y1217688D02*
X615500D01*
X589875Y1233527D02*
X605714Y1217688D01*
X589875Y1233527D02*
Y1252875D01*
X600925Y1206175D02*
X607923D01*
X609375Y1202725D02*
X610500Y1201600D01*
X609375Y1202725D02*
Y1204724D01*
X607923Y1206175D02*
X609375Y1204724D01*
X629375Y1198477D02*
Y1200475D01*
X627923Y1197025D02*
X629375Y1198477D01*
X608077Y1197025D02*
X627923D01*
X629375Y1200475D02*
X630500Y1201600D01*
X606625Y1198477D02*
X608077Y1197025D01*
X606625Y1198477D02*
Y1200475D01*
X605500Y1201600D02*
X606625Y1200475D01*
X633077Y1197025D02*
X637923D01*
X631625Y1198477D02*
X633077Y1197025D01*
X631625Y1198477D02*
Y1200475D01*
X630500Y1201600D02*
X631625Y1200475D01*
X640774Y1207376D02*
X644225Y1210827D01*
X640076Y1207376D02*
X640774D01*
X635500Y1202800D02*
X640076Y1207376D01*
X644225Y1210827D02*
Y1230275D01*
X644000Y1230500D02*
X644225Y1230275D01*
X635500Y1201600D02*
Y1202800D01*
X659500Y1215750D02*
X672152D01*
X625500Y1201600D02*
Y1207688D01*
X615500Y1217688D02*
X625500Y1207688D01*
X615500Y1217688D02*
Y1224900D01*
X672750Y1258000D02*
X689250D01*
Y1257500D02*
Y1258000D01*
X672152Y1215750D02*
X680375Y1223973D01*
Y1224625D01*
X682000Y1226250D01*
X688625Y1214875D02*
X689500Y1215750D01*
X665750Y1176188D02*
X682000Y1192438D01*
Y1198250D01*
X665750Y1167500D02*
Y1176188D01*
X693027Y1219875D02*
X697375Y1215527D01*
Y1166223D02*
Y1215527D01*
X690926Y1159774D02*
X697375Y1166223D01*
X690375Y1219875D02*
X693027D01*
X679623Y1159774D02*
X690926D01*
X689500Y1220750D02*
X690375Y1219875D01*
X674174Y1154326D02*
X679623Y1159774D01*
X674174Y1152049D02*
Y1154326D01*
X672625Y1150500D02*
X674174Y1152049D01*
X665750Y1150500D02*
X672625D01*
X691500Y1210750D02*
X693125Y1209125D01*
X685500Y1174000D02*
X686500D01*
X689500Y1210750D02*
X691500D01*
X693125Y1209125D02*
X693777D01*
X694875Y1208027D01*
Y1182375D02*
Y1208027D01*
X686500Y1174000D02*
X694875Y1182375D01*
D66*
X264800Y1349150D02*
D03*
Y1291350D02*
D03*
X317500Y1081000D02*
D03*
X323125Y1240000D02*
D03*
Y1258500D02*
D03*
X333500Y1264356D02*
D03*
X340608Y1262928D02*
D03*
X325000Y1275500D02*
D03*
X334250Y1313250D02*
D03*
X413180Y1425222D02*
D03*
X425880D02*
D03*
X438580D02*
D03*
X451280D02*
D03*
X464750Y1412000D02*
D03*
X462000Y1400500D02*
D03*
X504150Y1425000D02*
D03*
X491200Y1385000D02*
D03*
X478500D02*
D03*
X478750Y1425000D02*
D03*
X491450D02*
D03*
X283225Y1280489D02*
D03*
X320500Y1340750D02*
D03*
X328000Y1346750D02*
D03*
X323125Y1325750D02*
D03*
X316750Y1361000D02*
D03*
X317250Y1351250D02*
D03*
X302250Y1309000D02*
D03*
X302000Y1284874D02*
D03*
X235450Y1005750D02*
D03*
X308750Y1091500D02*
D03*
X588750Y1340250D02*
D03*
X576500Y1347875D02*
D03*
X280000Y1101750D02*
D03*
X299125Y1044972D02*
D03*
X311930Y1045222D02*
D03*
X606000Y1137250D02*
D03*
X606250Y1082750D02*
D03*
X597250Y1115625D02*
D03*
X588250Y1057750D02*
D03*
X593500Y1306000D02*
D03*
X599500Y1353750D02*
D03*
X628500Y1303250D02*
D03*
X498125Y1331250D02*
D03*
X619250Y1367000D02*
D03*
X578750Y1366500D02*
D03*
X628250Y1343000D02*
D03*
X671000Y1307500D02*
D03*
X671500Y1115750D02*
D03*
X579250Y1081750D02*
D03*
X586156Y1375004D02*
D03*
X596750Y1366500D02*
D03*
X610250Y1343000D02*
D03*
X623375Y1267000D02*
D03*
Y1277750D02*
D03*
Y1244875D02*
D03*
X608625Y1242750D02*
D03*
X633125Y1256000D02*
D03*
X624250Y1082750D02*
D03*
X570250Y1057750D02*
D03*
X580430Y1045722D02*
D03*
X631000Y1071500D02*
D03*
X630750Y1061750D02*
D03*
X580180Y1005722D02*
D03*
X258236Y1220824D02*
D03*
X294844Y1143840D02*
D03*
X286160Y1134276D02*
D03*
X294625Y1127836D02*
D03*
X292940Y1136844D02*
D03*
X343782Y1118282D02*
D03*
X335489Y1109250D02*
D03*
X266750Y1149750D02*
D03*
X537750Y1209000D02*
D03*
X605250Y1232100D02*
D03*
X598472Y1235028D02*
D03*
X669200Y1425000D02*
D03*
X626000Y1188250D02*
D03*
X337750Y1195250D02*
D03*
X246500Y1195500D02*
D03*
X266750Y1102250D02*
D03*
X443735Y1257765D02*
D03*
X494500Y1352500D02*
D03*
X245500Y1174750D02*
D03*
X278000Y1173750D02*
D03*
X294250Y1219000D02*
D03*
X237750Y1242750D02*
D03*
X237750Y1260750D02*
D03*
X254000Y1241625D02*
D03*
X254000Y1261250D02*
D03*
X685500Y1146000D02*
D03*
X689250Y1275000D02*
D03*
X672750D02*
D03*
X592250Y1272250D02*
D03*
X608250D02*
D03*
X592500Y1257250D02*
D03*
X537000Y1253000D02*
D03*
X547625Y1288625D02*
D03*
Y1258750D02*
D03*
X541750Y1228500D02*
D03*
X547000Y1214250D02*
D03*
X485000Y1343500D02*
D03*
X504183Y1355325D02*
D03*
X324500Y1222500D02*
D03*
X285737Y1241639D02*
D03*
X480750Y1223375D02*
D03*
X291000Y1233125D02*
D03*
X294500Y1173750D02*
D03*
X418750Y1286149D02*
D03*
X635250Y1358250D02*
D03*
X668500Y1385500D02*
D03*
X679000Y1348750D02*
D03*
X663000Y1348250D02*
D03*
X647500Y1348000D02*
D03*
X695750Y1348250D02*
D03*
X416250Y1371250D02*
D03*
X433250Y1370500D02*
D03*
X559625Y1180375D02*
D03*
X633750Y1084250D02*
D03*
X543250Y1081000D02*
D03*
X474250Y1118500D02*
D03*
X481320Y1128755D02*
D03*
X488000Y1118000D02*
D03*
X474250Y1102000D02*
D03*
X464000Y1041500D02*
D03*
X399500Y1285250D02*
D03*
X399250Y1269250D02*
D03*
X412750Y1268750D02*
D03*
X464250Y1200125D02*
D03*
X351750Y1134625D02*
D03*
X343250D02*
D03*
X446750Y1117500D02*
D03*
X446250Y1103000D02*
D03*
X488000Y1102750D02*
D03*
X343500Y1100250D02*
D03*
X356250Y1107500D02*
D03*
Y1115110D02*
D03*
X355751Y1122343D02*
D03*
X352750Y1095927D02*
D03*
X244250Y1129500D02*
D03*
X244500Y1091750D02*
D03*
X266000Y1120000D02*
D03*
X282000Y1118250D02*
D03*
X284000Y1068250D02*
D03*
X280547Y1061875D02*
D03*
X330076Y1068875D02*
D03*
X400254Y1130004D02*
D03*
X406967Y1136980D02*
D03*
X407500Y1129750D02*
D03*
X414730Y1130286D02*
D03*
X344500Y1062750D02*
D03*
X339750Y1071750D02*
D03*
X398000Y1062000D02*
D03*
X483750Y1155500D02*
D03*
X357500Y1153750D02*
D03*
X359000Y1144000D02*
D03*
X437250Y1217875D02*
D03*
X396875Y1252000D02*
D03*
X384625Y1251000D02*
D03*
X371875Y1251167D02*
D03*
X364250Y1251000D02*
D03*
X414250Y1328000D02*
D03*
X510250Y1275750D02*
D03*
X497750Y1272750D02*
D03*
X480250Y1272500D02*
D03*
X468000Y1285375D02*
D03*
X497000Y1258250D02*
D03*
X464750Y1247625D02*
D03*
X497500Y1242250D02*
D03*
X496750Y1227000D02*
D03*
Y1217500D02*
D03*
X486463Y1178713D02*
D03*
X464750Y1154500D02*
D03*
X503750Y1178750D02*
D03*
X688500Y1187750D02*
D03*
X721500Y1103500D02*
D03*
X706750Y1024500D02*
D03*
X436500Y1131500D02*
D03*
X509250Y1150675D02*
D03*
X543126Y1148883D02*
D03*
X502248Y1121108D02*
D03*
X422250Y1251250D02*
D03*
X434000Y1338750D02*
D03*
X439750Y1344750D02*
D03*
X423742Y1334515D02*
D03*
X430500Y1271000D02*
D03*
X438250Y1266125D02*
D03*
X459000Y1271775D02*
D03*
X535042Y1264875D02*
D03*
X549250Y1270500D02*
D03*
X556500Y1276750D02*
D03*
X552000Y1103750D02*
D03*
X567500Y1085500D02*
D03*
X555500Y1086250D02*
D03*
X536250Y1076375D02*
D03*
X449500Y1067250D02*
D03*
X437875Y1066125D02*
D03*
X585750Y1140250D02*
D03*
X570500Y1134500D02*
D03*
Y1126750D02*
D03*
X476500Y1149500D02*
D03*
X337250Y1140500D02*
D03*
X714500Y1219250D02*
D03*
X721500Y1224000D02*
D03*
X559000Y1219250D02*
D03*
X567691Y1210296D02*
D03*
X568750Y1218250D02*
D03*
X590250Y1196000D02*
D03*
X324500Y1209500D02*
D03*
X670000Y1188500D02*
D03*
X597000Y1182500D02*
D03*
X338875Y1182725D02*
D03*
X338740Y1175476D02*
D03*
X594750Y1242000D02*
D03*
X563500Y1244250D02*
D03*
X286500Y1204750D02*
D03*
X283250Y1212250D02*
D03*
X347750Y1158250D02*
D03*
X343356Y1164017D02*
D03*
X499250Y1158750D02*
D03*
X338250Y1150250D02*
D03*
X506750Y1133425D02*
D03*
X496123Y1132538D02*
D03*
X510929Y1227197D02*
D03*
X509477Y1123204D02*
D03*
X535690Y1123051D02*
D03*
X591500Y1108750D02*
D03*
X565750Y1102000D02*
D03*
X648750Y1033500D02*
D03*
X550000Y1060500D02*
D03*
X631180Y1045222D02*
D03*
X484750Y1054000D02*
D03*
X642750Y1080250D02*
D03*
X501750Y1065250D02*
D03*
X471911Y1046443D02*
D03*
X479045Y1045156D02*
D03*
X470250Y1053500D02*
D03*
X459250Y1026375D02*
D03*
X565625Y1292000D02*
D03*
X393400Y1144000D02*
D03*
X558000Y1284500D02*
D03*
X511000Y1097750D02*
D03*
X505674Y1106207D02*
D03*
X496250Y1026375D02*
D03*
X533924Y1026208D02*
D03*
X540250Y1029750D02*
D03*
X504080Y1005275D02*
D03*
X505475Y1017525D02*
D03*
X523200Y1037712D02*
D03*
X516780Y1045222D02*
D03*
X618250Y1027916D02*
D03*
X404750Y1031250D02*
D03*
X394500Y1030500D02*
D03*
X382000Y1143888D02*
D03*
X341750Y1401000D02*
D03*
X349500Y1285000D02*
D03*
X353826Y1371757D02*
D03*
X347250Y1410500D02*
D03*
X618750Y1403500D02*
D03*
X606250Y1409250D02*
D03*
X512000Y1353500D02*
D03*
X386250Y1240750D02*
D03*
X371250Y1142500D02*
D03*
X662500Y1031000D02*
D03*
X647500Y1148750D02*
D03*
X650250Y1189250D02*
D03*
X660250Y1190000D02*
D03*
X289250Y1061978D02*
D03*
X300500Y1018750D02*
D03*
X321000Y1020722D02*
D03*
X336483Y1020250D02*
D03*
X329233Y1020250D02*
D03*
X629500Y1021750D02*
D03*
X656000Y1019750D02*
D03*
X644000Y1016000D02*
D03*
X279482Y1158482D02*
D03*
X293000Y1017500D02*
D03*
X337330Y1045222D02*
D03*
X523500Y1089250D02*
D03*
X511000Y1086000D02*
D03*
X362180Y1045722D02*
D03*
X344500Y1367750D02*
D03*
X299750Y1350500D02*
D03*
X443750Y1285250D02*
D03*
X260906Y1233651D02*
D03*
X509250Y1234250D02*
D03*
X356000Y1259000D02*
D03*
X512085Y1111050D02*
D03*
X299000Y1062750D02*
D03*
X274130Y1044972D02*
D03*
X286830D02*
D03*
X331552Y1059125D02*
D03*
X466000Y1066125D02*
D03*
X620000Y1165500D02*
D03*
X543500Y1163250D02*
D03*
X561000Y1163750D02*
D03*
X543500Y1131750D02*
D03*
X635000Y1123750D02*
D03*
X639000Y1236250D02*
D03*
X560250Y1148500D02*
D03*
X560499Y1131750D02*
D03*
X560750Y1113750D02*
D03*
X671750Y1062000D02*
D03*
X655750Y1063750D02*
D03*
X260000Y1425000D02*
D03*
X247500Y1424250D02*
D03*
X554700Y1385000D02*
D03*
X567400D02*
D03*
X719500Y1184500D02*
D03*
X718000Y1255000D02*
D03*
X347500Y1203750D02*
D03*
X369000Y1117750D02*
D03*
X383750Y1118000D02*
D03*
X555250Y1070750D02*
D03*
X542500Y1058750D02*
D03*
X530750Y1063500D02*
D03*
X306625Y1323875D02*
D03*
X458750Y1318750D02*
D03*
X269000Y1241625D02*
D03*
X459000Y1331150D02*
D03*
Y1343850D02*
D03*
X387000Y1318450D02*
D03*
Y1356550D02*
D03*
Y1343850D02*
D03*
Y1331150D02*
D03*
X413430Y1045472D02*
D03*
X270000Y1261250D02*
D03*
X221500D02*
D03*
X222000Y1244250D02*
D03*
X355750Y1313250D02*
D03*
X491380Y1045222D02*
D03*
X504080D02*
D03*
X567530Y1045472D02*
D03*
X529430D02*
D03*
X542130D02*
D03*
X554830D02*
D03*
X618530Y1045722D02*
D03*
X593130D02*
D03*
X605830D02*
D03*
X669280Y1045222D02*
D03*
X643880D02*
D03*
X656580D02*
D03*
X720280Y1045722D02*
D03*
X682180D02*
D03*
X694880D02*
D03*
X707580D02*
D03*
X720280Y1005722D02*
D03*
X682180D02*
D03*
X694880D02*
D03*
X707580D02*
D03*
X669030D02*
D03*
X630930D02*
D03*
X643630D02*
D03*
X656330D02*
D03*
X618280D02*
D03*
X592880D02*
D03*
X605580D02*
D03*
X567530Y1006222D02*
D03*
X529430D02*
D03*
X542130D02*
D03*
X554830D02*
D03*
X516780Y1005972D02*
D03*
X478680D02*
D03*
X491380D02*
D03*
X248280Y1045722D02*
D03*
X210180D02*
D03*
X222880D02*
D03*
X235580D02*
D03*
X261430Y1044972D02*
D03*
X350030Y1045222D02*
D03*
X324630D02*
D03*
X400280Y1045722D02*
D03*
X374880D02*
D03*
X387580D02*
D03*
X451530Y1045472D02*
D03*
X426130D02*
D03*
X438830D02*
D03*
X451530Y1005722D02*
D03*
X413430D02*
D03*
X426130D02*
D03*
X438830D02*
D03*
X400280Y1006722D02*
D03*
X362180D02*
D03*
X374880D02*
D03*
X387580D02*
D03*
X349530Y1005972D02*
D03*
X311430D02*
D03*
X324130D02*
D03*
X336830D02*
D03*
X299280D02*
D03*
X261180D02*
D03*
X273880D02*
D03*
X286580D02*
D03*
X248280Y1006222D02*
D03*
X210180D02*
D03*
X222880D02*
D03*
X451030Y1386222D02*
D03*
X412930D02*
D03*
X425630D02*
D03*
X438330D02*
D03*
X516850Y1425000D02*
D03*
X529550D02*
D03*
X542250D02*
D03*
X554950D02*
D03*
X567650D02*
D03*
X580350D02*
D03*
X593050D02*
D03*
X605750D02*
D03*
X618450D02*
D03*
X631150D02*
D03*
X503900Y1385000D02*
D03*
X516600D02*
D03*
X529300D02*
D03*
X542000D02*
D03*
X580100D02*
D03*
X592800D02*
D03*
X605500D02*
D03*
X618200D02*
D03*
X630900D02*
D03*
X643600D02*
D03*
X273500Y1425000D02*
D03*
X286200D02*
D03*
X298900D02*
D03*
X311600D02*
D03*
X324300D02*
D03*
X337000D02*
D03*
X400500D02*
D03*
X387800D02*
D03*
X375100D02*
D03*
X362400D02*
D03*
X349700D02*
D03*
X400500Y1386000D02*
D03*
X387800D02*
D03*
X375100D02*
D03*
X362400D02*
D03*
X349700D02*
D03*
X337000D02*
D03*
X324300D02*
D03*
X311600D02*
D03*
X298900D02*
D03*
X286200D02*
D03*
X273500D02*
D03*
X260800D02*
D03*
X248100D02*
D03*
X210000D02*
D03*
X222700D02*
D03*
X235400D02*
D03*
Y1425000D02*
D03*
X222700D02*
D03*
X210000D02*
D03*
X306750Y1361750D02*
D03*
X221750Y1345500D02*
D03*
X222250Y1329250D02*
D03*
X222000Y1312750D02*
D03*
X222250Y1296750D02*
D03*
X239000Y1345500D02*
D03*
X239250Y1329250D02*
D03*
Y1313000D02*
D03*
Y1297000D02*
D03*
X716750Y1066500D02*
D03*
Y1141500D02*
D03*
X719000Y1292000D02*
D03*
Y1367000D02*
D03*
X630500Y1167000D02*
D03*
X648750Y1277750D02*
D03*
X543750Y1179750D02*
D03*
X647500Y1182250D02*
D03*
X656500Y1425000D02*
D03*
X643800D02*
D03*
X656500Y1386000D02*
D03*
X681900Y1425000D02*
D03*
Y1386000D02*
D03*
X720000Y1425000D02*
D03*
X707300D02*
D03*
X694600D02*
D03*
Y1386000D02*
D03*
X707300D02*
D03*
X720000D02*
D03*
X689250Y1258000D02*
D03*
X672750D02*
D03*
X608250Y1255000D02*
D03*
X669250Y1243500D02*
D03*
X660000Y1235500D02*
D03*
X691750Y1242500D02*
D03*
X676750Y1243500D02*
D03*
X644000Y1230500D02*
D03*
X650750Y1243500D02*
D03*
D67*
X269700Y1363500D02*
D03*
Y1277000D02*
D03*
D68*
X228000Y1363500D02*
D03*
Y1277000D02*
D03*
D69*
X287750Y1320250D02*
D03*
X305250Y1336000D02*
D03*
M02*
