G04*
G04 #@! TF.GenerationSoftware,Altium Limited,Altium Designer,24.4.1 (13)*
G04*
G04 Layer_Color=32768*
%FSLAX44Y44*%
%MOMM*%
G71*
G04*
G04 #@! TF.SameCoordinates,9A945CEE-F102-44BA-A3C3-DB53B066AAF5*
G04*
G04*
G04 #@! TF.FilePolarity,Positive*
G04*
G01*
G75*
%ADD92C,0.0500*%
%ADD93C,0.1000*%
D92*
X199500Y1370500D02*
X283700D01*
X199500Y1270000D02*
Y1370500D01*
Y1270000D02*
X283700D01*
Y1370500D01*
X254900Y1162100D02*
X279100D01*
X254900Y1137900D02*
Y1162100D01*
Y1137900D02*
X279100D01*
Y1162100D01*
X376500Y1367000D02*
X469500D01*
Y1308000D02*
Y1367000D01*
X376500Y1308000D02*
X469500D01*
X376500D02*
Y1367000D01*
X471450Y1306550D02*
Y1380750D01*
X525450D01*
Y1306550D02*
Y1380750D01*
X471450Y1306550D02*
X525450D01*
X533300Y1074499D02*
Y1307600D01*
X300200Y1074499D02*
Y1307600D01*
Y1074499D02*
X533300D01*
X300200Y1307600D02*
X533300D01*
X595500Y1230750D02*
X645500D01*
X595500Y1195750D02*
Y1230750D01*
Y1195750D02*
X645500D01*
Y1230750D01*
D93*
X279750Y1293750D02*
Y1329750D01*
X295750D01*
X279750Y1293750D02*
X295750D01*
Y1329750D01*
X284750Y1311750D02*
X290750D01*
X287750Y1308750D02*
Y1314750D01*
X640500Y1110750D02*
Y1120750D01*
X635500Y1115750D02*
X645500D01*
X593500Y1095750D02*
Y1135750D01*
X687500Y1095750D02*
Y1135750D01*
X593500Y1095750D02*
X687500D01*
X593500Y1135750D02*
X687500D01*
X640500Y1300000D02*
Y1310000D01*
X635500Y1305000D02*
X645500D01*
X593500Y1285000D02*
Y1325000D01*
X687500Y1285000D02*
Y1325000D01*
X593500Y1285000D02*
X687500D01*
X593500Y1325000D02*
X687500D01*
X663000Y1353750D02*
Y1359750D01*
X660000Y1356750D02*
X666000D01*
X671000Y1338750D02*
Y1374750D01*
X655000Y1338750D02*
X671000D01*
X655000Y1374750D02*
X671000D01*
X655000Y1338750D02*
Y1374750D01*
X680000Y1353750D02*
Y1359750D01*
X677000Y1356750D02*
X683000D01*
X672000Y1338750D02*
Y1374750D01*
X688000D01*
X672000Y1338750D02*
X688000D01*
Y1374750D01*
X534000Y1139750D02*
X570000D01*
Y1123750D02*
Y1139750D01*
X534000Y1123750D02*
Y1139750D01*
Y1123750D02*
X570000D01*
X552000Y1128750D02*
Y1134750D01*
X549000Y1131750D02*
X555000D01*
X634250Y1337500D02*
Y1372500D01*
X604250Y1337500D02*
Y1372500D01*
X634250D01*
X604250Y1337500D02*
X634250D01*
X614250Y1355000D02*
X624250D01*
X619250Y1350000D02*
Y1360000D01*
X699250Y1054000D02*
X734250D01*
X699250Y1154000D02*
X734250D01*
X699250Y1054000D02*
Y1154000D01*
X734250Y1054000D02*
Y1154000D01*
X716750Y1094000D02*
Y1114000D01*
X706750Y1104000D02*
X726750D01*
X709000Y1329500D02*
X729000D01*
X719000Y1319500D02*
Y1339500D01*
X736500Y1279500D02*
Y1379500D01*
X701500Y1279500D02*
Y1379500D01*
X736500D01*
X701500Y1279500D02*
X736500D01*
X371750Y1054250D02*
X407750D01*
X371750D02*
Y1070250D01*
X407750Y1054250D02*
Y1070250D01*
X371750D02*
X407750D01*
X389750Y1059250D02*
Y1065250D01*
X386750Y1062250D02*
X392750D01*
X335250Y1070000D02*
X371250D01*
Y1054000D02*
Y1070000D01*
X335250Y1054000D02*
Y1070000D01*
Y1054000D02*
X371250D01*
X353250Y1059000D02*
Y1065000D01*
X350250Y1062000D02*
X356250D01*
X534250Y1105750D02*
X570250D01*
X534250D02*
Y1121750D01*
X570250Y1105750D02*
Y1121750D01*
X534250D02*
X570250D01*
X552250Y1110750D02*
Y1116750D01*
X549249Y1113750D02*
X555249D01*
X636750Y1256500D02*
X642750D01*
X639750Y1253500D02*
Y1259500D01*
X621750Y1264500D02*
X657750D01*
Y1248500D02*
Y1264500D01*
X621750Y1248500D02*
Y1264500D01*
Y1248500D02*
X657750D01*
X425000Y1367750D02*
Y1373750D01*
X422000Y1370750D02*
X428000D01*
X442000Y1362750D02*
Y1378750D01*
X408000Y1362750D02*
Y1378750D01*
X442000D01*
X408000Y1362750D02*
X442000D01*
X546750Y1332750D02*
Y1338750D01*
X543750Y1335750D02*
X549750D01*
X529750Y1327750D02*
Y1343750D01*
X563750Y1327750D02*
Y1343750D01*
X529750Y1327750D02*
X563750D01*
X529750Y1343750D02*
X563750D01*
X546750Y1316750D02*
Y1322750D01*
X543750Y1319750D02*
X549750D01*
X563750Y1311750D02*
Y1327750D01*
X529750Y1311750D02*
Y1327750D01*
X563750D01*
X529750Y1311750D02*
X563750D01*
X544250Y1368250D02*
X550250D01*
X547250Y1365250D02*
Y1371250D01*
X529250Y1376250D02*
X565250D01*
Y1360250D02*
Y1376250D01*
X529250Y1360250D02*
Y1376250D01*
Y1360250D02*
X565250D01*
X543750Y1351750D02*
X549750D01*
X546750Y1348750D02*
Y1354750D01*
X528750Y1343750D02*
X564750D01*
X528750D02*
Y1359750D01*
X564750Y1343750D02*
Y1359750D01*
X528750D02*
X564750D01*
X293750Y1336000D02*
X299750D01*
X296750Y1333000D02*
Y1339000D01*
X278750Y1328000D02*
X314750D01*
X278750D02*
Y1344000D01*
X314750Y1328000D02*
Y1344000D01*
X278750D02*
X314750D01*
X286000Y1170750D02*
Y1176750D01*
X283000Y1173750D02*
X289000D01*
X303000Y1165750D02*
Y1181750D01*
X269000Y1165750D02*
Y1181750D01*
X303000D01*
X269000Y1165750D02*
X303000D01*
X615250Y1065750D02*
Y1075750D01*
X610250Y1070750D02*
X620250D01*
X600250Y1088250D02*
X630250D01*
X600250Y1053250D02*
X630250D01*
Y1088250D01*
X600250Y1053250D02*
Y1088250D01*
X579250Y1064750D02*
Y1074750D01*
X574250Y1069750D02*
X584250D01*
X564250Y1052250D02*
X594250D01*
X564250Y1087250D02*
X594250D01*
X564250Y1052250D02*
Y1087250D01*
X594250Y1052250D02*
Y1087250D01*
X587750Y1349500D02*
Y1359500D01*
X582750Y1354500D02*
X592750D01*
X572750Y1372000D02*
X602750D01*
X572750Y1337000D02*
X602750D01*
Y1372000D01*
X572750Y1337000D02*
Y1372000D01*
X600250Y1246750D02*
Y1280750D01*
X584250Y1246750D02*
Y1280750D01*
Y1246750D02*
X600250D01*
X584250Y1280750D02*
X600250D01*
X592250Y1260750D02*
Y1266750D01*
X589250Y1263750D02*
X595250D01*
X616250Y1246750D02*
Y1280750D01*
X600250Y1246750D02*
Y1280750D01*
Y1246750D02*
X616250D01*
X600250Y1280750D02*
X616250D01*
X608250Y1260750D02*
Y1266750D01*
X605250Y1263750D02*
X611250D01*
X621000Y1159000D02*
X657000D01*
X621000D02*
Y1175000D01*
X657000Y1159000D02*
Y1175000D01*
X621000D02*
X657000D01*
X639000Y1164000D02*
Y1170000D01*
X636000Y1167000D02*
X642000D01*
X697250Y1249500D02*
Y1283500D01*
X681250Y1249500D02*
Y1283500D01*
Y1249500D02*
X697250D01*
X681250Y1283500D02*
X697250D01*
X689250Y1263500D02*
Y1269500D01*
X686250Y1266500D02*
X692250D01*
X680750Y1249500D02*
Y1283500D01*
X664750Y1249500D02*
Y1283500D01*
Y1249500D02*
X680750D01*
X664750Y1283500D02*
X680750D01*
X672750Y1263500D02*
Y1269500D01*
X669750Y1266500D02*
X675750D01*
X533750Y1156500D02*
X569750D01*
Y1140500D02*
Y1156500D01*
X533750Y1140500D02*
Y1156500D01*
Y1140500D02*
X569750D01*
X551750Y1145500D02*
Y1151500D01*
X548750Y1148500D02*
X554750D01*
X534500Y1171750D02*
X570500D01*
Y1155750D02*
Y1171750D01*
X534500Y1155750D02*
Y1171750D01*
Y1155750D02*
X570500D01*
X552500Y1160750D02*
Y1166750D01*
X549500Y1163750D02*
X555500D01*
X534250Y1187750D02*
X570250D01*
Y1171750D02*
Y1187750D01*
X534250Y1171750D02*
Y1187750D01*
Y1171750D02*
X570250D01*
X552250Y1176750D02*
Y1182750D01*
X549250Y1179750D02*
X555250D01*
X697500Y1135000D02*
Y1185000D01*
X673500Y1135000D02*
Y1185000D01*
Y1135000D02*
X697500D01*
X673500Y1185000D02*
X697500D01*
X678000Y1160000D02*
X693000D01*
X685500Y1152500D02*
Y1167500D01*
X673750Y1142000D02*
Y1176000D01*
X657750Y1142000D02*
Y1176000D01*
Y1142000D02*
X673750D01*
X657750Y1176000D02*
X673750D01*
X665750Y1156000D02*
Y1162000D01*
X662750Y1159000D02*
X668750D01*
X708750Y1226500D02*
Y1266500D01*
X726750Y1226500D02*
Y1266500D01*
X708750D02*
X726750D01*
X708750Y1226500D02*
X726750D01*
X717750Y1241500D02*
Y1251500D01*
X712750Y1246500D02*
X722750D01*
X703750Y1338750D02*
Y1374750D01*
X687750Y1338750D02*
X703750D01*
X687750Y1374750D02*
X703750D01*
X687750Y1338750D02*
Y1374750D01*
X692750Y1356750D02*
X698750D01*
X695750Y1353750D02*
Y1359750D01*
X258250Y1093750D02*
Y1127750D01*
X274250Y1093750D02*
Y1127750D01*
X258250D02*
X274250D01*
X258250Y1093750D02*
X274250D01*
X266250Y1107750D02*
Y1113750D01*
X263250Y1110750D02*
X269250D01*
X274500Y1093750D02*
Y1127750D01*
X290500Y1093750D02*
Y1127750D01*
X274500D02*
X290500D01*
X274500Y1093750D02*
X290500D01*
X282500Y1107750D02*
Y1113750D01*
X279500Y1110750D02*
X285500D01*
X727500Y1175250D02*
Y1215250D01*
X709500Y1175250D02*
Y1215250D01*
Y1175250D02*
X727500D01*
X709500Y1215250D02*
X727500D01*
X718500Y1190250D02*
Y1200250D01*
X713500Y1195250D02*
X723500D01*
X639500Y1338500D02*
Y1374500D01*
X655500D01*
X639500Y1338500D02*
X655500D01*
Y1374500D01*
X644500Y1356500D02*
X650500D01*
X647500Y1353500D02*
Y1359500D01*
X679500Y1054250D02*
Y1090250D01*
X663500Y1054250D02*
X679500D01*
X663500Y1090250D02*
X679500D01*
X663500Y1054250D02*
Y1090250D01*
X668500Y1072250D02*
X674500D01*
X671500Y1069250D02*
Y1075250D01*
X663750Y1054250D02*
Y1090250D01*
X647750Y1054250D02*
X663750D01*
X647750Y1090250D02*
X663750D01*
X647750Y1054250D02*
Y1090250D01*
X652750Y1072250D02*
X658750D01*
X655750Y1069250D02*
Y1075250D01*
X678750Y1054750D02*
Y1090750D01*
X694750D01*
X678750Y1054750D02*
X694750D01*
Y1090750D01*
X683750Y1072750D02*
X689750D01*
X686750Y1069750D02*
Y1075750D01*
X635250Y1054250D02*
Y1090250D01*
X651250D01*
X635250Y1054250D02*
X651250D01*
Y1090250D01*
X640250Y1072250D02*
X646250D01*
X643250Y1069250D02*
Y1075250D01*
M02*
