G04*
G04 #@! TF.GenerationSoftware,Altium Limited,Altium Designer,24.4.1 (13)*
G04*
G04 Layer_Physical_Order=3*
G04 Layer_Color=16440176*
%FSLAX44Y44*%
%MOMM*%
G71*
G04*
G04 #@! TF.SameCoordinates,044CC30A-6F31-4426-BCA9-A8A858A33F02*
G04*
G04*
G04 #@! TF.FilePolarity,Positive*
G04*
G01*
G75*
%ADD10C,0.2000*%
%ADD11C,0.1270*%
%ADD12C,0.2540*%
%ADD14C,0.1500*%
%ADD15C,0.2500*%
%ADD16C,0.1524*%
%ADD17C,0.1520*%
%ADD18C,0.1000*%
%ADD19C,0.1250*%
%ADD68C,0.6000*%
%ADD71C,0.8000*%
G36*
X730025Y989868D02*
X200275D01*
Y1439618D01*
X200378Y1439868D01*
X730025D01*
Y989868D01*
D02*
G37*
%LPC*%
G36*
X426725Y1429472D02*
X425034D01*
X423472Y1428825D01*
X422277Y1427630D01*
X421630Y1426067D01*
Y1424377D01*
X422277Y1422815D01*
X423472Y1421619D01*
X425034Y1420972D01*
X426725D01*
X428287Y1421619D01*
X429483Y1422815D01*
X430130Y1424377D01*
Y1426067D01*
X429483Y1427630D01*
X428287Y1428825D01*
X426725Y1429472D01*
D02*
G37*
G36*
X414025D02*
X412334D01*
X410772Y1428825D01*
X409577Y1427630D01*
X408930Y1426067D01*
Y1424377D01*
X409577Y1422815D01*
X410772Y1421619D01*
X412334Y1420972D01*
X414025D01*
X415587Y1421619D01*
X416783Y1422815D01*
X417430Y1424377D01*
Y1426067D01*
X416783Y1427630D01*
X415587Y1428825D01*
X414025Y1429472D01*
D02*
G37*
G36*
X260845Y1429250D02*
X259155D01*
X257593Y1428603D01*
X256397Y1427407D01*
X255750Y1425845D01*
Y1424155D01*
X256397Y1422593D01*
X257593Y1421397D01*
X259155Y1420750D01*
X260845D01*
X262407Y1421397D01*
X263603Y1422593D01*
X264250Y1424155D01*
Y1425845D01*
X263603Y1427407D01*
X262407Y1428603D01*
X260845Y1429250D01*
D02*
G37*
G36*
X720845Y1429250D02*
X719154D01*
X717592Y1428603D01*
X716397Y1427407D01*
X715750Y1425845D01*
Y1424155D01*
X716397Y1422592D01*
X717592Y1421397D01*
X719154Y1420750D01*
X720845D01*
X722407Y1421397D01*
X723603Y1422592D01*
X724250Y1424155D01*
Y1425845D01*
X723603Y1427407D01*
X722407Y1428603D01*
X720845Y1429250D01*
D02*
G37*
G36*
X708145D02*
X706454D01*
X704892Y1428603D01*
X703697Y1427407D01*
X703050Y1425845D01*
Y1424155D01*
X703697Y1422592D01*
X704892Y1421397D01*
X706454Y1420750D01*
X708145D01*
X709707Y1421397D01*
X710903Y1422592D01*
X711550Y1424155D01*
Y1425845D01*
X710903Y1427407D01*
X709707Y1428603D01*
X708145Y1429250D01*
D02*
G37*
G36*
X695445D02*
X693754D01*
X692192Y1428603D01*
X690997Y1427407D01*
X690350Y1425845D01*
Y1424155D01*
X690997Y1422592D01*
X692192Y1421397D01*
X693754Y1420750D01*
X695445D01*
X697007Y1421397D01*
X698203Y1422592D01*
X698850Y1424155D01*
Y1425845D01*
X698203Y1427407D01*
X697007Y1428603D01*
X695445Y1429250D01*
D02*
G37*
G36*
X682745D02*
X681054D01*
X679492Y1428603D01*
X678297Y1427407D01*
X677650Y1425845D01*
Y1424155D01*
X678297Y1422592D01*
X679492Y1421397D01*
X681054Y1420750D01*
X682745D01*
X684307Y1421397D01*
X685503Y1422592D01*
X686150Y1424155D01*
Y1425845D01*
X685503Y1427407D01*
X684307Y1428603D01*
X682745Y1429250D01*
D02*
G37*
G36*
X670045D02*
X668354D01*
X666792Y1428603D01*
X665597Y1427407D01*
X664950Y1425845D01*
Y1424155D01*
X665597Y1422592D01*
X666792Y1421397D01*
X668354Y1420750D01*
X670045D01*
X671607Y1421397D01*
X672803Y1422592D01*
X673450Y1424155D01*
Y1425845D01*
X672803Y1427407D01*
X671607Y1428603D01*
X670045Y1429250D01*
D02*
G37*
G36*
X657345D02*
X655654D01*
X654092Y1428603D01*
X652897Y1427407D01*
X652250Y1425845D01*
Y1424155D01*
X652897Y1422592D01*
X654092Y1421397D01*
X655654Y1420750D01*
X657345D01*
X658907Y1421397D01*
X660103Y1422592D01*
X660750Y1424155D01*
Y1425845D01*
X660103Y1427407D01*
X658907Y1428603D01*
X657345Y1429250D01*
D02*
G37*
G36*
X644645D02*
X642954D01*
X641392Y1428603D01*
X640197Y1427407D01*
X639550Y1425845D01*
Y1424155D01*
X640197Y1422592D01*
X641392Y1421397D01*
X642954Y1420750D01*
X644645D01*
X646207Y1421397D01*
X647403Y1422592D01*
X648050Y1424155D01*
Y1425845D01*
X647403Y1427407D01*
X646207Y1428603D01*
X644645Y1429250D01*
D02*
G37*
G36*
X401345D02*
X399654D01*
X398092Y1428603D01*
X396897Y1427407D01*
X396250Y1425845D01*
Y1424155D01*
X396897Y1422592D01*
X398092Y1421397D01*
X399654Y1420750D01*
X401345D01*
X402907Y1421397D01*
X404103Y1422592D01*
X404750Y1424155D01*
Y1425845D01*
X404103Y1427407D01*
X402907Y1428603D01*
X401345Y1429250D01*
D02*
G37*
G36*
X388645D02*
X386954D01*
X385392Y1428603D01*
X384197Y1427407D01*
X383550Y1425845D01*
Y1424155D01*
X384197Y1422592D01*
X385392Y1421397D01*
X386954Y1420750D01*
X388645D01*
X390207Y1421397D01*
X391403Y1422592D01*
X392050Y1424155D01*
Y1425845D01*
X391403Y1427407D01*
X390207Y1428603D01*
X388645Y1429250D01*
D02*
G37*
G36*
X375945D02*
X374254D01*
X372692Y1428603D01*
X371497Y1427407D01*
X370850Y1425845D01*
Y1424155D01*
X371497Y1422592D01*
X372692Y1421397D01*
X374254Y1420750D01*
X375945D01*
X377507Y1421397D01*
X378703Y1422592D01*
X379350Y1424155D01*
Y1425845D01*
X378703Y1427407D01*
X377507Y1428603D01*
X375945Y1429250D01*
D02*
G37*
G36*
X337845D02*
X336154D01*
X334592Y1428603D01*
X333397Y1427407D01*
X332750Y1425845D01*
Y1424155D01*
X333397Y1422592D01*
X334592Y1421397D01*
X336154Y1420750D01*
X337845D01*
X339407Y1421397D01*
X340603Y1422592D01*
X341250Y1424155D01*
Y1425845D01*
X340603Y1427407D01*
X339407Y1428603D01*
X337845Y1429250D01*
D02*
G37*
G36*
X325145D02*
X323454D01*
X321892Y1428603D01*
X320697Y1427407D01*
X320050Y1425845D01*
Y1424155D01*
X320697Y1422592D01*
X321892Y1421397D01*
X323454Y1420750D01*
X325145D01*
X326707Y1421397D01*
X327903Y1422592D01*
X328550Y1424155D01*
Y1425845D01*
X327903Y1427407D01*
X326707Y1428603D01*
X325145Y1429250D01*
D02*
G37*
G36*
X312445D02*
X310754D01*
X309192Y1428603D01*
X307997Y1427407D01*
X307350Y1425845D01*
Y1424155D01*
X307997Y1422592D01*
X309192Y1421397D01*
X310754Y1420750D01*
X312445D01*
X314007Y1421397D01*
X315203Y1422592D01*
X315850Y1424155D01*
Y1425845D01*
X315203Y1427407D01*
X314007Y1428603D01*
X312445Y1429250D01*
D02*
G37*
G36*
X299745D02*
X298054D01*
X296492Y1428603D01*
X295297Y1427407D01*
X294650Y1425845D01*
Y1424155D01*
X295297Y1422592D01*
X296492Y1421397D01*
X298054Y1420750D01*
X299745D01*
X301307Y1421397D01*
X302503Y1422592D01*
X303150Y1424155D01*
Y1425845D01*
X302503Y1427407D01*
X301307Y1428603D01*
X299745Y1429250D01*
D02*
G37*
G36*
X287045D02*
X285354D01*
X283792Y1428603D01*
X282597Y1427407D01*
X281950Y1425845D01*
Y1424155D01*
X282597Y1422592D01*
X283792Y1421397D01*
X285354Y1420750D01*
X287045D01*
X288607Y1421397D01*
X289803Y1422592D01*
X290450Y1424155D01*
Y1425845D01*
X289803Y1427407D01*
X288607Y1428603D01*
X287045Y1429250D01*
D02*
G37*
G36*
X274345D02*
X272654D01*
X271092Y1428603D01*
X269897Y1427407D01*
X269250Y1425845D01*
Y1424155D01*
X269897Y1422592D01*
X271092Y1421397D01*
X272654Y1420750D01*
X274345D01*
X275907Y1421397D01*
X277103Y1422592D01*
X277750Y1424155D01*
Y1425845D01*
X277103Y1427407D01*
X275907Y1428603D01*
X274345Y1429250D01*
D02*
G37*
G36*
X631995Y1429250D02*
X630304D01*
X628742Y1428603D01*
X627547Y1427407D01*
X626900Y1425845D01*
Y1424154D01*
X627547Y1422592D01*
X628742Y1421397D01*
X630304Y1420750D01*
X631995D01*
X633557Y1421397D01*
X634753Y1422592D01*
X635400Y1424154D01*
Y1425845D01*
X634753Y1427407D01*
X633557Y1428603D01*
X631995Y1429250D01*
D02*
G37*
G36*
X619295D02*
X617604D01*
X616042Y1428603D01*
X614847Y1427407D01*
X614200Y1425845D01*
Y1424154D01*
X614847Y1422592D01*
X616042Y1421397D01*
X617604Y1420750D01*
X619295D01*
X620857Y1421397D01*
X622053Y1422592D01*
X622700Y1424154D01*
Y1425845D01*
X622053Y1427407D01*
X620857Y1428603D01*
X619295Y1429250D01*
D02*
G37*
G36*
X606595D02*
X604905D01*
X603342Y1428603D01*
X602147Y1427407D01*
X601500Y1425845D01*
Y1424154D01*
X602147Y1422592D01*
X603342Y1421397D01*
X604905Y1420750D01*
X606595D01*
X608157Y1421397D01*
X609353Y1422592D01*
X610000Y1424154D01*
Y1425845D01*
X609353Y1427407D01*
X608157Y1428603D01*
X606595Y1429250D01*
D02*
G37*
G36*
X593895D02*
X592205D01*
X590642Y1428603D01*
X589447Y1427407D01*
X588800Y1425845D01*
Y1424154D01*
X589447Y1422592D01*
X590642Y1421397D01*
X592205Y1420750D01*
X593895D01*
X595457Y1421397D01*
X596653Y1422592D01*
X597300Y1424154D01*
Y1425845D01*
X596653Y1427407D01*
X595457Y1428603D01*
X593895Y1429250D01*
D02*
G37*
G36*
X581195D02*
X579505D01*
X577942Y1428603D01*
X576747Y1427407D01*
X576100Y1425845D01*
Y1424154D01*
X576747Y1422592D01*
X577942Y1421397D01*
X579505Y1420750D01*
X581195D01*
X582757Y1421397D01*
X583953Y1422592D01*
X584600Y1424154D01*
Y1425845D01*
X583953Y1427407D01*
X582757Y1428603D01*
X581195Y1429250D01*
D02*
G37*
G36*
X568495D02*
X566805D01*
X565242Y1428603D01*
X564047Y1427407D01*
X563400Y1425845D01*
Y1424154D01*
X564047Y1422592D01*
X565242Y1421397D01*
X566805Y1420750D01*
X568495D01*
X570057Y1421397D01*
X571253Y1422592D01*
X571900Y1424154D01*
Y1425845D01*
X571253Y1427407D01*
X570057Y1428603D01*
X568495Y1429250D01*
D02*
G37*
G36*
X555795D02*
X554104D01*
X552542Y1428603D01*
X551347Y1427407D01*
X550700Y1425845D01*
Y1424154D01*
X551347Y1422592D01*
X552542Y1421397D01*
X554104Y1420750D01*
X555795D01*
X557357Y1421397D01*
X558553Y1422592D01*
X559200Y1424154D01*
Y1425845D01*
X558553Y1427407D01*
X557357Y1428603D01*
X555795Y1429250D01*
D02*
G37*
G36*
X543095D02*
X541404D01*
X539842Y1428603D01*
X538647Y1427407D01*
X538000Y1425845D01*
Y1424154D01*
X538647Y1422592D01*
X539842Y1421397D01*
X541404Y1420750D01*
X543095D01*
X544657Y1421397D01*
X545853Y1422592D01*
X546500Y1424154D01*
Y1425845D01*
X545853Y1427407D01*
X544657Y1428603D01*
X543095Y1429250D01*
D02*
G37*
G36*
X530395D02*
X528704D01*
X527142Y1428603D01*
X525947Y1427407D01*
X525300Y1425845D01*
Y1424154D01*
X525947Y1422592D01*
X527142Y1421397D01*
X528704Y1420750D01*
X530395D01*
X531957Y1421397D01*
X533153Y1422592D01*
X533800Y1424154D01*
Y1425845D01*
X533153Y1427407D01*
X531957Y1428603D01*
X530395Y1429250D01*
D02*
G37*
G36*
X517695D02*
X516004D01*
X514442Y1428603D01*
X513247Y1427407D01*
X512600Y1425845D01*
Y1424154D01*
X513247Y1422592D01*
X514442Y1421397D01*
X516004Y1420750D01*
X517695D01*
X519257Y1421397D01*
X520453Y1422592D01*
X521100Y1424154D01*
Y1425845D01*
X520453Y1427407D01*
X519257Y1428603D01*
X517695Y1429250D01*
D02*
G37*
G36*
X504995D02*
X503304D01*
X501742Y1428603D01*
X500547Y1427407D01*
X499900Y1425845D01*
Y1424154D01*
X500547Y1422592D01*
X501742Y1421397D01*
X503304Y1420750D01*
X504995D01*
X506557Y1421397D01*
X507753Y1422592D01*
X508400Y1424154D01*
Y1425845D01*
X507753Y1427407D01*
X506557Y1428603D01*
X504995Y1429250D01*
D02*
G37*
G36*
X248345Y1428500D02*
X246655D01*
X245093Y1427853D01*
X243897Y1426657D01*
X243250Y1425095D01*
Y1423405D01*
X243897Y1421843D01*
X245093Y1420647D01*
X246655Y1420000D01*
X248345D01*
X249907Y1420647D01*
X251103Y1421843D01*
X251750Y1423405D01*
Y1425095D01*
X251103Y1426657D01*
X249907Y1427853D01*
X248345Y1428500D01*
D02*
G37*
G36*
X454750Y1435162D02*
X357950D01*
X357218Y1435016D01*
X356598Y1434602D01*
X351041Y1429044D01*
X350545Y1429250D01*
X348854D01*
X347292Y1428603D01*
X346097Y1427407D01*
X345450Y1425845D01*
Y1424155D01*
X346097Y1422592D01*
X347292Y1421397D01*
X348854Y1420750D01*
X350545D01*
X352107Y1421397D01*
X353303Y1422592D01*
X353950Y1424155D01*
Y1425845D01*
X353745Y1426341D01*
X358742Y1431338D01*
X453958D01*
X457963Y1427333D01*
Y1409981D01*
X458109Y1409249D01*
X458523Y1408629D01*
X460088Y1407064D01*
Y1405335D01*
X460062Y1405278D01*
X459676Y1404938D01*
X459102Y1404966D01*
X458340Y1405098D01*
X457992Y1405620D01*
X457259Y1406352D01*
X456639Y1406766D01*
X455908Y1406912D01*
X383191D01*
X366445Y1423659D01*
X366650Y1424155D01*
Y1425845D01*
X366003Y1427407D01*
X364807Y1428603D01*
X363245Y1429250D01*
X361554D01*
X359992Y1428603D01*
X358797Y1427407D01*
X358150Y1425845D01*
Y1424155D01*
X358797Y1422592D01*
X359992Y1421397D01*
X361554Y1420750D01*
X363245D01*
X363741Y1420955D01*
X378504Y1406192D01*
X378026Y1405037D01*
X355417D01*
X351295Y1409159D01*
X351500Y1409655D01*
Y1411345D01*
X350853Y1412907D01*
X349657Y1414103D01*
X348095Y1414750D01*
X346405D01*
X344843Y1414103D01*
X343647Y1412907D01*
X343000Y1411345D01*
Y1409655D01*
X343008Y1409636D01*
X342015Y1408765D01*
X340845Y1409250D01*
X339155D01*
X337593Y1408603D01*
X336397Y1407407D01*
X335750Y1405845D01*
Y1404155D01*
X336397Y1402593D01*
X337593Y1401397D01*
X339155Y1400750D01*
X340575D01*
X342051Y1399273D01*
X342672Y1398859D01*
X343403Y1398713D01*
X378912D01*
X378977Y1398648D01*
X379597Y1398234D01*
X380329Y1398088D01*
X447743D01*
X456558Y1389273D01*
X457178Y1388859D01*
X457910Y1388713D01*
X499835D01*
X500353Y1387463D01*
X500297Y1387407D01*
X499650Y1385845D01*
Y1384154D01*
X500297Y1382592D01*
X501492Y1381397D01*
X503054Y1380750D01*
X504745D01*
X506307Y1381397D01*
X507503Y1382592D01*
X508150Y1384154D01*
Y1385845D01*
X507503Y1387407D01*
X507447Y1387463D01*
X507965Y1388713D01*
X512535D01*
X513053Y1387463D01*
X512997Y1387407D01*
X512350Y1385845D01*
Y1384154D01*
X512997Y1382592D01*
X514192Y1381397D01*
X515754Y1380750D01*
X517445D01*
X519007Y1381397D01*
X520203Y1382592D01*
X520850Y1384154D01*
Y1385845D01*
X520203Y1387407D01*
X520147Y1387463D01*
X520664Y1388713D01*
X525235D01*
X525753Y1387463D01*
X525697Y1387407D01*
X525050Y1385845D01*
Y1384154D01*
X525697Y1382592D01*
X526892Y1381397D01*
X528454Y1380750D01*
X530145D01*
X531707Y1381397D01*
X532903Y1382592D01*
X533550Y1384154D01*
Y1385845D01*
X532903Y1387407D01*
X532847Y1387463D01*
X533364Y1388713D01*
X537935D01*
X538453Y1387463D01*
X538397Y1387407D01*
X537750Y1385845D01*
Y1384154D01*
X538397Y1382592D01*
X539592Y1381397D01*
X541154Y1380750D01*
X542845D01*
X544407Y1381397D01*
X545603Y1382592D01*
X546250Y1384154D01*
Y1385845D01*
X545603Y1387407D01*
X545547Y1387463D01*
X546064Y1388713D01*
X550635D01*
X551153Y1387463D01*
X551097Y1387407D01*
X550450Y1385845D01*
Y1384154D01*
X551097Y1382592D01*
X552292Y1381397D01*
X553854Y1380750D01*
X555545D01*
X557107Y1381397D01*
X558303Y1382592D01*
X558950Y1384154D01*
Y1385845D01*
X558303Y1387407D01*
X558247Y1387463D01*
X558764Y1388713D01*
X563335D01*
X563853Y1387463D01*
X563797Y1387407D01*
X563150Y1385845D01*
Y1384154D01*
X563797Y1382592D01*
X564992Y1381397D01*
X566554Y1380750D01*
X568245D01*
X569807Y1381397D01*
X571003Y1382592D01*
X571650Y1384154D01*
Y1385845D01*
X571003Y1387407D01*
X570947Y1387463D01*
X571465Y1388713D01*
X576035D01*
X576553Y1387463D01*
X576497Y1387407D01*
X575850Y1385845D01*
Y1384154D01*
X576497Y1382592D01*
X577692Y1381397D01*
X579254Y1380750D01*
X580945D01*
X582507Y1381397D01*
X583703Y1382592D01*
X584350Y1384154D01*
Y1385845D01*
X583703Y1387407D01*
X583647Y1387463D01*
X584165Y1388713D01*
X588735D01*
X589253Y1387463D01*
X589197Y1387407D01*
X588550Y1385845D01*
Y1384154D01*
X589197Y1382592D01*
X590392Y1381397D01*
X591954Y1380750D01*
X593645D01*
X595207Y1381397D01*
X596403Y1382592D01*
X597050Y1384154D01*
Y1385845D01*
X596403Y1387407D01*
X596347Y1387463D01*
X596865Y1388713D01*
X601435D01*
X601953Y1387463D01*
X601897Y1387407D01*
X601250Y1385845D01*
Y1384154D01*
X601897Y1382592D01*
X603092Y1381397D01*
X604654Y1380750D01*
X606345D01*
X607907Y1381397D01*
X609103Y1382592D01*
X609750Y1384154D01*
Y1385845D01*
X609103Y1387407D01*
X607907Y1388603D01*
X607393Y1388816D01*
X607100Y1390290D01*
X620102Y1403292D01*
X620516Y1403913D01*
X620662Y1404644D01*
Y1406067D01*
X621157Y1406272D01*
X622353Y1407468D01*
X623000Y1409030D01*
Y1410720D01*
X622353Y1412283D01*
X621157Y1413478D01*
X619595Y1414125D01*
X617905D01*
X616343Y1413478D01*
X615147Y1412283D01*
X614500Y1410720D01*
Y1409030D01*
X615147Y1407468D01*
X616343Y1406272D01*
X616328Y1404925D01*
X603939Y1392537D01*
X593873D01*
X593395Y1393692D01*
X605351Y1405647D01*
X605405Y1405625D01*
X607095D01*
X608657Y1406272D01*
X609853Y1407468D01*
X610500Y1409030D01*
Y1410720D01*
X609853Y1412283D01*
X608657Y1413478D01*
X607095Y1414125D01*
X605405D01*
X603843Y1413478D01*
X602647Y1412283D01*
X602000Y1410720D01*
Y1409030D01*
X602388Y1408092D01*
X589333Y1395037D01*
X467768D01*
X467289Y1396192D01*
X468227Y1397129D01*
X468641Y1397749D01*
X468787Y1398481D01*
Y1403535D01*
X468641Y1404267D01*
X468227Y1404887D01*
X466662Y1406452D01*
Y1408192D01*
X467157Y1408397D01*
X468353Y1409593D01*
X469000Y1411155D01*
Y1412845D01*
X468353Y1414407D01*
X467157Y1415603D01*
X465595Y1416250D01*
X463905D01*
X463037Y1415891D01*
X461787Y1416680D01*
Y1428125D01*
X461641Y1428857D01*
X461227Y1429477D01*
X456102Y1434602D01*
X455482Y1435016D01*
X454750Y1435162D01*
D02*
G37*
G36*
X426475Y1390472D02*
X424784D01*
X423222Y1389825D01*
X422027Y1388629D01*
X421380Y1387067D01*
Y1385377D01*
X422027Y1383815D01*
X423222Y1382619D01*
X424784Y1381972D01*
X426475D01*
X428037Y1382619D01*
X429233Y1383815D01*
X429880Y1385377D01*
Y1387067D01*
X429233Y1388629D01*
X428037Y1389825D01*
X426475Y1390472D01*
D02*
G37*
G36*
X413775D02*
X412084D01*
X410522Y1389825D01*
X409327Y1388629D01*
X408680Y1387067D01*
Y1385377D01*
X409327Y1383815D01*
X410522Y1382619D01*
X412084Y1381972D01*
X413775D01*
X415337Y1382619D01*
X416533Y1383815D01*
X417180Y1385377D01*
Y1387067D01*
X416533Y1388629D01*
X415337Y1389825D01*
X413775Y1390472D01*
D02*
G37*
G36*
X299901Y1390418D02*
X298210D01*
X296648Y1389771D01*
X295453Y1388575D01*
X294806Y1387013D01*
Y1385322D01*
X295453Y1383760D01*
X296648Y1382565D01*
X298210Y1381918D01*
X299901D01*
X301463Y1382565D01*
X302659Y1383760D01*
X303306Y1385322D01*
Y1387013D01*
X302659Y1388575D01*
X301463Y1389771D01*
X299901Y1390418D01*
D02*
G37*
G36*
X720845Y1390250D02*
X719154D01*
X717592Y1389603D01*
X716397Y1388408D01*
X715750Y1386846D01*
Y1385155D01*
X716397Y1383593D01*
X717592Y1382397D01*
X719154Y1381750D01*
X720845D01*
X722407Y1382397D01*
X723603Y1383593D01*
X724250Y1385155D01*
Y1386846D01*
X723603Y1388408D01*
X722407Y1389603D01*
X720845Y1390250D01*
D02*
G37*
G36*
X708145D02*
X706454D01*
X704892Y1389603D01*
X703697Y1388408D01*
X703050Y1386846D01*
Y1385155D01*
X703697Y1383593D01*
X704892Y1382397D01*
X706454Y1381750D01*
X708145D01*
X709707Y1382397D01*
X710903Y1383593D01*
X711550Y1385155D01*
Y1386846D01*
X710903Y1388408D01*
X709707Y1389603D01*
X708145Y1390250D01*
D02*
G37*
G36*
X695445D02*
X693754D01*
X692192Y1389603D01*
X690997Y1388408D01*
X690350Y1386846D01*
Y1385155D01*
X690997Y1383593D01*
X692192Y1382397D01*
X693754Y1381750D01*
X695445D01*
X697007Y1382397D01*
X698203Y1383593D01*
X698850Y1385155D01*
Y1386846D01*
X698203Y1388408D01*
X697007Y1389603D01*
X695445Y1390250D01*
D02*
G37*
G36*
X682745D02*
X681054D01*
X679492Y1389603D01*
X678297Y1388408D01*
X677650Y1386846D01*
Y1385155D01*
X678297Y1383593D01*
X679492Y1382397D01*
X681054Y1381750D01*
X682745D01*
X684307Y1382397D01*
X685503Y1383593D01*
X686150Y1385155D01*
Y1386846D01*
X685503Y1388408D01*
X684307Y1389603D01*
X682745Y1390250D01*
D02*
G37*
G36*
X657345D02*
X655654D01*
X654092Y1389603D01*
X652897Y1388408D01*
X652250Y1386846D01*
Y1385155D01*
X652897Y1383593D01*
X654092Y1382397D01*
X655654Y1381750D01*
X657345D01*
X658907Y1382397D01*
X660103Y1383593D01*
X660750Y1385155D01*
Y1386846D01*
X660103Y1388408D01*
X658907Y1389603D01*
X657345Y1390250D01*
D02*
G37*
G36*
X401345Y1390250D02*
X399654D01*
X398092Y1389603D01*
X396897Y1388407D01*
X396250Y1386845D01*
Y1385154D01*
X396897Y1383592D01*
X398092Y1382397D01*
X399654Y1381750D01*
X401345D01*
X402907Y1382397D01*
X404103Y1383592D01*
X404750Y1385154D01*
Y1386845D01*
X404103Y1388407D01*
X402907Y1389603D01*
X401345Y1390250D01*
D02*
G37*
G36*
X388645D02*
X386954D01*
X385392Y1389603D01*
X384197Y1388407D01*
X383550Y1386845D01*
Y1385154D01*
X384197Y1383592D01*
X385392Y1382397D01*
X386954Y1381750D01*
X388645D01*
X390207Y1382397D01*
X391403Y1383592D01*
X392050Y1385154D01*
Y1386845D01*
X391403Y1388407D01*
X390207Y1389603D01*
X388645Y1390250D01*
D02*
G37*
G36*
X375945D02*
X374254D01*
X372692Y1389603D01*
X371497Y1388407D01*
X370850Y1386845D01*
Y1385154D01*
X371497Y1383592D01*
X372692Y1382397D01*
X374254Y1381750D01*
X375945D01*
X377507Y1382397D01*
X378703Y1383592D01*
X379350Y1385154D01*
Y1386845D01*
X378703Y1388407D01*
X377507Y1389603D01*
X375945Y1390250D01*
D02*
G37*
G36*
X363245D02*
X361554D01*
X359992Y1389603D01*
X358797Y1388407D01*
X358150Y1386845D01*
Y1385154D01*
X358797Y1383592D01*
X359992Y1382397D01*
X361554Y1381750D01*
X363245D01*
X364807Y1382397D01*
X366003Y1383592D01*
X366650Y1385154D01*
Y1386845D01*
X366003Y1388407D01*
X364807Y1389603D01*
X363245Y1390250D01*
D02*
G37*
G36*
X350545D02*
X348854D01*
X347292Y1389603D01*
X346097Y1388407D01*
X345450Y1386845D01*
Y1385154D01*
X346097Y1383592D01*
X347292Y1382397D01*
X348854Y1381750D01*
X350545D01*
X352107Y1382397D01*
X353303Y1383592D01*
X353950Y1385154D01*
Y1386845D01*
X353303Y1388407D01*
X352107Y1389603D01*
X350545Y1390250D01*
D02*
G37*
G36*
X337845D02*
X336154D01*
X334592Y1389603D01*
X333397Y1388407D01*
X332750Y1386845D01*
Y1385154D01*
X333397Y1383592D01*
X334592Y1382397D01*
X336154Y1381750D01*
X337845D01*
X339407Y1382397D01*
X340603Y1383592D01*
X341250Y1385154D01*
Y1386845D01*
X340603Y1388407D01*
X339407Y1389603D01*
X337845Y1390250D01*
D02*
G37*
G36*
X325145D02*
X323454D01*
X321892Y1389603D01*
X320697Y1388407D01*
X320050Y1386845D01*
Y1385154D01*
X320697Y1383592D01*
X321892Y1382397D01*
X323454Y1381750D01*
X325145D01*
X326707Y1382397D01*
X327903Y1383592D01*
X328550Y1385154D01*
Y1386845D01*
X327903Y1388407D01*
X326707Y1389603D01*
X325145Y1390250D01*
D02*
G37*
G36*
X312445D02*
X310754D01*
X309192Y1389603D01*
X307997Y1388407D01*
X307350Y1386845D01*
Y1385154D01*
X307997Y1383592D01*
X309192Y1382397D01*
X310754Y1381750D01*
X312445D01*
X314007Y1382397D01*
X315203Y1383592D01*
X315850Y1385154D01*
Y1386845D01*
X315203Y1388407D01*
X314007Y1389603D01*
X312445Y1390250D01*
D02*
G37*
G36*
X287045D02*
X285354D01*
X283792Y1389603D01*
X282597Y1388407D01*
X281950Y1386845D01*
Y1385154D01*
X282597Y1383592D01*
X283792Y1382397D01*
X285354Y1381750D01*
X287045D01*
X288607Y1382397D01*
X289803Y1383592D01*
X290450Y1385154D01*
Y1386845D01*
X289803Y1388407D01*
X288607Y1389603D01*
X287045Y1390250D01*
D02*
G37*
G36*
X274345D02*
X272654D01*
X271092Y1389603D01*
X269897Y1388407D01*
X269250Y1386845D01*
Y1385154D01*
X269897Y1383592D01*
X271092Y1382397D01*
X272654Y1381750D01*
X274345D01*
X275907Y1382397D01*
X277103Y1383592D01*
X277750Y1385154D01*
Y1386845D01*
X277103Y1388407D01*
X275907Y1389603D01*
X274345Y1390250D01*
D02*
G37*
G36*
X261645D02*
X259954D01*
X258392Y1389603D01*
X257197Y1388407D01*
X256550Y1386845D01*
Y1385154D01*
X257197Y1383592D01*
X258392Y1382397D01*
X259954Y1381750D01*
X261645D01*
X263207Y1382397D01*
X264403Y1383592D01*
X265050Y1385154D01*
Y1386845D01*
X264403Y1388407D01*
X263207Y1389603D01*
X261645Y1390250D01*
D02*
G37*
G36*
X248945D02*
X247254D01*
X245692Y1389603D01*
X244497Y1388407D01*
X243850Y1386845D01*
Y1385154D01*
X244497Y1383592D01*
X245692Y1382397D01*
X247254Y1381750D01*
X248945D01*
X250507Y1382397D01*
X251703Y1383592D01*
X252350Y1385154D01*
Y1386845D01*
X251703Y1388407D01*
X250507Y1389603D01*
X248945Y1390250D01*
D02*
G37*
G36*
X669345Y1389750D02*
X667655D01*
X666093Y1389103D01*
X664897Y1387907D01*
X664250Y1386345D01*
Y1384655D01*
X664897Y1383093D01*
X666093Y1381897D01*
X667655Y1381250D01*
X669345D01*
X670907Y1381897D01*
X672103Y1383093D01*
X672750Y1384655D01*
Y1386345D01*
X672103Y1387907D01*
X670907Y1389103D01*
X669345Y1389750D01*
D02*
G37*
G36*
X644445Y1389250D02*
X642754D01*
X641192Y1388603D01*
X639997Y1387407D01*
X639350Y1385845D01*
Y1384154D01*
X639997Y1382592D01*
X641192Y1381397D01*
X642754Y1380750D01*
X644445D01*
X646007Y1381397D01*
X647203Y1382592D01*
X647850Y1384154D01*
Y1385845D01*
X647203Y1387407D01*
X646007Y1388603D01*
X644445Y1389250D01*
D02*
G37*
G36*
X631745D02*
X630054D01*
X628492Y1388603D01*
X627297Y1387407D01*
X626650Y1385845D01*
Y1384154D01*
X627297Y1382592D01*
X628492Y1381397D01*
X630054Y1380750D01*
X631745D01*
X633307Y1381397D01*
X634503Y1382592D01*
X635150Y1384154D01*
Y1385845D01*
X634503Y1387407D01*
X633307Y1388603D01*
X631745Y1389250D01*
D02*
G37*
G36*
X619045D02*
X617354D01*
X615792Y1388603D01*
X614597Y1387407D01*
X613950Y1385845D01*
Y1384154D01*
X614597Y1382592D01*
X615792Y1381397D01*
X617354Y1380750D01*
X619045D01*
X620607Y1381397D01*
X621803Y1382592D01*
X622450Y1384154D01*
Y1385845D01*
X621803Y1387407D01*
X620607Y1388603D01*
X619045Y1389250D01*
D02*
G37*
G36*
X354672Y1376007D02*
X352981D01*
X351419Y1375360D01*
X350223Y1374165D01*
X349576Y1372603D01*
Y1371194D01*
X348789Y1370460D01*
X348483Y1370284D01*
X347925Y1370335D01*
X346907Y1371353D01*
X345345Y1372000D01*
X343655D01*
X342093Y1371353D01*
X340897Y1370157D01*
X340250Y1368595D01*
Y1366905D01*
X340897Y1365343D01*
X341653Y1364587D01*
X341135Y1363337D01*
X320382D01*
X320353Y1363407D01*
X319157Y1364603D01*
X317595Y1365250D01*
X315905D01*
X314343Y1364603D01*
X313147Y1363407D01*
X312500Y1361845D01*
Y1360155D01*
X313147Y1358593D01*
X314343Y1357397D01*
X315905Y1356750D01*
X317595D01*
X319157Y1357397D01*
X320353Y1358593D01*
X320734Y1359513D01*
X382320D01*
X383110Y1358263D01*
X382750Y1357395D01*
Y1355704D01*
X383397Y1354142D01*
X384593Y1352947D01*
X386155Y1352300D01*
X386066Y1351087D01*
X349821D01*
X347931Y1352977D01*
X347311Y1353391D01*
X346579Y1353537D01*
X320903D01*
X320853Y1353657D01*
X319657Y1354853D01*
X318095Y1355500D01*
X316405D01*
X314843Y1354853D01*
X313647Y1353657D01*
X313000Y1352095D01*
Y1350405D01*
X313647Y1348843D01*
X314843Y1347647D01*
X316405Y1347000D01*
X318095D01*
X319657Y1347647D01*
X320853Y1348843D01*
X321214Y1349713D01*
X323320D01*
X324109Y1348463D01*
X323750Y1347595D01*
Y1345905D01*
X324193Y1344835D01*
X323133Y1344127D01*
X322907Y1344353D01*
X321345Y1345000D01*
X319655D01*
X318093Y1344353D01*
X316897Y1343157D01*
X316250Y1341595D01*
Y1339905D01*
X316897Y1338343D01*
X318093Y1337147D01*
X319655Y1336500D01*
X321345D01*
X322907Y1337147D01*
X324103Y1338343D01*
X324308Y1338838D01*
X376608D01*
X382956Y1332491D01*
X382750Y1331995D01*
Y1330305D01*
X383397Y1328743D01*
X384593Y1327547D01*
X386155Y1326900D01*
X387846D01*
X389408Y1327547D01*
X390603Y1328743D01*
X391250Y1330305D01*
Y1331995D01*
X390603Y1333557D01*
X389408Y1334753D01*
X387846Y1335400D01*
X386155D01*
X385659Y1335195D01*
X378752Y1342102D01*
X378132Y1342516D01*
X377400Y1342662D01*
X331690D01*
X331172Y1343912D01*
X331603Y1344343D01*
X332250Y1345905D01*
Y1347595D01*
X331890Y1348463D01*
X332680Y1349713D01*
X345788D01*
X347678Y1347823D01*
X348298Y1347409D01*
X349030Y1347263D01*
X382770D01*
X383296Y1346013D01*
X382750Y1344695D01*
Y1343004D01*
X383397Y1341443D01*
X384593Y1340247D01*
X386155Y1339600D01*
X387846D01*
X389408Y1340247D01*
X390603Y1341443D01*
X390995Y1342388D01*
X429860D01*
X430397Y1341157D01*
X429750Y1339595D01*
Y1337905D01*
X430109Y1337037D01*
X429320Y1335787D01*
X427815D01*
X427345Y1336922D01*
X426149Y1338118D01*
X424587Y1338765D01*
X422897D01*
X421334Y1338118D01*
X420139Y1336922D01*
X419492Y1335360D01*
Y1333669D01*
X420139Y1332107D01*
X421334Y1330912D01*
X422897Y1330265D01*
X424587D01*
X426149Y1330912D01*
X427201Y1331963D01*
X454750D01*
Y1330305D01*
X454955Y1329809D01*
X447058Y1321912D01*
X393136D01*
X390371Y1324677D01*
X389751Y1325091D01*
X389020Y1325237D01*
X384981D01*
X384249Y1325091D01*
X383629Y1324677D01*
X381489Y1322537D01*
X327555D01*
X326912Y1323787D01*
X327375Y1324905D01*
Y1326595D01*
X326728Y1328158D01*
X325532Y1329353D01*
X323970Y1330000D01*
X322280D01*
X320718Y1329353D01*
X319522Y1328158D01*
X318875Y1326595D01*
Y1324905D01*
X319338Y1323787D01*
X318695Y1322537D01*
X312024D01*
X310875Y1323030D01*
Y1324720D01*
X310228Y1326282D01*
X309032Y1327478D01*
X307470Y1328125D01*
X305780D01*
X304218Y1327478D01*
X303022Y1326282D01*
X302375Y1324720D01*
Y1323030D01*
X303022Y1321468D01*
X304218Y1320272D01*
X304786Y1320037D01*
X304537Y1318787D01*
X298064D01*
X297333Y1318641D01*
X296713Y1318227D01*
X288523Y1310037D01*
X243930D01*
X243141Y1311287D01*
X243500Y1312155D01*
Y1313846D01*
X242853Y1315408D01*
X241657Y1316603D01*
X240095Y1317250D01*
X238405D01*
X236842Y1316603D01*
X235647Y1315408D01*
X235000Y1313846D01*
Y1312155D01*
X235359Y1311287D01*
X234570Y1310037D01*
X227417D01*
X226045Y1311409D01*
X226250Y1311905D01*
Y1313595D01*
X225603Y1315157D01*
X224407Y1316353D01*
X222845Y1317000D01*
X221155D01*
X219593Y1316353D01*
X218397Y1315157D01*
X217750Y1313595D01*
Y1311905D01*
X218397Y1310343D01*
X219593Y1309147D01*
X221155Y1308500D01*
X222845D01*
X223341Y1308705D01*
X225273Y1306773D01*
X225893Y1306359D01*
X226625Y1306213D01*
X289314D01*
X290046Y1306359D01*
X290666Y1306773D01*
X298856Y1314963D01*
X329007D01*
X329952Y1314138D01*
X330000Y1313755D01*
Y1312405D01*
X330359Y1311537D01*
X329570Y1310287D01*
X320961D01*
X320896Y1310352D01*
X320275Y1310766D01*
X319544Y1310912D01*
X306058D01*
X305853Y1311407D01*
X304657Y1312603D01*
X303095Y1313250D01*
X301405D01*
X299843Y1312603D01*
X298647Y1311407D01*
X298000Y1309845D01*
Y1308155D01*
X298647Y1306593D01*
X299843Y1305397D01*
X301405Y1304750D01*
X303095D01*
X304657Y1305397D01*
X305853Y1306593D01*
X306058Y1307088D01*
X318752D01*
X318817Y1307023D01*
X319437Y1306609D01*
X320169Y1306463D01*
X334477D01*
X350507Y1290433D01*
X349922Y1289250D01*
X348655D01*
X348159Y1289045D01*
X345727Y1291477D01*
X345107Y1291891D01*
X344375Y1292037D01*
X296143D01*
X295412Y1291891D01*
X294791Y1291477D01*
X291101Y1287787D01*
X268880D01*
X268402Y1288941D01*
X268403Y1288943D01*
X269050Y1290505D01*
Y1292196D01*
X268403Y1293758D01*
X267208Y1294953D01*
X265645Y1295600D01*
X263955D01*
X262393Y1294953D01*
X261197Y1293758D01*
X260550Y1292196D01*
Y1290505D01*
X261197Y1288943D01*
X261198Y1288941D01*
X260720Y1287787D01*
X233917D01*
X226295Y1295409D01*
X226500Y1295905D01*
Y1297595D01*
X225853Y1299157D01*
X224657Y1300353D01*
X223095Y1301000D01*
X221405D01*
X219843Y1300353D01*
X218647Y1299157D01*
X218000Y1297595D01*
Y1295905D01*
X218647Y1294343D01*
X219843Y1293147D01*
X221405Y1292500D01*
X223095D01*
X223591Y1292705D01*
X231773Y1284523D01*
X232393Y1284109D01*
X233125Y1283963D01*
X263325D01*
X263448Y1282713D01*
X261957Y1282417D01*
X260055Y1281146D01*
X258784Y1279244D01*
X258337Y1277000D01*
X258784Y1274757D01*
X260055Y1272855D01*
X261653Y1271787D01*
X261300Y1270537D01*
X245625D01*
X244894Y1270391D01*
X244273Y1269977D01*
X239091Y1264795D01*
X238596Y1265000D01*
X236905D01*
X235343Y1264353D01*
X234147Y1263158D01*
X233500Y1261596D01*
Y1259905D01*
X234147Y1258343D01*
X235343Y1257147D01*
X236905Y1256500D01*
X238596D01*
X240158Y1257147D01*
X241353Y1258343D01*
X242000Y1259905D01*
Y1261596D01*
X241795Y1262091D01*
X246417Y1266713D01*
X253066D01*
X253155Y1265500D01*
X251593Y1264853D01*
X250397Y1263658D01*
X249750Y1262095D01*
Y1260405D01*
X250397Y1258843D01*
X251593Y1257647D01*
X253155Y1257000D01*
X254846D01*
X256408Y1257647D01*
X257603Y1258843D01*
X257809Y1259338D01*
X263105D01*
X263837Y1259484D01*
X264457Y1259898D01*
X264595Y1260036D01*
X266037Y1259711D01*
X266397Y1258843D01*
X267592Y1257647D01*
X269154Y1257000D01*
X270845D01*
X271341Y1257205D01*
X277759Y1250787D01*
X277242Y1249537D01*
X235917D01*
X225545Y1259909D01*
X225751Y1260405D01*
Y1262095D01*
X225103Y1263658D01*
X223908Y1264853D01*
X222346Y1265500D01*
X220655D01*
X219093Y1264853D01*
X217897Y1263658D01*
X217250Y1262095D01*
Y1260405D01*
X217897Y1258843D01*
X219093Y1257647D01*
X220655Y1257000D01*
X222346D01*
X222841Y1257205D01*
X233774Y1246273D01*
X234139Y1245180D01*
X233978Y1244748D01*
X233500Y1243595D01*
Y1241905D01*
X234147Y1240343D01*
X235343Y1239147D01*
X236905Y1238500D01*
X238595D01*
X240157Y1239147D01*
X241353Y1240343D01*
X242000Y1241905D01*
Y1243595D01*
X241640Y1244463D01*
X242430Y1245713D01*
X250310D01*
X250828Y1244463D01*
X250397Y1244032D01*
X249750Y1242470D01*
Y1240780D01*
X250397Y1239218D01*
X251593Y1238022D01*
X253155Y1237375D01*
X254845D01*
X256407Y1238022D01*
X257603Y1239218D01*
X258250Y1240780D01*
Y1242470D01*
X257603Y1244032D01*
X257172Y1244463D01*
X257690Y1245713D01*
X265310D01*
X265828Y1244463D01*
X265397Y1244032D01*
X264750Y1242470D01*
Y1240780D01*
X265397Y1239218D01*
X266593Y1238022D01*
X268155Y1237375D01*
X269845D01*
X271407Y1238022D01*
X272603Y1239218D01*
X273250Y1240780D01*
Y1242470D01*
X272603Y1244032D01*
X272172Y1244463D01*
X272690Y1245713D01*
X282033D01*
X282551Y1244463D01*
X282134Y1244047D01*
X281487Y1242485D01*
Y1240794D01*
X282134Y1239232D01*
X281818Y1238116D01*
X279264Y1235563D01*
X264715D01*
X264509Y1236058D01*
X263314Y1237254D01*
X261752Y1237901D01*
X260061D01*
X258499Y1237254D01*
X257303Y1236058D01*
X256656Y1234496D01*
Y1232806D01*
X257303Y1231244D01*
X258499Y1230048D01*
X260061Y1229401D01*
X261752D01*
X263176Y1229991D01*
X263314Y1230048D01*
X263976Y1229072D01*
X263959Y1229055D01*
X259715Y1224812D01*
X259082Y1225074D01*
X257391D01*
X255829Y1224427D01*
X254633Y1223232D01*
X253986Y1221670D01*
Y1219979D01*
X254633Y1218417D01*
X255829Y1217221D01*
X257391Y1216574D01*
X259082D01*
X260644Y1217221D01*
X261839Y1218417D01*
X262486Y1219979D01*
Y1221670D01*
X262338Y1222027D01*
X266649Y1226338D01*
X320560D01*
X321078Y1225088D01*
X320897Y1224907D01*
X320250Y1223345D01*
Y1221655D01*
X320897Y1220092D01*
X322093Y1218897D01*
X323655Y1218250D01*
X325345D01*
X326907Y1218897D01*
X328103Y1220092D01*
X328750Y1221655D01*
Y1223345D01*
X328103Y1224907D01*
X327922Y1225088D01*
X328440Y1226338D01*
X485208D01*
X492705Y1218841D01*
X492500Y1218345D01*
Y1216654D01*
X492859Y1215787D01*
X492070Y1214537D01*
X441555D01*
X440985Y1215787D01*
X441500Y1217030D01*
Y1218720D01*
X440853Y1220282D01*
X439657Y1221478D01*
X438095Y1222125D01*
X436405D01*
X434843Y1221478D01*
X433647Y1220282D01*
X433000Y1218720D01*
Y1217030D01*
X433515Y1215787D01*
X432945Y1214537D01*
X412292D01*
X411102Y1215727D01*
X410481Y1216141D01*
X409750Y1216287D01*
X322481D01*
X321749Y1216141D01*
X321129Y1215727D01*
X319564Y1214162D01*
X296942D01*
X296674Y1215327D01*
X296672Y1215412D01*
X297853Y1216593D01*
X298500Y1218155D01*
Y1219845D01*
X297853Y1221407D01*
X296657Y1222603D01*
X295095Y1223250D01*
X293405D01*
X291843Y1222603D01*
X290647Y1221407D01*
X290000Y1219845D01*
Y1218155D01*
X290647Y1216593D01*
X291828Y1215412D01*
X291826Y1215327D01*
X291558Y1214162D01*
X287058D01*
X286853Y1214657D01*
X285657Y1215853D01*
X284095Y1216500D01*
X282405D01*
X280843Y1215853D01*
X279647Y1214657D01*
X279000Y1213095D01*
Y1211405D01*
X279647Y1209843D01*
X280843Y1208647D01*
X282099Y1208127D01*
X282497Y1207643D01*
X282728Y1206750D01*
X282250Y1205595D01*
Y1203905D01*
X282610Y1203037D01*
X281820Y1201787D01*
X250875D01*
X250143Y1201641D01*
X249523Y1201227D01*
X247841Y1199545D01*
X247345Y1199750D01*
X245655D01*
X244093Y1199103D01*
X242897Y1197907D01*
X242250Y1196345D01*
Y1194655D01*
X242897Y1193093D01*
X244093Y1191897D01*
X245655Y1191250D01*
X247345D01*
X248907Y1191897D01*
X250103Y1193093D01*
X250750Y1194655D01*
Y1196345D01*
X250545Y1196841D01*
X251667Y1197963D01*
X298070D01*
X298802Y1198109D01*
X298958Y1198213D01*
X333070D01*
X333859Y1196963D01*
X333500Y1196095D01*
Y1194405D01*
X334147Y1192843D01*
X335342Y1191647D01*
X336905Y1191000D01*
X338595D01*
X340157Y1191647D01*
X341353Y1192843D01*
X341558Y1193338D01*
X478351D01*
X483372Y1188317D01*
X482894Y1187162D01*
X452415D01*
X451683Y1187016D01*
X451063Y1186602D01*
X449123Y1184662D01*
X384481D01*
X384354Y1184637D01*
X342683D01*
X342478Y1185132D01*
X341282Y1186328D01*
X339720Y1186975D01*
X338030D01*
X336468Y1186328D01*
X335272Y1185132D01*
X334625Y1183570D01*
Y1181879D01*
X335272Y1180317D01*
X336362Y1179227D01*
X336333Y1179079D01*
X335137Y1177884D01*
X334490Y1176321D01*
Y1174631D01*
X335137Y1173069D01*
X335959Y1172247D01*
X335775Y1171499D01*
X335541Y1170951D01*
X334090Y1170350D01*
X332894Y1169154D01*
X332247Y1167592D01*
Y1165902D01*
X332894Y1164340D01*
X334090Y1163144D01*
X335652Y1162497D01*
X337342D01*
X338904Y1163144D01*
X340100Y1164340D01*
X340747Y1165902D01*
Y1167592D01*
X340100Y1169154D01*
X339278Y1169976D01*
X339462Y1170724D01*
X339686Y1171247D01*
X340855Y1171616D01*
X341427Y1171234D01*
X342158Y1171088D01*
X626810D01*
X627328Y1169838D01*
X626897Y1169407D01*
X626250Y1167845D01*
Y1166154D01*
X626897Y1164593D01*
X628092Y1163397D01*
X629655Y1162750D01*
X631345D01*
X632907Y1163397D01*
X634103Y1164593D01*
X634750Y1166154D01*
Y1167845D01*
X634103Y1169407D01*
X633672Y1169838D01*
X634190Y1171088D01*
X655000D01*
X655732Y1171234D01*
X656352Y1171648D01*
X669013Y1184309D01*
X669155Y1184250D01*
X670845D01*
X672407Y1184897D01*
X673603Y1186093D01*
X674250Y1187655D01*
Y1189345D01*
X673603Y1190907D01*
X672407Y1192103D01*
X670845Y1192750D01*
X669155D01*
X667593Y1192103D01*
X666397Y1190907D01*
X665750Y1189345D01*
Y1187655D01*
X666102Y1186805D01*
X654208Y1174912D01*
X644499D01*
X644020Y1176067D01*
X646159Y1178205D01*
X646655Y1178000D01*
X648345D01*
X649907Y1178647D01*
X651103Y1179843D01*
X651750Y1181405D01*
Y1183095D01*
X651103Y1184657D01*
X649907Y1185853D01*
X648345Y1186500D01*
X646655D01*
X645093Y1185853D01*
X643897Y1184657D01*
X643250Y1183095D01*
Y1181405D01*
X643455Y1180909D01*
X639958Y1177412D01*
X599088D01*
X598839Y1178662D01*
X599407Y1178897D01*
X600603Y1180093D01*
X601250Y1181655D01*
Y1183345D01*
X600603Y1184907D01*
X600172Y1185338D01*
X600690Y1186588D01*
X622088D01*
X622397Y1185843D01*
X623593Y1184647D01*
X625155Y1184000D01*
X626845D01*
X628407Y1184647D01*
X629603Y1185843D01*
X630250Y1187405D01*
Y1189095D01*
X629603Y1190657D01*
X628407Y1191853D01*
X626845Y1192500D01*
X625155D01*
X623593Y1191853D01*
X622397Y1190657D01*
X622295Y1190412D01*
X486684D01*
X480494Y1196602D01*
X479874Y1197016D01*
X479143Y1197162D01*
X468930D01*
X468140Y1198412D01*
X468500Y1199280D01*
Y1200970D01*
X467853Y1202533D01*
X466657Y1203728D01*
X465095Y1204375D01*
X463405D01*
X462909Y1204170D01*
X460727Y1206352D01*
X460107Y1206766D01*
X459375Y1206912D01*
X383082D01*
X382350Y1206766D01*
X381730Y1206352D01*
X376165Y1200787D01*
X352180D01*
X351390Y1202037D01*
X351750Y1202905D01*
Y1204595D01*
X351103Y1206157D01*
X350297Y1206963D01*
X350815Y1208213D01*
X508273D01*
X509004Y1208359D01*
X509624Y1208773D01*
X512815Y1211963D01*
X533070D01*
X533859Y1210713D01*
X533500Y1209845D01*
Y1208155D01*
X534147Y1206593D01*
X535343Y1205397D01*
X536905Y1204750D01*
X538595D01*
X540157Y1205397D01*
X541353Y1206593D01*
X541712Y1207460D01*
X542261Y1207717D01*
X543155Y1207865D01*
X543538Y1207609D01*
X544269Y1207463D01*
X556019D01*
X556751Y1207609D01*
X557371Y1208023D01*
X564230Y1214882D01*
X564408Y1214787D01*
X564633Y1213249D01*
X564087Y1212704D01*
X563441Y1211142D01*
Y1209451D01*
X564087Y1207889D01*
X565283Y1206693D01*
X566845Y1206046D01*
X568536D01*
X570098Y1206693D01*
X571293Y1207889D01*
X571499Y1208384D01*
X705546D01*
X706278Y1208530D01*
X706898Y1208944D01*
X713159Y1215205D01*
X713655Y1215000D01*
X715345D01*
X716907Y1215647D01*
X718103Y1216843D01*
X718750Y1218405D01*
Y1219186D01*
X720000Y1220021D01*
X720655Y1219750D01*
X722345D01*
X723907Y1220397D01*
X725103Y1221593D01*
X725750Y1223155D01*
Y1224845D01*
X725103Y1226407D01*
X723907Y1227603D01*
X722345Y1228250D01*
X720655D01*
X719093Y1227603D01*
X717897Y1226407D01*
X717692Y1225912D01*
X717148D01*
X716519Y1226037D01*
X647315D01*
X646797Y1227287D01*
X647603Y1228093D01*
X648250Y1229655D01*
Y1231345D01*
X648045Y1231841D01*
X649792Y1233588D01*
X656192D01*
X656397Y1233093D01*
X657593Y1231897D01*
X659155Y1231250D01*
X660845D01*
X662407Y1231897D01*
X663603Y1233093D01*
X664250Y1234655D01*
Y1235784D01*
X664276Y1235839D01*
X665262Y1236684D01*
X665405Y1236732D01*
X665500Y1236713D01*
X671875D01*
X672607Y1236859D01*
X673227Y1237273D01*
X675409Y1239455D01*
X675905Y1239250D01*
X677595D01*
X679157Y1239897D01*
X680353Y1241093D01*
X680713Y1241961D01*
X682155Y1242286D01*
X683292Y1241148D01*
X683913Y1240734D01*
X684644Y1240588D01*
X687942D01*
X688147Y1240093D01*
X689343Y1238897D01*
X690905Y1238250D01*
X692595D01*
X694157Y1238897D01*
X695353Y1240093D01*
X696000Y1241655D01*
Y1243345D01*
X695353Y1244907D01*
X694157Y1246103D01*
X692595Y1246750D01*
X690905D01*
X689343Y1246103D01*
X688147Y1244907D01*
X687942Y1244412D01*
X685436D01*
X680121Y1249727D01*
X679501Y1250141D01*
X678769Y1250287D01*
X655625D01*
X654893Y1250141D01*
X654273Y1249727D01*
X652091Y1247545D01*
X651595Y1247750D01*
X649905D01*
X648343Y1247103D01*
X647147Y1245907D01*
X646942Y1245412D01*
X639385D01*
X638653Y1245266D01*
X638033Y1244852D01*
X635717Y1242536D01*
X635629Y1242477D01*
X635064Y1241912D01*
X628056D01*
X627266Y1243162D01*
X627625Y1244030D01*
Y1245720D01*
X626978Y1247282D01*
X625783Y1248478D01*
X624221Y1249125D01*
X622530D01*
X621125Y1248543D01*
X620692Y1248977D01*
X620071Y1249391D01*
X619340Y1249537D01*
X614018D01*
X613539Y1250692D01*
X616936Y1254088D01*
X629317D01*
X629522Y1253592D01*
X630718Y1252397D01*
X632280Y1251750D01*
X633971D01*
X635533Y1252397D01*
X636728Y1253592D01*
X637375Y1255154D01*
Y1256845D01*
X637016Y1257713D01*
X637806Y1258963D01*
X647096D01*
X649411Y1256648D01*
X650031Y1256234D01*
X650762Y1256088D01*
X668941D01*
X669147Y1255593D01*
X670342Y1254397D01*
X671904Y1253750D01*
X673595D01*
X675157Y1254397D01*
X676353Y1255593D01*
X677000Y1257155D01*
Y1258846D01*
X676353Y1260408D01*
X675157Y1261603D01*
X673595Y1262250D01*
X671904D01*
X670342Y1261603D01*
X669147Y1260408D01*
X668941Y1259912D01*
X651554D01*
X649240Y1262227D01*
X648620Y1262641D01*
X647888Y1262786D01*
X626940D01*
X626422Y1264036D01*
X626978Y1264593D01*
X627625Y1266155D01*
Y1267845D01*
X626978Y1269407D01*
X625783Y1270603D01*
X624221Y1271250D01*
X622530D01*
X620968Y1270603D01*
X619772Y1269407D01*
X619125Y1267845D01*
Y1266155D01*
X619772Y1264593D01*
X620328Y1264036D01*
X619810Y1262786D01*
X614125D01*
X613393Y1262641D01*
X612773Y1262227D01*
X609591Y1259045D01*
X609095Y1259250D01*
X607405D01*
X605843Y1258603D01*
X604647Y1257407D01*
X604000Y1255845D01*
Y1254303D01*
X603981Y1254287D01*
X597180D01*
X596390Y1255537D01*
X596750Y1256405D01*
Y1258095D01*
X596103Y1259658D01*
X594907Y1260853D01*
X593345Y1261500D01*
X591655D01*
X590093Y1260853D01*
X589546Y1260306D01*
X589232Y1260516D01*
X588500Y1260662D01*
X551433D01*
X551228Y1261157D01*
X550033Y1262353D01*
X548470Y1263000D01*
X546780D01*
X545218Y1262353D01*
X544022Y1261157D01*
X543375Y1259595D01*
Y1257905D01*
X544022Y1256343D01*
X544828Y1255537D01*
X544310Y1254287D01*
X541067D01*
X540603Y1255407D01*
X539407Y1256603D01*
X537845Y1257250D01*
X536155D01*
X534593Y1256603D01*
X533397Y1255407D01*
X532750Y1253845D01*
Y1252155D01*
X533110Y1251287D01*
X532320Y1250037D01*
X506667D01*
X502852Y1253852D01*
X502232Y1254266D01*
X501500Y1254412D01*
X500940D01*
X500422Y1255662D01*
X500603Y1255843D01*
X501250Y1257405D01*
Y1259095D01*
X500603Y1260657D01*
X499407Y1261853D01*
X497845Y1262500D01*
X496155D01*
X494593Y1261853D01*
X493397Y1260657D01*
X492750Y1259095D01*
Y1257405D01*
X493397Y1255843D01*
X493578Y1255662D01*
X493060Y1254412D01*
X448160D01*
X447882Y1254732D01*
X447464Y1255662D01*
X447985Y1256920D01*
Y1258610D01*
X447338Y1260172D01*
X446143Y1261368D01*
X444580Y1262015D01*
X442890D01*
X441328Y1261368D01*
X440132Y1260172D01*
X439485Y1258610D01*
Y1256920D01*
X440132Y1255358D01*
X441078Y1254412D01*
X440749Y1253247D01*
X440695Y1253162D01*
X426058D01*
X425853Y1253657D01*
X424657Y1254853D01*
X423095Y1255500D01*
X421405D01*
X419843Y1254853D01*
X418647Y1253657D01*
X418000Y1252095D01*
Y1250405D01*
X418647Y1248843D01*
X419843Y1247647D01*
X421405Y1247000D01*
X423095D01*
X424657Y1247647D01*
X425853Y1248843D01*
X426058Y1249338D01*
X445644D01*
X446376Y1249484D01*
X446996Y1249898D01*
X447686Y1250588D01*
X460070D01*
X460859Y1249338D01*
X460500Y1248470D01*
Y1246780D01*
X461147Y1245218D01*
X462343Y1244022D01*
X463905Y1243375D01*
X465595D01*
X467157Y1244022D01*
X468353Y1245218D01*
X469000Y1246780D01*
Y1248470D01*
X468641Y1249338D01*
X469430Y1250588D01*
X500708D01*
X504523Y1246773D01*
X505143Y1246359D01*
X505875Y1246213D01*
X553535D01*
X554267Y1246359D01*
X554887Y1246773D01*
X556077Y1247963D01*
X559435D01*
X559953Y1246713D01*
X559897Y1246657D01*
X559250Y1245095D01*
Y1243405D01*
X559897Y1241843D01*
X561093Y1240647D01*
X562655Y1240000D01*
X564345D01*
X565907Y1240647D01*
X567103Y1241843D01*
X567308Y1242338D01*
X579215D01*
X579946Y1242484D01*
X580567Y1242898D01*
X583132Y1245463D01*
X590570D01*
X591067Y1244213D01*
X590500Y1242845D01*
Y1241155D01*
X591147Y1239593D01*
X592343Y1238397D01*
X592843Y1238190D01*
X592594Y1236940D01*
X560113D01*
X559325Y1237728D01*
X558705Y1238142D01*
X557973Y1238288D01*
X520108D01*
X519377Y1238142D01*
X518756Y1237728D01*
X514750Y1233721D01*
X513500Y1234239D01*
Y1235095D01*
X512853Y1236657D01*
X511657Y1237853D01*
X510095Y1238500D01*
X508405D01*
X506843Y1237853D01*
X505647Y1236657D01*
X505344Y1235927D01*
X487919Y1234861D01*
X487175Y1236068D01*
X487750Y1237456D01*
Y1239544D01*
X486951Y1241474D01*
X485474Y1242951D01*
X483544Y1243750D01*
X481456D01*
X479526Y1242951D01*
X478049Y1241474D01*
X477250Y1239544D01*
Y1237456D01*
X477860Y1235984D01*
X477180Y1234762D01*
X404055Y1237910D01*
X404014Y1237904D01*
X403973Y1237912D01*
X402938D01*
X402206Y1237766D01*
X401973Y1237610D01*
X401586Y1237352D01*
X401271Y1237037D01*
X390315D01*
X389797Y1238287D01*
X389853Y1238343D01*
X390500Y1239905D01*
Y1241595D01*
X389853Y1243157D01*
X389213Y1243797D01*
X389191Y1243827D01*
X389119Y1245352D01*
X389174Y1245470D01*
X392883Y1249179D01*
X393685D01*
X394468Y1248397D01*
X396030Y1247750D01*
X397720D01*
X399282Y1248397D01*
X400478Y1249593D01*
X401125Y1251155D01*
Y1252845D01*
X400478Y1254407D01*
X399282Y1255603D01*
X397720Y1256250D01*
X396030D01*
X394468Y1255603D01*
X393272Y1254407D01*
X392690Y1253003D01*
X392091D01*
X391360Y1252857D01*
X390739Y1252443D01*
X390030Y1251733D01*
X388728Y1252200D01*
X388228Y1253407D01*
X387033Y1254603D01*
X385470Y1255250D01*
X383780D01*
X383056Y1256271D01*
Y1256500D01*
X382910Y1257232D01*
X382496Y1257852D01*
X380787Y1259561D01*
Y1261555D01*
X380641Y1262286D01*
X380227Y1262907D01*
X373157Y1269977D01*
X372536Y1270391D01*
X371805Y1270537D01*
X336917D01*
X336871Y1270583D01*
X336251Y1270997D01*
X335519Y1271142D01*
X331481D01*
X330749Y1270997D01*
X330129Y1270583D01*
X330083Y1270537D01*
X327390D01*
X327142Y1271787D01*
X327407Y1271897D01*
X328603Y1273093D01*
X329250Y1274655D01*
Y1276345D01*
X328890Y1277213D01*
X329680Y1278463D01*
X346593D01*
X346749Y1278359D01*
X347481Y1278213D01*
X454072D01*
X454590Y1276963D01*
X450539Y1272912D01*
X434308D01*
X434103Y1273407D01*
X432907Y1274603D01*
X431345Y1275250D01*
X429655D01*
X428093Y1274603D01*
X426897Y1273407D01*
X426250Y1271845D01*
Y1270155D01*
X426897Y1268593D01*
X428093Y1267397D01*
X429655Y1266750D01*
X431345D01*
X432845Y1267371D01*
X433226Y1267239D01*
X434000Y1266722D01*
Y1265280D01*
X434647Y1263717D01*
X435843Y1262522D01*
X437405Y1261875D01*
X439095D01*
X440657Y1262522D01*
X441853Y1263717D01*
X442379Y1264988D01*
X510400D01*
X511132Y1265134D01*
X511752Y1265548D01*
X514042Y1267838D01*
X530362D01*
X531152Y1266588D01*
X530792Y1265720D01*
Y1264030D01*
X531439Y1262467D01*
X532635Y1261272D01*
X534197Y1260625D01*
X535888D01*
X537450Y1261272D01*
X538645Y1262467D01*
X539292Y1264030D01*
Y1265720D01*
X538933Y1266588D01*
X539723Y1267838D01*
X545901D01*
X546842Y1266897D01*
X548405Y1266250D01*
X550095D01*
X551657Y1266897D01*
X552853Y1268093D01*
X553500Y1269655D01*
Y1271345D01*
X553057Y1272415D01*
X554040Y1273110D01*
X554110Y1273140D01*
X555655Y1272500D01*
X557345D01*
X558907Y1273147D01*
X560103Y1274343D01*
X560750Y1275905D01*
Y1277595D01*
X560103Y1279157D01*
X559758Y1279503D01*
X560001Y1280729D01*
X560407Y1280897D01*
X561603Y1282093D01*
X562250Y1283655D01*
Y1285345D01*
X561603Y1286907D01*
X560407Y1288103D01*
X558845Y1288750D01*
X557155D01*
X555593Y1288103D01*
X554397Y1286907D01*
X553750Y1285345D01*
Y1283655D01*
X553824Y1283476D01*
X553812Y1283448D01*
X552881Y1282486D01*
X552625Y1282537D01*
X486613D01*
X485984Y1282412D01*
X472680D01*
X471890Y1283662D01*
X472250Y1284530D01*
Y1286220D01*
X471603Y1287782D01*
X470407Y1288978D01*
X468845Y1289625D01*
X467155D01*
X465593Y1288978D01*
X464397Y1287782D01*
X464192Y1287287D01*
X460695D01*
X459964Y1287141D01*
X459343Y1286727D01*
X454653Y1282037D01*
X448180D01*
X447537Y1283287D01*
X448000Y1284405D01*
Y1286095D01*
X447353Y1287657D01*
X446157Y1288853D01*
X444595Y1289500D01*
X442905D01*
X442409Y1289295D01*
X439327Y1292376D01*
X438707Y1292791D01*
X437975Y1292936D01*
X353411D01*
X336679Y1309668D01*
X337853Y1310843D01*
X338500Y1312405D01*
Y1314095D01*
X338140Y1314963D01*
X338930Y1316213D01*
X350083D01*
X351705Y1314591D01*
X351500Y1314095D01*
Y1312405D01*
X352147Y1310843D01*
X353343Y1309647D01*
X354905Y1309000D01*
X356595D01*
X358157Y1309647D01*
X359353Y1310843D01*
X360000Y1312405D01*
Y1314095D01*
X359353Y1315657D01*
X358157Y1316853D01*
X356595Y1317500D01*
X356684Y1318713D01*
X382281D01*
X383013Y1318859D01*
X383633Y1319273D01*
X385773Y1321413D01*
X388228D01*
X390993Y1318648D01*
X391613Y1318234D01*
X392345Y1318088D01*
X447850D01*
X448582Y1318234D01*
X449202Y1318648D01*
X457659Y1327105D01*
X458155Y1326900D01*
X459846D01*
X461408Y1327547D01*
X462603Y1328743D01*
X463250Y1330305D01*
Y1331995D01*
X462849Y1332963D01*
X463581Y1334213D01*
X493445D01*
X494235Y1332963D01*
X493875Y1332095D01*
Y1330404D01*
X494522Y1328842D01*
X495718Y1327647D01*
X497280Y1327000D01*
X498970D01*
X500532Y1327647D01*
X501728Y1328842D01*
X502375Y1330404D01*
Y1332095D01*
X502015Y1332963D01*
X502805Y1334213D01*
X522758D01*
X524209Y1332762D01*
X524829Y1332348D01*
X525561Y1332202D01*
X572756D01*
X572962Y1331706D01*
X574157Y1330511D01*
X575719Y1329864D01*
X577410D01*
X578972Y1330511D01*
X580168Y1331706D01*
X580815Y1333268D01*
Y1334959D01*
X580168Y1336521D01*
X578972Y1337717D01*
X577410Y1338364D01*
X575719D01*
X574157Y1337717D01*
X572962Y1336521D01*
X572756Y1336026D01*
X526353D01*
X524902Y1337477D01*
X524282Y1337891D01*
X523550Y1338036D01*
X498693D01*
X498215Y1339191D01*
X504987Y1345963D01*
X506403D01*
X507593Y1344773D01*
X508214Y1344359D01*
X508945Y1344213D01*
X515055D01*
X515786Y1344359D01*
X516407Y1344773D01*
X517597Y1345963D01*
X572692D01*
X572897Y1345468D01*
X574093Y1344272D01*
X575655Y1343625D01*
X577345D01*
X578907Y1344272D01*
X580103Y1345468D01*
X580750Y1347030D01*
Y1348721D01*
X580103Y1350282D01*
X578907Y1351478D01*
X577345Y1352125D01*
X575655D01*
X574093Y1351478D01*
X572897Y1350282D01*
X572692Y1349787D01*
X519518D01*
X519040Y1350942D01*
X526936Y1358838D01*
X604609D01*
X605049Y1357776D01*
X606526Y1356299D01*
X608456Y1355500D01*
X610544D01*
X612474Y1356299D01*
X613951Y1357776D01*
X614750Y1359706D01*
Y1361794D01*
X613951Y1363724D01*
X612474Y1365201D01*
X610544Y1366000D01*
X608456D01*
X606526Y1365201D01*
X605049Y1363724D01*
X604609Y1362662D01*
X526144D01*
X525413Y1362516D01*
X524793Y1362102D01*
X517405Y1354714D01*
X515962Y1355040D01*
X515603Y1355907D01*
X514407Y1357103D01*
X512845Y1357750D01*
X511356D01*
X503829Y1365277D01*
X503209Y1365691D01*
X502477Y1365837D01*
X436230D01*
X436040Y1366190D01*
X435847Y1367087D01*
X436853Y1368093D01*
X437500Y1369655D01*
Y1371345D01*
X436853Y1372907D01*
X435657Y1374103D01*
X434095Y1374750D01*
X432405D01*
X430843Y1374103D01*
X429647Y1372907D01*
X429000Y1371345D01*
Y1369655D01*
X429647Y1368093D01*
X430653Y1367087D01*
X430460Y1366190D01*
X430270Y1365837D01*
X355346D01*
X354947Y1366396D01*
X355400Y1367809D01*
X356234Y1368154D01*
X357429Y1369350D01*
X358076Y1370912D01*
Y1372603D01*
X357429Y1374165D01*
X356234Y1375360D01*
X354672Y1376007D01*
D02*
G37*
G36*
X630595Y1373500D02*
X628905D01*
X627343Y1372853D01*
X626147Y1371657D01*
X625500Y1370095D01*
Y1368405D01*
X626147Y1366843D01*
X627343Y1365647D01*
X628905Y1365000D01*
X630595D01*
X632157Y1365647D01*
X633353Y1366843D01*
X634000Y1368405D01*
Y1370095D01*
X633353Y1371657D01*
X632157Y1372853D01*
X630595Y1373500D01*
D02*
G37*
G36*
X275200Y1369362D02*
X264200D01*
X261957Y1368916D01*
X260055Y1367645D01*
X258784Y1365743D01*
X258337Y1363500D01*
X258784Y1361256D01*
X260055Y1359354D01*
X261957Y1358083D01*
X264200Y1357637D01*
X275200D01*
X277444Y1358083D01*
X279346Y1359354D01*
X280617Y1361256D01*
X281063Y1363500D01*
X280617Y1365743D01*
X279346Y1367645D01*
X277444Y1368916D01*
X275200Y1369362D01*
D02*
G37*
G36*
X232000D02*
X224000D01*
X221756Y1368916D01*
X219855Y1367645D01*
X218584Y1365743D01*
X218137Y1363500D01*
X218584Y1361256D01*
X219855Y1359354D01*
X221756Y1358083D01*
X224000Y1357637D01*
X232000D01*
X234244Y1358083D01*
X236145Y1359354D01*
X237416Y1361256D01*
X237863Y1363500D01*
X237416Y1365743D01*
X236145Y1367645D01*
X234244Y1368916D01*
X232000Y1369362D01*
D02*
G37*
G36*
X296095Y1366000D02*
X294405D01*
X292843Y1365353D01*
X291647Y1364157D01*
X291000Y1362595D01*
Y1360905D01*
X291647Y1359343D01*
X292843Y1358147D01*
X294405Y1357500D01*
X296095D01*
X297657Y1358147D01*
X298853Y1359343D01*
X299500Y1360905D01*
Y1362595D01*
X298853Y1364157D01*
X297657Y1365353D01*
X296095Y1366000D01*
D02*
G37*
G36*
X619095Y1356250D02*
X617405D01*
X615843Y1355603D01*
X614647Y1354407D01*
X614000Y1352845D01*
Y1351155D01*
X614647Y1349593D01*
X615843Y1348397D01*
X617405Y1347750D01*
X619095D01*
X620657Y1348397D01*
X621853Y1349593D01*
X622500Y1351155D01*
Y1352845D01*
X621853Y1354407D01*
X620657Y1355603D01*
X619095Y1356250D01*
D02*
G37*
G36*
X265645Y1353400D02*
X263955D01*
X262393Y1352753D01*
X261197Y1351557D01*
X260550Y1349995D01*
Y1348304D01*
X261197Y1346743D01*
X262393Y1345547D01*
X263955Y1344900D01*
X265645D01*
X267208Y1345547D01*
X268403Y1346743D01*
X269050Y1348304D01*
Y1349995D01*
X268403Y1351557D01*
X267208Y1352753D01*
X265645Y1353400D01*
D02*
G37*
G36*
X636095Y1362500D02*
X634405D01*
X632843Y1361853D01*
X631647Y1360657D01*
X631000Y1359095D01*
Y1357405D01*
X631647Y1355843D01*
X632843Y1354647D01*
X634405Y1354000D01*
X636095D01*
X637657Y1354647D01*
X638853Y1355843D01*
X639058Y1356338D01*
X668708D01*
X674955Y1350091D01*
X674750Y1349595D01*
Y1347905D01*
X675397Y1346343D01*
X676593Y1345147D01*
X678155Y1344500D01*
X679845D01*
X681407Y1345147D01*
X682599Y1346338D01*
X691942D01*
X692147Y1345843D01*
X693343Y1344647D01*
X694905Y1344000D01*
X696595D01*
X698157Y1344647D01*
X699353Y1345843D01*
X700000Y1347405D01*
Y1349095D01*
X699353Y1350657D01*
X698157Y1351853D01*
X696595Y1352500D01*
X694905D01*
X693343Y1351853D01*
X692147Y1350657D01*
X691942Y1350162D01*
X683015D01*
X682603Y1351157D01*
X681407Y1352353D01*
X679845Y1353000D01*
X678155D01*
X677659Y1352795D01*
X670852Y1359602D01*
X670232Y1360016D01*
X669500Y1360162D01*
X639058D01*
X638853Y1360657D01*
X637657Y1361853D01*
X636095Y1362500D01*
D02*
G37*
G36*
X222595Y1349750D02*
X220905D01*
X219343Y1349103D01*
X218147Y1347907D01*
X217500Y1346345D01*
Y1344655D01*
X218147Y1343093D01*
X219343Y1341897D01*
X220905Y1341250D01*
X222595D01*
X224157Y1341897D01*
X225353Y1343093D01*
X226000Y1344655D01*
Y1346345D01*
X225353Y1347907D01*
X224157Y1349103D01*
X222595Y1349750D01*
D02*
G37*
G36*
X239845Y1349750D02*
X238155D01*
X236593Y1349103D01*
X235397Y1347907D01*
X234750Y1346345D01*
Y1344655D01*
X235397Y1343092D01*
X236593Y1341897D01*
X238155Y1341250D01*
X239845D01*
X241408Y1341897D01*
X242603Y1343092D01*
X243250Y1344655D01*
Y1346345D01*
X242603Y1347907D01*
X241408Y1349103D01*
X239845Y1349750D01*
D02*
G37*
G36*
X603345Y1346250D02*
X601655D01*
X600093Y1345603D01*
X598897Y1344407D01*
X598250Y1342845D01*
Y1341155D01*
X598897Y1339593D01*
X600093Y1338397D01*
X601655Y1337750D01*
X603345D01*
X604907Y1338397D01*
X606103Y1339593D01*
X606750Y1341155D01*
Y1342845D01*
X606103Y1344407D01*
X604907Y1345603D01*
X603345Y1346250D01*
D02*
G37*
G36*
X223095Y1333500D02*
X221405D01*
X219843Y1332853D01*
X218647Y1331657D01*
X218000Y1330095D01*
Y1328405D01*
X218647Y1326843D01*
X219843Y1325647D01*
X221405Y1325000D01*
X223095D01*
X224657Y1325647D01*
X225853Y1326843D01*
X226500Y1328405D01*
Y1330095D01*
X225853Y1331657D01*
X224657Y1332853D01*
X223095Y1333500D01*
D02*
G37*
G36*
X240095Y1333500D02*
X238405D01*
X236842Y1332853D01*
X235647Y1331657D01*
X235000Y1330095D01*
Y1328405D01*
X235647Y1326842D01*
X236842Y1325647D01*
X238405Y1325000D01*
X240095D01*
X241657Y1325647D01*
X242853Y1326842D01*
X243500Y1328405D01*
Y1330095D01*
X242853Y1331657D01*
X241657Y1332853D01*
X240095Y1333500D01*
D02*
G37*
G36*
X415095Y1332250D02*
X413405D01*
X411843Y1331603D01*
X410647Y1330407D01*
X410000Y1328845D01*
Y1327155D01*
X410647Y1325593D01*
X411843Y1324397D01*
X413405Y1323750D01*
X415095D01*
X416657Y1324397D01*
X417853Y1325593D01*
X418500Y1327155D01*
Y1328845D01*
X417853Y1330407D01*
X416657Y1331603D01*
X415095Y1332250D01*
D02*
G37*
G36*
X459595Y1323000D02*
X457905D01*
X456343Y1322353D01*
X455147Y1321157D01*
X454500Y1319595D01*
Y1317905D01*
X455147Y1316343D01*
X456343Y1315147D01*
X457905Y1314500D01*
X459595D01*
X461157Y1315147D01*
X462353Y1316343D01*
X463000Y1317905D01*
Y1319595D01*
X462353Y1321157D01*
X461157Y1322353D01*
X459595Y1323000D01*
D02*
G37*
G36*
X671845Y1311750D02*
X670155D01*
X668593Y1311103D01*
X667397Y1309907D01*
X666750Y1308345D01*
Y1306655D01*
X667397Y1305093D01*
X668593Y1303897D01*
X670155Y1303250D01*
X671845D01*
X673407Y1303897D01*
X674603Y1305093D01*
X675250Y1306655D01*
Y1308345D01*
X674603Y1309907D01*
X673407Y1311103D01*
X671845Y1311750D01*
D02*
G37*
G36*
X594345Y1310250D02*
X592655D01*
X591093Y1309603D01*
X589897Y1308407D01*
X589250Y1306845D01*
Y1305155D01*
X589897Y1303593D01*
X591093Y1302397D01*
X592655Y1301750D01*
X594345D01*
X595907Y1302397D01*
X597103Y1303593D01*
X597750Y1305155D01*
Y1306845D01*
X597103Y1308407D01*
X595907Y1309603D01*
X594345Y1310250D01*
D02*
G37*
G36*
X629345Y1307500D02*
X627655D01*
X626093Y1306853D01*
X624897Y1305657D01*
X624250Y1304095D01*
Y1302405D01*
X624897Y1300843D01*
X626093Y1299647D01*
X627655Y1299000D01*
X629345D01*
X630907Y1299647D01*
X632103Y1300843D01*
X632750Y1302405D01*
Y1304095D01*
X632103Y1305657D01*
X630907Y1306853D01*
X629345Y1307500D01*
D02*
G37*
G36*
X240095Y1301250D02*
X238405D01*
X236842Y1300603D01*
X235647Y1299408D01*
X235000Y1297845D01*
Y1296155D01*
X235647Y1294593D01*
X236842Y1293397D01*
X238405Y1292750D01*
X240095D01*
X241657Y1293397D01*
X242853Y1294593D01*
X243500Y1296155D01*
Y1297845D01*
X242853Y1299408D01*
X241657Y1300603D01*
X240095Y1301250D01*
D02*
G37*
G36*
X566470Y1296250D02*
X564780D01*
X563218Y1295603D01*
X562022Y1294407D01*
X561375Y1292845D01*
Y1291155D01*
X562022Y1289593D01*
X563218Y1288397D01*
X564780Y1287750D01*
X566470D01*
X568032Y1288397D01*
X569228Y1289593D01*
X569875Y1291155D01*
Y1292845D01*
X569228Y1294407D01*
X568032Y1295603D01*
X566470Y1296250D01*
D02*
G37*
G36*
X548470Y1292875D02*
X546780D01*
X545218Y1292228D01*
X544022Y1291033D01*
X543375Y1289470D01*
Y1287780D01*
X544022Y1286218D01*
X545218Y1285022D01*
X546780Y1284375D01*
X548470D01*
X550033Y1285022D01*
X551228Y1286218D01*
X551875Y1287780D01*
Y1289470D01*
X551228Y1291033D01*
X550033Y1292228D01*
X548470Y1292875D01*
D02*
G37*
G36*
X624221Y1282000D02*
X622530D01*
X620968Y1281353D01*
X619772Y1280157D01*
X619125Y1278595D01*
Y1276905D01*
X619772Y1275343D01*
X620968Y1274147D01*
X622530Y1273500D01*
X624221D01*
X625783Y1274147D01*
X626978Y1275343D01*
X627625Y1276905D01*
Y1278595D01*
X626978Y1280157D01*
X625783Y1281353D01*
X624221Y1282000D01*
D02*
G37*
G36*
X649596Y1282000D02*
X647905D01*
X646343Y1281353D01*
X645147Y1280157D01*
X644500Y1278595D01*
Y1276904D01*
X645147Y1275342D01*
X646343Y1274147D01*
X647905Y1273500D01*
X649596D01*
X651158Y1274147D01*
X652353Y1275342D01*
X653000Y1276904D01*
Y1278595D01*
X652353Y1280157D01*
X651158Y1281353D01*
X649596Y1282000D01*
D02*
G37*
G36*
X232000Y1282863D02*
X224000D01*
X221756Y1282417D01*
X219855Y1281146D01*
X218584Y1279244D01*
X218137Y1277000D01*
X218584Y1274757D01*
X219855Y1272855D01*
X221756Y1271584D01*
X224000Y1271137D01*
X232000D01*
X234244Y1271584D01*
X236145Y1272855D01*
X237416Y1274757D01*
X237863Y1277000D01*
X237416Y1279244D01*
X236145Y1281146D01*
X234244Y1282417D01*
X232000Y1282863D01*
D02*
G37*
G36*
X690096Y1262250D02*
X688405D01*
X686843Y1261603D01*
X685647Y1260408D01*
X685000Y1258846D01*
Y1257155D01*
X685647Y1255593D01*
X686843Y1254397D01*
X688405Y1253750D01*
X690096D01*
X691658Y1254397D01*
X692853Y1255593D01*
X693500Y1257155D01*
Y1258846D01*
X692853Y1260408D01*
X691658Y1261603D01*
X690096Y1262250D01*
D02*
G37*
G36*
X718845Y1259250D02*
X717154D01*
X715592Y1258603D01*
X714397Y1257408D01*
X713750Y1255846D01*
Y1254155D01*
X714397Y1252593D01*
X715592Y1251397D01*
X717154Y1250750D01*
X718845D01*
X720407Y1251397D01*
X721603Y1252593D01*
X722250Y1254155D01*
Y1255846D01*
X721603Y1257408D01*
X720407Y1258603D01*
X718845Y1259250D01*
D02*
G37*
G36*
X222845Y1248500D02*
X221155D01*
X219593Y1247853D01*
X218397Y1246657D01*
X217750Y1245095D01*
Y1243405D01*
X218397Y1241843D01*
X219593Y1240647D01*
X221155Y1240000D01*
X222845D01*
X224407Y1240647D01*
X225603Y1241843D01*
X226250Y1243405D01*
Y1245095D01*
X225603Y1246657D01*
X224407Y1247853D01*
X222845Y1248500D01*
D02*
G37*
G36*
X498345Y1246500D02*
X496655D01*
X495093Y1245853D01*
X493897Y1244657D01*
X493250Y1243095D01*
Y1241405D01*
X493897Y1239843D01*
X495093Y1238647D01*
X496655Y1238000D01*
X498345D01*
X499907Y1238647D01*
X501103Y1239843D01*
X501750Y1241405D01*
Y1243095D01*
X501103Y1244657D01*
X499907Y1245853D01*
X498345Y1246500D01*
D02*
G37*
G36*
X591095Y1200250D02*
X589405D01*
X587843Y1199603D01*
X586647Y1198407D01*
X586000Y1196845D01*
Y1195155D01*
X586647Y1193593D01*
X587843Y1192397D01*
X589405Y1191750D01*
X591095D01*
X592657Y1192397D01*
X593853Y1193593D01*
X594500Y1195155D01*
Y1196845D01*
X593853Y1198407D01*
X592657Y1199603D01*
X591095Y1200250D01*
D02*
G37*
G36*
X645095Y1198250D02*
X643405D01*
X641843Y1197603D01*
X640647Y1196407D01*
X640000Y1194845D01*
Y1193155D01*
X640647Y1191593D01*
X641843Y1190397D01*
X643405Y1189750D01*
X645095D01*
X646657Y1190397D01*
X647853Y1191593D01*
X648500Y1193155D01*
Y1194845D01*
X647853Y1196407D01*
X646657Y1197603D01*
X645095Y1198250D01*
D02*
G37*
G36*
X661595Y1197250D02*
X659905D01*
X658343Y1196603D01*
X657147Y1195407D01*
X656500Y1193845D01*
Y1192155D01*
X657147Y1190593D01*
X658343Y1189397D01*
X659905Y1188750D01*
X661595D01*
X663157Y1189397D01*
X664353Y1190593D01*
X665000Y1192155D01*
Y1193845D01*
X664353Y1195407D01*
X663157Y1196603D01*
X661595Y1197250D01*
D02*
G37*
G36*
X720345Y1188750D02*
X718655D01*
X717093Y1188103D01*
X715897Y1186907D01*
X715250Y1185345D01*
Y1183655D01*
X715897Y1182093D01*
X717093Y1180897D01*
X718655Y1180250D01*
X720345D01*
X721907Y1180897D01*
X723103Y1182093D01*
X723750Y1183655D01*
Y1185345D01*
X723103Y1186907D01*
X721907Y1188103D01*
X720345Y1188750D01*
D02*
G37*
G36*
X246345Y1179000D02*
X244655D01*
X243093Y1178353D01*
X241897Y1177157D01*
X241250Y1175595D01*
Y1173905D01*
X241897Y1172343D01*
X243093Y1171147D01*
X244655Y1170500D01*
X246345D01*
X247907Y1171147D01*
X249103Y1172343D01*
X249308Y1172838D01*
X259673D01*
X264988Y1167523D01*
X265608Y1167109D01*
X266340Y1166963D01*
X280019D01*
X280751Y1167109D01*
X281371Y1167523D01*
X282686Y1168838D01*
X288692D01*
X288897Y1168343D01*
X290093Y1167147D01*
X291655Y1166500D01*
X293345D01*
X294907Y1167147D01*
X296103Y1168343D01*
X296750Y1169905D01*
Y1171595D01*
X296103Y1173157D01*
X294907Y1174353D01*
X293345Y1175000D01*
X291655D01*
X290093Y1174353D01*
X288897Y1173157D01*
X288692Y1172662D01*
X281894D01*
X281163Y1172516D01*
X280543Y1172102D01*
X279228Y1170787D01*
X267132D01*
X261817Y1176102D01*
X261196Y1176516D01*
X260465Y1176662D01*
X249308D01*
X249103Y1177157D01*
X247907Y1178353D01*
X246345Y1179000D01*
D02*
G37*
G36*
X620845Y1169750D02*
X619155D01*
X617593Y1169103D01*
X616397Y1167907D01*
X615750Y1166345D01*
Y1164655D01*
X615955Y1164159D01*
X612583Y1160787D01*
X548667D01*
X547545Y1161909D01*
X547750Y1162405D01*
Y1164095D01*
X547103Y1165657D01*
X545907Y1166853D01*
X544345Y1167500D01*
X542655D01*
X541093Y1166853D01*
X539897Y1165657D01*
X539250Y1164095D01*
Y1162405D01*
X539897Y1160843D01*
X541093Y1159647D01*
X542655Y1159000D01*
X544345D01*
X544841Y1159205D01*
X546523Y1157523D01*
X547143Y1157109D01*
X547550Y1155753D01*
X544649Y1152852D01*
X543971Y1153132D01*
X542280D01*
X540718Y1152486D01*
X539523Y1151290D01*
X538876Y1149728D01*
Y1148037D01*
X539523Y1146475D01*
X540718Y1145279D01*
X542280Y1144632D01*
X543971D01*
X545533Y1145279D01*
X546729Y1146475D01*
X547376Y1148037D01*
Y1149728D01*
X547246Y1150042D01*
X551167Y1153963D01*
X574619D01*
X581184Y1147398D01*
X581804Y1146983D01*
X582536Y1146838D01*
X643692D01*
X643897Y1146342D01*
X645092Y1145147D01*
X646655Y1144500D01*
X648345D01*
X649907Y1145147D01*
X651103Y1146342D01*
X651750Y1147904D01*
Y1149595D01*
X651103Y1151157D01*
X649907Y1152353D01*
X648345Y1153000D01*
X646655D01*
X645092Y1152353D01*
X643897Y1151157D01*
X643692Y1150661D01*
X583328D01*
X578181Y1155809D01*
X578659Y1156963D01*
X613375D01*
X614107Y1157109D01*
X614727Y1157523D01*
X618659Y1161455D01*
X619155Y1161250D01*
X620845D01*
X622407Y1161897D01*
X623603Y1163093D01*
X624250Y1164655D01*
Y1166345D01*
X623603Y1167907D01*
X622407Y1169103D01*
X620845Y1169750D01*
D02*
G37*
G36*
X467805Y1163787D02*
X461695D01*
X460964Y1163641D01*
X460343Y1163227D01*
X458403Y1161287D01*
X423608D01*
X422877Y1161141D01*
X422256Y1160727D01*
X422066Y1160537D01*
X355481D01*
X354749Y1160391D01*
X354406Y1160162D01*
X351558D01*
X351353Y1160657D01*
X350157Y1161853D01*
X348595Y1162500D01*
X346905D01*
X345343Y1161853D01*
X344147Y1160657D01*
X343500Y1159095D01*
Y1157405D01*
X344147Y1155843D01*
X345343Y1154647D01*
X346905Y1154000D01*
X348595D01*
X350157Y1154647D01*
X351353Y1155843D01*
X351479Y1156148D01*
X352713Y1156197D01*
X353454Y1155088D01*
X353250Y1154595D01*
Y1152905D01*
X352754Y1152162D01*
X342058D01*
X341853Y1152657D01*
X340657Y1153853D01*
X339095Y1154500D01*
X337405D01*
X335843Y1153853D01*
X334647Y1152657D01*
X334000Y1151095D01*
Y1149405D01*
X334647Y1147843D01*
X335843Y1146647D01*
X337405Y1146000D01*
X339095D01*
X340657Y1146647D01*
X341853Y1147843D01*
X342058Y1148338D01*
X353314D01*
X354129Y1147523D01*
X354505Y1147272D01*
X354777Y1147008D01*
X355128Y1145759D01*
X354750Y1144845D01*
Y1143155D01*
X355397Y1141592D01*
X356593Y1140397D01*
X358155Y1139750D01*
X359845D01*
X361407Y1140397D01*
X362603Y1141592D01*
X363250Y1143155D01*
Y1144845D01*
X362891Y1145713D01*
X363680Y1146963D01*
X367935D01*
X368453Y1145713D01*
X367647Y1144907D01*
X367000Y1143345D01*
Y1141655D01*
X367647Y1140093D01*
X368843Y1138897D01*
X370405Y1138250D01*
X372095D01*
X373657Y1138897D01*
X374853Y1140093D01*
X375500Y1141655D01*
Y1143345D01*
X374853Y1144907D01*
X374047Y1145713D01*
X374565Y1146963D01*
X377432D01*
X378156Y1145713D01*
X377750Y1144733D01*
Y1143043D01*
X378397Y1141481D01*
X379593Y1140285D01*
X381155Y1139638D01*
X382845D01*
X384407Y1140285D01*
X385603Y1141481D01*
X386250Y1143043D01*
Y1144733D01*
X385844Y1145713D01*
X386568Y1146963D01*
X388719D01*
X389509Y1145713D01*
X389150Y1144845D01*
Y1143154D01*
X389797Y1141592D01*
X390992Y1140397D01*
X392554Y1139750D01*
X394245D01*
X395807Y1140397D01*
X397002Y1141592D01*
X397649Y1143154D01*
Y1144845D01*
X397290Y1145713D01*
X398080Y1146963D01*
X406815D01*
X408005Y1145773D01*
X408626Y1145359D01*
X408988Y1145287D01*
X408865Y1144037D01*
X405217D01*
X404486Y1143891D01*
X403865Y1143477D01*
X398903Y1138514D01*
X398488Y1137894D01*
X398343Y1137162D01*
Y1133813D01*
X397847Y1133607D01*
X396651Y1132412D01*
X396004Y1130850D01*
Y1130139D01*
X395528Y1129748D01*
X354348D01*
X354100Y1130998D01*
X354157Y1131022D01*
X355353Y1132218D01*
X356000Y1133780D01*
Y1135470D01*
X355353Y1137032D01*
X354157Y1138228D01*
X352595Y1138875D01*
X350905D01*
X349343Y1138228D01*
X348147Y1137032D01*
X348125Y1136979D01*
X346875D01*
X346853Y1137032D01*
X345657Y1138228D01*
X344095Y1138875D01*
X342405D01*
X340843Y1138228D01*
X339647Y1137032D01*
X339000Y1135470D01*
Y1133780D01*
X339647Y1132218D01*
X340843Y1131022D01*
X340900Y1130998D01*
X340652Y1129748D01*
X298433D01*
X298228Y1130244D01*
X297032Y1131439D01*
X295648Y1132013D01*
X295454Y1132803D01*
X295442Y1133336D01*
X296543Y1134437D01*
X297190Y1135999D01*
Y1137690D01*
X296777Y1138687D01*
X297209Y1140219D01*
X297252Y1140237D01*
X298447Y1141432D01*
X299094Y1142995D01*
Y1144685D01*
X298447Y1146247D01*
X297252Y1147443D01*
X295690Y1148090D01*
X293999D01*
X292437Y1147443D01*
X291241Y1146247D01*
X290594Y1144685D01*
Y1142995D01*
X291007Y1141997D01*
X290575Y1140465D01*
X290532Y1140447D01*
X289337Y1139252D01*
X288786Y1137923D01*
X288567Y1137879D01*
X287005Y1138527D01*
X285314D01*
X283752Y1137879D01*
X282557Y1136684D01*
X281910Y1135122D01*
Y1133431D01*
X282557Y1131869D01*
X283752Y1130674D01*
X285314Y1130026D01*
X287005D01*
X288567Y1130674D01*
X289763Y1131869D01*
X290313Y1133198D01*
X290532Y1133241D01*
X291917Y1132668D01*
X292111Y1131878D01*
X292122Y1131344D01*
X291022Y1130244D01*
X290375Y1128682D01*
Y1126991D01*
X291022Y1125429D01*
X292218Y1124233D01*
X293780Y1123586D01*
X295470D01*
X297032Y1124233D01*
X298228Y1125429D01*
X298433Y1125925D01*
X351690D01*
X352168Y1124770D01*
X352148Y1124750D01*
X351501Y1123188D01*
Y1121497D01*
X352148Y1119935D01*
X353344Y1118740D01*
X353431Y1118301D01*
X352647Y1117517D01*
X352000Y1115955D01*
Y1114264D01*
X352647Y1112702D01*
X353228Y1112122D01*
X353721Y1111305D01*
X353228Y1110488D01*
X352647Y1109907D01*
X352048Y1108462D01*
X350845Y1107897D01*
X348141Y1110602D01*
X347520Y1111016D01*
X346789Y1111162D01*
X339298D01*
X339092Y1111657D01*
X337897Y1112853D01*
X336335Y1113500D01*
X334644D01*
X333082Y1112853D01*
X331886Y1111657D01*
X331239Y1110095D01*
Y1108404D01*
X331886Y1106842D01*
X333082Y1105647D01*
X334644Y1105000D01*
X336335D01*
X337897Y1105647D01*
X339092Y1106842D01*
X339298Y1107338D01*
X345997D01*
X351908Y1101427D01*
X351906Y1100842D01*
X351625Y1100062D01*
X350343Y1099530D01*
X349147Y1098335D01*
X348500Y1096773D01*
Y1095082D01*
X348219Y1094662D01*
X330534D01*
X329803Y1094516D01*
X329182Y1094102D01*
X328492Y1093412D01*
X312558D01*
X312353Y1093907D01*
X311157Y1095103D01*
X310806Y1095249D01*
Y1098250D01*
X310660Y1098982D01*
X310246Y1099602D01*
X285371Y1124477D01*
X284751Y1124891D01*
X284019Y1125037D01*
X279981D01*
X279249Y1124891D01*
X278629Y1124477D01*
X275773Y1121621D01*
X275359Y1121001D01*
X275213Y1120269D01*
Y1112161D01*
X275359Y1111429D01*
X275773Y1110809D01*
X282963Y1103619D01*
Y1095809D01*
X236921Y1049767D01*
X236425Y1049972D01*
X234734D01*
X233172Y1049325D01*
X231977Y1048130D01*
X231330Y1046567D01*
Y1044877D01*
X231977Y1043315D01*
X233172Y1042119D01*
X234734Y1041472D01*
X236425D01*
X237987Y1042119D01*
X239183Y1043315D01*
X239830Y1044877D01*
Y1046567D01*
X239624Y1047063D01*
X284308Y1091747D01*
X285463Y1091269D01*
Y1089132D01*
X282648Y1086317D01*
X282234Y1085696D01*
X282088Y1084965D01*
Y1072058D01*
X281593Y1071853D01*
X280397Y1070657D01*
X279750Y1069095D01*
Y1067405D01*
X279802Y1067280D01*
X279177Y1065908D01*
X278139Y1065478D01*
X276944Y1064283D01*
X276297Y1062720D01*
Y1061030D01*
X276944Y1059468D01*
X278139Y1058272D01*
X279701Y1057625D01*
X281392D01*
X282954Y1058272D01*
X284150Y1059468D01*
X284243Y1059693D01*
X285596D01*
X285647Y1059570D01*
X286842Y1058375D01*
X288405Y1057728D01*
X290095D01*
X291657Y1058375D01*
X292853Y1059570D01*
X293500Y1061132D01*
Y1062823D01*
X292853Y1064385D01*
X292150Y1065088D01*
X292668Y1066338D01*
X294945D01*
X295423Y1065183D01*
X295397Y1065157D01*
X294750Y1063595D01*
Y1061905D01*
X295397Y1060343D01*
X296593Y1059147D01*
X298155Y1058500D01*
X299845D01*
X301407Y1059147D01*
X302603Y1060343D01*
X303013Y1061332D01*
X303652Y1061973D01*
X304500Y1062117D01*
X304644Y1062088D01*
X326872D01*
X327662Y1060838D01*
X327302Y1059970D01*
Y1058280D01*
X327662Y1057412D01*
X326872Y1056162D01*
X320958D01*
X320226Y1056016D01*
X319606Y1055602D01*
X313271Y1049267D01*
X312775Y1049472D01*
X311084D01*
X309522Y1048825D01*
X308327Y1047629D01*
X307680Y1046067D01*
Y1044377D01*
X308327Y1042815D01*
X309522Y1041619D01*
X311084Y1040972D01*
X312775D01*
X314337Y1041619D01*
X315533Y1042815D01*
X316180Y1044377D01*
Y1046067D01*
X315974Y1046563D01*
X321750Y1052338D01*
X328644D01*
X329123Y1051183D01*
X326844Y1048905D01*
X325475Y1049472D01*
X323784D01*
X322222Y1048825D01*
X321027Y1047629D01*
X320380Y1046067D01*
Y1044377D01*
X321027Y1042815D01*
X322222Y1041619D01*
X323784Y1040972D01*
X325475D01*
X327037Y1041619D01*
X328233Y1042815D01*
X328880Y1044377D01*
Y1045534D01*
X332513Y1049167D01*
X333494Y1049052D01*
X333957Y1047860D01*
X333727Y1047629D01*
X333080Y1046067D01*
Y1044377D01*
X333727Y1042815D01*
X334922Y1041619D01*
X336484Y1040972D01*
X338175D01*
X339737Y1041619D01*
X340933Y1042815D01*
X341580Y1044377D01*
Y1046067D01*
X340933Y1047629D01*
X340474Y1048088D01*
X340992Y1049338D01*
X346368D01*
X346885Y1048088D01*
X346427Y1047629D01*
X345780Y1046067D01*
Y1044377D01*
X346427Y1042815D01*
X347622Y1041619D01*
X349184Y1040972D01*
X350875D01*
X352437Y1041619D01*
X353633Y1042815D01*
X354280Y1044377D01*
Y1046067D01*
X353633Y1047629D01*
X353174Y1048088D01*
X353692Y1049338D01*
X358018D01*
X358577Y1048129D01*
X357930Y1046567D01*
Y1044877D01*
X358577Y1043315D01*
X359772Y1042119D01*
X361334Y1041472D01*
X363025D01*
X364587Y1042119D01*
X365783Y1043315D01*
X366430Y1044877D01*
Y1046567D01*
X365783Y1048129D01*
X366342Y1049338D01*
X370718D01*
X371277Y1048129D01*
X370630Y1046567D01*
Y1044877D01*
X371277Y1043315D01*
X372472Y1042119D01*
X374034Y1041472D01*
X375725D01*
X377287Y1042119D01*
X378483Y1043315D01*
X379130Y1044877D01*
Y1046567D01*
X378483Y1048129D01*
X379042Y1049338D01*
X383418D01*
X383977Y1048129D01*
X383330Y1046567D01*
Y1044877D01*
X383977Y1043315D01*
X385172Y1042119D01*
X386734Y1041472D01*
X388425D01*
X389987Y1042119D01*
X391183Y1043315D01*
X391830Y1044877D01*
Y1046567D01*
X391183Y1048129D01*
X391742Y1049338D01*
X396118D01*
X396677Y1048129D01*
X396030Y1046567D01*
Y1044877D01*
X396677Y1043315D01*
X397872Y1042119D01*
X399434Y1041472D01*
X401125D01*
X402687Y1042119D01*
X403883Y1043315D01*
X404530Y1044877D01*
Y1046567D01*
X403883Y1048129D01*
X404442Y1049338D01*
X409518D01*
X410036Y1048088D01*
X409827Y1047879D01*
X409180Y1046317D01*
Y1044627D01*
X409827Y1043065D01*
X411022Y1041869D01*
X412584Y1041222D01*
X414275D01*
X415837Y1041869D01*
X417033Y1043065D01*
X417680Y1044627D01*
Y1046317D01*
X417033Y1047879D01*
X416824Y1048088D01*
X417342Y1049338D01*
X422218D01*
X422735Y1048088D01*
X422527Y1047879D01*
X421880Y1046317D01*
Y1044627D01*
X422527Y1043065D01*
X423722Y1041869D01*
X425284Y1041222D01*
X426975D01*
X428537Y1041869D01*
X429733Y1043065D01*
X430380Y1044627D01*
Y1046317D01*
X429733Y1047879D01*
X429524Y1048088D01*
X430042Y1049338D01*
X451854D01*
X456102Y1045091D01*
X456722Y1044677D01*
X457453Y1044531D01*
X459387D01*
X460137Y1043281D01*
X459750Y1042345D01*
Y1040655D01*
X460265Y1039412D01*
X459695Y1038162D01*
X343856D01*
X343124Y1038016D01*
X342504Y1037602D01*
X334439Y1029537D01*
X333428D01*
X332696Y1029391D01*
X332166Y1029037D01*
X328625D01*
X327893Y1028891D01*
X327273Y1028477D01*
X322783Y1023987D01*
X321845Y1024375D01*
X320155D01*
X318593Y1023728D01*
X317397Y1022532D01*
X316750Y1020970D01*
Y1019279D01*
X317397Y1017718D01*
X317856Y1017259D01*
X317338Y1016009D01*
X306973D01*
X304750Y1018232D01*
Y1019595D01*
X304103Y1021157D01*
X302907Y1022353D01*
X301345Y1023000D01*
X299655D01*
X298093Y1022353D01*
X296897Y1021157D01*
X296875Y1021105D01*
X295649Y1020861D01*
X295407Y1021103D01*
X293845Y1021750D01*
X292155D01*
X290593Y1021103D01*
X289867Y1020377D01*
X288617Y1020895D01*
Y1041112D01*
X289237Y1041369D01*
X290433Y1042565D01*
X291080Y1044127D01*
Y1045817D01*
X290433Y1047380D01*
X289237Y1048575D01*
X287675Y1049222D01*
X285984D01*
X284422Y1048575D01*
X283227Y1047380D01*
X283021Y1046884D01*
X277938D01*
X277733Y1047380D01*
X276537Y1048575D01*
X274975Y1049222D01*
X273284D01*
X271722Y1048575D01*
X270527Y1047380D01*
X269880Y1045817D01*
Y1044127D01*
X270527Y1042565D01*
X271722Y1041369D01*
X273284Y1040722D01*
X274975D01*
X276537Y1041369D01*
X277733Y1042565D01*
X277938Y1043060D01*
X283021D01*
X283227Y1042565D01*
X284422Y1041369D01*
X284793Y1041216D01*
Y1009832D01*
X284172Y1009575D01*
X282977Y1008380D01*
X282771Y1007884D01*
X277688D01*
X277483Y1008380D01*
X276287Y1009575D01*
X274725Y1010222D01*
X273034D01*
X271472Y1009575D01*
X270277Y1008380D01*
X269630Y1006817D01*
Y1005127D01*
X270277Y1003565D01*
X271472Y1002369D01*
X273034Y1001722D01*
X274725D01*
X276287Y1002369D01*
X277483Y1003565D01*
X277688Y1004060D01*
X282771D01*
X282977Y1003565D01*
X284172Y1002369D01*
X285734Y1001722D01*
X287425D01*
X288987Y1002369D01*
X290183Y1003565D01*
X290830Y1005127D01*
Y1006817D01*
X290183Y1008380D01*
X288987Y1009575D01*
X288617Y1009729D01*
Y1014105D01*
X289867Y1014623D01*
X290593Y1013897D01*
X292155Y1013250D01*
X293845D01*
X294695Y1013602D01*
X297223Y1011073D01*
X296930Y1009599D01*
X296872Y1009575D01*
X295677Y1008380D01*
X295030Y1006817D01*
Y1005127D01*
X295677Y1003565D01*
X296872Y1002369D01*
X298434Y1001722D01*
X300125D01*
X301687Y1002369D01*
X302883Y1003565D01*
X303530Y1005127D01*
Y1006817D01*
X302883Y1008380D01*
X302827Y1008435D01*
X303345Y1009685D01*
X307365D01*
X307883Y1008435D01*
X307827Y1008380D01*
X307180Y1006817D01*
Y1005127D01*
X307827Y1003565D01*
X309022Y1002369D01*
X310584Y1001722D01*
X312275D01*
X313837Y1002369D01*
X315033Y1003565D01*
X315680Y1005127D01*
Y1006817D01*
X315033Y1008380D01*
X314977Y1008435D01*
X315495Y1009685D01*
X320065D01*
X320583Y1008435D01*
X320527Y1008380D01*
X319880Y1006817D01*
Y1005127D01*
X320527Y1003565D01*
X321722Y1002369D01*
X323284Y1001722D01*
X324975D01*
X326537Y1002369D01*
X327733Y1003565D01*
X328380Y1005127D01*
Y1006817D01*
X327733Y1008380D01*
X327677Y1008435D01*
X328195Y1009685D01*
X332765D01*
X333283Y1008435D01*
X333227Y1008380D01*
X332580Y1006817D01*
Y1005127D01*
X333227Y1003565D01*
X334422Y1002369D01*
X335984Y1001722D01*
X337675D01*
X339237Y1002369D01*
X340433Y1003565D01*
X341080Y1005127D01*
Y1006817D01*
X340433Y1008380D01*
X340377Y1008435D01*
X340895Y1009685D01*
X345465D01*
X345983Y1008435D01*
X345927Y1008380D01*
X345280Y1006817D01*
Y1005127D01*
X345927Y1003565D01*
X347122Y1002369D01*
X348684Y1001722D01*
X350375D01*
X351937Y1002369D01*
X353133Y1003565D01*
X353780Y1005127D01*
Y1006817D01*
X353133Y1008380D01*
X353077Y1008435D01*
X353595Y1009685D01*
X357499D01*
X358289Y1008435D01*
X357930Y1007567D01*
Y1005877D01*
X358577Y1004315D01*
X359772Y1003119D01*
X361334Y1002472D01*
X363025D01*
X364587Y1003119D01*
X365783Y1004315D01*
X366430Y1005877D01*
Y1007567D01*
X366070Y1008435D01*
X366860Y1009685D01*
X370199D01*
X370989Y1008435D01*
X370630Y1007567D01*
Y1005877D01*
X371277Y1004315D01*
X372472Y1003119D01*
X374034Y1002472D01*
X375725D01*
X377287Y1003119D01*
X378483Y1004315D01*
X379130Y1005877D01*
Y1007567D01*
X378770Y1008435D01*
X379560Y1009685D01*
X382899D01*
X383689Y1008435D01*
X383330Y1007567D01*
Y1005877D01*
X383977Y1004315D01*
X385172Y1003119D01*
X386734Y1002472D01*
X388425D01*
X389987Y1003119D01*
X391183Y1004315D01*
X391830Y1005877D01*
Y1007567D01*
X392261Y1008213D01*
X395599D01*
X396389Y1006963D01*
X396030Y1006095D01*
Y1004405D01*
X396677Y1002842D01*
X397872Y1001647D01*
X399434Y1001000D01*
X401125D01*
X402687Y1001647D01*
X403883Y1002842D01*
X404530Y1004405D01*
Y1006095D01*
X404170Y1006963D01*
X404960Y1008213D01*
X408508D01*
X409344Y1006963D01*
X409180Y1006567D01*
Y1004877D01*
X409827Y1003315D01*
X411022Y1002119D01*
X412584Y1001472D01*
X414275D01*
X415837Y1002119D01*
X417033Y1003315D01*
X417680Y1004877D01*
Y1006567D01*
X417217Y1007685D01*
X417860Y1008935D01*
X421699D01*
X422343Y1007685D01*
X421880Y1006567D01*
Y1004877D01*
X422527Y1003315D01*
X423722Y1002119D01*
X425284Y1001472D01*
X426975D01*
X428537Y1002119D01*
X429733Y1003315D01*
X430380Y1004877D01*
Y1006567D01*
X429917Y1007685D01*
X430560Y1008935D01*
X498558D01*
X498695Y1008799D01*
X499315Y1008384D01*
X499502Y1008347D01*
X499509Y1008342D01*
X500163Y1007222D01*
X500189Y1006989D01*
X499830Y1006121D01*
Y1004430D01*
X500477Y1002868D01*
X501672Y1001672D01*
X503234Y1001025D01*
X504925D01*
X506487Y1001672D01*
X507683Y1002868D01*
X508330Y1004430D01*
Y1006121D01*
X507970Y1006989D01*
X508760Y1008239D01*
X511993D01*
X512688Y1007199D01*
X512530Y1006817D01*
Y1005127D01*
X513177Y1003565D01*
X514372Y1002369D01*
X515934Y1001722D01*
X517625D01*
X519187Y1002369D01*
X520383Y1003565D01*
X521030Y1005127D01*
Y1006817D01*
X520383Y1008380D01*
X519299Y1009463D01*
X519365Y1009984D01*
X519682Y1010713D01*
X526149D01*
X526660Y1009463D01*
X525827Y1008630D01*
X525180Y1007067D01*
Y1005377D01*
X525827Y1003815D01*
X527022Y1002619D01*
X528584Y1001972D01*
X530275D01*
X531837Y1002619D01*
X533033Y1003815D01*
X533680Y1005377D01*
Y1007067D01*
X533033Y1008630D01*
X532199Y1009463D01*
X532711Y1010713D01*
X538849D01*
X539361Y1009463D01*
X538527Y1008630D01*
X537880Y1007067D01*
Y1005377D01*
X538527Y1003815D01*
X539722Y1002619D01*
X541284Y1001972D01*
X542975D01*
X544537Y1002619D01*
X545733Y1003815D01*
X546380Y1005377D01*
Y1007067D01*
X545733Y1008630D01*
X544899Y1009463D01*
X545411Y1010713D01*
X551549D01*
X552061Y1009463D01*
X551227Y1008630D01*
X550580Y1007067D01*
Y1005377D01*
X551227Y1003815D01*
X552422Y1002619D01*
X553984Y1001972D01*
X555675D01*
X557237Y1002619D01*
X558433Y1003815D01*
X559080Y1005377D01*
Y1007067D01*
X558433Y1008630D01*
X557599Y1009463D01*
X558111Y1010713D01*
X564249D01*
X564761Y1009463D01*
X563927Y1008630D01*
X563280Y1007067D01*
Y1005377D01*
X563927Y1003815D01*
X565122Y1002619D01*
X566684Y1001972D01*
X568375D01*
X569937Y1002619D01*
X571133Y1003815D01*
X571780Y1005377D01*
Y1007067D01*
X571133Y1008630D01*
X570299Y1009463D01*
X570574Y1010415D01*
X570762Y1010733D01*
X571392Y1010859D01*
X572012Y1011273D01*
X575577Y1014838D01*
X623278D01*
X625093Y1013023D01*
X625714Y1012609D01*
X626445Y1012463D01*
X632555D01*
X633286Y1012609D01*
X633907Y1013023D01*
X635722Y1014838D01*
X636546D01*
X636989Y1014395D01*
X637609Y1013980D01*
X638341Y1013835D01*
X638653D01*
X639235Y1012430D01*
X640431Y1011235D01*
X641499Y1010792D01*
Y1009439D01*
X641222Y1009325D01*
X640027Y1008130D01*
X639380Y1006567D01*
Y1004877D01*
X640027Y1003315D01*
X641222Y1002119D01*
X642784Y1001472D01*
X644475D01*
X646037Y1002119D01*
X647233Y1003315D01*
X647880Y1004877D01*
Y1006567D01*
X647233Y1008130D01*
X646037Y1009325D01*
X644969Y1009767D01*
Y1011121D01*
X645245Y1011235D01*
X646441Y1012430D01*
X647088Y1013992D01*
Y1015683D01*
X647108Y1015713D01*
X652817D01*
X653019Y1015511D01*
Y1014405D01*
X653666Y1012842D01*
X654862Y1011647D01*
X655888Y1011222D01*
X655639Y1009972D01*
X655484D01*
X653922Y1009325D01*
X652727Y1008130D01*
X652080Y1006567D01*
Y1004877D01*
X652727Y1003315D01*
X653922Y1002119D01*
X655484Y1001472D01*
X657175D01*
X658737Y1002119D01*
X659933Y1003315D01*
X660580Y1004877D01*
Y1006567D01*
X659933Y1008130D01*
X658737Y1009325D01*
X657711Y1009750D01*
X657960Y1011000D01*
X658115D01*
X659677Y1011647D01*
X660872Y1012842D01*
X661519Y1014405D01*
Y1016095D01*
X661090Y1017131D01*
X660959Y1017818D01*
X661477Y1018773D01*
X663659Y1020955D01*
X664155Y1020750D01*
X665845D01*
X667407Y1021397D01*
X668603Y1022593D01*
X669250Y1024155D01*
Y1025845D01*
X668603Y1027407D01*
X667407Y1028603D01*
X665845Y1029250D01*
X664155D01*
X662593Y1028603D01*
X661397Y1027407D01*
X660750Y1025845D01*
Y1024155D01*
X660955Y1023659D01*
X659333Y1022037D01*
X654680D01*
X653891Y1023287D01*
X654250Y1024155D01*
Y1025845D01*
X653603Y1027407D01*
X652407Y1028603D01*
X650845Y1029250D01*
X649155D01*
X647593Y1028603D01*
X646397Y1027407D01*
X646192Y1026912D01*
X640873D01*
X632557Y1035227D01*
X631937Y1035641D01*
X631206Y1035787D01*
X626695D01*
X626073Y1037037D01*
X626491Y1037588D01*
X632352D01*
X633084Y1037734D01*
X633704Y1038148D01*
X637407Y1041851D01*
X637821Y1042471D01*
X637966Y1043203D01*
Y1045869D01*
X639216Y1046432D01*
X639630Y1046067D01*
Y1044377D01*
X640277Y1042815D01*
X641472Y1041619D01*
X643034Y1040972D01*
X644725D01*
X646287Y1041619D01*
X647483Y1042815D01*
X648130Y1044377D01*
Y1046067D01*
X647483Y1047629D01*
X646287Y1048825D01*
X644725Y1049472D01*
X643034D01*
X642539Y1049267D01*
X637856Y1053949D01*
X637236Y1054363D01*
X636505Y1054509D01*
X603028D01*
X602297Y1054363D01*
X601734Y1053987D01*
X592265D01*
X591748Y1055237D01*
X591853Y1055342D01*
X592500Y1056904D01*
Y1058595D01*
X591853Y1060157D01*
X591797Y1060213D01*
X592315Y1061463D01*
X624708D01*
X624864Y1061307D01*
X625485Y1060893D01*
X626216Y1060747D01*
X626565D01*
X627147Y1059342D01*
X628343Y1058147D01*
X629905Y1057500D01*
X631595D01*
X633157Y1058147D01*
X634353Y1059342D01*
X635000Y1060905D01*
Y1062595D01*
X634445Y1063934D01*
X634353Y1064157D01*
X634688Y1065590D01*
X643193Y1074095D01*
X643607Y1074715D01*
X643753Y1075447D01*
Y1076066D01*
X645157Y1076647D01*
X646353Y1077843D01*
X646712Y1078711D01*
X648155Y1079036D01*
X653838Y1073353D01*
Y1067559D01*
X653343Y1067353D01*
X652147Y1066158D01*
X651500Y1064596D01*
Y1062905D01*
X652147Y1061343D01*
X653343Y1060147D01*
X654905Y1059500D01*
X656595D01*
X658157Y1060147D01*
X658212Y1060202D01*
X658785Y1060088D01*
X667942D01*
X668147Y1059593D01*
X669343Y1058397D01*
X670905Y1057750D01*
X672595D01*
X674157Y1058397D01*
X675353Y1059593D01*
X676000Y1061155D01*
Y1062845D01*
X675353Y1064407D01*
X674157Y1065603D01*
X672595Y1066250D01*
X670905D01*
X669343Y1065603D01*
X668147Y1064407D01*
X667942Y1063912D01*
X660000D01*
Y1064596D01*
X659353Y1066158D01*
X658157Y1067353D01*
X657662Y1067559D01*
Y1074145D01*
X657516Y1074876D01*
X657102Y1075496D01*
X646121Y1086477D01*
X645501Y1086891D01*
X644769Y1087037D01*
X634375D01*
X633644Y1086891D01*
X633595Y1086859D01*
X633231Y1086931D01*
X629667D01*
X627621Y1088977D01*
X627001Y1089391D01*
X626269Y1089537D01*
X622230D01*
X621499Y1089391D01*
X620878Y1088977D01*
X617563Y1085662D01*
X612936D01*
X609621Y1088977D01*
X609001Y1089391D01*
X608269Y1089537D01*
X592020D01*
X591288Y1089391D01*
X590668Y1088977D01*
X580477Y1078786D01*
X578022D01*
X575457Y1081352D01*
X574837Y1081766D01*
X574105Y1081912D01*
X558940D01*
X558422Y1083162D01*
X559103Y1083843D01*
X559750Y1085405D01*
Y1087095D01*
X559103Y1088657D01*
X557907Y1089853D01*
X556345Y1090500D01*
X554655D01*
X553093Y1089853D01*
X551897Y1088657D01*
X551250Y1087095D01*
Y1085405D01*
X551897Y1083843D01*
X552578Y1083162D01*
X552060Y1081912D01*
X547472D01*
X546853Y1083407D01*
X545657Y1084603D01*
X544095Y1085250D01*
X542405D01*
X540843Y1084603D01*
X539647Y1083407D01*
X539000Y1081845D01*
Y1081189D01*
X537750Y1080354D01*
X537095Y1080625D01*
X535405D01*
X533843Y1079978D01*
X532647Y1078783D01*
X532000Y1077220D01*
Y1075530D01*
X532647Y1073968D01*
X532673Y1073942D01*
X532195Y1072787D01*
X510417D01*
X508352Y1074852D01*
X507732Y1075266D01*
X507001Y1075412D01*
X398294D01*
X397563Y1075266D01*
X396942Y1074852D01*
X395752Y1073662D01*
X343558D01*
X343353Y1074157D01*
X342157Y1075353D01*
X340595Y1076000D01*
X338905D01*
X337343Y1075353D01*
X336147Y1074157D01*
X335500Y1072595D01*
Y1071791D01*
X334352Y1070659D01*
X333927Y1070683D01*
X333679Y1071283D01*
X332483Y1072478D01*
X330921Y1073125D01*
X329230D01*
X327668Y1072478D01*
X326473Y1071283D01*
X325826Y1069721D01*
Y1068030D01*
X326185Y1067162D01*
X325395Y1065912D01*
X305436D01*
X301746Y1069602D01*
X301126Y1070016D01*
X300394Y1070162D01*
X287808D01*
X287603Y1070657D01*
X286407Y1071853D01*
X285912Y1072058D01*
Y1084173D01*
X288727Y1086988D01*
X289141Y1087608D01*
X289287Y1088340D01*
Y1112875D01*
X289160Y1113513D01*
X289215Y1113587D01*
X290523Y1113918D01*
X306982Y1097458D01*
Y1095368D01*
X306343Y1095103D01*
X305147Y1093907D01*
X304500Y1092345D01*
Y1090655D01*
X305147Y1089093D01*
X306343Y1087897D01*
X307905Y1087250D01*
X309595D01*
X311157Y1087897D01*
X312353Y1089093D01*
X312558Y1089588D01*
X329284D01*
X330016Y1089734D01*
X330636Y1090148D01*
X331326Y1090838D01*
X348241D01*
X349379Y1089700D01*
X349999Y1089286D01*
X350731Y1089140D01*
X506497D01*
X507183Y1087890D01*
X506750Y1086845D01*
Y1085155D01*
X507397Y1083593D01*
X508593Y1082397D01*
X510155Y1081750D01*
X511845D01*
X513407Y1082397D01*
X514603Y1083593D01*
X515250Y1085155D01*
Y1086845D01*
X514603Y1088407D01*
X513813Y1089197D01*
X513615Y1090767D01*
X516811Y1093963D01*
X520570D01*
X520849Y1093370D01*
X520953Y1092713D01*
X519897Y1091657D01*
X519250Y1090095D01*
Y1088405D01*
X519897Y1086843D01*
X521093Y1085647D01*
X522655Y1085000D01*
X524345D01*
X525907Y1085647D01*
X527103Y1086843D01*
X527750Y1088405D01*
Y1090095D01*
X527103Y1091657D01*
X526047Y1092713D01*
X526151Y1093370D01*
X526430Y1093963D01*
X564320D01*
X565109Y1092713D01*
X564750Y1091845D01*
Y1090155D01*
X565397Y1088593D01*
X566593Y1087397D01*
X568155Y1086750D01*
X569845D01*
X571407Y1087397D01*
X572603Y1088593D01*
X573250Y1090155D01*
Y1091845D01*
X572891Y1092713D01*
X573680Y1093963D01*
X651625D01*
X652357Y1094109D01*
X652977Y1094523D01*
X670159Y1111705D01*
X670655Y1111500D01*
X672345D01*
X673907Y1112147D01*
X675103Y1113343D01*
X675750Y1114905D01*
Y1116595D01*
X675103Y1118157D01*
X673907Y1119353D01*
X672345Y1120000D01*
X670655D01*
X669092Y1119353D01*
X667897Y1118157D01*
X667250Y1116595D01*
Y1114905D01*
X667455Y1114409D01*
X650833Y1097787D01*
X569315D01*
X568797Y1099037D01*
X569353Y1099593D01*
X570000Y1101155D01*
Y1102845D01*
X569795Y1103341D01*
X573042Y1106588D01*
X587795D01*
X587897Y1106343D01*
X589093Y1105147D01*
X590655Y1104500D01*
X592345D01*
X593907Y1105147D01*
X595103Y1106343D01*
X595750Y1107905D01*
Y1109595D01*
X595401Y1110438D01*
X596358Y1111394D01*
X596405Y1111375D01*
X598095D01*
X599657Y1112022D01*
X600853Y1113217D01*
X601500Y1114780D01*
Y1116470D01*
X601141Y1117338D01*
X601930Y1118588D01*
X631106D01*
X631837Y1118734D01*
X632458Y1119148D01*
X633203Y1119894D01*
X634155Y1119500D01*
X635845D01*
X637407Y1120147D01*
X638603Y1121343D01*
X639250Y1122905D01*
Y1124595D01*
X638603Y1126157D01*
X637407Y1127353D01*
X635845Y1128000D01*
X634155D01*
X632593Y1127353D01*
X631397Y1126157D01*
X630750Y1124595D01*
Y1122905D01*
X629601Y1122412D01*
X573940D01*
X573422Y1123662D01*
X574103Y1124343D01*
X574750Y1125905D01*
Y1127595D01*
X574103Y1129157D01*
X573452Y1129808D01*
X573044Y1130625D01*
X573452Y1131442D01*
X574103Y1132093D01*
X574750Y1133655D01*
Y1135345D01*
X574103Y1136907D01*
X572907Y1138103D01*
X571345Y1138750D01*
X569655D01*
X568325Y1138199D01*
X567815Y1138709D01*
X567195Y1139124D01*
X566463Y1139269D01*
X566114D01*
X564906Y1140477D01*
X564286Y1140892D01*
X563554Y1141037D01*
X538827D01*
X536388Y1143477D01*
X535768Y1143891D01*
X535036Y1144037D01*
X512807D01*
X512192Y1144651D01*
X511572Y1145066D01*
X510840Y1145211D01*
X510184D01*
X510095Y1146425D01*
X511657Y1147072D01*
X512853Y1148267D01*
X513500Y1149829D01*
Y1151520D01*
X512853Y1153082D01*
X511657Y1154278D01*
X510095Y1154925D01*
X508405D01*
X506843Y1154278D01*
X505647Y1153082D01*
X505000Y1151520D01*
Y1149829D01*
X505647Y1148267D01*
X506843Y1147072D01*
X508405Y1146425D01*
X508316Y1145211D01*
X492920D01*
X492188Y1145066D01*
X491568Y1144651D01*
X490953Y1144037D01*
X477434D01*
X477345Y1145250D01*
X478907Y1145897D01*
X480103Y1147093D01*
X480750Y1148655D01*
Y1150345D01*
X480476Y1151006D01*
X481042Y1151587D01*
X481485Y1151838D01*
X482905Y1151250D01*
X484595D01*
X486157Y1151897D01*
X487353Y1153093D01*
X488000Y1154655D01*
Y1156345D01*
X488329Y1156838D01*
X495442D01*
X495647Y1156343D01*
X496843Y1155147D01*
X498405Y1154500D01*
X500095D01*
X501657Y1155147D01*
X502853Y1156343D01*
X503500Y1157905D01*
Y1159595D01*
X502853Y1161157D01*
X501657Y1162353D01*
X500095Y1163000D01*
X498405D01*
X496843Y1162353D01*
X495647Y1161157D01*
X495442Y1160662D01*
X488186D01*
X487121Y1161727D01*
X486501Y1162141D01*
X485769Y1162287D01*
X470097D01*
X469157Y1163227D01*
X468536Y1163641D01*
X467805Y1163787D01*
D02*
G37*
G36*
X280328Y1162732D02*
X278637D01*
X277075Y1162085D01*
X275879Y1160890D01*
X275232Y1159328D01*
Y1157637D01*
X275879Y1156075D01*
X277075Y1154879D01*
X278637Y1154232D01*
X280328D01*
X281890Y1154879D01*
X283085Y1156075D01*
X283732Y1157637D01*
Y1159328D01*
X283085Y1160890D01*
X281890Y1162085D01*
X280328Y1162732D01*
D02*
G37*
G36*
X717596Y1145750D02*
X715905D01*
X714343Y1145103D01*
X713147Y1143907D01*
X712500Y1142345D01*
Y1140655D01*
X713147Y1139093D01*
X714343Y1137897D01*
X715905Y1137250D01*
X717596D01*
X719157Y1137897D01*
X720353Y1139093D01*
X721000Y1140655D01*
Y1142345D01*
X720353Y1143907D01*
X719157Y1145103D01*
X717596Y1145750D01*
D02*
G37*
G36*
X606845Y1141500D02*
X605155D01*
X603593Y1140853D01*
X602397Y1139657D01*
X601750Y1138095D01*
Y1136405D01*
X602397Y1134843D01*
X603593Y1133647D01*
X605155Y1133000D01*
X606845D01*
X608407Y1133647D01*
X609603Y1134843D01*
X610250Y1136405D01*
Y1138095D01*
X609603Y1139657D01*
X608407Y1140853D01*
X606845Y1141500D01*
D02*
G37*
G36*
X245095Y1133750D02*
X243405D01*
X241843Y1133103D01*
X240647Y1131907D01*
X240000Y1130345D01*
Y1128655D01*
X240647Y1127093D01*
X241843Y1125897D01*
X243405Y1125250D01*
X245095D01*
X246657Y1125897D01*
X247853Y1127093D01*
X248500Y1128655D01*
Y1130345D01*
X247853Y1131907D01*
X246657Y1133103D01*
X245095Y1133750D01*
D02*
G37*
G36*
X266845Y1124250D02*
X265155D01*
X263593Y1123603D01*
X262397Y1122407D01*
X261750Y1120845D01*
Y1119155D01*
X262397Y1117593D01*
X263593Y1116397D01*
X265155Y1115750D01*
X266845D01*
X268407Y1116397D01*
X269603Y1117593D01*
X270250Y1119155D01*
Y1120845D01*
X269603Y1122407D01*
X268407Y1123603D01*
X266845Y1124250D01*
D02*
G37*
G36*
X344345Y1104500D02*
X342655D01*
X341093Y1103853D01*
X339897Y1102657D01*
X339250Y1101095D01*
Y1099405D01*
X339897Y1097843D01*
X341093Y1096647D01*
X342655Y1096000D01*
X344345D01*
X345907Y1096647D01*
X347103Y1097843D01*
X347750Y1099405D01*
Y1101095D01*
X347103Y1102657D01*
X345907Y1103853D01*
X344345Y1104500D01*
D02*
G37*
G36*
X318345Y1085250D02*
X316655D01*
X315093Y1084603D01*
X313897Y1083407D01*
X313250Y1081845D01*
Y1080155D01*
X313897Y1078593D01*
X315093Y1077397D01*
X316655Y1076750D01*
X318345D01*
X319907Y1077397D01*
X321103Y1078593D01*
X321750Y1080155D01*
Y1081845D01*
X321103Y1083407D01*
X319907Y1084603D01*
X318345Y1085250D01*
D02*
G37*
G36*
X717596Y1070750D02*
X715905D01*
X714343Y1070103D01*
X713147Y1068907D01*
X712500Y1067345D01*
Y1065655D01*
X713147Y1064092D01*
X714343Y1062897D01*
X715905Y1062250D01*
X717596D01*
X719157Y1062897D01*
X720353Y1064092D01*
X721000Y1065655D01*
Y1067345D01*
X720353Y1068907D01*
X719157Y1070103D01*
X717596Y1070750D01*
D02*
G37*
G36*
X683025Y1049972D02*
X681334D01*
X679772Y1049325D01*
X678577Y1048130D01*
X677930Y1046567D01*
Y1044877D01*
X678577Y1043315D01*
X679772Y1042119D01*
X681334Y1041472D01*
X683025D01*
X684587Y1042119D01*
X685783Y1043315D01*
X686430Y1044877D01*
Y1046567D01*
X685783Y1048130D01*
X684587Y1049325D01*
X683025Y1049972D01*
D02*
G37*
G36*
X249125D02*
X247434D01*
X245872Y1049325D01*
X244677Y1048130D01*
X244030Y1046567D01*
Y1044877D01*
X244677Y1043315D01*
X245872Y1042119D01*
X247434Y1041472D01*
X249125D01*
X250687Y1042119D01*
X251883Y1043315D01*
X252530Y1044877D01*
Y1046567D01*
X251883Y1048130D01*
X250687Y1049325D01*
X249125Y1049972D01*
D02*
G37*
G36*
X223725D02*
X222034D01*
X220472Y1049325D01*
X219277Y1048130D01*
X218630Y1046567D01*
Y1044877D01*
X219277Y1043315D01*
X220472Y1042119D01*
X222034Y1041472D01*
X223725D01*
X225287Y1042119D01*
X226483Y1043315D01*
X227130Y1044877D01*
Y1046567D01*
X226483Y1048130D01*
X225287Y1049325D01*
X223725Y1049972D01*
D02*
G37*
G36*
X211025D02*
X209334D01*
X207772Y1049325D01*
X206577Y1048130D01*
X205930Y1046567D01*
Y1044877D01*
X206577Y1043315D01*
X207772Y1042119D01*
X209334Y1041472D01*
X211025D01*
X212587Y1042119D01*
X213783Y1043315D01*
X214430Y1044877D01*
Y1046567D01*
X213783Y1048130D01*
X212587Y1049325D01*
X211025Y1049972D01*
D02*
G37*
G36*
X670720Y1049472D02*
X669030D01*
X667468Y1048825D01*
X666272Y1047629D01*
X665625Y1046067D01*
Y1044377D01*
X666272Y1042815D01*
X667468Y1041619D01*
X669030Y1040972D01*
X670720D01*
X672282Y1041619D01*
X673478Y1042815D01*
X674125Y1044377D01*
Y1046067D01*
X673478Y1047629D01*
X672282Y1048825D01*
X670720Y1049472D01*
D02*
G37*
G36*
X657425D02*
X655734D01*
X654172Y1048825D01*
X652977Y1047629D01*
X652330Y1046067D01*
Y1044377D01*
X652977Y1042815D01*
X654172Y1041619D01*
X655734Y1040972D01*
X657425D01*
X658987Y1041619D01*
X660183Y1042815D01*
X660830Y1044377D01*
Y1046067D01*
X660183Y1047629D01*
X658987Y1048825D01*
X657425Y1049472D01*
D02*
G37*
G36*
X299970Y1049222D02*
X298280D01*
X296717Y1048575D01*
X295522Y1047380D01*
X294875Y1045817D01*
Y1044127D01*
X295522Y1042565D01*
X296717Y1041369D01*
X298280Y1040722D01*
X299970D01*
X301532Y1041369D01*
X302728Y1042565D01*
X303375Y1044127D01*
Y1045817D01*
X302728Y1047380D01*
X301532Y1048575D01*
X299970Y1049222D01*
D02*
G37*
G36*
X262275D02*
X260584D01*
X259022Y1048575D01*
X257827Y1047380D01*
X257180Y1045817D01*
Y1044127D01*
X257827Y1042565D01*
X259022Y1041369D01*
X260584Y1040722D01*
X262275D01*
X263837Y1041369D01*
X265033Y1042565D01*
X265680Y1044127D01*
Y1045817D01*
X265033Y1047380D01*
X263837Y1048575D01*
X262275Y1049222D01*
D02*
G37*
G36*
X249125Y1010472D02*
X247434D01*
X245872Y1009825D01*
X244677Y1008630D01*
X244030Y1007067D01*
Y1005377D01*
X244677Y1003815D01*
X245872Y1002619D01*
X247434Y1001972D01*
X249125D01*
X250687Y1002619D01*
X251883Y1003815D01*
X252530Y1005377D01*
Y1007067D01*
X251883Y1008630D01*
X250687Y1009825D01*
X249125Y1010472D01*
D02*
G37*
G36*
X223725D02*
X222034D01*
X220472Y1009825D01*
X219277Y1008630D01*
X218630Y1007067D01*
Y1005377D01*
X219277Y1003815D01*
X220472Y1002619D01*
X222034Y1001972D01*
X223725D01*
X225287Y1002619D01*
X226483Y1003815D01*
X227130Y1005377D01*
Y1007067D01*
X226483Y1008630D01*
X225287Y1009825D01*
X223725Y1010472D01*
D02*
G37*
G36*
X211025D02*
X209334D01*
X207772Y1009825D01*
X206577Y1008630D01*
X205930Y1007067D01*
Y1005377D01*
X206577Y1003815D01*
X207772Y1002619D01*
X209334Y1001972D01*
X211025D01*
X212587Y1002619D01*
X213783Y1003815D01*
X214430Y1005377D01*
Y1007067D01*
X213783Y1008630D01*
X212587Y1009825D01*
X211025Y1010472D01*
D02*
G37*
G36*
X262025Y1010222D02*
X260334D01*
X258772Y1009575D01*
X257577Y1008380D01*
X256930Y1006817D01*
Y1005127D01*
X257577Y1003565D01*
X258772Y1002369D01*
X260334Y1001722D01*
X262025D01*
X263587Y1002369D01*
X264783Y1003565D01*
X265430Y1005127D01*
Y1006817D01*
X264783Y1008380D01*
X263587Y1009575D01*
X262025Y1010222D01*
D02*
G37*
G36*
X236295Y1010000D02*
X234605D01*
X233043Y1009353D01*
X231847Y1008157D01*
X231200Y1006595D01*
Y1004904D01*
X231847Y1003342D01*
X233043Y1002147D01*
X234605Y1001500D01*
X236295D01*
X237857Y1002147D01*
X239053Y1003342D01*
X239700Y1004904D01*
Y1006595D01*
X239053Y1008157D01*
X237857Y1009353D01*
X236295Y1010000D01*
D02*
G37*
G36*
X683025Y1009972D02*
X681334D01*
X679772Y1009325D01*
X678577Y1008130D01*
X677930Y1006567D01*
Y1004877D01*
X678577Y1003315D01*
X679772Y1002119D01*
X681334Y1001472D01*
X683025D01*
X684587Y1002119D01*
X685783Y1003315D01*
X686430Y1004877D01*
Y1006567D01*
X685783Y1008130D01*
X684587Y1009325D01*
X683025Y1009972D01*
D02*
G37*
G36*
X669875D02*
X668184D01*
X666622Y1009325D01*
X665427Y1008130D01*
X664780Y1006567D01*
Y1004877D01*
X665427Y1003315D01*
X666622Y1002119D01*
X668184Y1001472D01*
X669875D01*
X671437Y1002119D01*
X672633Y1003315D01*
X673280Y1004877D01*
Y1006567D01*
X672633Y1008130D01*
X671437Y1009325D01*
X669875Y1009972D01*
D02*
G37*
G36*
X631775D02*
X630084D01*
X628522Y1009325D01*
X627327Y1008130D01*
X626680Y1006567D01*
Y1004877D01*
X627327Y1003315D01*
X628522Y1002119D01*
X630084Y1001472D01*
X631775D01*
X633337Y1002119D01*
X634533Y1003315D01*
X635180Y1004877D01*
Y1006567D01*
X634533Y1008130D01*
X633337Y1009325D01*
X631775Y1009972D01*
D02*
G37*
G36*
X606425D02*
X604734D01*
X603172Y1009325D01*
X601977Y1008130D01*
X601330Y1006567D01*
Y1004877D01*
X601977Y1003315D01*
X603172Y1002119D01*
X604734Y1001472D01*
X606425D01*
X607987Y1002119D01*
X609183Y1003315D01*
X609830Y1004877D01*
Y1006567D01*
X609183Y1008130D01*
X607987Y1009325D01*
X606425Y1009972D01*
D02*
G37*
G36*
X593725D02*
X592034D01*
X590472Y1009325D01*
X589277Y1008130D01*
X588630Y1006567D01*
Y1004877D01*
X589277Y1003315D01*
X590472Y1002119D01*
X592034Y1001472D01*
X593725D01*
X595287Y1002119D01*
X596483Y1003315D01*
X597130Y1004877D01*
Y1006567D01*
X596483Y1008130D01*
X595287Y1009325D01*
X593725Y1009972D01*
D02*
G37*
G36*
X581025D02*
X579334D01*
X577772Y1009325D01*
X576577Y1008130D01*
X575930Y1006567D01*
Y1004877D01*
X576577Y1003315D01*
X577772Y1002119D01*
X579334Y1001472D01*
X581025D01*
X582587Y1002119D01*
X583783Y1003315D01*
X584430Y1004877D01*
Y1006567D01*
X583783Y1008130D01*
X582587Y1009325D01*
X581025Y1009972D01*
D02*
G37*
G36*
X619444Y1011250D02*
X617355D01*
X615426Y1010451D01*
X613949Y1008974D01*
X613150Y1007044D01*
Y1004956D01*
X613949Y1003026D01*
X615426Y1001549D01*
X617355Y1000750D01*
X619444D01*
X621374Y1001549D01*
X622851Y1003026D01*
X623650Y1004956D01*
Y1007044D01*
X622851Y1008974D01*
X621374Y1010451D01*
X619444Y1011250D01*
D02*
G37*
%LPD*%
G36*
X463351Y1356389D02*
X463351Y1356389D01*
X463352Y1356389D01*
X463718Y1356023D01*
X464047Y1355803D01*
X464338Y1355609D01*
X464338Y1355609D01*
X464338Y1355609D01*
X464596Y1355558D01*
X465069Y1355463D01*
X466105D01*
X466163Y1355475D01*
X466222Y1355467D01*
X487552Y1356772D01*
X488295Y1355565D01*
X487720Y1354177D01*
Y1352088D01*
X488520Y1350158D01*
X489997Y1348682D01*
X491926Y1347882D01*
X494015D01*
X495944Y1348682D01*
X497421Y1350158D01*
X497734Y1350913D01*
X498997D01*
X500886Y1349023D01*
X501124Y1347507D01*
X494153Y1340536D01*
X489681D01*
X488891Y1341786D01*
X489250Y1342654D01*
Y1344345D01*
X488603Y1345907D01*
X487408Y1347103D01*
X485846Y1347750D01*
X484155D01*
X482593Y1347103D01*
X481397Y1345907D01*
X480750Y1344345D01*
Y1342654D01*
X481110Y1341786D01*
X480320Y1340536D01*
X463465D01*
X463200Y1340815D01*
X462746Y1341786D01*
X463250Y1343004D01*
Y1344695D01*
X462603Y1346257D01*
X461408Y1347453D01*
X459846Y1348100D01*
X458155D01*
X456593Y1347453D01*
X455397Y1346257D01*
X455192Y1345762D01*
X451402D01*
X446187Y1350977D01*
X445567Y1351391D01*
X444835Y1351537D01*
X390505D01*
X389774Y1351391D01*
X389318Y1351087D01*
X387934D01*
X387846Y1352300D01*
X389408Y1352947D01*
X390603Y1354142D01*
X391250Y1355704D01*
Y1357395D01*
X390891Y1358263D01*
X391681Y1359513D01*
X460228D01*
X463351Y1356389D01*
D02*
G37*
G36*
X439705Y1286591D02*
X439500Y1286095D01*
Y1284405D01*
X439963Y1283287D01*
X439320Y1282037D01*
X354180D01*
X353391Y1283287D01*
X353750Y1284155D01*
Y1285845D01*
X353103Y1287407D01*
X352648Y1287863D01*
X353165Y1289113D01*
X437184D01*
X439705Y1286591D01*
D02*
G37*
G36*
X345455Y1286341D02*
X345250Y1285845D01*
Y1284155D01*
X345506Y1283537D01*
X344671Y1282287D01*
X322650D01*
X321918Y1282141D01*
X321573Y1281911D01*
X306680D01*
X305891Y1283161D01*
X306250Y1284029D01*
Y1285719D01*
X305735Y1286963D01*
X306304Y1288213D01*
X343583D01*
X345455Y1286341D01*
D02*
G37*
G36*
X552270Y1277644D02*
X552250Y1277595D01*
Y1275905D01*
X552693Y1274835D01*
X551710Y1274140D01*
X551640Y1274110D01*
X550095Y1274750D01*
X548405D01*
X546842Y1274103D01*
X545647Y1272907D01*
X545131Y1271662D01*
X513940D01*
X513422Y1272912D01*
X513853Y1273343D01*
X514500Y1274905D01*
Y1276595D01*
X514141Y1277463D01*
X514930Y1278713D01*
X551444D01*
X552270Y1277644D01*
D02*
G37*
G36*
X320954Y1276837D02*
X320750Y1276345D01*
Y1274655D01*
X321397Y1273093D01*
X322593Y1271897D01*
X322858Y1271787D01*
X322610Y1270537D01*
X304005D01*
X303274Y1270391D01*
X302653Y1269977D01*
X298353Y1265676D01*
X278707D01*
X274496Y1269887D01*
X274534Y1270266D01*
X274919Y1271137D01*
X275200D01*
X277444Y1271584D01*
X279346Y1272855D01*
X280617Y1274757D01*
X280831Y1275834D01*
X281933Y1276423D01*
X282379Y1276239D01*
X284070D01*
X284503Y1276418D01*
X287057Y1273864D01*
X287677Y1273449D01*
X288409Y1273304D01*
X292910D01*
X293641Y1273449D01*
X294262Y1273864D01*
X298485Y1278087D01*
X320118D01*
X320954Y1276837D01*
D02*
G37*
G36*
X506359Y1277463D02*
X506000Y1276595D01*
Y1274905D01*
X506647Y1273343D01*
X507843Y1272147D01*
X509405Y1271500D01*
X510529D01*
X511046Y1270250D01*
X509608Y1268812D01*
X501590D01*
X501072Y1270062D01*
X501353Y1270343D01*
X502000Y1271905D01*
Y1273595D01*
X501353Y1275157D01*
X500157Y1276353D01*
X498595Y1277000D01*
X496905D01*
X495343Y1276353D01*
X494147Y1275157D01*
X493500Y1273595D01*
Y1271905D01*
X494147Y1270343D01*
X494428Y1270062D01*
X493910Y1268812D01*
X463680D01*
X462891Y1270062D01*
X463250Y1270930D01*
Y1272620D01*
X462603Y1274183D01*
X461407Y1275378D01*
X460540Y1275738D01*
X460214Y1277180D01*
X461623Y1278588D01*
X486488D01*
X487116Y1278713D01*
X505570D01*
X506359Y1277463D01*
D02*
G37*
G36*
X376963Y1260763D02*
Y1258769D01*
X377109Y1258038D01*
X377523Y1257418D01*
X378763Y1256178D01*
X378741Y1255666D01*
X377481Y1255174D01*
X377463Y1255177D01*
X372288Y1260352D01*
X371668Y1260766D01*
X370936Y1260912D01*
X359808D01*
X359603Y1261407D01*
X358407Y1262603D01*
X356845Y1263250D01*
X355155D01*
X353592Y1262603D01*
X352397Y1261407D01*
X351750Y1259845D01*
Y1258155D01*
X352397Y1256593D01*
X353592Y1255397D01*
X355155Y1254750D01*
X356845D01*
X358407Y1255397D01*
X359603Y1256593D01*
X359808Y1257088D01*
X369612D01*
X370290Y1256284D01*
X369982Y1254983D01*
X369468Y1254770D01*
X368796Y1254098D01*
X368156Y1253629D01*
X367162Y1254098D01*
X366657Y1254603D01*
X365095Y1255250D01*
X363405D01*
X361843Y1254603D01*
X360647Y1253407D01*
X360442Y1252912D01*
X281042D01*
X275837Y1258116D01*
X276168Y1259424D01*
X276242Y1259480D01*
X276880Y1259353D01*
X315008D01*
X315739Y1259498D01*
X316360Y1259913D01*
X317910Y1261463D01*
X325728D01*
X329062Y1258129D01*
X329682Y1257714D01*
X330414Y1257569D01*
X337161D01*
X337892Y1257714D01*
X338512Y1258129D01*
X339267Y1258883D01*
X339763Y1258678D01*
X341453D01*
X343016Y1259325D01*
X344211Y1260521D01*
X344858Y1262083D01*
Y1263773D01*
X344211Y1265335D01*
X344083Y1265463D01*
X344601Y1266713D01*
X371013D01*
X376963Y1260763D01*
D02*
G37*
G36*
X378254Y1244773D02*
X378874Y1244359D01*
X379606Y1244213D01*
X382070D01*
X382567Y1242963D01*
X382000Y1241595D01*
Y1239905D01*
X382647Y1238343D01*
X382703Y1238287D01*
X382185Y1237037D01*
X321898D01*
X319582Y1239352D01*
X318962Y1239766D01*
X318231Y1239912D01*
X290577D01*
X289987Y1240794D01*
Y1242485D01*
X289340Y1244047D01*
X288924Y1244463D01*
X289442Y1245713D01*
X299798D01*
X300738Y1244773D01*
X301359Y1244359D01*
X302090Y1244213D01*
X366833D01*
X367565Y1244359D01*
X368185Y1244773D01*
X370534Y1247122D01*
X371030Y1246917D01*
X372720D01*
X374282Y1247564D01*
X375398Y1247629D01*
X378254Y1244773D01*
D02*
G37*
G36*
X319754Y1233773D02*
X320374Y1233359D01*
X321106Y1233213D01*
X402062D01*
X402794Y1233359D01*
X403414Y1233773D01*
X403729Y1234088D01*
X403932D01*
X466107Y1231412D01*
X466081Y1230162D01*
X295680D01*
X294890Y1231412D01*
X295250Y1232280D01*
Y1233970D01*
X294890Y1234838D01*
X295680Y1236088D01*
X317439D01*
X319754Y1233773D01*
D02*
G37*
G36*
X640397Y1228093D02*
X641593Y1226897D01*
X643155Y1226250D01*
X643868D01*
X644386Y1225000D01*
X639548Y1220162D01*
X572558D01*
X572353Y1220657D01*
X571157Y1221853D01*
X570289Y1222213D01*
X569964Y1223655D01*
X574551Y1228241D01*
X600491D01*
X601223Y1228387D01*
X601843Y1228801D01*
X602191Y1229149D01*
X602843Y1228497D01*
X604405Y1227850D01*
X606095D01*
X607657Y1228497D01*
X608549Y1229388D01*
X639860D01*
X640397Y1228093D01*
D02*
G37*
G36*
X557970Y1233676D02*
X558590Y1233262D01*
X559321Y1233116D01*
X572270D01*
X572961Y1231958D01*
X572948Y1231866D01*
X572407Y1231505D01*
X562581Y1221679D01*
X561407Y1222853D01*
X559845Y1223500D01*
X558155D01*
X556592Y1222853D01*
X555397Y1221658D01*
X555036Y1220787D01*
X554125D01*
X553393Y1220641D01*
X552916Y1220322D01*
X552262Y1220977D01*
X551642Y1221391D01*
X550910Y1221537D01*
X514237D01*
X513506Y1221391D01*
X512886Y1220977D01*
X506445Y1214537D01*
X501430D01*
X500640Y1215787D01*
X501000Y1216654D01*
Y1218345D01*
X500353Y1219907D01*
X499157Y1221103D01*
X497969Y1221595D01*
Y1222905D01*
X499157Y1223397D01*
X500353Y1224593D01*
X501000Y1226155D01*
Y1227845D01*
X500353Y1229407D01*
X499287Y1230473D01*
X499362Y1231083D01*
X499646Y1231747D01*
X505537Y1232108D01*
X505647Y1231843D01*
X506842Y1230647D01*
X507146Y1229168D01*
X506679Y1228043D01*
Y1226352D01*
X507326Y1224790D01*
X508522Y1223594D01*
X510084Y1222947D01*
X511775D01*
X513337Y1223594D01*
X514532Y1224790D01*
X515179Y1226352D01*
Y1228043D01*
X514974Y1228538D01*
X520900Y1234464D01*
X557182D01*
X557970Y1233676D01*
D02*
G37*
G36*
X710610Y1220963D02*
X710250Y1220095D01*
Y1218405D01*
X710455Y1217909D01*
X704754Y1212208D01*
X571588D01*
X571393Y1212463D01*
X571293Y1212704D01*
X570936Y1213061D01*
X570841Y1213185D01*
X571129Y1214635D01*
X571157Y1214647D01*
X572353Y1215843D01*
X572558Y1216338D01*
X640340D01*
X641071Y1216484D01*
X641692Y1216898D01*
X647007Y1222213D01*
X709820D01*
X710610Y1220963D01*
D02*
G37*
G36*
X460205Y1201466D02*
X460000Y1200970D01*
Y1199280D01*
X460359Y1198412D01*
X459570Y1197162D01*
X379715D01*
X379197Y1198412D01*
X383874Y1203088D01*
X458583D01*
X460205Y1201466D01*
D02*
G37*
G36*
X592750Y1182761D02*
Y1181655D01*
X593397Y1180093D01*
X594593Y1178897D01*
X595160Y1178662D01*
X594912Y1177412D01*
X548792D01*
X547795Y1178409D01*
X548000Y1178905D01*
Y1180595D01*
X547353Y1182157D01*
X547327Y1182184D01*
X547805Y1183338D01*
X592173D01*
X592750Y1182761D01*
D02*
G37*
G36*
X540173Y1182184D02*
X540147Y1182157D01*
X539500Y1180595D01*
Y1178905D01*
X540147Y1177343D01*
X541328Y1176162D01*
X541326Y1176077D01*
X541058Y1174912D01*
X507690D01*
X507172Y1176162D01*
X507353Y1176343D01*
X508000Y1177905D01*
Y1179595D01*
X507353Y1181157D01*
X506422Y1182088D01*
X506789Y1183314D01*
X506805Y1183338D01*
X539695D01*
X540173Y1182184D01*
D02*
G37*
G36*
X500711Y1183314D02*
X501078Y1182088D01*
X500147Y1181157D01*
X499500Y1179595D01*
Y1177905D01*
X500147Y1176343D01*
X500328Y1176162D01*
X499810Y1174912D01*
X342990D01*
Y1176321D01*
X342343Y1177884D01*
X341253Y1178974D01*
X341283Y1179122D01*
X342478Y1180317D01*
X342683Y1180813D01*
X384455D01*
X384582Y1180838D01*
X449915D01*
X450647Y1180984D01*
X451267Y1181398D01*
X453207Y1183338D01*
X500695D01*
X500711Y1183314D01*
D02*
G37*
%LPC*%
G36*
X542595Y1232750D02*
X540904D01*
X539342Y1232103D01*
X538147Y1230908D01*
X537500Y1229345D01*
Y1227655D01*
X538147Y1226093D01*
X539342Y1224897D01*
X540904Y1224250D01*
X542595D01*
X544157Y1224897D01*
X545353Y1226093D01*
X546000Y1227655D01*
Y1229345D01*
X545353Y1230908D01*
X544157Y1232103D01*
X542595Y1232750D01*
D02*
G37*
%LPD*%
G36*
X563713Y1132727D02*
Y1131625D01*
X563859Y1130893D01*
X564273Y1130273D01*
X566455Y1128091D01*
X566250Y1127595D01*
Y1125905D01*
X566897Y1124343D01*
X567578Y1123662D01*
X567060Y1122412D01*
X555542D01*
X547545Y1130409D01*
X547750Y1130905D01*
Y1132596D01*
X547390Y1133464D01*
X548180Y1134714D01*
X561727D01*
X563713Y1132727D01*
D02*
G37*
G36*
X539897Y1129343D02*
X541092Y1128147D01*
X542654Y1127500D01*
X544345D01*
X544841Y1127706D01*
X553398Y1119148D01*
X554019Y1118734D01*
X554750Y1118588D01*
X592570D01*
X593359Y1117338D01*
X593000Y1116470D01*
Y1114780D01*
X593349Y1113937D01*
X592392Y1112981D01*
X592345Y1113000D01*
X590655D01*
X589093Y1112353D01*
X587897Y1111157D01*
X587588Y1110412D01*
X572250D01*
X571518Y1110266D01*
X570898Y1109852D01*
X567091Y1106045D01*
X566595Y1106250D01*
X564905D01*
X563343Y1105603D01*
X562147Y1104407D01*
X561500Y1102845D01*
Y1101155D01*
X562147Y1099593D01*
X562703Y1099037D01*
X562185Y1097787D01*
X516019D01*
X515250Y1098595D01*
X514603Y1100157D01*
X513407Y1101353D01*
X511845Y1102000D01*
X510155D01*
X508593Y1101353D01*
X507397Y1100157D01*
X507192Y1099662D01*
X492555D01*
X491839Y1100912D01*
X492250Y1101905D01*
Y1103595D01*
X492718Y1104296D01*
X501866D01*
X502071Y1103800D01*
X503267Y1102604D01*
X504829Y1101957D01*
X506520D01*
X508082Y1102604D01*
X509277Y1103800D01*
X509924Y1105362D01*
Y1105992D01*
X511174Y1106827D01*
X511240Y1106800D01*
X512930D01*
X514492Y1107447D01*
X515688Y1108642D01*
X516335Y1110204D01*
Y1111895D01*
X515688Y1113457D01*
X514492Y1114653D01*
X512930Y1115300D01*
X511240D01*
X509678Y1114653D01*
X508482Y1113457D01*
X508290Y1112994D01*
X386036D01*
X385788Y1114244D01*
X386157Y1114397D01*
X387353Y1115593D01*
X388000Y1117155D01*
Y1118846D01*
X387640Y1119714D01*
X388430Y1120964D01*
X396191D01*
X396722Y1120609D01*
X397454Y1120463D01*
X436362D01*
X437093Y1120609D01*
X437714Y1121023D01*
X438154Y1121463D01*
X475477D01*
X476913Y1120028D01*
X477533Y1119613D01*
X478265Y1119468D01*
X484375D01*
X485106Y1119613D01*
X485726Y1120028D01*
X486662Y1120963D01*
X489401D01*
X490608Y1119756D01*
X491228Y1119342D01*
X491959Y1119196D01*
X498440D01*
X498646Y1118701D01*
X499841Y1117505D01*
X501403Y1116858D01*
X503094D01*
X504656Y1117505D01*
X505852Y1118701D01*
X505994Y1119044D01*
X507503Y1119422D01*
X508632Y1118954D01*
X510322D01*
X511884Y1119601D01*
X513080Y1120797D01*
X513727Y1122359D01*
Y1124050D01*
X513367Y1124918D01*
X514157Y1126168D01*
X528927D01*
X531440Y1123655D01*
Y1122206D01*
X532087Y1120644D01*
X533282Y1119448D01*
X534844Y1118801D01*
X536535D01*
X538097Y1119448D01*
X539293Y1120644D01*
X539940Y1122206D01*
Y1123897D01*
X539293Y1125459D01*
X538097Y1126654D01*
X536535Y1127301D01*
X534844D01*
X533682Y1126820D01*
X531914Y1128589D01*
X532431Y1129839D01*
X539692D01*
X539897Y1129343D01*
D02*
G37*
G36*
X361691Y1109731D02*
X362311Y1109316D01*
X363043Y1109171D01*
X420237D01*
X420715Y1108016D01*
X417236Y1104537D01*
X360930D01*
X360140Y1105787D01*
X360500Y1106655D01*
Y1108345D01*
X359853Y1109907D01*
X360812Y1110609D01*
X361691Y1109731D01*
D02*
G37*
G36*
X470953Y1104713D02*
X470647Y1104407D01*
X470000Y1102845D01*
Y1101155D01*
X470647Y1099593D01*
X471151Y1099089D01*
X470633Y1097839D01*
X448163D01*
X447914Y1099089D01*
X448657Y1099397D01*
X449853Y1100593D01*
X450500Y1102155D01*
Y1103845D01*
X450140Y1104713D01*
X450930Y1105963D01*
X470435D01*
X470953Y1104713D01*
D02*
G37*
G36*
X442360Y1104713D02*
X442000Y1103845D01*
Y1102155D01*
X442647Y1100593D01*
X443843Y1099397D01*
X444586Y1099089D01*
X444337Y1097839D01*
X356558D01*
X356353Y1098335D01*
X355224Y1099463D01*
X355250Y1099796D01*
X355568Y1100713D01*
X418028D01*
X418760Y1100859D01*
X419380Y1101273D01*
X424070Y1105963D01*
X441570D01*
X442360Y1104713D01*
D02*
G37*
G36*
X610792Y1082398D02*
X611413Y1081984D01*
X612144Y1081838D01*
X618355D01*
X618750Y1081917D01*
X619204Y1081912D01*
X620264Y1081267D01*
X620647Y1080343D01*
X621842Y1079147D01*
X622713Y1078787D01*
X622464Y1077537D01*
X601517D01*
X600786Y1077391D01*
X600166Y1076977D01*
X599475Y1076286D01*
X585018D01*
X584539Y1077441D01*
X592812Y1085714D01*
X607477D01*
X610792Y1082398D01*
D02*
G37*
G36*
X613610Y1072463D02*
X613250Y1071595D01*
Y1069905D01*
X613610Y1069037D01*
X612820Y1067787D01*
X559930D01*
X559141Y1069037D01*
X559500Y1069905D01*
Y1071595D01*
X559141Y1072463D01*
X559930Y1073713D01*
X574152D01*
X574843Y1073023D01*
X575463Y1072608D01*
X576195Y1072463D01*
X600267D01*
X600999Y1072608D01*
X601619Y1073023D01*
X602309Y1073713D01*
X612820D01*
X613610Y1072463D01*
D02*
G37*
G36*
X437029Y1070375D02*
X435467Y1069728D01*
X434272Y1068532D01*
X433625Y1066970D01*
Y1065280D01*
X433984Y1064412D01*
X433195Y1063162D01*
X422052D01*
X416236Y1068977D01*
X415616Y1069391D01*
X414885Y1069537D01*
X398802D01*
X398343Y1070646D01*
X399116Y1071588D01*
X436941D01*
X437029Y1070375D01*
D02*
G37*
G36*
X507238Y1067023D02*
X507858Y1066609D01*
X507861Y1066608D01*
Y1065334D01*
X507520Y1065266D01*
X506900Y1064852D01*
X504335Y1062287D01*
X493749D01*
X493309Y1062727D01*
X492688Y1063141D01*
X491957Y1063287D01*
X470778D01*
X469942Y1064537D01*
X470250Y1065280D01*
Y1066970D01*
X469891Y1067838D01*
X470680Y1069088D01*
X505173D01*
X507238Y1067023D01*
D02*
G37*
G36*
X480859Y1055713D02*
X480500Y1054845D01*
Y1053155D01*
X481147Y1051593D01*
X482343Y1050397D01*
X483905Y1049750D01*
X485595D01*
X487157Y1050397D01*
X488353Y1051593D01*
X488507Y1051963D01*
X566438D01*
X567430Y1050972D01*
X567155Y1049995D01*
X566959Y1049722D01*
X566684D01*
X565122Y1049075D01*
X563927Y1047879D01*
X563280Y1046317D01*
Y1044627D01*
X563766Y1043453D01*
X563155Y1042203D01*
X559204D01*
X558594Y1043453D01*
X559080Y1044627D01*
Y1046317D01*
X558433Y1047879D01*
X557237Y1049075D01*
X555675Y1049722D01*
X553984D01*
X552422Y1049075D01*
X551227Y1047879D01*
X550580Y1046317D01*
Y1044627D01*
X551066Y1043453D01*
X550455Y1042203D01*
X546504D01*
X545894Y1043453D01*
X546380Y1044627D01*
Y1046317D01*
X545733Y1047879D01*
X544537Y1049075D01*
X542975Y1049722D01*
X541284D01*
X539722Y1049075D01*
X538527Y1047879D01*
X537880Y1046317D01*
Y1044627D01*
X538527Y1043065D01*
X538373Y1041643D01*
X528555Y1031825D01*
X527112Y1032150D01*
X526753Y1033018D01*
X525557Y1034214D01*
X523995Y1034861D01*
X522304D01*
X521809Y1034656D01*
X516742Y1039722D01*
X517031Y1040724D01*
X517211Y1040972D01*
X517625D01*
X519187Y1041619D01*
X520383Y1042815D01*
X521030Y1044377D01*
Y1046067D01*
X520383Y1047629D01*
X519187Y1048825D01*
X517625Y1049472D01*
X515934D01*
X514372Y1048825D01*
X513177Y1047629D01*
X512530Y1046067D01*
Y1044377D01*
X513177Y1042815D01*
X514204Y1041787D01*
X514054Y1040994D01*
X513821Y1040537D01*
X507038D01*
X506805Y1040994D01*
X506655Y1041787D01*
X507683Y1042815D01*
X508330Y1044377D01*
Y1046067D01*
X507683Y1047629D01*
X506487Y1048825D01*
X504925Y1049472D01*
X503234D01*
X501672Y1048825D01*
X500477Y1047629D01*
X499830Y1046067D01*
Y1044377D01*
X500477Y1042815D01*
X501505Y1041787D01*
X501354Y1040994D01*
X501121Y1040537D01*
X495445D01*
X494714Y1040391D01*
X494093Y1039977D01*
X492278Y1038162D01*
X468306D01*
X467735Y1039412D01*
X468250Y1040655D01*
Y1042325D01*
X468310Y1042383D01*
X469324Y1043019D01*
X469503Y1042840D01*
X471065Y1042193D01*
X472756D01*
X474318Y1042840D01*
X475513Y1044035D01*
X476161Y1045597D01*
Y1047288D01*
X475513Y1048850D01*
X474446Y1049918D01*
X473853Y1051093D01*
X474500Y1052655D01*
Y1054345D01*
X473933Y1055713D01*
X474430Y1056963D01*
X480070D01*
X480859Y1055713D01*
D02*
G37*
G36*
X405265Y1033184D02*
X401189Y1029108D01*
X400845Y1029250D01*
X399155D01*
X397593Y1028603D01*
X396553Y1027563D01*
X395780Y1027700D01*
X395289Y1027932D01*
X394656Y1029460D01*
X393460Y1030656D01*
X391898Y1031303D01*
X390207D01*
X388645Y1030656D01*
X387450Y1029460D01*
X386803Y1027898D01*
Y1027397D01*
X386211Y1026912D01*
X338854D01*
X338376Y1028066D01*
X344648Y1034338D01*
X404787D01*
X405265Y1033184D01*
D02*
G37*
G36*
X515160Y1025467D02*
X514682Y1024312D01*
X464121D01*
X463426Y1025351D01*
X463500Y1025530D01*
Y1027220D01*
X463140Y1028088D01*
X463930Y1029338D01*
X511289D01*
X515160Y1025467D01*
D02*
G37*
G36*
X623084Y1027273D02*
X623704Y1026859D01*
X624436Y1026713D01*
X627110D01*
X627359Y1025463D01*
X627093Y1025353D01*
X625897Y1024157D01*
X625692Y1023662D01*
X568564D01*
X567832Y1023516D01*
X567212Y1023102D01*
X563647Y1019537D01*
X550768D01*
X550289Y1020692D01*
X558811Y1029213D01*
X613481D01*
X614212Y1029359D01*
X614832Y1029773D01*
X615939Y1030880D01*
X619478D01*
X623084Y1027273D01*
D02*
G37*
G36*
X455359Y1028088D02*
X455000Y1027220D01*
Y1025530D01*
X455359Y1024662D01*
X454570Y1023412D01*
X411707D01*
X410975Y1023266D01*
X410355Y1022852D01*
X407040Y1019537D01*
X405768D01*
X405289Y1020692D01*
X408121Y1023523D01*
X408535Y1024143D01*
X408681Y1024875D01*
Y1025583D01*
X412436Y1029338D01*
X454570D01*
X455359Y1028088D01*
D02*
G37*
%LPC*%
G36*
X552845Y1108000D02*
X551155D01*
X549593Y1107353D01*
X548397Y1106157D01*
X547750Y1104595D01*
Y1102905D01*
X548397Y1101343D01*
X549593Y1100147D01*
X551155Y1099500D01*
X552845D01*
X554407Y1100147D01*
X555603Y1101343D01*
X556250Y1102905D01*
Y1104595D01*
X555603Y1106157D01*
X554407Y1107353D01*
X552845Y1108000D01*
D02*
G37*
G36*
X530275Y1049722D02*
X528584D01*
X527022Y1049075D01*
X525827Y1047879D01*
X525180Y1046317D01*
Y1044627D01*
X525827Y1043065D01*
X527022Y1041869D01*
X528584Y1041222D01*
X530275D01*
X531837Y1041869D01*
X533033Y1043065D01*
X533680Y1044627D01*
Y1046317D01*
X533033Y1047879D01*
X531837Y1049075D01*
X530275Y1049722D01*
D02*
G37*
%LPD*%
D10*
X289000Y1352250D02*
G03*
X289000Y1352250I-1000J0D01*
G01*
X265000Y1135000D02*
G03*
X265000Y1135000I-1000J0D01*
G01*
X480400Y1303650D02*
G03*
X480400Y1303650I-1000J0D01*
G01*
X330250Y1067650D02*
G03*
X330250Y1067650I-1000J0D01*
G01*
X605210Y1234250D02*
G03*
X605210Y1234250I-1000J0D01*
G01*
D11*
X202000Y1275550D02*
Y1364950D01*
Y1275550D02*
X275500D01*
Y1364950D01*
X202000D02*
X275500D01*
X206900Y1230250D02*
Y1375250D01*
X256700Y1160300D02*
X277300D01*
X256700Y1139700D02*
Y1160300D01*
Y1139700D02*
X277300D01*
Y1160300D01*
X473950Y1324150D02*
Y1363150D01*
X522950D01*
Y1324150D02*
Y1363150D01*
X473950Y1324150D02*
X522950D01*
X516750Y1091049D02*
Y1291049D01*
X316750Y1091049D02*
Y1291049D01*
X516750D01*
X316750Y1091049D02*
X516750D01*
X598000Y1228250D02*
X643000D01*
X598000Y1198250D02*
Y1228250D01*
Y1198250D02*
X643000D01*
Y1228250D01*
X654000Y1200250D02*
Y1225250D01*
X624000Y1200250D02*
X654000D01*
X624000D02*
Y1225250D01*
X654000D01*
X427750Y1090000D02*
X477750D01*
X427750Y1058000D02*
X477750D01*
Y1090000D01*
X427750Y1058000D02*
Y1090000D01*
X683800Y1204950D02*
Y1220550D01*
X668200D02*
X683800D01*
X668200Y1204950D02*
Y1220550D01*
Y1204950D02*
X683800D01*
X584500Y1225250D02*
X614500D01*
X584500Y1200250D02*
Y1225250D01*
Y1200250D02*
X614500D01*
Y1225250D01*
D12*
X1574749Y967678D02*
X1581820Y981820D01*
X1567678Y974749D02*
X1581820Y981820D01*
X1550000Y950000D02*
X1695964Y1095964D01*
X1727251D01*
X1518180Y918180D02*
X1525251Y932322D01*
X1518180Y918180D02*
X1532322Y925251D01*
X1518180Y918180D02*
X1550000Y950000D01*
X209000Y1268250D02*
X215094D01*
Y1265203D01*
X214078Y1264187D01*
X212047D01*
X211031Y1265203D01*
Y1268250D01*
X214078Y1258093D02*
X215094Y1259109D01*
Y1261140D01*
X214078Y1262156D01*
X210016D01*
X209000Y1261140D01*
Y1259109D01*
X210016Y1258093D01*
X215094Y1256062D02*
X209000D01*
Y1253015D01*
X210016Y1251999D01*
X211031D01*
X212047Y1253015D01*
Y1256062D01*
Y1253015D01*
X213063Y1251999D01*
X214078D01*
X215094Y1253015D01*
Y1256062D01*
Y1239811D02*
Y1243874D01*
X209000D01*
Y1239811D01*
X212047Y1243874D02*
Y1241843D01*
X215094Y1237780D02*
X209000D01*
Y1234733D01*
X210016Y1233717D01*
X214078D01*
X215094Y1234733D01*
Y1237780D01*
X214078Y1227623D02*
X215094Y1228639D01*
Y1230670D01*
X214078Y1231686D01*
X210016D01*
X209000Y1230670D01*
Y1228639D01*
X210016Y1227623D01*
X212047D01*
Y1229654D01*
X215094Y1221529D02*
Y1225592D01*
X209000D01*
Y1221529D01*
X212047Y1225592D02*
Y1223560D01*
D14*
X659750Y1221750D02*
G03*
X659750Y1221750I-750J0D01*
G01*
X689750Y1218750D02*
G03*
X689750Y1218750I-750J0D01*
G01*
X620250Y1221750D02*
G03*
X620250Y1221750I-750J0D01*
G01*
D15*
X0Y-0D02*
X1600000D01*
Y1000000D01*
X0D02*
X1600000D01*
X0Y-0D02*
Y1000000D01*
X1800000D02*
X1805667Y983000D01*
X1794333D02*
X1800000Y1000000D01*
X1794333Y17000D02*
X1800000Y-0D01*
X1805667Y17000D01*
X1800000Y500000D02*
Y1000000D01*
Y-0D02*
Y500000D01*
X1603750Y1000000D02*
X1802500D01*
X1603750Y-0D02*
X1802500D01*
X0Y1100000D02*
X17000Y1105667D01*
X0Y1100000D02*
X17000Y1094333D01*
X1583000D02*
X1600000Y1100000D01*
X1583000Y1105667D02*
X1600000Y1100000D01*
X0D02*
X800000D01*
X1600000D01*
X0Y1003750D02*
Y1102500D01*
X1600000Y1003750D02*
Y1102500D01*
D16*
X1732290Y1084443D02*
X1737288D01*
X1739787Y1086942D01*
Y1091941D01*
X1737288Y1094440D01*
X1732290D01*
X1729791Y1091941D01*
Y1086942D01*
X1732290Y1084443D01*
X1759781Y1086942D02*
X1762280Y1084443D01*
X1767279D01*
X1769778Y1086942D01*
Y1096939D01*
X1767279Y1099438D01*
X1762280D01*
X1759781Y1096939D01*
Y1094440D01*
X1762280Y1091941D01*
X1769778D01*
X1777275Y1081944D02*
X1779775Y1084443D01*
Y1086942D01*
X1777275D01*
Y1084443D01*
X1779775D01*
X1777275Y1081944D01*
X1774776Y1079445D01*
X1789771Y1096939D02*
X1792271Y1099438D01*
X1797269D01*
X1799768Y1096939D01*
Y1086942D01*
X1797269Y1084443D01*
X1792271D01*
X1789771Y1086942D01*
Y1096939D01*
X1804767D02*
X1807266Y1099438D01*
X1812264D01*
X1814763Y1096939D01*
Y1086942D01*
X1812264Y1084443D01*
X1807266D01*
X1804767Y1086942D01*
Y1096939D01*
X1819762Y1084443D02*
Y1094440D01*
X1822261D01*
X1824760Y1091941D01*
Y1084443D01*
Y1091941D01*
X1827259Y1094440D01*
X1829758Y1091941D01*
Y1084443D01*
X1834757D02*
Y1094440D01*
X1837256D01*
X1839755Y1091941D01*
Y1084443D01*
Y1091941D01*
X1842254Y1094440D01*
X1844754Y1091941D01*
Y1084443D01*
X754040Y1123361D02*
X759118D01*
X756579D01*
Y1138596D01*
X754040Y1136057D01*
X776892Y1138596D02*
X771814Y1136057D01*
X766736Y1130979D01*
Y1125901D01*
X769275Y1123361D01*
X774353D01*
X776892Y1125901D01*
Y1128440D01*
X774353Y1130979D01*
X766736D01*
X781971Y1136057D02*
X784510Y1138596D01*
X789588D01*
X792127Y1136057D01*
Y1125901D01*
X789588Y1123361D01*
X784510D01*
X781971Y1125901D01*
Y1136057D01*
X799745Y1120822D02*
X802284Y1123361D01*
Y1125901D01*
X799745D01*
Y1123361D01*
X802284D01*
X799745Y1120822D01*
X797206Y1118283D01*
X812441Y1136057D02*
X814980Y1138596D01*
X820058D01*
X822598Y1136057D01*
Y1125901D01*
X820058Y1123361D01*
X814980D01*
X812441Y1125901D01*
Y1136057D01*
X827676D02*
X830215Y1138596D01*
X835293D01*
X837833Y1136057D01*
Y1125901D01*
X835293Y1123361D01*
X830215D01*
X827676Y1125901D01*
Y1136057D01*
D17*
X1776647Y454044D02*
Y459122D01*
Y456583D01*
X1761411D01*
X1763951Y454044D01*
Y466739D02*
X1761411Y469278D01*
Y474357D01*
X1763951Y476896D01*
X1774107D01*
X1776647Y474357D01*
Y469278D01*
X1774107Y466739D01*
X1763951D01*
Y481974D02*
X1761411Y484514D01*
Y489592D01*
X1763951Y492131D01*
X1774107D01*
X1776647Y489592D01*
Y484514D01*
X1774107Y481974D01*
X1763951D01*
X1779186Y499749D02*
X1776647Y502288D01*
X1774107D01*
Y499749D01*
X1776647D01*
Y502288D01*
X1779186Y499749D01*
X1781725Y497210D01*
X1763951Y512445D02*
X1761411Y514984D01*
Y520062D01*
X1763951Y522601D01*
X1774107D01*
X1776647Y520062D01*
Y514984D01*
X1774107Y512445D01*
X1763951D01*
Y527680D02*
X1761411Y530219D01*
Y535297D01*
X1763951Y537836D01*
X1774107D01*
X1776647Y535297D01*
Y530219D01*
X1774107Y527680D01*
X1763951D01*
D18*
X345250Y1058250D02*
Y1066250D01*
Y1058250D02*
X361250D01*
Y1066250D01*
X345250D02*
X361250D01*
X643750Y1348250D02*
Y1364250D01*
X651750D01*
Y1348250D02*
Y1364250D01*
X643750Y1348250D02*
X651750D01*
X283750Y1303750D02*
X291750D01*
Y1319750D01*
X283750D02*
X291750D01*
X283750Y1303750D02*
Y1319750D01*
X608500Y1100750D02*
X672500D01*
X608500D02*
Y1130750D01*
X672500D01*
Y1100750D02*
Y1130750D01*
X608500Y1290000D02*
X672500D01*
X608500D02*
Y1320000D01*
X672500D01*
Y1290000D02*
Y1320000D01*
X544000Y1127750D02*
Y1135750D01*
Y1127750D02*
X560000D01*
Y1135750D01*
X544000D02*
X560000D01*
X734250Y1079000D02*
Y1129000D01*
X699250Y1079000D02*
Y1129000D01*
X734250D01*
X699250Y1079000D02*
X734250D01*
X701500Y1304500D02*
X736500D01*
X701500Y1354500D02*
X736500D01*
X701500Y1304500D02*
Y1354500D01*
X736500Y1304500D02*
Y1354500D01*
X397750Y1058250D02*
Y1066250D01*
X381750D02*
X397750D01*
X381750Y1058250D02*
Y1066250D01*
Y1058250D02*
X397750D01*
X560250Y1109750D02*
Y1117750D01*
X544250D02*
X560250D01*
X544250Y1109750D02*
Y1117750D01*
Y1109750D02*
X560250D01*
X631750Y1252500D02*
X647750D01*
X631750D02*
Y1260500D01*
X647750D01*
Y1252500D02*
Y1260500D01*
X417000Y1366750D02*
X433000D01*
X417000Y1374750D02*
X433000D01*
X417000Y1366750D02*
Y1374750D01*
X433000Y1366750D02*
Y1374750D01*
X538750Y1339750D02*
X554750D01*
X538750Y1331750D02*
X554750D01*
Y1339750D01*
X538750Y1331750D02*
Y1339750D01*
Y1315750D02*
X554750D01*
X538750Y1323750D02*
X554750D01*
X538750Y1315750D02*
Y1323750D01*
X554750Y1315750D02*
Y1323750D01*
X539250Y1364250D02*
X555250D01*
X539250D02*
Y1372250D01*
X555250D01*
Y1364250D02*
Y1372250D01*
X538750Y1355750D02*
X554750D01*
Y1347750D02*
Y1355750D01*
X538750Y1347750D02*
X554750D01*
X538750D02*
Y1355750D01*
X288750Y1340000D02*
X304750D01*
Y1332000D02*
Y1340000D01*
X288750Y1332000D02*
X304750D01*
X288750D02*
Y1340000D01*
X276000Y1167000D02*
X292000D01*
X276000Y1175000D02*
X292000D01*
X276000Y1167000D02*
Y1175000D01*
X292000Y1167000D02*
Y1175000D01*
X588250Y1271750D02*
X596250D01*
X588250Y1255750D02*
X596250D01*
X588250D02*
Y1271750D01*
X596250Y1255750D02*
Y1271750D01*
X604250D02*
X612250D01*
X604250Y1255750D02*
X612250D01*
X604250D02*
Y1271750D01*
X612250Y1255750D02*
Y1271750D01*
X647000Y1163000D02*
Y1171000D01*
X631000D02*
X647000D01*
X631000Y1163000D02*
Y1171000D01*
Y1163000D02*
X647000D01*
X685250Y1274500D02*
X693250D01*
X685250Y1258500D02*
X693250D01*
X685250D02*
Y1274500D01*
X693250Y1258500D02*
Y1274500D01*
X668750D02*
X676750D01*
X668750Y1258500D02*
X676750D01*
X668750D02*
Y1274500D01*
X676750Y1258500D02*
Y1274500D01*
X543750Y1144500D02*
Y1152500D01*
Y1144500D02*
X559750D01*
Y1152500D01*
X543750D02*
X559750D01*
X544500Y1159750D02*
Y1167750D01*
Y1159750D02*
X560500D01*
Y1167750D01*
X544500D02*
X560500D01*
X544250Y1175750D02*
Y1183750D01*
Y1175750D02*
X560250D01*
Y1183750D01*
X544250D02*
X560250D01*
X677500Y1176000D02*
X693500D01*
X677500Y1144000D02*
X693500D01*
X677500D02*
Y1176000D01*
X693500Y1144000D02*
Y1176000D01*
X661750Y1167000D02*
X669750D01*
X661750Y1151000D02*
X669750D01*
X661750D02*
Y1167000D01*
X669750Y1151000D02*
Y1167000D01*
X691750Y1364750D02*
X699750D01*
X691750Y1348750D02*
Y1364750D01*
Y1348750D02*
X699750D01*
Y1364750D01*
X262250Y1102750D02*
X270250D01*
X262250Y1118750D02*
X270250D01*
Y1102750D02*
Y1118750D01*
X262250Y1102750D02*
Y1118750D01*
X278500Y1102750D02*
X286500D01*
X278500Y1118750D02*
X286500D01*
Y1102750D02*
Y1118750D01*
X278500Y1102750D02*
Y1118750D01*
X651750Y1080250D02*
X659750D01*
X651750Y1064250D02*
Y1080250D01*
Y1064250D02*
X659750D01*
Y1080250D01*
X682750Y1064750D02*
X690750D01*
Y1080750D01*
X682750D02*
X690750D01*
X682750Y1064750D02*
Y1080750D01*
X543500Y1344750D02*
X573500D01*
X543500Y1356750D02*
X573500D01*
Y1344750D02*
Y1356750D01*
X543500Y1344750D02*
Y1356750D01*
X560975Y1362750D02*
X560975Y1356750D01*
X555975Y1362750D02*
X560975D01*
X555975Y1356750D02*
X555975Y1362750D01*
X546450Y1344750D02*
X546450Y1338750D01*
X551450D01*
X551450Y1344750D01*
X570500Y1338750D02*
X570500Y1344750D01*
X565500Y1338750D02*
X570500D01*
X565500Y1344750D02*
X565500Y1338750D01*
X680500Y1058250D02*
Y1088250D01*
X668500Y1058250D02*
Y1088250D01*
X680500D01*
X668500Y1058250D02*
X680500D01*
X662500Y1075725D02*
X668500Y1075725D01*
X662500Y1070725D02*
Y1075725D01*
Y1070725D02*
X668500Y1070725D01*
X680500Y1061200D02*
X686500Y1061200D01*
Y1066200D01*
X680500Y1066200D02*
X686500Y1066200D01*
X680500Y1085250D02*
X686500Y1085250D01*
Y1080250D02*
Y1085250D01*
X680500Y1080250D02*
X686500Y1080250D01*
X574250Y1055750D02*
Y1085750D01*
X586250Y1055750D02*
Y1085750D01*
X574250Y1055750D02*
X586250D01*
X574250Y1085750D02*
X586250D01*
Y1068275D02*
X592250Y1068275D01*
Y1073275D01*
X586250Y1073275D02*
X592250Y1073275D01*
X568250Y1082800D02*
X574250Y1082800D01*
X568250Y1077800D02*
Y1082800D01*
Y1077800D02*
X574250Y1077800D01*
X568250Y1058750D02*
X574250Y1058750D01*
X568250Y1058750D02*
Y1063750D01*
X574250Y1063750D01*
X653750Y1345500D02*
Y1375500D01*
X665750Y1345500D02*
Y1375500D01*
X653750Y1345500D02*
X665750D01*
X653750Y1375500D02*
X665750D01*
Y1358025D02*
X671750Y1358025D01*
Y1363025D01*
X665750Y1363025D02*
X671750Y1363025D01*
X647750Y1372550D02*
X653750Y1372550D01*
X647750Y1367550D02*
Y1372550D01*
Y1367550D02*
X653750Y1367550D01*
X647750Y1348500D02*
X653750Y1348500D01*
X647750Y1348500D02*
Y1353500D01*
X653750Y1353500D01*
X298250Y1370250D02*
X326250D01*
X298250Y1354250D02*
X326250D01*
X331250Y1366250D02*
X331250Y1358250D01*
X326250D02*
X331250D01*
X326250Y1366250D02*
X331250D01*
X303250Y1359250D02*
Y1365250D01*
X300250Y1362250D02*
X306250D01*
X298250Y1354250D02*
Y1370250D01*
X326250Y1354250D02*
Y1370250D01*
X293250Y1358250D02*
X298250D01*
X293250Y1366250D02*
X298250D01*
X293250D02*
X293250Y1358250D01*
X608500Y1130750D02*
X672500D01*
X608500Y1100750D02*
Y1130750D01*
Y1100750D02*
X672500D01*
Y1130750D01*
X608500Y1320000D02*
X672500D01*
X608500Y1290000D02*
Y1320000D01*
Y1290000D02*
X672500D01*
Y1320000D01*
X409250Y1081750D02*
X417250D01*
X409250Y1065750D02*
X417250D01*
Y1081750D01*
X409250Y1065750D02*
Y1081750D01*
X233750Y1244250D02*
X241750D01*
X233750D02*
Y1260250D01*
X241750D01*
Y1244250D02*
Y1260250D01*
X250000Y1244750D02*
X258000D01*
X250000D02*
Y1260750D01*
X258000D01*
Y1244750D02*
Y1260750D01*
X480750Y1269000D02*
Y1277000D01*
X496750Y1269000D02*
Y1277000D01*
X480750D02*
X496750D01*
X480750Y1269000D02*
X496750D01*
X364300Y1251250D02*
X441800D01*
X364300Y1316250D02*
X441800D01*
X364300Y1251250D02*
Y1316250D01*
X441800Y1251250D02*
Y1316250D01*
X407750Y1117000D02*
X415750D01*
Y1101000D02*
Y1117000D01*
X407750Y1101000D02*
X415750D01*
X407750D02*
Y1117000D01*
X647750Y1252500D02*
Y1260500D01*
X631750Y1252500D02*
X647750D01*
X631750D02*
Y1260500D01*
X647750D01*
X647000Y1163000D02*
Y1171000D01*
X631000Y1163000D02*
X647000D01*
X631000D02*
Y1171000D01*
X647000D01*
X281750Y1260500D02*
X289750D01*
X281750Y1244500D02*
X289750D01*
Y1260500D01*
X281750Y1244500D02*
Y1260500D01*
X488500Y1065750D02*
Y1081750D01*
X496500Y1065750D02*
Y1081750D01*
X488500Y1065750D02*
X496500D01*
X488500Y1081750D02*
X496500D01*
X420500Y1245500D02*
X436500D01*
X420500Y1237500D02*
Y1245500D01*
Y1237500D02*
X436500D01*
Y1245500D01*
X402000Y1101500D02*
Y1117500D01*
X394000D02*
X402000D01*
X394000Y1101500D02*
Y1117500D01*
Y1101500D02*
X402000D01*
X387750Y1101500D02*
Y1117500D01*
X379750D02*
X387750D01*
X379750Y1101500D02*
Y1117500D01*
Y1101500D02*
X387750D01*
X373000Y1101250D02*
Y1117250D01*
X365000D02*
X373000D01*
X365000Y1101250D02*
Y1117250D01*
Y1101250D02*
X373000D01*
X612750Y1155500D02*
Y1171500D01*
X604750Y1155500D02*
Y1171500D01*
X612750D01*
X604750Y1155500D02*
X612750D01*
X596250D02*
Y1171500D01*
X588250Y1155500D02*
Y1171500D01*
X596250D01*
X588250Y1155500D02*
X596250D01*
X542250Y1224500D02*
X558250D01*
X542250Y1232500D02*
X558250D01*
Y1224500D02*
Y1232500D01*
X542250Y1224500D02*
Y1232500D01*
X481000Y1230750D02*
X497000D01*
X481000Y1222750D02*
X497000D01*
X481000D02*
Y1230750D01*
X497000Y1222750D02*
Y1230750D01*
X669000Y1258500D02*
Y1274500D01*
X677000Y1258500D02*
Y1274500D01*
X669000Y1258500D02*
X677000D01*
X669000Y1274500D02*
X677000D01*
X684925Y1258476D02*
Y1274477D01*
X692925Y1258476D02*
Y1274477D01*
X684925Y1258476D02*
X692925D01*
X684925Y1274477D02*
X692925D01*
X266000Y1244750D02*
Y1260750D01*
Y1244750D02*
X274000D01*
Y1260750D01*
X266000D02*
X274000D01*
X225500Y1244750D02*
Y1260750D01*
X217500D02*
X225500D01*
X217500Y1244750D02*
Y1260750D01*
Y1244750D02*
X225500D01*
X222750Y1317000D02*
X238750D01*
X222750Y1309000D02*
Y1317000D01*
Y1309000D02*
X238750D01*
Y1317000D01*
X222500Y1349500D02*
X238500D01*
X222500Y1341500D02*
Y1349500D01*
Y1341500D02*
X238500D01*
Y1349500D01*
X222750Y1301000D02*
X238750D01*
X222750Y1293000D02*
Y1301000D01*
Y1293000D02*
X238750D01*
Y1301000D01*
X222750Y1333250D02*
X238750D01*
X222750Y1325250D02*
Y1333250D01*
Y1325250D02*
X238750D01*
Y1333250D01*
X339500Y1101250D02*
Y1117250D01*
X347500Y1101250D02*
Y1117250D01*
X339500Y1101250D02*
X347500D01*
X339500Y1117250D02*
X347500D01*
X487250Y1174750D02*
X503250D01*
X487250Y1182750D02*
X503250D01*
Y1174750D02*
Y1182750D01*
X487250Y1174750D02*
Y1182750D01*
X485500Y1347500D02*
X501500D01*
X485500Y1339500D02*
X501500D01*
X485500D02*
Y1347500D01*
X501500Y1339500D02*
Y1347500D01*
X481250Y1301750D02*
X497250D01*
X481250Y1293750D02*
X497250D01*
X481250D02*
Y1301750D01*
X497250Y1293750D02*
Y1301750D01*
X450000Y1102000D02*
Y1118000D01*
X442000Y1102000D02*
Y1118000D01*
X450000D01*
X442000Y1102000D02*
X450000D01*
X543999Y1117750D02*
X560000D01*
X543999Y1109750D02*
X560000D01*
X543999D02*
Y1117750D01*
X560000Y1109750D02*
Y1117750D01*
X330750Y1321250D02*
X346750D01*
X330750Y1329250D02*
X346750D01*
Y1321250D02*
Y1329250D01*
X330750Y1321250D02*
Y1329250D01*
X328500Y1223000D02*
Y1239000D01*
X320500Y1223000D02*
Y1239000D01*
X328500D01*
X320500Y1223000D02*
X328500D01*
X419000Y1327500D02*
Y1343500D01*
X411000Y1327500D02*
Y1343500D01*
X419000D01*
X411000Y1327500D02*
X419000D01*
X320250Y1259750D02*
Y1275750D01*
X328250Y1259750D02*
Y1275750D01*
X320250Y1259750D02*
X328250D01*
X320250Y1275750D02*
X328250D01*
X469750Y1102000D02*
Y1118000D01*
X477750Y1102000D02*
Y1118000D01*
X469750Y1102000D02*
X477750D01*
X469750Y1118000D02*
X477750D01*
X677000Y1155750D02*
Y1171750D01*
X669000Y1155750D02*
Y1171750D01*
X677000D01*
X669000Y1155750D02*
X677000D01*
X485250Y1102000D02*
Y1118000D01*
X493250Y1102000D02*
Y1118000D01*
X485250Y1102000D02*
X493250D01*
X485250Y1118000D02*
X493250D01*
X692750Y1155500D02*
Y1171500D01*
X684750Y1155500D02*
Y1171500D01*
X692750D01*
X684750Y1155500D02*
X692750D01*
X714500Y1188250D02*
Y1204250D01*
Y1188250D02*
X722500D01*
Y1204250D01*
X714500D02*
X722500D01*
X722000Y1238500D02*
Y1254500D01*
X714000D02*
X722000D01*
X714000Y1238500D02*
Y1254500D01*
Y1238500D02*
X722000D01*
X421000Y1221750D02*
X437000D01*
X421000Y1213750D02*
Y1221750D01*
Y1213750D02*
X437000D01*
Y1221750D01*
D19*
X497205Y1357205D02*
G03*
X492612Y1358996I-4235J-4072D01*
G01*
X482247Y1232630D02*
G03*
X482859Y1232636I253J5870D01*
G01*
X526144Y1360750D02*
X609500D01*
X514019Y1348625D02*
X526144Y1360750D01*
X606250Y1409250D02*
Y1409875D01*
X604731Y1390625D02*
X618750Y1404644D01*
Y1409875D01*
X590125Y1393125D02*
X606250Y1409250D01*
X343403Y1400625D02*
X379704D01*
X340000Y1404028D02*
Y1405000D01*
Y1404028D02*
X343403Y1400625D01*
X379704D02*
X380329Y1400000D01*
X448535D01*
X301528Y1018750D02*
X306181Y1014097D01*
X293500Y1017500D02*
X299403Y1011597D01*
X411268Y1017525D02*
X505475D01*
X500386Y1013347D02*
X501082Y1012650D01*
X410625Y1013347D02*
X500386D01*
X409903Y1012625D02*
X410625Y1013347D01*
X499350Y1010847D02*
X500047Y1010150D01*
X392107Y1012625D02*
X409903D01*
X389625Y1022178D02*
X394178Y1017625D01*
X299403Y1011597D02*
X389599D01*
X411707Y1021500D02*
X461269D01*
X389034Y1022178D02*
X389625D01*
X397981Y1020125D02*
X402019D01*
X388589Y1019678D02*
X393142Y1015125D01*
X386211Y1025000D02*
X389034Y1022178D01*
X408867Y1015125D02*
X411268Y1017525D01*
X390635Y1014097D02*
X392107Y1012625D01*
X411660Y1010847D02*
X499350D01*
X393142Y1015125D02*
X408867D01*
X410938Y1010125D02*
X411660Y1010847D01*
X334338Y1025000D02*
X386211D01*
X329463Y1020125D02*
X334338Y1025000D01*
X391071Y1010125D02*
X410938D01*
X407832Y1017625D02*
X411707Y1021500D01*
X306181Y1014097D02*
X390635D01*
X406769Y1024875D02*
Y1026375D01*
X389599Y1011597D02*
X391071Y1010125D01*
X394178Y1017625D02*
X407832D01*
X402019Y1020125D02*
X406769Y1024875D01*
X336930Y1019678D02*
X388589D01*
X400000Y1025000D02*
Y1025215D01*
X336483Y1020125D02*
X336930Y1019678D01*
X462170Y1022400D02*
X517395D01*
X400000Y1025215D02*
X408535Y1033750D01*
X461269Y1021500D02*
X462170Y1022400D01*
X391053Y1027053D02*
X397981Y1020125D01*
X321000Y1020125D02*
X321625D01*
X328625Y1027125D01*
X329233Y1020125D02*
X329463D01*
X646945Y1017625D02*
X653609D01*
X655984Y1015250D02*
X657269D01*
X647981Y1020125D02*
X660125D01*
X665000Y1025000D01*
X653609Y1017625D02*
X655984Y1015250D01*
X631519Y1016875D02*
X634357Y1019713D01*
X634930Y1016750D02*
X637338D01*
X638341Y1015747D02*
X641929D01*
X645606Y1022500D02*
X647981Y1020125D01*
X624436Y1028625D02*
X632920D01*
X639045Y1022500D02*
X645606D01*
X634357Y1019713D02*
X644857D01*
X565475Y1015125D02*
X569600Y1019250D01*
X641929Y1015747D02*
X642838Y1014838D01*
X644857Y1019713D02*
X646945Y1017625D01*
X631206Y1033875D02*
X640081Y1025000D01*
X650000D01*
X632920Y1028625D02*
X639045Y1022500D01*
X637338Y1016750D02*
X638341Y1015747D01*
X620269Y1032791D02*
X624436Y1028625D01*
X623805Y1033875D02*
X631206D01*
X411644Y1031250D02*
X512081D01*
X517395Y1022400D02*
X522170Y1017625D01*
X520095Y1023236D02*
X526205D01*
X515136Y1038625D02*
X523150Y1030611D01*
X512081Y1031250D02*
X520095Y1023236D01*
X495445Y1038625D02*
X515136D01*
X522170Y1017625D02*
X564439D01*
X408535Y1033750D02*
X513116D01*
X539725Y1040291D02*
X622424D01*
X540760Y1037791D02*
X623460D01*
X525169Y1025736D02*
X539725Y1040291D01*
X526205Y1023236D02*
X540760Y1037791D01*
X513116Y1033750D02*
X521130Y1025736D01*
X525169D01*
X493070Y1036250D02*
X495445Y1038625D01*
X343856Y1036250D02*
X493070D01*
X484875Y1053875D02*
X567230D01*
X539875Y1020125D02*
X547019D01*
X535000Y1025000D02*
X539875Y1020125D01*
X542903Y1030882D02*
Y1032375D01*
Y1030882D02*
X544091Y1029694D01*
X570660Y1012625D02*
X574785Y1016750D01*
X558019Y1031125D02*
X613481D01*
X544091Y1025909D02*
Y1029694D01*
Y1025909D02*
X545000Y1025000D01*
X547019Y1020125D02*
X558019Y1031125D01*
X564439Y1017625D02*
X568564Y1021750D01*
X516538Y1012625D02*
X570660D01*
X507494Y1012650D02*
X509968Y1015125D01*
X514064Y1010150D02*
X516538Y1012625D01*
X509968Y1015125D02*
X565475D01*
X542903Y1032375D02*
X544153Y1033625D01*
X509981Y1348625D02*
X514019D01*
X502238Y1350375D02*
X508231D01*
X509981Y1348625D01*
X499789Y1352825D02*
X502238Y1350375D01*
X493278Y1352825D02*
X499789D01*
X492971Y1353132D02*
X493278Y1352825D01*
X508945Y1346125D02*
X515055D01*
X507195Y1347875D02*
X508945Y1346125D01*
X504195Y1347875D02*
X507195D01*
X516805D02*
X576500D01*
X515055Y1346125D02*
X516805Y1347875D01*
X499041Y1355325D02*
X499209Y1355325D01*
X498309Y1356057D02*
X499041Y1355325D01*
X465069Y1357375D02*
X466105D01*
X464703Y1357741D02*
X465069Y1357375D01*
X497205Y1357205D02*
X498309Y1356057D01*
X499209Y1355325D02*
X504183D01*
X461019Y1361425D02*
X464703Y1357741D01*
X466105Y1357375D02*
X492612Y1358996D01*
X353931Y1363925D02*
X502477D01*
X512250Y1354152D01*
X350106Y1367750D02*
X353931Y1363925D01*
X482859Y1232636D02*
X509250Y1234250D01*
X402571Y1235634D02*
X402938Y1236000D01*
X402062Y1235125D02*
X402571Y1235634D01*
X403973Y1236000D02*
X482247Y1232630D01*
X402938Y1236000D02*
X403973D01*
X544153Y1033625D02*
X546750D01*
X280019Y1168875D02*
X281894Y1170750D01*
X292500D01*
X266340Y1168875D02*
X280019D01*
X414885Y1067625D02*
X421260Y1061250D01*
X342481Y1067625D02*
X414885D01*
X341231Y1059125D02*
X343231Y1057125D01*
X466981D01*
X334821Y1062750D02*
X344500D01*
X344875Y1062375D01*
X341731Y1066875D02*
X342481Y1067625D01*
X336361Y1068244D02*
X337731Y1066875D01*
X341731D01*
X619519Y1065875D02*
X620269Y1066625D01*
X626875Y1075625D02*
X631000Y1071500D01*
X576195Y1074375D02*
X600267D01*
X601517Y1075625D02*
X626875D01*
X566106Y1060500D02*
X568981Y1063375D01*
X600267Y1074375D02*
X601517Y1075625D01*
X535269Y1065875D02*
X619519D01*
X568981Y1063375D02*
X625500D01*
X626216Y1062659D01*
X620269Y1066625D02*
X633019D01*
X574944Y1075625D02*
X576195Y1074375D01*
X536250Y1076375D02*
X537000Y1075625D01*
X574944D01*
X592020Y1087625D02*
X608269D01*
X612144Y1083750D02*
X618355D01*
X622230Y1087625D01*
X608269D02*
X612144Y1083750D01*
X622230Y1087625D02*
X626269D01*
X628875Y1085019D02*
X633231D01*
X626269Y1087625D02*
X628875Y1085019D01*
X516019Y1095875D02*
X651625D01*
X511197Y1091052D02*
X516019Y1095875D01*
X651625D02*
X671500Y1115750D01*
X581269Y1076875D02*
X592020Y1087625D01*
X423742Y1334515D02*
X424382Y1333875D01*
X454831D01*
X457081Y1336125D01*
X525561Y1334114D02*
X576564D01*
X523550Y1336125D02*
X525561Y1334114D01*
X457081Y1336125D02*
X523550D01*
X633231Y1085019D02*
X633750Y1084500D01*
X634375Y1085125D01*
X644769D01*
X321106Y1235125D02*
X402062D01*
X287745Y1236764D02*
X288981Y1238000D01*
X318231D01*
X321106Y1235125D01*
X280056Y1233651D02*
X283169Y1236764D01*
X287745D01*
X317118Y1263375D02*
X326519D01*
X337161Y1259481D02*
X340608Y1262928D01*
X330414Y1259481D02*
X337161D01*
X304005Y1268625D02*
X330875D01*
X336125D02*
X371805D01*
X335519Y1269231D02*
X336125Y1268625D01*
X326519Y1263375D02*
X330414Y1259481D01*
X330875Y1268625D02*
X331481Y1269231D01*
X335519D01*
X315008Y1261264D02*
X317118Y1263375D01*
X276880Y1261264D02*
X315008D01*
X371805Y1268625D02*
X378875Y1261555D01*
X272019Y1266125D02*
X276880Y1261264D01*
X299144Y1263764D02*
X304005Y1268625D01*
X297693Y1279999D02*
X322274D01*
X322650Y1280375D02*
X347231D01*
X322274Y1279999D02*
X322650Y1280375D01*
X307019Y1323875D02*
X310269Y1320625D01*
X319544Y1309000D02*
X320169Y1308375D01*
X302250Y1309000D02*
X319544D01*
X382281Y1320625D02*
X384981Y1323325D01*
X329847Y1316875D02*
X331098Y1318125D01*
X298064Y1316875D02*
X329847D01*
X335269Y1308375D02*
X352619Y1291025D01*
X306625Y1323875D02*
X307019D01*
X350875Y1318125D02*
X355750Y1313250D01*
X331098Y1318125D02*
X350875D01*
X320169Y1308375D02*
X335269D01*
X310269Y1320625D02*
X382281D01*
X277915Y1263764D02*
X299144D01*
X273055Y1268625D02*
X277915Y1263764D01*
X245625Y1268625D02*
X273055D01*
X237750Y1260750D02*
X245625Y1268625D01*
X454750Y1433250D02*
X459875Y1428125D01*
X357950Y1433250D02*
X454750D01*
X349700Y1425000D02*
X357950Y1433250D01*
X354625Y1403125D02*
X380739D01*
X381364Y1402500D01*
X382400Y1405000D02*
X455908D01*
X456640Y1404268D01*
Y1398966D02*
Y1404268D01*
X449570Y1402500D02*
X458945Y1393125D01*
X448535Y1400000D02*
X457910Y1390625D01*
X362400Y1425000D02*
X382400Y1405000D01*
X381364Y1402500D02*
X449570D01*
X348500Y1409250D02*
X354625Y1403125D01*
X459875Y1409981D02*
Y1428125D01*
Y1409981D02*
X462000Y1407856D01*
X464750Y1405660D02*
X466875Y1403535D01*
Y1398481D02*
Y1403535D01*
X464750Y1405660D02*
Y1412000D01*
X462000Y1400500D02*
Y1407856D01*
X464019Y1395625D02*
X466875Y1398481D01*
X456640Y1398966D02*
X459981Y1395625D01*
X457910Y1390625D02*
X604731D01*
X459981Y1395625D02*
X464019D01*
X458945Y1393125D02*
X590125D01*
X347000Y1409250D02*
X348500D01*
X283225Y1280400D02*
Y1280489D01*
Y1280400D02*
X288409Y1275216D01*
X320500Y1340750D02*
X377400D01*
X387000Y1331150D01*
X390055Y1349175D02*
X390505Y1349625D01*
X349030Y1349175D02*
X390055D01*
X346579Y1351625D02*
X349030Y1349175D01*
X317250Y1351250D02*
X317625Y1351625D01*
X346579D01*
X317175Y1361425D02*
X461019D01*
X316750Y1361000D02*
X317175Y1361425D01*
X289314Y1308125D02*
X298064Y1316875D01*
X226625Y1308125D02*
X289314D01*
X292910Y1275216D02*
X297693Y1279999D01*
X233125Y1285875D02*
X291893D01*
X296143Y1290125D02*
X344375D01*
X291893Y1285875D02*
X296143Y1290125D01*
X222250Y1296750D02*
X233125Y1285875D01*
X344375Y1290125D02*
X349500Y1285000D01*
X288409Y1275216D02*
X292910D01*
X308750Y1091500D02*
X308894Y1091644D01*
X308750Y1091500D02*
X329284D01*
X308894Y1091644D02*
Y1098250D01*
X329284Y1091500D02*
X330534Y1092750D01*
X349033D01*
X350731Y1091052D01*
X511197D01*
X284019Y1123125D02*
X308894Y1098250D01*
X279981Y1123125D02*
X284019D01*
X277125Y1112161D02*
Y1120269D01*
X284875Y1095017D02*
Y1104411D01*
X235580Y1045722D02*
X284875Y1095017D01*
X277125Y1120269D02*
X279981Y1123125D01*
X277125Y1112161D02*
X284875Y1104411D01*
X287375Y1088340D02*
Y1112875D01*
X282000Y1118250D02*
X287375Y1112875D01*
X311930Y1045222D02*
X320958Y1054250D01*
X543500Y1131750D02*
X554750Y1120500D01*
X631106D02*
X634356Y1123750D01*
X554750Y1120500D02*
X631106D01*
X494945Y1338625D02*
X504195Y1347875D01*
X604965Y1245125D02*
X607340Y1242750D01*
X608625Y1242910D02*
X611410D01*
X501500Y1252500D02*
X505875Y1248125D01*
X607340Y1242750D02*
X608625D01*
X601909Y1247375D02*
X604160Y1245125D01*
X622090Y1244875D02*
X623375D01*
X555285Y1249875D02*
X602945D01*
X505875Y1248125D02*
X553535D01*
X619340Y1247625D02*
X622090Y1244875D01*
X616144Y1256000D02*
X633125D01*
X553535Y1248125D02*
X555285Y1249875D01*
X604160Y1245125D02*
X604965D01*
X605195Y1247625D02*
X619340D01*
X577230Y1076875D02*
X581269D01*
X567230Y1053875D02*
X569030Y1052075D01*
X603028Y1052597D02*
X636505D01*
X569030Y1052075D02*
X602506D01*
X603028Y1052597D01*
X636505D02*
X643880Y1045222D01*
X626216Y1062659D02*
X629841D01*
X641841Y1075447D02*
Y1079341D01*
X642750Y1080250D01*
X633019Y1066625D02*
X641841Y1075447D01*
X629841Y1062659D02*
X630750Y1061750D01*
X532769Y1068375D02*
X535269Y1065875D01*
X508590Y1068375D02*
X532769D01*
X550000Y1060500D02*
X566106D01*
X258236Y1220824D02*
X258431D01*
X265857Y1228250D01*
X294625Y1127836D02*
X395528D01*
X346789Y1109250D02*
X353414Y1102625D01*
X335489Y1109250D02*
X346789D01*
X341481Y1204625D02*
X346980Y1210125D01*
X544269Y1209375D02*
X556019D01*
X539769Y1213875D02*
X544269Y1209375D01*
X512023Y1213875D02*
X539769D01*
X508273Y1210125D02*
X512023Y1213875D01*
X556019Y1209375D02*
X563875Y1217231D01*
X346980Y1210125D02*
X508273D01*
X618262Y1236975D02*
X618924Y1236313D01*
X643200Y1231300D02*
X644000Y1230500D01*
X605300Y1231300D02*
X643200D01*
X605250Y1231250D02*
X605300Y1231300D01*
X603231Y1236975D02*
X618262D01*
X599381Y1235937D02*
X602192D01*
X600491Y1230153D02*
X601530Y1231191D01*
X605191D01*
X598472Y1235028D02*
X599381Y1235937D01*
X605250Y1231250D02*
Y1232100D01*
X605191Y1231191D02*
X605250Y1231250D01*
X602192Y1235937D02*
X603231Y1236975D01*
X573759Y1230153D02*
X600491D01*
X559321Y1235028D02*
X598472D01*
X485893Y1188500D02*
X626000D01*
X274130Y1044972D02*
X286830D01*
X286580Y1005972D02*
X286705Y1006097D01*
Y1044847D01*
X286830Y1044972D01*
X273880Y1005972D02*
X286580D01*
X459375Y1205000D02*
X464250Y1200125D01*
X383082Y1205000D02*
X459375D01*
X376957Y1198875D02*
X383082Y1205000D01*
X341019Y1198875D02*
X376957D01*
X339769Y1200125D02*
X341019Y1198875D01*
X298070Y1199875D02*
X298321Y1200125D01*
X250875Y1199875D02*
X298070D01*
X298321Y1200125D02*
X339769D01*
X246500Y1195500D02*
X250875Y1199875D01*
X337750Y1195250D02*
X479143D01*
X608250Y1255000D02*
X614125Y1260875D01*
X647888D01*
X650762Y1258000D01*
X672750D01*
X610269Y1250125D02*
X616144Y1256000D01*
X245500Y1174750D02*
X260465D01*
X266340Y1168875D01*
X302090Y1246125D02*
X366833D01*
X300590Y1247625D02*
X302090Y1246125D01*
X366833D02*
X371875Y1251167D01*
X221500Y1261250D02*
X235126Y1247625D01*
X300590D01*
X589091Y1258159D02*
X591591D01*
X588500Y1258750D02*
X589091Y1258159D01*
X611410Y1242910D02*
X611750Y1243250D01*
X537000Y1253000D02*
X537625Y1252375D01*
X603981D01*
X602945Y1249875D02*
X605195Y1247625D01*
X606231Y1250125D02*
X610269D01*
X582340Y1247375D02*
X601909D01*
X603981Y1252375D02*
X606231Y1250125D01*
X591591Y1258159D02*
X592500Y1257250D01*
X611750Y1243250D02*
X615000Y1240000D01*
X445644Y1251250D02*
X446894Y1252500D01*
X501500D01*
X422250Y1251250D02*
X445644D01*
X547625Y1258750D02*
X588500D01*
X550910Y1219625D02*
X552285Y1218250D01*
X514237Y1219625D02*
X550910D01*
X507237Y1212625D02*
X514237Y1219625D01*
X461544Y1338750D02*
X461670Y1338625D01*
X434000Y1338750D02*
X461544D01*
X461670Y1338625D02*
X494945D01*
X512250Y1353356D02*
Y1354152D01*
X265857Y1228250D02*
X486000D01*
X496750Y1217500D01*
X352619Y1291025D02*
X437975D01*
X443750Y1285250D01*
X669500Y1358250D02*
X679000Y1348750D01*
X635250Y1358250D02*
X669500D01*
X679750Y1348250D02*
X695750D01*
X592965Y1185250D02*
X594806Y1183409D01*
X449915Y1182750D02*
X452415Y1185250D01*
X594806Y1183409D02*
X595159D01*
X338875Y1182725D02*
X384455D01*
X384481Y1182750D02*
X449915D01*
X543750Y1179750D02*
X548000Y1175500D01*
X640750D01*
X452415Y1185250D02*
X592965D01*
X655000Y1173000D02*
X670000Y1188000D01*
X342158Y1173000D02*
X655000D01*
X339682Y1175476D02*
X342158Y1173000D01*
X384455Y1182725D02*
X384481Y1182750D01*
X595159Y1183409D02*
X596250Y1184500D01*
X640750Y1175500D02*
X647500Y1182250D01*
X644769Y1085125D02*
X655750Y1074145D01*
X542500Y1080000D02*
X574105D01*
X577230Y1076875D01*
X655750Y1063750D02*
Y1074145D01*
X657035Y1063750D02*
X658785Y1062000D01*
X671750D01*
X655750Y1063750D02*
X657035D01*
X481320Y1128755D02*
X481591Y1128483D01*
X490321Y1133630D02*
X494991Y1138299D01*
X478265Y1121379D02*
X484375D01*
X397454Y1122375D02*
X436362D01*
X437362Y1123375D02*
X476269D01*
X477305Y1125875D02*
X479300Y1123879D01*
X395528Y1127836D02*
X398490Y1124875D01*
X476269Y1123375D02*
X478265Y1121379D01*
X479300Y1123879D02*
X483339D01*
X427357Y1124875D02*
X428357Y1125875D01*
X483339Y1123879D02*
X484835Y1125375D01*
X498621Y1124375D02*
X500229Y1125983D01*
X442271Y1133630D02*
X490321D01*
X484375Y1121379D02*
X485870Y1122875D01*
X441051Y1132409D02*
X442271Y1133630D01*
X481591Y1128483D02*
X493373D01*
X428357Y1125875D02*
X477305D01*
X436362Y1122375D02*
X437362Y1123375D01*
X398490Y1124875D02*
X427357D01*
X492228Y1124375D02*
X498621D01*
X485870Y1122875D02*
X490193D01*
X491959Y1121108D01*
X491228Y1125375D02*
X492228Y1124375D01*
X484835Y1125375D02*
X491228D01*
X491959Y1121108D02*
X502248D01*
X352750Y1095927D02*
X475072D01*
X476894Y1097750D01*
X511000D01*
X418028Y1102625D02*
X423278Y1107875D01*
X489769D01*
X491437Y1106207D01*
X479143Y1195250D02*
X485893Y1188500D01*
X396954Y1122875D02*
X397454Y1122375D01*
X512052Y1111082D02*
X512085Y1111050D01*
X359924Y1114201D02*
X363043Y1111082D01*
X512052D01*
X491437Y1106207D02*
X505674D01*
X353414Y1102625D02*
X418028D01*
X356250Y1115110D02*
X357159Y1114201D01*
X359924D01*
X356094Y1122000D02*
X366356D01*
X355751Y1122343D02*
X356094Y1122000D01*
X284000Y1068250D02*
Y1084965D01*
X287375Y1088340D01*
X284000Y1068250D02*
X300394D01*
X304644Y1064000D01*
X333571D01*
X334821Y1062750D01*
X330076Y1068875D02*
X330707Y1068244D01*
X336361D01*
X420625Y1136625D02*
X489781D01*
X414730Y1130730D02*
X420625Y1136625D01*
X508568Y1124113D02*
X509477Y1123204D01*
X506138Y1124113D02*
X508568D01*
X504268Y1125983D02*
X506138Y1124113D01*
X400254Y1137162D02*
X405217Y1142125D01*
X491745D01*
X414730Y1130286D02*
Y1130730D01*
X367231Y1122875D02*
X396954D01*
X400254Y1130004D02*
Y1137162D01*
X366356Y1122000D02*
X367231Y1122875D01*
X344875Y1062375D02*
X397625D01*
X398000Y1062000D01*
X331552Y1059125D02*
X341231D01*
X339750Y1071750D02*
X396544D01*
X421260Y1061250D02*
X468019D01*
X466981Y1057125D02*
X468606Y1058750D01*
X491957Y1061375D02*
X492957Y1060375D01*
X468606Y1058750D02*
X469055D01*
X468144Y1061375D02*
X491957D01*
X492957Y1060375D02*
X505127D01*
X469305Y1160375D02*
X485769D01*
X470644Y1155500D02*
X483750D01*
X487394Y1158750D02*
X499250D01*
X467805Y1161875D02*
X469305Y1160375D01*
X485769D02*
X487394Y1158750D01*
X357500Y1153750D02*
X457106D01*
X466769Y1159375D02*
X470644Y1155500D01*
X462731Y1159375D02*
X466769D01*
X457106Y1153750D02*
X462731Y1159375D01*
X459195D02*
X461695Y1161875D01*
X467805D01*
X423608Y1159375D02*
X459195D01*
X422858Y1158625D02*
X423608Y1159375D01*
X407607Y1148875D02*
X409357Y1147125D01*
X355106Y1158250D02*
X355481Y1158625D01*
X347750Y1158250D02*
X355106D01*
X338250Y1150250D02*
X354106D01*
X355481Y1158625D02*
X422858D01*
X354106Y1150250D02*
X355481Y1148875D01*
X407607D01*
X260906Y1233651D02*
X280056D01*
X384625Y1251000D02*
Y1251433D01*
X395966Y1251091D02*
X396875Y1252000D01*
X381144Y1254913D02*
X384625Y1251433D01*
X392091Y1251091D02*
X395966D01*
X379606Y1246125D02*
X387125D01*
X392091Y1251091D01*
X376750Y1248981D02*
Y1253186D01*
Y1248981D02*
X379606Y1246125D01*
X280250Y1251000D02*
X364250D01*
X347231Y1280375D02*
X347481Y1280125D01*
X455445D02*
X460695Y1285375D01*
X347481Y1280125D02*
X455445D01*
X392345Y1320000D02*
X447850D01*
X389020Y1323325D02*
X392345Y1320000D01*
X447850D02*
X459000Y1331150D01*
X384981Y1323325D02*
X389020D01*
X552625Y1280625D02*
X556500Y1276750D01*
X486488Y1280500D02*
X486613Y1280625D01*
X460831Y1280500D02*
X486488D01*
X486613Y1280625D02*
X552625D01*
X510400Y1266900D02*
X513250Y1269750D01*
X439025Y1266900D02*
X510400D01*
X513250Y1269750D02*
X548500D01*
X460695Y1285375D02*
X468000D01*
X451331Y1271000D02*
X460831Y1280500D01*
X548500Y1269750D02*
X549250Y1270500D01*
X411500Y1212625D02*
X507237D01*
X283250Y1212250D02*
X320356D01*
X322481Y1214375D01*
X409750D01*
X411500Y1212625D01*
X338740Y1175476D02*
X339682D01*
X437409Y1132409D02*
X441051D01*
X436500Y1131500D02*
X437409Y1132409D01*
X489781Y1136625D02*
X493955Y1140799D01*
X512015Y1142125D02*
X535036D01*
X538036Y1139125D02*
X563554D01*
X510840Y1143300D02*
X512015Y1142125D01*
X513979Y1136625D02*
X562519D01*
X535036Y1142125D02*
X538036Y1139125D01*
X509805Y1140799D02*
X513979Y1136625D01*
X515318Y1131750D02*
X543500D01*
X508769Y1138299D02*
X515318Y1131750D01*
X494991Y1138299D02*
X508769D01*
X493955Y1140799D02*
X509805D01*
X492920Y1143300D02*
X510840D01*
X491745Y1142125D02*
X492920Y1143300D01*
X543383Y1148883D02*
X550375Y1155875D01*
X543126Y1148883D02*
X543383D01*
X493373Y1128483D02*
X494981Y1126875D01*
X497586D01*
X499194Y1128483D02*
X505303D01*
X500229Y1125983D02*
X504268D01*
X497586Y1126875D02*
X499194Y1128483D01*
X444835Y1349625D02*
X450610Y1343850D01*
X387000D02*
X387450Y1344300D01*
X390505Y1349625D02*
X444835D01*
X439300Y1344300D02*
X439750Y1344750D01*
X387450Y1344300D02*
X439300D01*
X438250Y1266125D02*
X439025Y1266900D01*
X430500Y1271000D02*
X451331D01*
X555125Y1070875D02*
X555250Y1070750D01*
X398294Y1073500D02*
X507001D01*
X509625Y1070875D01*
X555125D01*
X453250Y1071000D02*
X505965D01*
X508590Y1068375D01*
X396544Y1071750D02*
X398294Y1073500D01*
X449500Y1067250D02*
X453250Y1071000D01*
X565625Y1131625D02*
X570500Y1126750D01*
X565625Y1131625D02*
Y1133519D01*
X566463Y1137358D02*
X569321Y1134500D01*
X565322Y1137358D02*
X566463D01*
X569321Y1134500D02*
X570500D01*
X562519Y1136625D02*
X565625Y1133519D01*
X563554Y1139125D02*
X565322Y1137358D01*
X441099Y1147125D02*
X443474Y1149500D01*
X476500D01*
X575410Y1155875D02*
X582536Y1148750D01*
X409357Y1147125D02*
X441099D01*
X550375Y1155875D02*
X575410D01*
X582536Y1148750D02*
X647500D01*
X716644Y1224000D02*
X721500D01*
X716519Y1224125D02*
X716644Y1224000D01*
X640340Y1218250D02*
X646215Y1224125D01*
X705546Y1210296D02*
X714500Y1219250D01*
X646215Y1224125D02*
X716519D01*
X568750Y1218250D02*
X640340D01*
X563875Y1220269D02*
X573759Y1230153D01*
X563875Y1217231D02*
Y1220269D01*
X553500Y1218250D02*
X554125Y1218875D01*
X558625D02*
X559000Y1219250D01*
X567691Y1210296D02*
X705546D01*
X552285Y1218250D02*
X553500D01*
X554125Y1218875D02*
X558625D01*
X307669Y1204625D02*
X341481D01*
X286500Y1204750D02*
X307544D01*
X307669Y1204625D01*
X670000Y1188000D02*
Y1188500D01*
X520108Y1236376D02*
X557973D01*
X559321Y1235028D01*
X618924Y1236313D02*
X638937D01*
X639000Y1236250D01*
X579215Y1244250D02*
X582340Y1247375D01*
X563500Y1244250D02*
X579215D01*
X505707Y1128079D02*
X529719D01*
X505303Y1128483D02*
X505707Y1128079D01*
X510929Y1227197D02*
X520108Y1236376D01*
X529719Y1128079D02*
X534747Y1123051D01*
X535690D01*
X572250Y1108500D02*
X591500D01*
X565750Y1102000D02*
X572250Y1108500D01*
X484750Y1054000D02*
X484875Y1053875D01*
X630271Y1044313D02*
X631180Y1045222D01*
X491921Y1057875D02*
X515739D01*
X516489Y1058625D02*
X542375D01*
X515739Y1057875D02*
X516489Y1058625D01*
X469055Y1058750D02*
X469180Y1058875D01*
X490921D01*
X468019Y1061250D02*
X468144Y1061375D01*
X490921Y1058875D02*
X491921Y1057875D01*
X505127Y1060375D02*
X508252Y1063500D01*
X530750D01*
X457453Y1046443D02*
X471911D01*
X452646Y1051250D02*
X457453Y1046443D01*
X331893Y1051250D02*
X452646D01*
X469500Y1054250D02*
X470250Y1053500D01*
X320958Y1054250D02*
X469500D01*
X634356Y1123750D02*
X635000D01*
X547875Y1158875D02*
X613375D01*
X620000Y1165500D01*
X406769Y1026375D02*
X411644Y1031250D01*
X335231Y1027625D02*
X343856Y1036250D01*
X546750Y1033625D02*
X547000Y1033875D01*
X612695D01*
X629500Y1021750D02*
X629500Y1021750D01*
X568564Y1021750D02*
X629500D01*
X569600Y1019250D02*
X625106D01*
X627481Y1016875D01*
X623460Y1037791D02*
X625169Y1039500D01*
X622424Y1040291D02*
X626446Y1044313D01*
X501082Y1012650D02*
X507494D01*
X500047Y1010150D02*
X514064D01*
X625169Y1039500D02*
X632352D01*
X622389Y1035291D02*
X623805Y1033875D01*
X613481Y1031125D02*
X615147Y1032791D01*
X614111Y1035291D02*
X622389D01*
X615147Y1032791D02*
X620269D01*
X612695Y1033875D02*
X614111Y1035291D01*
X636055Y1043203D02*
Y1047241D01*
X632352Y1039500D02*
X636055Y1043203D01*
X626446Y1044313D02*
X630271D01*
X633199Y1050097D02*
X636055Y1047241D01*
X628695Y1050097D02*
X633199D01*
X624320Y1045722D02*
X628695Y1050097D01*
X618530Y1045722D02*
X624320D01*
X381144Y1254913D02*
Y1256500D01*
X300500Y1018750D02*
X301528D01*
X627481Y1016875D02*
X631519D01*
X332928Y1027125D02*
X333428Y1027625D01*
X632555Y1014375D02*
X634930Y1016750D01*
X333428Y1027625D02*
X335231D01*
X624070Y1016750D02*
X626445Y1014375D01*
X574785Y1016750D02*
X624070D01*
X626445Y1014375D02*
X632555D01*
X328625Y1027125D02*
X332928D01*
X344500Y1367750D02*
X350106D01*
X370936Y1259000D02*
X376750Y1253186D01*
X356000Y1259000D02*
X370936D01*
X378875Y1258769D02*
X381144Y1256500D01*
X378875Y1258769D02*
Y1261555D01*
X325865Y1045222D02*
X331893Y1051250D01*
X324630Y1045222D02*
X325865D01*
X543500Y1163250D02*
X547875Y1158875D01*
X635856Y1240000D02*
X636981Y1241125D01*
X639385Y1243500D02*
X650750D01*
X636981Y1241125D02*
X637010D01*
X639385Y1243500D01*
X542375Y1058625D02*
X542500Y1058750D01*
X450610Y1343850D02*
X459000D01*
X270000Y1261250D02*
X280250Y1251000D01*
X263105Y1261250D02*
X267980Y1266125D01*
X272019D01*
X254000Y1261250D02*
X263105D01*
X222000Y1312750D02*
X226625Y1308125D01*
X615000Y1240000D02*
X635856D01*
X650750Y1243500D02*
X655625Y1248375D01*
X678769D02*
X684644Y1242500D01*
X655625Y1248375D02*
X678769D01*
X684644Y1242500D02*
X691750D01*
X639000Y1236250D02*
X646215D01*
X647964Y1238000D02*
X652144D01*
X646215Y1236250D02*
X647964Y1238000D01*
X654519Y1240375D02*
X663750D01*
X665500Y1238625D01*
X671875D01*
X652144Y1238000D02*
X654519Y1240375D01*
X671875Y1238625D02*
X676750Y1243500D01*
X644000Y1230500D02*
X649000Y1235500D01*
X660000D01*
X570000Y1348750D02*
G03*
X570000Y1348750I-500J0D01*
G01*
X677000Y1084250D02*
G03*
X677000Y1084250I-500J0D01*
G01*
X578750Y1059750D02*
G03*
X578750Y1059750I-500J0D01*
G01*
X658250Y1349500D02*
G03*
X658250Y1349500I-500J0D01*
G01*
D68*
X606250Y1409875D02*
D03*
X618750D02*
D03*
X340000Y1405000D02*
D03*
X400000Y1025000D02*
D03*
X391053Y1027053D02*
D03*
X321000Y1020125D02*
D03*
X336483D02*
D03*
X329233Y1020125D02*
D03*
X665000Y1025000D02*
D03*
X657269Y1015250D02*
D03*
X642838Y1014838D02*
D03*
X650000Y1025000D02*
D03*
X523150Y1030611D02*
D03*
X535000Y1025000D02*
D03*
X545000D02*
D03*
X292500Y1170750D02*
D03*
X345000Y1062500D02*
D03*
X398524Y1062401D02*
D03*
X423742Y1334515D02*
D03*
X576564Y1334114D02*
D03*
X645000Y1334250D02*
D03*
X323125Y1240000D02*
D03*
Y1258500D02*
D03*
X340608Y1262928D02*
D03*
X438580Y1425222D02*
D03*
X451280D02*
D03*
X464750Y1412000D02*
D03*
X462000Y1400500D02*
D03*
X491200Y1385000D02*
D03*
X478500D02*
D03*
X478750Y1425000D02*
D03*
X491450D02*
D03*
X283225Y1280489D02*
D03*
X320500Y1340750D02*
D03*
X316750Y1361000D02*
D03*
X317250Y1351250D02*
D03*
X302250Y1309000D02*
D03*
X308750Y1091500D02*
D03*
X576500Y1347875D02*
D03*
X280000Y1101750D02*
D03*
X311930Y1045222D02*
D03*
X671500Y1115750D02*
D03*
X623375Y1244875D02*
D03*
X608625Y1242750D02*
D03*
X633125Y1256000D02*
D03*
X631000Y1071500D02*
D03*
X630750Y1061750D02*
D03*
X258236Y1220824D02*
D03*
X294625Y1127836D02*
D03*
X343782Y1118282D02*
D03*
X335489Y1109250D02*
D03*
X266750Y1149750D02*
D03*
X605250Y1232100D02*
D03*
X598472Y1235028D02*
D03*
X626000Y1188250D02*
D03*
X337750Y1195250D02*
D03*
X246500Y1195500D02*
D03*
X266750Y1102250D02*
D03*
X245500Y1174750D02*
D03*
X275750Y1174250D02*
D03*
X237750Y1260750D02*
D03*
X254000Y1261250D02*
D03*
X685500Y1146000D02*
D03*
X689250Y1275000D02*
D03*
X672750D02*
D03*
X592250Y1272250D02*
D03*
X608250D02*
D03*
X592500Y1257250D02*
D03*
X537000Y1253000D02*
D03*
X547625Y1258750D02*
D03*
X504183Y1355325D02*
D03*
X480750Y1223375D02*
D03*
X418750Y1286149D02*
D03*
X635250Y1358250D02*
D03*
X679000Y1348750D02*
D03*
X695750Y1348250D02*
D03*
X416250Y1371250D02*
D03*
X559625Y1180375D02*
D03*
X543250Y1081000D02*
D03*
X474250Y1118500D02*
D03*
X481320Y1128755D02*
D03*
X488000Y1118000D02*
D03*
X399500Y1285250D02*
D03*
X399250Y1269250D02*
D03*
X412750Y1268750D02*
D03*
X464250Y1200125D02*
D03*
X446750Y1117500D02*
D03*
X356250Y1115110D02*
D03*
X355751Y1122343D02*
D03*
X352750Y1095927D02*
D03*
X244500Y1091750D02*
D03*
X282000Y1118250D02*
D03*
X284000Y1068250D02*
D03*
X330076Y1068875D02*
D03*
X400254Y1130004D02*
D03*
X414730Y1130286D02*
D03*
X339750Y1071750D02*
D03*
X483750Y1155500D02*
D03*
X357500Y1153750D02*
D03*
X396875Y1252000D02*
D03*
X384625Y1251000D02*
D03*
X371875Y1251167D02*
D03*
X364250Y1251000D02*
D03*
X480250Y1272500D02*
D03*
X468000Y1285375D02*
D03*
X496750Y1217500D02*
D03*
X486463Y1178713D02*
D03*
X688500Y1187750D02*
D03*
X721500Y1103500D02*
D03*
X706750Y1024500D02*
D03*
X436500Y1131500D02*
D03*
X543126Y1148883D02*
D03*
X502248Y1121108D02*
D03*
X422250Y1251250D02*
D03*
X434000Y1338750D02*
D03*
X439750Y1344750D02*
D03*
X430500Y1271000D02*
D03*
X438250Y1266125D02*
D03*
X549250Y1270500D02*
D03*
X556500Y1276750D02*
D03*
X536250Y1076375D02*
D03*
X449500Y1067250D02*
D03*
X570500Y1134500D02*
D03*
Y1126750D02*
D03*
X476500Y1149500D02*
D03*
X714500Y1219250D02*
D03*
X721500Y1224000D02*
D03*
X559000Y1219250D02*
D03*
X567691Y1210296D02*
D03*
X568750Y1218250D02*
D03*
X670000Y1188500D02*
D03*
X597000Y1182500D02*
D03*
X338875Y1182725D02*
D03*
X338740Y1175476D02*
D03*
X563500Y1244250D02*
D03*
X286500Y1204750D02*
D03*
X283250Y1212250D02*
D03*
X347750Y1158250D02*
D03*
X499250Y1158750D02*
D03*
X338250Y1150250D02*
D03*
X510929Y1227197D02*
D03*
X509477Y1123204D02*
D03*
X535690Y1123051D02*
D03*
X591500Y1108750D02*
D03*
X565750Y1102000D02*
D03*
X550000Y1060500D02*
D03*
X631180Y1045222D02*
D03*
X484750Y1054000D02*
D03*
X642750Y1080250D02*
D03*
X471911Y1046443D02*
D03*
X479045Y1045156D02*
D03*
X470250Y1053500D02*
D03*
X511000Y1097750D02*
D03*
X505674Y1106207D02*
D03*
X505475Y1017525D02*
D03*
X349500Y1285000D02*
D03*
X347250Y1410500D02*
D03*
X512000Y1353500D02*
D03*
X647500Y1148750D02*
D03*
X300500Y1018750D02*
D03*
X629500Y1021750D02*
D03*
X293000Y1017500D02*
D03*
X344500Y1367750D02*
D03*
X443750Y1285250D02*
D03*
X260906Y1233651D02*
D03*
X509250Y1234250D02*
D03*
X356000Y1259000D02*
D03*
X512085Y1111050D02*
D03*
X274130Y1044972D02*
D03*
X286830D02*
D03*
X331552Y1059125D02*
D03*
X620000Y1165500D02*
D03*
X543500Y1163250D02*
D03*
X561000Y1163750D02*
D03*
X543500Y1131750D02*
D03*
X635000Y1123750D02*
D03*
X639000Y1236250D02*
D03*
X560250Y1148500D02*
D03*
X560499Y1131750D02*
D03*
X560750Y1113750D02*
D03*
X671750Y1062000D02*
D03*
X655750Y1063750D02*
D03*
X555250Y1070750D02*
D03*
X542500Y1058750D02*
D03*
X530750Y1063500D02*
D03*
X306625Y1323875D02*
D03*
X459000Y1331150D02*
D03*
Y1343850D02*
D03*
X387000Y1318450D02*
D03*
Y1343850D02*
D03*
Y1331150D02*
D03*
X270000Y1261250D02*
D03*
X221500D02*
D03*
X355750Y1313250D02*
D03*
X491380Y1045222D02*
D03*
X618530Y1045722D02*
D03*
X643880Y1045222D02*
D03*
X720280Y1045722D02*
D03*
X694880D02*
D03*
X707580D02*
D03*
X720280Y1005722D02*
D03*
X694880D02*
D03*
X707580D02*
D03*
X478680Y1005972D02*
D03*
X491380D02*
D03*
X235580Y1045722D02*
D03*
X324630Y1045222D02*
D03*
X451530Y1045472D02*
D03*
X438830D02*
D03*
X451530Y1005722D02*
D03*
X438830D02*
D03*
X273880Y1005972D02*
D03*
X286580D02*
D03*
X451030Y1386222D02*
D03*
X438330D02*
D03*
X362400Y1425000D02*
D03*
X349700D02*
D03*
X210000Y1386000D02*
D03*
X222700D02*
D03*
X235400D02*
D03*
Y1425000D02*
D03*
X222700D02*
D03*
X210000D02*
D03*
X222000Y1312750D02*
D03*
X222250Y1296750D02*
D03*
X543750Y1179750D02*
D03*
X647500Y1182250D02*
D03*
X672750Y1258000D02*
D03*
X608250Y1255000D02*
D03*
X660000Y1235500D02*
D03*
X691750Y1242500D02*
D03*
X676750Y1243500D02*
D03*
X644000Y1230500D02*
D03*
X650750Y1243500D02*
D03*
D71*
X609500Y1360750D02*
D03*
X492971Y1353132D02*
D03*
X287750Y1320250D02*
D03*
X305250Y1336000D02*
D03*
M02*
