G04*
G04 #@! TF.GenerationSoftware,Altium Limited,Altium Designer,24.4.1 (13)*
G04*
G04 Layer_Color=13278208*
%FSLAX44Y44*%
%MOMM*%
G71*
G04*
G04 #@! TF.SameCoordinates,9A945CEE-F102-44BA-A3C3-DB53B066AAF5*
G04*
G04*
G04 #@! TF.FilePolarity,Positive*
G04*
G01*
G75*
%ADD92C,0.0500*%
%ADD93C,0.1000*%
D92*
X621500Y1227750D02*
X656500D01*
X621500Y1197750D02*
Y1227750D01*
Y1197750D02*
X656500D01*
Y1227750D01*
X420250Y1055500D02*
X485250D01*
Y1092500D01*
X420250D02*
X485250D01*
X420250Y1055500D02*
Y1092500D01*
X686300Y1202450D02*
Y1223050D01*
X665700D02*
X686300D01*
X665700Y1202450D02*
Y1223050D01*
Y1202450D02*
X686300D01*
X617000Y1197750D02*
Y1227750D01*
X582000Y1197750D02*
X617000D01*
X582000D02*
Y1227750D01*
X617000D01*
D93*
X640500Y1110750D02*
Y1120750D01*
X635500Y1115750D02*
X645500D01*
X593500Y1095750D02*
Y1135750D01*
X687500Y1095750D02*
Y1135750D01*
X593500D02*
X687500D01*
X593500Y1095750D02*
X687500D01*
X640500Y1300000D02*
Y1310000D01*
X635500Y1305000D02*
X645500D01*
X593500Y1285000D02*
Y1325000D01*
X687500Y1285000D02*
Y1325000D01*
X593500D02*
X687500D01*
X593500Y1285000D02*
X687500D01*
X405250Y1056750D02*
Y1090750D01*
X421250Y1056750D02*
Y1090750D01*
X405250Y1056750D02*
X421250D01*
X405250Y1090750D02*
X421250D01*
X413250Y1070750D02*
Y1076750D01*
X410250Y1073750D02*
X416250D01*
X245750Y1234250D02*
Y1270250D01*
X229750D02*
X245750D01*
X229750Y1234250D02*
X245750D01*
X229750D02*
Y1270250D01*
X234750Y1252250D02*
X240750D01*
X237750Y1249250D02*
Y1255250D01*
X262000Y1234750D02*
Y1270750D01*
X246000D02*
X262000D01*
X246000Y1234750D02*
X262000D01*
X246000D02*
Y1270750D01*
X251000Y1252750D02*
X257000D01*
X254000Y1249750D02*
Y1255750D01*
X471750Y1265000D02*
X505750D01*
X471750Y1281000D02*
X505750D01*
Y1265000D02*
Y1281000D01*
X471750Y1265000D02*
Y1281000D01*
X485750Y1273000D02*
X491750D01*
X488750Y1270000D02*
Y1276000D01*
X406800Y1283750D02*
X416800D01*
X411800Y1278750D02*
Y1288750D01*
X356800Y1251250D02*
X469300D01*
X356800Y1316250D02*
X469300D01*
X356800Y1251250D02*
Y1316250D01*
X469300Y1251250D02*
Y1316250D01*
X403750Y1091000D02*
Y1127000D01*
Y1091000D02*
X419750D01*
X403750Y1127000D02*
X419750D01*
Y1091000D02*
Y1127000D01*
X408750Y1109000D02*
X414750D01*
X411750Y1106000D02*
Y1112000D01*
X621750Y1264501D02*
X657750D01*
X621750Y1248500D02*
Y1264501D01*
X657750Y1248500D02*
Y1264501D01*
X621750Y1248500D02*
X657750D01*
X639750Y1253500D02*
Y1259500D01*
X636750Y1256500D02*
X642750D01*
X621000Y1175000D02*
X657000D01*
X621000Y1159000D02*
Y1175000D01*
X657000Y1159000D02*
Y1175000D01*
X621000Y1159000D02*
X657000D01*
X639000Y1164000D02*
Y1170000D01*
X636000Y1167000D02*
X642000D01*
X277750Y1235500D02*
Y1269500D01*
X293750Y1235500D02*
Y1269500D01*
X277750Y1235500D02*
X293750D01*
X277750Y1269500D02*
X293750D01*
X285750Y1249500D02*
Y1255500D01*
X282750Y1252500D02*
X288750D01*
X489500Y1073750D02*
X495500D01*
X492500Y1070750D02*
Y1076750D01*
X484500Y1090750D02*
X500500D01*
X484500Y1056750D02*
X500500D01*
Y1090750D01*
X484500Y1056750D02*
Y1090750D01*
X425500Y1241500D02*
X431500D01*
X428500Y1238500D02*
Y1244500D01*
X410500Y1233500D02*
X446500D01*
Y1249500D01*
X410500Y1233500D02*
Y1249500D01*
X446500D01*
X297500Y1371000D02*
X337500D01*
X297500Y1353000D02*
X337500D01*
X297500D02*
Y1371000D01*
X337500Y1353000D02*
Y1371000D01*
X312500Y1362000D02*
X322500D01*
X317500Y1357000D02*
Y1367000D01*
X398000Y1106500D02*
Y1112500D01*
X395000Y1109500D02*
X401000D01*
X390000Y1091500D02*
Y1127500D01*
Y1091500D02*
X406000D01*
X390000Y1127500D02*
X406000D01*
Y1091500D02*
Y1127500D01*
X383750Y1106500D02*
Y1112500D01*
X380750Y1109500D02*
X386750D01*
X375750Y1091500D02*
Y1127500D01*
Y1091500D02*
X391750D01*
X375750Y1127500D02*
X391750D01*
Y1091500D02*
Y1127500D01*
X369000Y1106250D02*
Y1112250D01*
X366000Y1109250D02*
X372000D01*
X361000Y1091250D02*
Y1127250D01*
Y1091250D02*
X377000D01*
X361000Y1127250D02*
X377000D01*
Y1091250D02*
Y1127250D01*
X605750Y1163500D02*
X611750D01*
X608750Y1160500D02*
Y1166500D01*
X600750Y1146500D02*
X616750D01*
X600750Y1180500D02*
X616750D01*
X600750Y1146500D02*
Y1180500D01*
X616750Y1146500D02*
Y1180500D01*
X589250Y1163500D02*
X595250D01*
X592250Y1160500D02*
Y1166500D01*
X584250Y1146500D02*
X600250D01*
X584250Y1180500D02*
X600250D01*
X584250Y1146500D02*
Y1180500D01*
X600250Y1146500D02*
Y1180500D01*
X550250Y1225500D02*
Y1231500D01*
X547250Y1228500D02*
X553250D01*
X533250Y1220500D02*
Y1236500D01*
X567250Y1220500D02*
Y1236500D01*
X533250D02*
X567250D01*
X533250Y1220500D02*
X567250D01*
X489000Y1223750D02*
Y1229750D01*
X486000Y1226750D02*
X492000D01*
X506000Y1218750D02*
Y1234750D01*
X472000Y1218750D02*
Y1234750D01*
Y1218750D02*
X506000D01*
X472000Y1234750D02*
X506000D01*
X670000Y1266500D02*
X676000D01*
X673000Y1263500D02*
Y1269500D01*
X665000Y1283500D02*
X681000D01*
X665000Y1249500D02*
X681000D01*
Y1283500D01*
X665000Y1249500D02*
Y1283500D01*
X685925Y1266477D02*
X691925D01*
X688925Y1263476D02*
Y1269476D01*
X680925Y1283477D02*
X696925D01*
X680925Y1249476D02*
X696925D01*
Y1283477D01*
X680925Y1249476D02*
Y1283477D01*
X270000Y1249750D02*
Y1255750D01*
X267000Y1252750D02*
X273000D01*
X278000Y1234750D02*
Y1270750D01*
X262000D02*
X278000D01*
X262000Y1234750D02*
X278000D01*
X262000D02*
Y1270750D01*
X221500Y1249750D02*
Y1255750D01*
X218500Y1252750D02*
X224500D01*
X213500Y1234750D02*
Y1270750D01*
Y1234750D02*
X229500D01*
X213500Y1270750D02*
X229500D01*
Y1234750D02*
Y1270750D01*
X227750Y1313000D02*
X233750D01*
X230750Y1310000D02*
Y1316000D01*
X212750Y1305000D02*
X248750D01*
Y1321000D01*
X212750Y1305000D02*
Y1321000D01*
X248750D01*
X227500Y1345500D02*
X233500D01*
X230500Y1342500D02*
Y1348500D01*
X212500Y1337500D02*
X248500D01*
Y1353500D01*
X212500Y1337500D02*
Y1353500D01*
X248500D01*
X227750Y1297000D02*
X233750D01*
X230750Y1294000D02*
Y1300000D01*
X212750Y1289000D02*
X248750D01*
Y1305000D01*
X212750Y1289000D02*
Y1305000D01*
X248750D01*
X227750Y1329250D02*
X233750D01*
X230750Y1326250D02*
Y1332250D01*
X212750Y1321250D02*
X248750D01*
Y1337250D01*
X212750Y1321250D02*
Y1337250D01*
X248750D01*
X340500Y1109250D02*
X346500D01*
X343500Y1106250D02*
Y1112250D01*
X335500Y1126250D02*
X351500D01*
X335500Y1092250D02*
X351500D01*
Y1126250D01*
X335500Y1092250D02*
Y1126250D01*
X495250Y1175750D02*
Y1181750D01*
X492250Y1178750D02*
X498250D01*
X478250Y1170750D02*
Y1186750D01*
X512250Y1170750D02*
Y1186750D01*
X478250D02*
X512250D01*
X478250Y1170750D02*
X512250D01*
X493500Y1340500D02*
Y1346500D01*
X490500Y1343500D02*
X496500D01*
X510500Y1335500D02*
Y1351500D01*
X476500Y1335500D02*
Y1351500D01*
Y1335500D02*
X510500D01*
X476500Y1351500D02*
X510500D01*
X489250Y1294750D02*
Y1300750D01*
X486250Y1297750D02*
X492250D01*
X506250Y1289750D02*
Y1305750D01*
X472250Y1289750D02*
Y1305750D01*
Y1289750D02*
X506250D01*
X472250Y1305750D02*
X506250D01*
X443000Y1110000D02*
X449000D01*
X446000Y1107000D02*
Y1113000D01*
X438000Y1093000D02*
X454000D01*
X438000Y1127000D02*
X454000D01*
X438000Y1093000D02*
Y1127000D01*
X454000Y1093000D02*
Y1127000D01*
X552000Y1110750D02*
Y1116750D01*
X549000Y1113750D02*
X555000D01*
X569000Y1105750D02*
Y1121750D01*
X535000Y1105750D02*
Y1121750D01*
Y1105750D02*
X569000D01*
X535000Y1121750D02*
X569000D01*
X338750Y1322250D02*
Y1328250D01*
X335750Y1325250D02*
X341750D01*
X321750Y1317250D02*
Y1333250D01*
X355750Y1317250D02*
Y1333250D01*
X321750D02*
X355750D01*
X321750Y1317250D02*
X355750D01*
X321500Y1231000D02*
X327500D01*
X324500Y1228000D02*
Y1234000D01*
X316500Y1214000D02*
X332500D01*
X316500Y1248000D02*
X332500D01*
X316500Y1214000D02*
Y1248000D01*
X332500Y1214000D02*
Y1248000D01*
X412000Y1335500D02*
X418000D01*
X415000Y1332500D02*
Y1338500D01*
X407000Y1318500D02*
X423000D01*
X407000Y1352500D02*
X423000D01*
X407000Y1318500D02*
Y1352500D01*
X423000Y1318500D02*
Y1352500D01*
X321250Y1267750D02*
X327250D01*
X324250Y1264750D02*
Y1270750D01*
X316250Y1284750D02*
X332250D01*
X316250Y1250750D02*
X332250D01*
Y1284750D01*
X316250Y1250750D02*
Y1284750D01*
X470750Y1110000D02*
X476750D01*
X473750Y1107000D02*
Y1113000D01*
X465750Y1127000D02*
X481750D01*
X465750Y1093000D02*
X481750D01*
Y1127000D01*
X465750Y1093000D02*
Y1127000D01*
X670000Y1163750D02*
X676000D01*
X673000Y1160750D02*
Y1166750D01*
X665000Y1146750D02*
X681000D01*
X665000Y1180750D02*
X681000D01*
X665000Y1146750D02*
Y1180750D01*
X681000Y1146750D02*
Y1180750D01*
X486250Y1110000D02*
X492250D01*
X489250Y1107000D02*
Y1113000D01*
X481250Y1127000D02*
X497250D01*
X481250Y1093000D02*
X497250D01*
Y1127000D01*
X481250Y1093000D02*
Y1127000D01*
X685750Y1163500D02*
X691750D01*
X688750Y1160500D02*
Y1166500D01*
X680750Y1146500D02*
X696750D01*
X680750Y1180500D02*
X696750D01*
X680750Y1146500D02*
Y1180500D01*
X696750Y1146500D02*
Y1180500D01*
X718500Y1193250D02*
Y1199250D01*
X715500Y1196250D02*
X721500D01*
X726500Y1178250D02*
Y1214250D01*
X710500D02*
X726500D01*
X710500Y1178250D02*
X726500D01*
X710500D02*
Y1214250D01*
X718000Y1243500D02*
Y1249500D01*
X715000Y1246500D02*
X721000D01*
X710000Y1228500D02*
Y1264500D01*
Y1228500D02*
X726000D01*
X710000Y1264500D02*
X726000D01*
Y1228500D02*
Y1264500D01*
X387500Y1236000D02*
Y1246000D01*
X382500Y1241000D02*
X392500D01*
X367500Y1232000D02*
Y1250000D01*
X407500Y1232000D02*
Y1250000D01*
X367500D02*
X407500D01*
X367500Y1232000D02*
X407500D01*
X426000Y1217750D02*
X432000D01*
X429000Y1214750D02*
Y1220750D01*
X411000Y1209750D02*
X447000D01*
Y1225750D01*
X411000Y1209750D02*
Y1225750D01*
X447000D01*
X387750Y1212750D02*
Y1222750D01*
X382750Y1217750D02*
X392750D01*
X367750Y1208750D02*
Y1226750D01*
X407750Y1208750D02*
Y1226750D01*
X367750D02*
X407750D01*
X367750Y1208750D02*
X407750D01*
M02*
