G04*
G04 #@! TF.GenerationSoftware,Altium Limited,Altium Designer,24.4.1 (13)*
G04*
G04 Layer_Color=8388736*
%FSLAX44Y44*%
%MOMM*%
G71*
G04*
G04 #@! TF.SameCoordinates,9A945CEE-F102-44BA-A3C3-DB53B066AAF5*
G04*
G04*
G04 #@! TF.FilePolarity,Negative*
G04*
G01*
G75*
%ADD38R,1.2032X1.3032*%
%ADD39R,1.2400X0.7000*%
%ADD40R,1.2400X0.4000*%
%ADD41R,12.2032X0.7032*%
%ADD42R,1.8032X3.5032*%
%ADD43R,0.7032X12.2032*%
%ADD44R,3.2032X2.3032*%
%ADD45R,1.8032X1.0032*%
G04:AMPARAMS|DCode=46|XSize=0.5832mm|YSize=0.5532mm|CornerRadius=0.1174mm|HoleSize=0mm|Usage=FLASHONLY|Rotation=180.000|XOffset=0mm|YOffset=0mm|HoleType=Round|Shape=RoundedRectangle|*
%AMROUNDEDRECTD46*
21,1,0.5832,0.3185,0,0,180.0*
21,1,0.3485,0.5532,0,0,180.0*
1,1,0.2347,-0.1743,0.1593*
1,1,0.2347,0.1743,0.1593*
1,1,0.2347,0.1743,-0.1593*
1,1,0.2347,-0.1743,-0.1593*
%
%ADD46ROUNDEDRECTD46*%
%ADD47R,0.6532X1.4032*%
%ADD48O,1.8032X0.8032*%
%ADD49R,0.7932X1.9532*%
G04:AMPARAMS|DCode=50|XSize=1.6732mm|YSize=0.4832mm|CornerRadius=0.1366mm|HoleSize=0mm|Usage=FLASHONLY|Rotation=180.000|XOffset=0mm|YOffset=0mm|HoleType=Round|Shape=RoundedRectangle|*
%AMROUNDEDRECTD50*
21,1,1.6732,0.2100,0,0,180.0*
21,1,1.4000,0.4832,0,0,180.0*
1,1,0.2732,-0.7000,0.1050*
1,1,0.2732,0.7000,0.1050*
1,1,0.2732,0.7000,-0.1050*
1,1,0.2732,-0.7000,-0.1050*
%
%ADD50ROUNDEDRECTD50*%
G04:AMPARAMS|DCode=51|XSize=1.6732mm|YSize=0.4832mm|CornerRadius=0.1366mm|HoleSize=0mm|Usage=FLASHONLY|Rotation=90.000|XOffset=0mm|YOffset=0mm|HoleType=Round|Shape=RoundedRectangle|*
%AMROUNDEDRECTD51*
21,1,1.6732,0.2100,0,0,90.0*
21,1,1.4000,0.4832,0,0,90.0*
1,1,0.2732,0.1050,0.7000*
1,1,0.2732,0.1050,-0.7000*
1,1,0.2732,-0.1050,-0.7000*
1,1,0.2732,-0.1050,0.7000*
%
%ADD51ROUNDEDRECTD51*%
%ADD52R,1.3032X1.2032*%
%ADD53R,1.2032X1.2032*%
%ADD54R,1.7032X2.2032*%
%ADD55R,0.7932X0.5532*%
%ADD56R,0.5532X0.7932*%
%ADD57R,0.5032X0.9032*%
%ADD58R,0.9032X0.5032*%
%ADD59R,2.0032X1.8032*%
%ADD60R,1.3032X1.3032*%
%ADD61C,0.8032*%
%ADD62O,2.2032X1.1032*%
%ADD63O,1.9032X1.1032*%
%ADD64C,1.0032*%
D38*
X287750Y1320250D02*
D03*
Y1303250D02*
D03*
X663000Y1348250D02*
D03*
Y1365250D02*
D03*
X680000D02*
D03*
Y1348250D02*
D03*
X592250Y1255250D02*
D03*
Y1272250D02*
D03*
X608250Y1255250D02*
D03*
Y1272250D02*
D03*
X689250Y1258000D02*
D03*
Y1275000D02*
D03*
X672750Y1258000D02*
D03*
Y1275000D02*
D03*
X665750Y1150500D02*
D03*
Y1167500D02*
D03*
X695750Y1348250D02*
D03*
Y1365250D02*
D03*
X266250Y1119250D02*
D03*
Y1102250D02*
D03*
X282500Y1119250D02*
D03*
Y1102250D02*
D03*
X647500Y1365000D02*
D03*
Y1348000D02*
D03*
X671500Y1063750D02*
D03*
Y1080750D02*
D03*
X655750Y1063750D02*
D03*
Y1080750D02*
D03*
X686750Y1081250D02*
D03*
Y1064250D02*
D03*
X643250Y1080750D02*
D03*
Y1063750D02*
D03*
D39*
X275500Y1352250D02*
D03*
Y1344250D02*
D03*
Y1296250D02*
D03*
Y1288250D02*
D03*
D40*
Y1322750D02*
D03*
Y1327750D02*
D03*
Y1332750D02*
D03*
Y1337750D02*
D03*
Y1317750D02*
D03*
Y1312750D02*
D03*
Y1307750D02*
D03*
Y1302750D02*
D03*
D41*
X640000Y1093000D02*
D03*
X640611Y1330315D02*
D03*
D42*
X609500Y1115750D02*
D03*
X671500D02*
D03*
X609500Y1305000D02*
D03*
X671500D02*
D03*
D43*
X703255Y1269983D02*
D03*
X703161Y1150451D02*
D03*
X577450Y1269864D02*
D03*
X577431Y1150020D02*
D03*
D44*
X216250Y1066250D02*
D03*
Y1154750D02*
D03*
D45*
X245250Y1091750D02*
D03*
Y1104250D02*
D03*
Y1116750D02*
D03*
Y1129250D02*
D03*
D46*
X259350Y1145000D02*
D03*
Y1150000D02*
D03*
Y1155000D02*
D03*
X264500Y1157650D02*
D03*
X269500D02*
D03*
X274650Y1155000D02*
D03*
Y1150000D02*
D03*
Y1145000D02*
D03*
X269500Y1142350D02*
D03*
X264500D02*
D03*
D47*
X478700Y1045000D02*
D03*
X491400D02*
D03*
X504100D02*
D03*
X516800D02*
D03*
X554900D02*
D03*
X542200D02*
D03*
X529500D02*
D03*
X567600D02*
D03*
X580300D02*
D03*
X593000D02*
D03*
X605700D02*
D03*
X618400D02*
D03*
X656500D02*
D03*
X643800D02*
D03*
X631100D02*
D03*
X669200D02*
D03*
X681900D02*
D03*
X694600D02*
D03*
X707300D02*
D03*
X720000D02*
D03*
X478700Y1006000D02*
D03*
X491400D02*
D03*
X504100D02*
D03*
X516800D02*
D03*
X554900D02*
D03*
X542200D02*
D03*
X529500D02*
D03*
X567600D02*
D03*
X580300D02*
D03*
X593000D02*
D03*
X605700D02*
D03*
X618400D02*
D03*
X656500D02*
D03*
X643800D02*
D03*
X631100D02*
D03*
X669200D02*
D03*
X681900D02*
D03*
X694600D02*
D03*
X707300D02*
D03*
X720000D02*
D03*
X451350Y1005750D02*
D03*
X438650D02*
D03*
X425950D02*
D03*
X413250D02*
D03*
X400550D02*
D03*
X362450D02*
D03*
X375150D02*
D03*
X387850D02*
D03*
X349750D02*
D03*
X337050D02*
D03*
X324350D02*
D03*
X311650D02*
D03*
X298950D02*
D03*
X260850D02*
D03*
X273550D02*
D03*
X286250D02*
D03*
X248150D02*
D03*
X235450D02*
D03*
X222750D02*
D03*
X210050D02*
D03*
X451350Y1044750D02*
D03*
X438650D02*
D03*
X425950D02*
D03*
X413250D02*
D03*
X400550D02*
D03*
X362450D02*
D03*
X375150D02*
D03*
X387850D02*
D03*
X349750D02*
D03*
X337050D02*
D03*
X324350D02*
D03*
X311650D02*
D03*
X298950D02*
D03*
X260850D02*
D03*
X273550D02*
D03*
X286250D02*
D03*
X248150D02*
D03*
X235450D02*
D03*
X222750D02*
D03*
X210050D02*
D03*
X210000Y1425000D02*
D03*
X222700D02*
D03*
X235400D02*
D03*
X248100D02*
D03*
X286200D02*
D03*
X273500D02*
D03*
X260800D02*
D03*
X298900D02*
D03*
X311600D02*
D03*
X324300D02*
D03*
X337000D02*
D03*
X349700D02*
D03*
X387800D02*
D03*
X375100D02*
D03*
X362400D02*
D03*
X400500D02*
D03*
X413200D02*
D03*
X425900D02*
D03*
X438600D02*
D03*
X451300D02*
D03*
X210000Y1386000D02*
D03*
X222700D02*
D03*
X235400D02*
D03*
X248100D02*
D03*
X286200D02*
D03*
X273500D02*
D03*
X260800D02*
D03*
X298900D02*
D03*
X311600D02*
D03*
X324300D02*
D03*
X337000D02*
D03*
X349700D02*
D03*
X387800D02*
D03*
X375100D02*
D03*
X362400D02*
D03*
X400500D02*
D03*
X413200D02*
D03*
X425900D02*
D03*
X438600D02*
D03*
X451300D02*
D03*
X720000Y1386000D02*
D03*
X707300D02*
D03*
X694600D02*
D03*
X681900D02*
D03*
X669200D02*
D03*
X631100D02*
D03*
X643800D02*
D03*
X656500D02*
D03*
X618400D02*
D03*
X605700D02*
D03*
X593000D02*
D03*
X580300D02*
D03*
X567600D02*
D03*
X529500D02*
D03*
X542200D02*
D03*
X554900D02*
D03*
X516800D02*
D03*
X504100D02*
D03*
X491400D02*
D03*
X478700D02*
D03*
X720000Y1425000D02*
D03*
X707300D02*
D03*
X694600D02*
D03*
X681900D02*
D03*
X669200D02*
D03*
X631100D02*
D03*
X643800D02*
D03*
X656500D02*
D03*
X618400D02*
D03*
X605700D02*
D03*
X593000D02*
D03*
X580300D02*
D03*
X567600D02*
D03*
X529500D02*
D03*
X542200D02*
D03*
X554900D02*
D03*
X516800D02*
D03*
X504100D02*
D03*
X491400D02*
D03*
X478700D02*
D03*
D48*
X387000Y1356550D02*
D03*
Y1343850D02*
D03*
Y1331150D02*
D03*
Y1318450D02*
D03*
X459000D02*
D03*
Y1331150D02*
D03*
Y1343850D02*
D03*
Y1356550D02*
D03*
D49*
X479400Y1317800D02*
D03*
X492100D02*
D03*
X504800D02*
D03*
X517500D02*
D03*
Y1369500D02*
D03*
X504800D02*
D03*
X492100D02*
D03*
X479400D02*
D03*
D50*
X523451Y1103550D02*
D03*
Y1108549D02*
D03*
Y1113550D02*
D03*
Y1118549D02*
D03*
Y1123550D02*
D03*
Y1128549D02*
D03*
Y1133550D02*
D03*
Y1138549D02*
D03*
Y1143550D02*
D03*
Y1148549D02*
D03*
Y1153550D02*
D03*
Y1158549D02*
D03*
Y1163550D02*
D03*
Y1168549D02*
D03*
Y1173550D02*
D03*
Y1178549D02*
D03*
Y1183550D02*
D03*
Y1188549D02*
D03*
Y1193550D02*
D03*
Y1198549D02*
D03*
Y1203550D02*
D03*
Y1208549D02*
D03*
Y1213550D02*
D03*
Y1218549D02*
D03*
Y1223549D02*
D03*
Y1228550D02*
D03*
Y1233549D02*
D03*
Y1238550D02*
D03*
Y1243549D02*
D03*
Y1248550D02*
D03*
Y1253549D02*
D03*
Y1258550D02*
D03*
Y1263549D02*
D03*
Y1268550D02*
D03*
Y1273549D02*
D03*
Y1278550D02*
D03*
X310050D02*
D03*
Y1273549D02*
D03*
Y1268550D02*
D03*
Y1263549D02*
D03*
Y1258550D02*
D03*
Y1253549D02*
D03*
Y1248550D02*
D03*
Y1243549D02*
D03*
Y1238550D02*
D03*
Y1233549D02*
D03*
Y1228550D02*
D03*
Y1223549D02*
D03*
Y1218549D02*
D03*
Y1213550D02*
D03*
Y1208549D02*
D03*
Y1203550D02*
D03*
Y1198549D02*
D03*
Y1193550D02*
D03*
Y1188549D02*
D03*
Y1183550D02*
D03*
Y1178549D02*
D03*
Y1173550D02*
D03*
Y1168549D02*
D03*
Y1163550D02*
D03*
Y1158549D02*
D03*
Y1153550D02*
D03*
Y1148549D02*
D03*
Y1143550D02*
D03*
Y1138549D02*
D03*
Y1133550D02*
D03*
Y1128549D02*
D03*
Y1123550D02*
D03*
Y1118549D02*
D03*
Y1113550D02*
D03*
Y1108549D02*
D03*
Y1103550D02*
D03*
D51*
X329250Y1084349D02*
D03*
X334250D02*
D03*
X339250D02*
D03*
X344250D02*
D03*
X349250D02*
D03*
X354250D02*
D03*
X359250D02*
D03*
X364250D02*
D03*
X369250D02*
D03*
X374250D02*
D03*
X379250D02*
D03*
X384250D02*
D03*
X389250D02*
D03*
X394250D02*
D03*
X399251D02*
D03*
X404250D02*
D03*
X409250D02*
D03*
X414250D02*
D03*
X419250D02*
D03*
X424250D02*
D03*
X429250D02*
D03*
X434250D02*
D03*
X439250D02*
D03*
X444250D02*
D03*
X449250D02*
D03*
X454250D02*
D03*
X459250D02*
D03*
X464250D02*
D03*
X469250D02*
D03*
X474250D02*
D03*
X479250D02*
D03*
X484250D02*
D03*
X489250D02*
D03*
X494250D02*
D03*
X499250D02*
D03*
X504250D02*
D03*
Y1297750D02*
D03*
X499250D02*
D03*
X494250D02*
D03*
X489250D02*
D03*
X484250D02*
D03*
X479250D02*
D03*
X474250D02*
D03*
X469250D02*
D03*
X464250D02*
D03*
X459250D02*
D03*
X454250D02*
D03*
X449250D02*
D03*
X444250D02*
D03*
X439250D02*
D03*
X434250D02*
D03*
X429250D02*
D03*
X424250D02*
D03*
X419250D02*
D03*
X414250D02*
D03*
X409250D02*
D03*
X404250D02*
D03*
X399251D02*
D03*
X394250D02*
D03*
X389250D02*
D03*
X384250D02*
D03*
X379250D02*
D03*
X374250D02*
D03*
X369250D02*
D03*
X364250D02*
D03*
X359250D02*
D03*
X354250D02*
D03*
X349250D02*
D03*
X344250D02*
D03*
X339250D02*
D03*
X334250D02*
D03*
X329250D02*
D03*
D52*
X560499Y1131750D02*
D03*
X543500D02*
D03*
X381250Y1062250D02*
D03*
X398250D02*
D03*
X361750Y1062000D02*
D03*
X344750D02*
D03*
X543750Y1113750D02*
D03*
X560750D02*
D03*
X648250Y1256500D02*
D03*
X631250D02*
D03*
X433500Y1370750D02*
D03*
X416500D02*
D03*
X538250Y1335750D02*
D03*
X555250D02*
D03*
X555250Y1319750D02*
D03*
X538250D02*
D03*
X555750Y1368250D02*
D03*
X538750D02*
D03*
X538250Y1351750D02*
D03*
X555250D02*
D03*
X288250Y1336000D02*
D03*
X305250D02*
D03*
X294500Y1173750D02*
D03*
X277500D02*
D03*
X630500Y1167000D02*
D03*
X647500D02*
D03*
X560250Y1148500D02*
D03*
X543250D02*
D03*
X561000Y1163750D02*
D03*
X544000D02*
D03*
X560750Y1179750D02*
D03*
X543750D02*
D03*
D53*
X628250Y1343000D02*
D03*
X610250D02*
D03*
X619250Y1367000D02*
D03*
X615250Y1058750D02*
D03*
X624250Y1082750D02*
D03*
X606250D02*
D03*
X579250Y1081750D02*
D03*
X570250Y1057750D02*
D03*
X588250D02*
D03*
X587750Y1342500D02*
D03*
X596750Y1366500D02*
D03*
X578750D02*
D03*
D54*
X716750Y1141500D02*
D03*
Y1066500D02*
D03*
X719000Y1292000D02*
D03*
Y1367000D02*
D03*
D55*
X639650Y1213250D02*
D03*
X601350D02*
D03*
D56*
X635500Y1201600D02*
D03*
X630500D02*
D03*
X625500D02*
D03*
X620500D02*
D03*
X615500D02*
D03*
X610500D02*
D03*
X605500D02*
D03*
Y1224900D02*
D03*
X610500D02*
D03*
X615500D02*
D03*
X620500D02*
D03*
X625500D02*
D03*
X630500D02*
D03*
X635500D02*
D03*
D57*
X667000Y1228250D02*
D03*
X672000D02*
D03*
X677000D02*
D03*
X682000D02*
D03*
Y1198250D02*
D03*
X677000D02*
D03*
X672000D02*
D03*
X667000D02*
D03*
D58*
X689500Y1220750D02*
D03*
Y1215750D02*
D03*
Y1210750D02*
D03*
Y1205750D02*
D03*
X659500D02*
D03*
Y1210750D02*
D03*
Y1215750D02*
D03*
Y1220750D02*
D03*
D59*
X685500Y1174000D02*
D03*
Y1146000D02*
D03*
D60*
X717750Y1235500D02*
D03*
Y1257500D02*
D03*
X718500Y1206250D02*
D03*
X718500Y1184250D02*
D03*
D61*
X264800Y1349150D02*
D03*
Y1291350D02*
D03*
X317500Y1081000D02*
D03*
X323125Y1240000D02*
D03*
Y1258500D02*
D03*
X333500Y1264356D02*
D03*
X340608Y1262928D02*
D03*
X325000Y1275500D02*
D03*
X334250Y1313250D02*
D03*
X413180Y1425222D02*
D03*
X425880D02*
D03*
X438580D02*
D03*
X451280D02*
D03*
X464750Y1412000D02*
D03*
X462000Y1400500D02*
D03*
X504150Y1425000D02*
D03*
X491200Y1385000D02*
D03*
X478500D02*
D03*
X478750Y1425000D02*
D03*
X491450D02*
D03*
X283225Y1280489D02*
D03*
X320500Y1340750D02*
D03*
X328000Y1346750D02*
D03*
X323125Y1325750D02*
D03*
X316750Y1361000D02*
D03*
X317250Y1351250D02*
D03*
X302250Y1309000D02*
D03*
X302000Y1284874D02*
D03*
X235450Y1005750D02*
D03*
X308750Y1091500D02*
D03*
X588750Y1340250D02*
D03*
X576500Y1347875D02*
D03*
X280000Y1101750D02*
D03*
X299125Y1044972D02*
D03*
X311930Y1045222D02*
D03*
X606000Y1137250D02*
D03*
X606250Y1082750D02*
D03*
X597250Y1115625D02*
D03*
X588250Y1057750D02*
D03*
X593500Y1306000D02*
D03*
X599500Y1353750D02*
D03*
X628500Y1303250D02*
D03*
X498125Y1331250D02*
D03*
X619250Y1367000D02*
D03*
X578750Y1366500D02*
D03*
X628250Y1343000D02*
D03*
X671000Y1307500D02*
D03*
X671500Y1115750D02*
D03*
X579250Y1081750D02*
D03*
X586156Y1375004D02*
D03*
X596750Y1366500D02*
D03*
X610250Y1343000D02*
D03*
X623375Y1267000D02*
D03*
Y1277750D02*
D03*
Y1244875D02*
D03*
X608625Y1242750D02*
D03*
X633125Y1256000D02*
D03*
X624250Y1082750D02*
D03*
X570250Y1057750D02*
D03*
X580430Y1045722D02*
D03*
X631000Y1071500D02*
D03*
X630750Y1061750D02*
D03*
X580180Y1005722D02*
D03*
X258236Y1220824D02*
D03*
X294844Y1143840D02*
D03*
X286160Y1134276D02*
D03*
X294625Y1127836D02*
D03*
X292940Y1136844D02*
D03*
X343782Y1118282D02*
D03*
X335489Y1109250D02*
D03*
X266750Y1149750D02*
D03*
X537750Y1209000D02*
D03*
X605250Y1232100D02*
D03*
X598472Y1235028D02*
D03*
X669200Y1425000D02*
D03*
X626000Y1188250D02*
D03*
X337750Y1195250D02*
D03*
X246500Y1195500D02*
D03*
X266750Y1102250D02*
D03*
X443735Y1257765D02*
D03*
X494500Y1352500D02*
D03*
X245500Y1174750D02*
D03*
X278000Y1173750D02*
D03*
X294250Y1219000D02*
D03*
X237750Y1242750D02*
D03*
X237750Y1260750D02*
D03*
X254000Y1241625D02*
D03*
X254000Y1261250D02*
D03*
X685500Y1146000D02*
D03*
X689250Y1275000D02*
D03*
X672750D02*
D03*
X592250Y1272250D02*
D03*
X608250D02*
D03*
X592500Y1257250D02*
D03*
X537000Y1253000D02*
D03*
X547625Y1288625D02*
D03*
Y1258750D02*
D03*
X541750Y1228500D02*
D03*
X547000Y1214250D02*
D03*
X485000Y1343500D02*
D03*
X504183Y1355325D02*
D03*
X324500Y1222500D02*
D03*
X285737Y1241639D02*
D03*
X480750Y1223375D02*
D03*
X291000Y1233125D02*
D03*
X294500Y1173750D02*
D03*
X418750Y1286149D02*
D03*
X635250Y1358250D02*
D03*
X668500Y1385500D02*
D03*
X679000Y1348750D02*
D03*
X663000Y1348250D02*
D03*
X647500Y1348000D02*
D03*
X695750Y1348250D02*
D03*
X416250Y1371250D02*
D03*
X433250Y1370500D02*
D03*
X559625Y1180375D02*
D03*
X633750Y1084250D02*
D03*
X543250Y1081000D02*
D03*
X474250Y1118500D02*
D03*
X481320Y1128755D02*
D03*
X488000Y1118000D02*
D03*
X474250Y1102000D02*
D03*
X464000Y1041500D02*
D03*
X399500Y1285250D02*
D03*
X399250Y1269250D02*
D03*
X412750Y1268750D02*
D03*
X464250Y1200125D02*
D03*
X351750Y1134625D02*
D03*
X343250D02*
D03*
X446750Y1117500D02*
D03*
X446250Y1103000D02*
D03*
X488000Y1102750D02*
D03*
X343500Y1100250D02*
D03*
X356250Y1107500D02*
D03*
Y1115110D02*
D03*
X355751Y1122343D02*
D03*
X352750Y1095927D02*
D03*
X244250Y1129500D02*
D03*
X244500Y1091750D02*
D03*
X266000Y1120000D02*
D03*
X282000Y1118250D02*
D03*
X284000Y1068250D02*
D03*
X280547Y1061875D02*
D03*
X330076Y1068875D02*
D03*
X400254Y1130004D02*
D03*
X406967Y1136980D02*
D03*
X407500Y1129750D02*
D03*
X414730Y1130286D02*
D03*
X344500Y1062750D02*
D03*
X339750Y1071750D02*
D03*
X398000Y1062000D02*
D03*
X483750Y1155500D02*
D03*
X357500Y1153750D02*
D03*
X359000Y1144000D02*
D03*
X437250Y1217875D02*
D03*
X396875Y1252000D02*
D03*
X384625Y1251000D02*
D03*
X371875Y1251167D02*
D03*
X364250Y1251000D02*
D03*
X414250Y1328000D02*
D03*
X510250Y1275750D02*
D03*
X497750Y1272750D02*
D03*
X480250Y1272500D02*
D03*
X468000Y1285375D02*
D03*
X497000Y1258250D02*
D03*
X464750Y1247625D02*
D03*
X497500Y1242250D02*
D03*
X496750Y1227000D02*
D03*
Y1217500D02*
D03*
X486463Y1178713D02*
D03*
X464750Y1154500D02*
D03*
X503750Y1178750D02*
D03*
X688500Y1187750D02*
D03*
X721500Y1103500D02*
D03*
X706750Y1024500D02*
D03*
X436500Y1131500D02*
D03*
X509250Y1150675D02*
D03*
X543126Y1148883D02*
D03*
X502248Y1121108D02*
D03*
X422250Y1251250D02*
D03*
X434000Y1338750D02*
D03*
X439750Y1344750D02*
D03*
X423742Y1334515D02*
D03*
X430500Y1271000D02*
D03*
X438250Y1266125D02*
D03*
X459000Y1271775D02*
D03*
X535042Y1264875D02*
D03*
X549250Y1270500D02*
D03*
X556500Y1276750D02*
D03*
X552000Y1103750D02*
D03*
X567500Y1085500D02*
D03*
X555500Y1086250D02*
D03*
X536250Y1076375D02*
D03*
X449500Y1067250D02*
D03*
X437875Y1066125D02*
D03*
X585750Y1140250D02*
D03*
X570500Y1134500D02*
D03*
Y1126750D02*
D03*
X476500Y1149500D02*
D03*
X337250Y1140500D02*
D03*
X714500Y1219250D02*
D03*
X721500Y1224000D02*
D03*
X559000Y1219250D02*
D03*
X567691Y1210296D02*
D03*
X568750Y1218250D02*
D03*
X590250Y1196000D02*
D03*
X324500Y1209500D02*
D03*
X670000Y1188500D02*
D03*
X597000Y1182500D02*
D03*
X338875Y1182725D02*
D03*
X338740Y1175476D02*
D03*
X594750Y1242000D02*
D03*
X563500Y1244250D02*
D03*
X286500Y1204750D02*
D03*
X283250Y1212250D02*
D03*
X347750Y1158250D02*
D03*
X343356Y1164017D02*
D03*
X499250Y1158750D02*
D03*
X338250Y1150250D02*
D03*
X506750Y1133425D02*
D03*
X496123Y1132538D02*
D03*
X510929Y1227197D02*
D03*
X509477Y1123204D02*
D03*
X535690Y1123051D02*
D03*
X591500Y1108750D02*
D03*
X565750Y1102000D02*
D03*
X648750Y1033500D02*
D03*
X550000Y1060500D02*
D03*
X631180Y1045222D02*
D03*
X484750Y1054000D02*
D03*
X642750Y1080250D02*
D03*
X501750Y1065250D02*
D03*
X471911Y1046443D02*
D03*
X479045Y1045156D02*
D03*
X470250Y1053500D02*
D03*
X459250Y1026375D02*
D03*
X565625Y1292000D02*
D03*
X393400Y1144000D02*
D03*
X558000Y1284500D02*
D03*
X511000Y1097750D02*
D03*
X505674Y1106207D02*
D03*
X496250Y1026375D02*
D03*
X533924Y1026208D02*
D03*
X540250Y1029750D02*
D03*
X504080Y1005275D02*
D03*
X505475Y1017525D02*
D03*
X523200Y1037712D02*
D03*
X516780Y1045222D02*
D03*
X618250Y1027916D02*
D03*
X404750Y1031250D02*
D03*
X394500Y1030500D02*
D03*
X382000Y1143888D02*
D03*
X341750Y1401000D02*
D03*
X349500Y1285000D02*
D03*
X353826Y1371757D02*
D03*
X347250Y1410500D02*
D03*
X618750Y1403500D02*
D03*
X606250Y1409250D02*
D03*
X512000Y1353500D02*
D03*
X386250Y1240750D02*
D03*
X371250Y1142500D02*
D03*
X662500Y1031000D02*
D03*
X647500Y1148750D02*
D03*
X650250Y1189250D02*
D03*
X660250Y1190000D02*
D03*
X289250Y1061978D02*
D03*
X300500Y1018750D02*
D03*
X321000Y1020722D02*
D03*
X336483Y1020250D02*
D03*
X329233Y1020250D02*
D03*
X629500Y1021750D02*
D03*
X656000Y1019750D02*
D03*
X644000Y1016000D02*
D03*
X279482Y1158482D02*
D03*
X293000Y1017500D02*
D03*
X337330Y1045222D02*
D03*
X523500Y1089250D02*
D03*
X511000Y1086000D02*
D03*
X362180Y1045722D02*
D03*
X344500Y1367750D02*
D03*
X299750Y1350500D02*
D03*
X443750Y1285250D02*
D03*
X260906Y1233651D02*
D03*
X509250Y1234250D02*
D03*
X356000Y1259000D02*
D03*
X512085Y1111050D02*
D03*
X299000Y1062750D02*
D03*
X274130Y1044972D02*
D03*
X286830D02*
D03*
X331552Y1059125D02*
D03*
X466000Y1066125D02*
D03*
X620000Y1165500D02*
D03*
X543500Y1163250D02*
D03*
X561000Y1163750D02*
D03*
X543500Y1131750D02*
D03*
X635000Y1123750D02*
D03*
X639000Y1236250D02*
D03*
X560250Y1148500D02*
D03*
X560499Y1131750D02*
D03*
X560750Y1113750D02*
D03*
X671750Y1062000D02*
D03*
X655750Y1063750D02*
D03*
X260000Y1425000D02*
D03*
X247500Y1424250D02*
D03*
X554700Y1385000D02*
D03*
X567400D02*
D03*
X719500Y1184500D02*
D03*
X718000Y1255000D02*
D03*
X347500Y1203750D02*
D03*
X369000Y1117750D02*
D03*
X383750Y1118000D02*
D03*
X555250Y1070750D02*
D03*
X542500Y1058750D02*
D03*
X530750Y1063500D02*
D03*
X306625Y1323875D02*
D03*
X458750Y1318750D02*
D03*
X269000Y1241625D02*
D03*
X459000Y1331150D02*
D03*
Y1343850D02*
D03*
X387000Y1318450D02*
D03*
Y1356550D02*
D03*
Y1343850D02*
D03*
Y1331150D02*
D03*
X413430Y1045472D02*
D03*
X270000Y1261250D02*
D03*
X221500D02*
D03*
X222000Y1244250D02*
D03*
X355750Y1313250D02*
D03*
X491380Y1045222D02*
D03*
X504080D02*
D03*
X567530Y1045472D02*
D03*
X529430D02*
D03*
X542130D02*
D03*
X554830D02*
D03*
X618530Y1045722D02*
D03*
X593130D02*
D03*
X605830D02*
D03*
X669280Y1045222D02*
D03*
X643880D02*
D03*
X656580D02*
D03*
X720280Y1045722D02*
D03*
X682180D02*
D03*
X694880D02*
D03*
X707580D02*
D03*
X720280Y1005722D02*
D03*
X682180D02*
D03*
X694880D02*
D03*
X707580D02*
D03*
X669030D02*
D03*
X630930D02*
D03*
X643630D02*
D03*
X656330D02*
D03*
X618280D02*
D03*
X592880D02*
D03*
X605580D02*
D03*
X567530Y1006222D02*
D03*
X529430D02*
D03*
X542130D02*
D03*
X554830D02*
D03*
X516780Y1005972D02*
D03*
X478680D02*
D03*
X491380D02*
D03*
X248280Y1045722D02*
D03*
X210180D02*
D03*
X222880D02*
D03*
X235580D02*
D03*
X261430Y1044972D02*
D03*
X350030Y1045222D02*
D03*
X324630D02*
D03*
X400280Y1045722D02*
D03*
X374880D02*
D03*
X387580D02*
D03*
X451530Y1045472D02*
D03*
X426130D02*
D03*
X438830D02*
D03*
X451530Y1005722D02*
D03*
X413430D02*
D03*
X426130D02*
D03*
X438830D02*
D03*
X400280Y1006722D02*
D03*
X362180D02*
D03*
X374880D02*
D03*
X387580D02*
D03*
X349530Y1005972D02*
D03*
X311430D02*
D03*
X324130D02*
D03*
X336830D02*
D03*
X299280D02*
D03*
X261180D02*
D03*
X273880D02*
D03*
X286580D02*
D03*
X248280Y1006222D02*
D03*
X210180D02*
D03*
X222880D02*
D03*
X451030Y1386222D02*
D03*
X412930D02*
D03*
X425630D02*
D03*
X438330D02*
D03*
X516850Y1425000D02*
D03*
X529550D02*
D03*
X542250D02*
D03*
X554950D02*
D03*
X567650D02*
D03*
X580350D02*
D03*
X593050D02*
D03*
X605750D02*
D03*
X618450D02*
D03*
X631150D02*
D03*
X503900Y1385000D02*
D03*
X516600D02*
D03*
X529300D02*
D03*
X542000D02*
D03*
X580100D02*
D03*
X592800D02*
D03*
X605500D02*
D03*
X618200D02*
D03*
X630900D02*
D03*
X643600D02*
D03*
X273500Y1425000D02*
D03*
X286200D02*
D03*
X298900D02*
D03*
X311600D02*
D03*
X324300D02*
D03*
X337000D02*
D03*
X400500D02*
D03*
X387800D02*
D03*
X375100D02*
D03*
X362400D02*
D03*
X349700D02*
D03*
X400500Y1386000D02*
D03*
X387800D02*
D03*
X375100D02*
D03*
X362400D02*
D03*
X349700D02*
D03*
X337000D02*
D03*
X324300D02*
D03*
X311600D02*
D03*
X298900D02*
D03*
X286200D02*
D03*
X273500D02*
D03*
X260800D02*
D03*
X248100D02*
D03*
X210000D02*
D03*
X222700D02*
D03*
X235400D02*
D03*
Y1425000D02*
D03*
X222700D02*
D03*
X210000D02*
D03*
X306750Y1361750D02*
D03*
X221750Y1345500D02*
D03*
X222250Y1329250D02*
D03*
X222000Y1312750D02*
D03*
X222250Y1296750D02*
D03*
X239000Y1345500D02*
D03*
X239250Y1329250D02*
D03*
Y1313000D02*
D03*
Y1297000D02*
D03*
X716750Y1066500D02*
D03*
Y1141500D02*
D03*
X719000Y1292000D02*
D03*
Y1367000D02*
D03*
X630500Y1167000D02*
D03*
X648750Y1277750D02*
D03*
X543750Y1179750D02*
D03*
X647500Y1182250D02*
D03*
X656500Y1425000D02*
D03*
X643800D02*
D03*
X656500Y1386000D02*
D03*
X681900Y1425000D02*
D03*
Y1386000D02*
D03*
X720000Y1425000D02*
D03*
X707300D02*
D03*
X694600D02*
D03*
Y1386000D02*
D03*
X707300D02*
D03*
X720000D02*
D03*
X689250Y1258000D02*
D03*
X672750D02*
D03*
X608250Y1255000D02*
D03*
X669250Y1243500D02*
D03*
X660000Y1235500D02*
D03*
X691750Y1242500D02*
D03*
X676750Y1243500D02*
D03*
X644000Y1230500D02*
D03*
X650750Y1243500D02*
D03*
D62*
X269700Y1363500D02*
D03*
Y1277000D02*
D03*
D63*
X228000Y1363500D02*
D03*
Y1277000D02*
D03*
D64*
X287750Y1320250D02*
D03*
X305250Y1336000D02*
D03*
M02*
