G04*
G04 #@! TF.GenerationSoftware,Altium Limited,Altium Designer,24.4.1 (13)*
G04*
G04 Layer_Color=8421504*
%FSLAX44Y44*%
%MOMM*%
G71*
G04*
G04 #@! TF.SameCoordinates,044CC30A-6F31-4426-BCA9-A8A858A33F02*
G04*
G04*
G04 #@! TF.FilePolarity,Positive*
G04*
G01*
G75*
%ADD10C,0.2000*%
%ADD11C,0.1270*%
%ADD12C,0.2540*%
%ADD14C,0.1500*%
%ADD15C,0.2500*%
%ADD16C,0.1524*%
%ADD17C,0.1520*%
%ADD18C,0.1000*%
%ADD19C,0.1250*%
%ADD20R,1.1000X1.0000*%
%ADD21R,1.0000X1.1000*%
%ADD22R,12.0000X0.5000*%
%ADD23R,1.1400X0.6000*%
%ADD24R,1.1400X0.3000*%
%ADD25R,1.6000X3.3000*%
%ADD26R,0.5000X12.0000*%
%ADD27R,3.0000X2.1000*%
%ADD28R,1.6000X0.8000*%
G04:AMPARAMS|DCode=29|XSize=0.38mm|YSize=0.35mm|CornerRadius=0.0158mm|HoleSize=0mm|Usage=FLASHONLY|Rotation=180.000|XOffset=0mm|YOffset=0mm|HoleType=Round|Shape=RoundedRectangle|*
%AMROUNDEDRECTD29*
21,1,0.3800,0.3185,0,0,180.0*
21,1,0.3485,0.3500,0,0,180.0*
1,1,0.0315,-0.1743,0.1593*
1,1,0.0315,0.1743,0.1593*
1,1,0.0315,0.1743,-0.1593*
1,1,0.0315,-0.1743,-0.1593*
%
%ADD29ROUNDEDRECTD29*%
%ADD30R,0.4500X1.2000*%
%ADD31O,1.6000X0.6000*%
%ADD32R,0.5900X1.7500*%
G04:AMPARAMS|DCode=33|XSize=1.47mm|YSize=0.28mm|CornerRadius=0.035mm|HoleSize=0mm|Usage=FLASHONLY|Rotation=180.000|XOffset=0mm|YOffset=0mm|HoleType=Round|Shape=RoundedRectangle|*
%AMROUNDEDRECTD33*
21,1,1.4700,0.2100,0,0,180.0*
21,1,1.4000,0.2800,0,0,180.0*
1,1,0.0700,-0.7000,0.1050*
1,1,0.0700,0.7000,0.1050*
1,1,0.0700,0.7000,-0.1050*
1,1,0.0700,-0.7000,-0.1050*
%
%ADD33ROUNDEDRECTD33*%
G04:AMPARAMS|DCode=34|XSize=1.47mm|YSize=0.28mm|CornerRadius=0.035mm|HoleSize=0mm|Usage=FLASHONLY|Rotation=90.000|XOffset=0mm|YOffset=0mm|HoleType=Round|Shape=RoundedRectangle|*
%AMROUNDEDRECTD34*
21,1,1.4700,0.2100,0,0,90.0*
21,1,1.4000,0.2800,0,0,90.0*
1,1,0.0700,0.1050,0.7000*
1,1,0.0700,0.1050,-0.7000*
1,1,0.0700,-0.1050,-0.7000*
1,1,0.0700,-0.1050,0.7000*
%
%ADD34ROUNDEDRECTD34*%
%ADD35R,1.5000X2.0000*%
%ADD36R,0.5900X0.3500*%
%ADD37R,0.3500X0.5900*%
%ADD38R,0.3000X0.7000*%
%ADD39R,0.7000X0.3000*%
%ADD40R,1.8000X1.6000*%
%ADD41R,1.1000X1.1000*%
D10*
X289000Y1352250D02*
G03*
X289000Y1352250I-1000J0D01*
G01*
X265000Y1135000D02*
G03*
X265000Y1135000I-1000J0D01*
G01*
X480400Y1303650D02*
G03*
X480400Y1303650I-1000J0D01*
G01*
X330250Y1067650D02*
G03*
X330250Y1067650I-1000J0D01*
G01*
X605210Y1234250D02*
G03*
X605210Y1234250I-1000J0D01*
G01*
D11*
X202000Y1275550D02*
Y1364950D01*
Y1275550D02*
X275500D01*
Y1364950D01*
X202000D02*
X275500D01*
X206900Y1230250D02*
Y1375250D01*
X256700Y1160300D02*
X277300D01*
X256700Y1139700D02*
Y1160300D01*
Y1139700D02*
X277300D01*
Y1160300D01*
X473950Y1324150D02*
Y1363150D01*
X522950D01*
Y1324150D02*
Y1363150D01*
X473950Y1324150D02*
X522950D01*
X516750Y1091049D02*
Y1291049D01*
X316750Y1091049D02*
Y1291049D01*
X516750D01*
X316750Y1091049D02*
X516750D01*
X598000Y1228250D02*
X643000D01*
X598000Y1198250D02*
Y1228250D01*
Y1198250D02*
X643000D01*
Y1228250D01*
X654000Y1200250D02*
Y1225250D01*
X624000Y1200250D02*
X654000D01*
X624000D02*
Y1225250D01*
X654000D01*
X427750Y1090000D02*
X477750D01*
X427750Y1058000D02*
X477750D01*
Y1090000D01*
X427750Y1058000D02*
Y1090000D01*
X683800Y1204950D02*
Y1220550D01*
X668200D02*
X683800D01*
X668200Y1204950D02*
Y1220550D01*
Y1204950D02*
X683800D01*
X584500Y1225250D02*
X614500D01*
X584500Y1200250D02*
Y1225250D01*
Y1200250D02*
X614500D01*
Y1225250D01*
D12*
X1574749Y967678D02*
X1581820Y981820D01*
X1567678Y974749D02*
X1581820Y981820D01*
X1550000Y950000D02*
X1695964Y1095964D01*
X1727251D01*
X1518180Y918180D02*
X1525251Y932322D01*
X1518180Y918180D02*
X1532322Y925251D01*
X1518180Y918180D02*
X1550000Y950000D01*
X209000Y1268250D02*
X215094D01*
Y1265203D01*
X214078Y1264187D01*
X212047D01*
X211031Y1265203D01*
Y1268250D01*
X214078Y1258093D02*
X215094Y1259109D01*
Y1261140D01*
X214078Y1262156D01*
X210016D01*
X209000Y1261140D01*
Y1259109D01*
X210016Y1258093D01*
X215094Y1256062D02*
X209000D01*
Y1253015D01*
X210016Y1251999D01*
X211031D01*
X212047Y1253015D01*
Y1256062D01*
Y1253015D01*
X213063Y1251999D01*
X214078D01*
X215094Y1253015D01*
Y1256062D01*
Y1239811D02*
Y1243874D01*
X209000D01*
Y1239811D01*
X212047Y1243874D02*
Y1241843D01*
X215094Y1237780D02*
X209000D01*
Y1234733D01*
X210016Y1233717D01*
X214078D01*
X215094Y1234733D01*
Y1237780D01*
X214078Y1227623D02*
X215094Y1228639D01*
Y1230670D01*
X214078Y1231686D01*
X210016D01*
X209000Y1230670D01*
Y1228639D01*
X210016Y1227623D01*
X212047D01*
Y1229654D01*
X215094Y1221529D02*
Y1225592D01*
X209000D01*
Y1221529D01*
X212047Y1225592D02*
Y1223560D01*
D14*
X659750Y1221750D02*
G03*
X659750Y1221750I-750J0D01*
G01*
X689750Y1218750D02*
G03*
X689750Y1218750I-750J0D01*
G01*
X620250Y1221750D02*
G03*
X620250Y1221750I-750J0D01*
G01*
D15*
X0Y-0D02*
X1600000D01*
Y1000000D01*
X0D02*
X1600000D01*
X0Y-0D02*
Y1000000D01*
X1800000D02*
X1805667Y983000D01*
X1794333D02*
X1800000Y1000000D01*
X1794333Y17000D02*
X1800000Y-0D01*
X1805667Y17000D01*
X1800000Y500000D02*
Y1000000D01*
Y-0D02*
Y500000D01*
X1603750Y1000000D02*
X1802500D01*
X1603750Y-0D02*
X1802500D01*
X0Y1100000D02*
X17000Y1105667D01*
X0Y1100000D02*
X17000Y1094333D01*
X1583000D02*
X1600000Y1100000D01*
X1583000Y1105667D02*
X1600000Y1100000D01*
X0D02*
X800000D01*
X1600000D01*
X0Y1003750D02*
Y1102500D01*
X1600000Y1003750D02*
Y1102500D01*
D16*
X1732290Y1084443D02*
X1737288D01*
X1739787Y1086942D01*
Y1091941D01*
X1737288Y1094440D01*
X1732290D01*
X1729791Y1091941D01*
Y1086942D01*
X1732290Y1084443D01*
X1759781Y1086942D02*
X1762280Y1084443D01*
X1767279D01*
X1769778Y1086942D01*
Y1096939D01*
X1767279Y1099438D01*
X1762280D01*
X1759781Y1096939D01*
Y1094440D01*
X1762280Y1091941D01*
X1769778D01*
X1777275Y1081944D02*
X1779775Y1084443D01*
Y1086942D01*
X1777275D01*
Y1084443D01*
X1779775D01*
X1777275Y1081944D01*
X1774776Y1079445D01*
X1789771Y1096939D02*
X1792271Y1099438D01*
X1797269D01*
X1799768Y1096939D01*
Y1086942D01*
X1797269Y1084443D01*
X1792271D01*
X1789771Y1086942D01*
Y1096939D01*
X1804767D02*
X1807266Y1099438D01*
X1812264D01*
X1814763Y1096939D01*
Y1086942D01*
X1812264Y1084443D01*
X1807266D01*
X1804767Y1086942D01*
Y1096939D01*
X1819762Y1084443D02*
Y1094440D01*
X1822261D01*
X1824760Y1091941D01*
Y1084443D01*
Y1091941D01*
X1827259Y1094440D01*
X1829758Y1091941D01*
Y1084443D01*
X1834757D02*
Y1094440D01*
X1837256D01*
X1839755Y1091941D01*
Y1084443D01*
Y1091941D01*
X1842254Y1094440D01*
X1844754Y1091941D01*
Y1084443D01*
X754040Y1123361D02*
X759118D01*
X756579D01*
Y1138596D01*
X754040Y1136057D01*
X776892Y1138596D02*
X771814Y1136057D01*
X766736Y1130979D01*
Y1125901D01*
X769275Y1123361D01*
X774353D01*
X776892Y1125901D01*
Y1128440D01*
X774353Y1130979D01*
X766736D01*
X781971Y1136057D02*
X784510Y1138596D01*
X789588D01*
X792127Y1136057D01*
Y1125901D01*
X789588Y1123361D01*
X784510D01*
X781971Y1125901D01*
Y1136057D01*
X799745Y1120822D02*
X802284Y1123361D01*
Y1125901D01*
X799745D01*
Y1123361D01*
X802284D01*
X799745Y1120822D01*
X797206Y1118283D01*
X812441Y1136057D02*
X814980Y1138596D01*
X820058D01*
X822598Y1136057D01*
Y1125901D01*
X820058Y1123361D01*
X814980D01*
X812441Y1125901D01*
Y1136057D01*
X827676D02*
X830215Y1138596D01*
X835293D01*
X837833Y1136057D01*
Y1125901D01*
X835293Y1123361D01*
X830215D01*
X827676Y1125901D01*
Y1136057D01*
D17*
X1776647Y454044D02*
Y459122D01*
Y456583D01*
X1761411D01*
X1763951Y454044D01*
Y466739D02*
X1761411Y469278D01*
Y474357D01*
X1763951Y476896D01*
X1774107D01*
X1776647Y474357D01*
Y469278D01*
X1774107Y466739D01*
X1763951D01*
Y481974D02*
X1761411Y484514D01*
Y489592D01*
X1763951Y492131D01*
X1774107D01*
X1776647Y489592D01*
Y484514D01*
X1774107Y481974D01*
X1763951D01*
X1779186Y499749D02*
X1776647Y502288D01*
X1774107D01*
Y499749D01*
X1776647D01*
Y502288D01*
X1779186Y499749D01*
X1781725Y497210D01*
X1763951Y512445D02*
X1761411Y514984D01*
Y520062D01*
X1763951Y522601D01*
X1774107D01*
X1776647Y520062D01*
Y514984D01*
X1774107Y512445D01*
X1763951D01*
Y527680D02*
X1761411Y530219D01*
Y535297D01*
X1763951Y537836D01*
X1774107D01*
X1776647Y535297D01*
Y530219D01*
X1774107Y527680D01*
X1763951D01*
D18*
X345250Y1058250D02*
Y1066250D01*
Y1058250D02*
X361250D01*
Y1066250D01*
X345250D02*
X361250D01*
X643750Y1348250D02*
Y1364250D01*
X651750D01*
Y1348250D02*
Y1364250D01*
X643750Y1348250D02*
X651750D01*
X283750Y1303750D02*
X291750D01*
Y1319750D01*
X283750D02*
X291750D01*
X283750Y1303750D02*
Y1319750D01*
X608500Y1100750D02*
X672500D01*
X608500D02*
Y1130750D01*
X672500D01*
Y1100750D02*
Y1130750D01*
X608500Y1290000D02*
X672500D01*
X608500D02*
Y1320000D01*
X672500D01*
Y1290000D02*
Y1320000D01*
X544000Y1127750D02*
Y1135750D01*
Y1127750D02*
X560000D01*
Y1135750D01*
X544000D02*
X560000D01*
X734250Y1079000D02*
Y1129000D01*
X699250Y1079000D02*
Y1129000D01*
X734250D01*
X699250Y1079000D02*
X734250D01*
X701500Y1304500D02*
X736500D01*
X701500Y1354500D02*
X736500D01*
X701500Y1304500D02*
Y1354500D01*
X736500Y1304500D02*
Y1354500D01*
X397750Y1058250D02*
Y1066250D01*
X381750D02*
X397750D01*
X381750Y1058250D02*
Y1066250D01*
Y1058250D02*
X397750D01*
X560250Y1109750D02*
Y1117750D01*
X544250D02*
X560250D01*
X544250Y1109750D02*
Y1117750D01*
Y1109750D02*
X560250D01*
X631750Y1252500D02*
X647750D01*
X631750D02*
Y1260500D01*
X647750D01*
Y1252500D02*
Y1260500D01*
X417000Y1366750D02*
X433000D01*
X417000Y1374750D02*
X433000D01*
X417000Y1366750D02*
Y1374750D01*
X433000Y1366750D02*
Y1374750D01*
X538750Y1339750D02*
X554750D01*
X538750Y1331750D02*
X554750D01*
Y1339750D01*
X538750Y1331750D02*
Y1339750D01*
Y1315750D02*
X554750D01*
X538750Y1323750D02*
X554750D01*
X538750Y1315750D02*
Y1323750D01*
X554750Y1315750D02*
Y1323750D01*
X539250Y1364250D02*
X555250D01*
X539250D02*
Y1372250D01*
X555250D01*
Y1364250D02*
Y1372250D01*
X538750Y1355750D02*
X554750D01*
Y1347750D02*
Y1355750D01*
X538750Y1347750D02*
X554750D01*
X538750D02*
Y1355750D01*
X288750Y1340000D02*
X304750D01*
Y1332000D02*
Y1340000D01*
X288750Y1332000D02*
X304750D01*
X288750D02*
Y1340000D01*
X276000Y1167000D02*
X292000D01*
X276000Y1175000D02*
X292000D01*
X276000Y1167000D02*
Y1175000D01*
X292000Y1167000D02*
Y1175000D01*
X588250Y1271750D02*
X596250D01*
X588250Y1255750D02*
X596250D01*
X588250D02*
Y1271750D01*
X596250Y1255750D02*
Y1271750D01*
X604250D02*
X612250D01*
X604250Y1255750D02*
X612250D01*
X604250D02*
Y1271750D01*
X612250Y1255750D02*
Y1271750D01*
X647000Y1163000D02*
Y1171000D01*
X631000D02*
X647000D01*
X631000Y1163000D02*
Y1171000D01*
Y1163000D02*
X647000D01*
X685250Y1274500D02*
X693250D01*
X685250Y1258500D02*
X693250D01*
X685250D02*
Y1274500D01*
X693250Y1258500D02*
Y1274500D01*
X668750D02*
X676750D01*
X668750Y1258500D02*
X676750D01*
X668750D02*
Y1274500D01*
X676750Y1258500D02*
Y1274500D01*
X543750Y1144500D02*
Y1152500D01*
Y1144500D02*
X559750D01*
Y1152500D01*
X543750D02*
X559750D01*
X544500Y1159750D02*
Y1167750D01*
Y1159750D02*
X560500D01*
Y1167750D01*
X544500D02*
X560500D01*
X544250Y1175750D02*
Y1183750D01*
Y1175750D02*
X560250D01*
Y1183750D01*
X544250D02*
X560250D01*
X677500Y1176000D02*
X693500D01*
X677500Y1144000D02*
X693500D01*
X677500D02*
Y1176000D01*
X693500Y1144000D02*
Y1176000D01*
X661750Y1167000D02*
X669750D01*
X661750Y1151000D02*
X669750D01*
X661750D02*
Y1167000D01*
X669750Y1151000D02*
Y1167000D01*
X691750Y1364750D02*
X699750D01*
X691750Y1348750D02*
Y1364750D01*
Y1348750D02*
X699750D01*
Y1364750D01*
X262250Y1102750D02*
X270250D01*
X262250Y1118750D02*
X270250D01*
Y1102750D02*
Y1118750D01*
X262250Y1102750D02*
Y1118750D01*
X278500Y1102750D02*
X286500D01*
X278500Y1118750D02*
X286500D01*
Y1102750D02*
Y1118750D01*
X278500Y1102750D02*
Y1118750D01*
X651750Y1080250D02*
X659750D01*
X651750Y1064250D02*
Y1080250D01*
Y1064250D02*
X659750D01*
Y1080250D01*
X682750Y1064750D02*
X690750D01*
Y1080750D01*
X682750D02*
X690750D01*
X682750Y1064750D02*
Y1080750D01*
X543500Y1344750D02*
X573500D01*
X543500Y1356750D02*
X573500D01*
Y1344750D02*
Y1356750D01*
X543500Y1344750D02*
Y1356750D01*
X560975Y1362750D02*
X560975Y1356750D01*
X555975Y1362750D02*
X560975D01*
X555975Y1356750D02*
X555975Y1362750D01*
X546450Y1344750D02*
X546450Y1338750D01*
X551450D01*
X551450Y1344750D01*
X570500Y1338750D02*
X570500Y1344750D01*
X565500Y1338750D02*
X570500D01*
X565500Y1344750D02*
X565500Y1338750D01*
X680500Y1058250D02*
Y1088250D01*
X668500Y1058250D02*
Y1088250D01*
X680500D01*
X668500Y1058250D02*
X680500D01*
X662500Y1075725D02*
X668500Y1075725D01*
X662500Y1070725D02*
Y1075725D01*
Y1070725D02*
X668500Y1070725D01*
X680500Y1061200D02*
X686500Y1061200D01*
Y1066200D01*
X680500Y1066200D02*
X686500Y1066200D01*
X680500Y1085250D02*
X686500Y1085250D01*
Y1080250D02*
Y1085250D01*
X680500Y1080250D02*
X686500Y1080250D01*
X574250Y1055750D02*
Y1085750D01*
X586250Y1055750D02*
Y1085750D01*
X574250Y1055750D02*
X586250D01*
X574250Y1085750D02*
X586250D01*
Y1068275D02*
X592250Y1068275D01*
Y1073275D01*
X586250Y1073275D02*
X592250Y1073275D01*
X568250Y1082800D02*
X574250Y1082800D01*
X568250Y1077800D02*
Y1082800D01*
Y1077800D02*
X574250Y1077800D01*
X568250Y1058750D02*
X574250Y1058750D01*
X568250Y1058750D02*
Y1063750D01*
X574250Y1063750D01*
X653750Y1345500D02*
Y1375500D01*
X665750Y1345500D02*
Y1375500D01*
X653750Y1345500D02*
X665750D01*
X653750Y1375500D02*
X665750D01*
Y1358025D02*
X671750Y1358025D01*
Y1363025D01*
X665750Y1363025D02*
X671750Y1363025D01*
X647750Y1372550D02*
X653750Y1372550D01*
X647750Y1367550D02*
Y1372550D01*
Y1367550D02*
X653750Y1367550D01*
X647750Y1348500D02*
X653750Y1348500D01*
X647750Y1348500D02*
Y1353500D01*
X653750Y1353500D01*
X298250Y1370250D02*
X326250D01*
X298250Y1354250D02*
X326250D01*
X331250Y1366250D02*
X331250Y1358250D01*
X326250D02*
X331250D01*
X326250Y1366250D02*
X331250D01*
X303250Y1359250D02*
Y1365250D01*
X300250Y1362250D02*
X306250D01*
X298250Y1354250D02*
Y1370250D01*
X326250Y1354250D02*
Y1370250D01*
X293250Y1358250D02*
X298250D01*
X293250Y1366250D02*
X298250D01*
X293250D02*
X293250Y1358250D01*
X608500Y1130750D02*
X672500D01*
X608500Y1100750D02*
Y1130750D01*
Y1100750D02*
X672500D01*
Y1130750D01*
X608500Y1320000D02*
X672500D01*
X608500Y1290000D02*
Y1320000D01*
Y1290000D02*
X672500D01*
Y1320000D01*
X409250Y1081750D02*
X417250D01*
X409250Y1065750D02*
X417250D01*
Y1081750D01*
X409250Y1065750D02*
Y1081750D01*
X233750Y1244250D02*
X241750D01*
X233750D02*
Y1260250D01*
X241750D01*
Y1244250D02*
Y1260250D01*
X250000Y1244750D02*
X258000D01*
X250000D02*
Y1260750D01*
X258000D01*
Y1244750D02*
Y1260750D01*
X480750Y1269000D02*
Y1277000D01*
X496750Y1269000D02*
Y1277000D01*
X480750D02*
X496750D01*
X480750Y1269000D02*
X496750D01*
X364300Y1251250D02*
X441800D01*
X364300Y1316250D02*
X441800D01*
X364300Y1251250D02*
Y1316250D01*
X441800Y1251250D02*
Y1316250D01*
X407750Y1117000D02*
X415750D01*
Y1101000D02*
Y1117000D01*
X407750Y1101000D02*
X415750D01*
X407750D02*
Y1117000D01*
X647750Y1252500D02*
Y1260500D01*
X631750Y1252500D02*
X647750D01*
X631750D02*
Y1260500D01*
X647750D01*
X647000Y1163000D02*
Y1171000D01*
X631000Y1163000D02*
X647000D01*
X631000D02*
Y1171000D01*
X647000D01*
X281750Y1260500D02*
X289750D01*
X281750Y1244500D02*
X289750D01*
Y1260500D01*
X281750Y1244500D02*
Y1260500D01*
X488500Y1065750D02*
Y1081750D01*
X496500Y1065750D02*
Y1081750D01*
X488500Y1065750D02*
X496500D01*
X488500Y1081750D02*
X496500D01*
X420500Y1245500D02*
X436500D01*
X420500Y1237500D02*
Y1245500D01*
Y1237500D02*
X436500D01*
Y1245500D01*
X402000Y1101500D02*
Y1117500D01*
X394000D02*
X402000D01*
X394000Y1101500D02*
Y1117500D01*
Y1101500D02*
X402000D01*
X387750Y1101500D02*
Y1117500D01*
X379750D02*
X387750D01*
X379750Y1101500D02*
Y1117500D01*
Y1101500D02*
X387750D01*
X373000Y1101250D02*
Y1117250D01*
X365000D02*
X373000D01*
X365000Y1101250D02*
Y1117250D01*
Y1101250D02*
X373000D01*
X612750Y1155500D02*
Y1171500D01*
X604750Y1155500D02*
Y1171500D01*
X612750D01*
X604750Y1155500D02*
X612750D01*
X596250D02*
Y1171500D01*
X588250Y1155500D02*
Y1171500D01*
X596250D01*
X588250Y1155500D02*
X596250D01*
X542250Y1224500D02*
X558250D01*
X542250Y1232500D02*
X558250D01*
Y1224500D02*
Y1232500D01*
X542250Y1224500D02*
Y1232500D01*
X481000Y1230750D02*
X497000D01*
X481000Y1222750D02*
X497000D01*
X481000D02*
Y1230750D01*
X497000Y1222750D02*
Y1230750D01*
X669000Y1258500D02*
Y1274500D01*
X677000Y1258500D02*
Y1274500D01*
X669000Y1258500D02*
X677000D01*
X669000Y1274500D02*
X677000D01*
X684925Y1258476D02*
Y1274477D01*
X692925Y1258476D02*
Y1274477D01*
X684925Y1258476D02*
X692925D01*
X684925Y1274477D02*
X692925D01*
X266000Y1244750D02*
Y1260750D01*
Y1244750D02*
X274000D01*
Y1260750D01*
X266000D02*
X274000D01*
X225500Y1244750D02*
Y1260750D01*
X217500D02*
X225500D01*
X217500Y1244750D02*
Y1260750D01*
Y1244750D02*
X225500D01*
X222750Y1317000D02*
X238750D01*
X222750Y1309000D02*
Y1317000D01*
Y1309000D02*
X238750D01*
Y1317000D01*
X222500Y1349500D02*
X238500D01*
X222500Y1341500D02*
Y1349500D01*
Y1341500D02*
X238500D01*
Y1349500D01*
X222750Y1301000D02*
X238750D01*
X222750Y1293000D02*
Y1301000D01*
Y1293000D02*
X238750D01*
Y1301000D01*
X222750Y1333250D02*
X238750D01*
X222750Y1325250D02*
Y1333250D01*
Y1325250D02*
X238750D01*
Y1333250D01*
X339500Y1101250D02*
Y1117250D01*
X347500Y1101250D02*
Y1117250D01*
X339500Y1101250D02*
X347500D01*
X339500Y1117250D02*
X347500D01*
X487250Y1174750D02*
X503250D01*
X487250Y1182750D02*
X503250D01*
Y1174750D02*
Y1182750D01*
X487250Y1174750D02*
Y1182750D01*
X485500Y1347500D02*
X501500D01*
X485500Y1339500D02*
X501500D01*
X485500D02*
Y1347500D01*
X501500Y1339500D02*
Y1347500D01*
X481250Y1301750D02*
X497250D01*
X481250Y1293750D02*
X497250D01*
X481250D02*
Y1301750D01*
X497250Y1293750D02*
Y1301750D01*
X450000Y1102000D02*
Y1118000D01*
X442000Y1102000D02*
Y1118000D01*
X450000D01*
X442000Y1102000D02*
X450000D01*
X543999Y1117750D02*
X560000D01*
X543999Y1109750D02*
X560000D01*
X543999D02*
Y1117750D01*
X560000Y1109750D02*
Y1117750D01*
X330750Y1321250D02*
X346750D01*
X330750Y1329250D02*
X346750D01*
Y1321250D02*
Y1329250D01*
X330750Y1321250D02*
Y1329250D01*
X328500Y1223000D02*
Y1239000D01*
X320500Y1223000D02*
Y1239000D01*
X328500D01*
X320500Y1223000D02*
X328500D01*
X419000Y1327500D02*
Y1343500D01*
X411000Y1327500D02*
Y1343500D01*
X419000D01*
X411000Y1327500D02*
X419000D01*
X320250Y1259750D02*
Y1275750D01*
X328250Y1259750D02*
Y1275750D01*
X320250Y1259750D02*
X328250D01*
X320250Y1275750D02*
X328250D01*
X469750Y1102000D02*
Y1118000D01*
X477750Y1102000D02*
Y1118000D01*
X469750Y1102000D02*
X477750D01*
X469750Y1118000D02*
X477750D01*
X677000Y1155750D02*
Y1171750D01*
X669000Y1155750D02*
Y1171750D01*
X677000D01*
X669000Y1155750D02*
X677000D01*
X485250Y1102000D02*
Y1118000D01*
X493250Y1102000D02*
Y1118000D01*
X485250Y1102000D02*
X493250D01*
X485250Y1118000D02*
X493250D01*
X692750Y1155500D02*
Y1171500D01*
X684750Y1155500D02*
Y1171500D01*
X692750D01*
X684750Y1155500D02*
X692750D01*
X714500Y1188250D02*
Y1204250D01*
Y1188250D02*
X722500D01*
Y1204250D01*
X714500D02*
X722500D01*
X722000Y1238500D02*
Y1254500D01*
X714000D02*
X722000D01*
X714000Y1238500D02*
Y1254500D01*
Y1238500D02*
X722000D01*
X421000Y1221750D02*
X437000D01*
X421000Y1213750D02*
Y1221750D01*
Y1213750D02*
X437000D01*
Y1221750D01*
D19*
X570000Y1348750D02*
G03*
X570000Y1348750I-500J0D01*
G01*
X677000Y1084250D02*
G03*
X677000Y1084250I-500J0D01*
G01*
X578750Y1059750D02*
G03*
X578750Y1059750I-500J0D01*
G01*
X658250Y1349500D02*
G03*
X658250Y1349500I-500J0D01*
G01*
D20*
X361750Y1062250D02*
D03*
X344750D02*
D03*
X560499Y1131750D02*
D03*
X543500D02*
D03*
X381250Y1062250D02*
D03*
X398250D02*
D03*
X543750Y1113750D02*
D03*
X560750D02*
D03*
X648250Y1256500D02*
D03*
X631250D02*
D03*
X433500Y1370750D02*
D03*
X416500D02*
D03*
X538250Y1335750D02*
D03*
X555250D02*
D03*
X555250Y1319750D02*
D03*
X538250D02*
D03*
X555750Y1368250D02*
D03*
X538750D02*
D03*
X538250Y1351750D02*
D03*
X555250D02*
D03*
X288250Y1336000D02*
D03*
X305250D02*
D03*
X292500Y1171000D02*
D03*
X275500D02*
D03*
X630500Y1167000D02*
D03*
X647500D02*
D03*
X560250Y1148500D02*
D03*
X543250D02*
D03*
X561000Y1163750D02*
D03*
X544000D02*
D03*
X560750Y1179750D02*
D03*
X543750D02*
D03*
D21*
X647750Y1347750D02*
D03*
Y1364750D02*
D03*
X287750Y1320250D02*
D03*
Y1303250D02*
D03*
X592250Y1255250D02*
D03*
Y1272250D02*
D03*
X608250Y1255250D02*
D03*
Y1272250D02*
D03*
X689250Y1258000D02*
D03*
Y1275000D02*
D03*
X672750Y1258000D02*
D03*
Y1275000D02*
D03*
X665750Y1150500D02*
D03*
Y1167500D02*
D03*
X695750Y1348250D02*
D03*
Y1365250D02*
D03*
X266250Y1119250D02*
D03*
Y1102250D02*
D03*
X282500Y1119250D02*
D03*
Y1102250D02*
D03*
X655750Y1063750D02*
D03*
Y1080750D02*
D03*
X686750Y1081250D02*
D03*
Y1064250D02*
D03*
D22*
X640611Y1330315D02*
D03*
X640000Y1093000D02*
D03*
D23*
X275500Y1352250D02*
D03*
Y1344250D02*
D03*
Y1296250D02*
D03*
Y1288250D02*
D03*
D24*
Y1322750D02*
D03*
Y1327750D02*
D03*
Y1332750D02*
D03*
Y1337750D02*
D03*
Y1317750D02*
D03*
Y1312750D02*
D03*
Y1307750D02*
D03*
Y1302750D02*
D03*
D25*
X609500Y1115750D02*
D03*
X671500D02*
D03*
X609500Y1305000D02*
D03*
X671500D02*
D03*
D26*
X703255Y1269983D02*
D03*
X703161Y1150451D02*
D03*
X577450Y1269864D02*
D03*
X577431Y1150020D02*
D03*
D27*
X216250Y1066250D02*
D03*
Y1154750D02*
D03*
D28*
X245250Y1091750D02*
D03*
Y1104250D02*
D03*
Y1116750D02*
D03*
Y1129250D02*
D03*
D29*
X259350Y1145000D02*
D03*
Y1150000D02*
D03*
Y1155000D02*
D03*
X264500Y1157650D02*
D03*
X269500D02*
D03*
X274650Y1155000D02*
D03*
Y1150000D02*
D03*
Y1145000D02*
D03*
X269500Y1142350D02*
D03*
X264500D02*
D03*
D30*
X478700Y1037730D02*
D03*
X491400D02*
D03*
X504100D02*
D03*
X516800D02*
D03*
X554900D02*
D03*
X542200D02*
D03*
X529500D02*
D03*
X567600D02*
D03*
X580300D02*
D03*
X593000D02*
D03*
X605700D02*
D03*
X618400D02*
D03*
X656500D02*
D03*
X643800D02*
D03*
X631100D02*
D03*
X669200D02*
D03*
X681900D02*
D03*
X694600D02*
D03*
X707300D02*
D03*
X720000D02*
D03*
X478700Y998730D02*
D03*
X491400D02*
D03*
X504100D02*
D03*
X516800D02*
D03*
X554900D02*
D03*
X542200D02*
D03*
X529500D02*
D03*
X567600D02*
D03*
X580300D02*
D03*
X593000D02*
D03*
X605700D02*
D03*
X618400D02*
D03*
X656500D02*
D03*
X643800D02*
D03*
X631100D02*
D03*
X669200D02*
D03*
X681900D02*
D03*
X694600D02*
D03*
X707300D02*
D03*
X720000D02*
D03*
X451350Y998730D02*
D03*
X438650D02*
D03*
X425950D02*
D03*
X413250D02*
D03*
X400550D02*
D03*
X362450D02*
D03*
X375150D02*
D03*
X387850D02*
D03*
X349750D02*
D03*
X337050D02*
D03*
X324350D02*
D03*
X311650D02*
D03*
X298950D02*
D03*
X260850D02*
D03*
X273550D02*
D03*
X286250D02*
D03*
X248150D02*
D03*
X235450D02*
D03*
X222750D02*
D03*
X210050D02*
D03*
X451350Y1037730D02*
D03*
X438650D02*
D03*
X425950D02*
D03*
X413250D02*
D03*
X400550D02*
D03*
X362450D02*
D03*
X375150D02*
D03*
X387850D02*
D03*
X349750D02*
D03*
X337050D02*
D03*
X324350D02*
D03*
X311650D02*
D03*
X298950D02*
D03*
X260850D02*
D03*
X273550D02*
D03*
X286250D02*
D03*
X248150D02*
D03*
X235450D02*
D03*
X222750D02*
D03*
X210050D02*
D03*
X210000Y1429480D02*
D03*
X222700D02*
D03*
X235400D02*
D03*
X248100D02*
D03*
X286200D02*
D03*
X273500D02*
D03*
X260800D02*
D03*
X298900D02*
D03*
X311600D02*
D03*
X324300D02*
D03*
X337000D02*
D03*
X349700D02*
D03*
X387800D02*
D03*
X375100D02*
D03*
X362400D02*
D03*
X400500D02*
D03*
X413200D02*
D03*
X425900D02*
D03*
X438600D02*
D03*
X451300D02*
D03*
X210000Y1390480D02*
D03*
X222700D02*
D03*
X235400D02*
D03*
X248100D02*
D03*
X286200D02*
D03*
X273500D02*
D03*
X260800D02*
D03*
X298900D02*
D03*
X311600D02*
D03*
X324300D02*
D03*
X337000D02*
D03*
X349700D02*
D03*
X387800D02*
D03*
X375100D02*
D03*
X362400D02*
D03*
X400500D02*
D03*
X413200D02*
D03*
X425900D02*
D03*
X438600D02*
D03*
X451300D02*
D03*
X720000Y1390480D02*
D03*
X707300D02*
D03*
X694600D02*
D03*
X681900D02*
D03*
X669200D02*
D03*
X631100D02*
D03*
X643800D02*
D03*
X656500D02*
D03*
X618400D02*
D03*
X605700D02*
D03*
X593000D02*
D03*
X580300D02*
D03*
X567600D02*
D03*
X529500D02*
D03*
X542200D02*
D03*
X554900D02*
D03*
X516800D02*
D03*
X504100D02*
D03*
X491400D02*
D03*
X478700D02*
D03*
X720000Y1429480D02*
D03*
X707300D02*
D03*
X694600D02*
D03*
X681900D02*
D03*
X669200D02*
D03*
X631100D02*
D03*
X643800D02*
D03*
X656500D02*
D03*
X618400D02*
D03*
X605700D02*
D03*
X593000D02*
D03*
X580300D02*
D03*
X567600D02*
D03*
X529500D02*
D03*
X542200D02*
D03*
X554900D02*
D03*
X516800D02*
D03*
X504100D02*
D03*
X491400D02*
D03*
X478700D02*
D03*
D31*
X387000Y1356550D02*
D03*
Y1343850D02*
D03*
Y1331150D02*
D03*
Y1318450D02*
D03*
X459000D02*
D03*
Y1331150D02*
D03*
Y1343850D02*
D03*
Y1356550D02*
D03*
D32*
X479400Y1317800D02*
D03*
X492100D02*
D03*
X504800D02*
D03*
X517500D02*
D03*
Y1369500D02*
D03*
X504800D02*
D03*
X492100D02*
D03*
X479400D02*
D03*
D33*
X523451Y1103550D02*
D03*
Y1108549D02*
D03*
Y1113550D02*
D03*
Y1118549D02*
D03*
Y1123550D02*
D03*
Y1128549D02*
D03*
Y1133550D02*
D03*
Y1138549D02*
D03*
Y1143550D02*
D03*
Y1148549D02*
D03*
Y1153550D02*
D03*
Y1158549D02*
D03*
Y1163550D02*
D03*
Y1168549D02*
D03*
Y1173550D02*
D03*
Y1178549D02*
D03*
Y1183550D02*
D03*
Y1188549D02*
D03*
Y1193550D02*
D03*
Y1198549D02*
D03*
Y1203550D02*
D03*
Y1208549D02*
D03*
Y1213550D02*
D03*
Y1218549D02*
D03*
Y1223549D02*
D03*
Y1228550D02*
D03*
Y1233549D02*
D03*
Y1238550D02*
D03*
Y1243549D02*
D03*
Y1248550D02*
D03*
Y1253549D02*
D03*
Y1258550D02*
D03*
Y1263549D02*
D03*
Y1268550D02*
D03*
Y1273549D02*
D03*
Y1278550D02*
D03*
X310050D02*
D03*
Y1273549D02*
D03*
Y1268550D02*
D03*
Y1263549D02*
D03*
Y1258550D02*
D03*
Y1253549D02*
D03*
Y1248550D02*
D03*
Y1243549D02*
D03*
Y1238550D02*
D03*
Y1233549D02*
D03*
Y1228550D02*
D03*
Y1223549D02*
D03*
Y1218549D02*
D03*
Y1213550D02*
D03*
Y1208549D02*
D03*
Y1203550D02*
D03*
Y1198549D02*
D03*
Y1193550D02*
D03*
Y1188549D02*
D03*
Y1183550D02*
D03*
Y1178549D02*
D03*
Y1173550D02*
D03*
Y1168549D02*
D03*
Y1163550D02*
D03*
Y1158549D02*
D03*
Y1153550D02*
D03*
Y1148549D02*
D03*
Y1143550D02*
D03*
Y1138549D02*
D03*
Y1133550D02*
D03*
Y1128549D02*
D03*
Y1123550D02*
D03*
Y1118549D02*
D03*
Y1113550D02*
D03*
Y1108549D02*
D03*
Y1103550D02*
D03*
D34*
X329250Y1084349D02*
D03*
X334250D02*
D03*
X339250D02*
D03*
X344250D02*
D03*
X349250D02*
D03*
X354250D02*
D03*
X359250D02*
D03*
X364250D02*
D03*
X369250D02*
D03*
X374250D02*
D03*
X379250D02*
D03*
X384250D02*
D03*
X389250D02*
D03*
X394250D02*
D03*
X399251D02*
D03*
X404250D02*
D03*
X409250D02*
D03*
X414250D02*
D03*
X419250D02*
D03*
X424250D02*
D03*
X429250D02*
D03*
X434250D02*
D03*
X439250D02*
D03*
X444250D02*
D03*
X449250D02*
D03*
X454250D02*
D03*
X459250D02*
D03*
X464250D02*
D03*
X469250D02*
D03*
X474250D02*
D03*
X479250D02*
D03*
X484250D02*
D03*
X489250D02*
D03*
X494250D02*
D03*
X499250D02*
D03*
X504250D02*
D03*
Y1297750D02*
D03*
X499250D02*
D03*
X494250D02*
D03*
X489250D02*
D03*
X484250D02*
D03*
X479250D02*
D03*
X474250D02*
D03*
X469250D02*
D03*
X464250D02*
D03*
X459250D02*
D03*
X454250D02*
D03*
X449250D02*
D03*
X444250D02*
D03*
X439250D02*
D03*
X434250D02*
D03*
X429250D02*
D03*
X424250D02*
D03*
X419250D02*
D03*
X414250D02*
D03*
X409250D02*
D03*
X404250D02*
D03*
X399251D02*
D03*
X394250D02*
D03*
X389250D02*
D03*
X384250D02*
D03*
X379250D02*
D03*
X374250D02*
D03*
X369250D02*
D03*
X364250D02*
D03*
X359250D02*
D03*
X354250D02*
D03*
X349250D02*
D03*
X344250D02*
D03*
X339250D02*
D03*
X334250D02*
D03*
X329250D02*
D03*
D35*
X716750Y1141500D02*
D03*
Y1066500D02*
D03*
X719000Y1292000D02*
D03*
Y1367000D02*
D03*
D36*
X639650Y1213250D02*
D03*
X601350D02*
D03*
D37*
X635500Y1201600D02*
D03*
X630500D02*
D03*
X625500D02*
D03*
X620500D02*
D03*
X615500D02*
D03*
X610500D02*
D03*
X605500D02*
D03*
Y1224900D02*
D03*
X610500D02*
D03*
X615500D02*
D03*
X620500D02*
D03*
X625500D02*
D03*
X630500D02*
D03*
X635500D02*
D03*
D38*
X667000Y1228250D02*
D03*
X672000D02*
D03*
X677000D02*
D03*
X682000D02*
D03*
Y1198250D02*
D03*
X677000D02*
D03*
X672000D02*
D03*
X667000D02*
D03*
D39*
X689500Y1220750D02*
D03*
Y1215750D02*
D03*
Y1210750D02*
D03*
Y1205750D02*
D03*
X659500D02*
D03*
Y1210750D02*
D03*
Y1215750D02*
D03*
Y1220750D02*
D03*
D40*
X685500Y1174000D02*
D03*
Y1146000D02*
D03*
D41*
X717750Y1235500D02*
D03*
Y1257500D02*
D03*
X718500Y1206250D02*
D03*
X718500Y1184250D02*
D03*
M02*
