G04*
G04 #@! TF.GenerationSoftware,Altium Limited,Altium Designer,24.4.1 (13)*
G04*
G04 Layer_Color=13421772*
%FSLAX44Y44*%
%MOMM*%
G71*
G04*
G04 #@! TF.SameCoordinates,9A945CEE-F102-44BA-A3C3-DB53B066AAF5*
G04*
G04*
G04 #@! TF.FilePolarity,Positive*
G04*
G01*
G75*
%ADD12C,0.2540*%
%ADD89C,0.2500*%
%ADD90C,0.1524*%
%ADD91C,0.1520*%
D12*
X1574749Y967678D02*
X1581820Y981820D01*
X1567678Y974749D02*
X1581820Y981820D01*
X1550000Y950000D02*
X1695964Y1095964D01*
X1727251D01*
X1518180Y918180D02*
X1525251Y932322D01*
X1518180Y918180D02*
X1532322Y925251D01*
X1518180Y918180D02*
X1550000Y950000D01*
D89*
X1800000Y1000000D02*
X1805667Y983000D01*
X1794333D02*
X1800000Y1000000D01*
X1794333Y17000D02*
X1800000Y-0D01*
X1805667Y17000D01*
X1800000Y500000D02*
Y1000000D01*
Y-0D02*
Y500000D01*
X1603750Y1000000D02*
X1802500D01*
X1603750Y-0D02*
X1802500D01*
X0Y1100000D02*
X17000Y1105667D01*
X0Y1100000D02*
X17000Y1094333D01*
X1583000D02*
X1600000Y1100000D01*
X1583000Y1105667D02*
X1600000Y1100000D01*
X0D02*
X800000D01*
X1600000D01*
X0Y1003750D02*
Y1102500D01*
X1600000Y1003750D02*
Y1102500D01*
D90*
X1732290Y1086942D02*
X1737288D01*
X1739787Y1089441D01*
Y1094440D01*
X1737288Y1096939D01*
X1732290D01*
X1729791Y1094440D01*
Y1089441D01*
X1732290Y1086942D01*
X1759781Y1089441D02*
X1762280Y1086942D01*
X1767279D01*
X1769778Y1089441D01*
Y1099438D01*
X1767279Y1101937D01*
X1762280D01*
X1759781Y1099438D01*
Y1096939D01*
X1762280Y1094440D01*
X1769778D01*
X1774776Y1086942D02*
Y1089441D01*
X1777275D01*
Y1086942D01*
X1774776D01*
X1787272Y1099438D02*
X1789771Y1101937D01*
X1794770D01*
X1797269Y1099438D01*
Y1089441D01*
X1794770Y1086942D01*
X1789771D01*
X1787272Y1089441D01*
Y1099438D01*
X1802267D02*
X1804767Y1101937D01*
X1809765D01*
X1812264Y1099438D01*
Y1089441D01*
X1809765Y1086942D01*
X1804767D01*
X1802267Y1089441D01*
Y1099438D01*
X1817262Y1086942D02*
Y1096939D01*
X1819762D01*
X1822261Y1094440D01*
Y1086942D01*
Y1094440D01*
X1824760Y1096939D01*
X1827259Y1094440D01*
Y1086942D01*
X1832258D02*
Y1096939D01*
X1834757D01*
X1837256Y1094440D01*
Y1086942D01*
Y1094440D01*
X1839755Y1096939D01*
X1842254Y1094440D01*
Y1086942D01*
X755309Y1118283D02*
X760388D01*
X757849D01*
Y1133518D01*
X755309Y1130979D01*
X778162Y1133518D02*
X773083Y1130979D01*
X768005Y1125901D01*
Y1120822D01*
X770544Y1118283D01*
X775623D01*
X778162Y1120822D01*
Y1123361D01*
X775623Y1125901D01*
X768005D01*
X783240Y1130979D02*
X785779Y1133518D01*
X790858D01*
X793397Y1130979D01*
Y1120822D01*
X790858Y1118283D01*
X785779D01*
X783240Y1120822D01*
Y1130979D01*
X798475Y1118283D02*
Y1120822D01*
X801014D01*
Y1118283D01*
X798475D01*
X811171Y1130979D02*
X813710Y1133518D01*
X818789D01*
X821328Y1130979D01*
Y1120822D01*
X818789Y1118283D01*
X813710D01*
X811171Y1120822D01*
Y1130979D01*
X826406D02*
X828945Y1133518D01*
X834024D01*
X836563Y1130979D01*
Y1120822D01*
X834024Y1118283D01*
X828945D01*
X826406Y1120822D01*
Y1130979D01*
D91*
X1781725Y455313D02*
Y460391D01*
Y457852D01*
X1766490D01*
X1769029Y455313D01*
Y468009D02*
X1766490Y470548D01*
Y475626D01*
X1769029Y478166D01*
X1779186D01*
X1781725Y475626D01*
Y470548D01*
X1779186Y468009D01*
X1769029D01*
Y483244D02*
X1766490Y485783D01*
Y490862D01*
X1769029Y493401D01*
X1779186D01*
X1781725Y490862D01*
Y485783D01*
X1779186Y483244D01*
X1769029D01*
X1781725Y498479D02*
X1779186D01*
Y501018D01*
X1781725D01*
Y498479D01*
X1769029Y511175D02*
X1766490Y513714D01*
Y518792D01*
X1769029Y521332D01*
X1779186D01*
X1781725Y518792D01*
Y513714D01*
X1779186Y511175D01*
X1769029D01*
Y526410D02*
X1766490Y528949D01*
Y534028D01*
X1769029Y536567D01*
X1779186D01*
X1781725Y534028D01*
Y528949D01*
X1779186Y526410D01*
X1769029D01*
M02*
