G04*
G04 #@! TF.GenerationSoftware,Altium Limited,Altium Designer,24.4.1 (13)*
G04*
G04 Layer_Color=65535*
%FSLAX44Y44*%
%MOMM*%
G71*
G04*
G04 #@! TF.SameCoordinates,044CC30A-6F31-4426-BCA9-A8A858A33F02*
G04*
G04*
G04 #@! TF.FilePolarity,Positive*
G04*
G01*
G75*
%ADD10C,0.2000*%
%ADD11C,0.1270*%
%ADD12C,0.2540*%
%ADD13C,0.3500*%
%ADD14C,0.1500*%
%ADD15C,0.2500*%
%ADD16C,0.1524*%
%ADD17C,0.1520*%
%ADD18C,0.1000*%
%ADD19C,0.1250*%
D10*
X337101Y1070200D02*
G03*
X337101Y1054300I16149J-7950D01*
G01*
X369399D02*
G03*
X369399Y1070200I-16149J7950D01*
G01*
X655700Y1372399D02*
G03*
X639800Y1372399I-7950J-16149D01*
G01*
Y1340101D02*
G03*
X655700Y1340101I7950J16149D01*
G01*
X279800Y1295601D02*
G03*
X295700Y1295601I7950J16149D01*
G01*
Y1327899D02*
G03*
X279800Y1327899I-7950J-16149D01*
G01*
X598395Y1135674D02*
G03*
X598395Y1095826I38105J-19924D01*
G01*
X682605D02*
G03*
X682654Y1135580I-38105J19924D01*
G01*
X598395Y1324924D02*
G03*
X598395Y1285076I38105J-19924D01*
G01*
X682605D02*
G03*
X682654Y1324830I-38105J19924D01*
G01*
X265000Y1135000D02*
G03*
X265000Y1135000I-1000J0D01*
G01*
X472500Y1311250D02*
G03*
X472500Y1311250I-1000J0D01*
G01*
X325750Y1079100D02*
G03*
X325750Y1079100I-1000J0D01*
G01*
X535851Y1139700D02*
G03*
X535851Y1123800I16149J-7950D01*
G01*
X568149D02*
G03*
X568149Y1139700I-16149J7950D01*
G01*
X405899Y1054299D02*
G03*
X405899Y1070200I-16149J7950D01*
G01*
X373601D02*
G03*
X373601Y1054299I16149J-7950D01*
G01*
X568399Y1105800D02*
G03*
X568399Y1121700I-16149J7950D01*
G01*
X536101D02*
G03*
X536101Y1105800I16149J-7950D01*
G01*
X623601Y1264450D02*
G03*
X623601Y1248550I16149J-7950D01*
G01*
X655899D02*
G03*
X655899Y1264450I-16149J7950D01*
G01*
X595500Y1226000D02*
G03*
X595500Y1226000I-1000J0D01*
G01*
X531101Y1376200D02*
G03*
X531101Y1360300I16149J-7950D01*
G01*
X563399D02*
G03*
X563399Y1376200I-16149J7950D01*
G01*
X562899Y1343800D02*
G03*
X562899Y1359700I-16149J7950D01*
G01*
X530601D02*
G03*
X530601Y1343800I16149J-7950D01*
G01*
X312899Y1328049D02*
G03*
X312899Y1343950I-16149J7950D01*
G01*
X280600D02*
G03*
X280600Y1328049I16149J-7950D01*
G01*
X655149Y1159049D02*
G03*
X655149Y1174950I-16149J7950D01*
G01*
X622851D02*
G03*
X622851Y1159049I16149J-7950D01*
G01*
X535601Y1156450D02*
G03*
X535601Y1140549I16149J-7950D01*
G01*
X567899D02*
G03*
X567899Y1156450I-16149J7950D01*
G01*
X536351Y1171700D02*
G03*
X536351Y1155800I16149J-7950D01*
G01*
X568649D02*
G03*
X568649Y1171700I-16149J7950D01*
G01*
X536101Y1187700D02*
G03*
X536101Y1171800I16149J-7950D01*
G01*
X568399D02*
G03*
X568399Y1187700I-16149J7950D01*
G01*
X703700Y1372899D02*
G03*
X687800Y1372899I-7950J-16149D01*
G01*
Y1340601D02*
G03*
X703700Y1340601I7950J16149D01*
G01*
X663700Y1088399D02*
G03*
X647800Y1088399I-7950J-16149D01*
G01*
Y1056101D02*
G03*
X663700Y1056101I7950J16149D01*
G01*
X678800Y1056601D02*
G03*
X694700Y1056601I7950J16149D01*
G01*
Y1088899D02*
G03*
X678800Y1088899I-7950J-16149D01*
G01*
X337250Y1054250D02*
X369250D01*
X337250Y1070250D02*
X369250D01*
X639750Y1340250D02*
Y1372250D01*
X655750Y1340250D02*
Y1372250D01*
X295750Y1295750D02*
Y1327750D01*
X279750Y1295750D02*
Y1327750D01*
X598500Y1135750D02*
X682500D01*
X598500Y1095750D02*
X682500D01*
X598500Y1325000D02*
X682500D01*
X598500Y1285000D02*
X682500D01*
X398250Y1364000D02*
X447750D01*
Y1311000D02*
Y1364000D01*
X398250Y1311000D02*
X447750D01*
X398250D02*
Y1364000D01*
X536000Y1123750D02*
X568000D01*
X536000Y1139750D02*
X568000D01*
X373750Y1070250D02*
X405750D01*
X373750Y1054250D02*
X405750D01*
X536250Y1121750D02*
X568250D01*
X536250Y1105750D02*
X568250D01*
X623750Y1248500D02*
X655750D01*
X623750Y1264500D02*
X655750D01*
X408000Y1362750D02*
Y1378750D01*
Y1362750D02*
X442000D01*
Y1378750D01*
X408000D02*
X442000D01*
X563750Y1327750D02*
Y1343750D01*
X529750D02*
X563750D01*
X529750Y1327750D02*
Y1343750D01*
Y1327750D02*
X563750D01*
X529750Y1311750D02*
Y1327750D01*
Y1311750D02*
X563750D01*
Y1327750D01*
X529750D02*
X563750D01*
X531250Y1360250D02*
X563250D01*
X531250Y1376250D02*
X563250D01*
X530750Y1359750D02*
X562750D01*
X530750Y1343750D02*
X562750D01*
X280750Y1344000D02*
X312750D01*
X280750Y1328000D02*
X312750D01*
X267000Y1163000D02*
Y1179000D01*
Y1163000D02*
X301000D01*
Y1179000D01*
X267000D02*
X301000D01*
X584250Y1246750D02*
Y1280750D01*
X600250D01*
Y1246750D02*
Y1280750D01*
X584250Y1246750D02*
X600250D01*
Y1280750D01*
X616250D01*
Y1246750D02*
Y1280750D01*
X600250Y1246750D02*
X616250D01*
X623000Y1175000D02*
X655000D01*
X623000Y1159000D02*
X655000D01*
X681250Y1249500D02*
Y1283500D01*
X697250D01*
Y1249500D02*
Y1283500D01*
X681250Y1249500D02*
X697250D01*
X664750D02*
Y1283500D01*
X680750D01*
Y1249500D02*
Y1283500D01*
X664750Y1249500D02*
X680750D01*
X535750Y1140500D02*
X567750D01*
X535750Y1156500D02*
X567750D01*
X536500Y1155750D02*
X568500D01*
X536500Y1171750D02*
X568500D01*
X536250D02*
X568250D01*
X536250Y1187750D02*
X568250D01*
X673500Y1135000D02*
X697500D01*
Y1185000D01*
X673500D02*
X697500D01*
X673500Y1135000D02*
Y1185000D01*
X657750Y1142000D02*
Y1176000D01*
X673750D01*
Y1142000D02*
Y1176000D01*
X657750Y1142000D02*
X673750D01*
X708750Y1266500D02*
X726750D01*
Y1236500D02*
Y1266500D01*
X708750Y1236500D02*
Y1266500D01*
X687750Y1340750D02*
Y1372750D01*
X703750Y1340750D02*
Y1372750D01*
X274250Y1093750D02*
Y1127750D01*
X258250Y1093750D02*
X274250D01*
X258250D02*
Y1127750D01*
X274250D01*
X290500Y1093750D02*
Y1127750D01*
X274500Y1093750D02*
X290500D01*
X274500D02*
Y1127750D01*
X290500D01*
X709500Y1175250D02*
X727500D01*
X709500D02*
Y1205250D01*
X727500Y1175250D02*
Y1205250D01*
X647750Y1056250D02*
Y1088250D01*
X663750Y1056250D02*
Y1088250D01*
X694750Y1056750D02*
Y1088750D01*
X678750Y1056750D02*
Y1088750D01*
X289000Y1352250D02*
G03*
X289000Y1352250I-1000J0D01*
G01*
X265000Y1135000D02*
G03*
X265000Y1135000I-1000J0D01*
G01*
X480400Y1303650D02*
G03*
X480400Y1303650I-1000J0D01*
G01*
X330250Y1067650D02*
G03*
X330250Y1067650I-1000J0D01*
G01*
X605210Y1234250D02*
G03*
X605210Y1234250I-1000J0D01*
G01*
D11*
X408162Y1356500D02*
G03*
X408162Y1356500I-3162J0D01*
G01*
X407236D02*
G03*
X407236Y1356500I-2236J0D01*
G01*
X406414D02*
G03*
X406414Y1356500I-1414J0D01*
G01*
X406000D02*
G03*
X406000Y1356500I-1000J0D01*
G01*
Y1355500D02*
G03*
X406000Y1355500I-1000J0D01*
G01*
X389236Y1363500D02*
G03*
X389236Y1363500I-2236J0D01*
G01*
X389000D02*
G03*
X389000Y1363500I-1000J0D01*
G01*
X388000D02*
G03*
X388000Y1363500I-1000J0D01*
G01*
X239700Y1275550D02*
X256500D01*
X202000D02*
X216300D01*
X239700Y1364950D02*
X256500D01*
X202000D02*
X216300D01*
X202000Y1275550D02*
Y1364950D01*
X273300Y1160300D02*
X277300D01*
Y1158500D02*
Y1160300D01*
X256700D02*
X260700D01*
X256700Y1158500D02*
Y1160300D01*
Y1139700D02*
Y1141500D01*
Y1139700D02*
X260700D01*
X273300D02*
X277300D01*
Y1141500D01*
X473250Y1324150D02*
Y1363150D01*
X523650Y1324150D02*
Y1363150D01*
X516750Y1283150D02*
Y1291049D01*
X316750Y1283150D02*
Y1291049D01*
X516750Y1091049D02*
Y1098949D01*
X316750Y1091049D02*
Y1098949D01*
X508851Y1291049D02*
X516750D01*
X316750D02*
X324650D01*
X508851Y1091049D02*
X516750D01*
X316750D02*
X324650D01*
X598000Y1228250D02*
X600500D01*
X598000Y1218250D02*
Y1228250D01*
Y1198250D02*
Y1208250D01*
Y1198250D02*
X600500D01*
X640500D02*
X643000D01*
Y1208250D01*
X640500Y1228250D02*
X643000D01*
Y1218250D02*
Y1228250D01*
X659500Y1223250D02*
Y1225750D01*
X662000Y1228250D01*
X664500D01*
X689500Y1198250D02*
Y1202250D01*
X685500Y1198250D02*
X689500D01*
X659500D02*
X663500D01*
X659500D02*
Y1202250D01*
X689500Y1224250D02*
Y1228250D01*
X685500D02*
X689500D01*
X202000Y1275550D02*
Y1364950D01*
Y1275550D02*
X275500D01*
Y1364950D01*
X202000D02*
X275500D01*
X206900Y1230250D02*
Y1375250D01*
X256700Y1160300D02*
X277300D01*
X256700Y1139700D02*
Y1160300D01*
Y1139700D02*
X277300D01*
Y1160300D01*
X473950Y1324150D02*
Y1363150D01*
X522950D01*
Y1324150D02*
Y1363150D01*
X473950Y1324150D02*
X522950D01*
X516750Y1091049D02*
Y1291049D01*
X316750Y1091049D02*
Y1291049D01*
X516750D01*
X316750Y1091049D02*
X516750D01*
X598000Y1228250D02*
X643000D01*
X598000Y1198250D02*
Y1228250D01*
Y1198250D02*
X643000D01*
Y1228250D01*
X654000Y1200250D02*
Y1225250D01*
X624000Y1200250D02*
X654000D01*
X624000D02*
Y1225250D01*
X654000D01*
X427750Y1090000D02*
X477750D01*
X427750Y1058000D02*
X477750D01*
Y1090000D01*
X427750Y1058000D02*
Y1090000D01*
X683800Y1204950D02*
Y1220550D01*
X668200D02*
X683800D01*
X668200Y1204950D02*
Y1220550D01*
Y1204950D02*
X683800D01*
X584500Y1225250D02*
X614500D01*
X584500Y1200250D02*
Y1225250D01*
Y1200250D02*
X614500D01*
Y1225250D01*
D12*
X655500Y1227250D02*
G03*
X655500Y1227250I-1000J0D01*
G01*
X595042Y1144244D02*
Y1159479D01*
X602659D01*
X605199Y1156940D01*
Y1151861D01*
X602659Y1149322D01*
X595042D01*
X600120D02*
X605199Y1144244D01*
X620434D02*
X610277D01*
X620434Y1154401D01*
Y1156940D01*
X617895Y1159479D01*
X612816D01*
X610277Y1156940D01*
X625512Y1144244D02*
X630591D01*
X628051D01*
Y1159479D01*
X625512Y1156940D01*
X595042Y1333728D02*
Y1348963D01*
X602659D01*
X605199Y1346424D01*
Y1341346D01*
X602659Y1338806D01*
X595042D01*
X600120D02*
X605199Y1333728D01*
X620434D02*
X610277D01*
X620434Y1343885D01*
Y1346424D01*
X617895Y1348963D01*
X612816D01*
X610277Y1346424D01*
X625512D02*
X628051Y1348963D01*
X633130D01*
X635669Y1346424D01*
Y1336267D01*
X633130Y1333728D01*
X628051D01*
X625512Y1336267D01*
Y1346424D01*
X1574749Y967678D02*
X1581820Y981820D01*
X1567678Y974749D02*
X1581820Y981820D01*
X1550000Y950000D02*
X1695964Y1095964D01*
X1727251D01*
X1518180Y918180D02*
X1525251Y932322D01*
X1518180Y918180D02*
X1532322Y925251D01*
X1518180Y918180D02*
X1550000Y950000D01*
X209000Y1268250D02*
X215094D01*
Y1265203D01*
X214078Y1264187D01*
X212047D01*
X211031Y1265203D01*
Y1268250D01*
X214078Y1258093D02*
X215094Y1259109D01*
Y1261140D01*
X214078Y1262156D01*
X210016D01*
X209000Y1261140D01*
Y1259109D01*
X210016Y1258093D01*
X215094Y1256062D02*
X209000D01*
Y1253015D01*
X210016Y1251999D01*
X211031D01*
X212047Y1253015D01*
Y1256062D01*
Y1253015D01*
X213063Y1251999D01*
X214078D01*
X215094Y1253015D01*
Y1256062D01*
Y1239811D02*
Y1243874D01*
X209000D01*
Y1239811D01*
X212047Y1243874D02*
Y1241843D01*
X215094Y1237780D02*
X209000D01*
Y1234733D01*
X210016Y1233717D01*
X214078D01*
X215094Y1234733D01*
Y1237780D01*
X214078Y1227623D02*
X215094Y1228639D01*
Y1230670D01*
X214078Y1231686D01*
X210016D01*
X209000Y1230670D01*
Y1228639D01*
X210016Y1227623D01*
X212047D01*
Y1229654D01*
X215094Y1221529D02*
Y1225592D01*
X209000D01*
Y1221529D01*
X212047Y1225592D02*
Y1223560D01*
D13*
X708750Y1226500D02*
Y1236500D01*
X726750Y1226500D02*
Y1236500D01*
X708750Y1226500D02*
X726750D01*
X727500Y1205250D02*
Y1215250D01*
X709500Y1205250D02*
Y1215250D01*
X727500D01*
D14*
X384836Y1376249D02*
Y1369584D01*
X386168Y1368251D01*
X388834D01*
X390167Y1369584D01*
Y1376249D01*
X392833Y1369584D02*
X394166Y1368251D01*
X396832D01*
X398164Y1369584D01*
Y1374916D01*
X396832Y1376249D01*
X394166D01*
X392833Y1374916D01*
Y1373583D01*
X394166Y1372250D01*
X398164D01*
X456836Y1375749D02*
Y1369084D01*
X458168Y1367751D01*
X460834D01*
X462167Y1369084D01*
Y1375749D01*
X464833Y1374416D02*
X466166Y1375749D01*
X468832D01*
X470164Y1374416D01*
Y1373083D01*
X468832Y1371750D01*
X470164Y1370417D01*
Y1369084D01*
X468832Y1367751D01*
X466166D01*
X464833Y1369084D01*
Y1370417D01*
X466166Y1371750D01*
X464833Y1373083D01*
Y1374416D01*
X466166Y1371750D02*
X468832D01*
X560913Y1085499D02*
Y1077501D01*
X556914D01*
X555582Y1078834D01*
Y1081500D01*
X556914Y1082833D01*
X560913D01*
X558247D02*
X555582Y1085499D01*
X547584Y1077501D02*
X552916D01*
Y1081500D01*
X550250Y1080167D01*
X548917D01*
X547584Y1081500D01*
Y1084166D01*
X548917Y1085499D01*
X551583D01*
X552916Y1084166D01*
X544918Y1078834D02*
X543585Y1077501D01*
X540920D01*
X539587Y1078834D01*
Y1084166D01*
X540920Y1085499D01*
X543585D01*
X544918Y1084166D01*
Y1078834D01*
X543418Y1297916D02*
X542085Y1299249D01*
X539419D01*
X538086Y1297916D01*
Y1292584D01*
X539419Y1291251D01*
X542085D01*
X543418Y1292584D01*
X546084Y1291251D02*
X548749D01*
X547416D01*
Y1299249D01*
X546084Y1297916D01*
X552748Y1291251D02*
X555414D01*
X554081D01*
Y1299249D01*
X552748Y1297916D01*
X542335Y1307916D02*
X541002Y1309249D01*
X538336D01*
X537003Y1307916D01*
Y1302584D01*
X538336Y1301251D01*
X541002D01*
X542335Y1302584D01*
X545001Y1301251D02*
X547666D01*
X546334D01*
Y1309249D01*
X545001Y1307916D01*
X551665D02*
X552998Y1309249D01*
X555664D01*
X556997Y1307916D01*
Y1302584D01*
X555664Y1301251D01*
X552998D01*
X551665Y1302584D01*
Y1307916D01*
X659750Y1221750D02*
G03*
X659750Y1221750I-750J0D01*
G01*
X689750Y1218750D02*
G03*
X689750Y1218750I-750J0D01*
G01*
X620250Y1221750D02*
G03*
X620250Y1221750I-750J0D01*
G01*
D15*
X0Y-0D02*
X1600000D01*
Y1000000D01*
X0D02*
X1600000D01*
X0Y-0D02*
Y1000000D01*
X1800000D02*
X1805667Y983000D01*
X1794333D02*
X1800000Y1000000D01*
X1794333Y17000D02*
X1800000Y-0D01*
X1805667Y17000D01*
X1800000Y500000D02*
Y1000000D01*
Y-0D02*
Y500000D01*
X1603750Y1000000D02*
X1802500D01*
X1603750Y-0D02*
X1802500D01*
X0Y1100000D02*
X17000Y1105667D01*
X0Y1100000D02*
X17000Y1094333D01*
X1583000D02*
X1600000Y1100000D01*
X1583000Y1105667D02*
X1600000Y1100000D01*
X0D02*
X800000D01*
X1600000D01*
X0Y1003750D02*
Y1102500D01*
X1600000Y1003750D02*
Y1102500D01*
D16*
X1732290Y1084443D02*
X1737288D01*
X1739787Y1086942D01*
Y1091941D01*
X1737288Y1094440D01*
X1732290D01*
X1729791Y1091941D01*
Y1086942D01*
X1732290Y1084443D01*
X1759781Y1086942D02*
X1762280Y1084443D01*
X1767279D01*
X1769778Y1086942D01*
Y1096939D01*
X1767279Y1099438D01*
X1762280D01*
X1759781Y1096939D01*
Y1094440D01*
X1762280Y1091941D01*
X1769778D01*
X1777275Y1081944D02*
X1779775Y1084443D01*
Y1086942D01*
X1777275D01*
Y1084443D01*
X1779775D01*
X1777275Y1081944D01*
X1774776Y1079445D01*
X1789771Y1096939D02*
X1792271Y1099438D01*
X1797269D01*
X1799768Y1096939D01*
Y1086942D01*
X1797269Y1084443D01*
X1792271D01*
X1789771Y1086942D01*
Y1096939D01*
X1804767D02*
X1807266Y1099438D01*
X1812264D01*
X1814763Y1096939D01*
Y1086942D01*
X1812264Y1084443D01*
X1807266D01*
X1804767Y1086942D01*
Y1096939D01*
X1819762Y1084443D02*
Y1094440D01*
X1822261D01*
X1824760Y1091941D01*
Y1084443D01*
Y1091941D01*
X1827259Y1094440D01*
X1829758Y1091941D01*
Y1084443D01*
X1834757D02*
Y1094440D01*
X1837256D01*
X1839755Y1091941D01*
Y1084443D01*
Y1091941D01*
X1842254Y1094440D01*
X1844754Y1091941D01*
Y1084443D01*
X754040Y1123361D02*
X759118D01*
X756579D01*
Y1138596D01*
X754040Y1136057D01*
X776892Y1138596D02*
X771814Y1136057D01*
X766736Y1130979D01*
Y1125901D01*
X769275Y1123361D01*
X774353D01*
X776892Y1125901D01*
Y1128440D01*
X774353Y1130979D01*
X766736D01*
X781971Y1136057D02*
X784510Y1138596D01*
X789588D01*
X792127Y1136057D01*
Y1125901D01*
X789588Y1123361D01*
X784510D01*
X781971Y1125901D01*
Y1136057D01*
X799745Y1120822D02*
X802284Y1123361D01*
Y1125901D01*
X799745D01*
Y1123361D01*
X802284D01*
X799745Y1120822D01*
X797206Y1118283D01*
X812441Y1136057D02*
X814980Y1138596D01*
X820058D01*
X822598Y1136057D01*
Y1125901D01*
X820058Y1123361D01*
X814980D01*
X812441Y1125901D01*
Y1136057D01*
X827676D02*
X830215Y1138596D01*
X835293D01*
X837833Y1136057D01*
Y1125901D01*
X835293Y1123361D01*
X830215D01*
X827676Y1125901D01*
Y1136057D01*
D17*
X1776647Y454044D02*
Y459122D01*
Y456583D01*
X1761411D01*
X1763951Y454044D01*
Y466739D02*
X1761411Y469278D01*
Y474357D01*
X1763951Y476896D01*
X1774107D01*
X1776647Y474357D01*
Y469278D01*
X1774107Y466739D01*
X1763951D01*
Y481974D02*
X1761411Y484514D01*
Y489592D01*
X1763951Y492131D01*
X1774107D01*
X1776647Y489592D01*
Y484514D01*
X1774107Y481974D01*
X1763951D01*
X1779186Y499749D02*
X1776647Y502288D01*
X1774107D01*
Y499749D01*
X1776647D01*
Y502288D01*
X1779186Y499749D01*
X1781725Y497210D01*
X1763951Y512445D02*
X1761411Y514984D01*
Y520062D01*
X1763951Y522601D01*
X1774107D01*
X1776647Y520062D01*
Y514984D01*
X1774107Y512445D01*
X1763951D01*
Y527680D02*
X1761411Y530219D01*
Y535297D01*
X1763951Y537836D01*
X1774107D01*
X1776647Y535297D01*
Y530219D01*
X1774107Y527680D01*
X1763951D01*
D18*
X345250Y1058250D02*
Y1066250D01*
Y1058250D02*
X361250D01*
Y1066250D01*
X345250D02*
X361250D01*
X643750Y1348250D02*
Y1364250D01*
X651750D01*
Y1348250D02*
Y1364250D01*
X643750Y1348250D02*
X651750D01*
X283750Y1303750D02*
X291750D01*
Y1319750D01*
X283750D02*
X291750D01*
X283750Y1303750D02*
Y1319750D01*
X608500Y1100750D02*
X672500D01*
X608500D02*
Y1130750D01*
X672500D01*
Y1100750D02*
Y1130750D01*
X608500Y1290000D02*
X672500D01*
X608500D02*
Y1320000D01*
X672500D01*
Y1290000D02*
Y1320000D01*
X544000Y1127750D02*
Y1135750D01*
Y1127750D02*
X560000D01*
Y1135750D01*
X544000D02*
X560000D01*
X734250Y1079000D02*
Y1129000D01*
X699250Y1079000D02*
Y1129000D01*
X734250D01*
X699250Y1079000D02*
X734250D01*
X701500Y1304500D02*
X736500D01*
X701500Y1354500D02*
X736500D01*
X701500Y1304500D02*
Y1354500D01*
X736500Y1304500D02*
Y1354500D01*
X397750Y1058250D02*
Y1066250D01*
X381750D02*
X397750D01*
X381750Y1058250D02*
Y1066250D01*
Y1058250D02*
X397750D01*
X560250Y1109750D02*
Y1117750D01*
X544250D02*
X560250D01*
X544250Y1109750D02*
Y1117750D01*
Y1109750D02*
X560250D01*
X631750Y1252500D02*
X647750D01*
X631750D02*
Y1260500D01*
X647750D01*
Y1252500D02*
Y1260500D01*
X417000Y1366750D02*
X433000D01*
X417000Y1374750D02*
X433000D01*
X417000Y1366750D02*
Y1374750D01*
X433000Y1366750D02*
Y1374750D01*
X538750Y1339750D02*
X554750D01*
X538750Y1331750D02*
X554750D01*
Y1339750D01*
X538750Y1331750D02*
Y1339750D01*
Y1315750D02*
X554750D01*
X538750Y1323750D02*
X554750D01*
X538750Y1315750D02*
Y1323750D01*
X554750Y1315750D02*
Y1323750D01*
X539250Y1364250D02*
X555250D01*
X539250D02*
Y1372250D01*
X555250D01*
Y1364250D02*
Y1372250D01*
X538750Y1355750D02*
X554750D01*
Y1347750D02*
Y1355750D01*
X538750Y1347750D02*
X554750D01*
X538750D02*
Y1355750D01*
X288750Y1340000D02*
X304750D01*
Y1332000D02*
Y1340000D01*
X288750Y1332000D02*
X304750D01*
X288750D02*
Y1340000D01*
X276000Y1167000D02*
X292000D01*
X276000Y1175000D02*
X292000D01*
X276000Y1167000D02*
Y1175000D01*
X292000Y1167000D02*
Y1175000D01*
X588250Y1271750D02*
X596250D01*
X588250Y1255750D02*
X596250D01*
X588250D02*
Y1271750D01*
X596250Y1255750D02*
Y1271750D01*
X604250D02*
X612250D01*
X604250Y1255750D02*
X612250D01*
X604250D02*
Y1271750D01*
X612250Y1255750D02*
Y1271750D01*
X647000Y1163000D02*
Y1171000D01*
X631000D02*
X647000D01*
X631000Y1163000D02*
Y1171000D01*
Y1163000D02*
X647000D01*
X685250Y1274500D02*
X693250D01*
X685250Y1258500D02*
X693250D01*
X685250D02*
Y1274500D01*
X693250Y1258500D02*
Y1274500D01*
X668750D02*
X676750D01*
X668750Y1258500D02*
X676750D01*
X668750D02*
Y1274500D01*
X676750Y1258500D02*
Y1274500D01*
X543750Y1144500D02*
Y1152500D01*
Y1144500D02*
X559750D01*
Y1152500D01*
X543750D02*
X559750D01*
X544500Y1159750D02*
Y1167750D01*
Y1159750D02*
X560500D01*
Y1167750D01*
X544500D02*
X560500D01*
X544250Y1175750D02*
Y1183750D01*
Y1175750D02*
X560250D01*
Y1183750D01*
X544250D02*
X560250D01*
X677500Y1176000D02*
X693500D01*
X677500Y1144000D02*
X693500D01*
X677500D02*
Y1176000D01*
X693500Y1144000D02*
Y1176000D01*
X661750Y1167000D02*
X669750D01*
X661750Y1151000D02*
X669750D01*
X661750D02*
Y1167000D01*
X669750Y1151000D02*
Y1167000D01*
X691750Y1364750D02*
X699750D01*
X691750Y1348750D02*
Y1364750D01*
Y1348750D02*
X699750D01*
Y1364750D01*
X262250Y1102750D02*
X270250D01*
X262250Y1118750D02*
X270250D01*
Y1102750D02*
Y1118750D01*
X262250Y1102750D02*
Y1118750D01*
X278500Y1102750D02*
X286500D01*
X278500Y1118750D02*
X286500D01*
Y1102750D02*
Y1118750D01*
X278500Y1102750D02*
Y1118750D01*
X651750Y1080250D02*
X659750D01*
X651750Y1064250D02*
Y1080250D01*
Y1064250D02*
X659750D01*
Y1080250D01*
X682750Y1064750D02*
X690750D01*
Y1080750D01*
X682750D02*
X690750D01*
X682750Y1064750D02*
Y1080750D01*
X543500Y1344750D02*
X573500D01*
X543500Y1356750D02*
X573500D01*
Y1344750D02*
Y1356750D01*
X543500Y1344750D02*
Y1356750D01*
X560975Y1362750D02*
X560975Y1356750D01*
X555975Y1362750D02*
X560975D01*
X555975Y1356750D02*
X555975Y1362750D01*
X546450Y1344750D02*
X546450Y1338750D01*
X551450D01*
X551450Y1344750D01*
X570500Y1338750D02*
X570500Y1344750D01*
X565500Y1338750D02*
X570500D01*
X565500Y1344750D02*
X565500Y1338750D01*
X680500Y1058250D02*
Y1088250D01*
X668500Y1058250D02*
Y1088250D01*
X680500D01*
X668500Y1058250D02*
X680500D01*
X662500Y1075725D02*
X668500Y1075725D01*
X662500Y1070725D02*
Y1075725D01*
Y1070725D02*
X668500Y1070725D01*
X680500Y1061200D02*
X686500Y1061200D01*
Y1066200D01*
X680500Y1066200D02*
X686500Y1066200D01*
X680500Y1085250D02*
X686500Y1085250D01*
Y1080250D02*
Y1085250D01*
X680500Y1080250D02*
X686500Y1080250D01*
X574250Y1055750D02*
Y1085750D01*
X586250Y1055750D02*
Y1085750D01*
X574250Y1055750D02*
X586250D01*
X574250Y1085750D02*
X586250D01*
Y1068275D02*
X592250Y1068275D01*
Y1073275D01*
X586250Y1073275D02*
X592250Y1073275D01*
X568250Y1082800D02*
X574250Y1082800D01*
X568250Y1077800D02*
Y1082800D01*
Y1077800D02*
X574250Y1077800D01*
X568250Y1058750D02*
X574250Y1058750D01*
X568250Y1058750D02*
Y1063750D01*
X574250Y1063750D01*
X653750Y1345500D02*
Y1375500D01*
X665750Y1345500D02*
Y1375500D01*
X653750Y1345500D02*
X665750D01*
X653750Y1375500D02*
X665750D01*
Y1358025D02*
X671750Y1358025D01*
Y1363025D01*
X665750Y1363025D02*
X671750Y1363025D01*
X647750Y1372550D02*
X653750Y1372550D01*
X647750Y1367550D02*
Y1372550D01*
Y1367550D02*
X653750Y1367550D01*
X647750Y1348500D02*
X653750Y1348500D01*
X647750Y1348500D02*
Y1353500D01*
X653750Y1353500D01*
X298250Y1370250D02*
X326250D01*
X298250Y1354250D02*
X326250D01*
X331250Y1366250D02*
X331250Y1358250D01*
X326250D02*
X331250D01*
X326250Y1366250D02*
X331250D01*
X303250Y1359250D02*
Y1365250D01*
X300250Y1362250D02*
X306250D01*
X298250Y1354250D02*
Y1370250D01*
X326250Y1354250D02*
Y1370250D01*
X293250Y1358250D02*
X298250D01*
X293250Y1366250D02*
X298250D01*
X293250D02*
X293250Y1358250D01*
X608500Y1130750D02*
X672500D01*
X608500Y1100750D02*
Y1130750D01*
Y1100750D02*
X672500D01*
Y1130750D01*
X608500Y1320000D02*
X672500D01*
X608500Y1290000D02*
Y1320000D01*
Y1290000D02*
X672500D01*
Y1320000D01*
X409250Y1081750D02*
X417250D01*
X409250Y1065750D02*
X417250D01*
Y1081750D01*
X409250Y1065750D02*
Y1081750D01*
X233750Y1244250D02*
X241750D01*
X233750D02*
Y1260250D01*
X241750D01*
Y1244250D02*
Y1260250D01*
X250000Y1244750D02*
X258000D01*
X250000D02*
Y1260750D01*
X258000D01*
Y1244750D02*
Y1260750D01*
X480750Y1269000D02*
Y1277000D01*
X496750Y1269000D02*
Y1277000D01*
X480750D02*
X496750D01*
X480750Y1269000D02*
X496750D01*
X364300Y1251250D02*
X441800D01*
X364300Y1316250D02*
X441800D01*
X364300Y1251250D02*
Y1316250D01*
X441800Y1251250D02*
Y1316250D01*
X407750Y1117000D02*
X415750D01*
Y1101000D02*
Y1117000D01*
X407750Y1101000D02*
X415750D01*
X407750D02*
Y1117000D01*
X647750Y1252500D02*
Y1260500D01*
X631750Y1252500D02*
X647750D01*
X631750D02*
Y1260500D01*
X647750D01*
X647000Y1163000D02*
Y1171000D01*
X631000Y1163000D02*
X647000D01*
X631000D02*
Y1171000D01*
X647000D01*
X281750Y1260500D02*
X289750D01*
X281750Y1244500D02*
X289750D01*
Y1260500D01*
X281750Y1244500D02*
Y1260500D01*
X488500Y1065750D02*
Y1081750D01*
X496500Y1065750D02*
Y1081750D01*
X488500Y1065750D02*
X496500D01*
X488500Y1081750D02*
X496500D01*
X420500Y1245500D02*
X436500D01*
X420500Y1237500D02*
Y1245500D01*
Y1237500D02*
X436500D01*
Y1245500D01*
X402000Y1101500D02*
Y1117500D01*
X394000D02*
X402000D01*
X394000Y1101500D02*
Y1117500D01*
Y1101500D02*
X402000D01*
X387750Y1101500D02*
Y1117500D01*
X379750D02*
X387750D01*
X379750Y1101500D02*
Y1117500D01*
Y1101500D02*
X387750D01*
X373000Y1101250D02*
Y1117250D01*
X365000D02*
X373000D01*
X365000Y1101250D02*
Y1117250D01*
Y1101250D02*
X373000D01*
X612750Y1155500D02*
Y1171500D01*
X604750Y1155500D02*
Y1171500D01*
X612750D01*
X604750Y1155500D02*
X612750D01*
X596250D02*
Y1171500D01*
X588250Y1155500D02*
Y1171500D01*
X596250D01*
X588250Y1155500D02*
X596250D01*
X542250Y1224500D02*
X558250D01*
X542250Y1232500D02*
X558250D01*
Y1224500D02*
Y1232500D01*
X542250Y1224500D02*
Y1232500D01*
X481000Y1230750D02*
X497000D01*
X481000Y1222750D02*
X497000D01*
X481000D02*
Y1230750D01*
X497000Y1222750D02*
Y1230750D01*
X669000Y1258500D02*
Y1274500D01*
X677000Y1258500D02*
Y1274500D01*
X669000Y1258500D02*
X677000D01*
X669000Y1274500D02*
X677000D01*
X684925Y1258476D02*
Y1274477D01*
X692925Y1258476D02*
Y1274477D01*
X684925Y1258476D02*
X692925D01*
X684925Y1274477D02*
X692925D01*
X266000Y1244750D02*
Y1260750D01*
Y1244750D02*
X274000D01*
Y1260750D01*
X266000D02*
X274000D01*
X225500Y1244750D02*
Y1260750D01*
X217500D02*
X225500D01*
X217500Y1244750D02*
Y1260750D01*
Y1244750D02*
X225500D01*
X222750Y1317000D02*
X238750D01*
X222750Y1309000D02*
Y1317000D01*
Y1309000D02*
X238750D01*
Y1317000D01*
X222500Y1349500D02*
X238500D01*
X222500Y1341500D02*
Y1349500D01*
Y1341500D02*
X238500D01*
Y1349500D01*
X222750Y1301000D02*
X238750D01*
X222750Y1293000D02*
Y1301000D01*
Y1293000D02*
X238750D01*
Y1301000D01*
X222750Y1333250D02*
X238750D01*
X222750Y1325250D02*
Y1333250D01*
Y1325250D02*
X238750D01*
Y1333250D01*
X339500Y1101250D02*
Y1117250D01*
X347500Y1101250D02*
Y1117250D01*
X339500Y1101250D02*
X347500D01*
X339500Y1117250D02*
X347500D01*
X487250Y1174750D02*
X503250D01*
X487250Y1182750D02*
X503250D01*
Y1174750D02*
Y1182750D01*
X487250Y1174750D02*
Y1182750D01*
X485500Y1347500D02*
X501500D01*
X485500Y1339500D02*
X501500D01*
X485500D02*
Y1347500D01*
X501500Y1339500D02*
Y1347500D01*
X481250Y1301750D02*
X497250D01*
X481250Y1293750D02*
X497250D01*
X481250D02*
Y1301750D01*
X497250Y1293750D02*
Y1301750D01*
X450000Y1102000D02*
Y1118000D01*
X442000Y1102000D02*
Y1118000D01*
X450000D01*
X442000Y1102000D02*
X450000D01*
X543999Y1117750D02*
X560000D01*
X543999Y1109750D02*
X560000D01*
X543999D02*
Y1117750D01*
X560000Y1109750D02*
Y1117750D01*
X330750Y1321250D02*
X346750D01*
X330750Y1329250D02*
X346750D01*
Y1321250D02*
Y1329250D01*
X330750Y1321250D02*
Y1329250D01*
X328500Y1223000D02*
Y1239000D01*
X320500Y1223000D02*
Y1239000D01*
X328500D01*
X320500Y1223000D02*
X328500D01*
X419000Y1327500D02*
Y1343500D01*
X411000Y1327500D02*
Y1343500D01*
X419000D01*
X411000Y1327500D02*
X419000D01*
X320250Y1259750D02*
Y1275750D01*
X328250Y1259750D02*
Y1275750D01*
X320250Y1259750D02*
X328250D01*
X320250Y1275750D02*
X328250D01*
X469750Y1102000D02*
Y1118000D01*
X477750Y1102000D02*
Y1118000D01*
X469750Y1102000D02*
X477750D01*
X469750Y1118000D02*
X477750D01*
X677000Y1155750D02*
Y1171750D01*
X669000Y1155750D02*
Y1171750D01*
X677000D01*
X669000Y1155750D02*
X677000D01*
X485250Y1102000D02*
Y1118000D01*
X493250Y1102000D02*
Y1118000D01*
X485250Y1102000D02*
X493250D01*
X485250Y1118000D02*
X493250D01*
X692750Y1155500D02*
Y1171500D01*
X684750Y1155500D02*
Y1171500D01*
X692750D01*
X684750Y1155500D02*
X692750D01*
X714500Y1188250D02*
Y1204250D01*
Y1188250D02*
X722500D01*
Y1204250D01*
X714500D02*
X722500D01*
X722000Y1238500D02*
Y1254500D01*
X714000D02*
X722000D01*
X714000Y1238500D02*
Y1254500D01*
Y1238500D02*
X722000D01*
X421000Y1221750D02*
X437000D01*
X421000Y1213750D02*
Y1221750D01*
Y1213750D02*
X437000D01*
Y1221750D01*
D19*
X570000Y1348750D02*
G03*
X570000Y1348750I-500J0D01*
G01*
X677000Y1084250D02*
G03*
X677000Y1084250I-500J0D01*
G01*
X578750Y1059750D02*
G03*
X578750Y1059750I-500J0D01*
G01*
X658250Y1349500D02*
G03*
X658250Y1349500I-500J0D01*
G01*
M02*
