G04*
G04 #@! TF.GenerationSoftware,Altium Limited,Altium Designer,24.4.1 (13)*
G04*
G04 Layer_Physical_Order=2*
G04 Layer_Color=36540*
%FSLAX44Y44*%
%MOMM*%
G71*
G04*
G04 #@! TF.SameCoordinates,044CC30A-6F31-4426-BCA9-A8A858A33F02*
G04*
G04*
G04 #@! TF.FilePolarity,Positive*
G04*
G01*
G75*
%ADD10C,0.2000*%
%ADD11C,0.1270*%
%ADD12C,0.2540*%
%ADD14C,0.1500*%
%ADD15C,0.2500*%
%ADD16C,0.1524*%
%ADD17C,0.1520*%
%ADD18C,0.1000*%
%ADD19C,0.1250*%
%ADD68C,0.6000*%
%ADD71C,0.8000*%
%ADD72C,0.1250*%
G36*
X730000Y990000D02*
X200250D01*
Y1439750D01*
X200354Y1440000D01*
X730000D01*
Y990000D01*
D02*
G37*
%LPC*%
G36*
X426725Y1429472D02*
X425034D01*
X423472Y1428825D01*
X422277Y1427630D01*
X421630Y1426067D01*
Y1424377D01*
X422277Y1422815D01*
X423472Y1421619D01*
X425034Y1420972D01*
X426725D01*
X428287Y1421619D01*
X429483Y1422815D01*
X430130Y1424377D01*
Y1426067D01*
X429483Y1427630D01*
X428287Y1428825D01*
X426725Y1429472D01*
D02*
G37*
G36*
X414025D02*
X412334D01*
X410772Y1428825D01*
X409577Y1427630D01*
X408930Y1426067D01*
Y1424377D01*
X409577Y1422815D01*
X410772Y1421619D01*
X412334Y1420972D01*
X414025D01*
X415587Y1421619D01*
X416783Y1422815D01*
X417430Y1424377D01*
Y1426067D01*
X416783Y1427630D01*
X415587Y1428825D01*
X414025Y1429472D01*
D02*
G37*
G36*
X260845Y1429250D02*
X259155D01*
X257593Y1428603D01*
X256397Y1427407D01*
X255750Y1425845D01*
Y1424155D01*
X256397Y1422593D01*
X257593Y1421397D01*
X259155Y1420750D01*
X260845D01*
X262407Y1421397D01*
X263603Y1422593D01*
X264250Y1424155D01*
Y1425845D01*
X263603Y1427407D01*
X262407Y1428603D01*
X260845Y1429250D01*
D02*
G37*
G36*
X720845Y1429250D02*
X719154D01*
X717592Y1428603D01*
X716397Y1427407D01*
X715750Y1425845D01*
Y1424155D01*
X716397Y1422592D01*
X717592Y1421397D01*
X719154Y1420750D01*
X720845D01*
X722407Y1421397D01*
X723603Y1422592D01*
X724250Y1424155D01*
Y1425845D01*
X723603Y1427407D01*
X722407Y1428603D01*
X720845Y1429250D01*
D02*
G37*
G36*
X708145D02*
X706454D01*
X704892Y1428603D01*
X703697Y1427407D01*
X703050Y1425845D01*
Y1424155D01*
X703697Y1422592D01*
X704892Y1421397D01*
X706454Y1420750D01*
X708145D01*
X709707Y1421397D01*
X710903Y1422592D01*
X711550Y1424155D01*
Y1425845D01*
X710903Y1427407D01*
X709707Y1428603D01*
X708145Y1429250D01*
D02*
G37*
G36*
X695445D02*
X693754D01*
X692192Y1428603D01*
X690997Y1427407D01*
X690350Y1425845D01*
Y1424155D01*
X690997Y1422592D01*
X692192Y1421397D01*
X693754Y1420750D01*
X695445D01*
X697007Y1421397D01*
X698203Y1422592D01*
X698850Y1424155D01*
Y1425845D01*
X698203Y1427407D01*
X697007Y1428603D01*
X695445Y1429250D01*
D02*
G37*
G36*
X682745D02*
X681054D01*
X679492Y1428603D01*
X678297Y1427407D01*
X677650Y1425845D01*
Y1424155D01*
X678297Y1422592D01*
X679492Y1421397D01*
X681054Y1420750D01*
X682745D01*
X684307Y1421397D01*
X685503Y1422592D01*
X686150Y1424155D01*
Y1425845D01*
X685503Y1427407D01*
X684307Y1428603D01*
X682745Y1429250D01*
D02*
G37*
G36*
X670045D02*
X668354D01*
X666792Y1428603D01*
X665597Y1427407D01*
X664950Y1425845D01*
Y1424155D01*
X665597Y1422592D01*
X666792Y1421397D01*
X668354Y1420750D01*
X670045D01*
X671607Y1421397D01*
X672803Y1422592D01*
X673450Y1424155D01*
Y1425845D01*
X672803Y1427407D01*
X671607Y1428603D01*
X670045Y1429250D01*
D02*
G37*
G36*
X657345D02*
X655654D01*
X654092Y1428603D01*
X652897Y1427407D01*
X652250Y1425845D01*
Y1424155D01*
X652897Y1422592D01*
X654092Y1421397D01*
X655654Y1420750D01*
X657345D01*
X658907Y1421397D01*
X660103Y1422592D01*
X660750Y1424155D01*
Y1425845D01*
X660103Y1427407D01*
X658907Y1428603D01*
X657345Y1429250D01*
D02*
G37*
G36*
X644645D02*
X642954D01*
X641392Y1428603D01*
X640197Y1427407D01*
X639550Y1425845D01*
Y1424155D01*
X640197Y1422592D01*
X641392Y1421397D01*
X642954Y1420750D01*
X644645D01*
X646207Y1421397D01*
X647403Y1422592D01*
X648050Y1424155D01*
Y1425845D01*
X647403Y1427407D01*
X646207Y1428603D01*
X644645Y1429250D01*
D02*
G37*
G36*
X401345D02*
X399654D01*
X398092Y1428603D01*
X396897Y1427407D01*
X396250Y1425845D01*
Y1424155D01*
X396897Y1422592D01*
X398092Y1421397D01*
X399654Y1420750D01*
X401345D01*
X402907Y1421397D01*
X404103Y1422592D01*
X404750Y1424155D01*
Y1425845D01*
X404103Y1427407D01*
X402907Y1428603D01*
X401345Y1429250D01*
D02*
G37*
G36*
X363245D02*
X361554D01*
X359992Y1428603D01*
X358797Y1427407D01*
X358150Y1425845D01*
Y1424155D01*
X358797Y1422592D01*
X359992Y1421397D01*
X361554Y1420750D01*
X363245D01*
X364807Y1421397D01*
X366003Y1422592D01*
X366650Y1424155D01*
Y1425845D01*
X366003Y1427407D01*
X364807Y1428603D01*
X363245Y1429250D01*
D02*
G37*
G36*
X350545D02*
X348854D01*
X347292Y1428603D01*
X346097Y1427407D01*
X345450Y1425845D01*
Y1424155D01*
X346097Y1422592D01*
X347292Y1421397D01*
X348854Y1420750D01*
X350545D01*
X352107Y1421397D01*
X353303Y1422592D01*
X353950Y1424155D01*
Y1425845D01*
X353303Y1427407D01*
X352107Y1428603D01*
X350545Y1429250D01*
D02*
G37*
G36*
X337845D02*
X336154D01*
X334592Y1428603D01*
X333397Y1427407D01*
X332750Y1425845D01*
Y1424155D01*
X333397Y1422592D01*
X334592Y1421397D01*
X336154Y1420750D01*
X337845D01*
X339407Y1421397D01*
X340603Y1422592D01*
X341250Y1424155D01*
Y1425845D01*
X340603Y1427407D01*
X339407Y1428603D01*
X337845Y1429250D01*
D02*
G37*
G36*
X325145D02*
X323454D01*
X321892Y1428603D01*
X320697Y1427407D01*
X320050Y1425845D01*
Y1424155D01*
X320697Y1422592D01*
X321892Y1421397D01*
X323454Y1420750D01*
X325145D01*
X326707Y1421397D01*
X327903Y1422592D01*
X328550Y1424155D01*
Y1425845D01*
X327903Y1427407D01*
X326707Y1428603D01*
X325145Y1429250D01*
D02*
G37*
G36*
X312445D02*
X310754D01*
X309192Y1428603D01*
X307997Y1427407D01*
X307350Y1425845D01*
Y1424155D01*
X307997Y1422592D01*
X309192Y1421397D01*
X310754Y1420750D01*
X312445D01*
X314007Y1421397D01*
X315203Y1422592D01*
X315850Y1424155D01*
Y1425845D01*
X315203Y1427407D01*
X314007Y1428603D01*
X312445Y1429250D01*
D02*
G37*
G36*
X299745D02*
X298054D01*
X296492Y1428603D01*
X295297Y1427407D01*
X294650Y1425845D01*
Y1424155D01*
X295297Y1422592D01*
X296492Y1421397D01*
X298054Y1420750D01*
X299745D01*
X301307Y1421397D01*
X302503Y1422592D01*
X303150Y1424155D01*
Y1425845D01*
X302503Y1427407D01*
X301307Y1428603D01*
X299745Y1429250D01*
D02*
G37*
G36*
X287045D02*
X285354D01*
X283792Y1428603D01*
X282597Y1427407D01*
X281950Y1425845D01*
Y1424155D01*
X282597Y1422592D01*
X283792Y1421397D01*
X285354Y1420750D01*
X287045D01*
X288607Y1421397D01*
X289803Y1422592D01*
X290450Y1424155D01*
Y1425845D01*
X289803Y1427407D01*
X288607Y1428603D01*
X287045Y1429250D01*
D02*
G37*
G36*
X274345D02*
X272654D01*
X271092Y1428603D01*
X269897Y1427407D01*
X269250Y1425845D01*
Y1424155D01*
X269897Y1422592D01*
X271092Y1421397D01*
X272654Y1420750D01*
X274345D01*
X275907Y1421397D01*
X277103Y1422592D01*
X277750Y1424155D01*
Y1425845D01*
X277103Y1427407D01*
X275907Y1428603D01*
X274345Y1429250D01*
D02*
G37*
G36*
X631995Y1429250D02*
X630304D01*
X628742Y1428603D01*
X627547Y1427407D01*
X626900Y1425845D01*
Y1424154D01*
X627547Y1422592D01*
X628742Y1421397D01*
X630304Y1420750D01*
X631995D01*
X633557Y1421397D01*
X634753Y1422592D01*
X635400Y1424154D01*
Y1425845D01*
X634753Y1427407D01*
X633557Y1428603D01*
X631995Y1429250D01*
D02*
G37*
G36*
X619295D02*
X617604D01*
X616042Y1428603D01*
X614847Y1427407D01*
X614200Y1425845D01*
Y1424154D01*
X614847Y1422592D01*
X616042Y1421397D01*
X617604Y1420750D01*
X619295D01*
X620857Y1421397D01*
X622053Y1422592D01*
X622700Y1424154D01*
Y1425845D01*
X622053Y1427407D01*
X620857Y1428603D01*
X619295Y1429250D01*
D02*
G37*
G36*
X606595D02*
X604905D01*
X603342Y1428603D01*
X602147Y1427407D01*
X601500Y1425845D01*
Y1424154D01*
X602147Y1422592D01*
X603342Y1421397D01*
X604905Y1420750D01*
X606595D01*
X608157Y1421397D01*
X609353Y1422592D01*
X610000Y1424154D01*
Y1425845D01*
X609353Y1427407D01*
X608157Y1428603D01*
X606595Y1429250D01*
D02*
G37*
G36*
X593895D02*
X592205D01*
X590642Y1428603D01*
X589447Y1427407D01*
X588800Y1425845D01*
Y1424154D01*
X589447Y1422592D01*
X590642Y1421397D01*
X592205Y1420750D01*
X593895D01*
X595457Y1421397D01*
X596653Y1422592D01*
X597300Y1424154D01*
Y1425845D01*
X596653Y1427407D01*
X595457Y1428603D01*
X593895Y1429250D01*
D02*
G37*
G36*
X581195D02*
X579505D01*
X577942Y1428603D01*
X576747Y1427407D01*
X576100Y1425845D01*
Y1424154D01*
X576747Y1422592D01*
X577942Y1421397D01*
X579505Y1420750D01*
X581195D01*
X582757Y1421397D01*
X583953Y1422592D01*
X584600Y1424154D01*
Y1425845D01*
X583953Y1427407D01*
X582757Y1428603D01*
X581195Y1429250D01*
D02*
G37*
G36*
X517695D02*
X516004D01*
X514442Y1428603D01*
X513247Y1427407D01*
X512600Y1425845D01*
Y1424154D01*
X513247Y1422592D01*
X514442Y1421397D01*
X516004Y1420750D01*
X517695D01*
X519257Y1421397D01*
X520453Y1422592D01*
X521100Y1424154D01*
Y1425845D01*
X520453Y1427407D01*
X519257Y1428603D01*
X517695Y1429250D01*
D02*
G37*
G36*
X504995D02*
X503304D01*
X501742Y1428603D01*
X500547Y1427407D01*
X499900Y1425845D01*
Y1424154D01*
X500547Y1422592D01*
X501742Y1421397D01*
X503304Y1420750D01*
X504995D01*
X506557Y1421397D01*
X507753Y1422592D01*
X508400Y1424154D01*
Y1425845D01*
X507753Y1427407D01*
X506557Y1428603D01*
X504995Y1429250D01*
D02*
G37*
G36*
X248345Y1428500D02*
X246655D01*
X245093Y1427853D01*
X243897Y1426657D01*
X243250Y1425095D01*
Y1423405D01*
X243897Y1421843D01*
X245093Y1420647D01*
X246655Y1420000D01*
X248345D01*
X249907Y1420647D01*
X251103Y1421843D01*
X251750Y1423405D01*
Y1425095D01*
X251103Y1426657D01*
X249907Y1427853D01*
X248345Y1428500D01*
D02*
G37*
G36*
X465595Y1416250D02*
X463905D01*
X462343Y1415603D01*
X461147Y1414407D01*
X460500Y1412845D01*
Y1411155D01*
X461147Y1409593D01*
X462343Y1408397D01*
X463905Y1407750D01*
X465595D01*
X467157Y1408397D01*
X468353Y1409593D01*
X469000Y1411155D01*
Y1412845D01*
X468353Y1414407D01*
X467157Y1415603D01*
X465595Y1416250D01*
D02*
G37*
G36*
X619595Y1414125D02*
X617905D01*
X616343Y1413478D01*
X615147Y1412283D01*
X614500Y1410720D01*
Y1409030D01*
X615147Y1407468D01*
X616343Y1406272D01*
X617905Y1405625D01*
X619595D01*
X621157Y1406272D01*
X622353Y1407468D01*
X623000Y1409030D01*
Y1410720D01*
X622353Y1412283D01*
X621157Y1413478D01*
X619595Y1414125D01*
D02*
G37*
G36*
X607095D02*
X605405D01*
X603843Y1413478D01*
X602647Y1412283D01*
X602000Y1410720D01*
Y1409030D01*
X602647Y1407468D01*
X603843Y1406272D01*
X605405Y1405625D01*
X607095D01*
X608657Y1406272D01*
X609853Y1407468D01*
X610500Y1409030D01*
Y1410720D01*
X609853Y1412283D01*
X608657Y1413478D01*
X607095Y1414125D01*
D02*
G37*
G36*
X462845Y1404750D02*
X461155D01*
X459593Y1404103D01*
X458397Y1402907D01*
X457750Y1401345D01*
Y1399655D01*
X458397Y1398093D01*
X459593Y1396897D01*
X461155Y1396250D01*
X462845D01*
X464407Y1396897D01*
X465603Y1398093D01*
X466250Y1399655D01*
Y1401345D01*
X465603Y1402907D01*
X464407Y1404103D01*
X462845Y1404750D01*
D02*
G37*
G36*
X568495Y1429250D02*
X566805D01*
X565242Y1428603D01*
X564047Y1427407D01*
X563400Y1425845D01*
Y1424154D01*
X564047Y1422592D01*
X565242Y1421397D01*
X566805Y1420750D01*
X568495D01*
X568991Y1420955D01*
X570363Y1419583D01*
Y1389680D01*
X569113Y1388890D01*
X568245Y1389250D01*
X566554D01*
X564992Y1388603D01*
X563797Y1387407D01*
X563150Y1385845D01*
Y1384154D01*
X563797Y1382592D01*
X564992Y1381397D01*
X565488Y1381191D01*
Y1340964D01*
X562737Y1338213D01*
X561487Y1338731D01*
Y1420375D01*
X561341Y1421106D01*
X560927Y1421726D01*
X558994Y1423659D01*
X559200Y1424154D01*
Y1425845D01*
X558553Y1427407D01*
X557357Y1428603D01*
X555795Y1429250D01*
X554104D01*
X552542Y1428603D01*
X551347Y1427407D01*
X550700Y1425845D01*
Y1424154D01*
X551347Y1422592D01*
X552542Y1421397D01*
X554104Y1420750D01*
X555795D01*
X556291Y1420955D01*
X557663Y1419583D01*
Y1389680D01*
X556413Y1388890D01*
X555545Y1389250D01*
X553854D01*
X552292Y1388603D01*
X551097Y1387407D01*
X550450Y1385845D01*
Y1384154D01*
X551097Y1382592D01*
X552292Y1381397D01*
X553854Y1380750D01*
X555545D01*
X556413Y1381109D01*
X557663Y1380319D01*
Y1337981D01*
X556648Y1336967D01*
X556234Y1336346D01*
X556088Y1335615D01*
Y1288308D01*
X555593Y1288103D01*
X554397Y1286907D01*
X553750Y1285345D01*
Y1283655D01*
X554397Y1282093D01*
X554742Y1281747D01*
X554499Y1280521D01*
X554093Y1280353D01*
X552897Y1279157D01*
X552250Y1277595D01*
Y1275905D01*
X552693Y1274835D01*
X551710Y1274140D01*
X551640Y1274110D01*
X550095Y1274750D01*
X548405D01*
X546842Y1274103D01*
X545912Y1273172D01*
X544686Y1273540D01*
X544662Y1273556D01*
Y1283945D01*
X545912Y1284734D01*
X546780Y1284375D01*
X548470D01*
X550033Y1285022D01*
X551228Y1286218D01*
X551875Y1287780D01*
Y1289470D01*
X551228Y1291033D01*
X550033Y1292228D01*
X548787Y1292744D01*
Y1420375D01*
X548641Y1421106D01*
X548227Y1421726D01*
X546295Y1423659D01*
X546500Y1424154D01*
Y1425845D01*
X545853Y1427407D01*
X544657Y1428603D01*
X543095Y1429250D01*
X541404D01*
X539842Y1428603D01*
X538647Y1427407D01*
X538000Y1425845D01*
Y1424154D01*
X538647Y1422592D01*
X539842Y1421397D01*
X541404Y1420750D01*
X543095D01*
X543591Y1420955D01*
X544963Y1419583D01*
Y1389680D01*
X543713Y1388890D01*
X542845Y1389250D01*
X541154D01*
X539592Y1388603D01*
X538397Y1387407D01*
X537912Y1386236D01*
X536662Y1386485D01*
Y1419799D01*
X536516Y1420531D01*
X536102Y1421151D01*
X533595Y1423659D01*
X533800Y1424154D01*
Y1425845D01*
X533153Y1427407D01*
X531957Y1428603D01*
X530395Y1429250D01*
X528704D01*
X527142Y1428603D01*
X525947Y1427407D01*
X525300Y1425845D01*
Y1424154D01*
X525947Y1422592D01*
X527142Y1421397D01*
X528704Y1420750D01*
X530395D01*
X530891Y1420955D01*
X532838Y1419008D01*
Y1389105D01*
X531588Y1388652D01*
X530145Y1389250D01*
X528454D01*
X526892Y1388603D01*
X525697Y1387407D01*
X525050Y1385845D01*
Y1384154D01*
X525697Y1382592D01*
X526892Y1381397D01*
X527388Y1381191D01*
Y1212950D01*
X527534Y1212219D01*
X527948Y1211598D01*
X531523Y1208023D01*
X532143Y1207609D01*
X532875Y1207463D01*
X533786D01*
X534147Y1206593D01*
X535343Y1205397D01*
X536905Y1204750D01*
X538595D01*
X540157Y1205397D01*
X541353Y1206593D01*
X542000Y1208155D01*
Y1209845D01*
X541353Y1211407D01*
X540157Y1212603D01*
X538595Y1213250D01*
X536905D01*
X535343Y1212603D01*
X534147Y1211407D01*
X533030Y1211924D01*
X531212Y1213742D01*
Y1260927D01*
X532462Y1261445D01*
X532635Y1261272D01*
X534197Y1260625D01*
X535888D01*
X537450Y1261272D01*
X538645Y1262467D01*
X539292Y1264030D01*
Y1265720D01*
X538645Y1267282D01*
X537450Y1268478D01*
X536662Y1268804D01*
Y1383515D01*
X537912Y1383763D01*
X538397Y1382592D01*
X539592Y1381397D01*
X540838Y1380881D01*
Y1256940D01*
X539588Y1256422D01*
X539407Y1256603D01*
X537845Y1257250D01*
X536155D01*
X534593Y1256603D01*
X533397Y1255407D01*
X532750Y1253845D01*
Y1252155D01*
X533397Y1250593D01*
X534593Y1249397D01*
X536155Y1248750D01*
X537845D01*
X539407Y1249397D01*
X539588Y1249578D01*
X540838Y1249060D01*
Y1237840D01*
X540984Y1237108D01*
X541398Y1236488D01*
X544419Y1233467D01*
X544369Y1233338D01*
X542795Y1232667D01*
X542595Y1232750D01*
X540904D01*
X539342Y1232103D01*
X538147Y1230908D01*
X537500Y1229345D01*
Y1227655D01*
X538147Y1226093D01*
X539342Y1224897D01*
X540904Y1224250D01*
X542595D01*
X543838Y1224765D01*
X545088Y1224195D01*
Y1218058D01*
X544593Y1217853D01*
X543397Y1216657D01*
X542750Y1215095D01*
Y1213405D01*
X543397Y1211843D01*
X544593Y1210647D01*
X546155Y1210000D01*
X547845D01*
X548713Y1210359D01*
X549963Y1209570D01*
Y1177195D01*
X550109Y1176463D01*
X550523Y1175843D01*
X550838Y1175528D01*
Y1111320D01*
X550984Y1110588D01*
X551398Y1109968D01*
X552116Y1109250D01*
X551598Y1108000D01*
X551155D01*
X549593Y1107353D01*
X548397Y1106157D01*
X547750Y1104595D01*
Y1102905D01*
X548397Y1101343D01*
X549593Y1100147D01*
X550088Y1099942D01*
Y1095229D01*
X549023Y1094164D01*
X548609Y1093544D01*
X548463Y1092812D01*
Y1082786D01*
X547213Y1082538D01*
X546853Y1083407D01*
X545657Y1084603D01*
X544095Y1085250D01*
X542405D01*
X540843Y1084603D01*
X539647Y1083407D01*
X539132Y1082163D01*
X537882Y1082412D01*
Y1119359D01*
X538097Y1119448D01*
X539293Y1120644D01*
X539940Y1122206D01*
Y1123897D01*
X539293Y1125459D01*
X538097Y1126654D01*
X536535Y1127301D01*
X534844D01*
X533282Y1126654D01*
X532087Y1125459D01*
X531440Y1123897D01*
Y1122206D01*
X532087Y1120644D01*
X533282Y1119448D01*
X534058Y1119127D01*
Y1080067D01*
X533843Y1079978D01*
X532647Y1078783D01*
X532000Y1077220D01*
Y1075530D01*
X532647Y1073968D01*
X533843Y1072772D01*
X535405Y1072125D01*
X537095D01*
X538657Y1072772D01*
X539853Y1073968D01*
X540500Y1075530D01*
Y1076186D01*
X541750Y1077021D01*
X542405Y1076750D01*
X544095D01*
X545657Y1077397D01*
X546853Y1078593D01*
X547213Y1079462D01*
X548463Y1079214D01*
Y1064464D01*
X547593Y1064103D01*
X546397Y1062907D01*
X546229Y1062502D01*
X545206Y1062298D01*
X544828Y1062386D01*
X543345Y1063000D01*
X541655D01*
X540093Y1062353D01*
X538897Y1061157D01*
X538250Y1059595D01*
Y1057905D01*
X538897Y1056343D01*
X540093Y1055147D01*
X541655Y1054500D01*
X543345D01*
X544907Y1055147D01*
X546103Y1056343D01*
X546271Y1056749D01*
X547294Y1056952D01*
X547672Y1056864D01*
X549155Y1056250D01*
X550845D01*
X552407Y1056897D01*
X553603Y1058093D01*
X554250Y1059655D01*
Y1061345D01*
X553603Y1062907D01*
X552407Y1064103D01*
X552287Y1064153D01*
Y1066070D01*
X553537Y1066860D01*
X554405Y1066500D01*
X556095D01*
X557657Y1067147D01*
X558853Y1068343D01*
X559500Y1069905D01*
Y1071595D01*
X558853Y1073157D01*
X557657Y1074353D01*
X556095Y1075000D01*
X554405D01*
X553537Y1074641D01*
X552287Y1075430D01*
Y1081820D01*
X553537Y1082463D01*
X554655Y1082000D01*
X556345D01*
X557907Y1082647D01*
X559103Y1083843D01*
X559750Y1085405D01*
Y1087095D01*
X559103Y1088657D01*
X557907Y1089853D01*
X557644Y1089962D01*
Y1091073D01*
X558761Y1091536D01*
X560648Y1089648D01*
X561268Y1089234D01*
X562000Y1089088D01*
X565192D01*
X565397Y1088593D01*
X566593Y1087397D01*
X568155Y1086750D01*
X569845D01*
X571407Y1087397D01*
X572603Y1088593D01*
X573250Y1090155D01*
Y1091845D01*
X572603Y1093407D01*
X571407Y1094603D01*
X569845Y1095250D01*
X568155D01*
X566593Y1094603D01*
X565397Y1093407D01*
X565192Y1092912D01*
X562792D01*
X561287Y1094417D01*
Y1098685D01*
X562537Y1099203D01*
X563343Y1098397D01*
X564905Y1097750D01*
X566595D01*
X568157Y1098397D01*
X569353Y1099593D01*
X570000Y1101155D01*
Y1102845D01*
X569353Y1104407D01*
X568157Y1105603D01*
X566595Y1106250D01*
X564905D01*
X563343Y1105603D01*
X562537Y1104797D01*
X561287Y1105315D01*
Y1108230D01*
X561141Y1108962D01*
X560727Y1109582D01*
X557412Y1112897D01*
Y1146356D01*
X557266Y1147087D01*
X557162Y1147244D01*
Y1177356D01*
X557016Y1178087D01*
X556602Y1178707D01*
X556287Y1179023D01*
Y1214421D01*
X557537Y1215256D01*
X558155Y1215000D01*
X559845D01*
X561407Y1215647D01*
X562603Y1216843D01*
X563250Y1218405D01*
Y1219841D01*
X563561Y1220095D01*
X564528Y1219375D01*
X564582Y1219294D01*
X564500Y1219095D01*
Y1217405D01*
X565147Y1215843D01*
X565604Y1215385D01*
X565311Y1213911D01*
X565283Y1213899D01*
X564087Y1212704D01*
X563441Y1211142D01*
Y1209451D01*
X564087Y1207889D01*
X565283Y1206693D01*
X566845Y1206046D01*
X568536D01*
X570098Y1206693D01*
X570463Y1207058D01*
X571713Y1206541D01*
Y1182112D01*
X569148Y1179547D01*
X568734Y1178927D01*
X568588Y1178195D01*
Y1138308D01*
X568093Y1138103D01*
X566897Y1136907D01*
X566250Y1135345D01*
Y1133655D01*
X566897Y1132093D01*
X567548Y1131442D01*
X567957Y1130625D01*
X567548Y1129808D01*
X566897Y1129157D01*
X566250Y1127595D01*
Y1125905D01*
X566897Y1124343D01*
X568093Y1123147D01*
X569655Y1122500D01*
X571345D01*
X572907Y1123147D01*
X574103Y1124343D01*
X574750Y1125905D01*
Y1127595D01*
X574545Y1128091D01*
X582791Y1136338D01*
X583206Y1136958D01*
X583351Y1137690D01*
Y1354104D01*
X583481Y1354234D01*
X583895Y1354854D01*
X584041Y1355586D01*
Y1360513D01*
X584977Y1361449D01*
X585391Y1362069D01*
X585537Y1362801D01*
Y1368519D01*
X585391Y1369251D01*
X584977Y1369871D01*
X582012Y1372836D01*
Y1381191D01*
X582507Y1381397D01*
X583703Y1382592D01*
X584350Y1384154D01*
Y1385845D01*
X583703Y1387407D01*
X582507Y1388603D01*
X580945Y1389250D01*
X579254D01*
X577692Y1388603D01*
X576497Y1387407D01*
X575850Y1385845D01*
Y1384154D01*
X576497Y1382592D01*
X577692Y1381397D01*
X578188Y1381191D01*
Y1372045D01*
X578334Y1371313D01*
X578748Y1370693D01*
X581713Y1367727D01*
Y1363592D01*
X580777Y1362657D01*
X580363Y1362036D01*
X580218Y1361305D01*
Y1356378D01*
X580088Y1356248D01*
X579673Y1355628D01*
X579528Y1354896D01*
Y1352491D01*
X578278Y1351739D01*
X577345Y1352125D01*
X575655D01*
X574787Y1351766D01*
X573537Y1352555D01*
Y1358071D01*
X573627Y1358161D01*
X574041Y1358781D01*
X574187Y1359512D01*
Y1420375D01*
X574041Y1421106D01*
X573627Y1421726D01*
X571694Y1423659D01*
X571900Y1424154D01*
Y1425845D01*
X571253Y1427407D01*
X570057Y1428603D01*
X568495Y1429250D01*
D02*
G37*
G36*
X388645Y1429250D02*
X386954D01*
X385392Y1428603D01*
X384197Y1427407D01*
X383550Y1425845D01*
Y1424155D01*
X384197Y1422592D01*
X385392Y1421397D01*
X386954Y1420750D01*
X388645D01*
X389141Y1420955D01*
X393713Y1416383D01*
Y1385055D01*
X392463Y1384537D01*
X391990Y1385010D01*
X392050Y1385154D01*
Y1386845D01*
X391403Y1388407D01*
X390207Y1389603D01*
X388645Y1390250D01*
X386954D01*
X385392Y1389603D01*
X384197Y1388407D01*
X383550Y1386845D01*
Y1385154D01*
X384197Y1383592D01*
X385392Y1382397D01*
X386954Y1381750D01*
X388645D01*
X389141Y1381955D01*
X392588Y1378508D01*
Y1340790D01*
X392533Y1340515D01*
Y1339479D01*
X392679Y1338748D01*
X393093Y1338127D01*
X393838Y1337383D01*
Y1321097D01*
X389148Y1316407D01*
X388734Y1315787D01*
X388588Y1315055D01*
Y1294176D01*
X388377Y1294019D01*
X387338Y1293709D01*
X383662Y1297386D01*
Y1326845D01*
X384912Y1327415D01*
X386155Y1326900D01*
X387846D01*
X389408Y1327547D01*
X390603Y1328743D01*
X391250Y1330305D01*
Y1331995D01*
X390603Y1333557D01*
X389408Y1334753D01*
X387846Y1335400D01*
X386155D01*
X384912Y1334885D01*
X383662Y1335455D01*
Y1339545D01*
X384912Y1340115D01*
X386155Y1339600D01*
X387846D01*
X389408Y1340247D01*
X390603Y1341443D01*
X391250Y1343004D01*
Y1344695D01*
X390603Y1346257D01*
X389408Y1347453D01*
X387846Y1348100D01*
X386155D01*
X384912Y1347585D01*
X383662Y1348155D01*
Y1352245D01*
X384912Y1352815D01*
X386155Y1352300D01*
X387846D01*
X389408Y1352947D01*
X390603Y1354142D01*
X391250Y1355704D01*
Y1357395D01*
X390603Y1358957D01*
X389408Y1360153D01*
X387846Y1360800D01*
X386155D01*
X384912Y1360285D01*
X383662Y1360855D01*
Y1373721D01*
X383516Y1374452D01*
X383102Y1375072D01*
X381887Y1376288D01*
Y1401410D01*
X381741Y1402142D01*
X381327Y1402762D01*
X377012Y1407077D01*
Y1421192D01*
X377507Y1421397D01*
X378703Y1422592D01*
X379350Y1424155D01*
Y1425845D01*
X378703Y1427407D01*
X377507Y1428603D01*
X375945Y1429250D01*
X374254D01*
X372692Y1428603D01*
X371497Y1427407D01*
X370850Y1425845D01*
Y1424155D01*
X371497Y1422592D01*
X372692Y1421397D01*
X373188Y1421192D01*
Y1406285D01*
X373334Y1405553D01*
X373748Y1404933D01*
X378063Y1400618D01*
Y1390680D01*
X376813Y1389890D01*
X375945Y1390250D01*
X374254D01*
X372692Y1389603D01*
X371497Y1388407D01*
X370850Y1386845D01*
Y1385154D01*
X371497Y1383592D01*
X372692Y1382397D01*
X373188Y1382191D01*
Y1379548D01*
X372033Y1379070D01*
X366445Y1384659D01*
X366650Y1385154D01*
Y1386845D01*
X366003Y1388407D01*
X364807Y1389603D01*
X363245Y1390250D01*
X361554D01*
X359992Y1389603D01*
X358797Y1388407D01*
X358150Y1386845D01*
Y1385154D01*
X358797Y1383592D01*
X359992Y1382397D01*
X361554Y1381750D01*
X363245D01*
X363741Y1381955D01*
X374838Y1370858D01*
Y1294523D01*
X374984Y1293791D01*
X375338Y1293261D01*
Y1255347D01*
X374088Y1254850D01*
X372720Y1255417D01*
X371030D01*
X369468Y1254770D01*
X368796Y1254098D01*
X368156Y1253629D01*
X367162Y1254098D01*
X366657Y1254603D01*
X365095Y1255250D01*
X363405D01*
X362787Y1255663D01*
Y1374825D01*
X362641Y1375556D01*
X362227Y1376176D01*
X353745Y1384659D01*
X353950Y1385154D01*
Y1386845D01*
X353303Y1388407D01*
X352107Y1389603D01*
X350545Y1390250D01*
X348854D01*
X347987Y1389890D01*
X346736Y1390680D01*
Y1394593D01*
X348602Y1396458D01*
X349016Y1397079D01*
X349162Y1397810D01*
Y1406692D01*
X349657Y1406897D01*
X350853Y1408093D01*
X351500Y1409655D01*
Y1411345D01*
X350853Y1412907D01*
X349657Y1414103D01*
X348095Y1414750D01*
X346405D01*
X344843Y1414103D01*
X343647Y1412907D01*
X343000Y1411345D01*
Y1409655D01*
X343008Y1409636D01*
X342015Y1408765D01*
X340845Y1409250D01*
X339155D01*
X337593Y1408603D01*
X336397Y1407407D01*
X335750Y1405845D01*
Y1404155D01*
X336397Y1402593D01*
X337593Y1401397D01*
X338088Y1401192D01*
Y1390412D01*
X337845Y1390250D01*
X336154D01*
X334592Y1389603D01*
X333397Y1388407D01*
X332750Y1386845D01*
Y1385154D01*
X333397Y1383592D01*
X334592Y1382397D01*
X336154Y1381750D01*
X337845D01*
X338713Y1382109D01*
X339963Y1381319D01*
Y1372811D01*
X338273Y1371121D01*
X337859Y1370501D01*
X337713Y1369769D01*
Y1317430D01*
X336463Y1316933D01*
X335095Y1317500D01*
X333405D01*
X331843Y1316853D01*
X331162Y1316172D01*
X329912Y1316690D01*
Y1342942D01*
X330407Y1343147D01*
X331603Y1344343D01*
X332250Y1345905D01*
Y1347595D01*
X331603Y1349157D01*
X330407Y1350353D01*
X328845Y1351000D01*
X327155D01*
X325593Y1350353D01*
X324397Y1349157D01*
X323750Y1347595D01*
Y1345905D01*
X324193Y1344835D01*
X323133Y1344127D01*
X322907Y1344353D01*
X321345Y1345000D01*
X319655D01*
X318093Y1344353D01*
X316897Y1343157D01*
X316250Y1341595D01*
Y1339905D01*
X316897Y1338343D01*
X318093Y1337147D01*
X319655Y1336500D01*
X321345D01*
X322907Y1337147D01*
X324103Y1338343D01*
X324750Y1339905D01*
Y1341595D01*
X324698Y1341720D01*
X325687Y1342599D01*
X326088Y1342374D01*
Y1330430D01*
X324838Y1329641D01*
X323970Y1330000D01*
X322280D01*
X320718Y1329353D01*
X319522Y1328158D01*
X318875Y1326595D01*
Y1324905D01*
X319522Y1323343D01*
X320718Y1322147D01*
X322280Y1321500D01*
X323970D01*
X324838Y1321860D01*
X326088Y1321070D01*
Y1286186D01*
X317773Y1277871D01*
X317359Y1277251D01*
X317213Y1276519D01*
Y1262186D01*
X316898Y1261871D01*
X316484Y1261251D01*
X316338Y1260519D01*
Y1256481D01*
X316484Y1255749D01*
X316898Y1255129D01*
X317213Y1254814D01*
Y1243686D01*
X316898Y1243371D01*
X316484Y1242751D01*
X316338Y1242019D01*
Y1237981D01*
X316484Y1237249D01*
X316898Y1236629D01*
X317213Y1236314D01*
Y1214875D01*
X317359Y1214143D01*
X317773Y1213523D01*
X320455Y1210841D01*
X320250Y1210345D01*
Y1208655D01*
X320897Y1207093D01*
X322093Y1205897D01*
X323655Y1205250D01*
X325345D01*
X326338Y1205661D01*
X327588Y1204945D01*
Y1203042D01*
X321648Y1197102D01*
X321234Y1196482D01*
X321088Y1195750D01*
Y1086792D01*
X319195Y1084898D01*
X318345Y1085250D01*
X316655D01*
X315093Y1084603D01*
X313897Y1083407D01*
X313250Y1081845D01*
Y1080155D01*
X313897Y1078593D01*
X315093Y1077397D01*
X316655Y1076750D01*
X318345D01*
X319907Y1077397D01*
X321103Y1078593D01*
X321750Y1080155D01*
Y1081845D01*
X321691Y1081988D01*
X324352Y1084648D01*
X324766Y1085268D01*
X324912Y1086000D01*
Y1194958D01*
X326706Y1196752D01*
X327861Y1196274D01*
Y1076072D01*
X328006Y1075341D01*
X328421Y1074721D01*
X328862Y1074280D01*
X328536Y1072838D01*
X327668Y1072478D01*
X326473Y1071283D01*
X325826Y1069721D01*
Y1068030D01*
X326473Y1066468D01*
X327668Y1065272D01*
X329230Y1064625D01*
X330921D01*
X330974Y1064647D01*
X331288Y1064555D01*
X331863Y1064001D01*
X331451Y1063375D01*
X330707D01*
X329145Y1062728D01*
X327949Y1061533D01*
X327302Y1059970D01*
Y1058280D01*
X327949Y1056718D01*
X329145Y1055522D01*
X330707Y1054875D01*
X332397D01*
X333265Y1055235D01*
X334515Y1054445D01*
Y1052005D01*
X329587Y1047077D01*
X328361Y1047321D01*
X328233Y1047629D01*
X327037Y1048825D01*
X325475Y1049472D01*
X323784D01*
X322222Y1048825D01*
X321027Y1047629D01*
X320380Y1046067D01*
Y1044377D01*
X321027Y1042815D01*
X322222Y1041619D01*
X323784Y1040972D01*
X325475D01*
X326343Y1041331D01*
X327593Y1040542D01*
Y1024046D01*
X326825Y1023728D01*
X325860Y1022763D01*
X325116Y1022627D01*
X324372Y1022763D01*
X323407Y1023728D01*
X321845Y1024375D01*
X320155D01*
X318593Y1023728D01*
X317397Y1022532D01*
X316750Y1020970D01*
Y1019279D01*
X317397Y1017718D01*
X318593Y1016522D01*
X320155Y1015875D01*
X321845D01*
X323407Y1016522D01*
X324372Y1017487D01*
X325116Y1017623D01*
X325860Y1017487D01*
X326825Y1016522D01*
X328387Y1015875D01*
X330078D01*
X331640Y1016522D01*
X332041Y1016923D01*
X332858Y1017697D01*
X333674Y1016923D01*
X334075Y1016522D01*
X335637Y1015875D01*
X337328D01*
X338890Y1016522D01*
X340086Y1017718D01*
X340733Y1019279D01*
Y1020970D01*
X340086Y1022532D01*
X338890Y1023728D01*
X337328Y1024375D01*
X335637D01*
X334075Y1023728D01*
X333674Y1023327D01*
X332858Y1022553D01*
X332041Y1023327D01*
X331640Y1023728D01*
X331417Y1023821D01*
Y1042953D01*
X332212Y1043624D01*
X333520Y1043314D01*
X333727Y1042815D01*
X334922Y1041619D01*
X336484Y1040972D01*
X338175D01*
X339737Y1041619D01*
X340933Y1042815D01*
X341580Y1044377D01*
Y1046067D01*
X340933Y1047629D01*
X339737Y1048825D01*
X338838Y1049197D01*
X338547Y1049569D01*
X338222Y1050409D01*
X338236Y1050697D01*
X338339Y1051214D01*
Y1061144D01*
X338193Y1061876D01*
X337779Y1062496D01*
X336862Y1063412D01*
Y1066994D01*
X338113Y1067828D01*
X338905Y1067500D01*
X340595D01*
X342157Y1068147D01*
X343353Y1069343D01*
X344000Y1070905D01*
Y1072595D01*
X343353Y1074157D01*
X342157Y1075353D01*
X340595Y1076000D01*
X338905D01*
X337343Y1075353D01*
X336147Y1074157D01*
X336063Y1073955D01*
X334837Y1073711D01*
X331684Y1076864D01*
Y1105277D01*
X332934Y1105795D01*
X333082Y1105647D01*
X334644Y1105000D01*
X336335D01*
X337897Y1105647D01*
X339092Y1106842D01*
X339739Y1108404D01*
Y1110095D01*
X339092Y1111657D01*
X337897Y1112853D01*
X336335Y1113500D01*
X334644D01*
X333082Y1112853D01*
X332934Y1112705D01*
X331684Y1113223D01*
Y1163993D01*
X332718Y1164289D01*
X332934Y1164299D01*
X334090Y1163144D01*
X334585Y1162939D01*
Y1158897D01*
X334731Y1158166D01*
X335145Y1157546D01*
X337036Y1155655D01*
X336711Y1154212D01*
X335843Y1153853D01*
X334647Y1152657D01*
X334000Y1151095D01*
Y1149405D01*
X334647Y1147843D01*
X335843Y1146647D01*
X337405Y1146000D01*
X339095D01*
X340088Y1146411D01*
X341338Y1145695D01*
Y1138433D01*
X340843Y1138228D01*
X339647Y1137032D01*
X339000Y1135470D01*
Y1133780D01*
X339647Y1132218D01*
X340843Y1131022D01*
X342405Y1130375D01*
X344095D01*
X345657Y1131022D01*
X346853Y1132218D01*
X346875Y1132271D01*
X348125D01*
X348147Y1132218D01*
X349343Y1131022D01*
X350905Y1130375D01*
X352595D01*
X354157Y1131022D01*
X355353Y1132218D01*
X356000Y1133780D01*
Y1135470D01*
X355353Y1137032D01*
X354157Y1138228D01*
X353662Y1138433D01*
Y1142515D01*
X354912Y1142764D01*
X355397Y1141592D01*
X356593Y1140397D01*
X358155Y1139750D01*
X359845D01*
X361407Y1140397D01*
X362603Y1141592D01*
X363250Y1143155D01*
Y1144845D01*
X363003Y1145443D01*
X363727Y1146167D01*
X364141Y1146787D01*
X364287Y1147519D01*
Y1199340D01*
X364141Y1200071D01*
X363727Y1200692D01*
X361287Y1203132D01*
Y1246320D01*
X362537Y1247110D01*
X363405Y1246750D01*
X365095D01*
X366657Y1247397D01*
X367329Y1248069D01*
X367969Y1248538D01*
X368963Y1248069D01*
X369468Y1247564D01*
X371030Y1246917D01*
X372720D01*
X374088Y1247484D01*
X375338Y1246986D01*
Y1202528D01*
X369898Y1197087D01*
X369484Y1196467D01*
X369338Y1195736D01*
Y1146308D01*
X368843Y1146103D01*
X367647Y1144907D01*
X367000Y1143345D01*
Y1141655D01*
X367647Y1140093D01*
X368843Y1138897D01*
X370405Y1138250D01*
X372095D01*
X373657Y1138897D01*
X374853Y1140093D01*
X375500Y1141655D01*
Y1143345D01*
X374853Y1144907D01*
X373657Y1146103D01*
X373162Y1146308D01*
Y1194944D01*
X378213Y1199995D01*
X379463Y1199478D01*
Y1147362D01*
X378397Y1146295D01*
X377750Y1144733D01*
Y1143043D01*
X378397Y1141481D01*
X379593Y1140285D01*
X381155Y1139638D01*
X382845D01*
X384407Y1140285D01*
X385603Y1141481D01*
X386250Y1143043D01*
Y1144733D01*
X385603Y1146295D01*
X384407Y1147491D01*
X383287Y1147955D01*
Y1236070D01*
X384537Y1236860D01*
X385405Y1236500D01*
X387095D01*
X388657Y1237147D01*
X389853Y1238343D01*
X390338Y1239514D01*
X391588Y1239265D01*
Y1147850D01*
X390992Y1147603D01*
X389797Y1146407D01*
X389150Y1144845D01*
Y1143154D01*
X389797Y1141592D01*
X390992Y1140397D01*
X392554Y1139750D01*
X394245D01*
X395807Y1140397D01*
X397002Y1141592D01*
X397649Y1143154D01*
Y1144845D01*
X397002Y1146407D01*
X395807Y1147603D01*
X395412Y1147766D01*
Y1246653D01*
X396030Y1247750D01*
X396543Y1247750D01*
X397720D01*
X399282Y1248397D01*
X400478Y1249593D01*
X401125Y1251155D01*
Y1252845D01*
X400478Y1254407D01*
X399282Y1255603D01*
X397720Y1256250D01*
X396044D01*
X394912Y1257382D01*
Y1313228D01*
X399602Y1317918D01*
X400016Y1318538D01*
X400162Y1319270D01*
Y1379085D01*
X400016Y1379817D01*
X399602Y1380437D01*
X399457Y1380581D01*
X400057Y1381750D01*
X401345D01*
X401841Y1381955D01*
X405055Y1378741D01*
Y1140789D01*
X404559Y1140583D01*
X403364Y1139388D01*
X402717Y1137826D01*
Y1136135D01*
X403364Y1134573D01*
X403374Y1134562D01*
X402662Y1133607D01*
X401100Y1134254D01*
X399409D01*
X397847Y1133607D01*
X396651Y1132412D01*
X396004Y1130850D01*
Y1129159D01*
X396651Y1127597D01*
X397847Y1126402D01*
X399143Y1125865D01*
X399646Y1124600D01*
X396648Y1121602D01*
X396234Y1120982D01*
X396088Y1120250D01*
Y1065976D01*
X394921Y1064809D01*
X394274Y1063247D01*
Y1061556D01*
X394921Y1059994D01*
X396116Y1058798D01*
X397678Y1058151D01*
X399369D01*
X400931Y1058798D01*
X402127Y1059994D01*
X402774Y1061556D01*
Y1063247D01*
X402127Y1064809D01*
X400931Y1066004D01*
X399912Y1066427D01*
Y1119458D01*
X406159Y1125705D01*
X406655Y1125500D01*
X408345D01*
X409907Y1126147D01*
X411103Y1127343D01*
X411570Y1127436D01*
X412323Y1126683D01*
X413885Y1126036D01*
X415575D01*
X417138Y1126683D01*
X418333Y1127878D01*
X418980Y1129441D01*
Y1131131D01*
X418333Y1132693D01*
X417138Y1133889D01*
X415575Y1134536D01*
X413885D01*
X412323Y1133889D01*
X411676Y1133242D01*
X410475Y1133722D01*
X410411Y1133823D01*
X410397Y1134400D01*
X410570Y1134573D01*
X411217Y1136135D01*
Y1137826D01*
X410570Y1139388D01*
X409374Y1140583D01*
X408879Y1140789D01*
Y1326596D01*
X410129Y1326844D01*
X410647Y1325593D01*
X411843Y1324397D01*
X413405Y1323750D01*
X415095D01*
X416657Y1324397D01*
X417853Y1325593D01*
X418500Y1327155D01*
Y1328845D01*
X417853Y1330407D01*
X416657Y1331603D01*
X415095Y1332250D01*
X413405D01*
X411843Y1331603D01*
X410647Y1330407D01*
X410129Y1329156D01*
X408879Y1329404D01*
Y1379533D01*
X408733Y1380264D01*
X408319Y1380885D01*
X404544Y1384659D01*
X404750Y1385154D01*
Y1386845D01*
X404103Y1388407D01*
X402907Y1389603D01*
X401345Y1390250D01*
X399654D01*
X398787Y1389890D01*
X397537Y1390680D01*
Y1417175D01*
X397391Y1417906D01*
X396977Y1418527D01*
X391844Y1423659D01*
X392050Y1424155D01*
Y1425845D01*
X391403Y1427407D01*
X390207Y1428603D01*
X388645Y1429250D01*
D02*
G37*
G36*
X426475Y1390472D02*
X424784D01*
X423222Y1389825D01*
X422027Y1388629D01*
X421380Y1387067D01*
Y1385377D01*
X422027Y1383815D01*
X423222Y1382619D01*
X424784Y1381972D01*
X426475D01*
X428037Y1382619D01*
X429233Y1383815D01*
X429880Y1385377D01*
Y1387067D01*
X429233Y1388629D01*
X428037Y1389825D01*
X426475Y1390472D01*
D02*
G37*
G36*
X413775D02*
X412084D01*
X410522Y1389825D01*
X409327Y1388629D01*
X408680Y1387067D01*
Y1385377D01*
X409327Y1383815D01*
X410522Y1382619D01*
X412084Y1381972D01*
X413775D01*
X415337Y1382619D01*
X416533Y1383815D01*
X417180Y1385377D01*
Y1387067D01*
X416533Y1388629D01*
X415337Y1389825D01*
X413775Y1390472D01*
D02*
G37*
G36*
X299901Y1390418D02*
X298210D01*
X296648Y1389771D01*
X295453Y1388575D01*
X294806Y1387013D01*
Y1385322D01*
X295453Y1383760D01*
X296648Y1382565D01*
X298210Y1381918D01*
X299901D01*
X301463Y1382565D01*
X302659Y1383760D01*
X303306Y1385322D01*
Y1387013D01*
X302659Y1388575D01*
X301463Y1389771D01*
X299901Y1390418D01*
D02*
G37*
G36*
X720845Y1390250D02*
X719154D01*
X717592Y1389603D01*
X716397Y1388408D01*
X715750Y1386846D01*
Y1385155D01*
X716397Y1383593D01*
X717592Y1382397D01*
X719154Y1381750D01*
X720845D01*
X722407Y1382397D01*
X723603Y1383593D01*
X724250Y1385155D01*
Y1386846D01*
X723603Y1388408D01*
X722407Y1389603D01*
X720845Y1390250D01*
D02*
G37*
G36*
X708145D02*
X706454D01*
X704892Y1389603D01*
X703697Y1388408D01*
X703050Y1386846D01*
Y1385155D01*
X703697Y1383593D01*
X704892Y1382397D01*
X706454Y1381750D01*
X708145D01*
X709707Y1382397D01*
X710903Y1383593D01*
X711550Y1385155D01*
Y1386846D01*
X710903Y1388408D01*
X709707Y1389603D01*
X708145Y1390250D01*
D02*
G37*
G36*
X682745D02*
X681054D01*
X679492Y1389603D01*
X678297Y1388408D01*
X677650Y1386846D01*
Y1385155D01*
X678297Y1383593D01*
X679492Y1382397D01*
X681054Y1381750D01*
X682745D01*
X684307Y1382397D01*
X685503Y1383593D01*
X686150Y1385155D01*
Y1386846D01*
X685503Y1388408D01*
X684307Y1389603D01*
X682745Y1390250D01*
D02*
G37*
G36*
X657345D02*
X655654D01*
X654092Y1389603D01*
X652897Y1388408D01*
X652250Y1386846D01*
Y1385155D01*
X652897Y1383593D01*
X654092Y1382397D01*
X655654Y1381750D01*
X657345D01*
X658907Y1382397D01*
X660103Y1383593D01*
X660750Y1385155D01*
Y1386846D01*
X660103Y1388408D01*
X658907Y1389603D01*
X657345Y1390250D01*
D02*
G37*
G36*
X325145Y1390250D02*
X323454D01*
X321892Y1389603D01*
X320697Y1388407D01*
X320050Y1386845D01*
Y1385154D01*
X320697Y1383592D01*
X321892Y1382397D01*
X323454Y1381750D01*
X325145D01*
X326707Y1382397D01*
X327903Y1383592D01*
X328550Y1385154D01*
Y1386845D01*
X327903Y1388407D01*
X326707Y1389603D01*
X325145Y1390250D01*
D02*
G37*
G36*
X312445D02*
X310754D01*
X309192Y1389603D01*
X307997Y1388407D01*
X307350Y1386845D01*
Y1385154D01*
X307997Y1383592D01*
X309192Y1382397D01*
X310754Y1381750D01*
X312445D01*
X314007Y1382397D01*
X315203Y1383592D01*
X315850Y1385154D01*
Y1386845D01*
X315203Y1388407D01*
X314007Y1389603D01*
X312445Y1390250D01*
D02*
G37*
G36*
X644445Y1389250D02*
X642754D01*
X641192Y1388603D01*
X639997Y1387407D01*
X639350Y1385845D01*
Y1384154D01*
X639997Y1382592D01*
X641192Y1381397D01*
X642754Y1380750D01*
X644445D01*
X646007Y1381397D01*
X647203Y1382592D01*
X647850Y1384154D01*
Y1385845D01*
X647203Y1387407D01*
X646007Y1388603D01*
X644445Y1389250D01*
D02*
G37*
G36*
X631745D02*
X630054D01*
X628492Y1388603D01*
X627297Y1387407D01*
X626650Y1385845D01*
Y1384154D01*
X627297Y1382592D01*
X628492Y1381397D01*
X630054Y1380750D01*
X631745D01*
X633307Y1381397D01*
X634503Y1382592D01*
X635150Y1384154D01*
Y1385845D01*
X634503Y1387407D01*
X633307Y1388603D01*
X631745Y1389250D01*
D02*
G37*
G36*
X619045D02*
X617354D01*
X615792Y1388603D01*
X614597Y1387407D01*
X613950Y1385845D01*
Y1384154D01*
X614597Y1382592D01*
X615792Y1381397D01*
X617354Y1380750D01*
X619045D01*
X620607Y1381397D01*
X621803Y1382592D01*
X622450Y1384154D01*
Y1385845D01*
X621803Y1387407D01*
X620607Y1388603D01*
X619045Y1389250D01*
D02*
G37*
G36*
X606345D02*
X604654D01*
X603092Y1388603D01*
X601897Y1387407D01*
X601250Y1385845D01*
Y1384154D01*
X601897Y1382592D01*
X603092Y1381397D01*
X604654Y1380750D01*
X606345D01*
X607907Y1381397D01*
X609103Y1382592D01*
X609750Y1384154D01*
Y1385845D01*
X609103Y1387407D01*
X607907Y1388603D01*
X606345Y1389250D01*
D02*
G37*
G36*
X593645D02*
X591954D01*
X590392Y1388603D01*
X589197Y1387407D01*
X588550Y1385845D01*
Y1384154D01*
X589197Y1382592D01*
X590392Y1381397D01*
X591954Y1380750D01*
X593645D01*
X595207Y1381397D01*
X596403Y1382592D01*
X597050Y1384154D01*
Y1385845D01*
X596403Y1387407D01*
X595207Y1388603D01*
X593645Y1389250D01*
D02*
G37*
G36*
X517445D02*
X515754D01*
X514192Y1388603D01*
X512997Y1387407D01*
X512350Y1385845D01*
Y1384154D01*
X512997Y1382592D01*
X514192Y1381397D01*
X514688Y1381191D01*
Y1378548D01*
X513533Y1378070D01*
X507944Y1383659D01*
X508150Y1384154D01*
Y1385845D01*
X507503Y1387407D01*
X506307Y1388603D01*
X504745Y1389250D01*
X503054D01*
X501492Y1388603D01*
X500297Y1387407D01*
X499650Y1385845D01*
Y1384154D01*
X500297Y1382592D01*
X501492Y1381397D01*
X503054Y1380750D01*
X504745D01*
X505241Y1380955D01*
X514963Y1371233D01*
Y1358180D01*
X513713Y1357390D01*
X512845Y1357750D01*
X511155D01*
X509593Y1357103D01*
X509456Y1356967D01*
X507982Y1357260D01*
X507786Y1357732D01*
X506590Y1358928D01*
X505028Y1359575D01*
X503338D01*
X501776Y1358928D01*
X500580Y1357732D01*
X499933Y1356170D01*
Y1354479D01*
X500453Y1353224D01*
X499470Y1352241D01*
X498220Y1352759D01*
Y1354177D01*
X497421Y1356106D01*
X495944Y1357583D01*
X494015Y1358382D01*
X491926D01*
X489997Y1357583D01*
X488520Y1356106D01*
X487720Y1354177D01*
Y1352088D01*
X487842Y1351794D01*
X486987Y1350592D01*
X483286D01*
X482554Y1350446D01*
X481934Y1350032D01*
X478773Y1346871D01*
X478359Y1346251D01*
X478213Y1345519D01*
Y1304627D01*
X478359Y1303896D01*
X478773Y1303275D01*
X483214Y1298835D01*
Y1259527D01*
X481148Y1257462D01*
X480734Y1256842D01*
X480588Y1256110D01*
Y1243391D01*
X479526Y1242951D01*
X478049Y1241474D01*
X477250Y1239544D01*
Y1237456D01*
X478049Y1235526D01*
X479526Y1234049D01*
X481456Y1233250D01*
X483544D01*
X485474Y1234049D01*
X486951Y1235526D01*
X487750Y1237456D01*
Y1239544D01*
X486951Y1241474D01*
X485474Y1242951D01*
X484412Y1243391D01*
Y1255319D01*
X486477Y1257384D01*
X486891Y1258004D01*
X487037Y1258736D01*
Y1299627D01*
X486891Y1300359D01*
X486477Y1300979D01*
X482037Y1305419D01*
Y1338819D01*
X483287Y1339609D01*
X484155Y1339250D01*
X485846D01*
X487408Y1339897D01*
X488603Y1341092D01*
X489250Y1342654D01*
Y1344345D01*
X488754Y1345544D01*
X489211Y1346848D01*
X489319Y1346960D01*
X489870Y1347328D01*
X490864Y1348322D01*
X491926Y1347882D01*
X493344D01*
X493861Y1346632D01*
X491023Y1343794D01*
X490609Y1343174D01*
X490463Y1342443D01*
Y1264099D01*
X490109Y1263568D01*
X489963Y1262837D01*
Y1183731D01*
X490109Y1182999D01*
X490523Y1182379D01*
X502338Y1170564D01*
Y1163305D01*
X501088Y1162589D01*
X500095Y1163000D01*
X498405D01*
X496843Y1162353D01*
X495647Y1161157D01*
X495000Y1159595D01*
Y1157905D01*
X495647Y1156343D01*
X496843Y1155147D01*
X498405Y1154500D01*
X500095D01*
X501088Y1154911D01*
X502338Y1154195D01*
Y1147356D01*
X502484Y1146624D01*
X502898Y1146004D01*
X504838Y1144064D01*
Y1137233D01*
X504343Y1137028D01*
X503147Y1135832D01*
X502500Y1134270D01*
Y1132579D01*
X503147Y1131017D01*
X504343Y1129821D01*
X505905Y1129174D01*
X507565D01*
Y1127012D01*
X507069Y1126807D01*
X505874Y1125612D01*
X505732Y1125268D01*
X504222Y1124891D01*
X503094Y1125358D01*
X501403D01*
X499841Y1124711D01*
X498646Y1123515D01*
X497999Y1121954D01*
Y1120263D01*
X498646Y1118701D01*
X498901Y1118445D01*
X498887Y1118373D01*
Y1086107D01*
X499033Y1085375D01*
X499447Y1084755D01*
X504714Y1079489D01*
Y1058953D01*
X502728Y1056967D01*
X502313Y1056347D01*
X502168Y1055616D01*
Y1049030D01*
X501672Y1048825D01*
X500477Y1047629D01*
X499830Y1046067D01*
Y1044377D01*
X500477Y1042815D01*
X501672Y1041619D01*
X503234Y1040972D01*
X504925D01*
X506487Y1041619D01*
X507683Y1042815D01*
X508088Y1043794D01*
X509338Y1043545D01*
Y1024542D01*
X506498Y1021702D01*
X506320Y1021775D01*
X504629D01*
X503067Y1021128D01*
X501872Y1019933D01*
X501225Y1018371D01*
Y1016680D01*
X501872Y1015118D01*
X503067Y1013922D01*
X504629Y1013275D01*
X506320D01*
X507882Y1013922D01*
X509078Y1015118D01*
X509725Y1016680D01*
Y1018371D01*
X509388Y1019184D01*
X512602Y1022398D01*
X513016Y1023018D01*
X513162Y1023750D01*
Y1041062D01*
X514372Y1041619D01*
X515934Y1040972D01*
X517625D01*
X519187Y1041619D01*
X520163Y1042595D01*
X521197Y1042338D01*
X521413Y1042212D01*
Y1034492D01*
X520742Y1034214D01*
X519547Y1033018D01*
X518900Y1031456D01*
Y1029766D01*
X519547Y1028204D01*
X520742Y1027008D01*
X522304Y1026361D01*
X523995D01*
X525557Y1027008D01*
X526753Y1028204D01*
X527400Y1029766D01*
Y1031456D01*
X526753Y1033018D01*
X525557Y1034214D01*
X525237Y1034347D01*
Y1041887D01*
X526487Y1042405D01*
X527022Y1041869D01*
X528584Y1041222D01*
X530275D01*
X531837Y1041869D01*
X533033Y1043065D01*
X533680Y1044627D01*
Y1046317D01*
X533033Y1047879D01*
X531837Y1049075D01*
X530275Y1049722D01*
X528584D01*
X527022Y1049075D01*
X526487Y1048539D01*
X525237Y1049057D01*
Y1085369D01*
X525907Y1085647D01*
X527103Y1086843D01*
X527750Y1088405D01*
Y1090095D01*
X527103Y1091657D01*
X525907Y1092853D01*
X524345Y1093500D01*
X522655D01*
X521093Y1092853D01*
X519897Y1091657D01*
X519250Y1090095D01*
Y1089042D01*
X518544Y1088679D01*
X518000Y1088598D01*
X513688Y1092910D01*
X513510Y1093696D01*
X513742Y1094482D01*
X514603Y1095343D01*
X515250Y1096905D01*
Y1098595D01*
X515045Y1099091D01*
X520727Y1104773D01*
X521141Y1105393D01*
X521287Y1106125D01*
Y1373060D01*
X521141Y1373792D01*
X520727Y1374412D01*
X518512Y1376627D01*
Y1381191D01*
X519007Y1381397D01*
X520203Y1382592D01*
X520850Y1384154D01*
Y1385845D01*
X520203Y1387407D01*
X519007Y1388603D01*
X517445Y1389250D01*
D02*
G37*
G36*
X261645Y1390250D02*
X259954D01*
X258392Y1389603D01*
X257197Y1388407D01*
X256550Y1386845D01*
Y1385154D01*
X257197Y1383592D01*
X258392Y1382397D01*
X258888Y1382191D01*
Y1376407D01*
X251166Y1368685D01*
X250012Y1369164D01*
Y1382191D01*
X250507Y1382397D01*
X251703Y1383592D01*
X252350Y1385154D01*
Y1386845D01*
X251703Y1388407D01*
X250507Y1389603D01*
X248945Y1390250D01*
X247254D01*
X245692Y1389603D01*
X244497Y1388407D01*
X243850Y1386845D01*
Y1385154D01*
X244497Y1383592D01*
X245692Y1382397D01*
X246188Y1382191D01*
Y1226829D01*
X246334Y1226097D01*
X246748Y1225477D01*
X252165Y1220060D01*
X252785Y1219645D01*
X253517Y1219500D01*
X254185D01*
X254633Y1218417D01*
X255829Y1217221D01*
X257391Y1216574D01*
X259082D01*
X260644Y1217221D01*
X261839Y1218417D01*
X262486Y1219979D01*
Y1221670D01*
X261839Y1223232D01*
X260644Y1224427D01*
X259082Y1225074D01*
X257391D01*
X255829Y1224427D01*
X254725Y1223323D01*
X254309D01*
X250012Y1227621D01*
Y1237835D01*
X251262Y1238353D01*
X251593Y1238022D01*
X253155Y1237375D01*
X254845D01*
X256407Y1238022D01*
X257603Y1239218D01*
X257745Y1239559D01*
X258995Y1239311D01*
Y1237459D01*
X258499Y1237254D01*
X257303Y1236058D01*
X256656Y1234496D01*
Y1232806D01*
X257303Y1231244D01*
X258499Y1230048D01*
X260061Y1229401D01*
X261752D01*
X263314Y1230048D01*
X264509Y1231244D01*
X265156Y1232806D01*
Y1234496D01*
X264509Y1236058D01*
X263314Y1237254D01*
X262818Y1237459D01*
Y1261238D01*
X262673Y1261970D01*
X262258Y1262590D01*
X252987Y1271861D01*
Y1365099D01*
X262152Y1374263D01*
X262566Y1374884D01*
X262712Y1375615D01*
Y1382191D01*
X263207Y1382397D01*
X264403Y1383592D01*
X265050Y1385154D01*
Y1386845D01*
X264403Y1388407D01*
X263207Y1389603D01*
X261645Y1390250D01*
D02*
G37*
G36*
X434095Y1374750D02*
X432405D01*
X430843Y1374103D01*
X429647Y1372907D01*
X429000Y1371345D01*
Y1369655D01*
X429647Y1368093D01*
X430843Y1366897D01*
X432405Y1366250D01*
X434095D01*
X435657Y1366897D01*
X436853Y1368093D01*
X437500Y1369655D01*
Y1371345D01*
X436853Y1372907D01*
X435657Y1374103D01*
X434095Y1374750D01*
D02*
G37*
G36*
X287045Y1390250D02*
X285354D01*
X283792Y1389603D01*
X282597Y1388407D01*
X281950Y1386845D01*
Y1385154D01*
X282597Y1383592D01*
X283792Y1382397D01*
X284288Y1382191D01*
Y1366384D01*
X283038Y1366136D01*
X282407Y1367661D01*
X281084Y1369384D01*
X279662Y1370475D01*
Y1381750D01*
X279516Y1382481D01*
X279102Y1383101D01*
X277544Y1384659D01*
X277750Y1385154D01*
Y1386845D01*
X277103Y1388407D01*
X275907Y1389603D01*
X274345Y1390250D01*
X272654D01*
X271092Y1389603D01*
X269897Y1388407D01*
X269250Y1386845D01*
Y1385154D01*
X269897Y1383592D01*
X271092Y1382397D01*
X272654Y1381750D01*
X274345D01*
X274841Y1381955D01*
X275838Y1380958D01*
Y1370510D01*
X275269Y1369486D01*
X274615Y1369362D01*
X264200D01*
X261957Y1368916D01*
X260055Y1367645D01*
X258784Y1365743D01*
X258337Y1363500D01*
X258784Y1361256D01*
X260055Y1359354D01*
X261957Y1358083D01*
X264200Y1357637D01*
X274615D01*
X275269Y1357514D01*
X275838Y1356490D01*
Y1284010D01*
X275269Y1282986D01*
X274615Y1282863D01*
X264200D01*
X261957Y1282417D01*
X260055Y1281146D01*
X258784Y1279244D01*
X258337Y1277000D01*
X258784Y1274757D01*
X260055Y1272855D01*
X261957Y1271584D01*
X264200Y1271137D01*
X275200D01*
X277444Y1271584D01*
X279346Y1272855D01*
X280617Y1274757D01*
X280831Y1275834D01*
X281933Y1276423D01*
X282379Y1276239D01*
X284070D01*
X285632Y1276886D01*
X286828Y1278081D01*
X287475Y1279643D01*
Y1281334D01*
X286828Y1282896D01*
X285632Y1284092D01*
X284070Y1284739D01*
X282379D01*
X280817Y1284092D01*
X279662Y1284704D01*
Y1356524D01*
X281084Y1357616D01*
X282407Y1359339D01*
X283038Y1360864D01*
X284288Y1360615D01*
Y1332050D01*
X284434Y1331319D01*
X284848Y1330698D01*
X300338Y1315208D01*
Y1312808D01*
X299843Y1312603D01*
X298647Y1311407D01*
X298000Y1309845D01*
Y1308155D01*
X298647Y1306593D01*
X299843Y1305397D01*
X301405Y1304750D01*
X303095D01*
X304657Y1305397D01*
X305853Y1306593D01*
X306500Y1308155D01*
Y1309845D01*
X305853Y1311407D01*
X304657Y1312603D01*
X304162Y1312808D01*
Y1316000D01*
X304016Y1316732D01*
X303602Y1317352D01*
X288112Y1332842D01*
Y1382191D01*
X288607Y1382397D01*
X289803Y1383592D01*
X290450Y1385154D01*
Y1386845D01*
X289803Y1388407D01*
X288607Y1389603D01*
X287045Y1390250D01*
D02*
G37*
G36*
X630595Y1373500D02*
X628905D01*
X627343Y1372853D01*
X626147Y1371657D01*
X625500Y1370095D01*
Y1368848D01*
X615905Y1359253D01*
X615170Y1359541D01*
X614750Y1359866D01*
Y1361794D01*
X613951Y1363724D01*
X612474Y1365201D01*
X610544Y1366000D01*
X608456D01*
X606526Y1365201D01*
X605049Y1363724D01*
X604250Y1361794D01*
Y1359706D01*
X605049Y1357776D01*
X606526Y1356299D01*
X608435Y1355509D01*
X608481Y1355401D01*
X608777Y1354250D01*
X599476Y1348501D01*
X599313Y1348350D01*
X599129Y1348227D01*
X596273Y1345371D01*
X595859Y1344751D01*
X595713Y1344019D01*
Y1310917D01*
X594841Y1310045D01*
X594345Y1310250D01*
X592655D01*
X591093Y1309603D01*
X589897Y1308407D01*
X589250Y1306845D01*
Y1305155D01*
X589897Y1303593D01*
X591093Y1302397D01*
X592655Y1301750D01*
X594345D01*
X595907Y1302397D01*
X597103Y1303593D01*
X597750Y1305155D01*
Y1306845D01*
X597545Y1307341D01*
X598977Y1308773D01*
X599391Y1309393D01*
X599537Y1310125D01*
Y1337320D01*
X600787Y1338109D01*
X601655Y1337750D01*
X603345D01*
X603841Y1337955D01*
X626588Y1315208D01*
Y1307058D01*
X626093Y1306853D01*
X624897Y1305657D01*
X624250Y1304095D01*
Y1302405D01*
X624897Y1300843D01*
X626093Y1299647D01*
X627655Y1299000D01*
X629345D01*
X630907Y1299647D01*
X632103Y1300843D01*
X632463Y1301712D01*
X633713Y1301464D01*
Y1275452D01*
X629523Y1271262D01*
X629109Y1270642D01*
X628963Y1269911D01*
Y1265483D01*
X628839Y1264856D01*
Y1256000D01*
Y1250224D01*
X628984Y1249493D01*
X629398Y1248872D01*
X632168Y1246103D01*
Y1243648D01*
X629523Y1241002D01*
X629109Y1240382D01*
X628963Y1239651D01*
Y1224431D01*
X627805Y1223740D01*
X627713Y1223753D01*
X627352Y1224294D01*
X620412Y1231234D01*
Y1240195D01*
X621662Y1240984D01*
X622530Y1240625D01*
X624221D01*
X625783Y1241272D01*
X626978Y1242468D01*
X627625Y1244030D01*
Y1245720D01*
X626978Y1247282D01*
X625783Y1248478D01*
X624221Y1249125D01*
X622530D01*
X621662Y1248765D01*
X620412Y1249555D01*
Y1261333D01*
X622034Y1262955D01*
X622530Y1262750D01*
X624221D01*
X625783Y1263397D01*
X626978Y1264593D01*
X627625Y1266155D01*
Y1267845D01*
X626978Y1269407D01*
X625783Y1270603D01*
X624221Y1271250D01*
X622530D01*
X620968Y1270603D01*
X619772Y1269407D01*
X619125Y1267845D01*
X617912Y1267934D01*
Y1269583D01*
X622034Y1273705D01*
X622530Y1273500D01*
X624221D01*
X625783Y1274147D01*
X626978Y1275343D01*
X627625Y1276905D01*
Y1278595D01*
X626978Y1280157D01*
X625783Y1281353D01*
X624221Y1282000D01*
X622530D01*
X620968Y1281353D01*
X619772Y1280157D01*
X619125Y1278595D01*
Y1276905D01*
X619330Y1276409D01*
X614648Y1271727D01*
X614234Y1271107D01*
X614088Y1270375D01*
Y1243684D01*
X612875Y1243595D01*
X612228Y1245157D01*
X611033Y1246353D01*
X609470Y1247000D01*
X607780D01*
X606218Y1246353D01*
X605022Y1245157D01*
X604375Y1243595D01*
Y1241905D01*
X605022Y1240342D01*
X606218Y1239147D01*
X607780Y1238500D01*
X609470D01*
X611033Y1239147D01*
X612228Y1240342D01*
X612875Y1241905D01*
X614088Y1241816D01*
Y1219937D01*
X614234Y1219206D01*
X614648Y1218586D01*
X618088Y1215146D01*
Y1169308D01*
X617593Y1169103D01*
X616397Y1167907D01*
X615750Y1166345D01*
Y1164655D01*
X616397Y1163093D01*
X617593Y1161897D01*
X619155Y1161250D01*
X620845D01*
X622407Y1161897D01*
X623603Y1163093D01*
X624250Y1164655D01*
Y1166345D01*
X623603Y1167907D01*
X622407Y1169103D01*
X621912Y1169308D01*
Y1184560D01*
X623162Y1185078D01*
X623593Y1184647D01*
X625155Y1184000D01*
X626845D01*
X627713Y1184360D01*
X628963Y1183570D01*
Y1170964D01*
X628092Y1170603D01*
X626897Y1169407D01*
X626250Y1167845D01*
Y1166154D01*
X626897Y1164593D01*
X628092Y1163397D01*
X628213Y1163347D01*
Y1121731D01*
X628359Y1120999D01*
X628773Y1120379D01*
X631838Y1117314D01*
Y1084500D01*
X631984Y1083768D01*
X632398Y1083148D01*
X633018Y1082734D01*
X633750Y1082588D01*
X634482Y1082734D01*
X635102Y1083148D01*
X635516Y1083768D01*
X635662Y1084500D01*
Y1118106D01*
X635633Y1118250D01*
X635777Y1119098D01*
X636418Y1119737D01*
X637407Y1120147D01*
X638603Y1121343D01*
X639250Y1122905D01*
Y1124595D01*
X638603Y1126157D01*
X637407Y1127353D01*
X637287Y1127403D01*
Y1169019D01*
X637141Y1169751D01*
X636727Y1170371D01*
X635992Y1171106D01*
Y1231615D01*
X637242Y1232378D01*
X638155Y1232000D01*
X638668D01*
X639750Y1231345D01*
Y1229655D01*
X640397Y1228093D01*
X641593Y1226897D01*
X643155Y1226250D01*
X644845D01*
X646407Y1226897D01*
X647603Y1228093D01*
X648250Y1229655D01*
Y1231345D01*
X647603Y1232907D01*
X646407Y1234103D01*
X644845Y1234750D01*
X644332D01*
X643250Y1235405D01*
Y1237095D01*
X642603Y1238657D01*
X641407Y1239853D01*
X639845Y1240500D01*
X639407D01*
X639302Y1240558D01*
X638478Y1241750D01*
X638492Y1241820D01*
Y1251768D01*
X639352Y1252629D01*
X639767Y1253249D01*
X639912Y1253980D01*
Y1272708D01*
X643542Y1276338D01*
X644735D01*
X645147Y1275342D01*
X646343Y1274147D01*
X647905Y1273500D01*
X649596D01*
X651158Y1274147D01*
X652353Y1275342D01*
X653000Y1276904D01*
Y1278595D01*
X652353Y1280157D01*
X651158Y1281353D01*
X649596Y1282000D01*
X647905D01*
X646343Y1281353D01*
X645152Y1280162D01*
X642750D01*
X642018Y1280016D01*
X641398Y1279602D01*
X638692Y1276895D01*
X637537Y1277374D01*
Y1354597D01*
X637657Y1354647D01*
X638853Y1355843D01*
X639500Y1357405D01*
Y1359095D01*
X638853Y1360657D01*
X637657Y1361853D01*
X636095Y1362500D01*
X634405D01*
X632843Y1361853D01*
X631647Y1360657D01*
X631000Y1359095D01*
Y1357405D01*
X631647Y1355843D01*
X632843Y1354647D01*
X633713Y1354286D01*
Y1305036D01*
X632463Y1304788D01*
X632103Y1305657D01*
X630907Y1306853D01*
X630412Y1307058D01*
Y1316000D01*
X630266Y1316732D01*
X629852Y1317352D01*
X606545Y1340659D01*
X606750Y1341155D01*
Y1342845D01*
X606103Y1344407D01*
X604907Y1345603D01*
X604625Y1345720D01*
X604512Y1347120D01*
X612750Y1352211D01*
X614000Y1351514D01*
Y1351155D01*
X614647Y1349593D01*
X615843Y1348397D01*
X617405Y1347750D01*
X619095D01*
X620657Y1348397D01*
X621853Y1349593D01*
X622500Y1351155D01*
Y1352845D01*
X621853Y1354407D01*
X620657Y1355603D01*
X619790Y1355963D01*
X619464Y1357405D01*
X627600Y1365540D01*
X628905Y1365000D01*
X630595D01*
X632157Y1365647D01*
X633353Y1366843D01*
X634000Y1368405D01*
Y1370095D01*
X633353Y1371657D01*
X632157Y1372853D01*
X630595Y1373500D01*
D02*
G37*
G36*
X232000Y1369362D02*
X224000D01*
X221756Y1368916D01*
X219855Y1367645D01*
X218584Y1365743D01*
X218137Y1363500D01*
X218584Y1361256D01*
X219855Y1359354D01*
X221756Y1358083D01*
X224000Y1357637D01*
X232000D01*
X234244Y1358083D01*
X236145Y1359354D01*
X237416Y1361256D01*
X237863Y1363500D01*
X237416Y1365743D01*
X236145Y1367645D01*
X234244Y1368916D01*
X232000Y1369362D01*
D02*
G37*
G36*
X296095Y1366000D02*
X294405D01*
X292843Y1365353D01*
X291647Y1364157D01*
X291000Y1362595D01*
Y1360905D01*
X291647Y1359343D01*
X292843Y1358147D01*
X294405Y1357500D01*
X296095D01*
X297657Y1358147D01*
X298853Y1359343D01*
X299500Y1360905D01*
Y1362595D01*
X298853Y1364157D01*
X297657Y1365353D01*
X296095Y1366000D01*
D02*
G37*
G36*
X317595Y1365250D02*
X315905D01*
X314343Y1364603D01*
X313147Y1363407D01*
X312500Y1361845D01*
Y1360155D01*
X313147Y1358593D01*
X314343Y1357397D01*
X315905Y1356750D01*
X317595D01*
X319157Y1357397D01*
X320353Y1358593D01*
X321000Y1360155D01*
Y1361845D01*
X320353Y1363407D01*
X319157Y1364603D01*
X317595Y1365250D01*
D02*
G37*
G36*
X695445Y1390250D02*
X693754D01*
X692192Y1389603D01*
X690997Y1388408D01*
X690350Y1386846D01*
Y1385155D01*
X690997Y1383593D01*
X692192Y1382397D01*
X692688Y1382192D01*
Y1358247D01*
X684405Y1349964D01*
X682962Y1350290D01*
X682603Y1351157D01*
X681407Y1352353D01*
X680912Y1352558D01*
Y1375250D01*
X680766Y1375982D01*
X680352Y1376602D01*
X672618Y1384336D01*
X672750Y1384655D01*
Y1386345D01*
X672103Y1387907D01*
X670907Y1389103D01*
X669345Y1389750D01*
X667655D01*
X666093Y1389103D01*
X664897Y1387907D01*
X664250Y1386345D01*
Y1384655D01*
X664897Y1383093D01*
X666093Y1381897D01*
X667655Y1381250D01*
X669345D01*
X670018Y1381528D01*
X677088Y1374458D01*
Y1352558D01*
X676593Y1352353D01*
X675397Y1351157D01*
X674750Y1349595D01*
Y1347905D01*
X675397Y1346343D01*
X676593Y1345147D01*
X677460Y1344787D01*
X677786Y1343345D01*
X669648Y1335208D01*
X669234Y1334587D01*
X669088Y1333856D01*
Y1311308D01*
X668593Y1311103D01*
X667397Y1309907D01*
X666750Y1308345D01*
Y1306655D01*
X667397Y1305093D01*
X668593Y1303897D01*
X669088Y1303692D01*
Y1283644D01*
X669234Y1282912D01*
X669648Y1282292D01*
X679713Y1272227D01*
Y1248180D01*
X678463Y1247391D01*
X677595Y1247750D01*
X675905D01*
X674343Y1247103D01*
X673817Y1246577D01*
X673000Y1246010D01*
X672183Y1246577D01*
X671657Y1247103D01*
X670095Y1247750D01*
X668405D01*
X666843Y1247103D01*
X665647Y1245907D01*
X665000Y1244345D01*
Y1242655D01*
X665647Y1241093D01*
X666843Y1239897D01*
X667713Y1239536D01*
Y1192153D01*
X667593Y1192103D01*
X666397Y1190907D01*
X665750Y1189345D01*
Y1187655D01*
X666397Y1186093D01*
X667593Y1184897D01*
X668678Y1184448D01*
X669193Y1184150D01*
X669588Y1183106D01*
Y1119558D01*
X669092Y1119353D01*
X668162Y1118422D01*
X666936Y1118789D01*
X666912Y1118805D01*
Y1181394D01*
X666766Y1182126D01*
X666352Y1182746D01*
X661503Y1187595D01*
X661963Y1188902D01*
X663157Y1189397D01*
X664353Y1190593D01*
X665000Y1192155D01*
Y1193845D01*
X664353Y1195407D01*
X663157Y1196603D01*
X661595Y1197250D01*
X659905D01*
X658343Y1196603D01*
X657560Y1195821D01*
X656813D01*
X652407Y1200227D01*
X651786Y1200641D01*
X651055Y1200787D01*
X642231D01*
X641499Y1200641D01*
X640879Y1200227D01*
X638023Y1197371D01*
X637609Y1196751D01*
X637463Y1196019D01*
Y1191981D01*
X637609Y1191249D01*
X638023Y1190629D01*
X641879Y1186773D01*
X642499Y1186359D01*
X643231Y1186213D01*
X643685D01*
X644203Y1184963D01*
X643897Y1184657D01*
X643250Y1183095D01*
Y1181405D01*
X643897Y1179843D01*
X645093Y1178647D01*
X646655Y1178000D01*
X648345D01*
X649213Y1178360D01*
X650463Y1177570D01*
Y1153430D01*
X649213Y1152640D01*
X648345Y1153000D01*
X646655D01*
X645092Y1152353D01*
X643897Y1151157D01*
X643250Y1149595D01*
Y1147904D01*
X643897Y1146342D01*
X645092Y1145147D01*
X646655Y1144500D01*
X648345D01*
X649213Y1144859D01*
X650463Y1144070D01*
Y1128561D01*
X647648Y1125746D01*
X647234Y1125126D01*
X647088Y1124394D01*
Y1083690D01*
X645838Y1083172D01*
X645157Y1083853D01*
X643595Y1084500D01*
X641905D01*
X640342Y1083853D01*
X639147Y1082658D01*
X638500Y1081096D01*
Y1079405D01*
X639147Y1077843D01*
X640342Y1076647D01*
X641905Y1076000D01*
X643595D01*
X645157Y1076647D01*
X645838Y1077328D01*
X647088Y1076810D01*
Y1075840D01*
X647234Y1075108D01*
X647648Y1074488D01*
X648088Y1074048D01*
Y1048792D01*
X646838Y1048274D01*
X646287Y1048825D01*
X644725Y1049472D01*
X643034D01*
X641472Y1048825D01*
X640277Y1047629D01*
X639630Y1046067D01*
Y1044377D01*
X640277Y1042815D01*
X641472Y1041619D01*
X643034Y1040972D01*
X644725D01*
X646287Y1041619D01*
X646838Y1042170D01*
X648088Y1041652D01*
Y1028808D01*
X647593Y1028603D01*
X646397Y1027407D01*
X645750Y1025845D01*
Y1024155D01*
X646397Y1022593D01*
X647593Y1021397D01*
X649155Y1020750D01*
X650845D01*
X652407Y1021397D01*
X653603Y1022593D01*
X654250Y1024155D01*
Y1025845D01*
X653603Y1027407D01*
X652407Y1028603D01*
X651912Y1028808D01*
Y1042246D01*
X652287Y1042447D01*
X653162Y1042630D01*
X654172Y1041619D01*
X655734Y1040972D01*
X657425D01*
X658987Y1041619D01*
X660183Y1042815D01*
X660830Y1044377D01*
Y1046067D01*
X660183Y1047629D01*
X658987Y1048825D01*
X657425Y1049472D01*
X655734D01*
X654172Y1048825D01*
X653162Y1047814D01*
X652287Y1047998D01*
X651912Y1048198D01*
Y1059810D01*
X653162Y1060328D01*
X653343Y1060147D01*
X654905Y1059500D01*
X656595D01*
X658157Y1060147D01*
X659353Y1061343D01*
X660000Y1062905D01*
Y1064596D01*
X659353Y1066158D01*
X658157Y1067353D01*
X656595Y1068000D01*
X654905D01*
X653343Y1067353D01*
X653162Y1067172D01*
X651912Y1067690D01*
Y1074840D01*
X651766Y1075571D01*
X651352Y1076192D01*
X650912Y1076632D01*
Y1123603D01*
X653727Y1126417D01*
X654141Y1127038D01*
X654287Y1127769D01*
Y1184269D01*
X654141Y1185001D01*
X653727Y1185621D01*
X649871Y1189477D01*
X649251Y1189891D01*
X648519Y1190037D01*
X648065D01*
X647592Y1191178D01*
X648254Y1192213D01*
X651477D01*
X663088Y1180602D01*
Y1028808D01*
X662593Y1028603D01*
X661397Y1027407D01*
X660750Y1025845D01*
Y1024155D01*
X661397Y1022593D01*
X662593Y1021397D01*
X664155Y1020750D01*
X665845D01*
X667407Y1021397D01*
X668603Y1022593D01*
X669250Y1024155D01*
Y1025845D01*
X668603Y1027407D01*
X667407Y1028603D01*
X666912Y1028808D01*
Y1040542D01*
X668162Y1041331D01*
X669030Y1040972D01*
X670720D01*
X672282Y1041619D01*
X673478Y1042815D01*
X674125Y1044377D01*
Y1046067D01*
X673478Y1047629D01*
X672282Y1048825D01*
X670720Y1049472D01*
X669030D01*
X668162Y1049112D01*
X666912Y1049902D01*
Y1059308D01*
X668077Y1059576D01*
X668162Y1059578D01*
X669343Y1058397D01*
X670905Y1057750D01*
X672595D01*
X674157Y1058397D01*
X675353Y1059593D01*
X676000Y1061155D01*
Y1062845D01*
X675353Y1064407D01*
X674157Y1065603D01*
X672595Y1066250D01*
X670905D01*
X669343Y1065603D01*
X668162Y1064422D01*
X668077Y1064424D01*
X666912Y1064692D01*
Y1112695D01*
X666936Y1112711D01*
X668162Y1113078D01*
X669092Y1112147D01*
X670655Y1111500D01*
X672345D01*
X673907Y1112147D01*
X675103Y1113343D01*
X675750Y1114905D01*
Y1116595D01*
X675103Y1118157D01*
X673907Y1119353D01*
X673412Y1119558D01*
Y1182314D01*
X682977Y1191879D01*
X683391Y1192499D01*
X683537Y1193231D01*
Y1273019D01*
X683391Y1273751D01*
X682977Y1274371D01*
X672912Y1284436D01*
Y1303692D01*
X673407Y1303897D01*
X674603Y1305093D01*
X675250Y1306655D01*
Y1308345D01*
X674603Y1309907D01*
X673407Y1311103D01*
X672912Y1311308D01*
Y1333064D01*
X691174Y1351326D01*
X692147Y1350657D01*
X691500Y1349095D01*
Y1347405D01*
X692147Y1345843D01*
X693343Y1344647D01*
X694905Y1344000D01*
X696595D01*
X698157Y1344647D01*
X699353Y1345843D01*
X700000Y1347405D01*
Y1349095D01*
X699353Y1350657D01*
X698157Y1351853D01*
X696595Y1352500D01*
X694905D01*
X693343Y1351853D01*
X692674Y1352826D01*
X695952Y1356104D01*
X696366Y1356724D01*
X696512Y1357455D01*
Y1382192D01*
X697007Y1382397D01*
X698203Y1383593D01*
X698850Y1385155D01*
Y1386846D01*
X698203Y1388408D01*
X697007Y1389603D01*
X695445Y1390250D01*
D02*
G37*
G36*
X318095Y1355500D02*
X316405D01*
X314843Y1354853D01*
X313647Y1353657D01*
X313000Y1352095D01*
Y1350405D01*
X313647Y1348843D01*
X314843Y1347647D01*
X316405Y1347000D01*
X318095D01*
X319657Y1347647D01*
X320853Y1348843D01*
X321500Y1350405D01*
Y1352095D01*
X320853Y1353657D01*
X319657Y1354853D01*
X318095Y1355500D01*
D02*
G37*
G36*
X265645Y1353400D02*
X263955D01*
X262393Y1352753D01*
X261197Y1351557D01*
X260550Y1349995D01*
Y1348304D01*
X261197Y1346743D01*
X262393Y1345547D01*
X263955Y1344900D01*
X265645D01*
X267208Y1345547D01*
X268403Y1346743D01*
X269050Y1348304D01*
Y1349995D01*
X268403Y1351557D01*
X267208Y1352753D01*
X265645Y1353400D01*
D02*
G37*
G36*
X222595Y1349750D02*
X220905D01*
X219343Y1349103D01*
X218147Y1347907D01*
X217500Y1346345D01*
Y1344655D01*
X218147Y1343093D01*
X219343Y1341897D01*
X220905Y1341250D01*
X222595D01*
X224157Y1341897D01*
X225353Y1343093D01*
X226000Y1344655D01*
Y1346345D01*
X225353Y1347907D01*
X224157Y1349103D01*
X222595Y1349750D01*
D02*
G37*
G36*
X239845Y1349750D02*
X238155D01*
X236593Y1349103D01*
X235397Y1347907D01*
X234750Y1346345D01*
Y1344655D01*
X235397Y1343092D01*
X236593Y1341897D01*
X238155Y1341250D01*
X239845D01*
X241408Y1341897D01*
X242603Y1343092D01*
X243250Y1344655D01*
Y1346345D01*
X242603Y1347907D01*
X241408Y1349103D01*
X239845Y1349750D01*
D02*
G37*
G36*
X459846Y1348100D02*
X458155D01*
X456593Y1347453D01*
X455397Y1346257D01*
X454750Y1344695D01*
Y1343004D01*
X455397Y1341443D01*
X456593Y1340247D01*
X458155Y1339600D01*
X459846D01*
X461408Y1340247D01*
X462603Y1341443D01*
X463250Y1343004D01*
Y1344695D01*
X462603Y1346257D01*
X461408Y1347453D01*
X459846Y1348100D01*
D02*
G37*
G36*
X440595Y1349000D02*
X438905D01*
X437343Y1348353D01*
X436147Y1347157D01*
X435500Y1345595D01*
Y1344082D01*
X435257Y1343680D01*
X434522Y1343000D01*
X433155D01*
X431593Y1342353D01*
X430397Y1341157D01*
X429750Y1339595D01*
Y1337905D01*
X430397Y1336343D01*
X431593Y1335147D01*
X433155Y1334500D01*
X434845D01*
X436407Y1335147D01*
X437603Y1336343D01*
X438250Y1337905D01*
Y1339418D01*
X438493Y1339821D01*
X439228Y1340500D01*
X440595D01*
X442157Y1341147D01*
X443353Y1342343D01*
X444000Y1343905D01*
Y1345595D01*
X443353Y1347157D01*
X442157Y1348353D01*
X440595Y1349000D01*
D02*
G37*
G36*
X424587Y1338765D02*
X422897D01*
X421334Y1338118D01*
X420139Y1336922D01*
X419492Y1335360D01*
Y1333669D01*
X420139Y1332107D01*
X421334Y1330912D01*
X422897Y1330265D01*
X424587D01*
X426149Y1330912D01*
X427345Y1332107D01*
X427992Y1333669D01*
Y1335360D01*
X427345Y1336922D01*
X426149Y1338118D01*
X424587Y1338765D01*
D02*
G37*
G36*
X459846Y1335400D02*
X458155D01*
X456593Y1334753D01*
X455397Y1333557D01*
X454750Y1331995D01*
Y1330305D01*
X455397Y1328743D01*
X456593Y1327547D01*
X458155Y1326900D01*
X459846D01*
X461408Y1327547D01*
X462603Y1328743D01*
X463250Y1330305D01*
Y1331995D01*
X462603Y1333557D01*
X461408Y1334753D01*
X459846Y1335400D01*
D02*
G37*
G36*
X223095Y1333500D02*
X221405D01*
X219843Y1332853D01*
X218647Y1331657D01*
X218000Y1330095D01*
Y1328405D01*
X218647Y1326843D01*
X219843Y1325647D01*
X221405Y1325000D01*
X223095D01*
X224657Y1325647D01*
X225853Y1326843D01*
X226500Y1328405D01*
Y1330095D01*
X225853Y1331657D01*
X224657Y1332853D01*
X223095Y1333500D01*
D02*
G37*
G36*
X240095Y1333500D02*
X238405D01*
X236842Y1332853D01*
X235647Y1331657D01*
X235000Y1330095D01*
Y1328405D01*
X235647Y1326842D01*
X236842Y1325647D01*
X238405Y1325000D01*
X240095D01*
X241657Y1325647D01*
X242853Y1326842D01*
X243500Y1328405D01*
Y1330095D01*
X242853Y1331657D01*
X241657Y1332853D01*
X240095Y1333500D01*
D02*
G37*
G36*
X307470Y1328125D02*
X305780D01*
X304218Y1327478D01*
X303022Y1326282D01*
X302375Y1324720D01*
Y1323030D01*
X303022Y1321468D01*
X304218Y1320272D01*
X305780Y1319625D01*
X307470D01*
X309032Y1320272D01*
X310228Y1321468D01*
X310875Y1323030D01*
Y1324720D01*
X310228Y1326282D01*
X309032Y1327478D01*
X307470Y1328125D01*
D02*
G37*
G36*
X459595Y1323000D02*
X457905D01*
X456343Y1322353D01*
X455147Y1321157D01*
X454500Y1319595D01*
Y1317905D01*
X455147Y1316343D01*
X456343Y1315147D01*
X457905Y1314500D01*
X459595D01*
X461157Y1315147D01*
X462353Y1316343D01*
X463000Y1317905D01*
Y1319595D01*
X462353Y1321157D01*
X461157Y1322353D01*
X459595Y1323000D01*
D02*
G37*
G36*
X240095Y1317250D02*
X238405D01*
X236842Y1316603D01*
X235647Y1315408D01*
X235000Y1313846D01*
Y1312155D01*
X235647Y1310593D01*
X236842Y1309397D01*
X238405Y1308750D01*
X240095D01*
X241657Y1309397D01*
X242853Y1310593D01*
X243500Y1312155D01*
Y1313846D01*
X242853Y1315408D01*
X241657Y1316603D01*
X240095Y1317250D01*
D02*
G37*
G36*
X222845Y1317000D02*
X221155D01*
X219593Y1316353D01*
X218397Y1315157D01*
X217750Y1313595D01*
Y1311905D01*
X218397Y1310343D01*
X219593Y1309147D01*
X221155Y1308500D01*
X222845D01*
X224407Y1309147D01*
X225603Y1310343D01*
X226250Y1311905D01*
Y1313595D01*
X225603Y1315157D01*
X224407Y1316353D01*
X222845Y1317000D01*
D02*
G37*
G36*
X240095Y1301250D02*
X238405D01*
X236842Y1300603D01*
X235647Y1299408D01*
X235000Y1297845D01*
Y1296155D01*
X235647Y1294593D01*
X236842Y1293397D01*
X238405Y1292750D01*
X240095D01*
X241657Y1293397D01*
X242853Y1294593D01*
X243500Y1296155D01*
Y1297845D01*
X242853Y1299408D01*
X241657Y1300603D01*
X240095Y1301250D01*
D02*
G37*
G36*
X223095Y1301000D02*
X221405D01*
X219843Y1300353D01*
X218647Y1299157D01*
X218000Y1297595D01*
Y1295905D01*
X218647Y1294343D01*
X219843Y1293147D01*
X221405Y1292500D01*
X223095D01*
X224657Y1293147D01*
X225853Y1294343D01*
X226500Y1295905D01*
Y1297595D01*
X225853Y1299157D01*
X224657Y1300353D01*
X223095Y1301000D01*
D02*
G37*
G36*
X265645Y1295600D02*
X263955D01*
X262393Y1294953D01*
X261197Y1293758D01*
X260550Y1292196D01*
Y1290505D01*
X261197Y1288943D01*
X262393Y1287747D01*
X263955Y1287100D01*
X265645D01*
X267208Y1287747D01*
X268403Y1288943D01*
X269050Y1290505D01*
Y1292196D01*
X268403Y1293758D01*
X267208Y1294953D01*
X265645Y1295600D01*
D02*
G37*
G36*
X468845Y1289625D02*
X467155D01*
X465593Y1288978D01*
X464397Y1287782D01*
X463750Y1286220D01*
Y1284530D01*
X464397Y1282968D01*
X465593Y1281772D01*
X466088Y1281567D01*
Y1279185D01*
X464398Y1277495D01*
X463984Y1276874D01*
X463838Y1276143D01*
Y1274467D01*
X462673Y1274199D01*
X462588Y1274197D01*
X461407Y1275378D01*
X459845Y1276025D01*
X458155D01*
X456593Y1275378D01*
X455397Y1274183D01*
X454750Y1272620D01*
Y1270930D01*
X455397Y1269368D01*
X456593Y1268172D01*
X457213Y1267915D01*
Y1030132D01*
X456843Y1029978D01*
X455647Y1028782D01*
X455000Y1027220D01*
Y1025530D01*
X455647Y1023968D01*
X456843Y1022772D01*
X458405Y1022125D01*
X460095D01*
X461657Y1022772D01*
X462853Y1023968D01*
X463500Y1025530D01*
Y1027220D01*
X462853Y1028782D01*
X461657Y1029978D01*
X461037Y1030235D01*
Y1036820D01*
X462287Y1037609D01*
X463155Y1037250D01*
X464845D01*
X466407Y1037897D01*
X467603Y1039093D01*
X468250Y1040655D01*
Y1042325D01*
X468310Y1042383D01*
X469324Y1043019D01*
X469503Y1042840D01*
X471065Y1042193D01*
X472756D01*
X474318Y1042840D01*
X475513Y1044035D01*
X476161Y1045597D01*
Y1047288D01*
X475513Y1048850D01*
X474446Y1049918D01*
X473853Y1051093D01*
X474500Y1052655D01*
Y1054345D01*
X473853Y1055907D01*
X472657Y1057103D01*
X471095Y1057750D01*
X469405D01*
X467843Y1057103D01*
X466647Y1055907D01*
X466000Y1054345D01*
Y1052655D01*
X466647Y1051093D01*
X467715Y1050025D01*
X468307Y1048850D01*
X467660Y1047288D01*
Y1045618D01*
X467601Y1045560D01*
X466586Y1044924D01*
X466407Y1045103D01*
X464845Y1045750D01*
X463155D01*
X462287Y1045390D01*
X461037Y1046180D01*
Y1063735D01*
X462287Y1063984D01*
X462397Y1063717D01*
X463593Y1062522D01*
X465155Y1061875D01*
X466845D01*
X468407Y1062522D01*
X469603Y1063717D01*
X470250Y1065280D01*
Y1066970D01*
X469603Y1068532D01*
X468407Y1069728D01*
X466845Y1070375D01*
X465155D01*
X463593Y1069728D01*
X462397Y1068532D01*
X462287Y1068266D01*
X461037Y1068515D01*
Y1150435D01*
X462287Y1150953D01*
X462343Y1150897D01*
X463905Y1150250D01*
X465595D01*
X467157Y1150897D01*
X468353Y1152093D01*
X469000Y1153655D01*
Y1155345D01*
X468353Y1156907D01*
X467157Y1158103D01*
X465595Y1158750D01*
X463905D01*
X462343Y1158103D01*
X462287Y1158047D01*
X461037Y1158565D01*
Y1195695D01*
X462287Y1196338D01*
X463405Y1195875D01*
X465095D01*
X466657Y1196522D01*
X467853Y1197718D01*
X468500Y1199280D01*
Y1200970D01*
X467853Y1202533D01*
X466657Y1203728D01*
X465095Y1204375D01*
X463405D01*
X462287Y1203912D01*
X461037Y1204555D01*
Y1243560D01*
X462287Y1244078D01*
X462343Y1244022D01*
X463905Y1243375D01*
X465595D01*
X467157Y1244022D01*
X468353Y1245218D01*
X469000Y1246780D01*
Y1248470D01*
X468353Y1250032D01*
X467598Y1250787D01*
X467662Y1251107D01*
Y1275351D01*
X469352Y1277041D01*
X469766Y1277661D01*
X469912Y1278393D01*
Y1281567D01*
X470407Y1281772D01*
X471603Y1282968D01*
X472250Y1284530D01*
Y1286220D01*
X471603Y1287782D01*
X470407Y1288978D01*
X468845Y1289625D01*
D02*
G37*
G36*
X232000Y1282863D02*
X224000D01*
X221756Y1282417D01*
X219855Y1281146D01*
X218584Y1279244D01*
X218137Y1277000D01*
X218584Y1274757D01*
X219855Y1272855D01*
X221756Y1271584D01*
X224000Y1271137D01*
X232000D01*
X234244Y1271584D01*
X236145Y1272855D01*
X237416Y1274757D01*
X237863Y1277000D01*
X237416Y1279244D01*
X236145Y1281146D01*
X234244Y1282417D01*
X232000Y1282863D01*
D02*
G37*
G36*
X444595Y1289500D02*
X442905D01*
X441343Y1288853D01*
X440147Y1287657D01*
X439500Y1286095D01*
Y1284405D01*
X440147Y1282843D01*
X441343Y1281647D01*
X441831Y1281445D01*
Y1270188D01*
X440676Y1269709D01*
X440657Y1269728D01*
X439095Y1270375D01*
X437405D01*
X435905Y1269754D01*
X435524Y1269886D01*
X434750Y1270403D01*
Y1271845D01*
X434103Y1273407D01*
X432907Y1274603D01*
X431345Y1275250D01*
X429655D01*
X428093Y1274603D01*
X426897Y1273407D01*
X426250Y1271845D01*
Y1270155D01*
X426897Y1268593D01*
X428093Y1267397D01*
X429655Y1266750D01*
X431345D01*
X432845Y1267371D01*
X433226Y1267239D01*
X434000Y1266722D01*
Y1265280D01*
X434647Y1263717D01*
X435843Y1262522D01*
X437405Y1261875D01*
X439095D01*
X439679Y1262117D01*
X440990Y1261307D01*
X441009Y1261049D01*
X440132Y1260172D01*
X439485Y1258610D01*
Y1256920D01*
X440132Y1255358D01*
X441328Y1254162D01*
X442890Y1253515D01*
X444580D01*
X446143Y1254162D01*
X447338Y1255358D01*
X447985Y1256920D01*
Y1258610D01*
X447338Y1260172D01*
X446143Y1261368D01*
X445654Y1261570D01*
Y1281439D01*
X446157Y1281647D01*
X447353Y1282843D01*
X448000Y1284405D01*
Y1286095D01*
X447353Y1287657D01*
X446157Y1288853D01*
X444595Y1289500D01*
D02*
G37*
G36*
X270845Y1265500D02*
X269154D01*
X267592Y1264853D01*
X266397Y1263658D01*
X265750Y1262095D01*
Y1260405D01*
X266397Y1258843D01*
X267592Y1257647D01*
X269154Y1257000D01*
X270845D01*
X272407Y1257647D01*
X273603Y1258843D01*
X274250Y1260405D01*
Y1262095D01*
X273603Y1263658D01*
X272407Y1264853D01*
X270845Y1265500D01*
D02*
G37*
G36*
X222346D02*
X220655D01*
X219093Y1264853D01*
X217897Y1263658D01*
X217250Y1262095D01*
Y1260405D01*
X217897Y1258843D01*
X219093Y1257647D01*
X220655Y1257000D01*
X222346D01*
X223908Y1257647D01*
X225103Y1258843D01*
X225751Y1260405D01*
Y1262095D01*
X225103Y1263658D01*
X223908Y1264853D01*
X222346Y1265500D01*
D02*
G37*
G36*
X238596Y1265000D02*
X236905D01*
X235343Y1264353D01*
X234147Y1263158D01*
X233500Y1261596D01*
Y1259905D01*
X234147Y1258343D01*
X235343Y1257147D01*
X236905Y1256500D01*
X238596D01*
X240158Y1257147D01*
X241353Y1258343D01*
X242000Y1259905D01*
Y1261596D01*
X241353Y1263158D01*
X240158Y1264353D01*
X238596Y1265000D01*
D02*
G37*
G36*
X690096Y1262250D02*
X688405D01*
X686843Y1261603D01*
X685647Y1260408D01*
X685000Y1258846D01*
Y1257155D01*
X685647Y1255593D01*
X686843Y1254397D01*
X688405Y1253750D01*
X690096D01*
X691658Y1254397D01*
X692853Y1255593D01*
X693500Y1257155D01*
Y1258846D01*
X692853Y1260408D01*
X691658Y1261603D01*
X690096Y1262250D01*
D02*
G37*
G36*
X673595D02*
X671904D01*
X670342Y1261603D01*
X669147Y1260408D01*
X668500Y1258846D01*
Y1257155D01*
X669147Y1255593D01*
X670342Y1254397D01*
X671904Y1253750D01*
X673595D01*
X675157Y1254397D01*
X676353Y1255593D01*
X677000Y1257155D01*
Y1258846D01*
X676353Y1260408D01*
X675157Y1261603D01*
X673595Y1262250D01*
D02*
G37*
G36*
X593345Y1261500D02*
X591655D01*
X590093Y1260853D01*
X588897Y1259658D01*
X588250Y1258095D01*
Y1256405D01*
X588897Y1254843D01*
X590093Y1253647D01*
X591655Y1253000D01*
X593345D01*
X594907Y1253647D01*
X596103Y1254843D01*
X596750Y1256405D01*
Y1258095D01*
X596103Y1259658D01*
X594907Y1260853D01*
X593345Y1261500D01*
D02*
G37*
G36*
X718845Y1259250D02*
X717154D01*
X715592Y1258603D01*
X714397Y1257408D01*
X713750Y1255846D01*
Y1254155D01*
X714397Y1252593D01*
X715592Y1251397D01*
X717154Y1250750D01*
X718845D01*
X720407Y1251397D01*
X721603Y1252593D01*
X722250Y1254155D01*
Y1255846D01*
X721603Y1257408D01*
X720407Y1258603D01*
X718845Y1259250D01*
D02*
G37*
G36*
X609095Y1259250D02*
X607405D01*
X605843Y1258603D01*
X604647Y1257407D01*
X604000Y1255845D01*
Y1254155D01*
X604647Y1252593D01*
X605843Y1251397D01*
X607405Y1250750D01*
X609095D01*
X610657Y1251397D01*
X611853Y1252593D01*
X612500Y1254155D01*
Y1255845D01*
X611853Y1257407D01*
X610657Y1258603D01*
X609095Y1259250D01*
D02*
G37*
G36*
X423095Y1255500D02*
X421405D01*
X419843Y1254853D01*
X418647Y1253657D01*
X418000Y1252095D01*
Y1250405D01*
X418647Y1248843D01*
X419843Y1247647D01*
X421405Y1247000D01*
X423095D01*
X424657Y1247647D01*
X425853Y1248843D01*
X426500Y1250405D01*
Y1252095D01*
X425853Y1253657D01*
X424657Y1254853D01*
X423095Y1255500D01*
D02*
G37*
G36*
X222845Y1248500D02*
X221155D01*
X219593Y1247853D01*
X218397Y1246657D01*
X217750Y1245095D01*
Y1243405D01*
X218397Y1241843D01*
X219593Y1240647D01*
X221155Y1240000D01*
X222845D01*
X224407Y1240647D01*
X225603Y1241843D01*
X226250Y1243405D01*
Y1245095D01*
X225603Y1246657D01*
X224407Y1247853D01*
X222845Y1248500D01*
D02*
G37*
G36*
X651595Y1247750D02*
X649905D01*
X648343Y1247103D01*
X647147Y1245907D01*
X646500Y1244345D01*
Y1242655D01*
X647147Y1241093D01*
X648343Y1239897D01*
X649905Y1239250D01*
X651595D01*
X653157Y1239897D01*
X654353Y1241093D01*
X655000Y1242655D01*
Y1244345D01*
X654353Y1245907D01*
X653157Y1247103D01*
X651595Y1247750D01*
D02*
G37*
G36*
X238595Y1247000D02*
X236905D01*
X235343Y1246353D01*
X234147Y1245157D01*
X233500Y1243595D01*
Y1241905D01*
X234147Y1240343D01*
X235343Y1239147D01*
X236905Y1238500D01*
X238595D01*
X240157Y1239147D01*
X241353Y1240343D01*
X242000Y1241905D01*
Y1243595D01*
X241353Y1245157D01*
X240157Y1246353D01*
X238595Y1247000D01*
D02*
G37*
G36*
X692595Y1246750D02*
X690905D01*
X689343Y1246103D01*
X688147Y1244907D01*
X687500Y1243345D01*
Y1241655D01*
X688147Y1240093D01*
X689343Y1238897D01*
X690905Y1238250D01*
X692595D01*
X694157Y1238897D01*
X695353Y1240093D01*
X696000Y1241655D01*
Y1243345D01*
X695353Y1244907D01*
X694157Y1246103D01*
X692595Y1246750D01*
D02*
G37*
G36*
X286583Y1245889D02*
X284892D01*
X283330Y1245242D01*
X282134Y1244047D01*
X281487Y1242485D01*
Y1240794D01*
X282134Y1239232D01*
X283330Y1238036D01*
X284892Y1237389D01*
X286583D01*
X288145Y1238036D01*
X289340Y1239232D01*
X289987Y1240794D01*
Y1242485D01*
X289340Y1244047D01*
X288145Y1245242D01*
X286583Y1245889D01*
D02*
G37*
G36*
X269845Y1245875D02*
X268155D01*
X266593Y1245228D01*
X265397Y1244032D01*
X264750Y1242470D01*
Y1240780D01*
X265397Y1239218D01*
X266593Y1238022D01*
X268155Y1237375D01*
X269845D01*
X271407Y1238022D01*
X272603Y1239218D01*
X273250Y1240780D01*
Y1242470D01*
X272603Y1244032D01*
X271407Y1245228D01*
X269845Y1245875D01*
D02*
G37*
G36*
X302845Y1289124D02*
X301155D01*
X299593Y1288477D01*
X298397Y1287281D01*
X297750Y1285719D01*
Y1284029D01*
X298397Y1282467D01*
X299593Y1281271D01*
X300088Y1281066D01*
Y1244917D01*
X292341Y1237170D01*
X291845Y1237375D01*
X290155D01*
X288593Y1236728D01*
X287397Y1235533D01*
X286750Y1233970D01*
Y1232280D01*
X287397Y1230718D01*
X288593Y1229522D01*
X290155Y1228875D01*
X291845D01*
X293407Y1229522D01*
X294603Y1230718D01*
X295250Y1232280D01*
Y1233970D01*
X295045Y1234466D01*
X303352Y1242773D01*
X303766Y1243393D01*
X303912Y1244125D01*
Y1281066D01*
X304407Y1281271D01*
X305603Y1282467D01*
X306250Y1284029D01*
Y1285719D01*
X305603Y1287281D01*
X304407Y1288477D01*
X302845Y1289124D01*
D02*
G37*
G36*
X660845Y1239750D02*
X659155D01*
X657593Y1239103D01*
X656397Y1237907D01*
X655750Y1236345D01*
Y1234655D01*
X656397Y1233093D01*
X657593Y1231897D01*
X659155Y1231250D01*
X660845D01*
X662407Y1231897D01*
X663603Y1233093D01*
X664250Y1234655D01*
Y1236345D01*
X663603Y1237907D01*
X662407Y1239103D01*
X660845Y1239750D01*
D02*
G37*
G36*
X595595Y1246250D02*
X593905D01*
X592343Y1245603D01*
X591147Y1244407D01*
X590500Y1242845D01*
Y1241155D01*
X591147Y1239593D01*
X591685Y1239054D01*
Y1212118D01*
X591831Y1211386D01*
X592245Y1210766D01*
X595088Y1207923D01*
Y1198692D01*
X593923Y1198424D01*
X593838Y1198422D01*
X592657Y1199603D01*
X591095Y1200250D01*
X589405D01*
X587843Y1199603D01*
X586647Y1198407D01*
X586000Y1196845D01*
Y1195155D01*
X586647Y1193593D01*
X587843Y1192397D01*
X589405Y1191750D01*
X589588D01*
Y1112558D01*
X589093Y1112353D01*
X587897Y1111157D01*
X587250Y1109595D01*
Y1107905D01*
X587897Y1106343D01*
X589093Y1105147D01*
X590655Y1104500D01*
X592345D01*
X593907Y1105147D01*
X594088Y1105328D01*
X595338Y1104810D01*
Y1092684D01*
X586898Y1084244D01*
X586484Y1083624D01*
X586338Y1082893D01*
Y1061558D01*
X585843Y1061353D01*
X584647Y1060157D01*
X584000Y1058595D01*
Y1056904D01*
X584647Y1055342D01*
X585843Y1054147D01*
X587405Y1053500D01*
X589095D01*
X590657Y1054147D01*
X591853Y1055342D01*
X592500Y1056904D01*
Y1058595D01*
X591853Y1060157D01*
X590657Y1061353D01*
X590162Y1061558D01*
Y1082101D01*
X598602Y1090541D01*
X599016Y1091161D01*
X599162Y1091893D01*
Y1111817D01*
X599657Y1112022D01*
X600853Y1113217D01*
X601500Y1114780D01*
Y1116470D01*
X600853Y1118032D01*
X599657Y1119228D01*
X598095Y1119875D01*
X596405D01*
X594843Y1119228D01*
X594662Y1119047D01*
X593412Y1119565D01*
Y1178445D01*
X594567Y1178923D01*
X594593Y1178897D01*
X596155Y1178250D01*
X597845D01*
X599407Y1178897D01*
X600603Y1180093D01*
X601250Y1181655D01*
Y1183345D01*
X600603Y1184907D01*
X599407Y1186103D01*
X598912Y1186308D01*
Y1208715D01*
X598766Y1209446D01*
X598352Y1210067D01*
X595509Y1212910D01*
Y1230348D01*
X596759Y1231137D01*
X597627Y1230778D01*
X599317D01*
X599855Y1231001D01*
X600962Y1231246D01*
X601364Y1230376D01*
X601647Y1229693D01*
X602843Y1228497D01*
X604405Y1227850D01*
X606095D01*
X607657Y1228497D01*
X608853Y1229693D01*
X609500Y1231255D01*
Y1232946D01*
X608853Y1234508D01*
X607657Y1235703D01*
X606095Y1236350D01*
X604405D01*
X603867Y1236127D01*
X602760Y1235882D01*
X602358Y1236752D01*
X602075Y1237436D01*
X600879Y1238631D01*
X599317Y1239278D01*
X598741Y1240528D01*
X599000Y1241155D01*
Y1242845D01*
X598353Y1244407D01*
X597157Y1245603D01*
X595595Y1246250D01*
D02*
G37*
G36*
X722345Y1228250D02*
X720655D01*
X719093Y1227603D01*
X717897Y1226407D01*
X717250Y1224845D01*
Y1224064D01*
X716000Y1223229D01*
X715345Y1223500D01*
X713655D01*
X712093Y1222853D01*
X710897Y1221657D01*
X710250Y1220095D01*
Y1218405D01*
X710897Y1216843D01*
X712093Y1215647D01*
X713655Y1215000D01*
X715345D01*
X716907Y1215647D01*
X718103Y1216843D01*
X718750Y1218405D01*
Y1219186D01*
X720000Y1220021D01*
X720655Y1219750D01*
X722345D01*
X723907Y1220397D01*
X725103Y1221593D01*
X725750Y1223155D01*
Y1224845D01*
X725103Y1226407D01*
X723907Y1227603D01*
X722345Y1228250D01*
D02*
G37*
G36*
X438095Y1222125D02*
X436405D01*
X434843Y1221478D01*
X433647Y1220282D01*
X433000Y1218720D01*
Y1217030D01*
X433647Y1215468D01*
X434843Y1214272D01*
X436405Y1213625D01*
X438095D01*
X439657Y1214272D01*
X440853Y1215468D01*
X441500Y1217030D01*
Y1218720D01*
X440853Y1220282D01*
X439657Y1221478D01*
X438095Y1222125D01*
D02*
G37*
G36*
X295095Y1223250D02*
X293405D01*
X291843Y1222603D01*
X290647Y1221407D01*
X290000Y1219845D01*
Y1218155D01*
X290647Y1216593D01*
X291463Y1215776D01*
Y1207140D01*
X290213Y1206891D01*
X290103Y1207157D01*
X288907Y1208353D01*
X287651Y1208873D01*
X287253Y1209357D01*
X287022Y1210250D01*
X287500Y1211405D01*
Y1213095D01*
X286853Y1214657D01*
X285657Y1215853D01*
X284095Y1216500D01*
X282405D01*
X280843Y1215853D01*
X279647Y1214657D01*
X279000Y1213095D01*
Y1211405D01*
X279647Y1209843D01*
X279786Y1209704D01*
X279713Y1209340D01*
Y1186875D01*
X279859Y1186143D01*
X280273Y1185523D01*
X280963Y1184833D01*
Y1163822D01*
X280328Y1162732D01*
X278637D01*
X277075Y1162085D01*
X275879Y1160890D01*
X275232Y1159328D01*
Y1157637D01*
X275879Y1156075D01*
X277075Y1154879D01*
X277570Y1154674D01*
Y1130184D01*
X275773Y1128387D01*
X275359Y1127767D01*
X275213Y1127035D01*
Y1106561D01*
X273773Y1105121D01*
X273359Y1104501D01*
X273213Y1103769D01*
Y1099731D01*
X273359Y1098999D01*
X273773Y1098379D01*
X275213Y1096939D01*
Y1066347D01*
X275359Y1065616D01*
X275773Y1064996D01*
X276810Y1063959D01*
X276297Y1062720D01*
Y1061030D01*
X276944Y1059468D01*
X278139Y1058272D01*
X279701Y1057625D01*
X281392D01*
X282954Y1058272D01*
X284150Y1059468D01*
X284243Y1059693D01*
X285596D01*
X285647Y1059570D01*
X286842Y1058375D01*
X288405Y1057728D01*
X290095D01*
X290963Y1058087D01*
X292213Y1057297D01*
Y1053361D01*
X291648Y1052796D01*
X291234Y1052176D01*
X291088Y1051444D01*
Y1048492D01*
X289838Y1047974D01*
X289237Y1048575D01*
X287675Y1049222D01*
X285984D01*
X284422Y1048575D01*
X283227Y1047380D01*
X282580Y1045817D01*
Y1044127D01*
X283227Y1042565D01*
X284422Y1041369D01*
X285984Y1040722D01*
X287675D01*
X289237Y1041369D01*
X289838Y1041970D01*
X291088Y1041452D01*
Y1021308D01*
X290593Y1021103D01*
X289397Y1019907D01*
X288750Y1018345D01*
Y1016655D01*
X289397Y1015093D01*
X290593Y1013897D01*
X292155Y1013250D01*
X293845D01*
X295407Y1013897D01*
X296603Y1015093D01*
X296625Y1015145D01*
X297851Y1015389D01*
X298093Y1015147D01*
X299655Y1014500D01*
X301345D01*
X302907Y1015147D01*
X304103Y1016343D01*
X304750Y1017905D01*
Y1019595D01*
X304545Y1020091D01*
X305352Y1020898D01*
X305766Y1021518D01*
X305912Y1022250D01*
Y1075321D01*
X305787Y1075949D01*
Y1086820D01*
X307037Y1087609D01*
X307905Y1087250D01*
X309595D01*
X311157Y1087897D01*
X312353Y1089093D01*
X313000Y1090655D01*
Y1092345D01*
X312353Y1093907D01*
X311157Y1095103D01*
X309595Y1095750D01*
X307905D01*
X307037Y1095390D01*
X305787Y1096180D01*
Y1127231D01*
X305641Y1127962D01*
X305227Y1128583D01*
X300913Y1132896D01*
Y1140219D01*
X300768Y1140951D01*
X300354Y1141571D01*
X299046Y1142878D01*
X299094Y1142995D01*
Y1144685D01*
X298447Y1146247D01*
X297252Y1147443D01*
X295690Y1148090D01*
X293999D01*
X292437Y1147443D01*
X291241Y1146247D01*
X290594Y1144685D01*
Y1142995D01*
X291007Y1141997D01*
X290758Y1141114D01*
X290162Y1140788D01*
X288912Y1141529D01*
Y1166695D01*
X290067Y1167173D01*
X290093Y1167147D01*
X291655Y1166500D01*
X293345D01*
X294907Y1167147D01*
X296103Y1168343D01*
X296750Y1169905D01*
Y1171595D01*
X296103Y1173157D01*
X295287Y1173974D01*
Y1214829D01*
X296657Y1215397D01*
X297853Y1216593D01*
X298500Y1218155D01*
Y1219845D01*
X297853Y1221407D01*
X296657Y1222603D01*
X295095Y1223250D01*
D02*
G37*
G36*
X247345Y1199750D02*
X245655D01*
X244093Y1199103D01*
X242897Y1197907D01*
X242250Y1196345D01*
Y1194655D01*
X242897Y1193093D01*
X244093Y1191897D01*
X245655Y1191250D01*
X247345D01*
X248907Y1191897D01*
X250103Y1193093D01*
X250750Y1194655D01*
Y1196345D01*
X250103Y1197907D01*
X248907Y1199103D01*
X247345Y1199750D01*
D02*
G37*
G36*
X720345Y1188750D02*
X718655D01*
X717093Y1188103D01*
X715897Y1186907D01*
X715250Y1185345D01*
Y1183655D01*
X715897Y1182093D01*
X717093Y1180897D01*
X718655Y1180250D01*
X720345D01*
X721907Y1180897D01*
X723103Y1182093D01*
X723750Y1183655D01*
Y1185345D01*
X723103Y1186907D01*
X721907Y1188103D01*
X720345Y1188750D01*
D02*
G37*
G36*
X544595Y1184000D02*
X542905D01*
X541343Y1183353D01*
X540147Y1182157D01*
X539500Y1180595D01*
Y1178905D01*
X540147Y1177343D01*
X541343Y1176147D01*
X542905Y1175500D01*
X544595D01*
X546157Y1176147D01*
X547353Y1177343D01*
X548000Y1178905D01*
Y1180595D01*
X547353Y1182157D01*
X546157Y1183353D01*
X544595Y1184000D01*
D02*
G37*
G36*
X544345Y1167500D02*
X542655D01*
X541093Y1166853D01*
X539897Y1165657D01*
X539250Y1164095D01*
Y1162405D01*
X539897Y1160843D01*
X541093Y1159647D01*
X542655Y1159000D01*
X544345D01*
X545907Y1159647D01*
X547103Y1160843D01*
X547750Y1162405D01*
Y1164095D01*
X547103Y1165657D01*
X545907Y1166853D01*
X544345Y1167500D01*
D02*
G37*
G36*
X484595Y1159750D02*
X482905D01*
X481343Y1159103D01*
X480147Y1157907D01*
X479500Y1156345D01*
Y1154655D01*
X479773Y1153994D01*
X479208Y1153413D01*
X478765Y1153162D01*
X477345Y1153750D01*
X475655D01*
X474093Y1153103D01*
X472897Y1151907D01*
X472250Y1150345D01*
Y1148655D01*
X472897Y1147093D01*
X474093Y1145897D01*
X475655Y1145250D01*
X477345D01*
X478907Y1145897D01*
X480103Y1147093D01*
X480750Y1148655D01*
Y1150345D01*
X480476Y1151006D01*
X481042Y1151587D01*
X481485Y1151838D01*
X482905Y1151250D01*
X484595D01*
X486157Y1151897D01*
X487353Y1153093D01*
X488000Y1154655D01*
Y1156345D01*
X487353Y1157907D01*
X486157Y1159103D01*
X484595Y1159750D01*
D02*
G37*
G36*
X543971Y1153132D02*
X542280D01*
X540718Y1152486D01*
X539523Y1151290D01*
X538876Y1149728D01*
Y1148037D01*
X539523Y1146475D01*
X540718Y1145279D01*
X542280Y1144632D01*
X543971D01*
X545533Y1145279D01*
X546729Y1146475D01*
X547376Y1148037D01*
Y1149728D01*
X546729Y1151290D01*
X545533Y1152486D01*
X543971Y1153132D01*
D02*
G37*
G36*
X717596Y1145750D02*
X715905D01*
X714343Y1145103D01*
X713147Y1143907D01*
X712500Y1142345D01*
Y1140655D01*
X713147Y1139093D01*
X714343Y1137897D01*
X715905Y1137250D01*
X717596D01*
X719157Y1137897D01*
X720353Y1139093D01*
X721000Y1140655D01*
Y1142345D01*
X720353Y1143907D01*
X719157Y1145103D01*
X717596Y1145750D01*
D02*
G37*
G36*
X544345Y1136000D02*
X542654D01*
X541092Y1135353D01*
X539897Y1134158D01*
X539250Y1132596D01*
Y1130905D01*
X539897Y1129343D01*
X541092Y1128147D01*
X542654Y1127500D01*
X544345D01*
X545907Y1128147D01*
X547103Y1129343D01*
X547750Y1130905D01*
Y1132596D01*
X547103Y1134158D01*
X545907Y1135353D01*
X544345Y1136000D01*
D02*
G37*
G36*
X437345Y1135750D02*
X435655D01*
X434093Y1135103D01*
X432897Y1133907D01*
X432250Y1132345D01*
Y1130655D01*
X432897Y1129093D01*
X434093Y1127897D01*
X435655Y1127250D01*
X437345D01*
X438907Y1127897D01*
X440103Y1129093D01*
X440750Y1130655D01*
Y1132345D01*
X440103Y1133907D01*
X438907Y1135103D01*
X437345Y1135750D01*
D02*
G37*
G36*
X482165Y1133005D02*
X480474D01*
X478912Y1132357D01*
X477717Y1131162D01*
X477070Y1129600D01*
Y1127909D01*
X477717Y1126347D01*
X478912Y1125152D01*
X480474Y1124504D01*
X482165D01*
X483727Y1125152D01*
X484923Y1126347D01*
X485570Y1127909D01*
Y1129600D01*
X484923Y1131162D01*
X483727Y1132357D01*
X482165Y1133005D01*
D02*
G37*
G36*
X246345Y1179000D02*
X244655D01*
X243093Y1178353D01*
X241897Y1177157D01*
X241250Y1175595D01*
Y1173905D01*
X241897Y1172343D01*
X242338Y1171901D01*
Y1133308D01*
X241843Y1133103D01*
X240647Y1131907D01*
X240000Y1130345D01*
Y1128655D01*
X240647Y1127093D01*
X241843Y1125897D01*
X243405Y1125250D01*
X245095D01*
X246657Y1125897D01*
X247853Y1127093D01*
X248058Y1127588D01*
X255708D01*
X261955Y1121341D01*
X261750Y1120845D01*
Y1119155D01*
X262397Y1117593D01*
X263593Y1116397D01*
X265155Y1115750D01*
X266845D01*
X268407Y1116397D01*
X269603Y1117593D01*
X270250Y1119155D01*
Y1120845D01*
X269603Y1122407D01*
X268407Y1123603D01*
X266845Y1124250D01*
X265155D01*
X264659Y1124045D01*
X257852Y1130852D01*
X257232Y1131266D01*
X256500Y1131412D01*
X248058D01*
X247853Y1131907D01*
X246657Y1133103D01*
X246162Y1133308D01*
Y1170500D01*
X246345D01*
X247907Y1171147D01*
X249103Y1172343D01*
X249750Y1173905D01*
Y1175595D01*
X249103Y1177157D01*
X247907Y1178353D01*
X246345Y1179000D01*
D02*
G37*
G36*
X384595Y1122250D02*
X382905D01*
X381343Y1121603D01*
X380147Y1120408D01*
X379500Y1118846D01*
Y1117155D01*
X380147Y1115593D01*
X381343Y1114397D01*
X382905Y1113750D01*
X384595D01*
X386157Y1114397D01*
X387353Y1115593D01*
X388000Y1117155D01*
Y1118846D01*
X387353Y1120408D01*
X386157Y1121603D01*
X384595Y1122250D01*
D02*
G37*
G36*
X369845Y1122000D02*
X368155D01*
X366593Y1121353D01*
X365397Y1120158D01*
X364750Y1118596D01*
Y1116905D01*
X365397Y1115343D01*
X366593Y1114147D01*
X368155Y1113500D01*
X369845D01*
X371407Y1114147D01*
X372603Y1115343D01*
X373250Y1116905D01*
Y1118596D01*
X372603Y1120158D01*
X371407Y1121353D01*
X369845Y1122000D01*
D02*
G37*
G36*
X356597Y1126593D02*
X354906D01*
X353344Y1125946D01*
X352148Y1124750D01*
X351501Y1123188D01*
Y1121497D01*
X352148Y1119935D01*
X353344Y1118740D01*
X353431Y1118301D01*
X352647Y1117517D01*
X352000Y1115955D01*
Y1114264D01*
X352647Y1112702D01*
X353228Y1112122D01*
X353721Y1111305D01*
X353228Y1110488D01*
X352647Y1109907D01*
X352000Y1108345D01*
Y1106655D01*
X352647Y1105093D01*
X353843Y1103897D01*
X354705Y1103540D01*
Y1102000D01*
X354850Y1101268D01*
X355089Y1100912D01*
X354442Y1099958D01*
X354337Y1099870D01*
X353595Y1100177D01*
X351905D01*
X350343Y1099530D01*
X349147Y1098335D01*
X348500Y1096773D01*
Y1095082D01*
X349147Y1093520D01*
X350343Y1092324D01*
X351905Y1091677D01*
X352270D01*
X352787Y1090427D01*
X351398Y1089038D01*
X350984Y1088418D01*
X350838Y1087686D01*
Y1073647D01*
X350984Y1072916D01*
X351398Y1072295D01*
X351838Y1071855D01*
Y1050426D01*
X350875Y1049472D01*
X349184D01*
X347622Y1048825D01*
X346427Y1047629D01*
X345780Y1046067D01*
Y1044377D01*
X346427Y1042815D01*
X347622Y1041619D01*
X349184Y1040972D01*
X350875D01*
X352437Y1041619D01*
X353633Y1042815D01*
X354280Y1044377D01*
Y1046067D01*
X354074Y1046563D01*
X355102Y1047590D01*
X355516Y1048211D01*
X355662Y1048942D01*
Y1072647D01*
X355516Y1073379D01*
X355102Y1073999D01*
X354662Y1074439D01*
Y1086895D01*
X358977Y1091210D01*
X359391Y1091830D01*
X359537Y1092561D01*
Y1100992D01*
X359391Y1101723D01*
X358977Y1102343D01*
X358669Y1102652D01*
X358722Y1103962D01*
X359853Y1105093D01*
X360500Y1106655D01*
Y1108345D01*
X359853Y1109907D01*
X359272Y1110488D01*
X358779Y1111305D01*
X359272Y1112122D01*
X359853Y1112702D01*
X360500Y1114264D01*
Y1115955D01*
X359853Y1117517D01*
X358657Y1118713D01*
X358570Y1119151D01*
X359354Y1119935D01*
X360001Y1121497D01*
Y1123188D01*
X359354Y1124750D01*
X358159Y1125946D01*
X356597Y1126593D01*
D02*
G37*
G36*
X447095Y1107250D02*
X445405D01*
X443843Y1106603D01*
X442647Y1105407D01*
X442000Y1103845D01*
Y1102155D01*
X442647Y1100593D01*
X443843Y1099397D01*
X445405Y1098750D01*
X447095D01*
X448657Y1099397D01*
X449853Y1100593D01*
X450500Y1102155D01*
Y1103845D01*
X449853Y1105407D01*
X448657Y1106603D01*
X447095Y1107250D01*
D02*
G37*
G36*
X488845Y1107000D02*
X487155D01*
X485593Y1106353D01*
X484397Y1105157D01*
X483750Y1103595D01*
Y1101905D01*
X484397Y1100343D01*
X485593Y1099147D01*
X487155Y1098500D01*
X488845D01*
X490407Y1099147D01*
X491603Y1100343D01*
X492250Y1101905D01*
Y1103595D01*
X491603Y1105157D01*
X490407Y1106353D01*
X488845Y1107000D01*
D02*
G37*
G36*
X475095Y1106250D02*
X473405D01*
X471843Y1105603D01*
X470647Y1104407D01*
X470000Y1102845D01*
Y1101155D01*
X470647Y1099593D01*
X471843Y1098397D01*
X473405Y1097750D01*
X475095D01*
X476657Y1098397D01*
X477853Y1099593D01*
X478500Y1101155D01*
Y1102845D01*
X477853Y1104407D01*
X476657Y1105603D01*
X475095Y1106250D01*
D02*
G37*
G36*
X344345Y1104500D02*
X342655D01*
X341093Y1103853D01*
X339897Y1102657D01*
X339250Y1101095D01*
Y1099405D01*
X339897Y1097843D01*
X341093Y1096647D01*
X342655Y1096000D01*
X344345D01*
X345907Y1096647D01*
X347103Y1097843D01*
X347750Y1099405D01*
Y1101095D01*
X347103Y1102657D01*
X345907Y1103853D01*
X344345Y1104500D01*
D02*
G37*
G36*
X606845Y1141500D02*
X605155D01*
X603593Y1140853D01*
X602397Y1139657D01*
X601750Y1138095D01*
Y1136405D01*
X602397Y1134843D01*
X603593Y1133647D01*
X605155Y1133000D01*
X606845D01*
X607341Y1133205D01*
X615588Y1124958D01*
Y1074558D01*
X615093Y1074353D01*
X613897Y1073157D01*
X613250Y1071595D01*
Y1069905D01*
X613897Y1068343D01*
X615093Y1067147D01*
X616655Y1066500D01*
X618345D01*
X619907Y1067147D01*
X621103Y1068343D01*
X621750Y1069905D01*
Y1071595D01*
X621103Y1073157D01*
X619907Y1074353D01*
X619412Y1074558D01*
Y1080058D01*
X620574Y1080326D01*
X620662Y1080328D01*
X621842Y1079147D01*
X623404Y1078500D01*
X625095D01*
X626657Y1079147D01*
X627853Y1080343D01*
X628500Y1081905D01*
Y1083596D01*
X627853Y1085158D01*
X626657Y1086353D01*
X625095Y1087000D01*
X623404D01*
X621842Y1086353D01*
X620662Y1085173D01*
X620574Y1085174D01*
X619412Y1085443D01*
Y1125750D01*
X619266Y1126482D01*
X618852Y1127102D01*
X610045Y1135909D01*
X610250Y1136405D01*
Y1138095D01*
X609603Y1139657D01*
X608407Y1140853D01*
X606845Y1141500D01*
D02*
G37*
G36*
X631845Y1075750D02*
X630155D01*
X628593Y1075103D01*
X627397Y1073907D01*
X626750Y1072345D01*
Y1070655D01*
X627397Y1069093D01*
X628593Y1067897D01*
X630155Y1067250D01*
X631845D01*
X633407Y1067897D01*
X634603Y1069093D01*
X635250Y1070655D01*
Y1072345D01*
X634603Y1073907D01*
X633407Y1075103D01*
X631845Y1075750D01*
D02*
G37*
G36*
X450345Y1071500D02*
X448655D01*
X447093Y1070853D01*
X445897Y1069657D01*
X445250Y1068095D01*
Y1066405D01*
X445897Y1064843D01*
X447093Y1063647D01*
X448655Y1063000D01*
X450345D01*
X451907Y1063647D01*
X453103Y1064843D01*
X453750Y1066405D01*
Y1068095D01*
X453103Y1069657D01*
X451907Y1070853D01*
X450345Y1071500D01*
D02*
G37*
G36*
X717596Y1070750D02*
X715905D01*
X714343Y1070103D01*
X713147Y1068907D01*
X712500Y1067345D01*
Y1065655D01*
X713147Y1064092D01*
X714343Y1062897D01*
X715905Y1062250D01*
X717596D01*
X719157Y1062897D01*
X720353Y1064092D01*
X721000Y1065655D01*
Y1067345D01*
X720353Y1068907D01*
X719157Y1070103D01*
X717596Y1070750D01*
D02*
G37*
G36*
X438720Y1070375D02*
X437030D01*
X435467Y1069728D01*
X434272Y1068532D01*
X433625Y1066970D01*
Y1065280D01*
X434272Y1063717D01*
X435467Y1062522D01*
X437030Y1061875D01*
X438720D01*
X440282Y1062522D01*
X441478Y1063717D01*
X442125Y1065280D01*
Y1066970D01*
X441478Y1068532D01*
X440282Y1069728D01*
X438720Y1070375D01*
D02*
G37*
G36*
X531595Y1067750D02*
X529905D01*
X528343Y1067103D01*
X527147Y1065907D01*
X526500Y1064345D01*
Y1062655D01*
X527147Y1061093D01*
X528343Y1059897D01*
X529905Y1059250D01*
X531595D01*
X533157Y1059897D01*
X534353Y1061093D01*
X535000Y1062655D01*
Y1064345D01*
X534353Y1065907D01*
X533157Y1067103D01*
X531595Y1067750D01*
D02*
G37*
G36*
X345845Y1066750D02*
X344155D01*
X342593Y1066103D01*
X341397Y1064907D01*
X340750Y1063345D01*
Y1061655D01*
X341397Y1060092D01*
X342593Y1058897D01*
X344155Y1058250D01*
X345845D01*
X347407Y1058897D01*
X348603Y1060092D01*
X349250Y1061655D01*
Y1063345D01*
X348603Y1064907D01*
X347407Y1066103D01*
X345845Y1066750D01*
D02*
G37*
G36*
X631595Y1066000D02*
X629905D01*
X628343Y1065353D01*
X627147Y1064157D01*
X626500Y1062595D01*
Y1060905D01*
X627147Y1059342D01*
X628343Y1058147D01*
X629905Y1057500D01*
X631595D01*
X633157Y1058147D01*
X634353Y1059342D01*
X635000Y1060905D01*
Y1062595D01*
X634353Y1064157D01*
X633157Y1065353D01*
X631595Y1066000D01*
D02*
G37*
G36*
X571095Y1062000D02*
X569405D01*
X567842Y1061353D01*
X566647Y1060157D01*
X566000Y1058595D01*
Y1056904D01*
X566647Y1055342D01*
X567842Y1054147D01*
X569405Y1053500D01*
X571095D01*
X572657Y1054147D01*
X573853Y1055342D01*
X574500Y1056904D01*
Y1058595D01*
X573853Y1060157D01*
X572657Y1061353D01*
X571095Y1062000D01*
D02*
G37*
G36*
X485595Y1058250D02*
X483905D01*
X482343Y1057603D01*
X481147Y1056407D01*
X480500Y1054845D01*
Y1053155D01*
X481147Y1051593D01*
X482343Y1050397D01*
X483905Y1049750D01*
X485595D01*
X487157Y1050397D01*
X488353Y1051593D01*
X489000Y1053155D01*
Y1054845D01*
X488353Y1056407D01*
X487157Y1057603D01*
X485595Y1058250D01*
D02*
G37*
G36*
X683025Y1049972D02*
X681334D01*
X679772Y1049325D01*
X678577Y1048130D01*
X677930Y1046567D01*
Y1044877D01*
X678577Y1043315D01*
X679772Y1042119D01*
X681334Y1041472D01*
X683025D01*
X684587Y1042119D01*
X685783Y1043315D01*
X686430Y1044877D01*
Y1046567D01*
X685783Y1048130D01*
X684587Y1049325D01*
X683025Y1049972D01*
D02*
G37*
G36*
X619375D02*
X617684D01*
X616122Y1049325D01*
X614927Y1048130D01*
X614280Y1046567D01*
Y1044877D01*
X614927Y1043315D01*
X616122Y1042119D01*
X617684Y1041472D01*
X619375D01*
X620937Y1042119D01*
X622133Y1043315D01*
X622780Y1044877D01*
Y1046567D01*
X622133Y1048130D01*
X620937Y1049325D01*
X619375Y1049972D01*
D02*
G37*
G36*
X606675D02*
X604984D01*
X603422Y1049325D01*
X602227Y1048130D01*
X601580Y1046567D01*
Y1044877D01*
X602227Y1043315D01*
X603422Y1042119D01*
X604984Y1041472D01*
X606675D01*
X608237Y1042119D01*
X609433Y1043315D01*
X610080Y1044877D01*
Y1046567D01*
X609433Y1048130D01*
X608237Y1049325D01*
X606675Y1049972D01*
D02*
G37*
G36*
X593975D02*
X592284D01*
X590722Y1049325D01*
X589527Y1048130D01*
X588880Y1046567D01*
Y1044877D01*
X589527Y1043315D01*
X590722Y1042119D01*
X592284Y1041472D01*
X593975D01*
X595537Y1042119D01*
X596733Y1043315D01*
X597380Y1044877D01*
Y1046567D01*
X596733Y1048130D01*
X595537Y1049325D01*
X593975Y1049972D01*
D02*
G37*
G36*
X581275D02*
X579584D01*
X578022Y1049325D01*
X576827Y1048130D01*
X576180Y1046567D01*
Y1044877D01*
X576827Y1043315D01*
X578022Y1042119D01*
X579584Y1041472D01*
X581275D01*
X582837Y1042119D01*
X584033Y1043315D01*
X584680Y1044877D01*
Y1046567D01*
X584033Y1048130D01*
X582837Y1049325D01*
X581275Y1049972D01*
D02*
G37*
G36*
X401125D02*
X399434D01*
X397872Y1049325D01*
X396677Y1048130D01*
X396030Y1046567D01*
Y1044877D01*
X396677Y1043315D01*
X397872Y1042119D01*
X399434Y1041472D01*
X401125D01*
X402687Y1042119D01*
X403883Y1043315D01*
X404530Y1044877D01*
Y1046567D01*
X403883Y1048130D01*
X402687Y1049325D01*
X401125Y1049972D01*
D02*
G37*
G36*
X388425D02*
X386734D01*
X385172Y1049325D01*
X383977Y1048130D01*
X383330Y1046567D01*
Y1044877D01*
X383977Y1043315D01*
X385172Y1042119D01*
X386734Y1041472D01*
X388425D01*
X389987Y1042119D01*
X391183Y1043315D01*
X391830Y1044877D01*
Y1046567D01*
X391183Y1048130D01*
X389987Y1049325D01*
X388425Y1049972D01*
D02*
G37*
G36*
X375725D02*
X374034D01*
X372472Y1049325D01*
X371277Y1048130D01*
X370630Y1046567D01*
Y1044877D01*
X371277Y1043315D01*
X372472Y1042119D01*
X374034Y1041472D01*
X375725D01*
X377287Y1042119D01*
X378483Y1043315D01*
X379130Y1044877D01*
Y1046567D01*
X378483Y1048130D01*
X377287Y1049325D01*
X375725Y1049972D01*
D02*
G37*
G36*
X363025D02*
X361334D01*
X359772Y1049325D01*
X358577Y1048130D01*
X357930Y1046567D01*
Y1044877D01*
X358577Y1043315D01*
X359772Y1042119D01*
X361334Y1041472D01*
X363025D01*
X364587Y1042119D01*
X365783Y1043315D01*
X366430Y1044877D01*
Y1046567D01*
X365783Y1048130D01*
X364587Y1049325D01*
X363025Y1049972D01*
D02*
G37*
G36*
X249125D02*
X247434D01*
X245872Y1049325D01*
X244677Y1048130D01*
X244030Y1046567D01*
Y1044877D01*
X244677Y1043315D01*
X245872Y1042119D01*
X247434Y1041472D01*
X249125D01*
X250687Y1042119D01*
X251883Y1043315D01*
X252530Y1044877D01*
Y1046567D01*
X251883Y1048130D01*
X250687Y1049325D01*
X249125Y1049972D01*
D02*
G37*
G36*
X236425D02*
X234734D01*
X233172Y1049325D01*
X231977Y1048130D01*
X231330Y1046567D01*
Y1044877D01*
X231977Y1043315D01*
X233172Y1042119D01*
X234734Y1041472D01*
X236425D01*
X237987Y1042119D01*
X239183Y1043315D01*
X239830Y1044877D01*
Y1046567D01*
X239183Y1048130D01*
X237987Y1049325D01*
X236425Y1049972D01*
D02*
G37*
G36*
X223725D02*
X222034D01*
X220472Y1049325D01*
X219277Y1048130D01*
X218630Y1046567D01*
Y1044877D01*
X219277Y1043315D01*
X220472Y1042119D01*
X222034Y1041472D01*
X223725D01*
X225287Y1042119D01*
X226483Y1043315D01*
X227130Y1044877D01*
Y1046567D01*
X226483Y1048130D01*
X225287Y1049325D01*
X223725Y1049972D01*
D02*
G37*
G36*
X211025D02*
X209334D01*
X207772Y1049325D01*
X206577Y1048130D01*
X205930Y1046567D01*
Y1044877D01*
X206577Y1043315D01*
X207772Y1042119D01*
X209334Y1041472D01*
X211025D01*
X212587Y1042119D01*
X213783Y1043315D01*
X214430Y1044877D01*
Y1046567D01*
X213783Y1048130D01*
X212587Y1049325D01*
X211025Y1049972D01*
D02*
G37*
G36*
X568375Y1049722D02*
X566684D01*
X565122Y1049075D01*
X563927Y1047879D01*
X563280Y1046317D01*
Y1044627D01*
X563927Y1043065D01*
X565122Y1041869D01*
X566684Y1041222D01*
X568375D01*
X569937Y1041869D01*
X571133Y1043065D01*
X571780Y1044627D01*
Y1046317D01*
X571133Y1047879D01*
X569937Y1049075D01*
X568375Y1049722D01*
D02*
G37*
G36*
X555675D02*
X553984D01*
X552422Y1049075D01*
X551227Y1047879D01*
X550580Y1046317D01*
Y1044627D01*
X551227Y1043065D01*
X552422Y1041869D01*
X553984Y1041222D01*
X555675D01*
X557237Y1041869D01*
X558433Y1043065D01*
X559080Y1044627D01*
Y1046317D01*
X558433Y1047879D01*
X557237Y1049075D01*
X555675Y1049722D01*
D02*
G37*
G36*
X542975D02*
X541284D01*
X539722Y1049075D01*
X538527Y1047879D01*
X537880Y1046317D01*
Y1044627D01*
X538527Y1043065D01*
X539722Y1041869D01*
X541284Y1041222D01*
X542975D01*
X544537Y1041869D01*
X545733Y1043065D01*
X546380Y1044627D01*
Y1046317D01*
X545733Y1047879D01*
X544537Y1049075D01*
X542975Y1049722D01*
D02*
G37*
G36*
X426975D02*
X425284D01*
X423722Y1049075D01*
X422527Y1047879D01*
X421880Y1046317D01*
Y1044627D01*
X422527Y1043065D01*
X423722Y1041869D01*
X425284Y1041222D01*
X426975D01*
X428537Y1041869D01*
X429733Y1043065D01*
X430380Y1044627D01*
Y1046317D01*
X429733Y1047879D01*
X428537Y1049075D01*
X426975Y1049722D01*
D02*
G37*
G36*
X414275D02*
X412584D01*
X411022Y1049075D01*
X409827Y1047879D01*
X409180Y1046317D01*
Y1044627D01*
X409827Y1043065D01*
X411022Y1041869D01*
X412584Y1041222D01*
X414275D01*
X415837Y1041869D01*
X417033Y1043065D01*
X417680Y1044627D01*
Y1046317D01*
X417033Y1047879D01*
X415837Y1049075D01*
X414275Y1049722D01*
D02*
G37*
G36*
X632025Y1049472D02*
X630334D01*
X628772Y1048825D01*
X627577Y1047629D01*
X626930Y1046067D01*
Y1044377D01*
X627577Y1042815D01*
X628772Y1041619D01*
X630334Y1040972D01*
X632025D01*
X633587Y1041619D01*
X634783Y1042815D01*
X635430Y1044377D01*
Y1046067D01*
X634783Y1047629D01*
X633587Y1048825D01*
X632025Y1049472D01*
D02*
G37*
G36*
X312775D02*
X311084D01*
X309522Y1048825D01*
X308327Y1047629D01*
X307680Y1046067D01*
Y1044377D01*
X308327Y1042815D01*
X309522Y1041619D01*
X311084Y1040972D01*
X312775D01*
X314337Y1041619D01*
X315533Y1042815D01*
X316180Y1044377D01*
Y1046067D01*
X315533Y1047629D01*
X314337Y1048825D01*
X312775Y1049472D01*
D02*
G37*
G36*
X274975Y1049222D02*
X273284D01*
X271722Y1048575D01*
X270527Y1047380D01*
X269880Y1045817D01*
Y1044127D01*
X270527Y1042565D01*
X271722Y1041369D01*
X273284Y1040722D01*
X274975D01*
X276537Y1041369D01*
X277733Y1042565D01*
X278380Y1044127D01*
Y1045817D01*
X277733Y1047380D01*
X276537Y1048575D01*
X274975Y1049222D01*
D02*
G37*
G36*
X262275D02*
X260584D01*
X259022Y1048575D01*
X257827Y1047380D01*
X257180Y1045817D01*
Y1044127D01*
X257827Y1042565D01*
X259022Y1041369D01*
X260584Y1040722D01*
X262275D01*
X263837Y1041369D01*
X265033Y1042565D01*
X265680Y1044127D01*
Y1045817D01*
X265033Y1047380D01*
X263837Y1048575D01*
X262275Y1049222D01*
D02*
G37*
G36*
X391898Y1031303D02*
X390207D01*
X388645Y1030656D01*
X387450Y1029460D01*
X386803Y1027898D01*
Y1026207D01*
X387450Y1024645D01*
X388645Y1023450D01*
X390207Y1022803D01*
X391898D01*
X393460Y1023450D01*
X394500Y1024490D01*
X395272Y1024353D01*
X395764Y1024120D01*
X396397Y1022593D01*
X397593Y1021397D01*
X399155Y1020750D01*
X400845D01*
X402407Y1021397D01*
X403603Y1022593D01*
X404250Y1024155D01*
Y1025845D01*
X403603Y1027407D01*
X402407Y1028603D01*
X400845Y1029250D01*
X399155D01*
X397593Y1028603D01*
X396553Y1027563D01*
X395780Y1027700D01*
X395289Y1027932D01*
X394656Y1029460D01*
X393460Y1030656D01*
X391898Y1031303D01*
D02*
G37*
G36*
X630345Y1026000D02*
X628655D01*
X627093Y1025353D01*
X625897Y1024157D01*
X625250Y1022595D01*
Y1020905D01*
X625897Y1019343D01*
X627093Y1018147D01*
X628655Y1017500D01*
X630345D01*
X631907Y1018147D01*
X633103Y1019343D01*
X633750Y1020905D01*
Y1022595D01*
X633103Y1024157D01*
X631907Y1025353D01*
X630345Y1026000D01*
D02*
G37*
G36*
X535845Y1029250D02*
X534155D01*
X532593Y1028603D01*
X531397Y1027407D01*
X530750Y1025845D01*
Y1024155D01*
X531397Y1022593D01*
X532593Y1021397D01*
X533088Y1021192D01*
Y1012584D01*
X530771Y1010267D01*
X530275Y1010472D01*
X528584D01*
X527022Y1009825D01*
X525827Y1008630D01*
X525180Y1007067D01*
Y1005377D01*
X525827Y1003815D01*
X527022Y1002619D01*
X528584Y1001972D01*
X530275D01*
X531837Y1002619D01*
X533033Y1003815D01*
X533680Y1005377D01*
Y1007067D01*
X533474Y1007563D01*
X536352Y1010440D01*
X536766Y1011061D01*
X536912Y1011792D01*
Y1021192D01*
X537407Y1021397D01*
X538603Y1022593D01*
X539250Y1024155D01*
Y1025845D01*
X538603Y1027407D01*
X537407Y1028603D01*
X535845Y1029250D01*
D02*
G37*
G36*
X388425Y1010972D02*
X386734D01*
X385172Y1010325D01*
X383977Y1009129D01*
X383330Y1007567D01*
Y1005877D01*
X383977Y1004315D01*
X385172Y1003119D01*
X386734Y1002472D01*
X388425D01*
X389987Y1003119D01*
X391183Y1004315D01*
X391830Y1005877D01*
Y1007567D01*
X391183Y1009129D01*
X389987Y1010325D01*
X388425Y1010972D01*
D02*
G37*
G36*
X375725D02*
X374034D01*
X372472Y1010325D01*
X371277Y1009129D01*
X370630Y1007567D01*
Y1005877D01*
X371277Y1004315D01*
X372472Y1003119D01*
X374034Y1002472D01*
X375725D01*
X377287Y1003119D01*
X378483Y1004315D01*
X379130Y1005877D01*
Y1007567D01*
X378483Y1009129D01*
X377287Y1010325D01*
X375725Y1010972D01*
D02*
G37*
G36*
X363025D02*
X361334D01*
X359772Y1010325D01*
X358577Y1009129D01*
X357930Y1007567D01*
Y1005877D01*
X358577Y1004315D01*
X359772Y1003119D01*
X361334Y1002472D01*
X363025D01*
X364587Y1003119D01*
X365783Y1004315D01*
X366430Y1005877D01*
Y1007567D01*
X365783Y1009129D01*
X364587Y1010325D01*
X363025Y1010972D01*
D02*
G37*
G36*
X568375Y1010472D02*
X566684D01*
X565122Y1009825D01*
X563927Y1008630D01*
X563280Y1007067D01*
Y1005377D01*
X563927Y1003815D01*
X565122Y1002619D01*
X566684Y1001972D01*
X568375D01*
X569937Y1002619D01*
X571133Y1003815D01*
X571780Y1005377D01*
Y1007067D01*
X571133Y1008630D01*
X569937Y1009825D01*
X568375Y1010472D01*
D02*
G37*
G36*
X555675D02*
X553984D01*
X552422Y1009825D01*
X551227Y1008630D01*
X550580Y1007067D01*
Y1005377D01*
X551227Y1003815D01*
X552422Y1002619D01*
X553984Y1001972D01*
X555675D01*
X557237Y1002619D01*
X558433Y1003815D01*
X559080Y1005377D01*
Y1007067D01*
X558433Y1008630D01*
X557237Y1009825D01*
X555675Y1010472D01*
D02*
G37*
G36*
X545845Y1029250D02*
X544155D01*
X542593Y1028603D01*
X541397Y1027407D01*
X540750Y1025845D01*
Y1024155D01*
X541293Y1022843D01*
X540778Y1022328D01*
X540364Y1021708D01*
X540218Y1020976D01*
Y1010030D01*
X539722Y1009825D01*
X538527Y1008630D01*
X537880Y1007067D01*
Y1005377D01*
X538527Y1003815D01*
X539722Y1002619D01*
X541284Y1001972D01*
X542975D01*
X544537Y1002619D01*
X545733Y1003815D01*
X546380Y1005377D01*
Y1007067D01*
X545733Y1008630D01*
X544537Y1009825D01*
X544041Y1010030D01*
Y1020184D01*
X544607Y1020750D01*
X545845D01*
X547407Y1021397D01*
X548603Y1022593D01*
X549250Y1024155D01*
Y1025845D01*
X548603Y1027407D01*
X547407Y1028603D01*
X545845Y1029250D01*
D02*
G37*
G36*
X249125Y1010472D02*
X247434D01*
X245872Y1009825D01*
X244677Y1008630D01*
X244030Y1007067D01*
Y1005377D01*
X244677Y1003815D01*
X245872Y1002619D01*
X247434Y1001972D01*
X249125D01*
X250687Y1002619D01*
X251883Y1003815D01*
X252530Y1005377D01*
Y1007067D01*
X251883Y1008630D01*
X250687Y1009825D01*
X249125Y1010472D01*
D02*
G37*
G36*
X223725D02*
X222034D01*
X220472Y1009825D01*
X219277Y1008630D01*
X218630Y1007067D01*
Y1005377D01*
X219277Y1003815D01*
X220472Y1002619D01*
X222034Y1001972D01*
X223725D01*
X225287Y1002619D01*
X226483Y1003815D01*
X227130Y1005377D01*
Y1007067D01*
X226483Y1008630D01*
X225287Y1009825D01*
X223725Y1010472D01*
D02*
G37*
G36*
X211025D02*
X209334D01*
X207772Y1009825D01*
X206577Y1008630D01*
X205930Y1007067D01*
Y1005377D01*
X206577Y1003815D01*
X207772Y1002619D01*
X209334Y1001972D01*
X211025D01*
X212587Y1002619D01*
X213783Y1003815D01*
X214430Y1005377D01*
Y1007067D01*
X213783Y1008630D01*
X212587Y1009825D01*
X211025Y1010472D01*
D02*
G37*
G36*
X517625Y1010222D02*
X515934D01*
X514372Y1009575D01*
X513177Y1008380D01*
X512530Y1006817D01*
Y1005127D01*
X513177Y1003565D01*
X514372Y1002369D01*
X515934Y1001722D01*
X517625D01*
X519187Y1002369D01*
X520383Y1003565D01*
X521030Y1005127D01*
Y1006817D01*
X520383Y1008380D01*
X519187Y1009575D01*
X517625Y1010222D01*
D02*
G37*
G36*
X350375D02*
X348684D01*
X347122Y1009575D01*
X345927Y1008380D01*
X345280Y1006817D01*
Y1005127D01*
X345927Y1003565D01*
X347122Y1002369D01*
X348684Y1001722D01*
X350375D01*
X351937Y1002369D01*
X353133Y1003565D01*
X353780Y1005127D01*
Y1006817D01*
X353133Y1008380D01*
X351937Y1009575D01*
X350375Y1010222D01*
D02*
G37*
G36*
X337675D02*
X335984D01*
X334422Y1009575D01*
X333227Y1008380D01*
X332580Y1006817D01*
Y1005127D01*
X333227Y1003565D01*
X334422Y1002369D01*
X335984Y1001722D01*
X337675D01*
X339237Y1002369D01*
X340433Y1003565D01*
X341080Y1005127D01*
Y1006817D01*
X340433Y1008380D01*
X339237Y1009575D01*
X337675Y1010222D01*
D02*
G37*
G36*
X324975D02*
X323284D01*
X321722Y1009575D01*
X320527Y1008380D01*
X319880Y1006817D01*
Y1005127D01*
X320527Y1003565D01*
X321722Y1002369D01*
X323284Y1001722D01*
X324975D01*
X326537Y1002369D01*
X327733Y1003565D01*
X328380Y1005127D01*
Y1006817D01*
X327733Y1008380D01*
X326537Y1009575D01*
X324975Y1010222D01*
D02*
G37*
G36*
X312275D02*
X310584D01*
X309022Y1009575D01*
X307827Y1008380D01*
X307180Y1006817D01*
Y1005127D01*
X307827Y1003565D01*
X309022Y1002369D01*
X310584Y1001722D01*
X312275D01*
X313837Y1002369D01*
X315033Y1003565D01*
X315680Y1005127D01*
Y1006817D01*
X315033Y1008380D01*
X313837Y1009575D01*
X312275Y1010222D01*
D02*
G37*
G36*
X300125D02*
X298434D01*
X296872Y1009575D01*
X295677Y1008380D01*
X295030Y1006817D01*
Y1005127D01*
X295677Y1003565D01*
X296872Y1002369D01*
X298434Y1001722D01*
X300125D01*
X301687Y1002369D01*
X302883Y1003565D01*
X303530Y1005127D01*
Y1006817D01*
X302883Y1008380D01*
X301687Y1009575D01*
X300125Y1010222D01*
D02*
G37*
G36*
X287425D02*
X285734D01*
X284172Y1009575D01*
X282977Y1008380D01*
X282330Y1006817D01*
Y1005127D01*
X282977Y1003565D01*
X284172Y1002369D01*
X285734Y1001722D01*
X287425D01*
X288987Y1002369D01*
X290183Y1003565D01*
X290830Y1005127D01*
Y1006817D01*
X290183Y1008380D01*
X288987Y1009575D01*
X287425Y1010222D01*
D02*
G37*
G36*
X274725D02*
X273034D01*
X271472Y1009575D01*
X270277Y1008380D01*
X269630Y1006817D01*
Y1005127D01*
X270277Y1003565D01*
X271472Y1002369D01*
X273034Y1001722D01*
X274725D01*
X276287Y1002369D01*
X277483Y1003565D01*
X278130Y1005127D01*
Y1006817D01*
X277483Y1008380D01*
X276287Y1009575D01*
X274725Y1010222D01*
D02*
G37*
G36*
X262025D02*
X260334D01*
X258772Y1009575D01*
X257577Y1008380D01*
X256930Y1006817D01*
Y1005127D01*
X257577Y1003565D01*
X258772Y1002369D01*
X260334Y1001722D01*
X262025D01*
X263587Y1002369D01*
X264783Y1003565D01*
X265430Y1005127D01*
Y1006817D01*
X264783Y1008380D01*
X263587Y1009575D01*
X262025Y1010222D01*
D02*
G37*
G36*
X236295Y1010000D02*
X234605D01*
X233043Y1009353D01*
X231847Y1008157D01*
X231200Y1006595D01*
Y1004904D01*
X231847Y1003342D01*
X233043Y1002147D01*
X234605Y1001500D01*
X236295D01*
X237857Y1002147D01*
X239053Y1003342D01*
X239700Y1004904D01*
Y1006595D01*
X239053Y1008157D01*
X237857Y1009353D01*
X236295Y1010000D01*
D02*
G37*
G36*
X683025Y1009972D02*
X681334D01*
X679772Y1009325D01*
X678577Y1008130D01*
X677930Y1006567D01*
Y1004877D01*
X678577Y1003315D01*
X679772Y1002119D01*
X681334Y1001472D01*
X683025D01*
X684587Y1002119D01*
X685783Y1003315D01*
X686430Y1004877D01*
Y1006567D01*
X685783Y1008130D01*
X684587Y1009325D01*
X683025Y1009972D01*
D02*
G37*
G36*
X669875D02*
X668184D01*
X666622Y1009325D01*
X665427Y1008130D01*
X664780Y1006567D01*
Y1004877D01*
X665427Y1003315D01*
X666622Y1002119D01*
X668184Y1001472D01*
X669875D01*
X671437Y1002119D01*
X672633Y1003315D01*
X673280Y1004877D01*
Y1006567D01*
X672633Y1008130D01*
X671437Y1009325D01*
X669875Y1009972D01*
D02*
G37*
G36*
X658115Y1019500D02*
X656424D01*
X654862Y1018853D01*
X653666Y1017657D01*
X653019Y1016095D01*
Y1014405D01*
X653666Y1012842D01*
X654862Y1011647D01*
X655888Y1011222D01*
X655639Y1009972D01*
X655484D01*
X653922Y1009325D01*
X652727Y1008130D01*
X652080Y1006567D01*
Y1004877D01*
X652727Y1003315D01*
X653922Y1002119D01*
X655484Y1001472D01*
X657175D01*
X658737Y1002119D01*
X659933Y1003315D01*
X660580Y1004877D01*
Y1006567D01*
X659933Y1008130D01*
X658737Y1009325D01*
X657711Y1009750D01*
X657960Y1011000D01*
X658115D01*
X659677Y1011647D01*
X660872Y1012842D01*
X661519Y1014405D01*
Y1016095D01*
X660872Y1017657D01*
X659677Y1018853D01*
X658115Y1019500D01*
D02*
G37*
G36*
X643683Y1019088D02*
X641992D01*
X640431Y1018441D01*
X639235Y1017245D01*
X638588Y1015683D01*
Y1013992D01*
X639235Y1012430D01*
X640431Y1011235D01*
X641499Y1010792D01*
Y1009439D01*
X641222Y1009325D01*
X640027Y1008130D01*
X639380Y1006567D01*
Y1004877D01*
X640027Y1003315D01*
X641222Y1002119D01*
X642784Y1001472D01*
X644475D01*
X646037Y1002119D01*
X647233Y1003315D01*
X647880Y1004877D01*
Y1006567D01*
X647233Y1008130D01*
X646037Y1009325D01*
X644969Y1009767D01*
Y1011121D01*
X645245Y1011235D01*
X646441Y1012430D01*
X647088Y1013992D01*
Y1015683D01*
X646441Y1017245D01*
X645245Y1018441D01*
X643683Y1019088D01*
D02*
G37*
G36*
X631775Y1009972D02*
X630084D01*
X628522Y1009325D01*
X627327Y1008130D01*
X626680Y1006567D01*
Y1004877D01*
X627327Y1003315D01*
X628522Y1002119D01*
X630084Y1001472D01*
X631775D01*
X633337Y1002119D01*
X634533Y1003315D01*
X635180Y1004877D01*
Y1006567D01*
X634533Y1008130D01*
X633337Y1009325D01*
X631775Y1009972D01*
D02*
G37*
G36*
X606425D02*
X604734D01*
X603172Y1009325D01*
X601977Y1008130D01*
X601330Y1006567D01*
Y1004877D01*
X601977Y1003315D01*
X603172Y1002119D01*
X604734Y1001472D01*
X606425D01*
X607987Y1002119D01*
X609183Y1003315D01*
X609830Y1004877D01*
Y1006567D01*
X609183Y1008130D01*
X607987Y1009325D01*
X606425Y1009972D01*
D02*
G37*
G36*
X593725D02*
X592034D01*
X590472Y1009325D01*
X589277Y1008130D01*
X588630Y1006567D01*
Y1004877D01*
X589277Y1003315D01*
X590472Y1002119D01*
X592034Y1001472D01*
X593725D01*
X595287Y1002119D01*
X596483Y1003315D01*
X597130Y1004877D01*
Y1006567D01*
X596483Y1008130D01*
X595287Y1009325D01*
X593725Y1009972D01*
D02*
G37*
G36*
X581025D02*
X579334D01*
X577772Y1009325D01*
X576577Y1008130D01*
X575930Y1006567D01*
Y1004877D01*
X576577Y1003315D01*
X577772Y1002119D01*
X579334Y1001472D01*
X581025D01*
X582587Y1002119D01*
X583783Y1003315D01*
X584430Y1004877D01*
Y1006567D01*
X583783Y1008130D01*
X582587Y1009325D01*
X581025Y1009972D01*
D02*
G37*
G36*
X426975D02*
X425284D01*
X423722Y1009325D01*
X422527Y1008130D01*
X421880Y1006567D01*
Y1004877D01*
X422527Y1003315D01*
X423722Y1002119D01*
X425284Y1001472D01*
X426975D01*
X428537Y1002119D01*
X429733Y1003315D01*
X430380Y1004877D01*
Y1006567D01*
X429733Y1008130D01*
X428537Y1009325D01*
X426975Y1009972D01*
D02*
G37*
G36*
X414275D02*
X412584D01*
X411022Y1009325D01*
X409827Y1008130D01*
X409180Y1006567D01*
Y1004877D01*
X409827Y1003315D01*
X411022Y1002119D01*
X412584Y1001472D01*
X414275D01*
X415837Y1002119D01*
X417033Y1003315D01*
X417680Y1004877D01*
Y1006567D01*
X417033Y1008130D01*
X415837Y1009325D01*
X414275Y1009972D01*
D02*
G37*
G36*
X504925Y1009525D02*
X503234D01*
X501672Y1008878D01*
X500477Y1007683D01*
X499830Y1006121D01*
Y1004430D01*
X500477Y1002868D01*
X501672Y1001672D01*
X503234Y1001025D01*
X504925D01*
X506487Y1001672D01*
X507683Y1002868D01*
X508330Y1004430D01*
Y1006121D01*
X507683Y1007683D01*
X506487Y1008878D01*
X504925Y1009525D01*
D02*
G37*
G36*
X401125Y1009500D02*
X399434D01*
X397872Y1008853D01*
X396677Y1007657D01*
X396030Y1006095D01*
Y1004405D01*
X396677Y1002842D01*
X397872Y1001647D01*
X399434Y1001000D01*
X401125D01*
X402687Y1001647D01*
X403883Y1002842D01*
X404530Y1004405D01*
Y1006095D01*
X403883Y1007657D01*
X402687Y1008853D01*
X401125Y1009500D01*
D02*
G37*
G36*
X619444Y1011250D02*
X617355D01*
X615426Y1010451D01*
X613949Y1008974D01*
X613150Y1007044D01*
Y1004956D01*
X613949Y1003026D01*
X615426Y1001549D01*
X617355Y1000750D01*
X619444D01*
X621374Y1001549D01*
X622851Y1003026D01*
X623650Y1004956D01*
Y1007044D01*
X622851Y1008974D01*
X621374Y1010451D01*
X619444Y1011250D01*
D02*
G37*
%LPD*%
G36*
X569602Y1338161D02*
X569713Y1338074D01*
Y1298792D01*
X566966Y1296045D01*
X566470Y1296250D01*
X564780D01*
X563912Y1295891D01*
X562662Y1296680D01*
Y1332731D01*
X568463Y1338532D01*
X569602Y1338161D01*
D02*
G37*
G36*
X532838Y1379768D02*
Y1269502D01*
X532462Y1269250D01*
X531212Y1269918D01*
Y1380154D01*
X531588Y1380419D01*
X532838Y1379768D01*
D02*
G37*
G36*
X571713Y1276314D02*
Y1222930D01*
X570463Y1222141D01*
X569595Y1222500D01*
X567905D01*
X566343Y1221853D01*
X565336Y1222483D01*
X565281Y1222560D01*
X565412Y1223215D01*
Y1240442D01*
X565907Y1240647D01*
X567103Y1241843D01*
X567750Y1243405D01*
Y1245095D01*
X567103Y1246657D01*
X565907Y1247853D01*
X564345Y1248500D01*
X562655D01*
X561093Y1247853D01*
X559897Y1246657D01*
X559250Y1245095D01*
Y1243405D01*
X559897Y1241843D01*
X561093Y1240647D01*
X561588Y1240442D01*
Y1224007D01*
X560719Y1223138D01*
X559845Y1223500D01*
X558155D01*
X557287Y1223141D01*
X556037Y1223931D01*
Y1244530D01*
X557852Y1246346D01*
X558266Y1246966D01*
X558412Y1247697D01*
Y1272942D01*
X558907Y1273147D01*
X560103Y1274343D01*
X560750Y1275905D01*
Y1277595D01*
X560103Y1279157D01*
X559758Y1279503D01*
X560001Y1280729D01*
X560407Y1280897D01*
X561603Y1282093D01*
X562250Y1283655D01*
Y1284009D01*
X563500Y1284527D01*
X571713Y1276314D01*
D02*
G37*
G36*
X575719Y1329864D02*
X577410D01*
X578278Y1330223D01*
X579528Y1329433D01*
Y1138481D01*
X575905Y1134858D01*
X574750Y1135337D01*
Y1135345D01*
X574103Y1136907D01*
X572907Y1138103D01*
X572412Y1138308D01*
Y1177403D01*
X574977Y1179968D01*
X575391Y1180589D01*
X575537Y1181320D01*
Y1277106D01*
X575391Y1277837D01*
X574977Y1278457D01*
X566839Y1286595D01*
X567164Y1288038D01*
X568032Y1288397D01*
X569228Y1289593D01*
X569875Y1291155D01*
Y1292845D01*
X569670Y1293341D01*
X572977Y1296648D01*
X573391Y1297268D01*
X573537Y1298000D01*
Y1329498D01*
X574787Y1330250D01*
X575719Y1329864D01*
D02*
G37*
G36*
X358963Y1369787D02*
Y1317680D01*
X357713Y1317037D01*
X356595Y1317500D01*
X354905D01*
X354833Y1317470D01*
X354125Y1318530D01*
X355178Y1319583D01*
X355592Y1320203D01*
X355738Y1320935D01*
Y1367949D01*
X356234Y1368154D01*
X357429Y1369350D01*
X357713Y1370036D01*
X358963Y1369787D01*
D02*
G37*
G36*
X343655Y1363500D02*
X345345D01*
X346213Y1363860D01*
X347463Y1363070D01*
Y1320811D01*
X343273Y1316621D01*
X342859Y1316001D01*
X342787Y1315639D01*
X341537Y1315762D01*
Y1363070D01*
X342787Y1363860D01*
X343655Y1363500D01*
D02*
G37*
G36*
X358963Y1308820D02*
Y1263680D01*
X357713Y1262890D01*
X356845Y1263250D01*
X355155D01*
X354287Y1262890D01*
X353037Y1263680D01*
Y1275440D01*
X355727Y1278130D01*
X356141Y1278750D01*
X356287Y1279481D01*
Y1298732D01*
X356141Y1299464D01*
X355727Y1300084D01*
X352787Y1303024D01*
Y1308570D01*
X354037Y1309359D01*
X354905Y1309000D01*
X356595D01*
X357713Y1309463D01*
X358963Y1308820D01*
D02*
G37*
G36*
X331843Y1309647D02*
X332338Y1309442D01*
Y1272792D01*
X326648Y1267102D01*
X326234Y1266482D01*
X326088Y1265750D01*
Y1239125D01*
X326234Y1238393D01*
X326648Y1237773D01*
X327588Y1236833D01*
Y1227055D01*
X326338Y1226339D01*
X325345Y1226750D01*
X323655D01*
X322287Y1226183D01*
X321037Y1226680D01*
Y1237106D01*
X320891Y1237837D01*
X320477Y1238457D01*
X320162Y1238773D01*
Y1241227D01*
X320477Y1241543D01*
X320891Y1242163D01*
X321037Y1242894D01*
Y1255606D01*
X320891Y1256337D01*
X320477Y1256957D01*
X320162Y1257273D01*
Y1259727D01*
X320477Y1260042D01*
X320891Y1260663D01*
X321037Y1261394D01*
Y1271685D01*
X322287Y1272203D01*
X322593Y1271897D01*
X324155Y1271250D01*
X325845D01*
X327407Y1271897D01*
X328603Y1273093D01*
X329250Y1274655D01*
Y1276345D01*
X328603Y1277907D01*
X327407Y1279103D01*
X326540Y1279463D01*
X326214Y1280905D01*
X329352Y1284043D01*
X329766Y1284663D01*
X329912Y1285394D01*
Y1309810D01*
X331162Y1310328D01*
X331843Y1309647D01*
D02*
G37*
G36*
X355155Y1254750D02*
X356773D01*
X357095Y1254424D01*
X357363Y1254073D01*
X357601Y1253710D01*
X357463Y1253019D01*
Y1214864D01*
X356308Y1214386D01*
X353037Y1217658D01*
Y1254320D01*
X354287Y1255109D01*
X355155Y1254750D01*
D02*
G37*
G36*
X338201Y1259325D02*
X339763Y1258678D01*
X340198D01*
X340713Y1258051D01*
Y1201731D01*
X340859Y1200999D01*
X341273Y1200379D01*
X341557Y1200095D01*
X341458Y1199321D01*
X340162Y1198849D01*
X340157Y1198853D01*
X338595Y1199500D01*
X336905D01*
X335342Y1198853D01*
X334147Y1197657D01*
X333500Y1196095D01*
Y1194405D01*
X334147Y1192843D01*
X335342Y1191647D01*
X336905Y1191000D01*
X338595D01*
X340157Y1191647D01*
X340588Y1192078D01*
X341838Y1191560D01*
Y1187405D01*
X340588Y1186615D01*
X339720Y1186975D01*
X338030D01*
X336468Y1186328D01*
X335272Y1185132D01*
X334625Y1183570D01*
Y1181879D01*
X335272Y1180317D01*
X336362Y1179227D01*
X336333Y1179079D01*
X335137Y1177884D01*
X334490Y1176321D01*
Y1174631D01*
X335137Y1173069D01*
X335959Y1172247D01*
X335775Y1171499D01*
X335541Y1170951D01*
X334090Y1170350D01*
X332934Y1169195D01*
X332718Y1169205D01*
X331684Y1169501D01*
Y1198195D01*
X333352Y1199863D01*
X333766Y1200483D01*
X333912Y1201215D01*
Y1207914D01*
X334852Y1208854D01*
X335266Y1209474D01*
X335412Y1210206D01*
Y1259433D01*
X336050Y1260119D01*
X337391Y1260135D01*
X338201Y1259325D01*
D02*
G37*
G36*
X350713Y1197833D02*
Y1162930D01*
X349463Y1162141D01*
X348595Y1162500D01*
X346905D01*
X345343Y1161853D01*
X344147Y1160657D01*
X343500Y1159095D01*
Y1157405D01*
X344147Y1155843D01*
X345343Y1154647D01*
X346905Y1154000D01*
X348595D01*
X349463Y1154360D01*
X350713Y1153570D01*
Y1149711D01*
X350398Y1149396D01*
X349984Y1148776D01*
X349838Y1148044D01*
Y1138433D01*
X349343Y1138228D01*
X348147Y1137032D01*
X348125Y1136979D01*
X346875D01*
X346853Y1137032D01*
X345657Y1138228D01*
X345162Y1138433D01*
Y1152144D01*
X345016Y1152876D01*
X344602Y1153496D01*
X338409Y1159689D01*
Y1162939D01*
X338904Y1163144D01*
X340100Y1164340D01*
X340747Y1165902D01*
Y1167592D01*
X340661Y1167799D01*
X345102Y1172240D01*
X345516Y1172860D01*
X345662Y1173592D01*
Y1198837D01*
X346655Y1199500D01*
X348345D01*
X348841Y1199705D01*
X350713Y1197833D01*
D02*
G37*
G36*
X514963Y1348820D02*
Y1278680D01*
X514370Y1278401D01*
X513713Y1278297D01*
X512657Y1279353D01*
X511095Y1280000D01*
X509405D01*
X507843Y1279353D01*
X506912Y1278422D01*
X505686Y1278789D01*
X505662Y1278805D01*
Y1344458D01*
X510659Y1349455D01*
X511155Y1349250D01*
X512845D01*
X513713Y1349610D01*
X514963Y1348820D01*
D02*
G37*
G36*
X514370Y1273099D02*
X514963Y1272820D01*
Y1231931D01*
X513713Y1231219D01*
X513187Y1231531D01*
X513034Y1232279D01*
X513500Y1233405D01*
Y1235095D01*
X512853Y1236657D01*
X511657Y1237853D01*
X510095Y1238500D01*
X508405D01*
X507162Y1237985D01*
X505912Y1238555D01*
Y1254028D01*
X506477Y1254593D01*
X506891Y1255214D01*
X507037Y1255945D01*
Y1271320D01*
X508287Y1271963D01*
X509405Y1271500D01*
X511095D01*
X512657Y1272147D01*
X513713Y1273203D01*
X514370Y1273099D01*
D02*
G37*
G36*
X502088Y1216015D02*
Y1213138D01*
X502234Y1212406D01*
X502648Y1211786D01*
X504278Y1210156D01*
X504359Y1209749D01*
X504773Y1209129D01*
X507338Y1206564D01*
Y1182805D01*
X506183Y1182327D01*
X506157Y1182353D01*
X504595Y1183000D01*
X502905D01*
X501343Y1182353D01*
X500147Y1181157D01*
X499787Y1180290D01*
X498345Y1179964D01*
X493787Y1184522D01*
Y1212819D01*
X495037Y1213609D01*
X495905Y1213250D01*
X497595D01*
X499157Y1213897D01*
X500353Y1215092D01*
X500838Y1216264D01*
X502088Y1216015D01*
D02*
G37*
G36*
X673817Y1240423D02*
X674343Y1239897D01*
X675905Y1239250D01*
X677595D01*
X678463Y1239610D01*
X679713Y1238820D01*
Y1194023D01*
X675405Y1189714D01*
X673962Y1190040D01*
X673603Y1190907D01*
X672407Y1192103D01*
X671537Y1192464D01*
Y1239847D01*
X671657Y1239897D01*
X672183Y1240423D01*
X673000Y1240990D01*
X673817Y1240423D01*
D02*
G37*
G36*
X285463Y1114070D02*
Y1098409D01*
X285609Y1097678D01*
X286023Y1097058D01*
X287088Y1095993D01*
Y1072805D01*
X285838Y1072089D01*
X284845Y1072500D01*
X283155D01*
X281593Y1071853D01*
X280397Y1070657D01*
X280287Y1070391D01*
X279037Y1070640D01*
Y1097731D01*
X278891Y1098462D01*
X278477Y1099082D01*
X277037Y1100523D01*
Y1102977D01*
X278477Y1104417D01*
X278891Y1105038D01*
X279037Y1105769D01*
Y1113570D01*
X280287Y1114360D01*
X281155Y1114000D01*
X282845D01*
X284213Y1114567D01*
X285463Y1114070D01*
D02*
G37*
D10*
X289000Y1352250D02*
G03*
X289000Y1352250I-1000J0D01*
G01*
X265000Y1135000D02*
G03*
X265000Y1135000I-1000J0D01*
G01*
X480400Y1303650D02*
G03*
X480400Y1303650I-1000J0D01*
G01*
X330250Y1067650D02*
G03*
X330250Y1067650I-1000J0D01*
G01*
X605210Y1234250D02*
G03*
X605210Y1234250I-1000J0D01*
G01*
D11*
X202000Y1275550D02*
Y1364950D01*
Y1275550D02*
X275500D01*
Y1364950D01*
X202000D02*
X275500D01*
X206900Y1230250D02*
Y1375250D01*
X256700Y1160300D02*
X277300D01*
X256700Y1139700D02*
Y1160300D01*
Y1139700D02*
X277300D01*
Y1160300D01*
X473950Y1324150D02*
Y1363150D01*
X522950D01*
Y1324150D02*
Y1363150D01*
X473950Y1324150D02*
X522950D01*
X516750Y1091049D02*
Y1291049D01*
X316750Y1091049D02*
Y1291049D01*
X516750D01*
X316750Y1091049D02*
X516750D01*
X598000Y1228250D02*
X643000D01*
X598000Y1198250D02*
Y1228250D01*
Y1198250D02*
X643000D01*
Y1228250D01*
X654000Y1200250D02*
Y1225250D01*
X624000Y1200250D02*
X654000D01*
X624000D02*
Y1225250D01*
X654000D01*
X427750Y1090000D02*
X477750D01*
X427750Y1058000D02*
X477750D01*
Y1090000D01*
X427750Y1058000D02*
Y1090000D01*
X683800Y1204950D02*
Y1220550D01*
X668200D02*
X683800D01*
X668200Y1204950D02*
Y1220550D01*
Y1204950D02*
X683800D01*
X584500Y1225250D02*
X614500D01*
X584500Y1200250D02*
Y1225250D01*
Y1200250D02*
X614500D01*
Y1225250D01*
D12*
X1574749Y967678D02*
X1581820Y981820D01*
X1567678Y974749D02*
X1581820Y981820D01*
X1550000Y950000D02*
X1695964Y1095964D01*
X1727251D01*
X1518180Y918180D02*
X1525251Y932322D01*
X1518180Y918180D02*
X1532322Y925251D01*
X1518180Y918180D02*
X1550000Y950000D01*
X209000Y1268250D02*
X215094D01*
Y1265203D01*
X214078Y1264187D01*
X212047D01*
X211031Y1265203D01*
Y1268250D01*
X214078Y1258093D02*
X215094Y1259109D01*
Y1261140D01*
X214078Y1262156D01*
X210016D01*
X209000Y1261140D01*
Y1259109D01*
X210016Y1258093D01*
X215094Y1256062D02*
X209000D01*
Y1253015D01*
X210016Y1251999D01*
X211031D01*
X212047Y1253015D01*
Y1256062D01*
Y1253015D01*
X213063Y1251999D01*
X214078D01*
X215094Y1253015D01*
Y1256062D01*
Y1239811D02*
Y1243874D01*
X209000D01*
Y1239811D01*
X212047Y1243874D02*
Y1241843D01*
X215094Y1237780D02*
X209000D01*
Y1234733D01*
X210016Y1233717D01*
X214078D01*
X215094Y1234733D01*
Y1237780D01*
X214078Y1227623D02*
X215094Y1228639D01*
Y1230670D01*
X214078Y1231686D01*
X210016D01*
X209000Y1230670D01*
Y1228639D01*
X210016Y1227623D01*
X212047D01*
Y1229654D01*
X215094Y1221529D02*
Y1225592D01*
X209000D01*
Y1221529D01*
X212047Y1225592D02*
Y1223560D01*
D14*
X659750Y1221750D02*
G03*
X659750Y1221750I-750J0D01*
G01*
X689750Y1218750D02*
G03*
X689750Y1218750I-750J0D01*
G01*
X620250Y1221750D02*
G03*
X620250Y1221750I-750J0D01*
G01*
D15*
X0Y-0D02*
X1600000D01*
Y1000000D01*
X0D02*
X1600000D01*
X0Y-0D02*
Y1000000D01*
X1800000D02*
X1805667Y983000D01*
X1794333D02*
X1800000Y1000000D01*
X1794333Y17000D02*
X1800000Y-0D01*
X1805667Y17000D01*
X1800000Y500000D02*
Y1000000D01*
Y-0D02*
Y500000D01*
X1603750Y1000000D02*
X1802500D01*
X1603750Y-0D02*
X1802500D01*
X0Y1100000D02*
X17000Y1105667D01*
X0Y1100000D02*
X17000Y1094333D01*
X1583000D02*
X1600000Y1100000D01*
X1583000Y1105667D02*
X1600000Y1100000D01*
X0D02*
X800000D01*
X1600000D01*
X0Y1003750D02*
Y1102500D01*
X1600000Y1003750D02*
Y1102500D01*
D16*
X1732290Y1084443D02*
X1737288D01*
X1739787Y1086942D01*
Y1091941D01*
X1737288Y1094440D01*
X1732290D01*
X1729791Y1091941D01*
Y1086942D01*
X1732290Y1084443D01*
X1759781Y1086942D02*
X1762280Y1084443D01*
X1767279D01*
X1769778Y1086942D01*
Y1096939D01*
X1767279Y1099438D01*
X1762280D01*
X1759781Y1096939D01*
Y1094440D01*
X1762280Y1091941D01*
X1769778D01*
X1777275Y1081944D02*
X1779775Y1084443D01*
Y1086942D01*
X1777275D01*
Y1084443D01*
X1779775D01*
X1777275Y1081944D01*
X1774776Y1079445D01*
X1789771Y1096939D02*
X1792271Y1099438D01*
X1797269D01*
X1799768Y1096939D01*
Y1086942D01*
X1797269Y1084443D01*
X1792271D01*
X1789771Y1086942D01*
Y1096939D01*
X1804767D02*
X1807266Y1099438D01*
X1812264D01*
X1814763Y1096939D01*
Y1086942D01*
X1812264Y1084443D01*
X1807266D01*
X1804767Y1086942D01*
Y1096939D01*
X1819762Y1084443D02*
Y1094440D01*
X1822261D01*
X1824760Y1091941D01*
Y1084443D01*
Y1091941D01*
X1827259Y1094440D01*
X1829758Y1091941D01*
Y1084443D01*
X1834757D02*
Y1094440D01*
X1837256D01*
X1839755Y1091941D01*
Y1084443D01*
Y1091941D01*
X1842254Y1094440D01*
X1844754Y1091941D01*
Y1084443D01*
X754040Y1123361D02*
X759118D01*
X756579D01*
Y1138596D01*
X754040Y1136057D01*
X776892Y1138596D02*
X771814Y1136057D01*
X766736Y1130979D01*
Y1125901D01*
X769275Y1123361D01*
X774353D01*
X776892Y1125901D01*
Y1128440D01*
X774353Y1130979D01*
X766736D01*
X781971Y1136057D02*
X784510Y1138596D01*
X789588D01*
X792127Y1136057D01*
Y1125901D01*
X789588Y1123361D01*
X784510D01*
X781971Y1125901D01*
Y1136057D01*
X799745Y1120822D02*
X802284Y1123361D01*
Y1125901D01*
X799745D01*
Y1123361D01*
X802284D01*
X799745Y1120822D01*
X797206Y1118283D01*
X812441Y1136057D02*
X814980Y1138596D01*
X820058D01*
X822598Y1136057D01*
Y1125901D01*
X820058Y1123361D01*
X814980D01*
X812441Y1125901D01*
Y1136057D01*
X827676D02*
X830215Y1138596D01*
X835293D01*
X837833Y1136057D01*
Y1125901D01*
X835293Y1123361D01*
X830215D01*
X827676Y1125901D01*
Y1136057D01*
D17*
X1776647Y454044D02*
Y459122D01*
Y456583D01*
X1761411D01*
X1763951Y454044D01*
Y466739D02*
X1761411Y469278D01*
Y474357D01*
X1763951Y476896D01*
X1774107D01*
X1776647Y474357D01*
Y469278D01*
X1774107Y466739D01*
X1763951D01*
Y481974D02*
X1761411Y484514D01*
Y489592D01*
X1763951Y492131D01*
X1774107D01*
X1776647Y489592D01*
Y484514D01*
X1774107Y481974D01*
X1763951D01*
X1779186Y499749D02*
X1776647Y502288D01*
X1774107D01*
Y499749D01*
X1776647D01*
Y502288D01*
X1779186Y499749D01*
X1781725Y497210D01*
X1763951Y512445D02*
X1761411Y514984D01*
Y520062D01*
X1763951Y522601D01*
X1774107D01*
X1776647Y520062D01*
Y514984D01*
X1774107Y512445D01*
X1763951D01*
Y527680D02*
X1761411Y530219D01*
Y535297D01*
X1763951Y537836D01*
X1774107D01*
X1776647Y535297D01*
Y530219D01*
X1774107Y527680D01*
X1763951D01*
D18*
X345250Y1058250D02*
Y1066250D01*
Y1058250D02*
X361250D01*
Y1066250D01*
X345250D02*
X361250D01*
X643750Y1348250D02*
Y1364250D01*
X651750D01*
Y1348250D02*
Y1364250D01*
X643750Y1348250D02*
X651750D01*
X283750Y1303750D02*
X291750D01*
Y1319750D01*
X283750D02*
X291750D01*
X283750Y1303750D02*
Y1319750D01*
X608500Y1100750D02*
X672500D01*
X608500D02*
Y1130750D01*
X672500D01*
Y1100750D02*
Y1130750D01*
X608500Y1290000D02*
X672500D01*
X608500D02*
Y1320000D01*
X672500D01*
Y1290000D02*
Y1320000D01*
X544000Y1127750D02*
Y1135750D01*
Y1127750D02*
X560000D01*
Y1135750D01*
X544000D02*
X560000D01*
X734250Y1079000D02*
Y1129000D01*
X699250Y1079000D02*
Y1129000D01*
X734250D01*
X699250Y1079000D02*
X734250D01*
X701500Y1304500D02*
X736500D01*
X701500Y1354500D02*
X736500D01*
X701500Y1304500D02*
Y1354500D01*
X736500Y1304500D02*
Y1354500D01*
X397750Y1058250D02*
Y1066250D01*
X381750D02*
X397750D01*
X381750Y1058250D02*
Y1066250D01*
Y1058250D02*
X397750D01*
X560250Y1109750D02*
Y1117750D01*
X544250D02*
X560250D01*
X544250Y1109750D02*
Y1117750D01*
Y1109750D02*
X560250D01*
X631750Y1252500D02*
X647750D01*
X631750D02*
Y1260500D01*
X647750D01*
Y1252500D02*
Y1260500D01*
X417000Y1366750D02*
X433000D01*
X417000Y1374750D02*
X433000D01*
X417000Y1366750D02*
Y1374750D01*
X433000Y1366750D02*
Y1374750D01*
X538750Y1339750D02*
X554750D01*
X538750Y1331750D02*
X554750D01*
Y1339750D01*
X538750Y1331750D02*
Y1339750D01*
Y1315750D02*
X554750D01*
X538750Y1323750D02*
X554750D01*
X538750Y1315750D02*
Y1323750D01*
X554750Y1315750D02*
Y1323750D01*
X539250Y1364250D02*
X555250D01*
X539250D02*
Y1372250D01*
X555250D01*
Y1364250D02*
Y1372250D01*
X538750Y1355750D02*
X554750D01*
Y1347750D02*
Y1355750D01*
X538750Y1347750D02*
X554750D01*
X538750D02*
Y1355750D01*
X288750Y1340000D02*
X304750D01*
Y1332000D02*
Y1340000D01*
X288750Y1332000D02*
X304750D01*
X288750D02*
Y1340000D01*
X276000Y1167000D02*
X292000D01*
X276000Y1175000D02*
X292000D01*
X276000Y1167000D02*
Y1175000D01*
X292000Y1167000D02*
Y1175000D01*
X588250Y1271750D02*
X596250D01*
X588250Y1255750D02*
X596250D01*
X588250D02*
Y1271750D01*
X596250Y1255750D02*
Y1271750D01*
X604250D02*
X612250D01*
X604250Y1255750D02*
X612250D01*
X604250D02*
Y1271750D01*
X612250Y1255750D02*
Y1271750D01*
X647000Y1163000D02*
Y1171000D01*
X631000D02*
X647000D01*
X631000Y1163000D02*
Y1171000D01*
Y1163000D02*
X647000D01*
X685250Y1274500D02*
X693250D01*
X685250Y1258500D02*
X693250D01*
X685250D02*
Y1274500D01*
X693250Y1258500D02*
Y1274500D01*
X668750D02*
X676750D01*
X668750Y1258500D02*
X676750D01*
X668750D02*
Y1274500D01*
X676750Y1258500D02*
Y1274500D01*
X543750Y1144500D02*
Y1152500D01*
Y1144500D02*
X559750D01*
Y1152500D01*
X543750D02*
X559750D01*
X544500Y1159750D02*
Y1167750D01*
Y1159750D02*
X560500D01*
Y1167750D01*
X544500D02*
X560500D01*
X544250Y1175750D02*
Y1183750D01*
Y1175750D02*
X560250D01*
Y1183750D01*
X544250D02*
X560250D01*
X677500Y1176000D02*
X693500D01*
X677500Y1144000D02*
X693500D01*
X677500D02*
Y1176000D01*
X693500Y1144000D02*
Y1176000D01*
X661750Y1167000D02*
X669750D01*
X661750Y1151000D02*
X669750D01*
X661750D02*
Y1167000D01*
X669750Y1151000D02*
Y1167000D01*
X691750Y1364750D02*
X699750D01*
X691750Y1348750D02*
Y1364750D01*
Y1348750D02*
X699750D01*
Y1364750D01*
X262250Y1102750D02*
X270250D01*
X262250Y1118750D02*
X270250D01*
Y1102750D02*
Y1118750D01*
X262250Y1102750D02*
Y1118750D01*
X278500Y1102750D02*
X286500D01*
X278500Y1118750D02*
X286500D01*
Y1102750D02*
Y1118750D01*
X278500Y1102750D02*
Y1118750D01*
X651750Y1080250D02*
X659750D01*
X651750Y1064250D02*
Y1080250D01*
Y1064250D02*
X659750D01*
Y1080250D01*
X682750Y1064750D02*
X690750D01*
Y1080750D01*
X682750D02*
X690750D01*
X682750Y1064750D02*
Y1080750D01*
X543500Y1344750D02*
X573500D01*
X543500Y1356750D02*
X573500D01*
Y1344750D02*
Y1356750D01*
X543500Y1344750D02*
Y1356750D01*
X560975Y1362750D02*
X560975Y1356750D01*
X555975Y1362750D02*
X560975D01*
X555975Y1356750D02*
X555975Y1362750D01*
X546450Y1344750D02*
X546450Y1338750D01*
X551450D01*
X551450Y1344750D01*
X570500Y1338750D02*
X570500Y1344750D01*
X565500Y1338750D02*
X570500D01*
X565500Y1344750D02*
X565500Y1338750D01*
X680500Y1058250D02*
Y1088250D01*
X668500Y1058250D02*
Y1088250D01*
X680500D01*
X668500Y1058250D02*
X680500D01*
X662500Y1075725D02*
X668500Y1075725D01*
X662500Y1070725D02*
Y1075725D01*
Y1070725D02*
X668500Y1070725D01*
X680500Y1061200D02*
X686500Y1061200D01*
Y1066200D01*
X680500Y1066200D02*
X686500Y1066200D01*
X680500Y1085250D02*
X686500Y1085250D01*
Y1080250D02*
Y1085250D01*
X680500Y1080250D02*
X686500Y1080250D01*
X574250Y1055750D02*
Y1085750D01*
X586250Y1055750D02*
Y1085750D01*
X574250Y1055750D02*
X586250D01*
X574250Y1085750D02*
X586250D01*
Y1068275D02*
X592250Y1068275D01*
Y1073275D01*
X586250Y1073275D02*
X592250Y1073275D01*
X568250Y1082800D02*
X574250Y1082800D01*
X568250Y1077800D02*
Y1082800D01*
Y1077800D02*
X574250Y1077800D01*
X568250Y1058750D02*
X574250Y1058750D01*
X568250Y1058750D02*
Y1063750D01*
X574250Y1063750D01*
X653750Y1345500D02*
Y1375500D01*
X665750Y1345500D02*
Y1375500D01*
X653750Y1345500D02*
X665750D01*
X653750Y1375500D02*
X665750D01*
Y1358025D02*
X671750Y1358025D01*
Y1363025D01*
X665750Y1363025D02*
X671750Y1363025D01*
X647750Y1372550D02*
X653750Y1372550D01*
X647750Y1367550D02*
Y1372550D01*
Y1367550D02*
X653750Y1367550D01*
X647750Y1348500D02*
X653750Y1348500D01*
X647750Y1348500D02*
Y1353500D01*
X653750Y1353500D01*
X298250Y1370250D02*
X326250D01*
X298250Y1354250D02*
X326250D01*
X331250Y1366250D02*
X331250Y1358250D01*
X326250D02*
X331250D01*
X326250Y1366250D02*
X331250D01*
X303250Y1359250D02*
Y1365250D01*
X300250Y1362250D02*
X306250D01*
X298250Y1354250D02*
Y1370250D01*
X326250Y1354250D02*
Y1370250D01*
X293250Y1358250D02*
X298250D01*
X293250Y1366250D02*
X298250D01*
X293250D02*
X293250Y1358250D01*
X608500Y1130750D02*
X672500D01*
X608500Y1100750D02*
Y1130750D01*
Y1100750D02*
X672500D01*
Y1130750D01*
X608500Y1320000D02*
X672500D01*
X608500Y1290000D02*
Y1320000D01*
Y1290000D02*
X672500D01*
Y1320000D01*
X409250Y1081750D02*
X417250D01*
X409250Y1065750D02*
X417250D01*
Y1081750D01*
X409250Y1065750D02*
Y1081750D01*
X233750Y1244250D02*
X241750D01*
X233750D02*
Y1260250D01*
X241750D01*
Y1244250D02*
Y1260250D01*
X250000Y1244750D02*
X258000D01*
X250000D02*
Y1260750D01*
X258000D01*
Y1244750D02*
Y1260750D01*
X480750Y1269000D02*
Y1277000D01*
X496750Y1269000D02*
Y1277000D01*
X480750D02*
X496750D01*
X480750Y1269000D02*
X496750D01*
X364300Y1251250D02*
X441800D01*
X364300Y1316250D02*
X441800D01*
X364300Y1251250D02*
Y1316250D01*
X441800Y1251250D02*
Y1316250D01*
X407750Y1117000D02*
X415750D01*
Y1101000D02*
Y1117000D01*
X407750Y1101000D02*
X415750D01*
X407750D02*
Y1117000D01*
X647750Y1252500D02*
Y1260500D01*
X631750Y1252500D02*
X647750D01*
X631750D02*
Y1260500D01*
X647750D01*
X647000Y1163000D02*
Y1171000D01*
X631000Y1163000D02*
X647000D01*
X631000D02*
Y1171000D01*
X647000D01*
X281750Y1260500D02*
X289750D01*
X281750Y1244500D02*
X289750D01*
Y1260500D01*
X281750Y1244500D02*
Y1260500D01*
X488500Y1065750D02*
Y1081750D01*
X496500Y1065750D02*
Y1081750D01*
X488500Y1065750D02*
X496500D01*
X488500Y1081750D02*
X496500D01*
X420500Y1245500D02*
X436500D01*
X420500Y1237500D02*
Y1245500D01*
Y1237500D02*
X436500D01*
Y1245500D01*
X402000Y1101500D02*
Y1117500D01*
X394000D02*
X402000D01*
X394000Y1101500D02*
Y1117500D01*
Y1101500D02*
X402000D01*
X387750Y1101500D02*
Y1117500D01*
X379750D02*
X387750D01*
X379750Y1101500D02*
Y1117500D01*
Y1101500D02*
X387750D01*
X373000Y1101250D02*
Y1117250D01*
X365000D02*
X373000D01*
X365000Y1101250D02*
Y1117250D01*
Y1101250D02*
X373000D01*
X612750Y1155500D02*
Y1171500D01*
X604750Y1155500D02*
Y1171500D01*
X612750D01*
X604750Y1155500D02*
X612750D01*
X596250D02*
Y1171500D01*
X588250Y1155500D02*
Y1171500D01*
X596250D01*
X588250Y1155500D02*
X596250D01*
X542250Y1224500D02*
X558250D01*
X542250Y1232500D02*
X558250D01*
Y1224500D02*
Y1232500D01*
X542250Y1224500D02*
Y1232500D01*
X481000Y1230750D02*
X497000D01*
X481000Y1222750D02*
X497000D01*
X481000D02*
Y1230750D01*
X497000Y1222750D02*
Y1230750D01*
X669000Y1258500D02*
Y1274500D01*
X677000Y1258500D02*
Y1274500D01*
X669000Y1258500D02*
X677000D01*
X669000Y1274500D02*
X677000D01*
X684925Y1258476D02*
Y1274477D01*
X692925Y1258476D02*
Y1274477D01*
X684925Y1258476D02*
X692925D01*
X684925Y1274477D02*
X692925D01*
X266000Y1244750D02*
Y1260750D01*
Y1244750D02*
X274000D01*
Y1260750D01*
X266000D02*
X274000D01*
X225500Y1244750D02*
Y1260750D01*
X217500D02*
X225500D01*
X217500Y1244750D02*
Y1260750D01*
Y1244750D02*
X225500D01*
X222750Y1317000D02*
X238750D01*
X222750Y1309000D02*
Y1317000D01*
Y1309000D02*
X238750D01*
Y1317000D01*
X222500Y1349500D02*
X238500D01*
X222500Y1341500D02*
Y1349500D01*
Y1341500D02*
X238500D01*
Y1349500D01*
X222750Y1301000D02*
X238750D01*
X222750Y1293000D02*
Y1301000D01*
Y1293000D02*
X238750D01*
Y1301000D01*
X222750Y1333250D02*
X238750D01*
X222750Y1325250D02*
Y1333250D01*
Y1325250D02*
X238750D01*
Y1333250D01*
X339500Y1101250D02*
Y1117250D01*
X347500Y1101250D02*
Y1117250D01*
X339500Y1101250D02*
X347500D01*
X339500Y1117250D02*
X347500D01*
X487250Y1174750D02*
X503250D01*
X487250Y1182750D02*
X503250D01*
Y1174750D02*
Y1182750D01*
X487250Y1174750D02*
Y1182750D01*
X485500Y1347500D02*
X501500D01*
X485500Y1339500D02*
X501500D01*
X485500D02*
Y1347500D01*
X501500Y1339500D02*
Y1347500D01*
X481250Y1301750D02*
X497250D01*
X481250Y1293750D02*
X497250D01*
X481250D02*
Y1301750D01*
X497250Y1293750D02*
Y1301750D01*
X450000Y1102000D02*
Y1118000D01*
X442000Y1102000D02*
Y1118000D01*
X450000D01*
X442000Y1102000D02*
X450000D01*
X543999Y1117750D02*
X560000D01*
X543999Y1109750D02*
X560000D01*
X543999D02*
Y1117750D01*
X560000Y1109750D02*
Y1117750D01*
X330750Y1321250D02*
X346750D01*
X330750Y1329250D02*
X346750D01*
Y1321250D02*
Y1329250D01*
X330750Y1321250D02*
Y1329250D01*
X328500Y1223000D02*
Y1239000D01*
X320500Y1223000D02*
Y1239000D01*
X328500D01*
X320500Y1223000D02*
X328500D01*
X419000Y1327500D02*
Y1343500D01*
X411000Y1327500D02*
Y1343500D01*
X419000D01*
X411000Y1327500D02*
X419000D01*
X320250Y1259750D02*
Y1275750D01*
X328250Y1259750D02*
Y1275750D01*
X320250Y1259750D02*
X328250D01*
X320250Y1275750D02*
X328250D01*
X469750Y1102000D02*
Y1118000D01*
X477750Y1102000D02*
Y1118000D01*
X469750Y1102000D02*
X477750D01*
X469750Y1118000D02*
X477750D01*
X677000Y1155750D02*
Y1171750D01*
X669000Y1155750D02*
Y1171750D01*
X677000D01*
X669000Y1155750D02*
X677000D01*
X485250Y1102000D02*
Y1118000D01*
X493250Y1102000D02*
Y1118000D01*
X485250Y1102000D02*
X493250D01*
X485250Y1118000D02*
X493250D01*
X692750Y1155500D02*
Y1171500D01*
X684750Y1155500D02*
Y1171500D01*
X692750D01*
X684750Y1155500D02*
X692750D01*
X714500Y1188250D02*
Y1204250D01*
Y1188250D02*
X722500D01*
Y1204250D01*
X714500D02*
X722500D01*
X722000Y1238500D02*
Y1254500D01*
X714000D02*
X722000D01*
X714000Y1238500D02*
Y1254500D01*
Y1238500D02*
X722000D01*
X421000Y1221750D02*
X437000D01*
X421000Y1213750D02*
Y1221750D01*
Y1213750D02*
X437000D01*
Y1221750D01*
D19*
X280237Y1280908D02*
G03*
X278239Y1282605I-5037J-3908D01*
G01*
X278239Y1357896D02*
G03*
X278239Y1369104I-3039J5604D01*
G01*
X581440Y1354896D02*
X582129Y1355586D01*
X581440Y1137690D02*
Y1354896D01*
X570500Y1126750D02*
X581440Y1137690D01*
X583625Y1362801D02*
Y1368519D01*
X582129Y1355586D02*
Y1361305D01*
X580100Y1372045D02*
X583625Y1368519D01*
X582129Y1361305D02*
X583625Y1362801D01*
X340000Y1389894D02*
Y1405000D01*
X341875Y1372019D02*
Y1388019D01*
X340000Y1389894D02*
X341875Y1388019D01*
X349700Y1386000D02*
X360875Y1374825D01*
X344825Y1374319D02*
X349375Y1369769D01*
X344825Y1395385D02*
X347250Y1397810D01*
X344825Y1374319D02*
Y1395385D01*
X329233Y1020125D02*
X329505Y1020397D01*
Y1044291D01*
X652269Y1194125D02*
X665000Y1181394D01*
Y1025000D02*
Y1181394D01*
X650000Y1025000D02*
Y1074840D01*
X649000Y1075840D02*
Y1124394D01*
Y1075840D02*
X650000Y1074840D01*
X523150Y1030611D02*
X523325Y1030786D01*
Y1089075D01*
X523500Y1089250D01*
X504080Y1045222D02*
Y1055616D01*
X516780Y1045222D02*
Y1087115D01*
X535000Y1011792D02*
Y1025000D01*
X529430Y1006222D02*
X535000Y1011792D01*
X545000Y1023846D02*
Y1025000D01*
X542130Y1020976D02*
X545000Y1023846D01*
X542130Y1006222D02*
Y1020976D01*
X615536Y1356180D02*
X615902Y1356546D01*
X600481Y1346875D02*
X615536Y1356180D01*
X615902Y1356546D02*
X628606Y1369250D01*
X597625Y1344019D02*
X600481Y1346875D01*
X597625Y1310125D02*
Y1344019D01*
X628606Y1369250D02*
X629750D01*
X480125Y1304627D02*
Y1345519D01*
X483286Y1348680D01*
X488518D02*
X492971Y1353132D01*
X483286Y1348680D02*
X488518D01*
X485125Y1258736D02*
Y1299627D01*
X480125Y1304627D02*
X485125Y1299627D01*
X482500Y1256110D02*
X485125Y1258736D01*
X482500Y1238500D02*
Y1256110D01*
X335000Y1165250D02*
X335409D01*
X343250Y1134625D02*
Y1152144D01*
X293375Y1171625D02*
Y1219874D01*
X292500Y1170750D02*
X293375Y1171625D01*
Y1219874D02*
X294500Y1221000D01*
X244250Y1129500D02*
X256500D01*
X266000Y1120000D01*
X606000Y1137250D02*
X617500Y1125750D01*
Y1070750D02*
Y1125750D01*
X602500Y1342000D02*
X628500Y1316000D01*
Y1303499D02*
Y1316000D01*
X628250Y1303250D02*
X628500Y1303499D01*
X593500Y1306000D02*
X597625Y1310125D01*
X633750Y1084500D02*
Y1118106D01*
X630125Y1121731D02*
X633750Y1118106D01*
X562000Y1091000D02*
X569000D01*
X559375Y1093625D02*
X562000Y1091000D01*
X588250Y1057750D02*
Y1082893D01*
X335409Y1165250D02*
X335800D01*
X335409D02*
X343750Y1173592D01*
Y1200606D01*
X336497Y1158897D02*
Y1164553D01*
X335800Y1165250D02*
X336497Y1164553D01*
Y1158897D02*
X343250Y1152144D01*
X639375Y1191981D02*
X643231Y1188125D01*
X652375Y1127769D02*
Y1184269D01*
X648519Y1188125D02*
X652375Y1184269D01*
X642231Y1198875D02*
X651055D01*
X639375Y1191981D02*
Y1196019D01*
X651055Y1198875D02*
X656021Y1193909D01*
X659841D02*
X660750Y1193000D01*
X639375Y1196019D02*
X642231Y1198875D01*
X656021Y1193909D02*
X659841D01*
X649000Y1124394D02*
X652375Y1127769D01*
X643231Y1188125D02*
X648519D01*
X644375Y1194125D02*
X652269D01*
X644250Y1194000D02*
X644375Y1194125D01*
X317250Y1080250D02*
X323000Y1086000D01*
Y1195750D01*
X329500Y1202250D01*
X329773Y1076072D02*
Y1198987D01*
X332000Y1201215D02*
Y1208706D01*
X329500Y1202250D02*
Y1237625D01*
X332000Y1208706D02*
X333500Y1210206D01*
X329773Y1198987D02*
X332000Y1201215D01*
X329773Y1076072D02*
X334951Y1070894D01*
X328000Y1239125D02*
Y1265750D01*
X319125Y1242894D02*
Y1255606D01*
Y1214875D02*
Y1237106D01*
X318250Y1237981D02*
Y1242019D01*
Y1256481D02*
X319125Y1255606D01*
X318250Y1260519D02*
X319125Y1261394D01*
X318250Y1242019D02*
X319125Y1242894D01*
Y1261394D02*
Y1276519D01*
X328000Y1239125D02*
X329500Y1237625D01*
X318250Y1256481D02*
Y1260519D01*
Y1237981D02*
X319125Y1237106D01*
X342625Y1258051D02*
X345483Y1260909D01*
X347500Y1259390D02*
X347983Y1259873D01*
X344625Y1269341D02*
Y1315269D01*
X342625Y1201731D02*
Y1258051D01*
X342341Y1267803D02*
X342627D01*
X347983Y1259873D02*
Y1265983D01*
X339625Y1270519D02*
X342341Y1267803D01*
X345483Y1260909D02*
Y1264947D01*
X342625Y1201731D02*
X343750Y1200606D01*
X342627Y1267803D02*
X345483Y1264947D01*
X328000Y1265750D02*
X334250Y1272000D01*
X347500Y1203750D02*
Y1259390D01*
X333500Y1210206D02*
Y1264356D01*
X344625Y1269341D02*
X347983Y1265983D01*
X334250Y1272000D02*
Y1313250D01*
X319125Y1276519D02*
X328000Y1285394D01*
X302250Y1309000D02*
Y1316000D01*
X286200Y1332050D02*
Y1386000D01*
Y1332050D02*
X302250Y1316000D01*
X278116Y1369227D02*
X278239Y1369104D01*
X280237Y1280908D02*
X280290Y1280855D01*
X280656Y1280489D02*
X283225D01*
X277750Y1369593D02*
X278116Y1369227D01*
X277750Y1283093D02*
X278116Y1282727D01*
X280290Y1280855D02*
X280656Y1280489D01*
X277750Y1369593D02*
Y1381750D01*
X278116Y1282727D02*
X278239Y1282605D01*
X277750Y1283093D02*
Y1357407D01*
X273500Y1386000D02*
X277384Y1382116D01*
X278116Y1357773D02*
X278239Y1357896D01*
X277384Y1382116D02*
X277750Y1381750D01*
Y1357407D02*
X278116Y1357773D01*
X328000Y1285394D02*
Y1346750D01*
X302000Y1244125D02*
Y1284874D01*
X291000Y1233125D02*
X302000Y1244125D01*
X571625Y1358862D02*
X572275Y1359512D01*
X571625Y1298000D02*
Y1358862D01*
X567650Y1425000D02*
X572275Y1420375D01*
X565625Y1292000D02*
X571625Y1298000D01*
X303875Y1075446D02*
X304000Y1075321D01*
Y1022250D02*
Y1075321D01*
X299002Y1132104D02*
X303875Y1127231D01*
Y1075446D02*
Y1127231D01*
X275125Y1103769D02*
X277125Y1105769D01*
X275125Y1099731D02*
Y1103769D01*
X277125Y1105769D02*
Y1127035D01*
Y1066347D02*
Y1097731D01*
X275125Y1099731D02*
X277125Y1097731D01*
X300500Y1018750D02*
X304000Y1022250D01*
X597250Y1091893D02*
Y1115625D01*
X588250Y1082893D02*
X597250Y1091893D01*
X498000Y1279394D02*
Y1331125D01*
X498125Y1331250D01*
X671500Y1115750D02*
Y1183106D01*
X681625Y1193231D01*
Y1273019D01*
X671000Y1283644D02*
X681625Y1273019D01*
X671000Y1283644D02*
Y1307500D01*
Y1333856D02*
X694600Y1357455D01*
Y1386000D01*
X671000Y1307500D02*
Y1333856D01*
X580100Y1372045D02*
Y1385000D01*
X572275Y1359512D02*
Y1420375D01*
X620000Y1164750D02*
X620500Y1164250D01*
X636580Y1241820D02*
Y1252560D01*
X638000Y1253980D02*
Y1273500D01*
X630750Y1256000D02*
Y1264856D01*
X638000Y1273500D02*
X642750Y1278250D01*
X630750Y1250224D02*
Y1256000D01*
Y1264856D02*
X630875Y1264981D01*
X636580Y1252560D02*
X638000Y1253980D01*
X616000Y1270375D02*
X623375Y1277750D01*
X630750Y1256000D02*
X633125D01*
X620000Y1164750D02*
Y1215938D01*
X618500Y1230442D02*
X626000Y1222942D01*
X618500Y1230442D02*
Y1262125D01*
X616000Y1219937D02*
X620000Y1215938D01*
X618500Y1262125D02*
X623375Y1267000D01*
X630750Y1250224D02*
X634080Y1246894D01*
X616000Y1219937D02*
Y1270375D01*
X253517Y1221411D02*
X257649D01*
X258236Y1220824D01*
X286750Y1134276D02*
Y1134500D01*
X295381Y1143840D02*
X299002Y1140219D01*
X294844Y1143840D02*
X295381D01*
X291500Y1092525D02*
Y1120430D01*
X289750Y1122180D02*
Y1129856D01*
X292031Y1132137D02*
Y1135936D01*
X295519Y1127836D02*
X299000Y1124356D01*
X294625Y1127836D02*
X295519D01*
X289750Y1129856D02*
X292031Y1132137D01*
X286160Y1122234D02*
X287375Y1121019D01*
X289750Y1122180D02*
X291500Y1120430D01*
X292031Y1135936D02*
X292940Y1136844D01*
X286160Y1122234D02*
Y1134276D01*
X299002Y1132104D02*
Y1140219D01*
X529300Y1212950D02*
X532875Y1209375D01*
X537375D01*
X537750Y1209000D01*
X529300Y1212950D02*
Y1385000D01*
X594750Y1240715D02*
Y1242000D01*
X593597Y1239562D02*
X594750Y1240715D01*
X593597Y1212118D02*
Y1239562D01*
Y1212118D02*
X597000Y1208715D01*
X630875Y1264981D02*
Y1269911D01*
X626000Y1188250D02*
Y1222942D01*
X630875Y1167375D02*
Y1239651D01*
X443735Y1257765D02*
X443742Y1257772D01*
Y1285242D01*
X443750Y1285250D01*
X244250Y1174500D02*
X245250Y1175500D01*
X244250Y1129500D02*
Y1174500D01*
X551625Y1216519D02*
Y1246358D01*
X552500Y1247233D01*
X549250Y1270106D02*
X552500Y1266856D01*
X549250Y1270106D02*
Y1270500D01*
X542000Y1385000D02*
X542750Y1384250D01*
X552500Y1247233D02*
Y1266856D01*
X542750Y1237840D02*
Y1384250D01*
Y1237840D02*
X547000Y1233590D01*
X551875Y1177195D02*
X552750Y1176320D01*
X546875Y1289375D02*
X547625Y1288625D01*
X551625Y1216519D02*
X551875Y1216269D01*
X546875Y1289375D02*
Y1420375D01*
X554125Y1217555D02*
X554375Y1217305D01*
X551875Y1177195D02*
Y1216269D01*
X554375Y1178231D02*
Y1217305D01*
X554125Y1217555D02*
Y1245322D01*
X556500Y1247697D02*
Y1276750D01*
X554375Y1178231D02*
X555250Y1177356D01*
X547000Y1214250D02*
Y1233590D01*
X554125Y1245322D02*
X556500Y1247697D01*
X491875Y1183731D02*
Y1262837D01*
Y1183731D02*
X504250Y1171356D01*
X491875Y1262837D02*
X492375Y1263337D01*
Y1342443D01*
X504183Y1354250D01*
Y1355325D01*
X279482Y1129392D02*
Y1158591D01*
X283250Y1210965D02*
Y1212250D01*
X281625Y1209340D02*
X283250Y1210965D01*
X282875Y1161984D02*
Y1185625D01*
X281625Y1186875D02*
Y1209340D01*
X279482Y1158591D02*
X282875Y1161984D01*
X281625Y1186875D02*
X282875Y1185625D01*
X635250Y1358250D02*
X635625Y1357875D01*
Y1274661D02*
Y1357875D01*
X630875Y1269911D02*
X635625Y1274661D01*
X668750Y1385500D02*
X679000Y1375250D01*
Y1348750D02*
Y1375250D01*
X634080Y1242856D02*
Y1246894D01*
X630500Y1167000D02*
X630875Y1167375D01*
Y1239651D02*
X634080Y1242856D01*
Y1239320D02*
X636580Y1241820D01*
X634080Y1170314D02*
Y1239320D01*
Y1170314D02*
X635375Y1169019D01*
Y1122527D02*
Y1169019D01*
X630125Y1166625D02*
X630500Y1167000D01*
X630125Y1121731D02*
Y1166625D01*
X351750Y1134625D02*
Y1148044D01*
X356250Y1107500D02*
X356617Y1107133D01*
Y1102000D02*
X357625Y1100992D01*
X356617Y1102000D02*
Y1107133D01*
X357625Y1092561D02*
Y1100992D01*
X352750Y1087686D02*
X357625Y1092561D01*
X352750Y1073647D02*
Y1087686D01*
Y1073647D02*
X353750Y1072647D01*
X350030Y1045222D02*
X353750Y1048942D01*
Y1072647D01*
X277125Y1066347D02*
X280547Y1062925D01*
X277125Y1127035D02*
X279482Y1129392D01*
X287375Y1098409D02*
Y1121019D01*
Y1098409D02*
X289000Y1096784D01*
X280547Y1061875D02*
Y1062925D01*
X329505Y1044291D02*
X336427Y1051214D01*
X334951Y1062621D02*
Y1070894D01*
X336427Y1051214D02*
Y1061144D01*
X334951Y1062621D02*
X336427Y1061144D01*
X398000Y1120250D02*
X407500Y1129750D01*
X406967Y1136980D02*
Y1379533D01*
X398000Y1062000D02*
Y1120250D01*
X359375Y1253019D02*
X360875Y1254519D01*
X359375Y1202340D02*
Y1253019D01*
Y1202340D02*
X362375Y1199340D01*
Y1147519D02*
Y1199340D01*
X356875Y1154375D02*
X357500Y1153750D01*
X359000Y1144000D02*
Y1144144D01*
X362375Y1147519D01*
X356875Y1154375D02*
Y1211116D01*
X351125Y1216866D02*
X356875Y1211116D01*
X354375Y1279481D02*
Y1298732D01*
X351125Y1276231D02*
X354375Y1279481D01*
X351125Y1216866D02*
Y1276231D01*
X350875Y1302232D02*
Y1317984D01*
Y1302232D02*
X354375Y1298732D01*
X350875Y1317984D02*
X353826Y1320935D01*
Y1371757D01*
X352625Y1148919D02*
Y1198625D01*
X347500Y1203750D02*
X352625Y1198625D01*
X360875Y1254519D02*
Y1374825D01*
X503750Y1277180D02*
Y1345250D01*
Y1277180D02*
X505125Y1275805D01*
X503750Y1345250D02*
X512000Y1353500D01*
X498000Y1279394D02*
X502625Y1274769D01*
X501500Y1255856D02*
X502625Y1256981D01*
X501500Y1246250D02*
Y1255856D01*
X497500Y1242250D02*
X501500Y1246250D01*
X505125Y1255945D02*
Y1275805D01*
X504000Y1213138D02*
Y1254820D01*
X502625Y1256981D02*
Y1274769D01*
X504000Y1254820D02*
X505125Y1255945D01*
X376750Y1294523D02*
X377250Y1294023D01*
X376750Y1294523D02*
Y1371649D01*
X379250Y1295558D02*
Y1372685D01*
X379750Y1248981D02*
X381375Y1247356D01*
Y1144513D02*
Y1247356D01*
Y1144513D02*
X382000Y1143888D01*
X393000Y1256590D02*
X396875Y1252715D01*
Y1252000D02*
Y1252715D01*
X379250Y1295558D02*
X379750Y1295058D01*
X390500Y1255555D02*
X392000Y1254055D01*
Y1249481D02*
Y1254055D01*
X386250Y1241144D02*
X389500Y1244394D01*
X386250Y1240750D02*
Y1241144D01*
Y1256269D02*
Y1292094D01*
X390500Y1255555D02*
Y1315055D01*
X377250Y1201736D02*
Y1294023D01*
X393000Y1256590D02*
Y1314020D01*
X379750Y1248981D02*
Y1295058D01*
X389500Y1244394D02*
Y1253019D01*
X390500Y1315055D02*
X395750Y1320305D01*
X392000Y1249481D02*
X393500Y1247981D01*
X386250Y1256269D02*
X389500Y1253019D01*
X371250Y1195736D02*
X377250Y1201736D01*
X362400Y1386000D02*
X376750Y1371649D01*
X381750Y1296594D02*
X386250Y1292094D01*
X381750Y1296594D02*
Y1373721D01*
X379975Y1375496D02*
X381750Y1373721D01*
X375100Y1376835D02*
X379250Y1372685D01*
X319125Y1214875D02*
X324500Y1209500D01*
X468000Y1278393D02*
Y1285375D01*
X465750Y1276143D02*
X468000Y1278393D01*
X465659Y1248534D02*
Y1251016D01*
X464750Y1247625D02*
X465659Y1248534D01*
X504000Y1213138D02*
X506125Y1211013D01*
Y1210481D02*
Y1211013D01*
Y1210481D02*
X509250Y1207356D01*
Y1150675D02*
Y1207356D01*
X511000Y1213250D02*
X514125Y1210125D01*
X510929Y1220497D02*
X511000Y1220426D01*
Y1213250D02*
Y1220426D01*
X510929Y1220497D02*
Y1227197D01*
X504250Y1147356D02*
Y1171356D01*
X502248Y1119823D02*
Y1121108D01*
X459000Y1271775D02*
X459125Y1271650D01*
Y1026500D02*
X459250Y1026375D01*
X459125Y1026500D02*
Y1271650D01*
X534750Y1265167D02*
X535042Y1264875D01*
X534750Y1265167D02*
Y1419799D01*
X555250Y1146606D02*
Y1177356D01*
X552750Y1111320D02*
Y1176320D01*
X555250Y1146606D02*
X555500Y1146356D01*
X556875Y1097340D02*
Y1107195D01*
X552750Y1111320D02*
X556875Y1107195D01*
X555500Y1112105D02*
Y1146356D01*
Y1112105D02*
X559375Y1108230D01*
Y1093625D02*
Y1108230D01*
X552000Y1094437D02*
Y1103750D01*
X555500Y1095965D02*
X556875Y1097340D01*
X573625Y1181320D02*
Y1277106D01*
X559535Y1219250D02*
X563500Y1223215D01*
X559000Y1219250D02*
X559535D01*
X563500Y1223215D02*
Y1244000D01*
X555500Y1086250D02*
Y1095965D01*
X550375Y1092812D02*
X552000Y1094437D01*
X550375Y1060875D02*
Y1092812D01*
X535970Y1076655D02*
X536250Y1076375D01*
X535970Y1076655D02*
Y1122771D01*
X570500Y1178195D02*
X573625Y1181320D01*
X570500Y1134500D02*
Y1178195D01*
X560750Y1289981D02*
X573625Y1277106D01*
X590250Y1195750D02*
X591500Y1194500D01*
Y1108750D02*
Y1194500D01*
X669250Y1243500D02*
X669625Y1243125D01*
Y1188875D02*
X670000Y1188500D01*
X669625Y1188875D02*
Y1243125D01*
X597000Y1182500D02*
Y1208715D01*
X514125Y1140203D02*
Y1210125D01*
X511013Y1137092D02*
X514125Y1140203D01*
X286500Y1204750D02*
X287000Y1204250D01*
Y1134750D02*
Y1204250D01*
X286750Y1134500D02*
X287000Y1134750D01*
X500799Y1118373D02*
X502248Y1119823D01*
X351750Y1148044D02*
X352625Y1148919D01*
X511013Y1136056D02*
X511625Y1135444D01*
X509477Y1123204D02*
Y1129257D01*
X511625Y1131405D01*
X504250Y1147356D02*
X506750Y1144856D01*
X511625Y1131405D02*
Y1135444D01*
X506750Y1133425D02*
Y1144856D01*
X511013Y1136056D02*
Y1137092D01*
X500799Y1086107D02*
Y1118373D01*
X505674Y1112507D02*
X516875Y1123708D01*
Y1372025D01*
X505674Y1106207D02*
Y1112507D01*
X535690Y1123051D02*
X535970Y1122771D01*
X550000Y1060500D02*
X550375Y1060875D01*
X504080Y1055616D02*
X506625Y1058161D01*
X500799Y1086107D02*
X506625Y1080281D01*
Y1058161D02*
Y1080281D01*
X465659Y1251016D02*
X465750Y1251107D01*
Y1276143D01*
X567400Y1340172D02*
Y1385000D01*
X560750Y1289981D02*
Y1333523D01*
X567400Y1340172D01*
X393500Y1144100D02*
Y1247981D01*
X393400Y1144000D02*
X393500Y1144100D01*
X400500Y1386000D02*
X406967Y1379533D01*
X558000Y1284500D02*
Y1335615D01*
X559575Y1337190D02*
Y1420375D01*
X558000Y1335615D02*
X559575Y1337190D01*
X508981Y1102625D02*
X508986D01*
X506125Y1099769D02*
X508981Y1102625D01*
X508986D02*
X512085Y1105724D01*
X511000Y1097750D02*
X519375Y1106125D01*
X505475Y1017525D02*
Y1017975D01*
X511250Y1023750D01*
X339625Y1369769D02*
X341875Y1372019D01*
X339625Y1270519D02*
Y1369769D01*
X344625Y1315269D02*
X349375Y1320019D01*
Y1369769D01*
X347250Y1397810D02*
Y1410500D01*
X519375Y1106125D02*
Y1373060D01*
X506125Y1095731D02*
Y1099769D01*
X516600Y1375835D02*
X519375Y1373060D01*
X516600Y1375835D02*
Y1385000D01*
X506125Y1095731D02*
X509981Y1091875D01*
X512019D02*
X516780Y1087115D01*
X512085Y1105724D02*
Y1111050D01*
X509981Y1091875D02*
X512019D01*
X503900Y1385000D02*
X516875Y1372025D01*
X393000Y1314020D02*
X398250Y1319270D01*
X394445Y1339479D02*
X395750Y1338174D01*
Y1320305D02*
Y1338174D01*
X395625Y1381710D02*
X398250Y1379085D01*
Y1319270D02*
Y1379085D01*
X394445Y1340515D02*
X394500Y1340569D01*
X394445Y1339479D02*
Y1340515D01*
X394500Y1340569D02*
Y1379299D01*
X387800Y1386000D02*
X394500Y1379299D01*
X395625Y1381710D02*
Y1417175D01*
X387800Y1425000D02*
X395625Y1417175D01*
X375100Y1376835D02*
Y1386000D01*
X379975Y1375496D02*
Y1401410D01*
X371250Y1142500D02*
Y1195736D01*
X294125Y1052569D02*
Y1089900D01*
X293000Y1051444D02*
X294125Y1052569D01*
X291500Y1092525D02*
X294125Y1089900D01*
X293000Y1017500D02*
Y1051444D01*
X289000Y1062228D02*
Y1096784D01*
Y1062228D02*
X289250Y1061978D01*
X299000Y1062750D02*
Y1124356D01*
X511250Y1023750D02*
Y1085500D01*
X251075Y1271069D02*
X260906Y1261238D01*
Y1233651D02*
Y1261238D01*
X248100Y1226829D02*
Y1386000D01*
Y1226829D02*
X253517Y1221411D01*
X251075Y1365891D02*
X260800Y1375615D01*
X251075Y1271069D02*
Y1365891D01*
X260800Y1375615D02*
Y1386000D01*
X529550Y1425000D02*
X534750Y1419799D01*
X554950Y1425000D02*
X559575Y1420375D01*
X542250Y1425000D02*
X546875Y1420375D01*
X375100Y1406285D02*
X379975Y1401410D01*
X375100Y1406285D02*
Y1425000D01*
X642750Y1278250D02*
X648250D01*
X570000Y1348750D02*
G03*
X570000Y1348750I-500J0D01*
G01*
X677000Y1084250D02*
G03*
X677000Y1084250I-500J0D01*
G01*
X578750Y1059750D02*
G03*
X578750Y1059750I-500J0D01*
G01*
X658250Y1349500D02*
G03*
X658250Y1349500I-500J0D01*
G01*
D68*
X340000Y1405000D02*
D03*
X349700Y1386000D02*
D03*
X329233Y1020125D02*
D03*
X665000Y1025000D02*
D03*
X650000D02*
D03*
X523150Y1030611D02*
D03*
X504080Y1045222D02*
D03*
X516780D02*
D03*
X535000Y1025000D02*
D03*
X545000D02*
D03*
X343250Y1134625D02*
D03*
X292500Y1170750D02*
D03*
X398524Y1062401D02*
D03*
X617500Y1070750D02*
D03*
X629750Y1369250D02*
D03*
X602500Y1342000D02*
D03*
X569000Y1091000D02*
D03*
X588250Y1057750D02*
D03*
X645000Y1334250D02*
D03*
X336497Y1166747D02*
D03*
X660750Y1193000D02*
D03*
X644250Y1194000D02*
D03*
X317500Y1081000D02*
D03*
X323125Y1240000D02*
D03*
Y1258500D02*
D03*
X333500Y1264356D02*
D03*
X334250Y1313250D02*
D03*
X438580Y1425222D02*
D03*
X451280D02*
D03*
X491200Y1385000D02*
D03*
X478500D02*
D03*
X478750Y1425000D02*
D03*
X491450D02*
D03*
X283225Y1280489D02*
D03*
X328000Y1346750D02*
D03*
X302250Y1309000D02*
D03*
X302000Y1284874D02*
D03*
X280000Y1101750D02*
D03*
X606000Y1137250D02*
D03*
X597250Y1115625D02*
D03*
X593500Y1306000D02*
D03*
X628500Y1303250D02*
D03*
X498125Y1331250D02*
D03*
X671000Y1307500D02*
D03*
X671500Y1115750D02*
D03*
X623375Y1267000D02*
D03*
Y1277750D02*
D03*
X633125Y1256000D02*
D03*
X258236Y1220824D02*
D03*
X294844Y1143840D02*
D03*
X286160Y1134276D02*
D03*
X294625Y1127836D02*
D03*
X292940Y1136844D02*
D03*
X343782Y1118282D02*
D03*
X266750Y1149750D02*
D03*
X537750Y1209000D02*
D03*
X626000Y1188250D02*
D03*
X266750Y1102250D02*
D03*
X443735Y1257765D02*
D03*
X245500Y1174750D02*
D03*
X275750Y1174250D02*
D03*
X294250Y1219000D02*
D03*
X685500Y1146000D02*
D03*
X689250Y1275000D02*
D03*
X672750D02*
D03*
X592250Y1272250D02*
D03*
X608250D02*
D03*
X547625Y1288625D02*
D03*
X547000Y1214250D02*
D03*
X504183Y1355325D02*
D03*
X480750Y1223375D02*
D03*
X291000Y1233125D02*
D03*
X418750Y1286149D02*
D03*
X635250Y1358250D02*
D03*
X668500Y1385500D02*
D03*
X679000Y1348750D02*
D03*
X416250Y1371250D02*
D03*
X559625Y1180375D02*
D03*
X474250Y1118500D02*
D03*
X488000Y1118000D02*
D03*
X399500Y1285250D02*
D03*
X399250Y1269250D02*
D03*
X412750Y1268750D02*
D03*
X351750Y1134625D02*
D03*
X446750Y1117500D02*
D03*
X356250Y1107500D02*
D03*
X244250Y1129500D02*
D03*
X244500Y1091750D02*
D03*
X266000Y1120000D02*
D03*
X280547Y1061875D02*
D03*
X406967Y1136980D02*
D03*
X407500Y1129750D02*
D03*
X357500Y1153750D02*
D03*
X359000Y1144000D02*
D03*
X396875Y1252000D02*
D03*
X480250Y1272500D02*
D03*
X468000Y1285375D02*
D03*
X464750Y1247625D02*
D03*
X497500Y1242250D02*
D03*
X486463Y1178713D02*
D03*
X688500Y1187750D02*
D03*
X721500Y1103500D02*
D03*
X706750Y1024500D02*
D03*
X509250Y1150675D02*
D03*
X502248Y1121108D02*
D03*
X459000Y1271775D02*
D03*
X535042Y1264875D02*
D03*
X549250Y1270500D02*
D03*
X556500Y1276750D02*
D03*
X552000Y1103750D02*
D03*
X555500Y1086250D02*
D03*
X536250Y1076375D02*
D03*
X570500Y1134500D02*
D03*
Y1126750D02*
D03*
X559000Y1219250D02*
D03*
X590250Y1196000D02*
D03*
X324500Y1209500D02*
D03*
X670000Y1188500D02*
D03*
X597000Y1182500D02*
D03*
X594750Y1242000D02*
D03*
X563500Y1244250D02*
D03*
X286500Y1204750D02*
D03*
X283250Y1212250D02*
D03*
X506750Y1133425D02*
D03*
X510929Y1227197D02*
D03*
X509477Y1123204D02*
D03*
X535690Y1123051D02*
D03*
X591500Y1108750D02*
D03*
X550000Y1060500D02*
D03*
X479045Y1045156D02*
D03*
X459250Y1026375D02*
D03*
X565625Y1292000D02*
D03*
X393400Y1144000D02*
D03*
X558000Y1284500D02*
D03*
X511000Y1097750D02*
D03*
X505674Y1106207D02*
D03*
X505475Y1017525D02*
D03*
X382000Y1143888D02*
D03*
X353826Y1371757D02*
D03*
X347250Y1410500D02*
D03*
X512000Y1353500D02*
D03*
X386250Y1240750D02*
D03*
X371250Y1142500D02*
D03*
X289250Y1061978D02*
D03*
X300500Y1018750D02*
D03*
X279482Y1158482D02*
D03*
X293000Y1017500D02*
D03*
X523500Y1089250D02*
D03*
X511000Y1086000D02*
D03*
X443750Y1285250D02*
D03*
X260906Y1233651D02*
D03*
X512085Y1111050D02*
D03*
X299000Y1062750D02*
D03*
X620000Y1165500D02*
D03*
X561000Y1163750D02*
D03*
X635000Y1123750D02*
D03*
X560250Y1148500D02*
D03*
X560499Y1131750D02*
D03*
X560750Y1113750D02*
D03*
X567400Y1385000D02*
D03*
X347500Y1203750D02*
D03*
X387000Y1318450D02*
D03*
X491380Y1045222D02*
D03*
X720280Y1045722D02*
D03*
X694880D02*
D03*
X707580D02*
D03*
X720280Y1005722D02*
D03*
X694880D02*
D03*
X707580D02*
D03*
X529430Y1006222D02*
D03*
X542130D02*
D03*
X478680Y1005972D02*
D03*
X491380D02*
D03*
X350030Y1045222D02*
D03*
X451530Y1045472D02*
D03*
X438830D02*
D03*
X451530Y1005722D02*
D03*
X438830D02*
D03*
X451030Y1386222D02*
D03*
X438330D02*
D03*
X529550Y1425000D02*
D03*
X542250D02*
D03*
X554950D02*
D03*
X567650D02*
D03*
X503900Y1385000D02*
D03*
X516600D02*
D03*
X529300D02*
D03*
X542000D02*
D03*
X580100D02*
D03*
X387800Y1425000D02*
D03*
X375100D02*
D03*
X400500Y1386000D02*
D03*
X387800D02*
D03*
X375100D02*
D03*
X362400D02*
D03*
X286200D02*
D03*
X273500D02*
D03*
X260800D02*
D03*
X248100D02*
D03*
X210000D02*
D03*
X222700D02*
D03*
X235400D02*
D03*
Y1425000D02*
D03*
X222700D02*
D03*
X210000D02*
D03*
X630500Y1167000D02*
D03*
X648750Y1277750D02*
D03*
X694600Y1386000D02*
D03*
X669250Y1243500D02*
D03*
D71*
X492971Y1353132D02*
D03*
X482500Y1238500D02*
D03*
X287750Y1320250D02*
D03*
X305250Y1336000D02*
D03*
D72*
X278116Y1282727D02*
D03*
Y1369227D02*
D03*
X278116Y1357773D02*
D03*
X280290Y1280855D02*
D03*
M02*
