G04*
G04 #@! TF.GenerationSoftware,Altium Limited,Altium Designer,24.4.1 (13)*
G04*
G04 Layer_Color=16711935*
%FSLAX44Y44*%
%MOMM*%
G71*
G04*
G04 #@! TF.SameCoordinates,9A945CEE-F102-44BA-A3C3-DB53B066AAF5*
G04*
G04*
G04 #@! TF.FilePolarity,Positive*
G04*
G01*
G75*
%ADD10C,0.2000*%
%ADD11C,0.1270*%
%ADD12C,0.2540*%
%ADD65C,0.1250*%
%ADD93C,0.1000*%
D10*
X289000Y1352250D02*
G03*
X289000Y1352250I-1000J0D01*
G01*
X265000Y1135000D02*
G03*
X265000Y1135000I-1000J0D01*
G01*
X480400Y1303650D02*
G03*
X480400Y1303650I-1000J0D01*
G01*
X330250Y1067650D02*
G03*
X330250Y1067650I-1000J0D01*
G01*
X605210Y1234250D02*
G03*
X605210Y1234250I-1000J0D01*
G01*
D11*
X202000Y1275550D02*
Y1364950D01*
Y1275550D02*
X275500D01*
Y1364950D01*
X202000D02*
X275500D01*
X206900Y1230250D02*
Y1375250D01*
X256700Y1160300D02*
X277300D01*
X256700Y1139700D02*
Y1160300D01*
Y1139700D02*
X277300D01*
Y1160300D01*
X473950Y1324150D02*
Y1363150D01*
X522950D01*
Y1324150D02*
Y1363150D01*
X473950Y1324150D02*
X522950D01*
X516750Y1091049D02*
Y1291049D01*
X316750Y1091049D02*
Y1291049D01*
X516750D01*
X316750Y1091049D02*
X516750D01*
X598000Y1228250D02*
X643000D01*
X598000Y1198250D02*
Y1228250D01*
Y1198250D02*
X643000D01*
Y1228250D01*
D12*
X209000Y1268250D02*
X215094D01*
Y1265203D01*
X214078Y1264187D01*
X212047D01*
X211031Y1265203D01*
Y1268250D01*
X214078Y1258093D02*
X215094Y1259109D01*
Y1261140D01*
X214078Y1262156D01*
X210016D01*
X209000Y1261140D01*
Y1259109D01*
X210016Y1258093D01*
X215094Y1256062D02*
X209000D01*
Y1253015D01*
X210016Y1251999D01*
X211031D01*
X212047Y1253015D01*
Y1256062D01*
Y1253015D01*
X213063Y1251999D01*
X214078D01*
X215094Y1253015D01*
Y1256062D01*
Y1239811D02*
Y1243874D01*
X209000D01*
Y1239811D01*
X212047Y1243874D02*
Y1241843D01*
X215094Y1237780D02*
X209000D01*
Y1234733D01*
X210016Y1233717D01*
X214078D01*
X215094Y1234733D01*
Y1237780D01*
X214078Y1227623D02*
X215094Y1228639D01*
Y1230670D01*
X214078Y1231686D01*
X210016D01*
X209000Y1230670D01*
Y1228639D01*
X210016Y1227623D01*
X212047D01*
Y1229654D01*
X215094Y1221529D02*
Y1225592D01*
X209000D01*
Y1221529D01*
X212047Y1225592D02*
Y1223560D01*
D65*
X608750Y1353000D02*
G03*
X608750Y1353000I-500J0D01*
G01*
X626750Y1072750D02*
G03*
X626750Y1072750I-500J0D01*
G01*
X568750Y1067750D02*
G03*
X568750Y1067750I-500J0D01*
G01*
X599250Y1356500D02*
G03*
X599250Y1356500I-500J0D01*
G01*
D93*
X283750Y1303750D02*
X291750D01*
Y1319750D01*
X283750D02*
X291750D01*
X283750Y1303750D02*
Y1319750D01*
X608500Y1100750D02*
X672500D01*
X608500D02*
Y1130750D01*
X672500D01*
Y1100750D02*
Y1130750D01*
X608500Y1290000D02*
X672500D01*
X608500D02*
Y1320000D01*
X672500D01*
Y1290000D02*
Y1320000D01*
X659000Y1348750D02*
Y1364750D01*
X667000D01*
Y1348750D02*
Y1364750D01*
X659000Y1348750D02*
X667000D01*
X684000D02*
Y1364750D01*
X676000Y1348750D02*
X684000D01*
X676000D02*
Y1364750D01*
X684000D01*
X544000Y1127750D02*
Y1135750D01*
Y1127750D02*
X560000D01*
Y1135750D01*
X544000D02*
X560000D01*
X612250Y1343000D02*
Y1349000D01*
X607250Y1343000D02*
X612250D01*
X607250D02*
Y1349000D01*
X626300Y1343000D02*
Y1349000D01*
Y1343000D02*
X631300D01*
Y1349000D01*
X621775Y1361000D02*
Y1367000D01*
X616775D02*
X621775D01*
X616775Y1361000D02*
Y1367000D01*
X634250Y1349000D02*
Y1361000D01*
X604250Y1349000D02*
Y1361000D01*
X634250D01*
X604250Y1349000D02*
X634250D01*
X734250Y1079000D02*
Y1129000D01*
X699250Y1079000D02*
Y1129000D01*
X734250D01*
X699250Y1079000D02*
X734250D01*
X701500Y1304500D02*
X736500D01*
X701500Y1354500D02*
X736500D01*
X701500Y1304500D02*
Y1354500D01*
X736500Y1304500D02*
Y1354500D01*
X397750Y1058250D02*
Y1066250D01*
X381750D02*
X397750D01*
X381750Y1058250D02*
Y1066250D01*
Y1058250D02*
X397750D01*
X345250Y1058000D02*
Y1066000D01*
Y1058000D02*
X361250D01*
Y1066000D01*
X345250D02*
X361250D01*
X560250Y1109750D02*
Y1117750D01*
X544250D02*
X560250D01*
X544250Y1109750D02*
Y1117750D01*
Y1109750D02*
X560250D01*
X631750Y1252500D02*
X647750D01*
X631750D02*
Y1260500D01*
X647750D01*
Y1252500D02*
Y1260500D01*
X417000Y1366750D02*
X433000D01*
X417000Y1374750D02*
X433000D01*
X417000Y1366750D02*
Y1374750D01*
X433000Y1366750D02*
Y1374750D01*
X538750Y1339750D02*
X554750D01*
X538750Y1331750D02*
X554750D01*
Y1339750D01*
X538750Y1331750D02*
Y1339750D01*
Y1315750D02*
X554750D01*
X538750Y1323750D02*
X554750D01*
X538750Y1315750D02*
Y1323750D01*
X554750Y1315750D02*
Y1323750D01*
X539250Y1364250D02*
X555250D01*
X539250D02*
Y1372250D01*
X555250D01*
Y1364250D02*
Y1372250D01*
X538750Y1355750D02*
X554750D01*
Y1347750D02*
Y1355750D01*
X538750Y1347750D02*
X554750D01*
X538750D02*
Y1355750D01*
X288750Y1340000D02*
X304750D01*
Y1332000D02*
Y1340000D01*
X288750Y1332000D02*
X304750D01*
X288750D02*
Y1340000D01*
X278000Y1169750D02*
X294000D01*
X278000Y1177750D02*
X294000D01*
X278000Y1169750D02*
Y1177750D01*
X294000Y1169750D02*
Y1177750D01*
X600250Y1076750D02*
X630250D01*
X600250Y1064750D02*
X630250D01*
Y1076750D01*
X600250Y1064750D02*
Y1076750D01*
X617725Y1058750D02*
Y1064750D01*
X612725Y1058750D02*
X617725D01*
X612725D02*
Y1064750D01*
X603200Y1076750D02*
Y1082750D01*
X608200D01*
Y1076750D02*
Y1082750D01*
X627250Y1076750D02*
Y1082750D01*
X622250D02*
X627250D01*
X622250Y1076750D02*
Y1082750D01*
X564250Y1063750D02*
X594250D01*
X564250Y1075750D02*
X594250D01*
X564250Y1063750D02*
Y1075750D01*
X594250Y1063750D02*
Y1075750D01*
X576775D02*
Y1081750D01*
X581775D01*
Y1075750D02*
Y1081750D01*
X591300Y1057750D02*
Y1063750D01*
X586300Y1057750D02*
X591300D01*
X586300D02*
Y1063750D01*
X567250Y1057750D02*
Y1063750D01*
Y1057750D02*
X572250D01*
Y1063750D01*
X572750Y1360500D02*
X602750D01*
X572750Y1348500D02*
X602750D01*
Y1360500D01*
X572750Y1348500D02*
Y1360500D01*
X590225Y1342500D02*
Y1348500D01*
X585225Y1342500D02*
X590225D01*
X585225D02*
Y1348500D01*
X575700Y1360500D02*
Y1366500D01*
X580700D01*
Y1360500D02*
Y1366500D01*
X599750Y1360500D02*
Y1366500D01*
X594750D02*
X599750D01*
X594750Y1360500D02*
Y1366500D01*
X588250Y1271750D02*
X596250D01*
X588250Y1255750D02*
X596250D01*
X588250D02*
Y1271750D01*
X596250Y1255750D02*
Y1271750D01*
X604250D02*
X612250D01*
X604250Y1255750D02*
X612250D01*
X604250D02*
Y1271750D01*
X612250Y1255750D02*
Y1271750D01*
X647000Y1163000D02*
Y1171000D01*
X631000D02*
X647000D01*
X631000Y1163000D02*
Y1171000D01*
Y1163000D02*
X647000D01*
X685250Y1274500D02*
X693250D01*
X685250Y1258500D02*
X693250D01*
X685250D02*
Y1274500D01*
X693250Y1258500D02*
Y1274500D01*
X668750D02*
X676750D01*
X668750Y1258500D02*
X676750D01*
X668750D02*
Y1274500D01*
X676750Y1258500D02*
Y1274500D01*
X543750Y1144500D02*
Y1152500D01*
Y1144500D02*
X559750D01*
Y1152500D01*
X543750D02*
X559750D01*
X544500Y1159750D02*
Y1167750D01*
Y1159750D02*
X560500D01*
Y1167750D01*
X544500D02*
X560500D01*
X544250Y1175750D02*
Y1183750D01*
Y1175750D02*
X560250D01*
Y1183750D01*
X544250D02*
X560250D01*
X677500Y1176000D02*
X693500D01*
X677500Y1144000D02*
X693500D01*
X677500D02*
Y1176000D01*
X693500Y1144000D02*
Y1176000D01*
X661750Y1167000D02*
X669750D01*
X661750Y1151000D02*
X669750D01*
X661750D02*
Y1167000D01*
X669750Y1151000D02*
Y1167000D01*
X691750Y1364750D02*
X699750D01*
X691750Y1348750D02*
Y1364750D01*
Y1348750D02*
X699750D01*
Y1364750D01*
X262250Y1102750D02*
X270250D01*
X262250Y1118750D02*
X270250D01*
Y1102750D02*
Y1118750D01*
X262250Y1102750D02*
Y1118750D01*
X278500Y1102750D02*
X286500D01*
X278500Y1118750D02*
X286500D01*
Y1102750D02*
Y1118750D01*
X278500Y1102750D02*
Y1118750D01*
X643500Y1348500D02*
X651500D01*
Y1364500D01*
X643500D02*
X651500D01*
X643500Y1348500D02*
Y1364500D01*
X667500Y1080250D02*
X675500D01*
X667500Y1064250D02*
Y1080250D01*
Y1064250D02*
X675500D01*
Y1080250D01*
X651750Y1080250D02*
X659750D01*
X651750Y1064250D02*
Y1080250D01*
Y1064250D02*
X659750D01*
Y1080250D01*
X682750Y1064750D02*
X690750D01*
Y1080750D01*
X682750D02*
X690750D01*
X682750Y1064750D02*
Y1080750D01*
X639250Y1064250D02*
X647250D01*
Y1080250D01*
X639250D02*
X647250D01*
X639250Y1064250D02*
Y1080250D01*
M02*
