G04*
G04 #@! TF.GenerationSoftware,Altium Limited,Altium Designer,24.4.1 (13)*
G04*
G04 Layer_Physical_Order=4*
G04 Layer_Color=16711680*
%FSLAX44Y44*%
%MOMM*%
G71*
G04*
G04 #@! TF.SameCoordinates,044CC30A-6F31-4426-BCA9-A8A858A33F02*
G04*
G04*
G04 #@! TF.FilePolarity,Positive*
G04*
G01*
G75*
%ADD10C,0.2000*%
%ADD11C,0.1270*%
%ADD12C,0.2540*%
%ADD14C,0.1500*%
%ADD15C,0.2500*%
%ADD16C,0.1524*%
%ADD17C,0.1520*%
%ADD18C,0.1000*%
%ADD19C,0.1250*%
%ADD20R,1.1000X1.0000*%
%ADD21R,1.0000X1.1000*%
%ADD22R,12.0000X0.5000*%
%ADD25R,1.6000X3.3000*%
%ADD26R,0.5000X12.0000*%
%ADD30R,0.4500X1.2000*%
%ADD68C,0.6000*%
%ADD69O,2.0000X0.9000*%
%ADD70O,1.7000X0.9000*%
%ADD71C,0.8000*%
%ADD73R,1.5000X1.0000*%
%ADD74R,1.6000X0.7000*%
%ADD75R,1.0000X1.0000*%
%ADD76R,1.0000X1.0000*%
%ADD77R,1.5000X1.2000*%
%ADD78R,6.5000X5.5000*%
%ADD79R,0.4750X0.2500*%
%ADD80R,0.2500X0.4750*%
%ADD81R,2.0000X2.4000*%
%ADD82C,0.2000*%
%ADD83R,1.1000X1.1000*%
G36*
X729525Y989368D02*
X199775D01*
Y1439118D01*
X199878Y1439368D01*
X729525D01*
Y989368D01*
D02*
G37*
%LPC*%
G36*
X429599Y1438000D02*
X422599D01*
Y1427952D01*
X422277Y1427630D01*
X421630Y1426067D01*
Y1424377D01*
X422277Y1422815D01*
X423472Y1421619D01*
X425034Y1420972D01*
X426725D01*
X428287Y1421619D01*
X429483Y1422815D01*
X430130Y1424377D01*
Y1426067D01*
X429599Y1427348D01*
Y1438000D01*
D02*
G37*
G36*
X416899D02*
X409899D01*
Y1427952D01*
X409577Y1427630D01*
X408930Y1426067D01*
Y1424377D01*
X409577Y1422815D01*
X410772Y1421619D01*
X412334Y1420972D01*
X414025D01*
X415587Y1421619D01*
X416783Y1422815D01*
X417430Y1424377D01*
Y1426067D01*
X416899Y1427348D01*
Y1438000D01*
D02*
G37*
G36*
X264499D02*
X257500D01*
Y1428510D01*
X256397Y1427407D01*
X255750Y1425845D01*
Y1424155D01*
X256397Y1422593D01*
X257593Y1421397D01*
X259155Y1420750D01*
X260845D01*
X262407Y1421397D01*
X263603Y1422593D01*
X263979Y1423500D01*
X264499D01*
Y1438000D01*
D02*
G37*
G36*
X723400Y1438000D02*
X716400D01*
Y1427411D01*
X716397Y1427407D01*
X715750Y1425845D01*
Y1424155D01*
X716397Y1422592D01*
X717592Y1421397D01*
X719154Y1420750D01*
X720845D01*
X722407Y1421397D01*
X723603Y1422592D01*
X724250Y1424155D01*
Y1425845D01*
X723603Y1427407D01*
X723400Y1427610D01*
Y1438000D01*
D02*
G37*
G36*
X710700D02*
X703700D01*
Y1427411D01*
X703697Y1427407D01*
X703050Y1425845D01*
Y1424155D01*
X703697Y1422592D01*
X704892Y1421397D01*
X706454Y1420750D01*
X708145D01*
X709707Y1421397D01*
X710903Y1422592D01*
X711550Y1424155D01*
Y1425845D01*
X710903Y1427407D01*
X710700Y1427610D01*
Y1438000D01*
D02*
G37*
G36*
X698000D02*
X691000D01*
Y1427411D01*
X690997Y1427407D01*
X690350Y1425845D01*
Y1424155D01*
X690997Y1422592D01*
X692192Y1421397D01*
X693754Y1420750D01*
X695445D01*
X697007Y1421397D01*
X698203Y1422592D01*
X698850Y1424155D01*
Y1425845D01*
X698203Y1427407D01*
X698000Y1427610D01*
Y1438000D01*
D02*
G37*
G36*
X672600D02*
X665600D01*
Y1427411D01*
X665597Y1427407D01*
X664950Y1425845D01*
Y1424155D01*
X665597Y1422592D01*
X666792Y1421397D01*
X668354Y1420750D01*
X670045D01*
X671607Y1421397D01*
X672803Y1422592D01*
X673450Y1424155D01*
Y1425845D01*
X672803Y1427407D01*
X672600Y1427610D01*
Y1438000D01*
D02*
G37*
G36*
X659900D02*
X652900D01*
Y1427411D01*
X652897Y1427407D01*
X652250Y1425845D01*
Y1424155D01*
X652897Y1422592D01*
X654092Y1421397D01*
X655654Y1420750D01*
X657345D01*
X658907Y1421397D01*
X660103Y1422592D01*
X660750Y1424155D01*
Y1425845D01*
X660103Y1427407D01*
X659900Y1427610D01*
Y1438000D01*
D02*
G37*
G36*
X647200D02*
X640200D01*
Y1427411D01*
X640197Y1427407D01*
X639550Y1425845D01*
Y1424155D01*
X640197Y1422592D01*
X641392Y1421397D01*
X642954Y1420750D01*
X644645D01*
X646207Y1421397D01*
X647403Y1422592D01*
X648050Y1424155D01*
Y1425845D01*
X647403Y1427407D01*
X647200Y1427610D01*
Y1438000D01*
D02*
G37*
G36*
X404199Y1438000D02*
X397200D01*
Y1427710D01*
X396897Y1427407D01*
X396250Y1425845D01*
Y1424155D01*
X396897Y1422592D01*
X398092Y1421397D01*
X399654Y1420750D01*
X401345D01*
X402907Y1421397D01*
X404103Y1422592D01*
X404750Y1424155D01*
Y1425845D01*
X404199Y1427174D01*
Y1438000D01*
D02*
G37*
G36*
X391499D02*
X384500D01*
Y1427710D01*
X384197Y1427407D01*
X383550Y1425845D01*
Y1424155D01*
X384197Y1422592D01*
X385392Y1421397D01*
X386954Y1420750D01*
X388645D01*
X390207Y1421397D01*
X391403Y1422592D01*
X392050Y1424155D01*
Y1425845D01*
X391499Y1427174D01*
Y1438000D01*
D02*
G37*
G36*
X378800D02*
X371800D01*
Y1427710D01*
X371497Y1427407D01*
X370850Y1425845D01*
Y1424155D01*
X371497Y1422592D01*
X372692Y1421397D01*
X374254Y1420750D01*
X375945D01*
X377507Y1421397D01*
X378703Y1422592D01*
X379350Y1424155D01*
Y1425845D01*
X378800Y1427174D01*
Y1438000D01*
D02*
G37*
G36*
X366100D02*
X359100D01*
Y1427710D01*
X358797Y1427407D01*
X358150Y1425845D01*
Y1424155D01*
X358797Y1422592D01*
X359992Y1421397D01*
X361554Y1420750D01*
X363245D01*
X364807Y1421397D01*
X366003Y1422592D01*
X366650Y1424155D01*
Y1425845D01*
X366100Y1427174D01*
Y1438000D01*
D02*
G37*
G36*
X353400D02*
X346399D01*
Y1427710D01*
X346097Y1427407D01*
X345450Y1425845D01*
Y1424155D01*
X346097Y1422592D01*
X347292Y1421397D01*
X348854Y1420750D01*
X350545D01*
X352107Y1421397D01*
X353303Y1422592D01*
X353950Y1424155D01*
Y1425845D01*
X353400Y1427174D01*
Y1438000D01*
D02*
G37*
G36*
X340700D02*
X333699D01*
Y1427710D01*
X333397Y1427407D01*
X332750Y1425845D01*
Y1424155D01*
X333397Y1422592D01*
X334592Y1421397D01*
X336154Y1420750D01*
X337845D01*
X339407Y1421397D01*
X340603Y1422592D01*
X341250Y1424155D01*
Y1425845D01*
X340700Y1427174D01*
Y1438000D01*
D02*
G37*
G36*
X327999D02*
X320999D01*
Y1427710D01*
X320697Y1427407D01*
X320050Y1425845D01*
Y1424155D01*
X320697Y1422592D01*
X321892Y1421397D01*
X323454Y1420750D01*
X325145D01*
X326707Y1421397D01*
X327903Y1422592D01*
X328550Y1424155D01*
Y1425845D01*
X327999Y1427174D01*
Y1438000D01*
D02*
G37*
G36*
X315299D02*
X308300D01*
Y1427710D01*
X307997Y1427407D01*
X307350Y1425845D01*
Y1424155D01*
X307997Y1422592D01*
X309192Y1421397D01*
X310754Y1420750D01*
X312445D01*
X314007Y1421397D01*
X315203Y1422592D01*
X315850Y1424155D01*
Y1425845D01*
X315299Y1427174D01*
Y1438000D01*
D02*
G37*
G36*
X302600D02*
X295599D01*
Y1427710D01*
X295297Y1427407D01*
X294650Y1425845D01*
Y1424155D01*
X295297Y1422592D01*
X296492Y1421397D01*
X298054Y1420750D01*
X299745D01*
X301307Y1421397D01*
X302503Y1422592D01*
X303150Y1424155D01*
Y1425845D01*
X302600Y1427174D01*
Y1438000D01*
D02*
G37*
G36*
X289900D02*
X282899D01*
Y1427710D01*
X282597Y1427407D01*
X281950Y1425845D01*
Y1424155D01*
X282597Y1422592D01*
X283792Y1421397D01*
X285354Y1420750D01*
X287045D01*
X288607Y1421397D01*
X289803Y1422592D01*
X290450Y1424155D01*
Y1425845D01*
X289900Y1427174D01*
Y1438000D01*
D02*
G37*
G36*
X277199D02*
X270200D01*
Y1427710D01*
X269897Y1427407D01*
X269250Y1425845D01*
Y1424155D01*
X269897Y1422592D01*
X271092Y1421397D01*
X272654Y1420750D01*
X274345D01*
X275907Y1421397D01*
X277103Y1422592D01*
X277750Y1424155D01*
Y1425845D01*
X277199Y1427174D01*
Y1438000D01*
D02*
G37*
G36*
X634500Y1438000D02*
X627500D01*
Y1427295D01*
X626900Y1425845D01*
Y1424154D01*
X627547Y1422592D01*
X628742Y1421397D01*
X630304Y1420750D01*
X631995D01*
X633557Y1421397D01*
X634753Y1422592D01*
X635400Y1424154D01*
Y1425845D01*
X634753Y1427407D01*
X634500Y1427660D01*
Y1438000D01*
D02*
G37*
G36*
X621800D02*
X614800D01*
Y1427295D01*
X614200Y1425845D01*
Y1424154D01*
X614847Y1422592D01*
X616042Y1421397D01*
X617604Y1420750D01*
X619295D01*
X620857Y1421397D01*
X622053Y1422592D01*
X622700Y1424154D01*
Y1425845D01*
X622053Y1427407D01*
X621800Y1427660D01*
Y1438000D01*
D02*
G37*
G36*
X609100D02*
X602100D01*
Y1427295D01*
X601500Y1425845D01*
Y1424154D01*
X602147Y1422592D01*
X603342Y1421397D01*
X604905Y1420750D01*
X606595D01*
X608157Y1421397D01*
X609353Y1422592D01*
X610000Y1424154D01*
Y1425845D01*
X609353Y1427407D01*
X609100Y1427660D01*
Y1438000D01*
D02*
G37*
G36*
X596400D02*
X589400D01*
Y1427295D01*
X588800Y1425845D01*
Y1424154D01*
X589447Y1422592D01*
X590642Y1421397D01*
X592205Y1420750D01*
X593895D01*
X595457Y1421397D01*
X596653Y1422592D01*
X597300Y1424154D01*
Y1425845D01*
X596653Y1427407D01*
X596400Y1427660D01*
Y1438000D01*
D02*
G37*
G36*
X583700D02*
X576700D01*
Y1427295D01*
X576100Y1425845D01*
Y1424154D01*
X576747Y1422592D01*
X577942Y1421397D01*
X579505Y1420750D01*
X581195D01*
X582757Y1421397D01*
X583953Y1422592D01*
X584600Y1424154D01*
Y1425845D01*
X583953Y1427407D01*
X583700Y1427660D01*
Y1438000D01*
D02*
G37*
G36*
X571000D02*
X564000D01*
Y1427295D01*
X563400Y1425845D01*
Y1424154D01*
X564047Y1422592D01*
X565242Y1421397D01*
X566805Y1420750D01*
X568495D01*
X570057Y1421397D01*
X571253Y1422592D01*
X571900Y1424154D01*
Y1425845D01*
X571253Y1427407D01*
X571000Y1427660D01*
Y1438000D01*
D02*
G37*
G36*
X558300D02*
X551300D01*
Y1427295D01*
X550700Y1425845D01*
Y1424154D01*
X551347Y1422592D01*
X552542Y1421397D01*
X554104Y1420750D01*
X555795D01*
X557357Y1421397D01*
X558553Y1422592D01*
X559200Y1424154D01*
Y1425845D01*
X558553Y1427407D01*
X558300Y1427660D01*
Y1438000D01*
D02*
G37*
G36*
X545600D02*
X538600D01*
Y1427295D01*
X538000Y1425845D01*
Y1424154D01*
X538647Y1422592D01*
X539842Y1421397D01*
X541404Y1420750D01*
X543095D01*
X544657Y1421397D01*
X545853Y1422592D01*
X546500Y1424154D01*
Y1425845D01*
X545853Y1427407D01*
X545600Y1427660D01*
Y1438000D01*
D02*
G37*
G36*
X532900D02*
X525900D01*
Y1427295D01*
X525300Y1425845D01*
Y1424154D01*
X525947Y1422592D01*
X527142Y1421397D01*
X528704Y1420750D01*
X530395D01*
X531957Y1421397D01*
X533153Y1422592D01*
X533800Y1424154D01*
Y1425845D01*
X533153Y1427407D01*
X532900Y1427660D01*
Y1438000D01*
D02*
G37*
G36*
X520200D02*
X513200D01*
Y1427295D01*
X512600Y1425845D01*
Y1424154D01*
X513247Y1422592D01*
X514442Y1421397D01*
X516004Y1420750D01*
X517695D01*
X519257Y1421397D01*
X520453Y1422592D01*
X521100Y1424154D01*
Y1425845D01*
X520453Y1427407D01*
X520200Y1427660D01*
Y1438000D01*
D02*
G37*
G36*
X507500D02*
X500500D01*
Y1427295D01*
X499900Y1425845D01*
Y1424154D01*
X500547Y1422592D01*
X501742Y1421397D01*
X503304Y1420750D01*
X504995D01*
X506557Y1421397D01*
X507753Y1422592D01*
X508400Y1424154D01*
Y1425845D01*
X507753Y1427407D01*
X507500Y1427660D01*
Y1438000D01*
D02*
G37*
G36*
X251800Y1438000D02*
X244799D01*
Y1427560D01*
X243897Y1426657D01*
X243250Y1425095D01*
Y1423405D01*
X243897Y1421843D01*
X245093Y1420647D01*
X246655Y1420000D01*
X248345D01*
X249907Y1420647D01*
X251103Y1421843D01*
X251750Y1423405D01*
Y1423500D01*
X251800D01*
Y1438000D01*
D02*
G37*
G36*
X348095Y1414750D02*
X346405D01*
X344843Y1414103D01*
X343647Y1412907D01*
X343000Y1411345D01*
Y1409655D01*
X343008Y1409636D01*
X342015Y1408765D01*
X340845Y1409250D01*
X339155D01*
X337593Y1408603D01*
X336397Y1407407D01*
X335750Y1405845D01*
Y1404155D01*
X336397Y1402593D01*
X337593Y1401397D01*
X339155Y1400750D01*
X340845D01*
X342407Y1401397D01*
X343603Y1402593D01*
X344250Y1404155D01*
Y1405845D01*
X344242Y1405864D01*
X345235Y1406735D01*
X346405Y1406250D01*
X348095D01*
X349657Y1406897D01*
X350853Y1408093D01*
X351500Y1409655D01*
Y1411345D01*
X350853Y1412907D01*
X349657Y1414103D01*
X348095Y1414750D01*
D02*
G37*
G36*
X465595Y1416250D02*
X463905D01*
X462343Y1415603D01*
X461147Y1414407D01*
X460500Y1412845D01*
Y1411155D01*
X461147Y1409593D01*
X462343Y1408397D01*
X463905Y1407750D01*
X465595D01*
X467157Y1408397D01*
X468353Y1409593D01*
X469000Y1411155D01*
Y1412845D01*
X468353Y1414407D01*
X467157Y1415603D01*
X465595Y1416250D01*
D02*
G37*
G36*
X462845Y1404750D02*
X461155D01*
X459593Y1404103D01*
X458397Y1402907D01*
X457750Y1401345D01*
Y1399655D01*
X458397Y1398093D01*
X459593Y1396897D01*
X461155Y1396250D01*
X462845D01*
X464407Y1396897D01*
X465603Y1398093D01*
X466250Y1399655D01*
Y1401345D01*
X465603Y1402907D01*
X464407Y1404103D01*
X462845Y1404750D01*
D02*
G37*
G36*
X685300Y1438000D02*
X678300D01*
Y1427411D01*
X678297Y1427407D01*
X677650Y1425845D01*
Y1424155D01*
X678297Y1422592D01*
X679492Y1421397D01*
X679988Y1421192D01*
Y1399000D01*
X678300D01*
Y1393037D01*
X675065D01*
X674887Y1393215D01*
Y1398423D01*
X674742Y1399155D01*
X674327Y1399775D01*
X673375Y1400727D01*
X672755Y1401142D01*
X672023Y1401287D01*
X666815D01*
X661750Y1406352D01*
X661130Y1406766D01*
X660399Y1406912D01*
X623430D01*
X622640Y1408162D01*
X623000Y1409030D01*
Y1410720D01*
X622353Y1412283D01*
X621157Y1413478D01*
X619595Y1414125D01*
X617905D01*
X616343Y1413478D01*
X615147Y1412283D01*
X614500Y1410720D01*
Y1409030D01*
X614860Y1408162D01*
X614070Y1406912D01*
X610930D01*
X610140Y1408162D01*
X610500Y1409030D01*
Y1410720D01*
X609853Y1412283D01*
X608657Y1413478D01*
X607095Y1414125D01*
X605405D01*
X603843Y1413478D01*
X602647Y1412283D01*
X602000Y1410720D01*
Y1409030D01*
X602360Y1408162D01*
X601570Y1406912D01*
X485500D01*
X484768Y1406766D01*
X484148Y1406352D01*
X479083Y1401287D01*
X475677D01*
X474946Y1401142D01*
X474325Y1400727D01*
X473373Y1399775D01*
X472959Y1399155D01*
X472813Y1398423D01*
Y1395017D01*
X471148Y1393352D01*
X470734Y1392732D01*
X470588Y1392000D01*
Y1353000D01*
X470734Y1352268D01*
X471148Y1351648D01*
X472588Y1350208D01*
Y1341202D01*
X472734Y1340470D01*
X473148Y1339850D01*
X483100Y1329898D01*
X483720Y1329484D01*
X484452Y1329338D01*
X491752D01*
X492230Y1328183D01*
X471933Y1307887D01*
X468175D01*
Y1313225D01*
X450675D01*
Y1307887D01*
X433615D01*
X426575Y1314927D01*
X425955Y1315341D01*
X425223Y1315487D01*
X377717D01*
X335500Y1357704D01*
Y1368500D01*
X323000D01*
Y1356000D01*
X331796D01*
X375574Y1312223D01*
X376194Y1311809D01*
X376925Y1311663D01*
X424431D01*
X431471Y1304623D01*
X432091Y1304209D01*
X432823Y1304063D01*
X450675D01*
Y1300785D01*
X450638Y1300600D01*
Y1271240D01*
X447258Y1267860D01*
X446844Y1267240D01*
X446698Y1266508D01*
Y1262445D01*
X445448Y1261656D01*
X444580Y1262015D01*
X442890D01*
X441328Y1261368D01*
X440132Y1260172D01*
X439485Y1258610D01*
Y1256920D01*
X440132Y1255358D01*
X440868Y1254621D01*
X440351Y1253371D01*
X434161D01*
X433430Y1253225D01*
X432810Y1252811D01*
X428523Y1248525D01*
X428109Y1247905D01*
X428000Y1247357D01*
X426750Y1247480D01*
Y1247750D01*
X426394D01*
X425918Y1249000D01*
X426500Y1250405D01*
Y1252095D01*
X425853Y1253657D01*
X424657Y1254853D01*
X423095Y1255500D01*
X421405D01*
X419843Y1254853D01*
X418647Y1253657D01*
X418000Y1252095D01*
Y1250405D01*
X418582Y1249000D01*
X418106Y1247750D01*
X413250D01*
Y1243412D01*
X405250D01*
Y1247750D01*
X400403D01*
X399885Y1249000D01*
X400478Y1249593D01*
X401125Y1251155D01*
Y1252845D01*
X400478Y1254407D01*
X399282Y1255603D01*
X397720Y1256250D01*
X396030D01*
X394468Y1255603D01*
X393272Y1254407D01*
X392625Y1252845D01*
Y1251155D01*
X393272Y1249593D01*
X393865Y1249000D01*
X393347Y1247750D01*
X391750D01*
Y1234250D01*
X405250D01*
Y1239588D01*
X413250D01*
Y1235250D01*
X426713D01*
X426750Y1235250D01*
X427963Y1235162D01*
Y1224955D01*
X427250Y1224000D01*
X426713Y1224000D01*
X413750D01*
Y1219662D01*
X405500D01*
Y1224500D01*
X392000D01*
Y1211000D01*
X405500D01*
Y1215838D01*
X413750D01*
Y1211500D01*
X426951D01*
X427250Y1211500D01*
X428439Y1211352D01*
X428523Y1211225D01*
X437000Y1202748D01*
X437621Y1202334D01*
X438352Y1202188D01*
X459294D01*
X460091Y1201190D01*
X460000Y1200970D01*
Y1199280D01*
X460647Y1197718D01*
X461843Y1196522D01*
X463405Y1195875D01*
X465095D01*
X466657Y1196522D01*
X467853Y1197718D01*
X468500Y1199280D01*
Y1200970D01*
X467853Y1202533D01*
X466657Y1203728D01*
X465095Y1204375D01*
X463405D01*
X462909Y1204170D01*
X461627Y1205452D01*
X461007Y1205866D01*
X460275Y1206012D01*
X439144D01*
X434810Y1210345D01*
X435289Y1211500D01*
X444250D01*
Y1220213D01*
X447327D01*
X448059Y1220359D01*
X448679Y1220773D01*
X475119Y1247213D01*
X483923D01*
X484655Y1247359D01*
X485275Y1247773D01*
X489715Y1252213D01*
X492875D01*
X493606Y1252359D01*
X494227Y1252773D01*
X495659Y1254205D01*
X496155Y1254000D01*
X497845D01*
X499407Y1254647D01*
X500603Y1255843D01*
X501015Y1256838D01*
X533060D01*
X533578Y1255588D01*
X533397Y1255407D01*
X532750Y1253845D01*
Y1252155D01*
X533397Y1250593D01*
X534593Y1249397D01*
X536155Y1248750D01*
X537845D01*
X539407Y1249397D01*
X540603Y1250593D01*
X541250Y1252155D01*
Y1253845D01*
X540603Y1255407D01*
X540422Y1255588D01*
X540940Y1256838D01*
X543817D01*
X544022Y1256343D01*
X545218Y1255147D01*
X546780Y1254500D01*
X548470D01*
X550033Y1255147D01*
X551228Y1256343D01*
X551875Y1257905D01*
Y1259595D01*
X551228Y1261157D01*
X550033Y1262353D01*
X548470Y1263000D01*
X546780D01*
X545218Y1262353D01*
X544022Y1261157D01*
X543817Y1260662D01*
X538607D01*
X538089Y1261912D01*
X538645Y1262467D01*
X539292Y1264030D01*
Y1265720D01*
X538645Y1267282D01*
X537450Y1268478D01*
X535888Y1269125D01*
X534197D01*
X532635Y1268478D01*
X531439Y1267282D01*
X530792Y1265720D01*
Y1264030D01*
X531439Y1262467D01*
X531995Y1261912D01*
X531477Y1260662D01*
X500599D01*
X499407Y1261853D01*
X498912Y1262058D01*
Y1266750D01*
X504000D01*
Y1273838D01*
X506442D01*
X506647Y1273343D01*
X507843Y1272147D01*
X509405Y1271500D01*
X511095D01*
X512657Y1272147D01*
X513853Y1273343D01*
X514500Y1274905D01*
Y1276595D01*
X513853Y1278157D01*
X512657Y1279353D01*
X511095Y1280000D01*
X509405D01*
X507843Y1279353D01*
X506647Y1278157D01*
X506442Y1277662D01*
X504000D01*
Y1279250D01*
X494204D01*
X488039Y1285414D01*
X487419Y1285829D01*
X487364Y1285840D01*
X482953Y1290250D01*
X483366Y1291500D01*
X487500D01*
Y1301297D01*
X504352Y1318149D01*
X504766Y1318769D01*
X504912Y1319500D01*
Y1333269D01*
X504766Y1334001D01*
X504352Y1334621D01*
X501424Y1337549D01*
X500804Y1337963D01*
X500072Y1338109D01*
X493595D01*
X491750Y1339953D01*
Y1347765D01*
X491926Y1347882D01*
X494015D01*
X495944Y1348682D01*
X497421Y1350158D01*
X498220Y1352088D01*
Y1354177D01*
X497421Y1356106D01*
X495944Y1357583D01*
X494015Y1358382D01*
X491926D01*
X489997Y1357583D01*
X488520Y1356106D01*
X487720Y1354177D01*
Y1352088D01*
X488171Y1351000D01*
X487336Y1349750D01*
X478250D01*
Y1342363D01*
X477000Y1341796D01*
X476412Y1342260D01*
Y1351000D01*
X476266Y1351732D01*
X475852Y1352352D01*
X474412Y1353792D01*
Y1391208D01*
X476077Y1392873D01*
X476492Y1393494D01*
X476637Y1394225D01*
Y1397464D01*
X479875D01*
X480607Y1397609D01*
X481227Y1398024D01*
X486292Y1403088D01*
X659607D01*
X664672Y1398024D01*
X665292Y1397609D01*
X665600Y1397548D01*
Y1388611D01*
X664897Y1387907D01*
X664250Y1386345D01*
Y1384655D01*
X664897Y1383093D01*
X666093Y1381897D01*
X667655Y1381250D01*
X669345D01*
X670907Y1381897D01*
X672103Y1383093D01*
X672750Y1384655D01*
Y1386345D01*
X672600Y1386707D01*
Y1388485D01*
X672910Y1388772D01*
X673850Y1389298D01*
X674273Y1389214D01*
X677381D01*
X677543Y1389071D01*
X678113Y1387964D01*
X677650Y1386846D01*
Y1385155D01*
X678297Y1383593D01*
X679492Y1382397D01*
X681054Y1381750D01*
X682745D01*
X684307Y1382397D01*
X685503Y1383593D01*
X686150Y1385155D01*
Y1386846D01*
X685503Y1388408D01*
X685300Y1388610D01*
Y1399000D01*
X683812D01*
Y1421192D01*
X684307Y1421397D01*
X685503Y1422592D01*
X686150Y1424155D01*
Y1425845D01*
X685503Y1427407D01*
X685300Y1427610D01*
Y1438000D01*
D02*
G37*
G36*
X429599Y1399000D02*
X422599D01*
Y1389202D01*
X422027Y1388629D01*
X421380Y1387067D01*
Y1385377D01*
X422027Y1383815D01*
X423222Y1382619D01*
X424784Y1381972D01*
X426475D01*
X428037Y1382619D01*
X429233Y1383815D01*
X429516Y1384500D01*
X429599D01*
Y1384700D01*
X429880Y1385377D01*
Y1387067D01*
X429599Y1387744D01*
Y1399000D01*
D02*
G37*
G36*
X416899D02*
X409899D01*
Y1389202D01*
X409327Y1388629D01*
X408680Y1387067D01*
Y1385377D01*
X409327Y1383815D01*
X410522Y1382619D01*
X412084Y1381972D01*
X413775D01*
X415337Y1382619D01*
X416533Y1383815D01*
X416816Y1384500D01*
X416899D01*
Y1384700D01*
X417180Y1385377D01*
Y1387067D01*
X416899Y1387744D01*
Y1399000D01*
D02*
G37*
G36*
X302600D02*
X295599D01*
Y1388722D01*
X295453Y1388575D01*
X294806Y1387013D01*
Y1385322D01*
X295453Y1383760D01*
X296648Y1382565D01*
X298210Y1381918D01*
X299901D01*
X301463Y1382565D01*
X302659Y1383760D01*
X303306Y1385322D01*
Y1387013D01*
X302659Y1388575D01*
X302600Y1388634D01*
Y1399000D01*
D02*
G37*
G36*
X723400Y1399000D02*
X716400D01*
Y1388411D01*
X716397Y1388408D01*
X715750Y1386846D01*
Y1385155D01*
X716397Y1383593D01*
X717592Y1382397D01*
X719154Y1381750D01*
X720845D01*
X722407Y1382397D01*
X723603Y1383593D01*
X724250Y1385155D01*
Y1386846D01*
X723603Y1388408D01*
X723400Y1388610D01*
Y1399000D01*
D02*
G37*
G36*
X710700D02*
X703700D01*
Y1388411D01*
X703697Y1388408D01*
X703050Y1386846D01*
Y1385155D01*
X703697Y1383593D01*
X704892Y1382397D01*
X706454Y1381750D01*
X708145D01*
X709707Y1382397D01*
X710903Y1383593D01*
X711550Y1385155D01*
Y1386846D01*
X710903Y1388408D01*
X710700Y1388610D01*
Y1399000D01*
D02*
G37*
G36*
X698000D02*
X691000D01*
Y1388411D01*
X690997Y1388408D01*
X690350Y1386846D01*
Y1385155D01*
X690997Y1383593D01*
X692192Y1382397D01*
X693754Y1381750D01*
X695445D01*
X697007Y1382397D01*
X698203Y1383593D01*
X698850Y1385155D01*
Y1386846D01*
X698203Y1388408D01*
X698000Y1388610D01*
Y1399000D01*
D02*
G37*
G36*
X659900D02*
X652900D01*
Y1388411D01*
X652897Y1388408D01*
X652250Y1386846D01*
Y1385155D01*
X652897Y1383593D01*
X654092Y1382397D01*
X655654Y1381750D01*
X657345D01*
X658907Y1382397D01*
X660103Y1383593D01*
X660750Y1385155D01*
Y1386846D01*
X660103Y1388408D01*
X659900Y1388610D01*
Y1399000D01*
D02*
G37*
G36*
X404199Y1399000D02*
X397200D01*
Y1388710D01*
X396897Y1388407D01*
X396250Y1386845D01*
Y1385154D01*
X396897Y1383592D01*
X398092Y1382397D01*
X399654Y1381750D01*
X401345D01*
X402907Y1382397D01*
X404103Y1383592D01*
X404750Y1385154D01*
Y1386845D01*
X404199Y1388174D01*
Y1399000D01*
D02*
G37*
G36*
X391499D02*
X384500D01*
Y1388710D01*
X384197Y1388407D01*
X383550Y1386845D01*
Y1385154D01*
X384197Y1383592D01*
X385392Y1382397D01*
X386954Y1381750D01*
X388645D01*
X390207Y1382397D01*
X391403Y1383592D01*
X392050Y1385154D01*
Y1386845D01*
X391499Y1388174D01*
Y1399000D01*
D02*
G37*
G36*
X378800D02*
X371800D01*
Y1388710D01*
X371497Y1388407D01*
X370850Y1386845D01*
Y1385154D01*
X371497Y1383592D01*
X372692Y1382397D01*
X374254Y1381750D01*
X375945D01*
X377507Y1382397D01*
X378703Y1383592D01*
X379350Y1385154D01*
Y1386845D01*
X378800Y1388174D01*
Y1399000D01*
D02*
G37*
G36*
X366100D02*
X359100D01*
Y1388710D01*
X358797Y1388407D01*
X358150Y1386845D01*
Y1385154D01*
X358797Y1383592D01*
X359992Y1382397D01*
X361554Y1381750D01*
X363245D01*
X364807Y1382397D01*
X366003Y1383592D01*
X366650Y1385154D01*
Y1386845D01*
X366100Y1388174D01*
Y1399000D01*
D02*
G37*
G36*
X353400D02*
X346399D01*
Y1388710D01*
X346097Y1388407D01*
X345450Y1386845D01*
Y1385154D01*
X346097Y1383592D01*
X347292Y1382397D01*
X348854Y1381750D01*
X350545D01*
X352107Y1382397D01*
X353303Y1383592D01*
X353950Y1385154D01*
Y1386845D01*
X353400Y1388174D01*
Y1399000D01*
D02*
G37*
G36*
X340700D02*
X333699D01*
Y1388710D01*
X333397Y1388407D01*
X332750Y1386845D01*
Y1385154D01*
X333397Y1383592D01*
X334592Y1382397D01*
X336154Y1381750D01*
X337845D01*
X339407Y1382397D01*
X340603Y1383592D01*
X341250Y1385154D01*
Y1386845D01*
X340700Y1388174D01*
Y1399000D01*
D02*
G37*
G36*
X327999D02*
X320999D01*
Y1388710D01*
X320697Y1388407D01*
X320050Y1386845D01*
Y1385154D01*
X320697Y1383592D01*
X321892Y1382397D01*
X323454Y1381750D01*
X325145D01*
X326707Y1382397D01*
X327903Y1383592D01*
X328550Y1385154D01*
Y1386845D01*
X327999Y1388174D01*
Y1399000D01*
D02*
G37*
G36*
X315299D02*
X308300D01*
Y1388710D01*
X307997Y1388407D01*
X307350Y1386845D01*
Y1385154D01*
X307997Y1383592D01*
X309192Y1382397D01*
X310754Y1381750D01*
X312445D01*
X314007Y1382397D01*
X315203Y1383592D01*
X315850Y1385154D01*
Y1386845D01*
X315299Y1388174D01*
Y1399000D01*
D02*
G37*
G36*
X289900D02*
X282899D01*
Y1388710D01*
X282597Y1388407D01*
X281950Y1386845D01*
Y1385154D01*
X282597Y1383592D01*
X283792Y1382397D01*
X285354Y1381750D01*
X287045D01*
X288607Y1382397D01*
X289803Y1383592D01*
X290450Y1385154D01*
Y1386845D01*
X289900Y1388174D01*
Y1399000D01*
D02*
G37*
G36*
X277199D02*
X270200D01*
Y1388710D01*
X269897Y1388407D01*
X269250Y1386845D01*
Y1385154D01*
X269897Y1383592D01*
X271092Y1382397D01*
X272654Y1381750D01*
X274345D01*
X275907Y1382397D01*
X277103Y1383592D01*
X277750Y1385154D01*
Y1386845D01*
X277199Y1388174D01*
Y1399000D01*
D02*
G37*
G36*
X264499D02*
X257500D01*
Y1388710D01*
X257197Y1388407D01*
X256550Y1386845D01*
Y1385154D01*
X257197Y1383592D01*
X258392Y1382397D01*
X259954Y1381750D01*
X261645D01*
X263207Y1382397D01*
X264403Y1383592D01*
X265050Y1385154D01*
Y1386845D01*
X264499Y1388174D01*
Y1399000D01*
D02*
G37*
G36*
X251800D02*
X244799D01*
Y1388710D01*
X244497Y1388407D01*
X243850Y1386845D01*
Y1385154D01*
X244497Y1383592D01*
X245692Y1382397D01*
X247254Y1381750D01*
X248945D01*
X250507Y1382397D01*
X251703Y1383592D01*
X252350Y1385154D01*
Y1386845D01*
X251800Y1388174D01*
Y1399000D01*
D02*
G37*
G36*
X647200Y1399000D02*
X640200D01*
Y1387610D01*
X639997Y1387407D01*
X639350Y1385845D01*
Y1384154D01*
X639997Y1382592D01*
X641192Y1381397D01*
X642754Y1380750D01*
X644445D01*
X646007Y1381397D01*
X647203Y1382592D01*
X647850Y1384154D01*
Y1385845D01*
X647203Y1387407D01*
X647200Y1387410D01*
Y1399000D01*
D02*
G37*
G36*
X634500D02*
X627500D01*
Y1387610D01*
X627297Y1387407D01*
X626650Y1385845D01*
Y1384154D01*
X627297Y1382592D01*
X628492Y1381397D01*
X630054Y1380750D01*
X631745D01*
X633307Y1381397D01*
X634503Y1382592D01*
X635150Y1384154D01*
Y1385845D01*
X634503Y1387407D01*
X634500Y1387410D01*
Y1399000D01*
D02*
G37*
G36*
X621800D02*
X614800D01*
Y1387610D01*
X614597Y1387407D01*
X613950Y1385845D01*
Y1384154D01*
X614597Y1382592D01*
X615792Y1381397D01*
X617354Y1380750D01*
X619045D01*
X620607Y1381397D01*
X621803Y1382592D01*
X622450Y1384154D01*
Y1385845D01*
X621803Y1387407D01*
X621800Y1387410D01*
Y1399000D01*
D02*
G37*
G36*
X609100D02*
X602100D01*
Y1387610D01*
X601897Y1387407D01*
X601250Y1385845D01*
Y1384154D01*
X601897Y1382592D01*
X603092Y1381397D01*
X604654Y1380750D01*
X606345D01*
X607907Y1381397D01*
X609103Y1382592D01*
X609750Y1384154D01*
Y1385845D01*
X609103Y1387407D01*
X609100Y1387410D01*
Y1399000D01*
D02*
G37*
G36*
X596400D02*
X589400D01*
Y1387610D01*
X589197Y1387407D01*
X588550Y1385845D01*
Y1384154D01*
X589197Y1382592D01*
X590392Y1381397D01*
X591954Y1380750D01*
X593645D01*
X595207Y1381397D01*
X596403Y1382592D01*
X597050Y1384154D01*
Y1385845D01*
X596403Y1387407D01*
X596400Y1387410D01*
Y1399000D01*
D02*
G37*
G36*
X583700D02*
X576700D01*
Y1387610D01*
X576497Y1387407D01*
X575850Y1385845D01*
Y1384154D01*
X576497Y1382592D01*
X577692Y1381397D01*
X579254Y1380750D01*
X580945D01*
X582507Y1381397D01*
X583703Y1382592D01*
X584350Y1384154D01*
Y1385845D01*
X583703Y1387407D01*
X583700Y1387410D01*
Y1399000D01*
D02*
G37*
G36*
X571000D02*
X564000D01*
Y1387610D01*
X563797Y1387407D01*
X563150Y1385845D01*
Y1384154D01*
X563797Y1382592D01*
X564992Y1381397D01*
X566554Y1380750D01*
X568245D01*
X569807Y1381397D01*
X571003Y1382592D01*
X571650Y1384154D01*
Y1385845D01*
X571003Y1387407D01*
X571000Y1387410D01*
Y1399000D01*
D02*
G37*
G36*
X558300D02*
X551300D01*
Y1387610D01*
X551097Y1387407D01*
X550450Y1385845D01*
Y1384154D01*
X551097Y1382592D01*
X552292Y1381397D01*
X553854Y1380750D01*
X555545D01*
X557107Y1381397D01*
X558303Y1382592D01*
X558950Y1384154D01*
Y1385845D01*
X558303Y1387407D01*
X558300Y1387410D01*
Y1399000D01*
D02*
G37*
G36*
X545600D02*
X538600D01*
Y1387610D01*
X538397Y1387407D01*
X537750Y1385845D01*
Y1384154D01*
X538397Y1382592D01*
X539592Y1381397D01*
X541154Y1380750D01*
X542845D01*
X544407Y1381397D01*
X545603Y1382592D01*
X546250Y1384154D01*
Y1385845D01*
X545603Y1387407D01*
X545600Y1387410D01*
Y1399000D01*
D02*
G37*
G36*
X532900D02*
X525900D01*
Y1387610D01*
X525697Y1387407D01*
X525050Y1385845D01*
Y1384154D01*
X525697Y1382592D01*
X526892Y1381397D01*
X528454Y1380750D01*
X530145D01*
X531707Y1381397D01*
X532903Y1382592D01*
X533550Y1384154D01*
Y1385845D01*
X532903Y1387407D01*
X532900Y1387410D01*
Y1399000D01*
D02*
G37*
G36*
X520200D02*
X513200D01*
Y1387610D01*
X512997Y1387407D01*
X512350Y1385845D01*
Y1384154D01*
X512997Y1382592D01*
X514192Y1381397D01*
X515754Y1380750D01*
X517445D01*
X519007Y1381397D01*
X520203Y1382592D01*
X520850Y1384154D01*
Y1385845D01*
X520203Y1387407D01*
X520200Y1387410D01*
Y1399000D01*
D02*
G37*
G36*
X507500D02*
X500500D01*
Y1387610D01*
X500297Y1387407D01*
X499650Y1385845D01*
Y1384154D01*
X500297Y1382592D01*
X501492Y1381397D01*
X503054Y1380750D01*
X504745D01*
X506307Y1381397D01*
X507503Y1382592D01*
X508150Y1384154D01*
Y1385845D01*
X507503Y1387407D01*
X507500Y1387410D01*
Y1399000D01*
D02*
G37*
G36*
X354672Y1376007D02*
X352981D01*
X351419Y1375360D01*
X350223Y1374165D01*
X349576Y1372603D01*
Y1370912D01*
X350223Y1369350D01*
X351419Y1368154D01*
X352981Y1367507D01*
X354672D01*
X356234Y1368154D01*
X357429Y1369350D01*
X358076Y1370912D01*
Y1372603D01*
X357429Y1374165D01*
X356234Y1375360D01*
X354672Y1376007D01*
D02*
G37*
G36*
X434095Y1374750D02*
X432405D01*
X430843Y1374103D01*
X429647Y1372907D01*
X429000Y1371345D01*
Y1369655D01*
X429647Y1368093D01*
X430843Y1366897D01*
X432405Y1366250D01*
X434095D01*
X435657Y1366897D01*
X436853Y1368093D01*
X437500Y1369655D01*
Y1371345D01*
X436853Y1372907D01*
X435657Y1374103D01*
X434095Y1374750D01*
D02*
G37*
G36*
X345345Y1372000D02*
X343655D01*
X342093Y1371353D01*
X340897Y1370157D01*
X340250Y1368595D01*
Y1366905D01*
X340897Y1365343D01*
X342093Y1364147D01*
X343655Y1363500D01*
X345345D01*
X346907Y1364147D01*
X348103Y1365343D01*
X348750Y1366905D01*
Y1368595D01*
X348103Y1370157D01*
X346907Y1371353D01*
X345345Y1372000D01*
D02*
G37*
G36*
X275200Y1369362D02*
X264200D01*
X261957Y1368916D01*
X260055Y1367645D01*
X258784Y1365743D01*
X258337Y1363500D01*
X258784Y1361256D01*
X260055Y1359354D01*
X261957Y1358083D01*
X264200Y1357637D01*
X275200D01*
X277444Y1358083D01*
X279346Y1359354D01*
X280617Y1361256D01*
X281063Y1363500D01*
X280617Y1365743D01*
X279346Y1367645D01*
X277444Y1368916D01*
X275200Y1369362D01*
D02*
G37*
G36*
X232000D02*
X224000D01*
X221756Y1368916D01*
X219855Y1367645D01*
X218584Y1365743D01*
X218137Y1363500D01*
X218584Y1361256D01*
X219855Y1359354D01*
X221756Y1358083D01*
X224000Y1357637D01*
X232000D01*
X234244Y1358083D01*
X236145Y1359354D01*
X237416Y1361256D01*
X237863Y1363500D01*
X237416Y1365743D01*
X236145Y1367645D01*
X234244Y1368916D01*
X232000Y1369362D01*
D02*
G37*
G36*
X317595Y1365250D02*
X315905D01*
X314343Y1364603D01*
X313147Y1363407D01*
X312500Y1361845D01*
Y1360155D01*
X313147Y1358593D01*
X314343Y1357397D01*
X315905Y1356750D01*
X317595D01*
X319157Y1357397D01*
X320353Y1358593D01*
X321000Y1360155D01*
Y1361845D01*
X320353Y1363407D01*
X319157Y1364603D01*
X317595Y1365250D01*
D02*
G37*
G36*
X301500Y1368500D02*
X289000D01*
Y1356000D01*
X301500D01*
Y1368500D01*
D02*
G37*
G36*
X610544Y1366000D02*
X608456D01*
X606526Y1365201D01*
X605049Y1363724D01*
X604250Y1361794D01*
Y1359706D01*
X605049Y1357776D01*
X606526Y1356299D01*
X608456Y1355500D01*
X610544D01*
X612474Y1356299D01*
X613951Y1357776D01*
X614750Y1359706D01*
Y1361794D01*
X613951Y1363724D01*
X612474Y1365201D01*
X610544Y1366000D01*
D02*
G37*
G36*
X630595Y1373500D02*
X628905D01*
X627343Y1372853D01*
X626147Y1371657D01*
X625500Y1370095D01*
Y1368405D01*
X626147Y1366843D01*
X627343Y1365647D01*
X628905Y1365000D01*
X630595D01*
X632157Y1365647D01*
X633353Y1366843D01*
X633558Y1367338D01*
X634910D01*
X643100Y1359148D01*
X642608Y1357974D01*
X642424Y1357750D01*
X641500D01*
Y1353912D01*
X638690D01*
X638172Y1355162D01*
X638853Y1355843D01*
X639500Y1357405D01*
Y1359095D01*
X638853Y1360657D01*
X637657Y1361853D01*
X636095Y1362500D01*
X634405D01*
X632843Y1361853D01*
X631647Y1360657D01*
X631000Y1359095D01*
Y1357405D01*
X631647Y1355843D01*
X632328Y1355162D01*
X631810Y1353912D01*
X622058D01*
X621853Y1354407D01*
X620657Y1355603D01*
X619095Y1356250D01*
X617405D01*
X615843Y1355603D01*
X614647Y1354407D01*
X614000Y1352845D01*
Y1351155D01*
X614647Y1349593D01*
X615843Y1348397D01*
X617405Y1347750D01*
X619095D01*
X620657Y1348397D01*
X621853Y1349593D01*
X622058Y1350088D01*
X641500D01*
Y1345250D01*
X654000D01*
Y1357338D01*
X654000Y1357750D01*
X654903Y1358588D01*
X665500D01*
Y1354250D01*
X678000D01*
Y1366750D01*
X665500D01*
Y1362412D01*
X645244D01*
X637054Y1370602D01*
X636433Y1371016D01*
X635702Y1371162D01*
X633558D01*
X633353Y1371657D01*
X632157Y1372853D01*
X630595Y1373500D01*
D02*
G37*
G36*
X387846Y1360800D02*
X386155D01*
X384593Y1360153D01*
X383397Y1358957D01*
X382750Y1357395D01*
Y1355704D01*
X383397Y1354142D01*
X384593Y1352947D01*
X386155Y1352300D01*
X387846D01*
X389408Y1352947D01*
X390603Y1354142D01*
X391250Y1355704D01*
Y1357395D01*
X390603Y1358957D01*
X389408Y1360153D01*
X387846Y1360800D01*
D02*
G37*
G36*
X505028Y1359575D02*
X503338D01*
X501776Y1358928D01*
X500580Y1357732D01*
X499933Y1356170D01*
Y1354479D01*
X500580Y1352917D01*
X501776Y1351722D01*
X503338Y1351075D01*
X505028D01*
X506590Y1351722D01*
X506727Y1351858D01*
X508201Y1351565D01*
X508397Y1351093D01*
X509593Y1349897D01*
X511155Y1349250D01*
X512845D01*
X514407Y1349897D01*
X515603Y1351093D01*
X516250Y1352655D01*
Y1354345D01*
X515603Y1355907D01*
X514407Y1357103D01*
X512845Y1357750D01*
X511155D01*
X509593Y1357103D01*
X509456Y1356967D01*
X507982Y1357260D01*
X507786Y1357732D01*
X506590Y1358928D01*
X505028Y1359575D01*
D02*
G37*
G36*
X318095Y1355500D02*
X316405D01*
X314843Y1354853D01*
X313647Y1353657D01*
X313000Y1352095D01*
Y1350405D01*
X313647Y1348843D01*
X314843Y1347647D01*
X316405Y1347000D01*
X318095D01*
X319657Y1347647D01*
X320853Y1348843D01*
X321500Y1350405D01*
Y1352095D01*
X320853Y1353657D01*
X319657Y1354853D01*
X318095Y1355500D01*
D02*
G37*
G36*
X265645Y1353400D02*
X263955D01*
X262393Y1352753D01*
X261197Y1351557D01*
X260550Y1349995D01*
Y1348304D01*
X261197Y1346743D01*
X262393Y1345547D01*
X263955Y1344900D01*
X265645D01*
X267208Y1345547D01*
X268403Y1346743D01*
X269050Y1348304D01*
Y1349995D01*
X268403Y1351557D01*
X267208Y1352753D01*
X265645Y1353400D01*
D02*
G37*
G36*
X679845Y1353000D02*
X678155D01*
X676593Y1352353D01*
X675397Y1351157D01*
X674750Y1349595D01*
Y1347905D01*
X675397Y1346343D01*
X676593Y1345147D01*
X678155Y1344500D01*
X679845D01*
X681407Y1345147D01*
X682603Y1346343D01*
X683250Y1347905D01*
Y1349595D01*
X682603Y1351157D01*
X681407Y1352353D01*
X679845Y1353000D01*
D02*
G37*
G36*
X328845Y1351000D02*
X327155D01*
X325593Y1350353D01*
X324397Y1349157D01*
X323750Y1347595D01*
Y1345905D01*
X324193Y1344835D01*
X323133Y1344127D01*
X322907Y1344353D01*
X321345Y1345000D01*
X319655D01*
X318093Y1344353D01*
X316897Y1343157D01*
X316250Y1341595D01*
Y1339905D01*
X316897Y1338343D01*
X318093Y1337147D01*
X319655Y1336500D01*
X321345D01*
X322907Y1337147D01*
X324103Y1338343D01*
X324750Y1339905D01*
Y1341595D01*
X324307Y1342665D01*
X325367Y1343373D01*
X325593Y1343147D01*
X327155Y1342500D01*
X328845D01*
X330407Y1343147D01*
X331603Y1344343D01*
X332250Y1345905D01*
Y1347595D01*
X331603Y1349157D01*
X330407Y1350353D01*
X328845Y1351000D01*
D02*
G37*
G36*
X696595Y1352500D02*
X694905D01*
X693343Y1351853D01*
X692147Y1350657D01*
X691500Y1349095D01*
Y1347405D01*
X692147Y1345843D01*
X693343Y1344647D01*
X694905Y1344000D01*
X696595D01*
X698157Y1344647D01*
X699353Y1345843D01*
X700000Y1347405D01*
Y1349095D01*
X699353Y1350657D01*
X698157Y1351853D01*
X696595Y1352500D01*
D02*
G37*
G36*
X459846Y1348100D02*
X458155D01*
X456593Y1347453D01*
X455397Y1346257D01*
X454750Y1344695D01*
Y1343004D01*
X455397Y1341443D01*
X456593Y1340247D01*
X458155Y1339600D01*
X459846D01*
X461408Y1340247D01*
X462603Y1341443D01*
X463250Y1343004D01*
Y1344695D01*
X462603Y1346257D01*
X461408Y1347453D01*
X459846Y1348100D01*
D02*
G37*
G36*
X387846D02*
X386155D01*
X384593Y1347453D01*
X383397Y1346257D01*
X382750Y1344695D01*
Y1343004D01*
X383397Y1341443D01*
X384593Y1340247D01*
X386155Y1339600D01*
X387846D01*
X389408Y1340247D01*
X390603Y1341443D01*
X391250Y1343004D01*
Y1344695D01*
X390603Y1346257D01*
X389408Y1347453D01*
X387846Y1348100D01*
D02*
G37*
G36*
X245750Y1351750D02*
X232250D01*
Y1339250D01*
X245750D01*
Y1351750D01*
D02*
G37*
G36*
X228750D02*
X215250D01*
Y1339250D01*
X228750D01*
Y1351750D01*
D02*
G37*
G36*
X564750Y1369000D02*
X552250D01*
Y1356500D01*
X562046D01*
X567148Y1351398D01*
X567768Y1350984D01*
X568500Y1350838D01*
X571820D01*
X572609Y1349588D01*
X572250Y1348721D01*
Y1347030D01*
X572573Y1346250D01*
X571738Y1345000D01*
X561250D01*
Y1332500D01*
X571690D01*
X571875Y1332463D01*
X572648D01*
X572962Y1331706D01*
X574157Y1330511D01*
X575719Y1329864D01*
X577410D01*
X578972Y1330511D01*
X580168Y1331706D01*
X580815Y1333268D01*
Y1334959D01*
X580168Y1336521D01*
X578972Y1337717D01*
X577410Y1338364D01*
X575719D01*
X575000Y1338066D01*
X573750Y1338901D01*
Y1343061D01*
X575000Y1343896D01*
X575655Y1343625D01*
X577345D01*
X578907Y1344272D01*
X580103Y1345468D01*
X580750Y1347030D01*
Y1348721D01*
X580391Y1349588D01*
X581180Y1350838D01*
X590958D01*
X598455Y1343341D01*
X598250Y1342845D01*
Y1341155D01*
X598897Y1339593D01*
X600093Y1338397D01*
X601655Y1337750D01*
X603345D01*
X604907Y1338397D01*
X606103Y1339593D01*
X606750Y1341155D01*
Y1342845D01*
X606103Y1344407D01*
X604907Y1345603D01*
X603345Y1346250D01*
X601655D01*
X601159Y1346045D01*
X593102Y1354102D01*
X592481Y1354516D01*
X591750Y1354662D01*
X569292D01*
X564750Y1359204D01*
Y1369000D01*
D02*
G37*
G36*
X440595Y1349000D02*
X438905D01*
X437343Y1348353D01*
X436147Y1347157D01*
X435500Y1345595D01*
Y1344082D01*
X435257Y1343680D01*
X434522Y1343000D01*
X433155D01*
X431593Y1342353D01*
X430397Y1341157D01*
X429750Y1339595D01*
Y1337905D01*
X430397Y1336343D01*
X431593Y1335147D01*
X433155Y1334500D01*
X434845D01*
X436407Y1335147D01*
X437603Y1336343D01*
X438250Y1337905D01*
Y1339418D01*
X438493Y1339821D01*
X439228Y1340500D01*
X440595D01*
X442157Y1341147D01*
X443353Y1342343D01*
X444000Y1343905D01*
Y1345595D01*
X443353Y1347157D01*
X442157Y1348353D01*
X440595Y1349000D01*
D02*
G37*
G36*
X424587Y1338765D02*
X422897D01*
X421334Y1338118D01*
X420139Y1336922D01*
X419492Y1335360D01*
Y1333750D01*
X408750D01*
Y1320250D01*
X421250D01*
Y1329594D01*
X422500Y1330429D01*
X422897Y1330265D01*
X424587D01*
X426149Y1330912D01*
X427345Y1332107D01*
X427992Y1333669D01*
Y1335360D01*
X427345Y1336922D01*
X426149Y1338118D01*
X424587Y1338765D01*
D02*
G37*
G36*
X459846Y1335400D02*
X458155D01*
X456593Y1334753D01*
X455397Y1333557D01*
X454750Y1331995D01*
Y1330305D01*
X455397Y1328743D01*
X456593Y1327547D01*
X458155Y1326900D01*
X459846D01*
X461408Y1327547D01*
X462603Y1328743D01*
X463250Y1330305D01*
Y1331995D01*
X462603Y1333557D01*
X461408Y1334753D01*
X459846Y1335400D01*
D02*
G37*
G36*
X387846D02*
X386155D01*
X384593Y1334753D01*
X383397Y1333557D01*
X382750Y1331995D01*
Y1330305D01*
X383397Y1328743D01*
X384593Y1327547D01*
X386155Y1326900D01*
X387846D01*
X389408Y1327547D01*
X390603Y1328743D01*
X391250Y1330305D01*
Y1331995D01*
X390603Y1333557D01*
X389408Y1334753D01*
X387846Y1335400D01*
D02*
G37*
G36*
X246000Y1335500D02*
X232500D01*
Y1323000D01*
X246000D01*
Y1335500D01*
D02*
G37*
G36*
X229000D02*
X215500D01*
Y1323000D01*
X229000D01*
Y1335500D01*
D02*
G37*
G36*
X307470Y1328125D02*
X305780D01*
X304218Y1327478D01*
X303022Y1326282D01*
X302375Y1324720D01*
Y1323030D01*
X303022Y1321468D01*
X304218Y1320272D01*
X305780Y1319625D01*
X307470D01*
X309032Y1320272D01*
X310228Y1321468D01*
X310875Y1323030D01*
Y1324720D01*
X310228Y1326282D01*
X309032Y1327478D01*
X307470Y1328125D01*
D02*
G37*
G36*
X337000Y1331500D02*
X323500D01*
Y1330000D01*
X322280D01*
X320718Y1329353D01*
X319522Y1328158D01*
X318875Y1326595D01*
Y1324905D01*
X319522Y1323343D01*
X320718Y1322147D01*
X322280Y1321500D01*
X323500D01*
Y1319000D01*
X337000D01*
Y1331500D01*
D02*
G37*
G36*
X459595Y1323000D02*
X457905D01*
X456343Y1322353D01*
X455147Y1321157D01*
X454500Y1319595D01*
Y1317905D01*
X455147Y1316343D01*
X456343Y1315147D01*
X457905Y1314500D01*
X459595D01*
X461157Y1315147D01*
X462353Y1316343D01*
X463000Y1317905D01*
Y1319595D01*
X462353Y1321157D01*
X461157Y1322353D01*
X459595Y1323000D01*
D02*
G37*
G36*
X356595Y1317500D02*
X354905D01*
X353343Y1316853D01*
X352147Y1315657D01*
X351500Y1314095D01*
Y1312405D01*
X352147Y1310843D01*
X353343Y1309647D01*
X354905Y1309000D01*
X356595D01*
X358157Y1309647D01*
X359353Y1310843D01*
X360000Y1312405D01*
Y1314095D01*
X359353Y1315657D01*
X358157Y1316853D01*
X356595Y1317500D01*
D02*
G37*
G36*
X335095D02*
X333405D01*
X331843Y1316853D01*
X330647Y1315657D01*
X330000Y1314095D01*
Y1312405D01*
X330647Y1310843D01*
X331843Y1309647D01*
X333405Y1309000D01*
X335095D01*
X336657Y1309647D01*
X337853Y1310843D01*
X338500Y1312405D01*
Y1314095D01*
X337853Y1315657D01*
X336657Y1316853D01*
X335095Y1317500D01*
D02*
G37*
G36*
X246000Y1319250D02*
X232500D01*
Y1306750D01*
X246000D01*
Y1319250D01*
D02*
G37*
G36*
X229000D02*
X215500D01*
Y1306750D01*
X229000D01*
Y1319250D01*
D02*
G37*
G36*
X303095Y1313250D02*
X301405D01*
X299843Y1312603D01*
X298647Y1311407D01*
X298000Y1309845D01*
Y1308155D01*
X298647Y1306593D01*
X299843Y1305397D01*
X301405Y1304750D01*
X303095D01*
X304657Y1305397D01*
X305853Y1306593D01*
X306500Y1308155D01*
Y1309845D01*
X305853Y1311407D01*
X304657Y1312603D01*
X303095Y1313250D01*
D02*
G37*
G36*
X594345Y1310250D02*
X592655D01*
X591093Y1309603D01*
X589897Y1308407D01*
X589250Y1306845D01*
Y1305155D01*
X589897Y1303593D01*
X591093Y1302397D01*
X592655Y1301750D01*
X594345D01*
X595907Y1302397D01*
X597103Y1303593D01*
X597750Y1305155D01*
Y1306845D01*
X597103Y1308407D01*
X595907Y1309603D01*
X594345Y1310250D01*
D02*
G37*
G36*
X618750Y1322750D02*
X600250D01*
Y1287250D01*
X618750D01*
Y1301338D01*
X624692D01*
X624897Y1300843D01*
X626093Y1299647D01*
X627655Y1299000D01*
X629345D01*
X630907Y1299647D01*
X632103Y1300843D01*
X632750Y1302405D01*
Y1304095D01*
X632103Y1305657D01*
X630907Y1306853D01*
X629345Y1307500D01*
X627655D01*
X626093Y1306853D01*
X624897Y1305657D01*
X624692Y1305162D01*
X618750D01*
Y1322750D01*
D02*
G37*
G36*
X246000Y1303250D02*
X232500D01*
Y1290750D01*
X246000D01*
Y1303250D01*
D02*
G37*
G36*
X229000D02*
X215500D01*
Y1290750D01*
X229000D01*
Y1303250D01*
D02*
G37*
G36*
X566470Y1296250D02*
X564780D01*
X563218Y1295603D01*
X562022Y1294407D01*
X561375Y1292845D01*
Y1291155D01*
X562022Y1289593D01*
X563218Y1288397D01*
X564780Y1287750D01*
X566470D01*
X568032Y1288397D01*
X569228Y1289593D01*
X569875Y1291155D01*
Y1292845D01*
X569228Y1294407D01*
X568032Y1295603D01*
X566470Y1296250D01*
D02*
G37*
G36*
X680750Y1322750D02*
X662250D01*
Y1287250D01*
X680750D01*
Y1322750D01*
D02*
G37*
G36*
X265645Y1295600D02*
X263955D01*
X262393Y1294953D01*
X261197Y1293758D01*
X260550Y1292196D01*
Y1290505D01*
X261197Y1288943D01*
X262393Y1287747D01*
X263955Y1287100D01*
X265645D01*
X267208Y1287747D01*
X268403Y1288943D01*
X269050Y1290505D01*
Y1292196D01*
X268403Y1293758D01*
X267208Y1294953D01*
X265645Y1295600D01*
D02*
G37*
G36*
X548470Y1292875D02*
X546780D01*
X545218Y1292228D01*
X544022Y1291033D01*
X543375Y1289470D01*
Y1287780D01*
X544022Y1286218D01*
X545218Y1285022D01*
X546780Y1284375D01*
X548470D01*
X550033Y1285022D01*
X551228Y1286218D01*
X551875Y1287780D01*
Y1289470D01*
X551228Y1291033D01*
X550033Y1292228D01*
X548470Y1292875D01*
D02*
G37*
G36*
X284070Y1284739D02*
X282379D01*
X280817Y1284092D01*
X279622Y1282896D01*
X279371Y1282291D01*
X278175Y1281928D01*
X277444Y1282417D01*
X275200Y1282863D01*
X264200D01*
X261957Y1282417D01*
X260055Y1281146D01*
X258784Y1279244D01*
X258337Y1277000D01*
X258784Y1274757D01*
X260055Y1272855D01*
X261957Y1271584D01*
X264200Y1271137D01*
X275200D01*
X277444Y1271584D01*
X279346Y1272855D01*
X280617Y1274757D01*
X280831Y1275834D01*
X281933Y1276423D01*
X282379Y1276239D01*
X284070D01*
X285632Y1276886D01*
X286828Y1278081D01*
X287475Y1279643D01*
Y1281334D01*
X286828Y1282896D01*
X285632Y1284092D01*
X284070Y1284739D01*
D02*
G37*
G36*
X444595Y1289500D02*
X442905D01*
X441343Y1288853D01*
X440147Y1287657D01*
X439500Y1286095D01*
Y1284405D01*
X440147Y1282843D01*
X441343Y1281647D01*
X442905Y1281000D01*
X444595D01*
X446157Y1281647D01*
X447353Y1282843D01*
X448000Y1284405D01*
Y1286095D01*
X447353Y1287657D01*
X446157Y1288853D01*
X444595Y1289500D01*
D02*
G37*
G36*
X350345Y1289250D02*
X348655D01*
X347093Y1288603D01*
X345897Y1287407D01*
X345250Y1285845D01*
Y1284155D01*
X345897Y1282593D01*
X347093Y1281397D01*
X348655Y1280750D01*
X350345D01*
X351907Y1281397D01*
X353103Y1282593D01*
X353750Y1284155D01*
Y1285845D01*
X353103Y1287407D01*
X351907Y1288603D01*
X350345Y1289250D01*
D02*
G37*
G36*
X302845Y1289124D02*
X301155D01*
X299593Y1288477D01*
X298397Y1287281D01*
X297750Y1285719D01*
Y1284029D01*
X298397Y1282467D01*
X299593Y1281271D01*
X301155Y1280624D01*
X302845D01*
X304407Y1281271D01*
X305603Y1282467D01*
X306250Y1284029D01*
Y1285719D01*
X305603Y1287281D01*
X304407Y1288477D01*
X302845Y1289124D01*
D02*
G37*
G36*
X558845Y1288750D02*
X557155D01*
X555593Y1288103D01*
X554397Y1286907D01*
X553750Y1285345D01*
Y1283655D01*
X554397Y1282093D01*
X554742Y1281747D01*
X554499Y1280521D01*
X554093Y1280353D01*
X552897Y1279157D01*
X552250Y1277595D01*
Y1275905D01*
X552693Y1274835D01*
X551710Y1274140D01*
X551640Y1274110D01*
X550095Y1274750D01*
X548405D01*
X546842Y1274103D01*
X545647Y1272907D01*
X545000Y1271345D01*
Y1269655D01*
X545647Y1268093D01*
X546842Y1266897D01*
X548405Y1266250D01*
X550095D01*
X551657Y1266897D01*
X552853Y1268093D01*
X553500Y1269655D01*
Y1271345D01*
X553057Y1272415D01*
X554040Y1273110D01*
X554110Y1273140D01*
X555655Y1272500D01*
X557345D01*
X558907Y1273147D01*
X560103Y1274343D01*
X560750Y1275905D01*
Y1277595D01*
X560103Y1279157D01*
X559758Y1279503D01*
X560001Y1280729D01*
X560407Y1280897D01*
X561603Y1282093D01*
X562250Y1283655D01*
Y1285345D01*
X561603Y1286907D01*
X560407Y1288103D01*
X558845Y1288750D01*
D02*
G37*
G36*
X649596Y1282000D02*
X647905D01*
X646343Y1281353D01*
X645147Y1280157D01*
X644500Y1278595D01*
Y1276904D01*
X645147Y1275342D01*
X646343Y1274147D01*
X647905Y1273500D01*
X649596D01*
X651158Y1274147D01*
X652353Y1275342D01*
X653000Y1276904D01*
Y1278595D01*
X652353Y1280157D01*
X651158Y1281353D01*
X649596Y1282000D01*
D02*
G37*
G36*
X232000Y1282863D02*
X224000D01*
X221756Y1282417D01*
X219855Y1281146D01*
X218584Y1279244D01*
X218137Y1277000D01*
X218584Y1274757D01*
X219855Y1272855D01*
X221756Y1271584D01*
X224000Y1271137D01*
X232000D01*
X234244Y1271584D01*
X236145Y1272855D01*
X237416Y1274757D01*
X237863Y1277000D01*
X237416Y1279244D01*
X236145Y1281146D01*
X234244Y1282417D01*
X232000Y1282863D01*
D02*
G37*
G36*
X330500Y1283000D02*
X318000D01*
Y1269500D01*
X330500D01*
Y1283000D01*
D02*
G37*
G36*
X431345Y1275250D02*
X429655D01*
X428093Y1274603D01*
X426897Y1273407D01*
X426250Y1271845D01*
Y1270155D01*
X426897Y1268593D01*
X428093Y1267397D01*
X429655Y1266750D01*
X431345D01*
X432845Y1267371D01*
X433226Y1267239D01*
X434000Y1266722D01*
Y1265280D01*
X434647Y1263717D01*
X435843Y1262522D01*
X437405Y1261875D01*
X439095D01*
X440657Y1262522D01*
X441853Y1263717D01*
X442500Y1265280D01*
Y1266970D01*
X441853Y1268532D01*
X440657Y1269728D01*
X439095Y1270375D01*
X437405D01*
X435905Y1269754D01*
X435524Y1269886D01*
X434750Y1270403D01*
Y1271845D01*
X434103Y1273407D01*
X432907Y1274603D01*
X431345Y1275250D01*
D02*
G37*
G36*
X334345Y1268606D02*
X332655D01*
X331093Y1267959D01*
X329897Y1266763D01*
X329250Y1265201D01*
Y1263510D01*
X329897Y1261948D01*
X331093Y1260753D01*
X332655Y1260106D01*
X334345D01*
X335844Y1260726D01*
X337005Y1260521D01*
X338201Y1259325D01*
X339763Y1258678D01*
X341453D01*
X343016Y1259325D01*
X344211Y1260521D01*
X344858Y1262083D01*
Y1263773D01*
X344211Y1265335D01*
X343016Y1266531D01*
X341453Y1267178D01*
X339763D01*
X338264Y1266557D01*
X337103Y1266763D01*
X335907Y1267959D01*
X334345Y1268606D01*
D02*
G37*
G36*
X356845Y1263250D02*
X355155D01*
X353592Y1262603D01*
X352397Y1261407D01*
X351750Y1259845D01*
Y1258155D01*
X352397Y1256593D01*
X353592Y1255397D01*
X355155Y1254750D01*
X356845D01*
X358407Y1255397D01*
X359603Y1256593D01*
X360250Y1258155D01*
Y1259845D01*
X359603Y1261407D01*
X358407Y1262603D01*
X356845Y1263250D01*
D02*
G37*
G36*
X372720Y1255417D02*
X371030D01*
X369468Y1254770D01*
X368796Y1254098D01*
X368156Y1253629D01*
X367162Y1254098D01*
X366657Y1254603D01*
X365095Y1255250D01*
X363405D01*
X361843Y1254603D01*
X360647Y1253407D01*
X360000Y1251845D01*
Y1250155D01*
X360647Y1248593D01*
X361843Y1247397D01*
X363405Y1246750D01*
X365095D01*
X366657Y1247397D01*
X367329Y1248069D01*
X367969Y1248538D01*
X368963Y1248069D01*
X369468Y1247564D01*
X371030Y1246917D01*
X372720D01*
X374282Y1247564D01*
X375478Y1248759D01*
X376125Y1250322D01*
Y1252012D01*
X375478Y1253574D01*
X374282Y1254770D01*
X372720Y1255417D01*
D02*
G37*
G36*
X624221Y1271250D02*
X622530D01*
X620968Y1270603D01*
X619772Y1269407D01*
X619125Y1267845D01*
Y1266155D01*
X619772Y1264593D01*
X620968Y1263397D01*
X622530Y1262750D01*
X624221Y1262750D01*
X624500Y1261595D01*
Y1251374D01*
X624500Y1250280D01*
X624427Y1249977D01*
X624306Y1249529D01*
X624134Y1249317D01*
X623505Y1249125D01*
X622530Y1249125D01*
X620968Y1248478D01*
X619772Y1247282D01*
X619125Y1245720D01*
Y1244030D01*
X619772Y1242468D01*
X620968Y1241272D01*
X622530Y1240625D01*
X624221D01*
X625783Y1241272D01*
X626978Y1242468D01*
X627183Y1242963D01*
X629699D01*
X631238Y1241424D01*
X631858Y1241009D01*
X632088Y1240964D01*
Y1225500D01*
X631500D01*
Y1223793D01*
X631000Y1222750D01*
X630250Y1222750D01*
X623750D01*
Y1217750D01*
X623750Y1212750D01*
X623750Y1211500D01*
Y1207162D01*
X617402D01*
X616670Y1207016D01*
X616050Y1206602D01*
X615905Y1206457D01*
X614750Y1206935D01*
X614750Y1212750D01*
X614750Y1214000D01*
Y1222750D01*
X613162D01*
Y1238840D01*
X613016Y1239571D01*
X612602Y1240191D01*
X612293Y1240500D01*
X612875Y1241905D01*
Y1243595D01*
X612228Y1245157D01*
X611033Y1246353D01*
X609470Y1247000D01*
X607780D01*
X606218Y1246353D01*
X605022Y1245157D01*
X604375Y1243595D01*
Y1241905D01*
X605022Y1240342D01*
X606218Y1239147D01*
X607780Y1238500D01*
X608886D01*
X609338Y1238048D01*
Y1235790D01*
X608088Y1235272D01*
X607657Y1235703D01*
X606095Y1236350D01*
X604405D01*
X603867Y1236127D01*
X602760Y1235882D01*
X602358Y1236752D01*
X602075Y1237436D01*
X600879Y1238631D01*
X599317Y1239278D01*
X598741Y1240528D01*
X599000Y1241155D01*
Y1242845D01*
X598353Y1244407D01*
X597157Y1245603D01*
X595595Y1246250D01*
X593905D01*
X592343Y1245603D01*
X591147Y1244407D01*
X590500Y1242845D01*
Y1241155D01*
X591147Y1239593D01*
X591685Y1239054D01*
Y1230850D01*
X591831Y1230119D01*
X592245Y1229498D01*
X592713Y1229030D01*
Y1225500D01*
X592000D01*
Y1223793D01*
X591500Y1222750D01*
X590750Y1222750D01*
X585787D01*
Y1247833D01*
X591159Y1253205D01*
X591655Y1253000D01*
X593345D01*
X594907Y1253647D01*
X596103Y1254843D01*
X596750Y1256405D01*
Y1258095D01*
X596103Y1259658D01*
X594907Y1260853D01*
X593345Y1261500D01*
X591655D01*
X590093Y1260853D01*
X588897Y1259658D01*
X588250Y1258095D01*
Y1256405D01*
X588455Y1255909D01*
X582523Y1249977D01*
X582109Y1249357D01*
X581963Y1248625D01*
Y1208125D01*
Y1188731D01*
X582109Y1187999D01*
X582523Y1187379D01*
X589902Y1180000D01*
X589384Y1178750D01*
X586000D01*
Y1165250D01*
X598500D01*
Y1170088D01*
X602500D01*
Y1165250D01*
X606838D01*
Y1164250D01*
X606984Y1163519D01*
X607398Y1162898D01*
X609523Y1160773D01*
X610143Y1160359D01*
X610875Y1160214D01*
X613631D01*
X613890Y1159954D01*
X614023Y1159756D01*
X614755Y1159023D01*
X615376Y1158609D01*
X616107Y1158463D01*
X653673D01*
X654404Y1158609D01*
X655025Y1159023D01*
X665500Y1169499D01*
X666750Y1168981D01*
Y1165500D01*
X679250D01*
Y1170088D01*
X682500D01*
Y1165250D01*
X695000D01*
Y1178750D01*
X682500D01*
Y1173911D01*
X679250D01*
Y1179000D01*
X666750D01*
Y1174162D01*
X665548D01*
X664816Y1174016D01*
X664196Y1173602D01*
X655405Y1164810D01*
X654250Y1165289D01*
Y1173250D01*
X649411D01*
Y1178442D01*
X649907Y1178647D01*
X651103Y1179843D01*
X651750Y1181405D01*
Y1183095D01*
X651103Y1184657D01*
X649907Y1185853D01*
X648345Y1186500D01*
X646655D01*
X645093Y1185853D01*
X643897Y1184657D01*
X643250Y1183095D01*
Y1181405D01*
X643897Y1179843D01*
X645093Y1178647D01*
X645588Y1178442D01*
Y1173250D01*
X640750D01*
Y1162287D01*
X637250D01*
Y1173250D01*
X623750D01*
Y1169528D01*
X622500Y1169010D01*
X622407Y1169103D01*
X620845Y1169750D01*
X619155D01*
X617593Y1169103D01*
X616397Y1167907D01*
X616250Y1167552D01*
X615000Y1167801D01*
Y1178750D01*
X602500D01*
Y1173912D01*
X598500D01*
Y1178521D01*
X599407Y1178897D01*
X600603Y1180093D01*
X601250Y1181655D01*
Y1183345D01*
X600603Y1184907D01*
X599407Y1186103D01*
X597845Y1186750D01*
X596155D01*
X594593Y1186103D01*
X593397Y1184907D01*
X593037Y1184040D01*
X591595Y1183714D01*
X585787Y1189522D01*
Y1192685D01*
X587037Y1193203D01*
X587843Y1192397D01*
X589405Y1191750D01*
X591095D01*
X592657Y1192397D01*
X593853Y1193593D01*
X594500Y1195155D01*
Y1196845D01*
X593853Y1198407D01*
X592657Y1199603D01*
X591095Y1200250D01*
X589405D01*
X587843Y1199603D01*
X587037Y1198797D01*
X585787Y1199315D01*
Y1202750D01*
X591500D01*
Y1204306D01*
X591825Y1204523D01*
X593265Y1205963D01*
X600735D01*
X600967Y1205731D01*
X601273Y1205273D01*
X602000Y1204547D01*
Y1200000D01*
X607000D01*
Y1200213D01*
X614276D01*
X615008Y1200359D01*
X615628Y1200773D01*
X618193Y1203338D01*
X623750D01*
Y1202750D01*
X631000D01*
Y1205047D01*
X631167Y1205213D01*
X631223D01*
X631955Y1205359D01*
X632575Y1205773D01*
X632765Y1205963D01*
X640235D01*
X641463Y1204735D01*
Y1204250D01*
X641500Y1204065D01*
Y1200000D01*
X646500D01*
Y1200213D01*
X665375D01*
X666106Y1200359D01*
X666727Y1200773D01*
X671148Y1205194D01*
X671964Y1205533D01*
X672597Y1206166D01*
X672940Y1206993D01*
X673057Y1207903D01*
X673967Y1208020D01*
X674794Y1208362D01*
X675427Y1208995D01*
X675644Y1209519D01*
X675770Y1209822D01*
X676930D01*
X677056Y1209519D01*
X677272Y1208995D01*
X677906Y1208362D01*
X678732Y1208020D01*
X679628D01*
X680454Y1208362D01*
X681087Y1208995D01*
X681430Y1209822D01*
X681547Y1210732D01*
X682458Y1210850D01*
X683285Y1211192D01*
X683424Y1211332D01*
X683741D01*
X684473Y1211477D01*
X685093Y1211891D01*
X693102Y1219900D01*
X693516Y1220520D01*
X693662Y1221252D01*
Y1238692D01*
X694157Y1238897D01*
X695353Y1240093D01*
X696000Y1241655D01*
Y1243345D01*
X695353Y1244907D01*
X694157Y1246103D01*
X692595Y1246750D01*
X690905D01*
X689343Y1246103D01*
X688147Y1244907D01*
X687797Y1244062D01*
X686547Y1244311D01*
Y1251226D01*
X695175D01*
Y1264726D01*
X682675D01*
Y1251226D01*
X682723D01*
Y1218465D01*
X682101Y1217842D01*
X680444D01*
X679628Y1218180D01*
X678717Y1218297D01*
X678600Y1219208D01*
X678405Y1219678D01*
Y1239585D01*
X679157Y1239897D01*
X680353Y1241093D01*
X681000Y1242655D01*
Y1244345D01*
X680353Y1245907D01*
X679157Y1247103D01*
X677595Y1247750D01*
X675905D01*
X674343Y1247103D01*
X673817Y1246577D01*
X673000Y1246010D01*
X672183Y1246577D01*
X671657Y1247103D01*
X670095Y1247750D01*
X668405D01*
X666843Y1247103D01*
X665647Y1245907D01*
X665000Y1244345D01*
Y1242655D01*
X665647Y1241093D01*
X666843Y1239897D01*
X668405Y1239250D01*
X668778D01*
Y1221431D01*
X667528Y1220913D01*
X661912Y1226529D01*
Y1231692D01*
X662407Y1231897D01*
X663603Y1233093D01*
X664250Y1234655D01*
Y1236345D01*
X663603Y1237907D01*
X662407Y1239103D01*
X660845Y1239750D01*
X659155D01*
X657593Y1239103D01*
X656397Y1237907D01*
X655750Y1236345D01*
Y1234655D01*
X656397Y1233093D01*
X657593Y1231897D01*
X658088Y1231692D01*
Y1225738D01*
X658234Y1225006D01*
X658648Y1224386D01*
X668456Y1214578D01*
X669076Y1214164D01*
X669808Y1214018D01*
X672256D01*
X672769Y1213805D01*
X673072Y1213680D01*
Y1212520D01*
X672769Y1212394D01*
X672245Y1212177D01*
X671612Y1211544D01*
X671270Y1210717D01*
X671152Y1209807D01*
X670242Y1209690D01*
X669415Y1209348D01*
X668782Y1208715D01*
X668444Y1207898D01*
X664583Y1204037D01*
X654250D01*
Y1207750D01*
X654250Y1212750D01*
X654250Y1214000D01*
Y1222750D01*
X652536D01*
Y1239640D01*
X653157Y1239897D01*
X654353Y1241093D01*
X655000Y1242655D01*
Y1244345D01*
X654353Y1245907D01*
X653157Y1247103D01*
X651595Y1247750D01*
X649905D01*
X648343Y1247103D01*
X647147Y1245907D01*
X646500Y1244345D01*
Y1242655D01*
X647147Y1241093D01*
X648343Y1239897D01*
X648713Y1239743D01*
Y1233431D01*
X648121Y1233151D01*
X647463Y1233047D01*
X646407Y1234103D01*
X644845Y1234750D01*
X644332D01*
X643250Y1235405D01*
Y1237095D01*
X642603Y1238657D01*
X641407Y1239853D01*
X639845Y1240500D01*
X638155D01*
X637162Y1240089D01*
X635912Y1240805D01*
Y1241892D01*
X635766Y1242623D01*
X635352Y1243243D01*
X634468Y1244127D01*
X633848Y1244542D01*
X633448Y1244621D01*
X631842Y1246227D01*
X631222Y1246641D01*
X630490Y1246787D01*
X627183D01*
X626978Y1247282D01*
X625783Y1248478D01*
X624833Y1248872D01*
X625479Y1250231D01*
X625556Y1250250D01*
X625738Y1250250D01*
X638000D01*
Y1262750D01*
X626903D01*
X626386Y1264000D01*
X626978Y1264593D01*
X627625Y1266155D01*
Y1267845D01*
X626978Y1269407D01*
X625783Y1270603D01*
X624221Y1271250D01*
D02*
G37*
G36*
X679250Y1264750D02*
X666750D01*
Y1251250D01*
X679250D01*
Y1264750D01*
D02*
G37*
G36*
X276250Y1268000D02*
X263750D01*
Y1254500D01*
X273546D01*
X275796Y1252250D01*
X275278Y1251000D01*
X263750D01*
Y1251000D01*
X263044Y1250708D01*
X261025Y1252727D01*
X260405Y1253141D01*
X259857Y1253250D01*
X259980Y1254500D01*
X260250D01*
Y1268000D01*
X247750D01*
Y1254500D01*
X252089D01*
Y1253875D01*
X252234Y1253143D01*
X252649Y1252523D01*
X253017Y1252155D01*
X252539Y1251000D01*
X247750D01*
Y1250885D01*
X246595Y1250407D01*
X244178Y1252824D01*
X244000Y1254000D01*
X244000Y1254000D01*
Y1267500D01*
X231500D01*
Y1255222D01*
X230250Y1254704D01*
X227750Y1257204D01*
Y1268000D01*
X215250D01*
Y1254500D01*
X225047D01*
X227297Y1252250D01*
X226779Y1251000D01*
X215250D01*
Y1237500D01*
X227750D01*
Y1248756D01*
X229000Y1249424D01*
X229214Y1249282D01*
Y1237323D01*
X229359Y1236591D01*
X229774Y1235971D01*
X246721Y1219023D01*
X247342Y1218609D01*
X248073Y1218463D01*
X248963D01*
Y1207769D01*
X249109Y1207038D01*
X249523Y1206417D01*
X280963Y1174977D01*
Y1169945D01*
X281109Y1169213D01*
X281523Y1168593D01*
X297588Y1152528D01*
Y1148656D01*
X296338Y1147821D01*
X295690Y1148090D01*
X293999D01*
X292437Y1147443D01*
X291241Y1146247D01*
X290594Y1144685D01*
Y1142995D01*
X291007Y1141997D01*
X290575Y1140465D01*
X290532Y1140447D01*
X289337Y1139252D01*
X288786Y1137923D01*
X288567Y1137879D01*
X287005Y1138527D01*
X285314D01*
X283752Y1137879D01*
X282557Y1136684D01*
X281910Y1135122D01*
Y1133431D01*
X282557Y1131869D01*
X283752Y1130674D01*
X285314Y1130026D01*
X287005D01*
X288567Y1130674D01*
X289763Y1131869D01*
X290313Y1133198D01*
X290532Y1133241D01*
X291917Y1132668D01*
X292111Y1131878D01*
X292122Y1131344D01*
X291022Y1130244D01*
X290375Y1128682D01*
Y1126991D01*
X291022Y1125429D01*
X292218Y1124233D01*
X293780Y1123586D01*
X295470D01*
X297032Y1124233D01*
X298228Y1125429D01*
X298324Y1125661D01*
X299550Y1125905D01*
X303306Y1122148D01*
X303927Y1121734D01*
X304658Y1121588D01*
X305958D01*
X312505Y1115041D01*
X313126Y1114626D01*
X313750Y1114502D01*
Y1110000D01*
X331239D01*
Y1108500D01*
X313750D01*
Y1099000D01*
X332250D01*
Y1104846D01*
X333500Y1105474D01*
X334644Y1105000D01*
X336335D01*
X337250Y1104388D01*
Y1096704D01*
X333847Y1093301D01*
X332451Y1093426D01*
X332250Y1093562D01*
Y1097500D01*
X313750D01*
Y1093801D01*
X312500Y1093553D01*
X312353Y1093907D01*
X311157Y1095103D01*
X309595Y1095750D01*
X307905D01*
X306343Y1095103D01*
X305147Y1093907D01*
X304500Y1092345D01*
Y1090655D01*
X304860Y1089787D01*
X304070Y1088537D01*
X276273D01*
X274030Y1090780D01*
X274030Y1090780D01*
X246162Y1118648D01*
Y1125692D01*
X246657Y1125897D01*
X247853Y1127093D01*
X248500Y1128655D01*
Y1130345D01*
X247853Y1131907D01*
X246657Y1133103D01*
X245095Y1133750D01*
X243405D01*
X242029Y1134516D01*
X241975Y1134666D01*
X251727Y1144417D01*
X252141Y1145038D01*
X252287Y1145769D01*
Y1191375D01*
X252141Y1192107D01*
X251727Y1192727D01*
X250471Y1193982D01*
X250750Y1194655D01*
Y1196345D01*
X250103Y1197907D01*
X248907Y1199103D01*
X247345Y1199750D01*
X245655D01*
X244093Y1199103D01*
X242897Y1197907D01*
X242250Y1196345D01*
Y1194655D01*
X242897Y1193093D01*
X244093Y1191897D01*
X245655Y1191250D01*
X247345D01*
X247519Y1191322D01*
X248463Y1190548D01*
Y1179430D01*
X247213Y1178641D01*
X246345Y1179000D01*
X244655D01*
X243093Y1178353D01*
X241897Y1177157D01*
X241250Y1175595D01*
Y1173905D01*
X241897Y1172343D01*
X243093Y1171147D01*
X244655Y1170500D01*
X246345D01*
X247213Y1170860D01*
X248463Y1170070D01*
Y1146561D01*
X238023Y1136121D01*
X237609Y1135501D01*
X237463Y1134769D01*
Y1103769D01*
X237609Y1103038D01*
X238023Y1102418D01*
X247713Y1092728D01*
Y1084934D01*
X247859Y1084202D01*
X248273Y1083582D01*
X250838Y1081017D01*
Y1071680D01*
X249523Y1070365D01*
X249109Y1069744D01*
X248963Y1069013D01*
Y1052165D01*
X248843Y1052141D01*
X248223Y1051727D01*
X246928Y1050432D01*
X246514Y1049811D01*
X246466Y1049571D01*
X245872Y1049325D01*
X244677Y1048130D01*
X244030Y1046567D01*
Y1044877D01*
X244450Y1043862D01*
Y1031750D01*
X246368D01*
Y1010030D01*
X245872Y1009825D01*
X244677Y1008630D01*
X244030Y1007067D01*
Y1005377D01*
X244450Y1004362D01*
Y992750D01*
X251450D01*
Y1003382D01*
X251883Y1003815D01*
X252530Y1005377D01*
Y1007067D01*
X251883Y1008630D01*
X250687Y1009825D01*
X250191Y1010030D01*
Y1031750D01*
X251450D01*
Y1042882D01*
X251883Y1043315D01*
X252530Y1044877D01*
Y1046567D01*
X251883Y1048129D01*
X252063Y1049717D01*
X252227Y1049881D01*
X252641Y1050501D01*
X252787Y1051232D01*
Y1068221D01*
X254102Y1069536D01*
X254516Y1070156D01*
X254662Y1070888D01*
Y1081809D01*
X254516Y1082540D01*
X254102Y1083160D01*
X251537Y1085726D01*
Y1093520D01*
X251391Y1094251D01*
X250977Y1094871D01*
X241287Y1104561D01*
Y1116367D01*
X242445Y1117058D01*
X242537Y1117045D01*
X242898Y1116504D01*
X269974Y1089428D01*
X260923Y1080377D01*
X260509Y1079757D01*
X260363Y1079025D01*
Y1049130D01*
X259022Y1048575D01*
X257827Y1047380D01*
X257359Y1046250D01*
X257150D01*
Y1031750D01*
X259268D01*
Y1009780D01*
X258772Y1009575D01*
X257577Y1008380D01*
X256930Y1006817D01*
Y1005127D01*
X257150Y1004595D01*
Y992750D01*
X264150D01*
Y1002932D01*
X264783Y1003565D01*
X265430Y1005127D01*
Y1006817D01*
X264783Y1008380D01*
X263587Y1009575D01*
X263092Y1009780D01*
Y1031750D01*
X264150D01*
Y1041682D01*
X265033Y1042565D01*
X265680Y1044127D01*
Y1045817D01*
X265033Y1047380D01*
X264187Y1048225D01*
Y1078233D01*
X272678Y1086724D01*
X274129Y1085273D01*
X274749Y1084859D01*
X275481Y1084713D01*
X313435D01*
X313953Y1083463D01*
X313897Y1083407D01*
X313250Y1081845D01*
Y1080155D01*
X313897Y1078593D01*
X315093Y1077397D01*
X316655Y1076750D01*
X318345D01*
X319907Y1077397D01*
X321103Y1078593D01*
X321750Y1080155D01*
Y1081845D01*
X321103Y1083407D01*
X321047Y1083463D01*
X321565Y1084713D01*
X330773D01*
X331504Y1084859D01*
X332124Y1085273D01*
X336551Y1089699D01*
X336965Y1090320D01*
X337111Y1091051D01*
Y1091157D01*
X339954Y1094000D01*
X348948D01*
X349147Y1093520D01*
X350343Y1092324D01*
X351905Y1091677D01*
X353595D01*
X355158Y1092324D01*
X356353Y1093520D01*
X357000Y1095082D01*
Y1096773D01*
X356625Y1097678D01*
X357168Y1099010D01*
X357283Y1099106D01*
X357798Y1099451D01*
X361500Y1103152D01*
X362750Y1102634D01*
Y1094000D01*
X372546D01*
X385338Y1081208D01*
Y1049394D01*
X385172Y1049325D01*
X383977Y1048130D01*
X383330Y1046567D01*
Y1044877D01*
X383977Y1043315D01*
X384150Y1043141D01*
Y1031750D01*
X388106D01*
X388360Y1031235D01*
X388490Y1030500D01*
X387450Y1029460D01*
X386803Y1027898D01*
Y1026207D01*
X387450Y1024645D01*
X388645Y1023450D01*
X389039Y1023287D01*
X388791Y1022037D01*
X360667D01*
X352108Y1030595D01*
X352587Y1031750D01*
X353050D01*
Y1042232D01*
X353633Y1042815D01*
X354280Y1044377D01*
Y1046067D01*
X353633Y1047629D01*
X352437Y1048825D01*
X350875Y1049472D01*
X349184D01*
X347622Y1048825D01*
X346427Y1047629D01*
X345780Y1046067D01*
Y1044377D01*
X346050Y1043724D01*
Y1038309D01*
X345026Y1037917D01*
X344800Y1037904D01*
X341727Y1040977D01*
X341195Y1041332D01*
X341087Y1041488D01*
X340838Y1042719D01*
X340933Y1042815D01*
X341580Y1044377D01*
Y1046067D01*
X340933Y1047629D01*
X339737Y1048825D01*
X338175Y1049472D01*
X336484D01*
X334922Y1048825D01*
X333727Y1047629D01*
X333080Y1046067D01*
Y1044377D01*
X333350Y1043724D01*
Y1031750D01*
X340350D01*
Y1034475D01*
X341589Y1034501D01*
X341735Y1033769D01*
X342149Y1033149D01*
X345275Y1030023D01*
X345895Y1029609D01*
X346627Y1029463D01*
X347833D01*
X358523Y1018773D01*
X359143Y1018359D01*
X359875Y1018213D01*
X406296D01*
X407027Y1018359D01*
X407648Y1018773D01*
X413338Y1024463D01*
X455442D01*
X455647Y1023968D01*
X456843Y1022772D01*
X458405Y1022125D01*
X460095D01*
X461657Y1022772D01*
X462853Y1023968D01*
X463500Y1025530D01*
Y1027220D01*
X462853Y1028782D01*
X461657Y1029978D01*
X460095Y1030625D01*
X458405D01*
X456843Y1029978D01*
X455647Y1028782D01*
X455442Y1028287D01*
X412546D01*
X411814Y1028141D01*
X411194Y1027727D01*
X405801Y1022334D01*
X404662Y1022425D01*
X403986Y1023517D01*
X404250Y1024155D01*
Y1025845D01*
X403603Y1027407D01*
X402407Y1028603D01*
X400845Y1029250D01*
X399155D01*
X397593Y1028603D01*
X396553Y1027563D01*
X395780Y1027700D01*
X395289Y1027932D01*
X394656Y1029460D01*
X393460Y1030656D01*
X392168Y1031191D01*
X391841Y1031371D01*
X391150Y1032188D01*
X391150Y1032553D01*
Y1043282D01*
X391183Y1043315D01*
X391830Y1044877D01*
Y1046449D01*
X392138Y1046704D01*
X392973Y1047073D01*
X395605Y1044441D01*
X396226Y1044027D01*
X396396Y1043993D01*
X396677Y1043315D01*
X396850Y1043141D01*
Y1031750D01*
X403850D01*
Y1043282D01*
X403883Y1043315D01*
X404530Y1044877D01*
Y1046567D01*
X403883Y1048130D01*
X402687Y1049325D01*
X401125Y1049972D01*
X399434D01*
X397872Y1049325D01*
X397001Y1048453D01*
X393437Y1052017D01*
Y1060310D01*
X394687Y1060559D01*
X394921Y1059994D01*
X396116Y1058798D01*
X397678Y1058151D01*
X399369D01*
X400931Y1058798D01*
X400963Y1058831D01*
X402213Y1058313D01*
Y1057125D01*
X402359Y1056393D01*
X402773Y1055773D01*
X409523Y1049023D01*
X409827Y1047879D01*
X409180Y1046317D01*
Y1044627D01*
X409550Y1043733D01*
Y1031750D01*
X416550D01*
Y1042582D01*
X417033Y1043065D01*
X417680Y1044627D01*
Y1046317D01*
X417033Y1047879D01*
X415837Y1049075D01*
X414975Y1049432D01*
X414781Y1049722D01*
X412777Y1051727D01*
X412157Y1052141D01*
X411727Y1052227D01*
X408895Y1055059D01*
X409373Y1056213D01*
X414083D01*
X421322Y1048974D01*
X421642Y1048761D01*
X421973Y1048431D01*
X422255Y1047223D01*
X421880Y1046317D01*
Y1044627D01*
X422250Y1043733D01*
Y1031750D01*
X429250D01*
Y1042582D01*
X429733Y1043065D01*
X430380Y1044627D01*
Y1046317D01*
X429733Y1047879D01*
X428537Y1049075D01*
X427630Y1049451D01*
X427481Y1049673D01*
X425477Y1051678D01*
X424857Y1052092D01*
X424125Y1052238D01*
X423466D01*
X416227Y1059477D01*
X415606Y1059891D01*
X414875Y1060037D01*
X408537D01*
Y1071423D01*
X408537Y1071423D01*
Y1075500D01*
X419500D01*
Y1082338D01*
X421500D01*
Y1060750D01*
X444000D01*
Y1075193D01*
X445250Y1075691D01*
X448286Y1072655D01*
X447960Y1071212D01*
X447093Y1070853D01*
X445897Y1069657D01*
X445250Y1068095D01*
Y1066405D01*
X445897Y1064843D01*
X447093Y1063647D01*
X448655Y1063000D01*
X450345D01*
X451509Y1063482D01*
X452759Y1062865D01*
Y1052028D01*
X452904Y1051296D01*
X453319Y1050676D01*
X460306Y1043688D01*
X459750Y1042345D01*
Y1040655D01*
X460397Y1039093D01*
X461593Y1037897D01*
X463155Y1037250D01*
X464845D01*
X466407Y1037897D01*
X467603Y1039093D01*
X468250Y1040655D01*
Y1042325D01*
X468310Y1042383D01*
X469324Y1043019D01*
X469503Y1042840D01*
X471065Y1042193D01*
X472756D01*
X474318Y1042840D01*
X475513Y1044035D01*
X476161Y1045597D01*
Y1047288D01*
X475513Y1048850D01*
X474446Y1049918D01*
X473853Y1051093D01*
X474500Y1052655D01*
Y1054345D01*
X473853Y1055907D01*
X472657Y1057103D01*
X471095Y1057750D01*
X469405D01*
X467843Y1057103D01*
X466647Y1055907D01*
X466000Y1054345D01*
Y1052655D01*
X466647Y1051093D01*
X467842Y1049897D01*
X468131Y1048424D01*
X467660Y1047288D01*
Y1045618D01*
X467601Y1045560D01*
X466586Y1044924D01*
X466407Y1045103D01*
X464845Y1045750D01*
X463652D01*
X456582Y1052819D01*
Y1068974D01*
X456437Y1069705D01*
X456022Y1070325D01*
X448162Y1078186D01*
Y1094750D01*
X452250D01*
Y1101088D01*
X467500D01*
Y1094750D01*
X480000D01*
Y1101088D01*
X483000D01*
Y1094750D01*
X495500D01*
Y1100207D01*
X499349D01*
X499576Y1099980D01*
X500196Y1099566D01*
X500927Y1099420D01*
X506199D01*
X506750Y1098595D01*
Y1096905D01*
X507397Y1095343D01*
X508593Y1094147D01*
X510155Y1093500D01*
X511845D01*
X513407Y1094147D01*
X514603Y1095343D01*
X515250Y1096905D01*
Y1098595D01*
X514603Y1100157D01*
X513581Y1101180D01*
X513268Y1102055D01*
X513172Y1102538D01*
X522472Y1111838D01*
X536750D01*
Y1107500D01*
X541338D01*
Y1084808D01*
X540843Y1084603D01*
X539647Y1083407D01*
X539000Y1081845D01*
Y1081189D01*
X537750Y1080354D01*
X537095Y1080625D01*
X535405D01*
X533843Y1079978D01*
X532647Y1078783D01*
X532000Y1077220D01*
Y1075530D01*
X532647Y1073968D01*
X533843Y1072772D01*
X535405Y1072125D01*
X537095D01*
X538657Y1072772D01*
X539853Y1073968D01*
X540500Y1075530D01*
Y1076186D01*
X541750Y1077021D01*
X542405Y1076750D01*
X544095D01*
X545657Y1077397D01*
X546853Y1078593D01*
X547500Y1080155D01*
Y1081845D01*
X546853Y1083407D01*
X545657Y1084603D01*
X545162Y1084808D01*
Y1107500D01*
X547972D01*
X548490Y1106250D01*
X548397Y1106157D01*
X547750Y1104595D01*
Y1102905D01*
X548397Y1101343D01*
X549593Y1100147D01*
X551155Y1099500D01*
X552845D01*
X554407Y1100147D01*
X555603Y1101343D01*
X556250Y1102905D01*
Y1104595D01*
X555603Y1106157D01*
X554407Y1107353D01*
X552845Y1108000D01*
X551155D01*
X550250Y1108605D01*
Y1120000D01*
X540282D01*
X539544Y1121250D01*
X539940Y1122206D01*
Y1123897D01*
X539293Y1125459D01*
X538097Y1126654D01*
X536535Y1127301D01*
X534844D01*
X533282Y1126654D01*
X532087Y1125459D01*
X531727Y1124591D01*
X530285Y1124265D01*
X520622Y1133928D01*
Y1148109D01*
X520476Y1148840D01*
X520062Y1149461D01*
X505662Y1163861D01*
Y1172500D01*
X510500D01*
Y1185000D01*
X497000D01*
Y1172500D01*
X501838D01*
Y1163631D01*
X500844Y1162835D01*
X500621Y1162782D01*
X500095Y1163000D01*
X498405D01*
X496843Y1162353D01*
X495647Y1161157D01*
X495000Y1159595D01*
Y1157905D01*
X495647Y1156343D01*
X496843Y1155147D01*
X498405Y1154500D01*
X500095D01*
X501657Y1155147D01*
X502853Y1156343D01*
X503500Y1157905D01*
Y1158848D01*
X504750Y1159365D01*
X508036Y1156079D01*
X507710Y1154637D01*
X506843Y1154278D01*
X505647Y1153082D01*
X505000Y1151520D01*
Y1149829D01*
X505647Y1148267D01*
X506843Y1147072D01*
X508405Y1146425D01*
X510095D01*
X511657Y1147072D01*
X512853Y1148267D01*
X513213Y1149135D01*
X514655Y1149461D01*
X516798Y1147317D01*
Y1133136D01*
X516944Y1132405D01*
X517358Y1131785D01*
X532231Y1116912D01*
X532142Y1116341D01*
X531783Y1115662D01*
X521680D01*
X520948Y1115516D01*
X520328Y1115102D01*
X517490Y1112264D01*
X516048Y1112589D01*
X515688Y1113457D01*
X514492Y1114653D01*
X512930Y1115300D01*
X511240D01*
X509678Y1114653D01*
X508482Y1113457D01*
X507835Y1111895D01*
Y1111265D01*
X506585Y1110430D01*
X506520Y1110457D01*
X504829D01*
X503267Y1109810D01*
X502071Y1108615D01*
X501424Y1107053D01*
Y1105362D01*
X501620Y1104889D01*
X501241Y1104380D01*
X500666Y1103926D01*
X500141Y1104030D01*
X495500D01*
Y1108250D01*
X483000D01*
Y1104912D01*
X480000D01*
Y1108250D01*
X467500D01*
Y1104912D01*
X452250D01*
Y1108250D01*
X443060D01*
X442875Y1108287D01*
X419465D01*
X418275Y1109477D01*
X418159Y1109554D01*
X418000Y1110750D01*
X418000D01*
X418000Y1110750D01*
Y1124250D01*
X409416D01*
X409236Y1124516D01*
X409698Y1126060D01*
X409907Y1126147D01*
X411103Y1127343D01*
X411570Y1127436D01*
X412323Y1126683D01*
X413885Y1126036D01*
X415575D01*
X417138Y1126683D01*
X418333Y1127878D01*
X418980Y1129441D01*
Y1131131D01*
X418333Y1132693D01*
X417138Y1133889D01*
X416270Y1134248D01*
X415944Y1135691D01*
X421293Y1141039D01*
X426499D01*
X427230Y1141184D01*
X427851Y1141599D01*
X438840Y1152588D01*
X460942D01*
X461147Y1152093D01*
X462343Y1150897D01*
X463905Y1150250D01*
X465595D01*
X467157Y1150897D01*
X468353Y1152093D01*
X469000Y1153655D01*
Y1155345D01*
X468353Y1156907D01*
X467157Y1158103D01*
X465595Y1158750D01*
X463905D01*
X462343Y1158103D01*
X461147Y1156907D01*
X460942Y1156412D01*
X438048D01*
X437317Y1156266D01*
X436696Y1155852D01*
X425707Y1144863D01*
X420501D01*
X419769Y1144717D01*
X419149Y1144303D01*
X412372Y1137525D01*
X411125Y1138047D01*
X410570Y1139388D01*
X409374Y1140583D01*
X407812Y1141230D01*
X406121D01*
X404559Y1140583D01*
X403364Y1139388D01*
X402717Y1137826D01*
Y1136135D01*
X403364Y1134573D01*
X403374Y1134562D01*
X402662Y1133607D01*
X401100Y1134254D01*
X399409D01*
X397847Y1133607D01*
X396651Y1132412D01*
X396004Y1130850D01*
Y1129159D01*
X396366Y1128287D01*
X395578Y1127037D01*
X390375D01*
X389643Y1126891D01*
X389023Y1126477D01*
X387296Y1124750D01*
X379560D01*
X379375Y1124787D01*
X377465D01*
X362515Y1139737D01*
X362455Y1141445D01*
X362603Y1141592D01*
X363250Y1143155D01*
Y1144845D01*
X362603Y1146407D01*
X361407Y1147603D01*
X359845Y1148250D01*
X358155D01*
X356593Y1147603D01*
X355397Y1146407D01*
X354750Y1144845D01*
Y1143155D01*
X355015Y1142514D01*
X354149Y1141412D01*
X348125D01*
X347393Y1141266D01*
X346773Y1140852D01*
X344591Y1138670D01*
X344095Y1138875D01*
X342405D01*
X340843Y1138228D01*
X339647Y1137032D01*
X339000Y1135470D01*
Y1133780D01*
X339647Y1132218D01*
X340843Y1131022D01*
X342405Y1130375D01*
X344095D01*
X345657Y1131022D01*
X346853Y1132218D01*
X346875Y1132271D01*
X348125D01*
X348147Y1132218D01*
X349343Y1131022D01*
X350905Y1130375D01*
X352595D01*
X353710Y1130837D01*
X356780Y1127767D01*
X356186Y1126593D01*
X354906D01*
X353344Y1125946D01*
X352148Y1124750D01*
X351501Y1123188D01*
Y1121497D01*
X352148Y1119935D01*
X353344Y1118740D01*
X353431Y1118301D01*
X352647Y1117517D01*
X352000Y1115955D01*
Y1114264D01*
X352647Y1112702D01*
X353228Y1112122D01*
X353721Y1111305D01*
X353228Y1110488D01*
X352647Y1109907D01*
X352000Y1108345D01*
Y1106655D01*
X352647Y1105093D01*
X353775Y1103964D01*
X353750Y1103631D01*
X353432Y1102714D01*
X350731D01*
X349750Y1103791D01*
Y1107500D01*
X340344D01*
X339739Y1108404D01*
Y1110095D01*
X339092Y1111657D01*
X337897Y1112853D01*
X336335Y1113500D01*
X334644D01*
X333500Y1113026D01*
X332250Y1113654D01*
Y1119500D01*
X313750D01*
X313750Y1119500D01*
Y1119500D01*
X312798Y1120156D01*
X308102Y1124852D01*
X307482Y1125266D01*
X307120Y1125338D01*
X307243Y1126588D01*
X313750D01*
Y1121000D01*
X332250D01*
Y1130500D01*
X313750D01*
Y1130412D01*
X304373D01*
Y1145859D01*
X304228Y1146591D01*
X303912Y1147064D01*
Y1154356D01*
X303766Y1155087D01*
X303490Y1155500D01*
X304237Y1156445D01*
X304281Y1156481D01*
X305000Y1156338D01*
X313750D01*
Y1154000D01*
X332250D01*
Y1159763D01*
X333405Y1160241D01*
X336338Y1157308D01*
Y1154058D01*
X335843Y1153853D01*
X334647Y1152657D01*
X334000Y1151095D01*
Y1149405D01*
X333838Y1149162D01*
X332250D01*
Y1152500D01*
X313750D01*
Y1143000D01*
X332250D01*
Y1145079D01*
X333500Y1145231D01*
X334708Y1144023D01*
X335328Y1143609D01*
X336059Y1143463D01*
X340269D01*
X341001Y1143609D01*
X341621Y1144023D01*
X349102Y1151504D01*
X349516Y1152124D01*
X349662Y1152856D01*
Y1154442D01*
X350157Y1154647D01*
X351353Y1155843D01*
X352000Y1157405D01*
Y1159095D01*
X351353Y1160657D01*
X350157Y1161853D01*
X348595Y1162500D01*
X346905D01*
X345343Y1161853D01*
X344147Y1160657D01*
X343500Y1159095D01*
Y1157405D01*
X344147Y1155843D01*
X345342Y1154647D01*
X345477Y1153287D01*
X343655Y1151464D01*
X342212Y1151789D01*
X341853Y1152657D01*
X340657Y1153853D01*
X340162Y1154058D01*
Y1158100D01*
X340016Y1158831D01*
X339602Y1159451D01*
X337711Y1161342D01*
X338036Y1162785D01*
X338904Y1163144D01*
X340100Y1164340D01*
X340747Y1165902D01*
Y1167592D01*
X340100Y1169154D01*
X339278Y1169976D01*
X339462Y1170724D01*
X339696Y1171272D01*
X341148Y1171873D01*
X342343Y1173069D01*
X342990Y1174631D01*
Y1176321D01*
X342343Y1177884D01*
X341253Y1178974D01*
X341283Y1179122D01*
X342478Y1180317D01*
X343125Y1181879D01*
Y1183570D01*
X342478Y1185132D01*
X341282Y1186328D01*
X339720Y1186975D01*
X338030D01*
X336468Y1186328D01*
X335272Y1185132D01*
X334625Y1183570D01*
Y1181879D01*
X335272Y1180317D01*
X336362Y1179227D01*
X336333Y1179079D01*
X335137Y1177884D01*
X334490Y1176321D01*
Y1174631D01*
X335137Y1173069D01*
X335959Y1172247D01*
X335775Y1171499D01*
X335541Y1170951D01*
X334090Y1170350D01*
X333500Y1169760D01*
X332250Y1170278D01*
Y1174500D01*
X313750D01*
Y1165000D01*
X327781D01*
X327948Y1164750D01*
X327280Y1163500D01*
X313750D01*
Y1160162D01*
X305792D01*
X296545Y1169409D01*
X296750Y1169905D01*
Y1171595D01*
X296103Y1173157D01*
X294907Y1174353D01*
X293345Y1175000D01*
X291655D01*
X290093Y1174353D01*
X288897Y1173157D01*
X288538Y1172290D01*
X288534Y1172288D01*
X287287Y1172536D01*
Y1176805D01*
X287141Y1177536D01*
X286727Y1178157D01*
X255287Y1209597D01*
Y1216130D01*
X256537Y1216928D01*
X257391Y1216574D01*
X259082D01*
X260644Y1217221D01*
X261839Y1218417D01*
X262486Y1219979D01*
Y1221670D01*
X261839Y1223232D01*
X260644Y1224427D01*
X259082Y1225074D01*
X257391D01*
X255829Y1224427D01*
X255279Y1223877D01*
X255210Y1223855D01*
X253742Y1224098D01*
X253727Y1224121D01*
X249287Y1228561D01*
Y1237500D01*
X252853D01*
X253155Y1237375D01*
X254845D01*
X255147Y1237500D01*
X256977D01*
X257495Y1236250D01*
X257303Y1236058D01*
X256656Y1234496D01*
Y1232806D01*
X257303Y1231244D01*
X258499Y1230048D01*
X260061Y1229401D01*
X261752D01*
X263314Y1230048D01*
X264509Y1231244D01*
X265156Y1232805D01*
X266406Y1233284D01*
X282036Y1217655D01*
X281710Y1216212D01*
X280843Y1215853D01*
X279647Y1214657D01*
X279000Y1213095D01*
Y1211405D01*
X279647Y1209843D01*
X280843Y1208647D01*
X282099Y1208127D01*
X282497Y1207643D01*
X282728Y1206750D01*
X282250Y1205595D01*
Y1203905D01*
X282897Y1202343D01*
X284093Y1201147D01*
X285655Y1200500D01*
X287345D01*
X288907Y1201147D01*
X290103Y1202343D01*
X290750Y1203905D01*
Y1205595D01*
X290103Y1207157D01*
X288907Y1208353D01*
X288030Y1208716D01*
X287490Y1210028D01*
X287684Y1210362D01*
X289113Y1210578D01*
X298985Y1200705D01*
Y1193603D01*
X299131Y1192871D01*
X299545Y1192251D01*
X310398Y1181398D01*
X311019Y1180984D01*
X311750Y1180838D01*
X313750D01*
Y1176000D01*
X332250D01*
Y1185500D01*
X313750D01*
Y1184763D01*
X312500Y1184704D01*
X302809Y1194395D01*
Y1199210D01*
X303964Y1199688D01*
X312505Y1191147D01*
X313126Y1190732D01*
X313750Y1190608D01*
Y1187000D01*
X332250D01*
Y1196500D01*
X313750D01*
Y1196500D01*
X312908Y1196151D01*
X295464Y1213595D01*
X295790Y1215038D01*
X296657Y1215397D01*
X297853Y1216593D01*
X298500Y1218155D01*
Y1219845D01*
X297853Y1221407D01*
X296657Y1222603D01*
X295095Y1223250D01*
X293405D01*
X291843Y1222603D01*
X290647Y1221407D01*
X290287Y1220539D01*
X288845Y1220214D01*
X281037Y1228022D01*
Y1237250D01*
X287347D01*
X287864Y1236000D01*
X287397Y1235533D01*
X286750Y1233970D01*
Y1232280D01*
X287397Y1230718D01*
X288593Y1229522D01*
X290155Y1228875D01*
X291845D01*
X293407Y1229522D01*
X294603Y1230718D01*
X295250Y1232280D01*
Y1233970D01*
X294603Y1235533D01*
X294172Y1235963D01*
X294690Y1237213D01*
X298353D01*
X314418Y1221148D01*
X315038Y1220734D01*
X315770Y1220588D01*
X318250D01*
Y1215750D01*
X330750D01*
Y1229250D01*
X318250D01*
Y1224412D01*
X316561D01*
X300496Y1240477D01*
X299876Y1240891D01*
X299144Y1241037D01*
X292000D01*
Y1250750D01*
X281037D01*
Y1251625D01*
X280891Y1252356D01*
X280477Y1252976D01*
X276250Y1257204D01*
Y1268000D01*
D02*
G37*
G36*
X609095Y1259250D02*
X607405D01*
X605843Y1258603D01*
X604647Y1257407D01*
X604000Y1255845D01*
Y1254155D01*
X604647Y1252593D01*
X605843Y1251397D01*
X607405Y1250750D01*
X609095D01*
X610657Y1251397D01*
X611853Y1252593D01*
X612500Y1254155D01*
Y1255845D01*
X611853Y1257407D01*
X610657Y1258603D01*
X609095Y1259250D01*
D02*
G37*
G36*
X624221Y1282000D02*
X622530D01*
X620968Y1281353D01*
X619772Y1280157D01*
X619125Y1278595D01*
Y1276905D01*
X619772Y1275343D01*
X620968Y1274147D01*
X622530Y1273500D01*
X624221D01*
X625783Y1274147D01*
X626978Y1275343D01*
X627183Y1275838D01*
X629958D01*
X641463Y1264333D01*
Y1260875D01*
X641500Y1260690D01*
Y1250250D01*
X655000D01*
Y1262750D01*
X645287D01*
Y1265125D01*
X645141Y1265856D01*
X644727Y1266477D01*
X632102Y1279102D01*
X631482Y1279516D01*
X630750Y1279662D01*
X627183D01*
X626978Y1280157D01*
X625783Y1281353D01*
X624221Y1282000D01*
D02*
G37*
G36*
X724250Y1261750D02*
X711750D01*
Y1248250D01*
X724250D01*
Y1261750D01*
D02*
G37*
G36*
X385470Y1255250D02*
X383780D01*
X382218Y1254603D01*
X381022Y1253407D01*
X380375Y1251845D01*
Y1250155D01*
X381022Y1248593D01*
X382218Y1247397D01*
X383780Y1246750D01*
X385470D01*
X387033Y1247397D01*
X388228Y1248593D01*
X388875Y1250155D01*
Y1251845D01*
X388228Y1253407D01*
X387033Y1254603D01*
X385470Y1255250D01*
D02*
G37*
G36*
X564345Y1248500D02*
X562655D01*
X561093Y1247853D01*
X559897Y1246657D01*
X559250Y1245095D01*
Y1243405D01*
X559897Y1241843D01*
X561093Y1240647D01*
X562655Y1240000D01*
X564345D01*
X565907Y1240647D01*
X567103Y1241843D01*
X567750Y1243405D01*
Y1245095D01*
X567103Y1246657D01*
X565907Y1247853D01*
X564345Y1248500D01*
D02*
G37*
G36*
X498345Y1246500D02*
X496655D01*
X495093Y1245853D01*
X493897Y1244657D01*
X493250Y1243095D01*
Y1241405D01*
X493897Y1239843D01*
X495093Y1238647D01*
X496655Y1238000D01*
X498345D01*
X499907Y1238647D01*
X501103Y1239843D01*
X501750Y1241405D01*
Y1243095D01*
X501103Y1244657D01*
X499907Y1245853D01*
X498345Y1246500D01*
D02*
G37*
G36*
X387095Y1245000D02*
X385405D01*
X383843Y1244353D01*
X382647Y1243157D01*
X382000Y1241595D01*
Y1239905D01*
X382647Y1238343D01*
X383843Y1237147D01*
X385405Y1236500D01*
X387095D01*
X388657Y1237147D01*
X389853Y1238343D01*
X390500Y1239905D01*
Y1241595D01*
X389853Y1243157D01*
X388657Y1244353D01*
X387095Y1245000D01*
D02*
G37*
G36*
X483544Y1243750D02*
X481456D01*
X479526Y1242951D01*
X478049Y1241474D01*
X477250Y1239544D01*
Y1237456D01*
X478049Y1235526D01*
X479526Y1234049D01*
X481456Y1233250D01*
X483544D01*
X485474Y1234049D01*
X486951Y1235526D01*
X487750Y1237456D01*
Y1239544D01*
X486951Y1241474D01*
X485474Y1242951D01*
X483544Y1243750D01*
D02*
G37*
G36*
X510095Y1238500D02*
X508405D01*
X506843Y1237853D01*
X505647Y1236657D01*
X505000Y1235095D01*
Y1233939D01*
X504461Y1233264D01*
X504408Y1233197D01*
X504407Y1233197D01*
X503746Y1233000D01*
X503746Y1233000D01*
X503746Y1233000D01*
X490750D01*
Y1220500D01*
X492106D01*
X492875Y1219250D01*
X492500Y1218345D01*
Y1216654D01*
X493147Y1215092D01*
X494343Y1213897D01*
X495905Y1213250D01*
X497595D01*
X499157Y1213897D01*
X500353Y1215092D01*
X501000Y1216654D01*
Y1218345D01*
X500625Y1219250D01*
X501394Y1220500D01*
X504250D01*
Y1231821D01*
X504250Y1231948D01*
X504884Y1232074D01*
D01*
X504884Y1232074D01*
X505964Y1231525D01*
X506842Y1230647D01*
X507146Y1229168D01*
X506679Y1228043D01*
Y1226352D01*
X507326Y1224790D01*
X508522Y1223594D01*
X510084Y1222947D01*
X511775D01*
X513337Y1223594D01*
X514532Y1224790D01*
X515179Y1226352D01*
Y1228043D01*
X514532Y1229605D01*
X513337Y1230800D01*
X513034Y1232279D01*
X513500Y1233405D01*
Y1235095D01*
X512853Y1236657D01*
X511657Y1237853D01*
X510095Y1238500D01*
D02*
G37*
G36*
X548500Y1234750D02*
X535000D01*
Y1222250D01*
X548500D01*
Y1234750D01*
D02*
G37*
G36*
X559845Y1223500D02*
X558155D01*
X556592Y1222853D01*
X555397Y1221658D01*
X554750Y1220096D01*
Y1218405D01*
X555397Y1216843D01*
X556592Y1215647D01*
X558155Y1215000D01*
X559845D01*
X561407Y1215647D01*
X562603Y1216843D01*
X563250Y1218405D01*
Y1220096D01*
X562603Y1221658D01*
X561407Y1222853D01*
X559845Y1223500D01*
D02*
G37*
G36*
X547845Y1218500D02*
X546155D01*
X544593Y1217853D01*
X543397Y1216657D01*
X542750Y1215095D01*
Y1213405D01*
X543397Y1211843D01*
X544593Y1210647D01*
X546155Y1210000D01*
X547845D01*
X549407Y1210647D01*
X550603Y1211843D01*
X551250Y1213405D01*
Y1215095D01*
X550603Y1216657D01*
X549407Y1217853D01*
X547845Y1218500D01*
D02*
G37*
G36*
X569595Y1222500D02*
X567905D01*
X566343Y1221853D01*
X565147Y1220657D01*
X564500Y1219095D01*
Y1217405D01*
X565147Y1215843D01*
X565604Y1215385D01*
X565311Y1213911D01*
X565283Y1213899D01*
X564087Y1212704D01*
X563441Y1211142D01*
Y1209451D01*
X564087Y1207889D01*
X565283Y1206693D01*
X566845Y1206046D01*
X568536D01*
X570098Y1206693D01*
X571293Y1207889D01*
X571940Y1209451D01*
Y1211142D01*
X571293Y1212704D01*
X570836Y1213161D01*
X571129Y1214635D01*
X571157Y1214647D01*
X572353Y1215843D01*
X573000Y1217405D01*
Y1219095D01*
X572353Y1220657D01*
X571157Y1221853D01*
X569595Y1222500D01*
D02*
G37*
G36*
X325345Y1213750D02*
X323655D01*
X322093Y1213103D01*
X320897Y1211907D01*
X320250Y1210345D01*
Y1208655D01*
X320897Y1207093D01*
X322093Y1205897D01*
X323655Y1205250D01*
X325345D01*
X326907Y1205897D01*
X328103Y1207093D01*
X328750Y1208655D01*
Y1210345D01*
X328103Y1211907D01*
X326907Y1213103D01*
X325345Y1213750D01*
D02*
G37*
G36*
X538595Y1213250D02*
X536905D01*
X535343Y1212603D01*
X534147Y1211407D01*
X533500Y1209845D01*
Y1208155D01*
X534147Y1206593D01*
X535343Y1205397D01*
X536905Y1204750D01*
X538595D01*
X540157Y1205397D01*
X541353Y1206593D01*
X542000Y1208155D01*
Y1209845D01*
X541353Y1211407D01*
X540157Y1212603D01*
X538595Y1213250D01*
D02*
G37*
G36*
X348345Y1208000D02*
X346655D01*
X345093Y1207353D01*
X343897Y1206157D01*
X343250Y1204595D01*
Y1202905D01*
X343897Y1201343D01*
X345093Y1200147D01*
X346655Y1199500D01*
X348345D01*
X349907Y1200147D01*
X351103Y1201343D01*
X351750Y1202905D01*
Y1204595D01*
X351103Y1206157D01*
X349907Y1207353D01*
X348345Y1208000D01*
D02*
G37*
G36*
X724250Y1244750D02*
X711750D01*
Y1231250D01*
X712588D01*
Y1223058D01*
X712093Y1222853D01*
X710897Y1221657D01*
X710250Y1220095D01*
Y1218405D01*
X710897Y1216843D01*
X712093Y1215647D01*
X713655Y1215000D01*
X715345D01*
X716907Y1215647D01*
X718103Y1216843D01*
X718338Y1217411D01*
X719588Y1217162D01*
Y1211500D01*
X712250D01*
Y1198000D01*
X724750D01*
Y1211500D01*
X723412D01*
Y1220192D01*
X723907Y1220397D01*
X725103Y1221593D01*
X725750Y1223155D01*
Y1224845D01*
X725103Y1226407D01*
X723907Y1227603D01*
X722345Y1228250D01*
X720655D01*
X719093Y1227603D01*
X717897Y1226407D01*
X717662Y1225839D01*
X716412Y1226088D01*
Y1231250D01*
X724250D01*
Y1244750D01*
D02*
G37*
G36*
X338595Y1199500D02*
X336905D01*
X335342Y1198853D01*
X334147Y1197657D01*
X333500Y1196095D01*
Y1194405D01*
X334147Y1192843D01*
X335342Y1191647D01*
X336905Y1191000D01*
X338595D01*
X340157Y1191647D01*
X341353Y1192843D01*
X342000Y1194405D01*
Y1196095D01*
X341353Y1197657D01*
X340157Y1198853D01*
X338595Y1199500D01*
D02*
G37*
G36*
X645095Y1198250D02*
X643405D01*
X641843Y1197603D01*
X640647Y1196407D01*
X640000Y1194845D01*
Y1193155D01*
X640647Y1191593D01*
X641843Y1190397D01*
X643405Y1189750D01*
X645095D01*
X646657Y1190397D01*
X647853Y1191593D01*
X648500Y1193155D01*
Y1194845D01*
X647853Y1196407D01*
X646657Y1197603D01*
X645095Y1198250D01*
D02*
G37*
G36*
X661595Y1197250D02*
X659905D01*
X658343Y1196603D01*
X657147Y1195407D01*
X656500Y1193845D01*
Y1192155D01*
X657147Y1190593D01*
X658343Y1189397D01*
X659905Y1188750D01*
X661595D01*
X663157Y1189397D01*
X664353Y1190593D01*
X665000Y1192155D01*
Y1193845D01*
X664353Y1195407D01*
X663157Y1196603D01*
X661595Y1197250D01*
D02*
G37*
G36*
X670845Y1192750D02*
X669155D01*
X667593Y1192103D01*
X666397Y1190907D01*
X665750Y1189345D01*
Y1187655D01*
X666397Y1186093D01*
X667593Y1184897D01*
X669155Y1184250D01*
X670845D01*
X672407Y1184897D01*
X673603Y1186093D01*
X674250Y1187655D01*
Y1189345D01*
X673603Y1190907D01*
X672407Y1192103D01*
X670845Y1192750D01*
D02*
G37*
G36*
X626845Y1192500D02*
X625155D01*
X623593Y1191853D01*
X622397Y1190657D01*
X621750Y1189095D01*
Y1187405D01*
X622397Y1185843D01*
X623593Y1184647D01*
X625155Y1184000D01*
X626845D01*
X628407Y1184647D01*
X629603Y1185843D01*
X630250Y1187405D01*
Y1189095D01*
X629603Y1190657D01*
X628407Y1191853D01*
X626845Y1192500D01*
D02*
G37*
G36*
X724750Y1194500D02*
X712250D01*
Y1181000D01*
X716989D01*
X717093Y1180897D01*
X718655Y1180250D01*
X720345D01*
X721907Y1180897D01*
X722011Y1181000D01*
X724750D01*
Y1194500D01*
D02*
G37*
G36*
X544595Y1184000D02*
X542905D01*
X541343Y1183353D01*
X540147Y1182157D01*
X539500Y1180595D01*
Y1178905D01*
X540147Y1177343D01*
X541343Y1176147D01*
X542905Y1175500D01*
X544595D01*
X546157Y1176147D01*
X547353Y1177343D01*
X548000Y1178905D01*
Y1180595D01*
X547353Y1182157D01*
X546157Y1183353D01*
X544595Y1184000D01*
D02*
G37*
G36*
X544345Y1167500D02*
X542655D01*
X541093Y1166853D01*
X539897Y1165657D01*
X539250Y1164095D01*
Y1162405D01*
X539897Y1160843D01*
X541093Y1159647D01*
X542655Y1159000D01*
X544345D01*
X545907Y1159647D01*
X547103Y1160843D01*
X547750Y1162405D01*
Y1164095D01*
X547103Y1165657D01*
X545907Y1166853D01*
X544345Y1167500D01*
D02*
G37*
G36*
X280328Y1162732D02*
X278637D01*
X277075Y1162085D01*
X275879Y1160890D01*
X275232Y1159328D01*
Y1157637D01*
X275879Y1156075D01*
X277075Y1154879D01*
X278637Y1154232D01*
X280328D01*
X281890Y1154879D01*
X283085Y1156075D01*
X283732Y1157637D01*
Y1159328D01*
X283085Y1160890D01*
X281890Y1162085D01*
X280328Y1162732D01*
D02*
G37*
G36*
X484595Y1159750D02*
X482905D01*
X481343Y1159103D01*
X480147Y1157907D01*
X479500Y1156345D01*
Y1154655D01*
X479773Y1153994D01*
X479208Y1153413D01*
X478765Y1153162D01*
X477345Y1153750D01*
X475655D01*
X474093Y1153103D01*
X472897Y1151907D01*
X472250Y1150345D01*
Y1148655D01*
X472897Y1147093D01*
X474093Y1145897D01*
X475655Y1145250D01*
X477345D01*
X478907Y1145897D01*
X480103Y1147093D01*
X480750Y1148655D01*
Y1150345D01*
X480476Y1151006D01*
X481042Y1151587D01*
X481485Y1151838D01*
X482905Y1151250D01*
X484595D01*
X486157Y1151897D01*
X487353Y1153093D01*
X488000Y1154655D01*
Y1156345D01*
X487353Y1157907D01*
X486157Y1159103D01*
X484595Y1159750D01*
D02*
G37*
G36*
X358345Y1158000D02*
X356655D01*
X355093Y1157353D01*
X353897Y1156157D01*
X353250Y1154595D01*
Y1152905D01*
X353897Y1151343D01*
X355093Y1150147D01*
X356655Y1149500D01*
X358345D01*
X359907Y1150147D01*
X361103Y1151343D01*
X361750Y1152905D01*
Y1154595D01*
X361103Y1156157D01*
X359907Y1157353D01*
X358345Y1158000D01*
D02*
G37*
G36*
X543971Y1153132D02*
X542280D01*
X540718Y1152486D01*
X539523Y1151290D01*
X538876Y1149728D01*
Y1148037D01*
X539523Y1146475D01*
X540718Y1145279D01*
X542280Y1144632D01*
X543971D01*
X545533Y1145279D01*
X546729Y1146475D01*
X547376Y1148037D01*
Y1149728D01*
X546729Y1151290D01*
X545533Y1152486D01*
X543971Y1153132D01*
D02*
G37*
G36*
X648345Y1153000D02*
X646655D01*
X645092Y1152353D01*
X643897Y1151157D01*
X643250Y1149595D01*
Y1147904D01*
X643897Y1146342D01*
X645092Y1145147D01*
X646655Y1144500D01*
X648345D01*
X649907Y1145147D01*
X651103Y1146342D01*
X651750Y1147904D01*
Y1149595D01*
X651103Y1151157D01*
X649907Y1152353D01*
X648345Y1153000D01*
D02*
G37*
G36*
X394245Y1148250D02*
X392554D01*
X390992Y1147603D01*
X389797Y1146407D01*
X389150Y1144845D01*
Y1143154D01*
X389797Y1141592D01*
X390992Y1140397D01*
X392554Y1139750D01*
X394245D01*
X395807Y1140397D01*
X397002Y1141592D01*
X397649Y1143154D01*
Y1144845D01*
X397002Y1146407D01*
X395807Y1147603D01*
X394245Y1148250D01*
D02*
G37*
G36*
X382845Y1148138D02*
X381155D01*
X379593Y1147491D01*
X378397Y1146295D01*
X377750Y1144733D01*
Y1143043D01*
X378397Y1141481D01*
X379593Y1140285D01*
X381155Y1139638D01*
X382845D01*
X384407Y1140285D01*
X385603Y1141481D01*
X386250Y1143043D01*
Y1144733D01*
X385603Y1146295D01*
X384407Y1147491D01*
X382845Y1148138D01*
D02*
G37*
G36*
X372095Y1146750D02*
X370405D01*
X368843Y1146103D01*
X367647Y1144907D01*
X367000Y1143345D01*
Y1141655D01*
X367647Y1140093D01*
X368843Y1138897D01*
X370405Y1138250D01*
X372095D01*
X373657Y1138897D01*
X374853Y1140093D01*
X375500Y1141655D01*
Y1143345D01*
X374853Y1144907D01*
X373657Y1146103D01*
X372095Y1146750D01*
D02*
G37*
G36*
X717596Y1145750D02*
X715905D01*
X714343Y1145103D01*
X713147Y1143907D01*
X712500Y1142345D01*
Y1140655D01*
X713147Y1139093D01*
X714343Y1137897D01*
X715905Y1137250D01*
X717596D01*
X719157Y1137897D01*
X720353Y1139093D01*
X721000Y1140655D01*
Y1142345D01*
X720353Y1143907D01*
X719157Y1145103D01*
X717596Y1145750D01*
D02*
G37*
G36*
X507595Y1137674D02*
X505905D01*
X504343Y1137028D01*
X503147Y1135832D01*
X502500Y1134270D01*
Y1132579D01*
X503147Y1131017D01*
X504343Y1129821D01*
X505905Y1129174D01*
X507595D01*
X509157Y1129821D01*
X510353Y1131017D01*
X511000Y1132579D01*
Y1134270D01*
X510353Y1135832D01*
X509157Y1137028D01*
X507595Y1137674D01*
D02*
G37*
G36*
X544345Y1136000D02*
X542654D01*
X541092Y1135353D01*
X539897Y1134158D01*
X539250Y1132596D01*
Y1130905D01*
X539897Y1129343D01*
X541092Y1128147D01*
X542654Y1127500D01*
X544345D01*
X545907Y1128147D01*
X547103Y1129343D01*
X547750Y1130905D01*
Y1132596D01*
X547103Y1134158D01*
X545907Y1135353D01*
X544345Y1136000D01*
D02*
G37*
G36*
X437345Y1135750D02*
X435655D01*
X434093Y1135103D01*
X432897Y1133907D01*
X432250Y1132345D01*
Y1130655D01*
X432897Y1129093D01*
X434093Y1127897D01*
X435655Y1127250D01*
X437345D01*
X438907Y1127897D01*
X440103Y1129093D01*
X440750Y1130655D01*
Y1132345D01*
X440103Y1133907D01*
X438907Y1135103D01*
X437345Y1135750D01*
D02*
G37*
G36*
X510322Y1127454D02*
X508632D01*
X507069Y1126807D01*
X505874Y1125612D01*
X505732Y1125268D01*
X504222Y1124891D01*
X503094Y1125358D01*
X501403D01*
X499841Y1124711D01*
X498646Y1123515D01*
X497999Y1121954D01*
Y1120263D01*
X498646Y1118701D01*
X499841Y1117505D01*
X501403Y1116858D01*
X503094D01*
X504656Y1117505D01*
X505852Y1118701D01*
X505994Y1119044D01*
X507503Y1119422D01*
X508632Y1118954D01*
X510322D01*
X511884Y1119601D01*
X513080Y1120797D01*
X513727Y1122359D01*
Y1124050D01*
X513080Y1125612D01*
X511884Y1126807D01*
X510322Y1127454D01*
D02*
G37*
G36*
X482165Y1133005D02*
X480474D01*
X478912Y1132357D01*
X477717Y1131162D01*
X477070Y1129600D01*
Y1127909D01*
X477717Y1126347D01*
X478912Y1125152D01*
X480474Y1124504D01*
X482165D01*
X483727Y1125152D01*
X484923Y1126347D01*
X485570Y1127909D01*
Y1129600D01*
X484923Y1131162D01*
X483727Y1132357D01*
X482165Y1133005D01*
D02*
G37*
G36*
X571345Y1138750D02*
X569655D01*
X568093Y1138103D01*
X566897Y1136907D01*
X566250Y1135345D01*
Y1133655D01*
X566897Y1132093D01*
X567548Y1131442D01*
X567957Y1130625D01*
X567548Y1129808D01*
X566897Y1129157D01*
X566250Y1127595D01*
Y1125905D01*
X566897Y1124343D01*
X568093Y1123147D01*
X569655Y1122500D01*
X571345D01*
X572907Y1123147D01*
X574103Y1124343D01*
X574750Y1125905D01*
Y1127595D01*
X574103Y1129157D01*
X573452Y1129808D01*
X573044Y1130625D01*
X573452Y1131442D01*
X574103Y1132093D01*
X574750Y1133655D01*
Y1135345D01*
X574103Y1136907D01*
X572907Y1138103D01*
X571345Y1138750D01*
D02*
G37*
G36*
X606845Y1141500D02*
X605155D01*
X603593Y1140853D01*
X602397Y1139657D01*
X601750Y1138095D01*
Y1136405D01*
X602397Y1134843D01*
X602490Y1134750D01*
X601972Y1133500D01*
X600250D01*
Y1120269D01*
X599000Y1119500D01*
X598095Y1119875D01*
X596405D01*
X594843Y1119228D01*
X593647Y1118032D01*
X593000Y1116470D01*
Y1114780D01*
X593349Y1113937D01*
X592392Y1112981D01*
X592345Y1113000D01*
X590655D01*
X589093Y1112353D01*
X587897Y1111157D01*
X587250Y1109595D01*
Y1107905D01*
X587897Y1106343D01*
X589093Y1105147D01*
X590655Y1104500D01*
X592345D01*
X593907Y1105147D01*
X595103Y1106343D01*
X595750Y1107905D01*
Y1109595D01*
X595401Y1110438D01*
X596358Y1111394D01*
X596405Y1111375D01*
X598095D01*
X599000Y1111750D01*
X600250Y1110981D01*
Y1098000D01*
X618750D01*
Y1133500D01*
X610028D01*
X609510Y1134750D01*
X609603Y1134843D01*
X610250Y1136405D01*
Y1138095D01*
X609603Y1139657D01*
X608407Y1140853D01*
X606845Y1141500D01*
D02*
G37*
G36*
X635845Y1128000D02*
X634155D01*
X632593Y1127353D01*
X631397Y1126157D01*
X630750Y1124595D01*
Y1122905D01*
X631397Y1121343D01*
X632593Y1120147D01*
X634155Y1119500D01*
X635845D01*
X637407Y1120147D01*
X638603Y1121343D01*
X639250Y1122905D01*
Y1124595D01*
X638603Y1126157D01*
X637407Y1127353D01*
X635845Y1128000D01*
D02*
G37*
G36*
X266845Y1124250D02*
X265155D01*
X263593Y1123603D01*
X262397Y1122407D01*
X261750Y1120845D01*
Y1119155D01*
X262397Y1117593D01*
X263593Y1116397D01*
X265155Y1115750D01*
X266845D01*
X268407Y1116397D01*
X269603Y1117593D01*
X270250Y1119155D01*
Y1120845D01*
X269603Y1122407D01*
X268407Y1123603D01*
X266845Y1124250D01*
D02*
G37*
G36*
X282845Y1122500D02*
X281155D01*
X279593Y1121853D01*
X278397Y1120657D01*
X277750Y1119095D01*
Y1117405D01*
X278397Y1115843D01*
X279593Y1114647D01*
X281155Y1114000D01*
X282845D01*
X284407Y1114647D01*
X285603Y1115843D01*
X286250Y1117405D01*
Y1119095D01*
X285603Y1120657D01*
X284407Y1121853D01*
X282845Y1122500D01*
D02*
G37*
G36*
X680750Y1133500D02*
X662250D01*
Y1098000D01*
X680750D01*
Y1133500D01*
D02*
G37*
G36*
X566595Y1106250D02*
X564905D01*
X563343Y1105603D01*
X562147Y1104407D01*
X561500Y1102845D01*
Y1101155D01*
X562147Y1099593D01*
X563343Y1098397D01*
X564905Y1097750D01*
X566595D01*
X568157Y1098397D01*
X569353Y1099593D01*
X570000Y1101155D01*
Y1102845D01*
X569353Y1104407D01*
X568157Y1105603D01*
X566595Y1106250D01*
D02*
G37*
G36*
X569845Y1095250D02*
X568155D01*
X566593Y1094603D01*
X565397Y1093407D01*
X564750Y1091845D01*
Y1090155D01*
X565397Y1088593D01*
X566593Y1087397D01*
X568155Y1086750D01*
X569845D01*
X571407Y1087397D01*
X572603Y1088593D01*
X573250Y1090155D01*
Y1091845D01*
X572603Y1093407D01*
X571407Y1094603D01*
X569845Y1095250D01*
D02*
G37*
G36*
X524345Y1093500D02*
X522655D01*
X521093Y1092853D01*
X519897Y1091657D01*
X519250Y1090095D01*
Y1088405D01*
X519897Y1086843D01*
X521093Y1085647D01*
X522655Y1085000D01*
X524345D01*
X525907Y1085647D01*
X527103Y1086843D01*
X527750Y1088405D01*
Y1090095D01*
X527103Y1091657D01*
X525907Y1092853D01*
X524345Y1093500D01*
D02*
G37*
G36*
X692750Y1088500D02*
X680250D01*
Y1084162D01*
X663657D01*
X661342Y1086477D01*
X660722Y1086891D01*
X659990Y1087037D01*
X627910D01*
X627178Y1086891D01*
X626558Y1086477D01*
X626499Y1086419D01*
X625095Y1087000D01*
X623404D01*
X621842Y1086353D01*
X620647Y1085158D01*
X620000Y1083596D01*
Y1081905D01*
X620647Y1080343D01*
X621791Y1079199D01*
X621843Y1079093D01*
X621862Y1077786D01*
X621773Y1077727D01*
X618841Y1074795D01*
X618345Y1075000D01*
X616655D01*
X615093Y1074353D01*
X613897Y1073157D01*
X613250Y1071595D01*
Y1069905D01*
X613897Y1068343D01*
X615093Y1067147D01*
X616655Y1066500D01*
X618345D01*
X619907Y1067147D01*
X621103Y1068343D01*
X621750Y1069905D01*
Y1071595D01*
X621545Y1072091D01*
X623917Y1074463D01*
X626320D01*
X627109Y1073213D01*
X626750Y1072345D01*
Y1070655D01*
X627397Y1069093D01*
X628593Y1067897D01*
X630155Y1067250D01*
X631845D01*
X633407Y1067897D01*
X634603Y1069093D01*
X635250Y1070655D01*
Y1072345D01*
X634891Y1073213D01*
X635680Y1074463D01*
X638939D01*
X639379Y1074024D01*
X639999Y1073609D01*
X640731Y1073464D01*
X656250D01*
Y1068000D01*
X654905D01*
X653343Y1067353D01*
X652147Y1066158D01*
X651500Y1064596D01*
Y1062905D01*
X652147Y1061343D01*
X653343Y1060147D01*
X654905Y1059500D01*
X656595D01*
X658157Y1060147D01*
X659353Y1061343D01*
X660000Y1062905D01*
Y1064596D01*
X659522Y1065750D01*
X660144Y1067000D01*
X668750D01*
Y1079500D01*
X669653Y1080338D01*
X680250D01*
Y1076000D01*
X692750D01*
Y1088500D01*
D02*
G37*
G36*
X556345Y1090500D02*
X554655D01*
X553093Y1089853D01*
X551897Y1088657D01*
X551250Y1087095D01*
Y1085405D01*
X551897Y1083843D01*
X553093Y1082647D01*
X554655Y1082000D01*
X556345D01*
X557907Y1082647D01*
X559103Y1083843D01*
X559750Y1085405D01*
Y1087095D01*
X559103Y1088657D01*
X557907Y1089853D01*
X556345Y1090500D01*
D02*
G37*
G36*
X511845Y1090250D02*
X510155D01*
X508593Y1089603D01*
X507397Y1088407D01*
X506750Y1086845D01*
Y1085155D01*
X507397Y1083593D01*
X508593Y1082397D01*
X510155Y1081750D01*
X511845D01*
X513407Y1082397D01*
X514603Y1083593D01*
X515250Y1085155D01*
Y1086845D01*
X514603Y1088407D01*
X513407Y1089603D01*
X511845Y1090250D01*
D02*
G37*
G36*
X498750Y1089000D02*
X486250D01*
Y1078203D01*
X485155Y1077108D01*
X484000Y1077587D01*
Y1087250D01*
X461500D01*
Y1060750D01*
X484000D01*
Y1072088D01*
X484750D01*
X485482Y1072234D01*
X486102Y1072648D01*
X488954Y1075500D01*
X498750D01*
Y1089000D01*
D02*
G37*
G36*
X340595Y1076000D02*
X338905D01*
X337343Y1075353D01*
X336147Y1074157D01*
X335500Y1072595D01*
Y1070905D01*
X336147Y1069343D01*
X337343Y1068147D01*
X338905Y1067500D01*
X340595D01*
X342157Y1068147D01*
X343353Y1069343D01*
X344000Y1070905D01*
Y1072595D01*
X343353Y1074157D01*
X342157Y1075353D01*
X340595Y1076000D01*
D02*
G37*
G36*
X556095Y1075000D02*
X554405D01*
X552843Y1074353D01*
X551647Y1073157D01*
X551000Y1071595D01*
Y1069905D01*
X551647Y1068343D01*
X552843Y1067147D01*
X554405Y1066500D01*
X556095D01*
X557657Y1067147D01*
X558853Y1068343D01*
X559500Y1069905D01*
Y1071595D01*
X558853Y1073157D01*
X557657Y1074353D01*
X556095Y1075000D01*
D02*
G37*
G36*
X330921Y1073125D02*
X329230D01*
X327668Y1072478D01*
X326473Y1071283D01*
X325826Y1069721D01*
Y1068030D01*
X326473Y1066468D01*
X327668Y1065272D01*
X329230Y1064625D01*
X330921D01*
X332483Y1065272D01*
X333679Y1066468D01*
X334326Y1068030D01*
Y1069721D01*
X333679Y1071283D01*
X332483Y1072478D01*
X330921Y1073125D01*
D02*
G37*
G36*
X550845Y1064750D02*
X549155D01*
X547593Y1064103D01*
X546397Y1062907D01*
X546229Y1062502D01*
X545206Y1062298D01*
X544828Y1062386D01*
X543345Y1063000D01*
X541655D01*
X540093Y1062353D01*
X538897Y1061157D01*
X538250Y1059595D01*
Y1057905D01*
X538897Y1056343D01*
X540093Y1055147D01*
X541655Y1054500D01*
X543345D01*
X544907Y1055147D01*
X546103Y1056343D01*
X546271Y1056749D01*
X547294Y1056952D01*
X547672Y1056864D01*
X549155Y1056250D01*
X550845D01*
X552407Y1056897D01*
X553603Y1058093D01*
X554250Y1059655D01*
Y1061345D01*
X553603Y1062907D01*
X552407Y1064103D01*
X550845Y1064750D01*
D02*
G37*
G36*
X717596Y1070750D02*
X715905D01*
X714343Y1070103D01*
X713147Y1068907D01*
X712500Y1067345D01*
Y1065655D01*
X713147Y1064092D01*
X714343Y1062897D01*
X715905Y1062250D01*
X717596D01*
X719157Y1062897D01*
X720353Y1064092D01*
X721000Y1065655D01*
Y1067345D01*
X720353Y1068907D01*
X719157Y1070103D01*
X717596Y1070750D01*
D02*
G37*
G36*
X598500Y1077000D02*
X586000D01*
Y1064500D01*
X590338D01*
Y1062680D01*
X589358Y1061891D01*
X589095Y1062000D01*
X587405D01*
X585843Y1061353D01*
X584647Y1060157D01*
X584000Y1058595D01*
Y1056904D01*
X584647Y1055342D01*
X585843Y1054147D01*
X587405Y1053500D01*
X589095D01*
X590657Y1054147D01*
X591853Y1055342D01*
X592500Y1056904D01*
Y1058595D01*
X592295Y1059091D01*
X593602Y1060398D01*
X594016Y1061018D01*
X594162Y1061750D01*
Y1064500D01*
X598500D01*
Y1077000D01*
D02*
G37*
G36*
X531595Y1067750D02*
X529905D01*
X528343Y1067103D01*
X527147Y1065907D01*
X526500Y1064345D01*
Y1062655D01*
X527147Y1061093D01*
X528343Y1059897D01*
X529905Y1059250D01*
X531595D01*
X533157Y1059897D01*
X534353Y1061093D01*
X535000Y1062655D01*
Y1064345D01*
X534353Y1065907D01*
X533157Y1067103D01*
X531595Y1067750D01*
D02*
G37*
G36*
X299845Y1067000D02*
X298155D01*
X296593Y1066353D01*
X295397Y1065157D01*
X294750Y1063595D01*
Y1061905D01*
X295397Y1060343D01*
X296593Y1059147D01*
X298155Y1058500D01*
X299845D01*
X301407Y1059147D01*
X302603Y1060343D01*
X303250Y1061905D01*
Y1063595D01*
X302603Y1065157D01*
X301407Y1066353D01*
X299845Y1067000D01*
D02*
G37*
G36*
X345845Y1066750D02*
X344155D01*
X342593Y1066103D01*
X341397Y1064907D01*
X340750Y1063345D01*
Y1061655D01*
X341397Y1060092D01*
X342593Y1058897D01*
X344155Y1058250D01*
X345845D01*
X347407Y1058897D01*
X348603Y1060092D01*
X349250Y1061655D01*
Y1063345D01*
X348603Y1064907D01*
X347407Y1066103D01*
X345845Y1066750D01*
D02*
G37*
G36*
X672595Y1066250D02*
X670905D01*
X669343Y1065603D01*
X668147Y1064407D01*
X667500Y1062845D01*
Y1061155D01*
X668147Y1059593D01*
X669343Y1058397D01*
X670905Y1057750D01*
X672595D01*
X674157Y1058397D01*
X675353Y1059593D01*
X676000Y1061155D01*
Y1062845D01*
X675353Y1064407D01*
X674157Y1065603D01*
X672595Y1066250D01*
D02*
G37*
G36*
X284845Y1072500D02*
X283155D01*
X281593Y1071853D01*
X280397Y1070657D01*
X279750Y1069095D01*
Y1067405D01*
X279802Y1067280D01*
X279177Y1065908D01*
X278139Y1065478D01*
X276944Y1064283D01*
X276297Y1062720D01*
Y1061030D01*
X276944Y1059468D01*
X278139Y1058272D01*
X279701Y1057625D01*
X281392D01*
X282954Y1058272D01*
X284150Y1059468D01*
X284243Y1059693D01*
X285596D01*
X285647Y1059570D01*
X286842Y1058375D01*
X288405Y1057728D01*
X290095D01*
X291657Y1058375D01*
X292853Y1059570D01*
X293500Y1061132D01*
Y1062823D01*
X292853Y1064385D01*
X291657Y1065581D01*
X290095Y1066228D01*
X289116D01*
X288250Y1067405D01*
Y1069095D01*
X287603Y1070657D01*
X286407Y1071853D01*
X284845Y1072500D01*
D02*
G37*
G36*
X631595Y1066000D02*
X629905D01*
X628343Y1065353D01*
X627147Y1064157D01*
X626500Y1062595D01*
Y1060905D01*
X627147Y1059342D01*
X628343Y1058147D01*
X629905Y1057500D01*
X631595D01*
X633157Y1058147D01*
X634353Y1059342D01*
X635000Y1060905D01*
Y1062595D01*
X634353Y1064157D01*
X633157Y1065353D01*
X631595Y1066000D01*
D02*
G37*
G36*
X332397Y1063375D02*
X330707D01*
X329145Y1062728D01*
X327949Y1061533D01*
X327302Y1059970D01*
Y1058280D01*
X327949Y1056718D01*
X329145Y1055522D01*
X330707Y1054875D01*
X332397D01*
X333959Y1055522D01*
X335155Y1056718D01*
X335802Y1058280D01*
Y1059970D01*
X335155Y1061533D01*
X333959Y1062728D01*
X332397Y1063375D01*
D02*
G37*
G36*
X574500Y1068000D02*
X562000D01*
Y1055500D01*
X566582D01*
X566647Y1055342D01*
X567842Y1054147D01*
X569405Y1053500D01*
X571095D01*
X572657Y1054147D01*
X573853Y1055342D01*
X573918Y1055500D01*
X574500D01*
Y1068000D01*
D02*
G37*
G36*
X485595Y1058250D02*
X483905D01*
X482343Y1057603D01*
X481147Y1056407D01*
X480500Y1054845D01*
Y1053155D01*
X481147Y1051593D01*
X482343Y1050397D01*
X483905Y1049750D01*
X485595D01*
X487157Y1050397D01*
X488353Y1051593D01*
X489000Y1053155D01*
Y1054845D01*
X488353Y1056407D01*
X487157Y1057603D01*
X485595Y1058250D01*
D02*
G37*
G36*
X530275Y1049722D02*
X528584D01*
X527022Y1049075D01*
X525827Y1047879D01*
X525180Y1046317D01*
Y1044627D01*
X525827Y1043065D01*
X526099Y1042792D01*
Y1035305D01*
X524849Y1034507D01*
X523995Y1034861D01*
X522304D01*
X521649Y1034590D01*
X520399Y1035425D01*
Y1042855D01*
X521030Y1044377D01*
Y1046067D01*
X520383Y1047629D01*
X519187Y1048825D01*
X517625Y1049472D01*
X515934D01*
X514372Y1048825D01*
X513177Y1047629D01*
X512530Y1046067D01*
Y1044377D01*
X513177Y1042815D01*
X513399Y1042592D01*
Y1031750D01*
X518703D01*
X518900Y1031456D01*
Y1029766D01*
X519547Y1028204D01*
X520742Y1027008D01*
X522304Y1026361D01*
X523995D01*
X525557Y1027008D01*
X526753Y1028204D01*
X527400Y1029766D01*
Y1031456D01*
X527596Y1031750D01*
X533099D01*
Y1043225D01*
X533680Y1044627D01*
Y1046317D01*
X533033Y1047879D01*
X531837Y1049075D01*
X530275Y1049722D01*
D02*
G37*
G36*
X683025Y1049972D02*
X681334D01*
X679772Y1049325D01*
X678577Y1048130D01*
X677930Y1046567D01*
Y1044877D01*
X678499Y1043501D01*
Y1031750D01*
X685499D01*
Y1043031D01*
X685783Y1043315D01*
X686430Y1044877D01*
Y1046567D01*
X685783Y1048130D01*
X684587Y1049325D01*
X683025Y1049972D01*
D02*
G37*
G36*
X670720Y1049472D02*
X669030D01*
X667468Y1048825D01*
X666272Y1047629D01*
X665625Y1046067D01*
Y1044377D01*
X665799Y1043956D01*
Y1031750D01*
X672799D01*
Y1042136D01*
X673478Y1042815D01*
X674125Y1044377D01*
Y1046067D01*
X673478Y1047629D01*
X672282Y1048825D01*
X670720Y1049472D01*
D02*
G37*
G36*
X657425D02*
X655734D01*
X654172Y1048825D01*
X652977Y1047629D01*
X652330Y1046067D01*
Y1044377D01*
X652977Y1042815D01*
X653099Y1042692D01*
Y1031750D01*
X660099D01*
Y1042731D01*
X660183Y1042815D01*
X660830Y1044377D01*
Y1046067D01*
X660183Y1047629D01*
X658987Y1048825D01*
X657425Y1049472D01*
D02*
G37*
G36*
X644725D02*
X643034D01*
X641472Y1048825D01*
X640277Y1047629D01*
X639630Y1046067D01*
Y1044377D01*
X640277Y1042815D01*
X640399Y1042692D01*
Y1031750D01*
X647399D01*
Y1042731D01*
X647483Y1042815D01*
X648130Y1044377D01*
Y1046067D01*
X647483Y1047629D01*
X646287Y1048825D01*
X644725Y1049472D01*
D02*
G37*
G36*
X632025D02*
X630334D01*
X628772Y1048825D01*
X627577Y1047629D01*
X626930Y1046067D01*
Y1044377D01*
X627577Y1042815D01*
X627699Y1042692D01*
Y1031750D01*
X634699D01*
Y1042731D01*
X634783Y1042815D01*
X635430Y1044377D01*
Y1046067D01*
X634783Y1047629D01*
X633587Y1048825D01*
X632025Y1049472D01*
D02*
G37*
G36*
X619375Y1049972D02*
X617684D01*
X616122Y1049325D01*
X614927Y1048130D01*
X614280Y1046567D01*
Y1044877D01*
X614927Y1043315D01*
X614999Y1043242D01*
Y1031750D01*
X621999D01*
Y1043181D01*
X622133Y1043315D01*
X622780Y1044877D01*
Y1046567D01*
X622133Y1048130D01*
X620937Y1049325D01*
X619375Y1049972D01*
D02*
G37*
G36*
X606675D02*
X604984D01*
X603422Y1049325D01*
X602227Y1048130D01*
X601580Y1046567D01*
Y1044877D01*
X602227Y1043315D01*
X602299Y1043242D01*
Y1031750D01*
X609299D01*
Y1043181D01*
X609433Y1043315D01*
X610080Y1044877D01*
Y1046567D01*
X609433Y1048130D01*
X608237Y1049325D01*
X606675Y1049972D01*
D02*
G37*
G36*
X593975D02*
X592284D01*
X590722Y1049325D01*
X589527Y1048130D01*
X588880Y1046567D01*
Y1044877D01*
X589527Y1043315D01*
X589599Y1043242D01*
Y1031750D01*
X596599D01*
Y1043181D01*
X596733Y1043315D01*
X597380Y1044877D01*
Y1046567D01*
X596733Y1048130D01*
X595537Y1049325D01*
X593975Y1049972D01*
D02*
G37*
G36*
X581275D02*
X579584D01*
X578022Y1049325D01*
X576827Y1048130D01*
X576180Y1046567D01*
Y1044877D01*
X576827Y1043315D01*
X576899Y1043242D01*
Y1031750D01*
X583899D01*
Y1043181D01*
X584033Y1043315D01*
X584680Y1044877D01*
Y1046567D01*
X584033Y1048130D01*
X582837Y1049325D01*
X581275Y1049972D01*
D02*
G37*
G36*
X568375Y1049722D02*
X566684D01*
X565122Y1049075D01*
X563927Y1047879D01*
X563280Y1046317D01*
Y1044627D01*
X563927Y1043065D01*
X564199Y1042792D01*
Y1031750D01*
X571199D01*
Y1043225D01*
X571780Y1044627D01*
Y1046317D01*
X571133Y1047879D01*
X569937Y1049075D01*
X568375Y1049722D01*
D02*
G37*
G36*
X555675D02*
X553984D01*
X552422Y1049075D01*
X551227Y1047879D01*
X550580Y1046317D01*
Y1044627D01*
X551227Y1043065D01*
X551499Y1042792D01*
Y1031750D01*
X558499D01*
Y1043225D01*
X559080Y1044627D01*
Y1046317D01*
X558433Y1047879D01*
X557237Y1049075D01*
X555675Y1049722D01*
D02*
G37*
G36*
X542975D02*
X541284D01*
X539722Y1049075D01*
X538527Y1047879D01*
X537880Y1046317D01*
Y1044627D01*
X538527Y1043065D01*
X538799Y1042792D01*
Y1031750D01*
X545799D01*
Y1043225D01*
X546380Y1044627D01*
Y1046317D01*
X545733Y1047879D01*
X544537Y1049075D01*
X542975Y1049722D01*
D02*
G37*
G36*
X504925Y1049472D02*
X503234D01*
X501672Y1048825D01*
X500477Y1047629D01*
X499830Y1046067D01*
Y1044377D01*
X500477Y1042815D01*
X500699Y1042592D01*
Y1031750D01*
X507699D01*
Y1042855D01*
X508330Y1044377D01*
Y1046067D01*
X507683Y1047629D01*
X506487Y1048825D01*
X504925Y1049472D01*
D02*
G37*
G36*
X375725Y1049972D02*
X374034D01*
X372472Y1049325D01*
X371277Y1048130D01*
X370630Y1046567D01*
Y1044877D01*
X371277Y1043315D01*
X371450Y1043141D01*
Y1031750D01*
X378450D01*
Y1043282D01*
X378483Y1043315D01*
X379130Y1044877D01*
Y1046567D01*
X378483Y1048130D01*
X377287Y1049325D01*
X375725Y1049972D01*
D02*
G37*
G36*
X363025D02*
X361334D01*
X359772Y1049325D01*
X358577Y1048130D01*
X357930Y1046567D01*
Y1044877D01*
X358577Y1043315D01*
X358750Y1043141D01*
Y1031750D01*
X365750D01*
Y1043282D01*
X365783Y1043315D01*
X366430Y1044877D01*
Y1046567D01*
X365783Y1048130D01*
X364587Y1049325D01*
X363025Y1049972D01*
D02*
G37*
G36*
X325475Y1049472D02*
X323784D01*
X322222Y1048825D01*
X321027Y1047629D01*
X320380Y1046067D01*
Y1044377D01*
X320650Y1043724D01*
Y1031750D01*
X327650D01*
Y1042232D01*
X328233Y1042815D01*
X328880Y1044377D01*
Y1046067D01*
X328233Y1047629D01*
X327037Y1048825D01*
X325475Y1049472D01*
D02*
G37*
G36*
X312775D02*
X311084D01*
X309522Y1048825D01*
X308327Y1047629D01*
X307680Y1046067D01*
Y1044377D01*
X307950Y1043724D01*
Y1031750D01*
X314950D01*
Y1042232D01*
X315533Y1042815D01*
X316180Y1044377D01*
Y1046067D01*
X315533Y1047629D01*
X314337Y1048825D01*
X312775Y1049472D01*
D02*
G37*
G36*
X299970Y1049222D02*
X298280D01*
X296717Y1048575D01*
X295522Y1047380D01*
X294875Y1045817D01*
Y1044127D01*
X295250Y1043221D01*
Y1031750D01*
X302250D01*
Y1042087D01*
X302728Y1042565D01*
X303375Y1044127D01*
Y1045817D01*
X302728Y1047380D01*
X301532Y1048575D01*
X299970Y1049222D01*
D02*
G37*
G36*
X287675D02*
X285984D01*
X284422Y1048575D01*
X283227Y1047380D01*
X282759Y1046250D01*
X282550D01*
Y1031750D01*
X289550D01*
Y1041682D01*
X290433Y1042565D01*
X291080Y1044127D01*
Y1045817D01*
X290433Y1047380D01*
X289237Y1048575D01*
X287675Y1049222D01*
D02*
G37*
G36*
X274975D02*
X273284D01*
X271722Y1048575D01*
X270527Y1047380D01*
X270059Y1046250D01*
X269850D01*
Y1031750D01*
X276850D01*
Y1041682D01*
X277733Y1042565D01*
X278380Y1044127D01*
Y1045817D01*
X277733Y1047380D01*
X276537Y1048575D01*
X274975Y1049222D01*
D02*
G37*
G36*
X236425Y1049972D02*
X234734D01*
X233172Y1049325D01*
X231977Y1048130D01*
X231330Y1046567D01*
Y1044877D01*
X231750Y1043862D01*
Y1031750D01*
X238750D01*
Y1042882D01*
X239183Y1043315D01*
X239830Y1044877D01*
Y1046567D01*
X239183Y1048130D01*
X237987Y1049325D01*
X236425Y1049972D01*
D02*
G37*
G36*
X223725D02*
X222034D01*
X220472Y1049325D01*
X219277Y1048130D01*
X218630Y1046567D01*
Y1044877D01*
X219050Y1043862D01*
Y1031750D01*
X226050D01*
Y1042882D01*
X226483Y1043315D01*
X227130Y1044877D01*
Y1046567D01*
X226483Y1048130D01*
X225287Y1049325D01*
X223725Y1049972D01*
D02*
G37*
G36*
X211025D02*
X209334D01*
X207772Y1049325D01*
X206577Y1048130D01*
X205930Y1046567D01*
Y1044877D01*
X206350Y1043862D01*
Y1031750D01*
X213350D01*
Y1042882D01*
X213783Y1043315D01*
X214430Y1044877D01*
Y1046567D01*
X213783Y1048130D01*
X212587Y1049325D01*
X211025Y1049972D01*
D02*
G37*
G36*
X330078Y1024375D02*
X328387D01*
X326825Y1023728D01*
X325860Y1022763D01*
X325116Y1022627D01*
X324372Y1022763D01*
X323407Y1023728D01*
X321845Y1024375D01*
X320155D01*
X318593Y1023728D01*
X317397Y1022532D01*
X316750Y1020970D01*
Y1019279D01*
X317397Y1017718D01*
X318593Y1016522D01*
X320155Y1015875D01*
X321845D01*
X323407Y1016522D01*
X324372Y1017487D01*
X325116Y1017623D01*
X325860Y1017487D01*
X326825Y1016522D01*
X328387Y1015875D01*
X330078D01*
X331640Y1016522D01*
X332041Y1016923D01*
X332858Y1017697D01*
X333674Y1016923D01*
X334075Y1016522D01*
X335637Y1015875D01*
X337328D01*
X338890Y1016522D01*
X340086Y1017718D01*
X340733Y1019279D01*
Y1020970D01*
X340086Y1022532D01*
X338890Y1023728D01*
X337328Y1024375D01*
X335637D01*
X334075Y1023728D01*
X333674Y1023327D01*
X332858Y1022553D01*
X332041Y1023327D01*
X331640Y1023728D01*
X330078Y1024375D01*
D02*
G37*
G36*
X301345Y1023000D02*
X299655D01*
X298093Y1022353D01*
X296897Y1021157D01*
X296875Y1021105D01*
X295649Y1020861D01*
X295407Y1021103D01*
X293845Y1021750D01*
X292155D01*
X290593Y1021103D01*
X289397Y1019907D01*
X288750Y1018345D01*
Y1016655D01*
X289397Y1015093D01*
X290593Y1013897D01*
X292155Y1013250D01*
X293845D01*
X295407Y1013897D01*
X296603Y1015093D01*
X296625Y1015145D01*
X297851Y1015389D01*
X298093Y1015147D01*
X299655Y1014500D01*
X301345D01*
X302907Y1015147D01*
X304103Y1016343D01*
X304750Y1017905D01*
Y1019595D01*
X304103Y1021157D01*
X302907Y1022353D01*
X301345Y1023000D01*
D02*
G37*
G36*
X665845Y1029250D02*
X664155D01*
X662593Y1028603D01*
X661397Y1027407D01*
X660750Y1025845D01*
Y1024155D01*
X661397Y1022593D01*
X662593Y1021397D01*
X664155Y1020750D01*
X665845D01*
X667407Y1021397D01*
X668603Y1022593D01*
X669250Y1024155D01*
Y1025845D01*
X668603Y1027407D01*
X667407Y1028603D01*
X665845Y1029250D01*
D02*
G37*
G36*
X650845D02*
X649155D01*
X647593Y1028603D01*
X646397Y1027407D01*
X645750Y1025845D01*
Y1024155D01*
X646397Y1022593D01*
X647593Y1021397D01*
X649155Y1020750D01*
X650845D01*
X652407Y1021397D01*
X653603Y1022593D01*
X654250Y1024155D01*
Y1025845D01*
X653603Y1027407D01*
X652407Y1028603D01*
X650845Y1029250D01*
D02*
G37*
G36*
X545845D02*
X544155D01*
X542593Y1028603D01*
X541397Y1027407D01*
X540750Y1025845D01*
Y1024155D01*
X541397Y1022593D01*
X542593Y1021397D01*
X544155Y1020750D01*
X545845D01*
X547407Y1021397D01*
X548603Y1022593D01*
X549250Y1024155D01*
Y1025845D01*
X548603Y1027407D01*
X547407Y1028603D01*
X545845Y1029250D01*
D02*
G37*
G36*
X535845D02*
X534155D01*
X532593Y1028603D01*
X531397Y1027407D01*
X530750Y1025845D01*
Y1024155D01*
X531397Y1022593D01*
X532593Y1021397D01*
X534155Y1020750D01*
X535845D01*
X537407Y1021397D01*
X538603Y1022593D01*
X539250Y1024155D01*
Y1025845D01*
X538603Y1027407D01*
X537407Y1028603D01*
X535845Y1029250D01*
D02*
G37*
G36*
X630345Y1026000D02*
X628655D01*
X627093Y1025353D01*
X625897Y1024157D01*
X625250Y1022595D01*
Y1020905D01*
X625897Y1019343D01*
X627093Y1018147D01*
X628655Y1017500D01*
X630345D01*
X631907Y1018147D01*
X633103Y1019343D01*
X633750Y1020905D01*
Y1022595D01*
X633103Y1024157D01*
X631907Y1025353D01*
X630345Y1026000D01*
D02*
G37*
G36*
X506320Y1021775D02*
X504629D01*
X503067Y1021128D01*
X501872Y1019933D01*
X501225Y1018371D01*
Y1016680D01*
X501872Y1015118D01*
X503067Y1013922D01*
X504629Y1013275D01*
X506320D01*
X507882Y1013922D01*
X509078Y1015118D01*
X509725Y1016680D01*
Y1018371D01*
X509078Y1019933D01*
X507882Y1021128D01*
X506320Y1021775D01*
D02*
G37*
G36*
X683025Y1009972D02*
X681334D01*
X679772Y1009325D01*
X678577Y1008130D01*
X677930Y1006567D01*
Y1004877D01*
X678499Y1003501D01*
Y992750D01*
X685499D01*
Y1003031D01*
X685783Y1003315D01*
X686430Y1004877D01*
Y1006567D01*
X685783Y1008130D01*
X684587Y1009325D01*
X683025Y1009972D01*
D02*
G37*
G36*
X669875D02*
X668184D01*
X666622Y1009325D01*
X665427Y1008130D01*
X664780Y1006567D01*
Y1004877D01*
X665427Y1003315D01*
X665799Y1002942D01*
Y992750D01*
X672799D01*
Y1003717D01*
X673280Y1004877D01*
Y1006567D01*
X672633Y1008130D01*
X671437Y1009325D01*
X669875Y1009972D01*
D02*
G37*
G36*
X658115Y1019500D02*
X656424D01*
X654862Y1018853D01*
X653666Y1017657D01*
X653019Y1016095D01*
Y1014405D01*
X653666Y1012842D01*
X654862Y1011647D01*
X655888Y1011222D01*
X655639Y1009972D01*
X655484D01*
X653922Y1009325D01*
X652727Y1008130D01*
X652080Y1006567D01*
Y1004877D01*
X652727Y1003315D01*
X653099Y1002942D01*
Y992750D01*
X660099D01*
Y1003717D01*
X660580Y1004877D01*
Y1006567D01*
X659933Y1008130D01*
X658737Y1009325D01*
X657711Y1009750D01*
X657960Y1011000D01*
X658115D01*
X659677Y1011647D01*
X660872Y1012842D01*
X661519Y1014405D01*
Y1016095D01*
X660872Y1017657D01*
X659677Y1018853D01*
X658115Y1019500D01*
D02*
G37*
G36*
X643683Y1019088D02*
X641992D01*
X640431Y1018441D01*
X639235Y1017245D01*
X638588Y1015683D01*
Y1013992D01*
X639235Y1012430D01*
X640431Y1011235D01*
X641322Y1010866D01*
Y1009366D01*
X641222Y1009325D01*
X640027Y1008130D01*
X639380Y1006567D01*
Y1004877D01*
X640027Y1003315D01*
X640399Y1002942D01*
Y992750D01*
X647399D01*
Y1003717D01*
X647880Y1004877D01*
Y1006567D01*
X647233Y1008130D01*
X646037Y1009325D01*
X645145Y1009694D01*
Y1011194D01*
X645245Y1011235D01*
X646441Y1012430D01*
X647088Y1013992D01*
Y1015683D01*
X646441Y1017245D01*
X645245Y1018441D01*
X643683Y1019088D01*
D02*
G37*
G36*
X631775Y1009972D02*
X630084D01*
X628522Y1009325D01*
X627327Y1008130D01*
X626680Y1006567D01*
Y1004877D01*
X627327Y1003315D01*
X627699Y1002942D01*
Y992750D01*
X634699D01*
Y1003717D01*
X635180Y1004877D01*
Y1006567D01*
X634533Y1008130D01*
X633337Y1009325D01*
X631775Y1009972D01*
D02*
G37*
G36*
X619444Y1011250D02*
X617355D01*
X615426Y1010451D01*
X613949Y1008974D01*
X613150Y1007044D01*
Y1004956D01*
X613949Y1003026D01*
X614999Y1001976D01*
Y992750D01*
X621999D01*
Y1002175D01*
X622851Y1003026D01*
X623650Y1004956D01*
Y1007044D01*
X622851Y1008974D01*
X621374Y1010451D01*
X619444Y1011250D01*
D02*
G37*
G36*
X606425Y1009972D02*
X604734D01*
X603172Y1009325D01*
X601977Y1008130D01*
X601330Y1006567D01*
Y1004877D01*
X601977Y1003315D01*
X602299Y1002992D01*
Y992750D01*
X609299D01*
Y1003596D01*
X609830Y1004877D01*
Y1006567D01*
X609183Y1008130D01*
X607987Y1009325D01*
X606425Y1009972D01*
D02*
G37*
G36*
X593725D02*
X592034D01*
X590472Y1009325D01*
X589277Y1008130D01*
X588630Y1006567D01*
Y1004877D01*
X589277Y1003315D01*
X589599Y1002992D01*
Y992750D01*
X596599D01*
Y1003596D01*
X597130Y1004877D01*
Y1006567D01*
X596483Y1008130D01*
X595287Y1009325D01*
X593725Y1009972D01*
D02*
G37*
G36*
X581025D02*
X579334D01*
X577772Y1009325D01*
X576577Y1008130D01*
X575930Y1006567D01*
Y1004877D01*
X576577Y1003315D01*
X576899Y1002992D01*
Y992750D01*
X583899D01*
Y1003596D01*
X584430Y1004877D01*
Y1006567D01*
X583783Y1008130D01*
X582587Y1009325D01*
X581025Y1009972D01*
D02*
G37*
G36*
X568375Y1010472D02*
X566684D01*
X565122Y1009825D01*
X563927Y1008630D01*
X563280Y1007067D01*
Y1005377D01*
X563927Y1003815D01*
X564199Y1003542D01*
Y992750D01*
X571199D01*
Y1003976D01*
X571780Y1005377D01*
Y1007067D01*
X571133Y1008630D01*
X569937Y1009825D01*
X568375Y1010472D01*
D02*
G37*
G36*
X555675D02*
X553984D01*
X552422Y1009825D01*
X551227Y1008630D01*
X550580Y1007067D01*
Y1005377D01*
X551227Y1003815D01*
X551499Y1003542D01*
Y992750D01*
X558499D01*
Y1003976D01*
X559080Y1005377D01*
Y1007067D01*
X558433Y1008630D01*
X557237Y1009825D01*
X555675Y1010472D01*
D02*
G37*
G36*
X542975D02*
X541284D01*
X539722Y1009825D01*
X538527Y1008630D01*
X537880Y1007067D01*
Y1005377D01*
X538527Y1003815D01*
X538799Y1003542D01*
Y992750D01*
X545799D01*
Y1003976D01*
X546380Y1005377D01*
Y1007067D01*
X545733Y1008630D01*
X544537Y1009825D01*
X542975Y1010472D01*
D02*
G37*
G36*
X530275D02*
X528584D01*
X527022Y1009825D01*
X525827Y1008630D01*
X525180Y1007067D01*
Y1005377D01*
X525827Y1003815D01*
X526099Y1003542D01*
Y992750D01*
X533099D01*
Y1003976D01*
X533680Y1005377D01*
Y1007067D01*
X533033Y1008630D01*
X531837Y1009825D01*
X530275Y1010472D01*
D02*
G37*
G36*
X517625Y1010222D02*
X515934D01*
X514372Y1009575D01*
X513177Y1008380D01*
X512530Y1006817D01*
Y1005127D01*
X513177Y1003565D01*
X513399Y1003342D01*
Y992750D01*
X520399D01*
Y1003605D01*
X521030Y1005127D01*
Y1006817D01*
X520383Y1008380D01*
X519187Y1009575D01*
X517625Y1010222D01*
D02*
G37*
G36*
X504925Y1009525D02*
X503234D01*
X501672Y1008878D01*
X500477Y1007683D01*
X499830Y1006121D01*
Y1004430D01*
X500477Y1002868D01*
X500699Y1002645D01*
Y992750D01*
X507699D01*
Y1002908D01*
X508330Y1004430D01*
Y1006121D01*
X507683Y1007683D01*
X506487Y1008878D01*
X504925Y1009525D01*
D02*
G37*
G36*
X426975Y1009972D02*
X425284D01*
X423722Y1009325D01*
X422527Y1008130D01*
X421880Y1006567D01*
Y1004877D01*
X422250Y1003983D01*
Y992750D01*
X429250D01*
Y1002832D01*
X429733Y1003315D01*
X430380Y1004877D01*
Y1006567D01*
X429733Y1008130D01*
X428537Y1009325D01*
X426975Y1009972D01*
D02*
G37*
G36*
X414275D02*
X412584D01*
X411022Y1009325D01*
X409827Y1008130D01*
X409180Y1006567D01*
Y1004877D01*
X409550Y1003983D01*
Y992750D01*
X416550D01*
Y1002832D01*
X417033Y1003315D01*
X417680Y1004877D01*
Y1006567D01*
X417033Y1008130D01*
X415837Y1009325D01*
X414275Y1009972D01*
D02*
G37*
G36*
X401125Y1009500D02*
X399434D01*
X397872Y1008853D01*
X396677Y1007657D01*
X396030Y1006095D01*
Y1004405D01*
X396677Y1002842D01*
X396850Y1002669D01*
Y992750D01*
X403850D01*
Y1002810D01*
X403883Y1002842D01*
X404530Y1004405D01*
Y1006095D01*
X403883Y1007657D01*
X402687Y1008853D01*
X401125Y1009500D01*
D02*
G37*
G36*
X388425Y1010972D02*
X386734D01*
X385172Y1010325D01*
X383977Y1009129D01*
X383330Y1007567D01*
Y1005877D01*
X383977Y1004315D01*
X384150Y1004141D01*
Y992750D01*
X391150D01*
Y1004282D01*
X391183Y1004315D01*
X391830Y1005877D01*
Y1007567D01*
X391183Y1009129D01*
X389987Y1010325D01*
X388425Y1010972D01*
D02*
G37*
G36*
X375725D02*
X374034D01*
X372472Y1010325D01*
X371277Y1009129D01*
X370630Y1007567D01*
Y1005877D01*
X371277Y1004315D01*
X371450Y1004141D01*
Y992750D01*
X378450D01*
Y1004282D01*
X378483Y1004315D01*
X379130Y1005877D01*
Y1007567D01*
X378483Y1009129D01*
X377287Y1010325D01*
X375725Y1010972D01*
D02*
G37*
G36*
X363025D02*
X361334D01*
X359772Y1010325D01*
X358577Y1009129D01*
X357930Y1007567D01*
Y1005877D01*
X358577Y1004315D01*
X358750Y1004141D01*
Y992750D01*
X365750D01*
Y1004282D01*
X365783Y1004315D01*
X366430Y1005877D01*
Y1007567D01*
X365783Y1009129D01*
X364587Y1010325D01*
X363025Y1010972D01*
D02*
G37*
G36*
X350375Y1010222D02*
X348684D01*
X347122Y1009575D01*
X345927Y1008380D01*
X345280Y1006817D01*
Y1005127D01*
X345927Y1003565D01*
X346050Y1003441D01*
Y992750D01*
X353050D01*
Y1003482D01*
X353133Y1003565D01*
X353780Y1005127D01*
Y1006817D01*
X353133Y1008380D01*
X351937Y1009575D01*
X350375Y1010222D01*
D02*
G37*
G36*
X337675D02*
X335984D01*
X334422Y1009575D01*
X333227Y1008380D01*
X332580Y1006817D01*
Y1005127D01*
X333227Y1003565D01*
X333350Y1003441D01*
Y992750D01*
X340350D01*
Y1003482D01*
X340433Y1003565D01*
X341080Y1005127D01*
Y1006817D01*
X340433Y1008380D01*
X339237Y1009575D01*
X337675Y1010222D01*
D02*
G37*
G36*
X324975D02*
X323284D01*
X321722Y1009575D01*
X320527Y1008380D01*
X319880Y1006817D01*
Y1005127D01*
X320527Y1003565D01*
X320650Y1003441D01*
Y992750D01*
X327650D01*
Y1003482D01*
X327733Y1003565D01*
X328380Y1005127D01*
Y1006817D01*
X327733Y1008380D01*
X326537Y1009575D01*
X324975Y1010222D01*
D02*
G37*
G36*
X312275D02*
X310584D01*
X309022Y1009575D01*
X307827Y1008380D01*
X307180Y1006817D01*
Y1005127D01*
X307827Y1003565D01*
X307950Y1003441D01*
Y992750D01*
X314950D01*
Y1003482D01*
X315033Y1003565D01*
X315680Y1005127D01*
Y1006817D01*
X315033Y1008380D01*
X313837Y1009575D01*
X312275Y1010222D01*
D02*
G37*
G36*
X300125D02*
X298434D01*
X296872Y1009575D01*
X295677Y1008380D01*
X295030Y1006817D01*
Y1005127D01*
X295250Y1004595D01*
Y992750D01*
X302250D01*
Y1002932D01*
X302883Y1003565D01*
X303530Y1005127D01*
Y1006817D01*
X302883Y1008380D01*
X301687Y1009575D01*
X300125Y1010222D01*
D02*
G37*
G36*
X287425D02*
X285734D01*
X284172Y1009575D01*
X282977Y1008380D01*
X282330Y1006817D01*
Y1005127D01*
X282550Y1004595D01*
Y992750D01*
X289550D01*
Y1002932D01*
X290183Y1003565D01*
X290830Y1005127D01*
Y1006817D01*
X290183Y1008380D01*
X288987Y1009575D01*
X287425Y1010222D01*
D02*
G37*
G36*
X274725D02*
X273034D01*
X271472Y1009575D01*
X270277Y1008380D01*
X269630Y1006817D01*
Y1005127D01*
X269850Y1004595D01*
Y992750D01*
X276850D01*
Y1002932D01*
X277483Y1003565D01*
X278130Y1005127D01*
Y1006817D01*
X277483Y1008380D01*
X276287Y1009575D01*
X274725Y1010222D01*
D02*
G37*
G36*
X236295Y1010000D02*
X234605D01*
X233043Y1009353D01*
X231847Y1008157D01*
X231200Y1006595D01*
Y1004904D01*
X231750Y1003577D01*
Y992750D01*
X238750D01*
Y1003039D01*
X239053Y1003342D01*
X239700Y1004904D01*
Y1006595D01*
X239053Y1008157D01*
X237857Y1009353D01*
X236295Y1010000D01*
D02*
G37*
G36*
X223725Y1010472D02*
X222034D01*
X220472Y1009825D01*
X219277Y1008630D01*
X218630Y1007067D01*
Y1005377D01*
X219050Y1004362D01*
Y992750D01*
X226050D01*
Y1003382D01*
X226483Y1003815D01*
X227130Y1005377D01*
Y1007067D01*
X226483Y1008630D01*
X225287Y1009825D01*
X223725Y1010472D01*
D02*
G37*
G36*
X211025D02*
X209334D01*
X207772Y1009825D01*
X206577Y1008630D01*
X205930Y1007067D01*
Y1005377D01*
X206350Y1004362D01*
Y992750D01*
X213350D01*
Y1003382D01*
X213783Y1003815D01*
X214430Y1005377D01*
Y1007067D01*
X213783Y1008630D01*
X212587Y1009825D01*
X211025Y1010472D01*
D02*
G37*
%LPD*%
G36*
X501088Y1326569D02*
Y1320292D01*
X484796Y1304000D01*
X475222D01*
X474704Y1305250D01*
X496695Y1327242D01*
X497280Y1327000D01*
X498970D01*
X499838Y1327359D01*
X501088Y1326569D01*
D02*
G37*
G36*
X473965Y1303208D02*
X474000Y1303139D01*
Y1291500D01*
X478838D01*
Y1289750D01*
X478984Y1289019D01*
X479398Y1288398D01*
X485085Y1282711D01*
X485706Y1282296D01*
X485761Y1282285D01*
X490500Y1277546D01*
Y1270454D01*
X489255Y1269209D01*
X488841Y1268589D01*
X488695Y1267857D01*
Y1267037D01*
X474327D01*
X473596Y1266891D01*
X472975Y1266477D01*
X469935Y1263437D01*
X468175D01*
Y1268775D01*
X463644D01*
X462875Y1270025D01*
X463250Y1270930D01*
Y1272620D01*
X462603Y1274183D01*
X461407Y1275378D01*
X459845Y1276025D01*
X458155D01*
X456593Y1275378D01*
X455712Y1274497D01*
X454462Y1274942D01*
Y1298725D01*
X468175D01*
Y1304063D01*
X472725D01*
X472780Y1304074D01*
X473965Y1303208D01*
D02*
G37*
G36*
X495088Y1262058D02*
X494593Y1261853D01*
X493397Y1260657D01*
X492750Y1259095D01*
Y1257405D01*
X492955Y1256909D01*
X492083Y1256037D01*
X488923D01*
X488192Y1255891D01*
X487571Y1255477D01*
X483131Y1251037D01*
X474327D01*
X473596Y1250891D01*
X472975Y1250477D01*
X470250Y1247751D01*
X469000Y1248269D01*
Y1248470D01*
X468353Y1250032D01*
X467157Y1251228D01*
X465595Y1251875D01*
X463905D01*
X462343Y1251228D01*
X461147Y1250032D01*
X460500Y1248470D01*
Y1246780D01*
X461147Y1245218D01*
X462343Y1244022D01*
X463905Y1243375D01*
X464106D01*
X464624Y1242125D01*
X446535Y1224037D01*
X441500D01*
X441315Y1224000D01*
X431787D01*
Y1235250D01*
X443750D01*
Y1244647D01*
X453379Y1254275D01*
X468175D01*
Y1259613D01*
X470727D01*
X471459Y1259759D01*
X472079Y1260173D01*
X475119Y1263213D01*
X489625D01*
X490356Y1263359D01*
X490976Y1263773D01*
X491959Y1264756D01*
X492373Y1265376D01*
X492519Y1266107D01*
Y1266750D01*
X495088D01*
Y1262058D01*
D02*
G37*
%LPC*%
G36*
X468845Y1289625D02*
X467155D01*
X465593Y1288978D01*
X464397Y1287782D01*
X463750Y1286220D01*
Y1284530D01*
X464397Y1282968D01*
X465593Y1281772D01*
X467155Y1281125D01*
X468845D01*
X470407Y1281772D01*
X471603Y1282968D01*
X472250Y1284530D01*
Y1286220D01*
X471603Y1287782D01*
X470407Y1288978D01*
X468845Y1289625D01*
D02*
G37*
%LPD*%
G36*
X439750Y1094750D02*
X444338D01*
Y1088360D01*
X444000Y1087250D01*
X421500D01*
Y1086161D01*
X419500D01*
Y1089000D01*
X411872D01*
X411493Y1090250D01*
X411751Y1090422D01*
X413102Y1091773D01*
X413516Y1092393D01*
X413662Y1093125D01*
Y1093750D01*
X418000D01*
Y1103911D01*
X418673Y1104463D01*
X439750D01*
Y1094750D01*
D02*
G37*
D10*
X289000Y1352250D02*
G03*
X289000Y1352250I-1000J0D01*
G01*
X265000Y1135000D02*
G03*
X265000Y1135000I-1000J0D01*
G01*
X480400Y1303650D02*
G03*
X480400Y1303650I-1000J0D01*
G01*
X330250Y1067650D02*
G03*
X330250Y1067650I-1000J0D01*
G01*
X605210Y1234250D02*
G03*
X605210Y1234250I-1000J0D01*
G01*
D11*
X202000Y1275550D02*
Y1364950D01*
Y1275550D02*
X275500D01*
Y1364950D01*
X202000D02*
X275500D01*
X206900Y1230250D02*
Y1375250D01*
X256700Y1160300D02*
X277300D01*
X256700Y1139700D02*
Y1160300D01*
Y1139700D02*
X277300D01*
Y1160300D01*
X473950Y1324150D02*
Y1363150D01*
X522950D01*
Y1324150D02*
Y1363150D01*
X473950Y1324150D02*
X522950D01*
X516750Y1091049D02*
Y1291049D01*
X316750Y1091049D02*
Y1291049D01*
X516750D01*
X316750Y1091049D02*
X516750D01*
X598000Y1228250D02*
X643000D01*
X598000Y1198250D02*
Y1228250D01*
Y1198250D02*
X643000D01*
Y1228250D01*
X654000Y1200250D02*
Y1225250D01*
X624000Y1200250D02*
X654000D01*
X624000D02*
Y1225250D01*
X654000D01*
X427750Y1090000D02*
X477750D01*
X427750Y1058000D02*
X477750D01*
Y1090000D01*
X427750Y1058000D02*
Y1090000D01*
X683800Y1204950D02*
Y1220550D01*
X668200D02*
X683800D01*
X668200Y1204950D02*
Y1220550D01*
Y1204950D02*
X683800D01*
X584500Y1225250D02*
X614500D01*
X584500Y1200250D02*
Y1225250D01*
Y1200250D02*
X614500D01*
Y1225250D01*
D12*
X1574749Y967678D02*
X1581820Y981820D01*
X1567678Y974749D02*
X1581820Y981820D01*
X1550000Y950000D02*
X1695964Y1095964D01*
X1727251D01*
X1518180Y918180D02*
X1525251Y932322D01*
X1518180Y918180D02*
X1532322Y925251D01*
X1518180Y918180D02*
X1550000Y950000D01*
X209000Y1268250D02*
X215094D01*
Y1265203D01*
X214078Y1264187D01*
X212047D01*
X211031Y1265203D01*
Y1268250D01*
X214078Y1258093D02*
X215094Y1259109D01*
Y1261140D01*
X214078Y1262156D01*
X210016D01*
X209000Y1261140D01*
Y1259109D01*
X210016Y1258093D01*
X215094Y1256062D02*
X209000D01*
Y1253015D01*
X210016Y1251999D01*
X211031D01*
X212047Y1253015D01*
Y1256062D01*
Y1253015D01*
X213063Y1251999D01*
X214078D01*
X215094Y1253015D01*
Y1256062D01*
Y1239811D02*
Y1243874D01*
X209000D01*
Y1239811D01*
X212047Y1243874D02*
Y1241843D01*
X215094Y1237780D02*
X209000D01*
Y1234733D01*
X210016Y1233717D01*
X214078D01*
X215094Y1234733D01*
Y1237780D01*
X214078Y1227623D02*
X215094Y1228639D01*
Y1230670D01*
X214078Y1231686D01*
X210016D01*
X209000Y1230670D01*
Y1228639D01*
X210016Y1227623D01*
X212047D01*
Y1229654D01*
X215094Y1221529D02*
Y1225592D01*
X209000D01*
Y1221529D01*
X212047Y1225592D02*
Y1223560D01*
D14*
X659750Y1221750D02*
G03*
X659750Y1221750I-750J0D01*
G01*
X689750Y1218750D02*
G03*
X689750Y1218750I-750J0D01*
G01*
X620250Y1221750D02*
G03*
X620250Y1221750I-750J0D01*
G01*
D15*
X0Y-0D02*
X1600000D01*
Y1000000D01*
X0D02*
X1600000D01*
X0Y-0D02*
Y1000000D01*
X1800000D02*
X1805667Y983000D01*
X1794333D02*
X1800000Y1000000D01*
X1794333Y17000D02*
X1800000Y-0D01*
X1805667Y17000D01*
X1800000Y500000D02*
Y1000000D01*
Y-0D02*
Y500000D01*
X1603750Y1000000D02*
X1802500D01*
X1603750Y-0D02*
X1802500D01*
X0Y1100000D02*
X17000Y1105667D01*
X0Y1100000D02*
X17000Y1094333D01*
X1583000D02*
X1600000Y1100000D01*
X1583000Y1105667D02*
X1600000Y1100000D01*
X0D02*
X800000D01*
X1600000D01*
X0Y1003750D02*
Y1102500D01*
X1600000Y1003750D02*
Y1102500D01*
D16*
X1732290Y1084443D02*
X1737288D01*
X1739787Y1086942D01*
Y1091941D01*
X1737288Y1094440D01*
X1732290D01*
X1729791Y1091941D01*
Y1086942D01*
X1732290Y1084443D01*
X1759781Y1086942D02*
X1762280Y1084443D01*
X1767279D01*
X1769778Y1086942D01*
Y1096939D01*
X1767279Y1099438D01*
X1762280D01*
X1759781Y1096939D01*
Y1094440D01*
X1762280Y1091941D01*
X1769778D01*
X1777275Y1081944D02*
X1779775Y1084443D01*
Y1086942D01*
X1777275D01*
Y1084443D01*
X1779775D01*
X1777275Y1081944D01*
X1774776Y1079445D01*
X1789771Y1096939D02*
X1792271Y1099438D01*
X1797269D01*
X1799768Y1096939D01*
Y1086942D01*
X1797269Y1084443D01*
X1792271D01*
X1789771Y1086942D01*
Y1096939D01*
X1804767D02*
X1807266Y1099438D01*
X1812264D01*
X1814763Y1096939D01*
Y1086942D01*
X1812264Y1084443D01*
X1807266D01*
X1804767Y1086942D01*
Y1096939D01*
X1819762Y1084443D02*
Y1094440D01*
X1822261D01*
X1824760Y1091941D01*
Y1084443D01*
Y1091941D01*
X1827259Y1094440D01*
X1829758Y1091941D01*
Y1084443D01*
X1834757D02*
Y1094440D01*
X1837256D01*
X1839755Y1091941D01*
Y1084443D01*
Y1091941D01*
X1842254Y1094440D01*
X1844754Y1091941D01*
Y1084443D01*
X754040Y1123361D02*
X759118D01*
X756579D01*
Y1138596D01*
X754040Y1136057D01*
X776892Y1138596D02*
X771814Y1136057D01*
X766736Y1130979D01*
Y1125901D01*
X769275Y1123361D01*
X774353D01*
X776892Y1125901D01*
Y1128440D01*
X774353Y1130979D01*
X766736D01*
X781971Y1136057D02*
X784510Y1138596D01*
X789588D01*
X792127Y1136057D01*
Y1125901D01*
X789588Y1123361D01*
X784510D01*
X781971Y1125901D01*
Y1136057D01*
X799745Y1120822D02*
X802284Y1123361D01*
Y1125901D01*
X799745D01*
Y1123361D01*
X802284D01*
X799745Y1120822D01*
X797206Y1118283D01*
X812441Y1136057D02*
X814980Y1138596D01*
X820058D01*
X822598Y1136057D01*
Y1125901D01*
X820058Y1123361D01*
X814980D01*
X812441Y1125901D01*
Y1136057D01*
X827676D02*
X830215Y1138596D01*
X835293D01*
X837833Y1136057D01*
Y1125901D01*
X835293Y1123361D01*
X830215D01*
X827676Y1125901D01*
Y1136057D01*
D17*
X1776647Y454044D02*
Y459122D01*
Y456583D01*
X1761411D01*
X1763951Y454044D01*
Y466739D02*
X1761411Y469278D01*
Y474357D01*
X1763951Y476896D01*
X1774107D01*
X1776647Y474357D01*
Y469278D01*
X1774107Y466739D01*
X1763951D01*
Y481974D02*
X1761411Y484514D01*
Y489592D01*
X1763951Y492131D01*
X1774107D01*
X1776647Y489592D01*
Y484514D01*
X1774107Y481974D01*
X1763951D01*
X1779186Y499749D02*
X1776647Y502288D01*
X1774107D01*
Y499749D01*
X1776647D01*
Y502288D01*
X1779186Y499749D01*
X1781725Y497210D01*
X1763951Y512445D02*
X1761411Y514984D01*
Y520062D01*
X1763951Y522601D01*
X1774107D01*
X1776647Y520062D01*
Y514984D01*
X1774107Y512445D01*
X1763951D01*
Y527680D02*
X1761411Y530219D01*
Y535297D01*
X1763951Y537836D01*
X1774107D01*
X1776647Y535297D01*
Y530219D01*
X1774107Y527680D01*
X1763951D01*
D18*
X345250Y1058250D02*
Y1066250D01*
Y1058250D02*
X361250D01*
Y1066250D01*
X345250D02*
X361250D01*
X643750Y1348250D02*
Y1364250D01*
X651750D01*
Y1348250D02*
Y1364250D01*
X643750Y1348250D02*
X651750D01*
X283750Y1303750D02*
X291750D01*
Y1319750D01*
X283750D02*
X291750D01*
X283750Y1303750D02*
Y1319750D01*
X608500Y1100750D02*
X672500D01*
X608500D02*
Y1130750D01*
X672500D01*
Y1100750D02*
Y1130750D01*
X608500Y1290000D02*
X672500D01*
X608500D02*
Y1320000D01*
X672500D01*
Y1290000D02*
Y1320000D01*
X544000Y1127750D02*
Y1135750D01*
Y1127750D02*
X560000D01*
Y1135750D01*
X544000D02*
X560000D01*
X734250Y1079000D02*
Y1129000D01*
X699250Y1079000D02*
Y1129000D01*
X734250D01*
X699250Y1079000D02*
X734250D01*
X701500Y1304500D02*
X736500D01*
X701500Y1354500D02*
X736500D01*
X701500Y1304500D02*
Y1354500D01*
X736500Y1304500D02*
Y1354500D01*
X397750Y1058250D02*
Y1066250D01*
X381750D02*
X397750D01*
X381750Y1058250D02*
Y1066250D01*
Y1058250D02*
X397750D01*
X560250Y1109750D02*
Y1117750D01*
X544250D02*
X560250D01*
X544250Y1109750D02*
Y1117750D01*
Y1109750D02*
X560250D01*
X631750Y1252500D02*
X647750D01*
X631750D02*
Y1260500D01*
X647750D01*
Y1252500D02*
Y1260500D01*
X417000Y1366750D02*
X433000D01*
X417000Y1374750D02*
X433000D01*
X417000Y1366750D02*
Y1374750D01*
X433000Y1366750D02*
Y1374750D01*
X538750Y1339750D02*
X554750D01*
X538750Y1331750D02*
X554750D01*
Y1339750D01*
X538750Y1331750D02*
Y1339750D01*
Y1315750D02*
X554750D01*
X538750Y1323750D02*
X554750D01*
X538750Y1315750D02*
Y1323750D01*
X554750Y1315750D02*
Y1323750D01*
X539250Y1364250D02*
X555250D01*
X539250D02*
Y1372250D01*
X555250D01*
Y1364250D02*
Y1372250D01*
X538750Y1355750D02*
X554750D01*
Y1347750D02*
Y1355750D01*
X538750Y1347750D02*
X554750D01*
X538750D02*
Y1355750D01*
X288750Y1340000D02*
X304750D01*
Y1332000D02*
Y1340000D01*
X288750Y1332000D02*
X304750D01*
X288750D02*
Y1340000D01*
X276000Y1167000D02*
X292000D01*
X276000Y1175000D02*
X292000D01*
X276000Y1167000D02*
Y1175000D01*
X292000Y1167000D02*
Y1175000D01*
X588250Y1271750D02*
X596250D01*
X588250Y1255750D02*
X596250D01*
X588250D02*
Y1271750D01*
X596250Y1255750D02*
Y1271750D01*
X604250D02*
X612250D01*
X604250Y1255750D02*
X612250D01*
X604250D02*
Y1271750D01*
X612250Y1255750D02*
Y1271750D01*
X647000Y1163000D02*
Y1171000D01*
X631000D02*
X647000D01*
X631000Y1163000D02*
Y1171000D01*
Y1163000D02*
X647000D01*
X685250Y1274500D02*
X693250D01*
X685250Y1258500D02*
X693250D01*
X685250D02*
Y1274500D01*
X693250Y1258500D02*
Y1274500D01*
X668750D02*
X676750D01*
X668750Y1258500D02*
X676750D01*
X668750D02*
Y1274500D01*
X676750Y1258500D02*
Y1274500D01*
X543750Y1144500D02*
Y1152500D01*
Y1144500D02*
X559750D01*
Y1152500D01*
X543750D02*
X559750D01*
X544500Y1159750D02*
Y1167750D01*
Y1159750D02*
X560500D01*
Y1167750D01*
X544500D02*
X560500D01*
X544250Y1175750D02*
Y1183750D01*
Y1175750D02*
X560250D01*
Y1183750D01*
X544250D02*
X560250D01*
X677500Y1176000D02*
X693500D01*
X677500Y1144000D02*
X693500D01*
X677500D02*
Y1176000D01*
X693500Y1144000D02*
Y1176000D01*
X661750Y1167000D02*
X669750D01*
X661750Y1151000D02*
X669750D01*
X661750D02*
Y1167000D01*
X669750Y1151000D02*
Y1167000D01*
X691750Y1364750D02*
X699750D01*
X691750Y1348750D02*
Y1364750D01*
Y1348750D02*
X699750D01*
Y1364750D01*
X262250Y1102750D02*
X270250D01*
X262250Y1118750D02*
X270250D01*
Y1102750D02*
Y1118750D01*
X262250Y1102750D02*
Y1118750D01*
X278500Y1102750D02*
X286500D01*
X278500Y1118750D02*
X286500D01*
Y1102750D02*
Y1118750D01*
X278500Y1102750D02*
Y1118750D01*
X651750Y1080250D02*
X659750D01*
X651750Y1064250D02*
Y1080250D01*
Y1064250D02*
X659750D01*
Y1080250D01*
X682750Y1064750D02*
X690750D01*
Y1080750D01*
X682750D02*
X690750D01*
X682750Y1064750D02*
Y1080750D01*
X543500Y1344750D02*
X573500D01*
X543500Y1356750D02*
X573500D01*
Y1344750D02*
Y1356750D01*
X543500Y1344750D02*
Y1356750D01*
X560975Y1362750D02*
X560975Y1356750D01*
X555975Y1362750D02*
X560975D01*
X555975Y1356750D02*
X555975Y1362750D01*
X546450Y1344750D02*
X546450Y1338750D01*
X551450D01*
X551450Y1344750D01*
X570500Y1338750D02*
X570500Y1344750D01*
X565500Y1338750D02*
X570500D01*
X565500Y1344750D02*
X565500Y1338750D01*
X680500Y1058250D02*
Y1088250D01*
X668500Y1058250D02*
Y1088250D01*
X680500D01*
X668500Y1058250D02*
X680500D01*
X662500Y1075725D02*
X668500Y1075725D01*
X662500Y1070725D02*
Y1075725D01*
Y1070725D02*
X668500Y1070725D01*
X680500Y1061200D02*
X686500Y1061200D01*
Y1066200D01*
X680500Y1066200D02*
X686500Y1066200D01*
X680500Y1085250D02*
X686500Y1085250D01*
Y1080250D02*
Y1085250D01*
X680500Y1080250D02*
X686500Y1080250D01*
X574250Y1055750D02*
Y1085750D01*
X586250Y1055750D02*
Y1085750D01*
X574250Y1055750D02*
X586250D01*
X574250Y1085750D02*
X586250D01*
Y1068275D02*
X592250Y1068275D01*
Y1073275D01*
X586250Y1073275D02*
X592250Y1073275D01*
X568250Y1082800D02*
X574250Y1082800D01*
X568250Y1077800D02*
Y1082800D01*
Y1077800D02*
X574250Y1077800D01*
X568250Y1058750D02*
X574250Y1058750D01*
X568250Y1058750D02*
Y1063750D01*
X574250Y1063750D01*
X653750Y1345500D02*
Y1375500D01*
X665750Y1345500D02*
Y1375500D01*
X653750Y1345500D02*
X665750D01*
X653750Y1375500D02*
X665750D01*
Y1358025D02*
X671750Y1358025D01*
Y1363025D01*
X665750Y1363025D02*
X671750Y1363025D01*
X647750Y1372550D02*
X653750Y1372550D01*
X647750Y1367550D02*
Y1372550D01*
Y1367550D02*
X653750Y1367550D01*
X647750Y1348500D02*
X653750Y1348500D01*
X647750Y1348500D02*
Y1353500D01*
X653750Y1353500D01*
X298250Y1370250D02*
X326250D01*
X298250Y1354250D02*
X326250D01*
X331250Y1366250D02*
X331250Y1358250D01*
X326250D02*
X331250D01*
X326250Y1366250D02*
X331250D01*
X303250Y1359250D02*
Y1365250D01*
X300250Y1362250D02*
X306250D01*
X298250Y1354250D02*
Y1370250D01*
X326250Y1354250D02*
Y1370250D01*
X293250Y1358250D02*
X298250D01*
X293250Y1366250D02*
X298250D01*
X293250D02*
X293250Y1358250D01*
X608500Y1130750D02*
X672500D01*
X608500Y1100750D02*
Y1130750D01*
Y1100750D02*
X672500D01*
Y1130750D01*
X608500Y1320000D02*
X672500D01*
X608500Y1290000D02*
Y1320000D01*
Y1290000D02*
X672500D01*
Y1320000D01*
X409250Y1081750D02*
X417250D01*
X409250Y1065750D02*
X417250D01*
Y1081750D01*
X409250Y1065750D02*
Y1081750D01*
X233750Y1244250D02*
X241750D01*
X233750D02*
Y1260250D01*
X241750D01*
Y1244250D02*
Y1260250D01*
X250000Y1244750D02*
X258000D01*
X250000D02*
Y1260750D01*
X258000D01*
Y1244750D02*
Y1260750D01*
X480750Y1269000D02*
Y1277000D01*
X496750Y1269000D02*
Y1277000D01*
X480750D02*
X496750D01*
X480750Y1269000D02*
X496750D01*
X364300Y1251250D02*
X441800D01*
X364300Y1316250D02*
X441800D01*
X364300Y1251250D02*
Y1316250D01*
X441800Y1251250D02*
Y1316250D01*
X407750Y1117000D02*
X415750D01*
Y1101000D02*
Y1117000D01*
X407750Y1101000D02*
X415750D01*
X407750D02*
Y1117000D01*
X647750Y1252500D02*
Y1260500D01*
X631750Y1252500D02*
X647750D01*
X631750D02*
Y1260500D01*
X647750D01*
X647000Y1163000D02*
Y1171000D01*
X631000Y1163000D02*
X647000D01*
X631000D02*
Y1171000D01*
X647000D01*
X281750Y1260500D02*
X289750D01*
X281750Y1244500D02*
X289750D01*
Y1260500D01*
X281750Y1244500D02*
Y1260500D01*
X488500Y1065750D02*
Y1081750D01*
X496500Y1065750D02*
Y1081750D01*
X488500Y1065750D02*
X496500D01*
X488500Y1081750D02*
X496500D01*
X420500Y1245500D02*
X436500D01*
X420500Y1237500D02*
Y1245500D01*
Y1237500D02*
X436500D01*
Y1245500D01*
X402000Y1101500D02*
Y1117500D01*
X394000D02*
X402000D01*
X394000Y1101500D02*
Y1117500D01*
Y1101500D02*
X402000D01*
X387750Y1101500D02*
Y1117500D01*
X379750D02*
X387750D01*
X379750Y1101500D02*
Y1117500D01*
Y1101500D02*
X387750D01*
X373000Y1101250D02*
Y1117250D01*
X365000D02*
X373000D01*
X365000Y1101250D02*
Y1117250D01*
Y1101250D02*
X373000D01*
X612750Y1155500D02*
Y1171500D01*
X604750Y1155500D02*
Y1171500D01*
X612750D01*
X604750Y1155500D02*
X612750D01*
X596250D02*
Y1171500D01*
X588250Y1155500D02*
Y1171500D01*
X596250D01*
X588250Y1155500D02*
X596250D01*
X542250Y1224500D02*
X558250D01*
X542250Y1232500D02*
X558250D01*
Y1224500D02*
Y1232500D01*
X542250Y1224500D02*
Y1232500D01*
X481000Y1230750D02*
X497000D01*
X481000Y1222750D02*
X497000D01*
X481000D02*
Y1230750D01*
X497000Y1222750D02*
Y1230750D01*
X669000Y1258500D02*
Y1274500D01*
X677000Y1258500D02*
Y1274500D01*
X669000Y1258500D02*
X677000D01*
X669000Y1274500D02*
X677000D01*
X684925Y1258476D02*
Y1274477D01*
X692925Y1258476D02*
Y1274477D01*
X684925Y1258476D02*
X692925D01*
X684925Y1274477D02*
X692925D01*
X266000Y1244750D02*
Y1260750D01*
Y1244750D02*
X274000D01*
Y1260750D01*
X266000D02*
X274000D01*
X225500Y1244750D02*
Y1260750D01*
X217500D02*
X225500D01*
X217500Y1244750D02*
Y1260750D01*
Y1244750D02*
X225500D01*
X222750Y1317000D02*
X238750D01*
X222750Y1309000D02*
Y1317000D01*
Y1309000D02*
X238750D01*
Y1317000D01*
X222500Y1349500D02*
X238500D01*
X222500Y1341500D02*
Y1349500D01*
Y1341500D02*
X238500D01*
Y1349500D01*
X222750Y1301000D02*
X238750D01*
X222750Y1293000D02*
Y1301000D01*
Y1293000D02*
X238750D01*
Y1301000D01*
X222750Y1333250D02*
X238750D01*
X222750Y1325250D02*
Y1333250D01*
Y1325250D02*
X238750D01*
Y1333250D01*
X339500Y1101250D02*
Y1117250D01*
X347500Y1101250D02*
Y1117250D01*
X339500Y1101250D02*
X347500D01*
X339500Y1117250D02*
X347500D01*
X487250Y1174750D02*
X503250D01*
X487250Y1182750D02*
X503250D01*
Y1174750D02*
Y1182750D01*
X487250Y1174750D02*
Y1182750D01*
X485500Y1347500D02*
X501500D01*
X485500Y1339500D02*
X501500D01*
X485500D02*
Y1347500D01*
X501500Y1339500D02*
Y1347500D01*
X481250Y1301750D02*
X497250D01*
X481250Y1293750D02*
X497250D01*
X481250D02*
Y1301750D01*
X497250Y1293750D02*
Y1301750D01*
X450000Y1102000D02*
Y1118000D01*
X442000Y1102000D02*
Y1118000D01*
X450000D01*
X442000Y1102000D02*
X450000D01*
X543999Y1117750D02*
X560000D01*
X543999Y1109750D02*
X560000D01*
X543999D02*
Y1117750D01*
X560000Y1109750D02*
Y1117750D01*
X330750Y1321250D02*
X346750D01*
X330750Y1329250D02*
X346750D01*
Y1321250D02*
Y1329250D01*
X330750Y1321250D02*
Y1329250D01*
X328500Y1223000D02*
Y1239000D01*
X320500Y1223000D02*
Y1239000D01*
X328500D01*
X320500Y1223000D02*
X328500D01*
X419000Y1327500D02*
Y1343500D01*
X411000Y1327500D02*
Y1343500D01*
X419000D01*
X411000Y1327500D02*
X419000D01*
X320250Y1259750D02*
Y1275750D01*
X328250Y1259750D02*
Y1275750D01*
X320250Y1259750D02*
X328250D01*
X320250Y1275750D02*
X328250D01*
X469750Y1102000D02*
Y1118000D01*
X477750Y1102000D02*
Y1118000D01*
X469750Y1102000D02*
X477750D01*
X469750Y1118000D02*
X477750D01*
X677000Y1155750D02*
Y1171750D01*
X669000Y1155750D02*
Y1171750D01*
X677000D01*
X669000Y1155750D02*
X677000D01*
X485250Y1102000D02*
Y1118000D01*
X493250Y1102000D02*
Y1118000D01*
X485250Y1102000D02*
X493250D01*
X485250Y1118000D02*
X493250D01*
X692750Y1155500D02*
Y1171500D01*
X684750Y1155500D02*
Y1171500D01*
X692750D01*
X684750Y1155500D02*
X692750D01*
X714500Y1188250D02*
Y1204250D01*
Y1188250D02*
X722500D01*
Y1204250D01*
X714500D02*
X722500D01*
X722000Y1238500D02*
Y1254500D01*
X714000D02*
X722000D01*
X714000Y1238500D02*
Y1254500D01*
Y1238500D02*
X722000D01*
X421000Y1221750D02*
X437000D01*
X421000Y1213750D02*
Y1221750D01*
Y1213750D02*
X437000D01*
Y1221750D01*
D19*
X672975Y1392423D02*
Y1398423D01*
X472500Y1392000D02*
X474725Y1394225D01*
X672023Y1399375D02*
X672975Y1398423D01*
X474725Y1394225D02*
Y1398423D01*
X475677Y1399375D01*
X485500Y1405000D02*
X660399D01*
X672975Y1392423D02*
X674273Y1391125D01*
X479875Y1399375D02*
X485500Y1405000D01*
X475677Y1399375D02*
X479875D01*
X666023D02*
X672023D01*
X660399Y1405000D02*
X666023Y1399375D01*
X359875Y1020125D02*
X406296D01*
X346627Y1031375D02*
X348625D01*
X338475Y1039625D02*
X340375D01*
X348625Y1031375D02*
X359875Y1020125D01*
X340375Y1039625D02*
X343501Y1036499D01*
Y1034501D02*
Y1036499D01*
Y1034501D02*
X346627Y1031375D01*
X406296Y1020125D02*
X412546Y1026375D01*
X643234Y1006118D02*
Y1014442D01*
Y1006118D02*
X643630Y1005722D01*
X642838Y1014838D02*
X643234Y1014442D01*
X647250Y1352000D02*
X647750Y1351500D01*
X618250Y1352000D02*
X647250D01*
X343250Y1134625D02*
X348125Y1139500D01*
X588250Y1057750D02*
X592250Y1061750D01*
Y1070750D01*
X282875Y1169945D02*
X299500Y1153320D01*
X285375Y1170981D02*
Y1176805D01*
X305000Y1158250D02*
X323250D01*
X282875Y1169945D02*
Y1175769D01*
X299500Y1145285D02*
Y1153320D01*
X292500Y1170750D02*
X305000Y1158250D01*
X285375Y1170981D02*
X302000Y1154356D01*
Y1146321D02*
Y1154356D01*
X627910Y1085125D02*
X659990D01*
X624250Y1082750D02*
X625535D01*
X662865Y1082250D02*
X686500D01*
X659990Y1085125D02*
X662865Y1082250D01*
X625535Y1082750D02*
X627910Y1085125D01*
X623125Y1076375D02*
X639731D01*
X660375Y1075375D02*
X662500Y1073250D01*
X640731Y1075375D02*
X660375D01*
X639731Y1076375D02*
X640731Y1075375D01*
X617500Y1070750D02*
X623125Y1076375D01*
X635702Y1369250D02*
X644452Y1360500D01*
X629750Y1369250D02*
X635702D01*
X644452Y1360500D02*
X671750D01*
X591750Y1352750D02*
X602500Y1342000D01*
X568500Y1352750D02*
X591750D01*
X558500Y1362750D02*
X568500Y1352750D01*
X571875Y1334375D02*
X576303D01*
X567500Y1338750D02*
X571875Y1334375D01*
X576303D02*
X576564Y1334114D01*
X497250Y1273000D02*
X500000Y1275750D01*
X497000Y1272000D02*
X497750Y1272750D01*
X497000Y1258250D02*
Y1272000D01*
X272678Y1089428D02*
X275481Y1086625D01*
X330773D01*
X335199Y1091051D01*
X606000Y1119250D02*
Y1137250D01*
Y1119250D02*
X609500Y1115750D01*
X611250Y1303250D02*
X628500D01*
X609500Y1305000D02*
X611250Y1303250D01*
X472725Y1305975D02*
X498000Y1331250D01*
X498125D01*
X410875Y1050375D02*
X411425D01*
X404125Y1057125D02*
X410875Y1050375D01*
X404125Y1057125D02*
Y1074875D01*
X411425Y1050375D02*
X413430Y1048370D01*
Y1045472D02*
Y1048370D01*
X406625Y1059077D02*
X407577Y1058125D01*
X414875D01*
X406625Y1059077D02*
Y1071423D01*
X426130Y1045472D02*
Y1048321D01*
X406625Y1071423D02*
X406625Y1071423D01*
X422674Y1050326D02*
X424125D01*
X406625Y1071423D02*
Y1090423D01*
X424125Y1050326D02*
X426130Y1048321D01*
X398000Y1081000D02*
X404125Y1074875D01*
X414875Y1058125D02*
X422674Y1050326D01*
X608625Y1241465D02*
Y1242750D01*
X611250Y1220875D02*
Y1238840D01*
X611125Y1220750D02*
X611250Y1220875D01*
X623375Y1277750D02*
X630750D01*
X611125Y1220250D02*
Y1220750D01*
X623375Y1244875D02*
X630490D01*
X608625Y1241465D02*
X611250Y1238840D01*
X250875Y1069013D02*
X252750Y1070888D01*
X250875Y1051232D02*
Y1069013D01*
X249575Y1050375D02*
X250018D01*
X248280Y1049080D02*
X249575Y1050375D01*
X250018D02*
X250875Y1051232D01*
X248280Y1006222D02*
Y1049080D01*
X681900Y1389401D02*
Y1425000D01*
X249625Y1084934D02*
Y1093520D01*
Y1084934D02*
X252750Y1081809D01*
X250875Y1207769D02*
X282875Y1175769D01*
X252375Y1221458D02*
X253375Y1220458D01*
Y1208805D02*
Y1220458D01*
X250875Y1207769D02*
Y1219423D01*
X249923Y1220375D02*
X250875Y1219423D01*
X231125Y1237323D02*
X248073Y1220375D01*
X252375Y1221458D02*
Y1222769D01*
X248073Y1220375D02*
X249923D01*
X253375Y1208805D02*
X285375Y1176805D01*
X304658Y1123500D02*
X306750D01*
X299961Y1128197D02*
Y1144824D01*
X299500Y1145285D02*
X299961Y1144824D01*
Y1128197D02*
X304658Y1123500D01*
X302461Y1129232D02*
Y1145859D01*
X302000Y1146321D02*
X302461Y1145859D01*
X320000Y1128500D02*
X323250Y1125250D01*
X302461Y1129232D02*
X303194Y1128500D01*
X320000D01*
X306750Y1123500D02*
X313857Y1116393D01*
X321107D02*
X323250Y1114250D01*
X313857Y1116393D02*
X321107D01*
X313857Y1192498D02*
X322251D01*
X279125Y1227231D02*
X313857Y1192498D01*
X322251D02*
X323000Y1191750D01*
X311750Y1182750D02*
X323250D01*
X300897Y1193603D02*
X311750Y1182750D01*
X300897Y1193603D02*
Y1201497D01*
X279125Y1227231D02*
Y1251625D01*
X270000Y1260750D02*
Y1261250D01*
Y1260750D02*
X279125Y1251625D01*
X604500Y1231350D02*
X605250Y1232100D01*
X604500Y1221875D02*
Y1231350D01*
X593597Y1230850D02*
X594625Y1229822D01*
X598472Y1235028D02*
X598986Y1234514D01*
X593597Y1230850D02*
Y1239562D01*
X598986Y1222389D02*
Y1234514D01*
X246500Y1195250D02*
X250375Y1191375D01*
X239375Y1134769D02*
X250375Y1145769D01*
Y1191375D01*
X239375Y1103769D02*
X249625Y1093520D01*
X239375Y1103769D02*
Y1134769D01*
X252750Y1070888D02*
Y1081809D01*
X432823Y1305975D02*
X457925D01*
X438352Y1204100D02*
X460275D01*
X429875Y1212577D02*
X438352Y1204100D01*
X429875Y1212577D02*
Y1247173D01*
X434161Y1251459D01*
X444324D02*
X448610Y1255746D01*
X434161Y1251459D02*
X444324D01*
X448610Y1266508D02*
X452550Y1270448D01*
X448610Y1255746D02*
Y1266508D01*
X457925Y1305975D02*
X459425D01*
X452550Y1300600D02*
X457925Y1305975D01*
X452550Y1270448D02*
Y1300600D01*
X460275Y1204100D02*
X464250Y1200125D01*
X447327Y1222125D02*
X474327Y1249125D01*
X441500Y1222125D02*
X447327D01*
X437250Y1217875D02*
X441500Y1222125D01*
X484452Y1331250D02*
X498000D01*
X474500Y1341202D02*
X484452Y1331250D01*
X474500Y1341202D02*
Y1351000D01*
X472500Y1353000D02*
X474500Y1351000D01*
X472500Y1353000D02*
Y1392000D01*
X674273Y1391125D02*
X680175D01*
X681900Y1389401D01*
Y1386000D02*
Y1389401D01*
X376925Y1313575D02*
X425223D01*
X328500Y1362000D02*
X376925Y1313575D01*
X425223D02*
X432823Y1305975D01*
X583875Y1208125D02*
Y1248625D01*
Y1188731D02*
Y1208125D01*
X592250Y1172000D02*
Y1180356D01*
X583875Y1188731D02*
X592250Y1180356D01*
Y1172000D02*
X608750D01*
X583875Y1248625D02*
X592500Y1257250D01*
X583875Y1208125D02*
X586750Y1205250D01*
X587875D01*
X474327Y1249125D02*
X483923D01*
X488923Y1254125D01*
X492875D01*
X497000Y1258250D01*
X244250Y1117856D02*
X272678Y1089428D01*
X261180Y1005972D02*
Y1044722D01*
X262275Y1045817D02*
Y1079025D01*
X272678Y1089428D01*
X261430Y1044972D02*
X262275Y1045817D01*
X261180Y1044722D02*
X261430Y1044972D01*
X343500Y1100250D02*
X350178D01*
X244250Y1117856D02*
Y1129500D01*
X335199Y1091051D02*
Y1091949D01*
X343500Y1100250D01*
X446250Y1077394D02*
Y1103000D01*
X350178Y1100250D02*
X350731Y1100802D01*
X356447D02*
X361125Y1105481D01*
Y1105673D02*
X363577Y1108125D01*
X361125Y1105481D02*
Y1105673D01*
X363577Y1108125D02*
X416923D01*
X418673Y1106375D01*
X350731Y1100802D02*
X356447D01*
X418673Y1106375D02*
X442875D01*
X446250Y1103000D01*
X533721Y1118125D02*
X539125D01*
X518710Y1133136D02*
X533721Y1118125D01*
X518710Y1133136D02*
Y1148109D01*
X503750Y1163069D02*
X518710Y1148109D01*
X539125Y1118125D02*
X543500Y1113750D01*
X503750Y1163069D02*
Y1178750D01*
X503000Y1319500D02*
Y1333269D01*
X492803Y1336197D02*
X500072D01*
X485000Y1343500D02*
X485500D01*
X480750Y1297750D02*
X481250D01*
X500072Y1336197D02*
X503000Y1333269D01*
X485500Y1343500D02*
X492803Y1336197D01*
X481250Y1297750D02*
X503000Y1319500D01*
X459425Y1305975D02*
X472725D01*
X285737Y1241639D02*
X288252Y1239125D01*
X299144D01*
X315770Y1222500D01*
X324500D01*
X488632Y1102119D02*
X500141D01*
X488000Y1102750D02*
X488632Y1102119D01*
X500141D02*
X500927Y1101332D01*
X507693D02*
X508986Y1102625D01*
X510555D01*
X521680Y1113750D01*
X500927Y1101332D02*
X507693D01*
X521680Y1113750D02*
X543500D01*
X497751Y1258750D02*
X547625D01*
X247375Y1227769D02*
X252375Y1222769D01*
X247375Y1227769D02*
Y1246923D01*
X543250Y1113501D02*
X543500Y1113750D01*
X543250Y1081000D02*
Y1113501D01*
X474250Y1102000D02*
X475250Y1103000D01*
X473750Y1101500D02*
X474250Y1102000D01*
X472250Y1103000D02*
X473750Y1101500D01*
X446250Y1103000D02*
X472250D01*
X475250D02*
X487750D01*
X488000Y1102750D01*
X446250Y1077394D02*
X454671Y1068974D01*
Y1052028D02*
Y1068974D01*
Y1052028D02*
X464000Y1042698D01*
Y1041500D02*
Y1042698D01*
X348125Y1139500D02*
X354149D01*
X351750Y1134625D02*
X352625D01*
X369000Y1118250D01*
X354149Y1139500D02*
X354524Y1139125D01*
X438048Y1154500D02*
X464750D01*
X407500Y1129750D02*
Y1129950D01*
X420501Y1142951D02*
X426499D01*
X407500Y1129950D02*
X420501Y1142951D01*
X426499D02*
X438048Y1154500D01*
X387250Y1046052D02*
Y1082000D01*
X383750Y1100500D02*
X391525Y1092725D01*
Y1051225D02*
X396957Y1045793D01*
X391525Y1051225D02*
Y1092725D01*
X369000Y1100250D02*
X387250Y1082000D01*
Y1046052D02*
X387580Y1045722D01*
X396957Y1045793D02*
X400209D01*
X400280Y1045722D01*
X398000Y1081000D02*
Y1101000D01*
X360423Y1139125D02*
X376673Y1122875D01*
X354524Y1139125D02*
X360423D01*
X500000Y1275750D02*
X510250D01*
X486437Y1284062D02*
X486688D01*
X490607Y1266107D02*
Y1267857D01*
X496375Y1273625D01*
X486688Y1284062D02*
X496750Y1274000D01*
X489625Y1265125D02*
X490607Y1266107D01*
X480750Y1289750D02*
X486437Y1284062D01*
X474327Y1265125D02*
X489625D01*
X470727Y1261525D02*
X474327Y1265125D01*
X459425Y1261525D02*
X470727D01*
X480750Y1289750D02*
Y1297750D01*
X442275Y1245875D02*
X457925Y1261525D01*
X441375Y1245875D02*
X442275D01*
X437000Y1241500D02*
X441375Y1245875D01*
X457925Y1261525D02*
X459425D01*
X721500Y1207750D02*
Y1224000D01*
X718500Y1204750D02*
X721500Y1207750D01*
X714500Y1219250D02*
Y1234500D01*
X718000Y1238000D01*
X398750Y1217750D02*
X420500D01*
X399000Y1241500D02*
X420000D01*
X398500Y1241000D02*
X399000Y1241500D01*
X669000Y1244000D02*
X670690Y1242310D01*
X594625Y1222000D02*
Y1229822D01*
X598986Y1222389D02*
X599500Y1221875D01*
X594500D02*
X594625Y1222000D01*
X264327Y1237125D02*
X265270D01*
X263375Y1238077D02*
Y1247674D01*
X265270Y1237125D02*
X300897Y1201497D01*
X334185Y1147250D02*
X336059Y1145375D01*
X340269D02*
X347750Y1152856D01*
Y1158250D01*
X323250Y1147250D02*
X334185D01*
X336059Y1145375D02*
X340269D01*
X327100Y1169250D02*
X338250Y1158100D01*
Y1150250D02*
Y1158100D01*
X323250Y1169250D02*
X327100D01*
X337330Y1040770D02*
Y1045222D01*
X412546Y1026375D02*
X459250D01*
X337330Y1040770D02*
X338475Y1039625D01*
X411750Y1093125D02*
Y1100500D01*
X410399Y1091774D02*
X411750Y1093125D01*
X407976Y1091774D02*
X410399D01*
X383750Y1118500D02*
X390375Y1125125D01*
X404625D01*
X263375Y1238077D02*
X264327Y1237125D01*
X608750Y1164250D02*
X610875Y1162125D01*
X614423D01*
X616107Y1160375D02*
X653673D01*
X615375Y1161107D02*
Y1161173D01*
Y1161107D02*
X616107Y1160375D01*
X608750Y1164250D02*
Y1172000D01*
X614423Y1162125D02*
X615375Y1161173D01*
X643375Y1260875D02*
Y1265125D01*
X630750Y1277750D02*
X643375Y1265125D01*
X647750Y1256500D02*
X648250D01*
X643375Y1260875D02*
X647750Y1256500D01*
X633116Y1242776D02*
X634000Y1241892D01*
Y1221875D02*
Y1241892D01*
X630490Y1244875D02*
X632590Y1242776D01*
X633116D01*
X639000Y1221875D02*
Y1236250D01*
X379375Y1122875D02*
X383750Y1118500D01*
Y1118000D02*
Y1118500D01*
X376673Y1122875D02*
X379375D01*
X369000Y1117750D02*
Y1118250D01*
Y1117250D02*
X375375Y1110875D01*
X398000Y1117500D02*
Y1118000D01*
X391375Y1110875D02*
X398000Y1117500D01*
X375375Y1110875D02*
X391375D01*
X369000Y1117250D02*
Y1117750D01*
X411750Y1117500D02*
Y1118000D01*
X404625Y1125125D02*
X411750Y1118000D01*
X472750Y1074000D02*
X484750D01*
X492500Y1081750D01*
Y1082250D01*
X423375Y1084250D02*
X432750Y1074875D01*
X413250Y1084250D02*
X423375D01*
X432750Y1074000D02*
Y1074875D01*
X406625Y1090423D02*
X407976Y1091774D01*
X383750Y1100500D02*
Y1101000D01*
X369000Y1100250D02*
Y1100750D01*
X256500Y1251375D02*
X259673D01*
X254000Y1253875D02*
X256500Y1251375D01*
X259673D02*
X263375Y1247674D01*
X254000Y1253875D02*
Y1261250D01*
X231125Y1237323D02*
Y1251125D01*
X221500Y1260750D02*
X231125Y1251125D01*
X221500Y1260750D02*
Y1261250D01*
X242649Y1251649D02*
X247375Y1246923D01*
X239476Y1251649D02*
X242649D01*
X237750Y1253375D02*
X239476Y1251649D01*
X237750Y1253375D02*
Y1260750D01*
X653673Y1160375D02*
X665548Y1172250D01*
X673000D01*
X673250Y1172000D02*
X688750D01*
X673000Y1172250D02*
X673250Y1172000D01*
X647500Y1182250D02*
X647500Y1182250D01*
X647500Y1167000D02*
Y1182250D01*
X650625Y1243625D02*
X650750Y1243750D01*
X650625Y1220250D02*
Y1243625D01*
X670690Y1218760D02*
Y1242310D01*
X660000Y1225738D02*
X669808Y1215930D01*
X660000Y1225738D02*
Y1235500D01*
X669808Y1215930D02*
X673520D01*
X679180Y1215930D02*
X682892D01*
X691750Y1221252D02*
Y1242500D01*
X683741Y1213243D02*
X691750Y1221252D01*
X682154Y1213243D02*
X683741D01*
X682010Y1213100D02*
X682154Y1213243D01*
X682892Y1215930D02*
X684635Y1217673D01*
Y1253686D01*
X676350Y1218760D02*
X676493Y1218904D01*
Y1243243D01*
X676750Y1243500D01*
X684635Y1253686D02*
X688925Y1257976D01*
X644000Y1221875D02*
Y1230250D01*
X644000Y1230250D01*
X679180Y1215930D02*
X679180Y1215930D01*
X665375Y1202125D02*
X670690Y1207440D01*
X644000Y1202750D02*
Y1203625D01*
Y1202750D02*
X644625Y1202125D01*
X665375D01*
X631973Y1207875D02*
X641027D01*
X643375Y1205527D01*
X631223Y1207125D02*
X631973Y1207875D01*
X643375Y1204250D02*
Y1205527D01*
X630375Y1207125D02*
X631223D01*
X628500Y1205250D02*
X630375Y1207125D01*
X627375Y1205250D02*
X628500D01*
X643375Y1204250D02*
X644000Y1203625D01*
X604500Y1202750D02*
X605125Y1202125D01*
X614276D01*
X617402Y1205250D01*
X627375D01*
X604500Y1202750D02*
Y1203625D01*
X587875Y1205250D02*
X588500Y1205875D01*
X590473D01*
X592473Y1207875D01*
X601527D01*
X602625Y1206777D01*
Y1206625D02*
X604500Y1204750D01*
X602625Y1206625D02*
Y1206777D01*
X604500Y1203625D02*
Y1204750D01*
X570000Y1348750D02*
G03*
X570000Y1348750I-500J0D01*
G01*
X677000Y1084250D02*
G03*
X677000Y1084250I-500J0D01*
G01*
X578750Y1059750D02*
G03*
X578750Y1059750I-500J0D01*
G01*
X658250Y1349500D02*
G03*
X658250Y1349500I-500J0D01*
G01*
D20*
X497250Y1273000D02*
D03*
X480250D02*
D03*
X631250Y1256500D02*
D03*
X648250D02*
D03*
X630500Y1167000D02*
D03*
X647500D02*
D03*
X437000Y1241500D02*
D03*
X420000D02*
D03*
X541750Y1228500D02*
D03*
X558750D02*
D03*
X497500Y1226750D02*
D03*
X480500D02*
D03*
X239250Y1313000D02*
D03*
X222250D02*
D03*
X239000Y1345500D02*
D03*
X222000D02*
D03*
X239250Y1297000D02*
D03*
X222250D02*
D03*
X239250Y1329250D02*
D03*
X222250D02*
D03*
X486750Y1178750D02*
D03*
X503750D02*
D03*
X502000Y1343500D02*
D03*
X485000D02*
D03*
X497750Y1297750D02*
D03*
X480750D02*
D03*
X560500Y1113750D02*
D03*
X543500D02*
D03*
X330250Y1325250D02*
D03*
X347250D02*
D03*
X437500Y1217750D02*
D03*
X420500D02*
D03*
D21*
X413250Y1065250D02*
D03*
Y1082250D02*
D03*
X237750Y1260750D02*
D03*
Y1243750D02*
D03*
X254000Y1261250D02*
D03*
Y1244250D02*
D03*
X411750Y1100500D02*
D03*
Y1117500D02*
D03*
X285750Y1244000D02*
D03*
Y1261000D02*
D03*
X492500Y1082250D02*
D03*
Y1065250D02*
D03*
X398000Y1101000D02*
D03*
Y1118000D02*
D03*
X383750Y1101000D02*
D03*
Y1118000D02*
D03*
X369000Y1100750D02*
D03*
Y1117750D02*
D03*
X608750Y1155000D02*
D03*
Y1172000D02*
D03*
X592250Y1155000D02*
D03*
Y1172000D02*
D03*
X673000Y1275000D02*
D03*
Y1258000D02*
D03*
X688925Y1274977D02*
D03*
Y1257976D02*
D03*
X270000Y1261250D02*
D03*
Y1244250D02*
D03*
X221500D02*
D03*
Y1261250D02*
D03*
X343500Y1117750D02*
D03*
Y1100750D02*
D03*
X446000Y1101500D02*
D03*
Y1118500D02*
D03*
X324500Y1222500D02*
D03*
Y1239500D02*
D03*
X415000Y1327000D02*
D03*
Y1344000D02*
D03*
X324250Y1276250D02*
D03*
Y1259250D02*
D03*
X473750Y1118500D02*
D03*
Y1101500D02*
D03*
X673000Y1155250D02*
D03*
Y1172250D02*
D03*
X489250Y1118500D02*
D03*
Y1101500D02*
D03*
X688750Y1155000D02*
D03*
Y1172000D02*
D03*
X718500Y1204750D02*
D03*
Y1187750D02*
D03*
X718000Y1238000D02*
D03*
Y1255000D02*
D03*
D22*
X640611Y1330315D02*
D03*
X640000Y1092750D02*
D03*
D25*
X609500Y1115750D02*
D03*
X671500D02*
D03*
X609500Y1305000D02*
D03*
X671500D02*
D03*
D26*
X703161Y1150451D02*
D03*
X703180Y1270295D02*
D03*
X577431Y1150020D02*
D03*
X577450Y1269864D02*
D03*
D30*
X451150Y1000000D02*
D03*
X438450D02*
D03*
X425750D02*
D03*
X413050D02*
D03*
X400350D02*
D03*
X362250D02*
D03*
X374950D02*
D03*
X387650D02*
D03*
X349550D02*
D03*
X336850D02*
D03*
X324150D02*
D03*
X311450D02*
D03*
X298750D02*
D03*
X260650D02*
D03*
X273350D02*
D03*
X286050D02*
D03*
X247950D02*
D03*
X235250D02*
D03*
X222550D02*
D03*
X209850D02*
D03*
X451150Y1039000D02*
D03*
X438450D02*
D03*
X425750D02*
D03*
X413050D02*
D03*
X400350D02*
D03*
X362250D02*
D03*
X374950D02*
D03*
X387650D02*
D03*
X349550D02*
D03*
X336850D02*
D03*
X324150D02*
D03*
X311450D02*
D03*
X298750D02*
D03*
X260650D02*
D03*
X273350D02*
D03*
X286050D02*
D03*
X247950D02*
D03*
X235250D02*
D03*
X222550D02*
D03*
X209850D02*
D03*
X451499Y1391750D02*
D03*
X438800D02*
D03*
X426100D02*
D03*
X413400D02*
D03*
X400700D02*
D03*
X362599D02*
D03*
X375299D02*
D03*
X387999D02*
D03*
X349899D02*
D03*
X337200D02*
D03*
X324500D02*
D03*
X311800D02*
D03*
X299100D02*
D03*
X261000D02*
D03*
X273699D02*
D03*
X286399D02*
D03*
X248300D02*
D03*
X235599D02*
D03*
X222899D02*
D03*
X210200D02*
D03*
X451499Y1430750D02*
D03*
X438800D02*
D03*
X426100D02*
D03*
X413400D02*
D03*
X400700D02*
D03*
X362599D02*
D03*
X375299D02*
D03*
X387999D02*
D03*
X349899D02*
D03*
X337200D02*
D03*
X324500D02*
D03*
X311800D02*
D03*
X299100D02*
D03*
X261000D02*
D03*
X273699D02*
D03*
X286399D02*
D03*
X248300D02*
D03*
X235599D02*
D03*
X222899D02*
D03*
X210200D02*
D03*
X720099Y1000000D02*
D03*
X707399D02*
D03*
X694699D02*
D03*
X681999D02*
D03*
X669299D02*
D03*
X631199D02*
D03*
X643899D02*
D03*
X656599D02*
D03*
X618499D02*
D03*
X605799D02*
D03*
X593099D02*
D03*
X580399D02*
D03*
X567699D02*
D03*
X529599D02*
D03*
X542299D02*
D03*
X554999D02*
D03*
X516899D02*
D03*
X504199D02*
D03*
X491499D02*
D03*
X478799D02*
D03*
X720099Y1039000D02*
D03*
X707399D02*
D03*
X694699D02*
D03*
X681999D02*
D03*
X669299D02*
D03*
X631199D02*
D03*
X643899D02*
D03*
X656599D02*
D03*
X618499D02*
D03*
X605799D02*
D03*
X593099D02*
D03*
X580399D02*
D03*
X567699D02*
D03*
X529599D02*
D03*
X542299D02*
D03*
X554999D02*
D03*
X516899D02*
D03*
X504199D02*
D03*
X491499D02*
D03*
X478799D02*
D03*
X719900Y1391750D02*
D03*
X707200D02*
D03*
X694500D02*
D03*
X681800D02*
D03*
X669100D02*
D03*
X631000D02*
D03*
X643700D02*
D03*
X656400D02*
D03*
X618300D02*
D03*
X605600D02*
D03*
X592900D02*
D03*
X580200D02*
D03*
X567500D02*
D03*
X529400D02*
D03*
X542100D02*
D03*
X554800D02*
D03*
X516700D02*
D03*
X504000D02*
D03*
X491300D02*
D03*
X478600D02*
D03*
X719900Y1430750D02*
D03*
X707200D02*
D03*
X694500D02*
D03*
X681800D02*
D03*
X669100D02*
D03*
X631000D02*
D03*
X643700D02*
D03*
X656400D02*
D03*
X618300D02*
D03*
X605600D02*
D03*
X592900D02*
D03*
X580200D02*
D03*
X567500D02*
D03*
X529400D02*
D03*
X542100D02*
D03*
X554800D02*
D03*
X516700D02*
D03*
X504000D02*
D03*
X491300D02*
D03*
X478600D02*
D03*
D68*
X264800Y1349150D02*
D03*
Y1291350D02*
D03*
X606250Y1409875D02*
D03*
X618750D02*
D03*
X340000Y1405000D02*
D03*
X349700Y1386000D02*
D03*
X400280Y1005250D02*
D03*
X400000Y1025000D02*
D03*
X391053Y1027053D02*
D03*
X321000Y1020125D02*
D03*
X336483D02*
D03*
X329233Y1020125D02*
D03*
X665000Y1025000D02*
D03*
X669875Y1045222D02*
D03*
X657269Y1015250D02*
D03*
X642838Y1014838D02*
D03*
X650000Y1025000D02*
D03*
X523150Y1030611D02*
D03*
X504080Y1045222D02*
D03*
X529430Y1045472D02*
D03*
X516780Y1045222D02*
D03*
X535000Y1025000D02*
D03*
X545000D02*
D03*
X299056Y1386168D02*
D03*
X618250Y1352000D02*
D03*
X343250Y1134625D02*
D03*
X292500Y1170750D02*
D03*
X345000Y1062500D02*
D03*
X398524Y1062401D02*
D03*
X374880Y1045722D02*
D03*
X617500Y1070750D02*
D03*
X624250Y1082750D02*
D03*
X629750Y1369250D02*
D03*
X602500Y1342000D02*
D03*
X423742Y1334515D02*
D03*
X576564Y1334114D02*
D03*
X569000Y1091000D02*
D03*
X588250Y1057750D02*
D03*
X295250Y1361750D02*
D03*
X645000Y1334250D02*
D03*
X336497Y1166747D02*
D03*
X660750Y1193000D02*
D03*
X644250Y1194000D02*
D03*
X317500Y1081000D02*
D03*
X323125Y1240000D02*
D03*
Y1258500D02*
D03*
X333500Y1264356D02*
D03*
X340608Y1262928D02*
D03*
X325000Y1275500D02*
D03*
X334250Y1313250D02*
D03*
X413180Y1425222D02*
D03*
X425880D02*
D03*
X438580D02*
D03*
X451280D02*
D03*
X464750Y1412000D02*
D03*
X462000Y1400500D02*
D03*
X504150Y1425000D02*
D03*
X491200Y1385000D02*
D03*
X478500D02*
D03*
X478750Y1425000D02*
D03*
X491450D02*
D03*
X283225Y1280489D02*
D03*
X320500Y1340750D02*
D03*
X328000Y1346750D02*
D03*
X323125Y1325750D02*
D03*
X316750Y1361000D02*
D03*
X317250Y1351250D02*
D03*
X302250Y1309000D02*
D03*
X302000Y1284874D02*
D03*
X235450Y1005750D02*
D03*
X308750Y1091500D02*
D03*
X576500Y1347875D02*
D03*
X280000Y1101750D02*
D03*
X299125Y1044972D02*
D03*
X311930Y1045222D02*
D03*
X606000Y1137250D02*
D03*
X597250Y1115625D02*
D03*
X593500Y1306000D02*
D03*
X628500Y1303250D02*
D03*
X498125Y1331250D02*
D03*
X671000Y1307500D02*
D03*
X671500Y1115750D02*
D03*
X623375Y1267000D02*
D03*
Y1277750D02*
D03*
Y1244875D02*
D03*
X608625Y1242750D02*
D03*
X633125Y1256000D02*
D03*
X570250Y1057750D02*
D03*
X580430Y1045722D02*
D03*
X631000Y1071500D02*
D03*
X630750Y1061750D02*
D03*
X580180Y1005722D02*
D03*
X258236Y1220824D02*
D03*
X294844Y1143840D02*
D03*
X286160Y1134276D02*
D03*
X294625Y1127836D02*
D03*
X292940Y1136844D02*
D03*
X343782Y1118282D02*
D03*
X335489Y1109250D02*
D03*
X266750Y1149750D02*
D03*
X537750Y1209000D02*
D03*
X605250Y1232100D02*
D03*
X598472Y1235028D02*
D03*
X669200Y1425000D02*
D03*
X626000Y1188250D02*
D03*
X337750Y1195250D02*
D03*
X246500Y1195500D02*
D03*
X266750Y1102250D02*
D03*
X443735Y1257765D02*
D03*
X245500Y1174750D02*
D03*
X275750Y1174250D02*
D03*
X294250Y1219000D02*
D03*
X237750Y1242750D02*
D03*
X237750Y1260750D02*
D03*
X254000Y1241625D02*
D03*
X254000Y1261250D02*
D03*
X685500Y1146000D02*
D03*
X689250Y1275000D02*
D03*
X672750D02*
D03*
X592250Y1272250D02*
D03*
X608250D02*
D03*
X592500Y1257250D02*
D03*
X537000Y1253000D02*
D03*
X547625Y1288625D02*
D03*
Y1258750D02*
D03*
X541750Y1228500D02*
D03*
X547000Y1214250D02*
D03*
X485000Y1343500D02*
D03*
X504183Y1355325D02*
D03*
X324500Y1222500D02*
D03*
X285737Y1241639D02*
D03*
X480750Y1223375D02*
D03*
X291000Y1233125D02*
D03*
X418750Y1286149D02*
D03*
X635250Y1358250D02*
D03*
X668500Y1385500D02*
D03*
X679000Y1348750D02*
D03*
X695750Y1348250D02*
D03*
X416250Y1371250D02*
D03*
X433250Y1370500D02*
D03*
X559625Y1180375D02*
D03*
X543250Y1081000D02*
D03*
X474250Y1118500D02*
D03*
X481320Y1128755D02*
D03*
X488000Y1118000D02*
D03*
X474250Y1102000D02*
D03*
X464000Y1041500D02*
D03*
X399500Y1285250D02*
D03*
X399250Y1269250D02*
D03*
X412750Y1268750D02*
D03*
X464250Y1200125D02*
D03*
X351750Y1134625D02*
D03*
X446750Y1117500D02*
D03*
X446250Y1103000D02*
D03*
X488000Y1102750D02*
D03*
X343500Y1100250D02*
D03*
X356250Y1107500D02*
D03*
Y1115110D02*
D03*
X355751Y1122343D02*
D03*
X352750Y1095927D02*
D03*
X244250Y1129500D02*
D03*
X244500Y1091750D02*
D03*
X266000Y1120000D02*
D03*
X282000Y1118250D02*
D03*
X284000Y1068250D02*
D03*
X280547Y1061875D02*
D03*
X330076Y1068875D02*
D03*
X400254Y1130004D02*
D03*
X406967Y1136980D02*
D03*
X407500Y1129750D02*
D03*
X414730Y1130286D02*
D03*
X339750Y1071750D02*
D03*
X483750Y1155500D02*
D03*
X357500Y1153750D02*
D03*
X359000Y1144000D02*
D03*
X437250Y1217875D02*
D03*
X396875Y1252000D02*
D03*
X384625Y1251000D02*
D03*
X371875Y1251167D02*
D03*
X364250Y1251000D02*
D03*
X414250Y1328000D02*
D03*
X510250Y1275750D02*
D03*
X497750Y1272750D02*
D03*
X480250Y1272500D02*
D03*
X468000Y1285375D02*
D03*
X497000Y1258250D02*
D03*
X464750Y1247625D02*
D03*
X497500Y1242250D02*
D03*
X496750Y1227000D02*
D03*
Y1217500D02*
D03*
X486463Y1178713D02*
D03*
X464750Y1154500D02*
D03*
X503750Y1178750D02*
D03*
X688500Y1187750D02*
D03*
X721500Y1103500D02*
D03*
X706750Y1024500D02*
D03*
X436500Y1131500D02*
D03*
X509250Y1150675D02*
D03*
X543126Y1148883D02*
D03*
X502248Y1121108D02*
D03*
X422250Y1251250D02*
D03*
X434000Y1338750D02*
D03*
X439750Y1344750D02*
D03*
X430500Y1271000D02*
D03*
X438250Y1266125D02*
D03*
X459000Y1271775D02*
D03*
X535042Y1264875D02*
D03*
X549250Y1270500D02*
D03*
X556500Y1276750D02*
D03*
X552000Y1103750D02*
D03*
X555500Y1086250D02*
D03*
X536250Y1076375D02*
D03*
X449500Y1067250D02*
D03*
X437875Y1066125D02*
D03*
X570500Y1134500D02*
D03*
Y1126750D02*
D03*
X476500Y1149500D02*
D03*
X714500Y1219250D02*
D03*
X721500Y1224000D02*
D03*
X559000Y1219250D02*
D03*
X567691Y1210296D02*
D03*
X568750Y1218250D02*
D03*
X590250Y1196000D02*
D03*
X324500Y1209500D02*
D03*
X670000Y1188500D02*
D03*
X597000Y1182500D02*
D03*
X338875Y1182725D02*
D03*
X338740Y1175476D02*
D03*
X594750Y1242000D02*
D03*
X563500Y1244250D02*
D03*
X286500Y1204750D02*
D03*
X283250Y1212250D02*
D03*
X347750Y1158250D02*
D03*
X499250Y1158750D02*
D03*
X338250Y1150250D02*
D03*
X506750Y1133425D02*
D03*
X510929Y1227197D02*
D03*
X509477Y1123204D02*
D03*
X535690Y1123051D02*
D03*
X591500Y1108750D02*
D03*
X565750Y1102000D02*
D03*
X550000Y1060500D02*
D03*
X631180Y1045222D02*
D03*
X484750Y1054000D02*
D03*
X642750Y1080250D02*
D03*
X471911Y1046443D02*
D03*
X479045Y1045156D02*
D03*
X470250Y1053500D02*
D03*
X459250Y1026375D02*
D03*
X565625Y1292000D02*
D03*
X393400Y1144000D02*
D03*
X558000Y1284500D02*
D03*
X511000Y1097750D02*
D03*
X505674Y1106207D02*
D03*
X504080Y1005275D02*
D03*
X505475Y1017525D02*
D03*
X382000Y1143888D02*
D03*
X349500Y1285000D02*
D03*
X353826Y1371757D02*
D03*
X347250Y1410500D02*
D03*
X512000Y1353500D02*
D03*
X386250Y1240750D02*
D03*
X371250Y1142500D02*
D03*
X647500Y1148750D02*
D03*
X289250Y1061978D02*
D03*
X300500Y1018750D02*
D03*
X629500Y1021750D02*
D03*
X279482Y1158482D02*
D03*
X293000Y1017500D02*
D03*
X337330Y1045222D02*
D03*
X523500Y1089250D02*
D03*
X511000Y1086000D02*
D03*
X362180Y1045722D02*
D03*
X344500Y1367750D02*
D03*
X443750Y1285250D02*
D03*
X260906Y1233651D02*
D03*
X509250Y1234250D02*
D03*
X356000Y1259000D02*
D03*
X512085Y1111050D02*
D03*
X299000Y1062750D02*
D03*
X274130Y1044972D02*
D03*
X286830D02*
D03*
X331552Y1059125D02*
D03*
X466000Y1066125D02*
D03*
X620000Y1165500D02*
D03*
X543500Y1163250D02*
D03*
X561000Y1163750D02*
D03*
X543500Y1131750D02*
D03*
X635000Y1123750D02*
D03*
X639000Y1236250D02*
D03*
X560250Y1148500D02*
D03*
X560499Y1131750D02*
D03*
X560750Y1113750D02*
D03*
X671750Y1062000D02*
D03*
X655750Y1063750D02*
D03*
X260000Y1425000D02*
D03*
X247500Y1424250D02*
D03*
X554700Y1385000D02*
D03*
X567400D02*
D03*
X719500Y1184500D02*
D03*
X718000Y1255000D02*
D03*
X347500Y1203750D02*
D03*
X369000Y1117750D02*
D03*
X383750Y1118000D02*
D03*
X555250Y1070750D02*
D03*
X542500Y1058750D02*
D03*
X530750Y1063500D02*
D03*
X306625Y1323875D02*
D03*
X458750Y1318750D02*
D03*
X269000Y1241625D02*
D03*
X459000Y1331150D02*
D03*
Y1343850D02*
D03*
X387000Y1318450D02*
D03*
Y1356550D02*
D03*
Y1343850D02*
D03*
Y1331150D02*
D03*
X413430Y1045472D02*
D03*
X270000Y1261250D02*
D03*
X221500D02*
D03*
X222000Y1244250D02*
D03*
X355750Y1313250D02*
D03*
X491380Y1045222D02*
D03*
X567530Y1045472D02*
D03*
X542130D02*
D03*
X554830D02*
D03*
X618530Y1045722D02*
D03*
X593130D02*
D03*
X605830D02*
D03*
X643880Y1045222D02*
D03*
X656580D02*
D03*
X720280Y1045722D02*
D03*
X682180D02*
D03*
X694880D02*
D03*
X707580D02*
D03*
X720280Y1005722D02*
D03*
X682180D02*
D03*
X694880D02*
D03*
X707580D02*
D03*
X669030D02*
D03*
X630930D02*
D03*
X643630D02*
D03*
X656330D02*
D03*
X592880D02*
D03*
X605580D02*
D03*
X567530Y1006222D02*
D03*
X529430D02*
D03*
X542130D02*
D03*
X554830D02*
D03*
X516780Y1005972D02*
D03*
X478680D02*
D03*
X491380D02*
D03*
X248280Y1045722D02*
D03*
X210180D02*
D03*
X222880D02*
D03*
X235580D02*
D03*
X261430Y1044972D02*
D03*
X350030Y1045222D02*
D03*
X324630D02*
D03*
X400280Y1045722D02*
D03*
X387580D02*
D03*
X451530Y1045472D02*
D03*
X426130D02*
D03*
X438830D02*
D03*
X451530Y1005722D02*
D03*
X413430D02*
D03*
X426130D02*
D03*
X438830D02*
D03*
X362180Y1006722D02*
D03*
X374880D02*
D03*
X387580D02*
D03*
X349530Y1005972D02*
D03*
X311430D02*
D03*
X324130D02*
D03*
X336830D02*
D03*
X299280D02*
D03*
X261180D02*
D03*
X273880D02*
D03*
X286580D02*
D03*
X248280Y1006222D02*
D03*
X210180D02*
D03*
X222880D02*
D03*
X451030Y1386222D02*
D03*
X412930D02*
D03*
X425630D02*
D03*
X438330D02*
D03*
X516850Y1425000D02*
D03*
X529550D02*
D03*
X542250D02*
D03*
X554950D02*
D03*
X567650D02*
D03*
X580350D02*
D03*
X593050D02*
D03*
X605750D02*
D03*
X618450D02*
D03*
X631150D02*
D03*
X503900Y1385000D02*
D03*
X516600D02*
D03*
X529300D02*
D03*
X542000D02*
D03*
X580100D02*
D03*
X592800D02*
D03*
X605500D02*
D03*
X618200D02*
D03*
X630900D02*
D03*
X643600D02*
D03*
X273500Y1425000D02*
D03*
X286200D02*
D03*
X298900D02*
D03*
X311600D02*
D03*
X324300D02*
D03*
X337000D02*
D03*
X400500D02*
D03*
X387800D02*
D03*
X375100D02*
D03*
X362400D02*
D03*
X349700D02*
D03*
X400500Y1386000D02*
D03*
X387800D02*
D03*
X375100D02*
D03*
X362400D02*
D03*
X337000D02*
D03*
X324300D02*
D03*
X311600D02*
D03*
X286200D02*
D03*
X273500D02*
D03*
X260800D02*
D03*
X248100D02*
D03*
X210000D02*
D03*
X222700D02*
D03*
X235400D02*
D03*
Y1425000D02*
D03*
X222700D02*
D03*
X210000D02*
D03*
X221750Y1345500D02*
D03*
X222250Y1329250D02*
D03*
X222000Y1312750D02*
D03*
X222250Y1296750D02*
D03*
X239000Y1345500D02*
D03*
X239250Y1329250D02*
D03*
Y1313000D02*
D03*
Y1297000D02*
D03*
X716750Y1066500D02*
D03*
Y1141500D02*
D03*
X630500Y1167000D02*
D03*
X648750Y1277750D02*
D03*
X543750Y1179750D02*
D03*
X647500Y1182250D02*
D03*
X656500Y1425000D02*
D03*
X643800D02*
D03*
X656500Y1386000D02*
D03*
X681900Y1425000D02*
D03*
Y1386000D02*
D03*
X720000Y1425000D02*
D03*
X707300D02*
D03*
X694600D02*
D03*
Y1386000D02*
D03*
X707300D02*
D03*
X720000D02*
D03*
X689250Y1258000D02*
D03*
X672750D02*
D03*
X608250Y1255000D02*
D03*
X669250Y1243500D02*
D03*
X660000Y1235500D02*
D03*
X691750Y1242500D02*
D03*
X676750Y1243500D02*
D03*
X644000Y1230500D02*
D03*
X650750Y1243500D02*
D03*
D69*
X269700Y1363500D02*
D03*
Y1277000D02*
D03*
D70*
X228000Y1363500D02*
D03*
Y1277000D02*
D03*
D71*
X609500Y1360750D02*
D03*
X492971Y1353132D02*
D03*
X482500Y1238500D02*
D03*
X618400Y1006000D02*
D03*
X287750Y1320250D02*
D03*
X305250Y1336000D02*
D03*
D73*
X241750Y1065250D02*
D03*
Y1213750D02*
D03*
D74*
X323000Y1191750D02*
D03*
Y1180750D02*
D03*
Y1103750D02*
D03*
Y1114750D02*
D03*
Y1125750D02*
D03*
Y1136750D02*
D03*
Y1147750D02*
D03*
Y1158750D02*
D03*
Y1169750D02*
D03*
Y1092750D02*
D03*
D75*
X558500Y1362750D02*
D03*
X567500Y1338750D02*
D03*
X549500D02*
D03*
D76*
X662500Y1073250D02*
D03*
X686500Y1082250D02*
D03*
Y1064250D02*
D03*
X592250Y1070750D02*
D03*
X568250Y1061750D02*
D03*
Y1079750D02*
D03*
X671750Y1360500D02*
D03*
X647750Y1351500D02*
D03*
Y1369500D02*
D03*
X329250Y1362250D02*
D03*
X295250D02*
D03*
D77*
X459425Y1305975D02*
D03*
Y1261525D02*
D03*
D78*
X392750Y1283750D02*
D03*
D79*
X650625Y1215250D02*
D03*
Y1210250D02*
D03*
Y1205250D02*
D03*
Y1220250D02*
D03*
X627375Y1215250D02*
D03*
Y1210250D02*
D03*
Y1205250D02*
D03*
Y1220250D02*
D03*
X587875D02*
D03*
Y1205250D02*
D03*
Y1210250D02*
D03*
Y1215250D02*
D03*
X611125Y1220250D02*
D03*
Y1205250D02*
D03*
Y1210250D02*
D03*
Y1215250D02*
D03*
D80*
X639000Y1221875D02*
D03*
X644000D02*
D03*
X634000D02*
D03*
X639000Y1203625D02*
D03*
X644000D02*
D03*
X634000D02*
D03*
X594500D02*
D03*
X604500D02*
D03*
X599500D02*
D03*
X594500Y1221875D02*
D03*
X604500D02*
D03*
X599500D02*
D03*
D81*
X472750Y1074000D02*
D03*
X432750D02*
D03*
D82*
X673520Y1210270D02*
D03*
Y1215930D02*
D03*
X670690Y1207440D02*
D03*
Y1213100D02*
D03*
Y1218760D02*
D03*
X679180Y1210270D02*
D03*
Y1215930D02*
D03*
X676350Y1207440D02*
D03*
X682010D02*
D03*
Y1213100D02*
D03*
Y1218760D02*
D03*
X676350D02*
D03*
D83*
X398500Y1241000D02*
D03*
X376500D02*
D03*
X398750Y1217750D02*
D03*
X376750D02*
D03*
M02*
