G04*
G04 #@! TF.GenerationSoftware,Altium Limited,Altium Designer,24.0.1 (36)*
G04*
G04 Layer_Color=255*
%FSLAX44Y44*%
%MOMM*%
G71*
G04*
G04 #@! TF.SameCoordinates,0A1429B2-28BD-4406-9712-C9141F762160*
G04*
G04*
G04 #@! TF.FilePolarity,Positive*
G04*
G01*
G75*
D11*
X1229750Y526150D02*
D03*
Y538850D02*
D03*
Y551550D02*
D03*
Y564250D02*
D03*
Y602350D02*
D03*
Y589650D02*
D03*
Y576950D02*
D03*
Y615050D02*
D03*
Y627750D02*
D03*
Y640450D02*
D03*
Y653150D02*
D03*
Y665850D02*
D03*
Y703950D02*
D03*
Y691250D02*
D03*
Y678550D02*
D03*
Y716650D02*
D03*
Y729350D02*
D03*
Y742050D02*
D03*
Y754750D02*
D03*
Y767450D02*
D03*
X1268750Y526150D02*
D03*
Y538850D02*
D03*
Y551550D02*
D03*
Y564250D02*
D03*
Y602350D02*
D03*
Y589650D02*
D03*
Y576950D02*
D03*
Y615050D02*
D03*
Y627750D02*
D03*
Y640450D02*
D03*
Y653150D02*
D03*
Y665850D02*
D03*
Y703950D02*
D03*
Y691250D02*
D03*
Y678550D02*
D03*
Y716650D02*
D03*
Y729350D02*
D03*
Y742050D02*
D03*
Y754750D02*
D03*
Y767450D02*
D03*
X838750Y526100D02*
D03*
Y538800D02*
D03*
Y551500D02*
D03*
Y564200D02*
D03*
Y602300D02*
D03*
Y589600D02*
D03*
Y576900D02*
D03*
Y615000D02*
D03*
Y627700D02*
D03*
Y640400D02*
D03*
Y653100D02*
D03*
Y665800D02*
D03*
Y703900D02*
D03*
Y691200D02*
D03*
Y678500D02*
D03*
Y716600D02*
D03*
Y729300D02*
D03*
Y742000D02*
D03*
Y754700D02*
D03*
Y767400D02*
D03*
X877750Y526100D02*
D03*
Y538800D02*
D03*
Y551500D02*
D03*
Y564200D02*
D03*
Y602300D02*
D03*
Y589600D02*
D03*
Y576900D02*
D03*
Y615000D02*
D03*
Y627700D02*
D03*
Y640400D02*
D03*
Y653100D02*
D03*
Y665800D02*
D03*
Y703900D02*
D03*
Y691200D02*
D03*
Y678500D02*
D03*
Y716600D02*
D03*
Y729300D02*
D03*
Y742000D02*
D03*
Y754700D02*
D03*
Y767400D02*
D03*
X1229750Y794750D02*
D03*
Y807450D02*
D03*
Y820150D02*
D03*
Y832850D02*
D03*
Y870950D02*
D03*
Y858250D02*
D03*
Y845550D02*
D03*
Y883650D02*
D03*
Y896350D02*
D03*
Y909050D02*
D03*
Y921750D02*
D03*
Y934450D02*
D03*
Y972550D02*
D03*
Y959850D02*
D03*
Y947150D02*
D03*
Y985250D02*
D03*
Y997950D02*
D03*
Y1010650D02*
D03*
Y1023350D02*
D03*
Y1036050D02*
D03*
X1268750Y794750D02*
D03*
Y807450D02*
D03*
Y820150D02*
D03*
Y832850D02*
D03*
Y870950D02*
D03*
Y858250D02*
D03*
Y845550D02*
D03*
Y883650D02*
D03*
Y896350D02*
D03*
Y909050D02*
D03*
Y921750D02*
D03*
Y934450D02*
D03*
Y972550D02*
D03*
Y959850D02*
D03*
Y947150D02*
D03*
Y985250D02*
D03*
Y997950D02*
D03*
Y1010650D02*
D03*
Y1023350D02*
D03*
Y1036050D02*
D03*
X838500Y794750D02*
D03*
Y807450D02*
D03*
Y820150D02*
D03*
Y832850D02*
D03*
Y870950D02*
D03*
Y858250D02*
D03*
Y845550D02*
D03*
Y883650D02*
D03*
Y896350D02*
D03*
Y909050D02*
D03*
Y921750D02*
D03*
Y934450D02*
D03*
Y972550D02*
D03*
Y959850D02*
D03*
Y947150D02*
D03*
Y985250D02*
D03*
Y997950D02*
D03*
Y1010650D02*
D03*
Y1023350D02*
D03*
Y1036050D02*
D03*
X877500Y794750D02*
D03*
Y807450D02*
D03*
Y820150D02*
D03*
Y832850D02*
D03*
Y870950D02*
D03*
Y858250D02*
D03*
Y845550D02*
D03*
Y883650D02*
D03*
Y896350D02*
D03*
Y909050D02*
D03*
Y921750D02*
D03*
Y934450D02*
D03*
Y972550D02*
D03*
Y959850D02*
D03*
Y947150D02*
D03*
Y985250D02*
D03*
Y997950D02*
D03*
Y1010650D02*
D03*
Y1023350D02*
D03*
Y1036050D02*
D03*
D15*
X677850Y761250D02*
D03*
X703250D02*
D03*
X677850Y735850D02*
D03*
X703250D02*
D03*
X677850Y710450D02*
D03*
X703250D02*
D03*
X677850Y685050D02*
D03*
X703250D02*
D03*
X677850Y659650D02*
D03*
X703250D02*
D03*
X677850Y634250D02*
D03*
X703250D02*
D03*
X677850Y608850D02*
D03*
X703250D02*
D03*
X677850Y583450D02*
D03*
X703250D02*
D03*
X677850Y558050D02*
D03*
X703250D02*
D03*
X677850Y532650D02*
D03*
X703250D02*
D03*
X677850Y507250D02*
D03*
X703250D02*
D03*
X677850Y481850D02*
D03*
X703250D02*
D03*
X677850Y456450D02*
D03*
X703250D02*
D03*
X677850Y431050D02*
D03*
X703250D02*
D03*
X677850Y405650D02*
D03*
X703250D02*
D03*
X677850Y380250D02*
D03*
X703250D02*
D03*
X677850Y354850D02*
D03*
X703250D02*
D03*
X677850Y329450D02*
D03*
X703250D02*
D03*
X677850Y304050D02*
D03*
X703250D02*
D03*
X677850Y278650D02*
D03*
X1405100Y759050D02*
D03*
X1430500D02*
D03*
X1405100Y733650D02*
D03*
X1430500D02*
D03*
X1405100Y708250D02*
D03*
X1430500D02*
D03*
X1405100Y682850D02*
D03*
X1430500D02*
D03*
X1405100Y657450D02*
D03*
X1430500D02*
D03*
X1405100Y632050D02*
D03*
X1430500D02*
D03*
X1405100Y606650D02*
D03*
X1430500D02*
D03*
X1405100Y581250D02*
D03*
X1430500D02*
D03*
X1405100Y555850D02*
D03*
X1430500D02*
D03*
X1405100Y530450D02*
D03*
X1430500D02*
D03*
X1405100Y505050D02*
D03*
X1430500D02*
D03*
X1405100Y479650D02*
D03*
X1430500D02*
D03*
X1405100Y454250D02*
D03*
X1430500D02*
D03*
X1405100Y428850D02*
D03*
X1430500D02*
D03*
X1405100Y403450D02*
D03*
X1430500D02*
D03*
X1405100Y378050D02*
D03*
X1430500D02*
D03*
X1405100Y352650D02*
D03*
X1430500D02*
D03*
X1405100Y327250D02*
D03*
X1430500D02*
D03*
X1405100Y301850D02*
D03*
X1430500D02*
D03*
X1405100Y276450D02*
D03*
X1404100Y1276200D02*
D03*
X1429500D02*
D03*
X1404100Y1250800D02*
D03*
X1429500D02*
D03*
X1404100Y1225400D02*
D03*
X1429500D02*
D03*
X1404100Y1200000D02*
D03*
X1429500D02*
D03*
X1404100Y1174600D02*
D03*
X1429500D02*
D03*
X1404100Y1149200D02*
D03*
X1429500D02*
D03*
X1404100Y1123800D02*
D03*
X1429500D02*
D03*
X1404100Y1098400D02*
D03*
X1429500D02*
D03*
X1404100Y1073000D02*
D03*
X1429500D02*
D03*
X1404100Y1047600D02*
D03*
X1429500D02*
D03*
X1404100Y1022200D02*
D03*
X1429500D02*
D03*
X1404100Y996800D02*
D03*
X1429500D02*
D03*
X1404100Y971400D02*
D03*
X1429500D02*
D03*
X1404100Y946000D02*
D03*
X1429500D02*
D03*
X1404100Y920600D02*
D03*
X1429500D02*
D03*
X1404100Y895200D02*
D03*
X1429500D02*
D03*
X1404100Y869800D02*
D03*
X1429500D02*
D03*
X1404100Y844400D02*
D03*
X1429500D02*
D03*
X1404100Y819000D02*
D03*
X1429500D02*
D03*
X1404100Y793600D02*
D03*
X676850Y1285050D02*
D03*
X702250D02*
D03*
X676850Y1259650D02*
D03*
X702250D02*
D03*
X676850Y1234250D02*
D03*
X702250D02*
D03*
X676850Y1208850D02*
D03*
X702250D02*
D03*
X676850Y1183450D02*
D03*
X702250D02*
D03*
X676850Y1158050D02*
D03*
X702250D02*
D03*
X676850Y1132650D02*
D03*
X702250D02*
D03*
X676850Y1107250D02*
D03*
X702250D02*
D03*
X676850Y1081850D02*
D03*
X702250D02*
D03*
X676850Y1056450D02*
D03*
X702250D02*
D03*
X676850Y1031050D02*
D03*
X702250D02*
D03*
X676850Y1005650D02*
D03*
X702250D02*
D03*
X676850Y980250D02*
D03*
X702250D02*
D03*
X676850Y954850D02*
D03*
X702250D02*
D03*
X676850Y929450D02*
D03*
X702250D02*
D03*
X676850Y904050D02*
D03*
X702250D02*
D03*
X676850Y878650D02*
D03*
X702250D02*
D03*
X676850Y853250D02*
D03*
X702250D02*
D03*
X676850Y827850D02*
D03*
X702250D02*
D03*
X676850Y802450D02*
D03*
D16*
X703250Y278650D02*
D03*
X1430500Y276450D02*
D03*
X1429500Y793600D02*
D03*
X702250Y802450D02*
D03*
M02*
