G04*
G04 #@! TF.GenerationSoftware,Altium Limited,Altium Designer,24.0.1 (36)*
G04*
G04 Layer_Color=8421504*
%FSLAX44Y44*%
%MOMM*%
G71*
G04*
G04 #@! TF.SameCoordinates,0A1429B2-28BD-4406-9712-C9141F762160*
G04*
G04*
G04 #@! TF.FilePolarity,Positive*
G04*
G01*
G75*
D11*
X1229750Y526150D02*
D03*
Y538850D02*
D03*
Y551550D02*
D03*
Y564250D02*
D03*
Y602350D02*
D03*
Y589650D02*
D03*
Y576950D02*
D03*
Y615050D02*
D03*
Y627750D02*
D03*
Y640450D02*
D03*
Y653150D02*
D03*
Y665850D02*
D03*
Y703950D02*
D03*
Y691250D02*
D03*
Y678550D02*
D03*
Y716650D02*
D03*
Y729350D02*
D03*
Y742050D02*
D03*
Y754750D02*
D03*
Y767450D02*
D03*
X1268750Y526150D02*
D03*
Y538850D02*
D03*
Y551550D02*
D03*
Y564250D02*
D03*
Y602350D02*
D03*
Y589650D02*
D03*
Y576950D02*
D03*
Y615050D02*
D03*
Y627750D02*
D03*
Y640450D02*
D03*
Y653150D02*
D03*
Y665850D02*
D03*
Y703950D02*
D03*
Y691250D02*
D03*
Y678550D02*
D03*
Y716650D02*
D03*
Y729350D02*
D03*
Y742050D02*
D03*
Y754750D02*
D03*
Y767450D02*
D03*
X838750Y526100D02*
D03*
Y538800D02*
D03*
Y551500D02*
D03*
Y564200D02*
D03*
Y602300D02*
D03*
Y589600D02*
D03*
Y576900D02*
D03*
Y615000D02*
D03*
Y627700D02*
D03*
Y640400D02*
D03*
Y653100D02*
D03*
Y665800D02*
D03*
Y703900D02*
D03*
Y691200D02*
D03*
Y678500D02*
D03*
Y716600D02*
D03*
Y729300D02*
D03*
Y742000D02*
D03*
Y754700D02*
D03*
Y767400D02*
D03*
X877750Y526100D02*
D03*
Y538800D02*
D03*
Y551500D02*
D03*
Y564200D02*
D03*
Y602300D02*
D03*
Y589600D02*
D03*
Y576900D02*
D03*
Y615000D02*
D03*
Y627700D02*
D03*
Y640400D02*
D03*
Y653100D02*
D03*
Y665800D02*
D03*
Y703900D02*
D03*
Y691200D02*
D03*
Y678500D02*
D03*
Y716600D02*
D03*
Y729300D02*
D03*
Y742000D02*
D03*
Y754700D02*
D03*
Y767400D02*
D03*
X1229750Y794750D02*
D03*
Y807450D02*
D03*
Y820150D02*
D03*
Y832850D02*
D03*
Y870950D02*
D03*
Y858250D02*
D03*
Y845550D02*
D03*
Y883650D02*
D03*
Y896350D02*
D03*
Y909050D02*
D03*
Y921750D02*
D03*
Y934450D02*
D03*
Y972550D02*
D03*
Y959850D02*
D03*
Y947150D02*
D03*
Y985250D02*
D03*
Y997950D02*
D03*
Y1010650D02*
D03*
Y1023350D02*
D03*
Y1036050D02*
D03*
X1268750Y794750D02*
D03*
Y807450D02*
D03*
Y820150D02*
D03*
Y832850D02*
D03*
Y870950D02*
D03*
Y858250D02*
D03*
Y845550D02*
D03*
Y883650D02*
D03*
Y896350D02*
D03*
Y909050D02*
D03*
Y921750D02*
D03*
Y934450D02*
D03*
Y972550D02*
D03*
Y959850D02*
D03*
Y947150D02*
D03*
Y985250D02*
D03*
Y997950D02*
D03*
Y1010650D02*
D03*
Y1023350D02*
D03*
Y1036050D02*
D03*
X838500Y794750D02*
D03*
Y807450D02*
D03*
Y820150D02*
D03*
Y832850D02*
D03*
Y870950D02*
D03*
Y858250D02*
D03*
Y845550D02*
D03*
Y883650D02*
D03*
Y896350D02*
D03*
Y909050D02*
D03*
Y921750D02*
D03*
Y934450D02*
D03*
Y972550D02*
D03*
Y959850D02*
D03*
Y947150D02*
D03*
Y985250D02*
D03*
Y997950D02*
D03*
Y1010650D02*
D03*
Y1023350D02*
D03*
Y1036050D02*
D03*
X877500Y794750D02*
D03*
Y807450D02*
D03*
Y820150D02*
D03*
Y832850D02*
D03*
Y870950D02*
D03*
Y858250D02*
D03*
Y845550D02*
D03*
Y883650D02*
D03*
Y896350D02*
D03*
Y909050D02*
D03*
Y921750D02*
D03*
Y934450D02*
D03*
Y972550D02*
D03*
Y959850D02*
D03*
Y947150D02*
D03*
Y985250D02*
D03*
Y997950D02*
D03*
Y1010650D02*
D03*
Y1023350D02*
D03*
Y1036050D02*
D03*
M02*
