M48
;Layer_Color=9474304
;FILE_FORMAT=4:4
METRIC,LZ
;TYPE=PLATED
T01F00S00C0.9000
%
T01
X0067785Y0027865
Y0030405
Y0032945
Y0035485
Y0038025
X0070325
Y0035485
Y0032945
Y0030405
Y0027865
X014051Y0027645
Y0030185
Y0032725
Y0035265
Y0037805
X014305
Y0035265
Y0032725
Y0030185
Y0027645
Y0040345
Y0042885
Y0045425
Y0047965
Y0050505
Y0053045
Y0055585
Y0058125
Y0060665
Y0063205
Y0065745
Y0068285
Y0070825
Y0073365
Y0075905
X014051
Y0073365
Y0070825
Y0068285
Y0065745
Y0063205
Y0060665
Y0058125
Y0055585
Y0053045
Y0050505
Y0047965
Y0045425
Y0042885
Y0040345
X014041Y007936
X014295
X0070325Y0076125
X0067785
Y0073585
X0070325
Y0071045
X0067785
Y0068505
X0070325
Y0065965
X0067785
Y0063425
X0070325
Y0060885
X0067785
Y0058345
X0070325
Y0055805
X0067785
Y0053265
X0070325
Y0050725
X0067785
Y0048185
X0070325
Y0045645
X0067785
Y0043105
X0070325
Y0040565
X0067785
X0067685Y0080245
Y0082785
Y0085325
Y0087865
Y0090405
Y0092945
Y0095485
Y0098025
Y0100565
Y0103105
Y0105645
Y0108185
Y0110725
Y0113265
Y0115805
Y0118345
X0070225
Y0115805
Y0113265
Y0110725
Y0108185
Y0105645
Y0103105
Y0100565
Y0098025
Y0095485
Y0092945
Y0090405
Y0087865
Y0085325
Y0082785
Y0080245
X014041Y00819
Y008444
Y008698
Y008952
Y009206
Y00946
Y009714
Y009968
Y010222
Y010476
Y01073
Y010984
Y011238
Y011492
Y011746
X014295
Y011492
Y011238
Y010984
Y01073
Y010476
Y010222
Y009968
Y009714
Y00946
Y009206
Y008952
Y008698
Y008444
Y00819
Y012
Y012254
Y012508
Y012762
X014041
Y012508
Y012254
Y012
X0070225Y0120885
Y0123425
Y0125965
Y0128505
X0067685
Y0125965
Y0123425
Y0120885
M30
