G04*
G04 #@! TF.GenerationSoftware,Altium Limited,Altium Designer,24.0.1 (36)*
G04*
G04 Layer_Color=65535*
%FSLAX44Y44*%
%MOMM*%
G71*
G04*
G04 #@! TF.SameCoordinates,0A1429B2-28BD-4406-9712-C9141F762160*
G04*
G04*
G04 #@! TF.FilePolarity,Positive*
G04*
G01*
G75*
D10*
X402540Y1285772D02*
Y1275615D01*
X407618Y1270537D01*
X412697Y1275615D01*
Y1285772D01*
X427932Y1283233D02*
X425393Y1285772D01*
X420314D01*
X417775Y1283233D01*
Y1273076D01*
X420314Y1270537D01*
X425393D01*
X427932Y1273076D01*
X443167Y1283233D02*
X440628Y1285772D01*
X435549D01*
X433010Y1283233D01*
Y1273076D01*
X435549Y1270537D01*
X440628D01*
X443167Y1273076D01*
X554891Y1285772D02*
Y1275615D01*
X559969Y1270537D01*
X565047Y1275615D01*
Y1285772D01*
X580283Y1283233D02*
X577743Y1285772D01*
X572665D01*
X570126Y1283233D01*
Y1273076D01*
X572665Y1270537D01*
X577743D01*
X580283Y1273076D01*
X595518Y1283233D02*
X592978Y1285772D01*
X587900D01*
X585361Y1283233D01*
Y1273076D01*
X587900Y1270537D01*
X592978D01*
X595518Y1273076D01*
X402540Y1261394D02*
Y1251237D01*
X407618Y1246159D01*
X412697Y1251237D01*
Y1261394D01*
X427932Y1258855D02*
X425393Y1261394D01*
X420314D01*
X417775Y1258855D01*
Y1248698D01*
X420314Y1246159D01*
X425393D01*
X427932Y1248698D01*
X443167Y1258855D02*
X440628Y1261394D01*
X435549D01*
X433010Y1258855D01*
Y1248698D01*
X435549Y1246159D01*
X440628D01*
X443167Y1248698D01*
X554891Y1261394D02*
Y1251237D01*
X559969Y1246159D01*
X565047Y1251237D01*
Y1261394D01*
X580283Y1258855D02*
X577743Y1261394D01*
X572665D01*
X570126Y1258855D01*
Y1248698D01*
X572665Y1246159D01*
X577743D01*
X580283Y1248698D01*
X595518Y1258855D02*
X592978Y1261394D01*
X587900D01*
X585361Y1258855D01*
Y1248698D01*
X587900Y1246159D01*
X592978D01*
X595518Y1248698D01*
X402540Y1237016D02*
Y1226859D01*
X407618Y1221781D01*
X412697Y1226859D01*
Y1237016D01*
X427932Y1234477D02*
X425393Y1237016D01*
X420314D01*
X417775Y1234477D01*
Y1224320D01*
X420314Y1221781D01*
X425393D01*
X427932Y1224320D01*
X443167Y1234477D02*
X440628Y1237016D01*
X435549D01*
X433010Y1234477D01*
Y1224320D01*
X435549Y1221781D01*
X440628D01*
X443167Y1224320D01*
X554891Y1237016D02*
Y1226859D01*
X559969Y1221781D01*
X565047Y1226859D01*
Y1237016D01*
X580283Y1234477D02*
X577743Y1237016D01*
X572665D01*
X570126Y1234477D01*
Y1224320D01*
X572665Y1221781D01*
X577743D01*
X580283Y1224320D01*
X595518Y1234477D02*
X592978Y1237016D01*
X587900D01*
X585361Y1234477D01*
Y1224320D01*
X587900Y1221781D01*
X592978D01*
X595518Y1224320D01*
X412697Y1212638D02*
X402540D01*
Y1205020D01*
X407618Y1207560D01*
X410158D01*
X412697Y1205020D01*
Y1199942D01*
X410158Y1197403D01*
X405079D01*
X402540Y1199942D01*
X417775Y1212638D02*
Y1202481D01*
X422853Y1197403D01*
X427932Y1202481D01*
Y1212638D01*
X565047D02*
X554891D01*
Y1205020D01*
X559969Y1207560D01*
X562508D01*
X565047Y1205020D01*
Y1199942D01*
X562508Y1197403D01*
X557430D01*
X554891Y1199942D01*
X570126Y1212638D02*
Y1202481D01*
X575204Y1197403D01*
X580283Y1202481D01*
Y1212638D01*
X402540Y1185721D02*
X405079Y1188260D01*
X410158D01*
X412697Y1185721D01*
Y1183182D01*
X410158Y1180642D01*
X407618D01*
X410158D01*
X412697Y1178103D01*
Y1175564D01*
X410158Y1173025D01*
X405079D01*
X402540Y1175564D01*
X417775Y1188260D02*
Y1178103D01*
X422853Y1173025D01*
X427932Y1178103D01*
Y1188260D01*
X433010Y1185721D02*
X435549Y1188260D01*
X440628D01*
X443167Y1185721D01*
Y1183182D01*
X440628Y1180642D01*
X438088D01*
X440628D01*
X443167Y1178103D01*
Y1175564D01*
X440628Y1173025D01*
X435549D01*
X433010Y1175564D01*
X554891Y1185721D02*
X557430Y1188260D01*
X562508D01*
X565047Y1185721D01*
Y1183182D01*
X562508Y1180642D01*
X559969D01*
X562508D01*
X565047Y1178103D01*
Y1175564D01*
X562508Y1173025D01*
X557430D01*
X554891Y1175564D01*
X570126Y1188260D02*
Y1178103D01*
X575204Y1173025D01*
X580283Y1178103D01*
Y1188260D01*
X585361Y1185721D02*
X587900Y1188260D01*
X592978D01*
X595518Y1185721D01*
Y1183182D01*
X592978Y1180642D01*
X590439D01*
X592978D01*
X595518Y1178103D01*
Y1175564D01*
X592978Y1173025D01*
X587900D01*
X585361Y1175564D01*
X410158Y1148647D02*
Y1163882D01*
X402540Y1156264D01*
X412697D01*
X417775Y1163882D02*
Y1153725D01*
X422853Y1148647D01*
X427932Y1153725D01*
Y1163882D01*
X443167Y1148647D02*
X433010D01*
X443167Y1158803D01*
Y1161342D01*
X440628Y1163882D01*
X435549D01*
X433010Y1161342D01*
X562508Y1148647D02*
Y1163882D01*
X554891Y1156264D01*
X565047D01*
X570126Y1163882D02*
Y1153725D01*
X575204Y1148647D01*
X580283Y1153725D01*
Y1163882D01*
X595518Y1148647D02*
X585361D01*
X595518Y1158803D01*
Y1161342D01*
X592978Y1163882D01*
X587900D01*
X585361Y1161342D01*
X410158Y1124269D02*
Y1139504D01*
X402540Y1131886D01*
X412697D01*
X417775Y1139504D02*
Y1129347D01*
X422853Y1124269D01*
X427932Y1129347D01*
Y1139504D01*
X443167Y1124269D02*
X433010D01*
X443167Y1134425D01*
Y1136964D01*
X440628Y1139504D01*
X435549D01*
X433010Y1136964D01*
X562508Y1124269D02*
Y1139504D01*
X554891Y1131886D01*
X565047D01*
X570126Y1139504D02*
Y1129347D01*
X575204Y1124269D01*
X580283Y1129347D01*
Y1139504D01*
X595518Y1124269D02*
X585361D01*
X595518Y1134425D01*
Y1136964D01*
X592978Y1139504D01*
X587900D01*
X585361Y1136964D01*
X402540Y1090748D02*
Y1078052D01*
X405079Y1075512D01*
X410158D01*
X412697Y1078052D01*
Y1090748D01*
X427932Y1088208D02*
X425393Y1090748D01*
X420314D01*
X417775Y1088208D01*
Y1085669D01*
X420314Y1083130D01*
X425393D01*
X427932Y1080591D01*
Y1078052D01*
X425393Y1075512D01*
X420314D01*
X417775Y1078052D01*
X433010Y1075512D02*
Y1085669D01*
X438088Y1090748D01*
X443167Y1085669D01*
Y1075512D01*
Y1083130D01*
X433010D01*
X448245Y1075512D02*
Y1090748D01*
X455863D01*
X458402Y1088208D01*
Y1083130D01*
X455863Y1080591D01*
X448245D01*
X453324D02*
X458402Y1075512D01*
X463480Y1090748D02*
X473637D01*
X468559D01*
Y1075512D01*
X478715D02*
X483794D01*
X481255D01*
Y1090748D01*
X478715Y1088208D01*
X491411Y1072973D02*
X501568D01*
X506646Y1075512D02*
Y1090748D01*
X514264D01*
X516803Y1088208D01*
Y1083130D01*
X514264Y1080591D01*
X506646D01*
X511725D02*
X516803Y1075512D01*
X521881Y1090748D02*
X532038Y1075512D01*
Y1090748D02*
X521881Y1075512D01*
X402540Y1063830D02*
Y1051134D01*
X405079Y1048595D01*
X410158D01*
X412697Y1051134D01*
Y1063830D01*
X427932Y1061291D02*
X425393Y1063830D01*
X420314D01*
X417775Y1061291D01*
Y1058752D01*
X420314Y1056213D01*
X425393D01*
X427932Y1053673D01*
Y1051134D01*
X425393Y1048595D01*
X420314D01*
X417775Y1051134D01*
X433010Y1048595D02*
Y1058752D01*
X438088Y1063830D01*
X443167Y1058752D01*
Y1048595D01*
Y1056213D01*
X433010D01*
X448245Y1048595D02*
Y1063830D01*
X455863D01*
X458402Y1061291D01*
Y1056213D01*
X455863Y1053673D01*
X448245D01*
X453324D02*
X458402Y1048595D01*
X463480Y1063830D02*
X473637D01*
X468559D01*
Y1048595D01*
X478715D02*
X483794D01*
X481255D01*
Y1063830D01*
X478715Y1061291D01*
X491411Y1046056D02*
X501568D01*
X506646Y1063830D02*
X516803D01*
X511725D01*
Y1048595D01*
X521881Y1063830D02*
X532038Y1048595D01*
Y1063830D02*
X521881Y1048595D01*
X412697Y985618D02*
X410158Y988157D01*
X405079D01*
X402540Y985618D01*
Y983078D01*
X405079Y980539D01*
X410158D01*
X412697Y978000D01*
Y975461D01*
X410158Y972922D01*
X405079D01*
X402540Y975461D01*
X417775Y972922D02*
Y988157D01*
X425393D01*
X427932Y985618D01*
Y980539D01*
X425393Y978000D01*
X417775D01*
X433010Y988157D02*
X438088D01*
X435549D01*
Y972922D01*
X433010D01*
X438088D01*
X445706Y985618D02*
X448245Y988157D01*
X453324D01*
X455863Y985618D01*
Y975461D01*
X453324Y972922D01*
X448245D01*
X445706Y975461D01*
Y985618D01*
X460941Y970383D02*
X471098D01*
X476176Y972922D02*
Y988157D01*
X481255Y983078D01*
X486333Y988157D01*
Y972922D01*
X491411Y988157D02*
X496490D01*
X493950D01*
Y972922D01*
X491411D01*
X496490D01*
X514264Y985618D02*
X511725Y988157D01*
X506646D01*
X504107Y985618D01*
Y983078D01*
X506646Y980539D01*
X511725D01*
X514264Y978000D01*
Y975461D01*
X511725Y972922D01*
X506646D01*
X504107Y975461D01*
X526960Y988157D02*
X521881D01*
X519342Y985618D01*
Y975461D01*
X521881Y972922D01*
X526960D01*
X529499Y975461D01*
Y985618D01*
X526960Y988157D01*
X412697Y958700D02*
X410158Y961239D01*
X405079D01*
X402540Y958700D01*
Y956161D01*
X405079Y953622D01*
X410158D01*
X412697Y951083D01*
Y948544D01*
X410158Y946004D01*
X405079D01*
X402540Y948544D01*
X417775Y946004D02*
Y961239D01*
X425393D01*
X427932Y958700D01*
Y953622D01*
X425393Y951083D01*
X417775D01*
X433010Y961239D02*
X438088D01*
X435549D01*
Y946004D01*
X433010D01*
X438088D01*
X445706Y958700D02*
X448245Y961239D01*
X453324D01*
X455863Y958700D01*
Y948544D01*
X453324Y946004D01*
X448245D01*
X445706Y948544D01*
Y958700D01*
X460941Y943465D02*
X471098D01*
X476176Y946004D02*
Y961239D01*
X481255Y956161D01*
X486333Y961239D01*
Y946004D01*
X499029Y961239D02*
X493950D01*
X491411Y958700D01*
Y948544D01*
X493950Y946004D01*
X499029D01*
X501568Y948544D01*
Y958700D01*
X499029Y961239D01*
X516803Y958700D02*
X514264Y961239D01*
X509185D01*
X506646Y958700D01*
Y956161D01*
X509185Y953622D01*
X514264D01*
X516803Y951083D01*
Y948544D01*
X514264Y946004D01*
X509185D01*
X506646Y948544D01*
X521881Y961239D02*
X526960D01*
X524421D01*
Y946004D01*
X521881D01*
X526960D01*
X412697Y931783D02*
X410158Y934322D01*
X405079D01*
X402540Y931783D01*
Y929244D01*
X405079Y926705D01*
X410158D01*
X412697Y924165D01*
Y921626D01*
X410158Y919087D01*
X405079D01*
X402540Y921626D01*
X417775Y919087D02*
Y934322D01*
X425393D01*
X427932Y931783D01*
Y926705D01*
X425393Y924165D01*
X417775D01*
X433010Y934322D02*
X438088D01*
X435549D01*
Y919087D01*
X433010D01*
X438088D01*
X445706Y931783D02*
X448245Y934322D01*
X453324D01*
X455863Y931783D01*
Y921626D01*
X453324Y919087D01*
X448245D01*
X445706Y921626D01*
Y931783D01*
X460941Y916548D02*
X471098D01*
X486333Y931783D02*
X483794Y934322D01*
X478715D01*
X476176Y931783D01*
Y929244D01*
X478715Y926705D01*
X483794D01*
X486333Y924165D01*
Y921626D01*
X483794Y919087D01*
X478715D01*
X476176Y921626D01*
X501568Y931783D02*
X499029Y934322D01*
X493950D01*
X491411Y931783D01*
Y921626D01*
X493950Y919087D01*
X499029D01*
X501568Y921626D01*
X506646Y934322D02*
Y919087D01*
Y924165D01*
X516803Y934322D01*
X509185Y926705D01*
X516803Y919087D01*
X552351Y934322D02*
Y919087D01*
X559969D01*
X562508Y921626D01*
Y931783D01*
X559969Y934322D01*
X552351D01*
X567587D02*
Y919087D01*
X575204D01*
X577743Y921626D01*
Y924165D01*
X575204Y926705D01*
X567587D01*
X575204D01*
X577743Y929244D01*
Y931783D01*
X575204Y934322D01*
X567587D01*
X592978Y931783D02*
X590439Y934322D01*
X585361D01*
X582822Y931783D01*
Y921626D01*
X585361Y919087D01*
X590439D01*
X592978Y921626D01*
Y926705D01*
X587900D01*
X598057Y916548D02*
X608214D01*
X613292Y919087D02*
Y934322D01*
X620909D01*
X623448Y931783D01*
Y926705D01*
X620909Y924165D01*
X613292D01*
X618370D02*
X623448Y919087D01*
X628527Y934322D02*
X638684Y919087D01*
Y934322D02*
X628527Y919087D01*
X412697Y904866D02*
X410158Y907405D01*
X405079D01*
X402540Y904866D01*
Y902327D01*
X405079Y899787D01*
X410158D01*
X412697Y897248D01*
Y894709D01*
X410158Y892170D01*
X405079D01*
X402540Y894709D01*
X417775Y892170D02*
Y907405D01*
X425393D01*
X427932Y904866D01*
Y899787D01*
X425393Y897248D01*
X417775D01*
X433010Y907405D02*
X438088D01*
X435549D01*
Y892170D01*
X433010D01*
X438088D01*
X445706Y904866D02*
X448245Y907405D01*
X453324D01*
X455863Y904866D01*
Y894709D01*
X453324Y892170D01*
X448245D01*
X445706Y894709D01*
Y904866D01*
X460941Y889631D02*
X471098D01*
X476176Y892170D02*
Y907405D01*
X486333Y892170D01*
Y907405D01*
X501568Y904866D02*
X499029Y907405D01*
X493950D01*
X491411Y904866D01*
Y902327D01*
X493950Y899787D01*
X499029D01*
X501568Y897248D01*
Y894709D01*
X499029Y892170D01*
X493950D01*
X491411Y894709D01*
X516803Y904866D02*
X514264Y907405D01*
X509185D01*
X506646Y904866D01*
Y902327D01*
X509185Y899787D01*
X514264D01*
X516803Y897248D01*
Y894709D01*
X514264Y892170D01*
X509185D01*
X506646Y894709D01*
X521881Y892170D02*
X526960D01*
X524421D01*
Y907405D01*
X521881Y904866D01*
X549812Y907405D02*
Y892170D01*
X557430D01*
X559969Y894709D01*
Y904866D01*
X557430Y907405D01*
X549812D01*
X565047D02*
Y892170D01*
X572665D01*
X575204Y894709D01*
Y897248D01*
X572665Y899787D01*
X565047D01*
X572665D01*
X575204Y902327D01*
Y904866D01*
X572665Y907405D01*
X565047D01*
X590439Y904866D02*
X587900Y907405D01*
X582822D01*
X580283Y904866D01*
Y894709D01*
X582822Y892170D01*
X587900D01*
X590439Y894709D01*
Y899787D01*
X585361D01*
X595518Y889631D02*
X605674D01*
X610753Y907405D02*
X620909D01*
X615831D01*
Y892170D01*
X625988Y907405D02*
X636144Y892170D01*
Y907405D02*
X625988Y892170D01*
X412697Y877949D02*
X410158Y880488D01*
X405079D01*
X402540Y877949D01*
Y875409D01*
X405079Y872870D01*
X410158D01*
X412697Y870331D01*
Y867792D01*
X410158Y865253D01*
X405079D01*
X402540Y867792D01*
X417775Y865253D02*
Y880488D01*
X425393D01*
X427932Y877949D01*
Y872870D01*
X425393Y870331D01*
X417775D01*
X433010Y880488D02*
X438088D01*
X435549D01*
Y865253D01*
X433010D01*
X438088D01*
X445706Y877949D02*
X448245Y880488D01*
X453324D01*
X455863Y877949D01*
Y867792D01*
X453324Y865253D01*
X448245D01*
X445706Y867792D01*
Y877949D01*
X460941Y862713D02*
X471098D01*
X476176Y865253D02*
Y880488D01*
X486333Y865253D01*
Y880488D01*
X501568Y877949D02*
X499029Y880488D01*
X493950D01*
X491411Y877949D01*
Y875409D01*
X493950Y872870D01*
X499029D01*
X501568Y870331D01*
Y867792D01*
X499029Y865253D01*
X493950D01*
X491411Y867792D01*
X516803Y877949D02*
X514264Y880488D01*
X509185D01*
X506646Y877949D01*
Y875409D01*
X509185Y872870D01*
X514264D01*
X516803Y870331D01*
Y867792D01*
X514264Y865253D01*
X509185D01*
X506646Y867792D01*
X532038Y865253D02*
X521881D01*
X532038Y875409D01*
Y877949D01*
X529499Y880488D01*
X524421D01*
X521881Y877949D01*
X552351Y865253D02*
Y880488D01*
X557430Y875409D01*
X562508Y880488D01*
Y865253D01*
X567587D02*
Y875409D01*
X572665Y880488D01*
X577743Y875409D01*
Y865253D01*
Y872870D01*
X567587D01*
X582822Y880488D02*
X587900D01*
X585361D01*
Y865253D01*
X582822D01*
X587900D01*
X595518D02*
Y880488D01*
X605674Y865253D01*
Y880488D01*
X610753Y862713D02*
X620909D01*
X625988Y865253D02*
Y880488D01*
X633605D01*
X636144Y877949D01*
Y872870D01*
X633605Y870331D01*
X625988D01*
X631066D02*
X636144Y865253D01*
X641223Y880488D02*
X651379Y865253D01*
Y880488D02*
X641223Y865253D01*
X554891Y838335D02*
Y853570D01*
X559969Y848492D01*
X565047Y853570D01*
Y838335D01*
X570126D02*
Y848492D01*
X575204Y853570D01*
X580283Y848492D01*
Y838335D01*
Y845953D01*
X570126D01*
X585361Y853570D02*
X590439D01*
X587900D01*
Y838335D01*
X585361D01*
X590439D01*
X598057D02*
Y853570D01*
X608214Y838335D01*
Y853570D01*
X613292Y835796D02*
X623448D01*
X628527Y853570D02*
X638684D01*
X633605D01*
Y838335D01*
X643762Y853570D02*
X653919Y838335D01*
Y853570D02*
X643762Y838335D01*
X412697Y824114D02*
X410158Y826653D01*
X405079D01*
X402540Y824114D01*
Y813957D01*
X405079Y811418D01*
X410158D01*
X412697Y813957D01*
Y819036D01*
X407618D01*
X417775Y811418D02*
Y826653D01*
X427932Y811418D01*
Y826653D01*
X433010D02*
Y811418D01*
X440628D01*
X443167Y813957D01*
Y824114D01*
X440628Y826653D01*
X433010D01*
X565047Y824114D02*
X562508Y826653D01*
X557430D01*
X554891Y824114D01*
Y813957D01*
X557430Y811418D01*
X562508D01*
X565047Y813957D01*
Y819036D01*
X559969D01*
X570126Y811418D02*
Y826653D01*
X580283Y811418D01*
Y826653D01*
X585361D02*
Y811418D01*
X592978D01*
X595518Y813957D01*
Y824114D01*
X592978Y826653D01*
X585361D01*
X412697Y799736D02*
X410158Y802275D01*
X405079D01*
X402540Y799736D01*
Y789579D01*
X405079Y787040D01*
X410158D01*
X412697Y789579D01*
Y794658D01*
X407618D01*
X417775Y787040D02*
Y802275D01*
X427932Y787040D01*
Y802275D01*
X433010D02*
Y787040D01*
X440628D01*
X443167Y789579D01*
Y799736D01*
X440628Y802275D01*
X433010D01*
X565047Y799736D02*
X562508Y802275D01*
X557430D01*
X554891Y799736D01*
Y789579D01*
X557430Y787040D01*
X562508D01*
X565047Y789579D01*
Y794658D01*
X559969D01*
X570126Y787040D02*
Y802275D01*
X580283Y787040D01*
Y802275D01*
X585361D02*
Y787040D01*
X592978D01*
X595518Y789579D01*
Y799736D01*
X592978Y802275D01*
X585361D01*
X1482537Y758994D02*
X1480038Y761493D01*
X1475039D01*
X1472540Y758994D01*
Y748997D01*
X1475039Y746498D01*
X1480038D01*
X1482537Y748997D01*
Y753995D01*
X1477538D01*
X1487535Y746498D02*
Y761493D01*
X1497532Y746498D01*
Y761493D01*
X1502530D02*
Y746498D01*
X1510028D01*
X1512527Y748997D01*
Y758994D01*
X1510028Y761493D01*
X1502530D01*
X1647483Y758994D02*
X1644984Y761493D01*
X1639986D01*
X1637487Y758994D01*
Y748997D01*
X1639986Y746498D01*
X1644984D01*
X1647483Y748997D01*
Y753995D01*
X1642485D01*
X1652482Y746498D02*
Y761493D01*
X1662478Y746498D01*
Y761493D01*
X1667477D02*
Y746498D01*
X1674975D01*
X1677474Y748997D01*
Y758994D01*
X1674975Y761493D01*
X1667477D01*
X1482537Y734903D02*
X1480038Y737402D01*
X1475039D01*
X1472540Y734903D01*
Y724907D01*
X1475039Y722407D01*
X1480038D01*
X1482537Y724907D01*
Y729905D01*
X1477538D01*
X1487535Y722407D02*
Y737402D01*
X1497532Y722407D01*
Y737402D01*
X1502530D02*
Y722407D01*
X1510028D01*
X1512527Y724907D01*
Y734903D01*
X1510028Y737402D01*
X1502530D01*
X1647483Y734903D02*
X1644984Y737402D01*
X1639986D01*
X1637487Y734903D01*
Y724907D01*
X1639986Y722407D01*
X1644984D01*
X1647483Y724907D01*
Y729905D01*
X1642485D01*
X1652482Y722407D02*
Y737402D01*
X1662478Y722407D01*
Y737402D01*
X1667477D02*
Y722407D01*
X1674975D01*
X1677474Y724907D01*
Y734903D01*
X1674975Y737402D01*
X1667477D01*
X1482537Y710813D02*
X1480038Y713312D01*
X1475039D01*
X1472540Y710813D01*
Y700816D01*
X1475039Y698317D01*
X1480038D01*
X1482537Y700816D01*
Y705815D01*
X1477538D01*
X1487535Y698317D02*
Y713312D01*
X1495033D01*
X1497532Y710813D01*
Y705815D01*
X1495033Y703316D01*
X1487535D01*
X1502530Y713312D02*
X1507529D01*
X1505029D01*
Y698317D01*
X1502530D01*
X1507529D01*
X1522524Y713312D02*
X1517525D01*
X1515026Y710813D01*
Y700816D01*
X1517525Y698317D01*
X1522524D01*
X1525023Y700816D01*
Y710813D01*
X1522524Y713312D01*
X1540018D02*
X1530021D01*
Y705815D01*
X1535020Y708314D01*
X1537519D01*
X1540018Y705815D01*
Y700816D01*
X1537519Y698317D01*
X1532521D01*
X1530021Y700816D01*
X1482537Y686723D02*
X1480038Y689222D01*
X1475039D01*
X1472540Y686723D01*
Y676726D01*
X1475039Y674227D01*
X1480038D01*
X1482537Y676726D01*
Y681725D01*
X1477538D01*
X1487535Y674227D02*
Y689222D01*
X1495033D01*
X1497532Y686723D01*
Y681725D01*
X1495033Y679225D01*
X1487535D01*
X1502530Y689222D02*
X1507529D01*
X1505029D01*
Y674227D01*
X1502530D01*
X1507529D01*
X1522524Y689222D02*
X1517525D01*
X1515026Y686723D01*
Y676726D01*
X1517525Y674227D01*
X1522524D01*
X1525023Y676726D01*
Y686723D01*
X1522524Y689222D01*
X1540018D02*
X1535020Y686723D01*
X1530021Y681725D01*
Y676726D01*
X1532521Y674227D01*
X1537519D01*
X1540018Y676726D01*
Y679225D01*
X1537519Y681725D01*
X1530021D01*
X1482537Y662633D02*
X1480038Y665132D01*
X1475039D01*
X1472540Y662633D01*
Y652636D01*
X1475039Y650137D01*
X1480038D01*
X1482537Y652636D01*
Y657634D01*
X1477538D01*
X1487535Y650137D02*
Y665132D01*
X1495033D01*
X1497532Y662633D01*
Y657634D01*
X1495033Y655135D01*
X1487535D01*
X1502530Y665132D02*
X1507529D01*
X1505029D01*
Y650137D01*
X1502530D01*
X1507529D01*
X1522524Y665132D02*
X1517525D01*
X1515026Y662633D01*
Y652636D01*
X1517525Y650137D01*
X1522524D01*
X1525023Y652636D01*
Y662633D01*
X1522524Y665132D01*
X1530021D02*
X1540018D01*
Y662633D01*
X1530021Y652636D01*
Y650137D01*
X1634987Y665132D02*
Y652636D01*
X1637487Y650137D01*
X1642485D01*
X1644984Y652636D01*
Y665132D01*
X1659979Y662633D02*
X1657480Y665132D01*
X1652482D01*
X1649983Y662633D01*
Y660134D01*
X1652482Y657634D01*
X1657480D01*
X1659979Y655135D01*
Y652636D01*
X1657480Y650137D01*
X1652482D01*
X1649983Y652636D01*
X1664978Y650137D02*
Y660134D01*
X1669976Y665132D01*
X1674975Y660134D01*
Y650137D01*
Y657634D01*
X1664978D01*
X1679973Y650137D02*
Y665132D01*
X1687470D01*
X1689970Y662633D01*
Y657634D01*
X1687470Y655135D01*
X1679973D01*
X1684971D02*
X1689970Y650137D01*
X1694968Y665132D02*
X1704965D01*
X1699966D01*
Y650137D01*
X1719960Y665132D02*
X1709963D01*
Y657634D01*
X1714962Y660134D01*
X1717461D01*
X1719960Y657634D01*
Y652636D01*
X1717461Y650137D01*
X1712462D01*
X1709963Y652636D01*
X1724958Y647638D02*
X1734955D01*
X1739953Y650137D02*
Y665132D01*
X1747451D01*
X1749950Y662633D01*
Y657634D01*
X1747451Y655135D01*
X1739953D01*
X1744952D02*
X1749950Y650137D01*
X1754949Y665132D02*
X1764945Y650137D01*
Y665132D02*
X1754949Y650137D01*
X1482537Y636044D02*
X1480038Y638543D01*
X1475039D01*
X1472540Y636044D01*
Y626047D01*
X1475039Y623548D01*
X1480038D01*
X1482537Y626047D01*
Y631045D01*
X1477538D01*
X1487535Y623548D02*
Y638543D01*
X1495033D01*
X1497532Y636044D01*
Y631045D01*
X1495033Y628546D01*
X1487535D01*
X1502530Y638543D02*
X1507529D01*
X1505029D01*
Y623548D01*
X1502530D01*
X1507529D01*
X1522524Y638543D02*
X1517525D01*
X1515026Y636044D01*
Y626047D01*
X1517525Y623548D01*
X1522524D01*
X1525023Y626047D01*
Y636044D01*
X1522524Y638543D01*
X1530021Y636044D02*
X1532521Y638543D01*
X1537519D01*
X1540018Y636044D01*
Y633544D01*
X1537519Y631045D01*
X1540018Y628546D01*
Y626047D01*
X1537519Y623548D01*
X1532521D01*
X1530021Y626047D01*
Y628546D01*
X1532521Y631045D01*
X1530021Y633544D01*
Y636044D01*
X1532521Y631045D02*
X1537519D01*
X1634987Y638543D02*
Y626047D01*
X1637487Y623548D01*
X1642485D01*
X1644984Y626047D01*
Y638543D01*
X1659979Y636044D02*
X1657480Y638543D01*
X1652482D01*
X1649983Y636044D01*
Y633544D01*
X1652482Y631045D01*
X1657480D01*
X1659979Y628546D01*
Y626047D01*
X1657480Y623548D01*
X1652482D01*
X1649983Y626047D01*
X1664978Y623548D02*
Y633544D01*
X1669976Y638543D01*
X1674975Y633544D01*
Y623548D01*
Y631045D01*
X1664978D01*
X1679973Y623548D02*
Y638543D01*
X1687470D01*
X1689970Y636044D01*
Y631045D01*
X1687470Y628546D01*
X1679973D01*
X1684971D02*
X1689970Y623548D01*
X1694968Y638543D02*
X1704965D01*
X1699966D01*
Y623548D01*
X1719960Y638543D02*
X1709963D01*
Y631045D01*
X1714962Y633544D01*
X1717461D01*
X1719960Y631045D01*
Y626047D01*
X1717461Y623548D01*
X1712462D01*
X1709963Y626047D01*
X1724958Y621048D02*
X1734955D01*
X1739953Y638543D02*
X1749950D01*
X1744952D01*
Y623548D01*
X1754949Y638543D02*
X1764945Y623548D01*
Y638543D02*
X1754949Y623548D01*
X1482537Y609454D02*
X1480038Y611953D01*
X1475039D01*
X1472540Y609454D01*
Y599457D01*
X1475039Y596958D01*
X1480038D01*
X1482537Y599457D01*
Y604456D01*
X1477538D01*
X1487535Y596958D02*
Y611953D01*
X1495033D01*
X1497532Y609454D01*
Y604456D01*
X1495033Y601957D01*
X1487535D01*
X1502530Y611953D02*
X1507529D01*
X1505029D01*
Y596958D01*
X1502530D01*
X1507529D01*
X1522524Y611953D02*
X1517525D01*
X1515026Y609454D01*
Y599457D01*
X1517525Y596958D01*
X1522524D01*
X1525023Y599457D01*
Y609454D01*
X1522524Y611953D01*
X1530021Y599457D02*
X1532521Y596958D01*
X1537519D01*
X1540018Y599457D01*
Y609454D01*
X1537519Y611953D01*
X1532521D01*
X1530021Y609454D01*
Y606955D01*
X1532521Y604456D01*
X1540018D01*
X1634987Y611953D02*
Y599457D01*
X1637487Y596958D01*
X1642485D01*
X1644984Y599457D01*
Y611953D01*
X1659979Y609454D02*
X1657480Y611953D01*
X1652482D01*
X1649983Y609454D01*
Y606955D01*
X1652482Y604456D01*
X1657480D01*
X1659979Y601957D01*
Y599457D01*
X1657480Y596958D01*
X1652482D01*
X1649983Y599457D01*
X1664978Y596958D02*
Y606955D01*
X1669976Y611953D01*
X1674975Y606955D01*
Y596958D01*
Y604456D01*
X1664978D01*
X1679973Y596958D02*
Y611953D01*
X1687470D01*
X1689970Y609454D01*
Y604456D01*
X1687470Y601957D01*
X1679973D01*
X1684971D02*
X1689970Y596958D01*
X1694968Y611953D02*
X1704965D01*
X1699966D01*
Y596958D01*
X1719960Y611953D02*
X1709963D01*
Y604456D01*
X1714962Y606955D01*
X1717461D01*
X1719960Y604456D01*
Y599457D01*
X1717461Y596958D01*
X1712462D01*
X1709963Y599457D01*
X1724958Y594459D02*
X1734955D01*
X1749950Y609454D02*
X1747451Y611953D01*
X1742453D01*
X1739953Y609454D01*
Y599457D01*
X1742453Y596958D01*
X1747451D01*
X1749950Y599457D01*
X1754949Y611953D02*
X1764945D01*
X1759947D01*
Y596958D01*
X1779940Y609454D02*
X1777441Y611953D01*
X1772443D01*
X1769944Y609454D01*
Y606955D01*
X1772443Y604456D01*
X1777441D01*
X1779940Y601957D01*
Y599457D01*
X1777441Y596958D01*
X1772443D01*
X1769944Y599457D01*
X1472540Y570369D02*
Y580366D01*
X1477538Y585364D01*
X1482537Y580366D01*
Y570369D01*
Y577866D01*
X1472540D01*
X1487535Y585364D02*
Y570369D01*
X1495033D01*
X1497532Y572868D01*
Y582865D01*
X1495033Y585364D01*
X1487535D01*
X1512527Y582865D02*
X1510028Y585364D01*
X1505029D01*
X1502530Y582865D01*
Y572868D01*
X1505029Y570369D01*
X1510028D01*
X1512527Y572868D01*
X1517525Y567870D02*
X1527522D01*
X1542517Y582865D02*
X1540018Y585364D01*
X1535020D01*
X1532521Y582865D01*
Y572868D01*
X1535020Y570369D01*
X1540018D01*
X1542517Y572868D01*
X1547516Y585364D02*
Y572868D01*
X1550015Y570369D01*
X1555013D01*
X1557513Y572868D01*
Y585364D01*
X1562511Y570369D02*
Y585364D01*
X1570008D01*
X1572508Y582865D01*
Y577866D01*
X1570008Y575367D01*
X1562511D01*
X1567509D02*
X1572508Y570369D01*
X1577506D02*
Y585364D01*
X1585004D01*
X1587503Y582865D01*
Y577866D01*
X1585004Y575367D01*
X1577506D01*
X1582504D02*
X1587503Y570369D01*
X1637487Y585364D02*
Y572868D01*
X1639986Y570369D01*
X1644984D01*
X1647483Y572868D01*
Y585364D01*
X1662478Y582865D02*
X1659979Y585364D01*
X1654981D01*
X1652482Y582865D01*
Y580366D01*
X1654981Y577866D01*
X1659979D01*
X1662478Y575367D01*
Y572868D01*
X1659979Y570369D01*
X1654981D01*
X1652482Y572868D01*
X1667477Y570369D02*
Y580366D01*
X1672475Y585364D01*
X1677474Y580366D01*
Y570369D01*
Y577866D01*
X1667477D01*
X1682472Y570369D02*
Y585364D01*
X1689970D01*
X1692469Y582865D01*
Y577866D01*
X1689970Y575367D01*
X1682472D01*
X1687470D02*
X1692469Y570369D01*
X1697467Y585364D02*
X1707464D01*
X1702466D01*
Y570369D01*
X1722459Y585364D02*
X1712462D01*
Y577866D01*
X1717461Y580366D01*
X1719960D01*
X1722459Y577866D01*
Y572868D01*
X1719960Y570369D01*
X1714962D01*
X1712462Y572868D01*
X1727457Y567870D02*
X1737454D01*
X1742453Y570369D02*
Y585364D01*
X1749950D01*
X1752449Y582865D01*
Y577866D01*
X1749950Y575367D01*
X1742453D01*
X1747451D02*
X1752449Y570369D01*
X1757448Y585364D02*
X1767444D01*
X1762446D01*
Y570369D01*
X1782440Y582865D02*
X1779940Y585364D01*
X1774942D01*
X1772443Y582865D01*
Y580366D01*
X1774942Y577866D01*
X1779940D01*
X1782440Y575367D01*
Y572868D01*
X1779940Y570369D01*
X1774942D01*
X1772443Y572868D01*
X1472540Y543779D02*
Y553776D01*
X1477538Y558775D01*
X1482537Y553776D01*
Y543779D01*
Y551277D01*
X1472540D01*
X1487535Y558775D02*
Y543779D01*
X1495033D01*
X1497532Y546279D01*
Y556275D01*
X1495033Y558775D01*
X1487535D01*
X1512527Y556275D02*
X1510028Y558775D01*
X1505029D01*
X1502530Y556275D01*
Y546279D01*
X1505029Y543779D01*
X1510028D01*
X1512527Y546279D01*
X1517525Y541280D02*
X1527522D01*
X1532521Y558775D02*
Y548778D01*
X1537519Y543779D01*
X1542517Y548778D01*
Y558775D01*
X1547516D02*
Y543779D01*
X1555013D01*
X1557513Y546279D01*
Y548778D01*
X1555013Y551277D01*
X1547516D01*
X1555013D01*
X1557513Y553776D01*
Y556275D01*
X1555013Y558775D01*
X1547516D01*
X1562511Y543779D02*
Y553776D01*
X1567509Y558775D01*
X1572508Y553776D01*
Y543779D01*
Y551277D01*
X1562511D01*
X1577506Y558775D02*
X1587503D01*
X1582504D01*
Y543779D01*
X1637487Y508095D02*
Y495599D01*
X1639986Y493100D01*
X1644984D01*
X1647483Y495599D01*
Y508095D01*
X1662478Y505596D02*
X1659979Y508095D01*
X1654981D01*
X1652482Y505596D01*
Y503097D01*
X1654981Y500597D01*
X1659979D01*
X1662478Y498098D01*
Y495599D01*
X1659979Y493100D01*
X1654981D01*
X1652482Y495599D01*
X1667477Y493100D02*
Y503097D01*
X1672475Y508095D01*
X1677474Y503097D01*
Y493100D01*
Y500597D01*
X1667477D01*
X1682472Y493100D02*
Y508095D01*
X1689970D01*
X1692469Y505596D01*
Y500597D01*
X1689970Y498098D01*
X1682472D01*
X1687470D02*
X1692469Y493100D01*
X1697467Y508095D02*
X1707464D01*
X1702466D01*
Y493100D01*
X1722459D02*
X1712462D01*
X1722459Y503097D01*
Y505596D01*
X1719960Y508095D01*
X1714962D01*
X1712462Y505596D01*
X1727457Y490601D02*
X1737454D01*
X1742453Y493100D02*
Y508095D01*
X1749950D01*
X1752449Y505596D01*
Y500597D01*
X1749950Y498098D01*
X1742453D01*
X1747451D02*
X1752449Y493100D01*
X1757448Y508095D02*
X1767444Y493100D01*
Y508095D02*
X1757448Y493100D01*
X1637487Y481506D02*
Y469010D01*
X1639986Y466511D01*
X1644984D01*
X1647483Y469010D01*
Y481506D01*
X1662478Y479007D02*
X1659979Y481506D01*
X1654981D01*
X1652482Y479007D01*
Y476507D01*
X1654981Y474008D01*
X1659979D01*
X1662478Y471509D01*
Y469010D01*
X1659979Y466511D01*
X1654981D01*
X1652482Y469010D01*
X1667477Y466511D02*
Y476507D01*
X1672475Y481506D01*
X1677474Y476507D01*
Y466511D01*
Y474008D01*
X1667477D01*
X1682472Y466511D02*
Y481506D01*
X1689970D01*
X1692469Y479007D01*
Y474008D01*
X1689970Y471509D01*
X1682472D01*
X1687470D02*
X1692469Y466511D01*
X1697467Y481506D02*
X1707464D01*
X1702466D01*
Y466511D01*
X1722459D02*
X1712462D01*
X1722459Y476507D01*
Y479007D01*
X1719960Y481506D01*
X1714962D01*
X1712462Y479007D01*
X1727457Y464011D02*
X1737454D01*
X1742453Y481506D02*
X1752449D01*
X1747451D01*
Y466511D01*
X1757448Y481506D02*
X1767444Y466511D01*
Y481506D02*
X1757448Y466511D01*
X1480038Y415831D02*
Y430826D01*
X1472540Y423329D01*
X1482537D01*
X1487535Y430826D02*
Y420829D01*
X1492534Y415831D01*
X1497532Y420829D01*
Y430826D01*
X1512527Y415831D02*
X1502530D01*
X1512527Y425828D01*
Y428327D01*
X1510028Y430826D01*
X1505029D01*
X1502530Y428327D01*
X1644984Y415831D02*
Y430826D01*
X1637487Y423329D01*
X1647483D01*
X1652482Y430826D02*
Y420829D01*
X1657480Y415831D01*
X1662478Y420829D01*
Y430826D01*
X1677474Y415831D02*
X1667477D01*
X1677474Y425828D01*
Y428327D01*
X1674975Y430826D01*
X1669976D01*
X1667477Y428327D01*
X1480038Y391741D02*
Y406736D01*
X1472540Y399238D01*
X1482537D01*
X1487535Y406736D02*
Y396739D01*
X1492534Y391741D01*
X1497532Y396739D01*
Y406736D01*
X1512527Y391741D02*
X1502530D01*
X1512527Y401738D01*
Y404237D01*
X1510028Y406736D01*
X1505029D01*
X1502530Y404237D01*
X1644984Y391741D02*
Y406736D01*
X1637487Y399238D01*
X1647483D01*
X1652482Y406736D02*
Y396739D01*
X1657480Y391741D01*
X1662478Y396739D01*
Y406736D01*
X1677474Y391741D02*
X1667477D01*
X1677474Y401738D01*
Y404237D01*
X1674975Y406736D01*
X1669976D01*
X1667477Y404237D01*
X1472540Y380147D02*
X1475039Y382646D01*
X1480038D01*
X1482537Y380147D01*
Y377648D01*
X1480038Y375148D01*
X1477538D01*
X1480038D01*
X1482537Y372649D01*
Y370150D01*
X1480038Y367651D01*
X1475039D01*
X1472540Y370150D01*
X1487535Y382646D02*
Y372649D01*
X1492534Y367651D01*
X1497532Y372649D01*
Y382646D01*
X1502530Y380147D02*
X1505029Y382646D01*
X1510028D01*
X1512527Y380147D01*
Y377648D01*
X1510028Y375148D01*
X1507529D01*
X1510028D01*
X1512527Y372649D01*
Y370150D01*
X1510028Y367651D01*
X1505029D01*
X1502530Y370150D01*
X1637487Y380147D02*
X1639986Y382646D01*
X1644984D01*
X1647483Y380147D01*
Y377648D01*
X1644984Y375148D01*
X1642485D01*
X1644984D01*
X1647483Y372649D01*
Y370150D01*
X1644984Y367651D01*
X1639986D01*
X1637487Y370150D01*
X1652482Y382646D02*
Y372649D01*
X1657480Y367651D01*
X1662478Y372649D01*
Y382646D01*
X1667477Y380147D02*
X1669976Y382646D01*
X1674975D01*
X1677474Y380147D01*
Y377648D01*
X1674975Y375148D01*
X1672475D01*
X1674975D01*
X1677474Y372649D01*
Y370150D01*
X1674975Y367651D01*
X1669976D01*
X1667477Y370150D01*
X1482537Y358556D02*
X1472540D01*
Y351058D01*
X1477538Y353557D01*
X1480038D01*
X1482537Y351058D01*
Y346060D01*
X1480038Y343560D01*
X1475039D01*
X1472540Y346060D01*
X1487535Y358556D02*
Y348559D01*
X1492534Y343560D01*
X1497532Y348559D01*
Y358556D01*
X1647483D02*
X1637487D01*
Y351058D01*
X1642485Y353557D01*
X1644984D01*
X1647483Y351058D01*
Y346060D01*
X1644984Y343560D01*
X1639986D01*
X1637487Y346060D01*
X1652482Y358556D02*
Y348559D01*
X1657480Y343560D01*
X1662478Y348559D01*
Y358556D01*
X1472540Y334465D02*
Y324469D01*
X1477538Y319470D01*
X1482537Y324469D01*
Y334465D01*
X1497532Y331966D02*
X1495033Y334465D01*
X1490034D01*
X1487535Y331966D01*
Y321969D01*
X1490034Y319470D01*
X1495033D01*
X1497532Y321969D01*
X1512527Y331966D02*
X1510028Y334465D01*
X1505029D01*
X1502530Y331966D01*
Y321969D01*
X1505029Y319470D01*
X1510028D01*
X1512527Y321969D01*
X1637487Y334465D02*
Y324469D01*
X1642485Y319470D01*
X1647483Y324469D01*
Y334465D01*
X1662478Y331966D02*
X1659979Y334465D01*
X1654981D01*
X1652482Y331966D01*
Y321969D01*
X1654981Y319470D01*
X1659979D01*
X1662478Y321969D01*
X1677474Y331966D02*
X1674975Y334465D01*
X1669976D01*
X1667477Y331966D01*
Y321969D01*
X1669976Y319470D01*
X1674975D01*
X1677474Y321969D01*
X1472540Y310375D02*
Y300379D01*
X1477538Y295380D01*
X1482537Y300379D01*
Y310375D01*
X1497532Y307876D02*
X1495033Y310375D01*
X1490034D01*
X1487535Y307876D01*
Y297879D01*
X1490034Y295380D01*
X1495033D01*
X1497532Y297879D01*
X1512527Y307876D02*
X1510028Y310375D01*
X1505029D01*
X1502530Y307876D01*
Y297879D01*
X1505029Y295380D01*
X1510028D01*
X1512527Y297879D01*
X1637487Y310375D02*
Y300379D01*
X1642485Y295380D01*
X1647483Y300379D01*
Y310375D01*
X1662478Y307876D02*
X1659979Y310375D01*
X1654981D01*
X1652482Y307876D01*
Y297879D01*
X1654981Y295380D01*
X1659979D01*
X1662478Y297879D01*
X1677474Y307876D02*
X1674975Y310375D01*
X1669976D01*
X1667477Y307876D01*
Y297879D01*
X1669976Y295380D01*
X1674975D01*
X1677474Y297879D01*
X1472540Y286285D02*
Y276288D01*
X1477538Y271290D01*
X1482537Y276288D01*
Y286285D01*
X1497532Y283786D02*
X1495033Y286285D01*
X1490034D01*
X1487535Y283786D01*
Y273789D01*
X1490034Y271290D01*
X1495033D01*
X1497532Y273789D01*
X1512527Y283786D02*
X1510028Y286285D01*
X1505029D01*
X1502530Y283786D01*
Y273789D01*
X1505029Y271290D01*
X1510028D01*
X1512527Y273789D01*
X1637487Y286285D02*
Y276288D01*
X1642485Y271290D01*
X1647483Y276288D01*
Y286285D01*
X1662478Y283786D02*
X1659979Y286285D01*
X1654981D01*
X1652482Y283786D01*
Y273789D01*
X1654981Y271290D01*
X1659979D01*
X1662478Y273789D01*
X1677474Y283786D02*
X1674975Y286285D01*
X1669976D01*
X1667477Y283786D01*
Y273789D01*
X1669976Y271290D01*
X1674975D01*
X1677474Y273789D01*
X1482270Y1279422D02*
X1479838Y1281855D01*
X1474973D01*
X1472540Y1279422D01*
Y1269692D01*
X1474973Y1267259D01*
X1479838D01*
X1482270Y1269692D01*
Y1274557D01*
X1477405D01*
X1487135Y1267259D02*
Y1281855D01*
X1496866Y1267259D01*
Y1281855D01*
X1501731D02*
Y1267259D01*
X1509028D01*
X1511461Y1269692D01*
Y1279422D01*
X1509028Y1281855D01*
X1501731D01*
X1642818Y1279422D02*
X1640386Y1281855D01*
X1635521D01*
X1633088Y1279422D01*
Y1269692D01*
X1635521Y1267259D01*
X1640386D01*
X1642818Y1269692D01*
Y1274557D01*
X1637953D01*
X1647683Y1267259D02*
Y1281855D01*
X1657413Y1267259D01*
Y1281855D01*
X1662278D02*
Y1267259D01*
X1669576D01*
X1672009Y1269692D01*
Y1279422D01*
X1669576Y1281855D01*
X1662278D01*
X1482270Y1255812D02*
X1479838Y1258244D01*
X1474973D01*
X1472540Y1255812D01*
Y1246081D01*
X1474973Y1243649D01*
X1479838D01*
X1482270Y1246081D01*
Y1250947D01*
X1477405D01*
X1487135Y1243649D02*
Y1258244D01*
X1496866Y1243649D01*
Y1258244D01*
X1501731D02*
Y1243649D01*
X1509028D01*
X1511461Y1246081D01*
Y1255812D01*
X1509028Y1258244D01*
X1501731D01*
X1642818Y1255812D02*
X1640386Y1258244D01*
X1635521D01*
X1633088Y1255812D01*
Y1246081D01*
X1635521Y1243649D01*
X1640386D01*
X1642818Y1246081D01*
Y1250947D01*
X1637953D01*
X1647683Y1243649D02*
Y1258244D01*
X1657413Y1243649D01*
Y1258244D01*
X1662278D02*
Y1243649D01*
X1669576D01*
X1672009Y1246081D01*
Y1255812D01*
X1669576Y1258244D01*
X1662278D01*
X1482270Y1232201D02*
X1479838Y1234634D01*
X1474973D01*
X1472540Y1232201D01*
Y1222471D01*
X1474973Y1220039D01*
X1479838D01*
X1482270Y1222471D01*
Y1227336D01*
X1477405D01*
X1487135Y1220039D02*
Y1234634D01*
X1496866Y1220039D01*
Y1234634D01*
X1501731D02*
Y1220039D01*
X1509028D01*
X1511461Y1222471D01*
Y1232201D01*
X1509028Y1234634D01*
X1501731D01*
X1642818Y1232201D02*
X1640386Y1234634D01*
X1635521D01*
X1633088Y1232201D01*
Y1222471D01*
X1635521Y1220039D01*
X1640386D01*
X1642818Y1222471D01*
Y1227336D01*
X1637953D01*
X1647683Y1220039D02*
Y1234634D01*
X1657413Y1220039D01*
Y1234634D01*
X1662278D02*
Y1220039D01*
X1669576D01*
X1672009Y1222471D01*
Y1232201D01*
X1669576Y1234634D01*
X1662278D01*
X1472540Y1211024D02*
X1482270D01*
X1477405D01*
Y1196428D01*
X1487135Y1211024D02*
X1492000D01*
X1489568D01*
Y1196428D01*
X1487135D01*
X1492000D01*
X1499298D02*
Y1211024D01*
X1504163Y1206159D01*
X1509028Y1211024D01*
Y1196428D01*
X1523624Y1211024D02*
X1513893D01*
Y1196428D01*
X1523624D01*
X1513893Y1203726D02*
X1518758D01*
X1528489Y1196428D02*
Y1211024D01*
X1535786D01*
X1538219Y1208591D01*
Y1203726D01*
X1535786Y1201293D01*
X1528489D01*
X1533354D02*
X1538219Y1196428D01*
X1543084Y1208591D02*
X1545516Y1211024D01*
X1550381D01*
X1552814Y1208591D01*
Y1198861D01*
X1550381Y1196428D01*
X1545516D01*
X1543084Y1198861D01*
Y1208591D01*
X1557679Y1193996D02*
X1567409D01*
X1572274Y1208591D02*
X1574707Y1211024D01*
X1579572D01*
X1582005Y1208591D01*
Y1198861D01*
X1579572Y1196428D01*
X1574707D01*
X1572274Y1198861D01*
Y1208591D01*
X1630656Y1196428D02*
Y1206159D01*
X1635521Y1211024D01*
X1640386Y1206159D01*
Y1196428D01*
Y1203726D01*
X1630656D01*
X1645251Y1211024D02*
Y1201293D01*
X1650116Y1196428D01*
X1654981Y1201293D01*
Y1211024D01*
X1659846D02*
Y1196428D01*
X1667144D01*
X1669576Y1198861D01*
Y1208591D01*
X1667144Y1211024D01*
X1659846D01*
X1674441D02*
Y1196428D01*
X1681739D01*
X1684171Y1198861D01*
Y1208591D01*
X1681739Y1211024D01*
X1674441D01*
X1689037D02*
Y1196428D01*
X1696334D01*
X1698767Y1198861D01*
Y1208591D01*
X1696334Y1211024D01*
X1689037D01*
X1472540Y1184981D02*
X1482270D01*
X1477405D01*
Y1170385D01*
X1487135Y1184981D02*
X1492000D01*
X1489568D01*
Y1170385D01*
X1487135D01*
X1492000D01*
X1499298D02*
Y1184981D01*
X1504163Y1180116D01*
X1509028Y1184981D01*
Y1170385D01*
X1523624Y1184981D02*
X1513893D01*
Y1170385D01*
X1523624D01*
X1513893Y1177683D02*
X1518758D01*
X1528489Y1170385D02*
Y1184981D01*
X1535786D01*
X1538219Y1182548D01*
Y1177683D01*
X1535786Y1175250D01*
X1528489D01*
X1533354D02*
X1538219Y1170385D01*
X1543084Y1182548D02*
X1545516Y1184981D01*
X1550381D01*
X1552814Y1182548D01*
Y1172818D01*
X1550381Y1170385D01*
X1545516D01*
X1543084Y1172818D01*
Y1182548D01*
X1557679Y1167953D02*
X1567409D01*
X1572274Y1170385D02*
X1577139D01*
X1574707D01*
Y1184981D01*
X1572274Y1182548D01*
X1637953Y1184981D02*
X1628223D01*
Y1170385D01*
X1637953D01*
X1628223Y1177683D02*
X1633088D01*
X1642818Y1170385D02*
Y1184981D01*
X1652548Y1170385D01*
Y1184981D01*
X1667144D02*
X1657413D01*
Y1170385D01*
X1667144D01*
X1657413Y1177683D02*
X1662279D01*
X1672009Y1184981D02*
X1681739D01*
X1676874D01*
Y1170385D01*
X1686604Y1167953D02*
X1696334D01*
X1701199Y1170385D02*
Y1184981D01*
X1708497D01*
X1710930Y1182548D01*
Y1177683D01*
X1708497Y1175250D01*
X1701199D01*
X1706064D02*
X1710930Y1170385D01*
X1715795Y1184981D02*
X1725525Y1170385D01*
Y1184981D02*
X1715795Y1170385D01*
X1730390Y1177683D02*
X1740120D01*
X1735255Y1182548D02*
Y1172818D01*
X1472540Y1158938D02*
X1482270D01*
X1477405D01*
Y1144343D01*
X1487135Y1158938D02*
X1492000D01*
X1489568D01*
Y1144343D01*
X1487135D01*
X1492000D01*
X1499298D02*
Y1158938D01*
X1504163Y1154073D01*
X1509028Y1158938D01*
Y1144343D01*
X1523624Y1158938D02*
X1513893D01*
Y1144343D01*
X1523624D01*
X1513893Y1151640D02*
X1518758D01*
X1528489Y1144343D02*
Y1158938D01*
X1535786D01*
X1538219Y1156505D01*
Y1151640D01*
X1535786Y1149208D01*
X1528489D01*
X1533354D02*
X1538219Y1144343D01*
X1543084Y1156505D02*
X1545516Y1158938D01*
X1550381D01*
X1552814Y1156505D01*
Y1146775D01*
X1550381Y1144343D01*
X1545516D01*
X1543084Y1146775D01*
Y1156505D01*
X1557679Y1141910D02*
X1567409D01*
X1582005Y1144343D02*
X1572274D01*
X1582005Y1154073D01*
Y1156505D01*
X1579572Y1158938D01*
X1574707D01*
X1572274Y1156505D01*
X1640386Y1158938D02*
X1630656D01*
Y1144343D01*
X1640386D01*
X1630656Y1151640D02*
X1635521D01*
X1645251Y1144343D02*
Y1158938D01*
X1654981Y1144343D01*
Y1158938D01*
X1669576D02*
X1659846D01*
Y1144343D01*
X1669576D01*
X1659846Y1151640D02*
X1664711D01*
X1674441Y1158938D02*
X1684171D01*
X1679306D01*
Y1144343D01*
X1689037Y1141910D02*
X1698767D01*
X1703632Y1144343D02*
Y1158938D01*
X1710930D01*
X1713362Y1156505D01*
Y1151640D01*
X1710930Y1149208D01*
X1703632D01*
X1708497D02*
X1713362Y1144343D01*
X1718227Y1158938D02*
X1727957Y1144343D01*
Y1158938D02*
X1718227Y1144343D01*
X1732822Y1151640D02*
X1742552D01*
X1472540Y1132895D02*
X1482270D01*
X1477405D01*
Y1118300D01*
X1487135Y1132895D02*
X1492000D01*
X1489568D01*
Y1118300D01*
X1487135D01*
X1492000D01*
X1499298D02*
Y1132895D01*
X1504163Y1128030D01*
X1509028Y1132895D01*
Y1118300D01*
X1523624Y1132895D02*
X1513893D01*
Y1118300D01*
X1523624D01*
X1513893Y1125597D02*
X1518758D01*
X1528489Y1118300D02*
Y1132895D01*
X1535786D01*
X1538219Y1130462D01*
Y1125597D01*
X1535786Y1123165D01*
X1528489D01*
X1533354D02*
X1538219Y1118300D01*
X1543084Y1130462D02*
X1545516Y1132895D01*
X1550381D01*
X1552814Y1130462D01*
Y1120732D01*
X1550381Y1118300D01*
X1545516D01*
X1543084Y1120732D01*
Y1130462D01*
X1557679Y1115867D02*
X1567409D01*
X1572274Y1130462D02*
X1574707Y1132895D01*
X1579572D01*
X1582005Y1130462D01*
Y1128030D01*
X1579572Y1125597D01*
X1577139D01*
X1579572D01*
X1582005Y1123165D01*
Y1120732D01*
X1579572Y1118300D01*
X1574707D01*
X1572274Y1120732D01*
X1640386Y1132895D02*
X1630656D01*
Y1118300D01*
X1640386D01*
X1630656Y1125597D02*
X1635521D01*
X1645251Y1118300D02*
Y1132895D01*
X1654981Y1118300D01*
Y1132895D01*
X1669576D02*
X1659846D01*
Y1118300D01*
X1669576D01*
X1659846Y1125597D02*
X1664711D01*
X1674441Y1132895D02*
X1684171D01*
X1679306D01*
Y1118300D01*
X1689037Y1115867D02*
X1698767D01*
X1703632Y1132895D02*
X1713362D01*
X1708497D01*
Y1118300D01*
X1718227Y1132895D02*
X1727957Y1118300D01*
Y1132895D02*
X1718227Y1118300D01*
X1732822Y1125597D02*
X1742552D01*
X1737688Y1130462D02*
Y1120732D01*
X1472540Y1106852D02*
X1482270D01*
X1477405D01*
Y1092257D01*
X1487135Y1106852D02*
X1492000D01*
X1489568D01*
Y1092257D01*
X1487135D01*
X1492000D01*
X1499298D02*
Y1106852D01*
X1504163Y1101987D01*
X1509028Y1106852D01*
Y1092257D01*
X1523624Y1106852D02*
X1513893D01*
Y1092257D01*
X1523624D01*
X1513893Y1099555D02*
X1518758D01*
X1528489Y1092257D02*
Y1106852D01*
X1535786D01*
X1538219Y1104420D01*
Y1099555D01*
X1535786Y1097122D01*
X1528489D01*
X1533354D02*
X1538219Y1092257D01*
X1543084D02*
X1547949D01*
X1545516D01*
Y1106852D01*
X1543084Y1104420D01*
X1555247Y1089824D02*
X1564977D01*
X1569842Y1104420D02*
X1572274Y1106852D01*
X1577139D01*
X1579572Y1104420D01*
Y1094689D01*
X1577139Y1092257D01*
X1572274D01*
X1569842Y1094689D01*
Y1104420D01*
X1637953Y1106852D02*
X1628223D01*
Y1092257D01*
X1637953D01*
X1628223Y1099555D02*
X1633088D01*
X1642818Y1092257D02*
Y1106852D01*
X1652548Y1092257D01*
Y1106852D01*
X1667144D02*
X1657413D01*
Y1092257D01*
X1667144D01*
X1657413Y1099555D02*
X1662279D01*
X1672009Y1106852D02*
X1681739D01*
X1676874D01*
Y1092257D01*
X1686604Y1089824D02*
X1696334D01*
X1701199Y1106852D02*
X1710930D01*
X1706064D01*
Y1092257D01*
X1715795Y1106852D02*
X1725525Y1092257D01*
Y1106852D02*
X1715795Y1092257D01*
X1730390Y1099555D02*
X1740120D01*
X1472540Y1080809D02*
X1482270D01*
X1477405D01*
Y1066214D01*
X1487135Y1080809D02*
X1492000D01*
X1489568D01*
Y1066214D01*
X1487135D01*
X1492000D01*
X1499298D02*
Y1080809D01*
X1504163Y1075944D01*
X1509028Y1080809D01*
Y1066214D01*
X1523624Y1080809D02*
X1513893D01*
Y1066214D01*
X1523624D01*
X1513893Y1073512D02*
X1518758D01*
X1528489Y1066214D02*
Y1080809D01*
X1535786D01*
X1538219Y1078377D01*
Y1073512D01*
X1535786Y1071079D01*
X1528489D01*
X1533354D02*
X1538219Y1066214D01*
X1543084Y1078377D02*
X1545516Y1080809D01*
X1550381D01*
X1552814Y1078377D01*
Y1075944D01*
X1550381Y1073512D01*
X1547949D01*
X1550381D01*
X1552814Y1071079D01*
Y1068646D01*
X1550381Y1066214D01*
X1545516D01*
X1543084Y1068646D01*
X1557679Y1063781D02*
X1567409D01*
X1572274Y1078377D02*
X1574707Y1080809D01*
X1579572D01*
X1582005Y1078377D01*
Y1068646D01*
X1579572Y1066214D01*
X1574707D01*
X1572274Y1068646D01*
Y1078377D01*
X1630656Y1066214D02*
Y1075944D01*
X1635521Y1080809D01*
X1640386Y1075944D01*
Y1066214D01*
Y1073512D01*
X1630656D01*
X1654981Y1078377D02*
X1652548Y1080809D01*
X1647683D01*
X1645251Y1078377D01*
Y1068646D01*
X1647683Y1066214D01*
X1652548D01*
X1654981Y1068646D01*
Y1073512D01*
X1650116D01*
X1659846Y1066214D02*
Y1080809D01*
X1669576Y1066214D01*
Y1080809D01*
X1674441D02*
Y1066214D01*
X1681739D01*
X1684171Y1068646D01*
Y1078377D01*
X1681739Y1080809D01*
X1674441D01*
X1472540Y1054766D02*
X1482270D01*
X1477405D01*
Y1040171D01*
X1487135Y1054766D02*
X1492000D01*
X1489568D01*
Y1040171D01*
X1487135D01*
X1492000D01*
X1499298D02*
Y1054766D01*
X1504163Y1049901D01*
X1509028Y1054766D01*
Y1040171D01*
X1523624Y1054766D02*
X1513893D01*
Y1040171D01*
X1523624D01*
X1513893Y1047469D02*
X1518758D01*
X1528489Y1040171D02*
Y1054766D01*
X1535786D01*
X1538219Y1052334D01*
Y1047469D01*
X1535786Y1045036D01*
X1528489D01*
X1533354D02*
X1538219Y1040171D01*
X1543084Y1052334D02*
X1545516Y1054766D01*
X1550381D01*
X1552814Y1052334D01*
Y1049901D01*
X1550381Y1047469D01*
X1547949D01*
X1550381D01*
X1552814Y1045036D01*
Y1042604D01*
X1550381Y1040171D01*
X1545516D01*
X1543084Y1042604D01*
X1557679Y1037738D02*
X1567409D01*
X1572274Y1040171D02*
X1577139D01*
X1574707D01*
Y1054766D01*
X1572274Y1052334D01*
X1472540Y1028724D02*
X1482270D01*
X1477405D01*
Y1014128D01*
X1487135Y1028724D02*
X1492000D01*
X1489568D01*
Y1014128D01*
X1487135D01*
X1492000D01*
X1499298D02*
Y1028724D01*
X1504163Y1023858D01*
X1509028Y1028724D01*
Y1014128D01*
X1523624Y1028724D02*
X1513893D01*
Y1014128D01*
X1523624D01*
X1513893Y1021426D02*
X1518758D01*
X1528489Y1014128D02*
Y1028724D01*
X1535786D01*
X1538219Y1026291D01*
Y1021426D01*
X1535786Y1018993D01*
X1528489D01*
X1533354D02*
X1538219Y1014128D01*
X1543084Y1026291D02*
X1545516Y1028724D01*
X1550381D01*
X1552814Y1026291D01*
Y1023858D01*
X1550381Y1021426D01*
X1547949D01*
X1550381D01*
X1552814Y1018993D01*
Y1016561D01*
X1550381Y1014128D01*
X1545516D01*
X1543084Y1016561D01*
X1557679Y1011696D02*
X1567409D01*
X1582005Y1014128D02*
X1572274D01*
X1582005Y1023858D01*
Y1026291D01*
X1579572Y1028724D01*
X1574707D01*
X1572274Y1026291D01*
X1472540Y1002681D02*
X1482270D01*
X1477405D01*
Y988085D01*
X1487135Y1002681D02*
X1492000D01*
X1489568D01*
Y988085D01*
X1487135D01*
X1492000D01*
X1499298D02*
Y1002681D01*
X1504163Y997815D01*
X1509028Y1002681D01*
Y988085D01*
X1523624Y1002681D02*
X1513893D01*
Y988085D01*
X1523624D01*
X1513893Y995383D02*
X1518758D01*
X1528489Y988085D02*
Y1002681D01*
X1535786D01*
X1538219Y1000248D01*
Y995383D01*
X1535786Y992950D01*
X1528489D01*
X1533354D02*
X1538219Y988085D01*
X1543084Y1000248D02*
X1545516Y1002681D01*
X1550381D01*
X1552814Y1000248D01*
Y997815D01*
X1550381Y995383D01*
X1547949D01*
X1550381D01*
X1552814Y992950D01*
Y990518D01*
X1550381Y988085D01*
X1545516D01*
X1543084Y990518D01*
X1557679Y985653D02*
X1567409D01*
X1572274Y1000248D02*
X1574707Y1002681D01*
X1579572D01*
X1582005Y1000248D01*
Y997815D01*
X1579572Y995383D01*
X1577139D01*
X1579572D01*
X1582005Y992950D01*
Y990518D01*
X1579572Y988085D01*
X1574707D01*
X1572274Y990518D01*
X1640386Y1000248D02*
X1637953Y1002681D01*
X1633088D01*
X1630656Y1000248D01*
Y990518D01*
X1633088Y988085D01*
X1637953D01*
X1640386Y990518D01*
X1645251Y988085D02*
Y997815D01*
X1650116Y1002681D01*
X1654981Y997815D01*
Y988085D01*
Y995383D01*
X1645251D01*
X1659846Y988085D02*
Y1002681D01*
X1669576Y988085D01*
Y1002681D01*
X1674441Y985653D02*
X1684171D01*
X1689037Y1002681D02*
Y988085D01*
Y995383D01*
X1698767D01*
Y1002681D01*
Y988085D01*
X1472540Y976638D02*
X1482270D01*
X1477405D01*
Y962042D01*
X1487135Y976638D02*
X1492000D01*
X1489568D01*
Y962042D01*
X1487135D01*
X1492000D01*
X1499298D02*
Y976638D01*
X1504163Y971773D01*
X1509028Y976638D01*
Y962042D01*
X1523624Y976638D02*
X1513893D01*
Y962042D01*
X1523624D01*
X1513893Y969340D02*
X1518758D01*
X1528489Y962042D02*
Y976638D01*
X1535786D01*
X1538219Y974205D01*
Y969340D01*
X1535786Y966908D01*
X1528489D01*
X1533354D02*
X1538219Y962042D01*
X1550381D02*
Y976638D01*
X1543084Y969340D01*
X1552814D01*
X1557679Y959610D02*
X1567409D01*
X1572274Y974205D02*
X1574707Y976638D01*
X1579572D01*
X1582005Y974205D01*
Y971773D01*
X1579572Y969340D01*
X1577139D01*
X1579572D01*
X1582005Y966908D01*
Y964475D01*
X1579572Y962042D01*
X1574707D01*
X1572274Y964475D01*
X1640386Y974205D02*
X1637953Y976638D01*
X1633088D01*
X1630656Y974205D01*
Y964475D01*
X1633088Y962042D01*
X1637953D01*
X1640386Y964475D01*
X1645251Y962042D02*
Y971773D01*
X1650116Y976638D01*
X1654981Y971773D01*
Y962042D01*
Y969340D01*
X1645251D01*
X1659846Y962042D02*
Y976638D01*
X1669576Y962042D01*
Y976638D01*
X1674441Y959610D02*
X1684171D01*
X1689037Y976638D02*
Y962042D01*
X1698767D01*
X1472540Y950595D02*
X1482270D01*
X1477405D01*
Y936000D01*
X1487135Y950595D02*
X1492000D01*
X1489568D01*
Y936000D01*
X1487135D01*
X1492000D01*
X1499298D02*
Y950595D01*
X1504163Y945730D01*
X1509028Y950595D01*
Y936000D01*
X1523624Y950595D02*
X1513893D01*
Y936000D01*
X1523624D01*
X1513893Y943297D02*
X1518758D01*
X1528489Y936000D02*
Y950595D01*
X1535786D01*
X1538219Y948162D01*
Y943297D01*
X1535786Y940865D01*
X1528489D01*
X1533354D02*
X1538219Y936000D01*
X1543084D02*
X1547949D01*
X1545516D01*
Y950595D01*
X1543084Y948162D01*
X1555247D02*
X1557679Y950595D01*
X1562544D01*
X1564977Y948162D01*
Y938432D01*
X1562544Y936000D01*
X1557679D01*
X1555247Y938432D01*
Y948162D01*
X1569842Y933567D02*
X1579572D01*
X1584437Y948162D02*
X1586870Y950595D01*
X1591735D01*
X1594167Y948162D01*
Y938432D01*
X1591735Y936000D01*
X1586870D01*
X1584437Y938432D01*
Y948162D01*
X1628223Y950595D02*
Y938432D01*
X1630656Y936000D01*
X1635521D01*
X1637953Y938432D01*
Y950595D01*
X1642818Y936000D02*
Y945730D01*
X1647683Y950595D01*
X1652548Y945730D01*
Y936000D01*
Y943297D01*
X1642818D01*
X1657413Y936000D02*
Y950595D01*
X1664711D01*
X1667144Y948162D01*
Y943297D01*
X1664711Y940865D01*
X1657413D01*
X1662279D02*
X1667144Y936000D01*
X1672009Y950595D02*
X1681739D01*
X1676874D01*
Y936000D01*
X1693902D02*
Y950595D01*
X1686604Y943297D01*
X1696334D01*
X1701199Y933567D02*
X1710930D01*
X1715795Y936000D02*
Y950595D01*
X1723092D01*
X1725525Y948162D01*
Y943297D01*
X1723092Y940865D01*
X1715795D01*
X1720660D02*
X1725525Y936000D01*
X1730390Y950595D02*
X1740120Y936000D01*
Y950595D02*
X1730390Y936000D01*
X1472540Y924552D02*
X1482270D01*
X1477405D01*
Y909957D01*
X1487135Y924552D02*
X1492000D01*
X1489568D01*
Y909957D01*
X1487135D01*
X1492000D01*
X1499298D02*
Y924552D01*
X1504163Y919687D01*
X1509028Y924552D01*
Y909957D01*
X1523624Y924552D02*
X1513893D01*
Y909957D01*
X1523624D01*
X1513893Y917254D02*
X1518758D01*
X1528489Y909957D02*
Y924552D01*
X1535786D01*
X1538219Y922119D01*
Y917254D01*
X1535786Y914822D01*
X1528489D01*
X1533354D02*
X1538219Y909957D01*
X1543084D02*
X1547949D01*
X1545516D01*
Y924552D01*
X1543084Y922119D01*
X1564977Y909957D02*
X1555247D01*
X1564977Y919687D01*
Y922119D01*
X1562544Y924552D01*
X1557679D01*
X1555247Y922119D01*
X1569842Y907524D02*
X1579572D01*
X1584437Y922119D02*
X1586870Y924552D01*
X1591735D01*
X1594167Y922119D01*
Y912389D01*
X1591735Y909957D01*
X1586870D01*
X1584437Y912389D01*
Y922119D01*
X1628223Y924552D02*
Y912389D01*
X1630656Y909957D01*
X1635521D01*
X1637953Y912389D01*
Y924552D01*
X1642818Y909957D02*
Y919687D01*
X1647683Y924552D01*
X1652548Y919687D01*
Y909957D01*
Y917254D01*
X1642818D01*
X1657413Y909957D02*
Y924552D01*
X1664711D01*
X1667144Y922119D01*
Y917254D01*
X1664711Y914822D01*
X1657413D01*
X1662279D02*
X1667144Y909957D01*
X1672009Y924552D02*
X1681739D01*
X1676874D01*
Y909957D01*
X1693902D02*
Y924552D01*
X1686604Y917254D01*
X1696334D01*
X1701199Y907524D02*
X1710930D01*
X1715795Y924552D02*
X1725525D01*
X1720660D01*
Y909957D01*
X1730390Y924552D02*
X1740120Y909957D01*
Y924552D02*
X1730390Y909957D01*
X1472540Y898509D02*
X1482270D01*
X1477405D01*
Y883914D01*
X1487135Y898509D02*
X1492000D01*
X1489568D01*
Y883914D01*
X1487135D01*
X1492000D01*
X1499298D02*
Y898509D01*
X1504163Y893644D01*
X1509028Y898509D01*
Y883914D01*
X1523624Y898509D02*
X1513893D01*
Y883914D01*
X1523624D01*
X1513893Y891211D02*
X1518758D01*
X1528489Y883914D02*
Y898509D01*
X1535786D01*
X1538219Y896077D01*
Y891211D01*
X1535786Y888779D01*
X1528489D01*
X1533354D02*
X1538219Y883914D01*
X1543084Y896077D02*
X1545516Y898509D01*
X1550381D01*
X1552814Y896077D01*
Y893644D01*
X1550381Y891211D01*
X1552814Y888779D01*
Y886346D01*
X1550381Y883914D01*
X1545516D01*
X1543084Y886346D01*
Y888779D01*
X1545516Y891211D01*
X1543084Y893644D01*
Y896077D01*
X1545516Y891211D02*
X1550381D01*
X1557679Y881481D02*
X1567409D01*
X1572274Y896077D02*
X1574707Y898509D01*
X1579572D01*
X1582005Y896077D01*
Y886346D01*
X1579572Y883914D01*
X1574707D01*
X1572274Y886346D01*
Y896077D01*
X1482270Y822813D02*
X1479838Y825246D01*
X1474973D01*
X1472540Y822813D01*
Y813083D01*
X1474973Y810650D01*
X1479838D01*
X1482270Y813083D01*
Y817948D01*
X1477405D01*
X1487135Y810650D02*
Y825246D01*
X1496866Y810650D01*
Y825246D01*
X1501731D02*
Y810650D01*
X1509028D01*
X1511461Y813083D01*
Y822813D01*
X1509028Y825246D01*
X1501731D01*
X1642818Y822813D02*
X1640386Y825246D01*
X1635521D01*
X1633088Y822813D01*
Y813083D01*
X1635521Y810650D01*
X1640386D01*
X1642818Y813083D01*
Y817948D01*
X1637953D01*
X1647683Y810650D02*
Y825246D01*
X1657413Y810650D01*
Y825246D01*
X1662278D02*
Y810650D01*
X1669576D01*
X1672009Y813083D01*
Y822813D01*
X1669576Y825246D01*
X1662278D01*
X1482270Y799203D02*
X1479838Y801635D01*
X1474973D01*
X1472540Y799203D01*
Y789473D01*
X1474973Y787040D01*
X1479838D01*
X1482270Y789473D01*
Y794338D01*
X1477405D01*
X1487135Y787040D02*
Y801635D01*
X1496866Y787040D01*
Y801635D01*
X1501731D02*
Y787040D01*
X1509028D01*
X1511461Y789473D01*
Y799203D01*
X1509028Y801635D01*
X1501731D01*
X1642818Y799203D02*
X1640386Y801635D01*
X1635521D01*
X1633088Y799203D01*
Y789473D01*
X1635521Y787040D01*
X1640386D01*
X1642818Y789473D01*
Y794338D01*
X1637953D01*
X1647683Y787040D02*
Y801635D01*
X1657413Y787040D01*
Y801635D01*
X1662278D02*
Y787040D01*
X1669576D01*
X1672009Y789473D01*
Y799203D01*
X1669576Y801635D01*
X1662278D01*
X412697Y760405D02*
X410158Y762944D01*
X405079D01*
X402540Y760405D01*
Y750248D01*
X405079Y747709D01*
X410158D01*
X412697Y750248D01*
Y755326D01*
X407618D01*
X417775Y747709D02*
Y762944D01*
X427932Y747709D01*
Y762944D01*
X433010D02*
Y747709D01*
X440628D01*
X443167Y750248D01*
Y760405D01*
X440628Y762944D01*
X433010D01*
X565047Y760405D02*
X562508Y762944D01*
X557430D01*
X554891Y760405D01*
Y750248D01*
X557430Y747709D01*
X562508D01*
X565047Y750248D01*
Y755326D01*
X559969D01*
X570126Y747709D02*
Y762944D01*
X580283Y747709D01*
Y762944D01*
X585361D02*
Y747709D01*
X592978D01*
X595518Y750248D01*
Y760405D01*
X592978Y762944D01*
X585361D01*
X412697Y736027D02*
X410158Y738566D01*
X405079D01*
X402540Y736027D01*
Y725870D01*
X405079Y723331D01*
X410158D01*
X412697Y725870D01*
Y730948D01*
X407618D01*
X417775Y723331D02*
Y738566D01*
X427932Y723331D01*
Y738566D01*
X433010D02*
Y723331D01*
X440628D01*
X443167Y725870D01*
Y736027D01*
X440628Y738566D01*
X433010D01*
X565047Y736027D02*
X562508Y738566D01*
X557430D01*
X554891Y736027D01*
Y725870D01*
X557430Y723331D01*
X562508D01*
X565047Y725870D01*
Y730948D01*
X559969D01*
X570126Y723331D02*
Y738566D01*
X580283Y723331D01*
Y738566D01*
X585361D02*
Y723331D01*
X592978D01*
X595518Y725870D01*
Y736027D01*
X592978Y738566D01*
X585361D01*
X565047Y711648D02*
X562508Y714188D01*
X557430D01*
X554891Y711648D01*
Y701492D01*
X557430Y698952D01*
X562508D01*
X565047Y701492D01*
Y706570D01*
X559969D01*
X570126Y698952D02*
Y714188D01*
X577743D01*
X580283Y711648D01*
Y706570D01*
X577743Y704031D01*
X570126D01*
X585361Y714188D02*
X590439D01*
X587900D01*
Y698952D01*
X585361D01*
X590439D01*
X605674Y714188D02*
X600596D01*
X598057Y711648D01*
Y701492D01*
X600596Y698952D01*
X605674D01*
X608214Y701492D01*
Y711648D01*
X605674Y714188D01*
X613292Y711648D02*
X615831Y714188D01*
X620909D01*
X623448Y711648D01*
Y701492D01*
X620909Y698952D01*
X615831D01*
X613292Y701492D01*
Y711648D01*
X565047Y687270D02*
X562508Y689809D01*
X557430D01*
X554891Y687270D01*
Y677114D01*
X557430Y674574D01*
X562508D01*
X565047Y677114D01*
Y682192D01*
X559969D01*
X570126Y674574D02*
Y689809D01*
X577743D01*
X580283Y687270D01*
Y682192D01*
X577743Y679653D01*
X570126D01*
X585361Y689809D02*
X590439D01*
X587900D01*
Y674574D01*
X585361D01*
X590439D01*
X605674Y689809D02*
X600596D01*
X598057Y687270D01*
Y677114D01*
X600596Y674574D01*
X605674D01*
X608214Y677114D01*
Y687270D01*
X605674Y689809D01*
X613292Y674574D02*
X618370D01*
X615831D01*
Y689809D01*
X613292Y687270D01*
X402540Y665431D02*
X407618D01*
X405079D01*
Y650196D01*
X402540D01*
X407618D01*
X425393D02*
X415236D01*
X425393Y660353D01*
Y662892D01*
X422853Y665431D01*
X417775D01*
X415236Y662892D01*
X440628D02*
X438088Y665431D01*
X433010D01*
X430471Y662892D01*
Y652736D01*
X433010Y650196D01*
X438088D01*
X440628Y652736D01*
X455863Y650196D02*
X445706D01*
X455863Y660353D01*
Y662892D01*
X453324Y665431D01*
X448245D01*
X445706Y662892D01*
X460941Y647657D02*
X471098D01*
X486333Y662892D02*
X483794Y665431D01*
X478715D01*
X476176Y662892D01*
Y660353D01*
X478715Y657814D01*
X483794D01*
X486333Y655275D01*
Y652736D01*
X483794Y650196D01*
X478715D01*
X476176Y652736D01*
X491411Y665431D02*
Y650196D01*
X499029D01*
X501568Y652736D01*
Y662892D01*
X499029Y665431D01*
X491411D01*
X506646Y650196D02*
Y660353D01*
X511725Y665431D01*
X516803Y660353D01*
Y650196D01*
Y657814D01*
X506646D01*
X562508Y662892D02*
X559969Y665431D01*
X554891D01*
X552351Y662892D01*
Y652736D01*
X554891Y650196D01*
X559969D01*
X562508Y652736D01*
Y657814D01*
X557430D01*
X567587Y650196D02*
Y665431D01*
X575204D01*
X577743Y662892D01*
Y657814D01*
X575204Y655275D01*
X567587D01*
X582822Y665431D02*
X587900D01*
X585361D01*
Y650196D01*
X582822D01*
X587900D01*
X603135Y665431D02*
X598057D01*
X595518Y662892D01*
Y652736D01*
X598057Y650196D01*
X603135D01*
X605674Y652736D01*
Y662892D01*
X603135Y665431D01*
X620909Y650196D02*
X610753D01*
X620909Y660353D01*
Y662892D01*
X618370Y665431D01*
X613292D01*
X610753Y662892D01*
X402540Y638514D02*
X407618D01*
X405079D01*
Y623279D01*
X402540D01*
X407618D01*
X425393D02*
X415236D01*
X425393Y633436D01*
Y635975D01*
X422853Y638514D01*
X417775D01*
X415236Y635975D01*
X440628D02*
X438088Y638514D01*
X433010D01*
X430471Y635975D01*
Y625818D01*
X433010Y623279D01*
X438088D01*
X440628Y625818D01*
X455863Y623279D02*
X445706D01*
X455863Y633436D01*
Y635975D01*
X453324Y638514D01*
X448245D01*
X445706Y635975D01*
X460941Y620740D02*
X471098D01*
X486333Y635975D02*
X483794Y638514D01*
X478715D01*
X476176Y635975D01*
Y633436D01*
X478715Y630897D01*
X483794D01*
X486333Y628357D01*
Y625818D01*
X483794Y623279D01*
X478715D01*
X476176Y625818D01*
X501568Y635975D02*
X499029Y638514D01*
X493950D01*
X491411Y635975D01*
Y625818D01*
X493950Y623279D01*
X499029D01*
X501568Y625818D01*
X506646Y638514D02*
Y623279D01*
X516803D01*
X562508Y635975D02*
X559969Y638514D01*
X554891D01*
X552351Y635975D01*
Y625818D01*
X554891Y623279D01*
X559969D01*
X562508Y625818D01*
Y630897D01*
X557430D01*
X567587Y623279D02*
Y638514D01*
X575204D01*
X577743Y635975D01*
Y630897D01*
X575204Y628357D01*
X567587D01*
X582822Y638514D02*
X587900D01*
X585361D01*
Y623279D01*
X582822D01*
X587900D01*
X603135Y638514D02*
X598057D01*
X595518Y635975D01*
Y625818D01*
X598057Y623279D01*
X603135D01*
X605674Y625818D01*
Y635975D01*
X603135Y638514D01*
X610753Y635975D02*
X613292Y638514D01*
X618370D01*
X620909Y635975D01*
Y633436D01*
X618370Y630897D01*
X615831D01*
X618370D01*
X620909Y628357D01*
Y625818D01*
X618370Y623279D01*
X613292D01*
X610753Y625818D01*
X565047Y609058D02*
X562508Y611597D01*
X557430D01*
X554891Y609058D01*
Y598901D01*
X557430Y596362D01*
X562508D01*
X565047Y598901D01*
Y603979D01*
X559969D01*
X570126Y596362D02*
Y611597D01*
X577743D01*
X580283Y609058D01*
Y603979D01*
X577743Y601440D01*
X570126D01*
X585361Y611597D02*
X590439D01*
X587900D01*
Y596362D01*
X585361D01*
X590439D01*
X605674Y611597D02*
X600596D01*
X598057Y609058D01*
Y598901D01*
X600596Y596362D01*
X605674D01*
X608214Y598901D01*
Y609058D01*
X605674Y611597D01*
X620909Y596362D02*
Y611597D01*
X613292Y603979D01*
X623448D01*
X402540Y489706D02*
Y477011D01*
X405079Y474471D01*
X410158D01*
X412697Y477011D01*
Y489706D01*
X417775Y474471D02*
Y484628D01*
X422853Y489706D01*
X427932Y484628D01*
Y474471D01*
Y482089D01*
X417775D01*
X433010Y474471D02*
Y489706D01*
X440628D01*
X443167Y487167D01*
Y482089D01*
X440628Y479550D01*
X433010D01*
X438088D02*
X443167Y474471D01*
X448245Y489706D02*
X458402D01*
X453324D01*
Y474471D01*
X463480Y487167D02*
X466020Y489706D01*
X471098D01*
X473637Y487167D01*
Y484628D01*
X471098Y482089D01*
X468559D01*
X471098D01*
X473637Y479550D01*
Y477011D01*
X471098Y474471D01*
X466020D01*
X463480Y477011D01*
X478715Y471932D02*
X488872D01*
X493950Y474471D02*
Y489706D01*
X501568D01*
X504107Y487167D01*
Y482089D01*
X501568Y479550D01*
X493950D01*
X499029D02*
X504107Y474471D01*
X509185Y489706D02*
X519342Y474471D01*
Y489706D02*
X509185Y474471D01*
X554891D02*
Y484628D01*
X559969Y489706D01*
X565047Y484628D01*
Y474471D01*
Y482089D01*
X554891D01*
X570126Y489706D02*
Y474471D01*
X577743D01*
X580283Y477011D01*
Y487167D01*
X577743Y489706D01*
X570126D01*
X595518Y487167D02*
X592978Y489706D01*
X587900D01*
X585361Y487167D01*
Y477011D01*
X587900Y474471D01*
X592978D01*
X595518Y477011D01*
X600596Y487167D02*
X603135Y489706D01*
X608214D01*
X610753Y487167D01*
Y477011D01*
X608214Y474471D01*
X603135D01*
X600596Y477011D01*
Y487167D01*
X402540Y462789D02*
Y450093D01*
X405079Y447554D01*
X410158D01*
X412697Y450093D01*
Y462789D01*
X417775Y447554D02*
Y457711D01*
X422853Y462789D01*
X427932Y457711D01*
Y447554D01*
Y455172D01*
X417775D01*
X433010Y447554D02*
Y462789D01*
X440628D01*
X443167Y460250D01*
Y455172D01*
X440628Y452632D01*
X433010D01*
X438088D02*
X443167Y447554D01*
X448245Y462789D02*
X458402D01*
X453324D01*
Y447554D01*
X463480Y460250D02*
X466020Y462789D01*
X471098D01*
X473637Y460250D01*
Y457711D01*
X471098Y455172D01*
X468559D01*
X471098D01*
X473637Y452632D01*
Y450093D01*
X471098Y447554D01*
X466020D01*
X463480Y450093D01*
X478715Y445015D02*
X488872D01*
X493950Y462789D02*
X504107D01*
X499029D01*
Y447554D01*
X509185Y462789D02*
X519342Y447554D01*
Y462789D02*
X509185Y447554D01*
X554891D02*
Y457711D01*
X559969Y462789D01*
X565047Y457711D01*
Y447554D01*
Y455172D01*
X554891D01*
X570126Y462789D02*
Y447554D01*
X577743D01*
X580283Y450093D01*
Y460250D01*
X577743Y462789D01*
X570126D01*
X595518Y460250D02*
X592978Y462789D01*
X587900D01*
X585361Y460250D01*
Y450093D01*
X587900Y447554D01*
X592978D01*
X595518Y450093D01*
X600596Y447554D02*
X605674D01*
X603135D01*
Y462789D01*
X600596Y460250D01*
X402540Y435872D02*
Y423176D01*
X405079Y420637D01*
X410158D01*
X412697Y423176D01*
Y435872D01*
X427932Y433333D02*
X425393Y435872D01*
X420314D01*
X417775Y433333D01*
Y430794D01*
X420314Y428254D01*
X425393D01*
X427932Y425715D01*
Y423176D01*
X425393Y420637D01*
X420314D01*
X417775Y423176D01*
X433010Y420637D02*
Y430794D01*
X438088Y435872D01*
X443167Y430794D01*
Y420637D01*
Y428254D01*
X433010D01*
X448245Y420637D02*
Y435872D01*
X455863D01*
X458402Y433333D01*
Y428254D01*
X455863Y425715D01*
X448245D01*
X453324D02*
X458402Y420637D01*
X463480Y435872D02*
X473637D01*
X468559D01*
Y420637D01*
X478715Y433333D02*
X481255Y435872D01*
X486333D01*
X488872Y433333D01*
Y423176D01*
X486333Y420637D01*
X481255D01*
X478715Y423176D01*
Y433333D01*
X493950Y418098D02*
X504107D01*
X509185Y420637D02*
Y435872D01*
X516803D01*
X519342Y433333D01*
Y428254D01*
X516803Y425715D01*
X509185D01*
X514264D02*
X519342Y420637D01*
X524421Y435872D02*
X534577Y420637D01*
Y435872D02*
X524421Y420637D01*
X554891D02*
Y430794D01*
X559969Y435872D01*
X565047Y430794D01*
Y420637D01*
Y428254D01*
X554891D01*
X570126Y435872D02*
Y420637D01*
X577743D01*
X580283Y423176D01*
Y433333D01*
X577743Y435872D01*
X570126D01*
X595518Y433333D02*
X592978Y435872D01*
X587900D01*
X585361Y433333D01*
Y423176D01*
X587900Y420637D01*
X592978D01*
X595518Y423176D01*
X610753Y420637D02*
X600596D01*
X610753Y430794D01*
Y433333D01*
X608214Y435872D01*
X603135D01*
X600596Y433333D01*
X402540Y408955D02*
Y396259D01*
X405079Y393720D01*
X410158D01*
X412697Y396259D01*
Y408955D01*
X427932Y406415D02*
X425393Y408955D01*
X420314D01*
X417775Y406415D01*
Y403876D01*
X420314Y401337D01*
X425393D01*
X427932Y398798D01*
Y396259D01*
X425393Y393720D01*
X420314D01*
X417775Y396259D01*
X433010Y393720D02*
Y403876D01*
X438088Y408955D01*
X443167Y403876D01*
Y393720D01*
Y401337D01*
X433010D01*
X448245Y393720D02*
Y408955D01*
X455863D01*
X458402Y406415D01*
Y401337D01*
X455863Y398798D01*
X448245D01*
X453324D02*
X458402Y393720D01*
X463480Y408955D02*
X473637D01*
X468559D01*
Y393720D01*
X478715Y406415D02*
X481255Y408955D01*
X486333D01*
X488872Y406415D01*
Y396259D01*
X486333Y393720D01*
X481255D01*
X478715Y396259D01*
Y406415D01*
X493950Y391180D02*
X504107D01*
X509185Y408955D02*
X519342D01*
X514264D01*
Y393720D01*
X524421Y408955D02*
X534577Y393720D01*
Y408955D02*
X524421Y393720D01*
X554891D02*
Y403876D01*
X559969Y408955D01*
X565047Y403876D01*
Y393720D01*
Y401337D01*
X554891D01*
X570126Y408955D02*
Y393720D01*
X577743D01*
X580283Y396259D01*
Y406415D01*
X577743Y408955D01*
X570126D01*
X595518Y406415D02*
X592978Y408955D01*
X587900D01*
X585361Y406415D01*
Y396259D01*
X587900Y393720D01*
X592978D01*
X595518Y396259D01*
X600596Y406415D02*
X603135Y408955D01*
X608214D01*
X610753Y406415D01*
Y403876D01*
X608214Y401337D01*
X605674D01*
X608214D01*
X610753Y398798D01*
Y396259D01*
X608214Y393720D01*
X603135D01*
X600596Y396259D01*
X554891Y366802D02*
Y376959D01*
X559969Y382037D01*
X565047Y376959D01*
Y366802D01*
Y374420D01*
X554891D01*
X580283Y379498D02*
X577743Y382037D01*
X572665D01*
X570126Y379498D01*
Y369342D01*
X572665Y366802D01*
X577743D01*
X580283Y369342D01*
Y374420D01*
X575204D01*
X585361Y366802D02*
Y382037D01*
X595518Y366802D01*
Y382037D01*
X600596D02*
Y366802D01*
X608214D01*
X610753Y369342D01*
Y379498D01*
X608214Y382037D01*
X600596D01*
X412697Y330742D02*
X410158Y333281D01*
X405079D01*
X402540Y330742D01*
Y320585D01*
X405079Y318046D01*
X410158D01*
X412697Y320585D01*
Y325664D01*
X407618D01*
X417775Y318046D02*
Y333281D01*
X427932Y318046D01*
Y333281D01*
X433010D02*
Y318046D01*
X440628D01*
X443167Y320585D01*
Y330742D01*
X440628Y333281D01*
X433010D01*
X565047Y330742D02*
X562508Y333281D01*
X557430D01*
X554891Y330742D01*
Y320585D01*
X557430Y318046D01*
X562508D01*
X565047Y320585D01*
Y325664D01*
X559969D01*
X570126Y318046D02*
Y333281D01*
X580283Y318046D01*
Y333281D01*
X585361D02*
Y318046D01*
X592978D01*
X595518Y320585D01*
Y330742D01*
X592978Y333281D01*
X585361D01*
X412697Y306364D02*
X410158Y308903D01*
X405079D01*
X402540Y306364D01*
Y296207D01*
X405079Y293668D01*
X410158D01*
X412697Y296207D01*
Y301286D01*
X407618D01*
X417775Y293668D02*
Y308903D01*
X427932Y293668D01*
Y308903D01*
X433010D02*
Y293668D01*
X440628D01*
X443167Y296207D01*
Y306364D01*
X440628Y308903D01*
X433010D01*
X565047Y306364D02*
X562508Y308903D01*
X557430D01*
X554891Y306364D01*
Y296207D01*
X557430Y293668D01*
X562508D01*
X565047Y296207D01*
Y301286D01*
X559969D01*
X570126Y293668D02*
Y308903D01*
X580283Y293668D01*
Y308903D01*
X585361D02*
Y293668D01*
X592978D01*
X595518Y296207D01*
Y306364D01*
X592978Y308903D01*
X585361D01*
X412697Y281986D02*
X410158Y284525D01*
X405079D01*
X402540Y281986D01*
Y271829D01*
X405079Y269290D01*
X410158D01*
X412697Y271829D01*
Y276908D01*
X407618D01*
X417775Y269290D02*
Y284525D01*
X427932Y269290D01*
Y284525D01*
X433010D02*
Y269290D01*
X440628D01*
X443167Y271829D01*
Y281986D01*
X440628Y284525D01*
X433010D01*
X565047Y281986D02*
X562508Y284525D01*
X557430D01*
X554891Y281986D01*
Y271829D01*
X557430Y269290D01*
X562508D01*
X565047Y271829D01*
Y276908D01*
X559969D01*
X570126Y269290D02*
Y284525D01*
X580283Y269290D01*
Y284525D01*
X585361D02*
Y269290D01*
X592978D01*
X595518Y271829D01*
Y281986D01*
X592978Y284525D01*
X585361D01*
M02*
