G04*
G04 #@! TF.GenerationSoftware,Altium Limited,Altium Designer,24.0.1 (36)*
G04*
G04 Layer_Physical_Order=2*
G04 Layer_Color=16711680*
%FSLAX44Y44*%
%MOMM*%
G71*
G04*
G04 #@! TF.SameCoordinates,0A1429B2-28BD-4406-9712-C9141F762160*
G04*
G04*
G04 #@! TF.FilePolarity,Positive*
G04*
G01*
G75*
D15*
X677850Y761250D02*
D03*
X703250D02*
D03*
X677850Y735850D02*
D03*
X703250D02*
D03*
X677850Y710450D02*
D03*
X703250D02*
D03*
X677850Y685050D02*
D03*
X703250D02*
D03*
X677850Y659650D02*
D03*
X703250D02*
D03*
X677850Y634250D02*
D03*
X703250D02*
D03*
X677850Y608850D02*
D03*
X703250D02*
D03*
X677850Y583450D02*
D03*
X703250D02*
D03*
X677850Y558050D02*
D03*
X703250D02*
D03*
X677850Y532650D02*
D03*
X703250D02*
D03*
X677850Y507250D02*
D03*
X703250D02*
D03*
X677850Y481850D02*
D03*
X703250D02*
D03*
X677850Y456450D02*
D03*
X703250D02*
D03*
X677850Y431050D02*
D03*
X703250D02*
D03*
X677850Y405650D02*
D03*
X703250D02*
D03*
X677850Y380250D02*
D03*
X703250D02*
D03*
X677850Y354850D02*
D03*
X703250D02*
D03*
X677850Y329450D02*
D03*
X703250D02*
D03*
X677850Y304050D02*
D03*
X703250D02*
D03*
X677850Y278650D02*
D03*
X1405100Y759050D02*
D03*
X1430500D02*
D03*
X1405100Y733650D02*
D03*
X1430500D02*
D03*
X1405100Y708250D02*
D03*
X1430500D02*
D03*
X1405100Y682850D02*
D03*
X1430500D02*
D03*
X1405100Y657450D02*
D03*
X1430500D02*
D03*
X1405100Y632050D02*
D03*
X1430500D02*
D03*
X1405100Y606650D02*
D03*
X1430500D02*
D03*
X1405100Y581250D02*
D03*
X1430500D02*
D03*
X1405100Y555850D02*
D03*
X1430500D02*
D03*
X1405100Y530450D02*
D03*
X1430500D02*
D03*
X1405100Y505050D02*
D03*
X1430500D02*
D03*
X1405100Y479650D02*
D03*
X1430500D02*
D03*
X1405100Y454250D02*
D03*
X1430500D02*
D03*
X1405100Y428850D02*
D03*
X1430500D02*
D03*
X1405100Y403450D02*
D03*
X1430500D02*
D03*
X1405100Y378050D02*
D03*
X1430500D02*
D03*
X1405100Y352650D02*
D03*
X1430500D02*
D03*
X1405100Y327250D02*
D03*
X1430500D02*
D03*
X1405100Y301850D02*
D03*
X1430500D02*
D03*
X1405100Y276450D02*
D03*
X1404100Y1276200D02*
D03*
X1429500D02*
D03*
X1404100Y1250800D02*
D03*
X1429500D02*
D03*
X1404100Y1225400D02*
D03*
X1429500D02*
D03*
X1404100Y1200000D02*
D03*
X1429500D02*
D03*
X1404100Y1174600D02*
D03*
X1429500D02*
D03*
X1404100Y1149200D02*
D03*
X1429500D02*
D03*
X1404100Y1123800D02*
D03*
X1429500D02*
D03*
X1404100Y1098400D02*
D03*
X1429500D02*
D03*
X1404100Y1073000D02*
D03*
X1429500D02*
D03*
X1404100Y1047600D02*
D03*
X1429500D02*
D03*
X1404100Y1022200D02*
D03*
X1429500D02*
D03*
X1404100Y996800D02*
D03*
X1429500D02*
D03*
X1404100Y971400D02*
D03*
X1429500D02*
D03*
X1404100Y946000D02*
D03*
X1429500D02*
D03*
X1404100Y920600D02*
D03*
X1429500D02*
D03*
X1404100Y895200D02*
D03*
X1429500D02*
D03*
X1404100Y869800D02*
D03*
X1429500D02*
D03*
X1404100Y844400D02*
D03*
X1429500D02*
D03*
X1404100Y819000D02*
D03*
X1429500D02*
D03*
X1404100Y793600D02*
D03*
X676850Y1285050D02*
D03*
X702250D02*
D03*
X676850Y1259650D02*
D03*
X702250D02*
D03*
X676850Y1234250D02*
D03*
X702250D02*
D03*
X676850Y1208850D02*
D03*
X702250D02*
D03*
X676850Y1183450D02*
D03*
X702250D02*
D03*
X676850Y1158050D02*
D03*
X702250D02*
D03*
X676850Y1132650D02*
D03*
X702250D02*
D03*
X676850Y1107250D02*
D03*
X702250D02*
D03*
X676850Y1081850D02*
D03*
X702250D02*
D03*
X676850Y1056450D02*
D03*
X702250D02*
D03*
X676850Y1031050D02*
D03*
X702250D02*
D03*
X676850Y1005650D02*
D03*
X702250D02*
D03*
X676850Y980250D02*
D03*
X702250D02*
D03*
X676850Y954850D02*
D03*
X702250D02*
D03*
X676850Y929450D02*
D03*
X702250D02*
D03*
X676850Y904050D02*
D03*
X702250D02*
D03*
X676850Y878650D02*
D03*
X702250D02*
D03*
X676850Y853250D02*
D03*
X702250D02*
D03*
X676850Y827850D02*
D03*
X702250D02*
D03*
X676850Y802450D02*
D03*
D16*
X703250Y278650D02*
D03*
X1430500Y276450D02*
D03*
X1429500Y793600D02*
D03*
X702250Y802450D02*
D03*
M02*
