G04*
G04 #@! TF.GenerationSoftware,Altium Limited,Altium Designer,24.4.1 (13)*
G04*
G04 Layer_Color=32896*
%FSLAX44Y44*%
%MOMM*%
G71*
G04*
G04 #@! TF.SameCoordinates,5A4A1F7D-102A-4DB2-8EF6-149E98EE43DC*
G04*
G04*
G04 #@! TF.FilePolarity,Positive*
G04*
G01*
G75*
%ADD10C,0.2000*%
%ADD11C,0.2500*%
%ADD12C,0.1270*%
%ADD13C,0.2540*%
%ADD14C,0.1500*%
%ADD16R,3.0000X0.5000*%
%ADD82R,0.5000X3.0000*%
D10*
X672000Y994000D02*
G03*
X672000Y994000I-1000J0D01*
G01*
X614420Y1137150D02*
G03*
X614420Y1137150I-1000J0D01*
G01*
X491400Y1080830D02*
G03*
X491400Y1080830I-1000J0D01*
G01*
X446950Y1178149D02*
G03*
X431050Y1178149I-7950J-16149D01*
G01*
Y1145851D02*
G03*
X446950Y1145851I7950J16149D01*
G01*
X447050Y1146351D02*
G03*
X462950Y1146351I7950J16149D01*
G01*
Y1178649D02*
G03*
X447050Y1178649I-7950J-16149D01*
G01*
X502450D02*
G03*
X486550Y1178649I-7950J-16149D01*
G01*
Y1146351D02*
G03*
X502450Y1146351I7950J16149D01*
G01*
X459300D02*
G03*
X475200Y1146351I7950J16149D01*
G01*
Y1178649D02*
G03*
X459300Y1178649I-7950J-16149D01*
G01*
X355000Y1165750D02*
G03*
X345000Y1155750I0J-10000D01*
G01*
Y1090750D02*
G03*
X355000Y1080750I10000J0D01*
G01*
X425000Y1155750D02*
G03*
X415000Y1165750I-10000J0D01*
G01*
Y1080750D02*
G03*
X425000Y1090750I0J10000D01*
G01*
X660750Y1148000D02*
G03*
X650750Y1138000I0J-10000D01*
G01*
Y1073000D02*
G03*
X660750Y1063000I10000J0D01*
G01*
X730750Y1138000D02*
G03*
X720750Y1148000I-10000J0D01*
G01*
Y1063000D02*
G03*
X730750Y1073000I0J10000D01*
G01*
X545149Y1071800D02*
G03*
X545149Y1087700I-16149J7950D01*
G01*
X512851D02*
G03*
X512851Y1071800I16149J-7950D01*
G01*
X545399Y1131550D02*
G03*
X545399Y1147450I-16149J7950D01*
G01*
X513101D02*
G03*
X513101Y1131550I16149J-7950D01*
G01*
X545649Y1100800D02*
G03*
X545649Y1116700I-16149J7950D01*
G01*
X513351D02*
G03*
X513351Y1100800I16149J-7950D01*
G01*
X512601Y1101700D02*
G03*
X512601Y1085800I16149J-7950D01*
G01*
X544899D02*
G03*
X544899Y1101700I-16149J7950D01*
G01*
X712700Y921399D02*
G03*
X696800Y921399I-7950J-16149D01*
G01*
Y889101D02*
G03*
X712700Y889101I7950J16149D01*
G01*
X696800Y842851D02*
G03*
X712700Y842851I7950J16149D01*
G01*
Y875149D02*
G03*
X696800Y875149I-7950J-16149D01*
G01*
X724690Y918948D02*
G03*
X724690Y918948I-1000J0D01*
G01*
X447000Y1146000D02*
Y1178000D01*
X431000Y1146000D02*
Y1178000D01*
X447000Y1146500D02*
Y1178500D01*
X463000Y1146500D02*
Y1178500D01*
X502500Y1146500D02*
Y1178500D01*
X486500Y1146500D02*
Y1178500D01*
X459250Y1146500D02*
Y1178500D01*
X475250Y1146500D02*
Y1178500D01*
X487750Y1145500D02*
Y1179500D01*
X471750D02*
X487750D01*
X471750Y1145500D02*
Y1179500D01*
Y1145500D02*
X487750D01*
X345000Y1090750D02*
Y1155750D01*
X355000Y1165750D02*
X415000D01*
X355000Y1080750D02*
X415000D01*
X425000Y1090750D02*
Y1155750D01*
X571750Y1052750D02*
X605750D01*
X571750Y1036750D02*
Y1052750D01*
Y1036750D02*
X605750D01*
Y1052750D01*
X614750Y1052750D02*
Y1076750D01*
X564750Y1052750D02*
X614750D01*
X564750D02*
Y1076750D01*
X614750D01*
X650750Y1073000D02*
Y1138000D01*
X660750Y1148000D02*
X720750D01*
X660750Y1063000D02*
X720750D01*
X730750Y1073000D02*
Y1138000D01*
X696750Y1021500D02*
Y1055500D01*
X680750D02*
X696750D01*
X680750Y1021500D02*
Y1055500D01*
Y1021500D02*
X696750D01*
X513000Y1071750D02*
X545000D01*
X513000Y1087750D02*
X545000D01*
X513000Y1131250D02*
X547000D01*
X513000Y1115250D02*
Y1131250D01*
Y1115250D02*
X547000D01*
Y1131250D01*
X513250Y1131500D02*
X545250D01*
X513250Y1147500D02*
X545250D01*
X513500Y1100750D02*
X545500D01*
X513500Y1116750D02*
X545500D01*
X512750Y1101750D02*
X544750D01*
X512750Y1085750D02*
X544750D01*
X627000Y1098500D02*
X643000D01*
X627000D02*
Y1132500D01*
X643000D01*
Y1098500D02*
Y1132500D01*
X453250Y1052750D02*
Y1068750D01*
X487250D01*
Y1052750D02*
Y1068750D01*
X453250Y1052750D02*
X487250D01*
X361750Y1022500D02*
Y1046500D01*
X411750D01*
Y1022500D02*
Y1046500D01*
X361750Y1022500D02*
X411750D01*
X488500Y1056750D02*
X504500D01*
X488500D02*
Y1090750D01*
X504500D01*
Y1056750D02*
Y1090750D01*
X413000Y1167500D02*
Y1191500D01*
X363000Y1167500D02*
X413000D01*
X363000D02*
Y1191500D01*
X413000D01*
X712750Y889250D02*
Y921250D01*
X696750Y889250D02*
Y921250D01*
X696750Y843000D02*
Y875000D01*
X712750Y843000D02*
Y875000D01*
D11*
X648000Y1012250D02*
Y1082250D01*
X618000Y1012250D02*
Y1082250D01*
X643000Y1012250D02*
X648000D01*
X618000D02*
X623000D01*
X618000Y1082250D02*
X623000D01*
X643000D02*
X648000D01*
X625500Y1042250D02*
X640500D01*
X633000Y1049750D02*
X633000D01*
X640500Y1042250D01*
X625500D02*
X625500D01*
X633000Y1049750D01*
X351000Y1047750D02*
X421000D01*
X351000Y1077750D02*
X421000D01*
X351000Y1047750D02*
Y1052750D01*
Y1072750D02*
Y1077750D01*
X421000Y1072750D02*
Y1077750D01*
Y1047750D02*
Y1052750D01*
X381000Y1055250D02*
Y1070250D01*
X388500Y1062750D02*
Y1062750D01*
X381000Y1055250D02*
X388500Y1062750D01*
X381000Y1070250D02*
Y1070250D01*
Y1070250D02*
X388500Y1062750D01*
D12*
X665500Y840500D02*
Y1012500D01*
X510500Y840500D02*
X665500D01*
X510500D02*
Y1012500D01*
X530900D01*
X573100D02*
X602900D01*
X645100D02*
X665500D01*
X461600Y1022150D02*
Y1034850D01*
X448900D02*
X461600D01*
Y1047550D01*
Y1034850D02*
X474300D01*
X346000Y829750D02*
X501000D01*
Y1011750D01*
X346000Y829750D02*
Y1011750D01*
X409280D02*
X437720D01*
X481280D02*
X501000D01*
X346000D02*
X365720D01*
X566750Y1084750D02*
Y1085750D01*
X606750Y1084750D02*
Y1085750D01*
X566750Y1084750D02*
X606750D01*
Y1133750D02*
Y1134750D01*
X566750Y1133750D02*
Y1134750D01*
X606750D01*
X438000Y1127500D02*
X439000D01*
X438000Y1087500D02*
X439000D01*
X438000D02*
Y1127500D01*
X487000Y1087500D02*
X488000D01*
X487000Y1127500D02*
X488000D01*
Y1087500D02*
Y1127500D01*
X755190Y842248D02*
X771990D01*
X795390D02*
X809690D01*
X755190Y931648D02*
X771990D01*
X795390D02*
X809690D01*
Y842248D02*
Y931648D01*
D13*
X550926Y1038093D02*
X540769Y1022858D01*
Y1038093D02*
X550926Y1022858D01*
X525534D02*
X535691D01*
X525534Y1033015D01*
Y1035554D01*
X528073Y1038093D01*
X533152D01*
X535691Y1035554D01*
X512838Y1022858D02*
Y1038093D01*
X520456Y1030475D01*
X510299D01*
X386334Y1071113D02*
X376177Y1055878D01*
Y1071113D02*
X386334Y1055878D01*
X360942D02*
X371099D01*
X360942Y1066035D01*
Y1068574D01*
X363481Y1071113D01*
X368560D01*
X371099Y1068574D01*
X345707Y1055878D02*
X355864D01*
X345707Y1066035D01*
Y1068574D01*
X348246Y1071113D01*
X353325D01*
X355864Y1068574D01*
X759714Y965449D02*
X749557Y950214D01*
Y965449D02*
X759714Y950214D01*
X734322D02*
X744479D01*
X734322Y960371D01*
Y962910D01*
X736861Y965449D01*
X741940D01*
X744479Y962910D01*
X729244Y950214D02*
X724165D01*
X726705D01*
Y965449D01*
X729244Y962910D01*
X263652Y1095243D02*
X253495Y1080008D01*
Y1095243D02*
X263652Y1080008D01*
X248417D02*
X243339D01*
X245878D01*
Y1095243D01*
X248417Y1092704D01*
X235721Y1082547D02*
X233182Y1080008D01*
X228104D01*
X225564Y1082547D01*
Y1092704D01*
X228104Y1095243D01*
X233182D01*
X235721Y1092704D01*
Y1090165D01*
X233182Y1087626D01*
X225564D01*
X778764Y1371087D02*
X768607Y1355852D01*
Y1371087D02*
X778764Y1355852D01*
X763529D02*
X758451D01*
X760990D01*
Y1371087D01*
X763529Y1368548D01*
X740676Y1371087D02*
X745755Y1368548D01*
X750833Y1363470D01*
Y1358391D01*
X748294Y1355852D01*
X743215D01*
X740676Y1358391D01*
Y1360930D01*
X743215Y1363470D01*
X750833D01*
X264160Y1247897D02*
X254003Y1232662D01*
Y1247897D02*
X264160Y1232662D01*
X248925D02*
X243847D01*
X246386D01*
Y1247897D01*
X248925Y1245358D01*
X226072Y1232662D02*
X236229D01*
X226072Y1242819D01*
Y1245358D01*
X228612Y1247897D01*
X233690D01*
X236229Y1245358D01*
X789432Y1227831D02*
X779275Y1212596D01*
Y1227831D02*
X789432Y1212596D01*
X774197D02*
X769119D01*
X771658D01*
Y1227831D01*
X774197Y1225292D01*
X761501Y1212596D02*
X756423D01*
X758962D01*
Y1227831D01*
X761501Y1225292D01*
X762762Y1097783D02*
X752605Y1082548D01*
Y1097783D02*
X762762Y1082548D01*
X747527Y1095244D02*
X744988Y1097783D01*
X739909D01*
X737370Y1095244D01*
Y1092705D01*
X739909Y1090165D01*
X737370Y1087626D01*
Y1085087D01*
X739909Y1082548D01*
X744988D01*
X747527Y1085087D01*
Y1087626D01*
X744988Y1090165D01*
X747527Y1092705D01*
Y1095244D01*
X744988Y1090165D02*
X739909D01*
X274320Y965195D02*
X264163Y949960D01*
Y965195D02*
X274320Y949960D01*
X259085Y965195D02*
X248928D01*
Y962656D01*
X259085Y952499D01*
Y949960D01*
X250444Y1364229D02*
X240287Y1348994D01*
Y1364229D02*
X250444Y1348994D01*
X225052Y1364229D02*
X230131Y1361690D01*
X235209Y1356611D01*
Y1351533D01*
X232670Y1348994D01*
X227591D01*
X225052Y1351533D01*
Y1354072D01*
X227591Y1356611D01*
X235209D01*
X419608Y1101847D02*
Y1091690D01*
X414530Y1086612D01*
X409451Y1091690D01*
Y1101847D01*
X404373D02*
Y1086612D01*
X396755D01*
X394216Y1089151D01*
Y1099308D01*
X396755Y1101847D01*
X404373D01*
X389138Y1099308D02*
X386599Y1101847D01*
X381520D01*
X378981Y1099308D01*
Y1096769D01*
X381520Y1094230D01*
X384059D01*
X381520D01*
X378981Y1091690D01*
Y1089151D01*
X381520Y1086612D01*
X386599D01*
X389138Y1089151D01*
X646684Y1106419D02*
Y1096262D01*
X641606Y1091184D01*
X636527Y1096262D01*
Y1106419D01*
X631449D02*
Y1091184D01*
X623831D01*
X621292Y1093723D01*
Y1103880D01*
X623831Y1106419D01*
X631449D01*
X616214Y1091184D02*
X611135D01*
X613675D01*
Y1106419D01*
X616214Y1103880D01*
X490474Y1167633D02*
Y1154937D01*
X487935Y1152398D01*
X482856D01*
X480317Y1154937D01*
Y1167633D01*
X475239Y1165094D02*
X472700Y1167633D01*
X467621D01*
X465082Y1165094D01*
Y1162555D01*
X467621Y1160015D01*
X470161D01*
X467621D01*
X465082Y1157476D01*
Y1154937D01*
X467621Y1152398D01*
X472700D01*
X475239Y1154937D01*
X621538Y1162553D02*
Y1149857D01*
X618999Y1147318D01*
X613921D01*
X611381Y1149857D01*
Y1162553D01*
X606303Y1147318D02*
X601225D01*
X603764D01*
Y1162553D01*
X606303Y1160014D01*
X423418Y1189731D02*
Y1174496D01*
X413261D01*
X408183Y1187192D02*
X405644Y1189731D01*
X400565D01*
X398026Y1187192D01*
Y1184653D01*
X400565Y1182113D01*
X403105D01*
X400565D01*
X398026Y1179574D01*
Y1177035D01*
X400565Y1174496D01*
X405644D01*
X408183Y1177035D01*
X729234Y1171951D02*
Y1156716D01*
X719077D01*
X713999D02*
X708921D01*
X711460D01*
Y1171951D01*
X713999Y1169412D01*
D14*
X552251Y1132835D02*
X560249D01*
Y1136834D01*
X558916Y1138167D01*
X556250D01*
X554917Y1136834D01*
Y1132835D01*
Y1135501D02*
X552251Y1138167D01*
Y1144832D02*
X560249D01*
X556250Y1140833D01*
Y1146165D01*
X506999Y1115415D02*
X499001D01*
Y1111416D01*
X500334Y1110083D01*
X503000D01*
X504333Y1111416D01*
Y1115415D01*
Y1112749D02*
X506999Y1110083D01*
Y1102085D02*
Y1107417D01*
X501667Y1102085D01*
X500334D01*
X499001Y1103418D01*
Y1106084D01*
X500334Y1107417D01*
X555583Y1050416D02*
X556916Y1051749D01*
X559582D01*
X560914Y1050416D01*
Y1045084D01*
X559582Y1043751D01*
X556916D01*
X555583Y1045084D01*
X547585Y1043751D02*
X552917D01*
X547585Y1049083D01*
Y1050416D01*
X548918Y1051749D01*
X551584D01*
X552917Y1050416D01*
X683301Y841003D02*
X691299D01*
Y845002D01*
X689966Y846335D01*
X687300D01*
X685967Y845002D01*
Y841003D01*
Y843669D02*
X683301Y846335D01*
Y849001D02*
Y851666D01*
Y850333D01*
X691299D01*
X689966Y849001D01*
Y855665D02*
X691299Y856998D01*
Y859664D01*
X689966Y860997D01*
X688633D01*
X687300Y859664D01*
X685967Y860997D01*
X684634D01*
X683301Y859664D01*
Y856998D01*
X684634Y855665D01*
X685967D01*
X687300Y856998D01*
X688633Y855665D01*
X689966D01*
X687300Y856998D02*
Y859664D01*
X696253Y863749D02*
Y855751D01*
X700252D01*
X701585Y857084D01*
Y859750D01*
X700252Y861083D01*
X696253D01*
X698919D02*
X701585Y863749D01*
X704251D02*
X706916D01*
X705584D01*
Y855751D01*
X704251Y857084D01*
X710915D02*
X712248Y855751D01*
X714914D01*
X716247Y857084D01*
Y858417D01*
X714914Y859750D01*
X713581D01*
X714914D01*
X716247Y861083D01*
Y862416D01*
X714914Y863749D01*
X712248D01*
X710915Y862416D01*
X436751Y1151253D02*
X444749D01*
Y1155252D01*
X443416Y1156585D01*
X440750D01*
X439417Y1155252D01*
Y1151253D01*
Y1153919D02*
X436751Y1156585D01*
Y1159251D02*
Y1161916D01*
Y1160583D01*
X444749D01*
X443416Y1159251D01*
X436751Y1171247D02*
Y1165915D01*
X442083Y1171247D01*
X443416D01*
X444749Y1169914D01*
Y1167248D01*
X443416Y1165915D01*
X426586Y1120249D02*
Y1112251D01*
X430585D01*
X431918Y1113584D01*
Y1116250D01*
X430585Y1117583D01*
X426586D01*
X429252D02*
X431918Y1120249D01*
X434584D02*
X437249D01*
X435916D01*
Y1112251D01*
X434584Y1113584D01*
X441248Y1120249D02*
X443914D01*
X442581D01*
Y1112251D01*
X441248Y1113584D01*
X444751Y1178003D02*
X452749D01*
Y1182002D01*
X451416Y1183335D01*
X448750D01*
X447417Y1182002D01*
Y1178003D01*
Y1180669D02*
X444751Y1183335D01*
Y1186001D02*
Y1188666D01*
Y1187334D01*
X452749D01*
X451416Y1186001D01*
Y1192665D02*
X452749Y1193998D01*
Y1196664D01*
X451416Y1197997D01*
X446084D01*
X444751Y1196664D01*
Y1193998D01*
X446084Y1192665D01*
X451416D01*
X495499Y1168165D02*
X487501D01*
Y1164166D01*
X488834Y1162833D01*
X491500D01*
X492833Y1164166D01*
Y1168165D01*
Y1165499D02*
X495499Y1162833D01*
X494166Y1160167D02*
X495499Y1158834D01*
Y1156169D01*
X494166Y1154836D01*
X488834D01*
X487501Y1156169D01*
Y1158834D01*
X488834Y1160167D01*
X490167D01*
X491500Y1158834D01*
Y1154836D01*
X528164Y1057501D02*
Y1065499D01*
X524166D01*
X522833Y1064166D01*
Y1061500D01*
X524166Y1060167D01*
X528164D01*
X525499D02*
X522833Y1057501D01*
X520167Y1064166D02*
X518834Y1065499D01*
X516168D01*
X514836Y1064166D01*
Y1062833D01*
X516168Y1061500D01*
X517501D01*
X516168D01*
X514836Y1060167D01*
Y1058834D01*
X516168Y1057501D01*
X518834D01*
X520167Y1058834D01*
X533832Y1073001D02*
Y1080999D01*
X529833D01*
X528500Y1079666D01*
Y1077000D01*
X529833Y1075667D01*
X533832D01*
X531166D02*
X528500Y1073001D01*
X525834D02*
X523168D01*
X524501D01*
Y1080999D01*
X525834Y1079666D01*
X412584Y1197665D02*
X411251Y1198998D01*
Y1201664D01*
X412584Y1202997D01*
X417916D01*
X419249Y1201664D01*
Y1198998D01*
X417916Y1197665D01*
X419249Y1194999D02*
Y1192334D01*
Y1193666D01*
X411251D01*
X412584Y1194999D01*
X411251Y1183003D02*
Y1188335D01*
X415250D01*
X413917Y1185669D01*
Y1184336D01*
X415250Y1183003D01*
X417916D01*
X419249Y1184336D01*
Y1187002D01*
X417916Y1188335D01*
X506915Y1064416D02*
X508248Y1065749D01*
X510914D01*
X512247Y1064416D01*
Y1059084D01*
X510914Y1057751D01*
X508248D01*
X506915Y1059084D01*
X504249Y1057751D02*
X501584D01*
X502916D01*
Y1065749D01*
X504249Y1064416D01*
X493586Y1057751D02*
Y1065749D01*
X497585Y1061750D01*
X492253D01*
X474584Y1199415D02*
X473251Y1200748D01*
Y1203414D01*
X474584Y1204747D01*
X479916D01*
X481249Y1203414D01*
Y1200748D01*
X479916Y1199415D01*
X481249Y1196749D02*
Y1194083D01*
Y1195416D01*
X473251D01*
X474584Y1196749D01*
Y1190085D02*
X473251Y1188752D01*
Y1186086D01*
X474584Y1184753D01*
X475917D01*
X477250Y1186086D01*
Y1187419D01*
Y1186086D01*
X478583Y1184753D01*
X479916D01*
X481249Y1186086D01*
Y1188752D01*
X479916Y1190085D01*
X488585Y1100584D02*
X487252Y1099251D01*
X484586D01*
X483253Y1100584D01*
Y1105916D01*
X484586Y1107249D01*
X487252D01*
X488585Y1105916D01*
X491251Y1107249D02*
X493917D01*
X492584D01*
Y1099251D01*
X491251Y1100584D01*
X503247Y1107249D02*
X497915D01*
X503247Y1101917D01*
Y1100584D01*
X501914Y1099251D01*
X499248D01*
X497915Y1100584D01*
X387582Y1053666D02*
X388915Y1054999D01*
X391581D01*
X392914Y1053666D01*
Y1048334D01*
X391581Y1047001D01*
X388915D01*
X387582Y1048334D01*
X384916Y1047001D02*
X382251D01*
X383583D01*
Y1054999D01*
X384916Y1053666D01*
X378252Y1047001D02*
X375586D01*
X376919D01*
Y1054999D01*
X378252Y1053666D01*
X686666Y993167D02*
X687999Y991834D01*
Y989168D01*
X686666Y987835D01*
X681334D01*
X680001Y989168D01*
Y991834D01*
X681334Y993167D01*
X687999Y1001164D02*
Y995833D01*
X684000D01*
X685333Y998499D01*
Y999832D01*
X684000Y1001164D01*
X681334D01*
X680001Y999832D01*
Y997166D01*
X681334Y995833D01*
X631084Y1088333D02*
X629751Y1089666D01*
Y1092332D01*
X631084Y1093664D01*
X636416D01*
X637749Y1092332D01*
Y1089666D01*
X636416Y1088333D01*
X637749Y1081668D02*
X629751D01*
X633750Y1085667D01*
Y1080335D01*
X531083Y1148916D02*
X532416Y1150249D01*
X535082D01*
X536414Y1148916D01*
Y1143584D01*
X535082Y1142251D01*
X532416D01*
X531083Y1143584D01*
X528417Y1148916D02*
X527084Y1150249D01*
X524418D01*
X523086Y1148916D01*
Y1147583D01*
X524418Y1146250D01*
X525751D01*
X524418D01*
X523086Y1144917D01*
Y1143584D01*
X524418Y1142251D01*
X527084D01*
X528417Y1143584D01*
X562250Y1073666D02*
X563583Y1074999D01*
X566249D01*
X567582Y1073666D01*
Y1068334D01*
X566249Y1067001D01*
X563583D01*
X562250Y1068334D01*
X559584Y1067001D02*
X556918D01*
X558251D01*
Y1074999D01*
X559584Y1073666D01*
D16*
X633007Y1052250D02*
D03*
D82*
X391001Y1062749D02*
D03*
M02*
