M48
;Layer_Color=9474304
;FILE_FORMAT=4:4
METRIC,LZ
;TYPE=PLATED
T01F00S00C0.3000
T02F00S00C0.4000
T03F00S00C0.6000
T06F00S00C0.9000
T07F00S00C2.7000
%
T01
X00681Y008401
Y008528
Y008655
X0072Y008528
Y008401
X00644Y00961
T02
X0029Y008395
X0028975Y00853
X0029Y0086525
X00329Y008655
Y008525
Y008395
X0038225Y00846
X003815Y0088825
X0029Y009295
X0029025Y0094275
X00264Y009295
X002485Y0102
X002876Y01017779
X002895Y0102975
X0032925Y01031
X00329Y01043
X0032925Y0105625
X003545Y010445
X00366Y0106275
X00332Y0109375
X0032275Y01093
X00313Y0109325
X0030125Y0109125
X0029375Y010915
X002805Y0109075
X00271Y0109
X0032925Y0101775
X004255Y0108025
X0044375Y01083
X0046175Y01108
X0047825Y0111275
X00496Y0108225
X0048Y0104575
X005215Y0112325
X0047975Y0116475
X00427Y0114525
Y0113625
Y011305
X004265Y011185
X00402Y011795
X005895Y01078
X00591Y010675
X0059075Y0105775
Y010345
X0061Y010775
X00644366Y01130591
X00688Y011595
Y011725
X0068825Y01185
X007195Y0118525
X0071925Y011725
X0074575Y0117775
X0074125Y0111625
X0072Y010305
X0071975Y01018
X0072Y010055
X0072025Y0099275
X00699Y01027
X0070475Y0091375
X0072Y0091575
Y0090425
X0072075Y0089075
X0072Y0087825
Y0086525
X0073619Y00862948
Y00854948
X0070475Y008505
X0068125Y008785
Y0089075
Y0090375
X00681Y009165
X0073619Y00918948
X0063375Y00867
X00626
X00634Y0085825
X00586Y0086675
X00578
X00415Y0084475
X0041725Y013215
X004995Y0132225
X005135Y01295
X00623Y0129525
X006155Y0134175
X0059025Y0133975
X0068075Y013373
Y013246
X006805Y0131125
X0068075Y0129925
X0068Y0128775
X0068125Y01274
X0068925Y012615
Y0124825
X0069175Y01235331
X0068875Y012235
X0069175Y0121075
Y011975
X0071925Y0119775
X00719Y0121075
Y0124875
X007195Y0126125
Y012745
X00719Y012865
X0071925Y0129875
X00719Y013116
X0071975Y013246
Y013373
Y0135
X0068075
X0032925Y013495
Y01337
X00325947Y01318947
X00338611Y01298504
X0033025Y01285
X0032875Y0127375
X0028875Y0127425
X002885Y0128425
X0029Y0129925
X0029Y013119
X0029Y0134975
T03
X0037175Y01035
X0039975Y01034
X0075725Y0098825
X00763Y0113
Y01287
X006425Y0127525
X006155Y0132475
X0059025Y0132275
X0057725Y013365
X005645Y0133625
X0055175Y013365
X0048175Y01325668
X00435Y0133575
X004185Y0133775
X0044Y012715
X00268669Y01269669
T06
X004038Y0120475
X004039Y0122975
Y0125475
X004293
Y0122975
X004292Y0120475
X004546
X004547Y0122975
Y0125475
X004801
Y0122975
X0048Y0120475
X005054
X005055Y0122975
Y0125475
X005309
Y0122975
X005308Y0120475
X005562
X005563Y0122975
Y0125475
X005817
Y0122975
X005816Y0120475
X00607
X006071Y0122975
Y0125475
X006325
Y0122975
X006324Y0120475
X006578
X006579Y0122975
Y0125475
X003785
Y0122975
X003784Y0120475
X00353
X003531Y0122975
Y0125475
T07
X003875Y0099325
X004595
X00552Y00994
X00624
M30
