M48
;Layer_Color=9474304
;FILE_FORMAT=4:4
METRIC,LZ
;TYPE=PLATED
T1F00S00C0.3000
T2F00S00C0.4000
T5F00S00C0.9000
T6F00S00C2.7000
;TYPE=NON_PLATED
T7F00S00C0.6000
%
T01
X0060175Y009655
T02
X0025475Y009
X00248517Y00912388
X00239955Y00917676
X00264949Y00941956
X00274Y009485
X00267455Y00966183
X003095Y0098275
X00308199Y01017456
X00310449Y01030456
X00351963Y01040747
X0033525Y0107575
X00325133Y01099688
X003015Y0111525
X00369657Y01141935
X003885Y01179
X0039575Y01175
X00414Y0117925
X00491705Y01179
X00527Y01145
X0055975Y011455
X005735Y0107325
X0052375Y01072
X00505Y01085897
X005035Y011105
X00487178Y01030034
X0042925Y0101675
X00412346Y0103123
X00446383Y00869438
X00524133Y00836688
X0058825Y008385
X00655705Y00846433
X0069975Y0084675
X0070075Y00878
X00657455Y00914684
X00659133Y00967938
X0064575Y00972
X0059725Y009515
X006045Y010175
X00698Y00993
X00771017Y00990638
X00772767Y01002138
X00775517Y01014888
X00770767Y00977638
X0076475Y0096425
X0074875Y009535
X0074325Y010645
X007235Y0107475
X00717633Y01091688
X0069225Y0109525
X0069825Y01153
X006985Y0116675
X00698346Y0117798
X00699Y011875
X0069825Y011985
X00694746Y01239468
X0070975Y0125425
X007135Y0126705
X0071175Y0127975
Y0129245
X007265Y0130515
X00741339Y012883
X0073825Y01241138
X00778589Y01270801
X0070725Y013185
X0054025Y0129775
X0052575Y0129925
X00546455Y01275934
X0044125Y01312
X0043825Y012155
X0030925Y012165
X0030975Y0123075
X0031025Y01272
X00309642Y01312242
X00309205Y01337433
X00249832Y01321454
X0026875Y01271
X002445Y01198
X002295Y01205
X00359705Y01300184
T05
X0040425Y0120475
Y0122975
Y0125475
X0042965
Y0122975
Y0120475
X0045505
Y0122975
Y0125475
X0048045
Y0122975
Y0120475
X0050585
Y0122975
Y0125475
X0053125
Y0122975
Y0120475
X0055665
Y0122975
Y0125475
X0058205
Y0122975
Y0120475
X0060745
Y0122975
Y0125475
X0063285
Y0122975
Y0120475
X0065825
Y0122975
Y0125475
X0037885
Y0122975
Y0120475
X0035345
Y0122975
Y0125475
T06
X0038975Y0100075
X0046175
X0055125
X0062325
T07
X0074595Y0084985
Y0090765
M30
