G04*
G04 #@! TF.GenerationSoftware,Altium Limited,Altium Designer,24.4.1 (13)*
G04*
G04 Layer_Color=8388736*
%FSLAX44Y44*%
%MOMM*%
G71*
G04*
G04 #@! TF.SameCoordinates,5A4A1F7D-102A-4DB2-8EF6-149E98EE43DC*
G04*
G04*
G04 #@! TF.FilePolarity,Negative*
G04*
G01*
G75*
%ADD34R,2.2032X0.6532*%
%ADD35R,0.6132X1.7732*%
%ADD36R,1.2032X1.3032*%
%ADD37R,1.3032X1.2032*%
%ADD38R,2.0032X1.8032*%
%ADD39R,2.2032X2.6032*%
%ADD40R,2.4032X3.0032*%
%ADD41R,6.9132X2.2032*%
%ADD42R,1.8032X0.8032*%
G04:AMPARAMS|DCode=43|XSize=2.1732mm|YSize=0.8032mm|CornerRadius=0.2636mm|HoleSize=0mm|Usage=FLASHONLY|Rotation=0.000|XOffset=0mm|YOffset=0mm|HoleType=Round|Shape=RoundedRectangle|*
%AMROUNDEDRECTD43*
21,1,2.1732,0.2760,0,0,0.0*
21,1,1.6460,0.8032,0,0,0.0*
1,1,0.5272,0.8230,-0.1380*
1,1,0.5272,-0.8230,-0.1380*
1,1,0.5272,-0.8230,0.1380*
1,1,0.5272,0.8230,0.1380*
%
%ADD43ROUNDEDRECTD43*%
%ADD44R,5.7032X6.7032*%
%ADD45R,1.4032X1.7032*%
%ADD46R,2.2032X2.2032*%
%ADD47R,1.8032X1.0032*%
%ADD48R,3.2032X2.3032*%
%ADD49R,2.7032X6.7032*%
%ADD50R,1.8032X2.0032*%
%ADD51O,1.5032X2.8032*%
%ADD52C,3.9192*%
%ADD53O,1.4032X2.6032*%
%ADD54R,3.9192X3.9192*%
%ADD55O,2.2032X1.1032*%
%ADD56O,1.9032X1.1032*%
%ADD57C,0.8032*%
%ADD58C,1.7032*%
%ADD59C,1.0032*%
D34*
X329000Y1350000D02*
D03*
Y1337300D02*
D03*
Y1324600D02*
D03*
Y1311900D02*
D03*
Y1273800D02*
D03*
Y1286500D02*
D03*
Y1299200D02*
D03*
Y1261100D02*
D03*
Y1248400D02*
D03*
Y1235700D02*
D03*
Y1223000D02*
D03*
Y1210300D02*
D03*
Y1172200D02*
D03*
Y1184900D02*
D03*
Y1197600D02*
D03*
Y1159500D02*
D03*
Y1146800D02*
D03*
Y1134100D02*
D03*
Y1121400D02*
D03*
Y1108700D02*
D03*
X290000Y1350000D02*
D03*
Y1337300D02*
D03*
Y1324600D02*
D03*
Y1311900D02*
D03*
Y1273800D02*
D03*
Y1286500D02*
D03*
Y1299200D02*
D03*
Y1261100D02*
D03*
Y1248400D02*
D03*
Y1235700D02*
D03*
Y1223000D02*
D03*
Y1210300D02*
D03*
Y1172200D02*
D03*
Y1184900D02*
D03*
Y1197600D02*
D03*
Y1159500D02*
D03*
Y1146800D02*
D03*
Y1134100D02*
D03*
Y1121400D02*
D03*
Y1108700D02*
D03*
X681000Y840100D02*
D03*
Y852800D02*
D03*
Y865500D02*
D03*
Y878200D02*
D03*
Y890900D02*
D03*
Y929000D02*
D03*
Y916300D02*
D03*
Y903600D02*
D03*
Y941700D02*
D03*
Y954400D02*
D03*
Y967100D02*
D03*
Y979800D02*
D03*
Y992500D02*
D03*
Y1030600D02*
D03*
Y1017900D02*
D03*
Y1005200D02*
D03*
Y1043300D02*
D03*
Y1056000D02*
D03*
Y1068700D02*
D03*
Y1081400D02*
D03*
X720000Y840100D02*
D03*
Y852800D02*
D03*
Y865500D02*
D03*
Y878200D02*
D03*
Y890900D02*
D03*
Y929000D02*
D03*
Y916300D02*
D03*
Y903600D02*
D03*
Y941700D02*
D03*
Y954400D02*
D03*
Y967100D02*
D03*
Y979800D02*
D03*
Y992500D02*
D03*
Y1030600D02*
D03*
Y1017900D02*
D03*
Y1005200D02*
D03*
Y1043300D02*
D03*
Y1056000D02*
D03*
Y1068700D02*
D03*
Y1081400D02*
D03*
X680750Y1108700D02*
D03*
Y1121400D02*
D03*
Y1134100D02*
D03*
Y1146800D02*
D03*
Y1159500D02*
D03*
Y1197600D02*
D03*
Y1184900D02*
D03*
Y1172200D02*
D03*
Y1210300D02*
D03*
Y1223000D02*
D03*
Y1235700D02*
D03*
Y1248400D02*
D03*
Y1261100D02*
D03*
Y1299200D02*
D03*
Y1286500D02*
D03*
Y1273800D02*
D03*
Y1311900D02*
D03*
Y1324600D02*
D03*
Y1337300D02*
D03*
Y1350000D02*
D03*
X719750Y1108700D02*
D03*
Y1121400D02*
D03*
Y1134100D02*
D03*
Y1146800D02*
D03*
Y1159500D02*
D03*
Y1197600D02*
D03*
Y1184900D02*
D03*
Y1172200D02*
D03*
Y1210300D02*
D03*
Y1223000D02*
D03*
Y1235700D02*
D03*
Y1248400D02*
D03*
Y1261100D02*
D03*
Y1299200D02*
D03*
Y1286500D02*
D03*
Y1273800D02*
D03*
Y1311900D02*
D03*
Y1324600D02*
D03*
Y1337300D02*
D03*
Y1350000D02*
D03*
X290000Y840100D02*
D03*
Y852800D02*
D03*
Y865500D02*
D03*
Y878200D02*
D03*
Y890900D02*
D03*
Y929000D02*
D03*
Y916300D02*
D03*
Y903600D02*
D03*
Y941700D02*
D03*
Y954400D02*
D03*
Y967100D02*
D03*
Y979800D02*
D03*
Y992500D02*
D03*
Y1030600D02*
D03*
Y1017900D02*
D03*
Y1005200D02*
D03*
Y1043300D02*
D03*
Y1056000D02*
D03*
Y1068700D02*
D03*
Y1081400D02*
D03*
X329000Y840100D02*
D03*
Y852800D02*
D03*
Y865500D02*
D03*
Y878200D02*
D03*
Y890900D02*
D03*
Y929000D02*
D03*
Y916300D02*
D03*
Y903600D02*
D03*
Y941700D02*
D03*
Y954400D02*
D03*
Y967100D02*
D03*
Y979800D02*
D03*
Y992500D02*
D03*
Y1030600D02*
D03*
Y1017900D02*
D03*
Y1005200D02*
D03*
Y1043300D02*
D03*
Y1056000D02*
D03*
Y1068700D02*
D03*
Y1081400D02*
D03*
D35*
X449250Y1279250D02*
D03*
X455750D02*
D03*
X462250D02*
D03*
X468750D02*
D03*
X475250D02*
D03*
X481750D02*
D03*
X488250D02*
D03*
X494750D02*
D03*
X501250D02*
D03*
X507750D02*
D03*
X514250D02*
D03*
X520750D02*
D03*
X527250D02*
D03*
X533750D02*
D03*
X449250Y1336750D02*
D03*
X455750D02*
D03*
X462250D02*
D03*
X468750D02*
D03*
X475250D02*
D03*
X481750D02*
D03*
X488250D02*
D03*
X494750D02*
D03*
X501250D02*
D03*
X507750D02*
D03*
X514250D02*
D03*
X520750D02*
D03*
X527250D02*
D03*
X533750D02*
D03*
D36*
X417750Y1338000D02*
D03*
Y1321000D02*
D03*
X436500Y1318500D02*
D03*
Y1335500D02*
D03*
X577250Y1336500D02*
D03*
Y1319500D02*
D03*
X564500Y1319250D02*
D03*
Y1336250D02*
D03*
X551750Y1319500D02*
D03*
Y1336500D02*
D03*
X590250Y1322750D02*
D03*
Y1339750D02*
D03*
X602250Y1325250D02*
D03*
Y1342250D02*
D03*
X615500Y1341750D02*
D03*
Y1324750D02*
D03*
X544750Y1279500D02*
D03*
Y1296500D02*
D03*
X642250Y1275500D02*
D03*
Y1292500D02*
D03*
X623000Y1278250D02*
D03*
Y1295250D02*
D03*
X658250Y1013500D02*
D03*
Y996500D02*
D03*
Y960500D02*
D03*
Y977500D02*
D03*
X415000Y861750D02*
D03*
Y844750D02*
D03*
X505500Y891500D02*
D03*
Y908500D02*
D03*
X559500Y886750D02*
D03*
Y903750D02*
D03*
X505250Y876750D02*
D03*
Y859750D02*
D03*
X366250Y1081250D02*
D03*
Y1098250D02*
D03*
X516000Y1137000D02*
D03*
Y1154000D02*
D03*
X650000Y1144250D02*
D03*
Y1161250D02*
D03*
D37*
X619500Y1311500D02*
D03*
X602500D02*
D03*
X436500Y861250D02*
D03*
X453500D02*
D03*
X544500Y888250D02*
D03*
X527500D02*
D03*
X527750Y904750D02*
D03*
X544750D02*
D03*
X444750Y1108000D02*
D03*
X461750D02*
D03*
X633250Y1116500D02*
D03*
X616250D02*
D03*
X616000Y1131250D02*
D03*
X633000D02*
D03*
X616250Y1145500D02*
D03*
X633250D02*
D03*
X633500Y1158250D02*
D03*
X616500D02*
D03*
X478750Y1112500D02*
D03*
X495750D02*
D03*
X610000Y1077500D02*
D03*
X593000D02*
D03*
D38*
X659000Y1313500D02*
D03*
Y1341500D02*
D03*
X638750Y1313500D02*
D03*
Y1341500D02*
D03*
X381500Y860250D02*
D03*
Y888250D02*
D03*
X479500Y1130500D02*
D03*
Y1158500D02*
D03*
D39*
X602250Y1282750D02*
D03*
X562250D02*
D03*
D40*
X399000Y951250D02*
D03*
X444000D02*
D03*
D41*
X606250Y862000D02*
D03*
Y919720D02*
D03*
D42*
X475250Y877450D02*
D03*
X415250Y915550D02*
D03*
Y902850D02*
D03*
Y890150D02*
D03*
Y877450D02*
D03*
X475250Y915550D02*
D03*
Y902850D02*
D03*
Y890150D02*
D03*
D43*
X588750Y1157550D02*
D03*
Y1144850D02*
D03*
Y1132150D02*
D03*
Y1119450D02*
D03*
X539250D02*
D03*
Y1132150D02*
D03*
Y1144850D02*
D03*
Y1157550D02*
D03*
D44*
X403275Y1146925D02*
D03*
D45*
X425500Y1080250D02*
D03*
X381050D02*
D03*
D46*
X479750Y1044000D02*
D03*
Y1084000D02*
D03*
D47*
X268250Y1201500D02*
D03*
Y1189000D02*
D03*
Y1176500D02*
D03*
Y1164000D02*
D03*
Y1151500D02*
D03*
Y1139000D02*
D03*
Y1126500D02*
D03*
X746750Y1130600D02*
D03*
Y1143100D02*
D03*
Y1155600D02*
D03*
Y1168100D02*
D03*
X747250Y1311750D02*
D03*
Y1299250D02*
D03*
Y1286750D02*
D03*
X267750Y905150D02*
D03*
Y892650D02*
D03*
Y880150D02*
D03*
Y867650D02*
D03*
X267250Y1316000D02*
D03*
Y1303500D02*
D03*
Y1291000D02*
D03*
Y1278500D02*
D03*
X268000Y1047750D02*
D03*
Y1035250D02*
D03*
Y1022750D02*
D03*
Y1010250D02*
D03*
Y997750D02*
D03*
Y985250D02*
D03*
X743750Y988100D02*
D03*
Y1000600D02*
D03*
Y1013100D02*
D03*
Y1025600D02*
D03*
D48*
X239250Y1227000D02*
D03*
Y1101000D02*
D03*
X775750Y1105100D02*
D03*
Y1193600D02*
D03*
X776250Y1337250D02*
D03*
Y1261250D02*
D03*
X238750Y930650D02*
D03*
Y842150D02*
D03*
X238250Y1341500D02*
D03*
Y1253000D02*
D03*
X239000Y1073250D02*
D03*
Y959750D02*
D03*
X772750Y962600D02*
D03*
Y1051100D02*
D03*
D49*
X567750Y1063500D02*
D03*
X517750D02*
D03*
D50*
X407500Y1051750D02*
D03*
X435500D02*
D03*
X408500Y1028000D02*
D03*
X436500D02*
D03*
D51*
X520500Y934000D02*
D03*
X655500D02*
D03*
D52*
X624000Y994000D02*
D03*
X552000D02*
D03*
X387500Y993250D02*
D03*
D53*
X491000Y933250D02*
D03*
X356000D02*
D03*
D54*
X459500Y993250D02*
D03*
D55*
X741990Y930198D02*
D03*
Y843698D02*
D03*
D56*
X783690Y930198D02*
D03*
Y843698D02*
D03*
D57*
X746890Y915848D02*
D03*
Y858048D02*
D03*
X720000Y852800D02*
D03*
X644000Y961000D02*
D03*
X720000Y840100D02*
D03*
X681000D02*
D03*
Y852800D02*
D03*
Y865500D02*
D03*
X719000Y1311600D02*
D03*
X325947Y1318947D02*
D03*
X329250Y1337000D02*
D03*
X499500Y1322250D02*
D03*
X381500Y888250D02*
D03*
X719500Y1261250D02*
D03*
Y1274500D02*
D03*
X719000Y1286500D02*
D03*
X719250Y1298750D02*
D03*
X719000Y1248750D02*
D03*
X330250Y1285000D02*
D03*
X338611Y1298504D02*
D03*
X288750Y1274250D02*
D03*
X328750Y1273750D02*
D03*
X288500Y1284250D02*
D03*
X427000Y1130500D02*
D03*
X480000Y1045750D02*
D03*
X681250Y1274000D02*
D03*
X680000Y1287750D02*
D03*
X680750Y1299250D02*
D03*
X332000Y1093750D02*
D03*
X322750Y1093000D02*
D03*
X301250Y1091250D02*
D03*
X280500Y1090750D02*
D03*
X293750Y1091500D02*
D03*
X313000Y1093250D02*
D03*
X271000Y1090000D02*
D03*
X591000Y1067500D02*
D03*
X590750Y1057750D02*
D03*
X589500Y1078000D02*
D03*
X590750Y1034500D02*
D03*
X610000Y1077500D02*
D03*
X644366Y1130591D02*
D03*
X521500Y1123250D02*
D03*
X427000Y1145250D02*
D03*
Y1136250D02*
D03*
X426500Y1118500D02*
D03*
X496000Y1082250D02*
D03*
X479750Y1164750D02*
D03*
X461750Y1108000D02*
D03*
X478250Y1112750D02*
D03*
X248500Y1020000D02*
D03*
X354500Y1044500D02*
D03*
X366000Y1062750D02*
D03*
X719500Y1185250D02*
D03*
X719250Y1172500D02*
D03*
X287600Y1017779D02*
D03*
X329250Y1017750D02*
D03*
X699000Y1027000D02*
D03*
X741250Y1116250D02*
D03*
X290000Y1299250D02*
D03*
X425500Y1080250D02*
D03*
X443750Y1083000D02*
D03*
X402000Y1179500D02*
D03*
X681250Y890750D02*
D03*
Y878500D02*
D03*
X264000Y929500D02*
D03*
X720000Y915750D02*
D03*
X681250Y903750D02*
D03*
X681000Y916500D02*
D03*
X720000Y865250D02*
D03*
Y878250D02*
D03*
X745750Y1177750D02*
D03*
X680750Y1324600D02*
D03*
Y1337300D02*
D03*
Y1350000D02*
D03*
X719750D02*
D03*
Y1337300D02*
D03*
Y1324600D02*
D03*
X513500Y1295000D02*
D03*
X290250Y942750D02*
D03*
X290000Y929500D02*
D03*
X289500Y1029750D02*
D03*
X329250Y1349500D02*
D03*
X290000Y1349750D02*
D03*
X290000Y1311900D02*
D03*
X417250Y1321500D02*
D03*
X290000Y839500D02*
D03*
X289750Y853000D02*
D03*
X290000Y865250D02*
D03*
X329000Y865500D02*
D03*
Y852500D02*
D03*
Y839500D02*
D03*
X691750Y1197500D02*
D03*
Y1210750D02*
D03*
Y1235331D02*
D03*
X688750Y1223500D02*
D03*
X689250Y1261500D02*
D03*
Y1248250D02*
D03*
X688250Y1185000D02*
D03*
X688000Y1172500D02*
D03*
Y1159500D02*
D03*
X680500Y1311250D02*
D03*
X719000Y1210750D02*
D03*
X719250Y1197750D02*
D03*
X720000Y904250D02*
D03*
X720750Y890750D02*
D03*
X704750Y913750D02*
D03*
Y850500D02*
D03*
X736190Y854948D02*
D03*
Y918948D02*
D03*
Y862948D02*
D03*
X720250Y992750D02*
D03*
X720000Y1005500D02*
D03*
Y1030500D02*
D03*
X719750Y1018000D02*
D03*
X329250Y1056250D02*
D03*
X329000Y1043000D02*
D03*
X329250Y1031000D02*
D03*
X415000Y844750D02*
D03*
X382250Y846000D02*
D03*
X634000Y858250D02*
D03*
X586000Y866750D02*
D03*
X578000D02*
D03*
X626000Y867000D02*
D03*
X633750D02*
D03*
X623000Y1295250D02*
D03*
X615500Y1341750D02*
D03*
X590250Y1339750D02*
D03*
D58*
X353100Y1254750D02*
D03*
X657900D02*
D03*
X378500D02*
D03*
X403900D02*
D03*
X429300D02*
D03*
X454700D02*
D03*
X480100D02*
D03*
X505500D02*
D03*
X530900D02*
D03*
X556300D02*
D03*
X581700D02*
D03*
X607100D02*
D03*
X632500D02*
D03*
X353100Y1229750D02*
D03*
X378500D02*
D03*
X403900D02*
D03*
X429300D02*
D03*
X454700D02*
D03*
X480100D02*
D03*
X505500D02*
D03*
X530900D02*
D03*
X556300D02*
D03*
X581700D02*
D03*
X607100D02*
D03*
X632500D02*
D03*
X657900D02*
D03*
X353000Y1204750D02*
D03*
X378400D02*
D03*
X403800D02*
D03*
X429200D02*
D03*
X454600D02*
D03*
X480000D02*
D03*
X505400D02*
D03*
X530800D02*
D03*
X556200D02*
D03*
X581600D02*
D03*
X607000D02*
D03*
X632400D02*
D03*
X657800D02*
D03*
D59*
X481750Y1325668D02*
D03*
X763000Y1130000D02*
D03*
X757250Y988250D02*
D03*
X763000Y1287000D02*
D03*
X642500Y1275250D02*
D03*
X268669Y1269669D02*
D03*
X418500Y1337750D02*
D03*
X435000Y1335750D02*
D03*
X440000Y1271500D02*
D03*
X551750Y1336500D02*
D03*
X564500Y1336250D02*
D03*
X577250Y1336500D02*
D03*
X590250Y1322750D02*
D03*
X615500Y1324750D02*
D03*
X371750Y1035000D02*
D03*
X399750Y1034000D02*
D03*
M02*
