G04*
G04 #@! TF.GenerationSoftware,Altium Limited,Altium Designer,24.4.1 (13)*
G04*
G04 Layer_Color=16711935*
%FSLAX44Y44*%
%MOMM*%
G71*
G04*
G04 #@! TF.SameCoordinates,5A4A1F7D-102A-4DB2-8EF6-149E98EE43DC*
G04*
G04*
G04 #@! TF.FilePolarity,Negative*
G04*
G01*
G75*
%ADD36R,1.2032X1.3032*%
%ADD37R,1.3032X1.2032*%
G04:AMPARAMS|DCode=43|XSize=2.1732mm|YSize=0.8032mm|CornerRadius=0.2636mm|HoleSize=0mm|Usage=FLASHONLY|Rotation=0.000|XOffset=0mm|YOffset=0mm|HoleType=Round|Shape=RoundedRectangle|*
%AMROUNDEDRECTD43*
21,1,2.1732,0.2760,0,0,0.0*
21,1,1.6460,0.8032,0,0,0.0*
1,1,0.5272,0.8230,-0.1380*
1,1,0.5272,-0.8230,-0.1380*
1,1,0.5272,-0.8230,0.1380*
1,1,0.5272,0.8230,0.1380*
%
%ADD43ROUNDEDRECTD43*%
%ADD46R,2.2032X2.2032*%
%ADD47R,1.8032X1.0032*%
%ADD48R,3.2032X2.3032*%
%ADD50R,1.8032X2.0032*%
%ADD51O,1.5032X2.8032*%
%ADD52C,3.9192*%
%ADD53O,1.4032X2.6032*%
%ADD54R,3.9192X3.9192*%
%ADD55O,2.2032X1.1032*%
%ADD56O,1.9032X1.1032*%
%ADD57C,0.8032*%
%ADD58C,1.7032*%
%ADD59C,1.0032*%
G04:AMPARAMS|DCode=77|XSize=2.1732mm|YSize=0.8032mm|CornerRadius=0.2636mm|HoleSize=0mm|Usage=FLASHONLY|Rotation=90.000|XOffset=0mm|YOffset=0mm|HoleType=Round|Shape=RoundedRectangle|*
%AMROUNDEDRECTD77*
21,1,2.1732,0.2760,0,0,90.0*
21,1,1.6460,0.8032,0,0,90.0*
1,1,0.5272,0.1380,0.8230*
1,1,0.5272,0.1380,-0.8230*
1,1,0.5272,-0.1380,-0.8230*
1,1,0.5272,-0.1380,0.8230*
%
%ADD77ROUNDEDRECTD77*%
%ADD78R,6.7032X2.7032*%
%ADD79R,2.2032X2.2032*%
%ADD80R,1.2400X0.7000*%
%ADD81R,1.2400X0.4000*%
D36*
X439000Y1153500D02*
D03*
Y1170500D02*
D03*
X455000Y1171000D02*
D03*
Y1154000D02*
D03*
X494500Y1154000D02*
D03*
Y1171000D02*
D03*
X467250Y1171000D02*
D03*
Y1154000D02*
D03*
X479750Y1154000D02*
D03*
Y1171000D02*
D03*
X688750Y1030000D02*
D03*
Y1047000D02*
D03*
X635000Y1124000D02*
D03*
Y1107000D02*
D03*
X496500Y1082250D02*
D03*
Y1065250D02*
D03*
X704750Y896750D02*
D03*
Y913750D02*
D03*
Y867500D02*
D03*
Y850500D02*
D03*
D37*
X597250Y1044750D02*
D03*
X580250D02*
D03*
X520500Y1079750D02*
D03*
X537500D02*
D03*
X538500Y1123250D02*
D03*
X521500D02*
D03*
X520750Y1139500D02*
D03*
X537750D02*
D03*
X521000Y1108750D02*
D03*
X538000D02*
D03*
X537250Y1093750D02*
D03*
X520250D02*
D03*
X478750Y1060750D02*
D03*
X461750D02*
D03*
D43*
X562000Y1128800D02*
D03*
Y1116100D02*
D03*
Y1103400D02*
D03*
Y1090700D02*
D03*
X611500D02*
D03*
Y1103400D02*
D03*
Y1116100D02*
D03*
Y1128800D02*
D03*
D46*
X633000Y1067250D02*
D03*
Y1027250D02*
D03*
D47*
X267500Y1304350D02*
D03*
Y1291850D02*
D03*
Y1279350D02*
D03*
X743750Y1037900D02*
D03*
Y1025400D02*
D03*
Y1012900D02*
D03*
Y1000400D02*
D03*
Y987900D02*
D03*
Y975400D02*
D03*
X268500Y1125600D02*
D03*
Y1138100D02*
D03*
Y1150600D02*
D03*
Y1163100D02*
D03*
Y1175600D02*
D03*
Y1188100D02*
D03*
X267750Y867850D02*
D03*
Y880350D02*
D03*
Y892850D02*
D03*
Y905350D02*
D03*
X268000Y997850D02*
D03*
Y1010350D02*
D03*
Y1022850D02*
D03*
Y1035350D02*
D03*
X747000Y1168000D02*
D03*
Y1155500D02*
D03*
Y1143000D02*
D03*
Y1130500D02*
D03*
X747250Y1311150D02*
D03*
Y1298650D02*
D03*
Y1286150D02*
D03*
Y1273650D02*
D03*
Y1261150D02*
D03*
Y1248650D02*
D03*
D48*
X238500Y1329850D02*
D03*
Y1253850D02*
D03*
X772750Y1063400D02*
D03*
Y949900D02*
D03*
X239500Y1100100D02*
D03*
Y1213600D02*
D03*
X238750Y842350D02*
D03*
Y930850D02*
D03*
X239000Y972350D02*
D03*
Y1060850D02*
D03*
X776000Y1193500D02*
D03*
Y1105000D02*
D03*
X776250Y1336650D02*
D03*
Y1223150D02*
D03*
D50*
X575750Y1064750D02*
D03*
X603750D02*
D03*
X400750Y1034500D02*
D03*
X372750D02*
D03*
X374000Y1179500D02*
D03*
X402000D02*
D03*
D51*
X520500Y934000D02*
D03*
X655500D02*
D03*
D52*
X624000Y994000D02*
D03*
X552000D02*
D03*
X387500Y993250D02*
D03*
D53*
X491000Y933250D02*
D03*
X356000D02*
D03*
D54*
X459500Y993250D02*
D03*
D55*
X741990Y930198D02*
D03*
Y843698D02*
D03*
D56*
X783690Y930198D02*
D03*
Y843698D02*
D03*
D57*
X746890Y915848D02*
D03*
Y858048D02*
D03*
X720000Y852800D02*
D03*
X644000Y961000D02*
D03*
X720000Y840100D02*
D03*
X681000D02*
D03*
Y852800D02*
D03*
Y865500D02*
D03*
X719000Y1311600D02*
D03*
X325947Y1318947D02*
D03*
X329250Y1337000D02*
D03*
X499500Y1322250D02*
D03*
X381500Y888250D02*
D03*
X719500Y1261250D02*
D03*
Y1274500D02*
D03*
X719000Y1286500D02*
D03*
X719250Y1298750D02*
D03*
X719000Y1248750D02*
D03*
X330250Y1285000D02*
D03*
X338611Y1298504D02*
D03*
X288750Y1274250D02*
D03*
X328750Y1273750D02*
D03*
X288500Y1284250D02*
D03*
X427000Y1130500D02*
D03*
X480000Y1045750D02*
D03*
X681250Y1274000D02*
D03*
X680000Y1287750D02*
D03*
X680750Y1299250D02*
D03*
X332000Y1093750D02*
D03*
X322750Y1093000D02*
D03*
X301250Y1091250D02*
D03*
X280500Y1090750D02*
D03*
X293750Y1091500D02*
D03*
X313000Y1093250D02*
D03*
X271000Y1090000D02*
D03*
X591000Y1067500D02*
D03*
X590750Y1057750D02*
D03*
X589500Y1078000D02*
D03*
X590750Y1034500D02*
D03*
X610000Y1077500D02*
D03*
X644366Y1130591D02*
D03*
X521500Y1123250D02*
D03*
X427000Y1145250D02*
D03*
Y1136250D02*
D03*
X426500Y1118500D02*
D03*
X496000Y1082250D02*
D03*
X479750Y1164750D02*
D03*
X461750Y1108000D02*
D03*
X478250Y1112750D02*
D03*
X248500Y1020000D02*
D03*
X354500Y1044500D02*
D03*
X366000Y1062750D02*
D03*
X719500Y1185250D02*
D03*
X719250Y1172500D02*
D03*
X287600Y1017779D02*
D03*
X329250Y1017750D02*
D03*
X699000Y1027000D02*
D03*
X741250Y1116250D02*
D03*
X290000Y1299250D02*
D03*
X425500Y1080250D02*
D03*
X443750Y1083000D02*
D03*
X402000Y1179500D02*
D03*
X681250Y890750D02*
D03*
Y878500D02*
D03*
X264000Y929500D02*
D03*
X720000Y915750D02*
D03*
X681250Y903750D02*
D03*
X681000Y916500D02*
D03*
X720000Y865250D02*
D03*
Y878250D02*
D03*
X745750Y1177750D02*
D03*
X680750Y1324600D02*
D03*
Y1337300D02*
D03*
Y1350000D02*
D03*
X719750D02*
D03*
Y1337300D02*
D03*
Y1324600D02*
D03*
X513500Y1295000D02*
D03*
X290250Y942750D02*
D03*
X290000Y929500D02*
D03*
X289500Y1029750D02*
D03*
X329250Y1349500D02*
D03*
X290000Y1349750D02*
D03*
X290000Y1311900D02*
D03*
X417250Y1321500D02*
D03*
X290000Y839500D02*
D03*
X289750Y853000D02*
D03*
X290000Y865250D02*
D03*
X329000Y865500D02*
D03*
Y852500D02*
D03*
Y839500D02*
D03*
X691750Y1197500D02*
D03*
Y1210750D02*
D03*
Y1235331D02*
D03*
X688750Y1223500D02*
D03*
X689250Y1261500D02*
D03*
Y1248250D02*
D03*
X688250Y1185000D02*
D03*
X688000Y1172500D02*
D03*
Y1159500D02*
D03*
X680500Y1311250D02*
D03*
X719000Y1210750D02*
D03*
X719250Y1197750D02*
D03*
X720000Y904250D02*
D03*
X720750Y890750D02*
D03*
X704750Y913750D02*
D03*
Y850500D02*
D03*
X736190Y854948D02*
D03*
Y918948D02*
D03*
Y862948D02*
D03*
X720250Y992750D02*
D03*
X720000Y1005500D02*
D03*
Y1030500D02*
D03*
X719750Y1018000D02*
D03*
X329250Y1056250D02*
D03*
X329000Y1043000D02*
D03*
X329250Y1031000D02*
D03*
X415000Y844750D02*
D03*
X382250Y846000D02*
D03*
X634000Y858250D02*
D03*
X586000Y866750D02*
D03*
X578000D02*
D03*
X626000Y867000D02*
D03*
X633750D02*
D03*
X623000Y1295250D02*
D03*
X615500Y1341750D02*
D03*
X590250Y1339750D02*
D03*
D58*
X353100Y1254750D02*
D03*
X657900D02*
D03*
X378500D02*
D03*
X403900D02*
D03*
X429300D02*
D03*
X454700D02*
D03*
X480100D02*
D03*
X505500D02*
D03*
X530900D02*
D03*
X556300D02*
D03*
X581700D02*
D03*
X607100D02*
D03*
X632500D02*
D03*
X353100Y1229750D02*
D03*
X378500D02*
D03*
X403900D02*
D03*
X429300D02*
D03*
X454700D02*
D03*
X480100D02*
D03*
X505500D02*
D03*
X530900D02*
D03*
X556300D02*
D03*
X581700D02*
D03*
X607100D02*
D03*
X632500D02*
D03*
X657900D02*
D03*
X353000Y1204750D02*
D03*
X378400D02*
D03*
X403800D02*
D03*
X429200D02*
D03*
X454600D02*
D03*
X480000D02*
D03*
X505400D02*
D03*
X530800D02*
D03*
X556200D02*
D03*
X581600D02*
D03*
X607000D02*
D03*
X632400D02*
D03*
X657800D02*
D03*
D59*
X481750Y1325668D02*
D03*
X763000Y1130000D02*
D03*
X757250Y988250D02*
D03*
X763000Y1287000D02*
D03*
X642500Y1275250D02*
D03*
X268669Y1269669D02*
D03*
X418500Y1337750D02*
D03*
X435000Y1335750D02*
D03*
X440000Y1271500D02*
D03*
X551750Y1336500D02*
D03*
X564500Y1336250D02*
D03*
X577250Y1336500D02*
D03*
X590250Y1322750D02*
D03*
X615500Y1324750D02*
D03*
X371750Y1035000D02*
D03*
X399750Y1034000D02*
D03*
D77*
X482050Y1132250D02*
D03*
X469350D02*
D03*
X456650D02*
D03*
X443950D02*
D03*
Y1082750D02*
D03*
X456650D02*
D03*
X469350D02*
D03*
X482050D02*
D03*
D78*
X385000Y1098250D02*
D03*
Y1148250D02*
D03*
X690750Y1080500D02*
D03*
Y1130500D02*
D03*
D79*
X406000Y1062750D02*
D03*
X366000D02*
D03*
D80*
X736190Y918948D02*
D03*
Y910948D02*
D03*
Y862948D02*
D03*
Y854948D02*
D03*
D81*
Y889448D02*
D03*
Y894448D02*
D03*
Y899448D02*
D03*
Y904448D02*
D03*
Y884448D02*
D03*
Y879448D02*
D03*
Y874448D02*
D03*
Y869448D02*
D03*
M02*
