G04*
G04 #@! TF.GenerationSoftware,Altium Limited,Altium Designer,23.6.0 (18)*
G04*
G04 Layer_Color=65535*
%FSLAX44Y44*%
%MOMM*%
G71*
G04*
G04 #@! TF.SameCoordinates,C0EE57D9-4E2B-4701-80FF-B58ABC17C381*
G04*
G04*
G04 #@! TF.FilePolarity,Positive*
G04*
G01*
G75*
%ADD10C,0.2000*%
%ADD11C,0.1270*%
%ADD12C,0.2500*%
%ADD13C,0.3500*%
%ADD14C,0.1500*%
%ADD15R,0.5000X4.0000*%
D10*
X659950Y1061399D02*
G03*
X644050Y1061399I-7950J-16149D01*
G01*
Y1029101D02*
G03*
X659950Y1029101I7950J16149D01*
G01*
X616700Y1138000D02*
G03*
X616700Y1138000I-1000J0D01*
G01*
X616850Y1107250D02*
G03*
X616850Y1107250I-1000J0D01*
G01*
X625050Y1028851D02*
G03*
X640950Y1028851I7950J16149D01*
G01*
Y1061149D02*
G03*
X625050Y1061149I-7950J-16149D01*
G01*
X497649Y1067300D02*
G03*
X497649Y1083200I-16149J7950D01*
G01*
X465351D02*
G03*
X465351Y1067300I16149J-7950D01*
G01*
X497649Y1049050D02*
G03*
X497649Y1064950I-16149J7950D01*
G01*
X465351D02*
G03*
X465351Y1049050I16149J-7950D01*
G01*
X429101Y1052200D02*
G03*
X429101Y1036300I16149J-7950D01*
G01*
X461399D02*
G03*
X461399Y1052200I-16149J7950D01*
G01*
X370851Y1051700D02*
G03*
X370851Y1035800I16149J-7950D01*
G01*
X403149D02*
G03*
X403149Y1051700I-16149J7950D01*
G01*
X457149Y1176050D02*
G03*
X457149Y1191950I-16149J7950D01*
G01*
X424851D02*
G03*
X424851Y1176050I16149J-7950D01*
G01*
X408200Y1159250D02*
G03*
X408200Y1159250I-1000J0D01*
G01*
X464200Y1177500D02*
G03*
X464200Y1177500I-1000J0D01*
G01*
X468601Y1107700D02*
G03*
X468601Y1091800I16149J-7950D01*
G01*
X500899D02*
G03*
X500899Y1107700I-16149J7950D01*
G01*
X566050Y1109851D02*
G03*
X581950Y1109851I7950J16149D01*
G01*
Y1142149D02*
G03*
X566050Y1142149I-7950J-16149D01*
G01*
X541050Y1110351D02*
G03*
X556950Y1110351I7950J16149D01*
G01*
Y1142649D02*
G03*
X541050Y1142649I-7950J-16149D01*
G01*
X644000Y1029250D02*
Y1061250D01*
X660000Y1029250D02*
Y1061250D01*
X641000Y1029000D02*
Y1061000D01*
X625000Y1029000D02*
Y1061000D01*
X476500Y1160000D02*
X510500D01*
Y1144000D02*
Y1160000D01*
X476500Y1144000D02*
X510500D01*
X476500D02*
Y1160000D01*
X380500Y1171750D02*
Y1187750D01*
X346500D02*
X380500D01*
X346500Y1171750D02*
Y1187750D01*
Y1171750D02*
X380500D01*
X505250Y1091500D02*
Y1107500D01*
Y1091500D02*
X539250D01*
Y1107500D01*
X505250D02*
X539250D01*
X465500Y1083250D02*
X497500D01*
X465500Y1067250D02*
X497500D01*
X465500Y1065000D02*
X497500D01*
X465500Y1049000D02*
X497500D01*
X429250Y1036250D02*
X461250D01*
X429250Y1052250D02*
X461250D01*
X371000Y1035750D02*
X403000D01*
X371000Y1051750D02*
X403000D01*
X425000Y1192000D02*
X457000D01*
X425000Y1176000D02*
X457000D01*
X468750Y1091750D02*
X500750D01*
X468750Y1107750D02*
X500750D01*
X475750Y1123250D02*
Y1139250D01*
Y1123250D02*
X509750D01*
Y1139250D01*
X475750D02*
X509750D01*
X582000Y1110000D02*
Y1142000D01*
X566000Y1110000D02*
Y1142000D01*
X557000Y1110500D02*
Y1142500D01*
X541000Y1110500D02*
Y1142500D01*
X558000Y1148000D02*
Y1178000D01*
X540000Y1148000D02*
Y1178000D01*
Y1148000D02*
X558000D01*
X584000D02*
Y1178000D01*
X566000Y1148000D02*
Y1178000D01*
Y1148000D02*
X584000D01*
D11*
X565400Y1092750D02*
X596600D01*
X565400Y1025750D02*
X596600D01*
X641800Y1152000D02*
X646700D01*
X641800Y1124000D02*
X646700D01*
X641950Y1121250D02*
X646850D01*
X641950Y1093250D02*
X646850D01*
X483530Y1019250D02*
X503250D01*
X348250D02*
X367970D01*
X411530D02*
X439970D01*
X503250Y837250D02*
Y1019250D01*
X348250Y837250D02*
Y1019250D01*
Y837250D02*
X503250D01*
X509750D02*
X664750D01*
X509750D02*
Y1019250D01*
X664750Y837250D02*
Y1019250D01*
X573030D02*
X601470D01*
X509750D02*
X529470D01*
X645030D02*
X664750D01*
X433300Y1145250D02*
X438200D01*
X433300Y1173250D02*
X438200D01*
X489300Y1163500D02*
X494200D01*
X489300Y1191500D02*
X494200D01*
X381500Y1104750D02*
Y1164750D01*
X346500Y1104750D02*
Y1164750D01*
D12*
X593000Y1154000D02*
X668000D01*
X593000Y1194000D02*
X668000D01*
X627500Y1174000D02*
X637500Y1164000D01*
Y1184000D01*
X627500Y1174000D02*
X637500Y1184000D01*
X668000Y1154000D02*
Y1161500D01*
Y1186500D02*
Y1194000D01*
X593000Y1186500D02*
Y1194000D01*
Y1154000D02*
Y1161500D01*
D13*
X540000Y1188000D02*
X558000D01*
X540000Y1178000D02*
Y1188000D01*
X558000Y1178000D02*
Y1188000D01*
X566000D02*
X584000D01*
X566000Y1178000D02*
Y1188000D01*
X584000Y1178000D02*
Y1188000D01*
D14*
X536249Y1053337D02*
X528251D01*
Y1057336D01*
X529584Y1058668D01*
X532250D01*
X533583Y1057336D01*
Y1053337D01*
Y1056003D02*
X536249Y1058668D01*
X529584Y1061334D02*
X528251Y1062667D01*
Y1065333D01*
X529584Y1066666D01*
X530917D01*
X532250Y1065333D01*
Y1064000D01*
Y1065333D01*
X533583Y1066666D01*
X534916D01*
X536249Y1065333D01*
Y1062667D01*
X534916Y1061334D01*
X528251Y1069332D02*
Y1074663D01*
X529584D01*
X534916Y1069332D01*
X536249D01*
X625602Y1070610D02*
Y1078607D01*
X629601D01*
X630934Y1077274D01*
Y1074609D01*
X629601Y1073276D01*
X625602D01*
X628268D02*
X630934Y1070610D01*
X637598D02*
Y1078607D01*
X633599Y1074609D01*
X638931D01*
X644335Y1070501D02*
Y1078499D01*
X648334D01*
X649667Y1077166D01*
Y1074500D01*
X648334Y1073167D01*
X644335D01*
X647001D02*
X649667Y1070501D01*
X657664D02*
X652333D01*
X657664Y1075833D01*
Y1077166D01*
X656332Y1078499D01*
X653666D01*
X652333Y1077166D01*
X604901Y1129916D02*
X603568Y1131249D01*
X600903D01*
X599570Y1129916D01*
Y1124584D01*
X600903Y1123251D01*
X603568D01*
X604901Y1124584D01*
X607567Y1129916D02*
X608900Y1131249D01*
X611566D01*
X612899Y1129916D01*
Y1128583D01*
X611566Y1127250D01*
X610233D01*
X611566D01*
X612899Y1125917D01*
Y1124584D01*
X611566Y1123251D01*
X608900D01*
X607567Y1124584D01*
X615564Y1123251D02*
X618230D01*
X616897D01*
Y1131249D01*
X615564Y1129916D01*
X602317Y1117666D02*
X600984Y1118999D01*
X598318D01*
X596986Y1117666D01*
Y1112334D01*
X598318Y1111001D01*
X600984D01*
X602317Y1112334D01*
X610314Y1111001D02*
X604983D01*
X610314Y1116333D01*
Y1117666D01*
X608982Y1118999D01*
X606316D01*
X604983Y1117666D01*
X521999Y1112003D02*
X516001D01*
Y1115002D01*
X517001Y1116001D01*
X519000D01*
X520000Y1115002D01*
Y1112003D01*
Y1114002D02*
X521999Y1116001D01*
X517001Y1118001D02*
X516001Y1119000D01*
Y1121000D01*
X517001Y1121999D01*
X518000D01*
X519000Y1121000D01*
Y1120000D01*
Y1121000D01*
X520000Y1121999D01*
X520999D01*
X521999Y1121000D01*
Y1119000D01*
X520999Y1118001D01*
X516001Y1127997D02*
X517001Y1125998D01*
X519000Y1123999D01*
X520999D01*
X521999Y1124998D01*
Y1126998D01*
X520999Y1127997D01*
X520000D01*
X519000Y1126998D01*
Y1123999D01*
X534999Y1111753D02*
X529001D01*
Y1114752D01*
X530001Y1115751D01*
X532000D01*
X533000Y1114752D01*
Y1111753D01*
Y1113752D02*
X534999Y1115751D01*
X530001Y1117751D02*
X529001Y1118750D01*
Y1120750D01*
X530001Y1121749D01*
X531000D01*
X532000Y1120750D01*
Y1119750D01*
Y1120750D01*
X533000Y1121749D01*
X533999D01*
X534999Y1120750D01*
Y1118750D01*
X533999Y1117751D01*
X529001Y1127747D02*
Y1123749D01*
X532000D01*
X531000Y1125748D01*
Y1126748D01*
X532000Y1127747D01*
X533999D01*
X534999Y1126748D01*
Y1124748D01*
X533999Y1123749D01*
X504585Y1070751D02*
Y1078749D01*
X508584D01*
X509917Y1077416D01*
Y1074750D01*
X508584Y1073417D01*
X504585D01*
X507251D02*
X509917Y1070751D01*
X512583Y1077416D02*
X513916Y1078749D01*
X516582D01*
X517915Y1077416D01*
Y1076083D01*
X516582Y1074750D01*
X517915Y1073417D01*
Y1072084D01*
X516582Y1070751D01*
X513916D01*
X512583Y1072084D01*
Y1073417D01*
X513916Y1074750D01*
X512583Y1076083D01*
Y1077416D01*
X513916Y1074750D02*
X516582D01*
X405336Y1180001D02*
Y1187999D01*
X409334D01*
X410667Y1186666D01*
Y1184000D01*
X409334Y1182667D01*
X405336D01*
X408001D02*
X410667Y1180001D01*
X413333Y1187999D02*
X418665D01*
Y1186666D01*
X413333Y1181334D01*
Y1180001D01*
X477836Y1112251D02*
Y1120249D01*
X481834D01*
X483167Y1118916D01*
Y1116250D01*
X481834Y1114917D01*
X477836D01*
X480501D02*
X483167Y1112251D01*
X491165Y1120249D02*
X488499Y1118916D01*
X485833Y1116250D01*
Y1113584D01*
X487166Y1112251D01*
X489832D01*
X491165Y1113584D01*
Y1114917D01*
X489832Y1116250D01*
X485833D01*
X503835Y1053501D02*
Y1061499D01*
X507834D01*
X509167Y1060166D01*
Y1057500D01*
X507834Y1056167D01*
X503835D01*
X506501D02*
X509167Y1053501D01*
X517164Y1061499D02*
X511833D01*
Y1057500D01*
X514499Y1058833D01*
X515832D01*
X517164Y1057500D01*
Y1054834D01*
X515832Y1053501D01*
X513166D01*
X511833Y1054834D01*
X409336Y1039501D02*
Y1047499D01*
X413334D01*
X414667Y1046166D01*
Y1043500D01*
X413334Y1042167D01*
X409336D01*
X412001D02*
X414667Y1039501D01*
X417333Y1046166D02*
X418666Y1047499D01*
X421332D01*
X422664Y1046166D01*
Y1044833D01*
X421332Y1043500D01*
X419999D01*
X421332D01*
X422664Y1042167D01*
Y1040834D01*
X421332Y1039501D01*
X418666D01*
X417333Y1040834D01*
X372168Y1056251D02*
Y1064249D01*
X376167D01*
X377500Y1062916D01*
Y1060250D01*
X376167Y1058917D01*
X372168D01*
X374834D02*
X377500Y1056251D01*
X380166D02*
X382832D01*
X381499D01*
Y1064249D01*
X380166Y1062916D01*
X520667Y1154666D02*
X519334Y1155999D01*
X516668D01*
X515336Y1154666D01*
Y1149334D01*
X516668Y1148001D01*
X519334D01*
X520667Y1149334D01*
X523333Y1155999D02*
X528665D01*
Y1154666D01*
X523333Y1149334D01*
Y1148001D01*
X548667Y1103037D02*
X547334Y1104370D01*
X544669D01*
X543336Y1103037D01*
Y1097706D01*
X544669Y1096373D01*
X547334D01*
X548667Y1097706D01*
X556665Y1104370D02*
X553999Y1103037D01*
X551333Y1100371D01*
Y1097706D01*
X552666Y1096373D01*
X555332D01*
X556665Y1097706D01*
Y1099038D01*
X555332Y1100371D01*
X551333D01*
X393667Y1157666D02*
X392334Y1158999D01*
X389668D01*
X388335Y1157666D01*
Y1152334D01*
X389668Y1151001D01*
X392334D01*
X393667Y1152334D01*
X401665Y1158999D02*
X396333D01*
Y1155000D01*
X398999Y1156333D01*
X400332D01*
X401665Y1155000D01*
Y1152334D01*
X400332Y1151001D01*
X397666D01*
X396333Y1152334D01*
X390667Y1183666D02*
X389334Y1184999D01*
X386668D01*
X385336Y1183666D01*
Y1178334D01*
X386668Y1177001D01*
X389334D01*
X390667Y1178334D01*
X397332Y1177001D02*
Y1184999D01*
X393333Y1181000D01*
X398665D01*
X525167Y1181916D02*
X523834Y1183249D01*
X521168D01*
X519836Y1181916D01*
Y1176584D01*
X521168Y1175251D01*
X523834D01*
X525167Y1176584D01*
X527833Y1181916D02*
X529166Y1183249D01*
X531832D01*
X533164Y1181916D01*
Y1180583D01*
X531832Y1179250D01*
X530499D01*
X531832D01*
X533164Y1177917D01*
Y1176584D01*
X531832Y1175251D01*
X529166D01*
X527833Y1176584D01*
X520250Y1140166D02*
X518917Y1141499D01*
X516251D01*
X514918Y1140166D01*
Y1134834D01*
X516251Y1133501D01*
X518917D01*
X520250Y1134834D01*
X522916Y1133501D02*
X525582D01*
X524249D01*
Y1141499D01*
X522916Y1140166D01*
D15*
X625503Y1174000D02*
D03*
M02*
