G04*
G04 #@! TF.GenerationSoftware,Altium Limited,Altium Designer,23.6.0 (18)*
G04*
G04 Layer_Color=8421504*
%FSLAX44Y44*%
%MOMM*%
G71*
G04*
G04 #@! TF.SameCoordinates,C0EE57D9-4E2B-4701-80FF-B58ABC17C381*
G04*
G04*
G04 #@! TF.FilePolarity,Positive*
G04*
G01*
G75*
%ADD16R,1.0000X1.1000*%
%ADD17R,2.0000X6.7100*%
%ADD18R,1.5000X0.8000*%
%ADD19R,3.0000X1.6000*%
%ADD20R,2.0000X0.4500*%
%ADD21R,1.7900X2.2100*%
%ADD22R,2.2000X2.8000*%
%ADD23R,1.1000X1.0000*%
%ADD24R,2.6000X1.9000*%
%ADD25R,1.1000X1.1000*%
%ADD26R,1.5700X0.4100*%
D16*
X652000Y1036750D02*
D03*
Y1053750D02*
D03*
X633000Y1053500D02*
D03*
Y1036500D02*
D03*
X574000Y1134500D02*
D03*
Y1117500D02*
D03*
X549000Y1135000D02*
D03*
Y1118000D02*
D03*
D17*
X552140Y1059250D02*
D03*
X609860D02*
D03*
D18*
X267750Y1319750D02*
D03*
Y1307250D02*
D03*
Y1294750D02*
D03*
Y1282250D02*
D03*
X742500Y1074750D02*
D03*
Y1087250D02*
D03*
Y1099750D02*
D03*
Y1112250D02*
D03*
Y965000D02*
D03*
Y977500D02*
D03*
Y990000D02*
D03*
Y1002500D02*
D03*
X742750Y1184000D02*
D03*
Y1196500D02*
D03*
Y1209000D02*
D03*
Y1221500D02*
D03*
X267750Y1210500D02*
D03*
Y1198000D02*
D03*
Y1185500D02*
D03*
Y1173000D02*
D03*
Y1160500D02*
D03*
Y1148000D02*
D03*
Y1135500D02*
D03*
Y1001250D02*
D03*
Y1013750D02*
D03*
Y1026250D02*
D03*
Y1038750D02*
D03*
Y1051250D02*
D03*
Y1063750D02*
D03*
Y867000D02*
D03*
Y879500D02*
D03*
Y892000D02*
D03*
Y904500D02*
D03*
Y917000D02*
D03*
Y929500D02*
D03*
D19*
X238750Y1345250D02*
D03*
Y1256750D02*
D03*
X771500Y1049250D02*
D03*
Y1137750D02*
D03*
Y939500D02*
D03*
Y1028000D02*
D03*
X771750Y1158500D02*
D03*
Y1247000D02*
D03*
X238750Y1236000D02*
D03*
Y1110000D02*
D03*
Y975750D02*
D03*
Y1089250D02*
D03*
Y841500D02*
D03*
Y955000D02*
D03*
D20*
X720000Y1350000D02*
D03*
Y1337300D02*
D03*
Y1324600D02*
D03*
Y1311900D02*
D03*
Y1273800D02*
D03*
Y1286500D02*
D03*
Y1299200D02*
D03*
Y1261100D02*
D03*
Y1248400D02*
D03*
Y1235700D02*
D03*
Y1223000D02*
D03*
Y1210300D02*
D03*
Y1172200D02*
D03*
Y1184900D02*
D03*
Y1197600D02*
D03*
Y1159500D02*
D03*
Y1146800D02*
D03*
Y1134100D02*
D03*
Y1121400D02*
D03*
Y1108700D02*
D03*
X681000Y1350000D02*
D03*
Y1337300D02*
D03*
Y1324600D02*
D03*
Y1311900D02*
D03*
Y1273800D02*
D03*
Y1286500D02*
D03*
Y1299200D02*
D03*
Y1261100D02*
D03*
Y1248400D02*
D03*
Y1235700D02*
D03*
Y1223000D02*
D03*
Y1210300D02*
D03*
Y1172200D02*
D03*
Y1184900D02*
D03*
Y1197600D02*
D03*
Y1159500D02*
D03*
Y1146800D02*
D03*
Y1134100D02*
D03*
Y1121400D02*
D03*
Y1108700D02*
D03*
X329000Y1350000D02*
D03*
Y1337300D02*
D03*
Y1324600D02*
D03*
Y1311900D02*
D03*
Y1273800D02*
D03*
Y1286500D02*
D03*
Y1299200D02*
D03*
Y1261100D02*
D03*
Y1248400D02*
D03*
Y1235700D02*
D03*
Y1223000D02*
D03*
Y1210300D02*
D03*
Y1172200D02*
D03*
Y1184900D02*
D03*
Y1197600D02*
D03*
Y1159500D02*
D03*
Y1146800D02*
D03*
Y1134100D02*
D03*
Y1121400D02*
D03*
Y1108700D02*
D03*
X290000Y1350000D02*
D03*
Y1337300D02*
D03*
Y1324600D02*
D03*
Y1311900D02*
D03*
Y1273800D02*
D03*
Y1286500D02*
D03*
Y1299200D02*
D03*
Y1261100D02*
D03*
Y1248400D02*
D03*
Y1235700D02*
D03*
Y1223000D02*
D03*
Y1210300D02*
D03*
Y1172200D02*
D03*
Y1184900D02*
D03*
Y1197600D02*
D03*
Y1159500D02*
D03*
Y1146800D02*
D03*
Y1134100D02*
D03*
Y1121400D02*
D03*
Y1108700D02*
D03*
X681000Y840100D02*
D03*
Y852800D02*
D03*
Y865500D02*
D03*
Y878200D02*
D03*
Y890900D02*
D03*
Y929000D02*
D03*
Y916300D02*
D03*
Y903600D02*
D03*
Y941700D02*
D03*
Y954400D02*
D03*
Y967100D02*
D03*
Y979800D02*
D03*
Y992500D02*
D03*
Y1030600D02*
D03*
Y1017900D02*
D03*
Y1005200D02*
D03*
Y1043300D02*
D03*
Y1056000D02*
D03*
Y1068700D02*
D03*
Y1081400D02*
D03*
X720000Y840100D02*
D03*
Y852800D02*
D03*
Y865500D02*
D03*
Y878200D02*
D03*
Y890900D02*
D03*
Y929000D02*
D03*
Y916300D02*
D03*
Y903600D02*
D03*
Y941700D02*
D03*
Y954400D02*
D03*
Y967100D02*
D03*
Y979800D02*
D03*
Y992500D02*
D03*
Y1030600D02*
D03*
Y1017900D02*
D03*
Y1005200D02*
D03*
Y1043300D02*
D03*
Y1056000D02*
D03*
Y1068700D02*
D03*
Y1081400D02*
D03*
X290000Y840100D02*
D03*
Y852800D02*
D03*
Y865500D02*
D03*
Y878200D02*
D03*
Y890900D02*
D03*
Y929000D02*
D03*
Y916300D02*
D03*
Y903600D02*
D03*
Y941700D02*
D03*
Y954400D02*
D03*
Y967100D02*
D03*
Y979800D02*
D03*
Y992500D02*
D03*
Y1030600D02*
D03*
Y1017900D02*
D03*
Y1005200D02*
D03*
Y1043300D02*
D03*
Y1056000D02*
D03*
Y1068700D02*
D03*
Y1081400D02*
D03*
X329000Y840100D02*
D03*
Y852800D02*
D03*
Y865500D02*
D03*
Y878200D02*
D03*
Y890900D02*
D03*
Y929000D02*
D03*
Y916300D02*
D03*
Y903600D02*
D03*
Y941700D02*
D03*
Y954400D02*
D03*
Y967100D02*
D03*
Y979800D02*
D03*
Y992500D02*
D03*
Y1030600D02*
D03*
Y1017900D02*
D03*
Y1005200D02*
D03*
Y1043300D02*
D03*
Y1056000D02*
D03*
Y1068700D02*
D03*
Y1081400D02*
D03*
D21*
X629650Y1138000D02*
D03*
X658850D02*
D03*
X629800Y1107250D02*
D03*
X659000D02*
D03*
X450350Y1159250D02*
D03*
X421150D02*
D03*
X506350Y1177500D02*
D03*
X477150D02*
D03*
D22*
X608000Y1174000D02*
D03*
X653000D02*
D03*
D23*
X485000Y1152000D02*
D03*
X502000D02*
D03*
X355000Y1179750D02*
D03*
X372000D02*
D03*
X530750Y1099500D02*
D03*
X513750D02*
D03*
X473000Y1075250D02*
D03*
X490000D02*
D03*
X473000Y1057000D02*
D03*
X490000D02*
D03*
X453750Y1044250D02*
D03*
X436750D02*
D03*
X395500Y1043750D02*
D03*
X378500D02*
D03*
X432500Y1184000D02*
D03*
X449500D02*
D03*
X493250Y1099750D02*
D03*
X476250D02*
D03*
X501250Y1131250D02*
D03*
X484250D02*
D03*
D24*
X364000Y1156250D02*
D03*
Y1113250D02*
D03*
D25*
X549000Y1157000D02*
D03*
X549000Y1179000D02*
D03*
X575000Y1157000D02*
D03*
X575000Y1179000D02*
D03*
D26*
X395830Y1140750D02*
D03*
Y1134250D02*
D03*
Y1127750D02*
D03*
Y1121250D02*
D03*
Y1114750D02*
D03*
Y1108250D02*
D03*
Y1101750D02*
D03*
Y1095250D02*
D03*
Y1088750D02*
D03*
Y1082250D02*
D03*
Y1075750D02*
D03*
Y1069250D02*
D03*
Y1062750D02*
D03*
Y1056250D02*
D03*
X453330Y1140750D02*
D03*
Y1134250D02*
D03*
Y1127750D02*
D03*
Y1121250D02*
D03*
Y1114750D02*
D03*
Y1108250D02*
D03*
Y1101750D02*
D03*
Y1095250D02*
D03*
Y1088750D02*
D03*
Y1082250D02*
D03*
Y1075750D02*
D03*
Y1069250D02*
D03*
Y1062750D02*
D03*
Y1056250D02*
D03*
M02*
