G04*
G04 #@! TF.GenerationSoftware,Altium Limited,Altium Designer,23.6.0 (18)*
G04*
G04 Layer_Color=16711935*
%FSLAX44Y44*%
%MOMM*%
G71*
G04*
G04 #@! TF.SameCoordinates,C0EE57D9-4E2B-4701-80FF-B58ABC17C381*
G04*
G04*
G04 #@! TF.FilePolarity,Negative*
G04*
G01*
G75*
%ADD27R,1.2032X1.3032*%
%ADD29R,1.7032X1.0032*%
%ADD30R,3.2032X1.8032*%
%ADD34R,1.3032X1.2032*%
%ADD38C,3.9192*%
%ADD39R,3.9192X3.9192*%
%ADD40O,1.4032X2.6032*%
%ADD41C,0.8032*%
%ADD42O,2.2032X1.1032*%
%ADD43O,1.9032X1.1032*%
%ADD44C,1.7032*%
%ADD65R,1.7032X1.2032*%
G04:AMPARAMS|DCode=66|XSize=2.1732mm|YSize=0.8032mm|CornerRadius=0.2636mm|HoleSize=0mm|Usage=FLASHONLY|Rotation=180.000|XOffset=0mm|YOffset=0mm|HoleType=Round|Shape=RoundedRectangle|*
%AMROUNDEDRECTD66*
21,1,2.1732,0.2760,0,0,180.0*
21,1,1.6460,0.8032,0,0,180.0*
1,1,0.5272,-0.8230,0.1380*
1,1,0.5272,0.8230,0.1380*
1,1,0.5272,0.8230,-0.1380*
1,1,0.5272,-0.8230,-0.1380*
%
%ADD66ROUNDEDRECTD66*%
%ADD67R,2.6132X3.5032*%
G04:AMPARAMS|DCode=68|XSize=2.5332mm|YSize=1.7532mm|CornerRadius=0.4891mm|HoleSize=0mm|Usage=FLASHONLY|Rotation=180.000|XOffset=0mm|YOffset=0mm|HoleType=Round|Shape=RoundedRectangle|*
%AMROUNDEDRECTD68*
21,1,2.5332,0.7750,0,0,180.0*
21,1,1.5550,1.7532,0,0,180.0*
1,1,0.9782,-0.7775,0.3875*
1,1,0.9782,0.7775,0.3875*
1,1,0.9782,0.7775,-0.3875*
1,1,0.9782,-0.7775,-0.3875*
%
%ADD68ROUNDEDRECTD68*%
%ADD69R,1.2400X0.7000*%
%ADD70R,1.2400X0.4000*%
%ADD71R,5.3032X2.1032*%
%ADD72R,2.9932X1.6032*%
%ADD73R,2.9932X1.1932*%
%ADD74R,8.3332X8.3332*%
D27*
X426750Y1002500D02*
D03*
Y985500D02*
D03*
X711250Y849500D02*
D03*
Y866500D02*
D03*
X714000Y909500D02*
D03*
Y892500D02*
D03*
X747750Y1213750D02*
D03*
Y1230750D02*
D03*
X713000Y1050250D02*
D03*
Y1067250D02*
D03*
X635750Y1052000D02*
D03*
Y1035000D02*
D03*
X655250Y1052000D02*
D03*
Y1035000D02*
D03*
X674750Y1162500D02*
D03*
Y1179500D02*
D03*
X583500Y841500D02*
D03*
Y858500D02*
D03*
X546500Y841500D02*
D03*
Y858500D02*
D03*
X565000Y841000D02*
D03*
Y858000D02*
D03*
X458000Y1187500D02*
D03*
Y1170500D02*
D03*
X497750Y1076500D02*
D03*
Y1059500D02*
D03*
X438750Y1043750D02*
D03*
Y1060750D02*
D03*
X419250Y1044250D02*
D03*
Y1061250D02*
D03*
D29*
X268250Y1320000D02*
D03*
Y1307500D02*
D03*
Y1295000D02*
D03*
Y1223000D02*
D03*
Y1210500D02*
D03*
Y1198000D02*
D03*
X268250Y1126350D02*
D03*
Y1113850D02*
D03*
Y1101350D02*
D03*
Y1088850D02*
D03*
X742500Y1027500D02*
D03*
Y1015000D02*
D03*
Y1002500D02*
D03*
Y990000D02*
D03*
Y977500D02*
D03*
Y965000D02*
D03*
X267500Y1016850D02*
D03*
Y1004350D02*
D03*
Y991850D02*
D03*
Y979350D02*
D03*
X267750Y905850D02*
D03*
Y893350D02*
D03*
Y880850D02*
D03*
Y868350D02*
D03*
X742500Y1167500D02*
D03*
Y1155000D02*
D03*
Y1142500D02*
D03*
Y1130000D02*
D03*
Y1117500D02*
D03*
Y1105000D02*
D03*
D30*
X239250Y1345500D02*
D03*
Y1269500D02*
D03*
Y1248500D02*
D03*
Y1172500D02*
D03*
X239250Y1151850D02*
D03*
Y1063350D02*
D03*
X771500Y1053000D02*
D03*
Y939500D02*
D03*
X238500Y1042350D02*
D03*
Y953850D02*
D03*
X238750Y931350D02*
D03*
Y842850D02*
D03*
X771500Y1193000D02*
D03*
Y1079500D02*
D03*
D34*
X409750Y964000D02*
D03*
X426750D02*
D03*
X469500Y1283000D02*
D03*
X486500D02*
D03*
X470250Y1333250D02*
D03*
X487250D02*
D03*
X561000Y1099250D02*
D03*
X578000D02*
D03*
X578500Y1062250D02*
D03*
X561500D02*
D03*
X578500Y1081000D02*
D03*
X561500D02*
D03*
X675500Y1105250D02*
D03*
X692500D02*
D03*
X693000Y1086750D02*
D03*
X676000D02*
D03*
X578500Y1118000D02*
D03*
X561500D02*
D03*
X692500Y1067750D02*
D03*
X675500D02*
D03*
X675750Y1123750D02*
D03*
X692750D02*
D03*
X675250Y1049000D02*
D03*
X692250D02*
D03*
X675250Y1030250D02*
D03*
X692250D02*
D03*
X692500Y1142750D02*
D03*
X675500D02*
D03*
X634250Y970250D02*
D03*
X617250D02*
D03*
X634500Y951250D02*
D03*
X617500D02*
D03*
X424250Y845000D02*
D03*
X407250D02*
D03*
X424500Y863750D02*
D03*
X407500D02*
D03*
X407250Y882500D02*
D03*
X424250D02*
D03*
X425000Y901000D02*
D03*
X408000D02*
D03*
X635000Y932500D02*
D03*
X618000D02*
D03*
X635000Y911750D02*
D03*
X618000D02*
D03*
X617250Y891500D02*
D03*
X634250D02*
D03*
X656500Y871750D02*
D03*
X673500D02*
D03*
X618250D02*
D03*
X635250D02*
D03*
X635500Y853250D02*
D03*
X618500D02*
D03*
X344250Y1133500D02*
D03*
X361250D02*
D03*
X361000Y1115250D02*
D03*
X344000D02*
D03*
X459250Y1077500D02*
D03*
X476250D02*
D03*
X458750Y1095750D02*
D03*
X475750D02*
D03*
X475500Y1113500D02*
D03*
X458500D02*
D03*
X344250Y1078500D02*
D03*
X361250D02*
D03*
X457750Y1149500D02*
D03*
X474750D02*
D03*
X475500Y1131750D02*
D03*
X458500D02*
D03*
X476500Y1041250D02*
D03*
X459500D02*
D03*
X476250Y1059500D02*
D03*
X459250D02*
D03*
X344000Y1097000D02*
D03*
X361000D02*
D03*
D38*
X461750Y1000750D02*
D03*
X623250D02*
D03*
D39*
X389750D02*
D03*
X551250D02*
D03*
D40*
X493250Y940750D02*
D03*
X358250D02*
D03*
X519750D02*
D03*
X654750D02*
D03*
D41*
X745950Y907650D02*
D03*
Y849850D02*
D03*
X487178Y1030034D02*
D03*
X778589Y1270801D02*
D03*
X741339Y1288300D02*
D03*
X713500Y1267050D02*
D03*
X711750Y1279750D02*
D03*
X707250Y1318500D02*
D03*
X738250Y1241138D02*
D03*
X726500Y1305150D02*
D03*
X711750Y1292450D02*
D03*
X699000Y1187500D02*
D03*
X698250Y1198500D02*
D03*
X698346Y1177980D02*
D03*
X698500Y1166750D02*
D03*
X694746Y1239468D02*
D03*
X698250Y1153000D02*
D03*
X597250Y951500D02*
D03*
X588250Y838500D02*
D03*
X525750Y1299250D02*
D03*
X540250Y1297750D02*
D03*
X414000Y1179250D02*
D03*
X395750Y1175000D02*
D03*
X700750Y878000D02*
D03*
X503500Y1110500D02*
D03*
X505000Y1085897D02*
D03*
X388500Y1179000D02*
D03*
X698000Y993000D02*
D03*
X268750Y1271000D02*
D03*
X309500Y982750D02*
D03*
X764750Y964250D02*
D03*
X559750Y1145500D02*
D03*
X604500Y1017500D02*
D03*
X244500Y1198000D02*
D03*
X309750Y1230750D02*
D03*
X309250Y1216500D02*
D03*
X359705Y1300184D02*
D03*
X249832Y1321454D02*
D03*
X309642Y1312242D02*
D03*
X229500Y1205000D02*
D03*
X301500Y1115250D02*
D03*
X699750Y846750D02*
D03*
X723500Y1074750D02*
D03*
X717633Y1091688D02*
D03*
X692250Y1095250D02*
D03*
X527000Y1145000D02*
D03*
X491705Y1179000D02*
D03*
X429250Y1016750D02*
D03*
X335250Y1075750D02*
D03*
X645750Y972000D02*
D03*
X573500Y1073250D02*
D03*
X709750Y1254250D02*
D03*
X369657Y1141935D02*
D03*
X310250Y1272000D02*
D03*
X351963Y1040747D02*
D03*
X441250Y1312000D02*
D03*
X438250Y1215500D02*
D03*
X523750Y1072000D02*
D03*
X743250Y1064500D02*
D03*
X748750Y953500D02*
D03*
X239955Y917676D02*
D03*
X267455Y966183D02*
D03*
X655705Y846433D02*
D03*
X309205Y1337433D02*
D03*
X546455Y1275934D02*
D03*
X657455Y914684D02*
D03*
X325133Y1099688D02*
D03*
X446383Y869438D02*
D03*
X659133Y967938D02*
D03*
X524133Y836688D02*
D03*
X601750Y965500D02*
D03*
X412346Y1031230D02*
D03*
X775517Y1014888D02*
D03*
X772767Y1002138D02*
D03*
X771017Y990638D02*
D03*
X770767Y977638D02*
D03*
X248517Y912388D02*
D03*
X254750Y900000D02*
D03*
X264949Y941956D02*
D03*
X274000Y948500D02*
D03*
X310449Y1030456D02*
D03*
X308199Y1017456D02*
D03*
D42*
X741050Y922000D02*
D03*
Y835500D02*
D03*
D43*
X782750Y922000D02*
D03*
Y835500D02*
D03*
D44*
X658250Y1204750D02*
D03*
X632850D02*
D03*
X607450D02*
D03*
X582050D02*
D03*
X556650D02*
D03*
X531250D02*
D03*
X505850D02*
D03*
X480450D02*
D03*
X455050D02*
D03*
X429650D02*
D03*
X404250D02*
D03*
X378850D02*
D03*
X353450D02*
D03*
X658250Y1229750D02*
D03*
X632850D02*
D03*
X607450D02*
D03*
X582050D02*
D03*
X556650D02*
D03*
X531250D02*
D03*
X505850D02*
D03*
X480450D02*
D03*
X455050D02*
D03*
X429650D02*
D03*
X404250D02*
D03*
X378850D02*
D03*
X353450D02*
D03*
X658250Y1254750D02*
D03*
X632850D02*
D03*
X607450D02*
D03*
X582050D02*
D03*
X556650D02*
D03*
X531250D02*
D03*
X505850D02*
D03*
X480450D02*
D03*
X455050D02*
D03*
X429650D02*
D03*
X404250D02*
D03*
X378850D02*
D03*
X353450D02*
D03*
D65*
X723750Y1290250D02*
D03*
X778750D02*
D03*
X723750Y1324250D02*
D03*
X778750D02*
D03*
D66*
X651500Y1107850D02*
D03*
Y1095150D02*
D03*
Y1082450D02*
D03*
Y1069750D02*
D03*
X602000D02*
D03*
Y1082450D02*
D03*
Y1095150D02*
D03*
Y1107850D02*
D03*
X526000Y905300D02*
D03*
Y892600D02*
D03*
Y879900D02*
D03*
Y867200D02*
D03*
X476500D02*
D03*
Y879900D02*
D03*
Y892600D02*
D03*
Y905300D02*
D03*
X434680Y1119800D02*
D03*
Y1107100D02*
D03*
Y1094400D02*
D03*
Y1081700D02*
D03*
X385180D02*
D03*
Y1094400D02*
D03*
Y1107100D02*
D03*
Y1119800D02*
D03*
D67*
X626750Y1088800D02*
D03*
X501250Y886250D02*
D03*
X409930Y1100750D02*
D03*
D68*
X379150Y928500D02*
D03*
X421850D02*
D03*
X576250Y1145250D02*
D03*
X533550D02*
D03*
X315300Y1173250D02*
D03*
X358000D02*
D03*
D69*
X735250Y910750D02*
D03*
Y902750D02*
D03*
Y854750D02*
D03*
Y846750D02*
D03*
D70*
Y881250D02*
D03*
Y886250D02*
D03*
Y891250D02*
D03*
Y896250D02*
D03*
Y876250D02*
D03*
Y871250D02*
D03*
Y866250D02*
D03*
Y861250D02*
D03*
D71*
X567000Y966500D02*
D03*
Y924500D02*
D03*
X631750Y1175250D02*
D03*
Y1133250D02*
D03*
X413750Y1143500D02*
D03*
Y1185500D02*
D03*
D72*
X517800Y1282600D02*
D03*
D73*
Y1333400D02*
D03*
D74*
X622000Y1308000D02*
D03*
M02*
