G04*
G04 #@! TF.GenerationSoftware,Altium Limited,Altium Designer,24.4.1 (13)*
G04*
G04 Layer_Physical_Order=1*
G04 Layer_Color=255*
%FSLAX44Y44*%
%MOMM*%
G71*
G04*
G04 #@! TF.SameCoordinates,5A4A1F7D-102A-4DB2-8EF6-149E98EE43DC*
G04*
G04*
G04 #@! TF.FilePolarity,Positive*
G04*
G01*
G75*
%ADD14C,0.1500*%
%ADD17R,2.0000X0.4500*%
%ADD18R,0.4100X1.5700*%
%ADD19R,1.0000X1.1000*%
%ADD20R,1.1000X1.0000*%
%ADD21R,1.8000X1.6000*%
%ADD22R,2.0000X2.4000*%
%ADD23R,2.2000X2.8000*%
%ADD24R,6.7100X2.0000*%
%ADD25R,1.6000X0.6000*%
G04:AMPARAMS|DCode=26|XSize=1.97mm|YSize=0.6mm|CornerRadius=0.162mm|HoleSize=0mm|Usage=FLASHONLY|Rotation=0.000|XOffset=0mm|YOffset=0mm|HoleType=Round|Shape=RoundedRectangle|*
%AMROUNDEDRECTD26*
21,1,1.9700,0.2760,0,0,0.0*
21,1,1.6460,0.6000,0,0,0.0*
1,1,0.3240,0.8230,-0.1380*
1,1,0.3240,-0.8230,-0.1380*
1,1,0.3240,-0.8230,0.1380*
1,1,0.3240,0.8230,0.1380*
%
%ADD26ROUNDEDRECTD26*%
%ADD27R,5.5000X6.5000*%
%ADD28R,1.2000X1.5000*%
%ADD29R,2.0000X2.0000*%
%ADD30R,1.6000X0.8000*%
%ADD31R,3.0000X2.1000*%
%ADD32R,2.5000X6.5000*%
%ADD33R,1.6000X1.8000*%
%ADD60C,0.6000*%
%ADD61C,0.4000*%
%ADD62C,0.3000*%
%ADD63O,1.3000X2.6000*%
%ADD64C,3.7160*%
%ADD65O,1.2000X2.4000*%
%ADD66R,3.7160X3.7160*%
%ADD67O,2.0000X0.9000*%
%ADD68O,1.7000X0.9000*%
%ADD69C,0.6000*%
%ADD70C,1.5000*%
%ADD71C,0.8000*%
G36*
X621089Y1346657D02*
X621089Y1346657D01*
X621277Y1346469D01*
Y1343909D01*
X621530Y1342641D01*
X622248Y1341566D01*
X625407Y1338407D01*
X626482Y1337689D01*
X627250Y1337536D01*
Y1331728D01*
X625980Y1331602D01*
X625811Y1332450D01*
X625093Y1333525D01*
X623775Y1334843D01*
X622700Y1335561D01*
X621432Y1335814D01*
X609750D01*
Y1347186D01*
X620559D01*
X621089Y1346657D01*
D02*
G37*
G36*
X342250Y1319500D02*
X280000D01*
Y1349000D01*
Y1355000D01*
X342250D01*
Y1319500D01*
D02*
G37*
G36*
X466280Y1353730D02*
X466075Y1353593D01*
X461607Y1349125D01*
X460888Y1348050D01*
X460783Y1347519D01*
X460364Y1347100D01*
X444700D01*
Y1344480D01*
X444000Y1343500D01*
X429000D01*
Y1338358D01*
X428943Y1338259D01*
X428500Y1336606D01*
Y1334894D01*
X428943Y1333241D01*
X429000Y1333142D01*
Y1327770D01*
X429000Y1327500D01*
X429000D01*
Y1326500D01*
X429000D01*
Y1310500D01*
X444000D01*
Y1317686D01*
X456471D01*
X457053Y1317104D01*
X457053Y1317104D01*
X457493Y1316664D01*
X457653Y1316558D01*
X457777Y1316411D01*
X458186Y1316202D01*
X458568Y1315946D01*
X458756Y1315909D01*
X458927Y1315821D01*
X476774Y1310731D01*
X477149Y1310701D01*
X477513Y1310608D01*
X486714Y1310136D01*
X486784Y1310146D01*
X486854Y1310132D01*
X487421Y1310239D01*
X487993Y1310323D01*
X488054Y1310359D01*
X488124Y1310372D01*
X488608Y1310689D01*
X489103Y1310985D01*
X489146Y1311042D01*
X489206Y1311081D01*
X490009Y1311870D01*
X490017Y1311882D01*
X490029Y1311891D01*
X493889Y1315750D01*
X504395Y1305244D01*
X505470Y1304526D01*
X506738Y1304274D01*
X506965D01*
X516936Y1294302D01*
Y1289600D01*
X514911D01*
X514393Y1290375D01*
X504075Y1300693D01*
X503000Y1301411D01*
X501732Y1301664D01*
X368982D01*
X367714Y1301411D01*
X366639Y1300693D01*
X342673Y1276728D01*
X341500Y1277214D01*
Y1278550D01*
X332369D01*
X332117Y1279820D01*
X333366Y1280337D01*
X334778Y1281750D01*
X341500D01*
Y1291250D01*
X316500D01*
Y1281750D01*
X325722D01*
X327135Y1280337D01*
X327048Y1278998D01*
X325966Y1278550D01*
X316500D01*
Y1269686D01*
X304407Y1257593D01*
X302714Y1257344D01*
X302500Y1257501D01*
Y1265850D01*
X280939D01*
Y1269050D01*
X286932D01*
X287656Y1268750D01*
X289844D01*
X290568Y1269050D01*
X302500D01*
Y1278550D01*
X292973D01*
X292082Y1279760D01*
X292184Y1280155D01*
X293163Y1281134D01*
X293418Y1281750D01*
X302500D01*
Y1291250D01*
X280939D01*
Y1294450D01*
X287216D01*
X288906Y1293750D01*
X291094D01*
X292784Y1294450D01*
X302500D01*
Y1295397D01*
X316500D01*
Y1294450D01*
X334887D01*
X335495Y1293842D01*
X337517Y1293004D01*
X339705D01*
X341726Y1293842D01*
X343274Y1295389D01*
X344111Y1297410D01*
Y1299598D01*
X343274Y1301620D01*
X341726Y1303167D01*
X341500Y1303261D01*
Y1303950D01*
X339836D01*
X339705Y1304004D01*
X337517D01*
X337386Y1303950D01*
X316500D01*
Y1303553D01*
X302500D01*
Y1303950D01*
X293025D01*
X291094Y1304750D01*
X288906D01*
X286975Y1303950D01*
X277750D01*
Y1307150D01*
X287095D01*
X288906Y1306400D01*
X291094D01*
X292905Y1307150D01*
X302500D01*
Y1307312D01*
X316500D01*
Y1307150D01*
X341500D01*
Y1307312D01*
X392150D01*
X393906Y1307661D01*
X395394Y1308656D01*
X416739Y1330000D01*
X425250D01*
Y1346000D01*
X410250D01*
Y1336489D01*
X390249Y1316488D01*
X344528D01*
X344163Y1317416D01*
X344093Y1317758D01*
X344605Y1318524D01*
X344799Y1319500D01*
Y1355000D01*
X344799Y1355000D01*
X465894D01*
X466280Y1353730D01*
D02*
G37*
G36*
X793250Y1350250D02*
X758750D01*
Y1324250D01*
X793250D01*
Y1274250D01*
X758750D01*
Y1248250D01*
X793250D01*
Y1207870D01*
X793250Y1206600D01*
X791980Y1206600D01*
X758250D01*
Y1180600D01*
X791980D01*
X793250Y1180600D01*
X793250Y1179330D01*
Y1119370D01*
X793250Y1118100D01*
X791980Y1118100D01*
X758250D01*
Y1092100D01*
X791980D01*
X793250Y1092100D01*
X793250Y1090830D01*
Y936356D01*
X791980Y935729D01*
X791220Y936312D01*
X789517Y937018D01*
X787690Y937258D01*
X779690D01*
X777862Y937018D01*
X776160Y936312D01*
X774697Y935191D01*
X773575Y933728D01*
X772870Y932025D01*
X772629Y930198D01*
X772870Y928371D01*
X773575Y926668D01*
X774697Y925206D01*
X776160Y924083D01*
X777862Y923378D01*
X779690Y923138D01*
X787690D01*
X789517Y923378D01*
X791220Y924083D01*
X791980Y924667D01*
X793250Y924041D01*
Y849855D01*
X791980Y849229D01*
X791220Y849812D01*
X789517Y850518D01*
X787690Y850758D01*
X779690D01*
X777862Y850518D01*
X776160Y849812D01*
X774697Y848690D01*
X773575Y847228D01*
X772870Y845525D01*
X772629Y843698D01*
X772870Y841871D01*
X773575Y840168D01*
X774697Y838706D01*
X776160Y837583D01*
X777862Y836878D01*
X779690Y836638D01*
X787690D01*
X789517Y836878D01*
X791220Y837583D01*
X791980Y838167D01*
X793250Y837541D01*
Y829354D01*
X793000Y829250D01*
X256250D01*
Y855150D01*
X222500D01*
Y917650D01*
X248322D01*
X248808Y916477D01*
X248285Y915954D01*
X247069Y914135D01*
X246642Y911989D01*
Y873043D01*
X247069Y870897D01*
X248285Y869078D01*
X252678Y864685D01*
X254497Y863469D01*
X256643Y863042D01*
X264746D01*
X265604Y862469D01*
X267750Y862042D01*
X269896Y862469D01*
X271715Y863685D01*
X272931Y865504D01*
X273358Y867650D01*
X273026Y869316D01*
X273814Y870586D01*
X275876D01*
X276882Y870386D01*
X300932D01*
X302200Y870639D01*
X303275Y871357D01*
X307593Y875675D01*
X308311Y876750D01*
X308564Y878018D01*
Y902259D01*
X309737Y902745D01*
X316436Y896045D01*
Y892400D01*
X316500Y892080D01*
Y886150D01*
X341500D01*
Y895650D01*
X323064D01*
Y897418D01*
X323031Y897580D01*
X324074Y898850D01*
X341500D01*
Y908350D01*
X323064D01*
Y910118D01*
X323031Y910280D01*
X323996Y911526D01*
X324074Y911550D01*
X341500D01*
Y921050D01*
X332264D01*
X332061Y922068D01*
X331452Y922980D01*
X331792Y924228D01*
X331802Y924250D01*
X341500D01*
Y933750D01*
X323064D01*
Y935518D01*
X323031Y935680D01*
X323996Y936926D01*
X324074Y936950D01*
X341500D01*
Y946450D01*
X332264D01*
X332061Y947468D01*
X331452Y948380D01*
X331792Y949628D01*
X331802Y949650D01*
X341500D01*
Y959150D01*
X317564D01*
Y962350D01*
X341500D01*
Y971850D01*
X317564D01*
Y975050D01*
X341500D01*
Y984550D01*
X317564D01*
Y987750D01*
X341500D01*
Y997250D01*
X317564D01*
Y1000450D01*
X341500D01*
Y1009950D01*
X317564D01*
Y1013150D01*
X326072D01*
X326134Y1013087D01*
X328156Y1012250D01*
X330344D01*
X332365Y1013087D01*
X332428Y1013150D01*
X341500D01*
Y1022650D01*
X331793D01*
X330344Y1023250D01*
X328156D01*
X326707Y1022650D01*
X317391D01*
X317311Y1023050D01*
X316593Y1024125D01*
X315882Y1024836D01*
X316664Y1025850D01*
X317702Y1025850D01*
X327311D01*
X328156Y1025500D01*
X330344D01*
X331189Y1025850D01*
X341500D01*
Y1035350D01*
X332678D01*
X332365Y1035663D01*
X330671Y1036364D01*
X330525Y1037569D01*
X330545Y1037687D01*
X332116Y1038337D01*
X332328Y1038550D01*
X341500D01*
Y1048050D01*
X331180D01*
X330094Y1048500D01*
X327906D01*
X326820Y1048050D01*
X316500D01*
Y1038550D01*
X325672D01*
X325885Y1038337D01*
X327579Y1037635D01*
X327725Y1036431D01*
X327705Y1036313D01*
X326134Y1035663D01*
X325822Y1035350D01*
X316500D01*
Y1027109D01*
X316500Y1026014D01*
X315486Y1025232D01*
X303163Y1037555D01*
X302500Y1038550D01*
Y1048050D01*
X278500D01*
Y1051250D01*
X302500D01*
Y1059250D01*
Y1060750D01*
X277500D01*
Y1059250D01*
Y1054250D01*
X266489D01*
X266239Y1055506D01*
X265244Y1056994D01*
X262220Y1060019D01*
Y1060956D01*
X262338Y1061550D01*
Y1061550D01*
Y1112950D01*
X261989Y1114706D01*
X261338Y1115679D01*
Y1131500D01*
Y1132500D01*
X277500D01*
Y1129350D01*
X302500D01*
Y1138850D01*
X280747D01*
X280452Y1139292D01*
X280256Y1140120D01*
X282186Y1142050D01*
X302500D01*
Y1151550D01*
X280782D01*
X280256Y1152820D01*
X282186Y1154750D01*
X302500D01*
Y1164250D01*
X280782D01*
X280256Y1165520D01*
X282186Y1167450D01*
X302500D01*
Y1176950D01*
X280782D01*
X280256Y1178220D01*
X282186Y1180150D01*
X302500D01*
Y1189650D01*
X280782D01*
X280256Y1190920D01*
X282186Y1192850D01*
X302500D01*
Y1202350D01*
X278750D01*
Y1205550D01*
X302500D01*
Y1213428D01*
X302714Y1213585D01*
X304407Y1213336D01*
X305286Y1212457D01*
X306361Y1211739D01*
X307629Y1211486D01*
X316500D01*
Y1205550D01*
X341500D01*
Y1205935D01*
X341730Y1206013D01*
X343000Y1205103D01*
Y1203434D01*
X343681Y1200890D01*
X344998Y1198610D01*
X346860Y1196748D01*
X349140Y1195432D01*
X351684Y1194750D01*
X354316D01*
X356860Y1195432D01*
X357350Y1195714D01*
X370657Y1182407D01*
X371732Y1181689D01*
X373000Y1181436D01*
X435100D01*
X448879Y1167657D01*
X449954Y1166939D01*
X451222Y1166686D01*
X473526D01*
X474332Y1165705D01*
X474142Y1164750D01*
Y1162073D01*
X462035Y1149965D01*
X460819Y1148146D01*
X460392Y1146000D01*
Y1120636D01*
X460819Y1118490D01*
X459770Y1117775D01*
X456079Y1121465D01*
X454260Y1122681D01*
X452114Y1123108D01*
X432108D01*
Y1123700D01*
X431681Y1125846D01*
X431093Y1126726D01*
X432181Y1128354D01*
X432608Y1130500D01*
X432181Y1132646D01*
X430965Y1134465D01*
X429146Y1135681D01*
X427000Y1136108D01*
X424854Y1135681D01*
X423413Y1134718D01*
X407240Y1150890D01*
X405421Y1152106D01*
X403275Y1152533D01*
X401129Y1152106D01*
X399310Y1150890D01*
X398094Y1149071D01*
X397667Y1146925D01*
X398094Y1144779D01*
X399310Y1142960D01*
X419385Y1122885D01*
X420892Y1121377D01*
Y1118500D01*
X421319Y1116354D01*
X422535Y1114535D01*
X423363Y1113981D01*
X423810Y1113535D01*
X425629Y1112319D01*
X427775Y1111892D01*
X436750D01*
Y1108460D01*
X435982Y1107311D01*
X435672Y1105750D01*
X435672Y1105750D01*
Y1104472D01*
X424576Y1093376D01*
X423692Y1092053D01*
X423382Y1090493D01*
X422137Y1090250D01*
X417000D01*
Y1070250D01*
X429390D01*
X430196Y1069268D01*
X430142Y1069000D01*
Y1051000D01*
X430267Y1050372D01*
Y1026375D01*
X430694Y1024229D01*
X431910Y1022410D01*
X432035Y1022285D01*
X433854Y1021069D01*
X436000Y1020642D01*
X438146Y1021069D01*
X439965Y1022285D01*
X441181Y1024104D01*
X441608Y1026250D01*
X441483Y1026878D01*
Y1045392D01*
X470427D01*
X475785Y1040035D01*
X477604Y1038819D01*
X479750Y1038392D01*
X481896Y1038819D01*
X483715Y1040035D01*
X484931Y1041854D01*
X485358Y1044000D01*
X484931Y1046146D01*
X483715Y1047965D01*
X477500Y1054181D01*
X478026Y1055451D01*
X497201D01*
Y1031750D01*
X497395Y1030775D01*
X497948Y1029948D01*
X501698Y1026198D01*
X502524Y1025645D01*
X503500Y1025451D01*
X532000D01*
X532975Y1025645D01*
X533802Y1026198D01*
X534355Y1027025D01*
X534549Y1028000D01*
Y1031000D01*
X535819Y1031000D01*
X551556Y1031000D01*
X551727Y1030937D01*
X552750Y1029750D01*
Y1028500D01*
X554749D01*
X558351Y1027691D01*
X558616Y1027685D01*
X558874Y1027630D01*
X571715Y1027451D01*
X571743Y1027457D01*
X571771Y1027451D01*
X601771Y1027701D01*
X602249Y1027800D01*
X602725Y1027895D01*
X602734Y1027901D01*
X602745Y1027903D01*
X603148Y1028177D01*
X603552Y1028448D01*
X603558Y1028457D01*
X603567Y1028463D01*
X603835Y1028870D01*
X604105Y1029275D01*
X604107Y1029285D01*
X604113Y1029294D01*
X604204Y1029773D01*
X604299Y1030250D01*
Y1085451D01*
X639750D01*
X640725Y1085645D01*
X641552Y1086198D01*
X643052Y1087698D01*
X643605Y1088524D01*
X643799Y1089500D01*
Y1123500D01*
X643756Y1123714D01*
X644677Y1124984D01*
X653205D01*
X655351Y1125411D01*
X657171Y1126626D01*
X663465Y1132921D01*
X664681Y1134740D01*
X665108Y1136886D01*
Y1151614D01*
X664681Y1153760D01*
X663465Y1155579D01*
X656329Y1162715D01*
X655232Y1163448D01*
X654972Y1163708D01*
X653965Y1165215D01*
X653664Y1165416D01*
X654050Y1166686D01*
X661127D01*
X668250Y1159564D01*
Y1154750D01*
X685095D01*
X686906Y1154000D01*
X689094D01*
X690905Y1154750D01*
X693250D01*
Y1157803D01*
X693500Y1158406D01*
Y1160594D01*
X693250Y1161198D01*
Y1164250D01*
X690905D01*
X689094Y1165000D01*
X686906D01*
X685095Y1164250D01*
X672936D01*
X670910Y1166277D01*
X671395Y1167450D01*
X685820D01*
X686906Y1167000D01*
X689094D01*
X690180Y1167450D01*
X693250D01*
Y1170803D01*
X693500Y1171406D01*
Y1173594D01*
X693250Y1174197D01*
Y1176950D01*
X691328D01*
X691115Y1177163D01*
X689094Y1178000D01*
X686906D01*
X684884Y1177163D01*
X684672Y1176950D01*
X672936D01*
X671722Y1178164D01*
X670647Y1178883D01*
X670785Y1180150D01*
X685587D01*
X687156Y1179500D01*
X689344D01*
X690913Y1180150D01*
X693250D01*
Y1182699D01*
X693750Y1183906D01*
Y1186094D01*
X693250Y1187301D01*
Y1189650D01*
X691378D01*
X691366Y1189663D01*
X689344Y1190500D01*
X687156D01*
X685135Y1189663D01*
X685122Y1189650D01*
X675482D01*
X674803Y1190920D01*
X674911Y1191082D01*
X675164Y1192350D01*
Y1192850D01*
X688622D01*
X688634Y1192837D01*
X690656Y1192000D01*
X692844D01*
X694865Y1192837D01*
X696413Y1194385D01*
X697250Y1196406D01*
Y1198594D01*
X696413Y1200615D01*
X694865Y1202163D01*
X692844Y1203000D01*
X690656D01*
X689087Y1202350D01*
X675824D01*
X675746Y1202374D01*
X674781Y1203620D01*
X674814Y1203782D01*
Y1205550D01*
X689932D01*
X690656Y1205250D01*
X692844D01*
X694865Y1206087D01*
X696413Y1207635D01*
X697250Y1209656D01*
Y1211844D01*
X696413Y1213866D01*
X694865Y1215413D01*
X692844Y1216250D01*
X690656D01*
X688634Y1215413D01*
X688272Y1215050D01*
X672142D01*
X671814Y1215450D01*
Y1218250D01*
X687052D01*
X687656Y1218000D01*
X689844D01*
X690448Y1218250D01*
X693250D01*
Y1220222D01*
X693413Y1220385D01*
X694250Y1222406D01*
Y1224594D01*
X693413Y1226616D01*
X693250Y1226778D01*
Y1227750D01*
X692278D01*
X691865Y1228163D01*
X690903Y1228561D01*
X691156Y1229831D01*
X692844D01*
X694865Y1230669D01*
X696413Y1232216D01*
X697250Y1234237D01*
Y1236425D01*
X696413Y1238447D01*
X694865Y1239994D01*
X692844Y1240831D01*
X690656D01*
X689736Y1240450D01*
X671814D01*
Y1243650D01*
X686072D01*
X686134Y1243587D01*
X688156Y1242750D01*
X690344D01*
X692365Y1243587D01*
X692428Y1243650D01*
X693250D01*
Y1244472D01*
X693913Y1245135D01*
X694750Y1247156D01*
Y1249344D01*
X693913Y1251366D01*
X693250Y1252028D01*
Y1253150D01*
X691793D01*
X690344Y1253750D01*
X688156D01*
X686707Y1253150D01*
X671814D01*
Y1256350D01*
X687311D01*
X688156Y1256000D01*
X690344D01*
X691189Y1256350D01*
X693250D01*
Y1257722D01*
X693913Y1258384D01*
X694750Y1260406D01*
Y1262594D01*
X693913Y1264615D01*
X693250Y1265278D01*
Y1265850D01*
X692678D01*
X692365Y1266163D01*
X690344Y1267000D01*
X688156D01*
X686134Y1266163D01*
X685822Y1265850D01*
X671814D01*
Y1269050D01*
X678828D01*
X680156Y1268500D01*
X682344D01*
X683672Y1269050D01*
X693250D01*
Y1278550D01*
X684478D01*
X684365Y1278663D01*
X682344Y1279500D01*
X680156D01*
X678135Y1278663D01*
X678022Y1278550D01*
X671814D01*
Y1281750D01*
X693250D01*
Y1291250D01*
X684278D01*
X683115Y1292413D01*
X682562Y1292642D01*
X682543Y1293831D01*
X683622Y1294450D01*
X693250D01*
Y1303950D01*
X683775D01*
X683172Y1304200D01*
X682794Y1305731D01*
X683061Y1306132D01*
X683110Y1306378D01*
X683615Y1306587D01*
X684178Y1307150D01*
X693250D01*
Y1316650D01*
X681835D01*
X681594Y1316750D01*
X679406D01*
X679165Y1316650D01*
X670500D01*
Y1324000D01*
X635414D01*
X634927Y1325173D01*
X636291Y1326536D01*
X696531D01*
X706811Y1316257D01*
X707250Y1315963D01*
Y1307150D01*
X715672D01*
X715884Y1306937D01*
X717906Y1306100D01*
X720094D01*
X722115Y1306937D01*
X722328Y1307150D01*
X732029D01*
X732280Y1305891D01*
X732911Y1304946D01*
X732911Y1304946D01*
X732627Y1305372D01*
X732752Y1304729D01*
X732399Y1304247D01*
X732211Y1304069D01*
X731703Y1303950D01*
X731081Y1303950D01*
X721068D01*
X720344Y1304250D01*
X718156D01*
X717432Y1303950D01*
X707250D01*
Y1294450D01*
X715772D01*
X716134Y1294087D01*
X718156Y1293250D01*
X718108Y1292000D01*
X717906D01*
X716095Y1291250D01*
X707250D01*
Y1281750D01*
X716095D01*
X717704Y1281084D01*
X717867Y1280361D01*
X717830Y1279761D01*
X716385Y1279163D01*
X715772Y1278550D01*
X707250D01*
Y1269050D01*
X718285D01*
X718406Y1269000D01*
X720594D01*
X720715Y1269050D01*
X732250D01*
Y1278550D01*
X723228D01*
X722616Y1279163D01*
X720796Y1279916D01*
X720633Y1280638D01*
X720670Y1281239D01*
X721905Y1281750D01*
X732250D01*
Y1291250D01*
X721905D01*
X720094Y1292000D01*
X720142Y1293250D01*
X720344D01*
X722365Y1294087D01*
X722728Y1294450D01*
X732250D01*
X732250Y1302748D01*
Y1303076D01*
X732360Y1303850D01*
X732648Y1304066D01*
X733256Y1304192D01*
X733648Y1304166D01*
X736750Y1301064D01*
Y1292750D01*
Y1280250D01*
X757750D01*
Y1281262D01*
X759009Y1281799D01*
X760491Y1280943D01*
X762144Y1280500D01*
X763856D01*
X765509Y1280943D01*
X766991Y1281799D01*
X768201Y1283009D01*
X769057Y1284491D01*
X769500Y1286144D01*
Y1287856D01*
X769057Y1289509D01*
X768201Y1290991D01*
X766991Y1292201D01*
X765509Y1293057D01*
X763856Y1293500D01*
X762144D01*
X760491Y1293057D01*
X759009Y1292201D01*
X757750Y1292738D01*
Y1305750D01*
X750456D01*
X750071Y1307020D01*
X751215Y1307785D01*
X752431Y1309604D01*
X752858Y1311750D01*
X752431Y1313896D01*
X751215Y1315715D01*
X749396Y1316931D01*
X747250Y1317358D01*
X745573D01*
X735115Y1327815D01*
X733296Y1329031D01*
X731150Y1329458D01*
X722380D01*
X721896Y1329781D01*
X719750Y1330208D01*
X717604Y1329781D01*
X715785Y1328565D01*
X714569Y1326746D01*
X714142Y1324600D01*
X714424Y1323184D01*
X713519Y1321914D01*
X710526D01*
X700247Y1332193D01*
X699172Y1332911D01*
X697904Y1333164D01*
X670500D01*
Y1352000D01*
X653570D01*
X653093Y1352714D01*
X651981Y1353827D01*
X652467Y1355000D01*
X793250D01*
Y1350250D01*
D02*
G37*
G36*
X503200Y1326400D02*
X505588D01*
X505605Y1326316D01*
X506323Y1325241D01*
X528570Y1302994D01*
X529645Y1302276D01*
X530913Y1302024D01*
X537905D01*
X538723Y1302186D01*
X570250D01*
X571518Y1302439D01*
X572593Y1303157D01*
X579593Y1310157D01*
X580311Y1311232D01*
X580365Y1311500D01*
X584750D01*
Y1314750D01*
X597750D01*
Y1317250D01*
X608000D01*
Y1316750D01*
X611500D01*
Y1304000D01*
X627250D01*
Y1303000D01*
X635436D01*
Y1300500D01*
X634750D01*
Y1284770D01*
X634750Y1284500D01*
Y1283500D01*
X634750Y1283230D01*
Y1267500D01*
X649750D01*
Y1283230D01*
X649750Y1283500D01*
Y1284500D01*
X649750Y1284770D01*
Y1300500D01*
X642064D01*
Y1303000D01*
X664679D01*
X665186Y1302382D01*
Y1238227D01*
X664867Y1238095D01*
X663916Y1237823D01*
X661760Y1239069D01*
X659217Y1239750D01*
X656583D01*
X654040Y1239069D01*
X651760Y1237752D01*
X649898Y1235890D01*
X648581Y1233610D01*
X647900Y1231067D01*
Y1228434D01*
X648581Y1225890D01*
X649898Y1223610D01*
X651760Y1221748D01*
X654040Y1220432D01*
X656583Y1219750D01*
X659217D01*
X661760Y1220432D01*
X663916Y1221677D01*
X664867Y1221405D01*
X665186Y1221273D01*
Y1216823D01*
X662150Y1213786D01*
X661660Y1214069D01*
X659117Y1214750D01*
X656484D01*
X653940Y1214069D01*
X651660Y1212752D01*
X649798Y1210890D01*
X648482Y1208610D01*
X647800Y1206067D01*
Y1203434D01*
X648482Y1200890D01*
X649798Y1198610D01*
X651660Y1196748D01*
X653940Y1195432D01*
X656484Y1194750D01*
X659117D01*
X661660Y1195432D01*
X663940Y1196748D01*
X664013Y1196821D01*
X665186Y1196335D01*
Y1194615D01*
X655885Y1185314D01*
X558500D01*
X558428Y1185361D01*
X557160Y1185614D01*
X521340D01*
X520072Y1185361D01*
X520000Y1185314D01*
X459873D01*
X457914Y1187272D01*
Y1195285D01*
X458460Y1195432D01*
X460740Y1196748D01*
X462602Y1198610D01*
X463918Y1200890D01*
X464600Y1203434D01*
Y1206067D01*
X463918Y1208610D01*
X462602Y1210890D01*
X460740Y1212752D01*
X458460Y1214069D01*
X455916Y1214750D01*
X453284D01*
X450740Y1214069D01*
X448460Y1212752D01*
X446598Y1210890D01*
X445281Y1208610D01*
X444600Y1206067D01*
Y1203434D01*
X445281Y1200890D01*
X446598Y1198610D01*
X448460Y1196748D01*
X450740Y1195432D01*
X451286Y1195285D01*
Y1189009D01*
X450113Y1188523D01*
X438236Y1200400D01*
X438518Y1200890D01*
X439200Y1203434D01*
Y1206067D01*
X438518Y1208610D01*
X437202Y1210890D01*
X435340Y1212752D01*
X433060Y1214069D01*
X430517Y1214750D01*
X427883D01*
X425340Y1214069D01*
X423060Y1212752D01*
X421198Y1210890D01*
X419882Y1208610D01*
X419200Y1206067D01*
Y1203434D01*
X419882Y1200890D01*
X421198Y1198610D01*
X423060Y1196748D01*
X424148Y1196120D01*
X424521Y1194438D01*
X424388Y1194247D01*
X418989D01*
X412836Y1200400D01*
X413119Y1200890D01*
X413800Y1203434D01*
Y1206067D01*
X413119Y1208610D01*
X411802Y1210890D01*
X409940Y1212752D01*
X407660Y1214069D01*
X405117Y1214750D01*
X402483D01*
X399940Y1214069D01*
X397660Y1212752D01*
X395798Y1210890D01*
X394482Y1208610D01*
X393800Y1206067D01*
Y1203434D01*
X394482Y1200890D01*
X395798Y1198610D01*
X397660Y1196748D01*
X399940Y1195432D01*
X402483Y1194750D01*
X405117D01*
X407660Y1195432D01*
X408150Y1195714D01*
X411443Y1192420D01*
X410957Y1191247D01*
X396589D01*
X387436Y1200400D01*
X387719Y1200890D01*
X388400Y1203434D01*
Y1206067D01*
X387719Y1208610D01*
X386402Y1210890D01*
X384540Y1212752D01*
X382260Y1214069D01*
X379716Y1214750D01*
X377084D01*
X374540Y1214069D01*
X372260Y1212752D01*
X370398Y1210890D01*
X369081Y1208610D01*
X368400Y1206067D01*
Y1203434D01*
X369081Y1200890D01*
X370398Y1198610D01*
X372260Y1196748D01*
X374540Y1195432D01*
X377084Y1194750D01*
X379716D01*
X382260Y1195432D01*
X382750Y1195714D01*
X389227Y1189237D01*
X388741Y1188064D01*
X374373D01*
X362036Y1200400D01*
X362318Y1200890D01*
X363000Y1203434D01*
Y1206067D01*
X362318Y1208610D01*
X361002Y1210890D01*
X359140Y1212752D01*
X357386Y1213765D01*
X357052Y1215227D01*
X367965Y1226140D01*
X369302Y1225681D01*
X370498Y1223610D01*
X372360Y1221748D01*
X374640Y1220432D01*
X377183Y1219750D01*
X379817D01*
X382360Y1220432D01*
X384640Y1221748D01*
X386502Y1223610D01*
X387818Y1225890D01*
X388500Y1228434D01*
Y1231067D01*
X387818Y1233610D01*
X386502Y1235890D01*
X384640Y1237752D01*
X382360Y1239069D01*
X379817Y1239750D01*
X377183D01*
X374640Y1239069D01*
X373334Y1238314D01*
X372064Y1239047D01*
Y1254750D01*
X372033Y1254905D01*
X372497Y1257237D01*
X373905Y1259345D01*
X376013Y1260753D01*
X377786Y1261106D01*
X377784Y1261129D01*
X377799Y1261148D01*
X378197Y1261274D01*
X379118Y1261458D01*
X380689Y1262507D01*
X380690Y1262507D01*
X381567Y1263426D01*
X393827Y1275686D01*
X433445D01*
X434178Y1274416D01*
X433943Y1274009D01*
X433500Y1272356D01*
Y1270644D01*
X433943Y1268991D01*
X434799Y1267509D01*
X436009Y1266299D01*
X437491Y1265443D01*
X439144Y1265000D01*
X440856D01*
X441044Y1265050D01*
X441438Y1264656D01*
X442927Y1263661D01*
X444682Y1263312D01*
X459250D01*
X461006Y1263661D01*
X462494Y1264656D01*
X465444Y1267606D01*
X466309Y1268900D01*
X466800D01*
Y1279058D01*
X466838Y1279250D01*
X466800Y1279442D01*
Y1286036D01*
X470700D01*
Y1268900D01*
X474332D01*
X479425Y1263807D01*
X480500Y1263089D01*
X481768Y1262836D01*
X570832D01*
X572100Y1263089D01*
X573175Y1263807D01*
X588480Y1279112D01*
X589750Y1278653D01*
Y1268250D01*
X614750D01*
Y1269291D01*
X615500Y1270250D01*
X630500D01*
Y1286250D01*
X615500D01*
X614750Y1287209D01*
Y1297250D01*
X589750D01*
Y1286064D01*
X587432D01*
X586164Y1285811D01*
X585089Y1285093D01*
X575923Y1275928D01*
X574750Y1276414D01*
Y1297250D01*
X549750D01*
Y1287500D01*
X538300D01*
Y1289600D01*
X523564D01*
Y1295675D01*
X523311Y1296943D01*
X522593Y1298018D01*
X510680Y1309930D01*
X509605Y1310649D01*
X508337Y1310901D01*
X508111D01*
X497169Y1321843D01*
X496808Y1322084D01*
X496547Y1323666D01*
X496548Y1323669D01*
X497159Y1324325D01*
X497282Y1324525D01*
X497458Y1324681D01*
X497749Y1325281D01*
X498099Y1325848D01*
X498137Y1326080D01*
X498240Y1326292D01*
X498268Y1326400D01*
X499300D01*
Y1332266D01*
X499338Y1336711D01*
X499300Y1336911D01*
Y1343536D01*
X503200D01*
Y1326400D01*
D02*
G37*
G36*
X277451Y1355000D02*
Y1349000D01*
Y1322500D01*
X256750D01*
Y1315989D01*
X256083Y1315322D01*
X254727Y1314416D01*
X249506Y1309194D01*
X248511Y1307706D01*
X248162Y1305950D01*
Y1268950D01*
X248496Y1267270D01*
X248496Y1267048D01*
X247845Y1266000D01*
X222500D01*
Y1328500D01*
X255750D01*
Y1354500D01*
X256813Y1355000D01*
X277451D01*
X277451Y1355000D01*
D02*
G37*
G36*
X439038Y1290766D02*
X438889Y1290543D01*
X438636Y1289275D01*
Y1285314D01*
X389500D01*
X388232Y1285061D01*
X387157Y1284343D01*
X372448Y1269634D01*
X372347Y1269604D01*
X369568Y1268118D01*
X367132Y1266118D01*
X365132Y1263682D01*
X363646Y1260902D01*
X363616Y1260802D01*
X360507Y1257693D01*
X359789Y1256618D01*
X359536Y1255350D01*
Y1252084D01*
X354802Y1247349D01*
X354802Y1247349D01*
X349892Y1242440D01*
X349706Y1242415D01*
X346544Y1241105D01*
X343830Y1239023D01*
Y1239023D01*
X343826Y1239014D01*
X341500D01*
Y1240450D01*
X324074D01*
X323996Y1240474D01*
X323031Y1241720D01*
X323064Y1241882D01*
Y1243650D01*
X341500D01*
Y1253150D01*
X342430Y1253539D01*
X343504Y1254257D01*
X381284Y1292036D01*
X438359D01*
X439038Y1290766D01*
D02*
G37*
G36*
X274311Y1249552D02*
Y1245343D01*
X274564Y1244075D01*
X275282Y1243000D01*
X277436Y1240845D01*
Y1237200D01*
X277500Y1236880D01*
Y1230950D01*
X302500D01*
X303436Y1230145D01*
Y1228555D01*
X302500Y1227750D01*
X302166Y1227750D01*
X277500D01*
Y1218250D01*
X302166D01*
X302500Y1218250D01*
X303436Y1217445D01*
Y1215855D01*
X302889Y1215384D01*
X302267Y1215050D01*
X277500D01*
Y1208000D01*
X272838D01*
Y1249009D01*
X274108Y1249688D01*
X274311Y1249552D01*
D02*
G37*
G36*
X608500Y1165750D02*
Y1160864D01*
X600643D01*
X599950Y1161900D01*
X598588Y1162811D01*
X596980Y1163131D01*
X580520D01*
X578913Y1162811D01*
X577550Y1161900D01*
X576639Y1160538D01*
X576319Y1158930D01*
Y1156170D01*
X576639Y1154563D01*
X577550Y1153200D01*
X578913Y1152289D01*
X580520Y1151969D01*
X596980D01*
X598588Y1152289D01*
X599950Y1153200D01*
X600643Y1154236D01*
X608169D01*
X608250Y1153000D01*
X608250D01*
Y1148164D01*
X600643D01*
X599950Y1149200D01*
X598588Y1150111D01*
X596980Y1150431D01*
X580520D01*
X578913Y1150111D01*
X577550Y1149200D01*
X576639Y1147838D01*
X576319Y1146230D01*
Y1143889D01*
X575908Y1143742D01*
X575049Y1143678D01*
X573965Y1145301D01*
X570451Y1148815D01*
X568631Y1150031D01*
X566485Y1150458D01*
X559832D01*
X559027Y1151440D01*
X559208Y1152350D01*
Y1161465D01*
X558781Y1163611D01*
X557565Y1165430D01*
X557483Y1165513D01*
X557969Y1166686D01*
X607695D01*
X608500Y1165750D01*
D02*
G37*
G36*
X502719Y1165513D02*
X493353Y1156147D01*
X492137Y1154328D01*
X491710Y1152182D01*
Y1149641D01*
X483069Y1141000D01*
X471608D01*
Y1143677D01*
X481151Y1153221D01*
X481646Y1153319D01*
X483465Y1154535D01*
X483715Y1154785D01*
X484931Y1156604D01*
X485358Y1158750D01*
Y1164750D01*
X485168Y1165705D01*
X485974Y1166686D01*
X502233D01*
X502719Y1165513D01*
D02*
G37*
G36*
X526819Y1143470D02*
X527139Y1141862D01*
X528050Y1140500D01*
X529412Y1139589D01*
X531020Y1139269D01*
X539114D01*
X539250Y1139242D01*
X550798D01*
X551387Y1128344D01*
X550017Y1127733D01*
X549750Y1128000D01*
X524405D01*
X524105Y1128124D01*
X523646Y1128431D01*
X523104Y1128539D01*
X522594Y1128750D01*
X522042D01*
X521500Y1128858D01*
X520958Y1128750D01*
X520406D01*
X519896Y1128539D01*
X519354Y1128431D01*
X518895Y1128124D01*
X518385Y1127913D01*
X517994Y1127522D01*
X517535Y1127215D01*
X517228Y1126756D01*
X516837Y1126366D01*
X516626Y1125855D01*
X516319Y1125396D01*
X516211Y1124854D01*
X516000Y1124344D01*
Y1123792D01*
X515892Y1123250D01*
X516000Y1122708D01*
Y1122156D01*
X516211Y1121646D01*
X516319Y1121104D01*
X516626Y1120645D01*
X516837Y1120135D01*
X517228Y1119744D01*
X517535Y1119285D01*
X518750Y1118070D01*
Y1109750D01*
X531114Y1097386D01*
X530540Y1096000D01*
X530250D01*
X530250Y1031000D01*
X532000D01*
Y1028000D01*
X503500D01*
X499750Y1031750D01*
Y1058000D01*
X477000D01*
X466750Y1068250D01*
Y1100250D01*
X467000Y1100500D01*
X469750D01*
Y1102392D01*
X473750D01*
X475896Y1102819D01*
X477715Y1104035D01*
X478681Y1105000D01*
X486750D01*
X486750Y1105000D01*
X487750D01*
Y1105000D01*
X488250Y1105000D01*
X490392D01*
Y1082250D01*
X490500Y1081708D01*
Y1081156D01*
X490711Y1080646D01*
X490819Y1080104D01*
X491126Y1079645D01*
X491337Y1079135D01*
X491728Y1078744D01*
X492035Y1078285D01*
X492494Y1077978D01*
X492884Y1077587D01*
X493395Y1077376D01*
X493854Y1077069D01*
X494396Y1076961D01*
X494906Y1076750D01*
X495458D01*
X496000Y1076642D01*
X496542Y1076750D01*
X497094D01*
X497604Y1076961D01*
X498146Y1077069D01*
X498605Y1077376D01*
X499115Y1077587D01*
X499506Y1077978D01*
X499965Y1078285D01*
X500272Y1078744D01*
X500663Y1079135D01*
X500874Y1079645D01*
X501181Y1080104D01*
X501289Y1080646D01*
X501500Y1081156D01*
Y1081708D01*
X501608Y1082250D01*
Y1105000D01*
X503750D01*
Y1120000D01*
X496181D01*
X491340Y1124840D01*
X511250Y1144750D01*
X526819D01*
Y1143470D01*
D02*
G37*
G36*
X564392Y1139013D02*
Y1131350D01*
X564819Y1129204D01*
X566035Y1127385D01*
X576560Y1116859D01*
X576639Y1116462D01*
X577550Y1115100D01*
X578913Y1114189D01*
X580520Y1113869D01*
X581764D01*
X581900Y1113842D01*
X588750D01*
X588886Y1113869D01*
X596980D01*
X598588Y1114189D01*
X599950Y1115100D01*
X600861Y1116462D01*
X601181Y1118070D01*
Y1120830D01*
X600861Y1122438D01*
X599950Y1123800D01*
X598588Y1124711D01*
X596980Y1125031D01*
X588886D01*
X588750Y1125058D01*
X585119D01*
X584958Y1125299D01*
X585637Y1126569D01*
X596980D01*
X598588Y1126889D01*
X599950Y1127800D01*
X600643Y1128836D01*
X608000D01*
Y1123750D01*
X608250D01*
Y1111549D01*
X558000D01*
X557024Y1111355D01*
X556198Y1110802D01*
X551448Y1106052D01*
X550895Y1105226D01*
X550701Y1104250D01*
X550895Y1103275D01*
X551201Y1102817D01*
Y1096000D01*
X549931Y1096000D01*
X534606Y1096000D01*
X533640Y1097270D01*
X533663Y1097386D01*
X533469Y1098361D01*
X532917Y1099188D01*
X521299Y1110806D01*
Y1113981D01*
X522569Y1114660D01*
X523154Y1114269D01*
X525300Y1113842D01*
X539250D01*
X541396Y1114269D01*
X543215Y1115485D01*
X544431Y1117304D01*
X544858Y1119450D01*
X544431Y1121596D01*
X543215Y1123415D01*
X542069Y1124181D01*
X542454Y1125451D01*
X548932D01*
X549041Y1125378D01*
X549076Y1125371D01*
X549105Y1125353D01*
X549562Y1125275D01*
X550017Y1125184D01*
X550051Y1125191D01*
X550086Y1125185D01*
X550537Y1125288D01*
X550992Y1125378D01*
X551022Y1125397D01*
X551056Y1125405D01*
X552425Y1126016D01*
X552454Y1126037D01*
X552488Y1126045D01*
X552858Y1126323D01*
X553237Y1126591D01*
X553256Y1126621D01*
X553284Y1126642D01*
X553520Y1127040D01*
X553767Y1127433D01*
X553773Y1127467D01*
X553791Y1127497D01*
X553857Y1127957D01*
X553935Y1128413D01*
X553927Y1128447D01*
X553932Y1128482D01*
X553400Y1138320D01*
X554274Y1139242D01*
X564162D01*
X564392Y1139013D01*
D02*
G37*
G36*
X263662Y1251549D02*
Y1208000D01*
X257750D01*
Y1201489D01*
X257083Y1200822D01*
X255728Y1199916D01*
X253506Y1197694D01*
X252511Y1196206D01*
X252162Y1194450D01*
Y1114000D01*
X222500D01*
Y1214000D01*
X256750D01*
Y1240000D01*
X255750D01*
Y1257802D01*
X256923Y1258288D01*
X263662Y1251549D01*
D02*
G37*
G36*
X641250Y1089500D02*
X639750Y1088000D01*
X602250D01*
X601750Y1088500D01*
Y1030250D01*
X571750Y1030000D01*
X558910Y1030178D01*
X555250Y1031000D01*
X555250Y1033629D01*
X555250Y1096000D01*
X553750D01*
Y1103750D01*
X553250Y1104250D01*
X558000Y1109000D01*
X624000D01*
Y1109000D01*
X624250D01*
Y1123500D01*
X641250D01*
Y1089500D01*
D02*
G37*
G36*
X464335Y1100925D02*
X464201Y1100250D01*
Y1068250D01*
X464395Y1067275D01*
X464948Y1066448D01*
X473677Y1057718D01*
X473051Y1056548D01*
X472750Y1056608D01*
X441358D01*
Y1066677D01*
X447715Y1073035D01*
X448931Y1074854D01*
X449358Y1077000D01*
Y1087677D01*
X463215Y1101535D01*
X464335Y1100925D01*
D02*
G37*
G36*
X257500Y1033102D02*
Y1028750D01*
Y1016250D01*
Y1003750D01*
Y991250D01*
Y986698D01*
X256327Y986212D01*
X253338Y989200D01*
Y1017308D01*
X254000Y1018906D01*
Y1021094D01*
X253338Y1022692D01*
Y1030600D01*
X256327Y1033588D01*
X257500Y1033102D01*
D02*
G37*
G36*
X253044Y1058118D02*
X253393Y1056363D01*
X254387Y1054874D01*
X257412Y1051850D01*
Y1049750D01*
X257500Y1049307D01*
Y1047739D01*
X256661Y1046900D01*
X255306Y1045994D01*
X253256Y1043944D01*
X252350Y1042589D01*
X245506Y1035744D01*
X244511Y1034256D01*
X244162Y1032500D01*
Y1023440D01*
X243837Y1023115D01*
X243000Y1021094D01*
Y1018906D01*
X243837Y1016885D01*
X244162Y1016560D01*
Y987300D01*
X244511Y985544D01*
X245506Y984056D01*
X255541Y974020D01*
X255015Y972750D01*
X222500D01*
Y1060250D01*
X253044D01*
Y1058118D01*
D02*
G37*
G36*
X277500Y975050D02*
X298936D01*
Y971850D01*
X277500D01*
Y962350D01*
X298936D01*
Y959150D01*
X277500D01*
Y949650D01*
X298936D01*
Y948747D01*
X299141Y947720D01*
X299146Y947689D01*
X298465Y946450D01*
X294328D01*
X293365Y947413D01*
X291344Y948250D01*
X289156D01*
X287134Y947413D01*
X286172Y946450D01*
X277500D01*
Y936950D01*
X302500D01*
Y941821D01*
X303691Y942342D01*
X304436Y941742D01*
Y934790D01*
X304689Y933522D01*
X305407Y932447D01*
X307027Y930827D01*
Y913368D01*
X305854Y912882D01*
X302500Y916236D01*
Y921050D01*
X277500D01*
Y911650D01*
X272338D01*
Y916396D01*
X273744Y917802D01*
X274739Y919290D01*
X275088Y921046D01*
Y965550D01*
X274739Y967306D01*
X273744Y968794D01*
X264962Y977577D01*
X265448Y978750D01*
X277500D01*
Y975050D01*
D02*
G37*
G36*
X265912Y963650D02*
Y935728D01*
X264930Y934923D01*
X264000Y935108D01*
X261854Y934681D01*
X260035Y933465D01*
X258819Y931646D01*
X258392Y929500D01*
Y926061D01*
X257423Y925092D01*
X256250Y925579D01*
Y943650D01*
X222500D01*
Y946750D01*
X256500D01*
Y971265D01*
X257770Y971791D01*
X265912Y963650D01*
D02*
G37*
%LPC*%
G36*
X720594Y1266750D02*
X718406D01*
X716385Y1265913D01*
X716322Y1265850D01*
X707250D01*
Y1256350D01*
X716957D01*
X718406Y1255750D01*
X720594D01*
X722042Y1256350D01*
X732250D01*
Y1265850D01*
X722678D01*
X722616Y1265913D01*
X720594Y1266750D01*
D02*
G37*
G36*
X720094Y1254250D02*
X717906D01*
X715884Y1253413D01*
X715622Y1253150D01*
X707250D01*
Y1243650D01*
X716940D01*
X717906Y1243250D01*
X720094D01*
X721060Y1243650D01*
X732250D01*
Y1253150D01*
X722378D01*
X722115Y1253413D01*
X720094Y1254250D01*
D02*
G37*
G36*
X732250Y1240450D02*
X707250D01*
Y1230950D01*
X732250D01*
Y1240450D01*
D02*
G37*
G36*
Y1227750D02*
X707250D01*
Y1218250D01*
X732250D01*
Y1227750D01*
D02*
G37*
G36*
X720094Y1216250D02*
X717906D01*
X715884Y1215413D01*
X715522Y1215050D01*
X707250D01*
Y1205550D01*
X717182D01*
X717906Y1205250D01*
X720094D01*
X720818Y1205550D01*
X727564D01*
X729591Y1203523D01*
X729105Y1202350D01*
X722428D01*
X722365Y1202413D01*
X720344Y1203250D01*
X718156D01*
X716134Y1202413D01*
X716072Y1202350D01*
X707250D01*
Y1192850D01*
X716708D01*
X718156Y1192250D01*
X720344D01*
X721793Y1192850D01*
X725686D01*
Y1191082D01*
X725719Y1190920D01*
X724754Y1189674D01*
X724676Y1189650D01*
X722878D01*
X722616Y1189913D01*
X720594Y1190750D01*
X718406D01*
X716385Y1189913D01*
X716122Y1189650D01*
X707250D01*
Y1180150D01*
X717440D01*
X718406Y1179750D01*
X720594D01*
X721560Y1180150D01*
X730936D01*
Y1176950D01*
X722578D01*
X722365Y1177163D01*
X720344Y1178000D01*
X718156D01*
X716134Y1177163D01*
X715922Y1176950D01*
X707250D01*
Y1167450D01*
X717070D01*
X718156Y1167000D01*
X720344D01*
X721430Y1167450D01*
X730936D01*
Y1164250D01*
X707250D01*
Y1154750D01*
X732250D01*
Y1159754D01*
X733423Y1160240D01*
X736250Y1157414D01*
Y1149100D01*
Y1136600D01*
Y1124250D01*
Y1124100D01*
X757250D01*
Y1124762D01*
X758520Y1125288D01*
X759009Y1124799D01*
X760491Y1123943D01*
X762144Y1123500D01*
X763856D01*
X765509Y1123943D01*
X766991Y1124799D01*
X768201Y1126009D01*
X769057Y1127491D01*
X769500Y1129144D01*
Y1130856D01*
X769057Y1132509D01*
X768201Y1133991D01*
X766991Y1135201D01*
X765509Y1136057D01*
X763856Y1136500D01*
X762144D01*
X760491Y1136057D01*
X759009Y1135201D01*
X758696Y1134888D01*
X757250D01*
Y1144914D01*
X759343Y1147007D01*
X760061Y1148082D01*
X760314Y1149350D01*
Y1173032D01*
X760061Y1174300D01*
X759343Y1175375D01*
X756314Y1178404D01*
Y1184800D01*
X756061Y1186068D01*
X755343Y1187143D01*
X732250Y1210236D01*
Y1215050D01*
X722478D01*
X722115Y1215413D01*
X720094Y1216250D01*
D02*
G37*
G36*
X341500Y1202350D02*
X316500D01*
Y1192850D01*
X341500D01*
Y1202350D01*
D02*
G37*
G36*
Y1189650D02*
X316500D01*
Y1180150D01*
X341500D01*
Y1189650D01*
D02*
G37*
G36*
Y1176950D02*
X316500D01*
Y1167450D01*
X341500D01*
Y1176950D01*
D02*
G37*
G36*
Y1164250D02*
X316500D01*
Y1154750D01*
X341500D01*
Y1164250D01*
D02*
G37*
G36*
X732250Y1151550D02*
X707250D01*
Y1142050D01*
X732250D01*
Y1151550D01*
D02*
G37*
G36*
X693250D02*
X668250D01*
Y1142050D01*
X693250D01*
Y1151550D01*
D02*
G37*
G36*
X341500D02*
X316500D01*
Y1142050D01*
X341500D01*
Y1151550D01*
D02*
G37*
G36*
X732250Y1138850D02*
X707250D01*
Y1129350D01*
X732250D01*
Y1138850D01*
D02*
G37*
G36*
X693250D02*
X668250D01*
Y1129350D01*
X693250D01*
Y1138850D01*
D02*
G37*
G36*
X341500D02*
X316500D01*
Y1129350D01*
X341500D01*
Y1138850D01*
D02*
G37*
G36*
X732500Y1060750D02*
X707500D01*
Y1051250D01*
X732500D01*
Y1054050D01*
Y1060750D01*
D02*
G37*
G36*
X693500D02*
X668500D01*
Y1051250D01*
X693500D01*
Y1051250D01*
Y1060750D01*
D02*
G37*
G36*
X330344Y1061750D02*
X328156D01*
X326134Y1060913D01*
X325972Y1060750D01*
X316500D01*
Y1059250D01*
Y1051250D01*
X326949D01*
X328156Y1050750D01*
X330344D01*
X331551Y1051250D01*
X341500D01*
Y1059250D01*
Y1060750D01*
X332528D01*
X332365Y1060913D01*
X330344Y1061750D01*
D02*
G37*
G36*
X389550Y1090250D02*
X372550D01*
Y1089250D01*
X358750D01*
Y1073250D01*
X372550D01*
Y1070250D01*
X376437D01*
Y1050741D01*
X375399Y1049471D01*
X356871D01*
X355594Y1050000D01*
X353406D01*
X351385Y1049163D01*
X349837Y1047616D01*
X349000Y1045594D01*
Y1043406D01*
X349837Y1041385D01*
X351385Y1039837D01*
X353406Y1039000D01*
X355594D01*
X357616Y1039837D01*
X358073Y1040294D01*
X367488D01*
X367873Y1039025D01*
X367785Y1038965D01*
X366569Y1037146D01*
X366142Y1035000D01*
X366569Y1032854D01*
X367785Y1031035D01*
X379771Y1019048D01*
Y995371D01*
X380198Y993225D01*
X381413Y991406D01*
X381892Y990927D01*
Y985750D01*
X382319Y983604D01*
X383535Y981785D01*
X393392Y971927D01*
Y951250D01*
X393819Y949104D01*
X395035Y947285D01*
X396854Y946069D01*
X399000Y945642D01*
X401146Y946069D01*
X402965Y947285D01*
X404181Y949104D01*
X404608Y951250D01*
Y974250D01*
X404181Y976396D01*
X402965Y978215D01*
X393108Y988073D01*
Y993250D01*
X392681Y995396D01*
X391465Y997215D01*
X390987Y997694D01*
Y1021371D01*
X390560Y1023517D01*
X389344Y1025337D01*
X375715Y1038965D01*
X375627Y1039025D01*
X376012Y1040294D01*
X378883D01*
X380639Y1040644D01*
X382127Y1041638D01*
X384470Y1043981D01*
X385465Y1045470D01*
X385814Y1047226D01*
Y1050539D01*
X385613Y1051551D01*
Y1070250D01*
X389550D01*
Y1090250D01*
D02*
G37*
G36*
X732500Y1048050D02*
X707500D01*
Y1038550D01*
X732500D01*
Y1048050D01*
D02*
G37*
G36*
X693500D02*
X668500D01*
Y1038550D01*
X693500D01*
Y1038550D01*
Y1048050D01*
Y1048050D01*
D02*
G37*
G36*
X790250Y1064100D02*
X755250D01*
Y1038100D01*
X790250D01*
Y1064100D01*
D02*
G37*
G36*
X693500Y1035350D02*
X668500D01*
Y1025850D01*
X693500D01*
Y1025850D01*
Y1035350D01*
Y1035350D01*
D02*
G37*
G36*
X721094Y1036000D02*
X718906D01*
X717337Y1035350D01*
X707500D01*
Y1025850D01*
X716872D01*
X716885Y1025837D01*
X718906Y1025000D01*
X721094D01*
X723115Y1025837D01*
X723128Y1025850D01*
X732500D01*
Y1035350D01*
X722663D01*
X721094Y1036000D01*
D02*
G37*
G36*
X528717Y1024045D02*
X528541Y1024011D01*
X528363Y1024021D01*
X528058Y1023916D01*
X527741Y1023853D01*
X527592Y1023754D01*
X527423Y1023696D01*
X527182Y1023481D01*
X526912Y1023303D01*
X526813Y1023154D01*
X526679Y1023036D01*
X525718Y1021768D01*
X525576Y1021475D01*
X525395Y1021204D01*
X525361Y1021031D01*
X525284Y1020873D01*
X525265Y1020548D01*
X525201Y1020228D01*
Y949669D01*
X523931Y948820D01*
X522849Y949268D01*
X520500Y949578D01*
X518150Y949268D01*
X515961Y948362D01*
X514081Y946919D01*
X512639Y945039D01*
X511732Y942850D01*
X511422Y940500D01*
Y927500D01*
X511732Y925151D01*
X512639Y922961D01*
X514081Y921081D01*
X515961Y919639D01*
X518150Y918732D01*
X520500Y918422D01*
X522849Y918732D01*
X523931Y919180D01*
X525201Y918331D01*
Y912250D01*
X519750D01*
Y908064D01*
X513000D01*
Y916500D01*
X498000D01*
Y906164D01*
X485750D01*
Y908350D01*
X464750D01*
Y897350D01*
X485750D01*
Y899536D01*
X496745D01*
X498000Y899500D01*
X498000Y898266D01*
Y894814D01*
X485750D01*
Y895650D01*
X464750D01*
Y889336D01*
X455907Y880493D01*
X455189Y879418D01*
X454936Y878150D01*
Y868750D01*
X445770D01*
X445500Y868750D01*
X444500D01*
X444230Y868750D01*
X439814D01*
Y886600D01*
X439561Y887868D01*
X438843Y888943D01*
X425750Y902036D01*
Y908350D01*
X404750D01*
Y906164D01*
X375918D01*
X374650Y905911D01*
X373575Y905193D01*
X367907Y899525D01*
X367189Y898450D01*
X366936Y897182D01*
Y850575D01*
X367189Y849307D01*
X367907Y848232D01*
X383632Y832507D01*
X384707Y831789D01*
X385975Y831536D01*
X748188D01*
X749456Y831789D01*
X750531Y832507D01*
X756583Y838559D01*
X757301Y839634D01*
X757553Y840902D01*
Y874010D01*
X757301Y875278D01*
X756583Y876354D01*
X745093Y887843D01*
X744018Y888561D01*
X742750Y888814D01*
X732500D01*
Y895650D01*
X723293D01*
X721844Y896250D01*
X719656D01*
X718207Y895650D01*
X707500D01*
Y888814D01*
X701373D01*
X697564Y892623D01*
Y981982D01*
X697311Y983250D01*
X696593Y984325D01*
X693564Y987355D01*
Y991000D01*
X693500Y991320D01*
Y997250D01*
X668500D01*
Y987750D01*
X686936D01*
Y985982D01*
X686969Y985820D01*
X686004Y984574D01*
X685926Y984550D01*
X668500D01*
Y981614D01*
X667525D01*
X667020Y981513D01*
X665766Y982422D01*
X665750Y982457D01*
Y985500D01*
X661564D01*
Y988500D01*
X665750D01*
Y1004500D01*
X650750D01*
Y988500D01*
X654936D01*
Y985500D01*
X650750D01*
Y969500D01*
X650750D01*
Y968500D01*
X650750D01*
Y967108D01*
X644500D01*
X643549Y967888D01*
Y986111D01*
X644270Y987851D01*
X645080Y991924D01*
Y996076D01*
X644270Y1000149D01*
X643549Y1001889D01*
Y1021250D01*
X643453Y1021733D01*
X643357Y1022220D01*
X643355Y1022223D01*
X643355Y1022225D01*
X643082Y1022634D01*
X642806Y1023048D01*
X642804Y1023050D01*
X642802Y1023052D01*
X642396Y1023324D01*
X641981Y1023603D01*
X641978Y1023603D01*
X641975Y1023605D01*
X641495Y1023700D01*
X641006Y1023799D01*
X528717Y1024045D01*
D02*
G37*
G36*
X693500Y1022650D02*
X668500D01*
Y1013150D01*
X693500D01*
Y1014500D01*
Y1022650D01*
Y1022650D01*
D02*
G37*
G36*
X720844Y1023500D02*
X718656D01*
X716635Y1022663D01*
X716622Y1022650D01*
X707500D01*
Y1013150D01*
X717087D01*
X718656Y1012500D01*
X720844D01*
X722413Y1013150D01*
X731980D01*
X732500Y1013150D01*
X733250Y1012191D01*
Y1010909D01*
X732500Y1009950D01*
X731980Y1009950D01*
X723328D01*
X723115Y1010163D01*
X721094Y1011000D01*
X718906D01*
X716885Y1010163D01*
X716672Y1009950D01*
X707500D01*
Y1000450D01*
X717820D01*
X718906Y1000000D01*
X721094D01*
X722180Y1000450D01*
X731980D01*
X732500Y1000450D01*
X733250Y999491D01*
Y998786D01*
X731714Y997250D01*
X723528D01*
X723365Y997413D01*
X721344Y998250D01*
X719156D01*
X717134Y997413D01*
X716972Y997250D01*
X707500D01*
Y987750D01*
X717949D01*
X719156Y987250D01*
X721344D01*
X722551Y987750D01*
X729561D01*
Y984550D01*
X707500D01*
Y975050D01*
X729561D01*
Y971850D01*
X707500D01*
Y962350D01*
X724926D01*
X725004Y962326D01*
X725969Y961080D01*
X725936Y960918D01*
Y959150D01*
X707500D01*
Y949650D01*
X731233D01*
X731360Y949650D01*
X732558Y948438D01*
X732556Y947992D01*
X731014Y946450D01*
X707500D01*
Y936950D01*
X731457D01*
X731462Y936950D01*
X731462D01*
X731704Y936950D01*
X731912Y936338D01*
X731912D01*
Y936338D01*
X731511Y935201D01*
X731497Y935191D01*
X730392Y933750D01*
X707500D01*
Y924250D01*
X732500D01*
X732500Y924250D01*
X733592Y923821D01*
X734662Y923378D01*
X736490Y923138D01*
X747490D01*
X749317Y923378D01*
X751020Y924083D01*
X752482Y925206D01*
X753604Y926668D01*
X754309Y928371D01*
X754550Y930198D01*
X754309Y932025D01*
X753604Y933728D01*
X752482Y935191D01*
X751020Y936312D01*
X749317Y937018D01*
X747490Y937258D01*
X736490D01*
X734662Y937018D01*
X734228Y936838D01*
X732997Y937092D01*
X732997Y937092D01*
X732997Y937092D01*
Y937092D01*
X732500Y937497D01*
X732500Y937822D01*
X732500D01*
X732500Y937890D01*
Y939032D01*
X732639Y939060D01*
X733714Y939778D01*
X754077Y960140D01*
X755250Y959654D01*
Y949600D01*
X790250D01*
Y975600D01*
X758814D01*
Y978874D01*
X759730Y978995D01*
X762041Y979952D01*
X764025Y981475D01*
X765548Y983459D01*
X766506Y985770D01*
X766832Y988250D01*
X766506Y990730D01*
X766311Y991199D01*
X766286Y991383D01*
X762382Y1002682D01*
X762331Y1002769D01*
X762311Y1002868D01*
X762007Y1003324D01*
X761730Y1003798D01*
X761649Y1003859D01*
X761593Y1003943D01*
X754250Y1011286D01*
Y1019600D01*
X754250D01*
D01*
X733250D01*
Y1019600D01*
X733250D01*
X732500Y1020559D01*
Y1022650D01*
X722878D01*
X722866Y1022663D01*
X720844Y1023500D01*
D02*
G37*
G36*
X693500Y1009950D02*
X668500D01*
Y1000450D01*
X693500D01*
Y1009950D01*
D02*
G37*
G36*
X418000Y1063250D02*
X397000D01*
Y1040250D01*
X396086Y1039390D01*
X395759Y1039201D01*
X394549Y1037991D01*
X393693Y1036509D01*
X393250Y1034856D01*
Y1033144D01*
X393693Y1031491D01*
X394549Y1030009D01*
X395759Y1028799D01*
X397241Y1027943D01*
X398000Y1027740D01*
Y1016500D01*
X408819D01*
X420455Y1004865D01*
X422274Y1003649D01*
X424420Y1003222D01*
X438420D01*
Y972170D01*
X453892D01*
Y969073D01*
X452677Y967858D01*
X452000D01*
X451458Y967750D01*
X430500D01*
Y934750D01*
X457500D01*
Y957306D01*
X458965Y958285D01*
X463465Y962785D01*
X464681Y964604D01*
X465108Y966750D01*
Y972170D01*
X480580D01*
Y1014330D01*
X444462D01*
X443920Y1014438D01*
X426743D01*
X419000Y1022181D01*
Y1039500D01*
X418959D01*
X418000Y1040250D01*
Y1063250D01*
D02*
G37*
G36*
X491000Y947823D02*
X488781Y947531D01*
X486713Y946675D01*
X484938Y945312D01*
X483575Y943537D01*
X482719Y941469D01*
X482427Y939250D01*
Y927250D01*
X482719Y925031D01*
X483575Y922963D01*
X484938Y921188D01*
X486713Y919825D01*
X488781Y918969D01*
X491000Y918677D01*
X493219Y918969D01*
X495287Y919825D01*
X497062Y921188D01*
X498425Y922963D01*
X499281Y925031D01*
X499573Y927250D01*
Y939250D01*
X499281Y941469D01*
X498425Y943537D01*
X497062Y945312D01*
X495287Y946675D01*
X493219Y947531D01*
X491000Y947823D01*
D02*
G37*
G36*
X356000D02*
X353781Y947531D01*
X351713Y946675D01*
X349938Y945312D01*
X348575Y943537D01*
X347719Y941469D01*
X347427Y939250D01*
Y927250D01*
X347719Y925031D01*
X348575Y922963D01*
X349938Y921188D01*
X351713Y919825D01*
X353781Y918969D01*
X356000Y918677D01*
X358219Y918969D01*
X360287Y919825D01*
X362062Y921188D01*
X363425Y922963D01*
X364281Y925031D01*
X364573Y927250D01*
Y939250D01*
X364281Y941469D01*
X363425Y943537D01*
X362062Y945312D01*
X360287Y946675D01*
X358219Y947531D01*
X356000Y947823D01*
D02*
G37*
G36*
X747486Y918848D02*
X746293D01*
X745190Y918391D01*
X744346Y917547D01*
X743890Y916445D01*
Y915251D01*
X744346Y914149D01*
X745190Y913305D01*
X746293Y912848D01*
X747486D01*
X748589Y913305D01*
X749433Y914149D01*
X749890Y915251D01*
Y916445D01*
X749433Y917547D01*
X748589Y918391D01*
X747486Y918848D01*
D02*
G37*
G36*
X425750Y921050D02*
X404750D01*
Y910050D01*
X425750D01*
Y921050D01*
D02*
G37*
G36*
X721094Y921250D02*
X718906D01*
X718423Y921050D01*
X707500D01*
Y911550D01*
X716422D01*
X716885Y911087D01*
X717850Y910687D01*
Y909313D01*
X716885Y908913D01*
X716322Y908350D01*
X707500D01*
Y898850D01*
X718665D01*
X718906Y898750D01*
X721094D01*
X721335Y898850D01*
X732500D01*
Y908350D01*
X723678D01*
X723115Y908913D01*
X722150Y909313D01*
Y910687D01*
X723115Y911087D01*
X723578Y911550D01*
X732500D01*
Y921050D01*
X721577D01*
X721094Y921250D01*
D02*
G37*
G36*
X341500Y882950D02*
X316500D01*
Y873450D01*
X341500D01*
Y882950D01*
D02*
G37*
%LPD*%
G36*
X748964Y1184149D02*
X748887Y1183629D01*
X747742Y1182985D01*
X747504Y1182959D01*
X745500Y1183358D01*
X743354Y1182931D01*
X741535Y1181715D01*
X740319Y1179896D01*
X739892Y1177750D01*
Y1169100D01*
X740319Y1166954D01*
X741535Y1165135D01*
X742535Y1164135D01*
X743679Y1163370D01*
X743294Y1162100D01*
X740936D01*
X737564Y1165472D01*
Y1185832D01*
X737311Y1187100D01*
X736593Y1188175D01*
X732314Y1192455D01*
Y1196100D01*
X732250Y1196420D01*
Y1199204D01*
X733423Y1199690D01*
X748964Y1184149D01*
D02*
G37*
G36*
X690936Y971850D02*
X668500D01*
Y962350D01*
X690936D01*
Y959150D01*
X668500D01*
Y949650D01*
X690936D01*
Y946450D01*
X668500D01*
Y936950D01*
X690936D01*
Y933750D01*
X668500D01*
Y924250D01*
X690936D01*
Y921050D01*
X684228D01*
X684116Y921163D01*
X682094Y922000D01*
X679906D01*
X677885Y921163D01*
X677772Y921050D01*
X668500D01*
Y911550D01*
X678578D01*
X679906Y911000D01*
X682094D01*
X683422Y911550D01*
X690936D01*
Y908350D01*
X684428D01*
X684365Y908413D01*
X682344Y909250D01*
X680156D01*
X678135Y908413D01*
X678072Y908350D01*
X668500D01*
Y898850D01*
X678708D01*
X680156Y898250D01*
X682344D01*
X683792Y898850D01*
X690936D01*
Y895650D01*
X683793D01*
X682344Y896250D01*
X680156D01*
X678707Y895650D01*
X668500D01*
Y886150D01*
X678072D01*
X678135Y886087D01*
X680156Y885250D01*
Y884000D01*
X678135Y883163D01*
X677922Y882950D01*
X668500D01*
Y881340D01*
X667327Y880854D01*
X650108Y898073D01*
Y918833D01*
X651378Y919466D01*
X653150Y918732D01*
X655500Y918422D01*
X657849Y918732D01*
X660039Y919639D01*
X661919Y921081D01*
X663361Y922961D01*
X664268Y925151D01*
X664578Y927500D01*
Y940500D01*
X664268Y942850D01*
X663361Y945039D01*
X661919Y946919D01*
X660039Y948362D01*
X657849Y949268D01*
X655500Y949578D01*
X653150Y949268D01*
X651378Y948534D01*
X650108Y949167D01*
Y951496D01*
X650750Y952500D01*
X665750D01*
Y968500D01*
X665750D01*
Y969500D01*
X665750D01*
Y974186D01*
X666725D01*
X667993Y974439D01*
X668813Y974986D01*
X679500D01*
X679820Y975050D01*
X690936D01*
Y971850D01*
D02*
G37*
G36*
X641000Y1021250D02*
Y965776D01*
X640535Y965465D01*
X640334Y965165D01*
X640035Y964965D01*
X639728Y964506D01*
X639337Y964116D01*
X639126Y963605D01*
X638819Y963146D01*
X638711Y962604D01*
X638500Y962094D01*
Y961542D01*
X638392Y961000D01*
X638500Y960458D01*
Y959906D01*
X638711Y959396D01*
X638819Y958854D01*
X638892Y958745D01*
Y915392D01*
X621000Y897500D01*
X535750D01*
Y912250D01*
X527750D01*
Y922164D01*
X528361Y922961D01*
X529268Y925151D01*
X529578Y927500D01*
Y940500D01*
X529268Y942850D01*
X528361Y945039D01*
X527750Y945836D01*
Y1020228D01*
X528711Y1021496D01*
X641000Y1021250D01*
D02*
G37*
G36*
X697657Y883157D02*
X698732Y882439D01*
X700000Y882186D01*
X707500D01*
Y873450D01*
X717216D01*
X718906Y872750D01*
X721094D01*
X722784Y873450D01*
X726011D01*
X728038Y871423D01*
X727552Y870250D01*
X722417D01*
X722146Y870431D01*
X721604Y870539D01*
X721094Y870750D01*
X720542D01*
X720000Y870858D01*
X719458Y870750D01*
X718906D01*
X718396Y870539D01*
X717854Y870431D01*
X717583Y870250D01*
X707500D01*
Y860750D01*
X714392D01*
Y857550D01*
X707500D01*
Y848050D01*
X714392D01*
Y845708D01*
X686858D01*
Y848050D01*
X693500D01*
Y857550D01*
X686858D01*
Y860750D01*
X693500D01*
Y870250D01*
X684041D01*
X683396Y870681D01*
X682373Y870884D01*
X682094Y871000D01*
X681792D01*
X681250Y871108D01*
X677073D01*
X675904Y872277D01*
X676390Y873450D01*
X679070D01*
X680156Y873000D01*
X682344D01*
X683430Y873450D01*
X693500D01*
Y882950D01*
X684578D01*
X684365Y883163D01*
X682344Y884000D01*
Y885250D01*
X684365Y886087D01*
X684428Y886150D01*
X693500D01*
Y886150D01*
X694323Y886491D01*
X697657Y883157D01*
D02*
G37*
G36*
X638892Y895750D02*
X639319Y893604D01*
X640535Y891785D01*
X668500Y863819D01*
Y860750D01*
X671959D01*
X672604Y860319D01*
X674750Y859892D01*
X675642D01*
Y857550D01*
X668500D01*
Y848050D01*
X675642D01*
Y844850D01*
X668500D01*
Y838164D01*
X387348D01*
X385281Y840230D01*
X385406Y841494D01*
X386215Y842035D01*
X387431Y843854D01*
X387858Y846000D01*
X387431Y848146D01*
X387108Y848630D01*
Y860250D01*
X386681Y862396D01*
X385465Y864215D01*
X383646Y865431D01*
X381500Y865858D01*
X379354Y865431D01*
X377535Y864215D01*
X376319Y862396D01*
X375892Y860250D01*
Y851279D01*
X374719Y850793D01*
X373564Y851948D01*
Y877750D01*
X393000D01*
Y886072D01*
X404750D01*
Y884650D01*
X425750D01*
Y891004D01*
X426923Y891490D01*
X433186Y885227D01*
Y868750D01*
X428500D01*
Y853750D01*
X444230D01*
X444500Y853750D01*
X445500D01*
X445770Y853750D01*
X461500D01*
Y865180D01*
X461564Y865500D01*
Y876778D01*
X463577Y878791D01*
X464750Y878305D01*
Y871950D01*
X485750D01*
Y882950D01*
X470355D01*
X469720Y884220D01*
X470042Y884650D01*
X485750D01*
Y888186D01*
X498000D01*
Y884750D01*
X497750D01*
Y868750D01*
X512750D01*
Y883500D01*
X513000D01*
Y899230D01*
X513000Y899500D01*
Y900500D01*
X513994Y901436D01*
X519750D01*
Y897250D01*
X524436D01*
Y895750D01*
X519500D01*
Y880750D01*
X535500D01*
Y894746D01*
X535750Y894951D01*
X621000D01*
X621976Y895145D01*
X622802Y895698D01*
X634325Y907220D01*
X638892D01*
Y895750D01*
D02*
G37*
G36*
X750926Y872638D02*
Y859462D01*
X749656Y859209D01*
X749433Y859747D01*
X748589Y860591D01*
X747486Y861048D01*
X746293D01*
X745190Y860591D01*
X744346Y859747D01*
X743890Y858645D01*
Y857451D01*
X744346Y856349D01*
X745190Y855505D01*
X746293Y855048D01*
X747486D01*
X748589Y855505D01*
X749433Y856349D01*
X749656Y856887D01*
X750926Y856635D01*
Y850994D01*
X749870Y850289D01*
X749317Y850518D01*
X747490Y850758D01*
X736490D01*
X734662Y850518D01*
X733770Y850148D01*
X732500Y850997D01*
Y857200D01*
X733546Y858090D01*
X735096Y857448D01*
X737284D01*
X739305Y858285D01*
X740852Y859833D01*
X741690Y861854D01*
Y864042D01*
X740852Y866064D01*
X740395Y866521D01*
Y870143D01*
X740046Y871899D01*
X739051Y873387D01*
X732500Y879939D01*
Y882186D01*
X741377D01*
X750926Y872638D01*
D02*
G37*
%LPC*%
G36*
X554076Y1015080D02*
X549924D01*
X545851Y1014270D01*
X542015Y1012681D01*
X538562Y1010374D01*
X535626Y1007438D01*
X533319Y1003985D01*
X531730Y1000149D01*
X530920Y996076D01*
Y991924D01*
X531730Y987851D01*
X533319Y984015D01*
X535626Y980562D01*
X538562Y977626D01*
X542015Y975319D01*
X545851Y973730D01*
X549924Y972920D01*
X554076D01*
X558149Y973730D01*
X561985Y975319D01*
X565438Y977626D01*
X568374Y980562D01*
X570681Y984015D01*
X572270Y987851D01*
X573080Y991924D01*
Y996076D01*
X572270Y1000149D01*
X570681Y1003985D01*
X568374Y1007438D01*
X565438Y1010374D01*
X561985Y1012681D01*
X558149Y1014270D01*
X554076Y1015080D01*
D02*
G37*
G36*
X425750Y882950D02*
X404750D01*
Y871950D01*
X411686D01*
Y869750D01*
X407500D01*
Y853750D01*
X422500D01*
Y869750D01*
X418314D01*
Y871950D01*
X425750D01*
Y882950D01*
D02*
G37*
%LPD*%
G36*
X752186Y980504D02*
X752186Y980504D01*
Y967623D01*
X734158Y949594D01*
X733712Y949592D01*
X732500Y950790D01*
X732500Y950886D01*
Y955580D01*
X732564Y955900D01*
Y959546D01*
X735218Y962200D01*
X735936Y963275D01*
X736189Y964543D01*
Y981600D01*
X751115D01*
X752186Y980504D01*
D02*
G37*
%LPC*%
G36*
X633816Y1239750D02*
X631184D01*
X628640Y1239069D01*
X626360Y1237752D01*
X624498Y1235890D01*
X623181Y1233610D01*
X622500Y1231067D01*
Y1228434D01*
X623181Y1225890D01*
X624498Y1223610D01*
X626360Y1221748D01*
X628640Y1220432D01*
X631184Y1219750D01*
X633816D01*
X636360Y1220432D01*
X638640Y1221748D01*
X640502Y1223610D01*
X641818Y1225890D01*
X642500Y1228434D01*
Y1231067D01*
X641818Y1233610D01*
X640502Y1235890D01*
X638640Y1237752D01*
X636360Y1239069D01*
X633816Y1239750D01*
D02*
G37*
G36*
X608416D02*
X605784D01*
X603240Y1239069D01*
X600960Y1237752D01*
X599098Y1235890D01*
X597781Y1233610D01*
X597100Y1231067D01*
Y1228434D01*
X597781Y1225890D01*
X599098Y1223610D01*
X600960Y1221748D01*
X603240Y1220432D01*
X605784Y1219750D01*
X608416D01*
X610960Y1220432D01*
X613240Y1221748D01*
X615102Y1223610D01*
X616418Y1225890D01*
X617100Y1228434D01*
Y1231067D01*
X616418Y1233610D01*
X615102Y1235890D01*
X613240Y1237752D01*
X610960Y1239069D01*
X608416Y1239750D01*
D02*
G37*
G36*
X583017D02*
X580383D01*
X577840Y1239069D01*
X575560Y1237752D01*
X573698Y1235890D01*
X572382Y1233610D01*
X571700Y1231067D01*
Y1228434D01*
X572382Y1225890D01*
X573698Y1223610D01*
X575560Y1221748D01*
X577840Y1220432D01*
X580383Y1219750D01*
X583017D01*
X585560Y1220432D01*
X587840Y1221748D01*
X589702Y1223610D01*
X591018Y1225890D01*
X591700Y1228434D01*
Y1231067D01*
X591018Y1233610D01*
X589702Y1235890D01*
X587840Y1237752D01*
X585560Y1239069D01*
X583017Y1239750D01*
D02*
G37*
G36*
X557617D02*
X554983D01*
X552440Y1239069D01*
X550160Y1237752D01*
X548298Y1235890D01*
X546982Y1233610D01*
X546300Y1231067D01*
Y1228434D01*
X546982Y1225890D01*
X548298Y1223610D01*
X550160Y1221748D01*
X552440Y1220432D01*
X554983Y1219750D01*
X557617D01*
X560160Y1220432D01*
X562440Y1221748D01*
X564302Y1223610D01*
X565619Y1225890D01*
X566300Y1228434D01*
Y1231067D01*
X565619Y1233610D01*
X564302Y1235890D01*
X562440Y1237752D01*
X560160Y1239069D01*
X557617Y1239750D01*
D02*
G37*
G36*
X532216D02*
X529584D01*
X527040Y1239069D01*
X524760Y1237752D01*
X522898Y1235890D01*
X521581Y1233610D01*
X520900Y1231067D01*
Y1228434D01*
X521581Y1225890D01*
X522898Y1223610D01*
X524760Y1221748D01*
X527040Y1220432D01*
X529584Y1219750D01*
X532216D01*
X534760Y1220432D01*
X537040Y1221748D01*
X538902Y1223610D01*
X540219Y1225890D01*
X540900Y1228434D01*
Y1231067D01*
X540219Y1233610D01*
X538902Y1235890D01*
X537040Y1237752D01*
X534760Y1239069D01*
X532216Y1239750D01*
D02*
G37*
G36*
X506816D02*
X504184D01*
X501640Y1239069D01*
X499360Y1237752D01*
X497498Y1235890D01*
X496181Y1233610D01*
X495500Y1231067D01*
Y1228434D01*
X496181Y1225890D01*
X497498Y1223610D01*
X499360Y1221748D01*
X501640Y1220432D01*
X504184Y1219750D01*
X506816D01*
X509360Y1220432D01*
X511640Y1221748D01*
X513502Y1223610D01*
X514818Y1225890D01*
X515500Y1228434D01*
Y1231067D01*
X514818Y1233610D01*
X513502Y1235890D01*
X511640Y1237752D01*
X509360Y1239069D01*
X506816Y1239750D01*
D02*
G37*
G36*
X481417D02*
X478783D01*
X476240Y1239069D01*
X473960Y1237752D01*
X472098Y1235890D01*
X470782Y1233610D01*
X470100Y1231067D01*
Y1228434D01*
X470782Y1225890D01*
X472098Y1223610D01*
X473960Y1221748D01*
X476240Y1220432D01*
X478783Y1219750D01*
X481417D01*
X483960Y1220432D01*
X486240Y1221748D01*
X488102Y1223610D01*
X489418Y1225890D01*
X490100Y1228434D01*
Y1231067D01*
X489418Y1233610D01*
X488102Y1235890D01*
X486240Y1237752D01*
X483960Y1239069D01*
X481417Y1239750D01*
D02*
G37*
G36*
X456017D02*
X453383D01*
X450840Y1239069D01*
X448560Y1237752D01*
X446698Y1235890D01*
X445382Y1233610D01*
X444700Y1231067D01*
Y1228434D01*
X445382Y1225890D01*
X446698Y1223610D01*
X448560Y1221748D01*
X450840Y1220432D01*
X453383Y1219750D01*
X456017D01*
X458560Y1220432D01*
X460840Y1221748D01*
X462702Y1223610D01*
X464019Y1225890D01*
X464700Y1228434D01*
Y1231067D01*
X464019Y1233610D01*
X462702Y1235890D01*
X460840Y1237752D01*
X458560Y1239069D01*
X456017Y1239750D01*
D02*
G37*
G36*
X430616D02*
X427984D01*
X425440Y1239069D01*
X423160Y1237752D01*
X421298Y1235890D01*
X419981Y1233610D01*
X419300Y1231067D01*
Y1228434D01*
X419981Y1225890D01*
X421298Y1223610D01*
X423160Y1221748D01*
X425440Y1220432D01*
X427984Y1219750D01*
X430616D01*
X433160Y1220432D01*
X435440Y1221748D01*
X437302Y1223610D01*
X438619Y1225890D01*
X439300Y1228434D01*
Y1231067D01*
X438619Y1233610D01*
X437302Y1235890D01*
X435440Y1237752D01*
X433160Y1239069D01*
X430616Y1239750D01*
D02*
G37*
G36*
X405216D02*
X402584D01*
X400040Y1239069D01*
X397760Y1237752D01*
X395898Y1235890D01*
X394581Y1233610D01*
X393900Y1231067D01*
Y1228434D01*
X394581Y1225890D01*
X395898Y1223610D01*
X397760Y1221748D01*
X400040Y1220432D01*
X402584Y1219750D01*
X405216D01*
X407760Y1220432D01*
X410040Y1221748D01*
X411902Y1223610D01*
X413218Y1225890D01*
X413900Y1228434D01*
Y1231067D01*
X413218Y1233610D01*
X411902Y1235890D01*
X410040Y1237752D01*
X407760Y1239069D01*
X405216Y1239750D01*
D02*
G37*
G36*
X633717Y1214750D02*
X631083D01*
X628540Y1214069D01*
X626260Y1212752D01*
X624398Y1210890D01*
X623082Y1208610D01*
X622400Y1206067D01*
Y1203434D01*
X623082Y1200890D01*
X624398Y1198610D01*
X626260Y1196748D01*
X628540Y1195432D01*
X631083Y1194750D01*
X633717D01*
X636260Y1195432D01*
X638540Y1196748D01*
X640402Y1198610D01*
X641719Y1200890D01*
X642400Y1203434D01*
Y1206067D01*
X641719Y1208610D01*
X640402Y1210890D01*
X638540Y1212752D01*
X636260Y1214069D01*
X633717Y1214750D01*
D02*
G37*
G36*
X608316D02*
X605684D01*
X603140Y1214069D01*
X600860Y1212752D01*
X598998Y1210890D01*
X597682Y1208610D01*
X597000Y1206067D01*
Y1203434D01*
X597682Y1200890D01*
X598998Y1198610D01*
X600860Y1196748D01*
X603140Y1195432D01*
X605684Y1194750D01*
X608316D01*
X610860Y1195432D01*
X613140Y1196748D01*
X615002Y1198610D01*
X616319Y1200890D01*
X617000Y1203434D01*
Y1206067D01*
X616319Y1208610D01*
X615002Y1210890D01*
X613140Y1212752D01*
X610860Y1214069D01*
X608316Y1214750D01*
D02*
G37*
G36*
X582916D02*
X580284D01*
X577740Y1214069D01*
X575460Y1212752D01*
X573598Y1210890D01*
X572281Y1208610D01*
X571600Y1206067D01*
Y1203434D01*
X572281Y1200890D01*
X573598Y1198610D01*
X575460Y1196748D01*
X577740Y1195432D01*
X580284Y1194750D01*
X582916D01*
X585460Y1195432D01*
X587740Y1196748D01*
X589602Y1198610D01*
X590919Y1200890D01*
X591600Y1203434D01*
Y1206067D01*
X590919Y1208610D01*
X589602Y1210890D01*
X587740Y1212752D01*
X585460Y1214069D01*
X582916Y1214750D01*
D02*
G37*
G36*
X557517D02*
X554883D01*
X552340Y1214069D01*
X550060Y1212752D01*
X548198Y1210890D01*
X546881Y1208610D01*
X546200Y1206067D01*
Y1203434D01*
X546881Y1200890D01*
X548198Y1198610D01*
X550060Y1196748D01*
X552340Y1195432D01*
X554883Y1194750D01*
X557517D01*
X560060Y1195432D01*
X562340Y1196748D01*
X564202Y1198610D01*
X565518Y1200890D01*
X566200Y1203434D01*
Y1206067D01*
X565518Y1208610D01*
X564202Y1210890D01*
X562340Y1212752D01*
X560060Y1214069D01*
X557517Y1214750D01*
D02*
G37*
G36*
X532117D02*
X529483D01*
X526940Y1214069D01*
X524660Y1212752D01*
X522798Y1210890D01*
X521482Y1208610D01*
X520800Y1206067D01*
Y1203434D01*
X521482Y1200890D01*
X522798Y1198610D01*
X524660Y1196748D01*
X526940Y1195432D01*
X529483Y1194750D01*
X532117D01*
X534660Y1195432D01*
X536940Y1196748D01*
X538802Y1198610D01*
X540118Y1200890D01*
X540800Y1203434D01*
Y1206067D01*
X540118Y1208610D01*
X538802Y1210890D01*
X536940Y1212752D01*
X534660Y1214069D01*
X532117Y1214750D01*
D02*
G37*
G36*
X506716D02*
X504084D01*
X501540Y1214069D01*
X499260Y1212752D01*
X497398Y1210890D01*
X496082Y1208610D01*
X495400Y1206067D01*
Y1203434D01*
X496082Y1200890D01*
X497398Y1198610D01*
X499260Y1196748D01*
X501540Y1195432D01*
X504084Y1194750D01*
X506716D01*
X509260Y1195432D01*
X511540Y1196748D01*
X513402Y1198610D01*
X514719Y1200890D01*
X515400Y1203434D01*
Y1206067D01*
X514719Y1208610D01*
X513402Y1210890D01*
X511540Y1212752D01*
X509260Y1214069D01*
X506716Y1214750D01*
D02*
G37*
G36*
X481316D02*
X478684D01*
X476140Y1214069D01*
X473860Y1212752D01*
X471998Y1210890D01*
X470681Y1208610D01*
X470000Y1206067D01*
Y1203434D01*
X470681Y1200890D01*
X471998Y1198610D01*
X473860Y1196748D01*
X476140Y1195432D01*
X478684Y1194750D01*
X481316D01*
X483860Y1195432D01*
X486140Y1196748D01*
X488002Y1198610D01*
X489319Y1200890D01*
X490000Y1203434D01*
Y1206067D01*
X489319Y1208610D01*
X488002Y1210890D01*
X486140Y1212752D01*
X483860Y1214069D01*
X481316Y1214750D01*
D02*
G37*
G36*
X291094Y935000D02*
X288906D01*
X286884Y934163D01*
X286472Y933750D01*
X277500D01*
Y924250D01*
X288302D01*
X288906Y924000D01*
X291094D01*
X291698Y924250D01*
X302500D01*
Y933750D01*
X293528D01*
X293116Y934163D01*
X291094Y935000D01*
D02*
G37*
%LPD*%
D14*
X351508Y1239369D02*
G03*
X346207Y1236645I1592J-9619D01*
G01*
X377432Y1264441D02*
G03*
X378326Y1264871I-168J1491D01*
G01*
X374282Y1266782D02*
G03*
X366468Y1258968I4218J-12032D01*
G01*
X377412Y1264439D02*
G03*
X368750Y1254750I1088J-9689D01*
G01*
X345294Y1210739D02*
X345294Y1210740D01*
X351527Y1214388D02*
G03*
X345353Y1210799I1473J-9638D01*
G01*
X757250Y982000D02*
G03*
X763154Y990301I0J6250D01*
G01*
X318068Y1231200D02*
X336232D01*
X316750Y1232518D02*
X318068Y1231200D01*
X321250Y1248400D02*
X329000D01*
X319750Y1246900D02*
X321250Y1248400D01*
X319750Y1241882D02*
Y1246900D01*
X316750Y1238882D02*
X319750Y1241882D01*
X316750Y1232518D02*
Y1238882D01*
X310500Y1233750D02*
Y1245332D01*
X321768Y1256600D01*
X310500Y1233750D02*
X321250Y1223000D01*
X306750Y1215679D02*
Y1255250D01*
X307629Y1214800D02*
X339932D01*
X306750Y1255250D02*
X320000Y1268500D01*
X306750Y1215679D02*
X307629Y1214800D01*
X339932D02*
X340482Y1214250D01*
X343371D02*
X344250Y1215129D01*
X340482Y1214250D02*
X343371D01*
X344250Y1215129D02*
Y1223182D01*
X336232Y1231200D02*
X344250Y1223182D01*
X345261Y1235700D02*
X346207Y1236645D01*
X351508Y1239369D02*
X357145Y1245006D01*
X329000Y1235700D02*
X344670D01*
X345261Y1235700D01*
X392454Y1279000D02*
X441435D01*
X379911Y1295350D02*
X498232D01*
X506450Y1287132D01*
X389500Y1282000D02*
X440192D01*
X341161Y1256600D02*
X379911Y1295350D01*
X377412Y1264439D02*
X377432Y1264441D01*
X378326Y1264871D02*
X392454Y1279000D01*
X374282Y1266782D02*
X389500Y1282000D01*
X320000Y1268500D02*
X339132D01*
X368982Y1298350D01*
X501732D02*
X512050Y1288032D01*
Y1287250D02*
X514250Y1285050D01*
X368982Y1298350D02*
X501732D01*
X514250Y1279250D02*
Y1285050D01*
X512050Y1287250D02*
Y1288032D01*
X368311Y1231172D02*
X368750Y1231611D01*
X362850Y1250711D02*
Y1255350D01*
X357145Y1245006D02*
X362850Y1250711D01*
Y1255350D02*
X366468Y1258968D01*
X351527Y1214388D02*
X368311Y1231172D01*
X368750Y1231611D02*
Y1254750D01*
X493450Y1280550D02*
X494750Y1279250D01*
X492475Y1292350D02*
X495475Y1289350D01*
X493450Y1280550D02*
Y1287132D01*
X484235Y1289350D02*
X491232D01*
X493450Y1287132D01*
X482993Y1292350D02*
X492475D01*
X444950Y1282515D02*
Y1288032D01*
X499950Y1280550D02*
Y1287132D01*
X495475Y1289350D02*
X497732D01*
X499950Y1287132D01*
Y1280550D02*
X501250Y1279250D01*
X506450Y1280550D02*
Y1287132D01*
Y1280550D02*
X507750Y1279250D01*
X485268Y1269150D02*
X550650D01*
X476550Y1271368D02*
X481768Y1266150D01*
X570832D01*
X483950Y1270468D02*
X485268Y1269150D01*
X441950Y1283757D02*
Y1289275D01*
X445025Y1292350D01*
X321250Y1223000D02*
X329000D01*
X321768Y1256600D02*
X341161D01*
X444950Y1288032D02*
X446268Y1289350D01*
X441435Y1279000D02*
X444950Y1282515D01*
X440192Y1282000D02*
X441950Y1283757D01*
X446268Y1289350D02*
X463645D01*
X445025Y1292350D02*
X464888D01*
X464888Y1292350D01*
X482993D01*
X482993Y1292350D01*
X329000Y1210300D02*
X344854D01*
X345294Y1210739D01*
X345294Y1210740D02*
X345353Y1210799D01*
X477683Y1313918D02*
X486884Y1313445D01*
X459836Y1319008D02*
X477683Y1313918D01*
X457844Y1321000D02*
X459397Y1319447D01*
X486884Y1313445D02*
X487686Y1314234D01*
X459397Y1319447D02*
X459836Y1319008D01*
X487686Y1314234D02*
X492953Y1319500D01*
X494825D02*
X506738Y1307587D01*
X492953Y1319500D02*
X494825D01*
X759250Y1001600D02*
X763154Y990301D01*
X756379Y982000D02*
X757250D01*
X755500Y981121D02*
X756379Y982000D01*
X747750Y1013100D02*
X759250Y1001600D01*
X755500Y980504D02*
X755500Y981121D01*
X755500Y966250D02*
Y980504D01*
X731371Y942121D02*
X755500Y966250D01*
X622303Y1314303D02*
X623750Y1315750D01*
X619500Y1311500D02*
X622303Y1314303D01*
X623750Y1315750D02*
X624425D01*
X627500Y1318825D01*
Y1322432D02*
X634918Y1329850D01*
X697904D01*
X627500Y1318825D02*
Y1322432D01*
X697904Y1329850D02*
X709154Y1318600D01*
X728482D01*
X735341Y1311741D01*
Y1307159D02*
X743250Y1299250D01*
X735341Y1307159D02*
Y1311741D01*
X743250Y1299250D02*
X747250D01*
X277625Y1245343D02*
Y1251875D01*
X257000Y1272500D02*
Y1284750D01*
Y1272500D02*
X277625Y1251875D01*
X436500Y1321000D02*
X457844D01*
X622303Y1314303D02*
Y1317871D01*
X606250Y1330000D02*
X607371D01*
X621432Y1332500D02*
X622750Y1331182D01*
X609568Y1332500D02*
X621432D01*
X608250Y1331182D02*
X609568Y1332500D01*
X602250Y1326000D02*
X606250Y1330000D01*
X622303Y1317871D02*
X622750Y1318318D01*
X607371Y1330000D02*
X608250Y1330879D01*
X622750Y1318318D02*
Y1331182D01*
X608250Y1330879D02*
Y1331182D01*
X622500Y1278750D02*
X623000Y1278250D01*
X606250Y1278750D02*
X622500D01*
X602250Y1282750D02*
X606250Y1278750D01*
X544750Y1279500D02*
X548000Y1282750D01*
X562250D01*
X475250Y1279250D02*
X476550Y1277950D01*
Y1271368D02*
Y1277950D01*
X570832Y1266150D02*
X587432Y1282750D01*
X602250D01*
X483950Y1270468D02*
Y1271250D01*
X550650Y1269150D02*
X562250Y1280750D01*
Y1282750D01*
X481750Y1273450D02*
X483950Y1271250D01*
X481750Y1273450D02*
Y1279250D01*
X463645Y1289350D02*
X484235D01*
X463645Y1289350D02*
X463645Y1289350D01*
X484235D02*
X484235Y1289350D01*
X638750Y1296000D02*
Y1313500D01*
Y1296000D02*
X642250Y1292500D01*
X638750Y1313500D02*
X659000D01*
X623175Y1353500D02*
X623924Y1352750D01*
X487683Y1351250D02*
X489933Y1353500D01*
X648371Y1352750D02*
X650750Y1350371D01*
X623924Y1352750D02*
X648371D01*
X489933Y1353500D02*
X623175D01*
X621932Y1350500D02*
X623432Y1349000D01*
X584318Y1347500D02*
X598500D01*
X602250Y1343750D01*
X491175Y1350500D02*
X621932D01*
X581068Y1344250D02*
X584318Y1347500D01*
X488925Y1348250D02*
X491175Y1350500D01*
X490450Y1345532D02*
X491768Y1346850D01*
X536732D02*
X539332Y1344250D01*
X491768Y1346850D02*
X536732D01*
X539332Y1344250D02*
X581068D01*
X623432Y1349000D02*
X624591Y1347841D01*
X623432Y1349000D02*
X623432D01*
X650750Y1348750D02*
X658500Y1341000D01*
X658750D01*
X650750Y1348750D02*
Y1350371D01*
X468418Y1351250D02*
X487683D01*
X490450Y1344750D02*
Y1345532D01*
X487925Y1347250D02*
X488925Y1348250D01*
X463950Y1346782D02*
X468418Y1351250D01*
X624591Y1343909D02*
Y1347841D01*
X470918Y1347250D02*
X487925D01*
X487750Y1342050D02*
X490450Y1344750D01*
X469550Y1345882D02*
X470918Y1347250D01*
X538068Y1305500D02*
X570250D01*
X508666Y1327584D02*
X530913Y1305337D01*
X560621Y1308500D02*
X561500Y1309379D01*
X535413Y1308337D02*
X536663D01*
X530913Y1305337D02*
X537905D01*
X561500Y1317000D02*
X563750Y1319250D01*
X536825Y1308500D02*
X560621D01*
X570250Y1305500D02*
X577250Y1312500D01*
X536663Y1308337D02*
X536825Y1308500D01*
X515950Y1327800D02*
X535413Y1308337D01*
X561500Y1309379D02*
Y1317000D01*
X537905Y1305337D02*
X538068Y1305500D01*
X577250Y1312500D02*
Y1319500D01*
X531668Y1322000D02*
X549250D01*
X521550Y1330150D02*
X522950Y1328750D01*
X527018Y1326650D02*
X531668Y1322000D01*
X521550Y1330150D02*
Y1338700D01*
X524268Y1326650D02*
X527018D01*
X522950Y1327968D02*
X524268Y1326650D01*
X549250Y1322000D02*
X551750Y1319500D01*
X522950Y1327968D02*
Y1328750D01*
X508666Y1327584D02*
Y1338584D01*
X506738Y1307587D02*
X508337D01*
X520250Y1295675D01*
Y1282500D02*
Y1295675D01*
X463950Y1346000D02*
Y1346782D01*
X461750Y1343800D02*
X463950Y1346000D01*
X461750Y1338000D02*
Y1343800D01*
X468250Y1338000D02*
X469550Y1339300D01*
Y1345882D01*
X624591Y1343909D02*
X627750Y1340750D01*
X639000D01*
X515950Y1327800D02*
Y1332000D01*
X513750Y1334200D02*
Y1340000D01*
Y1334200D02*
X515950Y1332000D01*
X754240Y840902D02*
Y874010D01*
X748188Y834850D02*
X754240Y840902D01*
X385975Y834850D02*
X748188D01*
X370250Y850575D02*
X385975Y834850D01*
X370250Y850575D02*
Y897182D01*
X742750Y885500D02*
X754240Y874010D01*
X375918Y902850D02*
X415250D01*
X370250Y897182D02*
X375918Y902850D01*
X694250Y891250D02*
X700000Y885500D01*
X742750D01*
X688750Y992500D02*
X690250Y991000D01*
Y985982D02*
Y991000D01*
X694250Y891250D02*
Y981982D01*
X681000Y992500D02*
X688750D01*
X690250Y985982D02*
X694250Y981982D01*
X527500Y888250D02*
X527750Y888500D01*
Y904750D01*
X505500Y908500D02*
X509250Y904750D01*
X527750D01*
X500350Y902850D02*
X505500Y908000D01*
Y908500D01*
X475250Y902850D02*
X500350D01*
X476600Y891500D02*
X505500D01*
X475250Y890150D02*
X476600Y891500D01*
X505250Y876750D02*
Y891250D01*
X505500Y891500D01*
X420250Y902850D02*
X436500Y886600D01*
Y861250D02*
Y886600D01*
X415250Y902850D02*
X420250D01*
X454000Y861250D02*
X458250Y865500D01*
X453500Y861250D02*
X454000D01*
X458250Y865500D02*
Y878150D01*
X470250Y890150D01*
X475250D01*
X415000Y877200D02*
X415250Y877450D01*
X415000Y861750D02*
Y877200D01*
X658250Y977500D02*
Y996500D01*
Y977500D02*
X666725D01*
X679500Y978300D02*
X681000Y979800D01*
X667525Y978300D02*
X679500D01*
X666725Y977500D02*
X667525Y978300D01*
X555918Y1179300D02*
X556217Y1179000D01*
X524768Y1173000D02*
X525068Y1173300D01*
X553432D01*
X526010Y1170000D02*
X526310Y1170300D01*
X523525Y1176000D02*
X523825Y1176300D01*
X458500Y1182000D02*
X521040D01*
X557460D02*
X657257D01*
X526310Y1170300D02*
X552190D01*
X552490Y1170000D02*
X662500D01*
X552190Y1170300D02*
X552490Y1170000D01*
X521340Y1182300D02*
X557160D01*
X557460Y1182000D01*
X452465Y1173000D02*
X524768D01*
X453707Y1176000D02*
X523525D01*
X554675Y1176300D02*
X554975Y1176000D01*
X522283Y1179000D02*
X522583Y1179300D01*
X454950Y1179000D02*
X522283D01*
X523825Y1176300D02*
X554675D01*
X522583Y1179300D02*
X555918D01*
X553432Y1173300D02*
X553732Y1173000D01*
X554975Y1176000D02*
X659743D01*
X553732Y1173000D02*
X660985D01*
X521040Y1182000D02*
X521340Y1182300D01*
X556217Y1179000D02*
X658500D01*
X451222Y1170000D02*
X526010D01*
X658500Y1179000D02*
X671850Y1192350D01*
X438774Y1190933D02*
X453707Y1176000D01*
X660985Y1173000D02*
X663807Y1175821D01*
X436472Y1184750D02*
X451222Y1170000D01*
X437531Y1187933D02*
X452465Y1173000D01*
X454600Y1185900D02*
X458500Y1182000D01*
X429200Y1204750D02*
X454950Y1179000D01*
X659743Y1176000D02*
X668743Y1185000D01*
X662500Y1170000D02*
X673000Y1159500D01*
X657257Y1182000D02*
X668500Y1193243D01*
X268000Y1022750D02*
X285147D01*
X285425Y1023029D01*
X290053Y1022750D02*
X300582D01*
X285425Y1023029D02*
X289775D01*
X290053Y1022750D01*
X403800Y1204750D02*
X417617Y1190933D01*
X438774D01*
X373000Y1184750D02*
X436472D01*
X395217Y1187933D02*
X437531D01*
X353000Y1204750D02*
X373000Y1184750D01*
X378400Y1204750D02*
X395217Y1187933D01*
X257500Y875218D02*
X258818Y873900D01*
X276682D01*
X257500Y875218D02*
Y886400D01*
X276682Y873900D02*
X276882Y873700D01*
X257500Y886400D02*
X263750Y892650D01*
X720000Y941700D02*
X720421Y942121D01*
X731371D01*
X732875Y964543D02*
Y993725D01*
X753000Y1177032D02*
Y1184800D01*
X727050Y1210750D02*
X753000Y1184800D01*
X757000Y1149350D02*
Y1173032D01*
X753000Y1177032D02*
X757000Y1173032D01*
X750750Y1143100D02*
X757000Y1149350D01*
X290000Y916300D02*
X297750D01*
X305250Y908800D01*
Y878018D02*
Y908800D01*
X276882Y873700D02*
X300932D01*
X305250Y878018D01*
X263750Y892650D02*
X267750D01*
X519550Y1157550D02*
X539250D01*
X516000Y1154000D02*
X519550Y1157550D01*
X616250Y1117250D02*
X616750Y1116750D01*
X616250Y1117250D02*
Y1131500D01*
X588750Y1132150D02*
X615600D01*
X616250Y1131500D01*
X588750Y1157550D02*
X615800D01*
X616500Y1158250D01*
X648750Y1145500D02*
X650000Y1144250D01*
X633250Y1145500D02*
X648750D01*
X588750Y1144850D02*
X615600D01*
X616250Y1145500D01*
X668500Y1215450D02*
Y1302382D01*
X657800Y1204750D02*
X668500Y1215450D01*
Y1302382D02*
X670584Y1304466D01*
X454600Y1185900D02*
Y1204750D01*
X668500Y1193243D02*
Y1200782D01*
X671500Y1203782D01*
Y1208800D01*
X673000Y1210300D02*
X680750D01*
X671500Y1208800D02*
X673000Y1210300D01*
X680000Y1310750D02*
X680500Y1311250D01*
X680000Y1307400D02*
Y1310750D01*
X677066Y1304466D02*
X680000Y1307400D01*
X670584Y1304466D02*
X677066D01*
X681200Y1210750D02*
X691750D01*
X691650Y1197600D02*
X691750Y1197500D01*
X673350Y1197600D02*
X691650D01*
X680750Y1210300D02*
X681200Y1210750D01*
X671850Y1192350D02*
Y1196100D01*
X673350Y1197600D01*
X680650Y1185000D02*
X680750Y1184900D01*
X680850Y1185000D01*
X688250D01*
X668743D02*
X680650D01*
X669379Y1175821D02*
X673000Y1172200D01*
X681050Y1172500D02*
X688000D01*
X680750Y1172200D02*
X681050Y1172500D01*
X673000Y1172200D02*
X680750D01*
X663807Y1175821D02*
X669379D01*
X673000Y1159500D02*
X688000D01*
X719000Y1210750D02*
X727050D01*
X746750Y1143100D02*
X750750D01*
X719250Y1197750D02*
X727350D01*
X742750Y1155600D02*
X746750D01*
X734250Y1164100D02*
X742750Y1155600D01*
X734250Y1164100D02*
Y1185832D01*
X729000Y1191082D02*
X734250Y1185832D01*
X729000Y1191082D02*
Y1196100D01*
X727350Y1197750D02*
X729000Y1196100D01*
X743750Y1013100D02*
X747750D01*
X739750Y1000600D02*
X743750D01*
X729250Y960918D02*
X732875Y964543D01*
X729250Y955900D02*
Y960918D01*
X727750Y954400D02*
X729250Y955900D01*
X732875Y993725D02*
X739750Y1000600D01*
X720000Y954400D02*
X727750D01*
X267250Y1303500D02*
X271250D01*
X277625Y1258043D02*
Y1297125D01*
Y1258043D02*
X280750Y1254918D01*
Y1249900D02*
Y1254918D01*
Y1249900D02*
X282250Y1248400D01*
X290000D01*
X257000Y1284750D02*
X263250Y1291000D01*
X267250D01*
X271250Y1303500D02*
X277625Y1297125D01*
Y1245343D02*
X280750Y1242218D01*
Y1237200D02*
Y1242218D01*
Y1237200D02*
X282250Y1235700D01*
X290000D01*
X271500Y1192250D02*
X276900D01*
X282250Y1197600D02*
X290000D01*
X276900Y1192250D02*
X282250Y1197600D01*
X268250Y1189000D02*
X271500Y1192250D01*
X277100Y1179750D02*
X282250Y1184900D01*
X268250Y1176500D02*
X271500Y1179750D01*
X282250Y1184900D02*
X290000D01*
X271500Y1179750D02*
X277100D01*
X277300Y1167250D02*
X282250Y1172200D01*
X268250Y1164000D02*
X271500Y1167250D01*
X282250Y1172200D02*
X290000D01*
X271500Y1167250D02*
X277300D01*
X271500Y1154750D02*
X277500D01*
X282250Y1159500D02*
X290000D01*
X277500Y1154750D02*
X282250Y1159500D01*
X268250Y1151500D02*
X271500Y1154750D01*
Y1142250D02*
X277700D01*
X268250Y1139000D02*
X271500Y1142250D01*
X282250Y1146800D02*
X290000D01*
X277700Y1142250D02*
X282250Y1146800D01*
X305250Y949990D02*
X310750Y944490D01*
X311250Y952475D02*
Y1012082D01*
X308250Y951233D02*
Y1002382D01*
X319259Y948709D02*
X326491D01*
X314250Y953718D02*
X319259Y948709D01*
X314250Y953718D02*
Y1021782D01*
X300932Y1009700D02*
X308250Y1002382D01*
X316750Y938518D02*
Y946975D01*
X308250Y951233D02*
X313750Y945733D01*
X300182Y997750D02*
X305250Y992682D01*
X329000Y941700D02*
Y946200D01*
X302250Y948747D02*
Y982982D01*
X300582Y1022750D02*
X311250Y1012082D01*
X307750Y934790D02*
Y943248D01*
X305250Y949990D02*
Y992682D01*
X302250Y948747D02*
X307750Y943248D01*
X300782Y1035250D02*
X314250Y1021782D01*
X268000Y1035250D02*
X300782D01*
X326491Y948709D02*
X329000Y946200D01*
X313750Y937275D02*
Y945733D01*
X310750Y936033D02*
Y944490D01*
X311250Y952475D02*
X316750Y946975D01*
X268550Y1009700D02*
X300932D01*
X313750Y937275D02*
X316341Y934684D01*
X310750Y936033D02*
X313341Y933442D01*
X319750Y930500D02*
X321250Y929000D01*
X319750Y930500D02*
Y935518D01*
X316750Y938518D02*
X319750Y935518D01*
X307750Y934790D02*
X310341Y932199D01*
X321250Y929000D02*
X329000D01*
X316341Y926227D02*
Y934684D01*
X310341Y906827D02*
Y932199D01*
X313341Y916527D02*
Y933442D01*
Y916527D02*
X319750Y910118D01*
X310341Y906827D02*
X319750Y897418D01*
X316341Y926227D02*
X319259Y923309D01*
X300932Y984300D02*
X302250Y982982D01*
X288232Y984300D02*
X300932D01*
X268000Y997750D02*
X300182D01*
X268000Y1010250D02*
X268550Y1009700D01*
X326491Y923309D02*
X329000Y920800D01*
Y916300D02*
Y920800D01*
X319259Y923309D02*
X326491D01*
X268000Y985250D02*
X287282D01*
X288232Y984300D01*
X319750Y905100D02*
Y910118D01*
Y905100D02*
X321250Y903600D01*
X329000D01*
X319750Y892400D02*
X321250Y890900D01*
X329000D01*
X319750Y892400D02*
Y897418D01*
X269500Y880250D02*
X273500D01*
X278871Y885621D01*
X300153D01*
X302250Y887718D01*
X299741Y896591D02*
X302250Y894082D01*
X292509Y896591D02*
X299741D01*
X290000Y899100D02*
X292509Y896591D01*
X302250Y887718D02*
Y894082D01*
X290000Y899100D02*
Y903600D01*
D17*
X329000Y1350000D02*
D03*
Y1337300D02*
D03*
Y1324600D02*
D03*
Y1311900D02*
D03*
Y1273800D02*
D03*
Y1286500D02*
D03*
Y1299200D02*
D03*
Y1261100D02*
D03*
Y1248400D02*
D03*
Y1235700D02*
D03*
Y1223000D02*
D03*
Y1210300D02*
D03*
Y1172200D02*
D03*
Y1184900D02*
D03*
Y1197600D02*
D03*
Y1159500D02*
D03*
Y1146800D02*
D03*
Y1134100D02*
D03*
Y1121400D02*
D03*
Y1108700D02*
D03*
X290000Y1350000D02*
D03*
Y1337300D02*
D03*
Y1324600D02*
D03*
Y1311900D02*
D03*
Y1273800D02*
D03*
Y1286500D02*
D03*
Y1299200D02*
D03*
Y1261100D02*
D03*
Y1248400D02*
D03*
Y1235700D02*
D03*
Y1223000D02*
D03*
Y1210300D02*
D03*
Y1172200D02*
D03*
Y1184900D02*
D03*
Y1197600D02*
D03*
Y1159500D02*
D03*
Y1146800D02*
D03*
Y1134100D02*
D03*
Y1121400D02*
D03*
Y1108700D02*
D03*
X681000Y840100D02*
D03*
Y852800D02*
D03*
Y865500D02*
D03*
Y878200D02*
D03*
Y890900D02*
D03*
Y929000D02*
D03*
Y916300D02*
D03*
Y903600D02*
D03*
Y941700D02*
D03*
Y954400D02*
D03*
Y967100D02*
D03*
Y979800D02*
D03*
Y992500D02*
D03*
Y1030600D02*
D03*
Y1017900D02*
D03*
Y1005200D02*
D03*
Y1043300D02*
D03*
Y1056000D02*
D03*
Y1068700D02*
D03*
Y1081400D02*
D03*
X720000Y840100D02*
D03*
Y852800D02*
D03*
Y865500D02*
D03*
Y878200D02*
D03*
Y890900D02*
D03*
Y929000D02*
D03*
Y916300D02*
D03*
Y903600D02*
D03*
Y941700D02*
D03*
Y954400D02*
D03*
Y967100D02*
D03*
Y979800D02*
D03*
Y992500D02*
D03*
Y1030600D02*
D03*
Y1017900D02*
D03*
Y1005200D02*
D03*
Y1043300D02*
D03*
Y1056000D02*
D03*
Y1068700D02*
D03*
Y1081400D02*
D03*
X680750Y1108700D02*
D03*
Y1121400D02*
D03*
Y1134100D02*
D03*
Y1146800D02*
D03*
Y1159500D02*
D03*
Y1197600D02*
D03*
Y1184900D02*
D03*
Y1172200D02*
D03*
Y1210300D02*
D03*
Y1223000D02*
D03*
Y1235700D02*
D03*
Y1248400D02*
D03*
Y1261100D02*
D03*
Y1299200D02*
D03*
Y1286500D02*
D03*
Y1273800D02*
D03*
Y1311900D02*
D03*
Y1324600D02*
D03*
Y1337300D02*
D03*
Y1350000D02*
D03*
X719750Y1108700D02*
D03*
Y1121400D02*
D03*
Y1134100D02*
D03*
Y1146800D02*
D03*
Y1159500D02*
D03*
Y1197600D02*
D03*
Y1184900D02*
D03*
Y1172200D02*
D03*
Y1210300D02*
D03*
Y1223000D02*
D03*
Y1235700D02*
D03*
Y1248400D02*
D03*
Y1261100D02*
D03*
Y1299200D02*
D03*
Y1286500D02*
D03*
Y1273800D02*
D03*
Y1311900D02*
D03*
Y1324600D02*
D03*
Y1337300D02*
D03*
Y1350000D02*
D03*
X290000Y840100D02*
D03*
Y852800D02*
D03*
Y865500D02*
D03*
Y878200D02*
D03*
Y890900D02*
D03*
Y929000D02*
D03*
Y916300D02*
D03*
Y903600D02*
D03*
Y941700D02*
D03*
Y954400D02*
D03*
Y967100D02*
D03*
Y979800D02*
D03*
Y992500D02*
D03*
Y1030600D02*
D03*
Y1017900D02*
D03*
Y1005200D02*
D03*
Y1043300D02*
D03*
Y1056000D02*
D03*
Y1068700D02*
D03*
Y1081400D02*
D03*
X329000Y840100D02*
D03*
Y852800D02*
D03*
Y865500D02*
D03*
Y878200D02*
D03*
Y890900D02*
D03*
Y929000D02*
D03*
Y916300D02*
D03*
Y903600D02*
D03*
Y941700D02*
D03*
Y954400D02*
D03*
Y967100D02*
D03*
Y979800D02*
D03*
Y992500D02*
D03*
Y1030600D02*
D03*
Y1017900D02*
D03*
Y1005200D02*
D03*
Y1043300D02*
D03*
Y1056000D02*
D03*
Y1068700D02*
D03*
Y1081400D02*
D03*
D18*
X449250Y1279250D02*
D03*
X455750D02*
D03*
X462250D02*
D03*
X468750D02*
D03*
X475250D02*
D03*
X481750D02*
D03*
X488250D02*
D03*
X494750D02*
D03*
X501250D02*
D03*
X507750D02*
D03*
X514250D02*
D03*
X520750D02*
D03*
X527250D02*
D03*
X533750D02*
D03*
X449250Y1336750D02*
D03*
X455750D02*
D03*
X462250D02*
D03*
X468750D02*
D03*
X475250D02*
D03*
X481750D02*
D03*
X488250D02*
D03*
X494750D02*
D03*
X501250D02*
D03*
X507750D02*
D03*
X514250D02*
D03*
X520750D02*
D03*
X527250D02*
D03*
X533750D02*
D03*
D19*
X417750Y1338000D02*
D03*
Y1321000D02*
D03*
X436500Y1318500D02*
D03*
Y1335500D02*
D03*
X577250Y1336500D02*
D03*
Y1319500D02*
D03*
X564500Y1319250D02*
D03*
Y1336250D02*
D03*
X551750Y1319500D02*
D03*
Y1336500D02*
D03*
X590250Y1322750D02*
D03*
Y1339750D02*
D03*
X602250Y1325250D02*
D03*
Y1342250D02*
D03*
X615500Y1341750D02*
D03*
Y1324750D02*
D03*
X544750Y1279500D02*
D03*
Y1296500D02*
D03*
X642250Y1275500D02*
D03*
Y1292500D02*
D03*
X623000Y1278250D02*
D03*
Y1295250D02*
D03*
X658250Y1013500D02*
D03*
Y996500D02*
D03*
Y960500D02*
D03*
Y977500D02*
D03*
X415000Y861750D02*
D03*
Y844750D02*
D03*
X505500Y891500D02*
D03*
Y908500D02*
D03*
X559500Y886750D02*
D03*
Y903750D02*
D03*
X505250Y876750D02*
D03*
Y859750D02*
D03*
X366250Y1081250D02*
D03*
Y1098250D02*
D03*
X516000Y1137000D02*
D03*
Y1154000D02*
D03*
X650000Y1144250D02*
D03*
Y1161250D02*
D03*
D20*
X619500Y1311500D02*
D03*
X602500D02*
D03*
X436500Y861250D02*
D03*
X453500D02*
D03*
X544500Y888250D02*
D03*
X527500D02*
D03*
X527750Y904750D02*
D03*
X544750D02*
D03*
X444750Y1108000D02*
D03*
X461750D02*
D03*
X633250Y1116500D02*
D03*
X616250D02*
D03*
X616000Y1131250D02*
D03*
X633000D02*
D03*
X616250Y1145500D02*
D03*
X633250D02*
D03*
X633500Y1158250D02*
D03*
X616500D02*
D03*
X478750Y1112500D02*
D03*
X495750D02*
D03*
X610000Y1077500D02*
D03*
X593000D02*
D03*
D21*
X659000Y1313500D02*
D03*
Y1341500D02*
D03*
X638750Y1313500D02*
D03*
Y1341500D02*
D03*
X381500Y860250D02*
D03*
Y888250D02*
D03*
X479500Y1130500D02*
D03*
Y1158500D02*
D03*
D22*
X602250Y1282750D02*
D03*
X562250D02*
D03*
D23*
X399000Y951250D02*
D03*
X444000D02*
D03*
D24*
X606250Y862000D02*
D03*
Y919720D02*
D03*
D25*
X475250Y877450D02*
D03*
X415250Y915550D02*
D03*
Y902850D02*
D03*
Y890150D02*
D03*
Y877450D02*
D03*
X475250Y915550D02*
D03*
Y902850D02*
D03*
Y890150D02*
D03*
D26*
X588750Y1157550D02*
D03*
Y1144850D02*
D03*
Y1132150D02*
D03*
Y1119450D02*
D03*
X539250D02*
D03*
Y1132150D02*
D03*
Y1144850D02*
D03*
Y1157550D02*
D03*
D27*
X403275Y1146925D02*
D03*
D28*
X425500Y1080250D02*
D03*
X381050D02*
D03*
D29*
X479750Y1044000D02*
D03*
Y1084000D02*
D03*
D30*
X268250Y1201500D02*
D03*
Y1189000D02*
D03*
Y1176500D02*
D03*
Y1164000D02*
D03*
Y1151500D02*
D03*
Y1139000D02*
D03*
Y1126500D02*
D03*
X746750Y1130600D02*
D03*
Y1143100D02*
D03*
Y1155600D02*
D03*
Y1168100D02*
D03*
X747250Y1311750D02*
D03*
Y1299250D02*
D03*
Y1286750D02*
D03*
X267750Y905150D02*
D03*
Y892650D02*
D03*
Y880150D02*
D03*
Y867650D02*
D03*
X267250Y1316000D02*
D03*
Y1303500D02*
D03*
Y1291000D02*
D03*
Y1278500D02*
D03*
X268000Y1047750D02*
D03*
Y1035250D02*
D03*
Y1022750D02*
D03*
Y1010250D02*
D03*
Y997750D02*
D03*
Y985250D02*
D03*
X743750Y988100D02*
D03*
Y1000600D02*
D03*
Y1013100D02*
D03*
Y1025600D02*
D03*
D31*
X239250Y1227000D02*
D03*
Y1101000D02*
D03*
X775750Y1105100D02*
D03*
Y1193600D02*
D03*
X776250Y1337250D02*
D03*
Y1261250D02*
D03*
X238750Y930650D02*
D03*
Y842150D02*
D03*
X238250Y1341500D02*
D03*
Y1253000D02*
D03*
X239000Y1073250D02*
D03*
Y959750D02*
D03*
X772750Y962600D02*
D03*
Y1051100D02*
D03*
D32*
X567750Y1063500D02*
D03*
X517750D02*
D03*
D33*
X407500Y1051750D02*
D03*
X435500D02*
D03*
X408500Y1028000D02*
D03*
X436500D02*
D03*
D60*
X644000Y961000D02*
X644500Y960500D01*
Y895750D02*
Y960500D01*
X408000Y1026250D02*
Y1050750D01*
X720000Y840100D02*
Y865250D01*
X681250Y840100D02*
Y865500D01*
X657250Y961500D02*
X658250Y960500D01*
X644500Y961500D02*
X657250D01*
X268287Y1270052D02*
Y1277500D01*
Y1270052D02*
X268669Y1269669D01*
X267287Y1278500D02*
X268287Y1277500D01*
X267250Y1278500D02*
X267287D01*
X745500Y1169100D02*
Y1177750D01*
X478250Y1112500D02*
Y1112750D01*
X403275Y1146925D02*
X423350Y1126850D01*
X427000Y1130500D01*
X423350Y1126850D02*
X426500Y1123700D01*
Y1118775D02*
X427775Y1117500D01*
X472750Y1051000D02*
X479750Y1044000D01*
X435875Y1026375D02*
Y1050875D01*
X435750Y1051000D02*
Y1069000D01*
X455000Y962250D02*
X459500Y966750D01*
Y993250D01*
X444000Y951250D02*
Y954250D01*
X452000Y962250D01*
X455000D01*
X385379Y995371D02*
Y1021371D01*
X371750Y1035000D02*
X385379Y1021371D01*
Y995371D02*
X387500Y993250D01*
X399000Y951250D02*
Y974250D01*
X387500Y985750D02*
X399000Y974250D01*
X387500Y985750D02*
Y993250D01*
X424420Y1008830D02*
X443920D01*
X459500Y993250D01*
X407875Y1025375D02*
X424420Y1008830D01*
X381500Y846750D02*
X382250Y846000D01*
X381500Y846750D02*
Y860250D01*
X644500Y895750D02*
X674750Y865500D01*
X681000D01*
X426500Y1118775D02*
Y1123700D01*
Y1118500D02*
Y1118775D01*
X644366Y1130591D02*
X653205D01*
X633659D02*
X644366D01*
X653205D02*
X659500Y1136886D01*
X633000Y1131250D02*
X633659Y1130591D01*
X650000Y1160750D02*
Y1161250D01*
Y1160750D02*
X652000Y1158750D01*
X652364D01*
X659500Y1151614D01*
Y1136886D02*
Y1151614D01*
X633500Y1158250D02*
X647000D01*
X459250Y1106000D02*
X461250Y1108000D01*
X443750Y1083000D02*
Y1090000D01*
X461250Y1108000D02*
X461750D01*
X459250Y1105500D02*
Y1106000D01*
X443750Y1090000D02*
X459250Y1105500D01*
X435750Y1069000D02*
X443750Y1077000D01*
Y1083000D01*
X435750Y1051000D02*
X472750D01*
X435750D02*
X435875Y1050875D01*
Y1026375D02*
X436000Y1026250D01*
X566485Y1144850D02*
X570000Y1141335D01*
X546100Y1144850D02*
X566485D01*
X570000Y1131350D02*
Y1141335D01*
X539250Y1144850D02*
X546100D01*
X521500Y1123250D02*
X525300Y1119450D01*
X539250D01*
X427775Y1117500D02*
X452114D01*
X496000Y1082250D02*
Y1112250D01*
X495750Y1112500D02*
X496000Y1112250D01*
X581900Y1119450D02*
X588750D01*
X570000Y1131350D02*
X581900Y1119450D01*
X553600Y1152350D02*
Y1161465D01*
X550015Y1165050D02*
X553600Y1161465D01*
X546100Y1144850D02*
X553600Y1152350D01*
X497318Y1147318D02*
Y1152182D01*
X509886Y1164750D01*
X480500Y1130500D02*
X497318Y1147318D01*
X509886Y1164750D02*
X528185D01*
X528485Y1165050D02*
X550015D01*
X528185Y1164750D02*
X528485Y1165050D01*
X479500Y1130500D02*
X480500D01*
X485500Y1122750D02*
Y1125500D01*
Y1122750D02*
X493250Y1115000D01*
X480500Y1130500D02*
X485500Y1125500D01*
X479500Y1158500D02*
X479750Y1158750D01*
Y1164750D01*
X466000Y1120636D02*
Y1146000D01*
X478500Y1158500D01*
X479500D01*
X466000Y1120636D02*
X468636Y1118000D01*
X472750D01*
X478000Y1112750D01*
X478250D01*
X461750Y1108000D02*
X473750D01*
X478250Y1112500D01*
X452114Y1117500D02*
X459250Y1110364D01*
X720000Y840100D02*
X720000Y840100D01*
X681350Y840100D02*
X720000D01*
X681000Y865500D02*
X681250D01*
X256643Y868650D02*
X266750D01*
X252250Y873043D02*
X256643Y868650D01*
X252250Y873043D02*
Y911989D01*
X266750Y868650D02*
X267750Y867650D01*
X252250Y911989D02*
X264000Y923739D01*
Y929500D01*
X746500Y1168100D02*
X746750D01*
X745500Y1169100D02*
X746500Y1168100D01*
X720500Y1323850D02*
X731150D01*
X719750Y1324600D02*
X720500Y1323850D01*
X743250Y1311750D02*
X747250D01*
X731150Y1323850D02*
X743250Y1311750D01*
D61*
X268250Y1201500D02*
Y1253450D01*
X252750Y1268950D02*
X268250Y1253450D01*
X468593Y1323258D02*
X474250Y1323258D01*
Y1322561D02*
X478643Y1318168D01*
X494700Y1330900D02*
X494750Y1336750D01*
X474250Y1322561D02*
Y1327400D01*
X474300Y1327450D02*
Y1328824D01*
X493800Y1327450D02*
X494700Y1330900D01*
X475200D02*
X475250Y1336750D01*
X474250Y1327400D02*
X474300Y1327450D01*
X459604Y1325250D02*
X460425Y1324429D01*
X474300Y1328824D02*
X475200Y1330900D01*
X460425Y1324429D02*
X468593Y1323258D01*
X478643Y1318168D02*
X484856D01*
X489250Y1322561D02*
X493800Y1327450D01*
X484856Y1318168D02*
X489250Y1322561D01*
X445900Y1325250D02*
X459604D01*
X762700Y1130300D02*
X763000Y1130000D01*
X746750Y1130600D02*
X747050Y1130300D01*
X762700D01*
X749750Y988250D02*
X757250D01*
X743750Y988100D02*
X749750Y988250D01*
X762875Y1286875D02*
X763000Y1287000D01*
X747250Y1286750D02*
X747375Y1286875D01*
X762875D01*
X392150Y1311900D02*
X418000Y1337750D01*
X418500D01*
X329000Y1311900D02*
X392150D01*
X442922Y1328228D02*
X445900Y1325250D01*
X442922Y1328228D02*
Y1328578D01*
X436500Y1335000D02*
Y1335500D01*
Y1335000D02*
X442922Y1328578D01*
X444682Y1267900D02*
X459250D01*
X441332Y1271250D02*
X444682Y1267900D01*
X441000Y1271250D02*
X441332D01*
X459250Y1267900D02*
X462200Y1270850D01*
Y1279200D02*
X462250Y1279250D01*
X462200Y1270850D02*
Y1279200D01*
X378883Y1044883D02*
X381226Y1047226D01*
X381025Y1050741D02*
Y1080225D01*
X381226Y1047226D02*
Y1050539D01*
X354883Y1044883D02*
X378883D01*
X381025Y1050741D02*
X381226Y1050539D01*
X381025Y1080225D02*
X381050Y1080250D01*
X377050Y1080409D02*
Y1081250D01*
X366250D02*
X377050D01*
Y1080409D02*
X381050Y1080250D01*
X248750Y987300D02*
Y1032500D01*
X256500Y1040250D01*
Y1040700D01*
X258550Y1042750D01*
X259000D01*
X264000Y1047750D01*
X248750Y987300D02*
X270500Y965550D01*
X267750Y905150D02*
Y918296D01*
X270500Y921046D02*
Y965550D01*
X267750Y918296D02*
X270500Y921046D01*
X354500Y1044500D02*
X354883Y1044883D01*
X735807Y863331D02*
Y870143D01*
X720000Y878250D02*
X727700D01*
X735807Y870143D01*
Y863331D02*
X736190Y862948D01*
X290000Y1311900D02*
X329000D01*
X282250D02*
X290000D01*
X264000Y1047750D02*
X268000D01*
X262000Y1049750D02*
X264000Y1047750D01*
X262000Y1049750D02*
Y1053750D01*
X257632Y1061432D02*
X257750Y1061550D01*
X257632Y1058118D02*
X262000Y1053750D01*
X257632Y1058118D02*
Y1061432D01*
X257750Y1061550D02*
Y1112950D01*
X256750Y1113950D02*
X257750Y1112950D01*
X256750Y1113950D02*
Y1194450D01*
X258972Y1196672D01*
X259422D01*
X264250Y1201500D02*
X268250D01*
X259422Y1196672D02*
X264250Y1201500D01*
X252750Y1268950D02*
Y1305950D01*
X257972Y1311172D01*
X258422D01*
X263250Y1316000D01*
X267250D01*
X275593Y1313657D02*
X280493D01*
X275250Y1314000D02*
X275593Y1313657D01*
X269250Y1314000D02*
X275250D01*
X267250Y1316000D02*
X269250Y1314000D01*
X280493Y1313657D02*
X282250Y1311900D01*
D62*
X381500Y888250D02*
X383400Y890150D01*
X415250D01*
X337829Y1299286D02*
X338611Y1298504D01*
X337225Y1299286D02*
X337829D01*
X337225D02*
Y1299475D01*
X290225D02*
X337225D01*
X290000Y1299250D02*
X290225Y1299475D01*
X425500Y1080250D02*
X427460Y1082210D01*
Y1090493D02*
X439750Y1102783D01*
Y1105750D02*
X442250Y1108250D01*
X427460Y1082210D02*
Y1090493D01*
X439750Y1102783D02*
Y1105750D01*
X442250Y1108250D02*
X445217D01*
D63*
X520500Y934000D02*
D03*
X655500D02*
D03*
D64*
X624000Y994000D02*
D03*
X552000D02*
D03*
X387500Y993250D02*
D03*
D65*
X491000Y933250D02*
D03*
X356000D02*
D03*
D66*
X459500Y993250D02*
D03*
D67*
X741990Y930198D02*
D03*
Y843698D02*
D03*
D68*
X783690Y930198D02*
D03*
Y843698D02*
D03*
D69*
X746890Y915848D02*
D03*
Y858048D02*
D03*
X720000Y852800D02*
D03*
X644000Y961000D02*
D03*
X720000Y840100D02*
D03*
X681000D02*
D03*
Y852800D02*
D03*
Y865500D02*
D03*
X719000Y1311600D02*
D03*
X325947Y1318947D02*
D03*
X329250Y1337000D02*
D03*
X499500Y1322250D02*
D03*
X381500Y888250D02*
D03*
X719500Y1261250D02*
D03*
Y1274500D02*
D03*
X719000Y1286500D02*
D03*
X719250Y1298750D02*
D03*
X719000Y1248750D02*
D03*
X330250Y1285000D02*
D03*
X338611Y1298504D02*
D03*
X288750Y1274250D02*
D03*
X328750Y1273750D02*
D03*
X288500Y1284250D02*
D03*
X427000Y1130500D02*
D03*
X480000Y1045750D02*
D03*
X681250Y1274000D02*
D03*
X680000Y1287750D02*
D03*
X680750Y1299250D02*
D03*
X332000Y1093750D02*
D03*
X322750Y1093000D02*
D03*
X301250Y1091250D02*
D03*
X280500Y1090750D02*
D03*
X293750Y1091500D02*
D03*
X313000Y1093250D02*
D03*
X271000Y1090000D02*
D03*
X591000Y1067500D02*
D03*
X590750Y1057750D02*
D03*
X589500Y1078000D02*
D03*
X590750Y1034500D02*
D03*
X610000Y1077500D02*
D03*
X644366Y1130591D02*
D03*
X521500Y1123250D02*
D03*
X427000Y1145250D02*
D03*
Y1136250D02*
D03*
X426500Y1118500D02*
D03*
X496000Y1082250D02*
D03*
X479750Y1164750D02*
D03*
X461750Y1108000D02*
D03*
X478250Y1112750D02*
D03*
X248500Y1020000D02*
D03*
X354500Y1044500D02*
D03*
X366000Y1062750D02*
D03*
X719500Y1185250D02*
D03*
X719250Y1172500D02*
D03*
X287600Y1017779D02*
D03*
X329250Y1017750D02*
D03*
X699000Y1027000D02*
D03*
X741250Y1116250D02*
D03*
X290000Y1299250D02*
D03*
X425500Y1080250D02*
D03*
X443750Y1083000D02*
D03*
X402000Y1179500D02*
D03*
X681250Y890750D02*
D03*
Y878500D02*
D03*
X264000Y929500D02*
D03*
X720000Y915750D02*
D03*
X681250Y903750D02*
D03*
X681000Y916500D02*
D03*
X720000Y865250D02*
D03*
Y878250D02*
D03*
X745750Y1177750D02*
D03*
X680750Y1324600D02*
D03*
Y1337300D02*
D03*
Y1350000D02*
D03*
X719750D02*
D03*
Y1337300D02*
D03*
Y1324600D02*
D03*
X513500Y1295000D02*
D03*
X290250Y942750D02*
D03*
X290000Y929500D02*
D03*
X289500Y1029750D02*
D03*
X329250Y1349500D02*
D03*
X290000Y1349750D02*
D03*
X290000Y1311900D02*
D03*
X417250Y1321500D02*
D03*
X290000Y839500D02*
D03*
X289750Y853000D02*
D03*
X290000Y865250D02*
D03*
X329000Y865500D02*
D03*
Y852500D02*
D03*
Y839500D02*
D03*
X691750Y1197500D02*
D03*
Y1210750D02*
D03*
Y1235331D02*
D03*
X688750Y1223500D02*
D03*
X689250Y1261500D02*
D03*
Y1248250D02*
D03*
X688250Y1185000D02*
D03*
X688000Y1172500D02*
D03*
Y1159500D02*
D03*
X680500Y1311250D02*
D03*
X719000Y1210750D02*
D03*
X719250Y1197750D02*
D03*
X720000Y904250D02*
D03*
X720750Y890750D02*
D03*
X704750Y913750D02*
D03*
Y850500D02*
D03*
X736190Y854948D02*
D03*
Y918948D02*
D03*
Y862948D02*
D03*
X720250Y992750D02*
D03*
X720000Y1005500D02*
D03*
Y1030500D02*
D03*
X719750Y1018000D02*
D03*
X329250Y1056250D02*
D03*
X329000Y1043000D02*
D03*
X329250Y1031000D02*
D03*
X415000Y844750D02*
D03*
X382250Y846000D02*
D03*
X634000Y858250D02*
D03*
X586000Y866750D02*
D03*
X578000D02*
D03*
X626000Y867000D02*
D03*
X633750D02*
D03*
X623000Y1295250D02*
D03*
X615500Y1341750D02*
D03*
X590250Y1339750D02*
D03*
D70*
X353100Y1254750D02*
D03*
X657900D02*
D03*
X378500D02*
D03*
X403900D02*
D03*
X429300D02*
D03*
X454700D02*
D03*
X480100D02*
D03*
X505500D02*
D03*
X530900D02*
D03*
X556300D02*
D03*
X581700D02*
D03*
X607100D02*
D03*
X632500D02*
D03*
X353100Y1229750D02*
D03*
X378500D02*
D03*
X403900D02*
D03*
X429300D02*
D03*
X454700D02*
D03*
X480100D02*
D03*
X505500D02*
D03*
X530900D02*
D03*
X556300D02*
D03*
X581700D02*
D03*
X607100D02*
D03*
X632500D02*
D03*
X657900D02*
D03*
X353000Y1204750D02*
D03*
X378400D02*
D03*
X403800D02*
D03*
X429200D02*
D03*
X454600D02*
D03*
X480000D02*
D03*
X505400D02*
D03*
X530800D02*
D03*
X556200D02*
D03*
X581600D02*
D03*
X607000D02*
D03*
X632400D02*
D03*
X657800D02*
D03*
D71*
X481750Y1325668D02*
D03*
X763000Y1130000D02*
D03*
X757250Y988250D02*
D03*
X763000Y1287000D02*
D03*
X642500Y1275250D02*
D03*
X268669Y1269669D02*
D03*
X418500Y1337750D02*
D03*
X435000Y1335750D02*
D03*
X440000Y1271500D02*
D03*
X551750Y1336500D02*
D03*
X564500Y1336250D02*
D03*
X577250Y1336500D02*
D03*
X590250Y1322750D02*
D03*
X615500Y1324750D02*
D03*
X371750Y1035000D02*
D03*
X399750Y1034000D02*
D03*
M02*
