G04*
G04 #@! TF.GenerationSoftware,Altium Limited,Altium Designer,23.6.0 (18)*
G04*
G04 Layer_Physical_Order=4*
G04 Layer_Color=16711680*
%FSLAX44Y44*%
%MOMM*%
G71*
G04*
G04 #@! TF.SameCoordinates,C0EE57D9-4E2B-4701-80FF-B58ABC17C381*
G04*
G04*
G04 #@! TF.FilePolarity,Positive*
G04*
G01*
G75*
%ADD14C,0.1500*%
%ADD16R,1.0000X1.1000*%
%ADD18R,1.5000X0.8000*%
%ADD19R,3.0000X1.6000*%
%ADD23R,1.1000X1.0000*%
%ADD45C,0.5000*%
%ADD46C,0.3000*%
%ADD47C,0.6000*%
%ADD48C,3.7160*%
%ADD49R,3.7160X3.7160*%
%ADD50O,1.2000X2.4000*%
%ADD51C,0.6000*%
%ADD52O,2.0000X0.9000*%
%ADD53O,1.7000X0.9000*%
%ADD54C,1.5000*%
%ADD55R,1.5000X1.0000*%
G04:AMPARAMS|DCode=56|XSize=1.97mm|YSize=0.6mm|CornerRadius=0.162mm|HoleSize=0mm|Usage=FLASHONLY|Rotation=180.000|XOffset=0mm|YOffset=0mm|HoleType=Round|Shape=RoundedRectangle|*
%AMROUNDEDRECTD56*
21,1,1.9700,0.2760,0,0,180.0*
21,1,1.6460,0.6000,0,0,180.0*
1,1,0.3240,-0.8230,0.1380*
1,1,0.3240,0.8230,0.1380*
1,1,0.3240,0.8230,-0.1380*
1,1,0.3240,-0.8230,-0.1380*
%
%ADD56ROUNDEDRECTD56*%
%ADD57R,2.4100X3.3000*%
G04:AMPARAMS|DCode=58|XSize=2.33mm|YSize=1.55mm|CornerRadius=0.3875mm|HoleSize=0mm|Usage=FLASHONLY|Rotation=180.000|XOffset=0mm|YOffset=0mm|HoleType=Round|Shape=RoundedRectangle|*
%AMROUNDEDRECTD58*
21,1,2.3300,0.7750,0,0,180.0*
21,1,1.5550,1.5500,0,0,180.0*
1,1,0.7750,-0.7775,0.3875*
1,1,0.7750,0.7775,0.3875*
1,1,0.7750,0.7775,-0.3875*
1,1,0.7750,-0.7775,-0.3875*
%
%ADD58ROUNDEDRECTD58*%
%ADD59R,1.1400X0.6000*%
%ADD60R,1.1400X0.3000*%
%ADD61R,5.1000X1.9000*%
%ADD62R,2.7900X1.4000*%
%ADD63R,2.7900X0.9900*%
%ADD64R,8.1300X8.1300*%
G36*
X673519Y1336977D02*
X674677Y1336203D01*
X676043Y1335931D01*
X785931D01*
Y1331250D01*
X769250D01*
Y1327054D01*
X733250D01*
Y1331250D01*
X714250D01*
Y1317994D01*
X713520Y1317598D01*
X712250Y1318236D01*
Y1319495D01*
X711489Y1321332D01*
X710082Y1322739D01*
X708245Y1323500D01*
X706255D01*
X704418Y1322739D01*
X703011Y1321332D01*
X702250Y1319495D01*
Y1317505D01*
X703011Y1315668D01*
X704418Y1314261D01*
X706255Y1313500D01*
X708245D01*
X708273Y1313512D01*
X709387Y1312397D01*
X710297Y1311790D01*
X711370Y1311576D01*
X747458D01*
X749926Y1309108D01*
X749301Y1307938D01*
X749221Y1307954D01*
X730751D01*
X730739Y1307982D01*
X729332Y1309389D01*
X727495Y1310150D01*
X725505D01*
X723668Y1309389D01*
X722261Y1307982D01*
X721500Y1306145D01*
Y1304155D01*
X721726Y1303610D01*
X721020Y1302554D01*
X713000D01*
X711927Y1302340D01*
X711017Y1301733D01*
X709767Y1300483D01*
X709160Y1299573D01*
X708946Y1298500D01*
Y1296701D01*
X708918Y1296689D01*
X707511Y1295282D01*
X706750Y1293445D01*
Y1291455D01*
X707511Y1289618D01*
X708918Y1288211D01*
X710755Y1287450D01*
X712745D01*
X713194Y1287636D01*
X714250Y1286931D01*
Y1285269D01*
X713194Y1284564D01*
X712745Y1284750D01*
X710755D01*
X708918Y1283989D01*
X707511Y1282582D01*
X706750Y1280745D01*
Y1278755D01*
X707511Y1276918D01*
X708918Y1275511D01*
X710755Y1274750D01*
X712745D01*
X714582Y1275511D01*
X715156Y1276085D01*
X715571D01*
X716446Y1275210D01*
Y1272616D01*
X715176Y1271768D01*
X714495Y1272050D01*
X712505D01*
X710668Y1271289D01*
X709261Y1269882D01*
X708500Y1268045D01*
Y1266055D01*
X709261Y1264218D01*
X710668Y1262811D01*
X712505Y1262050D01*
X713446D01*
Y1259284D01*
X712176Y1258657D01*
X710745Y1259250D01*
X708755D01*
X706918Y1258489D01*
X705511Y1257082D01*
X704750Y1255245D01*
Y1253255D01*
X705511Y1251418D01*
X706918Y1250011D01*
X708755Y1249250D01*
X709446D01*
Y1132734D01*
X708176Y1132208D01*
X706539Y1133845D01*
Y1150180D01*
X706522Y1150266D01*
X706532Y1150353D01*
X706445Y1150654D01*
X706384Y1150960D01*
X706335Y1151033D01*
X706311Y1151118D01*
X706116Y1151362D01*
X705942Y1151622D01*
X705869Y1151671D01*
X705814Y1151739D01*
X704544Y1152809D01*
X704467Y1152852D01*
X704406Y1152916D01*
X704121Y1153043D01*
X703847Y1153194D01*
X703760Y1153203D01*
X703680Y1153239D01*
X703367Y1153247D01*
X703250Y1153260D01*
Y1153995D01*
X702489Y1155832D01*
X701082Y1157239D01*
X699245Y1158000D01*
X697255D01*
X695418Y1157239D01*
X694011Y1155832D01*
X693300Y1154117D01*
X693132Y1154149D01*
X693126Y1154148D01*
X693119Y1154149D01*
X684932Y1154048D01*
X684548Y1153967D01*
X684165Y1153888D01*
X684160Y1153884D01*
X684154Y1153883D01*
X683830Y1153661D01*
X683506Y1153442D01*
X683503Y1153436D01*
X683497Y1153433D01*
X683283Y1153103D01*
X683068Y1152777D01*
X682861Y1152269D01*
X682787Y1151884D01*
X682711Y1151500D01*
Y1130750D01*
X668289D01*
Y1154799D01*
X668250Y1154996D01*
Y1155197D01*
X668213Y1155383D01*
X668213Y1155383D01*
Y1155383D01*
X668136Y1155568D01*
X668134Y1155580D01*
X668128Y1155589D01*
X667994Y1155911D01*
X667992Y1155922D01*
X667986Y1155932D01*
X667909Y1156118D01*
X667909Y1156118D01*
X667908Y1156118D01*
X667803Y1156275D01*
X667662Y1156417D01*
X667550Y1156584D01*
X667084Y1157050D01*
X667008Y1157101D01*
X666961Y1157148D01*
X666870Y1157208D01*
X666775Y1157304D01*
X666698Y1157355D01*
X666587Y1157682D01*
X666582Y1157751D01*
X666624Y1158412D01*
X666740Y1158756D01*
X667192Y1159058D01*
X667634Y1159720D01*
X667789Y1160500D01*
Y1169711D01*
X692940D01*
X693788Y1168441D01*
X693500Y1167745D01*
Y1165755D01*
X694261Y1163918D01*
X695668Y1162511D01*
X697505Y1161750D01*
X699495D01*
X701332Y1162511D01*
X702739Y1163918D01*
X703500Y1165755D01*
Y1167745D01*
X703212Y1168441D01*
X703288Y1168776D01*
X704018Y1169814D01*
X704280Y1169866D01*
X704942Y1170308D01*
X705384Y1170970D01*
X705539Y1171750D01*
Y1183133D01*
X705384Y1183913D01*
X704942Y1184575D01*
X704280Y1185017D01*
X703515Y1185334D01*
X704000Y1186506D01*
Y1188495D01*
X703239Y1190332D01*
X701832Y1191739D01*
X700072Y1192468D01*
X699975Y1192754D01*
X699896Y1193770D01*
X701082Y1194261D01*
X702489Y1195668D01*
X703250Y1197505D01*
Y1199495D01*
X702489Y1201332D01*
X701433Y1202389D01*
Y1216871D01*
X701219Y1217944D01*
X700611Y1218854D01*
X699733Y1219733D01*
X698823Y1220340D01*
X697750Y1220554D01*
X663862D01*
X663521Y1221824D01*
X664083Y1222148D01*
X665852Y1223917D01*
X667103Y1226083D01*
X667750Y1228499D01*
Y1231001D01*
X667103Y1233417D01*
X665852Y1235583D01*
X664083Y1237352D01*
X661917Y1238603D01*
X659501Y1239250D01*
X656999D01*
X654583Y1238603D01*
X652417Y1237352D01*
X650648Y1235583D01*
X649397Y1233417D01*
X648750Y1231001D01*
Y1228499D01*
X649397Y1226083D01*
X650648Y1223917D01*
X652417Y1222148D01*
X652979Y1221824D01*
X652638Y1220554D01*
X638462D01*
X638121Y1221824D01*
X638683Y1222148D01*
X640452Y1223917D01*
X641703Y1226083D01*
X642350Y1228499D01*
Y1231001D01*
X641703Y1233417D01*
X640452Y1235583D01*
X638683Y1237352D01*
X636517Y1238603D01*
X634101Y1239250D01*
X631599D01*
X629183Y1238603D01*
X627017Y1237352D01*
X625248Y1235583D01*
X623997Y1233417D01*
X623350Y1231001D01*
Y1228499D01*
X623997Y1226083D01*
X625248Y1223917D01*
X627017Y1222148D01*
X627579Y1221824D01*
X627238Y1220554D01*
X613062D01*
X612721Y1221824D01*
X613283Y1222148D01*
X615052Y1223917D01*
X616303Y1226083D01*
X616950Y1228499D01*
Y1231001D01*
X616303Y1233417D01*
X615052Y1235583D01*
X613283Y1237352D01*
X611117Y1238603D01*
X608701Y1239250D01*
X606199D01*
X603783Y1238603D01*
X601617Y1237352D01*
X599848Y1235583D01*
X598597Y1233417D01*
X597950Y1231001D01*
Y1228499D01*
X598597Y1226083D01*
X599848Y1223917D01*
X601617Y1222148D01*
X602178Y1221824D01*
X601838Y1220554D01*
X595500D01*
X594427Y1220340D01*
X593517Y1219733D01*
X592017Y1218233D01*
X591410Y1217323D01*
X591196Y1216250D01*
Y1210448D01*
X589926Y1210108D01*
X589652Y1210583D01*
X587883Y1212352D01*
X585717Y1213603D01*
X583301Y1214250D01*
X580799D01*
X578383Y1213603D01*
X576217Y1212352D01*
X574448Y1210583D01*
X573197Y1208417D01*
X572550Y1206001D01*
Y1203499D01*
X573197Y1201083D01*
X574448Y1198917D01*
X576217Y1197148D01*
X578383Y1195897D01*
X580799Y1195250D01*
X583301D01*
X583899Y1195410D01*
X584556Y1194272D01*
X566839Y1176554D01*
X497247D01*
X496541Y1177610D01*
X496705Y1178005D01*
Y1179995D01*
X495944Y1181832D01*
X494537Y1183239D01*
X494509Y1183251D01*
Y1212205D01*
X494462Y1212441D01*
X495418Y1213711D01*
X499831D01*
X500171Y1212441D01*
X500017Y1212352D01*
X498248Y1210583D01*
X496997Y1208417D01*
X496350Y1206001D01*
Y1203499D01*
X496997Y1201083D01*
X498248Y1198917D01*
X500017Y1197148D01*
X502183Y1195897D01*
X504599Y1195250D01*
X507101D01*
X509517Y1195897D01*
X511683Y1197148D01*
X513452Y1198917D01*
X514703Y1201083D01*
X515350Y1203499D01*
Y1206001D01*
X514703Y1208417D01*
X513452Y1210583D01*
X511683Y1212352D01*
X511529Y1212441D01*
X511869Y1213711D01*
X525231D01*
X525571Y1212441D01*
X525417Y1212352D01*
X523648Y1210583D01*
X522397Y1208417D01*
X521750Y1206001D01*
Y1203499D01*
X522397Y1201083D01*
X523648Y1198917D01*
X525417Y1197148D01*
X527583Y1195897D01*
X529999Y1195250D01*
X532501D01*
X534917Y1195897D01*
X537083Y1197148D01*
X538852Y1198917D01*
X540103Y1201083D01*
X540750Y1203499D01*
Y1206001D01*
X540103Y1208417D01*
X538852Y1210583D01*
X537083Y1212352D01*
X536929Y1212441D01*
X537269Y1213711D01*
X550631D01*
X550971Y1212441D01*
X550817Y1212352D01*
X549048Y1210583D01*
X547797Y1208417D01*
X547150Y1206001D01*
Y1203499D01*
X547797Y1201083D01*
X549048Y1198917D01*
X550817Y1197148D01*
X552983Y1195897D01*
X555399Y1195250D01*
X557901D01*
X560317Y1195897D01*
X562483Y1197148D01*
X564252Y1198917D01*
X565503Y1201083D01*
X566150Y1203499D01*
Y1206001D01*
X565503Y1208417D01*
X564252Y1210583D01*
X562483Y1212352D01*
X560317Y1213603D01*
X559622Y1213789D01*
X558884Y1214970D01*
X559039Y1215750D01*
Y1220250D01*
X558982Y1220540D01*
X560317Y1220897D01*
X562483Y1222148D01*
X564252Y1223917D01*
X565503Y1226083D01*
X566150Y1228499D01*
Y1231001D01*
X565503Y1233417D01*
X564252Y1235583D01*
X562483Y1237352D01*
X560317Y1238603D01*
X558982Y1238960D01*
X559039Y1239250D01*
Y1245250D01*
X558884Y1246030D01*
X558442Y1246692D01*
X557780Y1247134D01*
X557000Y1247289D01*
X555668D01*
X553770Y1247798D01*
X552069Y1248780D01*
X550680Y1250169D01*
X549698Y1251870D01*
X549189Y1253768D01*
Y1255732D01*
X549698Y1257630D01*
X550680Y1259331D01*
X552069Y1260720D01*
X553770Y1261702D01*
X555668Y1262211D01*
X557000D01*
X557780Y1262366D01*
X558442Y1262808D01*
X558884Y1263470D01*
X559039Y1264250D01*
Y1310544D01*
X559039Y1310548D01*
X559039Y1310552D01*
X558960Y1310940D01*
X558884Y1311325D01*
X558882Y1311328D01*
X558881Y1311332D01*
X558661Y1311658D01*
X558442Y1311986D01*
X558439Y1311988D01*
X558437Y1311992D01*
X557476Y1312945D01*
X557470Y1312949D01*
X557466Y1312955D01*
X557139Y1313169D01*
X556813Y1313385D01*
X556806Y1313386D01*
X556800Y1313390D01*
X556417Y1313462D01*
X556032Y1313537D01*
X556025Y1313535D01*
X556018Y1313537D01*
X486728Y1312789D01*
X486350Y1312710D01*
X485970Y1312634D01*
X485960Y1312628D01*
X485949Y1312625D01*
X485630Y1312407D01*
X485308Y1312192D01*
X485302Y1312183D01*
X485293Y1312176D01*
X485081Y1311853D01*
X484866Y1311530D01*
X484864Y1311519D01*
X484858Y1311510D01*
X484786Y1311130D01*
X484711Y1310750D01*
Y1290000D01*
X479000D01*
Y1276000D01*
X484711D01*
Y1261885D01*
X484866Y1261105D01*
X485308Y1260443D01*
X486420Y1259331D01*
X487402Y1257630D01*
X487911Y1255732D01*
Y1253768D01*
X487402Y1251870D01*
X486420Y1250169D01*
X485308Y1249057D01*
X484866Y1248395D01*
X484711Y1247615D01*
Y1239626D01*
X483441Y1238784D01*
X481701Y1239250D01*
X479199D01*
X476783Y1238603D01*
X474617Y1237352D01*
X473543Y1236278D01*
X472273Y1236804D01*
Y1257670D01*
X472197Y1258053D01*
X472164Y1258443D01*
X467695Y1274023D01*
X467622Y1274166D01*
X467590Y1274323D01*
X467373Y1274648D01*
X467194Y1274996D01*
X467072Y1275099D01*
X466983Y1275233D01*
X420983Y1321233D01*
X420073Y1321840D01*
X419000Y1322054D01*
X365834D01*
X364761Y1321840D01*
X364589Y1321725D01*
X363319Y1322404D01*
Y1344931D01*
X437681D01*
Y1315502D01*
X437011Y1314832D01*
X436250Y1312995D01*
Y1311005D01*
X437011Y1309168D01*
X438418Y1307761D01*
X440255Y1307000D01*
X442245D01*
X444082Y1307761D01*
X445489Y1309168D01*
X446250Y1311005D01*
Y1312995D01*
X445489Y1314832D01*
X444819Y1315502D01*
Y1344931D01*
X483681D01*
Y1340250D01*
X479750D01*
Y1326250D01*
X494750D01*
Y1329831D01*
X501850D01*
Y1326450D01*
X533750D01*
Y1333281D01*
X565307D01*
X566673Y1333553D01*
X567831Y1334327D01*
X569436Y1335931D01*
X576593D01*
X577958Y1336203D01*
X579116Y1336977D01*
X580873Y1338734D01*
X581647Y1339892D01*
X581919Y1341257D01*
Y1348081D01*
X662414D01*
X673519Y1336977D01*
D02*
G37*
G36*
X356181Y1322344D02*
X354911Y1321665D01*
X354649Y1321840D01*
X353576Y1322054D01*
X287129D01*
X286056Y1321840D01*
X285146Y1321233D01*
X284267Y1320354D01*
X283660Y1319444D01*
X283446Y1318371D01*
Y1310304D01*
X277750D01*
Y1313500D01*
X258750D01*
Y1301500D01*
X258750D01*
Y1301000D01*
X258750D01*
Y1289000D01*
X277750D01*
Y1289902D01*
X287402D01*
Y1233250D01*
X287790Y1231299D01*
X288895Y1229645D01*
X305645Y1212895D01*
X306063Y1212616D01*
X306418Y1212261D01*
X306882Y1212069D01*
X307299Y1211790D01*
X307792Y1211692D01*
X308255Y1211500D01*
X308757D01*
X309250Y1211402D01*
X309743Y1211500D01*
X310245D01*
X310708Y1211692D01*
X311201Y1211790D01*
X311618Y1212069D01*
X312082Y1212261D01*
X312437Y1212616D01*
X312855Y1212895D01*
X313134Y1213313D01*
X313489Y1213668D01*
X313681Y1214132D01*
X313960Y1214549D01*
X314058Y1215042D01*
X314250Y1215505D01*
Y1216008D01*
X314348Y1216500D01*
X314250Y1216992D01*
Y1217495D01*
X314058Y1217958D01*
X313960Y1218451D01*
X313681Y1218868D01*
X313489Y1219332D01*
X313134Y1219687D01*
X312855Y1220105D01*
X308383Y1224577D01*
X308531Y1225042D01*
X309006Y1225750D01*
X310745D01*
X310773Y1225762D01*
X317946Y1218589D01*
Y1210054D01*
X277750D01*
Y1216500D01*
X258750D01*
X258750Y1203996D01*
X257852Y1203098D01*
X244500D01*
X244007Y1203000D01*
X243505D01*
X243042Y1202808D01*
X242549Y1202710D01*
X242132Y1202431D01*
X241668Y1202239D01*
X241313Y1201884D01*
X240895Y1201605D01*
X240616Y1201187D01*
X240261Y1200832D01*
X240069Y1200368D01*
X239790Y1199951D01*
X239692Y1199458D01*
X239500Y1198995D01*
Y1198493D01*
X239402Y1198000D01*
X239500Y1197507D01*
Y1197005D01*
X239692Y1196542D01*
X239790Y1196049D01*
X240069Y1195632D01*
X240261Y1195168D01*
X240616Y1194813D01*
X240895Y1194395D01*
X241313Y1194116D01*
X241668Y1193761D01*
X242132Y1193569D01*
X242549Y1193290D01*
X243042Y1193192D01*
X243505Y1193000D01*
X244007D01*
X244500Y1192902D01*
X258750D01*
Y1192000D01*
X277750D01*
X277750Y1204000D01*
X278835Y1204446D01*
X319871D01*
X320944Y1204660D01*
X321854Y1205267D01*
X322733Y1206146D01*
X323340Y1207056D01*
X323554Y1208129D01*
Y1219750D01*
X323340Y1220823D01*
X322733Y1221733D01*
X314738Y1229727D01*
X314750Y1229755D01*
Y1231745D01*
X313989Y1233582D01*
X312582Y1234989D01*
X310745Y1235750D01*
X308755D01*
X306918Y1234989D01*
X305511Y1233582D01*
X304750Y1231745D01*
Y1230006D01*
X304042Y1229531D01*
X303577Y1229383D01*
X297598Y1235362D01*
Y1292988D01*
X313247Y1308637D01*
X313526Y1309054D01*
X313881Y1309409D01*
X314073Y1309873D01*
X314352Y1310291D01*
X314450Y1310783D01*
X314642Y1311247D01*
Y1311749D01*
X314740Y1312242D01*
X314642Y1312734D01*
Y1313236D01*
X314450Y1313700D01*
X314352Y1314193D01*
X314073Y1314610D01*
X313881Y1315074D01*
X313779Y1315176D01*
X314015Y1316016D01*
X314374Y1316446D01*
X351651D01*
Y1298009D01*
X351865Y1296936D01*
X352472Y1296026D01*
X355548Y1292951D01*
X356457Y1292343D01*
X357531Y1292130D01*
X361880D01*
X362953Y1292343D01*
X363862Y1292951D01*
X366938Y1296026D01*
X367546Y1296936D01*
X367759Y1298009D01*
Y1316446D01*
X417839D01*
X462505Y1271780D01*
X466665Y1257275D01*
Y1245844D01*
X465395Y1244964D01*
X465000Y1245042D01*
X418879D01*
X417806Y1244829D01*
X416896Y1244221D01*
X416017Y1243342D01*
X415410Y1242433D01*
X415196Y1241360D01*
Y1216400D01*
X415410Y1215327D01*
X416017Y1214417D01*
X421244Y1209191D01*
X420797Y1208417D01*
X420150Y1206001D01*
Y1203499D01*
X420797Y1201083D01*
X421406Y1200030D01*
X420769Y1198931D01*
X413142Y1198953D01*
X412508Y1200054D01*
X413103Y1201083D01*
X413750Y1203499D01*
Y1206001D01*
X413103Y1208417D01*
X411852Y1210583D01*
X410083Y1212352D01*
X407917Y1213603D01*
X405501Y1214250D01*
X402999D01*
X400583Y1213603D01*
X398417Y1212352D01*
X396648Y1210583D01*
X395397Y1208417D01*
X394750Y1206001D01*
Y1203499D01*
X395397Y1201083D01*
X396648Y1198917D01*
X397197Y1198368D01*
X396671Y1197098D01*
X386429D01*
X385903Y1198368D01*
X386452Y1198917D01*
X387703Y1201083D01*
X388350Y1203499D01*
Y1206001D01*
X387703Y1208417D01*
X386452Y1210583D01*
X384683Y1212352D01*
X382517Y1213603D01*
X380101Y1214250D01*
X377599D01*
X375183Y1213603D01*
X373017Y1212352D01*
X371248Y1210583D01*
X369997Y1208417D01*
X369350Y1206001D01*
Y1203499D01*
X369997Y1201083D01*
X371248Y1198917D01*
X371797Y1198368D01*
X371271Y1197098D01*
X361029D01*
X360503Y1198368D01*
X361052Y1198917D01*
X362303Y1201083D01*
X362950Y1203499D01*
Y1206001D01*
X362303Y1208417D01*
X361052Y1210583D01*
X359283Y1212352D01*
X357117Y1213603D01*
X354701Y1214250D01*
X352199D01*
X349783Y1213603D01*
X347617Y1212352D01*
X345848Y1210583D01*
X344597Y1208417D01*
X343950Y1206001D01*
Y1203499D01*
X344597Y1201083D01*
X345848Y1198917D01*
X346397Y1198368D01*
X345871Y1197098D01*
X300547D01*
X300380Y1197210D01*
X298429Y1197598D01*
X296478Y1197210D01*
X294824Y1196105D01*
X291645Y1192926D01*
X290540Y1191272D01*
X290152Y1189321D01*
Y1143348D01*
X257250D01*
X257232Y1143344D01*
X256250Y1144150D01*
Y1161850D01*
X256250D01*
X256250Y1162500D01*
X256250D01*
Y1182500D01*
X223000D01*
Y1238500D01*
X253681D01*
Y1236978D01*
X227551Y1210847D01*
X226777Y1209690D01*
X226689Y1209248D01*
X226668Y1209239D01*
X225261Y1207832D01*
X224500Y1205995D01*
Y1204005D01*
X225261Y1202168D01*
X226668Y1200761D01*
X228505Y1200000D01*
X230495D01*
X232332Y1200761D01*
X233739Y1202168D01*
X234500Y1204005D01*
Y1205995D01*
X234000Y1207203D01*
X259773Y1232977D01*
X260547Y1234134D01*
X260819Y1235500D01*
Y1278743D01*
X260547Y1280108D01*
X259773Y1281266D01*
X253319Y1287721D01*
Y1317869D01*
X254071Y1318622D01*
X254832Y1320459D01*
Y1322448D01*
X254071Y1324286D01*
X253319Y1325038D01*
Y1327279D01*
X259773Y1333734D01*
X260547Y1334892D01*
X260819Y1336257D01*
Y1344764D01*
X260986Y1344931D01*
X356181D01*
Y1322344D01*
D02*
G37*
G36*
X792888Y1297805D02*
X793000Y1297718D01*
Y926618D01*
X791730Y926187D01*
X791386Y926636D01*
X790028Y927678D01*
X788597Y928270D01*
X788500Y929500D01*
X788500Y929607D01*
Y949500D01*
X754500D01*
Y929500D01*
X776553D01*
X776805Y928230D01*
X775472Y927678D01*
X774114Y926636D01*
X773072Y925278D01*
X772417Y923697D01*
X772194Y922000D01*
X772417Y920303D01*
X773072Y918722D01*
X774114Y917364D01*
X775472Y916322D01*
X777053Y915667D01*
X778750Y915444D01*
X786750D01*
X788447Y915667D01*
X790028Y916322D01*
X791386Y917364D01*
X791730Y917813D01*
X793000Y917382D01*
Y840118D01*
X791730Y839687D01*
X791386Y840136D01*
X790028Y841178D01*
X788447Y841833D01*
X786750Y842056D01*
X778750D01*
X777053Y841833D01*
X775472Y841178D01*
X774114Y840136D01*
X773072Y838778D01*
X772417Y837197D01*
X772194Y835500D01*
X772417Y833803D01*
X773072Y832222D01*
X774114Y830864D01*
X774889Y830270D01*
X774457Y829000D01*
X750843D01*
X750412Y830270D01*
X751186Y830864D01*
X752228Y832222D01*
X752883Y833803D01*
X753106Y835500D01*
X752883Y837197D01*
X752228Y838778D01*
X751186Y840136D01*
X749828Y841178D01*
X748247Y841833D01*
X746550Y842056D01*
X735550D01*
X733853Y841833D01*
X732272Y841178D01*
X730914Y840136D01*
X729872Y838778D01*
X729217Y837197D01*
X728994Y835500D01*
X729217Y833803D01*
X729872Y832222D01*
X730914Y830864D01*
X731689Y830270D01*
X731257Y829000D01*
X604575D01*
X604477Y829079D01*
X604158Y829594D01*
X604002Y830270D01*
X604034Y830308D01*
X604069Y830419D01*
X604134Y830516D01*
X604189Y830795D01*
X604276Y831066D01*
X604267Y831182D01*
X604289Y831296D01*
Y849196D01*
X611000D01*
Y846250D01*
X626000D01*
Y860250D01*
X611000D01*
Y854804D01*
X603661D01*
X597983Y860483D01*
X597073Y861090D01*
X596000Y861304D01*
X590500D01*
Y866000D01*
X576500D01*
Y860804D01*
X572000D01*
Y865500D01*
X568304D01*
Y866321D01*
X568090Y867394D01*
X567483Y868304D01*
X566604Y869183D01*
X565694Y869790D01*
X564621Y870004D01*
X537632D01*
X536840Y871190D01*
X535642Y871990D01*
X534230Y872271D01*
X517770D01*
X516357Y871990D01*
X515160Y871190D01*
X514360Y869992D01*
X514079Y868580D01*
Y865820D01*
X514360Y864408D01*
X515160Y863210D01*
X516357Y862410D01*
X517770Y862129D01*
X534230D01*
X535642Y862410D01*
X536840Y863210D01*
X537632Y864396D01*
X539500D01*
Y861195D01*
X538597Y860302D01*
X518843Y860522D01*
X518750Y860504D01*
X518656Y860515D01*
X518362Y860432D01*
X518061Y860375D01*
X517982Y860323D01*
X517891Y860298D01*
X517651Y860108D01*
X517394Y859940D01*
X517341Y859862D01*
X517267Y859804D01*
X516197Y858546D01*
X516042Y858269D01*
X515866Y858005D01*
X515850Y857923D01*
X515809Y857850D01*
X515773Y857535D01*
X515711Y857224D01*
Y830500D01*
X515757Y830270D01*
X515029Y829144D01*
X514819Y829000D01*
X223000D01*
Y832850D01*
X255750D01*
Y852850D01*
X223000D01*
Y921350D01*
X234898D01*
X235539Y920080D01*
X234955Y918671D01*
Y916682D01*
X235716Y914844D01*
X236431Y914129D01*
Y860257D01*
X236703Y858892D01*
X237477Y857734D01*
X239234Y855977D01*
X240392Y855203D01*
X241757Y854931D01*
X265993D01*
X267358Y855203D01*
X268516Y855977D01*
X270273Y857734D01*
X271047Y858892D01*
X271319Y860257D01*
Y862350D01*
X277250D01*
Y874350D01*
X277250D01*
Y874850D01*
X277250D01*
Y886850D01*
X277250D01*
Y887350D01*
X277250D01*
Y899350D01*
X259750D01*
Y900995D01*
X258989Y902832D01*
X257582Y904239D01*
X255745Y905000D01*
X253755D01*
X252074Y904304D01*
X250804Y904784D01*
Y907923D01*
X251350Y908149D01*
X252756Y909555D01*
X253517Y911393D01*
Y913382D01*
X252756Y915220D01*
X251350Y916627D01*
X249512Y917388D01*
X247523D01*
X246225Y916850D01*
X245005Y917528D01*
X244955Y917594D01*
Y918671D01*
X244371Y920080D01*
X245012Y921350D01*
X255750D01*
Y941350D01*
X223000D01*
Y943850D01*
X255500D01*
Y963850D01*
X223000D01*
Y1032350D01*
X255500D01*
Y1052350D01*
X256152Y1053350D01*
X256250D01*
Y1073350D01*
X223000D01*
Y1141850D01*
X251981D01*
X252467Y1140677D01*
X248645Y1136855D01*
X247540Y1135201D01*
X247152Y1133250D01*
Y1091779D01*
X247540Y1089828D01*
X248645Y1088174D01*
X251574Y1085245D01*
X253228Y1084140D01*
X255179Y1083752D01*
X258750D01*
Y1082850D01*
X277750D01*
Y1094080D01*
X277750Y1094850D01*
X277750Y1096120D01*
Y1098546D01*
X282696D01*
Y1018629D01*
X282910Y1017556D01*
X283517Y1016646D01*
X284396Y1015767D01*
X285306Y1015160D01*
X286379Y1014946D01*
X303827D01*
X303960Y1014624D01*
X305367Y1013218D01*
X307205Y1012456D01*
X309194D01*
X311031Y1013218D01*
X312438Y1014624D01*
X313199Y1016462D01*
Y1018451D01*
X312438Y1020289D01*
X311031Y1021695D01*
X309194Y1022456D01*
X307205D01*
X305367Y1021695D01*
X304226Y1020554D01*
X288304D01*
Y1029550D01*
X289574Y1029936D01*
X289767Y1029646D01*
X290646Y1028767D01*
X291556Y1028160D01*
X292629Y1027946D01*
X306077D01*
X306210Y1027624D01*
X307617Y1026218D01*
X309455Y1025456D01*
X311444D01*
X313281Y1026218D01*
X314688Y1027624D01*
X315449Y1029462D01*
Y1031451D01*
X314688Y1033289D01*
X313281Y1034695D01*
X311444Y1035456D01*
X309455D01*
X307617Y1034695D01*
X306476Y1033554D01*
X294554D01*
Y1112971D01*
X294340Y1114044D01*
X293733Y1114954D01*
X292854Y1115833D01*
X291944Y1116440D01*
X290871Y1116654D01*
X277750D01*
Y1119850D01*
X258750D01*
Y1108620D01*
X258750Y1107850D01*
X258750Y1106580D01*
X258750Y1094846D01*
X258618Y1094714D01*
X257348Y1095240D01*
Y1131138D01*
X259362Y1133152D01*
X292321D01*
X294272Y1133540D01*
X295926Y1134645D01*
X298855Y1137574D01*
X299960Y1139228D01*
X300348Y1141179D01*
Y1186902D01*
X331426D01*
X331961Y1186250D01*
Y1150750D01*
X332116Y1149970D01*
X332558Y1149308D01*
X333220Y1148866D01*
X334000Y1148711D01*
X351211D01*
Y1140500D01*
X336750D01*
Y1126500D01*
X341196D01*
Y1122250D01*
X336500D01*
Y1115539D01*
X315500D01*
X314720Y1115384D01*
X314058Y1114942D01*
X313616Y1114280D01*
X313461Y1113500D01*
Y1095250D01*
X313616Y1094470D01*
X314058Y1093808D01*
X314720Y1093366D01*
X315500Y1093211D01*
X331500D01*
X332280Y1093366D01*
X332942Y1093808D01*
X332942Y1093808D01*
X333442Y1094308D01*
X333884Y1094970D01*
X334039Y1095750D01*
Y1102162D01*
X334370Y1102299D01*
X334376Y1102305D01*
X334383Y1102308D01*
X334577Y1102439D01*
X334604Y1102505D01*
X334804Y1102507D01*
X334804Y1102507D01*
X352402Y1102736D01*
X352402Y1102736D01*
X352596Y1102738D01*
X353500Y1101846D01*
Y1101652D01*
Y1088750D01*
X353655Y1087970D01*
X354097Y1087308D01*
X354759Y1086866D01*
X355242Y1086770D01*
X355116Y1085500D01*
X353750D01*
Y1071500D01*
X368750D01*
Y1080855D01*
X377224Y1089329D01*
X393410D01*
X394823Y1089610D01*
X396020Y1090410D01*
X396820Y1091608D01*
X397101Y1093020D01*
Y1095780D01*
X396820Y1097193D01*
X396725Y1097334D01*
X396714Y1097563D01*
X397169Y1098956D01*
X397322Y1099058D01*
X397764Y1099720D01*
X397919Y1100500D01*
Y1113500D01*
X397764Y1114280D01*
X397322Y1114942D01*
X397077Y1115106D01*
X396619Y1116405D01*
X396607Y1116689D01*
X396820Y1117008D01*
X397101Y1118420D01*
Y1121180D01*
X396820Y1122592D01*
X396587Y1122941D01*
X397266Y1124211D01*
X421711D01*
Y1119250D01*
X421866Y1118470D01*
X421941Y1118358D01*
Y1114000D01*
X422096Y1113220D01*
X422538Y1112558D01*
X423200Y1112116D01*
X423280Y1111986D01*
X423606Y1110740D01*
X423040Y1109893D01*
X422759Y1108480D01*
Y1105720D01*
X423040Y1104308D01*
X423840Y1103110D01*
X425038Y1102310D01*
X426450Y1102029D01*
X442910D01*
X443914Y1102229D01*
X444250Y1102162D01*
X451250D01*
Y1097204D01*
X446312D01*
X445520Y1098390D01*
X444323Y1099190D01*
X442910Y1099471D01*
X426450D01*
X425038Y1099190D01*
X423840Y1098390D01*
X423040Y1097193D01*
X422759Y1095780D01*
Y1093020D01*
X423040Y1091608D01*
X423840Y1090410D01*
X425038Y1089610D01*
X426450Y1089329D01*
X442910D01*
X444323Y1089610D01*
X445520Y1090410D01*
X446312Y1091596D01*
X451250D01*
Y1088750D01*
X455946D01*
Y1084500D01*
X451750D01*
Y1070500D01*
X466750D01*
Y1084500D01*
X461554D01*
Y1088750D01*
X466250D01*
Y1102750D01*
X456856D01*
X456330Y1104020D01*
X458744Y1106435D01*
X458788Y1106500D01*
X466000D01*
Y1119765D01*
X466374Y1120660D01*
X467079Y1120961D01*
X490211D01*
Y1103000D01*
X490366Y1102220D01*
X490808Y1101558D01*
X491470Y1101116D01*
X492250Y1100961D01*
X517750D01*
X518530Y1101116D01*
X518911Y1101371D01*
X519890Y1101029D01*
X520181Y1100808D01*
Y1075502D01*
X519511Y1074832D01*
X518750Y1072995D01*
Y1071005D01*
X519511Y1069168D01*
X520918Y1067761D01*
X522755Y1067000D01*
X524745D01*
X526582Y1067761D01*
X527989Y1069168D01*
X528750Y1071005D01*
Y1072995D01*
X527989Y1074832D01*
X527319Y1075502D01*
Y1127022D01*
X528478Y1128181D01*
X548250D01*
X549616Y1128453D01*
X550773Y1129227D01*
X554023Y1132477D01*
X554191Y1132727D01*
X555461Y1132342D01*
Y1131370D01*
X555479Y1131279D01*
X555475Y1131257D01*
X555483Y1131216D01*
X555476Y1131123D01*
X555490Y1131009D01*
X555576Y1130747D01*
X555630Y1130476D01*
X555700Y1130372D01*
X555739Y1130253D01*
X555919Y1130044D01*
X556072Y1129815D01*
X556153Y1129734D01*
X556230Y1129682D01*
X556258Y1129650D01*
X556278Y1129640D01*
X556339Y1129570D01*
X557045Y1129017D01*
X557112Y1128983D01*
X557208Y1128908D01*
X557321Y1128851D01*
X557383Y1128803D01*
X557450Y1128769D01*
X557496Y1128756D01*
X557684Y1128631D01*
X557807Y1128606D01*
X557919Y1128550D01*
X558145Y1128533D01*
X558189Y1128515D01*
X558262Y1128500D01*
X558341D01*
X558464Y1128475D01*
X558587D01*
X558660Y1128461D01*
X568961D01*
Y1125000D01*
X554000D01*
Y1111000D01*
X558696D01*
Y1106250D01*
X553500D01*
Y1092250D01*
X566905D01*
X567097Y1092153D01*
X567864Y1091367D01*
X567961Y1091000D01*
Y1069500D01*
X568116Y1068720D01*
X568558Y1068058D01*
X569220Y1067616D01*
X570000Y1067461D01*
X571000D01*
Y1055250D01*
X586000D01*
Y1065285D01*
X596243Y1075527D01*
X596850Y1076437D01*
X597038Y1077379D01*
X610230D01*
X611642Y1077660D01*
X612840Y1078460D01*
X613640Y1079658D01*
X613921Y1081070D01*
Y1083830D01*
X613640Y1085242D01*
X613427Y1085561D01*
X613439Y1085845D01*
X613897Y1087144D01*
X614142Y1087308D01*
X614584Y1087970D01*
X614739Y1088750D01*
Y1102500D01*
X614584Y1103280D01*
X614142Y1103942D01*
X613640Y1105058D01*
X613921Y1106470D01*
Y1109230D01*
X613640Y1110642D01*
X612840Y1111840D01*
X611642Y1112640D01*
X610230Y1112921D01*
X593770D01*
X592358Y1112640D01*
X592059Y1112441D01*
X590789Y1113119D01*
Y1114711D01*
X637211D01*
Y1107501D01*
X637250Y1107304D01*
Y1107103D01*
X637285Y1106926D01*
X637362Y1106740D01*
X637366Y1106720D01*
X637377Y1106704D01*
X637421Y1106598D01*
X637436Y1106520D01*
X637481Y1106453D01*
X637590Y1106191D01*
X637590Y1106191D01*
X637590Y1106191D01*
X637790Y1105990D01*
X637879Y1105858D01*
X638010Y1105770D01*
X638152Y1105628D01*
X638152Y1105628D01*
X638152Y1105628D01*
X638187Y1105605D01*
X638373Y1105528D01*
X638540Y1105416D01*
X638737Y1105377D01*
X638761Y1105367D01*
Y1103012D01*
X638782Y1102907D01*
X638772Y1102800D01*
X638859Y1102520D01*
X638916Y1102232D01*
X638976Y1102142D01*
X639007Y1102040D01*
X639195Y1101814D01*
X639358Y1101570D01*
X639447Y1101511D01*
X639516Y1101428D01*
X640534Y1100603D01*
X640570Y1100584D01*
X640599Y1100542D01*
X640747Y1099560D01*
X640660Y1099140D01*
X639860Y1097943D01*
X639579Y1096530D01*
Y1093770D01*
X639860Y1092358D01*
X640660Y1091160D01*
X641858Y1090360D01*
X643270Y1090079D01*
X659730D01*
X661142Y1090360D01*
X662340Y1091160D01*
X663140Y1092358D01*
X663300Y1093162D01*
X668500D01*
Y1085564D01*
X662925D01*
X662340Y1086440D01*
X661142Y1087240D01*
X659730Y1087521D01*
X643270D01*
X641858Y1087240D01*
X640660Y1086440D01*
X639860Y1085242D01*
X639579Y1083830D01*
Y1081070D01*
X639860Y1079658D01*
X640660Y1078460D01*
X641858Y1077660D01*
X643270Y1077379D01*
X659730D01*
X661142Y1077660D01*
X662340Y1078460D01*
X663140Y1079658D01*
X663199Y1079956D01*
X668500D01*
Y1079750D01*
X672696D01*
Y1074750D01*
X668000D01*
Y1060750D01*
X683000D01*
Y1074750D01*
X678304D01*
Y1079750D01*
X683500D01*
Y1093750D01*
X679725D01*
X679248Y1094454D01*
X679097Y1095020D01*
X679989Y1096354D01*
X680338Y1098110D01*
Y1098250D01*
X683000D01*
Y1112250D01*
X680338D01*
Y1116750D01*
X682711D01*
Y1115000D01*
X682866Y1114220D01*
X683308Y1113558D01*
X683970Y1113116D01*
X684750Y1112961D01*
X704961D01*
Y1083500D01*
X705116Y1082720D01*
X705558Y1082058D01*
X706220Y1081616D01*
X707000Y1081461D01*
X726750D01*
X726750Y1081461D01*
X727530Y1081616D01*
X728192Y1082058D01*
X729692Y1083558D01*
X730134Y1084220D01*
X730289Y1085000D01*
Y1108086D01*
X731462Y1108572D01*
X733000Y1107035D01*
Y1099000D01*
X752000D01*
Y1110230D01*
X752000Y1111000D01*
X752000D01*
Y1111500D01*
X752000D01*
Y1122730D01*
X752000Y1123500D01*
X752000D01*
Y1124000D01*
X752000D01*
Y1135230D01*
X752000Y1136000D01*
X752000D01*
Y1136500D01*
X752000D01*
Y1147730D01*
X752000Y1148500D01*
X752000D01*
Y1149000D01*
X752000D01*
Y1160230D01*
X752000Y1161000D01*
X752000D01*
Y1161500D01*
X752000D01*
Y1173500D01*
X738554D01*
Y1235230D01*
X738543Y1235283D01*
X739245Y1236138D01*
X739694Y1236324D01*
X740750Y1235618D01*
Y1223250D01*
X754750D01*
Y1238250D01*
X755835Y1238696D01*
X759250D01*
X760323Y1238910D01*
X761233Y1239517D01*
X767733Y1246017D01*
X768340Y1246927D01*
X768554Y1248000D01*
Y1282268D01*
X769250Y1283250D01*
X775021D01*
Y1274303D01*
X774350Y1273633D01*
X773589Y1271795D01*
Y1269806D01*
X774350Y1267968D01*
X775757Y1266562D01*
X777595Y1265801D01*
X779584D01*
X781421Y1266562D01*
X782828Y1267968D01*
X783589Y1269806D01*
Y1271795D01*
X782828Y1273633D01*
X782158Y1274303D01*
Y1283250D01*
X788250D01*
Y1294703D01*
X791730Y1298183D01*
X792888Y1297805D01*
D02*
G37*
G36*
X557000Y1310544D02*
Y1264250D01*
X555399D01*
X552983Y1263603D01*
X550817Y1262352D01*
X549048Y1260583D01*
X547797Y1258417D01*
X547150Y1256001D01*
Y1253499D01*
X547797Y1251083D01*
X549048Y1248917D01*
X550817Y1247148D01*
X552983Y1245897D01*
X555399Y1245250D01*
X557000D01*
Y1239250D01*
X555399D01*
X552983Y1238603D01*
X550817Y1237352D01*
X549048Y1235583D01*
X547797Y1233417D01*
X547150Y1231001D01*
Y1228499D01*
X547797Y1226083D01*
X549048Y1223917D01*
X550817Y1222148D01*
X552983Y1220897D01*
X555399Y1220250D01*
X557000D01*
Y1215750D01*
X492125D01*
X490393Y1217483D01*
X489483Y1218090D01*
X488410Y1218304D01*
X486750D01*
Y1222615D01*
X488052Y1223917D01*
X489303Y1226083D01*
X489950Y1228499D01*
Y1231001D01*
X489303Y1233417D01*
X488052Y1235583D01*
X486750Y1236885D01*
Y1247615D01*
X488052Y1248917D01*
X489303Y1251083D01*
X489950Y1253499D01*
Y1256001D01*
X489303Y1258417D01*
X488052Y1260583D01*
X486750Y1261885D01*
Y1310750D01*
X556040Y1311498D01*
X557000Y1310544D01*
D02*
G37*
G36*
X424279Y1196881D02*
X425983Y1195897D01*
X428399Y1195250D01*
X430901D01*
X433317Y1195897D01*
X434966Y1196850D01*
X449810Y1196806D01*
X451383Y1195897D01*
X453799Y1195250D01*
X456301D01*
X458717Y1195897D01*
X460237Y1196775D01*
X462431Y1196769D01*
Y1188411D01*
X462703Y1187045D01*
X463250Y1186227D01*
Y1178750D01*
X449520Y1178750D01*
X448750Y1178750D01*
X448500Y1179000D01*
X448250Y1178750D01*
X448250Y1177687D01*
Y1171250D01*
X386750D01*
X385923Y1170423D01*
X384750Y1170909D01*
Y1186902D01*
X405138D01*
X410145Y1181895D01*
X411799Y1180790D01*
X413750Y1180402D01*
X415701Y1180790D01*
X417355Y1181895D01*
X418460Y1183549D01*
X418848Y1185500D01*
X418460Y1187451D01*
X417355Y1189105D01*
X410855Y1195605D01*
X410786Y1195651D01*
X411173Y1196920D01*
X424279Y1196881D01*
D02*
G37*
G36*
X481887Y1167477D02*
X483045Y1166703D01*
X484411Y1166431D01*
X540522D01*
X547931Y1159022D01*
Y1136478D01*
X546772Y1135319D01*
X527000D01*
X525634Y1135047D01*
X524477Y1134273D01*
X521227Y1131023D01*
X521059Y1130773D01*
X519789Y1131158D01*
Y1157345D01*
X519788Y1157353D01*
X519789Y1157360D01*
X519710Y1157743D01*
X519634Y1158126D01*
X519630Y1158132D01*
X519628Y1158139D01*
X519409Y1158463D01*
X519192Y1158787D01*
X519186Y1158792D01*
X519181Y1158798D01*
X518277Y1159689D01*
X518271Y1159693D01*
X518266Y1159700D01*
X517937Y1159913D01*
X517612Y1160126D01*
X517605Y1160128D01*
X517598Y1160132D01*
X517215Y1160202D01*
X516831Y1160276D01*
X516823Y1160274D01*
X516816Y1160276D01*
X466574Y1159544D01*
X466193Y1159463D01*
X465809Y1159383D01*
X465803Y1159379D01*
X465796Y1159378D01*
X465475Y1159156D01*
X465151Y1158936D01*
X465147Y1158930D01*
X465141Y1158926D01*
X464928Y1158597D01*
X464714Y1158272D01*
X464610Y1158017D01*
X464537Y1157633D01*
X464461Y1157250D01*
Y1138750D01*
X451000D01*
X450289Y1139726D01*
Y1161750D01*
X450253Y1161932D01*
X450256Y1162118D01*
X450176Y1162319D01*
X450134Y1162530D01*
X450031Y1162685D01*
X449962Y1162858D01*
X446727Y1167858D01*
X446646Y1167941D01*
X446676Y1168267D01*
X446873Y1168773D01*
X447187Y1169211D01*
X448250D01*
X449030Y1169366D01*
X449692Y1169808D01*
X450134Y1170470D01*
X450289Y1171250D01*
Y1176711D01*
X463250Y1176711D01*
X464030Y1176866D01*
X464692Y1177308D01*
X465134Y1177970D01*
X465289Y1178750D01*
Y1182415D01*
X466463Y1182901D01*
X481887Y1167477D01*
D02*
G37*
G36*
X694719Y1190230D02*
X694000Y1188495D01*
Y1186506D01*
X694761Y1184668D01*
X696168Y1183261D01*
X698005Y1182500D01*
X699995D01*
X701832Y1183261D01*
X702230Y1183659D01*
X703500Y1183133D01*
Y1171750D01*
X666750D01*
X665750Y1170750D01*
Y1160500D01*
X593000D01*
X591000Y1162500D01*
X591250Y1191500D01*
X694270D01*
X694719Y1190230D01*
D02*
G37*
G36*
X665460Y1155735D02*
X665519Y1155706D01*
X665566Y1155659D01*
X665642Y1155608D01*
X666108Y1155142D01*
X666213Y1154985D01*
X666250Y1154799D01*
Y1130750D01*
Y1102338D01*
X660610D01*
X660167Y1102250D01*
X642250D01*
X641818Y1102188D01*
X640800Y1103012D01*
Y1107300D01*
X639320D01*
X639285Y1107324D01*
X639250Y1107501D01*
Y1116750D01*
X589000D01*
X588750Y1116500D01*
Y1110750D01*
X571500D01*
X571000Y1111250D01*
Y1130500D01*
X558660D01*
X558587Y1130515D01*
X558464D01*
X558368Y1130590D01*
X558301Y1130624D01*
X557595Y1131176D01*
X557514Y1131257D01*
X557500Y1131370D01*
Y1139877D01*
X558556Y1140583D01*
X558755Y1140500D01*
X560745D01*
X562582Y1141261D01*
X563989Y1142668D01*
X564750Y1144505D01*
Y1146495D01*
X563989Y1148332D01*
X562582Y1149739D01*
X560745Y1150500D01*
X558755D01*
X558556Y1150417D01*
X557500Y1151123D01*
Y1155750D01*
X665446D01*
X665460Y1155735D01*
D02*
G37*
G36*
X382250Y1186750D02*
Y1166750D01*
X445015D01*
X448250Y1161750D01*
Y1114000D01*
X423980D01*
Y1119250D01*
X423750D01*
Y1125187D01*
X423750Y1126250D01*
X423500Y1126500D01*
X423250Y1126250D01*
X422480Y1126250D01*
X353250D01*
Y1149750D01*
X352250Y1150750D01*
X334000D01*
Y1186250D01*
X334652Y1186902D01*
X382098D01*
X382250Y1186750D01*
D02*
G37*
G36*
X395880Y1100500D02*
X372750D01*
Y1093000D01*
X368500Y1088750D01*
X355539D01*
Y1101846D01*
X355538Y1101853D01*
X355539Y1101859D01*
X355460Y1102244D01*
X355384Y1102626D01*
X355380Y1102632D01*
X355379Y1102639D01*
X355160Y1102962D01*
X354942Y1103288D01*
X354936Y1103292D01*
X354933Y1103297D01*
X354029Y1104190D01*
X354023Y1104193D01*
X354019Y1104199D01*
X353690Y1104413D01*
X353364Y1104627D01*
X353358Y1104629D01*
X353352Y1104632D01*
X352968Y1104703D01*
X352583Y1104777D01*
X352576Y1104776D01*
X352570Y1104777D01*
X334577Y1104544D01*
X334194Y1104462D01*
X333811Y1104383D01*
X333805Y1104380D01*
X333799Y1104378D01*
X333475Y1104156D01*
X333239Y1103996D01*
X332000Y1103750D01*
X332000D01*
Y1095750D01*
X331500Y1095250D01*
X315500D01*
Y1113500D01*
X336500D01*
Y1108250D01*
X351500D01*
Y1113500D01*
X353500D01*
Y1108250D01*
X368500D01*
Y1113500D01*
X395880D01*
Y1100500D01*
D02*
G37*
G36*
X517750Y1157345D02*
Y1103000D01*
X492250D01*
Y1123000D01*
X466500D01*
Y1157250D01*
X466604Y1157505D01*
X516845Y1158237D01*
X517750Y1157345D01*
D02*
G37*
G36*
X693250Y1152005D02*
X694011Y1150168D01*
X695418Y1148761D01*
X697255Y1148000D01*
X699245D01*
X701082Y1148761D01*
X702489Y1150168D01*
X702915Y1151196D01*
X703230Y1151250D01*
X704500Y1150180D01*
Y1133000D01*
X727000Y1110500D01*
X728250D01*
Y1085000D01*
X726750Y1083500D01*
X707000D01*
Y1114750D01*
X706750Y1115000D01*
X684750D01*
Y1151500D01*
X684957Y1152009D01*
X693144Y1152110D01*
X693250Y1152005D01*
D02*
G37*
G36*
X612700Y1088750D02*
X590750D01*
Y1085826D01*
X590360Y1085242D01*
X590079Y1083830D01*
Y1081070D01*
X590360Y1079658D01*
X590680Y1079180D01*
X581000Y1069500D01*
X570000D01*
Y1091000D01*
X570053Y1091431D01*
X571424Y1092250D01*
X585500D01*
Y1099669D01*
X585944Y1099757D01*
X586854Y1100365D01*
X588989Y1102500D01*
X612700D01*
Y1088750D01*
D02*
G37*
G36*
X539500Y858253D02*
Y851000D01*
X539750D01*
Y850250D01*
X550285D01*
X556767Y843767D01*
X557677Y843160D01*
X558000Y843095D01*
Y833500D01*
X572000D01*
Y848500D01*
X561021D01*
X560750Y848554D01*
X560525D01*
X560206Y848980D01*
X560842Y850250D01*
X600285D01*
X600517Y850017D01*
X601427Y849410D01*
X602250Y849246D01*
Y831296D01*
X601250Y830500D01*
X517750D01*
Y857224D01*
X518820Y858483D01*
X539500Y858253D01*
D02*
G37*
%LPC*%
G36*
X695741Y1244468D02*
X693752D01*
X691914Y1243707D01*
X690508Y1242300D01*
X689746Y1240463D01*
Y1238474D01*
X690508Y1236636D01*
X691914Y1235229D01*
X693752Y1234468D01*
X695741D01*
X697579Y1235229D01*
X698985Y1236636D01*
X699746Y1238474D01*
Y1240463D01*
X698985Y1242300D01*
X697579Y1243707D01*
X695741Y1244468D01*
D02*
G37*
G36*
X583301Y1239250D02*
X580799D01*
X578383Y1238603D01*
X576217Y1237352D01*
X574448Y1235583D01*
X573197Y1233417D01*
X572550Y1231001D01*
Y1228499D01*
X573197Y1226083D01*
X574448Y1223917D01*
X576217Y1222148D01*
X578383Y1220897D01*
X580799Y1220250D01*
X583301D01*
X585717Y1220897D01*
X587883Y1222148D01*
X589652Y1223917D01*
X590903Y1226083D01*
X591550Y1228499D01*
Y1231001D01*
X590903Y1233417D01*
X589652Y1235583D01*
X587883Y1237352D01*
X585717Y1238603D01*
X583301Y1239250D01*
D02*
G37*
G36*
X310200Y1342433D02*
X308211D01*
X306373Y1341672D01*
X304966Y1340266D01*
X304205Y1338428D01*
Y1336439D01*
X304966Y1334601D01*
X306373Y1333195D01*
X308211Y1332434D01*
X310200D01*
X312037Y1333195D01*
X313444Y1334601D01*
X314205Y1336439D01*
Y1338428D01*
X313444Y1340266D01*
X312037Y1341672D01*
X310200Y1342433D01*
D02*
G37*
G36*
X311245Y1277000D02*
X309255D01*
X307418Y1276239D01*
X306011Y1274832D01*
X305250Y1272995D01*
Y1271005D01*
X306011Y1269168D01*
X307418Y1267761D01*
X309255Y1267000D01*
X311245D01*
X313082Y1267761D01*
X314489Y1269168D01*
X315250Y1271005D01*
Y1272995D01*
X314489Y1274832D01*
X313082Y1276239D01*
X311245Y1277000D01*
D02*
G37*
G36*
X405501Y1239250D02*
X402999D01*
X400583Y1238603D01*
X398417Y1237352D01*
X396648Y1235583D01*
X395397Y1233417D01*
X394750Y1231001D01*
Y1228499D01*
X395397Y1226083D01*
X396648Y1223917D01*
X398417Y1222148D01*
X400583Y1220897D01*
X402999Y1220250D01*
X405501D01*
X407917Y1220897D01*
X410083Y1222148D01*
X411852Y1223917D01*
X413103Y1226083D01*
X413750Y1228499D01*
Y1231001D01*
X413103Y1233417D01*
X411852Y1235583D01*
X410083Y1237352D01*
X407917Y1238603D01*
X405501Y1239250D01*
D02*
G37*
G36*
X380101D02*
X377599D01*
X375183Y1238603D01*
X373017Y1237352D01*
X371248Y1235583D01*
X369997Y1233417D01*
X369350Y1231001D01*
Y1228499D01*
X369997Y1226083D01*
X371248Y1223917D01*
X373017Y1222148D01*
X375183Y1220897D01*
X377599Y1220250D01*
X380101D01*
X382517Y1220897D01*
X384683Y1222148D01*
X386452Y1223917D01*
X387703Y1226083D01*
X388350Y1228499D01*
Y1231001D01*
X387703Y1233417D01*
X386452Y1235583D01*
X384683Y1237352D01*
X382517Y1238603D01*
X380101Y1239250D01*
D02*
G37*
G36*
X354701D02*
X352199D01*
X349783Y1238603D01*
X347617Y1237352D01*
X345848Y1235583D01*
X344597Y1233417D01*
X343950Y1231001D01*
Y1228499D01*
X344597Y1226083D01*
X345848Y1223917D01*
X347617Y1222148D01*
X349783Y1220897D01*
X352199Y1220250D01*
X354701D01*
X357117Y1220897D01*
X359283Y1222148D01*
X361052Y1223917D01*
X362303Y1226083D01*
X362950Y1228499D01*
Y1231001D01*
X362303Y1233417D01*
X361052Y1235583D01*
X359283Y1237352D01*
X357117Y1238603D01*
X354701Y1239250D01*
D02*
G37*
G36*
X788500Y1203000D02*
X754500D01*
Y1183000D01*
X788500D01*
Y1203000D01*
D02*
G37*
G36*
X720000Y1074750D02*
X706000D01*
Y1070554D01*
X700000D01*
Y1074750D01*
X685000D01*
Y1060750D01*
X700000D01*
Y1064946D01*
X706000D01*
Y1059750D01*
X720000D01*
Y1074750D01*
D02*
G37*
G36*
X788500Y1089500D02*
X754500D01*
Y1069500D01*
X788500D01*
Y1089500D01*
D02*
G37*
G36*
X483750Y1084500D02*
X468750D01*
Y1070500D01*
X483750D01*
Y1074696D01*
X490750D01*
Y1069000D01*
X504750D01*
Y1084000D01*
X490750D01*
Y1080304D01*
X483750D01*
Y1084500D01*
D02*
G37*
G36*
X442910Y1086771D02*
X426450D01*
X425038Y1086490D01*
X423840Y1085690D01*
X423040Y1084492D01*
X422759Y1083080D01*
Y1080320D01*
X423040Y1078908D01*
X423840Y1077710D01*
X425038Y1076910D01*
X426450Y1076629D01*
X435946D01*
Y1068250D01*
X431750D01*
Y1064799D01*
X430480Y1063958D01*
X430000Y1064054D01*
X426250D01*
Y1068750D01*
X412250D01*
Y1054789D01*
X403250D01*
X402470Y1054634D01*
X401808Y1054192D01*
X401366Y1053530D01*
X401211Y1052750D01*
Y1027250D01*
X401279Y1026906D01*
X401331Y1026559D01*
X401357Y1026517D01*
X401366Y1026470D01*
X401561Y1026178D01*
X401742Y1025878D01*
X401781Y1025849D01*
X401808Y1025808D01*
X402100Y1025613D01*
X402382Y1025405D01*
X403445Y1024905D01*
X403492Y1024893D01*
X403532Y1024866D01*
X403877Y1024798D01*
X404217Y1024713D01*
X404265Y1024720D01*
X404313Y1024711D01*
X494000D01*
X494780Y1024866D01*
X495442Y1025308D01*
X495884Y1025970D01*
X496039Y1026750D01*
Y1048250D01*
X495884Y1049030D01*
X495442Y1049692D01*
X494780Y1050134D01*
X494000Y1050289D01*
X467854D01*
X467073Y1050134D01*
X466412Y1049692D01*
X465970Y1049030D01*
X465866Y1048780D01*
X465760Y1048250D01*
X462054D01*
Y1052500D01*
X466750D01*
Y1066500D01*
X451750D01*
Y1062304D01*
X445750D01*
Y1068250D01*
X441554D01*
Y1076629D01*
X442910D01*
X444323Y1076910D01*
X445520Y1077710D01*
X446320Y1078908D01*
X446601Y1080320D01*
Y1083080D01*
X446320Y1084492D01*
X445520Y1085690D01*
X444323Y1086490D01*
X442910Y1086771D01*
D02*
G37*
G36*
X659730Y1074821D02*
X643270D01*
X641858Y1074540D01*
X640660Y1073740D01*
X639860Y1072542D01*
X639579Y1071130D01*
Y1068370D01*
X639860Y1066958D01*
X640660Y1065760D01*
X641858Y1064960D01*
X643270Y1064679D01*
X652446D01*
Y1059500D01*
X648250D01*
Y1055874D01*
X647121Y1054804D01*
X642750D01*
Y1059500D01*
X628750D01*
Y1045789D01*
X590000D01*
X589220Y1045634D01*
X588558Y1045192D01*
X588116Y1044530D01*
X587961Y1043750D01*
Y1014500D01*
X588116Y1013720D01*
X588558Y1013058D01*
X588558Y1013058D01*
X589189Y1012427D01*
X589851Y1011985D01*
X590631Y1011830D01*
X605511D01*
X606428Y1011552D01*
X606529Y1011542D01*
X606622Y1011503D01*
X606922D01*
X607220Y1011474D01*
X607317Y1011503D01*
X607418D01*
X607695Y1011618D01*
X607981Y1011705D01*
X608060Y1011769D01*
X608153Y1011808D01*
X608365Y1012019D01*
X608596Y1012209D01*
X608644Y1012299D01*
X608716Y1012370D01*
X608848Y1012569D01*
X611431Y1015152D01*
X614468Y1017181D01*
X617842Y1018578D01*
X621424Y1019291D01*
X625076D01*
X628658Y1018578D01*
X632032Y1017181D01*
X635069Y1015152D01*
X637652Y1012569D01*
X638121Y1011867D01*
X638263Y1011725D01*
X638374Y1011558D01*
X638541Y1011447D01*
X638683Y1011304D01*
X638869Y1011228D01*
X639036Y1011116D01*
X639233Y1011077D01*
X639418Y1011000D01*
X639619D01*
X639816Y1010961D01*
X705250D01*
X706030Y1011116D01*
X706780Y1011427D01*
X707442Y1011869D01*
X707884Y1012530D01*
X708039Y1013311D01*
Y1038500D01*
X707884Y1039280D01*
X707442Y1039942D01*
X706780Y1040384D01*
X706000Y1040539D01*
X684750D01*
X683970Y1040384D01*
X683308Y1039942D01*
X682808Y1039442D01*
X682366Y1038780D01*
X682211Y1038000D01*
Y1037250D01*
X678054D01*
Y1042000D01*
X682750D01*
Y1056000D01*
X667750D01*
Y1051804D01*
X662250D01*
Y1059500D01*
X658054D01*
Y1064679D01*
X659730D01*
X661142Y1064960D01*
X662340Y1065760D01*
X663140Y1066958D01*
X663421Y1068370D01*
Y1071130D01*
X663140Y1072542D01*
X662340Y1073740D01*
X661142Y1074540D01*
X659730Y1074821D01*
D02*
G37*
G36*
X788500Y1063000D02*
X754500D01*
Y1043000D01*
X788500D01*
Y1063000D01*
D02*
G37*
G36*
X352957Y1045747D02*
X350968D01*
X349131Y1044986D01*
X347724Y1043579D01*
X346963Y1041741D01*
Y1039752D01*
X347724Y1037915D01*
X349131Y1036508D01*
X350968Y1035747D01*
X352957D01*
X354795Y1036508D01*
X356202Y1037915D01*
X356963Y1039752D01*
Y1041741D01*
X356202Y1043579D01*
X354795Y1044986D01*
X352957Y1045747D01*
D02*
G37*
G36*
X744245Y1069500D02*
X742255D01*
X740418Y1068739D01*
X739011Y1067332D01*
X738250Y1065495D01*
Y1064547D01*
X731852Y1058148D01*
X731078Y1056991D01*
X730806Y1055625D01*
Y1024353D01*
X727227Y1020773D01*
X726453Y1019616D01*
X726181Y1018250D01*
Y955257D01*
X726453Y953892D01*
X727227Y952734D01*
X728984Y950977D01*
X730142Y950203D01*
X731507Y949931D01*
X745247D01*
X745918Y949261D01*
X747755Y948500D01*
X749745D01*
X751582Y949261D01*
X752989Y950668D01*
X753750Y952505D01*
Y954495D01*
X752989Y956332D01*
X751582Y957739D01*
X749745Y958500D01*
X747755D01*
X745918Y957739D01*
X745247Y957069D01*
X733319D01*
Y971500D01*
X752000D01*
Y974696D01*
X766638D01*
X767935Y973399D01*
X769773Y972638D01*
X771762D01*
X773599Y973399D01*
X775006Y974805D01*
X775767Y976643D01*
Y978632D01*
X775006Y980470D01*
X773599Y981877D01*
X771762Y982638D01*
X769773D01*
X767935Y981877D01*
X766528Y980470D01*
X766460Y980304D01*
X752000D01*
Y983500D01*
X752000D01*
Y984000D01*
X752000D01*
Y987196D01*
X767388D01*
X768185Y986399D01*
X770023Y985638D01*
X772012D01*
X773849Y986399D01*
X775256Y987805D01*
X776017Y989643D01*
Y991632D01*
X775256Y993470D01*
X773849Y994876D01*
X772012Y995638D01*
X770023D01*
X768185Y994876D01*
X766778Y993470D01*
X766503Y992804D01*
X752000D01*
Y996000D01*
X752000D01*
Y996500D01*
X752000D01*
Y999696D01*
X768366D01*
X768528Y999305D01*
X769935Y997899D01*
X771773Y997138D01*
X773762D01*
X775600Y997899D01*
X777006Y999305D01*
X777767Y1001143D01*
Y1003132D01*
X777006Y1004970D01*
X775600Y1006376D01*
X773762Y1007138D01*
X771773D01*
X769935Y1006376D01*
X768862Y1005304D01*
X752000D01*
Y1008500D01*
X752000D01*
Y1009000D01*
X752000D01*
Y1012196D01*
X771220D01*
X771278Y1012055D01*
X772685Y1010649D01*
X774523Y1009888D01*
X776512D01*
X778350Y1010649D01*
X779756Y1012055D01*
X780517Y1013893D01*
Y1015882D01*
X779756Y1017720D01*
X778350Y1019127D01*
X776512Y1019888D01*
X774523D01*
X772685Y1019127D01*
X771362Y1017804D01*
X752000D01*
Y1021000D01*
X752000Y1021000D01*
Y1021500D01*
X752000D01*
X752000Y1022270D01*
Y1033500D01*
X737944D01*
Y1054147D01*
X743297Y1059500D01*
X744245D01*
X746082Y1060261D01*
X747489Y1061668D01*
X748250Y1063505D01*
Y1065495D01*
X747489Y1067332D01*
X746082Y1068739D01*
X744245Y1069500D01*
D02*
G37*
G36*
X410330Y1021330D02*
X369170D01*
Y980170D01*
X410330D01*
Y998662D01*
X419750D01*
Y995000D01*
X433750D01*
Y1010000D01*
X419750D01*
Y1007838D01*
X410330D01*
Y1021330D01*
D02*
G37*
G36*
X574500Y1031304D02*
X525129D01*
X524056Y1031090D01*
X523146Y1030483D01*
X522267Y1029604D01*
X521660Y1028694D01*
X521446Y1027621D01*
Y992911D01*
X511259Y982724D01*
X454283D01*
X449525Y987483D01*
X448615Y988090D01*
X447542Y988304D01*
X433750D01*
Y993000D01*
X419750D01*
Y978000D01*
X423946D01*
Y971000D01*
X419250D01*
Y957000D01*
X434250D01*
Y971000D01*
X429554D01*
Y978000D01*
X433750D01*
Y982696D01*
X446381D01*
X451139Y977937D01*
X452049Y977330D01*
X453122Y977116D01*
X512420D01*
X513493Y977330D01*
X514403Y977937D01*
X526233Y989767D01*
X526840Y990677D01*
X527054Y991750D01*
Y1025696D01*
X573339D01*
X574196Y1024839D01*
Y1017000D01*
X574410Y1015927D01*
X575017Y1015017D01*
X607572Y982462D01*
X607086Y981289D01*
X571830D01*
Y1021330D01*
X530670D01*
Y980170D01*
X530670D01*
X531711Y979250D01*
Y946870D01*
X531730Y946776D01*
X531725Y946754D01*
X531733Y946715D01*
X531726Y946623D01*
X531740Y946506D01*
X531812Y946287D01*
Y946240D01*
X531817Y946215D01*
X531833Y946178D01*
X531834Y946139D01*
X531848Y946108D01*
X531851Y946097D01*
X531860Y946078D01*
X531880Y945973D01*
X531928Y945857D01*
X531948Y945828D01*
X531975Y945747D01*
X531912Y945553D01*
X531387Y944712D01*
X531160Y944539D01*
X527819D01*
Y946750D01*
X527544Y948838D01*
X526738Y950785D01*
X525456Y952456D01*
X523784Y953738D01*
X521838Y954544D01*
X519750Y954819D01*
X517662Y954544D01*
X515715Y953738D01*
X514044Y952456D01*
X512762Y950785D01*
X511956Y948838D01*
X511681Y946750D01*
Y944539D01*
X501319D01*
Y946750D01*
X501044Y948838D01*
X500238Y950785D01*
X498956Y952456D01*
X497285Y953738D01*
X495338Y954544D01*
X493250Y954819D01*
X491162Y954544D01*
X489216Y953738D01*
X487544Y952456D01*
X486262Y950785D01*
X485456Y948838D01*
X485181Y946750D01*
Y944539D01*
X404750D01*
X404750Y944539D01*
X403970Y944384D01*
X403308Y943942D01*
X402808Y943442D01*
X402366Y942780D01*
X402211Y942000D01*
Y912500D01*
X402366Y911720D01*
X402808Y911058D01*
X403470Y910616D01*
X404250Y910461D01*
X414961D01*
Y908000D01*
X400500D01*
Y894000D01*
X404446D01*
Y889500D01*
X399750D01*
Y875500D01*
X412577D01*
X412736Y875440D01*
X413711Y874848D01*
Y854750D01*
X413866Y853970D01*
X414308Y853308D01*
X414970Y852866D01*
X415750Y852711D01*
X415774D01*
X416750Y852000D01*
Y838000D01*
X431750D01*
Y841196D01*
X460871D01*
X461944Y841410D01*
X462854Y842017D01*
X463733Y842896D01*
X464340Y843806D01*
X464554Y844879D01*
Y874981D01*
X465559Y875920D01*
X465660Y875910D01*
X466858Y875110D01*
X468270Y874829D01*
X484730D01*
X486143Y875110D01*
X487340Y875910D01*
X488140Y877107D01*
X488421Y878520D01*
Y881280D01*
X488140Y882692D01*
X488642Y883558D01*
X489084Y884220D01*
X489239Y885000D01*
Y898500D01*
X489084Y899280D01*
X488642Y899942D01*
X488085Y900314D01*
X487953Y900490D01*
X487632Y901748D01*
X488140Y902507D01*
X488421Y903920D01*
Y906680D01*
X488140Y908092D01*
X488074Y908191D01*
X488753Y909461D01*
X502711D01*
Y904750D01*
X502866Y903970D01*
X503308Y903308D01*
X503970Y902866D01*
X504750Y902711D01*
X513261D01*
Y899750D01*
X513416Y898970D01*
X513858Y898308D01*
X514520Y897866D01*
X514723Y897825D01*
X514971Y897126D01*
X515081Y896471D01*
X514360Y895392D01*
X514079Y893980D01*
Y891220D01*
X514360Y889808D01*
X515160Y888610D01*
X516357Y887810D01*
X517770Y887529D01*
X534230D01*
X535642Y887810D01*
X536840Y888610D01*
X537632Y889796D01*
X602850D01*
X603923Y890010D01*
X604833Y890617D01*
X608577Y894361D01*
X609750Y893875D01*
Y884500D01*
X614446D01*
Y880678D01*
X613273Y880192D01*
X611583Y881883D01*
X610673Y882490D01*
X609600Y882704D01*
X537632D01*
X536840Y883890D01*
X535642Y884690D01*
X534230Y884971D01*
X517770D01*
X516357Y884690D01*
X515160Y883890D01*
X514360Y882692D01*
X514079Y881280D01*
Y878520D01*
X514360Y877107D01*
X515160Y875910D01*
X516357Y875110D01*
X517770Y874829D01*
X534230D01*
X535642Y875110D01*
X536840Y875910D01*
X537632Y877096D01*
X608439D01*
X610750Y874785D01*
Y864750D01*
X625750D01*
Y878750D01*
X620054D01*
Y884500D01*
X624750D01*
Y898500D01*
X614375D01*
X613889Y899673D01*
X615233Y901017D01*
X615840Y901927D01*
X616054Y903000D01*
Y904750D01*
X625500D01*
Y918750D01*
X620804D01*
Y925500D01*
X625500D01*
Y925500D01*
X626711Y925357D01*
Y922750D01*
X626866Y921970D01*
X627308Y921308D01*
X627970Y920866D01*
X628750Y920711D01*
X655622D01*
X655874Y919441D01*
X654623Y918922D01*
X653216Y917516D01*
X652455Y915678D01*
Y913689D01*
X653216Y911851D01*
X654623Y910445D01*
X656460Y909684D01*
X658450D01*
X660287Y910445D01*
X660953Y911111D01*
X662223Y910584D01*
Y884929D01*
X662611Y882978D01*
X663716Y881324D01*
X665370Y880219D01*
X667321Y879831D01*
X691709D01*
X693540Y878000D01*
X669709Y854169D01*
X664000D01*
X662049Y853781D01*
X660395Y852676D01*
X659568Y851438D01*
X658970Y850994D01*
X657972Y850906D01*
X656700Y851433D01*
X654710D01*
X652873Y850672D01*
X651466Y849266D01*
X650705Y847428D01*
Y845439D01*
X651466Y843601D01*
X652873Y842195D01*
X654710Y841433D01*
X656700D01*
X657632Y841820D01*
X658902Y840971D01*
Y838429D01*
X659290Y836478D01*
X660395Y834824D01*
X663324Y831895D01*
X664978Y830790D01*
X666929Y830402D01*
X715157D01*
X717108Y830790D01*
X718762Y831895D01*
X728655Y841788D01*
X729760Y843442D01*
X730148Y845393D01*
Y849152D01*
X734750D01*
X736701Y849540D01*
X737015Y849750D01*
X740950D01*
Y848856D01*
X741711Y847018D01*
X743118Y845611D01*
X744955Y844850D01*
X746945D01*
X748782Y845611D01*
X750189Y847018D01*
X750950Y848856D01*
Y850845D01*
X750189Y852682D01*
X748782Y854089D01*
X746945Y854850D01*
X744955D01*
X744220Y854545D01*
X742950Y855394D01*
Y862750D01*
Y872750D01*
Y882750D01*
Y892750D01*
Y902106D01*
X744220Y902955D01*
X744955Y902650D01*
X746945D01*
X748782Y903411D01*
X750189Y904818D01*
X750950Y906655D01*
Y908645D01*
X750189Y910482D01*
X748782Y911889D01*
X746945Y912650D01*
X744955D01*
X743118Y911889D01*
X741711Y910482D01*
X740950Y908645D01*
Y907750D01*
X735742D01*
X735250Y907848D01*
X730298D01*
X730148Y907998D01*
Y916351D01*
X731418Y916978D01*
X732272Y916322D01*
X733853Y915667D01*
X735550Y915444D01*
X746550D01*
X748247Y915667D01*
X749828Y916322D01*
X751186Y917364D01*
X752228Y918722D01*
X752883Y920303D01*
X753106Y922000D01*
X752883Y923697D01*
X752228Y925278D01*
X751186Y926636D01*
X749828Y927678D01*
X748247Y928333D01*
X746550Y928556D01*
X735550D01*
X733853Y928333D01*
X732272Y927678D01*
X731418Y927022D01*
X730148Y927649D01*
Y935321D01*
X729760Y937272D01*
X728655Y938926D01*
X726226Y941355D01*
X724572Y942460D01*
X722621Y942848D01*
X690750D01*
X688799Y942460D01*
X687145Y941355D01*
X670462Y924672D01*
X669289Y925158D01*
Y955687D01*
X669289Y956572D01*
X669589Y957256D01*
X669629Y957438D01*
X669634Y957445D01*
X669646Y957508D01*
X669702Y957627D01*
X669729Y957734D01*
X669736Y957892D01*
X669758Y957979D01*
X669760Y958023D01*
X669759Y958029D01*
X669760Y958033D01*
X669756Y958057D01*
X669789Y958226D01*
Y979799D01*
X669760Y979946D01*
Y979982D01*
X669750Y980031D01*
Y980197D01*
X669721Y980344D01*
X669670Y980466D01*
X669639Y980673D01*
X669614Y980714D01*
X669605Y980762D01*
X669462Y980975D01*
X669436Y981048D01*
X669424Y981062D01*
X669416Y981079D01*
X669361Y981134D01*
X669229Y981354D01*
X669190Y981383D01*
X669163Y981423D01*
X668989Y981540D01*
X668900Y981637D01*
X668780Y981726D01*
X668630Y981796D01*
X668588Y981827D01*
X668557Y981842D01*
X668436Y981931D01*
X667702Y982276D01*
X667553Y982313D01*
X667548Y982316D01*
X667529Y982321D01*
X667506Y982336D01*
X667461Y982355D01*
X667373Y982373D01*
X667232Y982431D01*
X667123Y982452D01*
X667123D01*
X667016Y982479D01*
X666864Y982486D01*
X666776Y982508D01*
X666728Y982510D01*
X666701Y982506D01*
X666681Y982510D01*
X666675Y982509D01*
X666524Y982539D01*
X656914D01*
X656428Y983712D01*
X663161Y990446D01*
X693646D01*
X693761Y990168D01*
X695168Y988761D01*
X697005Y988000D01*
X698995D01*
X700832Y988761D01*
X702239Y990168D01*
X703000Y992005D01*
Y993995D01*
X702239Y995832D01*
X700832Y997239D01*
X698995Y998000D01*
X697005D01*
X695168Y997239D01*
X693983Y996054D01*
X662000D01*
X660927Y995840D01*
X660017Y995233D01*
X647089Y982304D01*
X615661D01*
X579804Y1018161D01*
Y1026000D01*
X579590Y1027073D01*
X578983Y1027983D01*
X576483Y1030483D01*
X575573Y1031090D01*
X574500Y1031304D01*
D02*
G37*
G36*
X277000Y1010350D02*
X258000D01*
Y998350D01*
X258000D01*
Y997850D01*
X258000D01*
Y986620D01*
X258000Y985850D01*
X258000Y984580D01*
Y973350D01*
X263931D01*
Y969731D01*
X263216Y969016D01*
X262455Y967178D01*
Y965189D01*
X263216Y963351D01*
X264623Y961945D01*
X266460Y961183D01*
X268450D01*
X270287Y961945D01*
X271694Y963351D01*
X272455Y965189D01*
Y967178D01*
X271694Y969016D01*
X271069Y969641D01*
Y973350D01*
X276926D01*
X277000Y973350D01*
X278196Y973172D01*
Y965161D01*
X272017Y958983D01*
X271410Y958073D01*
X271196Y957000D01*
Y952751D01*
X271168Y952739D01*
X269761Y951332D01*
X269000Y949495D01*
Y947505D01*
X269489Y946324D01*
X269433Y946198D01*
X268441Y945535D01*
X267781Y946195D01*
X265944Y946956D01*
X263955D01*
X262117Y946195D01*
X260710Y944789D01*
X259949Y942951D01*
Y940962D01*
X260710Y939124D01*
X262117Y937718D01*
X263955Y936956D01*
X265944D01*
X267781Y937718D01*
X269188Y939124D01*
X269321Y939446D01*
X286121D01*
X287194Y939660D01*
X288104Y940267D01*
X288983Y941146D01*
X289590Y942056D01*
X289804Y943129D01*
Y1003000D01*
X289590Y1004073D01*
X288983Y1004983D01*
X288233Y1005733D01*
X287323Y1006340D01*
X286250Y1006554D01*
X277000D01*
Y1010350D01*
D02*
G37*
G36*
X358250Y954819D02*
X356162Y954544D01*
X354216Y953738D01*
X352544Y952456D01*
X351262Y950785D01*
X350456Y948838D01*
X350181Y946750D01*
Y934750D01*
X350456Y932662D01*
X351262Y930715D01*
X352544Y929044D01*
X354216Y927762D01*
X356162Y926956D01*
X358250Y926681D01*
X360338Y926956D01*
X362285Y927762D01*
X363956Y929044D01*
X365238Y930715D01*
X366044Y932662D01*
X366319Y934750D01*
Y946750D01*
X366044Y948838D01*
X365238Y950785D01*
X363956Y952456D01*
X362285Y953738D01*
X360338Y954544D01*
X358250Y954819D01*
D02*
G37*
G36*
X664000Y878750D02*
X649000D01*
Y874554D01*
X642750D01*
Y878750D01*
X627750D01*
Y864750D01*
X642750D01*
Y868946D01*
X649000D01*
Y864750D01*
X664000D01*
Y878750D01*
D02*
G37*
%LPD*%
G36*
X428696Y1051500D02*
X428910Y1050427D01*
X429000Y1050292D01*
Y1033750D01*
X467750D01*
Y1048000D01*
X467854Y1048250D01*
X494000D01*
Y1026750D01*
X404313D01*
X403250Y1027250D01*
Y1052750D01*
X428696D01*
Y1051500D01*
D02*
G37*
G36*
X645000Y1025750D02*
X647250Y1023500D01*
X647500Y1023750D01*
X667750D01*
Y1023250D01*
X682750D01*
Y1023750D01*
X684250D01*
Y1038000D01*
X684750Y1038500D01*
X706000D01*
Y1013311D01*
X705250Y1013000D01*
X639816D01*
X639235Y1013869D01*
X636369Y1016736D01*
X632998Y1018988D01*
X629253Y1020539D01*
X625277Y1021330D01*
X621223D01*
X617247Y1020539D01*
X613502Y1018988D01*
X610131Y1016736D01*
X607265Y1013869D01*
X607020Y1013503D01*
X605814Y1013869D01*
X590631D01*
X590000Y1014500D01*
Y1043750D01*
X645000D01*
Y1025750D01*
D02*
G37*
G36*
X612517Y977517D02*
X613427Y976910D01*
X614500Y976696D01*
X625000D01*
Y963750D01*
X606750D01*
Y960250D01*
Y946201D01*
X606715Y946023D01*
X606679Y946000D01*
X535128D01*
X533936Y946263D01*
X533923Y946295D01*
X533912Y946385D01*
X533872Y946504D01*
X533834Y946572D01*
X533827Y946599D01*
X533817Y946613D01*
X533812Y946638D01*
X533764Y946754D01*
X533750Y946870D01*
Y979250D01*
X610785D01*
X612517Y977517D01*
D02*
G37*
G36*
X605750Y900250D02*
X605250Y899750D01*
X515300D01*
Y904750D01*
X504750D01*
Y911250D01*
X504500Y911500D01*
X443500D01*
Y892000D01*
X443250Y891750D01*
X417000D01*
Y912250D01*
X417250Y912500D01*
X404250D01*
Y942000D01*
X404750Y942500D01*
X485181D01*
Y934750D01*
X485456Y932662D01*
X486262Y930715D01*
X487544Y929044D01*
X489216Y927762D01*
X491162Y926956D01*
X493250Y926681D01*
X495338Y926956D01*
X497285Y927762D01*
X498956Y929044D01*
X500238Y930715D01*
X501044Y932662D01*
X501319Y934750D01*
Y942500D01*
X511681D01*
Y934750D01*
X511956Y932662D01*
X512762Y930715D01*
X514044Y929044D01*
X515715Y927762D01*
X517662Y926956D01*
X519750Y926681D01*
X521838Y926956D01*
X523784Y927762D01*
X525456Y929044D01*
X526738Y930715D01*
X527544Y932662D01*
X527819Y934750D01*
Y942500D01*
X605750D01*
Y900250D01*
D02*
G37*
G36*
X666632Y980473D02*
X666681Y980471D01*
X666725Y980452D01*
X666834Y980431D01*
X667568Y980085D01*
X667689Y979996D01*
X667721Y979982D01*
Y979946D01*
X667750Y979799D01*
Y958226D01*
X667723Y958118D01*
X667721Y958075D01*
X667250Y957000D01*
X667250Y957000D01*
X667250Y956544D01*
X667250Y955687D01*
Y922951D01*
X667217Y922783D01*
X667049Y922750D01*
X628750D01*
Y954000D01*
Y958073D01*
X650248Y958468D01*
X650396Y958500D01*
X652000D01*
X652250Y958750D01*
Y979535D01*
X653215Y980500D01*
X666524D01*
X666632Y980473D01*
D02*
G37*
G36*
X650211Y976092D02*
Y960507D01*
X628713Y960112D01*
X628342Y960031D01*
X627970Y959957D01*
X627954Y959947D01*
X627935Y959943D01*
X627623Y959726D01*
X627308Y959515D01*
X627298Y959500D01*
X627282Y959489D01*
X627077Y959169D01*
X626866Y958854D01*
X626862Y958835D01*
X626852Y958819D01*
X626785Y958446D01*
X626711Y958073D01*
Y954000D01*
Y939643D01*
X625500Y939500D01*
Y939500D01*
X610500D01*
Y925500D01*
X615196D01*
Y918750D01*
X610500D01*
Y907771D01*
X610446Y907500D01*
Y904161D01*
X608963Y902678D01*
X607789Y903164D01*
Y942500D01*
X607634Y943280D01*
X607666Y943437D01*
X608121Y944558D01*
X608209Y944690D01*
X608410Y944890D01*
X608410Y944890D01*
X608410Y944891D01*
X608519Y945153D01*
X608563Y945220D01*
X608579Y945298D01*
X608623Y945404D01*
X608634Y945420D01*
X608638Y945440D01*
X608715Y945625D01*
Y945626D01*
X608715Y945626D01*
X608750Y945803D01*
Y946004D01*
X608789Y946201D01*
Y961711D01*
X625000D01*
X625780Y961866D01*
X626442Y962308D01*
X626884Y962970D01*
X627039Y963750D01*
Y976696D01*
X648250D01*
X648941Y976834D01*
X650211Y976092D01*
D02*
G37*
G36*
X487200Y885000D02*
X462500D01*
X462250Y885250D01*
X459500Y882500D01*
Y878082D01*
X459160Y877573D01*
X458946Y876500D01*
Y854750D01*
X415750D01*
Y874848D01*
X416750Y875500D01*
X431750D01*
Y879696D01*
X447000D01*
X448073Y879910D01*
X448957Y880500D01*
X450500D01*
Y882035D01*
X450733Y882267D01*
X451340Y883177D01*
X451554Y884250D01*
Y898307D01*
X456000Y898500D01*
X487200D01*
Y885000D01*
D02*
G37*
G36*
X719952Y917000D02*
X707000D01*
Y902000D01*
X717035D01*
X720630Y898405D01*
Y897684D01*
X720844Y896611D01*
X721451Y895701D01*
X727135Y890017D01*
X727550Y889740D01*
Y882750D01*
Y872750D01*
Y864054D01*
X726775D01*
X725702Y863840D01*
X724792Y863233D01*
X718614Y857054D01*
X715500D01*
X715229Y857000D01*
X704250D01*
Y842000D01*
X711404D01*
X712082Y840730D01*
X711994Y840598D01*
X669098D01*
Y843973D01*
X671821D01*
X673772Y844361D01*
X675426Y845466D01*
X704164Y874204D01*
X704240Y874318D01*
X704355Y874395D01*
X704634Y874813D01*
X704989Y875168D01*
X705181Y875631D01*
X705460Y876049D01*
X705558Y876542D01*
X705750Y877005D01*
Y877507D01*
X705848Y878000D01*
X705750Y878493D01*
Y878995D01*
X705558Y879458D01*
X705460Y879951D01*
X705181Y880368D01*
X704989Y880832D01*
X704634Y881187D01*
X704355Y881605D01*
X697426Y888534D01*
X695772Y889639D01*
X693821Y890027D01*
X672419D01*
Y912209D01*
X692862Y932652D01*
X719952D01*
Y917000D01*
D02*
G37*
%LPC*%
G36*
X654750Y954819D02*
X652662Y954544D01*
X650715Y953738D01*
X649044Y952456D01*
X647762Y950785D01*
X646956Y948838D01*
X646681Y946750D01*
Y934750D01*
X646956Y932662D01*
X647762Y930715D01*
X649044Y929044D01*
X650715Y927762D01*
X652662Y926956D01*
X654750Y926681D01*
X656838Y926956D01*
X658784Y927762D01*
X660456Y929044D01*
X661738Y930715D01*
X662544Y932662D01*
X662819Y934750D01*
Y946750D01*
X662544Y948838D01*
X661738Y950785D01*
X660456Y952456D01*
X658784Y953738D01*
X656838Y954544D01*
X654750Y954819D01*
D02*
G37*
G36*
X532501Y1264250D02*
X529999D01*
X527583Y1263603D01*
X525417Y1262352D01*
X523648Y1260583D01*
X522397Y1258417D01*
X521750Y1256001D01*
Y1253499D01*
X522397Y1251083D01*
X523648Y1248917D01*
X525417Y1247148D01*
X527583Y1245897D01*
X529999Y1245250D01*
X532501D01*
X534917Y1245897D01*
X537083Y1247148D01*
X538852Y1248917D01*
X540103Y1251083D01*
X540750Y1253499D01*
Y1256001D01*
X540103Y1258417D01*
X538852Y1260583D01*
X537083Y1262352D01*
X534917Y1263603D01*
X532501Y1264250D01*
D02*
G37*
G36*
X507101D02*
X504599D01*
X502183Y1263603D01*
X500017Y1262352D01*
X498248Y1260583D01*
X496997Y1258417D01*
X496350Y1256001D01*
Y1253499D01*
X496997Y1251083D01*
X498248Y1248917D01*
X500017Y1247148D01*
X502183Y1245897D01*
X504599Y1245250D01*
X507101D01*
X509517Y1245897D01*
X511683Y1247148D01*
X513452Y1248917D01*
X514703Y1251083D01*
X515350Y1253499D01*
Y1256001D01*
X514703Y1258417D01*
X513452Y1260583D01*
X511683Y1262352D01*
X509517Y1263603D01*
X507101Y1264250D01*
D02*
G37*
G36*
X532501Y1239250D02*
X529999D01*
X527583Y1238603D01*
X525417Y1237352D01*
X523648Y1235583D01*
X522397Y1233417D01*
X521750Y1231001D01*
Y1228499D01*
X522397Y1226083D01*
X523648Y1223917D01*
X525417Y1222148D01*
X527583Y1220897D01*
X529999Y1220250D01*
X532501D01*
X534917Y1220897D01*
X537083Y1222148D01*
X538852Y1223917D01*
X540103Y1226083D01*
X540750Y1228499D01*
Y1231001D01*
X540103Y1233417D01*
X538852Y1235583D01*
X537083Y1237352D01*
X534917Y1238603D01*
X532501Y1239250D01*
D02*
G37*
G36*
X507101D02*
X504599D01*
X502183Y1238603D01*
X500017Y1237352D01*
X498248Y1235583D01*
X496997Y1233417D01*
X496350Y1231001D01*
Y1228499D01*
X496997Y1226083D01*
X498248Y1223917D01*
X500017Y1222148D01*
X502183Y1220897D01*
X504599Y1220250D01*
X507101D01*
X509517Y1220897D01*
X511683Y1222148D01*
X513452Y1223917D01*
X514703Y1226083D01*
X515350Y1228499D01*
Y1231001D01*
X514703Y1233417D01*
X513452Y1235583D01*
X511683Y1237352D01*
X509517Y1238603D01*
X507101Y1239250D01*
D02*
G37*
%LPD*%
G36*
X534130Y1261702D02*
X535831Y1260720D01*
X537220Y1259331D01*
X538202Y1257630D01*
X538711Y1255732D01*
Y1253768D01*
X538202Y1251870D01*
X537220Y1250169D01*
X535831Y1248780D01*
X534130Y1247798D01*
X532232Y1247289D01*
X530268D01*
X528370Y1247798D01*
X526669Y1248780D01*
X525280Y1250169D01*
X524298Y1251870D01*
X523789Y1253768D01*
Y1255732D01*
X524298Y1257630D01*
X525280Y1259331D01*
X526669Y1260720D01*
X528370Y1261702D01*
X530268Y1262211D01*
X532232D01*
X534130Y1261702D01*
D02*
G37*
G36*
X508730D02*
X510431Y1260720D01*
X511820Y1259331D01*
X512802Y1257630D01*
X513311Y1255732D01*
Y1253768D01*
X512802Y1251870D01*
X511820Y1250169D01*
X510431Y1248780D01*
X508730Y1247798D01*
X506832Y1247289D01*
X504868D01*
X502970Y1247798D01*
X501269Y1248780D01*
X499880Y1250169D01*
X498898Y1251870D01*
X498389Y1253768D01*
Y1255732D01*
X498898Y1257630D01*
X499880Y1259331D01*
X501269Y1260720D01*
X502970Y1261702D01*
X504868Y1262211D01*
X506832D01*
X508730Y1261702D01*
D02*
G37*
%LPC*%
G36*
X370651Y1146935D02*
X368662D01*
X366824Y1146174D01*
X365418Y1144768D01*
X364657Y1142930D01*
Y1140941D01*
X365418Y1139103D01*
X366824Y1137696D01*
X368662Y1136935D01*
X370651D01*
X372489Y1137696D01*
X373895Y1139103D01*
X374657Y1140941D01*
Y1142930D01*
X373895Y1144768D01*
X372489Y1146174D01*
X370651Y1146935D01*
D02*
G37*
%LPD*%
D14*
X748371Y1241500D02*
X759250D01*
X738612D02*
X748371D01*
X765750Y1324250D02*
X778750D01*
X723750D02*
X765750D01*
Y1248000D02*
Y1324250D01*
X759250Y1241500D02*
X765750Y1248000D01*
X748620Y1314380D02*
X761500Y1301500D01*
X744250Y1261500D02*
X760621D01*
X761500Y1262379D02*
Y1301500D01*
X760621Y1261500D02*
X761500Y1262379D01*
X711370Y1314380D02*
X748620D01*
X726500Y1252750D02*
X739500Y1265750D01*
X755500Y1266629D02*
Y1298871D01*
X739500Y1265750D02*
X754621D01*
X755500Y1266629D01*
X750750Y1272629D02*
Y1298871D01*
X722750Y1158750D02*
Y1270871D01*
X723629Y1271750D01*
X749871D01*
X750750Y1272629D01*
X716732Y1278889D02*
X719250Y1276371D01*
X712611Y1278889D02*
X716732D01*
X711750Y1279750D02*
X712611Y1278889D01*
X719250Y1149750D02*
Y1276371D01*
X707250Y1318500D02*
X711370Y1314380D01*
X733000Y1237980D02*
Y1250250D01*
X744250Y1261500D01*
X726500Y1167500D02*
Y1252750D01*
X713000Y1299750D02*
X749871D01*
X750750Y1298871D01*
X726500Y1305150D02*
X749221D01*
X755500Y1298871D01*
X711750Y1298500D02*
X713000Y1299750D01*
X711750Y1292450D02*
Y1298500D01*
X722750Y1158750D02*
X739000Y1142500D01*
X726500Y1167500D02*
X739000Y1155000D01*
X738250Y1241138D02*
X738612Y1241500D01*
X733000Y1237980D02*
X735750Y1235230D01*
X748371Y1241500D02*
X749250Y1240621D01*
Y1232250D02*
Y1240621D01*
X735750Y1170750D02*
Y1235230D01*
X697750Y1217750D02*
X698629Y1216871D01*
Y1198879D02*
Y1216871D01*
X712250Y1131750D02*
Y1251121D01*
X709750Y1253621D02*
X712250Y1251121D01*
X595500Y1217750D02*
X697750D01*
X709750Y1253621D02*
Y1254250D01*
X712250Y1131750D02*
X739000Y1105000D01*
X698250Y1198500D02*
X698629Y1198879D01*
X697750Y993250D02*
X698000Y993000D01*
X662000Y993250D02*
X697750D01*
X319871Y1207250D02*
X320750Y1208129D01*
Y1219750D01*
X271500Y1207250D02*
X319871D01*
X268250Y1210500D02*
X271500Y1207250D01*
X309750Y1230750D02*
X320750Y1219750D01*
X287129Y1319250D02*
X353576D01*
X285371Y1307500D02*
X286250Y1308379D01*
X268250Y1307500D02*
X285371D01*
X286250Y1308379D02*
Y1318371D01*
X287129Y1319250D01*
X364955Y1318371D02*
X365834Y1319250D01*
X419000D01*
X465000Y1273250D01*
X364955Y1298009D02*
Y1318371D01*
X354455Y1298009D02*
Y1318371D01*
Y1298009D02*
X357531Y1294933D01*
X361880D01*
X353576Y1319250D02*
X354455Y1318371D01*
X361880Y1294933D02*
X364955Y1298009D01*
X723434Y897684D02*
Y899566D01*
X729118Y892000D02*
X734500D01*
X714000Y909000D02*
X723434Y899566D01*
X714000Y909000D02*
Y909500D01*
X723434Y897684D02*
X729118Y892000D01*
X734500D02*
X735250Y891250D01*
X711250Y849500D02*
Y850000D01*
X715500Y854250D01*
X719775D01*
X726775Y861250D01*
X735250D01*
X568000Y1173750D02*
X594000Y1199750D01*
X485515Y1174629D02*
Y1178735D01*
X491705Y1179000D02*
Y1212205D01*
X485515Y1174629D02*
X486394Y1173750D01*
X568000D01*
X488410Y1215500D02*
X491705Y1212205D01*
X465000Y1273250D02*
X469469Y1257670D01*
X478750Y1215500D02*
X488410D01*
X469469Y1219629D02*
Y1257670D01*
Y1219629D02*
X470348Y1218750D01*
X475500D01*
X478750Y1215500D01*
X418879Y1242238D02*
X465000D01*
X469250Y1215250D02*
X470622Y1213877D01*
Y1193627D02*
Y1213877D01*
Y1193627D02*
X485515Y1178735D01*
X465879Y1215250D02*
X469250D01*
X465000Y1216129D02*
Y1242238D01*
Y1216129D02*
X465879Y1215250D01*
X418000Y1241360D02*
X418439Y1241799D01*
X418439Y1241799D02*
X418879Y1242238D01*
X418000Y1216400D02*
Y1241360D01*
Y1216400D02*
X429650Y1204750D01*
X594000Y1199750D02*
Y1216250D01*
X595500Y1217750D01*
X648250Y979500D02*
X662000Y993250D01*
X614500Y979500D02*
X648250D01*
X577000Y1017000D02*
X614500Y979500D01*
X577000Y1017000D02*
Y1026000D01*
X524250Y991750D02*
Y1027621D01*
X525129Y1028500D01*
X574500D01*
X577000Y1026000D01*
X512420Y979920D02*
X524250Y991750D01*
X426750Y985500D02*
X447542D01*
X453122Y979920D01*
X512420D01*
X426750Y964000D02*
Y985500D01*
X249253Y881497D02*
X249900Y880850D01*
X267750D01*
X248000Y882750D02*
Y912750D01*
Y882750D02*
X249253Y881497D01*
X407250Y882500D02*
Y900250D01*
X408000Y901000D01*
X461750Y844879D02*
Y876500D01*
X424250Y845000D02*
X425250Y844000D01*
X460871D01*
X461750Y844879D01*
X465150Y879900D02*
X476500D01*
X461750Y876500D02*
X465150Y879900D01*
X453050Y905300D02*
X476500D01*
X448750Y901000D02*
X453050Y905300D01*
X448750Y884250D02*
Y901000D01*
X424250Y882500D02*
X447000D01*
X448750Y884250D01*
X618000Y911750D02*
Y932500D01*
X635250Y871750D02*
X656500D01*
X617250Y872750D02*
Y891500D01*
Y872750D02*
X618250Y871750D01*
X617500Y911750D02*
X618000D01*
X613250Y907500D02*
X617500Y911750D01*
X613250Y903000D02*
Y907500D01*
X602850Y892600D02*
X613250Y903000D01*
X526000Y892600D02*
X602850D01*
X526000Y879900D02*
X609600D01*
X617750Y871750D01*
X618250D01*
X617250Y852000D02*
X618500Y853250D01*
X602500Y852000D02*
X617250D01*
X583500Y858500D02*
X596000D01*
X602500Y852000D01*
X565000Y858000D02*
X583000D01*
X583500Y858500D01*
X546500Y858000D02*
Y858500D01*
Y858000D02*
X558750Y845750D01*
X560750D01*
X565000Y841500D01*
Y841000D02*
Y841500D01*
X526000Y867200D02*
X564621D01*
X565000Y858000D02*
X565500Y858500D01*
Y866321D01*
X564621Y867200D02*
X565500Y866321D01*
X581098Y1102347D02*
X584871D01*
X588500Y1105976D01*
X592465D01*
X594649Y1108160D01*
X601970D01*
X578000Y1099250D02*
X581098Y1102347D01*
X596444Y1082760D02*
X601970D01*
X594260Y1080576D02*
X596444Y1082760D01*
X594260Y1077510D02*
Y1080576D01*
X579000Y1062250D02*
X594260Y1077510D01*
X578500Y1062250D02*
X579000D01*
X561500Y1099750D02*
Y1118000D01*
X561000Y1099250D02*
X561500Y1099750D01*
X434680Y1107100D02*
X444250D01*
X458500Y1129250D02*
Y1131750D01*
X675500Y1097750D02*
Y1105250D01*
X675750Y1105500D02*
Y1123750D01*
X675500Y1105250D02*
X675750Y1105500D01*
X692500Y1067750D02*
X712500D01*
X713000Y1067250D01*
X675500Y1086250D02*
X676000Y1086750D01*
X672010Y1082760D02*
X675500Y1086250D01*
X651470Y1082760D02*
X672010D01*
X675500Y1067750D02*
Y1086250D01*
X658250Y1049000D02*
X675250D01*
X655250Y1052000D02*
X658250Y1049000D01*
X675250Y1030250D02*
Y1049000D01*
X675250Y1049000D01*
X648000Y1045568D02*
X649318Y1044250D01*
X648000Y1045568D02*
Y1051121D01*
X649318Y1044250D02*
X651621D01*
X652500Y1037750D02*
X655250Y1035000D01*
X652500Y1037750D02*
Y1043371D01*
X651621Y1044250D02*
X652500Y1043371D01*
X635750Y1052000D02*
X647121D01*
X648000Y1051121D01*
X651470Y1070060D02*
X653066D01*
X655250Y1067876D01*
Y1052000D02*
Y1067876D01*
X476250Y1077500D02*
X496750D01*
X497750Y1076500D01*
X378330Y1094400D02*
X385180D01*
X366680Y1082750D02*
X378330Y1094400D01*
X365500Y1082750D02*
X366680D01*
X361250Y1078500D02*
X365500Y1082750D01*
X344000Y1115250D02*
Y1133250D01*
X344250Y1133500D01*
X366050Y1119800D02*
X385180D01*
X361500Y1115250D02*
X366050Y1119800D01*
X361000Y1115250D02*
X361500D01*
X451600Y1107100D02*
X458000Y1113500D01*
X458500D01*
X434680Y1094400D02*
X457400D01*
X458750Y1095750D01*
Y1078000D02*
X459250Y1077500D01*
X458750Y1078000D02*
Y1095750D01*
X438750Y1060750D02*
Y1079516D01*
X436566Y1081700D02*
X438750Y1079516D01*
X434680Y1081700D02*
X436566D01*
X459250Y1041500D02*
Y1059500D01*
Y1041500D02*
X459500Y1041250D01*
X438750Y1060750D02*
X440000Y1059500D01*
X459250D01*
X431500Y1051500D02*
Y1059750D01*
Y1051500D02*
X438750Y1044250D01*
Y1043750D02*
Y1044250D01*
X419250Y1061250D02*
X430000D01*
X431500Y1059750D01*
X716250Y1140250D02*
X739000Y1117500D01*
X713500Y1266671D02*
Y1267050D01*
Y1266671D02*
X716250Y1263921D01*
Y1140250D02*
Y1263921D01*
X719250Y1149750D02*
X739000Y1130000D01*
X742500Y977500D02*
X769750D01*
X770250Y978000D01*
X742500Y990000D02*
X769500D01*
X770500Y991000D01*
X742500Y1002500D02*
X772250D01*
X742500Y1015000D02*
X774750D01*
X775000Y1015250D01*
X739000Y1105000D02*
X742500D01*
X739000Y1117500D02*
X742500D01*
X739000Y1130000D02*
X742500D01*
X739000Y1142500D02*
X742500D01*
X739000Y1155000D02*
X742500D01*
X739000Y1167500D02*
X742500D01*
X735750Y1170750D02*
X739000Y1167500D01*
X747750Y1230750D02*
X749250Y1232250D01*
X254750Y894229D02*
Y900000D01*
Y894229D02*
X255629Y893350D01*
X267750D01*
X264000Y942250D02*
X286121D01*
X287000Y943129D02*
Y1003000D01*
X286121Y942250D02*
X287000Y943129D01*
X281000Y964000D02*
Y990971D01*
X274000Y957000D02*
X281000Y964000D01*
X274000Y948500D02*
Y957000D01*
X280121Y991850D02*
X281000Y990971D01*
X268100Y1003750D02*
X286250D01*
X287000Y1003000D01*
X267500Y1004350D02*
X268100Y1003750D01*
X267500Y991850D02*
X280121D01*
X291750Y1031629D02*
Y1112971D01*
Y1031629D02*
X292629Y1030750D01*
X309500D01*
X268250Y1113850D02*
X290871D01*
X291750Y1112971D01*
X285500Y1018629D02*
Y1100471D01*
Y1018629D02*
X286379Y1017750D01*
X307250D01*
X268250Y1101350D02*
X284621D01*
X285500Y1100471D01*
D16*
X426750Y1002500D02*
D03*
Y985500D02*
D03*
X711250Y849500D02*
D03*
Y866500D02*
D03*
X714000Y909500D02*
D03*
Y892500D02*
D03*
X747750Y1213750D02*
D03*
Y1230750D02*
D03*
X713000Y1050250D02*
D03*
Y1067250D02*
D03*
X635750Y1052000D02*
D03*
Y1035000D02*
D03*
X655250Y1052000D02*
D03*
Y1035000D02*
D03*
X674750Y1162500D02*
D03*
Y1179500D02*
D03*
X583500Y841500D02*
D03*
Y858500D02*
D03*
X546500Y841500D02*
D03*
Y858500D02*
D03*
X565000Y841000D02*
D03*
Y858000D02*
D03*
X458000Y1187500D02*
D03*
Y1170500D02*
D03*
X497750Y1076500D02*
D03*
Y1059500D02*
D03*
X438750Y1043750D02*
D03*
Y1060750D02*
D03*
X419250Y1044250D02*
D03*
Y1061250D02*
D03*
D18*
X268250Y1320000D02*
D03*
Y1307500D02*
D03*
Y1295000D02*
D03*
Y1223000D02*
D03*
Y1210500D02*
D03*
Y1198000D02*
D03*
X268250Y1126350D02*
D03*
Y1113850D02*
D03*
Y1101350D02*
D03*
Y1088850D02*
D03*
X742500Y1027500D02*
D03*
Y1015000D02*
D03*
Y1002500D02*
D03*
Y990000D02*
D03*
Y977500D02*
D03*
Y965000D02*
D03*
X267500Y1016850D02*
D03*
Y1004350D02*
D03*
Y991850D02*
D03*
Y979350D02*
D03*
X267750Y905850D02*
D03*
Y893350D02*
D03*
Y880850D02*
D03*
Y868350D02*
D03*
X742500Y1167500D02*
D03*
Y1155000D02*
D03*
Y1142500D02*
D03*
Y1130000D02*
D03*
Y1117500D02*
D03*
Y1105000D02*
D03*
D19*
X239250Y1345500D02*
D03*
Y1269500D02*
D03*
Y1248500D02*
D03*
Y1172500D02*
D03*
X239250Y1151850D02*
D03*
Y1063350D02*
D03*
X771500Y1053000D02*
D03*
Y939500D02*
D03*
X238500Y1042350D02*
D03*
Y953850D02*
D03*
X238750Y931350D02*
D03*
Y842850D02*
D03*
X771500Y1193000D02*
D03*
Y1079500D02*
D03*
D23*
X409750Y964000D02*
D03*
X426750D02*
D03*
X469500Y1283000D02*
D03*
X486500D02*
D03*
X470250Y1333250D02*
D03*
X487250D02*
D03*
X561000Y1099250D02*
D03*
X578000D02*
D03*
X578500Y1062250D02*
D03*
X561500D02*
D03*
X578500Y1081000D02*
D03*
X561500D02*
D03*
X675500Y1105250D02*
D03*
X692500D02*
D03*
X693000Y1086750D02*
D03*
X676000D02*
D03*
X578500Y1118000D02*
D03*
X561500D02*
D03*
X692500Y1067750D02*
D03*
X675500D02*
D03*
X675750Y1123750D02*
D03*
X692750D02*
D03*
X675250Y1049000D02*
D03*
X692250D02*
D03*
X675250Y1030250D02*
D03*
X692250D02*
D03*
X692500Y1142750D02*
D03*
X675500D02*
D03*
X634250Y970250D02*
D03*
X617250D02*
D03*
X634500Y951250D02*
D03*
X617500D02*
D03*
X424250Y845000D02*
D03*
X407250D02*
D03*
X424500Y863750D02*
D03*
X407500D02*
D03*
X407250Y882500D02*
D03*
X424250D02*
D03*
X425000Y901000D02*
D03*
X408000D02*
D03*
X635000Y932500D02*
D03*
X618000D02*
D03*
X635000Y911750D02*
D03*
X618000D02*
D03*
X617250Y891500D02*
D03*
X634250D02*
D03*
X656500Y871750D02*
D03*
X673500D02*
D03*
X618250D02*
D03*
X635250D02*
D03*
X635500Y853250D02*
D03*
X618500D02*
D03*
X344250Y1133500D02*
D03*
X361250D02*
D03*
X361000Y1115250D02*
D03*
X344000D02*
D03*
X459250Y1077500D02*
D03*
X476250D02*
D03*
X458750Y1095750D02*
D03*
X475750D02*
D03*
X475500Y1113500D02*
D03*
X458500D02*
D03*
X344250Y1078500D02*
D03*
X361250D02*
D03*
X457750Y1149500D02*
D03*
X474750D02*
D03*
X475500Y1131750D02*
D03*
X458500D02*
D03*
X476500Y1041250D02*
D03*
X459500D02*
D03*
X476250Y1059500D02*
D03*
X459250D02*
D03*
X344000Y1097000D02*
D03*
X361000D02*
D03*
D45*
X309692Y1312192D02*
X309750Y1312250D01*
X403250Y1003250D02*
X423250D01*
X458000Y1113500D02*
X458550D01*
X455500Y1109679D02*
Y1111000D01*
X458750Y1122190D02*
Y1129250D01*
X444250Y1106750D02*
X452571D01*
X458750Y1114360D02*
Y1122190D01*
X452571Y1106750D02*
X455500Y1109679D01*
Y1111000D02*
X458000Y1113500D01*
X675750Y1108610D02*
Y1123500D01*
Y1098110D02*
Y1113000D01*
X660610Y1097750D02*
X675500D01*
X658320Y1095460D02*
X660610Y1097750D01*
X651470Y1095460D02*
X658320D01*
D46*
X487250Y1333400D02*
X517800D01*
X441750Y1348500D02*
X485493D01*
X487250Y1333400D02*
Y1346743D01*
X485493Y1348500D02*
X487250Y1346743D01*
X789500Y1301000D02*
Y1337743D01*
X778750Y1290250D02*
X789500Y1301000D01*
X676043Y1339500D02*
X787743D01*
X789500Y1337743D01*
X778993Y1289507D02*
X780250Y1288250D01*
X576593Y1339500D02*
X578350Y1341257D01*
X567957Y1339500D02*
X576593D01*
X578350Y1341257D02*
Y1349893D01*
X663893Y1351650D02*
X676043Y1339500D01*
X580107Y1351650D02*
X663893D01*
X565307Y1336850D02*
X567957Y1339500D01*
X578350Y1349893D02*
X580107Y1351650D01*
X778589Y1286589D02*
X780250Y1288250D01*
X778589Y1270801D02*
Y1286589D01*
X734375Y1022875D02*
Y1055625D01*
X359750Y1299500D02*
Y1348500D01*
X249750Y1286243D02*
Y1328757D01*
X267500Y965500D02*
Y979350D01*
X240000Y916993D02*
X241258Y918250D01*
X725250Y1288250D02*
X741250D01*
X523750Y1072000D02*
Y1128500D01*
X230074Y1208324D02*
X257250Y1235500D01*
X249750Y1286243D02*
X257250Y1278743D01*
X249750Y1328757D02*
X257250Y1336257D01*
Y1235500D02*
Y1278743D01*
Y1336257D02*
Y1346243D01*
X259507Y1348500D01*
X359750D01*
X229500Y1205000D02*
X230074Y1205574D01*
Y1208324D01*
X484411Y1170000D02*
X542000D01*
X466000Y1188411D02*
X484411Y1170000D01*
X542000D02*
X551500Y1160500D01*
X359750Y1348500D02*
X441750D01*
X441250Y1312000D02*
Y1348000D01*
X441750Y1348500D01*
X440250Y1215500D02*
X459149D01*
X466000Y1208649D01*
Y1188411D02*
Y1208649D01*
X551500Y1135000D02*
Y1160500D01*
X548250Y1131750D02*
X551500Y1135000D01*
X523750Y1128500D02*
X527000Y1131750D01*
X548250D01*
X729750Y1018250D02*
X734375Y1022875D01*
Y1055625D02*
X743250Y1064500D01*
X521250Y1336850D02*
X565307D01*
X517800Y1333400D02*
X521250Y1336850D01*
X731507Y953500D02*
X748750D01*
X729750Y955257D02*
Y1018250D01*
Y955257D02*
X731507Y953500D01*
X240000Y860257D02*
Y916993D01*
X241757Y858500D02*
X265993D01*
X240000Y860257D02*
X241757Y858500D01*
X267750Y860257D02*
Y868350D01*
X265993Y858500D02*
X267750Y860257D01*
D47*
X671821Y849071D02*
X700559Y877809D01*
X693821Y884929D02*
X700750Y878000D01*
X292500Y1233250D02*
X309250Y1216500D01*
X292500Y1233250D02*
Y1295000D01*
Y1295099D02*
X309642Y1312242D01*
X292500Y1295000D02*
Y1295099D01*
X268250Y1295000D02*
X292500D01*
X255179Y1088850D02*
X268250D01*
X252250Y1091779D02*
Y1133250D01*
Y1091779D02*
X255179Y1088850D01*
X252250Y1133250D02*
X257250Y1138250D01*
X292321D01*
X295250Y1141179D01*
X407250Y1192000D02*
X413750Y1185500D01*
X298929Y1192000D02*
X407250D01*
X298429Y1192500D02*
X298929Y1192000D01*
X295250Y1189321D02*
X298429Y1192500D01*
X295250Y1141179D02*
Y1189321D01*
X727686Y854250D02*
X734750D01*
X725050Y851614D02*
X727686Y854250D01*
X715157Y835500D02*
X725050Y845393D01*
Y851614D01*
X666929Y835500D02*
X715157D01*
X664000Y838429D02*
Y849071D01*
Y838429D02*
X666929Y835500D01*
X667321Y884929D02*
X693821D01*
X664000Y849071D02*
X671821D01*
X667321Y884929D02*
Y914321D01*
X690750Y937750D02*
X722621D01*
X667321Y914321D02*
X690750Y937750D01*
X722621D02*
X725050Y935321D01*
Y905886D02*
Y935321D01*
X728186Y902750D02*
X735250D01*
X725050Y905886D02*
X728186Y902750D01*
X244500Y1198000D02*
X268250D01*
D48*
X461750Y1000750D02*
D03*
X623250D02*
D03*
D49*
X389750D02*
D03*
X551250D02*
D03*
D50*
X493250Y940750D02*
D03*
X358250D02*
D03*
X519750D02*
D03*
X654750D02*
D03*
D51*
X745950Y907650D02*
D03*
Y849850D02*
D03*
X487178Y1030034D02*
D03*
X778589Y1270801D02*
D03*
X741339Y1288300D02*
D03*
X713500Y1267050D02*
D03*
X711750Y1279750D02*
D03*
X707250Y1318500D02*
D03*
X738250Y1241138D02*
D03*
X726500Y1305150D02*
D03*
X711750Y1292450D02*
D03*
X699000Y1187500D02*
D03*
X698250Y1198500D02*
D03*
X698346Y1177980D02*
D03*
X698500Y1166750D02*
D03*
X694746Y1239468D02*
D03*
X698250Y1153000D02*
D03*
X597250Y951500D02*
D03*
X588250Y838500D02*
D03*
X525750Y1299250D02*
D03*
X540250Y1297750D02*
D03*
X414000Y1179250D02*
D03*
X395750Y1175000D02*
D03*
X700750Y878000D02*
D03*
X503500Y1110500D02*
D03*
X505000Y1085897D02*
D03*
X388500Y1179000D02*
D03*
X698000Y993000D02*
D03*
X268750Y1271000D02*
D03*
X309500Y982750D02*
D03*
X764750Y964250D02*
D03*
X559750Y1145500D02*
D03*
X604500Y1017500D02*
D03*
X244500Y1198000D02*
D03*
X309750Y1230750D02*
D03*
X309250Y1216500D02*
D03*
X359705Y1300184D02*
D03*
X249832Y1321454D02*
D03*
X309642Y1312242D02*
D03*
X229500Y1205000D02*
D03*
X301500Y1115250D02*
D03*
X699750Y846750D02*
D03*
X723500Y1074750D02*
D03*
X717633Y1091688D02*
D03*
X692250Y1095250D02*
D03*
X527000Y1145000D02*
D03*
X491705Y1179000D02*
D03*
X429250Y1016750D02*
D03*
X335250Y1075750D02*
D03*
X645750Y972000D02*
D03*
X573500Y1073250D02*
D03*
X709750Y1254250D02*
D03*
X369657Y1141935D02*
D03*
X310250Y1272000D02*
D03*
X351963Y1040747D02*
D03*
X441250Y1312000D02*
D03*
X438250Y1215500D02*
D03*
X523750Y1072000D02*
D03*
X743250Y1064500D02*
D03*
X748750Y953500D02*
D03*
X239955Y917676D02*
D03*
X267455Y966183D02*
D03*
X655705Y846433D02*
D03*
X309205Y1337433D02*
D03*
X546455Y1275934D02*
D03*
X657455Y914684D02*
D03*
X325133Y1099688D02*
D03*
X446383Y869438D02*
D03*
X659133Y967938D02*
D03*
X524133Y836688D02*
D03*
X601750Y965500D02*
D03*
X412346Y1031230D02*
D03*
X775517Y1014888D02*
D03*
X772767Y1002138D02*
D03*
X771017Y990638D02*
D03*
X770767Y977638D02*
D03*
X248517Y912388D02*
D03*
X254750Y900000D02*
D03*
X264949Y941956D02*
D03*
X274000Y948500D02*
D03*
X310449Y1030456D02*
D03*
X308199Y1017456D02*
D03*
D52*
X741050Y922000D02*
D03*
Y835500D02*
D03*
D53*
X782750Y922000D02*
D03*
Y835500D02*
D03*
D54*
X658250Y1204750D02*
D03*
X632850D02*
D03*
X607450D02*
D03*
X582050D02*
D03*
X556650D02*
D03*
X531250D02*
D03*
X505850D02*
D03*
X480450D02*
D03*
X455050D02*
D03*
X429650D02*
D03*
X404250D02*
D03*
X378850D02*
D03*
X353450D02*
D03*
X658250Y1229750D02*
D03*
X632850D02*
D03*
X607450D02*
D03*
X582050D02*
D03*
X556650D02*
D03*
X531250D02*
D03*
X505850D02*
D03*
X480450D02*
D03*
X455050D02*
D03*
X429650D02*
D03*
X404250D02*
D03*
X378850D02*
D03*
X353450D02*
D03*
X658250Y1254750D02*
D03*
X632850D02*
D03*
X607450D02*
D03*
X582050D02*
D03*
X556650D02*
D03*
X531250D02*
D03*
X505850D02*
D03*
X480450D02*
D03*
X455050D02*
D03*
X429650D02*
D03*
X404250D02*
D03*
X378850D02*
D03*
X353450D02*
D03*
D55*
X723750Y1290250D02*
D03*
X778750D02*
D03*
X723750Y1324250D02*
D03*
X778750D02*
D03*
D56*
X651500Y1107850D02*
D03*
Y1095150D02*
D03*
Y1082450D02*
D03*
Y1069750D02*
D03*
X602000D02*
D03*
Y1082450D02*
D03*
Y1095150D02*
D03*
Y1107850D02*
D03*
X526000Y905300D02*
D03*
Y892600D02*
D03*
Y879900D02*
D03*
Y867200D02*
D03*
X476500D02*
D03*
Y879900D02*
D03*
Y892600D02*
D03*
Y905300D02*
D03*
X434680Y1119800D02*
D03*
Y1107100D02*
D03*
Y1094400D02*
D03*
Y1081700D02*
D03*
X385180D02*
D03*
Y1094400D02*
D03*
Y1107100D02*
D03*
Y1119800D02*
D03*
D57*
X626750Y1088800D02*
D03*
X501250Y886250D02*
D03*
X409930Y1100750D02*
D03*
D58*
X379150Y928500D02*
D03*
X421850D02*
D03*
X576250Y1145250D02*
D03*
X533550D02*
D03*
X315300Y1173250D02*
D03*
X358000D02*
D03*
D59*
X735250Y910750D02*
D03*
Y902750D02*
D03*
Y854750D02*
D03*
Y846750D02*
D03*
D60*
Y881250D02*
D03*
Y886250D02*
D03*
Y891250D02*
D03*
Y896250D02*
D03*
Y876250D02*
D03*
Y871250D02*
D03*
Y866250D02*
D03*
Y861250D02*
D03*
D61*
X567000Y966500D02*
D03*
Y924500D02*
D03*
X631750Y1175250D02*
D03*
Y1133250D02*
D03*
X413750Y1143500D02*
D03*
Y1185500D02*
D03*
D62*
X517800Y1282600D02*
D03*
D63*
Y1333400D02*
D03*
D64*
X622000Y1308000D02*
D03*
M02*
