G04*
G04 #@! TF.GenerationSoftware,Altium Limited,Altium Designer,23.6.0 (18)*
G04*
G04 Layer_Color=32896*
%FSLAX44Y44*%
%MOMM*%
G71*
G04*
G04 #@! TF.SameCoordinates,C0EE57D9-4E2B-4701-80FF-B58ABC17C381*
G04*
G04*
G04 #@! TF.FilePolarity,Positive*
G04*
G01*
G75*
%ADD10C,0.2000*%
%ADD11C,0.1270*%
%ADD14C,0.1500*%
%ADD75C,0.1000*%
D10*
X654420Y1116200D02*
G03*
X654420Y1116200I-1000J0D01*
G01*
X441500Y928500D02*
G03*
X441500Y928500I-1000J0D01*
G01*
X418800Y977851D02*
G03*
X434700Y977851I7950J16149D01*
G01*
Y1010149D02*
G03*
X418800Y1010149I-7950J-16149D01*
G01*
X434399Y956050D02*
G03*
X434399Y971950I-16149J7950D01*
G01*
X402101D02*
G03*
X402101Y956050I16149J-7950D01*
G01*
X723750Y910750D02*
G03*
X723750Y910750I-1000J0D01*
G01*
X719200Y874149D02*
G03*
X703300Y874149I-7950J-16149D01*
G01*
Y841851D02*
G03*
X719200Y841851I7950J16149D01*
G01*
X706050Y884851D02*
G03*
X721950Y884851I7950J16149D01*
G01*
Y917149D02*
G03*
X706050Y917149I-7950J-16149D01*
G01*
X595900Y1145250D02*
G03*
X595900Y1145250I-1000J0D01*
G01*
X755700Y1238399D02*
G03*
X739800Y1238399I-7950J-16149D01*
G01*
Y1206101D02*
G03*
X755700Y1206101I7950J16149D01*
G01*
X585649Y1091300D02*
G03*
X585649Y1107200I-16149J7950D01*
G01*
X553351D02*
G03*
X553351Y1091300I16149J-7950D01*
G01*
X553851Y1070200D02*
G03*
X553851Y1054300I16149J-7950D01*
G01*
X586149D02*
G03*
X586149Y1070200I-16149J7950D01*
G01*
X700149Y1097300D02*
G03*
X700149Y1113200I-16149J7950D01*
G01*
X667851D02*
G03*
X667851Y1097300I16149J-7950D01*
G01*
X627800Y1027351D02*
G03*
X643700Y1027351I7950J16149D01*
G01*
Y1059649D02*
G03*
X627800Y1059649I-7950J-16149D01*
G01*
X667851Y1075700D02*
G03*
X667851Y1059800I16149J-7950D01*
G01*
X700149D02*
G03*
X700149Y1075700I-16149J7950D01*
G01*
X700399Y1115800D02*
G03*
X700399Y1131700I-16149J7950D01*
G01*
X668101D02*
G03*
X668101Y1115800I16149J-7950D01*
G01*
X699899Y1041050D02*
G03*
X699899Y1056950I-16149J7950D01*
G01*
X667601D02*
G03*
X667601Y1041050I16149J-7950D01*
G01*
X699899Y1022300D02*
G03*
X699899Y1038200I-16149J7950D01*
G01*
X667601D02*
G03*
X667601Y1022300I16149J-7950D01*
G01*
X377650Y1173250D02*
G03*
X377650Y1173250I-1000J0D01*
G01*
X399601Y852950D02*
G03*
X399601Y837050I16149J-7950D01*
G01*
X431899D02*
G03*
X431899Y852950I-16149J7950D01*
G01*
Y874550D02*
G03*
X431899Y890450I-16149J7950D01*
G01*
X399601D02*
G03*
X399601Y874550I16149J-7950D01*
G01*
X610351Y940450D02*
G03*
X610351Y924550I16149J-7950D01*
G01*
X642649D02*
G03*
X642649Y940450I-16149J7950D01*
G01*
X610351Y919700D02*
G03*
X610351Y903800I16149J-7950D01*
G01*
X642649D02*
G03*
X642649Y919700I-16149J7950D01*
G01*
X642899Y863800D02*
G03*
X642899Y879700I-16149J7950D01*
G01*
X610601D02*
G03*
X610601Y863800I16149J-7950D01*
G01*
X610851Y861200D02*
G03*
X610851Y845300I16149J-7950D01*
G01*
X643149D02*
G03*
X643149Y861200I-16149J7950D01*
G01*
X591450Y866149D02*
G03*
X575550Y866149I-7950J-16149D01*
G01*
Y833851D02*
G03*
X591450Y833851I7950J16149D01*
G01*
X554450Y866149D02*
G03*
X538550Y866149I-7950J-16149D01*
G01*
Y833851D02*
G03*
X554450Y833851I7950J16149D01*
G01*
X528920Y913650D02*
G03*
X528920Y913650I-1000J0D01*
G01*
X336351Y1123200D02*
G03*
X336351Y1107300I16149J-7950D01*
G01*
X368649D02*
G03*
X368649Y1123200I-16149J7950D01*
G01*
X483899Y1069550D02*
G03*
X483899Y1085450I-16149J7950D01*
G01*
X451601D02*
G03*
X451601Y1069550I16149J-7950D01*
G01*
X437600Y1128150D02*
G03*
X437600Y1128150I-1000J0D01*
G01*
X450851Y1121450D02*
G03*
X450851Y1105550I16149J-7950D01*
G01*
X483149D02*
G03*
X483149Y1121450I-16149J7950D01*
G01*
X368899Y1070550D02*
G03*
X368899Y1086450I-16149J7950D01*
G01*
X336601D02*
G03*
X336601Y1070550I16149J-7950D01*
G01*
X450851Y1139700D02*
G03*
X450851Y1123800I16149J-7950D01*
G01*
X483149D02*
G03*
X483149Y1139700I-16149J7950D01*
G01*
X451851Y1049200D02*
G03*
X451851Y1033300I16149J-7950D01*
G01*
X484149D02*
G03*
X484149Y1049200I-16149J7950D01*
G01*
X451601Y1067450D02*
G03*
X451601Y1051550I16149J-7950D01*
G01*
X483899D02*
G03*
X483899Y1067450I-16149J7950D01*
G01*
X427200Y1068899D02*
G03*
X411300Y1068899I-7950J-16149D01*
G01*
Y1036601D02*
G03*
X427200Y1036601I7950J16149D01*
G01*
X418750Y978000D02*
Y1010000D01*
X434750Y978000D02*
Y1010000D01*
X402250Y956000D02*
X434250D01*
X402250Y972000D02*
X434250D01*
X719250Y842000D02*
Y874000D01*
X703250Y842000D02*
Y874000D01*
X706000Y885000D02*
Y917000D01*
X722000Y885000D02*
Y917000D01*
X461000Y1275000D02*
X495000D01*
Y1291000D01*
X461000D02*
X495000D01*
X461000Y1275000D02*
Y1291000D01*
X461750Y1325250D02*
X495750D01*
Y1341250D01*
X461750D02*
X495750D01*
X461750Y1325250D02*
Y1341250D01*
X755750Y1206250D02*
Y1238250D01*
X739750Y1206250D02*
Y1238250D01*
X553500Y1091250D02*
X585500D01*
X553500Y1107250D02*
X585500D01*
X554000Y1070250D02*
X586000D01*
X554000Y1054250D02*
X586000D01*
X553000Y1073000D02*
Y1089000D01*
X587000D01*
Y1073000D02*
Y1089000D01*
X553000Y1073000D02*
X587000D01*
X668000Y1097250D02*
X700000D01*
X668000Y1113250D02*
X700000D01*
X667500Y1078750D02*
Y1094750D01*
X701500D01*
Y1078750D02*
Y1094750D01*
X667500Y1078750D02*
X701500D01*
X705000Y1075750D02*
X721000D01*
Y1041750D02*
Y1075750D01*
X705000Y1041750D02*
X721000D01*
X705000D02*
Y1075750D01*
X627750Y1027500D02*
Y1059500D01*
X643750Y1027500D02*
Y1059500D01*
X647250Y1026500D02*
X663250D01*
X647250D02*
Y1060500D01*
X663250D01*
Y1026500D02*
Y1060500D01*
X553000Y1110000D02*
Y1126000D01*
X587000D01*
Y1110000D02*
Y1126000D01*
X553000Y1110000D02*
X587000D01*
X668000Y1075750D02*
X700000D01*
X668000Y1059750D02*
X700000D01*
X668250Y1115750D02*
X700250D01*
X668250Y1131750D02*
X700250D01*
X667750Y1041000D02*
X699750D01*
X667750Y1057000D02*
X699750D01*
X667750Y1022250D02*
X699750D01*
X667750Y1038250D02*
X699750D01*
X666750Y1188000D02*
X682750D01*
Y1154000D02*
Y1188000D01*
X666750Y1154000D02*
X682750D01*
X666750D02*
Y1188000D01*
X667000Y1134750D02*
Y1150750D01*
X701000D01*
Y1134750D02*
Y1150750D01*
X667000Y1134750D02*
X701000D01*
X608750Y962250D02*
Y978250D01*
X642750D01*
Y962250D02*
Y978250D01*
X608750Y962250D02*
X642750D01*
X609000Y943250D02*
Y959250D01*
X643000D01*
Y943250D02*
Y959250D01*
X609000Y943250D02*
X643000D01*
X399750Y853000D02*
X431750D01*
X399750Y837000D02*
X431750D01*
X399000Y855750D02*
Y871750D01*
X433000D01*
Y855750D02*
Y871750D01*
X399000Y855750D02*
X433000D01*
X399750Y874500D02*
X431750D01*
X399750Y890500D02*
X431750D01*
X399500Y893000D02*
Y909000D01*
X433500D01*
Y893000D02*
Y909000D01*
X399500Y893000D02*
X433500D01*
X610500Y940500D02*
X642500D01*
X610500Y924500D02*
X642500D01*
X610500Y919750D02*
X642500D01*
X610500Y903750D02*
X642500D01*
X608750Y883500D02*
X642750D01*
Y899500D01*
X608750D02*
X642750D01*
X608750Y883500D02*
Y899500D01*
X648000Y863750D02*
X682000D01*
Y879750D01*
X648000D02*
X682000D01*
X648000Y863750D02*
Y879750D01*
X610750Y863750D02*
X642750D01*
X610750Y879750D02*
X642750D01*
X611000Y861250D02*
X643000D01*
X611000Y845250D02*
X643000D01*
X591500Y834000D02*
Y866000D01*
X575500Y834000D02*
Y866000D01*
X554500Y834000D02*
Y866000D01*
X538500Y834000D02*
Y866000D01*
X573000Y832500D02*
Y866500D01*
X557000D02*
X573000D01*
X557000Y832500D02*
Y866500D01*
Y832500D02*
X573000D01*
X450000Y1162000D02*
Y1196000D01*
Y1162000D02*
X466000D01*
Y1196000D01*
X450000D02*
X466000D01*
X489750Y1051000D02*
Y1085000D01*
Y1051000D02*
X505750D01*
Y1085000D01*
X489750D02*
X505750D01*
X335750Y1125500D02*
X369750D01*
Y1141500D01*
X335750D02*
X369750D01*
X335750Y1125500D02*
Y1141500D01*
X336500Y1123250D02*
X368500D01*
X336500Y1107250D02*
X368500D01*
X451750Y1069500D02*
X483750D01*
X451750Y1085500D02*
X483750D01*
X450250Y1087750D02*
X484250D01*
Y1103750D01*
X450250D02*
X484250D01*
X450250Y1087750D02*
Y1103750D01*
X451000Y1121500D02*
X483000D01*
X451000Y1105500D02*
X483000D01*
X336750Y1070500D02*
X368750D01*
X336750Y1086500D02*
X368750D01*
X449250Y1141500D02*
X483250D01*
Y1157500D01*
X449250D02*
X483250D01*
X449250Y1141500D02*
Y1157500D01*
X451000Y1139750D02*
X483000D01*
X451000Y1123750D02*
X483000D01*
X452000Y1049250D02*
X484000D01*
X452000Y1033250D02*
X484000D01*
X451750Y1067500D02*
X483750D01*
X451750Y1051500D02*
X483750D01*
X446750Y1035250D02*
Y1069250D01*
X430750D02*
X446750D01*
X430750Y1035250D02*
Y1069250D01*
Y1035250D02*
X446750D01*
X427250Y1036750D02*
Y1068750D01*
X411250Y1036750D02*
Y1068750D01*
X335500Y1089000D02*
X369500D01*
Y1105000D01*
X335500D02*
X369500D01*
X335500Y1089000D02*
Y1105000D01*
D11*
X606750Y1113800D02*
X646750D01*
X606750Y1112800D02*
Y1113800D01*
X646750Y1112800D02*
Y1113800D01*
X606750Y1063800D02*
X646750D01*
Y1064800D01*
X606750Y1063800D02*
Y1064800D01*
X374500Y913900D02*
X426500D01*
X374500Y943100D02*
X426500D01*
X537000Y915500D02*
X538300D01*
X595700D02*
X597000D01*
X537000Y975500D02*
X538300D01*
X595700D02*
X597000D01*
X537000Y915500D02*
Y975500D01*
X597000Y915500D02*
Y975500D01*
X528900Y1159850D02*
X580900D01*
X528900Y1130650D02*
X580900D01*
X601750Y1124250D02*
X603050D01*
X660450D02*
X661750D01*
X601750Y1184250D02*
X603050D01*
X660450D02*
X661750D01*
X601750Y1124250D02*
Y1184250D01*
X661750Y1124250D02*
Y1184250D01*
X310650Y1158650D02*
X362650D01*
X310650Y1187850D02*
X362650D01*
X481250Y911250D02*
X521250D01*
X481250Y910250D02*
Y911250D01*
X521250Y910250D02*
Y911250D01*
X481250Y861250D02*
X521250D01*
Y862250D01*
X481250Y861250D02*
Y862250D01*
X389930Y1125750D02*
X429930D01*
X389930Y1124750D02*
Y1125750D01*
X429930Y1124750D02*
Y1125750D01*
X389930Y1075750D02*
X429930D01*
Y1076750D01*
X389930Y1075750D02*
Y1076750D01*
X443750Y1134500D02*
Y1194500D01*
X383750Y1134500D02*
Y1194500D01*
X442450D02*
X443750D01*
X383750D02*
X385050D01*
X442450Y1134500D02*
X443750D01*
X383750D02*
X385050D01*
D14*
X392641Y977832D02*
X384644D01*
Y973833D01*
X385976Y972500D01*
X388642D01*
X389975Y973833D01*
Y977832D01*
Y975166D02*
X392641Y972500D01*
Y965836D02*
X384644D01*
X388642Y969834D01*
Y964503D01*
X385976Y961837D02*
X384644Y960504D01*
Y957838D01*
X385976Y956505D01*
X391308D01*
X392641Y957838D01*
Y960504D01*
X391308Y961837D01*
X385976D01*
X438413Y1017251D02*
Y1025249D01*
X434414D01*
X433082Y1023916D01*
Y1021250D01*
X434414Y1019917D01*
X438413D01*
X435747D02*
X433082Y1017251D01*
X430416Y1023916D02*
X429083Y1025249D01*
X426417D01*
X425084Y1023916D01*
Y1022583D01*
X426417Y1021250D01*
X427750D01*
X426417D01*
X425084Y1019917D01*
Y1018584D01*
X426417Y1017251D01*
X429083D01*
X430416Y1018584D01*
X422418Y1023916D02*
X421086Y1025249D01*
X418420D01*
X417087Y1023916D01*
Y1022583D01*
X418420Y1021250D01*
X417087Y1019917D01*
Y1018584D01*
X418420Y1017251D01*
X421086D01*
X422418Y1018584D01*
Y1019917D01*
X421086Y1021250D01*
X422418Y1022583D01*
Y1023916D01*
X421086Y1021250D02*
X418420D01*
X727251Y1220337D02*
X735249D01*
Y1224335D01*
X733916Y1225668D01*
X731250D01*
X729917Y1224335D01*
Y1220337D01*
Y1223003D02*
X727251Y1225668D01*
X733916Y1228334D02*
X735249Y1229667D01*
Y1232333D01*
X733916Y1233666D01*
X732583D01*
X731250Y1232333D01*
Y1231000D01*
Y1232333D01*
X729917Y1233666D01*
X728584D01*
X727251Y1232333D01*
Y1229667D01*
X728584Y1228334D01*
Y1236332D02*
X727251Y1237664D01*
Y1240330D01*
X728584Y1241663D01*
X733916D01*
X735249Y1240330D01*
Y1237664D01*
X733916Y1236332D01*
X732583D01*
X731250Y1237664D01*
Y1241663D01*
X731749Y869413D02*
X723751D01*
Y865415D01*
X725084Y864082D01*
X727750D01*
X729083Y865415D01*
Y869413D01*
Y866747D02*
X731749Y864082D01*
X725084Y861416D02*
X723751Y860083D01*
Y857417D01*
X725084Y856084D01*
X726417D01*
X727750Y857417D01*
Y858750D01*
Y857417D01*
X729083Y856084D01*
X730416D01*
X731749Y857417D01*
Y860083D01*
X730416Y861416D01*
X731749Y849420D02*
X723751D01*
X727750Y853418D01*
Y848087D01*
X392913Y840751D02*
Y848749D01*
X388914D01*
X387582Y847416D01*
Y844750D01*
X388914Y843417D01*
X392913D01*
X390247D02*
X387582Y840751D01*
X384916Y847416D02*
X383583Y848749D01*
X380917D01*
X379584Y847416D01*
Y846083D01*
X380917Y844750D01*
X382250D01*
X380917D01*
X379584Y843417D01*
Y842084D01*
X380917Y840751D01*
X383583D01*
X384916Y842084D01*
X376918Y847416D02*
X375586Y848749D01*
X372920D01*
X371587Y847416D01*
Y846083D01*
X372920Y844750D01*
X374253D01*
X372920D01*
X371587Y843417D01*
Y842084D01*
X372920Y840751D01*
X375586D01*
X376918Y842084D01*
X670413Y906751D02*
Y914749D01*
X666414D01*
X665082Y913416D01*
Y910750D01*
X666414Y909417D01*
X670413D01*
X667747D02*
X665082Y906751D01*
X662416Y913416D02*
X661083Y914749D01*
X658417D01*
X657084Y913416D01*
Y912083D01*
X658417Y910750D01*
X659750D01*
X658417D01*
X657084Y909417D01*
Y908084D01*
X658417Y906751D01*
X661083D01*
X662416Y908084D01*
X649087Y906751D02*
X654418D01*
X649087Y912083D01*
Y913416D01*
X650420Y914749D01*
X653085D01*
X654418Y913416D01*
X684830Y927751D02*
Y935749D01*
X680832D01*
X679499Y934416D01*
Y931750D01*
X680832Y930417D01*
X684830D01*
X682165D02*
X679499Y927751D01*
X676833Y934416D02*
X675500Y935749D01*
X672834D01*
X671501Y934416D01*
Y933083D01*
X672834Y931750D01*
X674167D01*
X672834D01*
X671501Y930417D01*
Y929084D01*
X672834Y927751D01*
X675500D01*
X676833Y929084D01*
X668836Y927751D02*
X666170D01*
X667503D01*
Y935749D01*
X668836Y934416D01*
X734999Y927663D02*
X727001D01*
Y923664D01*
X728334Y922332D01*
X731000D01*
X732333Y923664D01*
Y927663D01*
Y924997D02*
X734999Y922332D01*
X728334Y919666D02*
X727001Y918333D01*
Y915667D01*
X728334Y914334D01*
X729667D01*
X731000Y915667D01*
Y917000D01*
Y915667D01*
X732333Y914334D01*
X733666D01*
X734999Y915667D01*
Y918333D01*
X733666Y919666D01*
X728334Y911668D02*
X727001Y910335D01*
Y907670D01*
X728334Y906337D01*
X733666D01*
X734999Y907670D01*
Y910335D01*
X733666Y911668D01*
X728334D01*
X596251Y862337D02*
X604249D01*
Y866336D01*
X602916Y867668D01*
X600250D01*
X598917Y866336D01*
Y862337D01*
Y865003D02*
X596251Y867668D01*
Y875666D02*
Y870334D01*
X601583Y875666D01*
X602916D01*
X604249Y874333D01*
Y871667D01*
X602916Y870334D01*
X597584Y878332D02*
X596251Y879665D01*
Y882330D01*
X597584Y883663D01*
X602916D01*
X604249Y882330D01*
Y879665D01*
X602916Y878332D01*
X601583D01*
X600250Y879665D01*
Y883663D01*
X393163Y878001D02*
Y885999D01*
X389165D01*
X387832Y884666D01*
Y882000D01*
X389165Y880667D01*
X393163D01*
X390497D02*
X387832Y878001D01*
X379834D02*
X385166D01*
X379834Y883333D01*
Y884666D01*
X381167Y885999D01*
X383833D01*
X385166Y884666D01*
X377168D02*
X375835Y885999D01*
X373170D01*
X371837Y884666D01*
Y883333D01*
X373170Y882000D01*
X371837Y880667D01*
Y879334D01*
X373170Y878001D01*
X375835D01*
X377168Y879334D01*
Y880667D01*
X375835Y882000D01*
X377168Y883333D01*
Y884666D01*
X375835Y882000D02*
X373170D01*
X670913Y847501D02*
Y855499D01*
X666915D01*
X665582Y854166D01*
Y851500D01*
X666915Y850167D01*
X670913D01*
X668247D02*
X665582Y847501D01*
X657584D02*
X662916D01*
X657584Y852833D01*
Y854166D01*
X658917Y855499D01*
X661583D01*
X662916Y854166D01*
X654918Y855499D02*
X649587D01*
Y854166D01*
X654918Y848834D01*
Y847501D01*
X580251Y872337D02*
X588249D01*
Y876336D01*
X586916Y877668D01*
X584250D01*
X582917Y876336D01*
Y872337D01*
Y875003D02*
X580251Y877668D01*
Y885666D02*
Y880334D01*
X585583Y885666D01*
X586916D01*
X588249Y884333D01*
Y881667D01*
X586916Y880334D01*
X588249Y893663D02*
X586916Y890997D01*
X584250Y888332D01*
X581584D01*
X580251Y889665D01*
Y892330D01*
X581584Y893663D01*
X582917D01*
X584250Y892330D01*
Y888332D01*
X542751Y873087D02*
X550749D01*
Y877085D01*
X549416Y878418D01*
X546750D01*
X545417Y877085D01*
Y873087D01*
Y875753D02*
X542751Y878418D01*
Y886416D02*
Y881084D01*
X548083Y886416D01*
X549416D01*
X550749Y885083D01*
Y882417D01*
X549416Y881084D01*
X550749Y894413D02*
Y889082D01*
X546750D01*
X548083Y891747D01*
Y893080D01*
X546750Y894413D01*
X544084D01*
X542751Y893080D01*
Y890415D01*
X544084Y889082D01*
X547663Y1056751D02*
Y1064749D01*
X543665D01*
X542332Y1063416D01*
Y1060750D01*
X543665Y1059417D01*
X547663D01*
X544997D02*
X542332Y1056751D01*
X534334D02*
X539666D01*
X534334Y1062083D01*
Y1063416D01*
X535667Y1064749D01*
X538333D01*
X539666Y1063416D01*
X527670Y1056751D02*
Y1064749D01*
X531668Y1060750D01*
X526337D01*
X727663Y1102001D02*
Y1109999D01*
X723664D01*
X722332Y1108666D01*
Y1106000D01*
X723664Y1104667D01*
X727663D01*
X724997D02*
X722332Y1102001D01*
X714334D02*
X719666D01*
X714334Y1107333D01*
Y1108666D01*
X715667Y1109999D01*
X718333D01*
X719666Y1108666D01*
X711668D02*
X710335Y1109999D01*
X707670D01*
X706337Y1108666D01*
Y1107333D01*
X707670Y1106000D01*
X709003D01*
X707670D01*
X706337Y1104667D01*
Y1103334D01*
X707670Y1102001D01*
X710335D01*
X711668Y1103334D01*
X728413Y1118501D02*
Y1126499D01*
X724415D01*
X723082Y1125166D01*
Y1122500D01*
X724415Y1121167D01*
X728413D01*
X725747D02*
X723082Y1118501D01*
X715084D02*
X720416D01*
X715084Y1123833D01*
Y1125166D01*
X716417Y1126499D01*
X719083D01*
X720416Y1125166D01*
X707087Y1118501D02*
X712418D01*
X707087Y1123833D01*
Y1125166D01*
X708420Y1126499D01*
X711086D01*
X712418Y1125166D01*
X744830Y1057001D02*
Y1064999D01*
X740832D01*
X739499Y1063666D01*
Y1061000D01*
X740832Y1059667D01*
X744830D01*
X742165D02*
X739499Y1057001D01*
X731501D02*
X736833D01*
X731501Y1062333D01*
Y1063666D01*
X732834Y1064999D01*
X735500D01*
X736833Y1063666D01*
X728835Y1057001D02*
X726170D01*
X727503D01*
Y1064999D01*
X728835Y1063666D01*
X545163Y1094501D02*
Y1102499D01*
X541165D01*
X539832Y1101166D01*
Y1098500D01*
X541165Y1097167D01*
X545163D01*
X542497D02*
X539832Y1094501D01*
X531834D02*
X537166D01*
X531834Y1099833D01*
Y1101166D01*
X533167Y1102499D01*
X535833D01*
X537166Y1101166D01*
X529168D02*
X527835Y1102499D01*
X525170D01*
X523837Y1101166D01*
Y1095834D01*
X525170Y1094501D01*
X527835D01*
X529168Y1095834D01*
Y1101166D01*
X745497Y1044501D02*
Y1052499D01*
X741498D01*
X740165Y1051166D01*
Y1048500D01*
X741498Y1047167D01*
X745497D01*
X742831D02*
X740165Y1044501D01*
X737499D02*
X734834D01*
X736166D01*
Y1052499D01*
X737499Y1051166D01*
X730835Y1045834D02*
X729502Y1044501D01*
X726836D01*
X725503Y1045834D01*
Y1051166D01*
X726836Y1052499D01*
X729502D01*
X730835Y1051166D01*
Y1049833D01*
X729502Y1048500D01*
X725503D01*
X706497Y1009751D02*
Y1017749D01*
X702498D01*
X701165Y1016416D01*
Y1013750D01*
X702498Y1012417D01*
X706497D01*
X703831D02*
X701165Y1009751D01*
X698499D02*
X695834D01*
X697166D01*
Y1017749D01*
X698499Y1016416D01*
X691835D02*
X690502Y1017749D01*
X687836D01*
X686503Y1016416D01*
Y1015083D01*
X687836Y1013750D01*
X686503Y1012417D01*
Y1011084D01*
X687836Y1009751D01*
X690502D01*
X691835Y1011084D01*
Y1012417D01*
X690502Y1013750D01*
X691835Y1015083D01*
Y1016416D01*
X690502Y1013750D02*
X687836D01*
X622997Y1027251D02*
Y1035249D01*
X618998D01*
X617665Y1033916D01*
Y1031250D01*
X618998Y1029917D01*
X622997D01*
X620331D02*
X617665Y1027251D01*
X614999D02*
X612333D01*
X613666D01*
Y1035249D01*
X614999Y1033916D01*
X608335Y1035249D02*
X603003D01*
Y1033916D01*
X608335Y1028584D01*
Y1027251D01*
X330247Y1074251D02*
Y1082249D01*
X326248D01*
X324915Y1080916D01*
Y1078250D01*
X326248Y1076917D01*
X330247D01*
X327581D02*
X324915Y1074251D01*
X322249D02*
X319584D01*
X320916D01*
Y1082249D01*
X322249Y1080916D01*
X310253Y1082249D02*
X312919Y1080916D01*
X315585Y1078250D01*
Y1075584D01*
X314252Y1074251D01*
X311586D01*
X310253Y1075584D01*
Y1076917D01*
X311586Y1078250D01*
X315585D01*
X509997Y1110751D02*
Y1118749D01*
X505998D01*
X504665Y1117416D01*
Y1114750D01*
X505998Y1113417D01*
X509997D01*
X507331D02*
X504665Y1110751D01*
X501999D02*
X499334D01*
X500667D01*
Y1118749D01*
X501999Y1117416D01*
X490003Y1118749D02*
X495335D01*
Y1114750D01*
X492669Y1116083D01*
X491336D01*
X490003Y1114750D01*
Y1112084D01*
X491336Y1110751D01*
X494002D01*
X495335Y1112084D01*
X509747Y1127001D02*
Y1134999D01*
X505748D01*
X504415Y1133666D01*
Y1131000D01*
X505748Y1129667D01*
X509747D01*
X507081D02*
X504415Y1127001D01*
X501749D02*
X499084D01*
X500416D01*
Y1134999D01*
X501749Y1133666D01*
X491086Y1127001D02*
Y1134999D01*
X495085Y1131000D01*
X489753D01*
X510751Y1069003D02*
X518749D01*
Y1073002D01*
X517416Y1074335D01*
X514750D01*
X513417Y1073002D01*
Y1069003D01*
Y1071669D02*
X510751Y1074335D01*
Y1077001D02*
Y1079666D01*
Y1078334D01*
X518749D01*
X517416Y1077001D01*
Y1083665D02*
X518749Y1084998D01*
Y1087664D01*
X517416Y1088997D01*
X516083D01*
X514750Y1087664D01*
Y1086331D01*
Y1087664D01*
X513417Y1088997D01*
X512084D01*
X510751Y1087664D01*
Y1084998D01*
X512084Y1083665D01*
X329497Y1112251D02*
Y1120249D01*
X325498D01*
X324165Y1118916D01*
Y1116250D01*
X325498Y1114917D01*
X329497D01*
X326831D02*
X324165Y1112251D01*
X321499D02*
X318834D01*
X320166D01*
Y1120249D01*
X321499Y1118916D01*
X309503Y1112251D02*
X314835D01*
X309503Y1117583D01*
Y1118916D01*
X310836Y1120249D01*
X313502D01*
X314835Y1118916D01*
X511501Y1047086D02*
X519499D01*
Y1051085D01*
X518166Y1052418D01*
X515500D01*
X514167Y1051085D01*
Y1047086D01*
Y1049752D02*
X511501Y1052418D01*
Y1055084D02*
Y1057749D01*
Y1056416D01*
X519499D01*
X518166Y1055084D01*
X511501Y1061748D02*
Y1064414D01*
Y1063081D01*
X519499D01*
X518166Y1061748D01*
X475497Y1020751D02*
Y1028749D01*
X471498D01*
X470165Y1027416D01*
Y1024750D01*
X471498Y1023417D01*
X475497D01*
X472831D02*
X470165Y1020751D01*
X467499D02*
X464834D01*
X466166D01*
Y1028749D01*
X467499Y1027416D01*
X460835D02*
X459502Y1028749D01*
X456836D01*
X455503Y1027416D01*
Y1022084D01*
X456836Y1020751D01*
X459502D01*
X460835Y1022084D01*
Y1027416D01*
X386001Y1048335D02*
X393999D01*
Y1052334D01*
X392666Y1053667D01*
X390000D01*
X388667Y1052334D01*
Y1048335D01*
Y1051001D02*
X386001Y1053667D01*
X387334Y1056333D02*
X386001Y1057666D01*
Y1060332D01*
X387334Y1061665D01*
X392666D01*
X393999Y1060332D01*
Y1057666D01*
X392666Y1056333D01*
X391333D01*
X390000Y1057666D01*
Y1061665D01*
X451082Y1335166D02*
X452415Y1336499D01*
X455080D01*
X456413Y1335166D01*
Y1329834D01*
X455080Y1328501D01*
X452415D01*
X451082Y1329834D01*
X448416Y1335166D02*
X447083Y1336499D01*
X444417D01*
X443084Y1335166D01*
Y1333833D01*
X444417Y1332500D01*
X445750D01*
X444417D01*
X443084Y1331167D01*
Y1329834D01*
X444417Y1328501D01*
X447083D01*
X448416Y1329834D01*
X440418Y1335166D02*
X439086Y1336499D01*
X436420D01*
X435087Y1335166D01*
Y1329834D01*
X436420Y1328501D01*
X439086D01*
X440418Y1329834D01*
Y1335166D01*
X451082Y1284916D02*
X452415Y1286249D01*
X455080D01*
X456413Y1284916D01*
Y1279584D01*
X455080Y1278251D01*
X452415D01*
X451082Y1279584D01*
X443084Y1278251D02*
X448416D01*
X443084Y1283583D01*
Y1284916D01*
X444417Y1286249D01*
X447083D01*
X448416Y1284916D01*
X440418Y1279584D02*
X439086Y1278251D01*
X436420D01*
X435087Y1279584D01*
Y1284916D01*
X436420Y1286249D01*
X439086D01*
X440418Y1284916D01*
Y1283583D01*
X439086Y1282250D01*
X435087D01*
X681082Y953416D02*
X682414Y954749D01*
X685080D01*
X686413Y953416D01*
Y948084D01*
X685080Y946751D01*
X682414D01*
X681082Y948084D01*
X673084Y946751D02*
X678416D01*
X673084Y952083D01*
Y953416D01*
X674417Y954749D01*
X677083D01*
X678416Y953416D01*
X670418D02*
X669085Y954749D01*
X666420D01*
X665087Y953416D01*
Y952083D01*
X666420Y950750D01*
X665087Y949417D01*
Y948084D01*
X666420Y946751D01*
X669085D01*
X670418Y948084D01*
Y949417D01*
X669085Y950750D01*
X670418Y952083D01*
Y953416D01*
X669085Y950750D02*
X666420D01*
X665832Y894416D02*
X667165Y895749D01*
X669830D01*
X671163Y894416D01*
Y889084D01*
X669830Y887751D01*
X667165D01*
X665832Y889084D01*
X657834Y887751D02*
X663166D01*
X657834Y893083D01*
Y894416D01*
X659167Y895749D01*
X661833D01*
X663166Y894416D01*
X655168Y895749D02*
X649837D01*
Y894416D01*
X655168Y889084D01*
Y887751D01*
X693666Y867168D02*
X694999Y865835D01*
Y863170D01*
X693666Y861837D01*
X688334D01*
X687001Y863170D01*
Y865835D01*
X688334Y867168D01*
X687001Y875166D02*
Y869834D01*
X692333Y875166D01*
X693666D01*
X694999Y873833D01*
Y871167D01*
X693666Y869834D01*
X694999Y883163D02*
X693666Y880497D01*
X691000Y877832D01*
X688334D01*
X687001Y879165D01*
Y881830D01*
X688334Y883163D01*
X689667D01*
X691000Y881830D01*
Y877832D01*
X666082Y970416D02*
X667414Y971749D01*
X670080D01*
X671413Y970416D01*
Y965084D01*
X670080Y963751D01*
X667414D01*
X666082Y965084D01*
X658084Y963751D02*
X663416D01*
X658084Y969083D01*
Y970416D01*
X659417Y971749D01*
X662083D01*
X663416Y970416D01*
X650087Y971749D02*
X655418D01*
Y967750D01*
X652753Y969083D01*
X651420D01*
X650087Y967750D01*
Y965084D01*
X651420Y963751D01*
X654085D01*
X655418Y965084D01*
X389082Y866166D02*
X390415Y867499D01*
X393080D01*
X394413Y866166D01*
Y860834D01*
X393080Y859501D01*
X390415D01*
X389082Y860834D01*
X381084Y859501D02*
X386416D01*
X381084Y864833D01*
Y866166D01*
X382417Y867499D01*
X385083D01*
X386416Y866166D01*
X374420Y859501D02*
Y867499D01*
X378418Y863500D01*
X373087D01*
X389832Y903916D02*
X391165Y905249D01*
X393830D01*
X395163Y903916D01*
Y898584D01*
X393830Y897251D01*
X391165D01*
X389832Y898584D01*
X381834Y897251D02*
X387166D01*
X381834Y902583D01*
Y903916D01*
X383167Y905249D01*
X385833D01*
X387166Y903916D01*
X379168D02*
X377836Y905249D01*
X375170D01*
X373837Y903916D01*
Y902583D01*
X375170Y901250D01*
X376503D01*
X375170D01*
X373837Y899917D01*
Y898584D01*
X375170Y897251D01*
X377836D01*
X379168Y898584D01*
X568666Y877418D02*
X569999Y876086D01*
Y873420D01*
X568666Y872087D01*
X563334D01*
X562001Y873420D01*
Y876086D01*
X563334Y877418D01*
X562001Y885416D02*
Y880084D01*
X567333Y885416D01*
X568666D01*
X569999Y884083D01*
Y881417D01*
X568666Y880084D01*
X562001Y893413D02*
Y888082D01*
X567333Y893413D01*
X568666D01*
X569999Y892080D01*
Y889415D01*
X568666Y888082D01*
X719499Y1146666D02*
X720832Y1147999D01*
X723497D01*
X724830Y1146666D01*
Y1141334D01*
X723497Y1140001D01*
X720832D01*
X719499Y1141334D01*
X711501Y1140001D02*
X716833D01*
X711501Y1145333D01*
Y1146666D01*
X712834Y1147999D01*
X715500D01*
X716833Y1146666D01*
X708836Y1140001D02*
X706170D01*
X707503D01*
Y1147999D01*
X708836Y1146666D01*
X722332Y1088666D02*
X723664Y1089999D01*
X726330D01*
X727663Y1088666D01*
Y1083334D01*
X726330Y1082001D01*
X723664D01*
X722332Y1083334D01*
X714334Y1082001D02*
X719666D01*
X714334Y1087333D01*
Y1088666D01*
X715667Y1089999D01*
X718333D01*
X719666Y1088666D01*
X711668D02*
X710335Y1089999D01*
X707670D01*
X706337Y1088666D01*
Y1083334D01*
X707670Y1082001D01*
X710335D01*
X711668Y1083334D01*
Y1088666D01*
X720915Y1035916D02*
X722248Y1037249D01*
X724914D01*
X726247Y1035916D01*
Y1030584D01*
X724914Y1029251D01*
X722248D01*
X720915Y1030584D01*
X718249Y1029251D02*
X715584D01*
X716916D01*
Y1037249D01*
X718249Y1035916D01*
X711585Y1030584D02*
X710252Y1029251D01*
X707586D01*
X706253Y1030584D01*
Y1035916D01*
X707586Y1037249D01*
X710252D01*
X711585Y1035916D01*
Y1034583D01*
X710252Y1033250D01*
X706253D01*
X693916Y1168585D02*
X695249Y1167252D01*
Y1164586D01*
X693916Y1163253D01*
X688584D01*
X687251Y1164586D01*
Y1167252D01*
X688584Y1168585D01*
X687251Y1171251D02*
Y1173916D01*
Y1172583D01*
X695249D01*
X693916Y1171251D01*
Y1177915D02*
X695249Y1179248D01*
Y1181914D01*
X693916Y1183247D01*
X692583D01*
X691250Y1181914D01*
X689917Y1183247D01*
X688584D01*
X687251Y1181914D01*
Y1179248D01*
X688584Y1177915D01*
X689917D01*
X691250Y1179248D01*
X692583Y1177915D01*
X693916D01*
X691250Y1179248D02*
Y1181914D01*
X540915Y1084916D02*
X542248Y1086249D01*
X544914D01*
X546247Y1084916D01*
Y1079584D01*
X544914Y1078251D01*
X542248D01*
X540915Y1079584D01*
X538249Y1078251D02*
X535583D01*
X536916D01*
Y1086249D01*
X538249Y1084916D01*
X531585Y1086249D02*
X526253D01*
Y1084916D01*
X531585Y1079584D01*
Y1078251D01*
X542415Y1121666D02*
X543748Y1122999D01*
X546414D01*
X547747Y1121666D01*
Y1116334D01*
X546414Y1115001D01*
X543748D01*
X542415Y1116334D01*
X539749Y1115001D02*
X537084D01*
X538416D01*
Y1122999D01*
X539749Y1121666D01*
X527753Y1122999D02*
X530419Y1121666D01*
X533085Y1119000D01*
Y1116334D01*
X531752Y1115001D01*
X529086D01*
X527753Y1116334D01*
Y1117667D01*
X529086Y1119000D01*
X533085D01*
X657665Y1020666D02*
X658998Y1021999D01*
X661664D01*
X662997Y1020666D01*
Y1015334D01*
X661664Y1014001D01*
X658998D01*
X657665Y1015334D01*
X654999Y1014001D02*
X652334D01*
X653666D01*
Y1021999D01*
X654999Y1020666D01*
X643003Y1021999D02*
X648335D01*
Y1018000D01*
X645669Y1019333D01*
X644336D01*
X643003Y1018000D01*
Y1015334D01*
X644336Y1014001D01*
X647002D01*
X648335Y1015334D01*
X502915Y1153166D02*
X504248Y1154499D01*
X506914D01*
X508247Y1153166D01*
Y1147834D01*
X506914Y1146501D01*
X504248D01*
X502915Y1147834D01*
X500249Y1146501D02*
X497584D01*
X498917D01*
Y1154499D01*
X500249Y1153166D01*
X489586Y1146501D02*
Y1154499D01*
X493585Y1150500D01*
X488253D01*
X503915Y1098416D02*
X505248Y1099749D01*
X507914D01*
X509247Y1098416D01*
Y1093084D01*
X507914Y1091751D01*
X505248D01*
X503915Y1093084D01*
X501249Y1091751D02*
X498584D01*
X499916D01*
Y1099749D01*
X501249Y1098416D01*
X494585D02*
X493252Y1099749D01*
X490586D01*
X489253Y1098416D01*
Y1097083D01*
X490586Y1095750D01*
X491919D01*
X490586D01*
X489253Y1094417D01*
Y1093084D01*
X490586Y1091751D01*
X493252D01*
X494585Y1093084D01*
X505915Y1041416D02*
X507248Y1042749D01*
X509914D01*
X511247Y1041416D01*
Y1036084D01*
X509914Y1034751D01*
X507248D01*
X505915Y1036084D01*
X503249Y1034751D02*
X500584D01*
X501917D01*
Y1042749D01*
X503249Y1041416D01*
X491253Y1034751D02*
X496585D01*
X491253Y1040083D01*
Y1041416D01*
X492586Y1042749D01*
X495252D01*
X496585Y1041416D01*
X477166Y1178168D02*
X478499Y1176835D01*
Y1174169D01*
X477166Y1172836D01*
X471834D01*
X470501Y1174169D01*
Y1176835D01*
X471834Y1178168D01*
X470501Y1180834D02*
Y1183499D01*
Y1182167D01*
X478499D01*
X477166Y1180834D01*
X470501Y1187498D02*
Y1190164D01*
Y1188831D01*
X478499D01*
X477166Y1187498D01*
X325415Y1100666D02*
X326748Y1101999D01*
X329414D01*
X330747Y1100666D01*
Y1095334D01*
X329414Y1094001D01*
X326748D01*
X325415Y1095334D01*
X322749Y1094001D02*
X320084D01*
X321417D01*
Y1101999D01*
X322749Y1100666D01*
X316085D02*
X314752Y1101999D01*
X312086D01*
X310753Y1100666D01*
Y1095334D01*
X312086Y1094001D01*
X314752D01*
X316085Y1095334D01*
Y1100666D01*
X323583Y1136916D02*
X324916Y1138249D01*
X327582D01*
X328914Y1136916D01*
Y1131584D01*
X327582Y1130251D01*
X324916D01*
X323583Y1131584D01*
X320917D02*
X319584Y1130251D01*
X316918D01*
X315585Y1131584D01*
Y1136916D01*
X316918Y1138249D01*
X319584D01*
X320917Y1136916D01*
Y1135583D01*
X319584Y1134250D01*
X315585D01*
X404916Y1053667D02*
X406249Y1052334D01*
Y1049668D01*
X404916Y1048335D01*
X399584D01*
X398251Y1049668D01*
Y1052334D01*
X399584Y1053667D01*
X404916Y1056333D02*
X406249Y1057666D01*
Y1060332D01*
X404916Y1061665D01*
X403583D01*
X402250Y1060332D01*
X400917Y1061665D01*
X399584D01*
X398251Y1060332D01*
Y1057666D01*
X399584Y1056333D01*
X400917D01*
X402250Y1057666D01*
X403583Y1056333D01*
X404916D01*
X402250Y1057666D02*
Y1060332D01*
D75*
X748000Y1344250D02*
X753000D01*
M02*
