G04*
G04 #@! TF.GenerationSoftware,Altium Limited,Altium Designer,24.4.1 (13)*
G04*
G04 Layer_Physical_Order=4*
G04 Layer_Color=16711680*
%FSLAX44Y44*%
%MOMM*%
G71*
G04*
G04 #@! TF.SameCoordinates,5A4A1F7D-102A-4DB2-8EF6-149E98EE43DC*
G04*
G04*
G04 #@! TF.FilePolarity,Positive*
G04*
G01*
G75*
%ADD14C,0.1500*%
%ADD19R,1.0000X1.1000*%
%ADD20R,1.1000X1.0000*%
G04:AMPARAMS|DCode=26|XSize=1.97mm|YSize=0.6mm|CornerRadius=0.162mm|HoleSize=0mm|Usage=FLASHONLY|Rotation=0.000|XOffset=0mm|YOffset=0mm|HoleType=Round|Shape=RoundedRectangle|*
%AMROUNDEDRECTD26*
21,1,1.9700,0.2760,0,0,0.0*
21,1,1.6460,0.6000,0,0,0.0*
1,1,0.3240,0.8230,-0.1380*
1,1,0.3240,-0.8230,-0.1380*
1,1,0.3240,-0.8230,0.1380*
1,1,0.3240,0.8230,0.1380*
%
%ADD26ROUNDEDRECTD26*%
%ADD29R,2.0000X2.0000*%
%ADD30R,1.6000X0.8000*%
%ADD31R,3.0000X2.1000*%
%ADD33R,1.6000X1.8000*%
%ADD60C,0.6000*%
%ADD61C,0.4000*%
%ADD63O,1.3000X2.6000*%
%ADD64C,3.7160*%
%ADD65O,1.2000X2.4000*%
%ADD66R,3.7160X3.7160*%
%ADD67O,2.0000X0.9000*%
%ADD68O,1.7000X0.9000*%
%ADD69C,0.6000*%
%ADD70C,1.5000*%
%ADD71C,0.8000*%
G04:AMPARAMS|DCode=72|XSize=1.97mm|YSize=0.6mm|CornerRadius=0.162mm|HoleSize=0mm|Usage=FLASHONLY|Rotation=90.000|XOffset=0mm|YOffset=0mm|HoleType=Round|Shape=RoundedRectangle|*
%AMROUNDEDRECTD72*
21,1,1.9700,0.2760,0,0,90.0*
21,1,1.6460,0.6000,0,0,90.0*
1,1,0.3240,0.1380,0.8230*
1,1,0.3240,0.1380,-0.8230*
1,1,0.3240,-0.1380,-0.8230*
1,1,0.3240,-0.1380,0.8230*
%
%ADD72ROUNDEDRECTD72*%
%ADD73R,6.5000X2.5000*%
%ADD74R,2.0000X2.0000*%
%ADD75R,1.1400X0.6000*%
%ADD76R,1.1400X0.3000*%
G36*
X758750Y1349650D02*
X758750D01*
Y1323650D01*
X793250D01*
Y1236150D01*
X772405D01*
X772125Y1236282D01*
X767588Y1240350D01*
Y1282396D01*
X768201Y1283009D01*
X769057Y1284491D01*
X769500Y1286144D01*
Y1287856D01*
X769057Y1289509D01*
X768201Y1290991D01*
X766991Y1292201D01*
X765509Y1293057D01*
X763856Y1293500D01*
X762144D01*
X758136Y1297551D01*
X757750Y1298287D01*
Y1304650D01*
Y1317650D01*
X736750D01*
Y1314914D01*
X723465D01*
X722115Y1316263D01*
X720094Y1317100D01*
X717906D01*
X715884Y1316263D01*
X714337Y1314716D01*
X713500Y1312694D01*
Y1310506D01*
X714337Y1308484D01*
X715466Y1305300D01*
X714587Y1301866D01*
X713750Y1299844D01*
Y1297656D01*
X714587Y1295634D01*
X715497Y1292500D01*
X714337Y1289615D01*
X714337Y1289615D01*
X714060Y1288947D01*
X713500Y1287594D01*
Y1285406D01*
X714337Y1283385D01*
X714337Y1283385D01*
X715615Y1280750D01*
X714837Y1277616D01*
X714000Y1275594D01*
Y1273406D01*
X714837Y1271385D01*
X715830Y1267875D01*
X714837Y1264365D01*
X714000Y1262344D01*
Y1260156D01*
X714837Y1258135D01*
X715588Y1254750D01*
X714337Y1251865D01*
X713500Y1249844D01*
Y1247656D01*
X714337Y1245635D01*
X715884Y1244087D01*
X717906Y1243250D01*
X720094D01*
X722115Y1244087D01*
X723465Y1245436D01*
X736750D01*
Y1242150D01*
X749826D01*
X752312Y1236150D01*
X749756Y1233594D01*
X748761Y1232106D01*
X748412Y1230350D01*
Y1175892D01*
X742412Y1175077D01*
X735934Y1181554D01*
Y1207596D01*
X735585Y1209352D01*
X734591Y1210841D01*
X722937Y1222494D01*
X721448Y1223489D01*
X719692Y1223838D01*
X712593D01*
X710837Y1223489D01*
X709349Y1222494D01*
X707006Y1220151D01*
X706011Y1218663D01*
X705662Y1216907D01*
Y1187458D01*
X698925Y1180722D01*
X694115Y1183681D01*
X693750Y1184032D01*
Y1186094D01*
X693651Y1186334D01*
X693273Y1188987D01*
X694865Y1192837D01*
X696413Y1194385D01*
X697250Y1196406D01*
Y1198594D01*
X696413Y1200615D01*
X695420Y1204125D01*
X696413Y1207635D01*
X697250Y1209656D01*
Y1211844D01*
X696413Y1213866D01*
X694865Y1215413D01*
X693581Y1219808D01*
X693989Y1221776D01*
X694250Y1222406D01*
Y1224594D01*
X693581Y1227085D01*
X694865Y1230669D01*
X696413Y1232216D01*
X697250Y1234237D01*
Y1236425D01*
X696413Y1238447D01*
X695739Y1239121D01*
X694796Y1240369D01*
X693969Y1244830D01*
X694356Y1246205D01*
X694750Y1247156D01*
Y1249344D01*
X693913Y1251366D01*
X692365Y1252913D01*
X694048Y1258710D01*
X694750Y1260406D01*
Y1262594D01*
X693913Y1264615D01*
X692365Y1266163D01*
X690344Y1267000D01*
X690304D01*
X689314Y1267876D01*
X686789Y1271868D01*
X686600Y1272543D01*
X686750Y1272906D01*
Y1275094D01*
X685913Y1277115D01*
X685448Y1277580D01*
X684431Y1279981D01*
X684663Y1284634D01*
X684663Y1284635D01*
X684804Y1284975D01*
X685500Y1286656D01*
Y1288844D01*
X685351Y1289203D01*
X684833Y1291082D01*
X685214Y1294406D01*
X685526Y1296409D01*
X686250Y1298156D01*
Y1300344D01*
X685413Y1302366D01*
X685176Y1305125D01*
X685164Y1307863D01*
X685601Y1309194D01*
X686000Y1310156D01*
Y1312344D01*
X685163Y1314366D01*
X683615Y1315913D01*
X681594Y1316750D01*
X679406D01*
X677384Y1315913D01*
X675837Y1314366D01*
X675000Y1312344D01*
Y1310156D01*
X675837Y1308134D01*
X676074Y1305375D01*
X676086Y1302637D01*
X675649Y1301306D01*
X675250Y1300344D01*
Y1298156D01*
X675399Y1297797D01*
X675917Y1295918D01*
X675536Y1292594D01*
X675224Y1290591D01*
X674500Y1288844D01*
Y1286656D01*
X675337Y1284635D01*
X675802Y1284170D01*
X676819Y1281769D01*
X676587Y1277116D01*
X676587Y1277115D01*
X676446Y1276775D01*
X675750Y1275094D01*
Y1272906D01*
X676587Y1270884D01*
X678135Y1269337D01*
X680156Y1268500D01*
X680196D01*
X681186Y1267624D01*
X683711Y1263632D01*
X683900Y1262957D01*
X683750Y1262594D01*
Y1260406D01*
X684587Y1258384D01*
X685930Y1257041D01*
X673907Y1245018D01*
X673189Y1243943D01*
X672250Y1242299D01*
X331611D01*
X330793Y1242299D01*
X330793Y1242299D01*
X330773Y1242295D01*
X330754Y1242299D01*
X330754Y1242299D01*
X330286Y1242198D01*
X330286Y1242198D01*
X329818Y1242105D01*
X329818Y1242105D01*
X329801Y1242094D01*
X329781Y1242089D01*
X329781Y1242089D01*
X329388Y1241818D01*
X328991Y1241552D01*
X328980Y1241536D01*
X328963Y1241524D01*
X327919Y1240447D01*
X327908Y1240430D01*
X327892Y1240418D01*
X327639Y1240013D01*
X327379Y1239612D01*
X327379Y1239612D01*
X327376Y1239592D01*
X327365Y1239575D01*
X327365Y1239575D01*
X327286Y1239102D01*
X327286Y1239102D01*
X327201Y1238633D01*
X327201Y1238633D01*
X327205Y1238614D01*
X327201Y1238594D01*
X327201Y1238594D01*
X327227Y1237776D01*
X328870Y1184914D01*
X328845Y1184243D01*
X328839Y1184140D01*
X328639Y1183501D01*
X328356Y1182910D01*
X326684Y1180329D01*
X325379Y1178914D01*
X279000D01*
Y1182100D01*
X258000D01*
Y1169100D01*
Y1156600D01*
Y1144100D01*
Y1131600D01*
Y1127447D01*
X257099Y1126844D01*
X254756Y1124501D01*
X253761Y1123013D01*
X253412Y1121257D01*
Y1113100D01*
X222500D01*
Y1200600D01*
X257000D01*
Y1226600D01*
X222500D01*
Y1240850D01*
X256000D01*
Y1266850D01*
X222500D01*
Y1316850D01*
X243745D01*
X249392Y1314486D01*
Y1285986D01*
X249819Y1283840D01*
X251035Y1282021D01*
X253671Y1279385D01*
X255490Y1278169D01*
X257000Y1277869D01*
Y1272850D01*
X278000D01*
X278000Y1272850D01*
X283688Y1272098D01*
X284087Y1271134D01*
X285634Y1269587D01*
X287656Y1268750D01*
X289844D01*
X291866Y1269587D01*
X293413Y1271134D01*
X294250Y1273156D01*
Y1275344D01*
X293413Y1277365D01*
X291989Y1279125D01*
X293163Y1281134D01*
X294000Y1283156D01*
Y1285344D01*
X299172Y1288536D01*
X319267D01*
X324750Y1286094D01*
X324750Y1283906D01*
X325066Y1281095D01*
X324249Y1277564D01*
X323870Y1276341D01*
X323250Y1274844D01*
Y1272656D01*
X324087Y1270635D01*
X325634Y1269087D01*
X327656Y1268250D01*
X329844D01*
X331866Y1269087D01*
X333413Y1270635D01*
X334250Y1272656D01*
X334250Y1274844D01*
X333934Y1277655D01*
X334751Y1281186D01*
X335130Y1282409D01*
X335750Y1283906D01*
Y1286094D01*
X341233Y1288536D01*
X373100D01*
X374368Y1288789D01*
X375443Y1289507D01*
X377373Y1291436D01*
X498753D01*
X517532Y1272657D01*
X518607Y1271939D01*
X519875Y1271686D01*
X637052D01*
X637299Y1271259D01*
X638509Y1270049D01*
X639991Y1269193D01*
X641644Y1268750D01*
X643356D01*
X645009Y1269193D01*
X646491Y1270049D01*
X647701Y1271259D01*
X648557Y1272741D01*
X649000Y1274394D01*
Y1276106D01*
X648557Y1277759D01*
X647701Y1279241D01*
X646491Y1280451D01*
X645009Y1281307D01*
X643356Y1281750D01*
X641644D01*
X639991Y1281307D01*
X638509Y1280451D01*
X637299Y1279241D01*
X636763Y1278314D01*
X521248D01*
X502468Y1297093D01*
X501393Y1297811D01*
X500125Y1298064D01*
X376000D01*
X374732Y1297811D01*
X373657Y1297093D01*
X371727Y1295164D01*
X349654D01*
X344111Y1297410D01*
Y1299598D01*
X343274Y1301620D01*
X341726Y1303167D01*
X339705Y1304004D01*
X337517D01*
X335495Y1303167D01*
X333948Y1301620D01*
X333111Y1299598D01*
Y1297410D01*
X327568Y1295164D01*
X300755D01*
X295500Y1298156D01*
Y1300344D01*
X294835Y1301950D01*
X294628Y1302587D01*
X294156Y1305575D01*
X294628Y1308563D01*
X294835Y1309200D01*
X295500Y1310806D01*
Y1312994D01*
X294663Y1315016D01*
X293116Y1316563D01*
X291094Y1317400D01*
X288906D01*
X286884Y1316563D01*
X285337Y1315016D01*
X284500Y1312994D01*
Y1310806D01*
X285165Y1309200D01*
X285372Y1308563D01*
X285844Y1305575D01*
X285372Y1302587D01*
X285165Y1301950D01*
X284500Y1300344D01*
X278500Y1298310D01*
X278000Y1298350D01*
Y1298350D01*
X260608D01*
Y1312163D01*
X261965Y1313521D01*
X263181Y1315340D01*
X263345Y1316164D01*
X291668Y1344488D01*
X293116Y1345087D01*
X294663Y1346635D01*
X295500Y1348656D01*
Y1350844D01*
X300273Y1355000D01*
X319132D01*
X323750Y1350594D01*
X323750Y1348406D01*
X324362Y1346928D01*
X324614Y1346179D01*
X324998Y1343250D01*
X324614Y1340321D01*
X324362Y1339572D01*
X323750Y1338094D01*
Y1335906D01*
X324587Y1333884D01*
X326134Y1332337D01*
X328156Y1331500D01*
X330344D01*
X332365Y1332337D01*
X333913Y1333884D01*
X334750Y1335906D01*
Y1338094D01*
X334138Y1339572D01*
X333886Y1340321D01*
X333502Y1343250D01*
X333886Y1346179D01*
X334138Y1346928D01*
X334750Y1348406D01*
X334750Y1350594D01*
X339367Y1355000D01*
X757181D01*
X758750Y1349650D01*
D02*
G37*
G36*
X280319Y1349000D02*
X261543Y1330224D01*
X256000Y1332520D01*
Y1342850D01*
X222500D01*
Y1355000D01*
X277834D01*
X280319Y1349000D01*
D02*
G37*
G36*
X672936Y1239064D02*
Y1221250D01*
X462784D01*
X459082Y1214248D01*
X458460Y1214069D01*
X455916Y1214750D01*
X453284D01*
X450740Y1214069D01*
X448460Y1212752D01*
X446598Y1210890D01*
X445281Y1208610D01*
X444600Y1206067D01*
Y1203434D01*
X445281Y1200890D01*
X446598Y1198610D01*
X448460Y1196748D01*
X449511Y1196141D01*
X446000Y1189500D01*
X446500Y1189000D01*
Y1164250D01*
X426750D01*
X422000Y1159500D01*
Y1147551D01*
X421500Y1146344D01*
Y1144156D01*
X422000Y1142949D01*
Y1138551D01*
X421500Y1137344D01*
Y1135156D01*
X421875Y1134250D01*
X421239Y1132750D01*
X417500D01*
Y1135750D01*
X352500Y1135750D01*
Y1135304D01*
X351000Y1134412D01*
X350518Y1134674D01*
X350064Y1136967D01*
Y1173971D01*
X349811Y1175239D01*
X349093Y1176314D01*
X347464Y1177943D01*
X346389Y1178661D01*
X345121Y1178914D01*
X341720D01*
X331423Y1184835D01*
X329749Y1238673D01*
X330793Y1239750D01*
X672250D01*
X672936Y1239064D01*
D02*
G37*
G36*
X470681Y1200890D02*
X471998Y1198610D01*
X473860Y1196748D01*
X476140Y1195432D01*
X478684Y1194750D01*
X481316D01*
X483860Y1195432D01*
X484350Y1195714D01*
X498364Y1181700D01*
X495699Y1176660D01*
X495495Y1176410D01*
X494500Y1176608D01*
X483358D01*
Y1177364D01*
X482931Y1179510D01*
X481715Y1181329D01*
X478079Y1184965D01*
X476260Y1186181D01*
X474114Y1186608D01*
X460386D01*
X458240Y1186181D01*
X457205Y1185489D01*
X453545Y1186162D01*
X450617Y1187380D01*
X449767Y1189731D01*
X453125Y1194792D01*
X453284Y1194750D01*
X455916D01*
X458460Y1195432D01*
X460740Y1196748D01*
X462602Y1198610D01*
X463918Y1200890D01*
X464224Y1202032D01*
X470376D01*
X470681Y1200890D01*
D02*
G37*
G36*
X340436Y1154377D02*
X339871Y1153914D01*
X279000D01*
Y1161240D01*
X340436D01*
Y1154377D01*
D02*
G37*
G36*
X714096Y1174430D02*
X713750Y1173594D01*
Y1171406D01*
X714587Y1169385D01*
X715936Y1168036D01*
Y1166750D01*
X716189Y1165482D01*
X716907Y1164407D01*
X726722Y1154592D01*
X724426Y1149049D01*
X692820D01*
X691383Y1153929D01*
X691327Y1155049D01*
X692663Y1156385D01*
X693500Y1158406D01*
Y1160594D01*
X692893Y1162058D01*
X693937Y1162756D01*
X709010Y1177829D01*
X714096Y1174430D01*
D02*
G37*
G36*
X682500Y1160594D02*
Y1158406D01*
X683337Y1156385D01*
X684673Y1155049D01*
X684617Y1153929D01*
X683180Y1149049D01*
X652267Y1149049D01*
X650750Y1149049D01*
X650750Y1149049D01*
X649775Y1148855D01*
X649774Y1148855D01*
X649025Y1148544D01*
X649025Y1148544D01*
X648198Y1147992D01*
X647645Y1147165D01*
X647451Y1146189D01*
X647451Y1146189D01*
X647451Y1146189D01*
X647451Y1144416D01*
Y1134532D01*
X642500Y1132000D01*
X631271D01*
X630700Y1132114D01*
X623393D01*
X622700Y1133150D01*
X621338Y1134061D01*
X619730Y1134381D01*
X603270D01*
X601662Y1134061D01*
X600300Y1133150D01*
X599389Y1131788D01*
X599069Y1130180D01*
Y1127420D01*
X596220Y1122905D01*
X594916Y1121708D01*
X587400D01*
X585254Y1121281D01*
X583435Y1120065D01*
X580772Y1117402D01*
X575206Y1118933D01*
X573516Y1124647D01*
X574111Y1125813D01*
X574431Y1127420D01*
Y1130180D01*
X574111Y1131788D01*
X573200Y1133150D01*
X571838Y1134061D01*
X570230Y1134381D01*
X553770D01*
X552163Y1134061D01*
X550800Y1133150D01*
X550263Y1133098D01*
X545750Y1137338D01*
Y1147000D01*
X529750D01*
Y1147000D01*
X527636Y1147627D01*
X525620Y1153331D01*
X533701Y1161412D01*
X681954D01*
X682500Y1160594D01*
D02*
G37*
G36*
X683159Y1176089D02*
X681290Y1170588D01*
X531800D01*
X530044Y1170239D01*
X528556Y1169244D01*
X508000Y1148688D01*
X502000Y1151174D01*
Y1162000D01*
X501730D01*
X500202Y1164357D01*
X499110Y1168000D01*
X499681Y1168854D01*
X500108Y1171000D01*
X499681Y1173146D01*
X498783Y1174490D01*
X499655Y1176913D01*
X500974Y1179075D01*
X501810Y1179936D01*
X675228D01*
X676496Y1180189D01*
X677571Y1180907D01*
X679276Y1181184D01*
X683159Y1176089D01*
D02*
G37*
G36*
X495430Y1142883D02*
X499912Y1138700D01*
Y1099033D01*
X495029Y1097152D01*
X493912Y1097084D01*
X489930Y1101065D01*
X488111Y1102281D01*
X485965Y1102708D01*
X476850D01*
X474704Y1102281D01*
X473074Y1101192D01*
X469800Y1104465D01*
X467981Y1105681D01*
X465835Y1106108D01*
X460966D01*
X452901Y1114173D01*
X454817Y1118739D01*
X455740Y1119819D01*
X458030D01*
X459637Y1120139D01*
X461421Y1121050D01*
X464579D01*
X466362Y1120139D01*
X467970Y1119819D01*
X470730D01*
X472337Y1120139D01*
X474120Y1121050D01*
X477279D01*
X479062Y1120139D01*
X480670Y1119819D01*
X483430D01*
X485037Y1120139D01*
X486400Y1121050D01*
X487311Y1122412D01*
X487631Y1124020D01*
Y1138286D01*
X487906Y1138470D01*
X492392Y1142955D01*
X495430Y1142883D01*
D02*
G37*
G36*
X793250Y1118000D02*
X766512D01*
X765509Y1123943D01*
X766991Y1124799D01*
X768201Y1126009D01*
X769057Y1127491D01*
X769500Y1129144D01*
Y1130856D01*
X769057Y1132509D01*
X768201Y1133991D01*
X767588Y1134604D01*
Y1156450D01*
X767239Y1158206D01*
X766244Y1159694D01*
X759694Y1166244D01*
X758339Y1167150D01*
X757500Y1167989D01*
Y1169557D01*
X757588Y1170000D01*
Y1174878D01*
X758500Y1180500D01*
X793250D01*
Y1118000D01*
D02*
G37*
G36*
X431500Y1150723D02*
Y1145500D01*
X433753D01*
X435002Y1144637D01*
X438369Y1140480D01*
Y1132386D01*
X438342Y1132250D01*
Y1115769D01*
X436216Y1114230D01*
X432725Y1112855D01*
X431750Y1113049D01*
X423417D01*
X417500Y1118013D01*
X417500Y1126462D01*
X421239Y1130201D01*
X421718Y1130296D01*
X422195Y1130387D01*
X422195Y1130387D01*
X422204Y1130393D01*
X422215Y1130395D01*
X422215Y1130395D01*
X422620Y1130666D01*
X423026Y1130932D01*
X423026Y1130933D01*
X423032Y1130942D01*
X423041Y1130948D01*
X423311Y1131351D01*
X423586Y1131755D01*
X424222Y1133255D01*
X424224Y1133266D01*
X424230Y1133275D01*
X424325Y1133752D01*
X424424Y1134228D01*
X424424Y1134229D01*
X424422Y1134239D01*
X424424Y1134250D01*
X424424Y1134250D01*
X424329Y1134728D01*
X424329Y1134728D01*
X424238Y1135206D01*
X424238Y1135206D01*
X424232Y1135215D01*
X424230Y1135225D01*
X424230Y1135226D01*
X424049Y1135663D01*
Y1136837D01*
X424355Y1137576D01*
X424549Y1138551D01*
Y1142949D01*
X424355Y1143924D01*
X424049Y1144663D01*
Y1145837D01*
X424355Y1146576D01*
X424549Y1147551D01*
Y1153295D01*
X425500Y1153930D01*
X431500Y1150723D01*
D02*
G37*
G36*
X732750Y1105250D02*
X723250D01*
X723250Y1118000D01*
X658250Y1118000D01*
X658250Y1105250D01*
X650500D01*
Y1063000D01*
X650000Y1054250D01*
X621500D01*
Y1085548D01*
X622700Y1086350D01*
X623611Y1087712D01*
X623931Y1089320D01*
Y1092080D01*
X623611Y1093688D01*
X622700Y1095050D01*
X622683Y1095062D01*
X622250Y1096750D01*
X622000Y1097000D01*
X620414Y1097000D01*
X599250D01*
Y1107646D01*
X599750Y1109000D01*
X599750Y1109000D01*
X600901Y1110250D01*
X626750D01*
Y1114811D01*
X627500Y1116000D01*
X642500D01*
Y1116750D01*
X650000D01*
Y1146189D01*
X650750Y1146500D01*
X732750D01*
X732750Y1105250D01*
D02*
G37*
G36*
X739162Y1094109D02*
Y1050634D01*
X735162Y1048977D01*
X733894Y1050244D01*
X732406Y1051239D01*
X730650Y1051588D01*
X693338D01*
Y1076600D01*
X693994Y1077256D01*
X694989Y1078744D01*
X695338Y1080500D01*
X694989Y1082256D01*
X693994Y1083744D01*
X692506Y1084739D01*
X690750Y1085088D01*
X688994Y1084739D01*
X687506Y1083744D01*
X685506Y1081744D01*
X684511Y1080256D01*
X684162Y1078500D01*
Y1047000D01*
X683546Y1046250D01*
X655250D01*
Y1090586D01*
X658250Y1093000D01*
X723250Y1093000D01*
Y1093000D01*
X724481Y1094221D01*
X739162Y1094109D01*
D02*
G37*
G36*
X793250Y1081157D02*
X790250Y1076400D01*
X756549D01*
Y1086808D01*
X758287Y1091432D01*
X762362Y1092000D01*
X793250D01*
Y1081157D01*
D02*
G37*
G36*
X253412Y1073850D02*
X222500D01*
Y1087100D01*
X253412D01*
Y1073850D01*
D02*
G37*
G36*
X450329Y1100884D02*
X450475Y1098909D01*
X449198Y1093992D01*
X448645Y1093165D01*
X448451Y1092189D01*
X448451Y1092189D01*
X448451Y1090415D01*
Y1072799D01*
X434299D01*
Y1077047D01*
X434250Y1077293D01*
Y1077544D01*
X434154Y1077776D01*
X434105Y1078022D01*
X433721Y1080544D01*
X433810Y1081436D01*
X434105Y1082478D01*
X434154Y1082724D01*
X434250Y1082956D01*
Y1083207D01*
X434299Y1083453D01*
Y1108938D01*
X439634Y1111087D01*
X440077Y1111136D01*
X450329Y1100884D01*
D02*
G37*
G36*
X552163Y1085439D02*
X553770Y1085119D01*
X561864D01*
X562000Y1085092D01*
X564607D01*
X567100Y1082250D01*
X565250Y1076250D01*
X565250D01*
Y1070358D01*
X550716D01*
X545500Y1072250D01*
Y1083482D01*
X548455Y1085081D01*
X551500Y1085882D01*
X552163Y1085439D01*
D02*
G37*
G36*
X431750Y1083453D02*
X430250Y1083155D01*
X430163Y1083365D01*
X428615Y1084913D01*
X426594Y1085750D01*
X424406D01*
X422384Y1084913D01*
X420837Y1083365D01*
X420000Y1081344D01*
Y1079156D01*
X420837Y1077134D01*
X422384Y1075587D01*
X424406Y1074750D01*
X426594D01*
X428615Y1075587D01*
X430163Y1077134D01*
X430250Y1077345D01*
X431750Y1077047D01*
Y1070250D01*
X451000D01*
Y1092189D01*
X451750Y1092500D01*
X463250D01*
Y1072500D01*
X469250Y1066500D01*
X470500D01*
Y1052793D01*
X470000Y1051500D01*
X378500D01*
Y1075250D01*
X353500D01*
Y1051500D01*
X352000D01*
Y1110250D01*
X352250Y1110500D01*
X431750D01*
Y1083453D01*
D02*
G37*
G36*
X499035Y1071285D02*
X500854Y1070069D01*
X503000Y1069642D01*
X505813D01*
X510705Y1064750D01*
X486063Y1040108D01*
X411250D01*
Y1046000D01*
X416028Y1048951D01*
X468640D01*
X470000Y1048951D01*
X470000Y1048951D01*
X470030Y1048957D01*
X470060Y1048952D01*
X470060Y1048952D01*
X470517Y1049054D01*
X470975Y1049145D01*
X471001Y1049162D01*
X471031Y1049169D01*
X471413Y1049438D01*
X471802Y1049698D01*
X471819Y1049723D01*
X471844Y1049741D01*
X472095Y1050136D01*
X472355Y1050525D01*
X472361Y1050555D01*
X472377Y1050581D01*
X472877Y1051873D01*
X472877Y1051873D01*
X472958Y1052334D01*
X473049Y1052793D01*
X473049Y1052793D01*
X473506Y1053250D01*
X486750D01*
Y1068250D01*
X486750Y1068250D01*
X487269Y1072111D01*
X489000Y1074250D01*
X496069D01*
X499035Y1071285D01*
D02*
G37*
G36*
X754000Y1091191D02*
Y1046250D01*
X748338D01*
Y1089284D01*
X751998Y1092021D01*
X754000Y1091191D01*
D02*
G37*
G36*
X334436Y1066123D02*
X330064Y1061750D01*
X328156D01*
X326134Y1060913D01*
X324587Y1059365D01*
X323750Y1057344D01*
Y1055156D01*
X324587Y1053135D01*
X326134Y1051587D01*
X324239Y1045878D01*
X323500Y1044094D01*
Y1041906D01*
X324337Y1039884D01*
X325512Y1037125D01*
X324587Y1034116D01*
X323750Y1032094D01*
Y1029906D01*
X324587Y1027885D01*
X325580Y1024375D01*
X324587Y1020865D01*
X323750Y1018844D01*
Y1016656D01*
X324587Y1014634D01*
X326134Y1013087D01*
X328156Y1012250D01*
X330344D01*
X332365Y1013087D01*
X333913Y1014634D01*
X334750Y1016656D01*
Y1018564D01*
X349093Y1032907D01*
X349811Y1033982D01*
X349814Y1033994D01*
X353406Y1039000D01*
X355594D01*
X357616Y1039837D01*
X359163Y1041385D01*
X360000Y1043406D01*
Y1045594D01*
X359163Y1047616D01*
X357616Y1049163D01*
X355855Y1050525D01*
X356049Y1051500D01*
Y1056943D01*
X361988Y1058770D01*
X362049Y1058771D01*
X367142Y1053677D01*
Y1034500D01*
X367569Y1032354D01*
X368785Y1030535D01*
X370604Y1029319D01*
X372750Y1028892D01*
X374896Y1029319D01*
X376715Y1030535D01*
X377931Y1032354D01*
X378358Y1034500D01*
Y1048834D01*
X378500Y1048951D01*
X385472D01*
X390250Y1046000D01*
Y1023000D01*
X411250D01*
Y1028892D01*
X488386D01*
X490532Y1029319D01*
X492351Y1030535D01*
X520959Y1059142D01*
X565250D01*
Y1053250D01*
X570142D01*
Y1048750D01*
X570569Y1046604D01*
X571785Y1044785D01*
X572250Y1044320D01*
Y1037250D01*
X583778Y1037250D01*
X584143Y1037250D01*
X585250Y1035594D01*
X585250Y1034660D01*
Y1033406D01*
X586087Y1031385D01*
X587635Y1029837D01*
X589656Y1029000D01*
X591844D01*
X593866Y1029837D01*
X595413Y1031385D01*
X596250Y1033406D01*
Y1035594D01*
X595413Y1037616D01*
X593866Y1039163D01*
X591844Y1040000D01*
X589656Y1040000D01*
X589414Y1040162D01*
X589414Y1040162D01*
X588250Y1040939D01*
X588250Y1041549D01*
X588250Y1046707D01*
X589656Y1052250D01*
X591844D01*
X593865Y1053087D01*
X593866D01*
X593892Y1053114D01*
X595413Y1054634D01*
X596250Y1056656D01*
Y1058844D01*
X595413Y1060865D01*
X594173Y1062750D01*
X595663Y1064385D01*
X596500Y1066406D01*
Y1068594D01*
X595663Y1070615D01*
X594115Y1072163D01*
X594163Y1074884D01*
X595000Y1076906D01*
Y1079094D01*
X594163Y1081115D01*
X592616Y1082663D01*
X590594Y1083500D01*
X588406D01*
X587358Y1083066D01*
X585815Y1083255D01*
X584111Y1083954D01*
X580973Y1085736D01*
X580931Y1085946D01*
X579715Y1087765D01*
X576624Y1090856D01*
X576730Y1091935D01*
X580315Y1095520D01*
X581531Y1097339D01*
X581958Y1099485D01*
Y1102727D01*
X589723Y1110492D01*
X591235D01*
X592502Y1110050D01*
X596701Y1107646D01*
Y1097000D01*
X596895Y1096025D01*
X597448Y1095198D01*
X598275Y1094645D01*
X599250Y1094451D01*
X616229D01*
X617631Y1092689D01*
X619698Y1087350D01*
X619558Y1087141D01*
X619381Y1086964D01*
X619285Y1086732D01*
X619145Y1086523D01*
X619096Y1086277D01*
X619000Y1086045D01*
Y1085794D01*
X618951Y1085548D01*
Y1054250D01*
X619145Y1053275D01*
X619698Y1052448D01*
X620525Y1051895D01*
X621500Y1051701D01*
X650000D01*
X652390Y1047225D01*
X652533Y1046895D01*
X652701Y1046381D01*
Y1046250D01*
X652895Y1045275D01*
X653448Y1044448D01*
X654275Y1043895D01*
X655250Y1043701D01*
X681250D01*
Y1039000D01*
X696250D01*
Y1042412D01*
X728749D01*
X733250Y1037911D01*
Y1028714D01*
X726472D01*
X725500Y1029686D01*
Y1031594D01*
X724663Y1033615D01*
X723115Y1035163D01*
X721094Y1036000D01*
X718906D01*
X716885Y1035163D01*
X715337Y1033615D01*
X714500Y1031594D01*
Y1029406D01*
X715337Y1027384D01*
X716233Y1024125D01*
X715087Y1021115D01*
X715087Y1021115D01*
X714899Y1020660D01*
X714250Y1019094D01*
Y1016906D01*
X714899Y1015340D01*
X715087Y1014884D01*
X715087Y1014884D01*
X716233Y1011875D01*
X715337Y1008615D01*
X714500Y1006594D01*
Y1004406D01*
X715337Y1002384D01*
X716470Y999250D01*
X715587Y995865D01*
X714750Y993844D01*
Y991656D01*
X715587Y989634D01*
X717134Y988087D01*
X719156Y987250D01*
X721344D01*
X722859Y987878D01*
X723068Y987836D01*
X733250D01*
Y981400D01*
X733250D01*
X732238Y975819D01*
X723524Y967105D01*
X722309Y965286D01*
X721882Y963140D01*
Y933108D01*
X711250D01*
X709104Y932681D01*
X707285Y931465D01*
X702774Y926954D01*
X701558Y925135D01*
X701131Y922989D01*
Y918447D01*
X700785Y918215D01*
X699569Y916396D01*
X699142Y914250D01*
Y913750D01*
X699569Y911604D01*
X700140Y910750D01*
X699048Y907107D01*
X697520Y904750D01*
X697250D01*
Y888750D01*
X697250D01*
X696735Y882963D01*
X689727D01*
X688339Y884662D01*
X686463Y888963D01*
X686750Y889656D01*
Y891844D01*
X686136Y893326D01*
X685961Y893748D01*
X685874Y894039D01*
X685164Y897250D01*
X685874Y900461D01*
X685961Y900751D01*
X686136Y901174D01*
X686750Y902656D01*
Y904844D01*
X686013Y906624D01*
X685894Y906951D01*
X685220Y910000D01*
X685608Y912967D01*
X685836Y913803D01*
X686500Y915406D01*
Y917594D01*
X685663Y919615D01*
X684116Y921163D01*
X682094Y922000D01*
X679906D01*
X677885Y921163D01*
X676337Y919615D01*
X675500Y917594D01*
Y915406D01*
X676237Y913626D01*
X676356Y913299D01*
X677030Y910250D01*
X676642Y907283D01*
X676414Y906447D01*
X675750Y904844D01*
Y902656D01*
X676364Y901174D01*
X676539Y900751D01*
X676626Y900461D01*
X677336Y897250D01*
X676626Y894039D01*
X676539Y893748D01*
X676364Y893326D01*
X675750Y891844D01*
Y889656D01*
X676274Y888392D01*
X676601Y887471D01*
X676846Y884625D01*
X676601Y881779D01*
X676274Y880858D01*
X675750Y879594D01*
Y877406D01*
X676502Y875590D01*
X676661Y874968D01*
X677205Y871875D01*
X676344Y868641D01*
X676326Y868587D01*
X676151Y868165D01*
X675500Y866594D01*
Y864406D01*
X676183Y862758D01*
X676375Y862160D01*
X676878Y859150D01*
X676375Y856140D01*
X676183Y855542D01*
X675500Y853894D01*
Y851706D01*
X676183Y850058D01*
X676375Y849460D01*
X676878Y846450D01*
X676375Y843440D01*
X676183Y842842D01*
X675500Y841194D01*
Y839006D01*
X676337Y836984D01*
X677885Y835437D01*
X679906Y834600D01*
X678940Y829000D01*
X262105D01*
X256250Y829350D01*
Y855350D01*
X222500D01*
Y917850D01*
X251662D01*
Y874900D01*
X252011Y873144D01*
X253006Y871656D01*
X255228Y869434D01*
X256583Y868528D01*
X257250Y867861D01*
Y861350D01*
X278250D01*
Y873850D01*
Y882164D01*
X297593Y901507D01*
X298311Y902582D01*
X298564Y903850D01*
Y937750D01*
X298311Y939018D01*
X297593Y940093D01*
X295750Y941936D01*
Y943844D01*
X294913Y945865D01*
X293365Y947413D01*
X291344Y948250D01*
X289156D01*
X287134Y947413D01*
X285587Y945865D01*
X284750Y943844D01*
Y941656D01*
X285587Y939634D01*
X286449Y936000D01*
X285337Y932616D01*
X284500Y930594D01*
Y928406D01*
X285337Y926385D01*
X286686Y925035D01*
Y912473D01*
X279102Y904888D01*
X278182Y904962D01*
X272980Y907251D01*
X272931Y907496D01*
X271715Y909315D01*
X269896Y910531D01*
X269608Y910588D01*
Y929500D01*
Y944927D01*
X300965Y976285D01*
X302181Y978104D01*
X302608Y980250D01*
Y1032857D01*
X302181Y1035003D01*
X300965Y1036822D01*
X296572Y1041215D01*
X294753Y1042431D01*
X292607Y1042858D01*
X286393D01*
X284247Y1042431D01*
X282428Y1041215D01*
X282171Y1040958D01*
X268000D01*
X266838Y1040727D01*
X265147Y1041573D01*
X264447Y1042394D01*
X262239Y1047644D01*
X262588Y1049400D01*
Y1119012D01*
X266500D01*
X266943Y1119100D01*
X279000D01*
Y1134786D01*
X334436D01*
Y1066123D01*
D02*
G37*
G36*
X251662Y1047650D02*
Y1036015D01*
X245506Y1029859D01*
X244511Y1028370D01*
X244162Y1026614D01*
Y1023440D01*
X243837Y1023115D01*
X243000Y1021094D01*
Y1018906D01*
X243837Y1016885D01*
X244162Y1016560D01*
Y1014543D01*
X244511Y1012787D01*
X245506Y1011298D01*
X251662Y1005142D01*
Y993507D01*
Y985550D01*
X251498Y985350D01*
X222500D01*
Y1047850D01*
X251498D01*
X251662Y1047650D01*
D02*
G37*
G36*
X790250Y1050400D02*
X793250Y1045643D01*
Y967657D01*
X790250Y962900D01*
X762350D01*
X760174Y966926D01*
X759629Y968900D01*
X759838Y969950D01*
Y982239D01*
X761241Y983049D01*
X762451Y984259D01*
X763307Y985741D01*
X763750Y987394D01*
Y989106D01*
X763307Y990759D01*
X762451Y992241D01*
X761241Y993451D01*
X759838Y994261D01*
Y1030850D01*
X759489Y1032606D01*
X758494Y1034094D01*
X756273Y1036316D01*
X754917Y1037222D01*
X754250Y1037889D01*
Y1043751D01*
X754975Y1043895D01*
X755802Y1044448D01*
X756355Y1045275D01*
X756549Y1046250D01*
Y1050400D01*
X790250D01*
D02*
G37*
G36*
X284485Y1013116D02*
X286506Y1012279D01*
X288694D01*
X291392Y1006902D01*
Y982573D01*
X267631Y958812D01*
X262088Y961108D01*
Y984300D01*
X261897Y985262D01*
X262696Y987564D01*
X265042Y991262D01*
X266000D01*
X266443Y991350D01*
X278500D01*
Y1003850D01*
Y1011565D01*
X283838Y1013763D01*
X284485Y1013116D01*
D02*
G37*
G36*
X252912Y943850D02*
X222500D01*
Y959350D01*
X252912D01*
Y943850D01*
D02*
G37*
G36*
X744163Y969762D02*
X748709Y966709D01*
X749662Y965519D01*
Y943024D01*
X747660Y937711D01*
X743872Y937258D01*
X736490D01*
X733097Y942515D01*
Y960817D01*
X742073Y969792D01*
X743750D01*
X743839Y969810D01*
X744163Y969762D01*
D02*
G37*
G36*
X769155Y936596D02*
X770905Y934443D01*
X772722Y930900D01*
X772629Y930198D01*
X772870Y928371D01*
X773575Y926668D01*
X774697Y925206D01*
X776160Y924083D01*
X777862Y923378D01*
X779690Y923138D01*
X787690D01*
X792089Y919969D01*
X793250Y918430D01*
Y855466D01*
X792089Y853927D01*
X787690Y850758D01*
X779690D01*
X777862Y850518D01*
X776160Y849812D01*
X774697Y848690D01*
X773575Y847228D01*
X772870Y845525D01*
X772629Y843698D01*
X772870Y841871D01*
X773575Y840168D01*
X774697Y838706D01*
X776160Y837583D01*
X777862Y836878D01*
X779690Y836638D01*
X784187D01*
X788689Y831052D01*
X788072Y829137D01*
X787945Y829000D01*
X722060D01*
X721094Y834600D01*
X723115Y835437D01*
X724663Y836984D01*
X724972Y837731D01*
X726598Y838465D01*
X728885Y838893D01*
X731418Y838809D01*
X731497Y838706D01*
X732959Y837583D01*
X734662Y836878D01*
X736490Y836638D01*
X747490D01*
X749317Y836878D01*
X751020Y837583D01*
X752482Y838706D01*
X753604Y840168D01*
X754309Y841871D01*
X754550Y843698D01*
X754309Y845525D01*
X753604Y847228D01*
X752482Y848690D01*
X751020Y849812D01*
X750773Y849915D01*
X749771Y852478D01*
X749398Y854612D01*
X749433Y856349D01*
X749890Y857451D01*
Y858645D01*
X749433Y859747D01*
X748589Y860591D01*
X749629Y864743D01*
X749978Y866498D01*
Y904839D01*
X751338Y905109D01*
X752826Y906104D01*
X758734Y912011D01*
X759729Y913500D01*
X760078Y915256D01*
Y936711D01*
X760233Y936900D01*
X768686D01*
X769155Y936596D01*
D02*
G37*
G36*
X697250Y859500D02*
X710822D01*
X711458Y858995D01*
X714769Y854543D01*
X714500Y853894D01*
Y851706D01*
X715183Y850058D01*
X715375Y849460D01*
X715878Y846450D01*
X715375Y843440D01*
X715183Y842842D01*
X714500Y841194D01*
Y839006D01*
X715337Y836984D01*
X716885Y835437D01*
X718906Y834600D01*
X717940Y829000D01*
X683060D01*
X682094Y834600D01*
X684116Y835437D01*
X685663Y836984D01*
X686500Y839006D01*
Y841194D01*
X685817Y842842D01*
X685625Y843440D01*
X685123Y846450D01*
X685625Y849460D01*
X685817Y850058D01*
X686500Y851706D01*
Y853894D01*
X685817Y855542D01*
X685625Y856140D01*
X685123Y859150D01*
X685625Y862160D01*
X685817Y862758D01*
X686500Y864406D01*
Y866594D01*
X686006Y867787D01*
X687343Y871237D01*
X688977Y873787D01*
X697250D01*
Y859500D01*
D02*
G37*
%LPC*%
G36*
X578106Y1343000D02*
X576394D01*
X574741Y1342557D01*
X573259Y1341701D01*
X571000Y1340774D01*
X568491Y1341451D01*
X567009Y1342307D01*
X565356Y1342750D01*
X563644D01*
X561991Y1342307D01*
X560509Y1341451D01*
X558000Y1340774D01*
X555741Y1341701D01*
X554259Y1342557D01*
X552606Y1343000D01*
X550894D01*
X549241Y1342557D01*
X547759Y1341701D01*
X546549Y1340491D01*
X545693Y1339009D01*
X545250Y1337356D01*
Y1335644D01*
X545693Y1333991D01*
X546549Y1332509D01*
X547759Y1331299D01*
X549241Y1330443D01*
X550894Y1330000D01*
X552606D01*
X554259Y1330443D01*
X555741Y1331299D01*
X558250Y1331976D01*
X560509Y1331049D01*
X561991Y1330193D01*
X563644Y1329750D01*
X565356D01*
X567009Y1330193D01*
X568491Y1331049D01*
X570750Y1331976D01*
X573259Y1331299D01*
X574741Y1330443D01*
X576394Y1330000D01*
X577749Y1330000D01*
X578106Y1330000D01*
X579091Y1330079D01*
X581091Y1329887D01*
X583904Y1324355D01*
X583823Y1323879D01*
X583750Y1323607D01*
X583750Y1323606D01*
X583750Y1323003D01*
Y1321894D01*
X584193Y1320241D01*
X585049Y1318759D01*
X586259Y1317549D01*
X587741Y1316693D01*
X589394Y1316250D01*
X591106D01*
X592759Y1316693D01*
X594241Y1317549D01*
X595451Y1318759D01*
X596307Y1320241D01*
X596750Y1321894D01*
Y1323606D01*
X596307Y1325259D01*
X595451Y1326741D01*
X594241Y1327951D01*
X592759Y1328807D01*
X591106Y1329250D01*
X589751Y1329250D01*
X589394Y1329250D01*
X588409Y1329171D01*
X586409Y1329363D01*
X583596Y1334895D01*
X583677Y1335371D01*
X583750Y1335643D01*
X583750Y1335644D01*
X583750Y1336247D01*
Y1337356D01*
X583307Y1339009D01*
X582451Y1340491D01*
X581241Y1341701D01*
X579759Y1342557D01*
X578106Y1343000D01*
D02*
G37*
G36*
X419356Y1344250D02*
X417644D01*
X415991Y1343807D01*
X414509Y1342951D01*
X413299Y1341741D01*
X412443Y1340259D01*
X412000Y1338606D01*
Y1336894D01*
X412443Y1335241D01*
X413299Y1333759D01*
X414509Y1332549D01*
X415991Y1331693D01*
X417644Y1331250D01*
X419356D01*
X421009Y1331693D01*
X422491Y1332549D01*
X422827Y1332885D01*
X426038Y1333072D01*
X426098Y1333065D01*
X429637Y1332039D01*
X429799Y1331759D01*
X431009Y1330549D01*
X432491Y1329693D01*
X434144Y1329250D01*
X435856D01*
X437509Y1329693D01*
X438991Y1330549D01*
X440201Y1331759D01*
X441057Y1333241D01*
X441500Y1334894D01*
Y1336606D01*
X441057Y1338259D01*
X440201Y1339741D01*
X438991Y1340951D01*
X437509Y1341807D01*
X435856Y1342250D01*
X434144D01*
X432491Y1341807D01*
X431009Y1340951D01*
X430673Y1340616D01*
X427462Y1340428D01*
X427402Y1340435D01*
X423863Y1341461D01*
X423701Y1341741D01*
X422491Y1342951D01*
X421009Y1343807D01*
X419356Y1344250D01*
D02*
G37*
G36*
X616356Y1331250D02*
X614644D01*
X612991Y1330807D01*
X611509Y1329951D01*
X610299Y1328741D01*
X609443Y1327259D01*
X609000Y1325606D01*
Y1323894D01*
X609443Y1322241D01*
X610299Y1320759D01*
X611509Y1319549D01*
X612991Y1318693D01*
X614644Y1318250D01*
X616356D01*
X618009Y1318693D01*
X619491Y1319549D01*
X620701Y1320759D01*
X621557Y1322241D01*
X622000Y1323894D01*
Y1325606D01*
X621557Y1327259D01*
X620701Y1328741D01*
X619491Y1329951D01*
X618009Y1330807D01*
X616356Y1331250D01*
D02*
G37*
G36*
X327041Y1324447D02*
X324853D01*
X322831Y1323609D01*
X321284Y1322062D01*
X320447Y1320041D01*
Y1317853D01*
X321284Y1315831D01*
X322831Y1314284D01*
X324853Y1313447D01*
X327041D01*
X329062Y1314284D01*
X330609Y1315831D01*
X331447Y1317853D01*
Y1320041D01*
X330609Y1322062D01*
X329062Y1323609D01*
X327041Y1324447D01*
D02*
G37*
G36*
X440856Y1278000D02*
X439144D01*
X437491Y1277557D01*
X436009Y1276701D01*
X434799Y1275491D01*
X433943Y1274009D01*
X433500Y1272356D01*
Y1270644D01*
X433943Y1268991D01*
X434799Y1267509D01*
X436009Y1266299D01*
X437491Y1265443D01*
X439144Y1265000D01*
X440856D01*
X442509Y1265443D01*
X443991Y1266299D01*
X445201Y1267509D01*
X446057Y1268991D01*
X446500Y1270644D01*
Y1272356D01*
X446057Y1274009D01*
X445201Y1275491D01*
X443991Y1276701D01*
X442509Y1277557D01*
X440856Y1278000D01*
D02*
G37*
G36*
X430517Y1214750D02*
X427883D01*
X425340Y1214069D01*
X423060Y1212752D01*
X421198Y1210890D01*
X419882Y1208610D01*
X419200Y1206067D01*
Y1203434D01*
X419882Y1200890D01*
X421198Y1198610D01*
X423060Y1196748D01*
X425340Y1195432D01*
X427883Y1194750D01*
X430517D01*
X433060Y1195432D01*
X435340Y1196748D01*
X437202Y1198610D01*
X438518Y1200890D01*
X439200Y1203434D01*
Y1206067D01*
X438518Y1208610D01*
X437202Y1210890D01*
X435340Y1212752D01*
X433060Y1214069D01*
X430517Y1214750D01*
D02*
G37*
G36*
X405117D02*
X402483D01*
X399940Y1214069D01*
X397660Y1212752D01*
X395798Y1210890D01*
X394482Y1208610D01*
X393800Y1206067D01*
Y1203434D01*
X394482Y1200890D01*
X395798Y1198610D01*
X397660Y1196748D01*
X399940Y1195432D01*
X402483Y1194750D01*
X405117D01*
X407660Y1195432D01*
X409940Y1196748D01*
X411802Y1198610D01*
X413119Y1200890D01*
X413800Y1203434D01*
Y1206067D01*
X413119Y1208610D01*
X411802Y1210890D01*
X409940Y1212752D01*
X407660Y1214069D01*
X405117Y1214750D01*
D02*
G37*
G36*
X379716D02*
X377084D01*
X374540Y1214069D01*
X372260Y1212752D01*
X370398Y1210890D01*
X369081Y1208610D01*
X368400Y1206067D01*
Y1203434D01*
X369081Y1200890D01*
X370398Y1198610D01*
X372260Y1196748D01*
X374540Y1195432D01*
X377084Y1194750D01*
X379716D01*
X382260Y1195432D01*
X384540Y1196748D01*
X386402Y1198610D01*
X387719Y1200890D01*
X388400Y1203434D01*
Y1206067D01*
X387719Y1208610D01*
X386402Y1210890D01*
X384540Y1212752D01*
X382260Y1214069D01*
X379716Y1214750D01*
D02*
G37*
G36*
X354316D02*
X351684D01*
X349140Y1214069D01*
X346860Y1212752D01*
X344998Y1210890D01*
X343681Y1208610D01*
X343000Y1206067D01*
Y1203434D01*
X343681Y1200890D01*
X344998Y1198610D01*
X346860Y1196748D01*
X349140Y1195432D01*
X351684Y1194750D01*
X354316D01*
X356860Y1195432D01*
X359140Y1196748D01*
X361002Y1198610D01*
X362318Y1200890D01*
X363000Y1203434D01*
Y1206067D01*
X362318Y1208610D01*
X361002Y1210890D01*
X359140Y1212752D01*
X356860Y1214069D01*
X354316Y1214750D01*
D02*
G37*
G36*
X412500Y1191000D02*
X391500D01*
Y1168000D01*
X412500D01*
Y1191000D01*
D02*
G37*
%LPD*%
G36*
X409951Y1170549D02*
X394049D01*
Y1188451D01*
X409951D01*
Y1170549D01*
D02*
G37*
%LPC*%
G36*
X626076Y1015080D02*
X621924D01*
X617851Y1014270D01*
X614015Y1012681D01*
X610562Y1010374D01*
X607626Y1007438D01*
X605319Y1003985D01*
X603730Y1000149D01*
X602920Y996076D01*
Y991924D01*
X603730Y987851D01*
X605319Y984015D01*
X607626Y980562D01*
X610562Y977626D01*
X614015Y975319D01*
X617851Y973730D01*
X621924Y972920D01*
X626076D01*
X630149Y973730D01*
X633985Y975319D01*
X637438Y977626D01*
X640374Y980562D01*
X642681Y984015D01*
X644270Y987851D01*
X645080Y991924D01*
Y996076D01*
X644270Y1000149D01*
X642681Y1003985D01*
X640374Y1007438D01*
X637438Y1010374D01*
X633985Y1012681D01*
X630149Y1014270D01*
X626076Y1015080D01*
D02*
G37*
G36*
X554076D02*
X549924D01*
X545851Y1014270D01*
X542015Y1012681D01*
X538562Y1010374D01*
X535626Y1007438D01*
X533319Y1003985D01*
X531730Y1000149D01*
X530920Y996076D01*
Y991924D01*
X531730Y987851D01*
X533319Y984015D01*
X535626Y980562D01*
X538562Y977626D01*
X542015Y975319D01*
X545851Y973730D01*
X549924Y972920D01*
X554076D01*
X558149Y973730D01*
X561985Y975319D01*
X565438Y977626D01*
X568374Y980562D01*
X570681Y984015D01*
X572270Y987851D01*
X573080Y991924D01*
Y996076D01*
X572270Y1000149D01*
X570681Y1003985D01*
X568374Y1007438D01*
X565438Y1010374D01*
X561985Y1012681D01*
X558149Y1014270D01*
X554076Y1015080D01*
D02*
G37*
G36*
X480580Y1014330D02*
X438420D01*
Y972170D01*
X480580D01*
Y1014330D01*
D02*
G37*
G36*
X645094Y966500D02*
X642906D01*
X640884Y965663D01*
X639337Y964116D01*
X638500Y962094D01*
Y959906D01*
X639337Y957885D01*
X640884Y956337D01*
X642906Y955500D01*
X645094D01*
X647115Y956337D01*
X648663Y957885D01*
X649500Y959906D01*
Y962094D01*
X648663Y964116D01*
X647115Y965663D01*
X645094Y966500D01*
D02*
G37*
G36*
X491000Y947823D02*
X488781Y947531D01*
X486713Y946675D01*
X484938Y945312D01*
X483575Y943537D01*
X482719Y941469D01*
X482427Y939250D01*
Y927250D01*
X482719Y925031D01*
X483575Y922963D01*
X484938Y921188D01*
X486713Y919825D01*
X488781Y918969D01*
X491000Y918677D01*
X493219Y918969D01*
X495287Y919825D01*
X497062Y921188D01*
X498425Y922963D01*
X499281Y925031D01*
X499573Y927250D01*
Y939250D01*
X499281Y941469D01*
X498425Y943537D01*
X497062Y945312D01*
X495287Y946675D01*
X493219Y947531D01*
X491000Y947823D01*
D02*
G37*
G36*
X356000D02*
X353781Y947531D01*
X351713Y946675D01*
X349938Y945312D01*
X348575Y943537D01*
X347719Y941469D01*
X347427Y939250D01*
Y927250D01*
X347719Y925031D01*
X348575Y922963D01*
X349938Y921188D01*
X351713Y919825D01*
X353781Y918969D01*
X356000Y918677D01*
X358219Y918969D01*
X360287Y919825D01*
X362062Y921188D01*
X363425Y922963D01*
X364281Y925031D01*
X364573Y927250D01*
Y939250D01*
X364281Y941469D01*
X363425Y943537D01*
X362062Y945312D01*
X360287Y946675D01*
X358219Y947531D01*
X356000Y947823D01*
D02*
G37*
G36*
X655500Y949578D02*
X653150Y949268D01*
X650961Y948362D01*
X649081Y946919D01*
X647638Y945039D01*
X646732Y942850D01*
X646422Y940500D01*
Y927500D01*
X646732Y925151D01*
X647638Y922961D01*
X649081Y921081D01*
X650961Y919639D01*
X653150Y918732D01*
X655500Y918422D01*
X657849Y918732D01*
X660039Y919639D01*
X661919Y921081D01*
X663361Y922961D01*
X664268Y925151D01*
X664578Y927500D01*
Y940500D01*
X664268Y942850D01*
X663361Y945039D01*
X661919Y946919D01*
X660039Y948362D01*
X657849Y949268D01*
X655500Y949578D01*
D02*
G37*
G36*
X520500D02*
X518150Y949268D01*
X515961Y948362D01*
X514081Y946919D01*
X512639Y945039D01*
X511732Y942850D01*
X511422Y940500D01*
Y927500D01*
X511732Y925151D01*
X512639Y922961D01*
X514081Y921081D01*
X515961Y919639D01*
X518150Y918732D01*
X520500Y918422D01*
X522849Y918732D01*
X525039Y919639D01*
X526919Y921081D01*
X528361Y922961D01*
X529268Y925151D01*
X529578Y927500D01*
Y940500D01*
X529268Y942850D01*
X528361Y945039D01*
X526919Y946919D01*
X525039Y948362D01*
X522849Y949268D01*
X520500Y949578D01*
D02*
G37*
G36*
X382594Y893750D02*
X380406D01*
X378385Y892913D01*
X376837Y891366D01*
X376000Y889344D01*
Y887156D01*
X376837Y885135D01*
X378385Y883587D01*
X380406Y882750D01*
X382594D01*
X384616Y883587D01*
X386163Y885135D01*
X387000Y887156D01*
Y889344D01*
X386163Y891366D01*
X384616Y892913D01*
X382594Y893750D01*
D02*
G37*
%LPD*%
D14*
X719000Y1311600D02*
X745500D01*
X746150Y1312250D01*
X519875Y1275000D02*
X644000D01*
X376000Y1294750D02*
X500125D01*
X519875Y1275000D01*
X373100Y1291850D02*
X376000Y1294750D01*
X267500Y1291850D02*
X373100D01*
X719000Y1286500D02*
X746900D01*
X719000Y1248750D02*
X747150D01*
X719500Y1261250D02*
X747150D01*
X719250Y1298750D02*
X747150D01*
X719500Y1274500D02*
X746400D01*
X635000Y1124000D02*
Y1124500D01*
X611500Y1128800D02*
X630700D01*
X635000Y1124500D01*
X531750Y1119000D02*
X534250D01*
X538500Y1123250D01*
X521000Y1108750D02*
X521500D01*
X531750Y1119000D01*
X467250Y1171000D02*
X471500Y1166750D01*
Y1163432D02*
Y1166750D01*
Y1163432D02*
X474500Y1160432D01*
Y1159750D02*
Y1160432D01*
Y1159750D02*
X479750Y1154500D01*
Y1154000D02*
Y1154500D01*
X719500Y1185250D02*
X730055Y1174695D01*
Y1168445D02*
X743000Y1155500D01*
X730055Y1168445D02*
Y1174695D01*
X719250Y1166750D02*
X743000Y1143000D01*
X719250Y1166750D02*
Y1172500D01*
X287321Y1017500D02*
X287600Y1017779D01*
X279150Y1017500D02*
X287321D01*
X329250Y1017750D02*
X346750Y1035250D01*
X482050Y1064050D02*
Y1082750D01*
X478750Y1060750D02*
X482050Y1064050D01*
X538250Y1139500D02*
X551200Y1126550D01*
X537750Y1139500D02*
X538250D01*
X551200Y1126550D02*
X563500D01*
X538500Y1108750D02*
X543600Y1113850D01*
X563500D01*
X538000Y1108750D02*
X538500D01*
X549250Y1093750D02*
X556650Y1101150D01*
X537250Y1093750D02*
X549250D01*
X556650Y1101150D02*
X563500D01*
X537500Y1079750D02*
Y1093500D01*
X537250Y1093750D02*
X537500Y1093500D01*
X491250Y1146500D02*
Y1153500D01*
X467600Y1141321D02*
Y1152650D01*
X467637Y1139787D02*
Y1141284D01*
X466500Y1153750D02*
X467600Y1152650D01*
Y1141321D02*
X467637Y1141284D01*
X467600Y1139750D02*
X467637Y1139787D01*
X439000Y1153500D02*
X454750D01*
X454900Y1139750D02*
Y1153500D01*
X455150Y1154000D02*
Y1158600D01*
X482050Y1138629D02*
X484234Y1140813D01*
X485563D02*
X491250Y1146500D01*
X482050Y1132250D02*
Y1138629D01*
X484234Y1140813D02*
X485563D01*
X728506Y871750D02*
X729558Y870698D01*
X709000Y871750D02*
X728506D01*
X730740Y870698D02*
X731990Y869448D01*
X729558Y870698D02*
X730740D01*
X731990Y869448D02*
X736190D01*
X290250Y942750D02*
X295250Y937750D01*
X290000Y911100D02*
Y929500D01*
X295250Y903850D02*
Y937750D01*
X271750Y880350D02*
X295250Y903850D01*
X278900Y1029750D02*
X289500D01*
X267750Y880350D02*
X271750D01*
X267750Y892850D02*
X271750D01*
X290000Y911100D01*
X568450Y1192500D02*
X671750D01*
X546050Y1189500D02*
X672993D01*
X501500Y1183250D02*
X675228D01*
X523650Y1186500D02*
X674235D01*
X556200Y1204750D02*
X568450Y1192500D01*
X505400Y1204750D02*
X523650Y1186500D01*
X671750Y1192500D02*
X676250Y1197000D01*
X530800Y1204750D02*
X546050Y1189500D01*
X674235Y1186500D02*
X683500Y1195765D01*
X672993Y1189500D02*
X680500Y1197007D01*
X676250Y1197000D02*
Y1242675D01*
X689250Y1255675D01*
X686500Y1212925D02*
X688750Y1215175D01*
X683500Y1227081D02*
X691750Y1235331D01*
X680500Y1239500D02*
X689250Y1248250D01*
X683500Y1195765D02*
Y1227081D01*
X688750Y1215175D02*
Y1223500D01*
X680500Y1197007D02*
Y1239500D01*
X689250Y1255675D02*
Y1261500D01*
X675228Y1183250D02*
X686500Y1194522D01*
Y1212925D01*
X480000Y1204750D02*
X501500Y1183250D01*
X329250Y1056250D02*
X337750Y1064750D01*
X268500Y1138100D02*
X336871D01*
X337750Y1064750D02*
Y1137221D01*
X336871Y1138100D02*
X337750Y1137221D01*
X340750Y1060325D02*
Y1149721D01*
X339871Y1150600D02*
X340750Y1149721D01*
X268500Y1150600D02*
X339871D01*
X329000Y1043000D02*
Y1048575D01*
X340750Y1060325D01*
X342871Y1164553D02*
X343750Y1163675D01*
X345121Y1175600D02*
X346750Y1173971D01*
X269953Y1164553D02*
X342871D01*
X329250Y1031000D02*
X343750Y1045500D01*
Y1163675D01*
X346750Y1035250D02*
Y1173971D01*
X268500Y1163100D02*
X269953Y1164553D01*
X268500Y1175600D02*
X345121D01*
X746150Y1312250D02*
X747250Y1311150D01*
X747150Y1298750D02*
X747250Y1298650D01*
X746900Y1286500D02*
X747250Y1286150D01*
X746400Y1274500D02*
X747250Y1273650D01*
X747150Y1261250D02*
X747250Y1261150D01*
X747150Y1248750D02*
X747250Y1248650D01*
X743000Y1155500D02*
X747000D01*
X743000Y1143000D02*
X747000D01*
X735440Y898698D02*
X736190Y899448D01*
X729948Y898198D02*
X730448Y898698D01*
X729558Y898198D02*
X729948D01*
X730448Y898698D02*
X735440D01*
X728110Y896750D02*
X729558Y898198D01*
X704750Y896750D02*
X728110D01*
X704750Y867500D02*
X709000Y871750D01*
X725100Y1025400D02*
X743750D01*
X720000Y1030500D02*
X725100Y1025400D01*
X719750Y1018000D02*
X724850Y1012900D01*
X743750D01*
X725100Y1000400D02*
X743750D01*
X720000Y1005500D02*
X725100Y1000400D01*
X723068Y991150D02*
X740500D01*
X721468Y992750D02*
X723068Y991150D01*
X740500D02*
X743750Y987900D01*
X720250Y992750D02*
X721468D01*
X268000Y1022850D02*
X272000D01*
X278900Y1029750D01*
X268000Y1010350D02*
X272000D01*
X279150Y1017500D01*
D19*
X439000Y1153500D02*
D03*
Y1170500D02*
D03*
X455000Y1171000D02*
D03*
Y1154000D02*
D03*
X494500Y1154000D02*
D03*
Y1171000D02*
D03*
X467250Y1171000D02*
D03*
Y1154000D02*
D03*
X479750Y1154000D02*
D03*
Y1171000D02*
D03*
X688750Y1030000D02*
D03*
Y1047000D02*
D03*
X635000Y1124000D02*
D03*
Y1107000D02*
D03*
X496500Y1082250D02*
D03*
Y1065250D02*
D03*
X704750Y896750D02*
D03*
Y913750D02*
D03*
Y867500D02*
D03*
Y850500D02*
D03*
D20*
X597250Y1044750D02*
D03*
X580250D02*
D03*
X520500Y1079750D02*
D03*
X537500D02*
D03*
X538500Y1123250D02*
D03*
X521500D02*
D03*
X520750Y1139500D02*
D03*
X537750D02*
D03*
X521000Y1108750D02*
D03*
X538000D02*
D03*
X537250Y1093750D02*
D03*
X520250D02*
D03*
X478750Y1060750D02*
D03*
X461750D02*
D03*
D26*
X562000Y1128800D02*
D03*
Y1116100D02*
D03*
Y1103400D02*
D03*
Y1090700D02*
D03*
X611500D02*
D03*
Y1103400D02*
D03*
Y1116100D02*
D03*
Y1128800D02*
D03*
D29*
X633000Y1067250D02*
D03*
Y1027250D02*
D03*
D30*
X267500Y1304350D02*
D03*
Y1291850D02*
D03*
Y1279350D02*
D03*
X743750Y1037900D02*
D03*
Y1025400D02*
D03*
Y1012900D02*
D03*
Y1000400D02*
D03*
Y987900D02*
D03*
Y975400D02*
D03*
X268500Y1125600D02*
D03*
Y1138100D02*
D03*
Y1150600D02*
D03*
Y1163100D02*
D03*
Y1175600D02*
D03*
Y1188100D02*
D03*
X267750Y867850D02*
D03*
Y880350D02*
D03*
Y892850D02*
D03*
Y905350D02*
D03*
X268000Y997850D02*
D03*
Y1010350D02*
D03*
Y1022850D02*
D03*
Y1035350D02*
D03*
X747000Y1168000D02*
D03*
Y1155500D02*
D03*
Y1143000D02*
D03*
Y1130500D02*
D03*
X747250Y1311150D02*
D03*
Y1298650D02*
D03*
Y1286150D02*
D03*
Y1273650D02*
D03*
Y1261150D02*
D03*
Y1248650D02*
D03*
D31*
X238500Y1329850D02*
D03*
Y1253850D02*
D03*
X772750Y1063400D02*
D03*
Y949900D02*
D03*
X239500Y1100100D02*
D03*
Y1213600D02*
D03*
X238750Y842350D02*
D03*
Y930850D02*
D03*
X239000Y972350D02*
D03*
Y1060850D02*
D03*
X776000Y1193500D02*
D03*
Y1105000D02*
D03*
X776250Y1336650D02*
D03*
Y1223150D02*
D03*
D33*
X575750Y1064750D02*
D03*
X603750D02*
D03*
X400750Y1034500D02*
D03*
X372750D02*
D03*
X374000Y1179500D02*
D03*
X402000D02*
D03*
D60*
X490208Y1089042D02*
X496500Y1082750D01*
Y1082250D02*
Y1082750D01*
X258000Y1318750D02*
X289508Y1350258D01*
X496500Y1081750D02*
Y1082250D01*
X568850Y1090700D02*
Y1092385D01*
X258000Y1317486D02*
Y1318750D01*
X255000Y1314486D02*
X258000Y1317486D01*
X255000Y1285986D02*
Y1314486D01*
X372750Y1034500D02*
Y1056000D01*
X469350Y1082750D02*
Y1096985D01*
X520750Y1139500D02*
X521125Y1139125D01*
X516000Y1118250D02*
X521000Y1123250D01*
X521500D01*
X511000Y1101886D02*
Y1115614D01*
X521125Y1123625D02*
X521500Y1123250D01*
X521125Y1123625D02*
Y1139125D01*
X513636Y1118250D02*
X516000D01*
X519750Y1093750D02*
X520250D01*
X514250Y1099250D02*
X519750Y1093750D01*
X513636Y1099250D02*
X514250D01*
X511000Y1101886D02*
X513636Y1099250D01*
X511000Y1115614D02*
X513636Y1118250D01*
X455000Y1171500D02*
X457750Y1174250D01*
Y1178364D01*
X460386Y1181000D02*
X474114D01*
X455000Y1171000D02*
Y1171500D01*
X474114Y1181000D02*
X477750Y1177364D01*
X457750Y1178364D02*
X460386Y1181000D01*
X477750Y1173000D02*
Y1177364D01*
Y1173000D02*
X479750Y1171000D01*
X494500D01*
X458643Y1100500D02*
X465835D01*
X469350Y1096985D01*
X443950Y1115193D02*
X458643Y1100500D01*
X443950Y1115193D02*
Y1132250D01*
X471343Y1091593D02*
X476850Y1097100D01*
X257636Y1283350D02*
X259500D01*
X255000Y1285986D02*
X257636Y1283350D01*
X263500Y1279350D02*
X267500D01*
X259500Y1283350D02*
X263500Y1279350D01*
X741500Y1116250D02*
X742750Y1117500D01*
X743750Y1130500D02*
X747000D01*
X742750Y1129500D02*
X743750Y1130500D01*
X742750Y1117500D02*
Y1129500D01*
X400750Y1034500D02*
X488386D01*
X518636Y1064750D01*
X576350Y1105050D02*
X587400Y1116100D01*
X572365Y1095900D02*
X572765D01*
X587400Y1116100D02*
X611500D01*
X572765Y1095900D02*
X576350Y1099485D01*
X562000Y1090700D02*
X568850D01*
X576350Y1099485D02*
Y1105050D01*
X568850Y1092385D02*
X572365Y1095900D01*
X575750Y1064750D02*
Y1083800D01*
X568850Y1090700D02*
X575750Y1083800D01*
Y1048750D02*
X579750Y1044750D01*
X575750Y1048750D02*
Y1064750D01*
X579750Y1044750D02*
X580250D01*
X496500Y1081750D02*
X503000Y1075250D01*
X508136D01*
X518636Y1064750D01*
X575750D01*
X476850Y1097100D02*
X485965D01*
X490208Y1092857D01*
Y1089042D02*
Y1092857D01*
X366000Y1062750D02*
X372750Y1056000D01*
X264000Y929500D02*
Y947250D01*
Y906350D02*
Y929500D01*
Y906350D02*
X265000Y905350D01*
X264000Y947250D02*
X297000Y980250D01*
X265000Y905350D02*
X267750D01*
X733490Y918948D02*
X736190D01*
X706739Y922989D02*
X711250Y927500D01*
X704750Y913750D02*
X706739Y915739D01*
X711250Y927500D02*
X726460D01*
X706739Y915739D02*
Y922989D01*
X727490Y924948D02*
X733490Y918948D01*
X704750Y913750D02*
Y914250D01*
X727490Y924948D02*
Y963140D01*
X739750Y975400D01*
X743750D01*
X268000Y1035350D02*
X284493D01*
X297000Y980250D02*
Y1032857D01*
X292607Y1037250D02*
X297000Y1032857D01*
X286393Y1037250D02*
X292607D01*
X284493Y1035350D02*
X286393Y1037250D01*
D61*
X763000Y1129550D02*
Y1156450D01*
X743750Y1103200D02*
X752992Y1112442D01*
Y1119542D02*
X763000Y1129550D01*
X756450Y1163000D02*
X763000Y1156450D01*
X752992Y1112442D02*
Y1119542D01*
X755250Y969950D02*
Y989250D01*
X752578Y1033072D02*
X753028D01*
X756250Y988250D02*
X757250D01*
X753028Y1033072D02*
X755250Y1030850D01*
Y989250D02*
X756250Y988250D01*
X755250Y989250D02*
Y1030850D01*
X747750Y1037900D02*
X752578Y1033072D01*
X763000Y1240350D02*
Y1287000D01*
X753000Y1230350D02*
X763000Y1240350D01*
X753000Y1170000D02*
Y1230350D01*
X751000Y1168000D02*
X753000Y1170000D01*
X747000Y1168000D02*
X751000D01*
X756000Y1163000D01*
X756450D01*
X743750Y1037900D02*
Y1103200D01*
X737190Y909948D02*
X743597D01*
X743750Y1037900D02*
X747750D01*
X754250Y968950D02*
X755250Y969950D01*
X754250Y937950D02*
X755490Y936711D01*
X749582Y909348D02*
X755490Y915256D01*
X744197Y909348D02*
X749582D01*
X743597Y909948D02*
X744197Y909348D01*
X736190Y910948D02*
X737190Y909948D01*
X755490Y915256D02*
Y936711D01*
X754250Y937950D02*
Y968950D01*
X742839Y863948D02*
X745390Y866498D01*
X737190Y863948D02*
X742839D01*
X736190Y862948D02*
X737190Y863948D01*
X745390Y866498D02*
Y907398D01*
X688750Y1047000D02*
Y1078500D01*
X690750Y1080500D01*
X258000Y1121257D02*
X260343Y1123600D01*
X266500D01*
X268500Y1125600D01*
X258000Y1049400D02*
Y1121257D01*
X248750Y1014543D02*
Y1026614D01*
X256250Y1047650D02*
X258000Y1049400D01*
X256250Y993507D02*
Y1007043D01*
Y985550D02*
Y993507D01*
X258593Y995850D01*
X248750Y1014543D02*
X256250Y1007043D01*
Y874900D02*
X258472Y872678D01*
X256250Y874900D02*
Y917900D01*
X258922Y872678D02*
X263750Y867850D01*
X258472Y872678D02*
X258922D01*
X257500Y919150D02*
Y984300D01*
X256250Y985550D02*
X257500Y984300D01*
X256250Y917900D02*
X257500Y919150D01*
X258593Y995850D02*
X266000D01*
X256250Y1034114D02*
Y1047650D01*
X248750Y1026614D02*
X256250Y1034114D01*
X263750Y867850D02*
X267750D01*
X266000Y995850D02*
X268000Y997850D01*
X710250Y1216907D02*
X712593Y1219250D01*
X719692D01*
X731346Y1207596D01*
Y1179654D02*
Y1207596D01*
Y1179654D02*
X743000Y1168000D01*
X747000D01*
X710250Y1185558D02*
Y1216907D01*
X504500Y1138700D02*
X531800Y1166000D01*
X504500Y1094050D02*
Y1138700D01*
Y1094050D02*
X513300Y1085250D01*
X690692Y1166000D02*
X710250Y1185558D01*
X513300Y1085250D02*
X514500D01*
X520000Y1079750D01*
X531800Y1166000D02*
X690692D01*
X520000Y1079750D02*
X520500D01*
X730650Y1047000D02*
X739750Y1037900D01*
X743750D01*
X688750Y1047000D02*
X730650D01*
X681375Y878375D02*
X719875D01*
X681250Y878500D02*
X681375Y878375D01*
X719875D02*
X720000Y878250D01*
D63*
X520500Y934000D02*
D03*
X655500D02*
D03*
D64*
X624000Y994000D02*
D03*
X552000D02*
D03*
X387500Y993250D02*
D03*
D65*
X491000Y933250D02*
D03*
X356000D02*
D03*
D66*
X459500Y993250D02*
D03*
D67*
X741990Y930198D02*
D03*
Y843698D02*
D03*
D68*
X783690Y930198D02*
D03*
Y843698D02*
D03*
D69*
X746890Y915848D02*
D03*
Y858048D02*
D03*
X720000Y852800D02*
D03*
X644000Y961000D02*
D03*
X720000Y840100D02*
D03*
X681000D02*
D03*
Y852800D02*
D03*
Y865500D02*
D03*
X719000Y1311600D02*
D03*
X325947Y1318947D02*
D03*
X329250Y1337000D02*
D03*
X499500Y1322250D02*
D03*
X381500Y888250D02*
D03*
X719500Y1261250D02*
D03*
Y1274500D02*
D03*
X719000Y1286500D02*
D03*
X719250Y1298750D02*
D03*
X719000Y1248750D02*
D03*
X330250Y1285000D02*
D03*
X338611Y1298504D02*
D03*
X288750Y1274250D02*
D03*
X328750Y1273750D02*
D03*
X288500Y1284250D02*
D03*
X427000Y1130500D02*
D03*
X480000Y1045750D02*
D03*
X681250Y1274000D02*
D03*
X680000Y1287750D02*
D03*
X680750Y1299250D02*
D03*
X332000Y1093750D02*
D03*
X322750Y1093000D02*
D03*
X301250Y1091250D02*
D03*
X280500Y1090750D02*
D03*
X293750Y1091500D02*
D03*
X313000Y1093250D02*
D03*
X271000Y1090000D02*
D03*
X591000Y1067500D02*
D03*
X590750Y1057750D02*
D03*
X589500Y1078000D02*
D03*
X590750Y1034500D02*
D03*
X610000Y1077500D02*
D03*
X644366Y1130591D02*
D03*
X521500Y1123250D02*
D03*
X427000Y1145250D02*
D03*
Y1136250D02*
D03*
X426500Y1118500D02*
D03*
X496000Y1082250D02*
D03*
X479750Y1164750D02*
D03*
X461750Y1108000D02*
D03*
X478250Y1112750D02*
D03*
X248500Y1020000D02*
D03*
X354500Y1044500D02*
D03*
X366000Y1062750D02*
D03*
X719500Y1185250D02*
D03*
X719250Y1172500D02*
D03*
X287600Y1017779D02*
D03*
X329250Y1017750D02*
D03*
X699000Y1027000D02*
D03*
X741250Y1116250D02*
D03*
X290000Y1299250D02*
D03*
X425500Y1080250D02*
D03*
X443750Y1083000D02*
D03*
X402000Y1179500D02*
D03*
X681250Y890750D02*
D03*
Y878500D02*
D03*
X264000Y929500D02*
D03*
X720000Y915750D02*
D03*
X681250Y903750D02*
D03*
X681000Y916500D02*
D03*
X720000Y865250D02*
D03*
Y878250D02*
D03*
X745750Y1177750D02*
D03*
X680750Y1324600D02*
D03*
Y1337300D02*
D03*
Y1350000D02*
D03*
X719750D02*
D03*
Y1337300D02*
D03*
Y1324600D02*
D03*
X513500Y1295000D02*
D03*
X290250Y942750D02*
D03*
X290000Y929500D02*
D03*
X289500Y1029750D02*
D03*
X329250Y1349500D02*
D03*
X290000Y1349750D02*
D03*
X290000Y1311900D02*
D03*
X417250Y1321500D02*
D03*
X290000Y839500D02*
D03*
X289750Y853000D02*
D03*
X290000Y865250D02*
D03*
X329000Y865500D02*
D03*
Y852500D02*
D03*
Y839500D02*
D03*
X691750Y1197500D02*
D03*
Y1210750D02*
D03*
Y1235331D02*
D03*
X688750Y1223500D02*
D03*
X689250Y1261500D02*
D03*
Y1248250D02*
D03*
X688250Y1185000D02*
D03*
X688000Y1172500D02*
D03*
Y1159500D02*
D03*
X680500Y1311250D02*
D03*
X719000Y1210750D02*
D03*
X719250Y1197750D02*
D03*
X720000Y904250D02*
D03*
X720750Y890750D02*
D03*
X704750Y913750D02*
D03*
Y850500D02*
D03*
X736190Y854948D02*
D03*
Y918948D02*
D03*
Y862948D02*
D03*
X720250Y992750D02*
D03*
X720000Y1005500D02*
D03*
Y1030500D02*
D03*
X719750Y1018000D02*
D03*
X329250Y1056250D02*
D03*
X329000Y1043000D02*
D03*
X329250Y1031000D02*
D03*
X415000Y844750D02*
D03*
X382250Y846000D02*
D03*
X634000Y858250D02*
D03*
X586000Y866750D02*
D03*
X578000D02*
D03*
X626000Y867000D02*
D03*
X633750D02*
D03*
X623000Y1295250D02*
D03*
X615500Y1341750D02*
D03*
X590250Y1339750D02*
D03*
D70*
X353100Y1254750D02*
D03*
X657900D02*
D03*
X378500D02*
D03*
X403900D02*
D03*
X429300D02*
D03*
X454700D02*
D03*
X480100D02*
D03*
X505500D02*
D03*
X530900D02*
D03*
X556300D02*
D03*
X581700D02*
D03*
X607100D02*
D03*
X632500D02*
D03*
X353100Y1229750D02*
D03*
X378500D02*
D03*
X403900D02*
D03*
X429300D02*
D03*
X454700D02*
D03*
X480100D02*
D03*
X505500D02*
D03*
X530900D02*
D03*
X556300D02*
D03*
X581700D02*
D03*
X607100D02*
D03*
X632500D02*
D03*
X657900D02*
D03*
X353000Y1204750D02*
D03*
X378400D02*
D03*
X403800D02*
D03*
X429200D02*
D03*
X454600D02*
D03*
X480000D02*
D03*
X505400D02*
D03*
X530800D02*
D03*
X556200D02*
D03*
X581600D02*
D03*
X607000D02*
D03*
X632400D02*
D03*
X657800D02*
D03*
D71*
X481750Y1325668D02*
D03*
X763000Y1130000D02*
D03*
X757250Y988250D02*
D03*
X763000Y1287000D02*
D03*
X642500Y1275250D02*
D03*
X268669Y1269669D02*
D03*
X418500Y1337750D02*
D03*
X435000Y1335750D02*
D03*
X440000Y1271500D02*
D03*
X551750Y1336500D02*
D03*
X564500Y1336250D02*
D03*
X577250Y1336500D02*
D03*
X590250Y1322750D02*
D03*
X615500Y1324750D02*
D03*
X371750Y1035000D02*
D03*
X399750Y1034000D02*
D03*
D72*
X482050Y1132250D02*
D03*
X469350D02*
D03*
X456650D02*
D03*
X443950D02*
D03*
Y1082750D02*
D03*
X456650D02*
D03*
X469350D02*
D03*
X482050D02*
D03*
D73*
X385000Y1098250D02*
D03*
Y1148250D02*
D03*
X690750Y1080500D02*
D03*
Y1130500D02*
D03*
D74*
X406000Y1062750D02*
D03*
X366000D02*
D03*
D75*
X736190Y918948D02*
D03*
Y910948D02*
D03*
Y862948D02*
D03*
Y854948D02*
D03*
D76*
Y889448D02*
D03*
Y894448D02*
D03*
Y899448D02*
D03*
Y904448D02*
D03*
Y884448D02*
D03*
Y879448D02*
D03*
Y874448D02*
D03*
Y869448D02*
D03*
M02*
