G04*
G04 #@! TF.GenerationSoftware,Altium Limited,Altium Designer,24.4.1 (13)*
G04*
G04 Layer_Color=128*
%FSLAX44Y44*%
%MOMM*%
G71*
G04*
G04 #@! TF.SameCoordinates,5A4A1F7D-102A-4DB2-8EF6-149E98EE43DC*
G04*
G04*
G04 #@! TF.FilePolarity,Positive*
G04*
G01*
G75*
%ADD19R,1.0000X1.1000*%
%ADD20R,1.1000X1.0000*%
G04:AMPARAMS|DCode=26|XSize=1.97mm|YSize=0.6mm|CornerRadius=0.162mm|HoleSize=0mm|Usage=FLASHONLY|Rotation=0.000|XOffset=0mm|YOffset=0mm|HoleType=Round|Shape=RoundedRectangle|*
%AMROUNDEDRECTD26*
21,1,1.9700,0.2760,0,0,0.0*
21,1,1.6460,0.6000,0,0,0.0*
1,1,0.3240,0.8230,-0.1380*
1,1,0.3240,-0.8230,-0.1380*
1,1,0.3240,-0.8230,0.1380*
1,1,0.3240,0.8230,0.1380*
%
%ADD26ROUNDEDRECTD26*%
%ADD29R,2.0000X2.0000*%
%ADD30R,1.6000X0.8000*%
%ADD31R,3.0000X2.1000*%
%ADD33R,1.6000X1.8000*%
G04:AMPARAMS|DCode=72|XSize=1.97mm|YSize=0.6mm|CornerRadius=0.162mm|HoleSize=0mm|Usage=FLASHONLY|Rotation=90.000|XOffset=0mm|YOffset=0mm|HoleType=Round|Shape=RoundedRectangle|*
%AMROUNDEDRECTD72*
21,1,1.9700,0.2760,0,0,90.0*
21,1,1.6460,0.6000,0,0,90.0*
1,1,0.3240,0.1380,0.8230*
1,1,0.3240,0.1380,-0.8230*
1,1,0.3240,-0.1380,-0.8230*
1,1,0.3240,-0.1380,0.8230*
%
%ADD72ROUNDEDRECTD72*%
%ADD73R,6.5000X2.5000*%
%ADD74R,2.0000X2.0000*%
%ADD75R,1.1400X0.6000*%
%ADD76R,1.1400X0.3000*%
G36*
X449217Y1106150D02*
Y1098127D01*
X461650D01*
Y1106150D01*
X449217D01*
D02*
G37*
G36*
X449229Y1116850D02*
Y1108852D01*
X461650D01*
Y1116850D01*
X449229D01*
D02*
G37*
G36*
X464353Y1106150D02*
Y1098130D01*
X476750D01*
Y1106150D01*
X464353D01*
D02*
G37*
G36*
X464354Y1116850D02*
Y1108854D01*
X476750D01*
Y1116850D01*
X464354D01*
D02*
G37*
G36*
X577400Y1095979D02*
X585398D01*
Y1108400D01*
X577400D01*
Y1095979D01*
D02*
G37*
G36*
X588100Y1095967D02*
X596123D01*
Y1108400D01*
X588100D01*
Y1095967D01*
D02*
G37*
G36*
X577400Y1111104D02*
X585396D01*
Y1123500D01*
X577400D01*
Y1111104D01*
D02*
G37*
G36*
X588100Y1111103D02*
X596120D01*
Y1123500D01*
X588100D01*
Y1111103D01*
D02*
G37*
D19*
X439000Y1153500D02*
D03*
Y1170500D02*
D03*
X455000Y1171000D02*
D03*
Y1154000D02*
D03*
X494500Y1154000D02*
D03*
Y1171000D02*
D03*
X467250Y1171000D02*
D03*
Y1154000D02*
D03*
X479750Y1154000D02*
D03*
Y1171000D02*
D03*
X688750Y1030000D02*
D03*
Y1047000D02*
D03*
X635000Y1124000D02*
D03*
Y1107000D02*
D03*
X496500Y1082250D02*
D03*
Y1065250D02*
D03*
X704750Y896750D02*
D03*
Y913750D02*
D03*
Y867500D02*
D03*
Y850500D02*
D03*
D20*
X597250Y1044750D02*
D03*
X580250D02*
D03*
X520500Y1079750D02*
D03*
X537500D02*
D03*
X538500Y1123250D02*
D03*
X521500D02*
D03*
X520750Y1139500D02*
D03*
X537750D02*
D03*
X521000Y1108750D02*
D03*
X538000D02*
D03*
X537250Y1093750D02*
D03*
X520250D02*
D03*
X478750Y1060750D02*
D03*
X461750D02*
D03*
D26*
X562000Y1128800D02*
D03*
Y1116100D02*
D03*
Y1103400D02*
D03*
Y1090700D02*
D03*
X611500D02*
D03*
Y1103400D02*
D03*
Y1116100D02*
D03*
Y1128800D02*
D03*
D29*
X633000Y1067250D02*
D03*
Y1027250D02*
D03*
D30*
X267500Y1304350D02*
D03*
Y1291850D02*
D03*
Y1279350D02*
D03*
X743750Y1037900D02*
D03*
Y1025400D02*
D03*
Y1012900D02*
D03*
Y1000400D02*
D03*
Y987900D02*
D03*
Y975400D02*
D03*
X268500Y1125600D02*
D03*
Y1138100D02*
D03*
Y1150600D02*
D03*
Y1163100D02*
D03*
Y1175600D02*
D03*
Y1188100D02*
D03*
X267750Y867850D02*
D03*
Y880350D02*
D03*
Y892850D02*
D03*
Y905350D02*
D03*
X268000Y997850D02*
D03*
Y1010350D02*
D03*
Y1022850D02*
D03*
Y1035350D02*
D03*
X747000Y1168000D02*
D03*
Y1155500D02*
D03*
Y1143000D02*
D03*
Y1130500D02*
D03*
X747250Y1311150D02*
D03*
Y1298650D02*
D03*
Y1286150D02*
D03*
Y1273650D02*
D03*
Y1261150D02*
D03*
Y1248650D02*
D03*
D31*
X238500Y1329850D02*
D03*
Y1253850D02*
D03*
X772750Y1063400D02*
D03*
Y949900D02*
D03*
X239500Y1100100D02*
D03*
Y1213600D02*
D03*
X238750Y842350D02*
D03*
Y930850D02*
D03*
X239000Y972350D02*
D03*
Y1060850D02*
D03*
X776000Y1193500D02*
D03*
Y1105000D02*
D03*
X776250Y1336650D02*
D03*
Y1223150D02*
D03*
D33*
X575750Y1064750D02*
D03*
X603750D02*
D03*
X400750Y1034500D02*
D03*
X372750D02*
D03*
X374000Y1179500D02*
D03*
X402000D02*
D03*
D72*
X482050Y1132250D02*
D03*
X469350D02*
D03*
X456650D02*
D03*
X443950D02*
D03*
Y1082750D02*
D03*
X456650D02*
D03*
X469350D02*
D03*
X482050D02*
D03*
D73*
X385000Y1098250D02*
D03*
Y1148250D02*
D03*
X690750Y1080500D02*
D03*
Y1130500D02*
D03*
D74*
X406000Y1062750D02*
D03*
X366000D02*
D03*
D75*
X736190Y918948D02*
D03*
Y910948D02*
D03*
Y862948D02*
D03*
Y854948D02*
D03*
D76*
Y889448D02*
D03*
Y894448D02*
D03*
Y899448D02*
D03*
Y904448D02*
D03*
Y884448D02*
D03*
Y879448D02*
D03*
Y874448D02*
D03*
Y869448D02*
D03*
M02*
