G04*
G04 #@! TF.GenerationSoftware,Altium Limited,Altium Designer,23.6.0 (18)*
G04*
G04 Layer_Physical_Order=2*
G04 Layer_Color=36540*
%FSLAX44Y44*%
%MOMM*%
G71*
G04*
G04 #@! TF.SameCoordinates,C0EE57D9-4E2B-4701-80FF-B58ABC17C381*
G04*
G04*
G04 #@! TF.FilePolarity,Positive*
G04*
G01*
G75*
%ADD14C,0.1500*%
%ADD48C,3.7160*%
%ADD51C,0.6000*%
%ADD54C,1.5000*%
G36*
X793000Y926618D02*
X791730Y926187D01*
X791386Y926636D01*
X790028Y927678D01*
X788447Y928333D01*
X786750Y928556D01*
X778750D01*
X777053Y928333D01*
X775472Y927678D01*
X774114Y926636D01*
X773072Y925278D01*
X772417Y923697D01*
X772194Y922000D01*
X772417Y920303D01*
X773072Y918722D01*
X774114Y917364D01*
X775472Y916322D01*
X777053Y915667D01*
X778750Y915444D01*
X786750D01*
X788447Y915667D01*
X790028Y916322D01*
X791386Y917364D01*
X791730Y917813D01*
X793000Y917382D01*
Y840118D01*
X791730Y839687D01*
X791386Y840136D01*
X790028Y841178D01*
X788447Y841833D01*
X786750Y842056D01*
X778750D01*
X777053Y841833D01*
X775472Y841178D01*
X774114Y840136D01*
X773072Y838778D01*
X772417Y837197D01*
X772194Y835500D01*
X772417Y833803D01*
X773072Y832222D01*
X774114Y830864D01*
X774889Y830270D01*
X774457Y829000D01*
X750843D01*
X750412Y830270D01*
X751186Y830864D01*
X752228Y832222D01*
X752883Y833803D01*
X753106Y835500D01*
X752883Y837197D01*
X752228Y838778D01*
X751186Y840136D01*
X749828Y841178D01*
X748247Y841833D01*
X746550Y842056D01*
X735550D01*
X733853Y841833D01*
X732272Y841178D01*
X730914Y840136D01*
X729872Y838778D01*
X729217Y837197D01*
X728994Y835500D01*
X729217Y833803D01*
X729872Y832222D01*
X730914Y830864D01*
X731689Y830270D01*
X731257Y829000D01*
X673085D01*
X673057Y829033D01*
X672742Y829582D01*
X672553Y830270D01*
X672600Y830341D01*
X672784Y830558D01*
X672819Y830669D01*
X672884Y830766D01*
X672940Y831045D01*
X673026Y831316D01*
X673017Y831432D01*
X673039Y831546D01*
Y869750D01*
X672884Y870530D01*
X672442Y871192D01*
X671780Y871634D01*
X671000Y871789D01*
X616969D01*
X616443Y873059D01*
X617942Y874558D01*
X618384Y875220D01*
X618539Y876000D01*
Y920961D01*
X670250D01*
X671030Y921116D01*
X671692Y921558D01*
X672134Y922220D01*
X672289Y923000D01*
Y1057461D01*
X731299D01*
X731496Y1057500D01*
X731697D01*
X731865Y1057533D01*
X731865D01*
X732050Y1057610D01*
X732080Y1057616D01*
X732104Y1057633D01*
X732600Y1057838D01*
X733162Y1058400D01*
X733367Y1058895D01*
X733384Y1058920D01*
X733390Y1058950D01*
X733467Y1059136D01*
X733567Y1059366D01*
X734477Y1060211D01*
X737627D01*
X737824Y1060250D01*
X738025D01*
X738211Y1060327D01*
X738407Y1060366D01*
X738574Y1060478D01*
X738760Y1060555D01*
X739819Y1060561D01*
X740265Y1060414D01*
X740418Y1060261D01*
X742255Y1059500D01*
X744245D01*
X746082Y1060261D01*
X746235Y1060414D01*
X747431Y1060808D01*
X747598Y1060696D01*
X747740Y1060555D01*
X747926Y1060478D01*
X748093Y1060366D01*
X748289Y1060327D01*
X748475Y1060250D01*
X748676D01*
X748873Y1060211D01*
X787500D01*
X788280Y1060366D01*
X788942Y1060808D01*
X789384Y1061470D01*
X789539Y1062250D01*
Y1313405D01*
X789692Y1313558D01*
X790134Y1314220D01*
X790289Y1315000D01*
X790134Y1315780D01*
X789692Y1316442D01*
X772192Y1333942D01*
X771530Y1334384D01*
X770750Y1334539D01*
X581039D01*
Y1349000D01*
X580961Y1349391D01*
X580886Y1349775D01*
X580885Y1349778D01*
X580884Y1349780D01*
X580665Y1350108D01*
X580446Y1350438D01*
X580443Y1350440D01*
X580442Y1350442D01*
X580115Y1350660D01*
X579785Y1350882D01*
X579783Y1350883D01*
X579780Y1350884D01*
X579395Y1350961D01*
X579005Y1351039D01*
X292654Y1351787D01*
X292653Y1351787D01*
X292652Y1351787D01*
X292261Y1351710D01*
X291874Y1351634D01*
X291873Y1351633D01*
X291871Y1351633D01*
X291545Y1351415D01*
X291211Y1351193D01*
X291210Y1351192D01*
X291209Y1351192D01*
X290310Y1350295D01*
X290309Y1350293D01*
X290308Y1350293D01*
X290087Y1349961D01*
X289867Y1349634D01*
X289867Y1349632D01*
X289866Y1349631D01*
X289789Y1349243D01*
X289711Y1348853D01*
X289711Y1348852D01*
X289711Y1348851D01*
Y1322000D01*
X289866Y1321220D01*
X290177Y1320470D01*
X290619Y1319808D01*
X291280Y1319366D01*
X292061Y1319211D01*
X512461D01*
Y1290422D01*
X512366Y1290280D01*
X512211Y1289500D01*
Y1259201D01*
X512237Y1259069D01*
X512228Y1258934D01*
X512314Y1258682D01*
X512366Y1258420D01*
X512441Y1258308D01*
X512484Y1258181D01*
X512847Y1257553D01*
X512863Y1257470D01*
X513012Y1257248D01*
X513130Y1257009D01*
X513231Y1256920D01*
X513305Y1256808D01*
X513527Y1256660D01*
X513728Y1256484D01*
X513855Y1256441D01*
X513967Y1256366D01*
X514228Y1256314D01*
X514481Y1256228D01*
X514615Y1256237D01*
X514747Y1256211D01*
X522353D01*
X522485Y1256237D01*
X522619Y1256228D01*
X522872Y1256314D01*
X523133Y1256366D01*
X523245Y1256441D01*
X523372Y1256484D01*
X523573Y1256660D01*
X523795Y1256808D01*
X523869Y1256920D01*
X523970Y1257009D01*
X524089Y1257248D01*
X524237Y1257470D01*
X524253Y1257553D01*
X525280Y1259331D01*
X526669Y1260720D01*
X528370Y1261702D01*
X530268Y1262211D01*
X532232D01*
X534130Y1261702D01*
X535831Y1260720D01*
X537220Y1259331D01*
X538247Y1257553D01*
X538263Y1257470D01*
X538411Y1257248D01*
X538530Y1257009D01*
X538631Y1256920D01*
X538705Y1256808D01*
X538927Y1256660D01*
X539128Y1256484D01*
X539255Y1256441D01*
X539367Y1256366D01*
X539628Y1256314D01*
X539881Y1256228D01*
X540015Y1256237D01*
X540147Y1256211D01*
X547753D01*
X547885Y1256237D01*
X548019Y1256228D01*
X548271Y1256314D01*
X548533Y1256366D01*
X548645Y1256441D01*
X548772Y1256484D01*
X548973Y1256660D01*
X549195Y1256808D01*
X549269Y1256920D01*
X549370Y1257009D01*
X549488Y1257248D01*
X549637Y1257470D01*
X549653Y1257553D01*
X550680Y1259331D01*
X552069Y1260720D01*
X553770Y1261702D01*
X555668Y1262211D01*
X557632D01*
X559530Y1261702D01*
X561231Y1260720D01*
X562620Y1259331D01*
X563647Y1257553D01*
X563663Y1257470D01*
X563811Y1257248D01*
X563929Y1257009D01*
X564031Y1256920D01*
X564105Y1256808D01*
X564327Y1256660D01*
X564528Y1256484D01*
X564655Y1256441D01*
X564767Y1256366D01*
X565028Y1256314D01*
X565281Y1256228D01*
X565415Y1256237D01*
X565547Y1256211D01*
X573153D01*
X573285Y1256237D01*
X573419Y1256228D01*
X573671Y1256314D01*
X573933Y1256366D01*
X574045Y1256441D01*
X574172Y1256484D01*
X574373Y1256660D01*
X574595Y1256808D01*
X574669Y1256920D01*
X574771Y1257009D01*
X574888Y1257248D01*
X575037Y1257470D01*
X575053Y1257553D01*
X576080Y1259331D01*
X577469Y1260720D01*
X579170Y1261702D01*
X581068Y1262211D01*
X583032D01*
X584930Y1261702D01*
X586631Y1260720D01*
X588020Y1259331D01*
X589047Y1257553D01*
X589063Y1257470D01*
X589212Y1257248D01*
X589329Y1257009D01*
X589431Y1256920D01*
X589505Y1256808D01*
X589727Y1256660D01*
X589928Y1256484D01*
X590055Y1256441D01*
X590167Y1256366D01*
X590428Y1256314D01*
X590681Y1256228D01*
X590815Y1256237D01*
X590947Y1256211D01*
X598290D01*
X598290Y1256211D01*
X599070Y1256366D01*
X599732Y1256808D01*
X600232Y1257308D01*
X600380Y1257530D01*
X600556Y1257730D01*
X601480Y1259331D01*
X602869Y1260720D01*
X604570Y1261702D01*
X606468Y1262211D01*
X608432D01*
X610330Y1261702D01*
X612031Y1260720D01*
X613420Y1259331D01*
X614344Y1257730D01*
X614520Y1257530D01*
X614668Y1257308D01*
X614780Y1257233D01*
X614869Y1257132D01*
X615108Y1257014D01*
X615330Y1256866D01*
X615462Y1256840D01*
X615582Y1256780D01*
X615849Y1256763D01*
X616110Y1256711D01*
X624190D01*
X624451Y1256763D01*
X624718Y1256780D01*
X624838Y1256840D01*
X624970Y1256866D01*
X625192Y1257014D01*
X625431Y1257132D01*
X625520Y1257233D01*
X625632Y1257308D01*
X625780Y1257530D01*
X625956Y1257730D01*
X626880Y1259331D01*
X628269Y1260720D01*
X629970Y1261702D01*
X631868Y1262211D01*
X633832D01*
X635730Y1261702D01*
X637431Y1260720D01*
X638820Y1259331D01*
X639744Y1257730D01*
X639920Y1257530D01*
X640068Y1257308D01*
X640180Y1257233D01*
X640269Y1257132D01*
X640508Y1257014D01*
X640730Y1256866D01*
X640862Y1256840D01*
X640982Y1256780D01*
X641249Y1256763D01*
X641510Y1256711D01*
X649590D01*
X649851Y1256763D01*
X650118Y1256780D01*
X650238Y1256840D01*
X650370Y1256866D01*
X650592Y1257014D01*
X650831Y1257132D01*
X650920Y1257233D01*
X651032Y1257308D01*
X651180Y1257530D01*
X651356Y1257730D01*
X652280Y1259331D01*
X653669Y1260720D01*
X655370Y1261702D01*
X657268Y1262211D01*
X659232D01*
X661130Y1261702D01*
X662831Y1260720D01*
X664220Y1259331D01*
X665144Y1257730D01*
X665320Y1257530D01*
X665468Y1257308D01*
X665580Y1257233D01*
X665669Y1257132D01*
X665908Y1257014D01*
X666130Y1256866D01*
X666262Y1256840D01*
X666382Y1256780D01*
X666649Y1256763D01*
X666910Y1256711D01*
X704214D01*
X704920Y1255655D01*
X704750Y1255245D01*
Y1253255D01*
X705511Y1251418D01*
X706880Y1250048D01*
X706866Y1250027D01*
X706827Y1249829D01*
X706749Y1249642D01*
X706750Y1249442D01*
X706711Y1249246D01*
Y1109039D01*
X587289D01*
Y1127750D01*
X587289Y1127750D01*
X587134Y1128530D01*
X586692Y1129192D01*
X577442Y1138442D01*
X576780Y1138884D01*
X576000Y1139039D01*
X370808D01*
X370482Y1138974D01*
X368831D01*
X368506Y1139039D01*
X334782D01*
X334289Y1228511D01*
X334210Y1228897D01*
X334134Y1229280D01*
X334131Y1229285D01*
X334130Y1229291D01*
X333909Y1229617D01*
X333692Y1229942D01*
X333687Y1229945D01*
X333684Y1229950D01*
X333356Y1230166D01*
X333030Y1230384D01*
X333025Y1230385D01*
X333020Y1230388D01*
X332634Y1230463D01*
X332250Y1230539D01*
X314750D01*
Y1231745D01*
X313989Y1233582D01*
X312582Y1234989D01*
X310745Y1235750D01*
X308755D01*
X306918Y1234989D01*
X305511Y1233582D01*
X304750Y1231745D01*
Y1230539D01*
X238000D01*
X237220Y1230384D01*
X236558Y1229942D01*
X236116Y1229280D01*
X235961Y1228500D01*
Y1095750D01*
X236116Y1094970D01*
X236558Y1094308D01*
X237220Y1093866D01*
X238000Y1093711D01*
X313711D01*
Y1091750D01*
X313866Y1090970D01*
X314177Y1090220D01*
X314619Y1089558D01*
X315280Y1089116D01*
X316061Y1088961D01*
X529711D01*
Y1073994D01*
X528441Y1073741D01*
X527989Y1074832D01*
X526582Y1076239D01*
X524745Y1077000D01*
X522755D01*
X520918Y1076239D01*
X519511Y1074832D01*
X518750Y1072995D01*
Y1071005D01*
X519511Y1069168D01*
X520918Y1067761D01*
X522755Y1067000D01*
X524745D01*
X526582Y1067761D01*
X527989Y1069168D01*
X528441Y1070259D01*
X529711Y1070006D01*
Y1035909D01*
X529866Y1035129D01*
X530308Y1034467D01*
X530970Y1034025D01*
X530970Y1034025D01*
X532143Y1033539D01*
X532143Y1033539D01*
X532923Y1033384D01*
X533704Y1033539D01*
X534365Y1033981D01*
X535595Y1035211D01*
X560961D01*
Y1020146D01*
X559905Y1019441D01*
X557253Y1020539D01*
X553277Y1021330D01*
X549223D01*
X545247Y1020539D01*
X541502Y1018988D01*
X538131Y1016736D01*
X535265Y1013869D01*
X533012Y1010498D01*
X531461Y1006753D01*
X530670Y1002777D01*
Y998723D01*
X531461Y994747D01*
X533012Y991002D01*
X535265Y987631D01*
X538131Y984764D01*
X541502Y982512D01*
X545247Y980961D01*
X546010Y980809D01*
X545885Y979539D01*
X466750D01*
X465970Y979384D01*
X465308Y978942D01*
X464866Y978280D01*
X464711Y977500D01*
Y929345D01*
X462155Y926789D01*
X419750D01*
X418970Y926634D01*
X418308Y926192D01*
X417866Y925530D01*
X417711Y924750D01*
Y843345D01*
X417558Y843192D01*
X417116Y842530D01*
X416961Y841750D01*
X417116Y840970D01*
X417558Y840308D01*
X417558Y840308D01*
X418808Y839058D01*
X419470Y838616D01*
X420250Y838461D01*
X436211D01*
Y830750D01*
X436306Y830270D01*
X435785Y829329D01*
X435486Y829000D01*
X223000D01*
Y1355000D01*
X738000D01*
Y1345000D01*
X763000D01*
Y1355000D01*
X793000D01*
Y926618D01*
D02*
G37*
G36*
X579000Y1349000D02*
Y1332500D01*
X770750D01*
X788250Y1315000D01*
X787500Y1314250D01*
Y1062250D01*
X748873D01*
X748167Y1063306D01*
X748250Y1063505D01*
Y1065495D01*
X747489Y1067332D01*
X746082Y1068739D01*
X744245Y1069500D01*
X742255D01*
X740418Y1068739D01*
X739011Y1067332D01*
X738250Y1065495D01*
Y1063505D01*
X738333Y1063306D01*
X737627Y1062250D01*
X731500D01*
Y1059701D01*
X731467Y1059533D01*
X731299Y1059500D01*
X670250D01*
Y1057461D01*
Y923201D01*
X670217Y923033D01*
X670049Y923000D01*
X616500D01*
Y876000D01*
X612750Y872250D01*
X615250Y869750D01*
X671000D01*
Y831546D01*
X670000Y830750D01*
X526181D01*
X525929Y832020D01*
X526965Y832449D01*
X528371Y833856D01*
X529133Y835693D01*
Y837683D01*
X528371Y839520D01*
X526965Y840927D01*
X525127Y841688D01*
X523138D01*
X521300Y840927D01*
X519894Y839520D01*
X519133Y837683D01*
Y835693D01*
X519894Y833856D01*
X521300Y832449D01*
X522337Y832020D01*
X522084Y830750D01*
X438250D01*
Y840500D01*
X420451D01*
X420265Y840537D01*
X420108Y840642D01*
X419142Y841608D01*
X419047Y841750D01*
X419142Y841892D01*
X419750Y842500D01*
Y924549D01*
X419783Y924717D01*
X419951Y924750D01*
X463000D01*
X466153Y927903D01*
X466153Y927903D01*
X466153Y927903D01*
X466750Y928500D01*
Y977299D01*
X466783Y977467D01*
X466951Y977500D01*
X556250D01*
X556500Y977250D01*
X563000Y983750D01*
Y1037250D01*
X534750D01*
X532923Y1035423D01*
X531750Y1035909D01*
Y1091000D01*
X316061D01*
X315750Y1091750D01*
Y1095750D01*
X238000D01*
Y1228500D01*
X305270D01*
X305511Y1227918D01*
X306918Y1226511D01*
X308755Y1225750D01*
X310745D01*
X312582Y1226511D01*
X313989Y1227918D01*
X314230Y1228500D01*
X332250D01*
X332754Y1137000D01*
X368506D01*
X368662Y1136935D01*
X370651D01*
X370808Y1137000D01*
X576000D01*
X585250Y1127750D01*
Y1107000D01*
X708842D01*
X708750Y1107250D01*
Y1249246D01*
X708755Y1249250D01*
X710745D01*
X712582Y1250011D01*
X713989Y1251418D01*
X714750Y1253255D01*
Y1255245D01*
X713989Y1257082D01*
X712582Y1258489D01*
X710745Y1259250D01*
X708755D01*
X707548Y1258750D01*
X666910D01*
X665852Y1260583D01*
X664083Y1262352D01*
X661917Y1263603D01*
X659501Y1264250D01*
X656999D01*
X654583Y1263603D01*
X652417Y1262352D01*
X650648Y1260583D01*
X649590Y1258750D01*
X641510D01*
X640452Y1260583D01*
X638683Y1262352D01*
X636517Y1263603D01*
X634101Y1264250D01*
X631599D01*
X629183Y1263603D01*
X627017Y1262352D01*
X625248Y1260583D01*
X624190Y1258750D01*
X616110D01*
X615052Y1260583D01*
X613283Y1262352D01*
X611117Y1263603D01*
X608701Y1264250D01*
X606199D01*
X603783Y1263603D01*
X601617Y1262352D01*
X599848Y1260583D01*
X598790Y1258750D01*
D01*
X598290Y1258250D01*
X590947D01*
X590903Y1258417D01*
X589652Y1260583D01*
X587883Y1262352D01*
X585717Y1263603D01*
X583301Y1264250D01*
X580799D01*
X578383Y1263603D01*
X576217Y1262352D01*
X574448Y1260583D01*
X573197Y1258417D01*
X573153Y1258250D01*
X565547D01*
X565503Y1258417D01*
X564252Y1260583D01*
X562483Y1262352D01*
X560317Y1263603D01*
X557901Y1264250D01*
X555399D01*
X552983Y1263603D01*
X550817Y1262352D01*
X549048Y1260583D01*
X547797Y1258417D01*
X547753Y1258250D01*
X540147D01*
X540103Y1258417D01*
X538852Y1260583D01*
X537083Y1262352D01*
X534917Y1263603D01*
X532501Y1264250D01*
X529999D01*
X527583Y1263603D01*
X525417Y1262352D01*
X523648Y1260583D01*
X522397Y1258417D01*
X522353Y1258250D01*
X514747D01*
X514703Y1258417D01*
X514250Y1259201D01*
Y1289500D01*
X514500Y1289750D01*
Y1320250D01*
X513500Y1321250D01*
X292061D01*
X291750Y1322000D01*
Y1348851D01*
X292649Y1349748D01*
X579000Y1349000D01*
D02*
G37*
%LPC*%
G36*
X250827Y1326454D02*
X248838D01*
X247000Y1325693D01*
X245593Y1324286D01*
X244832Y1322448D01*
Y1320459D01*
X245593Y1318622D01*
X247000Y1317215D01*
X248838Y1316454D01*
X250827D01*
X252664Y1317215D01*
X254071Y1318622D01*
X254832Y1320459D01*
Y1322448D01*
X254071Y1324286D01*
X252664Y1325693D01*
X250827Y1326454D01*
D02*
G37*
G36*
X310637Y1317242D02*
X308648D01*
X306810Y1316480D01*
X305403Y1315074D01*
X304642Y1313236D01*
Y1311247D01*
X305403Y1309409D01*
X306810Y1308003D01*
X308648Y1307242D01*
X310637D01*
X312474Y1308003D01*
X313881Y1309409D01*
X314642Y1311247D01*
Y1313236D01*
X313881Y1315074D01*
X312474Y1316480D01*
X310637Y1317242D01*
D02*
G37*
G36*
X442245Y1317000D02*
X440255D01*
X438418Y1316239D01*
X437011Y1314832D01*
X436250Y1312995D01*
Y1311005D01*
X437011Y1309168D01*
X438418Y1307761D01*
X440255Y1307000D01*
X442245D01*
X444082Y1307761D01*
X445489Y1309168D01*
X446250Y1311005D01*
Y1312995D01*
X445489Y1314832D01*
X444082Y1316239D01*
X442245Y1317000D01*
D02*
G37*
G36*
X360700Y1305184D02*
X358711D01*
X356873Y1304422D01*
X355466Y1303016D01*
X354705Y1301178D01*
Y1299189D01*
X355466Y1297351D01*
X356873Y1295945D01*
X358711Y1295184D01*
X360700D01*
X362537Y1295945D01*
X363944Y1297351D01*
X364705Y1299189D01*
Y1301178D01*
X363944Y1303016D01*
X362537Y1304422D01*
X360700Y1305184D01*
D02*
G37*
G36*
X311245Y1277000D02*
X309255D01*
X307418Y1276239D01*
X306011Y1274832D01*
X305250Y1272995D01*
Y1271005D01*
X306011Y1269168D01*
X307418Y1267761D01*
X309255Y1267000D01*
X311245D01*
X313082Y1267761D01*
X314489Y1269168D01*
X315250Y1271005D01*
Y1272995D01*
X314489Y1274832D01*
X313082Y1276239D01*
X311245Y1277000D01*
D02*
G37*
G36*
X695741Y1244468D02*
X693752D01*
X691914Y1243707D01*
X690511Y1242304D01*
X628811D01*
X627738Y1242090D01*
X626829Y1241483D01*
X618628Y1233282D01*
X618021Y1232373D01*
X617968Y1232108D01*
X616665Y1232066D01*
X616303Y1233417D01*
X615052Y1235583D01*
X613283Y1237352D01*
X611117Y1238603D01*
X608701Y1239250D01*
X606199D01*
X603783Y1238603D01*
X601617Y1237352D01*
X599848Y1235583D01*
X598597Y1233417D01*
X597950Y1231001D01*
Y1228499D01*
X598597Y1226083D01*
X599848Y1223917D01*
X601617Y1222148D01*
X602323Y1221740D01*
X601983Y1220470D01*
X587517D01*
X587177Y1221740D01*
X587883Y1222148D01*
X589652Y1223917D01*
X590903Y1226083D01*
X591550Y1228499D01*
Y1231001D01*
X590903Y1233417D01*
X589652Y1235583D01*
X587883Y1237352D01*
X585717Y1238603D01*
X583301Y1239250D01*
X580799D01*
X578383Y1238603D01*
X576217Y1237352D01*
X574448Y1235583D01*
X573197Y1233417D01*
X572550Y1231001D01*
Y1228499D01*
X573197Y1226083D01*
X574448Y1223917D01*
X576217Y1222148D01*
X576923Y1221740D01*
X576583Y1220470D01*
X562117D01*
X561777Y1221740D01*
X562483Y1222148D01*
X564252Y1223917D01*
X565503Y1226083D01*
X566150Y1228499D01*
Y1231001D01*
X565503Y1233417D01*
X564252Y1235583D01*
X562483Y1237352D01*
X560317Y1238603D01*
X557901Y1239250D01*
X555399D01*
X552983Y1238603D01*
X550817Y1237352D01*
X549048Y1235583D01*
X547797Y1233417D01*
X547150Y1231001D01*
Y1228499D01*
X547797Y1226083D01*
X549048Y1223917D01*
X550817Y1222148D01*
X551523Y1221740D01*
X551183Y1220470D01*
X536717D01*
X536377Y1221740D01*
X537083Y1222148D01*
X538852Y1223917D01*
X540103Y1226083D01*
X540750Y1228499D01*
Y1231001D01*
X540103Y1233417D01*
X538852Y1235583D01*
X537083Y1237352D01*
X534917Y1238603D01*
X532501Y1239250D01*
X529999D01*
X527583Y1238603D01*
X525417Y1237352D01*
X523648Y1235583D01*
X522397Y1233417D01*
X521750Y1231001D01*
Y1228499D01*
X522397Y1226083D01*
X523648Y1223917D01*
X525417Y1222148D01*
X526123Y1221740D01*
X525783Y1220470D01*
X518767D01*
X517694Y1220257D01*
X516784Y1219649D01*
X510291Y1213156D01*
X509517Y1213603D01*
X507101Y1214250D01*
X504599D01*
X502183Y1213603D01*
X500017Y1212352D01*
X498248Y1210583D01*
X496997Y1208417D01*
X496350Y1206001D01*
Y1203499D01*
X496997Y1201083D01*
X498248Y1198917D01*
X500017Y1197148D01*
X502183Y1195897D01*
X504599Y1195250D01*
X507101D01*
X509517Y1195897D01*
X511683Y1197148D01*
X513452Y1198917D01*
X514703Y1201083D01*
X515350Y1203499D01*
Y1206001D01*
X514703Y1208417D01*
X514256Y1209191D01*
X519928Y1214863D01*
X527379D01*
X527583Y1213603D01*
X525417Y1212352D01*
X523648Y1210583D01*
X522397Y1208417D01*
X521750Y1206001D01*
Y1203499D01*
X522397Y1201083D01*
X523648Y1198917D01*
X525417Y1197148D01*
X527583Y1195897D01*
X529999Y1195250D01*
X532501D01*
X534917Y1195897D01*
X537083Y1197148D01*
X538852Y1198917D01*
X540103Y1201083D01*
X540750Y1203499D01*
Y1206001D01*
X540103Y1208417D01*
X538852Y1210583D01*
X537083Y1212352D01*
X534917Y1213603D01*
X535121Y1214863D01*
X552779D01*
X552983Y1213603D01*
X550817Y1212352D01*
X549048Y1210583D01*
X547797Y1208417D01*
X547150Y1206001D01*
Y1203499D01*
X547797Y1201083D01*
X549048Y1198917D01*
X550817Y1197148D01*
X552983Y1195897D01*
X555399Y1195250D01*
X557901D01*
X560317Y1195897D01*
X562483Y1197148D01*
X564252Y1198917D01*
X565503Y1201083D01*
X566150Y1203499D01*
Y1206001D01*
X565503Y1208417D01*
X564252Y1210583D01*
X562483Y1212352D01*
X560317Y1213603D01*
X560521Y1214863D01*
X578179D01*
X578383Y1213603D01*
X576217Y1212352D01*
X574448Y1210583D01*
X573197Y1208417D01*
X572550Y1206001D01*
Y1203499D01*
X573197Y1201083D01*
X574448Y1198917D01*
X576217Y1197148D01*
X578383Y1195897D01*
X580799Y1195250D01*
X583301D01*
X585717Y1195897D01*
X587883Y1197148D01*
X589652Y1198917D01*
X590903Y1201083D01*
X591550Y1203499D01*
Y1206001D01*
X590903Y1208417D01*
X589652Y1210583D01*
X587883Y1212352D01*
X585717Y1213603D01*
X585921Y1214863D01*
X603579D01*
X603783Y1213603D01*
X601617Y1212352D01*
X599848Y1210583D01*
X598597Y1208417D01*
X597950Y1206001D01*
Y1203499D01*
X598597Y1201083D01*
X599848Y1198917D01*
X601617Y1197148D01*
X603783Y1195897D01*
X606199Y1195250D01*
X608701D01*
X611117Y1195897D01*
X613283Y1197148D01*
X615052Y1198917D01*
X616303Y1201083D01*
X616950Y1203499D01*
Y1206001D01*
X616303Y1208417D01*
X615052Y1210583D01*
X613283Y1212352D01*
X611117Y1213603D01*
X610573Y1213748D01*
X610616Y1215052D01*
X610740Y1215076D01*
X611649Y1215684D01*
X622549Y1226583D01*
X622780Y1226588D01*
X623928Y1226340D01*
X623997Y1226083D01*
X625248Y1223917D01*
X627017Y1222148D01*
X629183Y1220897D01*
X631599Y1220250D01*
X634101D01*
X636517Y1220897D01*
X638683Y1222148D01*
X640452Y1223917D01*
X641703Y1226083D01*
X642350Y1228499D01*
Y1231001D01*
X641703Y1233417D01*
X640543Y1235426D01*
X640929Y1236696D01*
X650171D01*
X650557Y1235426D01*
X649397Y1233417D01*
X648750Y1231001D01*
Y1228499D01*
X649397Y1226083D01*
X650648Y1223917D01*
X652417Y1222148D01*
X654583Y1220897D01*
X656999Y1220250D01*
X659501D01*
X661917Y1220897D01*
X664083Y1222148D01*
X665852Y1223917D01*
X667103Y1226083D01*
X667750Y1228499D01*
Y1231001D01*
X667103Y1233417D01*
X665943Y1235426D01*
X666329Y1236696D01*
X690483D01*
X690508Y1236636D01*
X691914Y1235229D01*
X693752Y1234468D01*
X695741D01*
X697579Y1235229D01*
X698985Y1236636D01*
X699746Y1238474D01*
Y1240463D01*
X698985Y1242300D01*
X697579Y1243707D01*
X695741Y1244468D01*
D02*
G37*
G36*
X507101Y1239250D02*
X504599D01*
X502183Y1238603D01*
X500017Y1237352D01*
X498248Y1235583D01*
X496997Y1233417D01*
X496350Y1231001D01*
Y1228499D01*
X496997Y1226083D01*
X498248Y1223917D01*
X500017Y1222148D01*
X502183Y1220897D01*
X504599Y1220250D01*
X507101D01*
X509517Y1220897D01*
X511683Y1222148D01*
X513452Y1223917D01*
X514703Y1226083D01*
X515350Y1228499D01*
Y1231001D01*
X514703Y1233417D01*
X513452Y1235583D01*
X511683Y1237352D01*
X509517Y1238603D01*
X507101Y1239250D01*
D02*
G37*
G36*
X481701D02*
X479199D01*
X476783Y1238603D01*
X474617Y1237352D01*
X472848Y1235583D01*
X471597Y1233417D01*
X470950Y1231001D01*
Y1228499D01*
X471597Y1226083D01*
X472848Y1223917D01*
X474617Y1222148D01*
X476783Y1220897D01*
X479199Y1220250D01*
X481701D01*
X484117Y1220897D01*
X486283Y1222148D01*
X488052Y1223917D01*
X489303Y1226083D01*
X489950Y1228499D01*
Y1231001D01*
X489303Y1233417D01*
X488052Y1235583D01*
X486283Y1237352D01*
X484117Y1238603D01*
X481701Y1239250D01*
D02*
G37*
G36*
X456301D02*
X453799D01*
X451383Y1238603D01*
X449217Y1237352D01*
X447448Y1235583D01*
X446197Y1233417D01*
X445550Y1231001D01*
Y1228499D01*
X446197Y1226083D01*
X447448Y1223917D01*
X449217Y1222148D01*
X451383Y1220897D01*
X453799Y1220250D01*
X456301D01*
X458717Y1220897D01*
X460883Y1222148D01*
X462652Y1223917D01*
X463903Y1226083D01*
X464550Y1228499D01*
Y1231001D01*
X463903Y1233417D01*
X462652Y1235583D01*
X460883Y1237352D01*
X458717Y1238603D01*
X456301Y1239250D01*
D02*
G37*
G36*
X430901D02*
X428399D01*
X425983Y1238603D01*
X423817Y1237352D01*
X422048Y1235583D01*
X420797Y1233417D01*
X420150Y1231001D01*
Y1228499D01*
X420797Y1226083D01*
X422048Y1223917D01*
X423817Y1222148D01*
X425983Y1220897D01*
X428399Y1220250D01*
X430901D01*
X433317Y1220897D01*
X435483Y1222148D01*
X437252Y1223917D01*
X438503Y1226083D01*
X439150Y1228499D01*
Y1231001D01*
X438503Y1233417D01*
X437252Y1235583D01*
X435483Y1237352D01*
X433317Y1238603D01*
X430901Y1239250D01*
D02*
G37*
G36*
X405501D02*
X402999D01*
X400583Y1238603D01*
X398417Y1237352D01*
X396648Y1235583D01*
X395397Y1233417D01*
X394750Y1231001D01*
Y1228499D01*
X395397Y1226083D01*
X396648Y1223917D01*
X398417Y1222148D01*
X400583Y1220897D01*
X402999Y1220250D01*
X405501D01*
X407917Y1220897D01*
X410083Y1222148D01*
X411852Y1223917D01*
X413103Y1226083D01*
X413750Y1228499D01*
Y1231001D01*
X413103Y1233417D01*
X411852Y1235583D01*
X410083Y1237352D01*
X407917Y1238603D01*
X405501Y1239250D01*
D02*
G37*
G36*
X380101D02*
X377599D01*
X375183Y1238603D01*
X373017Y1237352D01*
X371248Y1235583D01*
X369997Y1233417D01*
X369350Y1231001D01*
Y1228499D01*
X369997Y1226083D01*
X371248Y1223917D01*
X373017Y1222148D01*
X375183Y1220897D01*
X377599Y1220250D01*
X380101D01*
X382517Y1220897D01*
X384683Y1222148D01*
X386452Y1223917D01*
X387703Y1226083D01*
X388350Y1228499D01*
Y1231001D01*
X387703Y1233417D01*
X386452Y1235583D01*
X384683Y1237352D01*
X382517Y1238603D01*
X380101Y1239250D01*
D02*
G37*
G36*
X354701D02*
X352199D01*
X349783Y1238603D01*
X347617Y1237352D01*
X345848Y1235583D01*
X344597Y1233417D01*
X343950Y1231001D01*
Y1228499D01*
X344597Y1226083D01*
X345848Y1223917D01*
X347617Y1222148D01*
X349783Y1220897D01*
X352199Y1220250D01*
X354701D01*
X357117Y1220897D01*
X359283Y1222148D01*
X361052Y1223917D01*
X362303Y1226083D01*
X362950Y1228499D01*
Y1231001D01*
X362303Y1233417D01*
X361052Y1235583D01*
X359283Y1237352D01*
X357117Y1238603D01*
X354701Y1239250D01*
D02*
G37*
G36*
X439245Y1220500D02*
X437255D01*
X435418Y1219739D01*
X434011Y1218332D01*
X433250Y1216495D01*
Y1214935D01*
X432413Y1214076D01*
X432116Y1213924D01*
X430901Y1214250D01*
X428399D01*
X425983Y1213603D01*
X423817Y1212352D01*
X422048Y1210583D01*
X420797Y1208417D01*
X420150Y1206001D01*
Y1203499D01*
X420797Y1201083D01*
X422048Y1198917D01*
X423817Y1197148D01*
X425983Y1195897D01*
X428399Y1195250D01*
X430901D01*
X433317Y1195897D01*
X435483Y1197148D01*
X437252Y1198917D01*
X438503Y1201083D01*
X439150Y1203499D01*
Y1206001D01*
X438503Y1208417D01*
X437935Y1209400D01*
X438570Y1210500D01*
X439245D01*
X441082Y1211261D01*
X442489Y1212668D01*
X443250Y1214505D01*
Y1216495D01*
X442489Y1218332D01*
X441082Y1219739D01*
X439245Y1220500D01*
D02*
G37*
G36*
X230495Y1210000D02*
X228505D01*
X226668Y1209239D01*
X225261Y1207832D01*
X224500Y1205995D01*
Y1204005D01*
X225261Y1202168D01*
X226668Y1200761D01*
X228505Y1200000D01*
X230495D01*
X232332Y1200761D01*
X233739Y1202168D01*
X234500Y1204005D01*
Y1205995D01*
X233739Y1207832D01*
X232332Y1209239D01*
X230495Y1210000D01*
D02*
G37*
G36*
X659501Y1214250D02*
X656999D01*
X654583Y1213603D01*
X652417Y1212352D01*
X650648Y1210583D01*
X649397Y1208417D01*
X648750Y1206001D01*
Y1203499D01*
X649397Y1201083D01*
X650648Y1198917D01*
X652417Y1197148D01*
X654583Y1195897D01*
X656999Y1195250D01*
X659501D01*
X661917Y1195897D01*
X664083Y1197148D01*
X665852Y1198917D01*
X667103Y1201083D01*
X667750Y1203499D01*
Y1206001D01*
X667103Y1208417D01*
X665852Y1210583D01*
X664083Y1212352D01*
X661917Y1213603D01*
X659501Y1214250D01*
D02*
G37*
G36*
X634101D02*
X631599D01*
X629183Y1213603D01*
X627017Y1212352D01*
X625248Y1210583D01*
X623997Y1208417D01*
X623350Y1206001D01*
Y1203499D01*
X623997Y1201083D01*
X625248Y1198917D01*
X627017Y1197148D01*
X629183Y1195897D01*
X631599Y1195250D01*
X634101D01*
X636517Y1195897D01*
X638683Y1197148D01*
X640452Y1198917D01*
X641703Y1201083D01*
X642350Y1203499D01*
Y1206001D01*
X641703Y1208417D01*
X640452Y1210583D01*
X638683Y1212352D01*
X636517Y1213603D01*
X634101Y1214250D01*
D02*
G37*
G36*
X481701D02*
X479199D01*
X476783Y1213603D01*
X474617Y1212352D01*
X472848Y1210583D01*
X471597Y1208417D01*
X470950Y1206001D01*
Y1203499D01*
X471597Y1201083D01*
X472848Y1198917D01*
X474617Y1197148D01*
X476783Y1195897D01*
X479199Y1195250D01*
X481701D01*
X484117Y1195897D01*
X486283Y1197148D01*
X488052Y1198917D01*
X489303Y1201083D01*
X489950Y1203499D01*
Y1206001D01*
X489303Y1208417D01*
X488052Y1210583D01*
X486283Y1212352D01*
X484117Y1213603D01*
X481701Y1214250D01*
D02*
G37*
G36*
X456301D02*
X453799D01*
X451383Y1213603D01*
X449217Y1212352D01*
X447448Y1210583D01*
X446197Y1208417D01*
X445550Y1206001D01*
Y1203499D01*
X446197Y1201083D01*
X447448Y1198917D01*
X449217Y1197148D01*
X451383Y1195897D01*
X453799Y1195250D01*
X456301D01*
X458717Y1195897D01*
X460883Y1197148D01*
X462652Y1198917D01*
X463903Y1201083D01*
X464550Y1203499D01*
Y1206001D01*
X463903Y1208417D01*
X462652Y1210583D01*
X460883Y1212352D01*
X458717Y1213603D01*
X456301Y1214250D01*
D02*
G37*
G36*
X405501D02*
X402999D01*
X400583Y1213603D01*
X398417Y1212352D01*
X396648Y1210583D01*
X395397Y1208417D01*
X394750Y1206001D01*
Y1203499D01*
X395397Y1201083D01*
X396648Y1198917D01*
X398417Y1197148D01*
X400583Y1195897D01*
X401446Y1195666D01*
Y1187778D01*
X400273Y1187292D01*
X387256Y1200309D01*
X387703Y1201083D01*
X388350Y1203499D01*
Y1206001D01*
X387703Y1208417D01*
X386452Y1210583D01*
X384683Y1212352D01*
X382517Y1213603D01*
X380101Y1214250D01*
X377599D01*
X375183Y1213603D01*
X373017Y1212352D01*
X371248Y1210583D01*
X369997Y1208417D01*
X369350Y1206001D01*
Y1203499D01*
X369997Y1201083D01*
X371248Y1198917D01*
X373017Y1197148D01*
X375183Y1195897D01*
X377599Y1195250D01*
X380101D01*
X382517Y1195897D01*
X383291Y1196344D01*
X414867Y1164767D01*
X415777Y1164159D01*
X416850Y1163946D01*
X694249D01*
X694261Y1163918D01*
X695668Y1162511D01*
X697505Y1161750D01*
X699495D01*
X701332Y1162511D01*
X702739Y1163918D01*
X703500Y1165755D01*
Y1167745D01*
X702739Y1169582D01*
X701332Y1170989D01*
X699495Y1171750D01*
X699436D01*
X699340Y1172980D01*
X701178Y1173742D01*
X702585Y1175148D01*
X703346Y1176986D01*
Y1178975D01*
X702585Y1180813D01*
X701605Y1181792D01*
X701780Y1183240D01*
X701832Y1183261D01*
X703239Y1184668D01*
X704000Y1186506D01*
Y1188495D01*
X703239Y1190332D01*
X701832Y1191739D01*
X700072Y1192468D01*
X699975Y1192754D01*
X699896Y1193770D01*
X701082Y1194261D01*
X702489Y1195668D01*
X703250Y1197505D01*
Y1199495D01*
X702489Y1201332D01*
X701082Y1202739D01*
X699245Y1203500D01*
X697255D01*
X695418Y1202739D01*
X694011Y1201332D01*
X693250Y1199495D01*
Y1197505D01*
X694011Y1195668D01*
X695418Y1194261D01*
X697178Y1193532D01*
X697275Y1193247D01*
X697354Y1192230D01*
X696168Y1191739D01*
X694761Y1190332D01*
X694000Y1188495D01*
Y1187425D01*
X407054D01*
Y1195666D01*
X407917Y1195897D01*
X410083Y1197148D01*
X411852Y1198917D01*
X413103Y1201083D01*
X413750Y1203499D01*
Y1206001D01*
X413103Y1208417D01*
X411852Y1210583D01*
X410083Y1212352D01*
X407917Y1213603D01*
X405501Y1214250D01*
D02*
G37*
G36*
X354701D02*
X352199D01*
X349783Y1213603D01*
X347617Y1212352D01*
X345848Y1210583D01*
X344597Y1208417D01*
X343950Y1206001D01*
Y1203499D01*
X344597Y1201083D01*
X345848Y1198917D01*
X347617Y1197148D01*
X349783Y1195897D01*
X352199Y1195250D01*
X354701D01*
X357117Y1195897D01*
X357701Y1196235D01*
X398919Y1155017D01*
X399828Y1154410D01*
X400901Y1154196D01*
X412839D01*
X416017Y1151017D01*
X416927Y1150410D01*
X418000Y1150196D01*
X693999D01*
X694011Y1150168D01*
X695418Y1148761D01*
X697255Y1148000D01*
X699245D01*
X701082Y1148761D01*
X702489Y1150168D01*
X703250Y1152005D01*
Y1153995D01*
X702489Y1155832D01*
X701082Y1157239D01*
X699245Y1158000D01*
X697255D01*
X695418Y1157239D01*
X694011Y1155832D01*
X693999Y1155804D01*
X419161D01*
X415983Y1158983D01*
X415073Y1159590D01*
X414000Y1159804D01*
X402063D01*
X389501Y1172365D01*
X389923Y1173731D01*
X390540Y1173936D01*
X390783Y1173927D01*
X391511Y1172168D01*
X392918Y1170761D01*
X394755Y1170000D01*
X396745D01*
X398582Y1170761D01*
X399989Y1172168D01*
X400750Y1174005D01*
Y1175995D01*
X399989Y1177832D01*
X398582Y1179239D01*
X396745Y1180000D01*
X394755D01*
X393975Y1179677D01*
X393500Y1179995D01*
X392739Y1181832D01*
X391332Y1183239D01*
X389495Y1184000D01*
X387505D01*
X385668Y1183239D01*
X384261Y1181832D01*
X383549Y1180114D01*
X382327Y1179540D01*
X361747Y1200120D01*
X362303Y1201083D01*
X362950Y1203499D01*
Y1206001D01*
X362303Y1208417D01*
X361052Y1210583D01*
X359283Y1212352D01*
X357117Y1213603D01*
X354701Y1214250D01*
D02*
G37*
G36*
X352957Y1045747D02*
X350968D01*
X349131Y1044986D01*
X347724Y1043579D01*
X346963Y1041741D01*
Y1039752D01*
X347724Y1037915D01*
X349131Y1036508D01*
X350968Y1035747D01*
X352957D01*
X354795Y1036508D01*
X356202Y1037915D01*
X356963Y1039752D01*
Y1041741D01*
X356202Y1043579D01*
X354795Y1044986D01*
X352957Y1045747D01*
D02*
G37*
G36*
X413340Y1036230D02*
X411351D01*
X409514Y1035469D01*
X408107Y1034063D01*
X407346Y1032225D01*
Y1030236D01*
X408107Y1028398D01*
X409514Y1026992D01*
X411351Y1026230D01*
X413340D01*
X415178Y1026992D01*
X416585Y1028398D01*
X417346Y1030236D01*
Y1032225D01*
X416585Y1034063D01*
X415178Y1035469D01*
X413340Y1036230D01*
D02*
G37*
G36*
X311444Y1035456D02*
X309455D01*
X307617Y1034695D01*
X306210Y1033289D01*
X305449Y1031451D01*
Y1029462D01*
X306210Y1027624D01*
X307617Y1026218D01*
X309455Y1025456D01*
X311444D01*
X313281Y1026218D01*
X314688Y1027624D01*
X315449Y1029462D01*
Y1031451D01*
X314688Y1033289D01*
X313281Y1034695D01*
X311444Y1035456D01*
D02*
G37*
G36*
X488172Y1035034D02*
X486183D01*
X484345Y1034273D01*
X482939Y1032866D01*
X482178Y1031029D01*
Y1029040D01*
X482939Y1027202D01*
X484345Y1025795D01*
X486183Y1025034D01*
X488172D01*
X490010Y1025795D01*
X491416Y1027202D01*
X492178Y1029040D01*
Y1031029D01*
X491416Y1032866D01*
X490010Y1034273D01*
X488172Y1035034D01*
D02*
G37*
G36*
X309194Y1022456D02*
X307205D01*
X305367Y1021695D01*
X303960Y1020289D01*
X303199Y1018451D01*
Y1016462D01*
X303960Y1014624D01*
X305367Y1013218D01*
X307205Y1012456D01*
X309194D01*
X311031Y1013218D01*
X312438Y1014624D01*
X313199Y1016462D01*
Y1018451D01*
X312438Y1020289D01*
X311031Y1021695D01*
X309194Y1022456D01*
D02*
G37*
G36*
X776512Y1019888D02*
X774523D01*
X772685Y1019127D01*
X771278Y1017720D01*
X770517Y1015882D01*
Y1013893D01*
X771278Y1012055D01*
X772685Y1010649D01*
X774523Y1009888D01*
X776512D01*
X778350Y1010649D01*
X779756Y1012055D01*
X780517Y1013893D01*
Y1015882D01*
X779756Y1017720D01*
X778350Y1019127D01*
X776512Y1019888D01*
D02*
G37*
G36*
X773762Y1007138D02*
X771773D01*
X769935Y1006376D01*
X768528Y1004970D01*
X767767Y1003132D01*
Y1001143D01*
X768528Y999305D01*
X769935Y997899D01*
X771773Y997138D01*
X773762D01*
X775600Y997899D01*
X777006Y999305D01*
X777767Y1001143D01*
Y1003132D01*
X777006Y1004970D01*
X775600Y1006376D01*
X773762Y1007138D01*
D02*
G37*
G36*
X698995Y998000D02*
X697005D01*
X695168Y997239D01*
X693761Y995832D01*
X693000Y993995D01*
Y992005D01*
X693761Y990168D01*
X695168Y988761D01*
X697005Y988000D01*
X698995D01*
X700832Y988761D01*
X702239Y990168D01*
X703000Y992005D01*
Y993995D01*
X702239Y995832D01*
X700832Y997239D01*
X698995Y998000D01*
D02*
G37*
G36*
X772012Y995638D02*
X770023D01*
X768185Y994876D01*
X766778Y993470D01*
X766017Y991632D01*
Y989643D01*
X766778Y987805D01*
X768185Y986399D01*
X770023Y985638D01*
X772012D01*
X773849Y986399D01*
X775256Y987805D01*
X776017Y989643D01*
Y991632D01*
X775256Y993470D01*
X773849Y994876D01*
X772012Y995638D01*
D02*
G37*
G36*
X391777Y1021330D02*
X387723D01*
X383747Y1020539D01*
X380002Y1018988D01*
X376631Y1016736D01*
X373764Y1013869D01*
X371512Y1010498D01*
X369961Y1006753D01*
X369170Y1002777D01*
Y998723D01*
X369961Y994747D01*
X371512Y991002D01*
X373764Y987631D01*
X376631Y984764D01*
X380002Y982512D01*
X383747Y980961D01*
X387723Y980170D01*
X391777D01*
X395753Y980961D01*
X399498Y982512D01*
X402869Y984764D01*
X405736Y987631D01*
X407988Y991002D01*
X409539Y994747D01*
X410330Y998723D01*
Y1002777D01*
X409539Y1006753D01*
X407988Y1010498D01*
X405736Y1013869D01*
X402869Y1016736D01*
X399498Y1018988D01*
X395753Y1020539D01*
X391777Y1021330D01*
D02*
G37*
G36*
X771762Y982638D02*
X769773D01*
X767935Y981877D01*
X766528Y980470D01*
X765767Y978632D01*
Y976643D01*
X766528Y974805D01*
X767935Y973399D01*
X769773Y972638D01*
X771762D01*
X773599Y973399D01*
X775006Y974805D01*
X775767Y976643D01*
Y978632D01*
X775006Y980470D01*
X773599Y981877D01*
X771762Y982638D01*
D02*
G37*
G36*
X268450Y971183D02*
X266460D01*
X264623Y970422D01*
X263216Y969016D01*
X262455Y967178D01*
Y965189D01*
X263216Y963351D01*
X264623Y961945D01*
X266460Y961183D01*
X268450D01*
X270287Y961945D01*
X271694Y963351D01*
X272455Y965189D01*
Y967178D01*
X271694Y969016D01*
X270287Y970422D01*
X268450Y971183D01*
D02*
G37*
G36*
X749745Y958500D02*
X747755D01*
X745918Y957739D01*
X744511Y956332D01*
X743750Y954495D01*
Y952505D01*
X744511Y950668D01*
X745918Y949261D01*
X747755Y948500D01*
X749745D01*
X751582Y949261D01*
X752989Y950668D01*
X753750Y952505D01*
Y954495D01*
X752989Y956332D01*
X751582Y957739D01*
X749745Y958500D01*
D02*
G37*
G36*
X274995Y953500D02*
X273005D01*
X271168Y952739D01*
X269761Y951332D01*
X269000Y949495D01*
Y947505D01*
X269518Y946255D01*
X268441Y945535D01*
X267781Y946195D01*
X265944Y946956D01*
X263955D01*
X262117Y946195D01*
X260710Y944789D01*
X259949Y942951D01*
Y940962D01*
X260710Y939124D01*
X262117Y937718D01*
X263955Y936956D01*
X265944D01*
X267781Y937718D01*
X269188Y939124D01*
X269949Y940962D01*
Y942951D01*
X269431Y944202D01*
X270508Y944921D01*
X271168Y944261D01*
X273005Y943500D01*
X274995D01*
X276832Y944261D01*
X278239Y945668D01*
X279000Y947505D01*
Y949495D01*
X278239Y951332D01*
X276832Y952739D01*
X274995Y953500D01*
D02*
G37*
G36*
X358250Y954819D02*
X356162Y954544D01*
X354216Y953738D01*
X352544Y952456D01*
X351262Y950785D01*
X350456Y948838D01*
X350181Y946750D01*
Y934750D01*
X350456Y932662D01*
X351262Y930715D01*
X352544Y929044D01*
X354216Y927762D01*
X356162Y926956D01*
X358250Y926681D01*
X360338Y926956D01*
X362285Y927762D01*
X363956Y929044D01*
X365238Y930715D01*
X366044Y932662D01*
X366319Y934750D01*
Y946750D01*
X366044Y948838D01*
X365238Y950785D01*
X363956Y952456D01*
X362285Y953738D01*
X360338Y954544D01*
X358250Y954819D01*
D02*
G37*
G36*
X746550Y928556D02*
X735550D01*
X733853Y928333D01*
X732272Y927678D01*
X730914Y926636D01*
X729872Y925278D01*
X729217Y923697D01*
X728994Y922000D01*
X729217Y920303D01*
X729872Y918722D01*
X730914Y917364D01*
X732272Y916322D01*
X733853Y915667D01*
X735550Y915444D01*
X746550D01*
X748247Y915667D01*
X749828Y916322D01*
X751186Y917364D01*
X752228Y918722D01*
X752883Y920303D01*
X753106Y922000D01*
X752883Y923697D01*
X752228Y925278D01*
X751186Y926636D01*
X749828Y927678D01*
X748247Y928333D01*
X746550Y928556D01*
D02*
G37*
G36*
X658450Y919684D02*
X656460D01*
X654623Y918922D01*
X653216Y917516D01*
X652455Y915678D01*
Y913689D01*
X653216Y911851D01*
X654623Y910445D01*
X656460Y909684D01*
X658450D01*
X660287Y910445D01*
X661694Y911851D01*
X662455Y913689D01*
Y915678D01*
X661694Y917516D01*
X660287Y918922D01*
X658450Y919684D01*
D02*
G37*
G36*
X240950Y922676D02*
X238960D01*
X237123Y921915D01*
X235716Y920508D01*
X234955Y918671D01*
Y916682D01*
X235716Y914844D01*
X237123Y913437D01*
X238960Y912676D01*
X240950D01*
X242247Y913214D01*
X243468Y912535D01*
X243517Y912470D01*
Y911393D01*
X244278Y909555D01*
X245685Y908149D01*
X247523Y907388D01*
X249512D01*
X251350Y908149D01*
X252756Y909555D01*
X253517Y911393D01*
Y913382D01*
X252756Y915220D01*
X251350Y916627D01*
X249512Y917388D01*
X247523D01*
X246225Y916850D01*
X245005Y917528D01*
X244955Y917594D01*
Y918671D01*
X244194Y920508D01*
X242787Y921915D01*
X240950Y922676D01*
D02*
G37*
G36*
X746945Y912650D02*
X744955D01*
X743118Y911889D01*
X741711Y910482D01*
X740950Y908645D01*
Y906655D01*
X741711Y904818D01*
X743118Y903411D01*
X744955Y902650D01*
X746945D01*
X748782Y903411D01*
X750189Y904818D01*
X750950Y906655D01*
Y908645D01*
X750189Y910482D01*
X748782Y911889D01*
X746945Y912650D01*
D02*
G37*
G36*
X255745Y905000D02*
X253755D01*
X251918Y904239D01*
X250511Y902832D01*
X249750Y900995D01*
Y899005D01*
X250511Y897168D01*
X251918Y895761D01*
X253755Y895000D01*
X255745D01*
X257582Y895761D01*
X258989Y897168D01*
X259750Y899005D01*
Y900995D01*
X258989Y902832D01*
X257582Y904239D01*
X255745Y905000D01*
D02*
G37*
G36*
X701745Y883000D02*
X699755D01*
X697918Y882239D01*
X696511Y880832D01*
X695750Y878995D01*
Y877005D01*
X696511Y875168D01*
X697918Y873761D01*
X699755Y873000D01*
X701745D01*
X703582Y873761D01*
X704989Y875168D01*
X705750Y877005D01*
Y878995D01*
X704989Y880832D01*
X703582Y882239D01*
X701745Y883000D01*
D02*
G37*
G36*
X746945Y854850D02*
X744955D01*
X743118Y854089D01*
X741711Y852682D01*
X740950Y850845D01*
Y848856D01*
X741711Y847018D01*
X743118Y845611D01*
X744955Y844850D01*
X746945D01*
X748782Y845611D01*
X750189Y847018D01*
X750950Y848856D01*
Y850845D01*
X750189Y852682D01*
X748782Y854089D01*
X746945Y854850D01*
D02*
G37*
G36*
X708245Y1323500D02*
X706255D01*
X704418Y1322739D01*
X703011Y1321332D01*
X702250Y1319495D01*
Y1317505D01*
X703011Y1315668D01*
X704418Y1314261D01*
X706255Y1313500D01*
X708245D01*
X710082Y1314261D01*
X711489Y1315668D01*
X712250Y1317505D01*
Y1319495D01*
X711489Y1321332D01*
X710082Y1322739D01*
X708245Y1323500D01*
D02*
G37*
G36*
X727495Y1310150D02*
X725505D01*
X723668Y1309389D01*
X722261Y1307982D01*
X721500Y1306145D01*
Y1304155D01*
X722261Y1302318D01*
X723668Y1300911D01*
X725505Y1300150D01*
X727495D01*
X729332Y1300911D01*
X730739Y1302318D01*
X731500Y1304155D01*
Y1306145D01*
X730739Y1307982D01*
X729332Y1309389D01*
X727495Y1310150D01*
D02*
G37*
G36*
X712745Y1297450D02*
X710755D01*
X708918Y1296689D01*
X707511Y1295282D01*
X706750Y1293445D01*
Y1291455D01*
X707511Y1289618D01*
X708918Y1288211D01*
X710755Y1287450D01*
X712745D01*
X714582Y1288211D01*
X715989Y1289618D01*
X716750Y1291455D01*
Y1293445D01*
X715989Y1295282D01*
X714582Y1296689D01*
X712745Y1297450D01*
D02*
G37*
G36*
X742334Y1293300D02*
X740345D01*
X738507Y1292539D01*
X737100Y1291133D01*
X736339Y1289295D01*
Y1287306D01*
X737100Y1285468D01*
X738507Y1284062D01*
X740345Y1283301D01*
X742334D01*
X744171Y1284062D01*
X745578Y1285468D01*
X746339Y1287306D01*
Y1289295D01*
X745578Y1291133D01*
X744171Y1292539D01*
X742334Y1293300D01*
D02*
G37*
G36*
X712745Y1284750D02*
X710755D01*
X708918Y1283989D01*
X707511Y1282582D01*
X706750Y1280745D01*
Y1278755D01*
X707511Y1276918D01*
X708918Y1275511D01*
X710755Y1274750D01*
X712745D01*
X714582Y1275511D01*
X715989Y1276918D01*
X716750Y1278755D01*
Y1280745D01*
X715989Y1282582D01*
X714582Y1283989D01*
X712745Y1284750D01*
D02*
G37*
G36*
X779584Y1275800D02*
X777595D01*
X775757Y1275039D01*
X774350Y1273633D01*
X773589Y1271795D01*
Y1269806D01*
X774350Y1267968D01*
X775757Y1266562D01*
X777595Y1265801D01*
X779584D01*
X781421Y1266562D01*
X782828Y1267968D01*
X783589Y1269806D01*
Y1271795D01*
X782828Y1273633D01*
X781421Y1275039D01*
X779584Y1275800D01*
D02*
G37*
G36*
X714495Y1272050D02*
X712505D01*
X710668Y1271289D01*
X709261Y1269882D01*
X708500Y1268045D01*
Y1266055D01*
X709261Y1264218D01*
X710668Y1262811D01*
X712505Y1262050D01*
X714495D01*
X716332Y1262811D01*
X717739Y1264218D01*
X718500Y1266055D01*
Y1268045D01*
X717739Y1269882D01*
X716332Y1271289D01*
X714495Y1272050D01*
D02*
G37*
G36*
X739245Y1246138D02*
X737255D01*
X735418Y1245377D01*
X734011Y1243970D01*
X733250Y1242132D01*
Y1240143D01*
X734011Y1238305D01*
X735418Y1236899D01*
X737255Y1236138D01*
X739245D01*
X741082Y1236899D01*
X742489Y1238305D01*
X743250Y1240143D01*
Y1242132D01*
X742489Y1243970D01*
X741082Y1245377D01*
X739245Y1246138D01*
D02*
G37*
G36*
X310245Y1221500D02*
X308255D01*
X306418Y1220739D01*
X305011Y1219332D01*
X304250Y1217495D01*
Y1215505D01*
X305011Y1213668D01*
X306418Y1212261D01*
X308255Y1211500D01*
X310245D01*
X312082Y1212261D01*
X313489Y1213668D01*
X314250Y1215505D01*
Y1217495D01*
X313489Y1219332D01*
X312082Y1220739D01*
X310245Y1221500D01*
D02*
G37*
G36*
X302495Y1120250D02*
X300505D01*
X298668Y1119489D01*
X297261Y1118082D01*
X296500Y1116245D01*
Y1114255D01*
X297261Y1112418D01*
X298668Y1111011D01*
X300505Y1110250D01*
X302495D01*
X304332Y1111011D01*
X305739Y1112418D01*
X306500Y1114255D01*
Y1116245D01*
X305739Y1118082D01*
X304332Y1119489D01*
X302495Y1120250D01*
D02*
G37*
G36*
X693245Y1100250D02*
X691255D01*
X689418Y1099489D01*
X688011Y1098082D01*
X687250Y1096245D01*
Y1094255D01*
X688011Y1092418D01*
X689418Y1091011D01*
X691255Y1090250D01*
X693245D01*
X695082Y1091011D01*
X696489Y1092418D01*
X697250Y1094255D01*
Y1096245D01*
X696489Y1098082D01*
X695082Y1099489D01*
X693245Y1100250D01*
D02*
G37*
G36*
X724495Y1079750D02*
X722505D01*
X720668Y1078989D01*
X719261Y1077582D01*
X718500Y1075745D01*
Y1073755D01*
X719261Y1071918D01*
X720668Y1070511D01*
X722505Y1069750D01*
X724495D01*
X726332Y1070511D01*
X727739Y1071918D01*
X728500Y1073755D01*
Y1075745D01*
X727739Y1077582D01*
X726332Y1078989D01*
X724495Y1079750D01*
D02*
G37*
G36*
X605495Y1022500D02*
X603505D01*
X601668Y1021739D01*
X600261Y1020332D01*
X599500Y1018495D01*
Y1016505D01*
X600261Y1014668D01*
X601668Y1013261D01*
X603505Y1012500D01*
X604822D01*
X605504Y1011234D01*
X605012Y1010498D01*
X603461Y1006753D01*
X602670Y1002777D01*
Y998723D01*
X603461Y994747D01*
X605012Y991002D01*
X607153Y987798D01*
X607153Y987798D01*
X607265Y987631D01*
X607406Y987489D01*
X607406Y987489D01*
X609989Y984906D01*
X609989Y984906D01*
X610131Y984764D01*
X613502Y982512D01*
X617247Y980961D01*
X621223Y980170D01*
X625277D01*
X629253Y980961D01*
X632998Y982512D01*
X636202Y984653D01*
X636202Y984653D01*
X636369Y984764D01*
X636511Y984906D01*
X636511Y984906D01*
X639094Y987489D01*
X639094Y987489D01*
X639235Y987631D01*
X641488Y991002D01*
X643039Y994747D01*
X643830Y998723D01*
Y1002777D01*
X643039Y1006753D01*
X641488Y1010498D01*
X639347Y1013702D01*
X639347Y1013702D01*
X639235Y1013869D01*
X639094Y1014011D01*
X639094Y1014011D01*
X636511Y1016593D01*
X636511Y1016593D01*
X636369Y1016736D01*
X632998Y1018988D01*
X629253Y1020539D01*
X625277Y1021330D01*
X621223D01*
X617247Y1020539D01*
X615109Y1019653D01*
X614957Y1019623D01*
X614922Y1019609D01*
X614887Y1019622D01*
X614735Y1019645D01*
X614720Y1019651D01*
X613781Y1020047D01*
X613774Y1020048D01*
X613769Y1020052D01*
X613387Y1020128D01*
X613002Y1020207D01*
X612995Y1020206D01*
X612989Y1020207D01*
X612607Y1020131D01*
X612220Y1020057D01*
X612215Y1020053D01*
X612208Y1020052D01*
X611884Y1019835D01*
X611556Y1019619D01*
X611552Y1019613D01*
X611547Y1019610D01*
X610824Y1018887D01*
X609491Y1018948D01*
X609182Y1019262D01*
X608739Y1020332D01*
X607332Y1021739D01*
X605495Y1022500D01*
D02*
G37*
G36*
X646745Y977000D02*
X644755D01*
X642918Y976239D01*
X641511Y974832D01*
X640750Y972995D01*
Y971005D01*
X641511Y969168D01*
X642918Y967761D01*
X644755Y967000D01*
X646745D01*
X648582Y967761D01*
X649989Y969168D01*
X650750Y971005D01*
Y972995D01*
X649989Y974832D01*
X648582Y976239D01*
X646745Y977000D01*
D02*
G37*
G36*
X602745Y970500D02*
X600755D01*
X598918Y969739D01*
X597511Y968332D01*
X596750Y966495D01*
Y964505D01*
X597511Y962668D01*
X598918Y961261D01*
X600755Y960500D01*
X602745D01*
X604582Y961261D01*
X605989Y962668D01*
X606750Y964505D01*
Y966495D01*
X605989Y968332D01*
X604582Y969739D01*
X602745Y970500D01*
D02*
G37*
G36*
X598245Y956500D02*
X596255D01*
X594418Y955739D01*
X593011Y954332D01*
X592250Y952495D01*
Y950505D01*
X593011Y948668D01*
X594418Y947261D01*
X596255Y946500D01*
X598245D01*
X600082Y947261D01*
X601489Y948668D01*
X602250Y950505D01*
Y952495D01*
X601489Y954332D01*
X600082Y955739D01*
X598245Y956500D01*
D02*
G37*
G36*
X654750Y954819D02*
X652662Y954544D01*
X650715Y953738D01*
X649044Y952456D01*
X647762Y950785D01*
X646956Y948838D01*
X646681Y946750D01*
Y934750D01*
X646956Y932662D01*
X647762Y930715D01*
X649044Y929044D01*
X650715Y927762D01*
X652662Y926956D01*
X654750Y926681D01*
X656838Y926956D01*
X658784Y927762D01*
X660456Y929044D01*
X661738Y930715D01*
X662544Y932662D01*
X662819Y934750D01*
Y946750D01*
X662544Y948838D01*
X661738Y950785D01*
X660456Y952456D01*
X658784Y953738D01*
X656838Y954544D01*
X654750Y954819D01*
D02*
G37*
G36*
X519750D02*
X517662Y954544D01*
X515715Y953738D01*
X514044Y952456D01*
X512762Y950785D01*
X511956Y948838D01*
X511681Y946750D01*
Y934750D01*
X511879Y933250D01*
X511956Y932662D01*
X512762Y930715D01*
X514044Y929044D01*
X515715Y927762D01*
X517662Y926956D01*
X519750Y926681D01*
X521838Y926956D01*
X523784Y927762D01*
X525456Y929044D01*
X526738Y930715D01*
X527544Y932662D01*
X527819Y934750D01*
Y946750D01*
X527544Y948838D01*
X526738Y950785D01*
X525456Y952456D01*
X523784Y953738D01*
X521838Y954544D01*
X519750Y954819D01*
D02*
G37*
G36*
X493250D02*
X491162Y954544D01*
X489216Y953738D01*
X487544Y952456D01*
X486262Y950785D01*
X485456Y948838D01*
X485181Y946750D01*
Y934750D01*
X485378Y933250D01*
X485456Y932662D01*
X486262Y930715D01*
X487544Y929044D01*
X489216Y927762D01*
X491162Y926956D01*
X493250Y926681D01*
X495338Y926956D01*
X497285Y927762D01*
X498956Y929044D01*
X500238Y930715D01*
X501044Y932662D01*
X501319Y934750D01*
Y946750D01*
X501044Y948838D01*
X500238Y950785D01*
X498956Y952456D01*
X497285Y953738D01*
X495338Y954544D01*
X493250Y954819D01*
D02*
G37*
G36*
X589245Y843500D02*
X587255D01*
X585418Y842739D01*
X584011Y841332D01*
X583250Y839495D01*
Y837505D01*
X584011Y835668D01*
X585418Y834261D01*
X587255Y833500D01*
X589245D01*
X591082Y834261D01*
X592489Y835668D01*
X593250Y837505D01*
Y839495D01*
X592489Y841332D01*
X591082Y842739D01*
X589245Y843500D01*
D02*
G37*
%LPD*%
G36*
X628658Y1018578D02*
X632032Y1017181D01*
X635069Y1015152D01*
X637652Y1012569D01*
X639681Y1009532D01*
X641078Y1006158D01*
X641791Y1002576D01*
Y998924D01*
X641078Y995342D01*
X639681Y991968D01*
X637651Y988931D01*
X635069Y986348D01*
X632032Y984319D01*
X628658Y982922D01*
X625076Y982209D01*
X621424D01*
X617842Y982922D01*
X614468Y984319D01*
X611431Y986348D01*
X608848Y988931D01*
X606819Y991968D01*
X605422Y995342D01*
X604709Y998924D01*
Y1002576D01*
X605422Y1006158D01*
X606819Y1009532D01*
X608848Y1012569D01*
X609664Y1013385D01*
X609692Y1013427D01*
X609734Y1013458D01*
X609912Y1013756D01*
X610106Y1014046D01*
X610116Y1014096D01*
X610142Y1014140D01*
X610193Y1014485D01*
X610261Y1014827D01*
X610251Y1014877D01*
X610259Y1014927D01*
X610174Y1015265D01*
X610106Y1015607D01*
X610930Y1016491D01*
X611582Y1016761D01*
X612989Y1018168D01*
X613973Y1017753D01*
X614223Y1017661D01*
X614575Y1017607D01*
X614923Y1017537D01*
X614966Y1017546D01*
X615009Y1017539D01*
X615355Y1017623D01*
X615704Y1017693D01*
X617842Y1018578D01*
X621424Y1019291D01*
X625076D01*
X628658Y1018578D01*
D02*
G37*
D14*
X628811Y1239500D02*
X694715D01*
X696121Y1184621D02*
X699000Y1187500D01*
X416850Y1166750D02*
X698500D01*
X694715Y1239500D02*
X694746Y1239468D01*
X418000Y1153000D02*
X698250D01*
X405129Y1184621D02*
X696121D01*
X404250Y1185500D02*
Y1204750D01*
Y1185500D02*
X405129Y1184621D01*
X609666Y1217667D02*
X620611Y1228611D01*
Y1231300D01*
X628811Y1239500D01*
X518767Y1217667D02*
X609666D01*
X505850Y1204750D02*
X518767Y1217667D01*
X414000Y1157000D02*
X418000Y1153000D01*
X353450Y1204452D02*
Y1204750D01*
Y1204452D02*
X400901Y1157000D01*
X414000D01*
X378850Y1204750D02*
X416850Y1166750D01*
D48*
X461750Y1000750D02*
D03*
X551250D02*
D03*
X623250D02*
D03*
D51*
X699000Y1187500D02*
D03*
X698500Y1166750D02*
D03*
X694746Y1239468D02*
D03*
X698250Y1153000D02*
D03*
X525750Y1299250D02*
D03*
X540250Y1297750D02*
D03*
X503500Y1110500D02*
D03*
X505000Y1085897D02*
D03*
X268750Y1271000D02*
D03*
X309500Y982750D02*
D03*
X764750Y964250D02*
D03*
X559750Y1145500D02*
D03*
X244500Y1198000D02*
D03*
X699750Y846750D02*
D03*
X717633Y1091688D02*
D03*
X527000Y1145000D02*
D03*
X429250Y1016750D02*
D03*
X335250Y1075750D02*
D03*
X573500Y1073250D02*
D03*
X369657Y1141935D02*
D03*
X655705Y846433D02*
D03*
X309205Y1337433D02*
D03*
X546455Y1275934D02*
D03*
X325133Y1099688D02*
D03*
X446383Y869438D02*
D03*
X659133Y967938D02*
D03*
D54*
X505850Y1204750D02*
D03*
X404250D02*
D03*
X378850D02*
D03*
X353450D02*
D03*
X658250Y1254750D02*
D03*
X632850D02*
D03*
X607450D02*
D03*
X582050D02*
D03*
X556650D02*
D03*
X531250D02*
D03*
X505850D02*
D03*
X480450D02*
D03*
X455050D02*
D03*
X429650D02*
D03*
X404250D02*
D03*
X378850D02*
D03*
X353450D02*
D03*
M02*
