G04*
G04 #@! TF.GenerationSoftware,Altium Limited,Altium Designer,23.6.0 (18)*
G04*
G04 Layer_Physical_Order=3*
G04 Layer_Color=16440176*
%FSLAX44Y44*%
%MOMM*%
G71*
G04*
G04 #@! TF.SameCoordinates,C0EE57D9-4E2B-4701-80FF-B58ABC17C381*
G04*
G04*
G04 #@! TF.FilePolarity,Positive*
G04*
G01*
G75*
%ADD46C,0.3000*%
%ADD48C,3.7160*%
%ADD51C,0.6000*%
%ADD54C,1.5000*%
G36*
X793000Y926618D02*
X791730Y926187D01*
X791386Y926636D01*
X790028Y927678D01*
X788447Y928333D01*
X786750Y928556D01*
X778750D01*
X777053Y928333D01*
X775472Y927678D01*
X774114Y926636D01*
X773072Y925278D01*
X772417Y923697D01*
X772194Y922000D01*
X772417Y920303D01*
X773072Y918722D01*
X774114Y917364D01*
X775472Y916322D01*
X777053Y915667D01*
X778750Y915444D01*
X786750D01*
X788447Y915667D01*
X790028Y916322D01*
X791386Y917364D01*
X791730Y917813D01*
X793000Y917382D01*
Y840118D01*
X791730Y839687D01*
X791386Y840136D01*
X790028Y841178D01*
X788447Y841833D01*
X786750Y842056D01*
X778750D01*
X777053Y841833D01*
X775472Y841178D01*
X774114Y840136D01*
X773072Y838778D01*
X772417Y837197D01*
X772194Y835500D01*
X772417Y833803D01*
X773072Y832222D01*
X774114Y830864D01*
X774889Y830270D01*
X774457Y829000D01*
X750843D01*
X750412Y830270D01*
X751186Y830864D01*
X752228Y832222D01*
X752883Y833803D01*
X753106Y835500D01*
X752883Y837197D01*
X752228Y838778D01*
X751186Y840136D01*
X749828Y841178D01*
X748247Y841833D01*
X746550Y842056D01*
X735550D01*
X733853Y841833D01*
X732272Y841178D01*
X730914Y840136D01*
X729872Y838778D01*
X729217Y837197D01*
X728994Y835500D01*
X729217Y833803D01*
X729872Y832222D01*
X730914Y830864D01*
X731689Y830270D01*
X731257Y829000D01*
X631264D01*
X630965Y829329D01*
X630444Y830270D01*
X630539Y830750D01*
Y900211D01*
X669146D01*
X669927Y900366D01*
X670588Y900808D01*
X671030Y901470D01*
X671134Y901720D01*
X671289Y902500D01*
Y927000D01*
X671134Y927780D01*
X670692Y928442D01*
X670030Y928884D01*
X669250Y929039D01*
X662053D01*
X661426Y930309D01*
X661738Y930715D01*
X662544Y932662D01*
X662819Y934750D01*
Y946750D01*
X662544Y948838D01*
X661738Y950785D01*
X660456Y952456D01*
X658784Y953738D01*
X656838Y954544D01*
X654750Y954819D01*
X652662Y954544D01*
X650715Y953738D01*
X649044Y952456D01*
X647762Y950785D01*
X646956Y948838D01*
X646681Y946750D01*
Y934750D01*
X646956Y932662D01*
X647762Y930715D01*
X648074Y930309D01*
X647447Y929039D01*
X630539D01*
Y976480D01*
X630521Y976572D01*
X630531Y976665D01*
X630444Y976960D01*
X630384Y977260D01*
X630332Y977338D01*
X630305Y977428D01*
X629641Y978693D01*
X629443Y978938D01*
X629266Y979198D01*
X629194Y979245D01*
X629140Y979312D01*
X628864Y979462D01*
X628601Y979635D01*
X628517Y979651D01*
X628441Y979692D01*
X628129Y979725D01*
X627819Y979784D01*
X554953Y979209D01*
X554823Y980478D01*
X557253Y980961D01*
X560998Y982512D01*
X564369Y984764D01*
X567235Y987631D01*
X569488Y991002D01*
X571039Y994747D01*
X571830Y998723D01*
Y1002777D01*
X571039Y1006753D01*
X569488Y1010498D01*
X567235Y1013869D01*
X564369Y1016736D01*
X560998Y1018988D01*
X557253Y1020539D01*
X553277Y1021330D01*
X549223D01*
X545247Y1020539D01*
X541502Y1018988D01*
X538131Y1016736D01*
X535265Y1013869D01*
X533012Y1010498D01*
X531461Y1006753D01*
X530670Y1002777D01*
Y998723D01*
X531461Y994747D01*
X533012Y991002D01*
X535265Y987631D01*
X538131Y984764D01*
X541502Y982512D01*
X545247Y980961D01*
X547949Y980423D01*
X547829Y979152D01*
X533493Y979039D01*
X511500D01*
X510720Y978884D01*
X510058Y978442D01*
X509616Y977780D01*
X509461Y977000D01*
Y951056D01*
X509497Y950875D01*
X509494Y950690D01*
X509574Y950489D01*
X509616Y950276D01*
X509719Y950122D01*
X509787Y949950D01*
X509938Y949795D01*
X510058Y949614D01*
X510212Y949512D01*
X510340Y949379D01*
X510539Y949293D01*
X510720Y949172D01*
X510783Y949160D01*
X510957Y949112D01*
X511071Y949063D01*
X511379Y948997D01*
X511956Y948838D01*
X511681Y946750D01*
Y934750D01*
X511956Y932662D01*
X511379Y932504D01*
X511071Y932437D01*
X510957Y932388D01*
X510783Y932340D01*
X510720Y932328D01*
X510539Y932207D01*
X510340Y932121D01*
X510212Y931988D01*
X510058Y931886D01*
X509938Y931705D01*
X509787Y931550D01*
X509719Y931378D01*
X509616Y931224D01*
X509574Y931011D01*
X509494Y930810D01*
X509497Y930625D01*
X509461Y930444D01*
Y914789D01*
X328250D01*
X327289Y915893D01*
Y1094487D01*
X327250Y1094684D01*
Y1094885D01*
X327210Y1095086D01*
X327192Y1095129D01*
X327965Y1095449D01*
X329371Y1096856D01*
X330133Y1098693D01*
Y1100683D01*
X329371Y1102520D01*
X327965Y1103927D01*
X327192Y1104247D01*
X327210Y1104290D01*
X327250Y1104491D01*
Y1104692D01*
X327289Y1104889D01*
Y1281299D01*
X327250Y1281496D01*
Y1281697D01*
X327217Y1281865D01*
Y1281865D01*
X327140Y1282050D01*
X327134Y1282080D01*
X327117Y1282104D01*
X326912Y1282600D01*
X326349Y1283162D01*
X325855Y1283367D01*
X325830Y1283384D01*
X325800Y1283390D01*
X325614Y1283467D01*
X325614D01*
X325447Y1283500D01*
X325246D01*
X325049Y1283539D01*
X274849D01*
X274650Y1283500D01*
X274447Y1283499D01*
X274263Y1283462D01*
X274082Y1283387D01*
X274068Y1283384D01*
X274057Y1283376D01*
X273897Y1283310D01*
X273739Y1283244D01*
X273725Y1283242D01*
X273714Y1283234D01*
X273532Y1283159D01*
X273377Y1283055D01*
X273233Y1282911D01*
X273065Y1282798D01*
X272449Y1282180D01*
X272337Y1282011D01*
X272194Y1281867D01*
X272090Y1281711D01*
X272016Y1281529D01*
X272008Y1281517D01*
X272006Y1281503D01*
X271942Y1281347D01*
X271875Y1281185D01*
X271867Y1281174D01*
X271865Y1281160D01*
X271790Y1280979D01*
X271754Y1280795D01*
X271754Y1280592D01*
X271716Y1280393D01*
X273031Y969106D01*
X271762Y968851D01*
X271694Y969016D01*
X270287Y970422D01*
X268450Y971183D01*
X266460D01*
X264623Y970422D01*
X263216Y969016D01*
X262455Y967178D01*
Y965189D01*
X263216Y963351D01*
X264623Y961945D01*
X266460Y961183D01*
X268450D01*
X270287Y961945D01*
X271694Y963351D01*
X271784Y963570D01*
X273056Y963320D01*
X273056Y963320D01*
X273092Y954770D01*
X273005Y953500D01*
X271168Y952739D01*
X269761Y951332D01*
X269000Y949495D01*
Y947505D01*
X269518Y946255D01*
X268441Y945535D01*
X267781Y946195D01*
X265944Y946956D01*
X263955D01*
X262117Y946195D01*
X260710Y944789D01*
X259949Y942951D01*
Y940962D01*
X260710Y939124D01*
X262117Y937718D01*
X263955Y936956D01*
X265944D01*
X267781Y937718D01*
X269188Y939124D01*
X269949Y940962D01*
Y942951D01*
X269431Y944202D01*
X270508Y944921D01*
X271168Y944261D01*
X273005Y943500D01*
X273139D01*
X273374Y887917D01*
X273614Y831270D01*
X273647Y831105D01*
X273643Y830937D01*
X273726Y830719D01*
X273772Y830490D01*
X273866Y830351D01*
X273927Y830193D01*
X273653Y829424D01*
X273346Y829000D01*
X223000D01*
Y1355000D01*
X738000D01*
Y1345000D01*
X763000D01*
Y1355000D01*
X793000D01*
Y926618D01*
D02*
G37*
G36*
X325217Y1281467D02*
X325250Y1281299D01*
Y1104889D01*
X325210Y1104688D01*
X324138D01*
X322300Y1103927D01*
X320894Y1102520D01*
X320133Y1100683D01*
Y1098693D01*
X320894Y1096856D01*
X322300Y1095449D01*
X324138Y1094688D01*
X325210D01*
X325250Y1094487D01*
Y915893D01*
Y911750D01*
X326250Y910750D01*
X328250Y912750D01*
X511500D01*
Y930444D01*
X512762Y930715D01*
X514044Y929044D01*
X515715Y927762D01*
X517662Y926956D01*
X519750Y926681D01*
X521838Y926956D01*
X523784Y927762D01*
X525456Y929044D01*
X526738Y930715D01*
X527544Y932662D01*
X527819Y934750D01*
Y946750D01*
X527544Y948838D01*
X526738Y950785D01*
X525456Y952456D01*
X523784Y953738D01*
X521838Y954544D01*
X519750Y954819D01*
X517662Y954544D01*
X515715Y953738D01*
X514044Y952456D01*
X512762Y950785D01*
X511500Y951056D01*
Y977000D01*
X533500D01*
X627836Y977745D01*
X628500Y976480D01*
Y927000D01*
X652555D01*
X652662Y926956D01*
X654750Y926681D01*
X656838Y926956D01*
X656945Y927000D01*
X669250D01*
Y902500D01*
X669146Y902250D01*
X628500D01*
Y830750D01*
X511500D01*
Y831000D01*
X276876D01*
X275653Y831279D01*
X275413Y887925D01*
X275178Y943576D01*
X276832Y944261D01*
X278239Y945668D01*
X279000Y947505D01*
Y949495D01*
X278239Y951332D01*
X276832Y952739D01*
X275137Y953441D01*
X275136Y953596D01*
X275136Y953596D01*
X275136Y953596D01*
X275136Y953600D01*
X275136Y953600D01*
X275095Y963329D01*
X275095Y963329D01*
X275070Y969115D01*
Y969115D01*
X273755Y1280401D01*
X273791Y1280585D01*
X273894Y1280741D01*
X274510Y1281359D01*
X274665Y1281463D01*
X274849Y1281500D01*
X325049D01*
X325217Y1281467D01*
D02*
G37*
%LPC*%
G36*
X310200Y1342433D02*
X308211D01*
X306373Y1341672D01*
X304966Y1340266D01*
X304205Y1338428D01*
Y1336439D01*
X304966Y1334601D01*
X306373Y1333195D01*
X308211Y1332434D01*
X310200D01*
X312037Y1333195D01*
X313444Y1334601D01*
X314205Y1336439D01*
Y1338428D01*
X313444Y1340266D01*
X312037Y1341672D01*
X310200Y1342433D01*
D02*
G37*
G36*
X250827Y1326454D02*
X248838D01*
X247000Y1325693D01*
X245593Y1324286D01*
X244832Y1322448D01*
Y1320459D01*
X245593Y1318622D01*
X247000Y1317215D01*
X248838Y1316454D01*
X250827D01*
X252664Y1317215D01*
X254071Y1318622D01*
X254832Y1320459D01*
Y1322448D01*
X254071Y1324286D01*
X252664Y1325693D01*
X250827Y1326454D01*
D02*
G37*
G36*
X708245Y1323500D02*
X706255D01*
X704418Y1322739D01*
X703011Y1321332D01*
X702250Y1319495D01*
Y1317505D01*
X703011Y1315668D01*
X704418Y1314261D01*
X706255Y1313500D01*
X708245D01*
X710082Y1314261D01*
X711489Y1315668D01*
X712250Y1317505D01*
Y1319495D01*
X711489Y1321332D01*
X710082Y1322739D01*
X708245Y1323500D01*
D02*
G37*
G36*
X310637Y1317242D02*
X308648D01*
X306810Y1316480D01*
X305403Y1315074D01*
X304642Y1313236D01*
Y1311247D01*
X305403Y1309409D01*
X306810Y1308003D01*
X308648Y1307242D01*
X310637D01*
X312474Y1308003D01*
X313881Y1309409D01*
X314642Y1311247D01*
Y1313236D01*
X313881Y1315074D01*
X312474Y1316480D01*
X310637Y1317242D01*
D02*
G37*
G36*
X442245Y1317000D02*
X440255D01*
X438418Y1316239D01*
X437011Y1314832D01*
X436250Y1312995D01*
Y1311005D01*
X437011Y1309168D01*
X438418Y1307761D01*
X440255Y1307000D01*
X442245D01*
X444082Y1307761D01*
X445489Y1309168D01*
X446250Y1311005D01*
Y1312995D01*
X445489Y1314832D01*
X444082Y1316239D01*
X442245Y1317000D01*
D02*
G37*
G36*
X727495Y1310150D02*
X725505D01*
X723668Y1309389D01*
X722261Y1307982D01*
X721500Y1306145D01*
Y1304155D01*
X722261Y1302318D01*
X723668Y1300911D01*
X725505Y1300150D01*
X727495D01*
X729332Y1300911D01*
X730739Y1302318D01*
X731500Y1304155D01*
Y1306145D01*
X730739Y1307982D01*
X729332Y1309389D01*
X727495Y1310150D01*
D02*
G37*
G36*
X360700Y1305184D02*
X358711D01*
X356873Y1304422D01*
X355466Y1303016D01*
X354705Y1301178D01*
Y1299189D01*
X355466Y1297351D01*
X356873Y1295945D01*
X358711Y1295184D01*
X360700D01*
X362537Y1295945D01*
X363944Y1297351D01*
X364705Y1299189D01*
Y1301178D01*
X363944Y1303016D01*
X362537Y1304422D01*
X360700Y1305184D01*
D02*
G37*
G36*
X526745Y1304250D02*
X524755D01*
X522918Y1303489D01*
X521511Y1302082D01*
X520750Y1300245D01*
Y1298255D01*
X521511Y1296418D01*
X522918Y1295011D01*
X524755Y1294250D01*
X526745D01*
X528582Y1295011D01*
X529989Y1296418D01*
X530750Y1298255D01*
Y1300245D01*
X529989Y1302082D01*
X528582Y1303489D01*
X526745Y1304250D01*
D02*
G37*
G36*
X541245Y1302750D02*
X539255D01*
X537418Y1301989D01*
X536011Y1300582D01*
X535250Y1298745D01*
Y1296755D01*
X536011Y1294918D01*
X537418Y1293511D01*
X539255Y1292750D01*
X541245D01*
X543082Y1293511D01*
X544489Y1294918D01*
X545250Y1296755D01*
Y1298745D01*
X544489Y1300582D01*
X543082Y1301989D01*
X541245Y1302750D01*
D02*
G37*
G36*
X712745Y1297450D02*
X710755D01*
X708918Y1296689D01*
X707511Y1295282D01*
X706750Y1293445D01*
Y1291455D01*
X707511Y1289618D01*
X708918Y1288211D01*
X710755Y1287450D01*
X712745D01*
X714582Y1288211D01*
X715989Y1289618D01*
X716750Y1291455D01*
Y1293445D01*
X715989Y1295282D01*
X714582Y1296689D01*
X712745Y1297450D01*
D02*
G37*
G36*
X742334Y1293300D02*
X740345D01*
X738507Y1292539D01*
X737100Y1291133D01*
X736339Y1289295D01*
Y1287306D01*
X737100Y1285468D01*
X738507Y1284062D01*
X740345Y1283301D01*
X742334D01*
X744171Y1284062D01*
X745578Y1285468D01*
X746339Y1287306D01*
Y1289295D01*
X745578Y1291133D01*
X744171Y1292539D01*
X742334Y1293300D01*
D02*
G37*
G36*
X712745Y1284750D02*
X710755D01*
X708918Y1283989D01*
X707511Y1282582D01*
X706750Y1280745D01*
Y1278755D01*
X707511Y1276918D01*
X708918Y1275511D01*
X710755Y1274750D01*
X712745D01*
X714582Y1275511D01*
X715989Y1276918D01*
X716750Y1278755D01*
Y1280745D01*
X715989Y1282582D01*
X714582Y1283989D01*
X712745Y1284750D01*
D02*
G37*
G36*
X547450Y1280934D02*
X545461D01*
X543623Y1280172D01*
X542216Y1278766D01*
X541455Y1276928D01*
Y1274939D01*
X542216Y1273101D01*
X543623Y1271695D01*
X545461Y1270934D01*
X547450D01*
X549287Y1271695D01*
X550694Y1273101D01*
X551455Y1274939D01*
Y1276928D01*
X550694Y1278766D01*
X549287Y1280172D01*
X547450Y1280934D01*
D02*
G37*
G36*
X779584Y1275800D02*
X777595D01*
X775757Y1275039D01*
X774350Y1273633D01*
X773589Y1271795D01*
Y1269806D01*
X774350Y1267968D01*
X775757Y1266562D01*
X777595Y1265801D01*
X779584D01*
X781421Y1266562D01*
X782828Y1267968D01*
X783589Y1269806D01*
Y1271795D01*
X782828Y1273633D01*
X781421Y1275039D01*
X779584Y1275800D01*
D02*
G37*
G36*
X714495Y1272050D02*
X712505D01*
X710668Y1271289D01*
X709261Y1269882D01*
X708500Y1268045D01*
Y1266055D01*
X709261Y1264218D01*
X710668Y1262811D01*
X712505Y1262050D01*
X714495D01*
X716332Y1262811D01*
X717739Y1264218D01*
X718500Y1266055D01*
Y1268045D01*
X717739Y1269882D01*
X716332Y1271289D01*
X714495Y1272050D01*
D02*
G37*
G36*
X710745Y1259250D02*
X708755D01*
X706918Y1258489D01*
X705511Y1257082D01*
X704750Y1255245D01*
Y1253255D01*
X705511Y1251418D01*
X706918Y1250011D01*
X708755Y1249250D01*
X710745D01*
X712582Y1250011D01*
X713989Y1251418D01*
X714750Y1253255D01*
Y1255245D01*
X713989Y1257082D01*
X712582Y1258489D01*
X710745Y1259250D01*
D02*
G37*
G36*
X708053Y1246789D02*
X708049Y1246788D01*
X708045Y1246789D01*
X698195D01*
X697943Y1246739D01*
X697687Y1246725D01*
X697557Y1246662D01*
X697415Y1246634D01*
X697201Y1246491D01*
X696970Y1246380D01*
X696873Y1246272D01*
X696753Y1246192D01*
X696610Y1245978D01*
X696439Y1245787D01*
X696320Y1245585D01*
X695741Y1244468D01*
X693752D01*
X693173Y1245585D01*
X693054Y1245787D01*
X692883Y1245978D01*
X692740Y1246192D01*
X692619Y1246272D01*
X692523Y1246380D01*
X692292Y1246491D01*
X692078Y1246634D01*
X691936Y1246662D01*
X691806Y1246725D01*
X691550Y1246739D01*
X691298Y1246789D01*
X342046D01*
X341266Y1246634D01*
X340604Y1246192D01*
X340162Y1245530D01*
X339636Y1244260D01*
X339481Y1243480D01*
X339636Y1242700D01*
X339961Y1242214D01*
Y1217750D01*
X340116Y1216970D01*
X340558Y1216308D01*
X341220Y1215866D01*
X342000Y1215711D01*
X432232D01*
X432480Y1215124D01*
X431543Y1214078D01*
X430901Y1214250D01*
X428399D01*
X425983Y1213603D01*
X423817Y1212352D01*
X422048Y1210583D01*
X420797Y1208417D01*
X420150Y1206001D01*
Y1203499D01*
X420797Y1201083D01*
X421418Y1200009D01*
X420687Y1198735D01*
X413189Y1198693D01*
X412453Y1199959D01*
X413103Y1201083D01*
X413750Y1203499D01*
Y1206001D01*
X413103Y1208417D01*
X411852Y1210583D01*
X410083Y1212352D01*
X407917Y1213603D01*
X405501Y1214250D01*
X402999D01*
X400583Y1213603D01*
X398417Y1212352D01*
X396648Y1210583D01*
X395397Y1208417D01*
X394750Y1206001D01*
Y1203499D01*
X395397Y1201083D01*
X396099Y1199868D01*
X395368Y1198594D01*
X387707Y1198551D01*
X386972Y1199817D01*
X387703Y1201083D01*
X388350Y1203499D01*
Y1206001D01*
X387703Y1208417D01*
X386452Y1210583D01*
X384683Y1212352D01*
X382517Y1213603D01*
X380101Y1214250D01*
X377599D01*
X375183Y1213603D01*
X373017Y1212352D01*
X371248Y1210583D01*
X369997Y1208417D01*
X369350Y1206001D01*
Y1203499D01*
X369997Y1201083D01*
X370733Y1199809D01*
X370000Y1198539D01*
X362300D01*
X361567Y1199809D01*
X362303Y1201083D01*
X362950Y1203499D01*
Y1206001D01*
X362303Y1208417D01*
X361052Y1210583D01*
X359283Y1212352D01*
X357117Y1213603D01*
X354701Y1214250D01*
X352199D01*
X349783Y1213603D01*
X347617Y1212352D01*
X345848Y1210583D01*
X344597Y1208417D01*
X343950Y1206001D01*
Y1203499D01*
X344597Y1201083D01*
X345333Y1199809D01*
X344600Y1198539D01*
X343750D01*
X342970Y1198384D01*
X342308Y1197942D01*
X341866Y1197280D01*
X341711Y1196500D01*
Y1028095D01*
X341558Y1027942D01*
X341116Y1027280D01*
X340961Y1026500D01*
X341116Y1025720D01*
X341558Y1025058D01*
X341558Y1025058D01*
X342808Y1023808D01*
X343470Y1023366D01*
X344250Y1023211D01*
X491000D01*
X491780Y1023366D01*
X492442Y1023808D01*
X492884Y1024470D01*
X493039Y1025250D01*
Y1174000D01*
X493013Y1174130D01*
X494537Y1174761D01*
X495944Y1176168D01*
X496705Y1178005D01*
Y1179995D01*
X495944Y1181832D01*
X494537Y1183239D01*
X493013Y1183870D01*
X493039Y1184000D01*
Y1196186D01*
X493039Y1196188D01*
X493039Y1196191D01*
X492961Y1196580D01*
X492884Y1196966D01*
X492882Y1196968D01*
X492882Y1196971D01*
X492662Y1197298D01*
X492442Y1197627D01*
X492439Y1197629D01*
X492438Y1197632D01*
X491537Y1198527D01*
X491535Y1198529D01*
X491533Y1198531D01*
X491205Y1198748D01*
X490875Y1198967D01*
X490872Y1198968D01*
X490869Y1198969D01*
X490483Y1199044D01*
X490094Y1199120D01*
X490091Y1199120D01*
X490088Y1199120D01*
X489439Y1199117D01*
X488801Y1200215D01*
X489303Y1201083D01*
X489950Y1203499D01*
Y1206001D01*
X489303Y1208417D01*
X488052Y1210583D01*
X486283Y1212352D01*
X484117Y1213603D01*
X481701Y1214250D01*
X479199D01*
X476783Y1213603D01*
X474617Y1212352D01*
X472848Y1210583D01*
X471597Y1208417D01*
X470950Y1206001D01*
Y1203499D01*
X471597Y1201083D01*
X472154Y1200119D01*
X471522Y1199017D01*
X463957Y1198975D01*
X463319Y1200073D01*
X463903Y1201083D01*
X464550Y1203499D01*
Y1206001D01*
X463903Y1208417D01*
X462652Y1210583D01*
X460883Y1212352D01*
X458717Y1213603D01*
X456301Y1214250D01*
X453799D01*
X451383Y1213603D01*
X449217Y1212352D01*
X447448Y1210583D01*
X446197Y1208417D01*
X445550Y1206001D01*
Y1203499D01*
X446197Y1201083D01*
X446736Y1200149D01*
X446006Y1198875D01*
X438671Y1198835D01*
X437935Y1200100D01*
X438503Y1201083D01*
X439150Y1203499D01*
Y1206001D01*
X438503Y1208417D01*
X437935Y1209400D01*
X438570Y1210500D01*
X439245D01*
X441082Y1211261D01*
X442489Y1212668D01*
X443250Y1214505D01*
Y1215711D01*
X589211D01*
Y1212683D01*
X588037Y1212197D01*
X587883Y1212352D01*
X585717Y1213603D01*
X583301Y1214250D01*
X580799D01*
X578383Y1213603D01*
X576217Y1212352D01*
X574448Y1210583D01*
X573197Y1208417D01*
X572550Y1206001D01*
Y1203499D01*
X573197Y1201083D01*
X574448Y1198917D01*
X576217Y1197148D01*
X578383Y1195897D01*
X580799Y1195250D01*
X583301D01*
X585717Y1195897D01*
X587883Y1197148D01*
X588037Y1197302D01*
X589211Y1196816D01*
Y1111368D01*
X584074Y1111294D01*
X583695Y1111213D01*
X583310Y1111133D01*
X583303Y1111129D01*
X583296Y1111128D01*
X582976Y1110907D01*
X582651Y1110687D01*
X582647Y1110680D01*
X582641Y1110676D01*
X582428Y1110347D01*
X582214Y1110022D01*
X582110Y1109767D01*
X582037Y1109383D01*
X581961Y1109000D01*
Y1068069D01*
X577123D01*
X576660Y1069339D01*
X577739Y1070418D01*
X578500Y1072255D01*
Y1074245D01*
X577739Y1076082D01*
X576332Y1077489D01*
X574495Y1078250D01*
X572505D01*
X570668Y1077489D01*
X569261Y1076082D01*
X568500Y1074245D01*
Y1072255D01*
X569261Y1070418D01*
X570340Y1069339D01*
X569877Y1068069D01*
X532728D01*
X528750Y1072047D01*
Y1072995D01*
X527989Y1074832D01*
X526582Y1076239D01*
X524745Y1077000D01*
X522755D01*
X520918Y1076239D01*
X519511Y1074832D01*
X518750Y1072995D01*
Y1071005D01*
X519511Y1069168D01*
X520918Y1067761D01*
X522755Y1067000D01*
X523703D01*
X528727Y1061977D01*
X529884Y1061203D01*
X531250Y1060931D01*
X581961D01*
Y1004750D01*
X582116Y1003970D01*
X582558Y1003308D01*
X583220Y1002866D01*
X584000Y1002711D01*
X603062D01*
X603259Y1002750D01*
X603460D01*
X603646Y1002827D01*
X603843Y1002866D01*
X604010Y1002978D01*
X604195Y1003055D01*
X604337Y1003196D01*
X604504Y1003308D01*
X604616Y1003475D01*
X604758Y1003617D01*
X604835Y1003803D01*
X604946Y1003970D01*
X604986Y1004167D01*
X605062Y1004352D01*
X605422Y1006158D01*
X606819Y1009532D01*
X608848Y1012569D01*
X611431Y1015152D01*
X614468Y1017181D01*
X617842Y1018578D01*
X621424Y1019291D01*
X625076D01*
X628658Y1018578D01*
X632032Y1017181D01*
X635069Y1015152D01*
X637652Y1012569D01*
X639681Y1009532D01*
X641078Y1006158D01*
X641438Y1004352D01*
X641514Y1004167D01*
X641554Y1003970D01*
X641665Y1003803D01*
X641742Y1003617D01*
X641884Y1003475D01*
X641996Y1003308D01*
X642163Y1003196D01*
X642305Y1003055D01*
X642490Y1002978D01*
X642657Y1002866D01*
X642854Y1002827D01*
X643040Y1002750D01*
X643241D01*
X643438Y1002711D01*
X762691D01*
X763077Y1002634D01*
X763857Y1002789D01*
X763857Y1002789D01*
X765030Y1003275D01*
X765030Y1003275D01*
X765692Y1003717D01*
X766134Y1004379D01*
X766289Y1005159D01*
Y1110000D01*
X766134Y1110780D01*
X765927Y1111280D01*
X765485Y1111942D01*
X764823Y1112384D01*
X764043Y1112539D01*
X710322D01*
X709429Y1113443D01*
X711036Y1243764D01*
X711035Y1243773D01*
X711037Y1243781D01*
X710962Y1244165D01*
X710891Y1244547D01*
X710886Y1244554D01*
X710885Y1244562D01*
X710670Y1244886D01*
X710457Y1245214D01*
X710450Y1245219D01*
X710445Y1245226D01*
X709493Y1246186D01*
X709489Y1246188D01*
X709487Y1246192D01*
X709158Y1246411D01*
X708833Y1246631D01*
X708829Y1246632D01*
X708825Y1246634D01*
X708442Y1246710D01*
X708053Y1246789D01*
D02*
G37*
G36*
X739245Y1246138D02*
X737255D01*
X735418Y1245377D01*
X734011Y1243970D01*
X733250Y1242132D01*
Y1240143D01*
X734011Y1238305D01*
X735418Y1236899D01*
X737255Y1236138D01*
X739245D01*
X741082Y1236899D01*
X742489Y1238305D01*
X743250Y1240143D01*
Y1242132D01*
X742489Y1243970D01*
X741082Y1245377D01*
X739245Y1246138D01*
D02*
G37*
G36*
X230495Y1210000D02*
X228505D01*
X226668Y1209239D01*
X225261Y1207832D01*
X224500Y1205995D01*
Y1204005D01*
X225261Y1202168D01*
X226668Y1200761D01*
X228505Y1200000D01*
X230495D01*
X232332Y1200761D01*
X233739Y1202168D01*
X234500Y1204005D01*
Y1205995D01*
X233739Y1207832D01*
X232332Y1209239D01*
X230495Y1210000D01*
D02*
G37*
G36*
X557901Y1214250D02*
X555399D01*
X552983Y1213603D01*
X550817Y1212352D01*
X549048Y1210583D01*
X547797Y1208417D01*
X547150Y1206001D01*
Y1203499D01*
X547797Y1201083D01*
X549048Y1198917D01*
X550817Y1197148D01*
X552983Y1195897D01*
X555399Y1195250D01*
X557901D01*
X560317Y1195897D01*
X562483Y1197148D01*
X564252Y1198917D01*
X565503Y1201083D01*
X566150Y1203499D01*
Y1206001D01*
X565503Y1208417D01*
X564252Y1210583D01*
X562483Y1212352D01*
X560317Y1213603D01*
X557901Y1214250D01*
D02*
G37*
G36*
X532501D02*
X529999D01*
X527583Y1213603D01*
X525417Y1212352D01*
X523648Y1210583D01*
X522397Y1208417D01*
X521750Y1206001D01*
Y1203499D01*
X522397Y1201083D01*
X523648Y1198917D01*
X525417Y1197148D01*
X527583Y1195897D01*
X529999Y1195250D01*
X532501D01*
X534917Y1195897D01*
X537083Y1197148D01*
X538852Y1198917D01*
X540103Y1201083D01*
X540750Y1203499D01*
Y1206001D01*
X540103Y1208417D01*
X538852Y1210583D01*
X537083Y1212352D01*
X534917Y1213603D01*
X532501Y1214250D01*
D02*
G37*
G36*
X507101D02*
X504599D01*
X502183Y1213603D01*
X500017Y1212352D01*
X498248Y1210583D01*
X496997Y1208417D01*
X496350Y1206001D01*
Y1203499D01*
X496997Y1201083D01*
X498248Y1198917D01*
X500017Y1197148D01*
X502183Y1195897D01*
X504599Y1195250D01*
X507101D01*
X509517Y1195897D01*
X511683Y1197148D01*
X513452Y1198917D01*
X514703Y1201083D01*
X515350Y1203499D01*
Y1206001D01*
X514703Y1208417D01*
X513452Y1210583D01*
X511683Y1212352D01*
X509517Y1213603D01*
X507101Y1214250D01*
D02*
G37*
G36*
X245495Y1203000D02*
X243505D01*
X241668Y1202239D01*
X240261Y1200832D01*
X239500Y1198995D01*
Y1197005D01*
X240261Y1195168D01*
X241668Y1193761D01*
X243505Y1193000D01*
X245495D01*
X247332Y1193761D01*
X248739Y1195168D01*
X249500Y1197005D01*
Y1198995D01*
X248739Y1200832D01*
X247332Y1202239D01*
X245495Y1203000D01*
D02*
G37*
G36*
X504495Y1115500D02*
X502505D01*
X500668Y1114739D01*
X499261Y1113332D01*
X498500Y1111495D01*
Y1109505D01*
X499261Y1107668D01*
X500668Y1106261D01*
X502505Y1105500D01*
X504495D01*
X506332Y1106261D01*
X507739Y1107668D01*
X508500Y1109505D01*
Y1111495D01*
X507739Y1113332D01*
X506332Y1114739D01*
X504495Y1115500D01*
D02*
G37*
G36*
X776512Y1019888D02*
X774523D01*
X772685Y1019127D01*
X771278Y1017720D01*
X770517Y1015882D01*
Y1013893D01*
X771278Y1012055D01*
X772685Y1010649D01*
X774523Y1009888D01*
X776512D01*
X778350Y1010649D01*
X779756Y1012055D01*
X780517Y1013893D01*
Y1015882D01*
X779756Y1017720D01*
X778350Y1019127D01*
X776512Y1019888D01*
D02*
G37*
G36*
X773762Y1007138D02*
X771773D01*
X769935Y1006376D01*
X768528Y1004970D01*
X767767Y1003132D01*
Y1001143D01*
X768528Y999305D01*
X769935Y997899D01*
X771773Y997138D01*
X773762D01*
X775600Y997899D01*
X777006Y999305D01*
X777767Y1001143D01*
Y1003132D01*
X777006Y1004970D01*
X775600Y1006376D01*
X773762Y1007138D01*
D02*
G37*
G36*
X698995Y998000D02*
X697005D01*
X695168Y997239D01*
X693761Y995832D01*
X693000Y993995D01*
Y992005D01*
X693761Y990168D01*
X695168Y988761D01*
X697005Y988000D01*
X698995D01*
X700832Y988761D01*
X702239Y990168D01*
X703000Y992005D01*
Y993995D01*
X702239Y995832D01*
X700832Y997239D01*
X698995Y998000D01*
D02*
G37*
G36*
X772012Y995638D02*
X770023D01*
X768185Y994876D01*
X766778Y993470D01*
X766017Y991632D01*
Y989643D01*
X766778Y987805D01*
X768185Y986399D01*
X770023Y985638D01*
X772012D01*
X773849Y986399D01*
X775256Y987805D01*
X776017Y989643D01*
Y991632D01*
X775256Y993470D01*
X773849Y994876D01*
X772012Y995638D01*
D02*
G37*
G36*
X391777Y1021330D02*
X387723D01*
X383747Y1020539D01*
X380002Y1018988D01*
X376631Y1016736D01*
X373764Y1013869D01*
X371512Y1010498D01*
X369961Y1006753D01*
X369170Y1002777D01*
Y998723D01*
X369961Y994747D01*
X371512Y991002D01*
X373764Y987631D01*
X376631Y984764D01*
X380002Y982512D01*
X383747Y980961D01*
X387723Y980170D01*
X391777D01*
X395753Y980961D01*
X399498Y982512D01*
X402869Y984764D01*
X405736Y987631D01*
X407988Y991002D01*
X409539Y994747D01*
X410330Y998723D01*
Y1002777D01*
X409539Y1006753D01*
X407988Y1010498D01*
X405736Y1013869D01*
X402869Y1016736D01*
X399498Y1018988D01*
X395753Y1020539D01*
X391777Y1021330D01*
D02*
G37*
G36*
X771762Y982638D02*
X769773D01*
X767935Y981877D01*
X766528Y980470D01*
X765767Y978632D01*
Y976643D01*
X766528Y974805D01*
X767935Y973399D01*
X769773Y972638D01*
X771762D01*
X773599Y973399D01*
X775006Y974805D01*
X775767Y976643D01*
Y978632D01*
X775006Y980470D01*
X773599Y981877D01*
X771762Y982638D01*
D02*
G37*
G36*
X660127Y972938D02*
X658138D01*
X656300Y972177D01*
X654894Y970770D01*
X654133Y968933D01*
Y966943D01*
X654894Y965106D01*
X656300Y963699D01*
X658138Y962938D01*
X660127D01*
X661965Y963699D01*
X663371Y965106D01*
X664133Y966943D01*
Y968933D01*
X663371Y970770D01*
X661965Y972177D01*
X660127Y972938D01*
D02*
G37*
G36*
X749745Y958500D02*
X747755D01*
X745918Y957739D01*
X744511Y956332D01*
X743750Y954495D01*
Y952505D01*
X744511Y950668D01*
X745918Y949261D01*
X747755Y948500D01*
X749745D01*
X751582Y949261D01*
X752989Y950668D01*
X753750Y952505D01*
Y954495D01*
X752989Y956332D01*
X751582Y957739D01*
X749745Y958500D01*
D02*
G37*
G36*
X493250Y954819D02*
X491162Y954544D01*
X489216Y953738D01*
X487544Y952456D01*
X486262Y950785D01*
X485456Y948838D01*
X485181Y946750D01*
Y934750D01*
X485456Y932662D01*
X486262Y930715D01*
X487544Y929044D01*
X489216Y927762D01*
X491162Y926956D01*
X493250Y926681D01*
X495338Y926956D01*
X497285Y927762D01*
X498956Y929044D01*
X500238Y930715D01*
X501044Y932662D01*
X501319Y934750D01*
Y946750D01*
X501044Y948838D01*
X500238Y950785D01*
X498956Y952456D01*
X497285Y953738D01*
X495338Y954544D01*
X493250Y954819D01*
D02*
G37*
G36*
X358250D02*
X356162Y954544D01*
X354216Y953738D01*
X352544Y952456D01*
X351262Y950785D01*
X350456Y948838D01*
X350181Y946750D01*
Y934750D01*
X350456Y932662D01*
X351262Y930715D01*
X352544Y929044D01*
X354216Y927762D01*
X356162Y926956D01*
X358250Y926681D01*
X360338Y926956D01*
X362285Y927762D01*
X363956Y929044D01*
X365238Y930715D01*
X366044Y932662D01*
X366319Y934750D01*
Y946750D01*
X366044Y948838D01*
X365238Y950785D01*
X363956Y952456D01*
X362285Y953738D01*
X360338Y954544D01*
X358250Y954819D01*
D02*
G37*
G36*
X746550Y928556D02*
X735550D01*
X733853Y928333D01*
X732272Y927678D01*
X730914Y926636D01*
X729872Y925278D01*
X729217Y923697D01*
X728994Y922000D01*
X729217Y920303D01*
X729872Y918722D01*
X730914Y917364D01*
X732272Y916322D01*
X733853Y915667D01*
X735550Y915444D01*
X746550D01*
X748247Y915667D01*
X749828Y916322D01*
X751186Y917364D01*
X752228Y918722D01*
X752883Y920303D01*
X753106Y922000D01*
X752883Y923697D01*
X752228Y925278D01*
X751186Y926636D01*
X749828Y927678D01*
X748247Y928333D01*
X746550Y928556D01*
D02*
G37*
G36*
X240950Y922676D02*
X238960D01*
X237123Y921915D01*
X235716Y920508D01*
X234955Y918671D01*
Y916682D01*
X235716Y914844D01*
X237123Y913437D01*
X238960Y912676D01*
X240950D01*
X242247Y913214D01*
X243468Y912535D01*
X243517Y912470D01*
Y911393D01*
X244278Y909555D01*
X245685Y908149D01*
X247523Y907388D01*
X249512D01*
X251350Y908149D01*
X252756Y909555D01*
X253517Y911393D01*
Y913382D01*
X252756Y915220D01*
X251350Y916627D01*
X249512Y917388D01*
X247523D01*
X246225Y916850D01*
X245005Y917528D01*
X244955Y917594D01*
Y918671D01*
X244194Y920508D01*
X242787Y921915D01*
X240950Y922676D01*
D02*
G37*
G36*
X746945Y912650D02*
X744955D01*
X743118Y911889D01*
X741711Y910482D01*
X740950Y908645D01*
Y906655D01*
X741711Y904818D01*
X743118Y903411D01*
X744955Y902650D01*
X746945D01*
X748782Y903411D01*
X750189Y904818D01*
X750950Y906655D01*
Y908645D01*
X750189Y910482D01*
X748782Y911889D01*
X746945Y912650D01*
D02*
G37*
G36*
X255745Y905000D02*
X253755D01*
X251918Y904239D01*
X250511Y902832D01*
X249750Y900995D01*
Y899005D01*
X250511Y897168D01*
X251918Y895761D01*
X253755Y895000D01*
X255745D01*
X257582Y895761D01*
X258989Y897168D01*
X259750Y899005D01*
Y900995D01*
X258989Y902832D01*
X257582Y904239D01*
X255745Y905000D01*
D02*
G37*
G36*
X701745Y883000D02*
X699755D01*
X697918Y882239D01*
X696511Y880832D01*
X695750Y878995D01*
Y877005D01*
X696511Y875168D01*
X697918Y873761D01*
X699755Y873000D01*
X701745D01*
X703582Y873761D01*
X704989Y875168D01*
X705750Y877005D01*
Y878995D01*
X704989Y880832D01*
X703582Y882239D01*
X701745Y883000D01*
D02*
G37*
G36*
X746945Y854850D02*
X744955D01*
X743118Y854089D01*
X741711Y852682D01*
X740950Y850845D01*
Y848856D01*
X741711Y847018D01*
X743118Y845611D01*
X744955Y844850D01*
X746945D01*
X748782Y845611D01*
X750189Y847018D01*
X750950Y848856D01*
Y850845D01*
X750189Y852682D01*
X748782Y854089D01*
X746945Y854850D01*
D02*
G37*
G36*
X656700Y851433D02*
X654710D01*
X652873Y850672D01*
X651466Y849266D01*
X650705Y847428D01*
Y845439D01*
X651466Y843601D01*
X652873Y842195D01*
X654710Y841433D01*
X656700D01*
X658537Y842195D01*
X659944Y843601D01*
X660705Y845439D01*
Y847428D01*
X659944Y849266D01*
X658537Y850672D01*
X656700Y851433D01*
D02*
G37*
%LPD*%
G36*
X708997Y1243790D02*
X707354Y1110500D01*
X764043D01*
X764250Y1110000D01*
Y1005159D01*
X763077Y1004673D01*
X763000Y1004750D01*
X643438D01*
X643039Y1006753D01*
X641488Y1010498D01*
X639235Y1013869D01*
X636369Y1016736D01*
X632998Y1018988D01*
X629253Y1020539D01*
X625277Y1021330D01*
X621223D01*
X617247Y1020539D01*
X613502Y1018988D01*
X610131Y1016736D01*
X607265Y1013869D01*
X605012Y1010498D01*
X603461Y1006753D01*
X603062Y1004750D01*
X584000D01*
Y1060931D01*
X739747D01*
X740418Y1060261D01*
X742255Y1059500D01*
X744245D01*
X746082Y1060261D01*
X747489Y1061668D01*
X748250Y1063505D01*
Y1065495D01*
X747489Y1067332D01*
X746082Y1068739D01*
X744245Y1069500D01*
X742255D01*
X740418Y1068739D01*
X739747Y1068069D01*
X584000D01*
Y1109000D01*
X584104Y1109255D01*
X591250Y1109358D01*
Y1202380D01*
X591550Y1203499D01*
Y1206001D01*
X591250Y1207120D01*
Y1216500D01*
X591500Y1216750D01*
X590500Y1217750D01*
X442730D01*
X442489Y1218332D01*
X441082Y1219739D01*
X439245Y1220500D01*
X437255D01*
X435418Y1219739D01*
X434011Y1218332D01*
X433770Y1217750D01*
X342000D01*
Y1243000D01*
X341520Y1243480D01*
X342046Y1244750D01*
X691298D01*
X691417Y1244548D01*
X691687Y1243480D01*
X690508Y1242300D01*
X689746Y1240463D01*
Y1238474D01*
X690508Y1236636D01*
X691914Y1235229D01*
X693752Y1234468D01*
X695741D01*
X697579Y1235229D01*
X698985Y1236636D01*
X699746Y1238474D01*
Y1240463D01*
X698985Y1242300D01*
X697806Y1243480D01*
X698076Y1244548D01*
X698195Y1244750D01*
X708045D01*
X708997Y1243790D01*
D02*
G37*
G36*
X491000Y1196186D02*
Y1184000D01*
X490710D01*
X488873Y1183239D01*
X487466Y1181832D01*
X486705Y1179995D01*
Y1178005D01*
X487466Y1176168D01*
X488873Y1174761D01*
X490710Y1174000D01*
X491000D01*
Y1025250D01*
X344250D01*
X343000Y1026500D01*
X343750Y1027250D01*
Y1196500D01*
X348740D01*
X349783Y1195897D01*
X352199Y1195250D01*
X354701D01*
X357117Y1195897D01*
X358161Y1196500D01*
X374140D01*
X375183Y1195897D01*
X377599Y1195250D01*
X380101D01*
X382517Y1195897D01*
X383560Y1196500D01*
X385500D01*
X399406Y1196577D01*
X400583Y1195897D01*
X402999Y1195250D01*
X405501D01*
X407917Y1195897D01*
X409188Y1196632D01*
X424564Y1196717D01*
X425983Y1195897D01*
X428399Y1195250D01*
X430901D01*
X433317Y1195897D01*
X434835Y1196774D01*
X449721Y1196857D01*
X451383Y1195897D01*
X453799Y1195250D01*
X456301D01*
X458717Y1195897D01*
X460482Y1196917D01*
X474879Y1196997D01*
X476783Y1195897D01*
X479199Y1195250D01*
X481701D01*
X484117Y1195897D01*
X486129Y1197059D01*
X490099Y1197081D01*
X491000Y1196186D01*
D02*
G37*
%LPC*%
G36*
X659501Y1214250D02*
X656999D01*
X654583Y1213603D01*
X652417Y1212352D01*
X650648Y1210583D01*
X649397Y1208417D01*
X648750Y1206001D01*
Y1203499D01*
X649397Y1201083D01*
X650648Y1198917D01*
X652417Y1197148D01*
X654583Y1195897D01*
X656999Y1195250D01*
X659501D01*
X661917Y1195897D01*
X664083Y1197148D01*
X665852Y1198917D01*
X667103Y1201083D01*
X667750Y1203499D01*
Y1206001D01*
X667103Y1208417D01*
X665852Y1210583D01*
X664083Y1212352D01*
X661917Y1213603D01*
X659501Y1214250D01*
D02*
G37*
G36*
X634101D02*
X631599D01*
X629183Y1213603D01*
X627017Y1212352D01*
X625248Y1210583D01*
X623997Y1208417D01*
X623350Y1206001D01*
Y1203499D01*
X623997Y1201083D01*
X625248Y1198917D01*
X627017Y1197148D01*
X629183Y1195897D01*
X631599Y1195250D01*
X634101D01*
X636517Y1195897D01*
X638683Y1197148D01*
X640452Y1198917D01*
X641703Y1201083D01*
X642350Y1203499D01*
Y1206001D01*
X641703Y1208417D01*
X640452Y1210583D01*
X638683Y1212352D01*
X636517Y1213603D01*
X634101Y1214250D01*
D02*
G37*
G36*
X608701D02*
X606199D01*
X603783Y1213603D01*
X601617Y1212352D01*
X599848Y1210583D01*
X598597Y1208417D01*
X597950Y1206001D01*
Y1203499D01*
X598597Y1201083D01*
X599848Y1198917D01*
X601617Y1197148D01*
X603783Y1195897D01*
X606199Y1195250D01*
X608701D01*
X611117Y1195897D01*
X613283Y1197148D01*
X615052Y1198917D01*
X616303Y1201083D01*
X616950Y1203499D01*
Y1206001D01*
X616303Y1208417D01*
X615052Y1210583D01*
X613283Y1212352D01*
X611117Y1213603D01*
X608701Y1214250D01*
D02*
G37*
G36*
X699245Y1203500D02*
X697255D01*
X695418Y1202739D01*
X694011Y1201332D01*
X693250Y1199495D01*
Y1197505D01*
X694011Y1195668D01*
X695418Y1194261D01*
X697178Y1193532D01*
X697275Y1193247D01*
X697354Y1192230D01*
X696168Y1191739D01*
X694761Y1190332D01*
X694000Y1188495D01*
Y1186506D01*
X694761Y1184668D01*
X696168Y1183261D01*
X698005Y1182500D01*
X699995D01*
X701832Y1183261D01*
X703239Y1184668D01*
X704000Y1186506D01*
Y1188495D01*
X703239Y1190332D01*
X701832Y1191739D01*
X700072Y1192468D01*
X699975Y1192754D01*
X699896Y1193770D01*
X701082Y1194261D01*
X702489Y1195668D01*
X703250Y1197505D01*
Y1199495D01*
X702489Y1201332D01*
X701082Y1202739D01*
X699245Y1203500D01*
D02*
G37*
G36*
X699495Y1171750D02*
X697505D01*
X695668Y1170989D01*
X694261Y1169582D01*
X693500Y1167745D01*
Y1165755D01*
X694261Y1163918D01*
X695668Y1162511D01*
X697505Y1161750D01*
X699495D01*
X701332Y1162511D01*
X702739Y1163918D01*
X703500Y1165755D01*
Y1167745D01*
X702739Y1169582D01*
X701332Y1170989D01*
X699495Y1171750D01*
D02*
G37*
G36*
X699245Y1158000D02*
X697255D01*
X695418Y1157239D01*
X694011Y1155832D01*
X693250Y1153995D01*
Y1152005D01*
X694011Y1150168D01*
X695418Y1148761D01*
X697255Y1148000D01*
X699245D01*
X701082Y1148761D01*
X702489Y1150168D01*
X703250Y1152005D01*
Y1153995D01*
X702489Y1155832D01*
X701082Y1157239D01*
X699245Y1158000D01*
D02*
G37*
G36*
X693245Y1100250D02*
X691255D01*
X689418Y1099489D01*
X688011Y1098082D01*
X687250Y1096245D01*
Y1094255D01*
X688011Y1092418D01*
X689418Y1091011D01*
X691255Y1090250D01*
X693245D01*
X695082Y1091011D01*
X696489Y1092418D01*
X697250Y1094255D01*
Y1096245D01*
X696489Y1098082D01*
X695082Y1099489D01*
X693245Y1100250D01*
D02*
G37*
G36*
X718627Y1096688D02*
X716638D01*
X714800Y1095927D01*
X713394Y1094520D01*
X712633Y1092682D01*
Y1090693D01*
X713394Y1088856D01*
X714800Y1087449D01*
X716638Y1086688D01*
X718627D01*
X720465Y1087449D01*
X721871Y1088856D01*
X722633Y1090693D01*
Y1092682D01*
X721871Y1094520D01*
X720465Y1095927D01*
X718627Y1096688D01*
D02*
G37*
G36*
X724495Y1079750D02*
X722505D01*
X720668Y1078989D01*
X719261Y1077582D01*
X718500Y1075745D01*
Y1073755D01*
X719261Y1071918D01*
X720668Y1070511D01*
X722505Y1069750D01*
X724495D01*
X726332Y1070511D01*
X727739Y1071918D01*
X728500Y1073755D01*
Y1075745D01*
X727739Y1077582D01*
X726332Y1078989D01*
X724495Y1079750D01*
D02*
G37*
G36*
X370651Y1146935D02*
X368662D01*
X366824Y1146174D01*
X365418Y1144768D01*
X364657Y1142930D01*
Y1140941D01*
X365418Y1139103D01*
X366824Y1137696D01*
X368662Y1136935D01*
X370651D01*
X372489Y1137696D01*
X373895Y1139103D01*
X374657Y1140941D01*
Y1142930D01*
X373895Y1144768D01*
X372489Y1146174D01*
X370651Y1146935D01*
D02*
G37*
G36*
X310745Y1235750D02*
X308755D01*
X306918Y1234989D01*
X305511Y1233582D01*
X304750Y1231745D01*
Y1229755D01*
X305511Y1227918D01*
X306918Y1226511D01*
X308755Y1225750D01*
X310745D01*
X312582Y1226511D01*
X313989Y1227918D01*
X314750Y1229755D01*
Y1231745D01*
X313989Y1233582D01*
X312582Y1234989D01*
X310745Y1235750D01*
D02*
G37*
G36*
X310245Y1221500D02*
X308255D01*
X306418Y1220739D01*
X305011Y1219332D01*
X304250Y1217495D01*
Y1215505D01*
X305011Y1213668D01*
X306418Y1212261D01*
X308255Y1211500D01*
X310245D01*
X312082Y1212261D01*
X313489Y1213668D01*
X314250Y1215505D01*
Y1217495D01*
X313489Y1219332D01*
X312082Y1220739D01*
X310245Y1221500D01*
D02*
G37*
G36*
X302495Y1120250D02*
X300505D01*
X298668Y1119489D01*
X297261Y1118082D01*
X296500Y1116245D01*
Y1114255D01*
X297261Y1112418D01*
X298668Y1111011D01*
X300505Y1110250D01*
X302495D01*
X304332Y1111011D01*
X305739Y1112418D01*
X306500Y1114255D01*
Y1116245D01*
X305739Y1118082D01*
X304332Y1119489D01*
X302495Y1120250D01*
D02*
G37*
G36*
X311444Y1035456D02*
X309455D01*
X307617Y1034695D01*
X306210Y1033289D01*
X305449Y1031451D01*
Y1029462D01*
X306210Y1027624D01*
X307617Y1026218D01*
X309455Y1025456D01*
X311444D01*
X313281Y1026218D01*
X314688Y1027624D01*
X315449Y1029462D01*
Y1031451D01*
X314688Y1033289D01*
X313281Y1034695D01*
X311444Y1035456D01*
D02*
G37*
G36*
X309194Y1022456D02*
X307205D01*
X305367Y1021695D01*
X303960Y1020289D01*
X303199Y1018451D01*
Y1016462D01*
X303960Y1014624D01*
X305367Y1013218D01*
X307205Y1012456D01*
X309194D01*
X311031Y1013218D01*
X312438Y1014624D01*
X313199Y1016462D01*
Y1018451D01*
X312438Y1020289D01*
X311031Y1021695D01*
X309194Y1022456D01*
D02*
G37*
G36*
X310495Y987750D02*
X308505D01*
X306668Y986989D01*
X305261Y985582D01*
X304500Y983745D01*
Y981755D01*
X305261Y979918D01*
X306668Y978511D01*
X308505Y977750D01*
X310495D01*
X312332Y978511D01*
X313739Y979918D01*
X314500Y981755D01*
Y983745D01*
X313739Y985582D01*
X312332Y986989D01*
X310495Y987750D01*
D02*
G37*
G36*
X447377Y874438D02*
X445388D01*
X443550Y873677D01*
X442144Y872270D01*
X441383Y870433D01*
Y868443D01*
X442144Y866606D01*
X443550Y865199D01*
X445388Y864438D01*
X447377D01*
X449215Y865199D01*
X450621Y866606D01*
X451383Y868443D01*
Y870433D01*
X450621Y872270D01*
X449215Y873677D01*
X447377Y874438D01*
D02*
G37*
%LPD*%
D46*
X531250Y1064500D02*
X743250D01*
X523750Y1072000D02*
X531250Y1064500D01*
D48*
X461750Y1000750D02*
D03*
X623250D02*
D03*
D51*
X487178Y1030034D02*
D03*
X698346Y1177980D02*
D03*
X597250Y951500D02*
D03*
X588250Y838500D02*
D03*
X414000Y1179250D02*
D03*
X395750Y1175000D02*
D03*
X505000Y1085897D02*
D03*
X388500Y1179000D02*
D03*
X268750Y1271000D02*
D03*
X764750Y964250D02*
D03*
X559750Y1145500D02*
D03*
X604500Y1017500D02*
D03*
X699750Y846750D02*
D03*
X527000Y1145000D02*
D03*
X429250Y1016750D02*
D03*
X335250Y1075750D02*
D03*
X645750Y972000D02*
D03*
X310250Y1272000D02*
D03*
X351963Y1040747D02*
D03*
X523750Y1072000D02*
D03*
X743250Y1064500D02*
D03*
X657455Y914684D02*
D03*
X524133Y836688D02*
D03*
X601750Y965500D02*
D03*
X412346Y1031230D02*
D03*
D54*
X658250Y1229750D02*
D03*
X632850D02*
D03*
X607450D02*
D03*
X582050D02*
D03*
X556650D02*
D03*
X531250D02*
D03*
X505850D02*
D03*
X480450D02*
D03*
X455050D02*
D03*
X429650D02*
D03*
X404250D02*
D03*
X378850D02*
D03*
X353450D02*
D03*
X658250Y1254750D02*
D03*
X632850D02*
D03*
X607450D02*
D03*
X582050D02*
D03*
X556650D02*
D03*
X531250D02*
D03*
X505850D02*
D03*
X480450D02*
D03*
X455050D02*
D03*
X429650D02*
D03*
X404250D02*
D03*
X378850D02*
D03*
X353450D02*
D03*
M02*
