M48
;Layer_Color=9474304
;FILE_FORMAT=4:4
METRIC,LZ
;TYPE=PLATED
T1F00S00C0.3000
T2F00S00C0.4000
T3F00S00C0.5000
T4F00S00C0.6000
T5F00S00C0.6000
T8F00S00C0.9000
T9F00S00C2.7000
;TYPE=NON_PLATED
T11F00S00C0.6000
%
T01
X01701Y0039025
T02
X00321048Y00265347
Y00278047
Y00290747
Y00328847
Y00341547
X00319435Y00355859
X00319285Y00368709
X00360048Y00366947
Y00354247
Y00341547
Y00328847
Y00316147
Y00290747
Y00278047
Y0026585
X003856Y0028775
X00417407Y00260676
X00424407Y00311675
X00433788Y00339178
X00417907Y00351175
X00433681Y00378
X00403Y00385
X00402Y00393
X0046175Y0039525
X0046925Y003875
X00472657Y00374925
X00483407Y00376925
X00482907Y00391925
X00509212Y00377288
X00507Y00343
X0051275Y0032275
X0053175Y0032325
X00572Y00328914
X00591376Y00325518
X00588126Y00312017
X005806Y00313
X0056475Y0031025
X00556393Y00274
X005456Y00269
X00503907Y00263925
X004845Y00282
X004781Y00322
X00544907Y00383925
X00594907Y00387925
X0060125Y0039375
X00631907Y0039475
X00645157Y00390175
X0066025Y00351196
X00657Y00298
X0064485Y00305
X0062524Y00291511
X00628764Y00277954
X00712326Y00277661
X00712576Y00290161
X00712048Y00303447
Y00316147
X00711376Y00328768
X00750626Y00328268
X00751048Y00316147
Y00303447
X00752326Y00290661
X00751825Y00278161
X00751333Y00264739
X00712825Y00265161
X00722365Y00384108
X00732796Y0038713
X0074925Y0037975
X00750886Y0036925
X01339205Y00342426
X01347767Y00337138
X01354Y0032475
X01364199Y00366706
X0137325Y0037325
X01366705Y00390933
X01545633Y00294188
X01623383Y00261438
X016875Y0026325
X01754955Y00271183
X01799Y002715
X018Y0030275
X01756705Y00339434
X01758383Y00392688
X01745Y0039675
X016965Y0037625
X01848Y0037825
X01864Y00389
X01870017Y00402388
X01870267Y00415388
X01872017Y00426888
X01874767Y00439638
X018425Y0048925
X0182275Y004995
X01816883Y00516438
X017915Y0052
X017975Y0057775
X0179775Y005915
X01797596Y0060273
X0179825Y0061225
X017975Y0062325
X01793996Y00664218
X01809Y00679
X0181275Y006918
X01811Y007045
Y007172
X0182575Y007299
X01840589Y00713051
X018375Y00665888
X01877839Y00695551
X018065Y0074325
X016395Y007225
X01625Y00724
X01645705Y00700684
X01659Y0057025
X0162625Y0056975
X0160275Y0053525
X0160425Y00510647
X01623Y0049675
X0167275Y00498
X0170375Y0044225
X0179725Y0041775
X01590955Y0060375
X0151325Y00604
X01495Y0059975
X0148775Y0060375
X01468907Y00566685
X01424383Y00524438
X014345Y005005
X01451213Y00465497
X01409699Y00455206
X01407449Y00442206
X0140875Y004075
X0140075Y0054
X014085Y0064125
X01409Y006555
X014095Y0069675
X01408892Y00736992
X01408455Y00762184
X01349082Y00746204
X01368Y0069575
X0134375Y0062275
X0132875Y0062975
X015375Y0064025
X015405Y0073675
X01458955Y00724933
X01511596Y0045598
X015285Y004415
X01586427Y00454784
X00751048Y00455847
Y00443147
Y00429647
Y00417747
X00729Y00428
X00727Y00446
X00710644Y00456069
X0071175Y00463487
X00712Y00481247
X00712048Y00493246
X00712093Y00507127
X00728656Y00506925
X00728377Y00519127
X0073575Y005205
X00739577Y0052695
X00751048Y00533947
Y00546647
X0073Y00545
X00709Y0054605
X00712209Y0053255
X00712048Y00584747
Y00597447
Y0060915
X00723Y0061
X007285Y0062025
X00712048Y00622047
Y00635547
Y00648247
Y00660947
Y00673647
Y00686347
Y00699047
Y00711747
Y00724447
Y00737147
Y00749847
Y00762547
Y00775422
X00729376Y00777268
X00751048Y00775247
Y00762547
Y00749847
X00727376Y00709017
X00726876Y00663268
X00751048Y00660947
Y00635547
Y00622847
Y00610147
Y00597447
X00752657Y00518675
X00751048Y00506647
Y00493947
X00730157Y00494925
X00734645Y0048735
X00649518Y00490527
X00639239Y00494206
X00629Y005015
X00629758Y00513258
X00628157Y00522425
X00638657
X00649157Y00522675
X006471Y005085
X00620409Y00507758
X00617657Y0052325
X00607157Y00521182
X00587Y005345
X00587157Y00548925
X0058972Y00555974
X00576657Y005515
X00567604Y00545265
X00562925Y0055685
X005445Y0055725
X00534157Y00549675
X00528088Y00554082
X00521407Y00549175
X005175Y00556
X0050425
X00508471Y00549759
X00491535Y00549036
X00484802Y00552339
X00478562Y005565
X00461453Y00571221
X00452281Y00582074
X00442Y0058575
X00426
X00427876Y00567267
X00423612Y0055842
X00420695Y00544302
X00422407Y00537
X00430149Y00536851
X00436944Y00533675
X0043875Y00554097
X00447716Y0059625
X004741Y00589
X004985Y0058825
X00494Y0060825
X00494891Y00624065
X0047525Y00613985
X00462195Y00650055
X004691Y00659
X00468Y006765
X0046475Y006975
X00490376Y00694268
X00528907Y00689925
X0054335Y0068775
X00548236Y00667008
X00518126Y00670518
X0051825Y006535
X00527626Y00648268
X0052435Y0062
X0055375Y006185
X005515Y00603
X00547Y00583
X00564407Y00586425
X0056982Y00581234
X00588126Y0059825
X00595462Y00596689
X0059025Y006115
X00607521Y00585
X005976Y00649
X0059385Y006715
X0060085Y00679349
X0059522Y00686075
X00609909Y00687298
X0061585Y0068164
X00622744Y00684594
X00631242Y00674
X006126Y00661396
X00672Y0064725
X00654407Y00613629
X00644407Y00480925
X00641657Y00466925
X00651264Y00464873
X00646612Y00454675
X00636112Y0045175
X00637973Y0044125
X00643118Y00435792
X0064993Y0043893
X00650363Y00426064
X00650657Y00404425
X0062675Y004005
X006265Y004095
X0061185Y004035
X00611121Y00434726
X006206Y004345
X005996Y004315
X00578907Y00430925
X0058425Y0048
X005651Y004835
X0057115Y004923
X005751Y0050025
X0054475Y004925
X00542392Y00479941
X00543213Y00459481
X00535719Y00459168
X00506157Y0046025
X0050725Y0044675
X00484Y004505
X00483157Y00461425
X00490157Y00475
X00486157Y00484175
X00474Y0048375
X00464763Y00497884
X0046385Y005085
X00488907Y00511384
X0051025Y005055
X00516657Y0049925
X00521032Y00484447
X005055Y0047675
X00489587Y00435733
X00471657Y00431925
X00471606Y00424394
X00475124Y00417699
X0047325Y004095
X00485657Y00405425
X004365Y00398495
X00437157Y00432425
X00435907Y00442925
X00402032Y004373
X0041Y00423
X003995Y00482
X00403Y00509
X00402407Y00526175
X00402157Y00570925
X0040335Y0059625
X0040535Y006615
X00419626Y00658767
X0043085Y0067025
X004465Y006815
X0044475Y00634
X00438657Y00723675
X0050735Y0072975
X0052425Y00716925
X005385Y0071925
X00581262Y00733422
X00564Y0075775
X0057155Y00767745
X0049985Y007675
X0051625Y005815
X0051285Y0053
X0053889Y00529375
X005431Y005085
X0055175Y0054375
X00617Y0049075
X00711Y0041825
X00714951Y00403225
X00721166Y00397975
X00360048Y00430447
Y00443147
Y00455847
Y00468547
Y00481247
Y00493947
Y00506647
Y00533947
Y00546647
Y00559347
Y00572047
X00321048
Y00584747
Y00597447
Y00610147
Y0062275
Y00660947
Y00673647
X003215Y007115
X00321048Y00724447
Y00737147
X00322147Y00749413
X00321397Y00762413
X00322147Y00774913
X00361147Y00775163
Y00762163
X00360897Y00749163
X003605Y007369
X00360048Y00724447
X0036025Y0071125
X0039385Y006825
X00342575Y00646911
X00321048Y00546647
Y00533947
Y00506647
Y00493947
Y00455847
Y00443147
X003785Y0047425
X00379238Y00488945
T03
X00322Y00303
Y00316
X0036Y00303
Y00379
Y00392
X00321
Y0038
X00602Y00376
X0066225Y0034345
X00713Y00341
X00712Y00354
Y00367
Y00379
Y00392
X00751
X00752Y00354
Y00341
X00638Y0026
X00834165Y00262088
Y00274788
Y00287488
Y00300188
Y00312888
Y00325588
Y00338288
Y00350988
Y00363688
X00895665Y00343488
Y00324238
X00935939Y00320096
X00944415Y00320738
X00944915Y00297488
X00930665Y00297738
X00958665Y00290488
X00873165Y00287488
Y00274788
Y00262088
X0099414Y00348263
X00993165Y00369738
X01003665Y00381988
X01085875Y00388278
X01094415Y00386738
X01156915Y00383488
X01128915Y00351238
X01131415Y00334238
X01137165Y00320238
X01163415Y00322238
X01183021Y00329215
X01189665Y00316238
X01188915Y00287988
X01190165Y00269738
X01144665Y00271488
X01215165Y00312788
Y00326738
Y00338188
X01254165
Y00325488
Y00312788
X01215165Y00439788
Y00452488
Y00465188
Y00477888
Y00490588
Y00503288
Y00530688
Y00543388
X01254165
Y00530688
Y00503288
Y00490588
Y00746588
Y00759288
Y00771988
X01215165
Y00759288
Y00746588
X01096415Y00765988
X01080665Y00734238
X01118165Y00692988
X01127915Y00693488
X01106915Y00657238
X01063915Y00657126
X01047165Y00657113
X01040665Y00676238
X01020915Y00656988
X01023415Y00613738
X01000629Y00622953
X00936415Y00629488
X00936915Y00642488
Y00657738
X00937165Y00611238
X00962665Y00553238
X01003415Y00536738
X01028065Y00493138
X01076165Y00509238
X01107165Y00517988
X01128415Y00519238
X01149665Y00505488
Y00537488
X01136915Y00567238
X01136165Y00595488
X01151915Y00600238
X01149915Y00633488
X01114165Y00603738
X01115165Y00559488
X01101915Y00554238
X01073616Y00463511
X01152915Y00471738
X01171715Y00437678
X01174665Y00421238
X01187665Y00406738
X00994665Y00436988
X00954665Y00437488
X00910499Y00424629
X00873165Y00490688
Y00503388
Y00530688
Y00543388
Y00556088
Y00568788
Y00581488
X00834165Y00543388
Y00530688
Y00503388
Y00490688
X00977665Y00472488
X00963915Y00691238
X01012415Y00713488
X01012665Y00763988
X00873165Y00721188
Y00708488
Y00695788
X00834165
Y00708488
Y00721188
X00752Y00724
X00753Y00711
Y00699
Y00686
Y00673
Y00648
X00752Y00585
Y00572
Y00559
X00711
Y00572
X0067Y0062
X0066Y00648
X00632Y00732
X0059935Y00703475
X00577Y00721131
X00578254Y00740903
X00557Y00732
X00487908Y00755516
X00751Y00737
Y00481
Y00468
X00714Y00443
X00712Y0043
X00751Y00405
X00637Y0041
X00594Y00476
X0055025Y00468
X006925Y00481425
X00322Y00481
Y00468
Y0043
X00321Y00418
Y00405
X0036
Y00418
Y00584
Y00597
Y0061
Y00623
X00359Y00635
X00361Y00648
Y00661
Y00673
X0036Y00686
Y00699
X00321
Y00686
Y00648
Y00635
Y00559
T04
X01591427Y00424534
T05
X00873415Y00299988
X00872665Y00312738
X00872915Y00325988
X00873415Y00338238
X00873165Y00350988
X00873415Y00363488
Y00376488
X00873165Y00389088
X00835665Y00388738
X00834165Y00376388
X01215165Y00376238
Y00363588
Y00350888
Y00388988
X01254165
Y00376288
Y00363588
Y00350888
X01254577Y00300405
X01254827Y00287655
X01254577Y00275155
X01255165Y00261738
X01215577Y00262155
X01215077Y00274655
Y00287655
Y00299905
X01215165Y00401688
Y00414388
Y00427088
X01254165
Y00414388
Y00401688
X01254915Y00439738
X01254665Y00452238
X01254915Y00464988
X01254665Y00477738
X01255165Y00555988
X01254915Y00568738
Y00581738
X01254665Y00594238
X01253915Y00606988
X01254415Y00619988
X01254165Y00632238
X01253915Y00645238
X01253665Y00657738
Y00670488
X01253165Y00682988
X01253665Y00695738
X01254165Y00708488
X01253665Y00720988
Y00733738
X01214415
X01215415Y00721238
X01214915Y00707988
X01215665Y00696238
X01214915Y00682738
Y00670238
X01214665Y00657488
Y00644988
Y00632238
Y00619738
X01214415Y00606988
X01213915Y00593988
X01214665Y00581238
X01213915Y00568738
X01214665Y00555988
X00873165Y00594188
Y00606888
Y00619588
Y00632288
Y00644988
Y00657688
X00873665Y00670238
Y00682988
X00833915Y00683488
X00833665Y00670238
X00834665Y00657738
X00834165Y00644488
X00834665Y00632238
Y00619238
X00834165Y00606238
X00833665Y00594238
X00834665Y00581238
X00834165Y00568488
X00834665Y00555738
X00834415Y00477988
X00834915Y00464988
X00834165Y00452488
X00834665Y00439488
X00835165Y00426988
Y00414238
X00835415Y00401488
X00873165Y00401738
Y00414488
Y00427188
Y00439888
Y00452588
Y00465288
Y00477988
X00873665Y00733238
X00873915Y00746488
X00873665Y00759238
Y00771988
X00833665
X00833165Y00759488
X00833915Y00746738
X00833665Y00733738
T08
X016051Y006295
Y006545
Y006795
X016305
Y006545
Y006295
X016559
Y006545
Y006795
X016813
Y006545
Y006295
X017067
Y006545
Y006795
X017321
Y006545
Y006295
X017575
Y006545
Y006795
X015797
Y006545
Y006295
X015543
Y006545
Y006795
X015289
Y006545
Y006295
X015035
Y006545
Y006795
X014781
Y006545
Y006295
X014527
Y006545
Y006795
T09
X016505Y004255
X017225
X01561
X01489
T11
X006151Y0032205
X006729
X00909165Y00297988
X00966965
X018452Y002746
Y003324
M30
