G04*
G04 #@! TF.GenerationSoftware,Altium Limited,Altium Designer,23.6.0 (18)*
G04*
G04 Layer_Color=128*
%FSLAX44Y44*%
%MOMM*%
G71*
G04*
G04 #@! TF.SameCoordinates,A137800D-7D6B-43E2-A44D-125AE26CC9B3*
G04*
G04*
G04 #@! TF.FilePolarity,Positive*
G04*
G01*
G75*
%ADD20R,1.0000X1.1000*%
%ADD21R,1.1000X1.0000*%
%ADD25R,0.5000X0.7000*%
%ADD28R,0.6000X1.1400*%
%ADD29R,0.3000X1.1400*%
%ADD37R,2.6000X1.9000*%
%ADD38R,1.5000X0.8000*%
%ADD39R,3.0000X1.6000*%
G04:AMPARAMS|DCode=120|XSize=1.57mm|YSize=0.41mm|CornerRadius=0.0513mm|HoleSize=0mm|Usage=FLASHONLY|Rotation=0.000|XOffset=0mm|YOffset=0mm|HoleType=Round|Shape=RoundedRectangle|*
%AMROUNDEDRECTD120*
21,1,1.5700,0.3075,0,0,0.0*
21,1,1.4675,0.4100,0,0,0.0*
1,1,0.1025,0.7338,-0.1538*
1,1,0.1025,-0.7338,-0.1538*
1,1,0.1025,-0.7338,0.1538*
1,1,0.1025,0.7338,0.1538*
%
%ADD120ROUNDEDRECTD120*%
%ADD121R,0.7000X0.5000*%
%ADD122R,0.8000X0.9000*%
%ADD123R,1.2000X0.4500*%
%ADD124R,2.0000X1.8000*%
G04:AMPARAMS|DCode=125|XSize=1.56mm|YSize=0.28mm|CornerRadius=0.035mm|HoleSize=0mm|Usage=FLASHONLY|Rotation=0.000|XOffset=0mm|YOffset=0mm|HoleType=Round|Shape=RoundedRectangle|*
%AMROUNDEDRECTD125*
21,1,1.5600,0.2100,0,0,0.0*
21,1,1.4900,0.2800,0,0,0.0*
1,1,0.0700,0.7450,-0.1050*
1,1,0.0700,-0.7450,-0.1050*
1,1,0.0700,-0.7450,0.1050*
1,1,0.0700,0.7450,0.1050*
%
%ADD125ROUNDEDRECTD125*%
G04:AMPARAMS|DCode=126|XSize=1.56mm|YSize=0.28mm|CornerRadius=0.035mm|HoleSize=0mm|Usage=FLASHONLY|Rotation=270.000|XOffset=0mm|YOffset=0mm|HoleType=Round|Shape=RoundedRectangle|*
%AMROUNDEDRECTD126*
21,1,1.5600,0.2100,0,0,270.0*
21,1,1.4900,0.2800,0,0,270.0*
1,1,0.0700,-0.1050,-0.7450*
1,1,0.0700,-0.1050,0.7450*
1,1,0.0700,0.1050,0.7450*
1,1,0.0700,0.1050,-0.7450*
%
%ADD126ROUNDEDRECTD126*%
G04:AMPARAMS|DCode=127|XSize=2.33mm|YSize=1.55mm|CornerRadius=0.3875mm|HoleSize=0mm|Usage=FLASHONLY|Rotation=180.000|XOffset=0mm|YOffset=0mm|HoleType=Round|Shape=RoundedRectangle|*
%AMROUNDEDRECTD127*
21,1,2.3300,0.7750,0,0,180.0*
21,1,1.5550,1.5500,0,0,180.0*
1,1,0.7750,-0.7775,0.3875*
1,1,0.7750,0.7775,0.3875*
1,1,0.7750,0.7775,-0.3875*
1,1,0.7750,-0.7775,-0.3875*
%
%ADD127ROUNDEDRECTD127*%
G04:AMPARAMS|DCode=129|XSize=1.97mm|YSize=0.6mm|CornerRadius=0.162mm|HoleSize=0mm|Usage=FLASHONLY|Rotation=180.000|XOffset=0mm|YOffset=0mm|HoleType=Round|Shape=RoundedRectangle|*
%AMROUNDEDRECTD129*
21,1,1.9700,0.2760,0,0,180.0*
21,1,1.6460,0.6000,0,0,180.0*
1,1,0.3240,-0.8230,0.1380*
1,1,0.3240,0.8230,0.1380*
1,1,0.3240,0.8230,-0.1380*
1,1,0.3240,-0.8230,-0.1380*
%
%ADD129ROUNDEDRECTD129*%
%ADD130R,5.1000X1.9000*%
%ADD131R,1.1400X0.6000*%
%ADD132R,1.1400X0.3000*%
%ADD133R,1.5000X1.0000*%
%ADD134R,8.1300X8.1300*%
%ADD135R,2.7900X0.9900*%
%ADD136R,2.7900X1.4000*%
%ADD137R,8.1300X8.1300*%
%ADD138R,0.9900X2.7900*%
%ADD139R,1.4000X2.7900*%
%ADD140R,1.0000X1.5000*%
%ADD141R,0.7000X1.6000*%
%ADD142R,2.8000X2.2000*%
%ADD143R,0.8000X1.6000*%
%ADD144R,2.1000X3.0000*%
G36*
X1507826Y526854D02*
X1499830D01*
Y539250D01*
X1507826D01*
Y526854D01*
D02*
G37*
G36*
X1518550Y526853D02*
X1510530D01*
Y539250D01*
X1518550D01*
Y526853D01*
D02*
G37*
G36*
X1724646Y514904D02*
X1716650D01*
Y527300D01*
X1724646D01*
Y514904D01*
D02*
G37*
G36*
X1735370Y514903D02*
X1727350D01*
Y527300D01*
X1735370D01*
Y514903D01*
D02*
G37*
G36*
X1507828Y511729D02*
X1499830D01*
Y524150D01*
X1507828D01*
Y511729D01*
D02*
G37*
G36*
X1518553Y511717D02*
X1510530D01*
Y524150D01*
X1518553D01*
Y511717D01*
D02*
G37*
G36*
X1724648Y499779D02*
X1716650D01*
Y512200D01*
X1724648D01*
Y499779D01*
D02*
G37*
G36*
X1735373Y499767D02*
X1727350D01*
Y512200D01*
X1735373D01*
Y499767D01*
D02*
G37*
G36*
X1599146Y312354D02*
X1591150D01*
Y324750D01*
X1599146D01*
Y312354D01*
D02*
G37*
G36*
X1609870Y312353D02*
X1601850D01*
Y324750D01*
X1609870D01*
Y312353D01*
D02*
G37*
G36*
X1599148Y297229D02*
X1591150D01*
Y309650D01*
X1599148D01*
Y297229D01*
D02*
G37*
G36*
X1609873Y297217D02*
X1601850D01*
Y309650D01*
X1609873D01*
Y297217D01*
D02*
G37*
D20*
X1132415Y451238D02*
D03*
Y434238D02*
D03*
X1190415Y451238D02*
D03*
Y434238D02*
D03*
X925415Y657488D02*
D03*
Y640488D02*
D03*
X907415Y657488D02*
D03*
Y640488D02*
D03*
X889415Y657488D02*
D03*
Y640488D02*
D03*
X925665Y620988D02*
D03*
Y603988D02*
D03*
X907415Y621238D02*
D03*
Y604238D02*
D03*
X889415Y621238D02*
D03*
Y604238D02*
D03*
X886165Y583488D02*
D03*
Y566488D02*
D03*
X991665Y462488D02*
D03*
Y445488D02*
D03*
X957665Y375488D02*
D03*
Y392488D02*
D03*
X939415Y375738D02*
D03*
Y392738D02*
D03*
X921165Y375238D02*
D03*
Y392238D02*
D03*
X902415Y374988D02*
D03*
Y391988D02*
D03*
X948415Y461988D02*
D03*
Y444988D02*
D03*
X1047165Y746738D02*
D03*
Y729738D02*
D03*
X1132415Y727238D02*
D03*
Y744238D02*
D03*
X1026665Y730488D02*
D03*
Y747488D02*
D03*
X1029665Y647238D02*
D03*
Y630238D02*
D03*
X1047915Y630488D02*
D03*
Y647488D02*
D03*
X1013415Y462238D02*
D03*
Y445238D02*
D03*
X1084415Y629988D02*
D03*
Y646988D02*
D03*
X1066165Y630238D02*
D03*
Y647238D02*
D03*
X1050165Y462488D02*
D03*
Y445488D02*
D03*
X1031415Y445488D02*
D03*
Y462488D02*
D03*
X1066665Y675988D02*
D03*
Y692988D02*
D03*
X1086165Y674488D02*
D03*
Y691488D02*
D03*
X1104415Y674488D02*
D03*
Y691488D02*
D03*
X1006415Y747238D02*
D03*
Y730238D02*
D03*
X1029165Y687488D02*
D03*
Y704488D02*
D03*
X1114415Y744488D02*
D03*
Y727488D02*
D03*
X1047165Y704488D02*
D03*
Y687488D02*
D03*
X1143915Y686488D02*
D03*
Y703488D02*
D03*
X1163415Y702738D02*
D03*
Y685738D02*
D03*
X899665Y434238D02*
D03*
Y417238D02*
D03*
X1103165Y646738D02*
D03*
Y629738D02*
D03*
X929915Y461988D02*
D03*
Y444988D02*
D03*
X970415Y462488D02*
D03*
Y445488D02*
D03*
X1538000Y485500D02*
D03*
Y468500D02*
D03*
X1557250Y595250D02*
D03*
Y612250D02*
D03*
X1597000Y484250D02*
D03*
Y501250D02*
D03*
X1754500Y459750D02*
D03*
Y476750D02*
D03*
X1774000Y604250D02*
D03*
Y587250D02*
D03*
X1812250Y492000D02*
D03*
Y475000D02*
D03*
X1664250Y282750D02*
D03*
Y265750D02*
D03*
X1518500Y486000D02*
D03*
Y469000D02*
D03*
X1735000Y459750D02*
D03*
Y476750D02*
D03*
X1645750Y283250D02*
D03*
Y266250D02*
D03*
X1682750Y283250D02*
D03*
Y266250D02*
D03*
X1813250Y317250D02*
D03*
Y334250D02*
D03*
X1810500Y291250D02*
D03*
Y274250D02*
D03*
X1847000Y655500D02*
D03*
Y638500D02*
D03*
X1526000Y410250D02*
D03*
Y427250D02*
D03*
X503250Y341000D02*
D03*
Y324000D02*
D03*
X388500Y499000D02*
D03*
Y482000D02*
D03*
X388250Y543750D02*
D03*
Y526750D02*
D03*
X388500Y454250D02*
D03*
Y437250D02*
D03*
X387750Y587750D02*
D03*
Y570750D02*
D03*
X590750Y739250D02*
D03*
Y722250D02*
D03*
X595250Y357500D02*
D03*
Y374500D02*
D03*
X650750Y374750D02*
D03*
Y357750D02*
D03*
X632250Y357500D02*
D03*
Y374500D02*
D03*
X613750Y357250D02*
D03*
Y374250D02*
D03*
X694500Y627750D02*
D03*
Y644750D02*
D03*
X595750Y627000D02*
D03*
Y644000D02*
D03*
X594000Y458000D02*
D03*
Y475000D02*
D03*
X696250Y457750D02*
D03*
Y474750D02*
D03*
X541250Y323500D02*
D03*
Y340500D02*
D03*
X522250Y323750D02*
D03*
Y340750D02*
D03*
X560250Y323750D02*
D03*
Y340750D02*
D03*
X429750Y600000D02*
D03*
Y617000D02*
D03*
X484750Y599000D02*
D03*
Y616000D02*
D03*
X465000Y616250D02*
D03*
Y599250D02*
D03*
X503750D02*
D03*
Y616250D02*
D03*
D21*
X1115665Y353488D02*
D03*
X1098665D02*
D03*
X1115415Y335238D02*
D03*
X1098415D02*
D03*
X1115415Y317238D02*
D03*
X1098415D02*
D03*
X1115165Y279238D02*
D03*
X1098165D02*
D03*
X1115165Y297738D02*
D03*
X1098165D02*
D03*
X1080415Y601488D02*
D03*
X1097415D02*
D03*
X918415Y479738D02*
D03*
X901415D02*
D03*
X992665Y631488D02*
D03*
X1009665D02*
D03*
X992665Y650238D02*
D03*
X1009665D02*
D03*
X992415Y668738D02*
D03*
X1009415D02*
D03*
X899665Y681238D02*
D03*
X916665D02*
D03*
X900415Y719488D02*
D03*
X917415D02*
D03*
X900665Y756488D02*
D03*
X917665D02*
D03*
X1166415Y543488D02*
D03*
X1183415D02*
D03*
X1182915Y524738D02*
D03*
X1165915D02*
D03*
X1074415Y498488D02*
D03*
X1091415D02*
D03*
X1075165Y478988D02*
D03*
X1092165D02*
D03*
X898665Y582488D02*
D03*
X915665D02*
D03*
X898665Y567238D02*
D03*
X915665D02*
D03*
X918415Y511738D02*
D03*
X901415D02*
D03*
X918415Y495238D02*
D03*
X901415D02*
D03*
X954165Y699988D02*
D03*
X937165D02*
D03*
X954165Y738238D02*
D03*
X937165D02*
D03*
X954165Y775488D02*
D03*
X937165D02*
D03*
X954165Y681488D02*
D03*
X937165D02*
D03*
X954165Y719488D02*
D03*
X937165D02*
D03*
X954415Y756738D02*
D03*
X937415D02*
D03*
X1460500Y558250D02*
D03*
X1443500D02*
D03*
X1460250Y521750D02*
D03*
X1443250D02*
D03*
X1575000Y520500D02*
D03*
X1558000D02*
D03*
X1574000Y574250D02*
D03*
X1557000D02*
D03*
X1660750Y542750D02*
D03*
X1677750D02*
D03*
X1660750Y505750D02*
D03*
X1677750D02*
D03*
X1775250Y511500D02*
D03*
X1792250D02*
D03*
X1774750Y567500D02*
D03*
X1791750D02*
D03*
X1507250Y325750D02*
D03*
X1524250D02*
D03*
X1506750Y288500D02*
D03*
X1523750D02*
D03*
X1716500Y395000D02*
D03*
X1733500D02*
D03*
X1772750Y296500D02*
D03*
X1755750D02*
D03*
X1733500Y316250D02*
D03*
X1716500D02*
D03*
X1716750Y376000D02*
D03*
X1733750D02*
D03*
X1585750Y707750D02*
D03*
X1568750D02*
D03*
X1586500Y758000D02*
D03*
X1569500D02*
D03*
X1558750Y466000D02*
D03*
X1575750D02*
D03*
X1558500Y484250D02*
D03*
X1575500D02*
D03*
X1443250Y540000D02*
D03*
X1460250D02*
D03*
X1575500Y502250D02*
D03*
X1558500D02*
D03*
X1557750Y556500D02*
D03*
X1574750D02*
D03*
X1557750Y538250D02*
D03*
X1574750D02*
D03*
X1460500Y503250D02*
D03*
X1443500D02*
D03*
X1791500Y455000D02*
D03*
X1774500D02*
D03*
X1791500Y473750D02*
D03*
X1774500D02*
D03*
X1677250Y524000D02*
D03*
X1660250D02*
D03*
X1774750Y492500D02*
D03*
X1791750D02*
D03*
X1792000Y548500D02*
D03*
X1775000D02*
D03*
X1791750Y530000D02*
D03*
X1774750D02*
D03*
X1660750Y487000D02*
D03*
X1677750D02*
D03*
X1717750Y278000D02*
D03*
X1734750D02*
D03*
X1523500Y307250D02*
D03*
X1506500D02*
D03*
X1734500Y296500D02*
D03*
X1717500D02*
D03*
X1717250Y357250D02*
D03*
X1734250D02*
D03*
X1717250Y336500D02*
D03*
X1734250D02*
D03*
X1506500Y269750D02*
D03*
X1523500D02*
D03*
X554000Y757750D02*
D03*
X537000D02*
D03*
X575500Y758000D02*
D03*
X592500D02*
D03*
X571250Y721250D02*
D03*
X554250D02*
D03*
X390000Y350250D02*
D03*
X407000D02*
D03*
X431000Y388000D02*
D03*
X414000D02*
D03*
X445500Y368750D02*
D03*
X428500D02*
D03*
X428500Y350500D02*
D03*
X445500D02*
D03*
X407500Y369000D02*
D03*
X390500D02*
D03*
X391500Y619500D02*
D03*
X408500D02*
D03*
X426000Y408000D02*
D03*
X409000D02*
D03*
X425750Y452000D02*
D03*
X408750D02*
D03*
D25*
X934665Y258988D02*
D03*
Y278988D02*
D03*
X950165Y259238D02*
D03*
Y279238D02*
D03*
X919165Y259238D02*
D03*
Y279238D02*
D03*
D28*
X612000Y332750D02*
D03*
X620000D02*
D03*
X668000D02*
D03*
X676000D02*
D03*
D29*
X626500D02*
D03*
X631500D02*
D03*
X636500D02*
D03*
X641500D02*
D03*
X661500D02*
D03*
X656500D02*
D03*
X651500D02*
D03*
X646500D02*
D03*
D37*
X455750Y409250D02*
D03*
Y452250D02*
D03*
D38*
X1841750Y529750D02*
D03*
Y542250D02*
D03*
Y554750D02*
D03*
Y567250D02*
D03*
Y579750D02*
D03*
Y592250D02*
D03*
X1367500Y513600D02*
D03*
Y526100D02*
D03*
Y538600D02*
D03*
Y551100D02*
D03*
X1367500Y719750D02*
D03*
Y732250D02*
D03*
Y744750D02*
D03*
Y622750D02*
D03*
Y635250D02*
D03*
Y647750D02*
D03*
X1366750Y404100D02*
D03*
Y416600D02*
D03*
Y429100D02*
D03*
Y441600D02*
D03*
X1367000Y293100D02*
D03*
Y305600D02*
D03*
Y318100D02*
D03*
Y330600D02*
D03*
X1841750Y389750D02*
D03*
Y402250D02*
D03*
Y414750D02*
D03*
Y427250D02*
D03*
Y439750D02*
D03*
Y452250D02*
D03*
D39*
X1870750Y504250D02*
D03*
Y617750D02*
D03*
X1338500Y488100D02*
D03*
Y576600D02*
D03*
X1338500Y694250D02*
D03*
Y770250D02*
D03*
Y597250D02*
D03*
Y673250D02*
D03*
X1337750Y378600D02*
D03*
Y467100D02*
D03*
X1338000Y267600D02*
D03*
Y356100D02*
D03*
X1870750Y364250D02*
D03*
Y477750D02*
D03*
D120*
X1130265Y468988D02*
D03*
Y475488D02*
D03*
Y481988D02*
D03*
Y488488D02*
D03*
Y494988D02*
D03*
Y501488D02*
D03*
Y507988D02*
D03*
X1187665D02*
D03*
Y501488D02*
D03*
Y494988D02*
D03*
Y488488D02*
D03*
Y481988D02*
D03*
Y475488D02*
D03*
Y468988D02*
D03*
D121*
X1051415Y319238D02*
D03*
X1071415D02*
D03*
X1051165Y353238D02*
D03*
X1071165D02*
D03*
X1051415Y278488D02*
D03*
X1071415D02*
D03*
X1051415Y298988D02*
D03*
X1071415D02*
D03*
D122*
X1079665Y727488D02*
D03*
X1089165Y747488D02*
D03*
X1070165D02*
D03*
X1153415Y745988D02*
D03*
X1172415D02*
D03*
X1162915Y725988D02*
D03*
D123*
X1254165Y503288D02*
D03*
Y490588D02*
D03*
Y477888D02*
D03*
Y465188D02*
D03*
Y452488D02*
D03*
Y414388D02*
D03*
Y427088D02*
D03*
Y439788D02*
D03*
Y401688D02*
D03*
Y388988D02*
D03*
Y376288D02*
D03*
Y363588D02*
D03*
Y350888D02*
D03*
Y312788D02*
D03*
Y325488D02*
D03*
Y338188D02*
D03*
Y300088D02*
D03*
Y287388D02*
D03*
Y274688D02*
D03*
Y261988D02*
D03*
X1215165Y503288D02*
D03*
Y490588D02*
D03*
Y477888D02*
D03*
Y465188D02*
D03*
Y452488D02*
D03*
Y414388D02*
D03*
Y427088D02*
D03*
Y439788D02*
D03*
Y401688D02*
D03*
Y388988D02*
D03*
Y376288D02*
D03*
Y363588D02*
D03*
Y350888D02*
D03*
Y312788D02*
D03*
Y325488D02*
D03*
Y338188D02*
D03*
Y300088D02*
D03*
Y287388D02*
D03*
Y274688D02*
D03*
Y261988D02*
D03*
X834165Y262088D02*
D03*
Y274788D02*
D03*
Y287488D02*
D03*
Y300188D02*
D03*
Y338288D02*
D03*
Y325588D02*
D03*
Y312888D02*
D03*
Y350988D02*
D03*
Y363688D02*
D03*
Y376388D02*
D03*
Y389088D02*
D03*
Y401788D02*
D03*
Y439888D02*
D03*
Y427188D02*
D03*
Y414488D02*
D03*
Y452588D02*
D03*
Y465288D02*
D03*
Y477988D02*
D03*
Y490688D02*
D03*
Y503388D02*
D03*
X873165Y262088D02*
D03*
Y274788D02*
D03*
Y287488D02*
D03*
Y300188D02*
D03*
Y338288D02*
D03*
Y325588D02*
D03*
Y312888D02*
D03*
Y350988D02*
D03*
Y363688D02*
D03*
Y376388D02*
D03*
Y389088D02*
D03*
Y401788D02*
D03*
Y439888D02*
D03*
Y427188D02*
D03*
Y414488D02*
D03*
Y452588D02*
D03*
Y465288D02*
D03*
Y477988D02*
D03*
Y490688D02*
D03*
Y503388D02*
D03*
X1215165Y771988D02*
D03*
Y759288D02*
D03*
Y746588D02*
D03*
Y733888D02*
D03*
Y721188D02*
D03*
Y683088D02*
D03*
Y695788D02*
D03*
Y708488D02*
D03*
Y670388D02*
D03*
Y657688D02*
D03*
Y644988D02*
D03*
Y632288D02*
D03*
Y619588D02*
D03*
Y581488D02*
D03*
Y594188D02*
D03*
Y606888D02*
D03*
Y568788D02*
D03*
Y556088D02*
D03*
Y543388D02*
D03*
Y530688D02*
D03*
X1254165Y771988D02*
D03*
Y759288D02*
D03*
Y746588D02*
D03*
Y733888D02*
D03*
Y721188D02*
D03*
Y683088D02*
D03*
Y695788D02*
D03*
Y708488D02*
D03*
Y670388D02*
D03*
Y657688D02*
D03*
Y644988D02*
D03*
Y632288D02*
D03*
Y619588D02*
D03*
Y581488D02*
D03*
Y594188D02*
D03*
Y606888D02*
D03*
Y568788D02*
D03*
Y556088D02*
D03*
Y543388D02*
D03*
Y530688D02*
D03*
X834165D02*
D03*
Y543388D02*
D03*
Y556088D02*
D03*
Y568788D02*
D03*
Y606888D02*
D03*
Y594188D02*
D03*
Y581488D02*
D03*
Y619588D02*
D03*
Y632288D02*
D03*
Y644988D02*
D03*
Y657688D02*
D03*
Y670388D02*
D03*
Y708488D02*
D03*
Y695788D02*
D03*
Y683088D02*
D03*
Y721188D02*
D03*
Y733888D02*
D03*
Y746588D02*
D03*
Y759288D02*
D03*
Y771988D02*
D03*
X873165Y530688D02*
D03*
Y543388D02*
D03*
Y556088D02*
D03*
Y568788D02*
D03*
Y606888D02*
D03*
Y594188D02*
D03*
Y581488D02*
D03*
Y619588D02*
D03*
Y632288D02*
D03*
Y644988D02*
D03*
Y657688D02*
D03*
Y670388D02*
D03*
Y708488D02*
D03*
Y695788D02*
D03*
Y683088D02*
D03*
Y721188D02*
D03*
Y733888D02*
D03*
Y746588D02*
D03*
Y759288D02*
D03*
Y771988D02*
D03*
X360500Y506400D02*
D03*
Y493700D02*
D03*
Y481000D02*
D03*
Y468300D02*
D03*
Y430200D02*
D03*
Y442900D02*
D03*
Y455600D02*
D03*
Y417500D02*
D03*
Y404800D02*
D03*
Y392100D02*
D03*
Y379400D02*
D03*
Y366700D02*
D03*
Y328600D02*
D03*
Y341300D02*
D03*
Y354000D02*
D03*
Y315900D02*
D03*
Y303200D02*
D03*
Y290500D02*
D03*
Y277800D02*
D03*
Y265100D02*
D03*
X321500Y506400D02*
D03*
Y493700D02*
D03*
Y481000D02*
D03*
Y468300D02*
D03*
Y430200D02*
D03*
Y442900D02*
D03*
Y455600D02*
D03*
Y417500D02*
D03*
Y404800D02*
D03*
Y392100D02*
D03*
Y379400D02*
D03*
Y366700D02*
D03*
Y328600D02*
D03*
Y341300D02*
D03*
Y354000D02*
D03*
Y315900D02*
D03*
Y303200D02*
D03*
Y290500D02*
D03*
Y277800D02*
D03*
Y265100D02*
D03*
X751500Y506400D02*
D03*
Y493700D02*
D03*
Y481000D02*
D03*
Y468300D02*
D03*
Y430200D02*
D03*
Y442900D02*
D03*
Y455600D02*
D03*
Y417500D02*
D03*
Y404800D02*
D03*
Y392100D02*
D03*
Y379400D02*
D03*
Y366700D02*
D03*
Y328600D02*
D03*
Y341300D02*
D03*
Y354000D02*
D03*
Y315900D02*
D03*
Y303200D02*
D03*
Y290500D02*
D03*
Y277800D02*
D03*
Y265100D02*
D03*
X712500Y506400D02*
D03*
Y493700D02*
D03*
Y481000D02*
D03*
Y468300D02*
D03*
Y430200D02*
D03*
Y442900D02*
D03*
Y455600D02*
D03*
Y417500D02*
D03*
Y404800D02*
D03*
Y392100D02*
D03*
Y379400D02*
D03*
Y366700D02*
D03*
Y328600D02*
D03*
Y341300D02*
D03*
Y354000D02*
D03*
Y315900D02*
D03*
Y303200D02*
D03*
Y290500D02*
D03*
Y277800D02*
D03*
Y265100D02*
D03*
X360500Y775000D02*
D03*
Y762300D02*
D03*
Y749600D02*
D03*
Y736900D02*
D03*
Y698800D02*
D03*
Y711500D02*
D03*
Y724200D02*
D03*
Y686100D02*
D03*
Y673400D02*
D03*
Y660700D02*
D03*
Y648000D02*
D03*
Y635300D02*
D03*
Y597200D02*
D03*
Y609900D02*
D03*
Y622600D02*
D03*
Y584500D02*
D03*
Y571800D02*
D03*
Y559100D02*
D03*
Y546400D02*
D03*
Y533700D02*
D03*
X321500Y775000D02*
D03*
Y762300D02*
D03*
Y749600D02*
D03*
Y736900D02*
D03*
Y698800D02*
D03*
Y711500D02*
D03*
Y724200D02*
D03*
Y686100D02*
D03*
Y673400D02*
D03*
Y660700D02*
D03*
Y648000D02*
D03*
Y635300D02*
D03*
Y597200D02*
D03*
Y609900D02*
D03*
Y622600D02*
D03*
Y584500D02*
D03*
Y571800D02*
D03*
Y559100D02*
D03*
Y546400D02*
D03*
Y533700D02*
D03*
X751500Y775000D02*
D03*
Y762300D02*
D03*
Y749600D02*
D03*
Y736900D02*
D03*
Y698800D02*
D03*
Y711500D02*
D03*
Y724200D02*
D03*
Y686100D02*
D03*
Y673400D02*
D03*
Y660700D02*
D03*
Y648000D02*
D03*
Y635300D02*
D03*
Y597200D02*
D03*
Y609900D02*
D03*
Y622600D02*
D03*
Y584500D02*
D03*
Y571800D02*
D03*
Y559100D02*
D03*
Y546400D02*
D03*
Y533700D02*
D03*
X712500Y775000D02*
D03*
Y762300D02*
D03*
Y749600D02*
D03*
Y736900D02*
D03*
Y698800D02*
D03*
Y711500D02*
D03*
Y724200D02*
D03*
Y686100D02*
D03*
Y673400D02*
D03*
Y660700D02*
D03*
Y648000D02*
D03*
Y635300D02*
D03*
Y597200D02*
D03*
Y609900D02*
D03*
Y622600D02*
D03*
Y584500D02*
D03*
Y571800D02*
D03*
Y559100D02*
D03*
Y546400D02*
D03*
Y533700D02*
D03*
D124*
X1069165Y525838D02*
D03*
X1111165D02*
D03*
X1069165Y576638D02*
D03*
X1111165D02*
D03*
D125*
X1028215Y535238D02*
D03*
Y540238D02*
D03*
Y545238D02*
D03*
Y550238D02*
D03*
Y555238D02*
D03*
Y560238D02*
D03*
Y565238D02*
D03*
Y570238D02*
D03*
Y575238D02*
D03*
Y580238D02*
D03*
Y585238D02*
D03*
Y590238D02*
D03*
X944615D02*
D03*
Y585238D02*
D03*
Y580238D02*
D03*
Y575238D02*
D03*
Y570238D02*
D03*
Y565238D02*
D03*
Y560238D02*
D03*
Y555238D02*
D03*
Y550238D02*
D03*
Y545238D02*
D03*
Y540238D02*
D03*
Y535238D02*
D03*
D126*
X958915Y520938D02*
D03*
X963915D02*
D03*
X968915D02*
D03*
X973915D02*
D03*
X978915D02*
D03*
X983915D02*
D03*
X988915D02*
D03*
X993915D02*
D03*
X998915D02*
D03*
X1003915D02*
D03*
X1008915D02*
D03*
X1013915D02*
D03*
Y604538D02*
D03*
X1008915D02*
D03*
X1003915D02*
D03*
X998915D02*
D03*
X993915D02*
D03*
X988915D02*
D03*
X983915D02*
D03*
X978915D02*
D03*
X973915D02*
D03*
X968915D02*
D03*
X963915D02*
D03*
X958915D02*
D03*
D127*
X1457250Y598000D02*
D03*
X1414550D02*
D03*
X1632800Y570000D02*
D03*
X1675500D02*
D03*
X1521100Y353250D02*
D03*
X1478400D02*
D03*
D129*
X1484430Y544550D02*
D03*
Y531850D02*
D03*
Y519150D02*
D03*
Y506450D02*
D03*
X1533930D02*
D03*
Y519150D02*
D03*
Y531850D02*
D03*
Y544550D02*
D03*
X1701250Y532600D02*
D03*
Y519900D02*
D03*
Y507200D02*
D03*
Y494500D02*
D03*
X1750750D02*
D03*
Y507200D02*
D03*
Y519900D02*
D03*
Y532600D02*
D03*
X1575750Y330050D02*
D03*
Y317350D02*
D03*
Y304650D02*
D03*
Y291950D02*
D03*
X1625250D02*
D03*
Y304650D02*
D03*
Y317350D02*
D03*
Y330050D02*
D03*
D130*
X1513000Y610250D02*
D03*
Y568250D02*
D03*
X1731000Y558000D02*
D03*
Y600000D02*
D03*
X1666250Y349250D02*
D03*
Y391250D02*
D03*
D131*
X1834500Y271500D02*
D03*
Y279500D02*
D03*
Y327500D02*
D03*
Y335500D02*
D03*
D132*
Y286000D02*
D03*
Y291000D02*
D03*
Y296000D02*
D03*
Y301000D02*
D03*
Y321000D02*
D03*
Y316000D02*
D03*
Y311000D02*
D03*
Y306000D02*
D03*
D133*
X1878000Y749000D02*
D03*
X1823000D02*
D03*
X1878000Y715000D02*
D03*
X1823000D02*
D03*
D134*
X1721250Y732750D02*
D03*
D135*
X1617050Y758150D02*
D03*
D136*
Y707350D02*
D03*
D137*
X645000Y733000D02*
D03*
X645171Y568479D02*
D03*
D138*
X619600Y628800D02*
D03*
X619771Y464279D02*
D03*
D139*
X670400Y628800D02*
D03*
X670571Y464279D02*
D03*
D140*
X376250Y718250D02*
D03*
X524750D02*
D03*
D141*
X502750Y637000D02*
D03*
X491750D02*
D03*
X414750D02*
D03*
X425750D02*
D03*
X436750D02*
D03*
X447750D02*
D03*
X458750D02*
D03*
X469750D02*
D03*
X480750D02*
D03*
X403750D02*
D03*
D142*
X682250Y366500D02*
D03*
Y411500D02*
D03*
D143*
X552500Y302500D02*
D03*
X540000D02*
D03*
X527500D02*
D03*
X515000D02*
D03*
X502500D02*
D03*
X490000D02*
D03*
X477500D02*
D03*
X465000D02*
D03*
D144*
X578000Y273500D02*
D03*
X439500D02*
D03*
M02*
