G04*
G04 #@! TF.GenerationSoftware,Altium Limited,Altium Designer,23.6.0 (18)*
G04*
G04 Layer_Color=32896*
%FSLAX44Y44*%
%MOMM*%
G71*
G04*
G04 #@! TF.SameCoordinates,A137800D-7D6B-43E2-A44D-125AE26CC9B3*
G04*
G04*
G04 #@! TF.FilePolarity,Positive*
G04*
G01*
G75*
%ADD10C,0.2000*%
%ADD11C,0.1500*%
%ADD12C,0.1270*%
%ADD13C,0.1250*%
%ADD14C,0.2500*%
%ADD17C,0.1000*%
%ADD170R,4.0000X0.5000*%
D10*
X1191064Y535538D02*
G03*
X1191064Y551438I-16149J7950D01*
G01*
X1158766D02*
G03*
X1158766Y535538I16149J-7950D01*
G01*
X1158266Y532688D02*
G03*
X1158266Y516788I16149J-7950D01*
G01*
X1190564D02*
G03*
X1190564Y532688I-16149J7950D01*
G01*
X1021715Y622589D02*
G03*
X1037615Y622589I7950J16149D01*
G01*
Y654887D02*
G03*
X1021715Y654887I-7950J-16149D01*
G01*
X1055865Y655137D02*
G03*
X1039965Y655137I-7950J-16149D01*
G01*
Y622839D02*
G03*
X1055865Y622839I7950J16149D01*
G01*
X1005465Y437589D02*
G03*
X1021365Y437589I7950J16149D01*
G01*
Y469887D02*
G03*
X1005465Y469887I-7950J-16149D01*
G01*
X1099064Y490538D02*
G03*
X1099064Y506439I-16149J7950D01*
G01*
X1066766D02*
G03*
X1066766Y490538I16149J-7950D01*
G01*
X1092365Y654637D02*
G03*
X1076465Y654637I-7950J-16149D01*
G01*
Y622339D02*
G03*
X1092365Y622339I7950J16149D01*
G01*
X1074115Y654887D02*
G03*
X1058215Y654887I-7950J-16149D01*
G01*
Y622589D02*
G03*
X1074115Y622589I7950J16149D01*
G01*
X1042215Y437839D02*
G03*
X1058115Y437839I7950J16149D01*
G01*
Y470137D02*
G03*
X1042215Y470137I-7950J-16149D01*
G01*
X1039365Y470137D02*
G03*
X1023465Y470137I-7950J-16149D01*
G01*
Y437839D02*
G03*
X1039365Y437839I7950J16149D01*
G01*
X1074615Y700637D02*
G03*
X1058715Y700637I-7950J-16149D01*
G01*
Y668339D02*
G03*
X1074615Y668339I7950J16149D01*
G01*
X1094115Y699137D02*
G03*
X1078215Y699137I-7950J-16149D01*
G01*
Y666839D02*
G03*
X1094115Y666839I7950J16149D01*
G01*
X1112365Y699137D02*
G03*
X1096465Y699137I-7950J-16149D01*
G01*
Y666839D02*
G03*
X1112365Y666839I7950J16149D01*
G01*
X998465Y722589D02*
G03*
X1014365Y722589I7950J16149D01*
G01*
Y754887D02*
G03*
X998465Y754887I-7950J-16149D01*
G01*
X1037115Y712137D02*
G03*
X1021215Y712137I-7950J-16149D01*
G01*
Y679839D02*
G03*
X1037115Y679839I7950J16149D01*
G01*
X1106465Y719839D02*
G03*
X1122365Y719839I7950J16149D01*
G01*
Y752137D02*
G03*
X1106465Y752137I-7950J-16149D01*
G01*
X1039215Y679839D02*
G03*
X1055115Y679839I7950J16149D01*
G01*
Y712137D02*
G03*
X1039215Y712137I-7950J-16149D01*
G01*
X1151865Y711137D02*
G03*
X1135965Y711137I-7950J-16149D01*
G01*
Y678839D02*
G03*
X1151865Y678839I7950J16149D01*
G01*
X1155465Y678089D02*
G03*
X1171365Y678089I7950J16149D01*
G01*
Y710387D02*
G03*
X1155465Y710387I-7950J-16149D01*
G01*
X1099814Y471038D02*
G03*
X1099814Y486939I-16149J7950D01*
G01*
X1067516D02*
G03*
X1067516Y471038I16149J-7950D01*
G01*
X923314Y574538D02*
G03*
X923314Y590439I-16149J7950D01*
G01*
X891016D02*
G03*
X891016Y574538I16149J-7950D01*
G01*
X923314Y559288D02*
G03*
X923314Y575189I-16149J7950D01*
G01*
X891016D02*
G03*
X891016Y559288I16149J-7950D01*
G01*
X926064Y503788D02*
G03*
X926064Y519689I-16149J7950D01*
G01*
X893766D02*
G03*
X893766Y503788I16149J-7950D01*
G01*
X893766Y503189D02*
G03*
X893766Y487288I16149J-7950D01*
G01*
X926064D02*
G03*
X926064Y503189I-16149J7950D01*
G01*
X891715Y409589D02*
G03*
X907615Y409589I7950J16149D01*
G01*
Y441887D02*
G03*
X891715Y441887I-7950J-16149D01*
G01*
X1095215Y622089D02*
G03*
X1111115Y622089I7950J16149D01*
G01*
Y654387D02*
G03*
X1095215Y654387I-7950J-16149D01*
G01*
X929516Y707939D02*
G03*
X929516Y692038I16149J-7950D01*
G01*
X961814D02*
G03*
X961814Y707939I-16149J7950D01*
G01*
X929516Y746189D02*
G03*
X929516Y730288I16149J-7950D01*
G01*
X961814D02*
G03*
X961814Y746189I-16149J7950D01*
G01*
X929516Y783439D02*
G03*
X929516Y767538I16149J-7950D01*
G01*
X961814D02*
G03*
X961814Y783439I-16149J7950D01*
G01*
X921965Y437339D02*
G03*
X937865Y437339I7950J16149D01*
G01*
Y469637D02*
G03*
X921965Y469637I-7950J-16149D01*
G01*
X962465Y437839D02*
G03*
X978365Y437839I7950J16149D01*
G01*
Y470137D02*
G03*
X962465Y470137I-7950J-16149D01*
G01*
X929516Y689438D02*
G03*
X929516Y673538I16149J-7950D01*
G01*
X961814D02*
G03*
X961814Y689438I-16149J7950D01*
G01*
X929516Y727439D02*
G03*
X929516Y711538I16149J-7950D01*
G01*
X961814D02*
G03*
X961814Y727439I-16149J7950D01*
G01*
X929766Y764689D02*
G03*
X929766Y748788I16149J-7950D01*
G01*
X962064D02*
G03*
X962064Y764689I-16149J7950D01*
G01*
X1117565Y465888D02*
G03*
X1117565Y465888I-1000J0D01*
G01*
X935665Y289478D02*
G03*
X935665Y289478I-1000J0D01*
G01*
X951165Y289728D02*
G03*
X951165Y289728I-1000J0D01*
G01*
X920165D02*
G03*
X920165Y289728I-1000J0D01*
G01*
X1082905Y319238D02*
G03*
X1082905Y319238I-1000J0D01*
G01*
X1082655Y353238D02*
G03*
X1082655Y353238I-1000J0D01*
G01*
X1082905Y278488D02*
G03*
X1082905Y278488I-1000J0D01*
G01*
Y298988D02*
G03*
X1082905Y298988I-1000J0D01*
G01*
X1060165Y747988D02*
G03*
X1060165Y747988I-1000J0D01*
G01*
X1143415Y746488D02*
G03*
X1143415Y746488I-1000J0D01*
G01*
X943665Y526238D02*
G03*
X943665Y526238I-1000J0D01*
G01*
X1476900Y598000D02*
G03*
X1476900Y598000I-1000J0D01*
G01*
X1695150Y570000D02*
G03*
X1695150Y570000I-1000J0D01*
G01*
X1540750Y353250D02*
G03*
X1540750Y353250I-1000J0D01*
G01*
X1536850Y552900D02*
G03*
X1536850Y552900I-1000J0D01*
G01*
X1753670Y540950D02*
G03*
X1753670Y540950I-1000J0D01*
G01*
X1628170Y338400D02*
G03*
X1628170Y338400I-1000J0D01*
G01*
X1510550Y461351D02*
G03*
X1526450Y461351I7950J16149D01*
G01*
Y493649D02*
G03*
X1510550Y493649I-7950J-16149D01*
G01*
X1583399Y458050D02*
G03*
X1583399Y473950I-16149J7950D01*
G01*
X1551101D02*
G03*
X1551101Y458050I16149J-7950D01*
G01*
X1583149Y476300D02*
G03*
X1583149Y492200I-16149J7950D01*
G01*
X1550851D02*
G03*
X1550851Y476300I16149J-7950D01*
G01*
X1467899Y532050D02*
G03*
X1467899Y547950I-16149J7950D01*
G01*
X1435601D02*
G03*
X1435601Y532050I16149J-7950D01*
G01*
X1550851Y510200D02*
G03*
X1550851Y494300I16149J-7950D01*
G01*
X1583149D02*
G03*
X1583149Y510200I-16149J7950D01*
G01*
X1582399Y548550D02*
G03*
X1582399Y564450I-16149J7950D01*
G01*
X1550101D02*
G03*
X1550101Y548550I16149J-7950D01*
G01*
X1582399Y530300D02*
G03*
X1582399Y546200I-16149J7950D01*
G01*
X1550101D02*
G03*
X1550101Y530300I16149J-7950D01*
G01*
X1435851Y511200D02*
G03*
X1435851Y495300I16149J-7950D01*
G01*
X1468149D02*
G03*
X1468149Y511200I-16149J7950D01*
G01*
X1742950Y484399D02*
G03*
X1727050Y484399I-7950J-16149D01*
G01*
Y452101D02*
G03*
X1742950Y452101I7950J16149D01*
G01*
X1766851Y462950D02*
G03*
X1766851Y447050I16149J-7950D01*
G01*
X1799149D02*
G03*
X1799149Y462950I-16149J7950D01*
G01*
X1766851Y481700D02*
G03*
X1766851Y465800I16149J-7950D01*
G01*
X1799149D02*
G03*
X1799149Y481700I-16149J7950D01*
G01*
X1652601Y531950D02*
G03*
X1652601Y516050I16149J-7950D01*
G01*
X1684899D02*
G03*
X1684899Y531950I-16149J7950D01*
G01*
X1799399Y484550D02*
G03*
X1799399Y500450I-16149J7950D01*
G01*
X1767101D02*
G03*
X1767101Y484550I16149J-7950D01*
G01*
X1767351Y556450D02*
G03*
X1767351Y540550I16149J-7950D01*
G01*
X1799649D02*
G03*
X1799649Y556450I-16149J7950D01*
G01*
X1767101Y537950D02*
G03*
X1767101Y522050I16149J-7950D01*
G01*
X1799399D02*
G03*
X1799399Y537950I-16149J7950D01*
G01*
X1685399Y479050D02*
G03*
X1685399Y494950I-16149J7950D01*
G01*
X1653101D02*
G03*
X1653101Y479050I16149J-7950D01*
G01*
X1637800Y258601D02*
G03*
X1653700Y258601I7950J16149D01*
G01*
Y290899D02*
G03*
X1637800Y290899I-7950J-16149D01*
G01*
X1674800Y258601D02*
G03*
X1690700Y258601I7950J16149D01*
G01*
Y290899D02*
G03*
X1674800Y290899I-7950J-16149D01*
G01*
X1742399Y270050D02*
G03*
X1742399Y285950I-16149J7950D01*
G01*
X1710101D02*
G03*
X1710101Y270050I16149J-7950D01*
G01*
X1498851Y315200D02*
G03*
X1498851Y299300I16149J-7950D01*
G01*
X1531149D02*
G03*
X1531149Y315200I-16149J7950D01*
G01*
X1709851Y304450D02*
G03*
X1709851Y288550I16149J-7950D01*
G01*
X1742149D02*
G03*
X1742149Y304450I-16149J7950D01*
G01*
X1821200Y341899D02*
G03*
X1805300Y341899I-7950J-16149D01*
G01*
Y309601D02*
G03*
X1821200Y309601I7950J16149D01*
G01*
X1741899Y349300D02*
G03*
X1741899Y365200I-16149J7950D01*
G01*
X1709601D02*
G03*
X1709601Y349300I16149J-7950D01*
G01*
X1741899Y328550D02*
G03*
X1741899Y344450I-16149J7950D01*
G01*
X1709601D02*
G03*
X1709601Y328550I16149J-7950D01*
G01*
X1531149Y261800D02*
G03*
X1531149Y277700I-16149J7950D01*
G01*
X1498851D02*
G03*
X1498851Y261800I16149J-7950D01*
G01*
X1802550Y266601D02*
G03*
X1818450Y266601I7950J16149D01*
G01*
Y298899D02*
G03*
X1802550Y298899I-7950J-16149D01*
G01*
X1823000Y335500D02*
G03*
X1823000Y335500I-1000J0D01*
G01*
X1839050Y630851D02*
G03*
X1854950Y630851I7950J16149D01*
G01*
Y663149D02*
G03*
X1839050Y663149I-7950J-16149D01*
G01*
X1533950Y434899D02*
G03*
X1518050Y434899I-7950J-16149D01*
G01*
Y402601D02*
G03*
X1533950Y402601I7950J16149D01*
G01*
X495300Y316351D02*
G03*
X511200Y316351I7950J16149D01*
G01*
Y348649D02*
G03*
X495300Y348649I-7950J-16149D01*
G01*
X380550Y474351D02*
G03*
X396450Y474351I7950J16149D01*
G01*
Y506649D02*
G03*
X380550Y506649I-7950J-16149D01*
G01*
X380300Y519101D02*
G03*
X396200Y519101I7950J16149D01*
G01*
Y551399D02*
G03*
X380300Y551399I-7950J-16149D01*
G01*
X380550Y429601D02*
G03*
X396450Y429601I7950J16149D01*
G01*
Y461899D02*
G03*
X380550Y461899I-7950J-16149D01*
G01*
X379800Y563101D02*
G03*
X395700Y563101I7950J16149D01*
G01*
Y595399D02*
G03*
X379800Y595399I-7950J-16149D01*
G01*
X529351Y765700D02*
G03*
X529351Y749800I16149J-7950D01*
G01*
X561649D02*
G03*
X561649Y765700I-16149J7950D01*
G01*
X600149Y750050D02*
G03*
X600149Y765950I-16149J7950D01*
G01*
X567851D02*
G03*
X567851Y750050I16149J-7950D01*
G01*
X677000Y345250D02*
G03*
X677000Y345250I-1000J0D01*
G01*
X603200Y382149D02*
G03*
X587300Y382149I-7950J-16149D01*
G01*
Y349851D02*
G03*
X603200Y349851I7950J16149D01*
G01*
X642800Y350101D02*
G03*
X658700Y350101I7950J16149D01*
G01*
Y382399D02*
G03*
X642800Y382399I-7950J-16149D01*
G01*
X640200Y382149D02*
G03*
X624300Y382149I-7950J-16149D01*
G01*
Y349851D02*
G03*
X640200Y349851I7950J16149D01*
G01*
X621700Y381899D02*
G03*
X605800Y381899I-7950J-16149D01*
G01*
Y349601D02*
G03*
X621700Y349601I7950J16149D01*
G01*
X414649Y342300D02*
G03*
X414649Y358200I-16149J7950D01*
G01*
X382351D02*
G03*
X382351Y342300I16149J-7950D01*
G01*
X406351Y395950D02*
G03*
X406351Y380050I16149J-7950D01*
G01*
X438649D02*
G03*
X438649Y395950I-16149J7950D01*
G01*
X420851Y376700D02*
G03*
X420851Y360800I16149J-7950D01*
G01*
X453149D02*
G03*
X453149Y376700I-16149J7950D01*
G01*
X453149Y342550D02*
G03*
X453149Y358450I-16149J7950D01*
G01*
X420851D02*
G03*
X420851Y342550I16149J-7950D01*
G01*
X549200Y348149D02*
G03*
X533300Y348149I-7950J-16149D01*
G01*
Y315851D02*
G03*
X549200Y315851I7950J16149D01*
G01*
X530200Y348399D02*
G03*
X514300Y348399I-7950J-16149D01*
G01*
Y316101D02*
G03*
X530200Y316101I7950J16149D01*
G01*
X568200Y348399D02*
G03*
X552300Y348399I-7950J-16149D01*
G01*
Y316101D02*
G03*
X568200Y316101I7950J16149D01*
G01*
X416149Y611550D02*
G03*
X416149Y627450I-16149J7950D01*
G01*
X383851D02*
G03*
X383851Y611550I16149J-7950D01*
G01*
X437700Y624649D02*
G03*
X421800Y624649I-7950J-16149D01*
G01*
Y592351D02*
G03*
X437700Y592351I7950J16149D01*
G01*
X492700Y623649D02*
G03*
X476800Y623649I-7950J-16149D01*
G01*
Y591351D02*
G03*
X492700Y591351I7950J16149D01*
G01*
X511700Y623899D02*
G03*
X495800Y623899I-7950J-16149D01*
G01*
Y591601D02*
G03*
X511700Y591601I7950J16149D01*
G01*
X1124415Y425738D02*
X1140415D01*
X1124415D02*
Y459738D01*
X1140415D01*
Y425738D02*
Y459738D01*
X1182415Y425738D02*
X1198415D01*
X1182415D02*
Y459738D01*
X1198415D01*
Y425738D02*
Y459738D01*
X1090165Y345488D02*
Y361488D01*
Y345488D02*
X1124165D01*
Y361488D01*
X1090165D02*
X1124165D01*
X1089915Y327238D02*
Y343238D01*
Y327238D02*
X1123915D01*
Y343238D01*
X1089915D02*
X1123915D01*
X1089915Y309238D02*
Y325238D01*
Y309238D02*
X1123915D01*
Y325238D01*
X1089915D02*
X1123915D01*
X1089665Y271238D02*
Y287238D01*
Y271238D02*
X1123665D01*
Y287238D01*
X1089665D02*
X1123665D01*
X1089665Y289738D02*
Y305738D01*
Y289738D02*
X1123665D01*
Y305738D01*
X1089665D02*
X1123665D01*
X917415Y631988D02*
X933415D01*
X917415D02*
Y665988D01*
X933415D01*
Y631988D02*
Y665988D01*
X899415Y631988D02*
X915415D01*
X899415D02*
Y665988D01*
X915415D01*
Y631988D02*
Y665988D01*
X881415Y631988D02*
X897415D01*
X881415D02*
Y665988D01*
X897415D01*
Y631988D02*
Y665988D01*
X917665Y595488D02*
X933665D01*
X917665D02*
Y629488D01*
X933665D01*
Y595488D02*
Y629488D01*
X899415Y595738D02*
X915415D01*
X899415D02*
Y629738D01*
X915415D01*
Y595738D02*
Y629738D01*
X881415Y595738D02*
X897415D01*
X881415D02*
Y629738D01*
X897415D01*
Y595738D02*
Y629738D01*
X878165Y557988D02*
Y591988D01*
Y557988D02*
X894165D01*
Y591988D01*
X878165D02*
X894165D01*
X1071915Y593488D02*
X1105915D01*
Y609488D01*
X1071915D02*
X1105915D01*
X1071915Y593488D02*
Y609488D01*
X983665Y436988D02*
Y470988D01*
Y436988D02*
X999665D01*
Y470988D01*
X983665D02*
X999665D01*
X892915Y487738D02*
X926915D01*
X892915Y471738D02*
Y487738D01*
Y471738D02*
X926915D01*
Y487738D01*
X949665Y366988D02*
Y400988D01*
X965665D01*
Y366988D02*
Y400988D01*
X949665Y366988D02*
X965665D01*
X931415Y367238D02*
Y401238D01*
X947415D01*
Y367238D02*
Y401238D01*
X931415Y367238D02*
X947415D01*
X913165Y366738D02*
Y400738D01*
X929165D01*
Y366738D02*
Y400738D01*
X913165Y366738D02*
X929165D01*
X894415Y366488D02*
Y400488D01*
X910415D01*
Y366488D02*
Y400488D01*
X894415Y366488D02*
X910415D01*
X940415Y436488D02*
Y470488D01*
Y436488D02*
X956415D01*
Y470488D01*
X940415D02*
X956415D01*
X984165Y623488D02*
X1018165D01*
Y639488D01*
X984165D02*
X1018165D01*
X984165Y623488D02*
Y639488D01*
Y642238D02*
X1018165D01*
Y658238D01*
X984165D02*
X1018165D01*
X984165Y642238D02*
Y658238D01*
X983915Y660738D02*
X1017915D01*
Y676738D01*
X983915D02*
X1017915D01*
X983915Y660738D02*
Y676738D01*
X1158915Y535488D02*
X1190915D01*
X1158915Y551488D02*
X1190915D01*
X1158415Y532738D02*
X1190415D01*
X1158415Y516738D02*
X1190415D01*
X1021665Y622738D02*
Y654738D01*
X1037665Y622738D02*
Y654738D01*
X1055915Y622988D02*
Y654988D01*
X1039915Y622988D02*
Y654988D01*
X1005415Y437738D02*
Y469738D01*
X1021415Y437738D02*
Y469738D01*
X1066915Y490488D02*
X1098915D01*
X1066915Y506488D02*
X1098915D01*
X1092415Y622488D02*
Y654488D01*
X1076415Y622488D02*
Y654488D01*
X1074165Y622738D02*
Y654738D01*
X1058165Y622738D02*
Y654738D01*
X1042165Y437988D02*
Y469988D01*
X1058165Y437988D02*
Y469988D01*
X1039415Y437988D02*
Y469988D01*
X1023415Y437988D02*
Y469988D01*
X1074665Y668488D02*
Y700488D01*
X1058665Y668488D02*
Y700488D01*
X1094165Y666988D02*
Y698988D01*
X1078165Y666988D02*
Y698988D01*
X1112415Y666988D02*
Y698988D01*
X1096415Y666988D02*
Y698988D01*
X998415Y722738D02*
Y754738D01*
X1014415Y722738D02*
Y754738D01*
X1037165Y679988D02*
Y711988D01*
X1021165Y679988D02*
Y711988D01*
X1106415Y719988D02*
Y751988D01*
X1122415Y719988D02*
Y751988D01*
X1039165Y679988D02*
Y711988D01*
X1055165Y679988D02*
Y711988D01*
X1151915Y678988D02*
Y710988D01*
X1135915Y678988D02*
Y710988D01*
X1155415Y678238D02*
Y710238D01*
X1171415Y678238D02*
Y710238D01*
X1067665Y470988D02*
X1099665D01*
X1067665Y486988D02*
X1099665D01*
X891165Y574488D02*
X923165D01*
X891165Y590488D02*
X923165D01*
X891165Y559238D02*
X923165D01*
X891165Y575238D02*
X923165D01*
X893915Y503738D02*
X925915D01*
X893915Y519738D02*
X925915D01*
X893915Y503238D02*
X925915D01*
X893915Y487238D02*
X925915D01*
X907665Y409738D02*
Y441738D01*
X891665Y409738D02*
Y441738D01*
X1095165Y622238D02*
Y654238D01*
X1111165Y622238D02*
Y654238D01*
X929665Y691988D02*
X961665D01*
X929665Y707988D02*
X961665D01*
X929665Y730238D02*
X961665D01*
X929665Y746238D02*
X961665D01*
X929665Y767488D02*
X961665D01*
X929665Y783488D02*
X961665D01*
X921915Y437488D02*
Y469488D01*
X937915Y437488D02*
Y469488D01*
X962415Y437988D02*
Y469988D01*
X978415Y437988D02*
Y469988D01*
X929665Y673488D02*
X961665D01*
X929665Y689488D02*
X961665D01*
X929665Y711488D02*
X961665D01*
X929665Y727488D02*
X961665D01*
X929915Y748738D02*
X961915D01*
X929915Y764738D02*
X961915D01*
X1530000Y460000D02*
X1546000D01*
X1530000D02*
Y494000D01*
X1546000D01*
Y460000D02*
Y494000D01*
X1435000Y550250D02*
Y566250D01*
X1469000D01*
Y550250D02*
Y566250D01*
X1435000Y550250D02*
X1469000D01*
X1434750Y513750D02*
Y529750D01*
X1468750D01*
Y513750D02*
Y529750D01*
X1434750Y513750D02*
X1468750D01*
X1549250Y620750D02*
X1565250D01*
Y586750D02*
Y620750D01*
X1549250Y586750D02*
X1565250D01*
X1549250D02*
Y620750D01*
X1589000Y509750D02*
X1605000D01*
Y475750D02*
Y509750D01*
X1589000Y475750D02*
X1605000D01*
X1589000D02*
Y509750D01*
X1549500Y512500D02*
Y528500D01*
X1583500D01*
Y512500D02*
Y528500D01*
X1549500Y512500D02*
X1583500D01*
X1548500Y566250D02*
Y582250D01*
X1582500D01*
Y566250D02*
Y582250D01*
X1548500Y566250D02*
X1582500D01*
X1762500Y451250D02*
Y485250D01*
X1746500D02*
X1762500D01*
X1746500Y451250D02*
Y485250D01*
Y451250D02*
X1762500D01*
X1652250Y534750D02*
X1686250D01*
Y550750D01*
X1652250D02*
X1686250D01*
X1652250Y534750D02*
Y550750D01*
Y497750D02*
X1686250D01*
Y513750D01*
X1652250D02*
X1686250D01*
X1652250Y497750D02*
Y513750D01*
X1766000Y578750D02*
Y612750D01*
Y578750D02*
X1782000D01*
Y612750D01*
X1766000D02*
X1782000D01*
X1804250Y466500D02*
Y500500D01*
Y466500D02*
X1820250D01*
Y500500D01*
X1804250D02*
X1820250D01*
X1766750Y503500D02*
X1800750D01*
Y519500D01*
X1766750D02*
X1800750D01*
X1766750Y503500D02*
Y519500D01*
X1766250Y559500D02*
X1800250D01*
Y575500D01*
X1766250D02*
X1800250D01*
X1766250Y559500D02*
Y575500D01*
X1656250Y257250D02*
X1672250D01*
X1656250D02*
Y291250D01*
X1672250D01*
Y257250D02*
Y291250D01*
X1498750Y317750D02*
X1532750D01*
Y333750D01*
X1498750D02*
X1532750D01*
X1498750Y317750D02*
Y333750D01*
X1498250Y280500D02*
X1532250D01*
Y296500D01*
X1498250D02*
X1532250D01*
X1498250Y280500D02*
Y296500D01*
X1708000Y387000D02*
X1742000D01*
Y403000D01*
X1708000D02*
X1742000D01*
X1708000Y387000D02*
Y403000D01*
X1747250Y288500D02*
Y304500D01*
X1781250D01*
Y288500D02*
Y304500D01*
X1747250Y288500D02*
X1781250D01*
X1708000Y308250D02*
Y324250D01*
X1742000D01*
Y308250D02*
Y324250D01*
X1708000Y308250D02*
X1742000D01*
X1708250Y368000D02*
X1742250D01*
Y384000D01*
X1708250D02*
X1742250D01*
X1708250Y368000D02*
Y384000D01*
X1560250Y699750D02*
Y715750D01*
X1594250D01*
Y699750D02*
Y715750D01*
X1560250Y699750D02*
X1594250D01*
X1561000Y750000D02*
Y766000D01*
X1595000D01*
Y750000D02*
Y766000D01*
X1561000Y750000D02*
X1595000D01*
X1510500Y461500D02*
Y493500D01*
X1526500Y461500D02*
Y493500D01*
X1551250Y458000D02*
X1583250D01*
X1551250Y474000D02*
X1583250D01*
X1551000Y476250D02*
X1583000D01*
X1551000Y492250D02*
X1583000D01*
X1435750Y532000D02*
X1467750D01*
X1435750Y548000D02*
X1467750D01*
X1551000Y510250D02*
X1583000D01*
X1551000Y494250D02*
X1583000D01*
X1550250Y548500D02*
X1582250D01*
X1550250Y564500D02*
X1582250D01*
X1550250Y530250D02*
X1582250D01*
X1550250Y546250D02*
X1582250D01*
X1436000Y511250D02*
X1468000D01*
X1436000Y495250D02*
X1468000D01*
X1743000Y452250D02*
Y484250D01*
X1727000Y452250D02*
Y484250D01*
X1767000Y463000D02*
X1799000D01*
X1767000Y447000D02*
X1799000D01*
X1767000Y481750D02*
X1799000D01*
X1767000Y465750D02*
X1799000D01*
X1652750Y532000D02*
X1684750D01*
X1652750Y516000D02*
X1684750D01*
X1767250Y484500D02*
X1799250D01*
X1767250Y500500D02*
X1799250D01*
X1767500Y556500D02*
X1799500D01*
X1767500Y540500D02*
X1799500D01*
X1767250Y538000D02*
X1799250D01*
X1767250Y522000D02*
X1799250D01*
X1653250Y479000D02*
X1685250D01*
X1653250Y495000D02*
X1685250D01*
X1637750Y258750D02*
Y290750D01*
X1653750Y258750D02*
Y290750D01*
X1674750Y258750D02*
Y290750D01*
X1690750Y258750D02*
Y290750D01*
X1710250Y270000D02*
X1742250D01*
X1710250Y286000D02*
X1742250D01*
X1499000Y315250D02*
X1531000D01*
X1499000Y299250D02*
X1531000D01*
X1710000Y304500D02*
X1742000D01*
X1710000Y288500D02*
X1742000D01*
X1821250Y309750D02*
Y341750D01*
X1805250Y309750D02*
Y341750D01*
X1709750Y349250D02*
X1741750D01*
X1709750Y365250D02*
X1741750D01*
X1709750Y328500D02*
X1741750D01*
X1709750Y344500D02*
X1741750D01*
X1499000Y261750D02*
X1531000D01*
X1499000Y277750D02*
X1531000D01*
X1802500Y266750D02*
Y298750D01*
X1818500Y266750D02*
Y298750D01*
X1839000Y631000D02*
Y663000D01*
X1855000Y631000D02*
Y663000D01*
X1534000Y402750D02*
Y434750D01*
X1518000Y402750D02*
Y434750D01*
X495250Y316500D02*
Y348500D01*
X511250Y316500D02*
Y348500D01*
X380500Y474500D02*
Y506500D01*
X396500Y474500D02*
Y506500D01*
X380250Y519250D02*
Y551250D01*
X396250Y519250D02*
Y551250D01*
X380500Y429750D02*
Y461750D01*
X396500Y429750D02*
Y461750D01*
X379750Y563250D02*
Y595250D01*
X395750Y563250D02*
Y595250D01*
X529500Y765750D02*
X561500D01*
X529500Y749750D02*
X561500D01*
X568000Y750000D02*
X600000D01*
X568000Y766000D02*
X600000D01*
X545750Y729250D02*
X579750D01*
X545750Y713250D02*
Y729250D01*
Y713250D02*
X579750D01*
Y729250D01*
X582750Y713750D02*
Y747750D01*
Y713750D02*
X598750D01*
Y747750D01*
X582750D02*
X598750D01*
X603250Y350000D02*
Y382000D01*
X587250Y350000D02*
Y382000D01*
X642750Y350250D02*
Y382250D01*
X658750Y350250D02*
Y382250D01*
X640250Y350000D02*
Y382000D01*
X624250Y350000D02*
Y382000D01*
X621750Y349750D02*
Y381750D01*
X605750Y349750D02*
Y381750D01*
X382500Y342250D02*
X414500D01*
X382500Y358250D02*
X414500D01*
X406500Y380000D02*
X438500D01*
X406500Y396000D02*
X438500D01*
X421000Y376750D02*
X453000D01*
X421000Y360750D02*
X453000D01*
X421000Y342500D02*
X453000D01*
X421000Y358500D02*
X453000D01*
X382000Y361000D02*
Y377000D01*
X416000D01*
Y361000D02*
Y377000D01*
X382000Y361000D02*
X416000D01*
X686500Y653250D02*
X702500D01*
Y619250D02*
Y653250D01*
X686500Y619250D02*
X702500D01*
X686500D02*
Y653250D01*
X587750Y652500D02*
X603750D01*
Y618500D02*
Y652500D01*
X587750Y618500D02*
X603750D01*
X587750D02*
Y652500D01*
X586000Y483500D02*
X602000D01*
Y449500D02*
Y483500D01*
X586000Y449500D02*
X602000D01*
X586000D02*
Y483500D01*
X688250Y483250D02*
X704250D01*
Y449250D02*
Y483250D01*
X688250Y449250D02*
X704250D01*
X688250D02*
Y483250D01*
X549250Y316000D02*
Y348000D01*
X533250Y316000D02*
Y348000D01*
X530250Y316250D02*
Y348250D01*
X514250Y316250D02*
Y348250D01*
X568250Y316250D02*
Y348250D01*
X552250Y316250D02*
Y348250D01*
X384000Y611500D02*
X416000D01*
X384000Y627500D02*
X416000D01*
X437750Y592500D02*
Y624500D01*
X421750Y592500D02*
Y624500D01*
X492750Y591500D02*
Y623500D01*
X476750Y591500D02*
Y623500D01*
X457000Y590750D02*
X473000D01*
X457000D02*
Y624750D01*
X473000D01*
Y590750D02*
Y624750D01*
X511750Y591750D02*
Y623750D01*
X495750Y591750D02*
Y623750D01*
X400500Y400000D02*
Y416000D01*
X434500D01*
Y400000D02*
Y416000D01*
X400500Y400000D02*
X434500D01*
X400250Y444000D02*
Y460000D01*
X434250D01*
Y444000D02*
Y460000D01*
X400250Y444000D02*
X434250D01*
D11*
X1504832Y470420D02*
X1506165Y469087D01*
Y466421D01*
X1504832Y465088D01*
X1499501D01*
X1498168Y466421D01*
Y469087D01*
X1499501Y470420D01*
X1504832Y473086D02*
X1506165Y474418D01*
Y477084D01*
X1504832Y478417D01*
X1503499D01*
X1502166Y477084D01*
X1500833Y478417D01*
X1499501D01*
X1498168Y477084D01*
Y474418D01*
X1499501Y473086D01*
X1500833D01*
X1502166Y474418D01*
X1503499Y473086D01*
X1504832D01*
X1502166Y474418D02*
Y477084D01*
X1496835Y481083D02*
Y486414D01*
X1498168Y494412D02*
Y489080D01*
X1503499Y494412D01*
X1504832D01*
X1506165Y493079D01*
Y490413D01*
X1504832Y489080D01*
X1430830Y562332D02*
X1432163Y563665D01*
X1434829D01*
X1436162Y562332D01*
Y557001D01*
X1434829Y555668D01*
X1432163D01*
X1430830Y557001D01*
X1428165D02*
X1426832Y555668D01*
X1424166D01*
X1422833Y557001D01*
Y562332D01*
X1424166Y563665D01*
X1426832D01*
X1428165Y562332D01*
Y560999D01*
X1426832Y559666D01*
X1422833D01*
X1420167Y554335D02*
X1414836D01*
X1406838Y555668D02*
X1412170D01*
X1406838Y560999D01*
Y562332D01*
X1408171Y563665D01*
X1410837D01*
X1412170Y562332D01*
X1432663Y526082D02*
X1433996Y527415D01*
X1436661D01*
X1437994Y526082D01*
Y520751D01*
X1436661Y519418D01*
X1433996D01*
X1432663Y520751D01*
X1429997Y519418D02*
X1427331D01*
X1428664D01*
Y527415D01*
X1429997Y526082D01*
X1423332D02*
X1421999Y527415D01*
X1419333D01*
X1418001Y526082D01*
Y520751D01*
X1419333Y519418D01*
X1421999D01*
X1423332Y520751D01*
Y526082D01*
X1415335Y518085D02*
X1410003D01*
X1402006Y519418D02*
X1407337D01*
X1402006Y524749D01*
Y526082D01*
X1403339Y527415D01*
X1406004D01*
X1407337Y526082D01*
X1577082Y594254D02*
X1578415Y592921D01*
Y590255D01*
X1577082Y588922D01*
X1571751D01*
X1570418Y590255D01*
Y592921D01*
X1571751Y594254D01*
X1570418Y596920D02*
Y599585D01*
Y598253D01*
X1578415D01*
X1577082Y596920D01*
X1570418Y603584D02*
Y606250D01*
Y604917D01*
X1578415D01*
X1577082Y603584D01*
X1569085Y610249D02*
Y615580D01*
X1570418Y623578D02*
Y618246D01*
X1575749Y623578D01*
X1577082D01*
X1578415Y622245D01*
Y619579D01*
X1577082Y618246D01*
X1613163Y466832D02*
X1614496Y468165D01*
X1617161D01*
X1618494Y466832D01*
Y461501D01*
X1617161Y460168D01*
X1614496D01*
X1613163Y461501D01*
X1610497Y460168D02*
X1607831D01*
X1609164D01*
Y468165D01*
X1610497Y466832D01*
X1598501Y460168D02*
X1603832D01*
X1598501Y465499D01*
Y466832D01*
X1599834Y468165D01*
X1602499D01*
X1603832Y466832D01*
X1595835Y458835D02*
X1590503D01*
X1582506Y460168D02*
X1587837D01*
X1582506Y465499D01*
Y466832D01*
X1583839Y468165D01*
X1586505D01*
X1587837Y466832D01*
X1611163Y523832D02*
X1612496Y525165D01*
X1615161D01*
X1616494Y523832D01*
Y518501D01*
X1615161Y517168D01*
X1612496D01*
X1611163Y518501D01*
X1608497Y517168D02*
X1605831D01*
X1607164D01*
Y525165D01*
X1608497Y523832D01*
X1601832D02*
X1600499Y525165D01*
X1597834D01*
X1596501Y523832D01*
Y522499D01*
X1597834Y521166D01*
X1599166D01*
X1597834D01*
X1596501Y519834D01*
Y518501D01*
X1597834Y517168D01*
X1600499D01*
X1601832Y518501D01*
X1593835Y515835D02*
X1588503D01*
X1580506Y517168D02*
X1585837D01*
X1580506Y522499D01*
Y523832D01*
X1581839Y525165D01*
X1584505D01*
X1585837Y523832D01*
X1610163Y578582D02*
X1611496Y579915D01*
X1614161D01*
X1615494Y578582D01*
Y573251D01*
X1614161Y571918D01*
X1611496D01*
X1610163Y573251D01*
X1607497Y571918D02*
X1604831D01*
X1606164D01*
Y579915D01*
X1607497Y578582D01*
X1596833Y571918D02*
Y579915D01*
X1600832Y575916D01*
X1595501D01*
X1592835Y570585D02*
X1587503D01*
X1579506Y571918D02*
X1584837D01*
X1579506Y577249D01*
Y578582D01*
X1580839Y579915D01*
X1583504D01*
X1584837Y578582D01*
X1764913Y446082D02*
X1766246Y447415D01*
X1768911D01*
X1770244Y446082D01*
Y440751D01*
X1768911Y439418D01*
X1766246D01*
X1764913Y440751D01*
X1762247Y439418D02*
X1759581D01*
X1760914D01*
Y447415D01*
X1762247Y446082D01*
X1750251Y447415D02*
X1755582D01*
Y443416D01*
X1752916Y444749D01*
X1751584D01*
X1750251Y443416D01*
Y440751D01*
X1751584Y439418D01*
X1754249D01*
X1755582Y440751D01*
X1747585Y438085D02*
X1742253D01*
X1734256Y439418D02*
X1739587D01*
X1734256Y444749D01*
Y446082D01*
X1735589Y447415D01*
X1738255D01*
X1739587Y446082D01*
X1649663Y547082D02*
X1650995Y548415D01*
X1653661D01*
X1654994Y547082D01*
Y541751D01*
X1653661Y540418D01*
X1650995D01*
X1649663Y541751D01*
X1646997Y540418D02*
X1644331D01*
X1645664D01*
Y548415D01*
X1646997Y547082D01*
X1635001Y548415D02*
X1637666Y547082D01*
X1640332Y544416D01*
Y541751D01*
X1638999Y540418D01*
X1636333D01*
X1635001Y541751D01*
Y543083D01*
X1636333Y544416D01*
X1640332D01*
X1632335Y539085D02*
X1627003D01*
X1619006Y540418D02*
X1624337D01*
X1619006Y545749D01*
Y547082D01*
X1620339Y548415D01*
X1623004D01*
X1624337Y547082D01*
X1648163Y510332D02*
X1649496Y511665D01*
X1652161D01*
X1653494Y510332D01*
Y505001D01*
X1652161Y503668D01*
X1649496D01*
X1648163Y505001D01*
X1645497Y503668D02*
X1642831D01*
X1644164D01*
Y511665D01*
X1645497Y510332D01*
X1638832Y511665D02*
X1633501D01*
Y510332D01*
X1638832Y505001D01*
Y503668D01*
X1630835Y502335D02*
X1625503D01*
X1617506Y503668D02*
X1622837D01*
X1617506Y508999D01*
Y510332D01*
X1618839Y511665D01*
X1621505D01*
X1622837Y510332D01*
X1793832Y585337D02*
X1795165Y584004D01*
Y581339D01*
X1793832Y580006D01*
X1788501D01*
X1787168Y581339D01*
Y584004D01*
X1788501Y585337D01*
X1787168Y588003D02*
Y590669D01*
Y589336D01*
X1795165D01*
X1793832Y588003D01*
Y594668D02*
X1795165Y596001D01*
Y598666D01*
X1793832Y599999D01*
X1792499D01*
X1791167Y598666D01*
X1789834Y599999D01*
X1788501D01*
X1787168Y598666D01*
Y596001D01*
X1788501Y594668D01*
X1789834D01*
X1791167Y596001D01*
X1792499Y594668D01*
X1793832D01*
X1791167Y596001D02*
Y598666D01*
X1785835Y602665D02*
Y607997D01*
X1787168Y615994D02*
Y610662D01*
X1792499Y615994D01*
X1793832D01*
X1795165Y614661D01*
Y611995D01*
X1793832Y610662D01*
X1828163Y461332D02*
X1829496Y462665D01*
X1832161D01*
X1833494Y461332D01*
Y456001D01*
X1832161Y454668D01*
X1829496D01*
X1828163Y456001D01*
X1825497Y454668D02*
X1822831D01*
X1824164D01*
Y462665D01*
X1825497Y461332D01*
X1818832Y456001D02*
X1817499Y454668D01*
X1814834D01*
X1813501Y456001D01*
Y461332D01*
X1814834Y462665D01*
X1817499D01*
X1818832Y461332D01*
Y459999D01*
X1817499Y458666D01*
X1813501D01*
X1810835Y453335D02*
X1805503D01*
X1797506Y454668D02*
X1802837D01*
X1797506Y459999D01*
Y461332D01*
X1798839Y462665D01*
X1801505D01*
X1802837Y461332D01*
X1829579Y514082D02*
X1830912Y515415D01*
X1833578D01*
X1834911Y514082D01*
Y508751D01*
X1833578Y507418D01*
X1830912D01*
X1829579Y508751D01*
X1821582Y507418D02*
X1826913D01*
X1821582Y512749D01*
Y514082D01*
X1822914Y515415D01*
X1825580D01*
X1826913Y514082D01*
X1818916D02*
X1817583Y515415D01*
X1814917D01*
X1813584Y514082D01*
Y508751D01*
X1814917Y507418D01*
X1817583D01*
X1818916Y508751D01*
Y514082D01*
X1810918Y506085D02*
X1805587D01*
X1797589Y507418D02*
X1802921D01*
X1797589Y512749D01*
Y514082D01*
X1798922Y515415D01*
X1801588D01*
X1802921Y514082D01*
X1827413Y572082D02*
X1828746Y573415D01*
X1831411D01*
X1832744Y572082D01*
Y566751D01*
X1831411Y565418D01*
X1828746D01*
X1827413Y566751D01*
X1819415Y565418D02*
X1824747D01*
X1819415Y570749D01*
Y572082D01*
X1820748Y573415D01*
X1823414D01*
X1824747Y572082D01*
X1816749Y565418D02*
X1814084D01*
X1815416D01*
Y573415D01*
X1816749Y572082D01*
X1810085Y564085D02*
X1804753D01*
X1796756Y565418D02*
X1802087D01*
X1796756Y570749D01*
Y572082D01*
X1798089Y573415D01*
X1800755D01*
X1802087Y572082D01*
X1668582Y294171D02*
X1669915Y292838D01*
Y290172D01*
X1668582Y288839D01*
X1663251D01*
X1661918Y290172D01*
Y292838D01*
X1663251Y294171D01*
X1661918Y302168D02*
Y296837D01*
X1667249Y302168D01*
X1668582D01*
X1669915Y300835D01*
Y298170D01*
X1668582Y296837D01*
X1661918Y310166D02*
Y304834D01*
X1667249Y310166D01*
X1668582D01*
X1669915Y308833D01*
Y306167D01*
X1668582Y304834D01*
X1660585Y312832D02*
Y318163D01*
X1661918Y326161D02*
Y320829D01*
X1667249Y326161D01*
X1668582D01*
X1669915Y324828D01*
Y322162D01*
X1668582Y320829D01*
X1497079Y329332D02*
X1498412Y330665D01*
X1501078D01*
X1502411Y329332D01*
Y324001D01*
X1501078Y322668D01*
X1498412D01*
X1497079Y324001D01*
X1489082Y322668D02*
X1494413D01*
X1489082Y327999D01*
Y329332D01*
X1490414Y330665D01*
X1493080D01*
X1494413Y329332D01*
X1486416D02*
X1485083Y330665D01*
X1482417D01*
X1481084Y329332D01*
Y327999D01*
X1482417Y326666D01*
X1483750D01*
X1482417D01*
X1481084Y325334D01*
Y324001D01*
X1482417Y322668D01*
X1485083D01*
X1486416Y324001D01*
X1478418Y321335D02*
X1473087D01*
X1465089Y322668D02*
X1470421D01*
X1465089Y327999D01*
Y329332D01*
X1466422Y330665D01*
X1469088D01*
X1470421Y329332D01*
X1496329Y291582D02*
X1497662Y292915D01*
X1500328D01*
X1501661Y291582D01*
Y286251D01*
X1500328Y284918D01*
X1497662D01*
X1496329Y286251D01*
X1488332Y284918D02*
X1493663D01*
X1488332Y290249D01*
Y291582D01*
X1489664Y292915D01*
X1492330D01*
X1493663Y291582D01*
X1481667Y284918D02*
Y292915D01*
X1485666Y288916D01*
X1480334D01*
X1477668Y283585D02*
X1472337D01*
X1464339Y284918D02*
X1469671D01*
X1464339Y290249D01*
Y291582D01*
X1465672Y292915D01*
X1468338D01*
X1469671Y291582D01*
X1773329Y395832D02*
X1774662Y397165D01*
X1777328D01*
X1778661Y395832D01*
Y390501D01*
X1777328Y389168D01*
X1774662D01*
X1773329Y390501D01*
X1765332Y389168D02*
X1770663D01*
X1765332Y394499D01*
Y395832D01*
X1766664Y397165D01*
X1769330D01*
X1770663Y395832D01*
X1757334Y397165D02*
X1762666D01*
Y393166D01*
X1760000Y394499D01*
X1758667D01*
X1757334Y393166D01*
Y390501D01*
X1758667Y389168D01*
X1761333D01*
X1762666Y390501D01*
X1754668Y387835D02*
X1749337D01*
X1741339Y389168D02*
X1746671D01*
X1741339Y394499D01*
Y395832D01*
X1742672Y397165D01*
X1745338D01*
X1746671Y395832D01*
X1793582Y283921D02*
X1794915Y282588D01*
Y279922D01*
X1793582Y278589D01*
X1788251D01*
X1786918Y279922D01*
Y282588D01*
X1788251Y283921D01*
X1786918Y291918D02*
Y286587D01*
X1792249Y291918D01*
X1793582D01*
X1794915Y290585D01*
Y287920D01*
X1793582Y286587D01*
X1794915Y299916D02*
X1793582Y297250D01*
X1790916Y294584D01*
X1788251D01*
X1786918Y295917D01*
Y298583D01*
X1788251Y299916D01*
X1789583D01*
X1790916Y298583D01*
Y294584D01*
X1785585Y302582D02*
Y307913D01*
X1786918Y315911D02*
Y310579D01*
X1792249Y315911D01*
X1793582D01*
X1794915Y314578D01*
Y311912D01*
X1793582Y310579D01*
X1773079Y319832D02*
X1774412Y321165D01*
X1777078D01*
X1778411Y319832D01*
Y314501D01*
X1777078Y313168D01*
X1774412D01*
X1773079Y314501D01*
X1765082Y313168D02*
X1770413D01*
X1765082Y318499D01*
Y319832D01*
X1766414Y321165D01*
X1769080D01*
X1770413Y319832D01*
X1762416Y321165D02*
X1757084D01*
Y319832D01*
X1762416Y314501D01*
Y313168D01*
X1754418Y311835D02*
X1749087D01*
X1741089Y313168D02*
X1746421D01*
X1741089Y318499D01*
Y319832D01*
X1742422Y321165D01*
X1745088D01*
X1746421Y319832D01*
X1788329Y378832D02*
X1789662Y380165D01*
X1792328D01*
X1793661Y378832D01*
Y373501D01*
X1792328Y372168D01*
X1789662D01*
X1788329Y373501D01*
X1780332Y372168D02*
X1785663D01*
X1780332Y377499D01*
Y378832D01*
X1781664Y380165D01*
X1784330D01*
X1785663Y378832D01*
X1777666D02*
X1776333Y380165D01*
X1773667D01*
X1772334Y378832D01*
Y377499D01*
X1773667Y376166D01*
X1772334Y374833D01*
Y373501D01*
X1773667Y372168D01*
X1776333D01*
X1777666Y373501D01*
Y374833D01*
X1776333Y376166D01*
X1777666Y377499D01*
Y378832D01*
X1776333Y376166D02*
X1773667D01*
X1769668Y370835D02*
X1764337D01*
X1756339Y372168D02*
X1761671D01*
X1756339Y377499D01*
Y378832D01*
X1757672Y380165D01*
X1760338D01*
X1761671Y378832D01*
X1558329Y710332D02*
X1559662Y711665D01*
X1562328D01*
X1563661Y710332D01*
Y705001D01*
X1562328Y703668D01*
X1559662D01*
X1558329Y705001D01*
X1550332Y703668D02*
X1555663D01*
X1550332Y708999D01*
Y710332D01*
X1551664Y711665D01*
X1554330D01*
X1555663Y710332D01*
X1547666Y705001D02*
X1546333Y703668D01*
X1543667D01*
X1542334Y705001D01*
Y710332D01*
X1543667Y711665D01*
X1546333D01*
X1547666Y710332D01*
Y708999D01*
X1546333Y707666D01*
X1542334D01*
X1539668Y702335D02*
X1534337D01*
X1526339Y703668D02*
X1531671D01*
X1526339Y708999D01*
Y710332D01*
X1527672Y711665D01*
X1530338D01*
X1531671Y710332D01*
X1558329Y760582D02*
X1559662Y761915D01*
X1562328D01*
X1563661Y760582D01*
Y755251D01*
X1562328Y753918D01*
X1559662D01*
X1558329Y755251D01*
X1555663Y760582D02*
X1554330Y761915D01*
X1551664D01*
X1550332Y760582D01*
Y759249D01*
X1551664Y757916D01*
X1552997D01*
X1551664D01*
X1550332Y756584D01*
Y755251D01*
X1551664Y753918D01*
X1554330D01*
X1555663Y755251D01*
X1547666Y760582D02*
X1546333Y761915D01*
X1543667D01*
X1542334Y760582D01*
Y755251D01*
X1543667Y753918D01*
X1546333D01*
X1547666Y755251D01*
Y760582D01*
X1539668Y752585D02*
X1534337D01*
X1526339Y753918D02*
X1531671D01*
X1526339Y759249D01*
Y760582D01*
X1527672Y761915D01*
X1530338D01*
X1531671Y760582D01*
X1411732Y567335D02*
X1406400D01*
X1403734Y568668D02*
X1401068D01*
X1402401D01*
Y576665D01*
X1403734Y575332D01*
X1701482Y587723D02*
X1696150D01*
X1693484Y589056D02*
X1690818D01*
X1692151D01*
Y597053D01*
X1693484Y595720D01*
X1549582Y361085D02*
X1544250D01*
X1541584Y362418D02*
X1538918D01*
X1540251D01*
Y370415D01*
X1541584Y369082D01*
X1500582Y482585D02*
X1495250D01*
X1492584Y483918D02*
X1489918D01*
X1491251D01*
Y491915D01*
X1492584Y490582D01*
X1716862Y471525D02*
X1711530D01*
X1708864Y472858D02*
X1706198D01*
X1707531D01*
Y480855D01*
X1708864Y479522D01*
X1592082Y268335D02*
X1586750D01*
X1584084Y269668D02*
X1581418D01*
X1582751D01*
Y277665D01*
X1584084Y276332D01*
X1551114Y623029D02*
X1545782D01*
X1543116Y624362D02*
X1540450D01*
X1541783D01*
Y632359D01*
X1543116Y631026D01*
X1740085Y615418D02*
Y620750D01*
X1741418Y623416D02*
Y626082D01*
Y624749D01*
X1749415D01*
X1748082Y623416D01*
X1704276Y403827D02*
X1698944D01*
X1696278Y405160D02*
X1693612D01*
X1694945D01*
Y413157D01*
X1696278Y411824D01*
X1485918Y465088D02*
X1493915D01*
Y469087D01*
X1492582Y470420D01*
X1489917D01*
X1488584Y469087D01*
Y465088D01*
Y467754D02*
X1485918Y470420D01*
X1487251Y473086D02*
X1485918Y474418D01*
Y477084D01*
X1487251Y478417D01*
X1492582D01*
X1493915Y477084D01*
Y474418D01*
X1492582Y473086D01*
X1491249D01*
X1489917Y474418D01*
Y478417D01*
X1484585Y481083D02*
Y486414D01*
X1485918Y494412D02*
Y489080D01*
X1491249Y494412D01*
X1492582D01*
X1493915Y493079D01*
Y490413D01*
X1492582Y489080D01*
X1582744Y446168D02*
Y454165D01*
X1578746D01*
X1577413Y452832D01*
Y450167D01*
X1578746Y448834D01*
X1582744D01*
X1580078D02*
X1577413Y446168D01*
X1574747D02*
X1572081D01*
X1573414D01*
Y454165D01*
X1574747Y452832D01*
X1568082D02*
X1566749Y454165D01*
X1564084D01*
X1562751Y452832D01*
Y447501D01*
X1564084Y446168D01*
X1566749D01*
X1568082Y447501D01*
Y452832D01*
X1560085Y444835D02*
X1554753D01*
X1546756Y446168D02*
X1552087D01*
X1546756Y451499D01*
Y452832D01*
X1548089Y454165D01*
X1550755D01*
X1552087Y452832D01*
X1611418Y463172D02*
X1619415D01*
Y467171D01*
X1618082Y468504D01*
X1615417D01*
X1614084Y467171D01*
Y463172D01*
Y465838D02*
X1611418Y468504D01*
Y471170D02*
Y473835D01*
Y472503D01*
X1619415D01*
X1618082Y471170D01*
X1611418Y477834D02*
Y480500D01*
Y479167D01*
X1619415D01*
X1618082Y477834D01*
X1610085Y484499D02*
Y489830D01*
X1611418Y497828D02*
Y492496D01*
X1616749Y497828D01*
X1618082D01*
X1619415Y496495D01*
Y493829D01*
X1618082Y492496D01*
X1436744Y537668D02*
Y545665D01*
X1432746D01*
X1431413Y544332D01*
Y541666D01*
X1432746Y540334D01*
X1436744D01*
X1434078D02*
X1431413Y537668D01*
X1428747D02*
X1426081D01*
X1427414D01*
Y545665D01*
X1428747Y544332D01*
X1416751Y537668D02*
X1422082D01*
X1416751Y542999D01*
Y544332D01*
X1418083Y545665D01*
X1420749D01*
X1422082Y544332D01*
X1414085Y536335D02*
X1408753D01*
X1400756Y537668D02*
X1406087D01*
X1400756Y542999D01*
Y544332D01*
X1402089Y545665D01*
X1404754D01*
X1406087Y544332D01*
X1610668Y485756D02*
X1618665D01*
Y489754D01*
X1617332Y491087D01*
X1614666D01*
X1613334Y489754D01*
Y485756D01*
Y488422D02*
X1610668Y491087D01*
Y493753D02*
Y496419D01*
Y495086D01*
X1618665D01*
X1617332Y493753D01*
Y500418D02*
X1618665Y501751D01*
Y504416D01*
X1617332Y505749D01*
X1615999D01*
X1614666Y504416D01*
Y503083D01*
Y504416D01*
X1613334Y505749D01*
X1612001D01*
X1610668Y504416D01*
Y501751D01*
X1612001Y500418D01*
X1609335Y508415D02*
Y513747D01*
X1610668Y521744D02*
Y516413D01*
X1615999Y521744D01*
X1617332D01*
X1618665Y520411D01*
Y517745D01*
X1617332Y516413D01*
X1616994Y552418D02*
Y560415D01*
X1612995D01*
X1611663Y559082D01*
Y556417D01*
X1612995Y555084D01*
X1616994D01*
X1614328D02*
X1611663Y552418D01*
X1608997D02*
X1606331D01*
X1607664D01*
Y560415D01*
X1608997Y559082D01*
X1598333Y552418D02*
Y560415D01*
X1602332Y556417D01*
X1597001D01*
X1594335Y551085D02*
X1589003D01*
X1581006Y552418D02*
X1586337D01*
X1581006Y557749D01*
Y559082D01*
X1582339Y560415D01*
X1585004D01*
X1586337Y559082D01*
X1617244Y536168D02*
Y544165D01*
X1613246D01*
X1611913Y542832D01*
Y540167D01*
X1613246Y538834D01*
X1617244D01*
X1614578D02*
X1611913Y536168D01*
X1609247D02*
X1606581D01*
X1607914D01*
Y544165D01*
X1609247Y542832D01*
X1597251Y544165D02*
X1602582D01*
Y540167D01*
X1599917Y541499D01*
X1598584D01*
X1597251Y540167D01*
Y537501D01*
X1598584Y536168D01*
X1601249D01*
X1602582Y537501D01*
X1594585Y534835D02*
X1589253D01*
X1581256Y536168D02*
X1586587D01*
X1581256Y541499D01*
Y542832D01*
X1582589Y544165D01*
X1585255D01*
X1586587Y542832D01*
X1437494Y499668D02*
Y507665D01*
X1433495D01*
X1432163Y506332D01*
Y503666D01*
X1433495Y502334D01*
X1437494D01*
X1434828D02*
X1432163Y499668D01*
X1429497D02*
X1426831D01*
X1428164D01*
Y507665D01*
X1429497Y506332D01*
X1417501Y507665D02*
X1420166Y506332D01*
X1422832Y503666D01*
Y501001D01*
X1421499Y499668D01*
X1418833D01*
X1417501Y501001D01*
Y502334D01*
X1418833Y503666D01*
X1422832D01*
X1414835Y498335D02*
X1409503D01*
X1401506Y499668D02*
X1406837D01*
X1401506Y504999D01*
Y506332D01*
X1402839Y507665D01*
X1405504D01*
X1406837Y506332D01*
X1730244Y452668D02*
Y460665D01*
X1726246D01*
X1724913Y459332D01*
Y456666D01*
X1726246Y455334D01*
X1730244D01*
X1727578D02*
X1724913Y452668D01*
X1722247D02*
X1719581D01*
X1720914D01*
Y460665D01*
X1722247Y459332D01*
X1715582Y460665D02*
X1710251D01*
Y459332D01*
X1715582Y454001D01*
Y452668D01*
X1707585Y451335D02*
X1702253D01*
X1694256Y452668D02*
X1699587D01*
X1694256Y457999D01*
Y459332D01*
X1695589Y460665D01*
X1698255D01*
X1699587Y459332D01*
X1813744Y435168D02*
Y443165D01*
X1809745D01*
X1808413Y441832D01*
Y439166D01*
X1809745Y437834D01*
X1813744D01*
X1811078D02*
X1808413Y435168D01*
X1805747D02*
X1803081D01*
X1804414D01*
Y443165D01*
X1805747Y441832D01*
X1799082D02*
X1797749Y443165D01*
X1795083D01*
X1793751Y441832D01*
Y440499D01*
X1795083Y439166D01*
X1793751Y437834D01*
Y436501D01*
X1795083Y435168D01*
X1797749D01*
X1799082Y436501D01*
Y437834D01*
X1797749Y439166D01*
X1799082Y440499D01*
Y441832D01*
X1797749Y439166D02*
X1795083D01*
X1791085Y433835D02*
X1785753D01*
X1777756Y435168D02*
X1783087D01*
X1777756Y440499D01*
Y441832D01*
X1779089Y443165D01*
X1781754D01*
X1783087Y441832D01*
X1852744Y469918D02*
Y477915D01*
X1848746D01*
X1847413Y476582D01*
Y473917D01*
X1848746Y472584D01*
X1852744D01*
X1850078D02*
X1847413Y469918D01*
X1844747D02*
X1842081D01*
X1843414D01*
Y477915D01*
X1844747Y476582D01*
X1838082Y471251D02*
X1836749Y469918D01*
X1834084D01*
X1832751Y471251D01*
Y476582D01*
X1834084Y477915D01*
X1836749D01*
X1838082Y476582D01*
Y475249D01*
X1836749Y473917D01*
X1832751D01*
X1830085Y468585D02*
X1824753D01*
X1816756Y469918D02*
X1822087D01*
X1816756Y475249D01*
Y476582D01*
X1818089Y477915D01*
X1820755D01*
X1822087Y476582D01*
X1652411Y519918D02*
Y527915D01*
X1648412D01*
X1647079Y526582D01*
Y523916D01*
X1648412Y522584D01*
X1652411D01*
X1649745D02*
X1647079Y519918D01*
X1639082D02*
X1644413D01*
X1639082Y525249D01*
Y526582D01*
X1640414Y527915D01*
X1643080D01*
X1644413Y526582D01*
X1636416D02*
X1635083Y527915D01*
X1632417D01*
X1631084Y526582D01*
Y521251D01*
X1632417Y519918D01*
X1635083D01*
X1636416Y521251D01*
Y526582D01*
X1628418Y518585D02*
X1623087D01*
X1615089Y519918D02*
X1620421D01*
X1615089Y525249D01*
Y526582D01*
X1616422Y527915D01*
X1619088D01*
X1620421Y526582D01*
X1852744Y482418D02*
Y490415D01*
X1848746D01*
X1847413Y489082D01*
Y486417D01*
X1848746Y485084D01*
X1852744D01*
X1850078D02*
X1847413Y482418D01*
X1839415D02*
X1844747D01*
X1839415Y487749D01*
Y489082D01*
X1840748Y490415D01*
X1843414D01*
X1844747Y489082D01*
X1836749Y482418D02*
X1834084D01*
X1835416D01*
Y490415D01*
X1836749Y489082D01*
X1830085Y481085D02*
X1824753D01*
X1816756Y482418D02*
X1822087D01*
X1816756Y487749D01*
Y489082D01*
X1818089Y490415D01*
X1820755D01*
X1822087Y489082D01*
X1835661Y543918D02*
Y551915D01*
X1831662D01*
X1830329Y550582D01*
Y547916D01*
X1831662Y546584D01*
X1835661D01*
X1832995D02*
X1830329Y543918D01*
X1822332D02*
X1827663D01*
X1822332Y549249D01*
Y550582D01*
X1823665Y551915D01*
X1826330D01*
X1827663Y550582D01*
X1814334Y543918D02*
X1819666D01*
X1814334Y549249D01*
Y550582D01*
X1815667Y551915D01*
X1818333D01*
X1819666Y550582D01*
X1811668Y542585D02*
X1806337D01*
X1798339Y543918D02*
X1803671D01*
X1798339Y549249D01*
Y550582D01*
X1799672Y551915D01*
X1802338D01*
X1803671Y550582D01*
X1834911Y527418D02*
Y535415D01*
X1830912D01*
X1829579Y534082D01*
Y531416D01*
X1830912Y530084D01*
X1834911D01*
X1832245D02*
X1829579Y527418D01*
X1821582D02*
X1826913D01*
X1821582Y532749D01*
Y534082D01*
X1822914Y535415D01*
X1825580D01*
X1826913Y534082D01*
X1818916D02*
X1817583Y535415D01*
X1814917D01*
X1813584Y534082D01*
Y532749D01*
X1814917Y531416D01*
X1816250D01*
X1814917D01*
X1813584Y530084D01*
Y528751D01*
X1814917Y527418D01*
X1817583D01*
X1818916Y528751D01*
X1810918Y526085D02*
X1805587D01*
X1797589Y527418D02*
X1802921D01*
X1797589Y532749D01*
Y534082D01*
X1798922Y535415D01*
X1801588D01*
X1802921Y534082D01*
X1654911Y482168D02*
Y490165D01*
X1650912D01*
X1649579Y488832D01*
Y486166D01*
X1650912Y484833D01*
X1654911D01*
X1652245D02*
X1649579Y482168D01*
X1641582D02*
X1646913D01*
X1641582Y487499D01*
Y488832D01*
X1642914Y490165D01*
X1645580D01*
X1646913Y488832D01*
X1634917Y482168D02*
Y490165D01*
X1638916Y486166D01*
X1633584D01*
X1630918Y480835D02*
X1625587D01*
X1617589Y482168D02*
X1622921D01*
X1617589Y487499D01*
Y488832D01*
X1618922Y490165D01*
X1621588D01*
X1622921Y488832D01*
X1642668Y289839D02*
X1650665D01*
Y293838D01*
X1649332Y295171D01*
X1646666D01*
X1645334Y293838D01*
Y289839D01*
Y292505D02*
X1642668Y295171D01*
Y303168D02*
Y297837D01*
X1647999Y303168D01*
X1649332D01*
X1650665Y301835D01*
Y299170D01*
X1649332Y297837D01*
X1650665Y311166D02*
Y305834D01*
X1646666D01*
X1647999Y308500D01*
Y309833D01*
X1646666Y311166D01*
X1644001D01*
X1642668Y309833D01*
Y307167D01*
X1644001Y305834D01*
X1641335Y313832D02*
Y319163D01*
X1642668Y327161D02*
Y321829D01*
X1647999Y327161D01*
X1649332D01*
X1650665Y325828D01*
Y323162D01*
X1649332Y321829D01*
X1680168Y289089D02*
X1688165D01*
Y293088D01*
X1686832Y294421D01*
X1684166D01*
X1682834Y293088D01*
Y289089D01*
Y291755D02*
X1680168Y294421D01*
Y302418D02*
Y297087D01*
X1685499Y302418D01*
X1686832D01*
X1688165Y301085D01*
Y298420D01*
X1686832Y297087D01*
X1688165Y310416D02*
X1686832Y307750D01*
X1684166Y305084D01*
X1681501D01*
X1680168Y306417D01*
Y309083D01*
X1681501Y310416D01*
X1682834D01*
X1684166Y309083D01*
Y305084D01*
X1678835Y313082D02*
Y318413D01*
X1680168Y326411D02*
Y321079D01*
X1685499Y326411D01*
X1686832D01*
X1688165Y325078D01*
Y322412D01*
X1686832Y321079D01*
X1778161Y272918D02*
Y280915D01*
X1774162D01*
X1772829Y279582D01*
Y276916D01*
X1774162Y275583D01*
X1778161D01*
X1775495D02*
X1772829Y272918D01*
X1764832D02*
X1770163D01*
X1764832Y278249D01*
Y279582D01*
X1766165Y280915D01*
X1768830D01*
X1770163Y279582D01*
X1762166Y280915D02*
X1756834D01*
Y279582D01*
X1762166Y274251D01*
Y272918D01*
X1754168Y271585D02*
X1748837D01*
X1740839Y272918D02*
X1746171D01*
X1740839Y278249D01*
Y279582D01*
X1742172Y280915D01*
X1744838D01*
X1746171Y279582D01*
X1500411Y303418D02*
Y311415D01*
X1496412D01*
X1495079Y310082D01*
Y307416D01*
X1496412Y306084D01*
X1500411D01*
X1497745D02*
X1495079Y303418D01*
X1487082D02*
X1492413D01*
X1487082Y308749D01*
Y310082D01*
X1488414Y311415D01*
X1491080D01*
X1492413Y310082D01*
X1484416D02*
X1483083Y311415D01*
X1480417D01*
X1479084Y310082D01*
Y308749D01*
X1480417Y307416D01*
X1479084Y306084D01*
Y304751D01*
X1480417Y303418D01*
X1483083D01*
X1484416Y304751D01*
Y306084D01*
X1483083Y307416D01*
X1484416Y308749D01*
Y310082D01*
X1483083Y307416D02*
X1480417D01*
X1476418Y302085D02*
X1471087D01*
X1463089Y303418D02*
X1468421D01*
X1463089Y308749D01*
Y310082D01*
X1464422Y311415D01*
X1467088D01*
X1468421Y310082D01*
X1696168Y279089D02*
X1704165D01*
Y283088D01*
X1702832Y284421D01*
X1700166D01*
X1698833Y283088D01*
Y279089D01*
Y281755D02*
X1696168Y284421D01*
Y292418D02*
Y287087D01*
X1701499Y292418D01*
X1702832D01*
X1704165Y291085D01*
Y288420D01*
X1702832Y287087D01*
X1697501Y295084D02*
X1696168Y296417D01*
Y299083D01*
X1697501Y300416D01*
X1702832D01*
X1704165Y299083D01*
Y296417D01*
X1702832Y295084D01*
X1701499D01*
X1700166Y296417D01*
Y300416D01*
X1694835Y303082D02*
Y308413D01*
X1696168Y316411D02*
Y311079D01*
X1701499Y316411D01*
X1702832D01*
X1704165Y315078D01*
Y312412D01*
X1702832Y311079D01*
X1833582Y360411D02*
X1825585D01*
Y356412D01*
X1826918Y355079D01*
X1829583D01*
X1830916Y356412D01*
Y360411D01*
Y357745D02*
X1833582Y355079D01*
X1826918Y352413D02*
X1825585Y351080D01*
Y348414D01*
X1826918Y347082D01*
X1828251D01*
X1829583Y348414D01*
Y349747D01*
Y348414D01*
X1830916Y347082D01*
X1832249D01*
X1833582Y348414D01*
Y351080D01*
X1832249Y352413D01*
X1826918Y344416D02*
X1825585Y343083D01*
Y340417D01*
X1826918Y339084D01*
X1832249D01*
X1833582Y340417D01*
Y343083D01*
X1832249Y344416D01*
X1826918D01*
X1834915Y336418D02*
Y331087D01*
X1833582Y323089D02*
Y328421D01*
X1828251Y323089D01*
X1826918D01*
X1825585Y324422D01*
Y327088D01*
X1826918Y328421D01*
X1791411Y353168D02*
Y361165D01*
X1787413D01*
X1786080Y359832D01*
Y357166D01*
X1787413Y355834D01*
X1791411D01*
X1788746D02*
X1786080Y353168D01*
X1783414Y359832D02*
X1782081Y361165D01*
X1779415D01*
X1778082Y359832D01*
Y358499D01*
X1779415Y357166D01*
X1780748D01*
X1779415D01*
X1778082Y355834D01*
Y354501D01*
X1779415Y353168D01*
X1782081D01*
X1783414Y354501D01*
X1775416Y353168D02*
X1772751D01*
X1774084D01*
Y361165D01*
X1775416Y359832D01*
X1768752Y351835D02*
X1763420D01*
X1760755Y353168D02*
X1758089D01*
X1759422D01*
Y361165D01*
X1760755Y359832D01*
X1777661Y332168D02*
Y340165D01*
X1773662D01*
X1772329Y338832D01*
Y336166D01*
X1773662Y334833D01*
X1777661D01*
X1774995D02*
X1772329Y332168D01*
X1769663Y338832D02*
X1768330Y340165D01*
X1765665D01*
X1764332Y338832D01*
Y337499D01*
X1765665Y336166D01*
X1766997D01*
X1765665D01*
X1764332Y334833D01*
Y333501D01*
X1765665Y332168D01*
X1768330D01*
X1769663Y333501D01*
X1756334Y332168D02*
X1761666D01*
X1756334Y337499D01*
Y338832D01*
X1757667Y340165D01*
X1760333D01*
X1761666Y338832D01*
X1753668Y330835D02*
X1748337D01*
X1740339Y332168D02*
X1745671D01*
X1740339Y337499D01*
Y338832D01*
X1741672Y340165D01*
X1744338D01*
X1745671Y338832D01*
X1500161Y266168D02*
Y274165D01*
X1496162D01*
X1494829Y272832D01*
Y270166D01*
X1496162Y268834D01*
X1500161D01*
X1497495D02*
X1494829Y266168D01*
X1492163Y272832D02*
X1490830Y274165D01*
X1488165D01*
X1486832Y272832D01*
Y271499D01*
X1488165Y270166D01*
X1489497D01*
X1488165D01*
X1486832Y268834D01*
Y267501D01*
X1488165Y266168D01*
X1490830D01*
X1492163Y267501D01*
X1484166Y272832D02*
X1482833Y274165D01*
X1480167D01*
X1478834Y272832D01*
Y271499D01*
X1480167Y270166D01*
X1481500D01*
X1480167D01*
X1478834Y268834D01*
Y267501D01*
X1480167Y266168D01*
X1482833D01*
X1484166Y267501D01*
X1476168Y264835D02*
X1470837D01*
X1462839Y266168D02*
X1468171D01*
X1462839Y271499D01*
Y272832D01*
X1464172Y274165D01*
X1466838D01*
X1468171Y272832D01*
X1830332Y302161D02*
X1822335D01*
Y298162D01*
X1823668Y296829D01*
X1826334D01*
X1827666Y298162D01*
Y302161D01*
Y299495D02*
X1830332Y296829D01*
X1823668Y294163D02*
X1822335Y292830D01*
Y290165D01*
X1823668Y288832D01*
X1825001D01*
X1826334Y290165D01*
Y291497D01*
Y290165D01*
X1827666Y288832D01*
X1828999D01*
X1830332Y290165D01*
Y292830D01*
X1828999Y294163D01*
X1830332Y282167D02*
X1822335D01*
X1826334Y286166D01*
Y280834D01*
X1831665Y278168D02*
Y272837D01*
X1830332Y264839D02*
Y270171D01*
X1825001Y264839D01*
X1823668D01*
X1822335Y266172D01*
Y268838D01*
X1823668Y270171D01*
X1873582Y242085D02*
X1868250D01*
X1865584Y243418D02*
X1862918D01*
X1864251D01*
Y251415D01*
X1865584Y250082D01*
X1827168Y637089D02*
X1835165D01*
Y641088D01*
X1833832Y642421D01*
X1831166D01*
X1829834Y641088D01*
Y637089D01*
Y639755D02*
X1827168Y642421D01*
X1833832Y645087D02*
X1835165Y646420D01*
Y649085D01*
X1833832Y650418D01*
X1832499D01*
X1831166Y649085D01*
Y647753D01*
Y649085D01*
X1829834Y650418D01*
X1828501D01*
X1827168Y649085D01*
Y646420D01*
X1828501Y645087D01*
Y653084D02*
X1827168Y654417D01*
Y657083D01*
X1828501Y658416D01*
X1833832D01*
X1835165Y657083D01*
Y654417D01*
X1833832Y653084D01*
X1832499D01*
X1831166Y654417D01*
Y658416D01*
X1825835Y661082D02*
Y666413D01*
X1827168Y674411D02*
Y669079D01*
X1832499Y674411D01*
X1833832D01*
X1835165Y673078D01*
Y670412D01*
X1833832Y669079D01*
X1889145Y760428D02*
Y765760D01*
X1890478Y768426D02*
Y771092D01*
Y769759D01*
X1898475D01*
X1897142Y768426D01*
X1751135Y673068D02*
Y678400D01*
X1752468Y681066D02*
Y683732D01*
Y682399D01*
X1760465D01*
X1759132Y681066D01*
X1838642Y627093D02*
X1833310D01*
X1830644Y628426D02*
X1827978D01*
X1829311D01*
Y636423D01*
X1830644Y635090D01*
X1327848Y585945D02*
X1322516D01*
X1319850Y587278D02*
X1317184D01*
X1318517D01*
Y595275D01*
X1319850Y593942D01*
X1327848Y779747D02*
X1322516D01*
X1319850Y781080D02*
X1317184D01*
X1318517D01*
Y789077D01*
X1319850Y787744D01*
X1327848Y682719D02*
X1322516D01*
X1319850Y684052D02*
X1317184D01*
X1318517D01*
Y692049D01*
X1319850Y690716D01*
X1327086Y476471D02*
X1321754D01*
X1319088Y477804D02*
X1316422D01*
X1317755D01*
Y485801D01*
X1319088Y484468D01*
X1327340Y365473D02*
X1322008D01*
X1319342Y366806D02*
X1316676D01*
X1318009D01*
Y374803D01*
X1319342Y373470D01*
X1838642Y487139D02*
X1833310D01*
X1830644Y488472D02*
X1827978D01*
X1829311D01*
Y496469D01*
X1830644Y495136D01*
X1545661Y442668D02*
Y450665D01*
X1541662D01*
X1540329Y449332D01*
Y446666D01*
X1541662Y445334D01*
X1545661D01*
X1542995D02*
X1540329Y442668D01*
X1537663Y449332D02*
X1536330Y450665D01*
X1533665D01*
X1532332Y449332D01*
Y447999D01*
X1533665Y446666D01*
X1534997D01*
X1533665D01*
X1532332Y445334D01*
Y444001D01*
X1533665Y442668D01*
X1536330D01*
X1537663Y444001D01*
X1529666Y449332D02*
X1528333Y450665D01*
X1525667D01*
X1524334Y449332D01*
Y447999D01*
X1525667Y446666D01*
X1524334Y445334D01*
Y444001D01*
X1525667Y442668D01*
X1528333D01*
X1529666Y444001D01*
Y445334D01*
X1528333Y446666D01*
X1529666Y447999D01*
Y449332D01*
X1528333Y446666D02*
X1525667D01*
X1521668Y441335D02*
X1516337D01*
X1508339Y442668D02*
X1513671D01*
X1508339Y447999D01*
Y449332D01*
X1509672Y450665D01*
X1512338D01*
X1513671Y449332D01*
X398749Y376337D02*
X390751D01*
Y380336D01*
X392084Y381668D01*
X394750D01*
X396083Y380336D01*
Y376337D01*
Y379002D02*
X398749Y381668D01*
X392084Y384334D02*
X390751Y385667D01*
Y388333D01*
X392084Y389666D01*
X393417D01*
X394750Y388333D01*
Y387000D01*
Y388333D01*
X396083Y389666D01*
X397416D01*
X398749Y388333D01*
Y385667D01*
X397416Y384334D01*
X390751Y392332D02*
Y397663D01*
X392084D01*
X397416Y392332D01*
X398749D01*
X370001Y439753D02*
X375999D01*
Y442752D01*
X374999Y443751D01*
X373000D01*
X372000Y442752D01*
Y439753D01*
Y441752D02*
X370001Y443751D01*
X374999Y445751D02*
X375999Y446750D01*
Y448750D01*
X374999Y449749D01*
X374000D01*
X373000Y448750D01*
Y447750D01*
Y448750D01*
X372000Y449749D01*
X371001D01*
X370001Y448750D01*
Y446750D01*
X371001Y445751D01*
X375999Y455747D02*
Y451749D01*
X373000D01*
X374000Y453748D01*
Y454748D01*
X373000Y455747D01*
X371001D01*
X370001Y454748D01*
Y452748D01*
X371001Y451749D01*
X407663Y329001D02*
Y336999D01*
X403665D01*
X402332Y335666D01*
Y333000D01*
X403665Y331667D01*
X407663D01*
X404997D02*
X402332Y329001D01*
X399666Y335666D02*
X398333Y336999D01*
X395667D01*
X394334Y335666D01*
Y334333D01*
X395667Y333000D01*
X397000D01*
X395667D01*
X394334Y331667D01*
Y330334D01*
X395667Y329001D01*
X398333D01*
X399666Y330334D01*
X387670Y329001D02*
Y336999D01*
X391668Y333000D01*
X386337D01*
X369751Y484753D02*
X375749D01*
Y487752D01*
X374749Y488751D01*
X372750D01*
X371750Y487752D01*
Y484753D01*
Y486752D02*
X369751Y488751D01*
X374749Y490751D02*
X375749Y491750D01*
Y493750D01*
X374749Y494749D01*
X373750D01*
X372750Y493750D01*
Y492750D01*
Y493750D01*
X371750Y494749D01*
X370751D01*
X369751Y493750D01*
Y491750D01*
X370751Y490751D01*
X374749Y496749D02*
X375749Y497748D01*
Y499748D01*
X374749Y500747D01*
X373750D01*
X372750Y499748D01*
Y498748D01*
Y499748D01*
X371750Y500747D01*
X370751D01*
X369751Y499748D01*
Y497748D01*
X370751Y496749D01*
X474337Y584749D02*
Y576751D01*
X478335D01*
X479668Y578084D01*
Y580750D01*
X478335Y582083D01*
X474337D01*
X477002D02*
X479668Y584749D01*
X482334Y578084D02*
X483667Y576751D01*
X486333D01*
X487666Y578084D01*
Y579417D01*
X486333Y580750D01*
X485000D01*
X486333D01*
X487666Y582083D01*
Y583416D01*
X486333Y584749D01*
X483667D01*
X482334Y583416D01*
X495663Y584749D02*
X490331D01*
X495663Y579417D01*
Y578084D01*
X494330Y576751D01*
X491664D01*
X490331Y578084D01*
X500420Y585499D02*
Y577501D01*
X504418D01*
X505751Y578834D01*
Y581500D01*
X504418Y582833D01*
X500420D01*
X503085D02*
X505751Y585499D01*
X508417Y578834D02*
X509750Y577501D01*
X512416D01*
X513749Y578834D01*
Y580167D01*
X512416Y581500D01*
X511083D01*
X512416D01*
X513749Y582833D01*
Y584166D01*
X512416Y585499D01*
X509750D01*
X508417Y584166D01*
X516414Y585499D02*
X519080D01*
X517747D01*
Y577501D01*
X516414Y578834D01*
X377499Y633163D02*
X369501D01*
Y629165D01*
X370834Y627832D01*
X373500D01*
X374833Y629165D01*
Y633163D01*
Y630498D02*
X377499Y627832D01*
X370834Y625166D02*
X369501Y623833D01*
Y621167D01*
X370834Y619834D01*
X372167D01*
X373500Y621167D01*
Y622500D01*
Y621167D01*
X374833Y619834D01*
X376166D01*
X377499Y621167D01*
Y623833D01*
X376166Y625166D01*
X370834Y617168D02*
X369501Y615835D01*
Y613170D01*
X370834Y611837D01*
X376166D01*
X377499Y613170D01*
Y615835D01*
X376166Y617168D01*
X370834D01*
X422587Y585499D02*
Y577501D01*
X426585D01*
X427918Y578834D01*
Y581500D01*
X426585Y582833D01*
X422587D01*
X425252D02*
X427918Y585499D01*
X435916D02*
X430584D01*
X435916Y580167D01*
Y578834D01*
X434583Y577501D01*
X431917D01*
X430584Y578834D01*
X438582Y584166D02*
X439914Y585499D01*
X442580D01*
X443913Y584166D01*
Y578834D01*
X442580Y577501D01*
X439914D01*
X438582Y578834D01*
Y580167D01*
X439914Y581500D01*
X443913D01*
X460251Y342087D02*
X468249D01*
Y346086D01*
X466916Y347418D01*
X464250D01*
X462917Y346086D01*
Y342087D01*
Y344753D02*
X460251Y347418D01*
Y355416D02*
Y350084D01*
X465583Y355416D01*
X466916D01*
X468249Y354083D01*
Y351417D01*
X466916Y350084D01*
Y358082D02*
X468249Y359414D01*
Y362080D01*
X466916Y363413D01*
X465583D01*
X464250Y362080D01*
X462917Y363413D01*
X461584D01*
X460251Y362080D01*
Y359414D01*
X461584Y358082D01*
X462917D01*
X464250Y359414D01*
X465583Y358082D01*
X466916D01*
X464250Y359414D02*
Y362080D01*
X369501Y529503D02*
X375499D01*
Y532502D01*
X374499Y533501D01*
X372500D01*
X371500Y532502D01*
Y529503D01*
Y531502D02*
X369501Y533501D01*
Y539499D02*
Y535501D01*
X373500Y539499D01*
X374499D01*
X375499Y538500D01*
Y536500D01*
X374499Y535501D01*
X375499Y541499D02*
Y545497D01*
X374499D01*
X370501Y541499D01*
X369501D01*
X369251Y579253D02*
X375249D01*
Y582252D01*
X374249Y583251D01*
X372250D01*
X371250Y582252D01*
Y579253D01*
Y581252D02*
X369251Y583251D01*
Y589249D02*
Y585251D01*
X373250Y589249D01*
X374249D01*
X375249Y588250D01*
Y586250D01*
X374249Y585251D01*
X375249Y595247D02*
X374249Y593248D01*
X372250Y591249D01*
X370251D01*
X369251Y592248D01*
Y594248D01*
X370251Y595247D01*
X371250D01*
X372250Y594248D01*
Y591249D01*
X506749Y376663D02*
X498751D01*
Y372664D01*
X500084Y371332D01*
X502750D01*
X504083Y372664D01*
Y376663D01*
Y373997D02*
X506749Y371332D01*
Y363334D02*
Y368666D01*
X501417Y363334D01*
X500084D01*
X498751Y364667D01*
Y367333D01*
X500084Y368666D01*
X498751Y355337D02*
Y360668D01*
X502750D01*
X501417Y358003D01*
Y356670D01*
X502750Y355337D01*
X505416D01*
X506749Y356670D01*
Y359336D01*
X505416Y360668D01*
X594413Y770501D02*
Y778499D01*
X590415D01*
X589082Y777166D01*
Y774500D01*
X590415Y773167D01*
X594413D01*
X591747D02*
X589082Y770501D01*
X581084D02*
X586416D01*
X581084Y775833D01*
Y777166D01*
X582417Y778499D01*
X585083D01*
X586416Y777166D01*
X578418D02*
X577085Y778499D01*
X574420D01*
X573087Y777166D01*
Y775833D01*
X574420Y774500D01*
X575753D01*
X574420D01*
X573087Y773167D01*
Y771834D01*
X574420Y770501D01*
X577085D01*
X578418Y771834D01*
X556413Y770751D02*
Y778749D01*
X552415D01*
X551082Y777416D01*
Y774750D01*
X552415Y773417D01*
X556413D01*
X553747D02*
X551082Y770751D01*
X543084D02*
X548416D01*
X543084Y776083D01*
Y777416D01*
X544417Y778749D01*
X547083D01*
X548416Y777416D01*
X535087Y770751D02*
X540418D01*
X535087Y776083D01*
Y777416D01*
X536420Y778749D01*
X539086D01*
X540418Y777416D01*
X524749Y373830D02*
X516751D01*
Y369832D01*
X518084Y368499D01*
X520750D01*
X522083Y369832D01*
Y373830D01*
Y371164D02*
X524749Y368499D01*
Y360501D02*
Y365833D01*
X519417Y360501D01*
X518084D01*
X516751Y361834D01*
Y364500D01*
X518084Y365833D01*
X524749Y357835D02*
Y355170D01*
Y356502D01*
X516751D01*
X518084Y357835D01*
X544749Y375663D02*
X536751D01*
Y371665D01*
X538084Y370332D01*
X540750D01*
X542083Y371665D01*
Y375663D01*
Y372997D02*
X544749Y370332D01*
Y362334D02*
Y367666D01*
X539417Y362334D01*
X538084D01*
X536751Y363667D01*
Y366333D01*
X538084Y367666D01*
Y359668D02*
X536751Y358335D01*
Y355670D01*
X538084Y354337D01*
X543416D01*
X544749Y355670D01*
Y358335D01*
X543416Y359668D01*
X538084D01*
X564249Y374747D02*
X556251D01*
Y370748D01*
X557584Y369415D01*
X560250D01*
X561583Y370748D01*
Y374747D01*
Y372081D02*
X564249Y369415D01*
Y366749D02*
Y364084D01*
Y365416D01*
X556251D01*
X557584Y366749D01*
X562916Y360085D02*
X564249Y358752D01*
Y356086D01*
X562916Y354753D01*
X557584D01*
X556251Y356086D01*
Y358752D01*
X557584Y360085D01*
X558917D01*
X560250Y358752D01*
Y354753D01*
X473501Y359753D02*
X481499D01*
Y363752D01*
X480166Y365085D01*
X477500D01*
X476167Y363752D01*
Y359753D01*
Y362419D02*
X473501Y365085D01*
Y367751D02*
Y370416D01*
Y369084D01*
X481499D01*
X480166Y367751D01*
Y374415D02*
X481499Y375748D01*
Y378414D01*
X480166Y379747D01*
X478833D01*
X477500Y378414D01*
X476167Y379747D01*
X474834D01*
X473501Y378414D01*
Y375748D01*
X474834Y374415D01*
X476167D01*
X477500Y375748D01*
X478833Y374415D01*
X480166D01*
X477500Y375748D02*
Y378414D01*
X591251Y388503D02*
X599249D01*
Y392502D01*
X597916Y393835D01*
X595250D01*
X593917Y392502D01*
Y388503D01*
Y391169D02*
X591251Y393835D01*
Y396501D02*
Y399166D01*
Y397834D01*
X599249D01*
X597916Y396501D01*
X599249Y403165D02*
Y408497D01*
X597916D01*
X592584Y403165D01*
X591251D01*
X628501Y389003D02*
X636499D01*
Y393002D01*
X635166Y394335D01*
X632500D01*
X631167Y393002D01*
Y389003D01*
Y391669D02*
X628501Y394335D01*
Y397001D02*
Y399666D01*
Y398334D01*
X636499D01*
X635166Y397001D01*
X636499Y408997D02*
X635166Y406331D01*
X632500Y403665D01*
X629834D01*
X628501Y404998D01*
Y407664D01*
X629834Y408997D01*
X631167D01*
X632500Y407664D01*
Y403665D01*
X610251Y389003D02*
X618249D01*
Y393002D01*
X616916Y394335D01*
X614250D01*
X612917Y393002D01*
Y389003D01*
Y391669D02*
X610251Y394335D01*
Y397001D02*
Y399666D01*
Y398334D01*
X618249D01*
X616916Y397001D01*
X618249Y408997D02*
Y403665D01*
X614250D01*
X615583Y406331D01*
Y407664D01*
X614250Y408997D01*
X611584D01*
X610251Y407664D01*
Y404998D01*
X611584Y403665D01*
X646751Y389003D02*
X654749D01*
Y393002D01*
X653416Y394335D01*
X650750D01*
X649417Y393002D01*
Y389003D01*
Y391669D02*
X646751Y394335D01*
Y397001D02*
Y399666D01*
Y398334D01*
X654749D01*
X653416Y397001D01*
X646751Y407664D02*
X654749D01*
X650750Y403665D01*
Y408997D01*
X453918Y579084D02*
X452585Y577751D01*
X449920D01*
X448587Y579084D01*
Y584416D01*
X449920Y585749D01*
X452585D01*
X453918Y584416D01*
X456584Y579084D02*
X457917Y577751D01*
X460583D01*
X461916Y579084D01*
Y580417D01*
X460583Y581750D01*
X459250D01*
X460583D01*
X461916Y583083D01*
Y584416D01*
X460583Y585749D01*
X457917D01*
X456584Y584416D01*
X464581Y579084D02*
X465914Y577751D01*
X468580D01*
X469913Y579084D01*
Y580417D01*
X468580Y581750D01*
X467247D01*
X468580D01*
X469913Y583083D01*
Y584416D01*
X468580Y585749D01*
X465914D01*
X464581Y584416D01*
X568332Y706666D02*
X569664Y707999D01*
X572330D01*
X573663Y706666D01*
Y701334D01*
X572330Y700001D01*
X569664D01*
X568332Y701334D01*
X565666Y706666D02*
X564333Y707999D01*
X561667D01*
X560334Y706666D01*
Y705333D01*
X561667Y704000D01*
X563000D01*
X561667D01*
X560334Y702667D01*
Y701334D01*
X561667Y700001D01*
X564333D01*
X565666Y701334D01*
X552337Y700001D02*
X557668D01*
X552337Y705333D01*
Y706666D01*
X553670Y707999D01*
X556335D01*
X557668Y706666D01*
X596249Y495166D02*
X597582Y496499D01*
X600247D01*
X601580Y495166D01*
Y489834D01*
X600247Y488501D01*
X597582D01*
X596249Y489834D01*
X593583Y495166D02*
X592250Y496499D01*
X589584D01*
X588251Y495166D01*
Y493833D01*
X589584Y492500D01*
X590917D01*
X589584D01*
X588251Y491167D01*
Y489834D01*
X589584Y488501D01*
X592250D01*
X593583Y489834D01*
X585586Y488501D02*
X582920D01*
X584253D01*
Y496499D01*
X585586Y495166D01*
X700832Y489084D02*
X702165Y487751D01*
X704830D01*
X706163Y489084D01*
Y494416D01*
X704830Y495749D01*
X702165D01*
X700832Y494416D01*
X698166Y489084D02*
X696833Y487751D01*
X694167D01*
X692834Y489084D01*
Y490417D01*
X694167Y491750D01*
X695500D01*
X694167D01*
X692834Y493083D01*
Y494416D01*
X694167Y495749D01*
X696833D01*
X698166Y494416D01*
X690168Y489084D02*
X688836Y487751D01*
X686170D01*
X684837Y489084D01*
Y494416D01*
X686170Y495749D01*
X688836D01*
X690168Y494416D01*
Y489084D01*
X594166Y693418D02*
X595499Y692085D01*
Y689420D01*
X594166Y688087D01*
X588834D01*
X587501Y689420D01*
Y692085D01*
X588834Y693418D01*
X587501Y701416D02*
Y696084D01*
X592833Y701416D01*
X594166D01*
X595499Y700083D01*
Y697417D01*
X594166Y696084D01*
X588834Y704082D02*
X587501Y705415D01*
Y708080D01*
X588834Y709413D01*
X594166D01*
X595499Y708080D01*
Y705415D01*
X594166Y704082D01*
X592833D01*
X591500Y705415D01*
Y709413D01*
X601582Y664916D02*
X602915Y666249D01*
X605580D01*
X606913Y664916D01*
Y659584D01*
X605580Y658251D01*
X602915D01*
X601582Y659584D01*
X593584Y658251D02*
X598916D01*
X593584Y663583D01*
Y664916D01*
X594917Y666249D01*
X597583D01*
X598916Y664916D01*
X590918D02*
X589585Y666249D01*
X586920D01*
X585587Y664916D01*
Y663583D01*
X586920Y662250D01*
X585587Y660917D01*
Y659584D01*
X586920Y658251D01*
X589585D01*
X590918Y659584D01*
Y660917D01*
X589585Y662250D01*
X590918Y663583D01*
Y664916D01*
X589585Y662250D02*
X586920D01*
X697582Y667166D02*
X698914Y668499D01*
X701580D01*
X702913Y667166D01*
Y661834D01*
X701580Y660501D01*
X698914D01*
X697582Y661834D01*
X689584Y660501D02*
X694916D01*
X689584Y665833D01*
Y667166D01*
X690917Y668499D01*
X693583D01*
X694916Y667166D01*
X686918Y668499D02*
X681587D01*
Y667166D01*
X686918Y661834D01*
Y660501D01*
X402832Y388166D02*
X404165Y389499D01*
X406830D01*
X408163Y388166D01*
Y382834D01*
X406830Y381501D01*
X404165D01*
X402832Y382834D01*
X394834Y381501D02*
X400166D01*
X394834Y386833D01*
Y388166D01*
X396167Y389499D01*
X398833D01*
X400166Y388166D01*
X386837Y389499D02*
X389503Y388166D01*
X392168Y385500D01*
Y382834D01*
X390835Y381501D01*
X388170D01*
X386837Y382834D01*
Y384167D01*
X388170Y385500D01*
X392168D01*
X428500Y474278D02*
X429833Y475611D01*
X432499D01*
X433832Y474278D01*
Y468947D01*
X432499Y467614D01*
X429833D01*
X428500Y468947D01*
X425835Y474278D02*
X424502Y475611D01*
X421836D01*
X420503Y474278D01*
Y472946D01*
X421836Y471613D01*
X420503Y470280D01*
Y468947D01*
X421836Y467614D01*
X424502D01*
X425835Y468947D01*
Y470280D01*
X424502Y471613D01*
X425835Y472946D01*
Y474278D01*
X424502Y471613D02*
X421836D01*
X427583Y427666D02*
X428916Y428999D01*
X431582D01*
X432915Y427666D01*
Y422334D01*
X431582Y421001D01*
X428916D01*
X427583Y422334D01*
X424917Y428999D02*
X419585D01*
Y427666D01*
X424917Y422334D01*
Y421001D01*
D12*
X1136965Y463488D02*
X1180965D01*
X1136965Y513488D02*
X1180965D01*
X928415Y260488D02*
X928965D01*
X940365D02*
X940915D01*
X928415Y277488D02*
X928965D01*
X940365D02*
X940915D01*
X928415Y260488D02*
Y277488D01*
X940915Y260488D02*
Y277488D01*
X943915Y260738D02*
X944465D01*
X955865D02*
X956415D01*
X943915Y277738D02*
X944465D01*
X955865D02*
X956415D01*
X943915Y260738D02*
Y277738D01*
X956415Y260738D02*
Y277738D01*
X912915Y260738D02*
X913465D01*
X924865D02*
X925415D01*
X912915Y277738D02*
X913465D01*
X924865D02*
X925415D01*
X912915Y260738D02*
Y277738D01*
X925415Y260738D02*
Y277738D01*
X1052915Y324938D02*
Y325488D01*
Y312988D02*
Y313538D01*
X1069915Y324938D02*
Y325488D01*
Y312988D02*
Y313538D01*
X1052915Y325488D02*
X1069915D01*
X1052915Y312988D02*
X1069915D01*
X1052665Y358938D02*
Y359488D01*
Y346988D02*
Y347538D01*
X1069665Y358938D02*
Y359488D01*
Y346988D02*
Y347538D01*
X1052665Y359488D02*
X1069665D01*
X1052665Y346988D02*
X1069665D01*
X1052915Y284188D02*
Y284738D01*
Y272238D02*
Y272788D01*
X1069915Y284188D02*
Y284738D01*
Y272238D02*
Y272788D01*
X1052915Y284738D02*
X1069915D01*
X1052915Y272238D02*
X1069915D01*
X1052915Y304688D02*
Y305238D01*
Y292738D02*
Y293288D01*
X1069915Y304688D02*
Y305238D01*
Y292738D02*
Y293288D01*
X1052915Y305238D02*
X1069915D01*
X1052915Y292738D02*
X1069915D01*
X1094165Y730988D02*
Y739788D01*
X1086865Y730988D02*
X1094165D01*
X1065165D02*
X1072465D01*
X1065165D02*
Y739788D01*
X1148415Y729488D02*
Y738288D01*
Y729488D02*
X1155715D01*
X1170115D02*
X1177415D01*
Y738288D01*
X951415Y527738D02*
Y530638D01*
Y594838D02*
Y597738D01*
X1021415Y527738D02*
Y530638D01*
Y594838D02*
Y597738D01*
X951415Y527738D02*
X954315D01*
X951415Y597738D02*
X954315D01*
X1018515Y527738D02*
X1021415D01*
X1018515Y597738D02*
X1021415D01*
X1409900Y612600D02*
X1461900D01*
X1409900Y583400D02*
X1461900D01*
X1628150Y555400D02*
X1680150D01*
X1628150Y584600D02*
X1680150D01*
X1473750Y367850D02*
X1525750D01*
X1473750Y338650D02*
X1525750D01*
X1489180Y500500D02*
Y501500D01*
X1529180Y500500D02*
Y501500D01*
X1489180Y500500D02*
X1529180D01*
Y549500D02*
Y550500D01*
X1489180Y549500D02*
Y550500D01*
X1529180D01*
X1706000Y488550D02*
Y489550D01*
X1746000Y488550D02*
Y489550D01*
X1706000Y488550D02*
X1746000D01*
Y537550D02*
Y538550D01*
X1706000Y537550D02*
Y538550D01*
X1746000D01*
X1580500Y286000D02*
Y287000D01*
X1620500Y286000D02*
Y287000D01*
X1580500Y286000D02*
X1620500D01*
Y335000D02*
Y336000D01*
X1580500Y335000D02*
Y336000D01*
X1620500D01*
X1483000Y559250D02*
X1484300D01*
X1541700D02*
X1543000D01*
X1483000Y619250D02*
X1484300D01*
X1541700D02*
X1543000D01*
X1483000Y559250D02*
Y619250D01*
X1543000Y559250D02*
Y619250D01*
X1761000Y549000D02*
Y609000D01*
X1701000Y549000D02*
Y609000D01*
X1759700D02*
X1761000D01*
X1701000D02*
X1702300D01*
X1759700Y549000D02*
X1761000D01*
X1701000D02*
X1702300D01*
X1696250Y340250D02*
Y400250D01*
X1636250Y340250D02*
Y400250D01*
X1694950D02*
X1696250D01*
X1636250D02*
X1637550D01*
X1694950Y340250D02*
X1696250D01*
X1636250D02*
X1637550D01*
X599300Y259250D02*
X688700D01*
Y273550D01*
Y296950D02*
Y313750D01*
X599300Y259250D02*
Y273550D01*
Y296950D02*
Y313750D01*
X473250Y400750D02*
Y460750D01*
X438250Y400750D02*
Y460750D01*
D13*
X1039165Y755238D02*
X1055165D01*
X1039165Y721238D02*
X1055165D01*
X1039165D02*
Y756238D01*
X1055165D01*
Y721238D02*
Y756238D01*
X1039165Y754738D02*
X1055165D01*
X1124415Y752238D02*
X1140415D01*
Y718738D02*
Y753738D01*
X1124415D02*
X1140415D01*
X1124415Y718738D02*
Y753738D01*
Y718738D02*
X1140415D01*
X1124415Y752738D02*
X1140415D01*
X1018665Y755488D02*
X1034665D01*
Y721988D02*
Y756988D01*
X1018665D02*
X1034665D01*
X1018665Y721988D02*
Y756988D01*
Y721988D02*
X1034665D01*
X1018665Y755988D02*
X1034665D01*
X891165Y673238D02*
Y689238D01*
X925165Y673238D02*
Y689238D01*
X890165D02*
X925165D01*
X890165Y673238D02*
Y689238D01*
Y673238D02*
X925165D01*
X891665D02*
Y689238D01*
X891915Y711488D02*
Y727488D01*
X925915Y711488D02*
Y727488D01*
X890915D02*
X925915D01*
X890915Y711488D02*
Y727488D01*
Y711488D02*
X925915D01*
X892415D02*
Y727488D01*
X892165Y748488D02*
Y764488D01*
X926165Y748488D02*
Y764488D01*
X891165D02*
X926165D01*
X891165Y748488D02*
Y764488D01*
Y748488D02*
X926165D01*
X892665D02*
Y764488D01*
D14*
X694750Y426500D02*
X702250D01*
X662250D02*
X669750D01*
X662250Y351500D02*
X669750D01*
X694750D02*
X702250D01*
X672250Y382000D02*
X682250Y392000D01*
X672250Y382000D02*
X692250D01*
X682250Y392000D02*
X692250Y382000D01*
X662250Y351500D02*
Y426500D01*
X702250Y351500D02*
Y426500D01*
D17*
X1847250Y769000D02*
X1852250D01*
D170*
X682250Y393997D02*
D03*
M02*
