G04*
G04 #@! TF.GenerationSoftware,Altium Limited,Altium Designer,23.6.0 (18)*
G04*
G04 Layer_Color=8388736*
%FSLAX44Y44*%
%MOMM*%
G71*
G04*
G04 #@! TF.SameCoordinates,A137800D-7D6B-43E2-A44D-125AE26CC9B3*
G04*
G04*
G04 #@! TF.FilePolarity,Negative*
G04*
G01*
G75*
%ADD56R,1.2032X1.3032*%
%ADD57R,1.3032X1.2032*%
%ADD58R,1.7032X1.6032*%
%ADD59R,1.6032X0.8032*%
%ADD60R,2.2032X0.6532*%
%ADD61R,0.7032X0.9032*%
%ADD62R,1.2532X2.4032*%
%ADD63R,1.2032X1.2532*%
%ADD64R,0.7000X1.2400*%
%ADD65R,0.4000X1.2400*%
%ADD66R,2.3532X0.8532*%
%ADD67R,0.8532X2.3532*%
%ADD68R,3.2032X2.2032*%
%ADD69R,1.3032X1.3032*%
%ADD70R,1.7732X0.6132*%
%ADD71R,1.9932X2.4132*%
%ADD72R,1.3032X1.3032*%
%ADD73R,2.8032X2.1032*%
%ADD74R,1.7032X1.0032*%
%ADD75R,3.2032X1.8032*%
%ADD76R,2.2032X6.9132*%
%ADD77R,2.4032X3.0032*%
%ADD78C,0.4032*%
G04:AMPARAMS|DCode=79|XSize=1.6732mm|YSize=0.4832mm|CornerRadius=0.1366mm|HoleSize=0mm|Usage=FLASHONLY|Rotation=0.000|XOffset=0mm|YOffset=0mm|HoleType=Round|Shape=RoundedRectangle|*
%AMROUNDEDRECTD79*
21,1,1.6732,0.2100,0,0,0.0*
21,1,1.4000,0.4832,0,0,0.0*
1,1,0.2732,0.7000,-0.1050*
1,1,0.2732,-0.7000,-0.1050*
1,1,0.2732,-0.7000,0.1050*
1,1,0.2732,0.7000,0.1050*
%
%ADD79ROUNDEDRECTD79*%
G04:AMPARAMS|DCode=80|XSize=1.6732mm|YSize=0.4832mm|CornerRadius=0.1366mm|HoleSize=0mm|Usage=FLASHONLY|Rotation=90.000|XOffset=0mm|YOffset=0mm|HoleType=Round|Shape=RoundedRectangle|*
%AMROUNDEDRECTD80*
21,1,1.6732,0.2100,0,0,90.0*
21,1,1.4000,0.4832,0,0,90.0*
1,1,0.2732,0.1050,0.7000*
1,1,0.2732,0.1050,-0.7000*
1,1,0.2732,-0.1050,-0.7000*
1,1,0.2732,-0.1050,0.7000*
%
%ADD80ROUNDEDRECTD80*%
%ADD81R,0.6782X0.4532*%
%ADD82R,0.4532X0.6782*%
%ADD83R,0.5532X0.7932*%
%ADD84R,0.7932X0.5532*%
G04:AMPARAMS|DCode=85|XSize=0.5832mm|YSize=0.5532mm|CornerRadius=0.1174mm|HoleSize=0mm|Usage=FLASHONLY|Rotation=0.000|XOffset=0mm|YOffset=0mm|HoleType=Round|Shape=RoundedRectangle|*
%AMROUNDEDRECTD85*
21,1,0.5832,0.3185,0,0,0.0*
21,1,0.3485,0.5532,0,0,0.0*
1,1,0.2347,0.1743,-0.1593*
1,1,0.2347,-0.1743,-0.1593*
1,1,0.2347,-0.1743,0.1593*
1,1,0.2347,0.1743,0.1593*
%
%ADD85ROUNDEDRECTD85*%
%ADD86R,0.5032X0.7032*%
%ADD87R,0.7032X0.5032*%
%ADD88R,0.6032X0.5032*%
%ADD89R,0.5032X0.6032*%
%ADD90O,1.8032X0.8032*%
%ADD91R,2.1844X0.7366*%
%ADD92C,0.8032*%
%ADD93O,1.1032X2.2032*%
%ADD94O,1.1032X1.9032*%
%ADD95C,1.7032*%
%ADD96O,1.9032X1.1032*%
%ADD97O,2.2032X1.1032*%
%ADD98O,1.4032X2.6032*%
%ADD99R,3.9192X3.9192*%
%ADD100C,3.9192*%
%ADD101R,4.2032X51.2032*%
%ADD102C,1.0032*%
%ADD103C,0.9032*%
D56*
X991665Y732988D02*
D03*
Y749988D02*
D03*
X962415D02*
D03*
Y732988D02*
D03*
X976415Y749988D02*
D03*
Y732988D02*
D03*
X1067915Y750988D02*
D03*
Y733988D02*
D03*
X1054665Y750738D02*
D03*
Y733738D02*
D03*
X1080665Y734238D02*
D03*
Y751238D02*
D03*
X1186165Y732988D02*
D03*
Y749988D02*
D03*
X1149665D02*
D03*
Y732988D02*
D03*
X1167915D02*
D03*
Y749988D02*
D03*
X950665Y348988D02*
D03*
Y331988D02*
D03*
X920915Y350238D02*
D03*
Y333238D02*
D03*
X978915Y368488D02*
D03*
Y351488D02*
D03*
X1673250Y542250D02*
D03*
Y559250D02*
D03*
X1648250Y542750D02*
D03*
Y559750D02*
D03*
X1751250Y478500D02*
D03*
Y461500D02*
D03*
X1732250Y461250D02*
D03*
Y478250D02*
D03*
X412250Y556750D02*
D03*
Y573750D02*
D03*
X591000Y764500D02*
D03*
Y747500D02*
D03*
X424000Y510000D02*
D03*
Y527000D02*
D03*
X464250Y723500D02*
D03*
Y740500D02*
D03*
X427000Y592750D02*
D03*
Y609750D02*
D03*
X460000Y592000D02*
D03*
Y609000D02*
D03*
X424000Y393000D02*
D03*
Y376000D02*
D03*
X682000Y436250D02*
D03*
Y419250D02*
D03*
X681000Y496750D02*
D03*
Y479750D02*
D03*
X680250Y569000D02*
D03*
Y552000D02*
D03*
X424000Y451000D02*
D03*
Y468000D02*
D03*
X424250Y430750D02*
D03*
Y413750D02*
D03*
X494000Y272500D02*
D03*
Y289500D02*
D03*
X474500Y272500D02*
D03*
Y289500D02*
D03*
X514000Y289000D02*
D03*
Y272000D02*
D03*
D57*
X999915Y773988D02*
D03*
X1016915D02*
D03*
X1065415Y774488D02*
D03*
X1082415D02*
D03*
X1137165Y773488D02*
D03*
X1154165D02*
D03*
X985915Y773738D02*
D03*
X968915D02*
D03*
X1050915Y774488D02*
D03*
X1033915D02*
D03*
X1118165Y773488D02*
D03*
X1101165D02*
D03*
X1230165Y518988D02*
D03*
X1213165D02*
D03*
X1180665Y306238D02*
D03*
X1163665D02*
D03*
X1176665Y286738D02*
D03*
X1159665D02*
D03*
X1164165Y348988D02*
D03*
X1181165D02*
D03*
X1162915Y261238D02*
D03*
X1179915D02*
D03*
X1180165Y382988D02*
D03*
X1197165D02*
D03*
X1583500Y556000D02*
D03*
X1600500D02*
D03*
X1471250Y604500D02*
D03*
X1454250D02*
D03*
X1613000Y524250D02*
D03*
X1630000D02*
D03*
X1601250Y576750D02*
D03*
X1584250D02*
D03*
X1477750Y468500D02*
D03*
X1494750D02*
D03*
X1536000Y469000D02*
D03*
X1553000D02*
D03*
X1589250Y481750D02*
D03*
X1572250D02*
D03*
X1575500Y524500D02*
D03*
X1592500D02*
D03*
X1548750Y608750D02*
D03*
X1531750D02*
D03*
X1589250Y500000D02*
D03*
X1572250D02*
D03*
X678750Y632500D02*
D03*
X661750D02*
D03*
X399750Y327250D02*
D03*
X416750D02*
D03*
X680750Y662750D02*
D03*
X663750D02*
D03*
X489500Y646750D02*
D03*
X472500D02*
D03*
X489750Y628500D02*
D03*
X472750D02*
D03*
X526250Y744000D02*
D03*
X543250D02*
D03*
X449500Y657750D02*
D03*
X432500D02*
D03*
X410250Y628500D02*
D03*
X393250D02*
D03*
X410250Y647000D02*
D03*
X393250D02*
D03*
X681500Y676000D02*
D03*
X664500D02*
D03*
X673000Y264250D02*
D03*
X656000D02*
D03*
X672750Y283000D02*
D03*
X655750D02*
D03*
X567500Y282250D02*
D03*
X584500D02*
D03*
X567500Y264000D02*
D03*
X584500D02*
D03*
X584500Y300750D02*
D03*
X567500D02*
D03*
X458750Y760500D02*
D03*
X475750D02*
D03*
X401753Y739500D02*
D03*
X418753D02*
D03*
X401750Y720750D02*
D03*
X418750D02*
D03*
X401750Y758250D02*
D03*
X418750D02*
D03*
X566750Y703500D02*
D03*
X583750D02*
D03*
X520000Y680500D02*
D03*
X503000D02*
D03*
X520000Y698750D02*
D03*
X503000D02*
D03*
X566250Y666500D02*
D03*
X583250D02*
D03*
X566500Y685000D02*
D03*
X583500D02*
D03*
X611000Y644500D02*
D03*
X594000D02*
D03*
X638500Y621000D02*
D03*
X621500D02*
D03*
X524500Y606750D02*
D03*
X541500D02*
D03*
X526250Y587500D02*
D03*
X543250D02*
D03*
X590750Y587250D02*
D03*
X607750D02*
D03*
X485000Y336750D02*
D03*
X468000D02*
D03*
X645750Y337500D02*
D03*
X662750D02*
D03*
X585500Y336250D02*
D03*
X568500D02*
D03*
X549250D02*
D03*
X532250D02*
D03*
D58*
X1022695Y370648D02*
D03*
X1108695D02*
D03*
X1022695Y259148D02*
D03*
X1108695D02*
D03*
D59*
X1144195Y283148D02*
D03*
Y295848D02*
D03*
Y308548D02*
D03*
Y321248D02*
D03*
Y346648D02*
D03*
Y333948D02*
D03*
D60*
X1254165Y503288D02*
D03*
Y490588D02*
D03*
Y477888D02*
D03*
Y465188D02*
D03*
Y452488D02*
D03*
Y414388D02*
D03*
Y427088D02*
D03*
Y439788D02*
D03*
Y401688D02*
D03*
Y388988D02*
D03*
Y376288D02*
D03*
Y363588D02*
D03*
Y350888D02*
D03*
Y312788D02*
D03*
Y325488D02*
D03*
Y338188D02*
D03*
Y300088D02*
D03*
Y287388D02*
D03*
Y274688D02*
D03*
Y261988D02*
D03*
X1215165Y503288D02*
D03*
Y490588D02*
D03*
Y477888D02*
D03*
Y465188D02*
D03*
Y452488D02*
D03*
Y414388D02*
D03*
Y427088D02*
D03*
Y439788D02*
D03*
Y401688D02*
D03*
Y388988D02*
D03*
Y376288D02*
D03*
Y363588D02*
D03*
Y350888D02*
D03*
Y312788D02*
D03*
Y325488D02*
D03*
Y338188D02*
D03*
Y300088D02*
D03*
Y287388D02*
D03*
Y274688D02*
D03*
Y261988D02*
D03*
X834165Y262088D02*
D03*
Y274788D02*
D03*
Y287488D02*
D03*
Y300188D02*
D03*
Y338288D02*
D03*
Y325588D02*
D03*
Y312888D02*
D03*
Y350988D02*
D03*
Y363688D02*
D03*
Y376388D02*
D03*
Y389088D02*
D03*
Y401788D02*
D03*
Y439888D02*
D03*
Y427188D02*
D03*
Y414488D02*
D03*
Y452588D02*
D03*
Y465288D02*
D03*
Y477988D02*
D03*
Y490688D02*
D03*
Y503388D02*
D03*
X873165Y262088D02*
D03*
Y274788D02*
D03*
Y287488D02*
D03*
Y300188D02*
D03*
Y338288D02*
D03*
Y325588D02*
D03*
Y312888D02*
D03*
Y350988D02*
D03*
Y363688D02*
D03*
Y376388D02*
D03*
Y389088D02*
D03*
Y401788D02*
D03*
Y439888D02*
D03*
Y427188D02*
D03*
Y414488D02*
D03*
Y452588D02*
D03*
Y465288D02*
D03*
Y477988D02*
D03*
Y490688D02*
D03*
Y503388D02*
D03*
X1254165Y771988D02*
D03*
Y759288D02*
D03*
Y746588D02*
D03*
Y733888D02*
D03*
Y721188D02*
D03*
Y683088D02*
D03*
Y695788D02*
D03*
Y708488D02*
D03*
Y670388D02*
D03*
Y657688D02*
D03*
Y644988D02*
D03*
Y632288D02*
D03*
Y619588D02*
D03*
Y581488D02*
D03*
Y594188D02*
D03*
Y606888D02*
D03*
Y568788D02*
D03*
Y556088D02*
D03*
Y543388D02*
D03*
Y530688D02*
D03*
X1215165Y771988D02*
D03*
Y759288D02*
D03*
Y746588D02*
D03*
Y733888D02*
D03*
Y721188D02*
D03*
Y683088D02*
D03*
Y695788D02*
D03*
Y708488D02*
D03*
Y670388D02*
D03*
Y657688D02*
D03*
Y644988D02*
D03*
Y632288D02*
D03*
Y619588D02*
D03*
Y581488D02*
D03*
Y594188D02*
D03*
Y606888D02*
D03*
Y568788D02*
D03*
Y556088D02*
D03*
Y543388D02*
D03*
Y530688D02*
D03*
X873165Y771988D02*
D03*
Y759288D02*
D03*
Y746588D02*
D03*
Y733888D02*
D03*
Y721188D02*
D03*
Y683088D02*
D03*
Y695788D02*
D03*
Y708488D02*
D03*
Y670388D02*
D03*
Y657688D02*
D03*
Y644988D02*
D03*
Y632288D02*
D03*
Y619588D02*
D03*
Y581488D02*
D03*
Y594188D02*
D03*
Y606888D02*
D03*
Y568788D02*
D03*
Y556088D02*
D03*
Y543388D02*
D03*
Y530688D02*
D03*
X834165Y771988D02*
D03*
Y759288D02*
D03*
Y746588D02*
D03*
Y733888D02*
D03*
Y721188D02*
D03*
Y683088D02*
D03*
Y695788D02*
D03*
Y708488D02*
D03*
Y670388D02*
D03*
Y657688D02*
D03*
Y644988D02*
D03*
Y632288D02*
D03*
Y619588D02*
D03*
Y581488D02*
D03*
Y594188D02*
D03*
Y606888D02*
D03*
Y568788D02*
D03*
Y556088D02*
D03*
Y543388D02*
D03*
Y530688D02*
D03*
X1389250Y533450D02*
D03*
Y546150D02*
D03*
Y558850D02*
D03*
Y571550D02*
D03*
Y584250D02*
D03*
Y622350D02*
D03*
Y609650D02*
D03*
Y596950D02*
D03*
Y635050D02*
D03*
Y647750D02*
D03*
Y660450D02*
D03*
Y673150D02*
D03*
Y685850D02*
D03*
Y723950D02*
D03*
Y711250D02*
D03*
Y698550D02*
D03*
Y736650D02*
D03*
Y749350D02*
D03*
Y762050D02*
D03*
Y774750D02*
D03*
X1428250Y533450D02*
D03*
Y546150D02*
D03*
Y558850D02*
D03*
Y571550D02*
D03*
Y584250D02*
D03*
Y622350D02*
D03*
Y609650D02*
D03*
Y596950D02*
D03*
Y635050D02*
D03*
Y647750D02*
D03*
Y660450D02*
D03*
Y673150D02*
D03*
Y685850D02*
D03*
Y723950D02*
D03*
Y711250D02*
D03*
Y698550D02*
D03*
Y736650D02*
D03*
Y749350D02*
D03*
Y762050D02*
D03*
Y774750D02*
D03*
X1780250Y533450D02*
D03*
Y546150D02*
D03*
Y558850D02*
D03*
Y571550D02*
D03*
Y584250D02*
D03*
Y622350D02*
D03*
Y609650D02*
D03*
Y596950D02*
D03*
Y635050D02*
D03*
Y647750D02*
D03*
Y660450D02*
D03*
Y673150D02*
D03*
Y685850D02*
D03*
Y723950D02*
D03*
Y711250D02*
D03*
Y698550D02*
D03*
Y736650D02*
D03*
Y749350D02*
D03*
Y762050D02*
D03*
Y774750D02*
D03*
X1819250Y533450D02*
D03*
Y546150D02*
D03*
Y558850D02*
D03*
Y571550D02*
D03*
Y584250D02*
D03*
Y622350D02*
D03*
Y609650D02*
D03*
Y596950D02*
D03*
Y635050D02*
D03*
Y647750D02*
D03*
Y660450D02*
D03*
Y673150D02*
D03*
Y685850D02*
D03*
Y723950D02*
D03*
Y711250D02*
D03*
Y698550D02*
D03*
Y736650D02*
D03*
Y749350D02*
D03*
Y762050D02*
D03*
Y774750D02*
D03*
X1428250Y506150D02*
D03*
Y493450D02*
D03*
Y480750D02*
D03*
Y468050D02*
D03*
Y429950D02*
D03*
Y442650D02*
D03*
Y455350D02*
D03*
Y417250D02*
D03*
Y404550D02*
D03*
Y391850D02*
D03*
Y379150D02*
D03*
Y366450D02*
D03*
Y328350D02*
D03*
Y341050D02*
D03*
Y353750D02*
D03*
Y315650D02*
D03*
Y302950D02*
D03*
Y290250D02*
D03*
Y277550D02*
D03*
Y264850D02*
D03*
X1389250Y506150D02*
D03*
Y493450D02*
D03*
Y480750D02*
D03*
Y468050D02*
D03*
Y429950D02*
D03*
Y442650D02*
D03*
Y455350D02*
D03*
Y417250D02*
D03*
Y404550D02*
D03*
Y391850D02*
D03*
Y379150D02*
D03*
Y366450D02*
D03*
Y328350D02*
D03*
Y341050D02*
D03*
Y353750D02*
D03*
Y315650D02*
D03*
Y302950D02*
D03*
Y290250D02*
D03*
Y277550D02*
D03*
Y264850D02*
D03*
X1819250Y506150D02*
D03*
Y493450D02*
D03*
Y480750D02*
D03*
Y468050D02*
D03*
Y429950D02*
D03*
Y442650D02*
D03*
Y455350D02*
D03*
Y417250D02*
D03*
Y404550D02*
D03*
Y391850D02*
D03*
Y379150D02*
D03*
Y366450D02*
D03*
Y328350D02*
D03*
Y341050D02*
D03*
Y353750D02*
D03*
Y315650D02*
D03*
Y302950D02*
D03*
Y290250D02*
D03*
Y277550D02*
D03*
Y264850D02*
D03*
X1780250Y506150D02*
D03*
Y493450D02*
D03*
Y480750D02*
D03*
Y468050D02*
D03*
Y429950D02*
D03*
Y442650D02*
D03*
Y455350D02*
D03*
Y417250D02*
D03*
Y404550D02*
D03*
Y391850D02*
D03*
Y379150D02*
D03*
Y366450D02*
D03*
Y328350D02*
D03*
Y341050D02*
D03*
Y353750D02*
D03*
Y315650D02*
D03*
Y302950D02*
D03*
Y290250D02*
D03*
Y277550D02*
D03*
Y264850D02*
D03*
X365500Y775000D02*
D03*
Y762300D02*
D03*
Y749600D02*
D03*
Y736900D02*
D03*
Y698800D02*
D03*
Y711500D02*
D03*
Y724200D02*
D03*
Y686100D02*
D03*
Y673400D02*
D03*
Y660700D02*
D03*
Y648000D02*
D03*
Y635300D02*
D03*
Y597200D02*
D03*
Y609900D02*
D03*
Y622600D02*
D03*
Y584500D02*
D03*
Y571800D02*
D03*
Y559100D02*
D03*
Y546400D02*
D03*
Y533700D02*
D03*
X326500Y775000D02*
D03*
Y762300D02*
D03*
Y749600D02*
D03*
Y736900D02*
D03*
Y698800D02*
D03*
Y711500D02*
D03*
Y724200D02*
D03*
Y686100D02*
D03*
Y673400D02*
D03*
Y660700D02*
D03*
Y648000D02*
D03*
Y635300D02*
D03*
Y597200D02*
D03*
Y609900D02*
D03*
Y622600D02*
D03*
Y584500D02*
D03*
Y571800D02*
D03*
Y559100D02*
D03*
Y546400D02*
D03*
Y533700D02*
D03*
X746500Y775000D02*
D03*
Y762300D02*
D03*
Y749600D02*
D03*
Y736900D02*
D03*
Y698800D02*
D03*
Y711500D02*
D03*
Y724200D02*
D03*
Y686100D02*
D03*
Y673400D02*
D03*
Y660700D02*
D03*
Y648000D02*
D03*
Y635300D02*
D03*
Y597200D02*
D03*
Y609900D02*
D03*
Y622600D02*
D03*
Y584500D02*
D03*
Y571800D02*
D03*
Y559100D02*
D03*
Y546400D02*
D03*
Y533700D02*
D03*
X707500Y775000D02*
D03*
Y762300D02*
D03*
Y749600D02*
D03*
Y736900D02*
D03*
Y698800D02*
D03*
Y711500D02*
D03*
Y724200D02*
D03*
Y686100D02*
D03*
Y673400D02*
D03*
Y660700D02*
D03*
Y648000D02*
D03*
Y635300D02*
D03*
Y597200D02*
D03*
Y609900D02*
D03*
Y622600D02*
D03*
Y584500D02*
D03*
Y571800D02*
D03*
Y559100D02*
D03*
Y546400D02*
D03*
Y533700D02*
D03*
X365500Y506400D02*
D03*
Y493700D02*
D03*
Y481000D02*
D03*
Y468300D02*
D03*
Y430200D02*
D03*
Y442900D02*
D03*
Y455600D02*
D03*
Y417500D02*
D03*
Y404800D02*
D03*
Y392100D02*
D03*
Y379400D02*
D03*
Y366700D02*
D03*
Y328600D02*
D03*
Y341300D02*
D03*
Y354000D02*
D03*
Y315900D02*
D03*
Y303200D02*
D03*
Y290500D02*
D03*
Y277800D02*
D03*
Y265100D02*
D03*
X326500Y506400D02*
D03*
Y493700D02*
D03*
Y481000D02*
D03*
Y468300D02*
D03*
Y430200D02*
D03*
Y442900D02*
D03*
Y455600D02*
D03*
Y417500D02*
D03*
Y404800D02*
D03*
Y392100D02*
D03*
Y379400D02*
D03*
Y366700D02*
D03*
Y328600D02*
D03*
Y341300D02*
D03*
Y354000D02*
D03*
Y315900D02*
D03*
Y303200D02*
D03*
Y290500D02*
D03*
Y277800D02*
D03*
Y265100D02*
D03*
X746500Y506400D02*
D03*
Y493700D02*
D03*
Y481000D02*
D03*
Y468300D02*
D03*
Y430200D02*
D03*
Y442900D02*
D03*
Y455600D02*
D03*
Y417500D02*
D03*
Y404800D02*
D03*
Y392100D02*
D03*
Y379400D02*
D03*
Y366700D02*
D03*
Y328600D02*
D03*
Y341300D02*
D03*
Y354000D02*
D03*
Y315900D02*
D03*
Y303200D02*
D03*
Y290500D02*
D03*
Y277800D02*
D03*
Y265100D02*
D03*
X707500Y506400D02*
D03*
Y493700D02*
D03*
Y481000D02*
D03*
Y468300D02*
D03*
Y430200D02*
D03*
Y442900D02*
D03*
Y455600D02*
D03*
Y417500D02*
D03*
Y404800D02*
D03*
Y392100D02*
D03*
Y379400D02*
D03*
Y366700D02*
D03*
Y328600D02*
D03*
Y341300D02*
D03*
Y354000D02*
D03*
Y315900D02*
D03*
Y303200D02*
D03*
Y290500D02*
D03*
Y277800D02*
D03*
Y265100D02*
D03*
D61*
X951915Y763738D02*
D03*
X961915D02*
D03*
X1058906Y763172D02*
D03*
X1048906D02*
D03*
X1163665Y762988D02*
D03*
X1153665D02*
D03*
D62*
X917415Y740988D02*
D03*
X946915D02*
D03*
X1041165Y740488D02*
D03*
X1011665D02*
D03*
X1104665Y740738D02*
D03*
X1134165D02*
D03*
D63*
X932165Y756238D02*
D03*
X1026415Y755738D02*
D03*
X1119415Y755988D02*
D03*
D64*
X970065Y308688D02*
D03*
X962065D02*
D03*
X914065D02*
D03*
X906065D02*
D03*
D65*
X940565D02*
D03*
X945565D02*
D03*
X950565D02*
D03*
X955565D02*
D03*
X935565D02*
D03*
X930565D02*
D03*
X925565D02*
D03*
X920565D02*
D03*
D66*
X911915Y485988D02*
D03*
Y498988D02*
D03*
Y615988D02*
D03*
Y589988D02*
D03*
Y576988D02*
D03*
Y602988D02*
D03*
Y667988D02*
D03*
Y628988D02*
D03*
Y641988D02*
D03*
Y654988D02*
D03*
Y680988D02*
D03*
Y563988D02*
D03*
Y550988D02*
D03*
Y537988D02*
D03*
Y524988D02*
D03*
Y511988D02*
D03*
X1190915Y680988D02*
D03*
Y667988D02*
D03*
Y654988D02*
D03*
Y641988D02*
D03*
Y628988D02*
D03*
Y615988D02*
D03*
Y602988D02*
D03*
Y589988D02*
D03*
Y576988D02*
D03*
Y563988D02*
D03*
Y550988D02*
D03*
Y537988D02*
D03*
Y524988D02*
D03*
Y511988D02*
D03*
X911915Y472988D02*
D03*
Y459988D02*
D03*
Y446988D02*
D03*
Y433988D02*
D03*
X1190915Y498988D02*
D03*
Y485988D02*
D03*
Y472988D02*
D03*
Y459988D02*
D03*
Y446988D02*
D03*
Y433988D02*
D03*
D67*
X925415Y712238D02*
D03*
X938415D02*
D03*
X951415D02*
D03*
X964415D02*
D03*
X977415D02*
D03*
X990415D02*
D03*
X1003415D02*
D03*
X1021415Y711988D02*
D03*
X1034415D02*
D03*
X1047415D02*
D03*
X1060415D02*
D03*
X1073415D02*
D03*
X1086415D02*
D03*
X1177415D02*
D03*
X1164415D02*
D03*
X1151415D02*
D03*
X1138415D02*
D03*
X1125415D02*
D03*
X1112415D02*
D03*
X1099415D02*
D03*
X925415Y402988D02*
D03*
X938415D02*
D03*
X951415D02*
D03*
X964415D02*
D03*
X977415D02*
D03*
X990415D02*
D03*
X1003415D02*
D03*
X1021415D02*
D03*
X1034415D02*
D03*
X1047415D02*
D03*
X1060415D02*
D03*
X1073415D02*
D03*
X1177415D02*
D03*
X1164415D02*
D03*
X1099415D02*
D03*
X1086415D02*
D03*
X1112415D02*
D03*
X1125415D02*
D03*
X1151415D02*
D03*
X1138415D02*
D03*
D68*
X957366Y569707D02*
D03*
X957616Y601707D02*
D03*
Y633707D02*
D03*
X1005415Y569738D02*
D03*
X1005665Y593988D02*
D03*
X1005665Y633738D02*
D03*
X1053665Y601488D02*
D03*
Y633488D02*
D03*
X1005415Y537738D02*
D03*
X957366Y537707D02*
D03*
Y505707D02*
D03*
X1149915Y633488D02*
D03*
X1101866Y633457D02*
D03*
X1149915Y601488D02*
D03*
X1101866Y601457D02*
D03*
X1149915Y569488D02*
D03*
X1101915D02*
D03*
X1149665Y537488D02*
D03*
X1101616Y537457D02*
D03*
X1149665Y505488D02*
D03*
X1053415Y505488D02*
D03*
X1005366Y505457D02*
D03*
X957366Y473707D02*
D03*
X1005366Y473457D02*
D03*
X1101616Y505457D02*
D03*
X1149665Y473488D02*
D03*
X1053616Y473457D02*
D03*
X1101616D02*
D03*
D69*
X1037665Y579738D02*
D03*
X1053819Y579566D02*
D03*
X1069915Y579488D02*
D03*
X1037915Y563738D02*
D03*
X1070021Y563500D02*
D03*
X1054068Y563324D02*
D03*
X1037915Y547738D02*
D03*
X1054069Y547566D02*
D03*
X1070165Y547488D02*
D03*
X1038165Y531738D02*
D03*
X1070271Y531500D02*
D03*
X1054415Y531488D02*
D03*
X963915Y447988D02*
D03*
X943915D02*
D03*
X1043915Y447738D02*
D03*
X1023915D02*
D03*
X983915D02*
D03*
X1003915D02*
D03*
X943915Y427988D02*
D03*
X963915D02*
D03*
X1043915Y427738D02*
D03*
X1023915D02*
D03*
X1003915D02*
D03*
X983915D02*
D03*
X1163915Y447738D02*
D03*
X1063915D02*
D03*
X1103915D02*
D03*
X1083915D02*
D03*
X1123915D02*
D03*
X1143915D02*
D03*
X1063915Y427738D02*
D03*
X1083915D02*
D03*
X1123915D02*
D03*
X1143915D02*
D03*
X1163915D02*
D03*
X1103915D02*
D03*
D70*
X1552580Y481000D02*
D03*
Y487500D02*
D03*
Y494000D02*
D03*
Y500500D02*
D03*
Y507000D02*
D03*
Y513500D02*
D03*
Y520000D02*
D03*
Y526500D02*
D03*
Y533000D02*
D03*
Y539500D02*
D03*
Y546000D02*
D03*
Y552500D02*
D03*
Y559000D02*
D03*
Y565500D02*
D03*
X1495080Y481000D02*
D03*
Y487500D02*
D03*
Y494000D02*
D03*
Y500500D02*
D03*
Y507000D02*
D03*
Y513500D02*
D03*
Y520000D02*
D03*
Y526500D02*
D03*
Y533000D02*
D03*
Y539500D02*
D03*
Y546000D02*
D03*
Y552500D02*
D03*
Y559000D02*
D03*
Y565500D02*
D03*
D71*
X1576400Y602250D02*
D03*
X1605600D02*
D03*
X1520400Y584000D02*
D03*
X1549600D02*
D03*
X1758250Y532000D02*
D03*
X1729050D02*
D03*
X1758100Y562750D02*
D03*
X1728900D02*
D03*
D72*
X1648250Y603750D02*
D03*
X1648250Y581750D02*
D03*
X1674250Y603750D02*
D03*
X1674250Y581750D02*
D03*
X388000Y589750D02*
D03*
X388000Y567750D02*
D03*
X388500Y500750D02*
D03*
X388500Y478750D02*
D03*
X388250Y545250D02*
D03*
X388250Y523250D02*
D03*
X388500Y456000D02*
D03*
X388500Y434000D02*
D03*
D73*
X1463250Y538000D02*
D03*
Y581000D02*
D03*
D74*
X1367000Y354250D02*
D03*
Y341750D02*
D03*
Y329250D02*
D03*
Y316750D02*
D03*
Y304250D02*
D03*
Y291750D02*
D03*
X1842000Y646250D02*
D03*
Y633750D02*
D03*
Y621250D02*
D03*
Y608750D02*
D03*
X1367000Y488500D02*
D03*
Y476000D02*
D03*
Y463500D02*
D03*
Y451000D02*
D03*
Y438500D02*
D03*
Y426000D02*
D03*
Y560250D02*
D03*
Y572750D02*
D03*
Y585250D02*
D03*
Y597750D02*
D03*
Y610250D02*
D03*
Y622750D02*
D03*
Y635250D02*
D03*
X1841750Y537000D02*
D03*
Y524500D02*
D03*
Y512000D02*
D03*
Y499500D02*
D03*
X1367000Y707000D02*
D03*
Y719500D02*
D03*
Y732000D02*
D03*
Y744500D02*
D03*
X1841750Y427250D02*
D03*
Y414750D02*
D03*
Y402250D02*
D03*
Y389750D02*
D03*
D75*
X1338000Y379750D02*
D03*
Y266250D02*
D03*
X1871000Y671750D02*
D03*
Y583250D02*
D03*
X1338000Y514000D02*
D03*
Y400500D02*
D03*
Y534750D02*
D03*
Y660750D02*
D03*
X1870750Y562500D02*
D03*
Y474000D02*
D03*
X1338000Y681500D02*
D03*
Y770000D02*
D03*
X1870750Y452750D02*
D03*
Y364250D02*
D03*
D76*
X1709110Y484000D02*
D03*
X1651390D02*
D03*
D77*
X1752250Y598750D02*
D03*
X1707250D02*
D03*
D78*
X574240Y740920D02*
D03*
X568580Y746580D02*
D03*
X562920D02*
D03*
Y740920D02*
D03*
Y735260D02*
D03*
X568580D02*
D03*
X565750Y743750D02*
D03*
Y738090D02*
D03*
X574240Y746580D02*
D03*
Y735260D02*
D03*
X571410Y743750D02*
D03*
Y738090D02*
D03*
D79*
X663200Y549500D02*
D03*
Y544500D02*
D03*
Y539500D02*
D03*
Y534500D02*
D03*
Y529500D02*
D03*
Y524500D02*
D03*
Y519500D02*
D03*
Y514500D02*
D03*
Y509500D02*
D03*
Y504500D02*
D03*
Y499500D02*
D03*
Y494500D02*
D03*
Y489500D02*
D03*
Y484500D02*
D03*
Y479500D02*
D03*
Y474500D02*
D03*
Y469500D02*
D03*
Y464500D02*
D03*
Y459500D02*
D03*
Y454500D02*
D03*
Y449500D02*
D03*
Y444500D02*
D03*
Y439500D02*
D03*
Y434500D02*
D03*
Y429500D02*
D03*
Y424500D02*
D03*
Y419500D02*
D03*
Y414500D02*
D03*
Y409500D02*
D03*
Y404500D02*
D03*
Y399500D02*
D03*
Y394500D02*
D03*
Y389500D02*
D03*
Y384500D02*
D03*
Y379500D02*
D03*
Y374500D02*
D03*
X449800D02*
D03*
Y379500D02*
D03*
Y384500D02*
D03*
Y389500D02*
D03*
Y394500D02*
D03*
Y399500D02*
D03*
Y404500D02*
D03*
Y409500D02*
D03*
Y414500D02*
D03*
Y419500D02*
D03*
Y424500D02*
D03*
Y429500D02*
D03*
Y434500D02*
D03*
Y439500D02*
D03*
Y444500D02*
D03*
Y449500D02*
D03*
Y454500D02*
D03*
Y459500D02*
D03*
Y464500D02*
D03*
Y469500D02*
D03*
Y474500D02*
D03*
Y479500D02*
D03*
Y484500D02*
D03*
Y489500D02*
D03*
Y494500D02*
D03*
Y499500D02*
D03*
Y504500D02*
D03*
Y509500D02*
D03*
Y514500D02*
D03*
Y519500D02*
D03*
Y524500D02*
D03*
Y529500D02*
D03*
Y534500D02*
D03*
Y539500D02*
D03*
Y544500D02*
D03*
Y549500D02*
D03*
D80*
X469000Y568700D02*
D03*
X474000D02*
D03*
X479000D02*
D03*
X484000D02*
D03*
X489000D02*
D03*
X494000D02*
D03*
X499000D02*
D03*
X504000D02*
D03*
X509000D02*
D03*
X514000D02*
D03*
X519000D02*
D03*
X524000D02*
D03*
X529000D02*
D03*
X534000D02*
D03*
X539000D02*
D03*
X544000D02*
D03*
X549000D02*
D03*
X554000D02*
D03*
X559000D02*
D03*
X564000D02*
D03*
X569000D02*
D03*
X574000D02*
D03*
X579000D02*
D03*
X584000D02*
D03*
X589000D02*
D03*
X594000D02*
D03*
X599000D02*
D03*
X604000D02*
D03*
X609000D02*
D03*
X614000D02*
D03*
X619000D02*
D03*
X624000D02*
D03*
X629000D02*
D03*
X634000D02*
D03*
X639000D02*
D03*
X644000D02*
D03*
Y355300D02*
D03*
X639000D02*
D03*
X634000D02*
D03*
X629000D02*
D03*
X624000D02*
D03*
X619000D02*
D03*
X614000D02*
D03*
X609000D02*
D03*
X604000D02*
D03*
X599000D02*
D03*
X594000D02*
D03*
X589000D02*
D03*
X584000D02*
D03*
X579000D02*
D03*
X574000D02*
D03*
X569000D02*
D03*
X564000D02*
D03*
X559000D02*
D03*
X554000D02*
D03*
X549000D02*
D03*
X544000D02*
D03*
X539000D02*
D03*
X534000D02*
D03*
X529000D02*
D03*
X524000D02*
D03*
X519000D02*
D03*
X514000D02*
D03*
X509000D02*
D03*
X504000D02*
D03*
X499000D02*
D03*
X494000D02*
D03*
X489000D02*
D03*
X484000D02*
D03*
X479000D02*
D03*
X474000D02*
D03*
X469000D02*
D03*
D81*
X432125Y636500D02*
D03*
Y631500D02*
D03*
Y626500D02*
D03*
Y641500D02*
D03*
X455375Y636500D02*
D03*
Y631500D02*
D03*
Y626500D02*
D03*
Y641500D02*
D03*
D82*
X443750Y643125D02*
D03*
X438750D02*
D03*
X448750D02*
D03*
X443750Y624875D02*
D03*
X438750D02*
D03*
X448750D02*
D03*
D83*
X624400Y265850D02*
D03*
Y304150D02*
D03*
D84*
X612750Y270000D02*
D03*
Y275000D02*
D03*
Y280000D02*
D03*
Y285000D02*
D03*
Y290000D02*
D03*
Y295000D02*
D03*
Y300000D02*
D03*
X636050D02*
D03*
Y295000D02*
D03*
Y290000D02*
D03*
Y285000D02*
D03*
Y280000D02*
D03*
Y275000D02*
D03*
Y270000D02*
D03*
D85*
X449153Y744500D02*
D03*
Y739500D02*
D03*
Y734500D02*
D03*
X444003Y731850D02*
D03*
X439003D02*
D03*
X433853Y734500D02*
D03*
Y739500D02*
D03*
Y744500D02*
D03*
X439003Y747150D02*
D03*
X444003D02*
D03*
D86*
X550000Y674000D02*
D03*
X545000D02*
D03*
X540000D02*
D03*
X535000D02*
D03*
X550000Y697000D02*
D03*
X545000D02*
D03*
X540000D02*
D03*
X535000D02*
D03*
D87*
X551500Y680500D02*
D03*
Y685500D02*
D03*
Y690500D02*
D03*
X533500Y680500D02*
D03*
Y685500D02*
D03*
Y690500D02*
D03*
D88*
X624000Y653750D02*
D03*
Y648750D02*
D03*
Y643750D02*
D03*
Y638750D02*
D03*
X648500D02*
D03*
Y643750D02*
D03*
Y648750D02*
D03*
Y653750D02*
D03*
D89*
X643750Y658500D02*
D03*
X638750D02*
D03*
X633750D02*
D03*
X628750D02*
D03*
Y634000D02*
D03*
X633750D02*
D03*
X638750D02*
D03*
X643750D02*
D03*
D90*
X609250Y767050D02*
D03*
Y754350D02*
D03*
Y741650D02*
D03*
Y728950D02*
D03*
X681250D02*
D03*
Y741650D02*
D03*
Y754350D02*
D03*
Y767050D02*
D03*
D91*
X401612Y307800D02*
D03*
Y295100D02*
D03*
Y282400D02*
D03*
Y269700D02*
D03*
X450888D02*
D03*
Y282400D02*
D03*
Y295100D02*
D03*
Y307800D02*
D03*
D92*
X966965Y297988D02*
D03*
X909165D02*
D03*
X1845200Y274600D02*
D03*
Y332400D02*
D03*
X615100Y322050D02*
D03*
X672900D02*
D03*
X1407449Y442206D02*
D03*
X1409699Y455206D02*
D03*
X1373250Y373250D02*
D03*
X1364199Y366706D02*
D03*
X1354000Y324750D02*
D03*
X1347767Y337138D02*
D03*
X1870017Y402388D02*
D03*
X1870267Y415388D02*
D03*
X1872017Y426888D02*
D03*
X1874767Y439638D02*
D03*
X1511596Y455980D02*
D03*
X1701000Y390250D02*
D03*
X1623383Y261438D02*
D03*
X1758383Y392688D02*
D03*
X1545633Y294188D02*
D03*
X1424383Y524438D02*
D03*
X1756705Y339434D02*
D03*
X1645705Y700684D02*
D03*
X1408455Y762184D02*
D03*
X1754955Y271183D02*
D03*
X1366705Y390933D02*
D03*
X1339205Y342426D02*
D03*
X1848000Y378250D02*
D03*
X1842500Y489250D02*
D03*
X1623000Y496750D02*
D03*
X1537500Y640250D02*
D03*
X1540500Y736750D02*
D03*
X1451213Y465497D02*
D03*
X1409500Y696750D02*
D03*
X1468907Y566685D02*
D03*
X1809000Y679000D02*
D03*
X1672750Y498000D02*
D03*
X1745000Y396750D02*
D03*
X1434500Y500500D02*
D03*
X1528500Y441500D02*
D03*
X1590955Y603750D02*
D03*
X1626250Y569750D02*
D03*
X1791500Y520000D02*
D03*
X1816883Y516438D02*
D03*
X1822750Y499500D02*
D03*
X1799000Y271500D02*
D03*
X1400750Y540000D02*
D03*
X1328750Y629750D02*
D03*
X1408892Y736992D02*
D03*
X1349082Y746204D02*
D03*
X1458955Y724933D02*
D03*
X1408500Y641250D02*
D03*
X1409000Y655500D02*
D03*
X1343750Y622750D02*
D03*
X1659000Y570250D02*
D03*
X1864000Y389000D02*
D03*
X1408750Y407500D02*
D03*
X1368000Y695750D02*
D03*
X1797250Y417750D02*
D03*
X1487750Y603750D02*
D03*
X1604250Y510647D02*
D03*
X1602750Y535250D02*
D03*
X1800000Y302750D02*
D03*
X1495000Y599750D02*
D03*
X1513250Y604000D02*
D03*
X1639500Y722500D02*
D03*
X1625000Y724000D02*
D03*
X1687500Y263250D02*
D03*
X1696500Y376250D02*
D03*
X1797500Y577750D02*
D03*
X1793996Y664218D02*
D03*
X1797750Y591500D02*
D03*
X1797596Y602730D02*
D03*
X1797500Y623250D02*
D03*
X1798250Y612250D02*
D03*
X1811000Y717200D02*
D03*
X1825750Y729900D02*
D03*
X1837500Y665888D02*
D03*
X1806500Y743250D02*
D03*
X1811000Y704500D02*
D03*
X1812750Y691800D02*
D03*
X1840589Y713051D02*
D03*
X1877839Y695551D02*
D03*
X1586427Y454784D02*
D03*
X1703750Y442250D02*
D03*
X749250Y379750D02*
D03*
X750886Y369250D02*
D03*
X360048Y572047D02*
D03*
Y559347D02*
D03*
X423612Y558420D02*
D03*
X727000Y446000D02*
D03*
X710644Y456069D02*
D03*
X711750Y463487D02*
D03*
X711000Y418250D02*
D03*
X714951Y403225D02*
D03*
X721166Y397975D02*
D03*
X645157Y390175D02*
D03*
X712209Y532550D02*
D03*
X709000Y546050D02*
D03*
X649157Y522675D02*
D03*
X660250Y351196D02*
D03*
X732796Y387130D02*
D03*
X722365Y384108D02*
D03*
X475250Y613985D02*
D03*
X447716Y596250D02*
D03*
X442000Y585750D02*
D03*
X403350Y596250D02*
D03*
X452281Y582074D02*
D03*
X426000Y585750D02*
D03*
X402032Y437300D02*
D03*
X319285Y368709D02*
D03*
X319435Y355859D02*
D03*
X581262Y733422D02*
D03*
X751048Y429647D02*
D03*
X650363Y426064D02*
D03*
X649930Y438930D02*
D03*
X595220Y686075D02*
D03*
X531750Y323250D02*
D03*
X475124Y417699D02*
D03*
X471606Y424394D02*
D03*
X543213Y459481D02*
D03*
X542392Y479941D02*
D03*
X535719Y459168D02*
D03*
X612600Y661396D02*
D03*
X597600Y649000D02*
D03*
X622744Y684594D02*
D03*
X615850Y681640D02*
D03*
X609909Y687298D02*
D03*
X607521Y585000D02*
D03*
X628157Y522425D02*
D03*
X617657Y523250D02*
D03*
X607157Y521182D02*
D03*
X507350Y729750D02*
D03*
X524250Y716925D02*
D03*
X628764Y277954D02*
D03*
X625240Y291511D02*
D03*
X379238Y488945D02*
D03*
X672000Y647250D02*
D03*
X631242Y674000D02*
D03*
X600850Y679349D02*
D03*
X593850Y671500D02*
D03*
X595462Y596689D02*
D03*
X589720Y555974D02*
D03*
X571550Y767745D02*
D03*
X564000Y757750D02*
D03*
X499850Y767500D02*
D03*
X729000Y428000D02*
D03*
X637973Y441250D02*
D03*
X643118Y435792D02*
D03*
X651264Y464873D02*
D03*
X712000Y481247D02*
D03*
X636112Y451750D02*
D03*
X641657Y466925D02*
D03*
X723000Y610000D02*
D03*
X436500Y398495D02*
D03*
X403000Y385000D02*
D03*
X402000Y393000D02*
D03*
X564750Y310250D02*
D03*
X657000Y298000D02*
D03*
X433681Y378000D02*
D03*
X528907Y689925D02*
D03*
X553750Y618500D02*
D03*
X547000Y583000D02*
D03*
X494891Y624065D02*
D03*
X444750Y634000D02*
D03*
X403000Y509000D02*
D03*
X402407Y526175D02*
D03*
X410000Y423000D02*
D03*
X420695Y544302D02*
D03*
X482907Y391925D02*
D03*
X503907Y263925D02*
D03*
X507000Y343000D02*
D03*
X544907Y383925D02*
D03*
X572000Y328914D02*
D03*
X730000Y545000D02*
D03*
X712048Y622047D02*
D03*
X484802Y552339D02*
D03*
X491535Y549036D02*
D03*
X478562Y556500D02*
D03*
X654407Y613629D02*
D03*
X728377Y519127D02*
D03*
X590250Y611500D02*
D03*
X588126Y598250D02*
D03*
X567604Y545265D02*
D03*
X551750Y543750D02*
D03*
X562925Y556850D02*
D03*
X576657Y551500D02*
D03*
X538890Y529375D02*
D03*
X528088Y554082D02*
D03*
X544500Y557250D02*
D03*
X360048Y265850D02*
D03*
X342575Y646911D02*
D03*
X751333Y264739D02*
D03*
X751825Y278161D02*
D03*
X752326Y290661D02*
D03*
X712825Y265161D02*
D03*
X712326Y277661D02*
D03*
X712576Y290161D02*
D03*
X360897Y749163D02*
D03*
X361147Y762163D02*
D03*
Y775163D02*
D03*
X322147Y749413D02*
D03*
X321397Y762413D02*
D03*
X322147Y774913D02*
D03*
X321500Y711500D02*
D03*
X360250Y711250D02*
D03*
X750626Y328268D02*
D03*
X711376Y328768D02*
D03*
X461750Y395250D02*
D03*
X469250Y387500D02*
D03*
X433788Y339178D02*
D03*
X712048Y762547D02*
D03*
X446500Y681500D02*
D03*
X468000Y676500D02*
D03*
X729376Y777268D02*
D03*
X728656Y506925D02*
D03*
X734645Y487350D02*
D03*
X739577Y526950D02*
D03*
X735750Y520500D02*
D03*
X712048Y493246D02*
D03*
X518126Y670518D02*
D03*
X548236Y667008D02*
D03*
X727376Y709017D02*
D03*
X726876Y663268D02*
D03*
X419626Y658767D02*
D03*
X490376Y694268D02*
D03*
X751048Y533947D02*
D03*
X427876Y567267D02*
D03*
X521032Y484447D02*
D03*
X516657Y499250D02*
D03*
X505500Y476750D02*
D03*
X506157Y460250D02*
D03*
X507250Y446750D02*
D03*
X483157Y461425D02*
D03*
X490157Y475000D02*
D03*
X591376Y325518D02*
D03*
X588126Y312017D02*
D03*
X469100Y659000D02*
D03*
X498500Y588250D02*
D03*
X524350Y620000D02*
D03*
X494000Y608250D02*
D03*
X518250Y653500D02*
D03*
X527626Y648268D02*
D03*
X474100Y589000D02*
D03*
X462195Y650055D02*
D03*
X489587Y435733D02*
D03*
X484000Y450500D02*
D03*
X509212Y377288D02*
D03*
X385600Y287750D02*
D03*
X611850Y403500D02*
D03*
X626500Y409500D02*
D03*
X601250Y393750D02*
D03*
X631907Y394750D02*
D03*
X626750Y400500D02*
D03*
X510250Y505500D02*
D03*
X461453Y571221D02*
D03*
X521407Y549175D02*
D03*
X516250Y581500D02*
D03*
X473250Y409500D02*
D03*
X712093Y507127D02*
D03*
X712048Y609150D02*
D03*
X584250Y480000D02*
D03*
X620409Y507758D02*
D03*
X629758Y513258D02*
D03*
X638657Y522425D02*
D03*
X649518Y490527D02*
D03*
X639239Y494206D02*
D03*
X629000Y501500D02*
D03*
X464763Y497884D02*
D03*
X488907Y511384D02*
D03*
X575100Y500250D02*
D03*
X571150Y492300D02*
D03*
X565100Y483500D02*
D03*
X620600Y434500D02*
D03*
X644850Y305000D02*
D03*
X646612Y454675D02*
D03*
X544750Y492500D02*
D03*
X712048Y648247D02*
D03*
X751048Y622847D02*
D03*
Y635547D02*
D03*
X438750Y554097D02*
D03*
X617000Y490750D02*
D03*
X647100Y508500D02*
D03*
X611121Y434726D02*
D03*
X599600Y431500D02*
D03*
X578907Y430925D02*
D03*
X569820Y581234D02*
D03*
X587000Y534500D02*
D03*
X474000Y483750D02*
D03*
X463850Y508500D02*
D03*
X471657Y431925D02*
D03*
X478100Y322000D02*
D03*
X543350Y687750D02*
D03*
X551500Y603000D02*
D03*
X430850Y670250D02*
D03*
X728500Y620250D02*
D03*
X430149Y536851D02*
D03*
X436944Y533675D02*
D03*
X422407Y537000D02*
D03*
X587157Y548925D02*
D03*
X543100Y508500D02*
D03*
X512750Y322750D02*
D03*
X484500Y282000D02*
D03*
X508471Y549759D02*
D03*
X512850Y530000D02*
D03*
X321048Y622750D02*
D03*
X393850Y682500D02*
D03*
X405350Y661500D02*
D03*
X545600Y269000D02*
D03*
X556393Y274000D02*
D03*
X580600Y313000D02*
D03*
X464750Y697500D02*
D03*
X424407Y311675D02*
D03*
X417407Y260676D02*
D03*
X399500Y482000D02*
D03*
X360048Y468547D02*
D03*
X378500Y474250D02*
D03*
X486157Y484175D02*
D03*
X472657Y374925D02*
D03*
X321048Y673647D02*
D03*
X360048Y341547D02*
D03*
Y354247D02*
D03*
X417907Y351175D02*
D03*
X483407Y376925D02*
D03*
X485657Y405425D02*
D03*
X438657Y723675D02*
D03*
X594907Y387925D02*
D03*
X650657Y404425D02*
D03*
X752657Y518675D02*
D03*
X644407Y480925D02*
D03*
X730157Y494925D02*
D03*
X712048Y597447D02*
D03*
X564407Y586425D02*
D03*
X534157Y549675D02*
D03*
X517500Y556000D02*
D03*
X504250D02*
D03*
X437157Y432425D02*
D03*
X435907Y442925D02*
D03*
X402157Y570925D02*
D03*
X712048Y775422D02*
D03*
X538500Y719250D02*
D03*
X751048Y775247D02*
D03*
Y762547D02*
D03*
Y749847D02*
D03*
X712048D02*
D03*
Y737147D02*
D03*
Y724447D02*
D03*
Y711747D02*
D03*
Y699047D02*
D03*
Y686347D02*
D03*
Y673647D02*
D03*
X751048Y660947D02*
D03*
X712048D02*
D03*
Y635547D02*
D03*
X751048Y610147D02*
D03*
Y597447D02*
D03*
X712048Y584747D02*
D03*
X751048Y546647D02*
D03*
Y506647D02*
D03*
Y493947D02*
D03*
Y455847D02*
D03*
Y443147D02*
D03*
Y417747D02*
D03*
Y316147D02*
D03*
X712048D02*
D03*
X751048Y303447D02*
D03*
X712048D02*
D03*
X321048Y265347D02*
D03*
X360048Y278047D02*
D03*
X321048D02*
D03*
X360048Y290747D02*
D03*
X321048D02*
D03*
X360048Y316147D02*
D03*
Y328847D02*
D03*
X321048D02*
D03*
Y341547D02*
D03*
X360048Y366947D02*
D03*
Y430447D02*
D03*
Y443147D02*
D03*
X321048D02*
D03*
X360048Y455847D02*
D03*
X321048D02*
D03*
X360048Y481247D02*
D03*
Y493947D02*
D03*
X321048D02*
D03*
X360048Y506647D02*
D03*
X321048D02*
D03*
X360048Y533947D02*
D03*
X321048D02*
D03*
Y546647D02*
D03*
X360048D02*
D03*
X321048Y572047D02*
D03*
Y584747D02*
D03*
Y597447D02*
D03*
Y610147D02*
D03*
Y660947D02*
D03*
X360048Y724447D02*
D03*
X321048D02*
D03*
X360500Y736900D02*
D03*
X321048Y737147D02*
D03*
D93*
X981315Y302888D02*
D03*
X894815D02*
D03*
X600750Y326950D02*
D03*
X687250D02*
D03*
D94*
X981315Y261188D02*
D03*
X894815D02*
D03*
X600750Y285250D02*
D03*
X687250D02*
D03*
D95*
X1452700Y679500D02*
D03*
X1478100D02*
D03*
X1503500D02*
D03*
X1528900D02*
D03*
X1554300D02*
D03*
X1579700D02*
D03*
X1605100D02*
D03*
X1630500D02*
D03*
X1655900D02*
D03*
X1681300D02*
D03*
X1706700D02*
D03*
X1732100D02*
D03*
X1757500D02*
D03*
X1452700Y629500D02*
D03*
X1478100D02*
D03*
X1503500D02*
D03*
X1528900D02*
D03*
X1554300D02*
D03*
X1579700D02*
D03*
X1605100D02*
D03*
X1630500D02*
D03*
X1655900D02*
D03*
X1681300D02*
D03*
X1706700D02*
D03*
X1732100D02*
D03*
X1757500D02*
D03*
X1452700Y654500D02*
D03*
X1478100D02*
D03*
X1503500D02*
D03*
X1528900D02*
D03*
X1554300D02*
D03*
X1579700D02*
D03*
X1605100D02*
D03*
X1630500D02*
D03*
X1655900D02*
D03*
X1681300D02*
D03*
X1706700D02*
D03*
X1732100D02*
D03*
X1757500D02*
D03*
D96*
X1882000Y260250D02*
D03*
Y346750D02*
D03*
D97*
X1840300Y260250D02*
D03*
Y346750D02*
D03*
D98*
X1457500Y365500D02*
D03*
X1592500D02*
D03*
X1754000D02*
D03*
X1619000D02*
D03*
D99*
X1489000Y425500D02*
D03*
X1650500D02*
D03*
D100*
X1561000D02*
D03*
X1722500D02*
D03*
D101*
X1296261Y517782D02*
D03*
X788208Y515302D02*
D03*
D102*
X1215577Y262155D02*
D03*
X1215077Y274655D02*
D03*
Y287655D02*
D03*
Y299905D02*
D03*
X1254577Y300405D02*
D03*
X1254827Y287655D02*
D03*
X1254577Y275155D02*
D03*
X1255165Y261738D02*
D03*
X1215165Y376238D02*
D03*
Y388988D02*
D03*
X1254915Y439738D02*
D03*
X1254665Y452238D02*
D03*
X1254915Y464988D02*
D03*
X1254665Y477738D02*
D03*
X1214665Y555988D02*
D03*
X1255165D02*
D03*
X1254915Y568738D02*
D03*
Y581738D02*
D03*
X1254665Y594238D02*
D03*
X1213915Y593988D02*
D03*
X1214665Y581238D02*
D03*
X1213915Y568738D02*
D03*
X1253915Y606988D02*
D03*
X1254415Y619988D02*
D03*
X1214415Y606988D02*
D03*
X1214665Y619738D02*
D03*
Y632238D02*
D03*
Y644988D02*
D03*
Y657488D02*
D03*
X1254165Y632238D02*
D03*
X1253915Y645238D02*
D03*
X1253665Y657738D02*
D03*
X1253165Y682988D02*
D03*
X1253665Y670488D02*
D03*
X1214915Y670238D02*
D03*
X1254165Y708488D02*
D03*
X1214915Y682738D02*
D03*
X1215665Y696238D02*
D03*
X1214915Y707988D02*
D03*
X1215415Y721238D02*
D03*
X1214415Y733738D02*
D03*
X1253665D02*
D03*
Y720988D02*
D03*
Y695738D02*
D03*
X833665Y771988D02*
D03*
X873665D02*
D03*
Y759238D02*
D03*
X873915Y746488D02*
D03*
X873665Y733238D02*
D03*
X833665Y733738D02*
D03*
X833915Y746738D02*
D03*
X833165Y759488D02*
D03*
X873665Y682988D02*
D03*
Y670238D02*
D03*
X833915Y683488D02*
D03*
X833665Y670238D02*
D03*
X834665Y657738D02*
D03*
X834165Y644488D02*
D03*
X834665Y632238D02*
D03*
Y619238D02*
D03*
X834165Y606238D02*
D03*
X833665Y594238D02*
D03*
X834665Y581238D02*
D03*
X834165Y568488D02*
D03*
X834665Y555738D02*
D03*
X834415Y477988D02*
D03*
X834915Y464988D02*
D03*
X834165Y452488D02*
D03*
X834665Y439488D02*
D03*
X835165Y426988D02*
D03*
Y414238D02*
D03*
X835415Y401488D02*
D03*
X835665Y388738D02*
D03*
X873415Y299988D02*
D03*
X872665Y312738D02*
D03*
X872915Y325988D02*
D03*
X873415Y338238D02*
D03*
Y363488D02*
D03*
Y376488D02*
D03*
X873165Y401738D02*
D03*
Y350988D02*
D03*
Y389088D02*
D03*
Y414488D02*
D03*
Y427188D02*
D03*
Y439888D02*
D03*
Y452588D02*
D03*
Y465288D02*
D03*
Y477988D02*
D03*
Y644988D02*
D03*
Y619588D02*
D03*
Y632288D02*
D03*
Y606888D02*
D03*
Y594188D02*
D03*
Y657688D02*
D03*
X834165Y376388D02*
D03*
X1215165Y427088D02*
D03*
Y414388D02*
D03*
Y401688D02*
D03*
Y363588D02*
D03*
Y350888D02*
D03*
X1254165D02*
D03*
Y363588D02*
D03*
Y376288D02*
D03*
Y388988D02*
D03*
Y401688D02*
D03*
Y414388D02*
D03*
Y427088D02*
D03*
X1591427Y424534D02*
D03*
D103*
X834165Y300188D02*
D03*
Y287488D02*
D03*
Y274788D02*
D03*
Y262088D02*
D03*
X873165D02*
D03*
Y274788D02*
D03*
Y287488D02*
D03*
Y490688D02*
D03*
Y503388D02*
D03*
X834165Y530688D02*
D03*
Y543388D02*
D03*
X873165Y556088D02*
D03*
Y568788D02*
D03*
Y581488D02*
D03*
Y695788D02*
D03*
Y708488D02*
D03*
X834165D02*
D03*
Y695788D02*
D03*
X873165Y721188D02*
D03*
X834165D02*
D03*
X1215165Y771988D02*
D03*
X1254165D02*
D03*
Y759288D02*
D03*
Y746588D02*
D03*
X1215165D02*
D03*
Y759288D02*
D03*
Y543388D02*
D03*
X1254165D02*
D03*
Y530688D02*
D03*
X1215165D02*
D03*
X1254165Y503288D02*
D03*
Y490588D02*
D03*
X1215165Y503288D02*
D03*
Y490588D02*
D03*
Y477888D02*
D03*
Y465188D02*
D03*
Y452488D02*
D03*
Y439788D02*
D03*
X873165Y543388D02*
D03*
Y530688D02*
D03*
X834165Y350988D02*
D03*
Y338288D02*
D03*
Y363688D02*
D03*
Y503388D02*
D03*
Y490688D02*
D03*
Y325588D02*
D03*
Y312888D02*
D03*
X1144665Y271488D02*
D03*
X1190165Y269738D02*
D03*
X944415Y320738D02*
D03*
X935939Y320096D02*
D03*
X944915Y297488D02*
D03*
X930665Y297738D02*
D03*
X1003665Y381988D02*
D03*
X994140Y348263D02*
D03*
X993165Y369738D02*
D03*
X895665Y324238D02*
D03*
Y343488D02*
D03*
X1028065Y493138D02*
D03*
X1012415Y713488D02*
D03*
X1047165Y657113D02*
D03*
X1063915Y657126D02*
D03*
X1040665Y676238D02*
D03*
X1118165Y692988D02*
D03*
X1127915Y693488D02*
D03*
X1106915Y657238D02*
D03*
X962665Y553238D02*
D03*
X936915Y657738D02*
D03*
Y642488D02*
D03*
X936415Y629488D02*
D03*
X937165Y611238D02*
D03*
X1215165Y338188D02*
D03*
X1254165Y325488D02*
D03*
Y338188D02*
D03*
Y312788D02*
D03*
X1215165D02*
D03*
X963915Y691238D02*
D03*
X1085875Y388278D02*
D03*
X1101915Y554238D02*
D03*
X1020915Y656988D02*
D03*
X1023415Y613738D02*
D03*
X1128415Y519238D02*
D03*
X1171715Y437678D02*
D03*
X1156915Y383488D02*
D03*
X1215165Y326738D02*
D03*
X1187665Y406738D02*
D03*
X1094415Y386738D02*
D03*
X1149665Y537488D02*
D03*
Y505488D02*
D03*
X1152915Y471738D02*
D03*
X1136915Y567238D02*
D03*
X1136165Y595488D02*
D03*
X1114165Y603738D02*
D03*
X1115165Y559488D02*
D03*
X1076165Y509238D02*
D03*
X1149915Y633488D02*
D03*
X1151915Y600238D02*
D03*
X1003415Y536738D02*
D03*
X1000629Y622953D02*
D03*
X1096415Y765988D02*
D03*
X1012665Y763988D02*
D03*
X1174665Y421238D02*
D03*
X1073616Y463511D02*
D03*
X977665Y472488D02*
D03*
X954665Y437488D02*
D03*
X994665Y436988D02*
D03*
X910499Y424629D02*
D03*
X1080665Y734238D02*
D03*
X1107165Y517988D02*
D03*
X958665Y290488D02*
D03*
X1189665Y316238D02*
D03*
X1131415Y334238D02*
D03*
X1137165Y320238D02*
D03*
X1183021Y329215D02*
D03*
X1188915Y287988D02*
D03*
X1128915Y351238D02*
D03*
X1163415Y322238D02*
D03*
X714000Y443000D02*
D03*
X753000Y648000D02*
D03*
Y673000D02*
D03*
Y686000D02*
D03*
Y699000D02*
D03*
Y711000D02*
D03*
X752000Y724000D02*
D03*
X751000Y737000D02*
D03*
X711000Y572000D02*
D03*
Y559000D02*
D03*
X752000Y585000D02*
D03*
Y572000D02*
D03*
Y559000D02*
D03*
X751000Y481000D02*
D03*
Y468000D02*
D03*
X712000Y430000D02*
D03*
Y354000D02*
D03*
X713000Y341000D02*
D03*
X712000Y367000D02*
D03*
Y379000D02*
D03*
Y392000D02*
D03*
X751000Y405000D02*
D03*
Y392000D02*
D03*
X752000Y354000D02*
D03*
Y341000D02*
D03*
X321000Y699000D02*
D03*
Y686000D02*
D03*
X360000Y699000D02*
D03*
Y686000D02*
D03*
X361000Y673000D02*
D03*
Y661000D02*
D03*
Y648000D02*
D03*
X321000D02*
D03*
Y635000D02*
D03*
X359000D02*
D03*
X360000Y623000D02*
D03*
Y610000D02*
D03*
Y597000D02*
D03*
Y584000D02*
D03*
X321000Y559000D02*
D03*
X360000Y418000D02*
D03*
Y405000D02*
D03*
Y392000D02*
D03*
Y379000D02*
D03*
Y303000D02*
D03*
X322000D02*
D03*
Y316000D02*
D03*
X321000Y380000D02*
D03*
Y392000D02*
D03*
Y405000D02*
D03*
Y418000D02*
D03*
X322000Y430000D02*
D03*
Y468000D02*
D03*
Y481000D02*
D03*
X577000Y721131D02*
D03*
X578254Y740903D02*
D03*
X557000Y732000D02*
D03*
X632000D02*
D03*
X487908Y755516D02*
D03*
X594000Y476000D02*
D03*
X599350Y703475D02*
D03*
X662250Y343450D02*
D03*
X660000Y648000D02*
D03*
X550250Y468000D02*
D03*
X670000Y620000D02*
D03*
X638000Y260000D02*
D03*
X602000Y376000D02*
D03*
X637000Y410000D02*
D03*
X692500Y481425D02*
D03*
M02*
