M48
;Layer_Color=9474304
;FILE_FORMAT=4:4
METRIC,LZ
;TYPE=PLATED
T6F00S00C0.6000
;TYPE=NON_PLATED
%
G90
G05
T06
G00X0060075Y0028125
M15
G01Y0028925
M16
G00X0060075Y0032145
M15
G01Y0033245
M16
G00X0068725Y0032145
M15
G01Y0033245
M16
G00X0068725Y0028125
M15
G01Y0028925
M16
G00X00894815Y00297388
M15
G01Y00308388
M16
G00X00894815Y00257188
M15
G01Y00265188
M16
G00X00981315Y00257188
M15
G01Y00265188
M16
G00X00981315Y00297388
M15
G01Y00308388
M16
G00X018458Y0034675
M15
G01X018348
M16
G00X01886Y0034675
M15
G01X01878
M16
G00X01886Y0026025
M15
G01X01878
M16
G00X018458Y0026025
M15
G01X018348
M16
M17
M30
