G04*
G04 #@! TF.GenerationSoftware,Altium Limited,Altium Designer,23.6.0 (18)*
G04*
G04 Layer_Color=16711935*
%FSLAX44Y44*%
%MOMM*%
G71*
G04*
G04 #@! TF.SameCoordinates,A137800D-7D6B-43E2-A44D-125AE26CC9B3*
G04*
G04*
G04 #@! TF.FilePolarity,Negative*
G04*
G01*
G75*
%ADD56R,1.2032X1.3032*%
%ADD57R,1.3032X1.2032*%
%ADD61R,0.7032X0.9032*%
%ADD64R,0.7000X1.2400*%
%ADD65R,0.4000X1.2400*%
%ADD73R,2.8032X2.1032*%
%ADD74R,1.7032X1.0032*%
%ADD75R,3.2032X1.8032*%
%ADD92C,0.8032*%
%ADD93O,1.1032X2.2032*%
%ADD94O,1.1032X1.9032*%
%ADD95C,1.7032*%
%ADD96O,1.9032X1.1032*%
%ADD97O,2.2032X1.1032*%
%ADD98O,1.4032X2.6032*%
%ADD99R,3.9192X3.9192*%
%ADD100C,3.9192*%
%ADD101R,4.2032X51.2032*%
%ADD102C,1.0032*%
%ADD103C,0.9032*%
G04:AMPARAMS|DCode=145|XSize=1.7732mm|YSize=0.6132mm|CornerRadius=0.1529mm|HoleSize=0mm|Usage=FLASHONLY|Rotation=0.000|XOffset=0mm|YOffset=0mm|HoleType=Round|Shape=RoundedRectangle|*
%AMROUNDEDRECTD145*
21,1,1.7732,0.3075,0,0,0.0*
21,1,1.4675,0.6132,0,0,0.0*
1,1,0.3057,0.7338,-0.1538*
1,1,0.3057,-0.7338,-0.1538*
1,1,0.3057,-0.7338,0.1538*
1,1,0.3057,0.7338,0.1538*
%
%ADD145ROUNDEDRECTD145*%
%ADD146R,0.9032X0.7032*%
%ADD147R,1.0032X1.1032*%
%ADD148R,1.4032X0.6532*%
%ADD149R,2.2032X2.0032*%
G04:AMPARAMS|DCode=150|XSize=1.7632mm|YSize=0.4832mm|CornerRadius=0.1366mm|HoleSize=0mm|Usage=FLASHONLY|Rotation=0.000|XOffset=0mm|YOffset=0mm|HoleType=Round|Shape=RoundedRectangle|*
%AMROUNDEDRECTD150*
21,1,1.7632,0.2100,0,0,0.0*
21,1,1.4900,0.4832,0,0,0.0*
1,1,0.2732,0.7450,-0.1050*
1,1,0.2732,-0.7450,-0.1050*
1,1,0.2732,-0.7450,0.1050*
1,1,0.2732,0.7450,0.1050*
%
%ADD150ROUNDEDRECTD150*%
G04:AMPARAMS|DCode=151|XSize=1.7632mm|YSize=0.4832mm|CornerRadius=0.1366mm|HoleSize=0mm|Usage=FLASHONLY|Rotation=270.000|XOffset=0mm|YOffset=0mm|HoleType=Round|Shape=RoundedRectangle|*
%AMROUNDEDRECTD151*
21,1,1.7632,0.2100,0,0,270.0*
21,1,1.4900,0.4832,0,0,270.0*
1,1,0.2732,-0.1050,-0.7450*
1,1,0.2732,-0.1050,0.7450*
1,1,0.2732,0.1050,0.7450*
1,1,0.2732,0.1050,-0.7450*
%
%ADD151ROUNDEDRECTD151*%
G04:AMPARAMS|DCode=152|XSize=2.5332mm|YSize=1.7532mm|CornerRadius=0.4891mm|HoleSize=0mm|Usage=FLASHONLY|Rotation=180.000|XOffset=0mm|YOffset=0mm|HoleType=Round|Shape=RoundedRectangle|*
%AMROUNDEDRECTD152*
21,1,2.5332,0.7750,0,0,180.0*
21,1,1.5550,1.7532,0,0,180.0*
1,1,0.9782,-0.7775,0.3875*
1,1,0.9782,0.7775,0.3875*
1,1,0.9782,0.7775,-0.3875*
1,1,0.9782,-0.7775,-0.3875*
%
%ADD152ROUNDEDRECTD152*%
%ADD153R,2.6132X3.5032*%
G04:AMPARAMS|DCode=154|XSize=2.1732mm|YSize=0.8032mm|CornerRadius=0.2636mm|HoleSize=0mm|Usage=FLASHONLY|Rotation=180.000|XOffset=0mm|YOffset=0mm|HoleType=Round|Shape=RoundedRectangle|*
%AMROUNDEDRECTD154*
21,1,2.1732,0.2760,0,0,180.0*
21,1,1.6460,0.8032,0,0,180.0*
1,1,0.5272,-0.8230,0.1380*
1,1,0.5272,0.8230,0.1380*
1,1,0.5272,0.8230,-0.1380*
1,1,0.5272,-0.8230,-0.1380*
%
%ADD154ROUNDEDRECTD154*%
%ADD155R,5.3032X2.1032*%
%ADD156R,1.2400X0.7000*%
%ADD157R,1.2400X0.4000*%
%ADD158R,1.7032X1.2032*%
%ADD159R,8.3332X8.3332*%
%ADD160R,2.9932X1.1932*%
%ADD161R,2.9932X1.6032*%
%ADD162R,8.3332X8.3332*%
%ADD163R,1.1932X2.9932*%
%ADD164R,1.6032X2.9932*%
%ADD165R,1.2032X1.7032*%
%ADD166R,0.9032X1.8032*%
%ADD167R,3.0032X2.4032*%
%ADD168R,1.0032X1.8032*%
%ADD169R,2.3032X3.2032*%
D56*
X1132415Y451238D02*
D03*
Y434238D02*
D03*
X1190415Y451238D02*
D03*
Y434238D02*
D03*
X925415Y657488D02*
D03*
Y640488D02*
D03*
X907415Y657488D02*
D03*
Y640488D02*
D03*
X889415Y657488D02*
D03*
Y640488D02*
D03*
X925665Y620988D02*
D03*
Y603988D02*
D03*
X907415Y621238D02*
D03*
Y604238D02*
D03*
X889415Y621238D02*
D03*
Y604238D02*
D03*
X886165Y583488D02*
D03*
Y566488D02*
D03*
X991665Y462488D02*
D03*
Y445488D02*
D03*
X957665Y375488D02*
D03*
Y392488D02*
D03*
X939415Y375738D02*
D03*
Y392738D02*
D03*
X921165Y375238D02*
D03*
Y392238D02*
D03*
X902415Y374988D02*
D03*
Y391988D02*
D03*
X948415Y461988D02*
D03*
Y444988D02*
D03*
X1047165Y746738D02*
D03*
Y729738D02*
D03*
X1132415Y727238D02*
D03*
Y744238D02*
D03*
X1026665Y730488D02*
D03*
Y747488D02*
D03*
X1029665Y647238D02*
D03*
Y630238D02*
D03*
X1047915Y630488D02*
D03*
Y647488D02*
D03*
X1013415Y462238D02*
D03*
Y445238D02*
D03*
X1084415Y629988D02*
D03*
Y646988D02*
D03*
X1066165Y630238D02*
D03*
Y647238D02*
D03*
X1050165Y462488D02*
D03*
Y445488D02*
D03*
X1031415Y445488D02*
D03*
Y462488D02*
D03*
X1066665Y675988D02*
D03*
Y692988D02*
D03*
X1086165Y674488D02*
D03*
Y691488D02*
D03*
X1104415Y674488D02*
D03*
Y691488D02*
D03*
X1006415Y747238D02*
D03*
Y730238D02*
D03*
X1029165Y687488D02*
D03*
Y704488D02*
D03*
X1114415Y744488D02*
D03*
Y727488D02*
D03*
X1047165Y704488D02*
D03*
Y687488D02*
D03*
X1143915Y686488D02*
D03*
Y703488D02*
D03*
X1163415Y702738D02*
D03*
Y685738D02*
D03*
X899665Y434238D02*
D03*
Y417238D02*
D03*
X1103165Y646738D02*
D03*
Y629738D02*
D03*
X929915Y461988D02*
D03*
Y444988D02*
D03*
X970415Y462488D02*
D03*
Y445488D02*
D03*
X1538000Y485500D02*
D03*
Y468500D02*
D03*
X1557250Y595250D02*
D03*
Y612250D02*
D03*
X1597000Y484250D02*
D03*
Y501250D02*
D03*
X1754500Y459750D02*
D03*
Y476750D02*
D03*
X1774000Y604250D02*
D03*
Y587250D02*
D03*
X1812250Y492000D02*
D03*
Y475000D02*
D03*
X1664250Y282750D02*
D03*
Y265750D02*
D03*
X1518500Y486000D02*
D03*
Y469000D02*
D03*
X1735000Y459750D02*
D03*
Y476750D02*
D03*
X1645750Y283250D02*
D03*
Y266250D02*
D03*
X1682750Y283250D02*
D03*
Y266250D02*
D03*
X1813250Y317250D02*
D03*
Y334250D02*
D03*
X1810500Y291250D02*
D03*
Y274250D02*
D03*
X1847000Y655500D02*
D03*
Y638500D02*
D03*
X1526000Y410250D02*
D03*
Y427250D02*
D03*
X503250Y341000D02*
D03*
Y324000D02*
D03*
X388500Y499000D02*
D03*
Y482000D02*
D03*
X388250Y543750D02*
D03*
Y526750D02*
D03*
X388500Y454250D02*
D03*
Y437250D02*
D03*
X387750Y587750D02*
D03*
Y570750D02*
D03*
X590750Y739250D02*
D03*
Y722250D02*
D03*
X595250Y357500D02*
D03*
Y374500D02*
D03*
X650750Y374750D02*
D03*
Y357750D02*
D03*
X632250Y357500D02*
D03*
Y374500D02*
D03*
X613750Y357250D02*
D03*
Y374250D02*
D03*
X694500Y627750D02*
D03*
Y644750D02*
D03*
X595750Y627000D02*
D03*
Y644000D02*
D03*
X594000Y458000D02*
D03*
Y475000D02*
D03*
X696250Y457750D02*
D03*
Y474750D02*
D03*
X541250Y323500D02*
D03*
Y340500D02*
D03*
X522250Y323750D02*
D03*
Y340750D02*
D03*
X560250Y323750D02*
D03*
Y340750D02*
D03*
X429750Y600000D02*
D03*
Y617000D02*
D03*
X484750Y599000D02*
D03*
Y616000D02*
D03*
X465000Y616250D02*
D03*
Y599250D02*
D03*
X503750D02*
D03*
Y616250D02*
D03*
D57*
X1115665Y353488D02*
D03*
X1098665D02*
D03*
X1115415Y335238D02*
D03*
X1098415D02*
D03*
X1115415Y317238D02*
D03*
X1098415D02*
D03*
X1115165Y279238D02*
D03*
X1098165D02*
D03*
X1115165Y297738D02*
D03*
X1098165D02*
D03*
X1080415Y601488D02*
D03*
X1097415D02*
D03*
X918415Y479738D02*
D03*
X901415D02*
D03*
X992665Y631488D02*
D03*
X1009665D02*
D03*
X992665Y650238D02*
D03*
X1009665D02*
D03*
X992415Y668738D02*
D03*
X1009415D02*
D03*
X899665Y681238D02*
D03*
X916665D02*
D03*
X900415Y719488D02*
D03*
X917415D02*
D03*
X900665Y756488D02*
D03*
X917665D02*
D03*
X1166415Y543488D02*
D03*
X1183415D02*
D03*
X1182915Y524738D02*
D03*
X1165915D02*
D03*
X1074415Y498488D02*
D03*
X1091415D02*
D03*
X1075165Y478988D02*
D03*
X1092165D02*
D03*
X898665Y582488D02*
D03*
X915665D02*
D03*
X898665Y567238D02*
D03*
X915665D02*
D03*
X918415Y511738D02*
D03*
X901415D02*
D03*
X918415Y495238D02*
D03*
X901415D02*
D03*
X954165Y699988D02*
D03*
X937165D02*
D03*
X954165Y738238D02*
D03*
X937165D02*
D03*
X954165Y775488D02*
D03*
X937165D02*
D03*
X954165Y681488D02*
D03*
X937165D02*
D03*
X954165Y719488D02*
D03*
X937165D02*
D03*
X954415Y756738D02*
D03*
X937415D02*
D03*
X1460500Y558250D02*
D03*
X1443500D02*
D03*
X1460250Y521750D02*
D03*
X1443250D02*
D03*
X1575000Y520500D02*
D03*
X1558000D02*
D03*
X1574000Y574250D02*
D03*
X1557000D02*
D03*
X1660750Y542750D02*
D03*
X1677750D02*
D03*
X1660750Y505750D02*
D03*
X1677750D02*
D03*
X1775250Y511500D02*
D03*
X1792250D02*
D03*
X1774750Y567500D02*
D03*
X1791750D02*
D03*
X1507250Y325750D02*
D03*
X1524250D02*
D03*
X1506750Y288500D02*
D03*
X1523750D02*
D03*
X1716500Y395000D02*
D03*
X1733500D02*
D03*
X1772750Y296500D02*
D03*
X1755750D02*
D03*
X1733500Y316250D02*
D03*
X1716500D02*
D03*
X1716750Y376000D02*
D03*
X1733750D02*
D03*
X1585750Y707750D02*
D03*
X1568750D02*
D03*
X1586500Y758000D02*
D03*
X1569500D02*
D03*
X1558750Y466000D02*
D03*
X1575750D02*
D03*
X1558500Y484250D02*
D03*
X1575500D02*
D03*
X1443250Y540000D02*
D03*
X1460250D02*
D03*
X1575500Y502250D02*
D03*
X1558500D02*
D03*
X1557750Y556500D02*
D03*
X1574750D02*
D03*
X1557750Y538250D02*
D03*
X1574750D02*
D03*
X1460500Y503250D02*
D03*
X1443500D02*
D03*
X1791500Y455000D02*
D03*
X1774500D02*
D03*
X1791500Y473750D02*
D03*
X1774500D02*
D03*
X1677250Y524000D02*
D03*
X1660250D02*
D03*
X1774750Y492500D02*
D03*
X1791750D02*
D03*
X1792000Y548500D02*
D03*
X1775000D02*
D03*
X1791750Y530000D02*
D03*
X1774750D02*
D03*
X1660750Y487000D02*
D03*
X1677750D02*
D03*
X1717750Y278000D02*
D03*
X1734750D02*
D03*
X1523500Y307250D02*
D03*
X1506500D02*
D03*
X1734500Y296500D02*
D03*
X1717500D02*
D03*
X1717250Y357250D02*
D03*
X1734250D02*
D03*
X1717250Y336500D02*
D03*
X1734250D02*
D03*
X1506500Y269750D02*
D03*
X1523500D02*
D03*
X554000Y757750D02*
D03*
X537000D02*
D03*
X575500Y758000D02*
D03*
X592500D02*
D03*
X571250Y721250D02*
D03*
X554250D02*
D03*
X390000Y350250D02*
D03*
X407000D02*
D03*
X431000Y388000D02*
D03*
X414000D02*
D03*
X445500Y368750D02*
D03*
X428500D02*
D03*
X428500Y350500D02*
D03*
X445500D02*
D03*
X407500Y369000D02*
D03*
X390500D02*
D03*
X391500Y619500D02*
D03*
X408500D02*
D03*
X426000Y408000D02*
D03*
X409000D02*
D03*
X425750Y452000D02*
D03*
X408750D02*
D03*
D61*
X934665Y258988D02*
D03*
Y278988D02*
D03*
X950165Y259238D02*
D03*
Y279238D02*
D03*
X919165Y259238D02*
D03*
Y279238D02*
D03*
D64*
X612000Y332750D02*
D03*
X620000D02*
D03*
X668000D02*
D03*
X676000D02*
D03*
D65*
X626500D02*
D03*
X631500D02*
D03*
X636500D02*
D03*
X641500D02*
D03*
X661500D02*
D03*
X656500D02*
D03*
X651500D02*
D03*
X646500D02*
D03*
D73*
X455750Y409250D02*
D03*
Y452250D02*
D03*
D74*
X1841750Y529750D02*
D03*
Y542250D02*
D03*
Y554750D02*
D03*
Y567250D02*
D03*
Y579750D02*
D03*
Y592250D02*
D03*
X1367500Y513600D02*
D03*
Y526100D02*
D03*
Y538600D02*
D03*
Y551100D02*
D03*
X1367500Y719750D02*
D03*
Y732250D02*
D03*
Y744750D02*
D03*
Y622750D02*
D03*
Y635250D02*
D03*
Y647750D02*
D03*
X1366750Y404100D02*
D03*
Y416600D02*
D03*
Y429100D02*
D03*
Y441600D02*
D03*
X1367000Y293100D02*
D03*
Y305600D02*
D03*
Y318100D02*
D03*
Y330600D02*
D03*
X1841750Y389750D02*
D03*
Y402250D02*
D03*
Y414750D02*
D03*
Y427250D02*
D03*
Y439750D02*
D03*
Y452250D02*
D03*
D75*
X1870750Y504250D02*
D03*
Y617750D02*
D03*
X1338500Y488100D02*
D03*
Y576600D02*
D03*
X1338500Y694250D02*
D03*
Y770250D02*
D03*
Y597250D02*
D03*
Y673250D02*
D03*
X1337750Y378600D02*
D03*
Y467100D02*
D03*
X1338000Y267600D02*
D03*
Y356100D02*
D03*
X1870750Y364250D02*
D03*
Y477750D02*
D03*
D92*
X966965Y297988D02*
D03*
X909165D02*
D03*
X1845200Y274600D02*
D03*
Y332400D02*
D03*
X615100Y322050D02*
D03*
X672900D02*
D03*
X1407449Y442206D02*
D03*
X1409699Y455206D02*
D03*
X1373250Y373250D02*
D03*
X1364199Y366706D02*
D03*
X1354000Y324750D02*
D03*
X1347767Y337138D02*
D03*
X1870017Y402388D02*
D03*
X1870267Y415388D02*
D03*
X1872017Y426888D02*
D03*
X1874767Y439638D02*
D03*
X1511596Y455980D02*
D03*
X1701000Y390250D02*
D03*
X1623383Y261438D02*
D03*
X1758383Y392688D02*
D03*
X1545633Y294188D02*
D03*
X1424383Y524438D02*
D03*
X1756705Y339434D02*
D03*
X1645705Y700684D02*
D03*
X1408455Y762184D02*
D03*
X1754955Y271183D02*
D03*
X1366705Y390933D02*
D03*
X1339205Y342426D02*
D03*
X1848000Y378250D02*
D03*
X1842500Y489250D02*
D03*
X1623000Y496750D02*
D03*
X1537500Y640250D02*
D03*
X1540500Y736750D02*
D03*
X1451213Y465497D02*
D03*
X1409500Y696750D02*
D03*
X1468907Y566685D02*
D03*
X1809000Y679000D02*
D03*
X1672750Y498000D02*
D03*
X1745000Y396750D02*
D03*
X1434500Y500500D02*
D03*
X1528500Y441500D02*
D03*
X1590955Y603750D02*
D03*
X1626250Y569750D02*
D03*
X1791500Y520000D02*
D03*
X1816883Y516438D02*
D03*
X1822750Y499500D02*
D03*
X1799000Y271500D02*
D03*
X1400750Y540000D02*
D03*
X1328750Y629750D02*
D03*
X1408892Y736992D02*
D03*
X1349082Y746204D02*
D03*
X1458955Y724933D02*
D03*
X1408500Y641250D02*
D03*
X1409000Y655500D02*
D03*
X1343750Y622750D02*
D03*
X1659000Y570250D02*
D03*
X1864000Y389000D02*
D03*
X1408750Y407500D02*
D03*
X1368000Y695750D02*
D03*
X1797250Y417750D02*
D03*
X1487750Y603750D02*
D03*
X1604250Y510647D02*
D03*
X1602750Y535250D02*
D03*
X1800000Y302750D02*
D03*
X1495000Y599750D02*
D03*
X1513250Y604000D02*
D03*
X1639500Y722500D02*
D03*
X1625000Y724000D02*
D03*
X1687500Y263250D02*
D03*
X1696500Y376250D02*
D03*
X1797500Y577750D02*
D03*
X1793996Y664218D02*
D03*
X1797750Y591500D02*
D03*
X1797596Y602730D02*
D03*
X1797500Y623250D02*
D03*
X1798250Y612250D02*
D03*
X1811000Y717200D02*
D03*
X1825750Y729900D02*
D03*
X1837500Y665888D02*
D03*
X1806500Y743250D02*
D03*
X1811000Y704500D02*
D03*
X1812750Y691800D02*
D03*
X1840589Y713051D02*
D03*
X1877839Y695551D02*
D03*
X1586427Y454784D02*
D03*
X1703750Y442250D02*
D03*
X749250Y379750D02*
D03*
X750886Y369250D02*
D03*
X360048Y572047D02*
D03*
Y559347D02*
D03*
X423612Y558420D02*
D03*
X727000Y446000D02*
D03*
X710644Y456069D02*
D03*
X711750Y463487D02*
D03*
X711000Y418250D02*
D03*
X714951Y403225D02*
D03*
X721166Y397975D02*
D03*
X645157Y390175D02*
D03*
X712209Y532550D02*
D03*
X709000Y546050D02*
D03*
X649157Y522675D02*
D03*
X660250Y351196D02*
D03*
X732796Y387130D02*
D03*
X722365Y384108D02*
D03*
X475250Y613985D02*
D03*
X447716Y596250D02*
D03*
X442000Y585750D02*
D03*
X403350Y596250D02*
D03*
X452281Y582074D02*
D03*
X426000Y585750D02*
D03*
X402032Y437300D02*
D03*
X319285Y368709D02*
D03*
X319435Y355859D02*
D03*
X581262Y733422D02*
D03*
X751048Y429647D02*
D03*
X650363Y426064D02*
D03*
X649930Y438930D02*
D03*
X595220Y686075D02*
D03*
X531750Y323250D02*
D03*
X475124Y417699D02*
D03*
X471606Y424394D02*
D03*
X543213Y459481D02*
D03*
X542392Y479941D02*
D03*
X535719Y459168D02*
D03*
X612600Y661396D02*
D03*
X597600Y649000D02*
D03*
X622744Y684594D02*
D03*
X615850Y681640D02*
D03*
X609909Y687298D02*
D03*
X607521Y585000D02*
D03*
X628157Y522425D02*
D03*
X617657Y523250D02*
D03*
X607157Y521182D02*
D03*
X507350Y729750D02*
D03*
X524250Y716925D02*
D03*
X628764Y277954D02*
D03*
X625240Y291511D02*
D03*
X379238Y488945D02*
D03*
X672000Y647250D02*
D03*
X631242Y674000D02*
D03*
X600850Y679349D02*
D03*
X593850Y671500D02*
D03*
X595462Y596689D02*
D03*
X589720Y555974D02*
D03*
X571550Y767745D02*
D03*
X564000Y757750D02*
D03*
X499850Y767500D02*
D03*
X729000Y428000D02*
D03*
X637973Y441250D02*
D03*
X643118Y435792D02*
D03*
X651264Y464873D02*
D03*
X712000Y481247D02*
D03*
X636112Y451750D02*
D03*
X641657Y466925D02*
D03*
X723000Y610000D02*
D03*
X436500Y398495D02*
D03*
X403000Y385000D02*
D03*
X402000Y393000D02*
D03*
X564750Y310250D02*
D03*
X657000Y298000D02*
D03*
X433681Y378000D02*
D03*
X528907Y689925D02*
D03*
X553750Y618500D02*
D03*
X547000Y583000D02*
D03*
X494891Y624065D02*
D03*
X444750Y634000D02*
D03*
X403000Y509000D02*
D03*
X402407Y526175D02*
D03*
X410000Y423000D02*
D03*
X420695Y544302D02*
D03*
X482907Y391925D02*
D03*
X503907Y263925D02*
D03*
X507000Y343000D02*
D03*
X544907Y383925D02*
D03*
X572000Y328914D02*
D03*
X730000Y545000D02*
D03*
X712048Y622047D02*
D03*
X484802Y552339D02*
D03*
X491535Y549036D02*
D03*
X478562Y556500D02*
D03*
X654407Y613629D02*
D03*
X728377Y519127D02*
D03*
X590250Y611500D02*
D03*
X588126Y598250D02*
D03*
X567604Y545265D02*
D03*
X551750Y543750D02*
D03*
X562925Y556850D02*
D03*
X576657Y551500D02*
D03*
X538890Y529375D02*
D03*
X528088Y554082D02*
D03*
X544500Y557250D02*
D03*
X360048Y265850D02*
D03*
X342575Y646911D02*
D03*
X751333Y264739D02*
D03*
X751825Y278161D02*
D03*
X752326Y290661D02*
D03*
X712825Y265161D02*
D03*
X712326Y277661D02*
D03*
X712576Y290161D02*
D03*
X360897Y749163D02*
D03*
X361147Y762163D02*
D03*
Y775163D02*
D03*
X322147Y749413D02*
D03*
X321397Y762413D02*
D03*
X322147Y774913D02*
D03*
X321500Y711500D02*
D03*
X360250Y711250D02*
D03*
X750626Y328268D02*
D03*
X711376Y328768D02*
D03*
X461750Y395250D02*
D03*
X469250Y387500D02*
D03*
X433788Y339178D02*
D03*
X712048Y762547D02*
D03*
X446500Y681500D02*
D03*
X468000Y676500D02*
D03*
X729376Y777268D02*
D03*
X728656Y506925D02*
D03*
X734645Y487350D02*
D03*
X739577Y526950D02*
D03*
X735750Y520500D02*
D03*
X712048Y493246D02*
D03*
X518126Y670518D02*
D03*
X548236Y667008D02*
D03*
X727376Y709017D02*
D03*
X726876Y663268D02*
D03*
X419626Y658767D02*
D03*
X490376Y694268D02*
D03*
X751048Y533947D02*
D03*
X427876Y567267D02*
D03*
X521032Y484447D02*
D03*
X516657Y499250D02*
D03*
X505500Y476750D02*
D03*
X506157Y460250D02*
D03*
X507250Y446750D02*
D03*
X483157Y461425D02*
D03*
X490157Y475000D02*
D03*
X591376Y325518D02*
D03*
X588126Y312017D02*
D03*
X469100Y659000D02*
D03*
X498500Y588250D02*
D03*
X524350Y620000D02*
D03*
X494000Y608250D02*
D03*
X518250Y653500D02*
D03*
X527626Y648268D02*
D03*
X474100Y589000D02*
D03*
X462195Y650055D02*
D03*
X489587Y435733D02*
D03*
X484000Y450500D02*
D03*
X509212Y377288D02*
D03*
X385600Y287750D02*
D03*
X611850Y403500D02*
D03*
X626500Y409500D02*
D03*
X601250Y393750D02*
D03*
X631907Y394750D02*
D03*
X626750Y400500D02*
D03*
X510250Y505500D02*
D03*
X461453Y571221D02*
D03*
X521407Y549175D02*
D03*
X516250Y581500D02*
D03*
X473250Y409500D02*
D03*
X712093Y507127D02*
D03*
X712048Y609150D02*
D03*
X584250Y480000D02*
D03*
X620409Y507758D02*
D03*
X629758Y513258D02*
D03*
X638657Y522425D02*
D03*
X649518Y490527D02*
D03*
X639239Y494206D02*
D03*
X629000Y501500D02*
D03*
X464763Y497884D02*
D03*
X488907Y511384D02*
D03*
X575100Y500250D02*
D03*
X571150Y492300D02*
D03*
X565100Y483500D02*
D03*
X620600Y434500D02*
D03*
X644850Y305000D02*
D03*
X646612Y454675D02*
D03*
X544750Y492500D02*
D03*
X712048Y648247D02*
D03*
X751048Y622847D02*
D03*
Y635547D02*
D03*
X438750Y554097D02*
D03*
X617000Y490750D02*
D03*
X647100Y508500D02*
D03*
X611121Y434726D02*
D03*
X599600Y431500D02*
D03*
X578907Y430925D02*
D03*
X569820Y581234D02*
D03*
X587000Y534500D02*
D03*
X474000Y483750D02*
D03*
X463850Y508500D02*
D03*
X471657Y431925D02*
D03*
X478100Y322000D02*
D03*
X543350Y687750D02*
D03*
X551500Y603000D02*
D03*
X430850Y670250D02*
D03*
X728500Y620250D02*
D03*
X430149Y536851D02*
D03*
X436944Y533675D02*
D03*
X422407Y537000D02*
D03*
X587157Y548925D02*
D03*
X543100Y508500D02*
D03*
X512750Y322750D02*
D03*
X484500Y282000D02*
D03*
X508471Y549759D02*
D03*
X512850Y530000D02*
D03*
X321048Y622750D02*
D03*
X393850Y682500D02*
D03*
X405350Y661500D02*
D03*
X545600Y269000D02*
D03*
X556393Y274000D02*
D03*
X580600Y313000D02*
D03*
X464750Y697500D02*
D03*
X424407Y311675D02*
D03*
X417407Y260676D02*
D03*
X399500Y482000D02*
D03*
X360048Y468547D02*
D03*
X378500Y474250D02*
D03*
X486157Y484175D02*
D03*
X472657Y374925D02*
D03*
X321048Y673647D02*
D03*
X360048Y341547D02*
D03*
Y354247D02*
D03*
X417907Y351175D02*
D03*
X483407Y376925D02*
D03*
X485657Y405425D02*
D03*
X438657Y723675D02*
D03*
X594907Y387925D02*
D03*
X650657Y404425D02*
D03*
X752657Y518675D02*
D03*
X644407Y480925D02*
D03*
X730157Y494925D02*
D03*
X712048Y597447D02*
D03*
X564407Y586425D02*
D03*
X534157Y549675D02*
D03*
X517500Y556000D02*
D03*
X504250D02*
D03*
X437157Y432425D02*
D03*
X435907Y442925D02*
D03*
X402157Y570925D02*
D03*
X712048Y775422D02*
D03*
X538500Y719250D02*
D03*
X751048Y775247D02*
D03*
Y762547D02*
D03*
Y749847D02*
D03*
X712048D02*
D03*
Y737147D02*
D03*
Y724447D02*
D03*
Y711747D02*
D03*
Y699047D02*
D03*
Y686347D02*
D03*
Y673647D02*
D03*
X751048Y660947D02*
D03*
X712048D02*
D03*
Y635547D02*
D03*
X751048Y610147D02*
D03*
Y597447D02*
D03*
X712048Y584747D02*
D03*
X751048Y546647D02*
D03*
Y506647D02*
D03*
Y493947D02*
D03*
Y455847D02*
D03*
Y443147D02*
D03*
Y417747D02*
D03*
Y316147D02*
D03*
X712048D02*
D03*
X751048Y303447D02*
D03*
X712048D02*
D03*
X321048Y265347D02*
D03*
X360048Y278047D02*
D03*
X321048D02*
D03*
X360048Y290747D02*
D03*
X321048D02*
D03*
X360048Y316147D02*
D03*
Y328847D02*
D03*
X321048D02*
D03*
Y341547D02*
D03*
X360048Y366947D02*
D03*
Y430447D02*
D03*
Y443147D02*
D03*
X321048D02*
D03*
X360048Y455847D02*
D03*
X321048D02*
D03*
X360048Y481247D02*
D03*
Y493947D02*
D03*
X321048D02*
D03*
X360048Y506647D02*
D03*
X321048D02*
D03*
X360048Y533947D02*
D03*
X321048D02*
D03*
Y546647D02*
D03*
X360048D02*
D03*
X321048Y572047D02*
D03*
Y584747D02*
D03*
Y597447D02*
D03*
Y610147D02*
D03*
Y660947D02*
D03*
X360048Y724447D02*
D03*
X321048D02*
D03*
X360500Y736900D02*
D03*
X321048Y737147D02*
D03*
D93*
X981315Y302888D02*
D03*
X894815D02*
D03*
X600750Y326950D02*
D03*
X687250D02*
D03*
D94*
X981315Y261188D02*
D03*
X894815D02*
D03*
X600750Y285250D02*
D03*
X687250D02*
D03*
D95*
X1452700Y679500D02*
D03*
X1478100D02*
D03*
X1503500D02*
D03*
X1528900D02*
D03*
X1554300D02*
D03*
X1579700D02*
D03*
X1605100D02*
D03*
X1630500D02*
D03*
X1655900D02*
D03*
X1681300D02*
D03*
X1706700D02*
D03*
X1732100D02*
D03*
X1757500D02*
D03*
X1452700Y629500D02*
D03*
X1478100D02*
D03*
X1503500D02*
D03*
X1528900D02*
D03*
X1554300D02*
D03*
X1579700D02*
D03*
X1605100D02*
D03*
X1630500D02*
D03*
X1655900D02*
D03*
X1681300D02*
D03*
X1706700D02*
D03*
X1732100D02*
D03*
X1757500D02*
D03*
X1452700Y654500D02*
D03*
X1478100D02*
D03*
X1503500D02*
D03*
X1528900D02*
D03*
X1554300D02*
D03*
X1579700D02*
D03*
X1605100D02*
D03*
X1630500D02*
D03*
X1655900D02*
D03*
X1681300D02*
D03*
X1706700D02*
D03*
X1732100D02*
D03*
X1757500D02*
D03*
D96*
X1882000Y260250D02*
D03*
Y346750D02*
D03*
D97*
X1840300Y260250D02*
D03*
Y346750D02*
D03*
D98*
X1457500Y365500D02*
D03*
X1592500D02*
D03*
X1754000D02*
D03*
X1619000D02*
D03*
D99*
X1489000Y425500D02*
D03*
X1650500D02*
D03*
D100*
X1561000D02*
D03*
X1722500D02*
D03*
D101*
X1296261Y517782D02*
D03*
X788208Y515302D02*
D03*
D102*
X1215577Y262155D02*
D03*
X1215077Y274655D02*
D03*
Y287655D02*
D03*
Y299905D02*
D03*
X1254577Y300405D02*
D03*
X1254827Y287655D02*
D03*
X1254577Y275155D02*
D03*
X1255165Y261738D02*
D03*
X1215165Y376238D02*
D03*
Y388988D02*
D03*
X1254915Y439738D02*
D03*
X1254665Y452238D02*
D03*
X1254915Y464988D02*
D03*
X1254665Y477738D02*
D03*
X1214665Y555988D02*
D03*
X1255165D02*
D03*
X1254915Y568738D02*
D03*
Y581738D02*
D03*
X1254665Y594238D02*
D03*
X1213915Y593988D02*
D03*
X1214665Y581238D02*
D03*
X1213915Y568738D02*
D03*
X1253915Y606988D02*
D03*
X1254415Y619988D02*
D03*
X1214415Y606988D02*
D03*
X1214665Y619738D02*
D03*
Y632238D02*
D03*
Y644988D02*
D03*
Y657488D02*
D03*
X1254165Y632238D02*
D03*
X1253915Y645238D02*
D03*
X1253665Y657738D02*
D03*
X1253165Y682988D02*
D03*
X1253665Y670488D02*
D03*
X1214915Y670238D02*
D03*
X1254165Y708488D02*
D03*
X1214915Y682738D02*
D03*
X1215665Y696238D02*
D03*
X1214915Y707988D02*
D03*
X1215415Y721238D02*
D03*
X1214415Y733738D02*
D03*
X1253665D02*
D03*
Y720988D02*
D03*
Y695738D02*
D03*
X833665Y771988D02*
D03*
X873665D02*
D03*
Y759238D02*
D03*
X873915Y746488D02*
D03*
X873665Y733238D02*
D03*
X833665Y733738D02*
D03*
X833915Y746738D02*
D03*
X833165Y759488D02*
D03*
X873665Y682988D02*
D03*
Y670238D02*
D03*
X833915Y683488D02*
D03*
X833665Y670238D02*
D03*
X834665Y657738D02*
D03*
X834165Y644488D02*
D03*
X834665Y632238D02*
D03*
Y619238D02*
D03*
X834165Y606238D02*
D03*
X833665Y594238D02*
D03*
X834665Y581238D02*
D03*
X834165Y568488D02*
D03*
X834665Y555738D02*
D03*
X834415Y477988D02*
D03*
X834915Y464988D02*
D03*
X834165Y452488D02*
D03*
X834665Y439488D02*
D03*
X835165Y426988D02*
D03*
Y414238D02*
D03*
X835415Y401488D02*
D03*
X835665Y388738D02*
D03*
X873415Y299988D02*
D03*
X872665Y312738D02*
D03*
X872915Y325988D02*
D03*
X873415Y338238D02*
D03*
Y363488D02*
D03*
Y376488D02*
D03*
X873165Y401738D02*
D03*
Y350988D02*
D03*
Y389088D02*
D03*
Y414488D02*
D03*
Y427188D02*
D03*
Y439888D02*
D03*
Y452588D02*
D03*
Y465288D02*
D03*
Y477988D02*
D03*
Y644988D02*
D03*
Y619588D02*
D03*
Y632288D02*
D03*
Y606888D02*
D03*
Y594188D02*
D03*
Y657688D02*
D03*
X834165Y376388D02*
D03*
X1215165Y427088D02*
D03*
Y414388D02*
D03*
Y401688D02*
D03*
Y363588D02*
D03*
Y350888D02*
D03*
X1254165D02*
D03*
Y363588D02*
D03*
Y376288D02*
D03*
Y388988D02*
D03*
Y401688D02*
D03*
Y414388D02*
D03*
Y427088D02*
D03*
X1591427Y424534D02*
D03*
D103*
X834165Y300188D02*
D03*
Y287488D02*
D03*
Y274788D02*
D03*
Y262088D02*
D03*
X873165D02*
D03*
Y274788D02*
D03*
Y287488D02*
D03*
Y490688D02*
D03*
Y503388D02*
D03*
X834165Y530688D02*
D03*
Y543388D02*
D03*
X873165Y556088D02*
D03*
Y568788D02*
D03*
Y581488D02*
D03*
Y695788D02*
D03*
Y708488D02*
D03*
X834165D02*
D03*
Y695788D02*
D03*
X873165Y721188D02*
D03*
X834165D02*
D03*
X1215165Y771988D02*
D03*
X1254165D02*
D03*
Y759288D02*
D03*
Y746588D02*
D03*
X1215165D02*
D03*
Y759288D02*
D03*
Y543388D02*
D03*
X1254165D02*
D03*
Y530688D02*
D03*
X1215165D02*
D03*
X1254165Y503288D02*
D03*
Y490588D02*
D03*
X1215165Y503288D02*
D03*
Y490588D02*
D03*
Y477888D02*
D03*
Y465188D02*
D03*
Y452488D02*
D03*
Y439788D02*
D03*
X873165Y543388D02*
D03*
Y530688D02*
D03*
X834165Y350988D02*
D03*
Y338288D02*
D03*
Y363688D02*
D03*
Y503388D02*
D03*
Y490688D02*
D03*
Y325588D02*
D03*
Y312888D02*
D03*
X1144665Y271488D02*
D03*
X1190165Y269738D02*
D03*
X944415Y320738D02*
D03*
X935939Y320096D02*
D03*
X944915Y297488D02*
D03*
X930665Y297738D02*
D03*
X1003665Y381988D02*
D03*
X994140Y348263D02*
D03*
X993165Y369738D02*
D03*
X895665Y324238D02*
D03*
Y343488D02*
D03*
X1028065Y493138D02*
D03*
X1012415Y713488D02*
D03*
X1047165Y657113D02*
D03*
X1063915Y657126D02*
D03*
X1040665Y676238D02*
D03*
X1118165Y692988D02*
D03*
X1127915Y693488D02*
D03*
X1106915Y657238D02*
D03*
X962665Y553238D02*
D03*
X936915Y657738D02*
D03*
Y642488D02*
D03*
X936415Y629488D02*
D03*
X937165Y611238D02*
D03*
X1215165Y338188D02*
D03*
X1254165Y325488D02*
D03*
Y338188D02*
D03*
Y312788D02*
D03*
X1215165D02*
D03*
X963915Y691238D02*
D03*
X1085875Y388278D02*
D03*
X1101915Y554238D02*
D03*
X1020915Y656988D02*
D03*
X1023415Y613738D02*
D03*
X1128415Y519238D02*
D03*
X1171715Y437678D02*
D03*
X1156915Y383488D02*
D03*
X1215165Y326738D02*
D03*
X1187665Y406738D02*
D03*
X1094415Y386738D02*
D03*
X1149665Y537488D02*
D03*
Y505488D02*
D03*
X1152915Y471738D02*
D03*
X1136915Y567238D02*
D03*
X1136165Y595488D02*
D03*
X1114165Y603738D02*
D03*
X1115165Y559488D02*
D03*
X1076165Y509238D02*
D03*
X1149915Y633488D02*
D03*
X1151915Y600238D02*
D03*
X1003415Y536738D02*
D03*
X1000629Y622953D02*
D03*
X1096415Y765988D02*
D03*
X1012665Y763988D02*
D03*
X1174665Y421238D02*
D03*
X1073616Y463511D02*
D03*
X977665Y472488D02*
D03*
X954665Y437488D02*
D03*
X994665Y436988D02*
D03*
X910499Y424629D02*
D03*
X1080665Y734238D02*
D03*
X1107165Y517988D02*
D03*
X958665Y290488D02*
D03*
X1189665Y316238D02*
D03*
X1131415Y334238D02*
D03*
X1137165Y320238D02*
D03*
X1183021Y329215D02*
D03*
X1188915Y287988D02*
D03*
X1128915Y351238D02*
D03*
X1163415Y322238D02*
D03*
X714000Y443000D02*
D03*
X753000Y648000D02*
D03*
Y673000D02*
D03*
Y686000D02*
D03*
Y699000D02*
D03*
Y711000D02*
D03*
X752000Y724000D02*
D03*
X751000Y737000D02*
D03*
X711000Y572000D02*
D03*
Y559000D02*
D03*
X752000Y585000D02*
D03*
Y572000D02*
D03*
Y559000D02*
D03*
X751000Y481000D02*
D03*
Y468000D02*
D03*
X712000Y430000D02*
D03*
Y354000D02*
D03*
X713000Y341000D02*
D03*
X712000Y367000D02*
D03*
Y379000D02*
D03*
Y392000D02*
D03*
X751000Y405000D02*
D03*
Y392000D02*
D03*
X752000Y354000D02*
D03*
Y341000D02*
D03*
X321000Y699000D02*
D03*
Y686000D02*
D03*
X360000Y699000D02*
D03*
Y686000D02*
D03*
X361000Y673000D02*
D03*
Y661000D02*
D03*
Y648000D02*
D03*
X321000D02*
D03*
Y635000D02*
D03*
X359000D02*
D03*
X360000Y623000D02*
D03*
Y610000D02*
D03*
Y597000D02*
D03*
Y584000D02*
D03*
X321000Y559000D02*
D03*
X360000Y418000D02*
D03*
Y405000D02*
D03*
Y392000D02*
D03*
Y379000D02*
D03*
Y303000D02*
D03*
X322000D02*
D03*
Y316000D02*
D03*
X321000Y380000D02*
D03*
Y392000D02*
D03*
Y405000D02*
D03*
Y418000D02*
D03*
X322000Y430000D02*
D03*
Y468000D02*
D03*
Y481000D02*
D03*
X577000Y721131D02*
D03*
X578254Y740903D02*
D03*
X557000Y732000D02*
D03*
X632000D02*
D03*
X487908Y755516D02*
D03*
X594000Y476000D02*
D03*
X599350Y703475D02*
D03*
X662250Y343450D02*
D03*
X660000Y648000D02*
D03*
X550250Y468000D02*
D03*
X670000Y620000D02*
D03*
X638000Y260000D02*
D03*
X602000Y376000D02*
D03*
X637000Y410000D02*
D03*
X692500Y481425D02*
D03*
D145*
X1130265Y468988D02*
D03*
Y475488D02*
D03*
Y481988D02*
D03*
Y488488D02*
D03*
Y494988D02*
D03*
Y501488D02*
D03*
Y507988D02*
D03*
X1187665D02*
D03*
Y501488D02*
D03*
Y494988D02*
D03*
Y488488D02*
D03*
Y481988D02*
D03*
Y475488D02*
D03*
Y468988D02*
D03*
D146*
X1051415Y319238D02*
D03*
X1071415D02*
D03*
X1051165Y353238D02*
D03*
X1071165D02*
D03*
X1051415Y278488D02*
D03*
X1071415D02*
D03*
X1051415Y298988D02*
D03*
X1071415D02*
D03*
D147*
X1079665Y727488D02*
D03*
X1089165Y747488D02*
D03*
X1070165D02*
D03*
X1153415Y745988D02*
D03*
X1172415D02*
D03*
X1162915Y725988D02*
D03*
D148*
X1254165Y503288D02*
D03*
Y490588D02*
D03*
Y477888D02*
D03*
Y465188D02*
D03*
Y452488D02*
D03*
Y414388D02*
D03*
Y427088D02*
D03*
Y439788D02*
D03*
Y401688D02*
D03*
Y388988D02*
D03*
Y376288D02*
D03*
Y363588D02*
D03*
Y350888D02*
D03*
Y312788D02*
D03*
Y325488D02*
D03*
Y338188D02*
D03*
Y300088D02*
D03*
Y287388D02*
D03*
Y274688D02*
D03*
Y261988D02*
D03*
X1215165Y503288D02*
D03*
Y490588D02*
D03*
Y477888D02*
D03*
Y465188D02*
D03*
Y452488D02*
D03*
Y414388D02*
D03*
Y427088D02*
D03*
Y439788D02*
D03*
Y401688D02*
D03*
Y388988D02*
D03*
Y376288D02*
D03*
Y363588D02*
D03*
Y350888D02*
D03*
Y312788D02*
D03*
Y325488D02*
D03*
Y338188D02*
D03*
Y300088D02*
D03*
Y287388D02*
D03*
Y274688D02*
D03*
Y261988D02*
D03*
X834165Y262088D02*
D03*
Y274788D02*
D03*
Y287488D02*
D03*
Y300188D02*
D03*
Y338288D02*
D03*
Y325588D02*
D03*
Y312888D02*
D03*
Y350988D02*
D03*
Y363688D02*
D03*
Y376388D02*
D03*
Y389088D02*
D03*
Y401788D02*
D03*
Y439888D02*
D03*
Y427188D02*
D03*
Y414488D02*
D03*
Y452588D02*
D03*
Y465288D02*
D03*
Y477988D02*
D03*
Y490688D02*
D03*
Y503388D02*
D03*
X873165Y262088D02*
D03*
Y274788D02*
D03*
Y287488D02*
D03*
Y300188D02*
D03*
Y338288D02*
D03*
Y325588D02*
D03*
Y312888D02*
D03*
Y350988D02*
D03*
Y363688D02*
D03*
Y376388D02*
D03*
Y389088D02*
D03*
Y401788D02*
D03*
Y439888D02*
D03*
Y427188D02*
D03*
Y414488D02*
D03*
Y452588D02*
D03*
Y465288D02*
D03*
Y477988D02*
D03*
Y490688D02*
D03*
Y503388D02*
D03*
X1215165Y771988D02*
D03*
Y759288D02*
D03*
Y746588D02*
D03*
Y733888D02*
D03*
Y721188D02*
D03*
Y683088D02*
D03*
Y695788D02*
D03*
Y708488D02*
D03*
Y670388D02*
D03*
Y657688D02*
D03*
Y644988D02*
D03*
Y632288D02*
D03*
Y619588D02*
D03*
Y581488D02*
D03*
Y594188D02*
D03*
Y606888D02*
D03*
Y568788D02*
D03*
Y556088D02*
D03*
Y543388D02*
D03*
Y530688D02*
D03*
X1254165Y771988D02*
D03*
Y759288D02*
D03*
Y746588D02*
D03*
Y733888D02*
D03*
Y721188D02*
D03*
Y683088D02*
D03*
Y695788D02*
D03*
Y708488D02*
D03*
Y670388D02*
D03*
Y657688D02*
D03*
Y644988D02*
D03*
Y632288D02*
D03*
Y619588D02*
D03*
Y581488D02*
D03*
Y594188D02*
D03*
Y606888D02*
D03*
Y568788D02*
D03*
Y556088D02*
D03*
Y543388D02*
D03*
Y530688D02*
D03*
X834165D02*
D03*
Y543388D02*
D03*
Y556088D02*
D03*
Y568788D02*
D03*
Y606888D02*
D03*
Y594188D02*
D03*
Y581488D02*
D03*
Y619588D02*
D03*
Y632288D02*
D03*
Y644988D02*
D03*
Y657688D02*
D03*
Y670388D02*
D03*
Y708488D02*
D03*
Y695788D02*
D03*
Y683088D02*
D03*
Y721188D02*
D03*
Y733888D02*
D03*
Y746588D02*
D03*
Y759288D02*
D03*
Y771988D02*
D03*
X873165Y530688D02*
D03*
Y543388D02*
D03*
Y556088D02*
D03*
Y568788D02*
D03*
Y606888D02*
D03*
Y594188D02*
D03*
Y581488D02*
D03*
Y619588D02*
D03*
Y632288D02*
D03*
Y644988D02*
D03*
Y657688D02*
D03*
Y670388D02*
D03*
Y708488D02*
D03*
Y695788D02*
D03*
Y683088D02*
D03*
Y721188D02*
D03*
Y733888D02*
D03*
Y746588D02*
D03*
Y759288D02*
D03*
Y771988D02*
D03*
X360500Y506400D02*
D03*
Y493700D02*
D03*
Y481000D02*
D03*
Y468300D02*
D03*
Y430200D02*
D03*
Y442900D02*
D03*
Y455600D02*
D03*
Y417500D02*
D03*
Y404800D02*
D03*
Y392100D02*
D03*
Y379400D02*
D03*
Y366700D02*
D03*
Y328600D02*
D03*
Y341300D02*
D03*
Y354000D02*
D03*
Y315900D02*
D03*
Y303200D02*
D03*
Y290500D02*
D03*
Y277800D02*
D03*
Y265100D02*
D03*
X321500Y506400D02*
D03*
Y493700D02*
D03*
Y481000D02*
D03*
Y468300D02*
D03*
Y430200D02*
D03*
Y442900D02*
D03*
Y455600D02*
D03*
Y417500D02*
D03*
Y404800D02*
D03*
Y392100D02*
D03*
Y379400D02*
D03*
Y366700D02*
D03*
Y328600D02*
D03*
Y341300D02*
D03*
Y354000D02*
D03*
Y315900D02*
D03*
Y303200D02*
D03*
Y290500D02*
D03*
Y277800D02*
D03*
Y265100D02*
D03*
X751500Y506400D02*
D03*
Y493700D02*
D03*
Y481000D02*
D03*
Y468300D02*
D03*
Y430200D02*
D03*
Y442900D02*
D03*
Y455600D02*
D03*
Y417500D02*
D03*
Y404800D02*
D03*
Y392100D02*
D03*
Y379400D02*
D03*
Y366700D02*
D03*
Y328600D02*
D03*
Y341300D02*
D03*
Y354000D02*
D03*
Y315900D02*
D03*
Y303200D02*
D03*
Y290500D02*
D03*
Y277800D02*
D03*
Y265100D02*
D03*
X712500Y506400D02*
D03*
Y493700D02*
D03*
Y481000D02*
D03*
Y468300D02*
D03*
Y430200D02*
D03*
Y442900D02*
D03*
Y455600D02*
D03*
Y417500D02*
D03*
Y404800D02*
D03*
Y392100D02*
D03*
Y379400D02*
D03*
Y366700D02*
D03*
Y328600D02*
D03*
Y341300D02*
D03*
Y354000D02*
D03*
Y315900D02*
D03*
Y303200D02*
D03*
Y290500D02*
D03*
Y277800D02*
D03*
Y265100D02*
D03*
X360500Y775000D02*
D03*
Y762300D02*
D03*
Y749600D02*
D03*
Y736900D02*
D03*
Y698800D02*
D03*
Y711500D02*
D03*
Y724200D02*
D03*
Y686100D02*
D03*
Y673400D02*
D03*
Y660700D02*
D03*
Y648000D02*
D03*
Y635300D02*
D03*
Y597200D02*
D03*
Y609900D02*
D03*
Y622600D02*
D03*
Y584500D02*
D03*
Y571800D02*
D03*
Y559100D02*
D03*
Y546400D02*
D03*
Y533700D02*
D03*
X321500Y775000D02*
D03*
Y762300D02*
D03*
Y749600D02*
D03*
Y736900D02*
D03*
Y698800D02*
D03*
Y711500D02*
D03*
Y724200D02*
D03*
Y686100D02*
D03*
Y673400D02*
D03*
Y660700D02*
D03*
Y648000D02*
D03*
Y635300D02*
D03*
Y597200D02*
D03*
Y609900D02*
D03*
Y622600D02*
D03*
Y584500D02*
D03*
Y571800D02*
D03*
Y559100D02*
D03*
Y546400D02*
D03*
Y533700D02*
D03*
X751500Y775000D02*
D03*
Y762300D02*
D03*
Y749600D02*
D03*
Y736900D02*
D03*
Y698800D02*
D03*
Y711500D02*
D03*
Y724200D02*
D03*
Y686100D02*
D03*
Y673400D02*
D03*
Y660700D02*
D03*
Y648000D02*
D03*
Y635300D02*
D03*
Y597200D02*
D03*
Y609900D02*
D03*
Y622600D02*
D03*
Y584500D02*
D03*
Y571800D02*
D03*
Y559100D02*
D03*
Y546400D02*
D03*
Y533700D02*
D03*
X712500Y775000D02*
D03*
Y762300D02*
D03*
Y749600D02*
D03*
Y736900D02*
D03*
Y698800D02*
D03*
Y711500D02*
D03*
Y724200D02*
D03*
Y686100D02*
D03*
Y673400D02*
D03*
Y660700D02*
D03*
Y648000D02*
D03*
Y635300D02*
D03*
Y597200D02*
D03*
Y609900D02*
D03*
Y622600D02*
D03*
Y584500D02*
D03*
Y571800D02*
D03*
Y559100D02*
D03*
Y546400D02*
D03*
Y533700D02*
D03*
D149*
X1069165Y525838D02*
D03*
X1111165D02*
D03*
X1069165Y576638D02*
D03*
X1111165D02*
D03*
D150*
X1028215Y535238D02*
D03*
Y540238D02*
D03*
Y545238D02*
D03*
Y550238D02*
D03*
Y555238D02*
D03*
Y560238D02*
D03*
Y565238D02*
D03*
Y570238D02*
D03*
Y575238D02*
D03*
Y580238D02*
D03*
Y585238D02*
D03*
Y590238D02*
D03*
X944615D02*
D03*
Y585238D02*
D03*
Y580238D02*
D03*
Y575238D02*
D03*
Y570238D02*
D03*
Y565238D02*
D03*
Y560238D02*
D03*
Y555238D02*
D03*
Y550238D02*
D03*
Y545238D02*
D03*
Y540238D02*
D03*
Y535238D02*
D03*
D151*
X958915Y520938D02*
D03*
X963915D02*
D03*
X968915D02*
D03*
X973915D02*
D03*
X978915D02*
D03*
X983915D02*
D03*
X988915D02*
D03*
X993915D02*
D03*
X998915D02*
D03*
X1003915D02*
D03*
X1008915D02*
D03*
X1013915D02*
D03*
Y604538D02*
D03*
X1008915D02*
D03*
X1003915D02*
D03*
X998915D02*
D03*
X993915D02*
D03*
X988915D02*
D03*
X983915D02*
D03*
X978915D02*
D03*
X973915D02*
D03*
X968915D02*
D03*
X963915D02*
D03*
X958915D02*
D03*
D152*
X1457250Y598000D02*
D03*
X1414550D02*
D03*
X1632800Y570000D02*
D03*
X1675500D02*
D03*
X1521100Y353250D02*
D03*
X1478400D02*
D03*
D153*
X1509180Y525500D02*
D03*
X1726000Y513550D02*
D03*
X1600500Y311000D02*
D03*
D154*
X1484430Y544550D02*
D03*
Y531850D02*
D03*
Y519150D02*
D03*
Y506450D02*
D03*
X1533930D02*
D03*
Y519150D02*
D03*
Y531850D02*
D03*
Y544550D02*
D03*
X1701250Y532600D02*
D03*
Y519900D02*
D03*
Y507200D02*
D03*
Y494500D02*
D03*
X1750750D02*
D03*
Y507200D02*
D03*
Y519900D02*
D03*
Y532600D02*
D03*
X1575750Y330050D02*
D03*
Y317350D02*
D03*
Y304650D02*
D03*
Y291950D02*
D03*
X1625250D02*
D03*
Y304650D02*
D03*
Y317350D02*
D03*
Y330050D02*
D03*
D155*
X1513000Y610250D02*
D03*
Y568250D02*
D03*
X1731000Y558000D02*
D03*
Y600000D02*
D03*
X1666250Y349250D02*
D03*
Y391250D02*
D03*
D156*
X1834500Y271500D02*
D03*
Y279500D02*
D03*
Y327500D02*
D03*
Y335500D02*
D03*
D157*
Y286000D02*
D03*
Y291000D02*
D03*
Y296000D02*
D03*
Y301000D02*
D03*
Y321000D02*
D03*
Y316000D02*
D03*
Y311000D02*
D03*
Y306000D02*
D03*
D158*
X1878000Y749000D02*
D03*
X1823000D02*
D03*
X1878000Y715000D02*
D03*
X1823000D02*
D03*
D159*
X1721250Y732750D02*
D03*
D160*
X1617050Y758150D02*
D03*
D161*
Y707350D02*
D03*
D162*
X645000Y733000D02*
D03*
X645171Y568479D02*
D03*
D163*
X619600Y628800D02*
D03*
X619771Y464279D02*
D03*
D164*
X670400Y628800D02*
D03*
X670571Y464279D02*
D03*
D165*
X376250Y718250D02*
D03*
X524750D02*
D03*
D166*
X502750Y637000D02*
D03*
X491750D02*
D03*
X414750D02*
D03*
X425750D02*
D03*
X436750D02*
D03*
X447750D02*
D03*
X458750D02*
D03*
X469750D02*
D03*
X480750D02*
D03*
X403750D02*
D03*
D167*
X682250Y366500D02*
D03*
Y411500D02*
D03*
D168*
X552500Y302500D02*
D03*
X540000D02*
D03*
X527500D02*
D03*
X515000D02*
D03*
X502500D02*
D03*
X490000D02*
D03*
X477500D02*
D03*
X465000D02*
D03*
D169*
X578000Y273500D02*
D03*
X439500D02*
D03*
M02*
